<svg width="437" height="437" viewBox="0 0 437 437" fill="none" xmlns="http://www.w3.org/2000/svg">
<path d="M333.28 155.179H324.383V164.076H333.28V155.179Z" fill="#E0E0E0"/>
<path d="M328.327 247.062H319.43V255.96H328.327V247.062Z" fill="#E0E0E0"/>
<path d="M342.398 272.609H328.965V286.043H342.398V272.609Z" fill="#E0E0E0"/>
<path d="M122.152 254.867H108.719V268.301H122.152V254.867Z" fill="#E0E0E0"/>
<path d="M102.851 243.164H94.1719V251.843H102.851V243.164Z" fill="#E0E0E0"/>
<path d="M126.495 295.683H117.816V304.362H126.495V295.683Z" fill="#E0E0E0"/>
<path d="M89.9403 180.289H83.6562V186.573H89.9403V180.289Z" fill="#E0E0E0"/>
<path d="M355.907 168.909H352.586V172.23H355.907V168.909Z" fill="#E0E0E0"/>
<path d="M324.255 140.933H319.125V146.063H324.255V140.933Z" fill="#E0E0E0"/>
<path d="M350.291 242.552H345.16V247.683H350.291V242.552Z" fill="#E0E0E0"/>
<path d="M119.797 162.162H111.074V170.885H119.797V162.162Z" fill="#E0E0E0"/>
<path d="M31.0352 159.313L61.1794 159.82L46.4962 140.933L31.0352 159.313Z" fill="#F5F5F5"/>
<path d="M45.0426 174.127H39.9297V179.24H45.0426V174.127Z" fill="#F5F5F5"/>
<path d="M49.9215 179.721H44.8086V184.834H49.9215V179.721Z" fill="#F5F5F5"/>
<path d="M43.8539 186.599H39.9297V190.523H43.8539V186.599Z" fill="#F5F5F5"/>
<path d="M53.3383 175.351H49.4141V179.275H53.3383V175.351Z" fill="#F5F5F5"/>
<path d="M39.9305 180.158H37.125V182.963H39.9305V180.158Z" fill="#F5F5F5"/>
<path d="M48.0666 195.462H44.7891V192.175H48.0666V195.462ZM45.261 194.972H47.5771V192.665H45.2785L45.261 194.972Z" fill="#F5F5F5"/>
<path d="M52.7899 184.554H49.9844V187.359H52.7899V184.554Z" fill="#F5F5F5"/>
<path d="M52.9795 156.848L38.6022 157.014L37.6758 175.421H53.4078L52.9795 156.848ZM47.9191 172.178H45.1223V169.381H47.9191V172.178Z" fill="#F5F5F5"/>
<path d="M38.1758 340.729L86.9799 341.603L63.1984 309.964L38.1758 340.729Z" fill="#EBEBEB"/>
<path d="M60.8384 365.524H52.5703V374.072H60.8384V365.524Z" fill="#EBEBEB"/>
<path d="M68.7368 374.894H60.4688V383.441H68.7368V374.894Z" fill="#EBEBEB"/>
<path d="M58.9243 386.413H52.5703V392.986H58.9243V386.413Z" fill="#EBEBEB"/>
<path d="M74.2876 367.578H67.9336V374.151H74.2876V367.578Z" fill="#EBEBEB"/>
<path d="M52.5712 375.628H48.0352V380.321H52.5712V375.628Z" fill="#EBEBEB"/>
<path d="M65.7767 401.244H60.4453V395.738H65.7767V401.244ZM61.2406 400.432H64.9814V396.551H61.2406V400.432Z" fill="#EBEBEB"/>
<path d="M73.3798 382.978H68.8438V387.671H73.3798V382.978Z" fill="#EBEBEB"/>
<path d="M73.7057 336.604L50.4224 336.892L48.9453 367.7H74.37L73.7057 336.604ZM65.5513 362.238H60.9803V357.553H65.5513V362.238Z" fill="#EBEBEB"/>
<path d="M48.9453 66.9481L99.3227 67.8221L74.7982 36.2271L48.9453 66.9481Z" fill="#E0E0E0"/>
<path d="M72.3593 91.7002H63.8203V100.239H72.3593V91.7002Z" fill="#E0E0E0"/>
<path d="M80.5116 101.052H71.9727V109.591H80.5116V101.052Z" fill="#E0E0E0"/>
<path d="M70.3753 112.554H63.8203V119.109H70.3753V112.554Z" fill="#E0E0E0"/>
<path d="M86.2347 93.7539H79.6797V100.309H86.2347V93.7539Z" fill="#E0E0E0"/>
<path d="M63.8174 101.795H59.1328V106.48H63.8174V101.795Z" fill="#E0E0E0"/>
<path d="M77.4428 127.359H71.9453V121.862H77.4428V127.359ZM72.7669 126.546H76.63V122.683H72.7669V126.546Z" fill="#E0E0E0"/>
<path d="M85.3018 109.127H80.6172V113.812H85.3018V109.127Z" fill="#E0E0E0"/>
<path d="M85.6514 62.832L61.6164 63.1205L60.0781 93.8765H86.3243L85.6514 62.832ZM77.1998 88.4228H72.5414V83.7381H77.226L77.1998 88.4228Z" fill="#E0E0E0"/>
<path d="M317.262 331.657L360.533 332.382L339.453 305.288L317.262 331.657Z" fill="#F5F5F5"/>
<path d="M337.329 352.921H329.996V360.254H337.329V352.921Z" fill="#F5F5F5"/>
<path d="M344.329 360.944H336.996V368.277H344.329V360.944Z" fill="#F5F5F5"/>
<path d="M335.633 370.821H329.996V376.458H335.633V370.821Z" fill="#F5F5F5"/>
<path d="M349.251 354.678H343.613V360.315H349.251V354.678Z" fill="#F5F5F5"/>
<path d="M329.989 361.583H325.969V365.603H329.989V361.583Z" fill="#F5F5F5"/>
<path d="M341.735 383.546H337.016V378.827H341.735V383.546ZM337.715 382.847H341.036V379.526H337.715V382.847Z" fill="#F5F5F5"/>
<path d="M348.434 367.884H344.414V371.905H348.434V367.884Z" fill="#F5F5F5"/>
<path d="M348.726 328.117L328.082 328.362L326.754 354.783H349.312L348.726 328.117ZM341.463 350.098H337.434V346.104H341.463V350.098Z" fill="#F5F5F5"/>
<path d="M303.391 50.3686L346.662 51.094L325.573 24L303.391 50.3686Z" fill="#F5F5F5"/>
<path d="M323.485 71.6328H316.152V78.9657H323.485V71.6328Z" fill="#F5F5F5"/>
<path d="M330.485 79.6562H323.152V86.9891H330.485V79.6562Z" fill="#F5F5F5"/>
<path d="M321.79 89.5327H316.152V95.17H321.79V89.5327Z" fill="#F5F5F5"/>
<path d="M335.415 73.3896H329.777V79.0269H335.415V73.3896Z" fill="#F5F5F5"/>
<path d="M316.153 80.2944H312.133V84.3148H316.153V80.2944Z" fill="#F5F5F5"/>
<path d="M327.852 102.258H323.133V97.5386H327.852V102.258ZM323.832 101.559H327.153V98.2378H323.832V101.559Z" fill="#F5F5F5"/>
<path d="M334.602 86.5957H330.582V90.6161H334.602V86.5957Z" fill="#F5F5F5"/>
<path d="M334.889 46.8291L314.245 47.0738L312.891 73.4948H335.457L334.889 46.8291ZM327.626 68.8102H323.606V64.7898H327.626V68.8102Z" fill="#F5F5F5"/>
<path d="M360.867 199.621L410.773 200.495L386.458 169.224L360.867 199.621Z" fill="#EBEBEB"/>
<path d="M384.046 224.146H375.586V232.606H384.046V224.146Z" fill="#EBEBEB"/>
<path d="M392.12 233.41H383.66V241.87H392.12V233.41Z" fill="#EBEBEB"/>
<path d="M382.088 244.799H375.586V251.301H382.088V244.799Z" fill="#EBEBEB"/>
<path d="M397.799 226.174H391.297V232.676H397.799V226.174Z" fill="#EBEBEB"/>
<path d="M375.586 234.145H370.945V238.785H375.586V234.145Z" fill="#EBEBEB"/>
<path d="M389.085 259.473H383.684V254.028H389.129L389.085 259.473ZM384.444 258.669H388.281V254.832H384.444V258.669Z" fill="#EBEBEB"/>
<path d="M396.868 241.408H392.227V246.049H396.868V241.408Z" fill="#EBEBEB"/>
<path d="M397.197 195.54L373.389 195.828L371.859 226.296H397.878L397.197 195.54ZM388.824 220.886H384.183V216.245H388.824V220.886Z" fill="#EBEBEB"/>
<path d="M416.445 420.726C416.445 420.857 330.793 420.954 225.039 420.954C119.285 420.954 33.6328 420.857 33.6328 420.726C33.6328 420.595 119.285 420.499 225.039 420.499C330.793 420.499 416.445 420.604 416.445 420.726Z" fill="#263238"/>
<path d="M277.056 420.726L158.192 420.665C143.893 420.665 132.304 409.6 132.313 395.974L132.365 111.924C132.365 98.29 143.972 87.2339 158.279 87.2427L277.143 87.3126C291.442 87.3126 303.031 98.3687 303.022 111.994L302.97 396.044C302.935 409.688 291.337 420.735 277.056 420.726Z" fill="#263238"/>
<path d="M276.186 97.3027H253.156H185.858H157.549C147.533 97.3027 139.405 105.029 139.405 114.582L139.344 391.832C139.344 401.376 147.463 409.12 157.471 409.12L276.133 409.19C286.15 409.19 294.278 401.455 294.278 391.911L294.339 114.652C294.339 105.046 286.228 97.3115 276.186 97.3027Z" fill="white"/>
<path d="M267.477 121.845H259.629V128.994H267.477V121.845Z" fill="#349F6E"/>
<path d="M182.769 121.18H179.465V123.785H182.769V121.18Z" fill="#349F6E"/>
<path d="M259.663 116.365H256.359V118.969H259.663V116.365Z" fill="#349F6E"/>
<path d="M233.015 103.132H227.98V107.791H233.015V103.132Z" fill="#349F6E"/>
<path d="M180.54 129.116H170.742V137.751H180.54V129.116Z" fill="#349F6E"/>
<path d="M212.616 110.133H209.461V112.737H212.616V110.133Z" fill="#349F6E"/>
<path d="M252.151 116.408H189.468L188.742 257.795H252.151V116.408Z" fill="#349F6E"/>
<path d="M223.606 115.08H216.789V120.708H223.606V115.08Z" fill="white"/>
<path d="M243.156 115.167H236.609V124.431H243.156V115.167Z" fill="white"/>
<path d="M248.557 115.027H244.23V122.841H248.557V115.027Z" fill="white"/>
<path d="M196.273 115.456H190.426V123.785H196.273V115.456Z" fill="white"/>
<path d="M205.529 116.024H202.348V121.845H205.529V116.024Z" fill="white"/>
<path d="M233.308 112.886H227.094V118.008H233.308V112.886Z" fill="#349F6E"/>
<path d="M218.404 77.5153C218.393 78.0315 218.231 78.5332 217.936 78.9574C217.642 79.3816 217.229 79.7095 216.749 79.9C216.269 80.0904 215.744 80.1349 215.239 80.0279C214.734 79.9209 214.271 79.6671 213.91 79.2984C213.548 78.9297 213.304 78.4625 213.207 77.9554C213.11 77.4482 213.165 76.9238 213.365 76.4477C213.565 75.9716 213.901 75.5652 214.331 75.2793C214.761 74.9935 215.265 74.8409 215.782 74.8408C216.13 74.8408 216.476 74.9103 216.797 75.0453C217.119 75.1803 217.41 75.3782 217.654 75.6272C217.899 75.8763 218.091 76.1716 218.219 76.4958C218.348 76.8199 218.411 77.1666 218.404 77.5153Z" fill="#349F6E"/>
<path d="M166.022 68.8367C167.48 68.8367 168.662 67.6393 168.662 66.1622C168.662 64.6852 167.48 63.4878 166.022 63.4878C164.565 63.4878 163.383 64.6852 163.383 66.1622C163.383 67.6393 164.565 68.8367 166.022 68.8367Z" fill="#349F6E"/>
<path d="M190.01 117.92H189.136L189.835 72.7693H159.367L160.066 72.0351C160.267 71.8253 164.996 66.7911 166.106 66.022L166.621 66.7212C165.896 67.263 163.195 70.0249 161.377 71.8953H190.7L190.01 117.92Z" fill="#349F6E"/>
<path d="M174.09 60.6648C174.125 61.1894 174.001 61.7124 173.735 62.166C173.469 62.6195 173.073 62.9826 172.598 63.2081C172.123 63.4337 171.591 63.5112 171.072 63.4306C170.552 63.3501 170.069 63.1152 169.685 62.7564C169.3 62.3977 169.033 61.9316 168.916 61.4188C168.8 60.906 168.841 60.3702 169.033 59.8808C169.225 59.3914 169.56 58.9712 169.995 58.6746C170.429 58.378 170.942 58.2188 171.468 58.2176C172.139 58.1963 172.792 58.4418 173.284 58.9003C173.775 59.3589 174.065 59.9932 174.09 60.6648Z" fill="#349F6E"/>
<path d="M178.969 54.5203C179.004 55.0449 178.88 55.5679 178.614 56.0214C178.348 56.475 177.952 56.8381 177.477 57.0636C177.002 57.2891 176.47 57.3666 175.951 57.2861C175.431 57.2055 174.948 56.9706 174.563 56.6119C174.179 56.2531 173.911 55.7871 173.795 55.2743C173.679 54.7615 173.72 54.2256 173.912 53.7363C174.104 53.2469 174.439 52.8266 174.873 52.53C175.308 52.2334 175.821 52.0742 176.347 52.0731C177.018 52.0518 177.671 52.2973 178.162 52.7558C178.654 53.2143 178.944 53.8487 178.969 54.5203Z" fill="#349F6E"/>
<path d="M194.307 42.6776C195.557 42.6776 196.57 41.582 196.57 40.2304C196.57 38.8789 195.557 37.7832 194.307 37.7832C193.056 37.7832 192.043 38.8789 192.043 40.2304C192.043 41.582 193.056 42.6776 194.307 42.6776Z" fill="#349F6E"/>
<path d="M218.148 42.7128C218.145 43.1926 218 43.6606 217.73 44.0579C217.461 44.4552 217.081 44.7639 216.636 44.9451C216.192 45.1263 215.704 45.1719 215.234 45.0762C214.764 44.9805 214.333 44.7477 213.995 44.4072C213.657 44.0668 213.427 43.6338 213.334 43.163C213.242 42.6921 213.291 42.2045 213.476 41.7615C213.66 41.3186 213.972 40.9401 214.371 40.6739C214.77 40.4077 215.239 40.2656 215.719 40.2656C216.365 40.2702 216.983 40.5301 217.438 40.9885C217.893 41.447 218.148 42.0668 218.148 42.7128Z" fill="#349F6E"/>
<path d="M223.178 22.7241C223.173 23.2017 223.026 23.6672 222.757 24.0619C222.488 24.4565 222.108 24.7627 221.665 24.942C221.222 25.1212 220.736 25.1654 220.269 25.0691C219.801 24.9727 219.372 24.7401 219.036 24.4005C218.7 24.0609 218.472 23.6295 218.381 23.1606C218.289 22.6917 218.339 22.2063 218.523 21.7654C218.707 21.3246 219.017 20.948 219.415 20.6831C219.812 20.4182 220.279 20.2769 220.757 20.2769C221.402 20.2815 222.019 20.5416 222.473 21.0003C222.927 21.459 223.18 22.0788 223.178 22.7241Z" fill="#349F6E"/>
<path d="M236.005 29.3319C237.313 29.3319 238.374 28.2363 238.374 26.8847C238.374 25.5331 237.313 24.4375 236.005 24.4375C234.697 24.4375 233.637 25.5331 233.637 26.8847C233.637 28.2363 234.697 29.3319 236.005 29.3319Z" fill="#349F6E"/>
<path d="M261.326 49.5824C261.291 50.0223 261.128 50.4422 260.857 50.791C260.587 51.1398 260.221 51.4023 259.804 51.5465C259.387 51.6907 258.937 51.7104 258.509 51.603C258.081 51.4957 257.693 51.2661 257.394 50.9421C257.094 50.6182 256.895 50.2141 256.821 49.779C256.747 49.3439 256.802 48.8967 256.978 48.4921C257.154 48.0874 257.444 47.7428 257.813 47.5003C258.181 47.2578 258.613 47.1279 259.054 47.1265C259.365 47.1377 259.67 47.2103 259.953 47.3399C260.235 47.4696 260.49 47.6538 260.701 47.8821C260.912 48.1103 261.076 48.378 261.183 48.6698C261.291 48.9616 261.339 49.2717 261.326 49.5824Z" fill="#349F6E"/>
<path d="M227.292 55.5605C227.275 56.0231 227.122 56.4705 226.853 56.8469C226.583 57.2233 226.209 57.5121 225.777 57.6774C225.344 57.8426 224.873 57.8771 224.421 57.7764C223.969 57.6757 223.557 57.4443 223.235 57.1111C222.914 56.7779 222.698 56.3575 222.614 55.9023C222.529 55.447 222.581 54.9771 222.762 54.551C222.943 54.1249 223.245 53.7614 223.631 53.5057C224.017 53.2501 224.469 53.1136 224.932 53.1133C225.248 53.119 225.559 53.1868 225.849 53.3129C226.138 53.4389 226.4 53.6208 226.619 53.848C226.838 54.0753 227.011 54.3435 227.126 54.6373C227.242 54.9311 227.298 55.2448 227.292 55.5605Z" fill="#349F6E"/>
<path d="M237.78 54.7562C237.761 55.2188 237.607 55.6655 237.336 56.0409C237.065 56.4163 236.69 56.7038 236.257 56.8674C235.824 57.0311 235.352 57.0638 234.901 56.9615C234.449 56.8592 234.038 56.6263 233.718 56.2919C233.398 55.9575 233.183 55.5364 233.1 55.0809C233.018 54.6254 233.071 54.1557 233.253 53.7302C233.436 53.3047 233.739 52.9423 234.126 52.6881C234.513 52.4338 234.966 52.299 235.429 52.3003C235.745 52.306 236.057 52.3741 236.346 52.5008C236.636 52.6276 236.898 52.8104 237.116 53.0387C237.335 53.267 237.506 53.5363 237.62 53.8311C237.734 54.1259 237.788 54.4403 237.78 54.7562Z" fill="#349F6E"/>
<path d="M266.756 60.8304C268.006 60.8304 269.02 59.7348 269.02 58.3832C269.02 57.0317 268.006 55.936 266.756 55.936C265.506 55.936 264.492 57.0317 264.492 58.3832C264.492 59.7348 265.506 60.8304 266.756 60.8304Z" fill="#349F6E"/>
<path d="M230.361 17.4804C230.356 17.9585 230.21 18.4243 229.94 18.8191C229.671 19.214 229.29 19.5202 228.847 19.6991C228.403 19.8781 227.917 19.9218 227.449 19.8247C226.981 19.7277 226.552 19.4942 226.216 19.1537C225.881 18.8132 225.653 18.381 225.563 17.9116C225.473 17.4421 225.523 16.9564 225.709 16.5157C225.894 16.075 226.206 15.6991 226.604 15.4352C227.003 15.1714 227.471 15.0315 227.949 15.0332C228.593 15.0401 229.208 15.3013 229.66 15.7597C230.111 16.2182 230.364 16.8367 230.361 17.4804Z" fill="#349F6E"/>
<path d="M206.431 121.407H205.557V92.6441C204.823 92.0935 201.082 89.8386 198.749 88.4489L198.53 88.3265V66.1357L181.155 65.9347L173.289 60.5858L173.787 59.8604L181.4 65.1044L199.378 65.3054V87.8633C206.37 92.0323 206.37 92.1721 206.37 92.4868L206.431 121.407Z" fill="#349F6E"/>
<path d="M216.821 119.476H215.947V89.6638L207.522 83.7555V57.6142L188.67 45.2296C185.069 48.5858 179.851 53.4889 179.571 53.821L178.898 53.2529C179.292 52.7897 187.402 45.2121 188.32 44.3556L188.574 44.1196L208.405 57.1422V83.301L216.83 89.2093L216.821 119.476Z" fill="#349F6E"/>
<path d="M216.21 78.0572H215.336V50.7796L227.589 42.8437V19.7876H228.463V43.3157L216.21 51.2516V78.0572Z" fill="#349F6E"/>
<path d="M216.155 42.7128H215.281V30.4943L220.315 28.0034V22.6895H221.189V28.5453L216.155 31.0362V42.7128Z" fill="#349F6E"/>
<path d="M224.437 120.228H223.562V86.9371L230.572 80.7492V76.4491L224.699 71.1352V57.3784H225.573V70.7419L231.446 76.0645V81.1425L224.437 87.3304V120.228Z" fill="#349F6E"/>
<path d="M236.608 54.7563H235.734V123.112H236.608V54.7563Z" fill="#349F6E"/>
<path d="M244.124 124.213H243.25L243.416 65.393L254.953 58.0776H267.04V58.9516H255.206L244.29 65.8825L244.124 124.213Z" fill="#349F6E"/>
<path d="M252.233 130.646H251.359V71.4237L279.013 70.7158L267.327 60.0355L267.913 59.3975L281.206 71.5373L252.233 72.2715V130.646Z" fill="#349F6E"/>
<path d="M259.576 50.1239L249.254 48.2186L236.852 35.4233V35.2922C236.502 33.4305 235.375 27.3213 235.375 26.8843H236.249C236.249 27.2601 237.123 32.0147 237.682 35.0125L249.77 47.4145L259.821 49.2762L259.576 50.1239Z" fill="#349F6E"/>
<path d="M195.864 39.6361L195.602 38.8058L202.655 36.5684L208.266 30.9835L203.59 27.8109L220.738 10.1299L227.581 16.3528L226.996 16.9995L220.773 11.3447L204.945 27.6711L209.638 30.8524L203.118 37.3375L195.864 39.6361Z" fill="#349F6E"/>
<path d="M267.478 137.751H260.836V144.394H267.478V137.751Z" fill="#349F6E"/>
<path d="M167.467 127.246H159.941V119.738H167.467V127.246ZM160.815 126.372H166.593V120.612H160.815V126.372Z" fill="#349F6E"/>
<path d="M119.23 202.934H105.945V216.219H119.23V202.934Z" fill="#263238"/>
<path d="M331.668 204.673H318.383V217.958H331.668V204.673Z" fill="#263238"/>
<path d="M312.001 178.235H308.68V181.556H312.001V178.235Z" fill="#263238"/>
<path d="M278.141 168.883H271.699V175.325H278.141V168.883Z" fill="#455A64"/>
<path d="M270.101 162.713H266.168V166.646H270.101V162.713Z" fill="#455A64"/>
<path d="M284.146 150.556H279.348V145.749H284.146V150.556ZM280.222 149.682H283.272V146.623H280.222V149.682Z" fill="#455A64"/>
<path d="M321.247 188.916H315.234V182.911H321.247V188.916ZM316.108 188.042H320.373V183.785H316.108V188.042Z" fill="#263238"/>
<path d="M93.063 202.357H87.0586V196.353H93.063V202.357ZM87.9326 201.483H92.189V197.227H87.9326V201.483Z" fill="#263238"/>
<path d="M162.285 188.749H153.562V197.472H162.285V188.749Z" fill="#455A64"/>
<path d="M166.705 174.293H162.273V178.725H166.705V174.293Z" fill="#455A64"/>
<path d="M119.169 144.604H114.738V149.035H119.169V144.604Z" fill="#263238"/>
<path d="M338.806 221.411H334.375V225.842H338.806V221.411Z" fill="#263238"/>
<path d="M106.505 225.169H102.074V229.6H106.505V225.169Z" fill="#263238"/>
<path d="M157.25 163.517H149.707V171.06H157.25V163.517Z" fill="#455A64"/>
<path d="M177.264 160.336H170.43V153.475H177.299L177.264 160.336ZM171.269 159.462H176.39V154.349H171.304L171.269 159.462Z" fill="#455A64"/>
<path d="M186.666 237.099L148.586 255.278L156.059 348.962L155.193 409.12L273.052 409.189L272.406 357.291L275.753 336.35L291.502 255.278L247.016 235.928L238.092 229.915L193.737 230.019L186.666 237.099Z" fill="#E0E0E0"/>
<g opacity="0.2">
<path d="M155.004 385.548C156.97 388.039 160.702 388.17 163.814 387.514C174.302 385.425 183.82 377.9 194.404 379.159C201.177 379.98 207.776 384.403 214.331 382.524C216.595 381.877 218.64 380.496 220.965 380.173C224.373 379.701 227.607 381.536 230.657 383.118C243.618 389.827 258.106 393.036 272.688 392.426L278.64 376.572L225.326 362.745L182.596 360.298L155.048 376.397L155.004 385.548Z" fill="black"/>
</g>
<path d="M212.015 409.12C211.893 409.12 212.531 376.677 213.448 336.674C214.366 296.671 215.196 264.219 215.336 264.228C215.476 264.237 214.821 296.662 213.903 336.683C212.985 376.703 212.146 409.128 212.015 409.12Z" fill="#263238"/>
<path d="M289.836 255.278C289.836 255.278 299.869 257.996 305.148 279.812C307.377 288.989 318.975 365.464 317.384 376.109C315.794 386.754 299.712 397.566 275.651 394.227C262.375 392.383 239.52 380.715 239.52 380.715L257.148 357.213H274.086L280.781 352.196L275.38 331.474C275.38 331.474 285.903 261.999 289.836 255.278Z" fill="#E0E0E0"/>
<path d="M305.147 353.245C305.103 353.323 303.879 352.511 301.773 351.497C299.047 350.09 296.083 349.201 293.033 348.875C291.361 348.745 289.679 348.842 288.034 349.163L286.932 349.417C286.583 349.513 286.251 349.635 285.919 349.731C285.324 349.93 284.741 350.161 284.171 350.422C282.038 351.401 280.849 352.283 280.797 352.17C281.044 351.929 281.317 351.715 281.61 351.532C282.378 350.994 283.187 350.517 284.031 350.107C284.613 349.816 285.215 349.565 285.831 349.356C286.163 349.242 286.504 349.102 286.862 349.006L287.981 348.726C289.664 348.372 291.388 348.26 293.103 348.394C296.204 348.706 299.209 349.643 301.939 351.147C302.766 351.587 303.568 352.071 304.342 352.598C304.636 352.78 304.906 352.998 305.147 353.245Z" fill="#263238"/>
<path d="M262.914 357.291C263.158 357.24 263.408 357.219 263.657 357.23L265.728 357.169L273.149 357.09H273.044L279.747 352.773L279.686 352.825C280.141 352.292 280.604 351.715 281.146 351.191C282.105 350.193 283.166 349.297 284.31 348.516C287.176 346.531 290.469 345.247 293.924 344.767C295.371 344.561 296.835 344.508 298.294 344.61C298.809 344.653 299.168 344.723 299.473 344.758C299.614 344.768 299.752 344.797 299.884 344.846C299.351 344.858 298.817 344.84 298.285 344.793C294.682 344.69 291.106 345.442 287.849 346.987C286.708 347.526 285.615 348.16 284.581 348.884C283.462 349.649 282.425 350.527 281.487 351.506C280.962 352.021 280.508 352.589 280.062 353.105L273.253 357.466H273.192L265.772 357.388L263.701 357.335C263.438 357.343 263.175 357.328 262.914 357.291Z" fill="#263238"/>
<path d="M215.336 264.228C215.348 264.268 215.348 264.31 215.336 264.35C215.334 264.379 215.324 264.406 215.309 264.431C215.294 264.455 215.273 264.475 215.249 264.49C215.213 264.505 215.174 264.513 215.135 264.513C215.096 264.513 215.058 264.505 215.022 264.49C214.588 264.296 214.194 264.023 213.859 263.686C212.586 262.484 211.384 261.208 210.258 259.867C207.322 256.476 203.406 251.546 199.019 245.734H199.342C198.912 246.326 198.557 246.969 198.284 247.648C197.961 248.347 197.664 249.081 197.41 249.816C196.825 251.301 196.266 252.84 195.724 254.404C194.797 257.131 193.906 259.805 193.303 262.349L193.172 262.891L192.892 262.419C189.689 256.945 187.651 250.869 186.905 244.572C186.686 242.742 186.584 240.9 186.599 239.057C186.599 238.41 186.599 237.912 186.66 237.58C186.662 237.407 186.676 237.234 186.704 237.064C186.724 237.235 186.724 237.408 186.704 237.58C186.704 237.912 186.704 238.41 186.704 239.057C186.746 240.89 186.889 242.719 187.132 244.537C187.971 250.771 190.051 256.775 193.25 262.191L192.839 262.253C193.451 259.631 194.334 257.009 195.269 254.256C195.811 252.682 196.37 251.135 196.965 249.65C197.262 248.907 197.559 248.181 197.882 247.465C198.176 246.734 198.567 246.046 199.045 245.419L199.211 245.227L199.377 245.446C203.747 251.275 207.61 256.231 210.477 259.657C211.91 261.405 213.099 262.707 213.973 263.546C214.284 263.895 214.65 264.19 215.057 264.42C215.205 264.481 215.301 264.42 215.319 264.333C215.336 264.245 215.319 264.219 215.336 264.228Z" fill="#263238"/>
<path d="M247.021 235.928C247.055 236.083 247.07 236.241 247.065 236.4C247.065 236.714 247.065 237.169 247.065 237.772C247.065 238.961 246.995 240.709 246.803 242.876C246.453 247.246 245.422 253.277 244.329 260.234L244.251 260.749L243.936 260.33C242.372 258.258 240.86 255.96 239.295 253.53C238.071 251.66 236.865 249.842 235.598 248.155L235.904 248.199C229.865 252.569 224.437 256.213 220.897 259.272C219.106 260.758 217.716 262.008 216.772 262.882L215.697 263.887C215.578 264.01 215.449 264.124 215.312 264.228C215.313 264.228 215.409 264.079 215.636 263.835C215.863 263.59 216.213 263.223 216.667 262.768C217.541 261.894 218.94 260.575 220.714 259.045C224.21 255.925 229.611 252.219 235.65 247.832L235.825 247.709L235.956 247.884C237.232 249.58 238.456 251.38 239.68 253.285C241.235 255.68 242.739 258.005 244.286 260.068L243.892 260.164C245.02 253.172 246.095 247.185 246.514 242.85C246.742 240.691 246.864 238.961 246.908 237.763C246.908 237.169 246.908 236.714 246.908 236.4C246.93 236.239 246.968 236.081 247.021 235.928Z" fill="#263238"/>
<path d="M269.673 301.95C269.673 302.072 262.743 301.539 254.221 300.761C245.7 299.983 238.795 299.249 238.813 299.118C238.83 298.987 245.735 299.529 254.265 300.306C262.795 301.084 269.682 301.818 269.673 301.95Z" fill="#263238"/>
<path d="M193.091 196.58C190.548 189.073 188.04 181.513 186.825 173.69C185.61 165.868 185.759 157.687 188.424 150.232C188.826 149.096 192.305 141.492 193.493 141.606C194.367 141.684 192.244 148.755 192.681 149.472C196.893 156.464 198.117 164.994 197.558 173.166C196.941 181.106 195.443 188.954 193.091 196.563" fill="#263238"/>
<path d="M257.587 163.29C257.234 154.373 253.538 145.915 247.234 139.599C240.929 133.284 232.478 129.572 223.562 129.204L221.727 129.134C201.861 129.475 191.058 146.526 191.941 166.375L193.794 232.065L215.312 261.886L238.036 237.195C238.036 231.602 238.036 229.915 238.079 229.915C238.123 229.915 257.246 227.738 258.269 208.703C258.784 199.508 258.26 180.49 257.587 163.29Z" fill="#FFBF9D"/>
<path d="M238.093 229.915C238.093 229.915 226.058 230.124 213.621 221.559C213.621 221.559 218.996 236.12 238.093 235.193V229.915Z" fill="#FF9A6C"/>
<path d="M248.695 180.333C248.668 181.041 248.366 181.71 247.854 182.2C247.342 182.689 246.659 182.96 245.951 182.955C245.604 182.965 245.259 182.907 244.935 182.783C244.611 182.659 244.315 182.472 244.064 182.234C243.813 181.995 243.612 181.708 243.472 181.391C243.332 181.074 243.257 180.732 243.25 180.385C243.275 179.678 243.575 179.009 244.086 178.519C244.596 178.029 245.278 177.758 245.986 177.763C246.333 177.752 246.679 177.809 247.004 177.932C247.329 178.056 247.626 178.242 247.878 178.481C248.13 178.72 248.332 179.007 248.472 179.325C248.613 179.643 248.688 179.985 248.695 180.333Z" fill="#263238"/>
<path d="M253.189 171.531C252.83 171.872 250.838 170.264 247.945 170.15C245.052 170.037 242.814 171.409 242.508 171.024C242.36 170.858 242.727 170.229 243.697 169.591C245 168.766 246.526 168.363 248.067 168.437C249.588 168.497 251.051 169.039 252.245 169.984C253.084 170.727 253.355 171.383 253.189 171.531Z" fill="#263238"/>
<path d="M222.608 180.333C222.583 181.04 222.283 181.709 221.773 182.199C221.262 182.689 220.58 182.96 219.873 182.955C219.526 182.965 219.181 182.907 218.857 182.783C218.533 182.659 218.237 182.472 217.986 182.234C217.735 181.995 217.534 181.708 217.394 181.391C217.254 181.074 217.179 180.732 217.172 180.385C217.197 179.68 217.495 179.011 218.004 178.522C218.513 178.033 219.193 177.76 219.899 177.763C220.246 177.752 220.592 177.809 220.917 177.932C221.242 178.056 221.539 178.242 221.791 178.481C222.043 178.72 222.245 179.007 222.385 179.325C222.526 179.643 222.601 179.985 222.608 180.333Z" fill="#263238"/>
<path d="M225.099 171.531C224.74 171.872 222.748 170.264 219.855 170.15C216.962 170.037 214.724 171.409 214.419 171.024C214.27 170.858 214.637 170.229 215.607 169.591C216.911 168.766 218.437 168.363 219.977 168.437C221.499 168.497 222.961 169.039 224.155 169.984C224.985 170.727 225.265 171.383 225.099 171.531Z" fill="#263238"/>
<path d="M234.039 193.95C234.039 193.783 235.866 193.539 238.829 193.285C239.58 193.242 240.297 193.119 240.437 192.612C240.534 191.846 240.394 191.068 240.035 190.384L238.06 184.598C235.324 176.373 233.375 169.617 233.69 169.512C234.004 169.408 236.513 175.98 239.239 184.213C239.904 186.241 240.524 188.172 241.127 190.025C241.554 190.947 241.647 191.988 241.39 192.971C241.271 193.23 241.094 193.459 240.873 193.639C240.651 193.82 240.392 193.947 240.113 194.011C239.696 194.11 239.267 194.154 238.837 194.142C235.883 194.177 234.048 194.116 234.039 193.95Z" fill="#263238"/>
<path d="M225.09 165.099C224.697 165.842 222.206 164.994 219.13 164.846C216.053 164.697 213.457 165.169 213.186 164.4C213.073 164.024 213.632 163.368 214.751 162.792C216.192 162.101 217.789 161.799 219.383 161.918C220.964 161.991 222.497 162.486 223.823 163.351C224.828 164.033 225.274 164.749 225.09 165.099Z" fill="#263238"/>
<path d="M253.679 160.493C253.05 161.139 250.681 160.388 247.814 160.274C244.948 160.16 242.509 160.589 241.976 159.872C241.74 159.531 242.133 158.876 243.217 158.273C244.704 157.554 246.348 157.223 247.996 157.311C249.645 157.398 251.245 157.9 252.648 158.771C253.635 159.479 253.95 160.169 253.679 160.493Z" fill="#263238"/>
<path d="M192.917 180.534C192.593 180.385 179.99 176.164 179.868 189.16C179.746 202.157 192.856 199.648 192.882 199.255C192.908 198.862 192.917 180.534 192.917 180.534Z" fill="#FFBF9D"/>
<path d="M188.952 194.282C188.891 194.282 188.725 194.439 188.341 194.614C187.781 194.845 187.152 194.845 186.593 194.614C185.22 194.098 184.084 191.895 184.04 189.544C184.019 188.427 184.249 187.319 184.713 186.302C184.839 185.889 185.064 185.514 185.369 185.209C185.673 184.904 186.049 184.679 186.461 184.554C186.724 184.49 187 184.518 187.244 184.635C187.487 184.751 187.683 184.948 187.799 185.192C187.965 185.559 187.877 185.821 187.947 185.839C188.017 185.856 188.236 185.62 188.131 185.087C188.061 184.763 187.882 184.473 187.624 184.265C187.268 183.993 186.82 183.868 186.374 183.916C185.837 184.018 185.336 184.255 184.917 184.606C184.498 184.956 184.175 185.407 183.979 185.917C183.415 187.042 183.133 188.287 183.158 189.544C183.219 192.166 184.539 194.64 186.418 195.208C186.767 195.311 187.134 195.335 187.494 195.28C187.854 195.224 188.197 195.089 188.498 194.885C188.926 194.596 188.996 194.308 188.952 194.282Z" fill="#FF9A6C"/>
<path d="M249.16 141.684C251.266 140.522 244.939 133.687 239.756 131.336C231.89 127.77 219.96 125.577 212.732 127.622C203.992 130.086 196.799 134.413 192.429 142.322C188.059 150.232 186.416 159.461 186.66 168.542C186.739 171.295 187.019 174.171 188.496 176.504C190.314 179.389 193.801 181.207 193.652 185.183C193.603 185.902 193.696 186.624 193.927 187.306C194.158 187.989 194.522 188.619 194.998 189.16C197.384 191.703 200.303 189.317 201.649 186.931C204.516 181.827 204.839 175.727 205.093 169.88C205.276 165.719 205.443 161.472 204.28 157.478C203.642 155.301 202.62 153.247 202.104 151.045C201.588 148.842 201.649 146.334 203.03 144.534C203.348 144.145 203.702 143.788 204.088 143.467C205.906 141.881 208.113 140.808 210.483 140.358C212.854 139.908 215.301 140.097 217.574 140.906C224.915 143.528 237.448 147.392 240.726 144.901C245.446 141.326 246.573 138.984 246.573 138.984L249.16 141.684Z" fill="#263238"/>
<path d="M224.845 195.776C225.299 195.776 225.317 198.739 227.886 200.854C230.456 202.969 233.646 202.602 233.672 203.039C233.716 203.232 232.964 203.625 231.618 203.669C229.863 203.704 228.152 203.119 226.785 202.017C225.479 200.953 224.636 199.424 224.434 197.752C224.312 196.484 224.618 195.776 224.845 195.776Z" fill="#263238"/>
<path d="M148.58 255.278C148.58 255.278 137.323 264.385 134.412 277.731C131.502 291.077 115.517 352.493 115.114 361.548C114.712 370.603 115.114 389.892 131.852 390.285C148.589 390.678 190.951 371.153 190.951 371.153L182.867 346.681L156.455 347.407L148.58 255.278Z" fill="#E0E0E0"/>
<path d="M182.874 346.646C182.661 346.696 182.445 346.725 182.227 346.734L180.374 346.873L173.531 347.319L163.384 347.913L157.397 348.254C155.262 348.329 153.134 348.539 151.025 348.884C149.922 349.059 148.798 349.059 147.695 348.884C146.62 348.752 145.58 348.56 144.558 348.464C142.582 348.336 140.599 348.509 138.676 348.98C135.411 349.822 132.392 351.424 129.866 353.656C128.148 355.149 126.637 356.866 125.373 358.76C124.919 359.424 124.595 359.957 124.386 360.324C124.287 360.52 124.166 360.705 124.027 360.875C124.098 360.667 124.192 360.467 124.307 360.281C124.58 359.723 124.886 359.183 125.225 358.664C126.449 356.719 127.937 354.954 129.647 353.42C132.196 351.118 135.259 349.461 138.579 348.586C140.546 348.091 142.577 347.902 144.601 348.027C145.65 348.123 146.69 348.315 147.756 348.447C148.811 348.608 149.884 348.608 150.938 348.447C153.069 348.095 155.221 347.885 157.379 347.817L163.366 347.511L173.513 347.004L180.365 346.707L182.227 346.646C182.442 346.631 182.658 346.631 182.874 346.646Z" fill="#263238"/>
<path d="M157.178 347.354C157.13 347.159 157.101 346.96 157.091 346.759C157.047 346.314 156.986 345.746 156.916 345.011C156.776 343.464 156.566 341.314 156.322 338.692C155.806 333.352 155.011 325.993 154.11 317.856C153.21 309.719 152.467 302.404 152.074 297.029C151.855 294.354 151.698 292.196 151.62 290.692C151.62 289.984 151.558 289.408 151.532 288.944C151.521 288.744 151.521 288.542 151.532 288.341C151.588 288.535 151.62 288.734 151.628 288.936C151.672 289.373 151.724 289.941 151.794 290.684C151.943 292.222 152.144 294.372 152.397 297.003C152.904 302.334 153.708 309.702 154.6 317.839C155.491 325.976 156.243 333.344 156.68 338.684C156.898 341.358 157.047 343.526 157.134 345.02C157.134 345.737 157.196 346.305 157.213 346.768C157.223 346.964 157.212 347.161 157.178 347.354Z" fill="#263238"/>
<path d="M189.353 371.878C189.227 371.974 189.092 372.059 188.951 372.132L187.754 372.779C186.713 373.338 185.184 374.09 183.27 374.981C179.451 376.729 174.075 379.054 168.036 381.283C161.997 383.511 156.447 385.303 152.383 386.457C150.355 387.042 148.703 387.462 147.558 387.742L146.23 388.039C146.076 388.083 145.918 388.107 145.758 388.109C145.902 388.037 146.055 387.985 146.212 387.951L147.515 387.567C148.642 387.243 150.285 386.771 152.295 386.151C156.324 384.919 161.848 383.092 167.879 380.854C173.909 378.617 179.241 376.397 183.139 374.693C185.062 373.819 186.635 373.128 187.675 372.621L188.907 372.044C189.047 371.967 189.197 371.911 189.353 371.878Z" fill="#263238"/>
<path d="M284.828 274.498C284.839 274.57 284.839 274.644 284.828 274.716C284.828 274.882 284.828 275.092 284.767 275.345C284.705 275.94 284.618 276.752 284.513 277.775C284.286 279.881 283.919 282.923 283.447 286.681C282.503 294.198 281.078 304.572 279.322 315.995C277.565 327.418 275.826 337.749 274.585 345.222C273.938 348.927 273.405 351.934 273.038 354.058C272.854 355.072 272.705 355.876 272.592 356.453C272.539 356.706 272.496 356.916 272.469 357.082C272.458 357.154 272.437 357.224 272.408 357.292C272.395 357.219 272.395 357.145 272.408 357.073C272.408 356.898 272.461 356.697 272.496 356.444C272.583 355.849 272.705 355.045 272.854 354.032C273.195 351.899 273.667 348.884 274.252 345.169C275.45 337.688 277.119 327.357 278.867 315.925C280.615 304.493 282.101 294.145 283.176 286.672C283.683 282.949 284.094 279.925 284.382 277.784C284.522 276.77 284.636 275.957 284.723 275.372C284.723 275.118 284.793 274.908 284.819 274.742C284.808 274.661 284.811 274.578 284.828 274.498Z" fill="#263238"/>
<path d="M284.497 394.996C284.338 395.017 284.176 395.017 284.017 394.996L282.636 394.873C281.438 394.76 279.716 394.532 277.593 394.192C272.059 393.282 266.597 391.979 261.249 390.293C258.12 389.297 255.131 388.222 252.509 387.165C249.887 386.107 247.536 385.041 245.613 384.079C244.643 383.616 243.778 383.162 242.991 382.76C242.204 382.358 241.584 382.008 241.068 381.702L239.871 381.003C239.727 380.928 239.592 380.837 239.469 380.732C239.627 380.779 239.779 380.844 239.923 380.924L241.156 381.545C241.68 381.833 242.335 382.157 243.105 382.532C243.874 382.908 244.739 383.345 245.727 383.782C247.658 384.709 250.009 385.705 252.64 386.771C255.271 387.838 258.216 388.869 261.336 389.856C266.665 391.534 272.095 392.873 277.593 393.868C279.708 394.253 281.421 394.532 282.609 394.698L283.973 394.908C284.151 394.909 284.328 394.938 284.497 394.996Z" fill="#263238"/>
<g opacity="0.2">
<path d="M244.102 260.662C240.999 256.912 238.919 252.097 236.288 248.015C228.71 252.615 221.674 258.053 215.312 264.228C221.431 260.732 227.548 257.507 233.5 253.74L244.557 268.056C244.784 263.43 245.017 258.803 245.256 254.177L244.102 260.662Z" fill="black"/>
</g>
<g opacity="0.2">
<path d="M276.332 333.545C276.463 332.933 276.594 332.295 276.725 331.657L275.965 333.545H276.332Z" fill="black"/>
</g>
<g opacity="0.2">
<path d="M283.726 281.743C281.734 297.125 279.916 316.196 276.734 331.657C279.793 323.992 282.774 316.266 284.461 308.199C286.278 299.459 286.532 290.212 283.726 281.743Z" fill="black"/>
</g>
<path d="M185.778 331.474C185.778 331.474 180.446 334.2 179.66 336.403C179.212 337.885 179.212 339.466 179.66 340.948L182.544 350.431V360.298C182.544 360.298 184.86 370.323 187.062 371.346C189.265 372.368 193.18 372.22 195.802 368.094C197.298 365.75 198.474 363.216 199.298 360.56L203.843 341.726L205.145 332.112L192.805 338.474L189.309 343.264L185.9 337.828C185.9 337.828 188.679 335.101 188.461 333.405C188.242 331.71 185.778 331.474 185.778 331.474Z" fill="#FFBF9D"/>
<path d="M182.891 338.588C182.891 338.456 183.617 338.465 184.447 338.29C185.277 338.116 185.924 337.827 185.994 337.941C186.064 338.054 185.461 338.544 184.543 338.736C183.625 338.928 182.865 338.701 182.891 338.588Z" fill="#FF9A6C"/>
<path d="M188.468 364.677L189.342 324.648C189.341 323.297 189.861 321.998 190.793 321.021C191.726 320.044 193 319.464 194.35 319.404L262.688 317.9C263.496 317.91 264.292 318.103 265.014 318.466C265.736 318.829 266.366 319.352 266.855 319.995C267.345 320.638 267.682 321.384 267.839 322.177C267.997 322.969 267.972 323.787 267.766 324.569L257.523 368.129C257.272 369.3 256.622 370.347 255.685 371.091C254.747 371.835 253.58 372.231 252.384 372.211L193.415 370.183C192.03 370.106 190.731 369.484 189.804 368.452C188.877 367.42 188.396 366.062 188.468 364.677Z" fill="#263238"/>
<path d="M231.611 329.987L231.069 329.9C230.362 329.857 229.665 330.088 229.123 330.545C228.581 331.001 228.235 331.649 228.157 332.353C228.079 333.058 228.275 333.765 228.704 334.329C229.134 334.893 229.763 335.271 230.463 335.383C231.162 335.496 231.879 335.336 232.463 334.935C233.048 334.535 233.456 333.925 233.604 333.232C233.751 332.539 233.627 331.815 233.256 331.211C232.885 330.607 232.296 330.169 231.611 329.987Z" fill="white"/>
<path d="M260.453 322.393C260.453 322.524 245.84 322.873 227.809 323.179C209.778 323.485 195.165 323.642 195.156 323.511C195.148 323.38 209.77 323.039 227.8 322.725C245.831 322.41 260.453 322.27 260.453 322.393Z" fill="#455A64"/>
<path d="M206.875 331.613C206.875 331.613 210.668 327.829 215.178 330.355C219.688 332.881 234.861 343.71 240.096 345.152C245.331 346.594 250.584 347.686 254.534 345.152C258.485 342.617 261.395 339.375 261.579 336.132C261.762 332.89 263.738 325.836 268.073 325.644L270.24 327.27C270.24 327.27 269.366 337.758 269.366 342.25C269.366 346.742 265.363 353.096 265.363 353.096L262.453 358.087L263.947 363.584C263.947 363.584 262.138 371.887 257.628 376.222C253.119 380.557 244.239 380.732 244.239 380.732L215.397 362.684L188.504 354.74C188.504 354.74 189.22 351.13 192.874 350.946C196.527 350.763 202.444 353.201 202.444 353.201L188.469 342.608C188.71 341.508 189.376 340.549 190.323 339.939C191.27 339.33 192.42 339.121 193.52 339.357C197.89 339.899 213.378 348.971 213.378 348.971L197.523 333.064C197.523 333.064 197.165 328.913 200.958 328.694C202.104 328.683 203.237 328.942 204.264 329.449C205.292 329.956 206.187 330.697 206.875 331.613Z" fill="#FFBF9D"/>
<path d="M229.284 349.216C228.938 349.071 228.609 348.886 228.305 348.665C227.685 348.289 226.802 347.73 225.683 347.022C223.524 345.606 220.544 343.614 217.38 341.254C214.652 339.263 212.06 337.094 209.619 334.76C208.693 333.886 207.985 333.073 207.522 332.522C207.266 332.254 207.038 331.962 206.84 331.648C207.137 331.882 207.41 332.145 207.653 332.435C208.151 332.951 208.894 333.694 209.838 334.559C212.33 336.813 214.938 338.937 217.651 340.922C220.806 343.281 223.769 345.292 225.867 346.795L228.366 348.543C228.696 348.733 229.004 348.959 229.284 349.216Z" fill="#FF9A6C"/>
<path d="M219.704 353.157C218.23 352.614 216.85 351.845 215.613 350.876C214.299 350.03 213.121 348.99 212.117 347.791C212.213 347.695 213.813 349.032 215.91 350.509C218.008 351.986 219.765 353.044 219.704 353.157Z" fill="#FF9A6C"/>
<path d="M215.388 360.359C212.828 359.219 210.331 357.944 207.907 356.54C205.412 355.271 202.991 353.865 200.652 352.327C203.209 353.468 205.703 354.743 208.125 356.147C210.623 357.414 213.047 358.821 215.388 360.359Z" fill="#FF9A6C"/>
<path d="M262.609 206.955L284.73 207.33L273.954 193.469L262.609 206.955Z" fill="#455A64"/>
<path d="M273.132 217.827H269.383V221.577H273.132V217.827Z" fill="#455A64"/>
<path d="M276.563 221.786H273.137V225.125H276.563V221.786Z" fill="#455A64"/>
<path d="M272.447 226.532H269.562V229.416H272.447V226.532Z" fill="#455A64"/>
<path d="M279.447 218.727H276.562V221.611H279.447V218.727Z" fill="#455A64"/>
<path d="M269.21 221.786H267.156V223.84H269.21V221.786Z" fill="#455A64"/>
<path d="M275.803 233.742H272.875V230.814H275.803V233.742ZM273.749 232.868H274.929V231.688H273.749V232.868Z" fill="#455A64"/>
<path d="M278.765 225.326H276.711V227.38H278.765V225.326Z" fill="#455A64"/>
<path d="M279.399 205.146L267.906 205.277V218.78H279.434L279.399 205.146ZM275.729 216.385H273.675V214.331H275.729V216.385Z" fill="#455A64"/>
<path d="M188.305 293.865L212.995 294.285L200.969 278.806L188.305 293.865Z" fill="#349F6E"/>
<path d="M199.772 305.996H195.586V310.183H199.772V305.996Z" fill="#349F6E"/>
<path d="M203.765 310.584H199.578V314.771H203.765V310.584Z" fill="#349F6E"/>
<path d="M198.802 316.222H195.586V319.438H198.802V316.222Z" fill="#349F6E"/>
<path d="M206.58 307.001H203.363V310.217H206.58V307.001Z" fill="#349F6E"/>
<path d="M195.592 310.943H193.293V313.241H195.592V310.943Z" fill="#349F6E"/>
<path d="M206.119 314.544H203.82V316.843H206.119V314.544Z" fill="#349F6E"/>
<path d="M206.265 291.846L194.483 291.986L193.723 307.063H206.614L206.265 291.846ZM202.122 304.388H199.823V302.098H202.122V304.388Z" fill="#349F6E"/>
<path d="M147.031 231.872L183.04 232.475L165.499 209.909L147.031 231.872Z" fill="#455A64"/>
<path d="M163.753 249.571H157.652V255.671H163.753V249.571Z" fill="#455A64"/>
<path d="M168.997 255.741H163.762V260.976H168.997V255.741Z" fill="#455A64"/>
<path d="M162.346 262.13H157.652V266.823H162.346V262.13Z" fill="#455A64"/>
<path d="M173.682 251.03H168.988V255.724H173.682V251.03Z" fill="#455A64"/>
<path d="M157.652 256.248H154.305V259.595H157.652V256.248Z" fill="#455A64"/>
<path d="M167.641 272.959H163.438V268.737H167.659L167.641 272.959ZM164.294 272.085H166.767V269.611H164.312L164.294 272.085Z" fill="#455A64"/>
<path d="M172.336 261.475H168.988V264.822H172.336V261.475Z" fill="#455A64"/>
<path d="M173.743 229.242L155.11 229.146L154.961 251.118H173.743V229.242ZM167.206 247.22H163.858V243.846H167.206V247.22Z" fill="#455A64"/>
<path d="M250.227 261.151L279.261 261.641L265.12 243.453L250.227 261.151Z" fill="#349F6E"/>
<path d="M263.714 275.424H258.793V280.344H263.714V275.424Z" fill="#349F6E"/>
<path d="M268.413 280.808H263.492V285.728H268.413V280.808Z" fill="#349F6E"/>
<path d="M262.569 287.432H258.793V291.208H262.569V287.432Z" fill="#349F6E"/>
<path d="M271.709 276.604H267.934V280.379H271.709V276.604Z" fill="#349F6E"/>
<path d="M258.794 281.236H256.094V283.936H258.794V281.236Z" fill="#349F6E"/>
<path d="M266.848 296.172H263.273V292.598H266.848V296.172ZM264.147 295.298H265.974V293.472H264.147V295.298Z" fill="#349F6E"/>
<path d="M271.177 285.466H268.477V288.166H271.177V285.466Z" fill="#349F6E"/>
<path d="M271.368 258.783L257.515 258.949L256.641 276.673H271.778L271.368 258.783ZM267.295 273.641H264.603V270.949H267.295V273.641Z" fill="#349F6E"/>
<path d="M33.4141 230.788L69.4316 231.391L51.8817 208.825L33.4141 230.788Z" fill="#349F6E"/>
<path d="M50.1396 248.487H44.0391V254.587H50.1396V248.487Z" fill="#349F6E"/>
<path d="M55.3759 254.657H50.1406V259.892H55.3759V254.657Z" fill="#349F6E"/>
<path d="M48.7237 261.046H44.0391V265.74H48.7237V261.046Z" fill="#349F6E"/>
<path d="M60.0596 249.946H55.375V254.64H60.0596V249.946Z" fill="#349F6E"/>
<path d="M44.0427 255.164H40.6953V258.511H44.0427V255.164Z" fill="#349F6E"/>
<path d="M53.5857 268.091H50.2383V271.438H53.5857V268.091Z" fill="#349F6E"/>
<path d="M58.7224 260.391H55.375V263.738H58.7224V260.391Z" fill="#349F6E"/>
<path d="M60.1251 228.158L41.4914 228.062L41.3516 250.034H60.1251V228.158ZM53.5963 246.136H50.2489V242.788H53.5963V246.136Z" fill="#349F6E"/>
<path d="M365.898 356.872L393.727 357.344L380.188 339.907L365.898 356.872Z" fill="#349F6E"/>
<path d="M378.829 370.55H374.109V375.269H378.829V370.55Z" fill="#349F6E"/>
<path d="M382.875 375.322H378.828V379.368H382.875V375.322Z" fill="#349F6E"/>
<path d="M377.736 380.251H374.109V383.878H377.736V380.251Z" fill="#349F6E"/>
<path d="M386.502 371.677H382.875V375.304H386.502V371.677Z" fill="#349F6E"/>
<path d="M374.11 375.715H371.523V378.302H374.11V375.715Z" fill="#349F6E"/>
<path d="M381.493 385.696H378.906V388.283H381.493V385.696Z" fill="#349F6E"/>
<path d="M385.462 379.753H382.875V382.34H385.462V379.753Z" fill="#349F6E"/>
<path d="M386.536 354.844L372.141 354.765L372.027 371.747H386.536V354.844ZM381.493 368.74H378.871V366.118H381.493V368.74Z" fill="#349F6E"/>
<path d="M362.992 95.9739L399.001 96.5857L381.46 74.019L362.992 95.9739Z" fill="#349F6E"/>
<path d="M379.71 113.672H373.609V119.773H379.71V113.672Z" fill="#349F6E"/>
<path d="M384.954 119.843H379.719V125.078H384.954V119.843Z" fill="#349F6E"/>
<path d="M378.303 126.232H373.609V130.925H378.303V126.232Z" fill="#349F6E"/>
<path d="M389.639 115.141H384.945V119.834H389.639V115.141Z" fill="#349F6E"/>
<path d="M373.609 120.358H370.262V123.706H373.609V120.358Z" fill="#349F6E"/>
<path d="M383.16 133.276H379.812V136.624H383.16V133.276Z" fill="#349F6E"/>
<path d="M388.293 125.585H384.945V128.932H388.293V125.585Z" fill="#349F6E"/>
<path d="M389.7 93.3519L371.067 93.2471L370.918 115.228H389.7V93.3519ZM383.163 111.33H379.815V107.983H383.163V111.33Z" fill="#349F6E"/>
</svg>
