<svg width="461" height="311" viewBox="0 0 461 311" fill="none" xmlns="http://www.w3.org/2000/svg">
<path d="M35.3293 130.468C35.3293 130.468 29.5295 130.027 30.0641 143.784C30.5986 157.541 31.9241 164.857 31.9241 164.857C31.9241 164.857 31.7557 167.908 29.5222 167.312C27.2886 166.716 23.0852 163.743 21.0128 165.965C18.9404 168.187 19.6215 171.794 22.4774 175.952C25.3334 180.109 31.265 189.454 31.8069 190.305C32.3488 191.157 32.5392 192.697 30.9575 192.543C29.3757 192.388 18.6841 188.563 17.2708 194.037C15.8575 199.51 25.6117 209.706 26.6589 210.837C27.706 211.967 27.7573 212.695 27.3326 213.384C26.9078 214.073 23.4294 212.424 20.3464 211.464C17.2635 210.504 13.5361 209.97 12.9649 213.198C12.3937 216.426 16.6996 225.879 32.7882 235.804L40.5286 239.892L47.8516 234.953C62.9223 223.34 66.2982 213.515 65.4267 210.365C64.5553 207.214 60.8938 208.143 57.9134 209.42C54.9329 210.697 51.6376 212.703 51.1469 212.06C50.6563 211.417 50.649 210.705 51.579 209.466C52.509 208.228 61.2527 197.041 59.3267 191.753C57.4008 186.465 47.1266 191.397 45.5668 191.753C44.007 192.109 44.0656 190.499 44.5123 189.608C44.959 188.718 49.9899 178.77 52.4358 174.341C54.8817 169.913 55.3137 166.313 52.9484 164.277C50.5831 162.241 46.7751 165.686 44.6075 166.514C42.4399 167.343 41.9859 164.331 41.9859 164.331C41.9859 164.331 42.6157 156.907 41.8394 143.165C41.0632 129.423 35.2048 130.53 35.2048 130.53" fill="#EBEBEB"/>
<path d="M35.7861 142.785C35.7861 142.785 35.7861 142.886 35.7861 143.072C35.7861 143.258 35.7861 143.559 35.8447 143.916C35.896 144.69 35.9692 145.766 36.0571 147.167C36.2328 149.985 36.4598 154.073 36.7235 159.121C37.258 169.185 37.8732 183.159 38.5103 198.566C39.1474 213.972 39.7405 227.931 40.2165 238.05C40.4582 243.09 40.6559 247.17 40.7877 250.003C40.8536 251.404 40.9049 252.496 40.9415 253.255C40.9415 253.619 40.9415 253.897 40.9415 254.099C40.9415 254.3 40.9415 254.393 40.9415 254.393C40.9357 254.297 40.9357 254.202 40.9415 254.106C40.9415 253.897 40.9415 253.619 40.8829 253.263C40.8316 252.488 40.7657 251.412 40.6705 250.011C40.4948 247.193 40.2678 243.105 40.0042 238.065C39.4769 228.001 38.8544 214.019 38.2173 198.581C37.5802 183.144 36.9944 169.224 36.5184 159.098C36.2768 154.065 36.079 149.978 35.9399 147.144C35.874 145.743 35.8227 144.651 35.7861 143.892C35.7861 143.528 35.7861 143.25 35.7861 143.049C35.7822 142.961 35.7822 142.873 35.7861 142.785Z" fill="#E0E0E0"/>
<path d="M26.7324 170.362C26.9082 170.484 27.0703 170.627 27.2157 170.788C27.5087 171.074 27.948 171.5 28.4387 172.034C29.4639 173.103 30.8333 174.62 32.3199 176.323L36.1058 180.705L37.2629 182.029C37.4155 182.179 37.5507 182.348 37.6656 182.532C37.4853 182.417 37.3203 182.276 37.175 182.114C36.8821 181.828 36.4427 181.394 35.9594 180.86C34.9415 179.776 33.5867 178.243 32.1075 176.54L28.2922 172.189L27.1352 170.873C26.9811 170.721 26.8458 170.55 26.7324 170.362Z" fill="#E0E0E0"/>
<path d="M38.4325 182.261C38.374 182.199 41.2006 179.064 44.7523 175.293C48.3039 171.523 51.2258 168.457 51.2844 168.511C51.343 168.566 48.509 171.709 44.9646 175.479C41.4203 179.249 38.4838 182.323 38.4325 182.261Z" fill="#E0E0E0"/>
<path d="M38.3945 205.974C38.56 205.829 38.7421 205.707 38.9364 205.61L40.4523 204.712C41.7265 203.938 43.484 202.901 45.388 201.662C47.292 200.423 48.9836 199.254 50.2065 198.387L51.6711 197.373C51.8411 197.235 52.0253 197.118 52.2203 197.025C52.2203 197.025 52.0592 197.203 51.737 197.474C51.4148 197.745 50.9388 198.116 50.3456 198.573C49.1593 199.479 47.4824 200.694 45.5711 201.925C43.6598 203.156 41.873 204.194 40.5695 204.906C39.9177 205.262 39.3831 205.541 39.0097 205.719C38.813 205.825 38.607 205.911 38.3945 205.974Z" fill="#E0E0E0"/>
<path d="M25.5762 197.675C25.7643 197.738 25.944 197.827 26.1107 197.938L27.5168 198.767C28.6958 199.471 30.3141 200.47 32.0863 201.585C33.8585 202.7 35.4695 203.729 36.6192 204.488L37.974 205.394C38.1446 205.5 38.3042 205.624 38.45 205.765C38.2603 205.707 38.0801 205.618 37.9154 205.502C37.5785 205.316 37.1026 205.03 36.5094 204.674C35.3304 203.969 33.712 202.971 31.9398 201.856C30.1677 200.741 28.5566 199.711 27.4069 198.953C26.8357 198.581 26.3744 198.264 26.0522 198.047C25.8815 197.941 25.722 197.816 25.5762 197.675Z" fill="#E0E0E0"/>
<path d="M23.0312 218.602C23.2671 218.697 23.4949 218.814 23.7123 218.95L25.5137 219.987C27.0296 220.885 29.1093 222.147 31.3721 223.556C33.6349 224.965 35.7659 226.258 37.2305 227.203L38.9807 228.341C39.2023 228.468 39.4108 228.618 39.6032 228.79C39.3647 228.704 39.1362 228.59 38.9221 228.449L37.1207 227.412C35.6121 226.514 33.5251 225.252 31.2623 223.843C28.9995 222.434 26.9124 221.141 25.4039 220.196L23.6537 219.058C23.4287 218.935 23.2196 218.781 23.0312 218.602Z" fill="#E0E0E0"/>
<path d="M39.3184 228.45C39.5252 228.264 39.7512 228.103 39.9921 227.97L41.8741 226.762C43.4632 225.74 45.6454 224.316 48.0254 222.682C50.4054 221.048 52.5217 219.508 54.0449 218.385C54.7772 217.843 55.3777 217.402 55.8537 217.054C56.0653 216.877 56.2935 216.724 56.5347 216.597C56.346 216.802 56.1401 216.989 55.9196 217.154C55.5168 217.495 54.9163 217.975 54.1694 218.563C52.6682 219.732 50.5665 221.304 48.1865 222.938C45.8065 224.571 43.595 225.972 41.9766 226.948C41.1711 227.436 40.512 227.823 40.0507 228.078C39.8167 228.223 39.5718 228.348 39.3184 228.45Z" fill="#E0E0E0"/>
<path d="M50.9188 242.571H29.5137L36.4998 298.498H43.9326L50.9188 242.571Z" fill="#E0E0E0"/>
<path d="M30.6211 249.446C30.6211 249.446 30.6211 249.523 30.7383 249.64C30.8747 249.815 31.0511 249.951 31.2509 250.034C31.6243 250.171 32.0223 250.215 32.4145 250.164C32.8067 250.113 33.1826 249.968 33.5137 249.74C34.3778 249.237 35.1321 248.246 36.2891 247.805C37.5753 247.373 38.9604 247.403 40.2288 247.89C41.5172 248.357 42.7468 248.989 43.8903 249.771C44.8474 250.403 45.8431 250.967 46.8708 251.459C47.5694 251.792 48.309 252.019 49.0677 252.132C49.2739 252.163 49.4819 252.178 49.6901 252.179C49.8293 252.179 49.9098 252.179 49.9098 252.179C48.8965 252.015 47.9102 251.699 46.9806 251.242C45.9734 250.722 44.9953 250.14 44.0514 249.5C42.8942 248.686 41.6411 248.035 40.324 247.565C38.986 247.048 37.5216 247.029 36.1719 247.511C35.6 247.758 35.0705 248.103 34.6048 248.532C34.2177 248.895 33.8093 249.231 33.3819 249.539C33.0808 249.758 32.7385 249.907 32.3783 249.973C32.0181 250.04 31.6485 250.024 31.2948 249.926C31.0453 249.809 30.8172 249.647 30.6211 249.446Z" fill="#F5F5F5"/>
<path d="M31.4056 259.742C31.4056 259.742 31.574 259.518 31.9109 259.146C32.394 258.638 32.9763 258.247 33.6172 258C34.5716 257.637 35.584 257.474 36.5976 257.52C37.8492 257.623 39.0938 257.804 40.325 258.062C41.5819 258.318 42.868 258.373 44.1403 258.225C45.179 258.087 46.1915 257.781 47.1427 257.319C47.781 257.014 48.3852 256.635 48.9442 256.189C49.1581 256.038 49.3505 255.855 49.5154 255.647C48.7261 256.19 47.8986 256.669 47.0402 257.079C46.1028 257.481 45.1168 257.741 44.111 257.853C42.8685 257.974 41.6162 257.909 40.3909 257.66C39.1463 257.397 37.8863 257.224 36.6196 257.141C35.5679 257.105 34.5206 257.3 33.5439 257.714C32.8818 257.995 32.292 258.438 31.823 259.007C31.7015 259.164 31.5937 259.332 31.5008 259.51C31.4203 259.673 31.3983 259.735 31.4056 259.742Z" fill="#F5F5F5"/>
<path d="M48.4934 265.262C48.3213 265.112 48.1219 265.002 47.9076 264.937C47.3366 264.71 46.7368 264.575 46.1281 264.534C45.2318 264.471 44.3315 264.526 43.4479 264.697C42.452 264.867 41.3755 265.154 40.2551 265.409C39.2088 265.669 38.137 265.796 37.0622 265.788C36.1927 265.768 35.3349 265.571 34.5358 265.208C33.7991 264.842 33.1449 264.314 32.6172 263.659C32.6949 263.883 32.8172 264.086 32.976 264.256C33.3861 264.74 33.8842 265.132 34.4406 265.409C35.2616 265.822 36.1537 266.054 37.0622 266.09C38.1632 266.119 39.2632 266 40.3356 265.734C41.4707 265.479 42.5325 265.177 43.5065 264.96C44.368 264.787 45.2439 264.707 46.1208 264.72C46.9306 264.791 47.7282 264.973 48.4934 265.262Z" fill="#F5F5F5"/>
<path d="M33.291 273.02C33.9447 272.716 34.6724 272.637 35.3707 272.795C36.133 272.987 36.8706 273.276 37.5676 273.655C38.4565 274.103 39.4136 274.381 40.3943 274.475C42.1855 274.641 43.9803 274.202 45.5204 273.221C45.9789 272.924 46.406 272.576 46.7946 272.184C46.9427 272.044 47.071 271.882 47.1754 271.704C46.6046 272.168 46.0106 272.6 45.3959 272.996C43.8799 273.874 42.1529 274.259 40.4309 274.104C38.4025 273.987 36.85 272.702 35.444 272.555C34.9016 272.455 34.3438 272.506 33.8256 272.702C33.6219 272.751 33.4361 272.861 33.291 273.02Z" fill="#F5F5F5"/>
<path d="M34.4883 283.75C35.1029 283.772 35.714 283.645 36.2751 283.379C37.3516 282.999 38.6844 282.124 40.2369 281.466C40.9623 281.159 41.7332 280.989 42.5143 280.963C43.1475 280.969 43.772 281.12 44.3451 281.404C44.8633 281.699 45.3134 282.112 45.6632 282.612C45.6632 282.612 45.6632 282.419 45.4655 282.14C45.2059 281.728 44.8569 281.389 44.4476 281.149C43.8525 280.801 43.1868 280.61 42.507 280.592C41.6808 280.594 40.8628 280.765 40.0977 281.095C38.4867 281.776 37.1685 282.643 36.1726 283.1C35.1767 283.557 34.481 283.688 34.4883 283.75Z" fill="#F5F5F5"/>
<path d="M35.541 288.744C35.9689 288.967 36.4252 289.124 36.8958 289.208C39.1291 289.776 41.4256 290.015 43.7208 289.92C44.1974 289.931 44.6731 289.871 45.1341 289.742C45.1341 289.634 42.9372 289.742 40.3156 289.448C37.694 289.154 35.563 288.635 35.541 288.744Z" fill="#F5F5F5"/>
<path d="M78.6934 70.4366C81.5825 75.2938 84.9825 79.7895 88.8284 83.8379L78.6934 70.4366Z" fill="white"/>
<path d="M88.8284 83.8379C88.1884 83.3331 87.5972 82.7626 87.0635 82.1347C85.7155 80.6884 84.4396 79.1689 83.2409 77.5824C82.0387 75.9955 80.9143 74.3443 79.8724 72.6353C79.4104 71.9462 79.0154 71.2096 78.6934 70.4366C79.2156 71.0722 79.6929 71.7476 80.1213 72.4573C80.9708 73.7192 82.1718 75.4534 83.5705 77.3037C84.9691 79.154 86.3019 80.7644 87.2759 81.9489C87.8369 82.5371 88.3558 83.1685 88.8284 83.8379Z" fill="#E0E0E0"/>
<path d="M10.6934 83.4744L20.821 70.2667L10.6934 83.4744Z" fill="white"/>
<path d="M20.821 70.2667C19.3 72.603 17.6648 74.8538 15.922 77.0099C14.2882 79.2608 12.5429 81.4186 10.6934 83.4744C12.2152 81.1488 13.8505 78.9083 15.5924 76.7622C17.228 74.503 18.9732 72.3349 20.821 70.2667Z" fill="#E0E0E0"/>
<path d="M420.926 193.425H285.854V259.286H420.926V193.425Z" fill="#F5F5F5"/>
<path d="M417.717 256.181H288.949V196.894H417.717V256.181ZM289.769 255.291H416.874V197.776H289.769V255.291Z" fill="#E0E0E0"/>
<path d="M453.927 193.425H420.93V259.286H453.927V193.425Z" fill="#E0E0E0"/>
<path d="M289.361 215.242H417.286C417.326 215.233 417.361 215.211 417.387 215.177C417.412 215.144 417.426 215.103 417.426 215.06C417.426 215.017 417.412 214.976 417.387 214.943C417.361 214.91 417.326 214.887 417.286 214.878H289.361C289.321 214.887 289.286 214.91 289.26 214.943C289.235 214.976 289.221 215.017 289.221 215.06C289.221 215.103 289.235 215.144 289.26 215.177C289.286 215.211 289.321 215.233 289.361 215.242Z" fill="#E0E0E0"/>
<path d="M353.748 215.064C354.103 209.106 354.118 203.132 353.792 197.172C353.784 197.13 353.762 197.093 353.731 197.066C353.699 197.039 353.66 197.024 353.62 197.024C353.579 197.024 353.54 197.039 353.509 197.066C353.477 197.093 353.456 197.13 353.448 197.172C353.118 203.132 353.133 209.107 353.492 215.064C353.498 215.094 353.515 215.121 353.538 215.141C353.561 215.16 353.59 215.171 353.62 215.171C353.649 215.171 353.678 215.16 353.701 215.141C353.724 215.121 353.741 215.094 353.748 215.064Z" fill="#E0E0E0"/>
<path d="M388.179 206.114C388.179 206.478 388.077 206.834 387.886 207.136C387.695 207.439 387.423 207.675 387.105 207.815C386.787 207.955 386.437 207.992 386.099 207.921C385.761 207.851 385.45 207.676 385.206 207.419C384.962 207.162 384.796 206.835 384.728 206.478C384.66 206.121 384.693 205.751 384.824 205.414C384.955 205.077 385.177 204.789 385.463 204.585C385.748 204.382 386.085 204.273 386.429 204.271C386.658 204.27 386.886 204.317 387.098 204.409C387.31 204.501 387.503 204.637 387.666 204.808C387.829 204.979 387.958 205.183 388.046 205.407C388.134 205.631 388.179 205.871 388.179 206.114Z" fill="#E0E0E0"/>
<path d="M321.037 206.114C321.037 206.478 320.934 206.834 320.743 207.137C320.551 207.44 320.279 207.677 319.961 207.816C319.642 207.955 319.292 207.992 318.954 207.921C318.616 207.85 318.305 207.674 318.061 207.417C317.818 207.159 317.652 206.831 317.584 206.473C317.517 206.116 317.552 205.745 317.683 205.409C317.815 205.072 318.039 204.784 318.325 204.582C318.612 204.379 318.949 204.271 319.294 204.271C319.523 204.27 319.75 204.317 319.962 204.409C320.174 204.502 320.366 204.637 320.528 204.809C320.69 204.98 320.819 205.183 320.906 205.407C320.993 205.631 321.037 205.871 321.037 206.114Z" fill="#E0E0E0"/>
<path d="M355.07 226.537C355.07 226.902 354.967 227.258 354.776 227.561C354.584 227.864 354.312 228.1 353.994 228.24C353.675 228.379 353.325 228.416 352.987 228.345C352.649 228.273 352.338 228.098 352.094 227.84C351.851 227.583 351.685 227.254 351.617 226.897C351.55 226.539 351.585 226.169 351.717 225.832C351.849 225.496 352.072 225.208 352.359 225.005C352.645 224.803 352.982 224.695 353.327 224.695C353.788 224.697 354.231 224.892 354.557 225.237C354.884 225.582 355.068 226.049 355.07 226.537Z" fill="#E0E0E0"/>
<path d="M302.002 259.286L295.045 300.627H298.963L311.778 259.286H302.002Z" fill="#E0E0E0"/>
<path d="M411.373 259.286L417.188 300.705H413.277L401.59 259.286H411.373Z" fill="#E0E0E0"/>
<path d="M437.485 259.286L444.068 300.705H440.158L427.701 259.286H437.485Z" fill="#E0E0E0"/>
<path d="M354.939 245.172C354.939 245.536 354.837 245.893 354.645 246.196C354.454 246.499 354.181 246.735 353.863 246.874C353.544 247.014 353.194 247.05 352.856 246.979C352.518 246.908 352.207 246.733 351.964 246.475C351.72 246.217 351.554 245.889 351.487 245.532C351.419 245.174 351.454 244.804 351.586 244.467C351.718 244.13 351.941 243.842 352.228 243.64C352.514 243.438 352.851 243.329 353.196 243.329C353.658 243.329 354.102 243.524 354.428 243.869C354.755 244.215 354.939 244.683 354.939 245.172Z" fill="#E0E0E0"/>
<path d="M289.364 235.634H417.289C417.334 235.634 417.376 235.615 417.408 235.582C417.44 235.548 417.457 235.503 417.457 235.456C417.457 235.409 417.44 235.363 417.408 235.33C417.376 235.296 417.334 235.278 417.289 235.278H289.364C289.319 235.278 289.276 235.296 289.245 235.33C289.213 235.363 289.195 235.409 289.195 235.456C289.195 235.503 289.213 235.548 289.245 235.582C289.276 235.615 289.319 235.634 289.364 235.634Z" fill="#E0E0E0"/>
<path d="M172.822 275.319V300.357H207.453H245.649V275.319H172.822Z" fill="#F5F5F5"/>
<path d="M169.771 268.32V275.319H248.201V268.32H207.456H169.771Z" fill="#E0E0E0"/>
<path d="M208.986 300.356H245.652V275.319H248.2V268.32H207.455V274.677L208.986 300.356Z" fill="#E0E0E0"/>
<path d="M197.778 279.361H183.008V283.131H197.778V279.361Z" fill="#E0E0E0"/>
<path d="M200.076 287.838H181.109V295.796H200.076V287.838Z" fill="white"/>
<path d="M184.025 243.322V268.36H218.656H256.852V243.322H184.025Z" fill="#F5F5F5"/>
<path d="M180.975 236.323V243.322H259.404V236.323H218.659H180.975Z" fill="#E0E0E0"/>
<path d="M220.191 268.359H256.857V243.322H259.405V236.323H218.66V242.672L220.191 268.359Z" fill="#E0E0E0"/>
<path d="M208.985 247.355H194.215V251.126H208.985V247.355Z" fill="#E0E0E0"/>
<path d="M211.285 255.84H192.318V263.799H211.285V255.84Z" fill="white"/>
<path d="M404.044 145.069C405.353 144.234 406.762 143.588 408.233 143.149L409.097 138.767L416.098 138.635L417.109 142.986C418.593 143.371 420.021 143.965 421.356 144.751L424.893 142.297L429.931 147.438L427.734 151.262C428.531 152.657 429.145 154.16 429.558 155.73L433.702 156.643L433.827 164.044L429.711 165.113C429.347 166.682 428.786 168.192 428.042 169.603L430.363 173.304L425.493 178.63L421.876 176.308C420.57 177.143 419.163 177.789 417.694 178.228L416.83 182.61L409.83 182.741L408.819 178.39C407.335 178.007 405.906 177.413 404.572 176.625L401.071 179.087L396.033 173.946L398.23 170.122C397.441 168.738 396.83 167.248 396.414 165.693L392.269 164.78L392.145 157.379L396.253 156.31C396.623 154.742 397.186 153.232 397.93 151.82L395.608 148.081L400.471 142.754L404.088 145.077L404.044 145.069ZM407.779 154.932C406.747 156.062 406.055 157.49 405.79 159.036C405.526 160.582 405.7 162.176 406.293 163.617C406.885 165.057 407.868 166.28 409.118 167.13C410.367 167.98 411.827 168.419 413.313 168.392C414.799 168.365 416.243 167.873 417.464 166.978C418.685 166.083 419.628 164.825 420.173 163.364C420.718 161.902 420.841 160.303 420.526 158.768C420.212 157.232 419.473 155.83 418.405 154.739C417.694 154.015 416.855 153.447 415.936 153.066C415.017 152.685 414.036 152.5 413.049 152.52C412.063 152.54 411.089 152.765 410.185 153.183C409.281 153.601 408.463 154.203 407.779 154.955V154.932Z" fill="#EBEBEB"/>
<path d="M182.226 147.732C184.513 146.271 186.977 145.143 189.549 144.38L191.058 136.739L203.265 136.514L205.016 144.093C207.605 144.772 210.098 145.813 212.426 147.19L218.592 142.917L227.38 151.882L223.557 158.548C224.938 160.966 226.005 163.57 226.728 166.29L233.956 167.877L234.11 180.736L226.948 182.594C226.303 185.328 225.318 187.96 224.019 190.421L228.061 196.948L219.581 206.238L213.313 202.181C211.024 203.639 208.561 204.766 205.99 205.533L204.488 213.175L192.281 213.399L190.523 205.82C187.936 205.141 185.446 204.1 183.12 202.723L176.991 207.02L168.203 198.062L172.026 191.389C170.646 188.97 169.58 186.366 168.855 183.647L161.612 182.052L161.393 169.154L168.562 167.296C169.204 164.558 170.189 161.923 171.491 159.461L167.471 152.973L175.943 143.683L182.256 147.724L182.226 147.732ZM188.729 164.919C186.931 166.889 185.726 169.378 185.265 172.072C184.805 174.766 185.11 177.543 186.143 180.054C187.176 182.564 188.889 184.694 191.067 186.175C193.245 187.656 195.789 188.421 198.378 188.373C200.967 188.325 203.484 187.467 205.612 185.907C207.74 184.347 209.382 182.155 210.332 179.609C211.281 177.062 211.495 174.275 210.946 171.599C210.398 168.924 209.111 166.481 207.249 164.579C206.012 163.311 204.55 162.315 202.948 161.646C201.345 160.977 199.634 160.649 197.911 160.681C196.189 160.712 194.489 161.103 192.91 161.83C191.33 162.558 189.902 163.607 188.707 164.919H188.729Z" fill="#EBEBEB"/>
<path d="M259.086 71.9701C260.193 71.2628 261.386 70.7159 262.631 70.3443L263.363 66.6282L269.302 66.512L270.159 70.1972C271.417 70.5264 272.629 71.0315 273.761 71.6991L276.764 69.6165L281.04 73.983L279.18 77.2269C279.85 78.4001 280.367 79.663 280.718 80.9817L284.233 81.7559L284.343 88.0346L280.857 88.9404C280.545 90.2707 280.067 91.5515 279.437 92.7494L281.407 95.9236L277.276 100.437L274.208 98.4397C273.099 99.1495 271.904 99.6989 270.656 100.073L269.924 103.789L263.985 103.898L263.128 100.213C261.869 99.8855 260.657 99.3804 259.526 98.7107L256.523 100.793L252.254 96.4346L254.114 93.1907C253.444 92.0169 252.924 90.7543 252.569 89.4359L249.054 88.6617L248.951 82.383L252.437 81.4772C252.745 80.1453 253.223 78.8639 253.858 77.6681L251.888 74.494L256.011 69.9727L259.086 71.9391V71.9701ZM262.25 80.3391C261.375 81.2977 260.788 82.5091 260.564 83.8202C260.34 85.1312 260.489 86.483 260.992 87.7045C261.495 88.9261 262.329 89.9625 263.389 90.6828C264.45 91.403 265.688 91.7748 266.948 91.7509C268.208 91.7271 269.433 91.3088 270.468 90.5489C271.503 89.7891 272.302 88.7217 272.763 87.482C273.224 86.2422 273.327 84.8856 273.059 83.5839C272.791 82.2822 272.164 81.0937 271.257 80.1688C270.041 78.9288 268.409 78.2502 266.72 78.2821C265.031 78.3141 263.423 79.054 262.25 80.3391Z" fill="#F5F5F5"/>
<path d="M295.626 89.5519C297.573 88.313 299.666 87.3523 301.851 86.6951L303.132 80.1764L313.546 79.9828L315.047 86.4473C317.252 87.0245 319.375 87.9097 321.359 89.0796L326.625 85.4332L334.116 93.0744L330.857 98.7648C332.029 100.822 332.938 103.035 333.559 105.345L339.725 106.708L339.908 117.709L333.794 119.296C333.247 121.63 332.409 123.877 331.304 125.978L334.753 131.536L327.489 139.472L322.106 136.027C320.162 137.269 318.068 138.23 315.882 138.883L314.6 145.402L304.187 145.596L302.686 139.131C300.479 138.555 298.354 137.673 296.366 136.507L291.108 140.153L283.617 132.504L286.875 126.814C285.701 124.758 284.792 122.544 284.173 120.233L278.007 118.878L277.824 107.869L283.939 106.321C284.482 103.99 285.317 101.745 286.421 99.6473L282.972 94.0809L290.207 86.1609L295.59 89.6061L295.626 89.5519ZM301.177 104.223C299.644 105.903 298.616 108.026 298.224 110.324C297.832 112.622 298.093 114.991 298.974 117.131C299.855 119.272 301.317 121.089 303.175 122.351C305.033 123.614 307.203 124.266 309.411 124.225C311.619 124.184 313.766 123.451 315.58 122.12C317.395 120.789 318.795 118.92 319.605 116.747C320.414 114.575 320.596 112.198 320.128 109.916C319.659 107.634 318.561 105.551 316.973 103.929C315.916 102.846 314.668 101.995 313.3 101.423C311.932 100.852 310.47 100.572 308.999 100.6C307.528 100.627 306.077 100.961 304.728 101.583C303.379 102.205 302.16 103.102 301.141 104.223H301.177Z" fill="#EBEBEB"/>
<path d="M300.659 33.2132C301.631 32.5912 302.678 32.1095 303.771 31.781L304.408 28.5294L309.615 28.4287L310.347 31.6571C311.449 31.9474 312.51 32.3899 313.503 32.9732L316.132 31.1539L319.882 34.9784L318.248 37.8197C318.837 38.8477 319.292 39.9542 319.603 41.11L322.686 41.7913L322.774 47.2958L319.72 48.07C319.449 49.2363 319.03 50.3586 318.475 51.4067L320.204 54.1938L316.608 58.1809L313.928 56.439C312.957 57.0644 311.91 57.5463 310.816 57.8713L310.179 61.1306L304.972 61.2235L304.24 57.9951C303.136 57.7083 302.075 57.2656 301.083 56.679L298.454 58.5061L294.705 54.6816L296.338 51.8403C295.751 50.8089 295.295 49.6999 294.983 48.5422L291.9 47.8687L291.812 42.3642L294.866 41.59C295.141 40.4223 295.559 39.2978 296.111 38.2455L294.39 35.4661L298 31.5023L300.695 33.2287L300.659 33.2132ZM303.434 40.5448C302.666 41.385 302.15 42.4473 301.953 43.5973C301.756 44.7473 301.886 45.9332 302.326 47.0051C302.767 48.077 303.498 48.9867 304.428 49.6189C305.358 50.2512 306.444 50.5777 307.549 50.5571C308.655 50.5365 309.729 50.1698 310.637 49.5032C311.545 48.8367 312.246 47.9004 312.651 46.8127C313.055 45.7251 313.146 44.535 312.91 43.3931C312.675 42.2512 312.124 41.2088 311.328 40.3977C310.262 39.3117 308.832 38.7172 307.352 38.7448C305.872 38.7724 304.463 39.4198 303.434 40.5448Z" fill="#EBEBEB"/>
<path d="M238.433 114.348C240.949 112.741 243.659 111.499 246.488 110.655L248.143 102.255L261.574 102L263.507 110.338C266.354 111.082 269.095 112.222 271.658 113.729L278.446 109.03L288.112 118.893L283.909 126.224C285.429 128.885 286.604 131.749 287.402 134.74L295.347 136.49L295.582 150.689L287.695 152.733C286.997 155.743 285.921 158.641 284.495 161.349L288.94 168.526L279.61 178.746L272.639 174.309C270.121 175.914 267.412 177.156 264.584 178.002L262.929 186.402L249.498 186.65L247.565 178.312C244.717 177.576 241.975 176.438 239.414 174.929L232.648 179.589L222.982 169.726L227.192 162.387C225.671 159.727 224.496 156.863 223.699 153.871L215.754 152.121L215.52 137.922L223.406 135.879C224.109 132.868 225.187 129.971 226.614 127.262L222.169 120.116L231.498 109.897L238.433 114.348Z" fill="#349F6E"/>
<path d="M245.773 162.373L273.146 161.139V132.199H245.773V162.373Z" fill="white"/>
<path d="M263.593 146.039H255.16C254.258 146.039 253.552 145.338 253.552 144.504C253.552 143.669 254.258 142.968 255.16 142.968H263.593C264.496 142.968 265.201 143.669 265.201 144.504C265.201 145.338 264.496 146.039 263.593 146.039Z" fill="#349F6E" stroke="#349F6E" stroke-width="0.8"/>
<path d="M259.154 138.461L256.482 140.266V132.903H262.273V140.266L259.602 138.461L259.378 138.31L259.154 138.461Z" fill="#349F6E" stroke="#349F6E" stroke-width="0.8"/>
<path d="M245.773 132.198H273.146L262.292 123.921H234.918L245.773 132.198Z" fill="#F0F0F0"/>
<path d="M245.77 162.373V132.199L234.915 123.922V152.862L245.77 162.373Z" fill="#BFBFBF"/>
<path d="M127.826 112.622C130.343 111.019 133.053 109.78 135.881 108.937L137.536 100.529L150.966 100.281L152.9 108.619C155.748 109.358 158.489 110.499 161.05 112.01L167.839 107.303L177.505 117.166L173.294 124.506C174.815 127.166 175.99 130.03 176.787 133.022L184.733 134.772L184.967 148.97L177.087 151.014C176.372 154.015 175.284 156.902 173.851 159.6L178.296 166.777L168.937 176.996L162.002 172.552C159.484 174.154 156.775 175.393 153.947 176.237L152.292 184.645L138.861 184.893L136.928 176.555C134.081 175.811 131.341 174.671 128.778 173.164L122.07 177.871L112.404 168.008L116.614 160.668C115.094 158.008 113.919 155.144 113.121 152.152L105.176 150.402L104.941 136.204L112.828 134.16C113.516 131.148 114.583 128.248 115.999 125.535L111.554 118.359L120.884 108.147L127.826 112.591V112.622Z" fill="#349F6E"/>
<path d="M147.067 166.381C142.157 166.359 137.383 164.674 133.446 161.574C129.508 158.474 126.613 154.122 125.186 149.156C125.16 149.057 125.172 148.952 125.219 148.863C125.265 148.773 125.342 148.706 125.435 148.676C125.527 148.647 125.626 148.657 125.711 148.705C125.796 148.753 125.86 148.834 125.889 148.931C127.419 154.351 130.759 159 135.286 162.014C139.814 165.028 145.222 166.203 150.507 165.32C155.791 164.437 160.594 161.557 164.022 157.214C167.45 152.871 169.27 147.36 169.146 141.706C169.022 136.051 166.96 130.636 163.345 126.466C159.73 122.296 154.806 119.655 149.488 119.033C144.17 118.411 138.82 119.85 134.43 123.083C130.04 126.317 126.908 131.124 125.618 136.614C125.594 136.716 125.533 136.805 125.448 136.86C125.363 136.915 125.261 136.933 125.164 136.908C125.067 136.883 124.983 136.819 124.931 136.729C124.878 136.639 124.862 136.531 124.885 136.428C125.917 132.039 128.095 128.045 131.17 124.902C134.245 121.758 138.094 119.592 142.278 118.649C146.461 117.706 150.811 118.025 154.832 119.569C158.852 121.113 162.381 123.821 165.017 127.383C167.652 130.945 169.287 135.219 169.736 139.716C170.186 144.213 169.43 148.754 167.557 152.819C165.683 156.885 162.767 160.312 159.14 162.71C155.513 165.108 151.322 166.38 147.045 166.381H147.067Z" fill="white"/>
<path d="M146.969 159.011C143.509 159.004 140.146 157.804 137.389 155.594C134.632 153.384 132.633 150.284 131.693 146.764C131.679 146.715 131.675 146.665 131.681 146.615C131.686 146.565 131.701 146.516 131.724 146.472C131.747 146.429 131.778 146.39 131.816 146.359C131.853 146.328 131.896 146.305 131.942 146.291C132.035 146.263 132.135 146.274 132.22 146.324C132.305 146.373 132.369 146.456 132.396 146.555C133.381 150.275 135.608 153.491 138.663 155.61C141.718 157.729 145.396 158.607 149.016 158.081C152.636 157.555 155.953 155.661 158.355 152.749C160.756 149.838 162.079 146.105 162.079 142.242C162.079 138.379 160.756 134.647 158.355 131.735C155.953 128.824 152.636 126.93 149.016 126.404C145.396 125.878 141.718 126.756 138.663 128.875C135.608 130.994 133.381 134.21 132.396 137.93C132.383 137.981 132.36 138.029 132.33 138.07C132.3 138.112 132.262 138.147 132.219 138.173C132.175 138.2 132.128 138.217 132.078 138.223C132.029 138.23 131.979 138.226 131.931 138.213C131.883 138.199 131.838 138.175 131.798 138.143C131.759 138.111 131.726 138.071 131.701 138.025C131.676 137.98 131.66 137.929 131.654 137.877C131.647 137.825 131.651 137.772 131.664 137.721C132.459 134.716 134.032 132.006 136.206 129.894C138.379 127.783 141.067 126.355 143.966 125.77C146.866 125.186 149.862 125.468 152.618 126.586C155.374 127.703 157.78 129.611 159.566 132.096C161.352 134.58 162.447 137.542 162.727 140.649C163.008 143.755 162.463 146.883 161.154 149.679C159.845 152.476 157.824 154.831 155.318 156.48C152.812 158.129 149.92 159.005 146.969 159.011Z" fill="white"/>
<path d="M146.965 146.005C146.156 146.008 145.365 145.755 144.695 145.278C144.616 145.217 144.563 145.127 144.545 145.027C144.528 144.926 144.547 144.822 144.599 144.736C144.654 144.652 144.738 144.595 144.832 144.576C144.927 144.557 145.025 144.578 145.105 144.635C145.535 144.941 146.026 145.135 146.54 145.204C147.054 145.272 147.576 145.212 148.064 145.029C148.552 144.846 148.993 144.545 149.351 144.149C149.709 143.754 149.975 143.275 150.127 142.752C150.278 142.228 150.312 141.674 150.225 141.134C150.138 140.595 149.932 140.084 149.625 139.643C149.318 139.202 148.917 138.844 148.455 138.596C147.993 138.349 147.483 138.219 146.965 138.217C146.415 138.219 145.875 138.362 145.39 138.635C145.349 138.659 145.303 138.675 145.255 138.68C145.208 138.686 145.16 138.681 145.114 138.667C145.069 138.652 145.026 138.628 144.989 138.596C144.952 138.564 144.922 138.525 144.9 138.48C144.876 138.436 144.862 138.386 144.857 138.336C144.851 138.285 144.856 138.234 144.869 138.185C144.883 138.136 144.906 138.09 144.936 138.051C144.966 138.011 145.004 137.978 145.046 137.954C145.589 137.645 146.191 137.472 146.806 137.446C147.422 137.421 148.035 137.544 148.598 137.807C149.162 138.069 149.661 138.465 150.059 138.962C150.456 139.46 150.741 140.047 150.892 140.678C151.042 141.31 151.054 141.969 150.927 142.607C150.8 143.244 150.537 143.842 150.159 144.356C149.78 144.87 149.296 145.285 148.742 145.571C148.189 145.857 147.581 146.005 146.965 146.005Z" fill="white"/>
<path d="M147.061 141.577L141.144 138.534L141.254 141.244L125.539 141.639L125.707 142.854L141.452 142.583L141.496 145.339L147.061 141.577Z" fill="white"/>
<path d="M129.861 142.041L129.78 141.87C129.571 141.442 129.257 141.081 128.87 140.825C128.484 140.569 128.039 140.428 127.584 140.415L122.377 140.206L124.632 142.358L122.633 144.967L127.613 144.859C128.16 144.847 128.689 144.649 129.121 144.295C129.554 143.941 129.867 143.449 130.015 142.892L129.861 142.041Z" fill="white"/>
<path d="M147.061 152.369C144.99 152.36 142.978 151.646 141.323 150.332C139.667 149.018 138.456 147.175 137.87 145.076C137.856 145.028 137.851 144.977 137.856 144.927C137.86 144.876 137.875 144.827 137.898 144.783C137.922 144.739 137.953 144.7 137.991 144.669C138.029 144.638 138.073 144.616 138.119 144.604C138.165 144.59 138.214 144.585 138.261 144.591C138.309 144.596 138.356 144.612 138.398 144.636C138.44 144.66 138.477 144.693 138.507 144.733C138.537 144.773 138.56 144.818 138.573 144.867C139.178 147.022 140.496 148.874 142.287 150.086C144.078 151.297 146.221 151.786 148.325 151.463C150.429 151.14 152.353 150.027 153.744 148.327C155.135 146.628 155.9 144.455 155.9 142.208C155.9 139.96 155.135 137.788 153.744 136.088C152.353 134.388 150.429 133.275 148.325 132.952C146.221 132.63 144.078 133.118 142.287 134.33C140.496 135.541 139.178 137.394 138.573 139.548C138.56 139.597 138.537 139.643 138.507 139.682C138.477 139.722 138.44 139.755 138.398 139.779C138.356 139.804 138.309 139.819 138.261 139.825C138.214 139.83 138.165 139.826 138.119 139.812C138.072 139.797 138.028 139.773 137.99 139.741C137.952 139.709 137.921 139.669 137.897 139.623C137.874 139.578 137.86 139.528 137.855 139.476C137.851 139.425 137.856 139.373 137.87 139.324C138.383 137.529 139.357 135.92 140.685 134.677C142.012 133.434 143.64 132.605 145.387 132.282C147.133 131.96 148.931 132.157 150.578 132.851C152.225 133.546 153.657 134.71 154.715 136.215C155.772 137.72 156.414 139.506 156.567 141.374C156.721 143.241 156.381 145.118 155.585 146.793C154.789 148.468 153.568 149.876 152.059 150.861C150.55 151.846 148.812 152.368 147.039 152.369H147.061Z" fill="white"/>
<path d="M347.852 111.971C350.37 110.369 353.079 109.13 355.907 108.286L357.562 99.8785L370.992 99.6307L372.926 107.969C375.774 108.706 378.516 109.846 381.076 111.36L387.864 106.653L397.531 116.516L393.32 123.855C394.84 126.515 396.015 129.38 396.813 132.371L404.737 134.098L404.971 148.296L397.084 150.309C396.386 153.317 395.31 156.213 393.884 158.918L398.329 166.095L388.999 176.315L382.035 171.894C379.518 173.5 376.809 174.742 373.98 175.587L372.325 183.995L358.895 184.242L356.961 175.904C354.114 175.162 351.373 174.021 348.811 172.513L342.022 177.22L332.407 167.342L336.618 160.002C335.098 157.342 333.923 154.478 333.125 151.486L325.18 149.736L324.916 135.6L332.796 133.556C333.499 130.546 334.578 127.649 336.003 124.939L331.558 117.762L340.887 107.551L347.822 111.995L347.852 111.971Z" fill="#349F6E"/>
<path d="M345.289 143.156L350.437 137.713L360.36 147.042L379.846 127.223L384.628 132.666L359.627 157.54L345.289 143.156Z" fill="white"/>
<path d="M212.266 116.4C212.284 116.313 212.314 116.23 212.353 116.152L212.646 115.455C212.778 115.138 212.939 114.766 213.13 114.325C213.34 113.792 213.585 113.274 213.862 112.777L214.829 110.918C215.209 110.245 215.663 109.556 216.125 108.789C216.586 108.023 217.165 107.241 217.743 106.467C218.362 105.599 219.022 104.764 219.72 103.966C220.409 103.084 221.258 102.278 222.078 101.388C222.489 100.931 222.964 100.544 223.419 100.111C223.873 99.6772 224.349 99.2436 224.839 98.8178L226.384 97.5791C226.648 97.3701 226.904 97.1533 227.175 96.952L228.017 96.3636C228.589 95.9688 229.152 95.5894 229.746 95.1714L231.591 94.0643C232.199 93.6694 232.865 93.3675 233.524 93.0269C234.183 92.6862 234.842 92.3223 235.545 92.0514L237.647 91.1533L239.844 90.3791C246.007 88.3639 252.538 87.9522 258.884 89.1791L261.154 89.6514L263.351 90.2785C264.083 90.4643 264.771 90.7507 265.467 90.9907C266.163 91.2307 266.851 91.4707 267.503 91.7649L269.451 92.632C270.088 92.934 270.696 93.2823 271.304 93.592L272.204 94.072C272.497 94.2423 272.783 94.4281 273.061 94.5985L274.738 95.6359C275.273 95.992 275.785 96.4101 276.29 96.743C276.796 97.0759 277.308 97.4475 277.755 97.8423C278.678 98.6165 279.608 99.3133 280.384 100.111C281.16 100.908 281.973 101.582 282.632 102.34C283.291 103.099 283.972 103.757 284.5 104.469C285.027 105.182 285.576 105.809 286.023 106.42L287.194 108.147C287.517 108.599 287.813 109.073 288.08 109.564L288.688 110.624C288.835 110.895 288.959 111.12 289.054 111.282C289.102 111.353 289.139 111.432 289.164 111.515C289.111 111.448 289.062 111.378 289.018 111.306L288.622 110.663L287.985 109.626C287.706 109.144 287.403 108.679 287.077 108.232L285.876 106.537C285.422 105.933 284.888 105.313 284.338 104.624C283.789 103.935 283.13 103.262 282.456 102.526C281.783 101.791 280.992 101.078 280.208 100.32C279.425 99.561 278.495 98.8643 277.579 98.0978C277.125 97.703 276.613 97.3778 276.115 97.0062C275.617 96.6346 275.097 96.2707 274.562 95.9223C274.028 95.574 273.464 95.241 272.893 94.9004C272.614 94.7301 272.336 94.5443 272.043 94.3817L271.142 93.9094C270.535 93.5998 269.934 93.2669 269.304 92.9649L267.364 92.1056C266.719 91.7959 266.024 91.5869 265.343 91.3314C264.662 91.0759 263.966 90.8049 263.241 90.6269L261.044 90.0075L258.789 89.543C255.646 88.9758 252.453 88.7733 249.269 88.9391C246.114 89.1933 242.995 89.8138 239.968 90.7894L237.772 91.5636L235.677 92.4462C234.982 92.7094 234.33 93.0811 233.671 93.4062C233.012 93.7314 232.36 94.0411 231.752 94.4282L229.921 95.5198C229.328 95.8991 228.764 96.294 228.2 96.6965L227.358 97.2772C227.087 97.4707 226.831 97.6875 226.567 97.8965L225.03 99.1198C224.539 99.5378 224.078 99.9714 223.609 100.389C223.14 100.807 222.679 101.202 222.276 101.651C221.449 102.534 220.599 103.324 219.911 104.198C219.222 105.073 218.497 105.832 217.926 106.66C217.355 107.489 216.747 108.209 216.293 108.983C215.839 109.757 215.363 110.415 214.982 111.073L213.979 112.908C213.71 113.392 213.466 113.891 213.247 114.402L212.727 115.517C212.595 115.804 212.485 116.028 212.405 116.198C212.365 116.271 212.319 116.338 212.266 116.4Z" fill="#263238"/>
<path d="M227.424 90.7973C227.685 90.568 227.964 90.3633 228.259 90.1857C228.808 89.8141 229.628 89.3186 230.661 88.7612C236.107 85.8518 242.134 84.3651 248.236 84.4257C249.4 84.4257 250.345 84.5032 250.989 84.5806C251.328 84.5981 251.664 84.6526 251.992 84.7432C251.656 84.7731 251.318 84.7731 250.982 84.7432C250.33 84.7044 249.393 84.689 248.236 84.7432C242.189 84.8308 236.231 86.2992 230.77 89.0477C229.731 89.5664 228.896 90.0231 228.325 90.3561C228.038 90.5327 227.737 90.6805 227.424 90.7973Z" fill="#263238"/>
<path d="M403.42 169.518C403.401 169.603 403.374 169.686 403.339 169.765C403.266 169.936 403.163 170.168 403.046 170.462L402.563 171.592C402.348 172.123 402.104 172.64 401.831 173.141C401.538 173.698 401.215 174.325 400.857 174.999C400.498 175.672 400.029 176.361 399.56 177.128C399.092 177.894 398.528 178.676 397.942 179.45C397.356 180.225 396.675 181.084 395.965 181.951C395.255 182.818 394.434 183.631 393.607 184.529C393.204 184.978 392.728 185.373 392.274 185.807C391.82 186.24 391.344 186.674 390.853 187.099C390.363 187.525 389.828 187.92 389.308 188.338C389.045 188.547 388.781 188.764 388.51 188.965L387.668 189.554C387.104 189.941 386.533 190.328 385.94 190.746L384.102 191.853C383.487 192.24 382.82 192.55 382.168 192.89C381.517 193.231 380.85 193.595 380.147 193.866L378.038 194.756L375.841 195.53C369.679 197.546 363.147 197.957 356.802 196.73L354.531 196.25L352.335 195.631C351.602 195.445 350.914 195.159 350.218 194.911C349.522 194.663 348.834 194.439 348.182 194.137L346.227 193.27C345.597 192.96 344.99 192.619 344.382 192.302L343.481 191.83C343.181 191.659 342.903 191.474 342.617 191.303L340.947 190.266C340.405 189.902 339.9 189.492 339.387 189.159C338.875 188.826 338.37 188.454 337.923 188.052C337.008 187.277 336.077 186.588 335.294 185.791C334.51 184.994 333.705 184.32 333.053 183.554C332.401 182.787 331.713 182.145 331.186 181.425C330.658 180.705 330.109 180.093 329.655 179.481C329.201 178.87 328.842 178.274 328.484 177.755C328.163 177.302 327.87 176.829 327.605 176.338C327.363 175.928 327.165 175.564 326.997 175.278C326.829 174.991 326.726 174.782 326.631 174.619L326.514 174.387C326.514 174.387 326.572 174.457 326.667 174.596C326.763 174.736 326.894 174.968 327.063 175.231L327.7 176.276C327.977 176.757 328.28 177.219 328.608 177.662L329.802 179.365C330.256 179.969 330.79 180.588 331.34 181.278C331.889 181.967 332.555 182.64 333.222 183.376C333.888 184.111 334.686 184.823 335.47 185.574C336.253 186.325 337.183 187.03 338.099 187.804C338.553 188.199 339.065 188.524 339.563 188.896C340.061 189.267 340.574 189.623 341.116 189.979L342.778 191.001C343.064 191.172 343.342 191.357 343.635 191.52L344.528 191.992C345.136 192.302 345.744 192.635 346.366 192.937L348.307 193.788C348.959 194.098 349.647 194.315 350.335 194.563C351.024 194.81 351.712 195.089 352.437 195.267L354.634 195.879L356.882 196.343C363.181 197.559 369.664 197.153 375.783 195.159L377.98 194.385L380.067 193.502C380.799 193.231 381.421 192.867 382.073 192.542C382.725 192.217 383.391 191.907 383.999 191.512L385.83 190.421C386.423 190.049 386.98 189.647 387.551 189.252L388.386 188.671C388.657 188.477 388.913 188.261 389.176 188.052L390.722 186.828C391.212 186.41 391.674 185.969 392.135 185.559C392.596 185.148 393.065 184.738 393.475 184.297C394.295 183.414 395.145 182.625 395.833 181.75C396.521 180.875 397.254 180.116 397.818 179.288C398.381 178.459 399.004 177.739 399.451 176.965C399.897 176.191 400.388 175.525 400.769 174.867C401.15 174.209 401.501 173.59 401.765 173.032C402.036 172.55 402.281 172.051 402.497 171.538L403.01 170.431L403.339 169.742L403.42 169.518Z" fill="#263238"/>
<path d="M388.561 197.473C388.302 197.705 388.023 197.91 387.726 198.085C386.949 198.602 386.147 199.077 385.325 199.509C379.878 202.419 373.851 203.905 367.749 203.845C366.829 203.841 365.91 203.787 364.996 203.682C364.659 203.671 364.325 203.619 364 203.527C364.336 203.497 364.674 203.497 365.011 203.527C365.655 203.566 366.592 203.574 367.749 203.527C373.797 203.442 379.755 201.973 385.215 199.223C386.262 198.696 387.097 198.247 387.661 197.914C387.947 197.738 388.249 197.59 388.561 197.473Z" fill="#263238"/>
<path d="M184.311 167.798C184.291 167.882 184.262 167.963 184.223 168.038C184.15 168.216 184.054 168.449 183.93 168.735L183.447 169.873C183.233 170.405 182.989 170.922 182.714 171.422L181.748 173.28C181.367 173.945 180.913 174.642 180.452 175.401C179.99 176.16 179.412 176.949 178.833 177.724C178.255 178.498 177.566 179.357 176.856 180.216C176.146 181.076 175.318 181.904 174.498 182.794C174.088 183.251 173.612 183.646 173.158 184.08C172.704 184.513 172.228 184.947 171.737 185.365L170.192 186.611C169.928 186.813 169.672 187.037 169.394 187.238L168.559 187.827C167.988 188.214 167.424 188.601 166.831 189.011L164.985 190.118C164.378 190.513 163.711 190.815 163.052 191.164C162.393 191.512 161.734 191.86 161.031 192.131L158.929 193.029L156.732 193.804C150.572 195.828 144.037 196.24 137.693 195.004L135.423 194.531L133.226 193.904C132.493 193.726 131.805 193.44 131.109 193.192C130.414 192.944 129.725 192.712 129.074 192.418L127.126 191.543C126.488 191.241 125.881 190.9 125.273 190.583L124.372 190.103C124.079 189.94 123.794 189.754 123.515 189.576L121.838 188.539C121.304 188.183 120.791 187.765 120.286 187.44C119.781 187.114 119.268 186.735 118.821 186.333C117.899 185.558 116.969 184.862 116.185 184.072C115.401 183.282 114.603 182.601 113.944 181.834C113.285 181.068 112.604 180.425 112.077 179.705C111.55 178.985 111 178.374 110.554 177.755L109.382 176.036C109.061 175.582 108.765 175.109 108.496 174.619L107.888 173.551L107.522 172.893C107.474 172.822 107.437 172.743 107.412 172.66C107.466 172.729 107.515 172.801 107.559 172.877L107.954 173.512L108.591 174.549C108.87 175.031 109.173 175.496 109.499 175.943L110.693 177.638C111.154 178.242 111.689 178.869 112.238 179.558C112.787 180.247 113.446 180.913 114.12 181.656C114.794 182.4 115.585 183.096 116.368 183.855C117.152 184.614 118.082 185.311 118.997 186.085C119.451 186.48 119.964 186.805 120.462 187.169C120.96 187.533 121.48 187.904 122.014 188.26L123.676 189.282C123.962 189.453 124.24 189.631 124.533 189.793L125.434 190.265C126.034 190.575 126.642 190.916 127.272 191.218L129.213 192.069C129.857 192.379 130.553 192.596 131.234 192.844C131.915 193.091 132.61 193.362 133.335 193.54L135.532 194.16L137.788 194.624C144.084 195.84 150.565 195.434 156.681 193.44L158.878 192.665L160.972 191.783C161.705 191.512 162.32 191.14 162.979 190.823C163.638 190.505 164.29 190.18 164.898 189.793L166.728 188.702C167.321 188.322 167.885 187.927 168.449 187.533L169.291 186.952C169.562 186.751 169.819 186.534 170.082 186.333L171.62 185.109C172.111 184.691 172.572 184.25 173.041 183.832C173.509 183.414 173.971 183.019 174.373 182.57C175.201 181.687 176.05 180.905 176.739 180.031C177.427 179.156 178.152 178.389 178.723 177.561C179.295 176.733 179.902 176.013 180.356 175.238C180.81 174.464 181.286 173.798 181.667 173.14C182.048 172.482 182.399 171.855 182.67 171.305C182.941 170.822 183.185 170.323 183.403 169.811L183.923 168.696L184.245 168.015C184.245 167.868 184.311 167.791 184.311 167.798Z" fill="#263238"/>
<path d="M169.436 195.755C169.179 195.983 168.902 196.186 168.609 196.358C168.06 196.738 167.239 197.225 166.207 197.791C160.76 200.7 154.734 202.187 148.632 202.126C147.467 202.126 146.523 202.049 145.878 201.964C145.54 201.942 145.205 201.89 144.875 201.809C145.211 201.769 145.55 201.769 145.886 201.809C146.537 201.809 147.475 201.855 148.632 201.809C154.671 201.721 160.622 200.263 166.082 197.535C167.13 197.009 167.964 196.56 168.536 196.227C168.819 196.036 169.121 195.878 169.436 195.755Z" fill="#263238"/>
<path d="M340.298 73.4243H192.608C189.295 73.4243 186.117 72.0328 183.774 69.5558C181.431 67.0789 180.115 63.7195 180.115 60.2166C180.115 56.7137 181.431 53.3542 183.774 50.8773C186.117 48.4004 189.295 47.0089 192.608 47.0089H340.298C343.612 47.0089 346.789 48.4004 349.132 50.8773C351.475 53.3542 352.791 56.7137 352.791 60.2166C352.791 63.7195 351.475 67.0789 349.132 69.5558C346.789 72.0328 343.612 73.4243 340.298 73.4243Z" fill="#FAFAFA"/>
<path d="M340.296 73.4243L341.255 73.3547C342.195 73.2689 343.123 73.0769 344.023 72.7818C345.484 72.267 346.845 71.4804 348.044 70.4592C349.674 69.0673 350.953 67.269 351.764 65.2256C352.223 64.0077 352.521 62.7285 352.65 61.4244C352.763 59.9814 352.659 58.5285 352.342 57.1199C351.77 54.6367 350.521 52.3859 348.749 50.6474C346.977 48.909 344.761 47.7595 342.376 47.3418C340.542 47.142 338.696 47.0799 336.854 47.156H324.793L192.621 47.2102C190.27 47.2129 187.969 47.9272 185.99 49.2684C184.011 50.6097 182.437 52.5219 181.454 54.779C180.47 57.0362 180.118 59.5438 180.44 62.0056C180.762 64.4673 181.743 66.7802 183.269 68.6708C185.248 71.1353 188.033 72.7218 191.068 73.1147C192.533 73.2927 194.078 73.2076 195.579 73.2308H226.131L285.557 73.2772L325.613 73.3392H336.503H339.337H340.303H339.337H336.503L325.65 73.5095L285.593 73.5714L226.167 73.6101H195.579C194.078 73.6101 192.562 73.6721 191.024 73.494C188.655 73.1774 186.418 72.1598 184.572 70.5582C182.726 68.9566 181.346 66.8363 180.59 64.4415C179.834 62.0467 179.733 59.4748 180.299 57.0221C180.865 54.5693 182.075 52.3355 183.789 50.5779C186.158 48.1538 189.324 46.7965 192.621 46.7921L324.793 46.8541H336.854C338.709 46.7824 340.567 46.8522 342.412 47.0631C344.149 47.3659 345.804 48.0574 347.267 49.0915C349.919 50.9502 351.802 53.8071 352.533 57.0811C352.846 58.5114 352.943 59.9853 352.818 61.4476C352.686 62.7769 352.378 64.08 351.903 65.3185C351.196 67.1097 350.127 68.7156 348.771 70.0236C347.415 71.3316 345.804 72.31 344.053 72.8901C343.147 73.1794 342.214 73.3586 341.27 73.4243C340.633 73.4243 340.296 73.4243 340.296 73.4243Z" fill="#263238"/>
<path d="M275.157 70.2892H192.678C190.153 70.2892 187.732 69.2289 185.946 67.3414C184.161 65.4539 183.158 62.894 183.158 60.2247C183.158 57.5554 184.161 54.9955 185.946 53.108C187.732 51.2206 190.153 50.1602 192.678 50.1602H275.157C277.682 50.1602 280.103 51.2206 281.888 53.108C283.674 54.9955 284.677 57.5554 284.677 60.2247C284.677 62.894 283.674 65.4539 281.888 67.3414C280.103 69.2289 277.682 70.2892 275.157 70.2892Z" fill="#349F6E"/>
<g opacity="0.4">
<path d="M195.43 70.2893L207.264 50.1525H219.947L208.355 70.2893H195.43Z" fill="white"/>
</g>
<g opacity="0.4">
<path d="M220.859 70.2892L232.701 50.1525H245.377L233.784 70.2892H220.859Z" fill="white"/>
</g>
<g opacity="0.4">
<path d="M248.16 70.2893L259.994 50.1525H272.678L261.078 70.2893H248.16Z" fill="white"/>
</g>
<path d="M247.06 38.578C247.06 40.1264 245.976 41.0555 244.24 41.0555H242.937V42.9522H241.436V36.0929H244.24C245.976 36.0929 247.06 37.0451 247.06 38.578ZM245.536 38.578C245.536 37.8039 245.075 37.3858 244.16 37.3858H242.937V39.7626H244.16C245.097 39.7626 245.536 39.329 245.536 38.578Z" fill="#263238"/>
<path d="M252.249 42.9522L251.004 41.04H249.62V42.9522H248.119V36.0929H250.953C252.689 36.0929 253.772 37.0451 253.772 38.578C253.791 39.041 253.672 39.4985 253.434 39.887C253.195 40.2755 252.847 40.5757 252.44 40.7458L253.904 42.9522H252.249ZM250.843 37.3858H249.62V39.778H250.843C251.759 39.778 252.22 39.329 252.22 38.578C252.22 37.8271 251.759 37.3858 250.843 37.3858Z" fill="#263238"/>
<path d="M254.525 39.5226C254.485 38.7721 254.66 38.0264 255.026 37.3818C255.391 36.7373 255.932 36.2237 256.577 35.9074C257.222 35.5911 257.941 35.4867 258.643 35.6077C259.345 35.7287 259.996 36.0696 260.512 36.5862C261.029 37.1029 261.387 37.7714 261.54 38.5054C261.693 39.2394 261.634 40.0051 261.371 40.7034C261.107 41.4016 260.652 42.0003 260.064 42.4219C259.475 42.8436 258.78 43.0688 258.069 43.0684C257.613 43.0958 257.156 43.0244 256.727 42.8585C256.298 42.6926 255.906 42.4358 255.574 42.1038C255.242 41.7718 254.978 41.3715 254.797 40.9277C254.617 40.4838 254.524 40.0057 254.525 39.5226ZM260.098 39.5226C260.089 39.1005 259.963 38.6906 259.735 38.3441C259.507 37.9976 259.187 37.73 258.816 37.5747C258.444 37.4195 258.038 37.3836 257.647 37.4715C257.257 37.5595 256.9 37.7673 256.62 38.069C256.341 38.3707 256.152 38.7528 256.077 39.1674C256.002 39.5821 256.045 40.0109 256.2 40.4001C256.355 40.7892 256.615 41.1215 256.947 41.3551C257.28 41.5888 257.67 41.7134 258.069 41.7135C258.342 41.7213 258.612 41.6697 258.865 41.5617C259.117 41.4537 259.346 41.2918 259.536 41.0862C259.726 40.8805 259.875 40.6354 259.971 40.3664C260.068 40.0973 260.111 39.8101 260.098 39.5226Z" fill="#263238"/>
<path d="M262.33 39.5225C262.372 38.7835 262.619 38.074 263.04 37.4824C263.461 36.8908 264.037 36.4432 264.697 36.1955C265.357 35.9479 266.071 35.9111 266.75 36.0897C267.43 36.2683 268.045 36.6544 268.518 37.1999L267.559 38.1367C267.357 37.8885 267.106 37.6905 266.824 37.5566C266.542 37.4228 266.235 37.3565 265.926 37.3625C265.396 37.3957 264.899 37.6415 264.535 38.0494C264.172 38.4574 263.969 38.9968 263.969 39.5573C263.969 40.1179 264.172 40.6573 264.535 41.0652C264.899 41.4732 265.396 41.7189 265.926 41.7522C266.235 41.7609 266.543 41.6958 266.826 41.5618C267.108 41.4278 267.359 41.2282 267.559 40.978L268.525 41.8451C268.052 42.3906 267.437 42.7767 266.758 42.9553C266.078 43.1339 265.364 43.0971 264.704 42.8494C264.044 42.6017 263.468 42.1542 263.047 41.5626C262.626 40.9709 262.379 40.2614 262.337 39.5225H262.33Z" fill="#263238"/>
<path d="M274.559 41.6748V42.9522H269.535V36.0929H274.434V37.3703H271.029V38.8258H274.039V40.0568H271.029V41.6439L274.559 41.6748Z" fill="#263238"/>
<path d="M275.242 42.2708L275.755 41.0785C276.384 41.5365 277.129 41.7846 277.893 41.7908C278.779 41.7908 279.145 41.4811 279.145 41.0166C279.145 39.7391 275.374 40.6217 275.374 38.0746C275.374 36.9056 276.26 35.9379 278.105 35.9379C278.893 35.9191 279.67 36.1279 280.354 36.5417L279.892 37.7495C279.349 37.4081 278.73 37.2213 278.098 37.2075C277.205 37.2075 276.861 37.5637 276.861 37.9817C276.861 39.2437 280.632 38.3688 280.632 40.885C280.632 42.0308 279.738 43.014 277.886 43.014C276.954 43.0555 276.032 42.7962 275.242 42.2708Z" fill="#263238"/>
<path d="M281.148 42.2709L281.654 41.0786C282.286 41.5368 283.033 41.7849 283.799 41.7909C284.685 41.7909 285.044 41.4812 285.044 41.0167C285.044 39.7393 281.28 40.6218 281.28 38.0748C281.28 36.9057 282.166 35.938 284.012 35.938C284.799 35.9193 285.576 36.128 286.26 36.5419L285.799 37.7496C285.253 37.4069 284.632 37.2201 283.997 37.2077C283.111 37.2077 282.767 37.5638 282.767 37.9819C282.767 39.2438 286.538 38.3689 286.538 40.8851C286.538 42.0309 285.637 43.0141 283.785 43.0141C282.855 43.0545 281.936 42.7953 281.148 42.2709Z" fill="#263238"/>
<path d="M460.894 300.356C460.894 300.465 357.713 300.557 230.462 300.557C103.21 300.557 0 300.503 0 300.356C0 300.209 103.159 300.155 230.462 300.155C357.764 300.155 460.894 300.248 460.894 300.356Z" fill="#263238"/>
<path d="M11.0195 281.365L18.1887 265.107L34.9218 275.279L26.244 290.159C26.244 290.159 19.4703 291.429 16.4605 289.47C13.4508 287.512 11.0195 281.365 11.0195 281.365Z" fill="#FFBE9D"/>
<path d="M25.4063 291.669L26.2631 290.16C20.4031 289.103 15.0448 286.008 11.0386 281.365L5.30469 292.513L36.9766 310.924C38.4412 307.618 25.4063 291.669 25.4063 291.669Z" fill="#349F6E"/>
<path d="M5.28711 292.513L6.6858 289.788L36.5929 308.5C36.5929 308.5 37.662 309.963 36.959 310.923L5.28711 292.513Z" fill="#263238"/>
<path d="M25.9961 291.801C25.9009 291.963 25.0881 291.584 24.0555 291.669C23.023 291.754 22.2614 292.203 22.1516 292.056C22.0417 291.909 22.7667 291.096 24.0189 291.019C25.2711 290.942 26.1353 291.669 25.9961 291.801Z" fill="#263238"/>
<path d="M28.5608 295.184C28.5169 295.362 27.6967 295.254 26.8179 295.633C25.9392 296.012 25.4046 296.632 25.2435 296.57C25.0824 296.508 25.4778 295.494 26.5909 295.021C27.704 294.549 28.6414 295.021 28.5608 295.184Z" fill="#263238"/>
<path d="M28.2567 300.503C28.0955 300.456 28.3079 299.52 29.172 298.854C30.0361 298.188 30.9442 298.25 30.9369 298.428C30.9295 298.606 30.2046 298.823 29.5382 299.373C28.8718 299.922 28.4178 300.557 28.2567 300.503Z" fill="#263238"/>
<path d="M12.7922 289.502C12.6971 289.673 12.5563 289.81 12.3876 289.897C12.2188 289.983 12.0296 290.015 11.8436 289.989C11.6577 289.962 11.4834 289.878 11.3425 289.747C11.2017 289.616 11.1006 289.444 11.052 289.252C11.0034 289.061 11.0095 288.858 11.0694 288.67C11.1293 288.482 11.2404 288.317 11.3888 288.196C11.5372 288.074 11.7162 288.002 11.9033 287.988C12.0905 287.973 12.2774 288.018 12.4407 288.116C12.5506 288.182 12.647 288.27 12.7243 288.375C12.8016 288.481 12.8583 288.602 12.891 288.731C12.9237 288.86 12.9318 288.994 12.9149 289.127C12.8979 289.259 12.8562 289.386 12.7922 289.502Z" fill="#263238"/>
<path d="M86.5312 287.999L94.8355 269.473L111.752 269.752L103.081 287.79C103.081 287.79 97.4864 292.373 93.8616 292.11C90.2367 291.847 86.5312 287.999 86.5312 287.999Z" fill="#FFBE9D"/>
<path d="M102.984 289.594L103.079 287.79C96.979 289.796 91.9554 289.687 86.1556 287.496C85.5367 288.624 85.2014 289.901 85.1816 291.205L85.0645 300.503L122.229 301.238C122.068 297.514 102.984 289.594 102.984 289.594Z" fill="#349F6E"/>
<path d="M85.0645 300.503L85.1011 297.313L120.793 299.218C120.793 299.218 122.434 299.992 122.258 301.239L85.0645 300.503Z" fill="#263238"/>
<path d="M103.588 289.409C103.588 289.602 102.672 289.672 101.764 290.268C100.856 290.864 100.373 291.662 100.204 291.584C100.036 291.507 100.329 290.4 101.435 289.695C102.54 288.991 103.631 289.231 103.588 289.409Z" fill="#263238"/>
<path d="M107.457 291.212C107.457 291.398 106.725 291.708 106.073 292.513C105.422 293.318 105.246 294.162 105.07 294.154C104.894 294.146 104.792 293.055 105.597 292.072C106.403 291.088 107.457 291.011 107.457 291.212Z" fill="#263238"/>
<path d="M109.617 296.167C109.456 296.206 109.221 295.238 109.705 294.201C110.188 293.164 111.008 292.761 111.081 292.916C111.155 293.071 110.62 293.628 110.232 294.464C109.844 295.3 109.763 296.152 109.617 296.167Z" fill="#263238"/>
<path d="M90.5324 293.992C90.5265 294.197 90.463 294.396 90.35 294.564C90.237 294.731 90.0797 294.859 89.8978 294.931C89.716 295.004 89.5179 295.017 89.3286 294.971C89.1393 294.924 88.9675 294.819 88.8347 294.669C88.702 294.519 88.6145 294.33 88.5831 294.128C88.5518 293.925 88.5782 293.717 88.6588 293.53C88.7395 293.343 88.8708 293.186 89.0362 293.078C89.2016 292.97 89.3935 292.916 89.5877 292.924C89.8467 292.934 90.0915 293.052 90.2684 293.252C90.4454 293.452 90.5403 293.718 90.5324 293.992Z" fill="#263238"/>
<path d="M183.76 41.9225C185.216 41.6431 186.567 40.9312 187.655 39.8701C188.743 38.809 189.523 37.4425 189.904 35.9303C189.898 35.7654 189.928 35.6014 189.992 35.4506C190.055 35.2998 190.149 35.1661 190.269 35.0596C190.388 34.9531 190.528 34.8764 190.679 34.8355C190.83 34.7945 190.988 34.7903 191.141 34.8232C191.923 34.8035 192.692 34.6163 193.404 34.273C194.115 33.9297 194.753 33.4373 195.279 32.8258C195.797 32.2003 196.15 31.4422 196.304 30.6272C196.459 29.8121 196.408 28.9685 196.157 28.1806C198.545 28.4825 200.756 26.0284 200.764 23.4813C200.771 20.9342 198.926 18.6426 196.663 17.7909C197.271 17.3517 197.73 16.7172 197.972 15.9811C198.213 15.245 198.224 14.4464 198.003 13.7032C197.522 12.2232 196.593 10.9524 195.359 10.0877C193.785 8.84128 191.595 7.9587 189.874 8.98838C190.321 7.79612 189.603 6.44903 188.681 5.62838C187.406 4.56274 185.804 4.03259 184.182 4.13976C182.56 4.24693 181.032 4.98387 179.893 6.20903C179.386 5.00292 178.536 3.99364 177.462 3.32129C176.918 3.00153 176.289 2.88057 175.673 2.97715C175.058 3.07375 174.489 3.38249 174.057 3.85548C174.057 2.55484 173.09 1.53291 172.05 0.820648C171.32 0.288493 170.455 0.002403 169.568 0C169.124 0.0138892 168.696 0.169221 168.338 0.445578C167.979 0.721934 167.709 1.10638 167.561 1.54839C166.969 0.890505 166.166 0.489286 165.31 0.42292C164.453 0.356554 163.604 0.629797 162.927 1.1894C162.251 1.749 161.796 2.55486 161.65 3.44992C161.505 4.34497 161.681 5.2651 162.142 6.03096C161.388 6.06594 160.654 6.30601 160.013 6.728C159.372 7.14999 158.844 7.73964 158.481 8.44002C158.118 9.14041 157.932 9.92788 157.941 10.7264C157.95 11.5249 158.154 12.3075 158.532 12.9987C157.844 12.7122 157.067 13.4864 157.067 14.2684C157.103 14.6603 157.226 15.0378 157.426 15.3701C157.625 15.7024 157.897 15.9801 158.217 16.1806C156.826 18.4671 155.429 20.7484 154.028 23.0245C153.056 24.4393 152.3 26.0068 151.787 27.6696C151.539 28.5065 151.479 29.3933 151.612 30.259C151.746 31.1248 152.069 31.9455 152.556 32.6554" fill="#263238"/>
<path d="M187.756 35.3263C190.861 29.6205 188.73 20.2527 183.238 17.2257L164.469 8.91083L162.682 11.8915L139.373 50.2837L152.232 70.5675L161.95 58.0101C161.95 58.0101 169.273 61.4708 176.339 53.2953C179.862 49.254 184.314 41.6592 187.756 35.3263Z" fill="#FFBE9D"/>
<path d="M181.955 40.2968C181.768 40.6043 181.475 40.822 181.138 40.9031C180.801 40.9842 180.447 40.9222 180.153 40.7304C180.006 40.6436 179.876 40.5263 179.771 40.3857C179.667 40.245 179.591 40.0837 179.546 39.9113C179.502 39.7389 179.491 39.5588 179.513 39.3817C179.536 39.2046 179.591 39.034 179.677 38.8801C179.864 38.5729 180.157 38.3549 180.493 38.2724C180.83 38.19 181.183 38.2497 181.479 38.4388C181.627 38.5264 181.757 38.6443 181.861 38.7857C181.965 38.927 182.042 39.089 182.086 39.262C182.13 39.4351 182.142 39.6157 182.119 39.7934C182.096 39.9711 182.041 40.1423 181.955 40.2968Z" fill="#263238"/>
<path d="M183.814 38.1289C183.58 38.1831 183.155 36.9444 181.969 36.116C180.782 35.2876 179.516 35.3418 179.486 35.0631C179.486 34.947 179.772 34.7689 180.336 34.7457C181.085 34.7291 181.821 34.9561 182.445 35.396C183.063 35.828 183.535 36.4572 183.792 37.1921C183.968 37.7418 183.924 38.1057 183.814 38.1289Z" fill="#263238"/>
<path d="M170.865 33.4611C170.679 33.7683 170.386 33.9863 170.049 34.0687C169.713 34.1511 169.359 34.0914 169.064 33.9024C168.916 33.8148 168.786 33.6968 168.682 33.5555C168.577 33.4141 168.501 33.2522 168.456 33.0791C168.412 32.9061 168.401 32.7254 168.423 32.5477C168.446 32.37 168.502 32.1989 168.588 32.0443C168.776 31.7384 169.069 31.522 169.405 31.441C169.742 31.3601 170.095 31.421 170.389 31.6108C170.537 31.6976 170.667 31.8148 170.771 31.9555C170.875 32.0961 170.952 32.2574 170.996 32.4299C171.041 32.6023 171.052 32.7823 171.029 32.9594C171.007 33.1365 170.951 33.3071 170.865 33.4611Z" fill="#263238"/>
<path d="M171.859 30.4797C171.625 30.5417 171.2 29.2952 170.014 28.4668C168.827 27.6385 167.568 27.6927 167.531 27.4139C167.531 27.3056 167.824 27.1275 168.388 27.0965C169.137 27.0767 169.872 27.3069 170.49 27.7546C171.117 28.1756 171.597 28.8005 171.859 29.5352C172.028 30.1004 171.976 30.4565 171.859 30.4797Z" fill="#263238"/>
<path d="M170.463 42.5493C171.216 42.782 171.939 43.1123 172.616 43.5326C172.938 43.7106 173.268 43.85 173.458 43.6642C173.69 43.3501 173.828 42.97 173.853 42.5726C174.051 41.5893 174.264 40.5674 174.491 39.4758C175.428 35.1171 176.329 31.6177 176.49 31.6564C176.651 31.6952 176.028 35.2642 175.084 39.6229C174.849 40.699 174.622 41.7209 174.403 42.7197C174.349 43.2413 174.123 43.7263 173.766 44.09C173.651 44.1731 173.521 44.2274 173.384 44.2489C173.247 44.2704 173.107 44.2584 172.975 44.2139C172.778 44.1399 172.589 44.0439 172.411 43.9274C171.706 43.5625 171.051 43.099 170.463 42.5493Z" fill="#263238"/>
<path d="M161.948 58.0335C157.857 55.2588 154.578 51.334 152.479 46.6993C152.479 46.6993 151.124 55.0451 160.256 60.2167L161.948 58.0335Z" fill="#EB996E"/>
<path d="M166.43 40.9781C166.628 41.102 165.771 42.4646 166.269 44.2142C166.767 45.9639 168.225 46.7691 168.115 46.9626C168.005 47.1562 167.646 47.0168 167.053 46.622C166.29 46.1078 165.727 45.3225 165.464 44.4078C165.208 43.526 165.287 42.5738 165.683 41.7523C166.006 41.1484 166.343 40.9084 166.43 40.9781Z" fill="#263238"/>
<path d="M175.049 26.2298C174.712 26.4931 173.636 25.5021 172.12 24.6815C170.604 23.8608 169.235 23.4969 169.242 23.0557C169.242 22.8544 169.652 22.6686 170.311 22.6531C171.168 22.6721 172.01 22.8983 172.772 23.3143C173.533 23.7303 174.195 24.3251 174.705 25.0531C175.108 25.6647 175.203 26.106 175.049 26.2298Z" fill="#263238"/>
<path d="M185.659 34.1804C185.271 34.3198 184.641 33.4062 183.667 32.7404C182.693 32.0746 181.734 31.6643 181.727 31.1921C181.727 30.9908 182.041 30.7895 182.576 30.774C183.267 30.7956 183.937 31.0327 184.501 31.4556C185.066 31.8785 185.499 32.4682 185.747 33.1508C185.908 33.7237 185.835 34.103 185.659 34.1804Z" fill="#263238"/>
<path d="M190.797 22.3203C190.558 23.3522 190.03 24.2839 189.282 24.9944C188.535 25.7048 187.602 26.1611 186.606 26.3039C185.61 26.4467 184.597 26.2694 183.697 25.795C182.798 25.3207 182.054 24.5713 181.563 23.6442C181.622 24.1431 181.505 24.6474 181.235 25.0613C180.965 25.4752 180.561 25.7698 180.099 25.8893C179.159 26.0865 178.184 25.8863 177.382 25.3319C176.521 24.7966 175.778 24.0714 175.206 23.2057C174.634 22.34 174.244 21.3542 174.064 20.3151C173.537 20.9516 172.876 21.4499 172.136 21.7709C171.395 22.092 170.594 22.227 169.795 22.1655C168.999 22.0891 168.231 21.8169 167.552 21.3706C166.873 20.9243 166.302 20.3163 165.885 19.5952C166.081 20.5965 165.987 21.6371 165.616 22.5816C165.246 23.5261 164.614 24.3306 163.805 24.8906C162.984 25.4389 162.022 25.701 161.053 25.6399C160.084 25.5788 159.157 25.1977 158.404 24.5503C157.651 23.9028 157.109 23.0218 156.855 22.0313C156.601 21.0409 156.647 19.9911 156.987 19.03C156.547 18.3211 156.267 17.5145 156.168 16.6728C156.07 15.831 156.156 14.9767 156.42 14.1758C156.684 13.3749 157.119 12.649 157.691 12.0543C158.263 11.4596 158.957 11.012 159.719 10.7461C159.399 10.2772 159.203 9.72743 159.149 9.15241C159.095 8.57738 159.185 7.99748 159.411 7.4713C159.862 6.41339 160.57 5.50008 161.462 4.82356C162.485 3.92306 163.669 3.24818 164.943 2.83867C166.217 2.42915 167.555 2.29328 168.88 2.43905C171.516 2.84937 173.969 4.93195 174.482 7.70356C174.505 8.02157 174.62 8.3244 174.811 8.57065C174.984 8.6907 175.181 8.7647 175.386 8.78627C175.592 8.80785 175.799 8.77637 175.99 8.69452C177.763 8.25324 179.652 7.75775 181.38 8.35388C182.421 8.7478 183.306 9.50196 183.891 10.4941C184.476 11.4862 184.726 12.658 184.602 13.8197C186.799 12.6661 189.728 13.0455 191.317 14.981C192.907 16.9164 192.577 20.4468 190.446 21.7319" fill="#263238"/>
<path d="M160.146 23.783C158.901 25.574 157.422 27.1693 155.752 28.521C155.02 29.0939 154.141 29.6436 153.307 29.2952C152.943 29.1042 152.647 28.7953 152.461 28.4137C152.275 28.0321 152.21 27.5977 152.274 27.1739C152.421 26.3251 152.763 25.5275 153.27 24.8513C154.954 22.3699 156.791 20.0087 158.77 17.783" fill="#263238"/>
<path d="M157.348 23.907C157.275 23.7831 154.016 19.2618 151.029 23.907C148.041 28.5521 153.013 30.7276 153.108 30.6037C153.204 30.4798 157.348 23.907 157.348 23.907Z" fill="#FFBE9D"/>
<path d="M152.914 27.8552C152.914 27.8552 152.804 27.8552 152.636 27.8552C152.404 27.8072 152.199 27.6655 152.064 27.4604C151.907 27.0664 151.85 26.6352 151.902 26.2108C151.953 25.7864 152.111 25.384 152.357 25.0449C152.599 24.6425 152.925 24.3037 153.309 24.054C153.444 23.9397 153.603 23.8617 153.773 23.8266C153.943 23.7916 154.118 23.8005 154.283 23.8527C154.386 23.8911 154.472 23.9666 154.527 24.0657C154.582 24.1649 154.602 24.2814 154.584 24.3946C154.584 24.5649 154.474 24.6346 154.488 24.6578C154.503 24.6811 154.635 24.6578 154.723 24.4333C154.765 24.3001 154.765 24.1562 154.723 24.023C154.695 23.9323 154.65 23.8485 154.591 23.7767C154.532 23.7048 154.46 23.6464 154.378 23.6049C154.177 23.51 153.955 23.4728 153.735 23.4973C153.515 23.5218 153.305 23.6069 153.126 23.7443C152.684 24.0082 152.309 24.3831 152.035 24.8359C151.457 25.7882 151.339 26.9804 151.845 27.6307C151.939 27.7491 152.057 27.8444 152.19 27.9099C152.322 27.9754 152.467 28.0096 152.614 28.0101C152.826 27.9869 152.929 27.8785 152.914 27.8552Z" fill="#EB996E"/>
<path d="M174.422 19.2391C174.422 19.2391 174.458 19.2933 174.532 19.3707C174.605 19.4481 174.737 19.572 174.898 19.7191C175.371 20.1511 175.895 20.5155 176.458 20.8029C176.86 21.0118 177.286 21.1653 177.725 21.2597C178.287 21.3849 178.869 21.3726 179.426 21.2236C179.983 21.0747 180.501 20.7931 180.939 20.4004C181.468 19.9247 181.815 19.2612 181.913 18.5346H181.694C182.234 20.0185 183.216 21.2765 184.491 22.1191C185.181 22.5812 185.946 22.9065 186.746 23.0791C187.167 23.1737 187.599 23.2023 188.028 23.1642C188.477 23.1129 188.905 22.9336 189.266 22.6455C189.668 22.2991 189.993 21.8629 190.218 21.3681C190.434 20.9006 190.618 20.4167 190.767 19.9204C190.931 19.4372 191.027 18.9312 191.052 18.4184C191.07 18.1601 191.033 17.9008 190.946 17.6588C190.859 17.4168 190.723 17.1978 190.547 17.0171L190.357 17.2029C190.953 17.9566 191.77 18.4795 192.678 18.6894C193.499 18.8886 194.356 18.8431 195.153 18.5578C195.863 18.2966 196.483 17.8166 196.933 17.1797C197.314 16.6376 197.579 16.0141 197.709 15.3526C197.903 14.4208 197.813 13.4481 197.453 12.5733C197.329 12.2602 197.158 11.9701 196.947 11.7139C196.947 11.7139 197.145 12.0081 197.379 12.6042C197.694 13.4711 197.755 14.4176 197.555 15.3217C197.43 15.9504 197.181 16.5441 196.823 17.0636C196.384 17.6557 195.791 18.0996 195.117 18.341C194.357 18.6042 193.543 18.639 192.766 18.4417C191.904 18.247 191.13 17.7505 190.569 17.0326L190.386 17.2184C190.531 17.3762 190.643 17.5648 190.713 17.7717C190.784 17.9786 190.812 18.1991 190.796 18.4184C190.772 18.9022 190.681 19.3797 190.525 19.8352C190.297 20.8222 189.807 21.7195 189.112 22.421C188.777 22.6568 188.399 22.8135 188.002 22.8803C187.605 22.9471 187.199 22.9225 186.812 22.8081C186.034 22.6435 185.289 22.3314 184.615 21.8868C183.385 21.0785 182.432 19.8734 181.899 18.4494L181.73 17.9849L181.679 18.4804C181.59 19.1477 181.275 19.7583 180.793 20.1991C180.354 20.6033 179.829 20.8877 179.262 21.0275C178.762 21.1353 178.247 21.1353 177.747 21.0275C177.319 20.9455 176.904 20.8077 176.509 20.6171C175.95 20.3427 175.422 20.0025 174.934 19.6029C174.605 19.3862 174.429 19.2313 174.422 19.2391Z" fill="white"/>
<path d="M189.256 26.7024C189.256 26.7024 189.3 26.8418 189.454 27.0508C189.68 27.3454 189.958 27.5901 190.274 27.7708C190.748 28.0594 191.296 28.1864 191.841 28.1347C192.183 28.0994 192.498 27.9244 192.72 27.647C192.844 27.4918 192.924 27.3017 192.949 27.0997C192.973 26.8977 192.942 26.6925 192.859 26.5089L192.639 26.6715L192.698 26.7489C193.095 27.2334 193.589 27.6197 194.143 27.8805C194.697 28.1414 195.299 28.2704 195.905 28.2586C196.271 28.2589 196.635 28.1961 196.982 28.0728C197.223 27.9876 197.348 27.9102 197.34 27.8947C196.858 27.999 196.368 28.0561 195.876 28.065C195.303 28.0477 194.74 27.9053 194.222 27.6468C193.704 27.3883 193.243 27.0194 192.866 26.5631L192.808 26.4934L191.958 25.456L192.588 26.6482C192.646 26.7829 192.667 26.9326 192.648 27.0795C192.628 27.2263 192.569 27.3642 192.478 27.4766C192.293 27.707 192.03 27.8516 191.746 27.8792C191.242 27.9365 190.734 27.8398 190.281 27.6005C189.9 27.3559 189.554 27.0533 189.256 26.7024Z" fill="white"/>
<path d="M179.08 34.5601C179.08 34.6065 179.476 34.5601 180.091 34.5601C180.887 34.6115 181.661 34.8551 182.353 35.2724C183.039 35.7038 183.619 36.3007 184.045 37.0143C184.382 37.564 184.506 37.9511 184.55 37.9356C184.516 37.5716 184.4 37.2215 184.213 36.9136C183.809 36.1332 183.212 35.4834 182.486 35.0335C181.76 34.5835 180.932 34.3504 180.091 34.3588C179.743 34.3404 179.397 34.4094 179.08 34.5601Z" fill="#EB996E"/>
<path d="M167.469 26.3771C167.739 26.3937 168.011 26.3937 168.282 26.3771C168.921 26.4188 169.543 26.6176 170.098 26.9577C170.651 27.3018 171.122 27.776 171.474 28.3436C171.753 28.7771 171.863 29.1177 171.899 29.1177C171.886 28.8187 171.795 28.5293 171.636 28.2816C171.316 27.6367 170.831 27.1001 170.237 26.7332C169.643 26.372 168.967 26.1874 168.282 26.199C168 26.1801 167.72 26.2416 167.469 26.3771Z" fill="#EB996E"/>
<path d="M165.084 40.7148C165.084 40.7148 165.216 40.7148 165.392 40.6528C165.616 40.5963 165.849 40.5963 166.073 40.6528C166.607 40.8154 167.025 41.1096 167.069 41.0245C167.113 40.9393 166.768 40.5832 166.146 40.3819C165.875 40.2981 165.585 40.3173 165.326 40.4361C165.128 40.5599 165.062 40.6916 165.084 40.7148Z" fill="#EB996E"/>
<path d="M163.807 40.8073C163.865 40.8615 164.173 40.575 164.598 40.2963C165.022 40.0176 165.388 39.8318 165.33 39.7544C165.271 39.677 164.868 39.7544 164.414 40.0563C163.96 40.3583 163.807 40.7609 163.807 40.8073Z" fill="#EB996E"/>
<path d="M72.474 120.348C59.1608 131.264 57.1397 148.598 56.2243 158.539C55.3089 168.48 48.0445 208.219 48.0445 208.219C48.0445 208.219 32.8347 233.187 27.3718 243.77C21.9088 254.353 11.0195 276.449 11.0195 276.449L29.2464 288.356C29.2464 288.356 61.9875 241.238 67.7507 231.94C73.5139 222.642 102.901 144.364 102.901 144.364L72.474 120.348Z" fill="#263238"/>
<path d="M115.798 146.105C116.713 147.963 140.886 211.013 140.257 217.331C139.627 223.648 109.5 288.371 109.5 288.371L87.209 278.376L110.123 224.632L110.752 217.246L89.4059 174.51L96.3115 142.985L115.798 146.105Z" fill="#263238"/>
<path d="M99.9194 154.382C100.022 154.429 97.4955 160.769 94.288 168.55C91.0806 176.33 88.4296 182.594 88.3052 182.547C88.1807 182.501 90.7291 176.168 93.9365 168.387C97.144 160.607 99.8242 154.336 99.9194 154.382Z" fill="#455A64"/>
<path d="M119.092 219.406C117.716 219.822 116.257 219.822 114.881 219.406C113.476 219.116 112.173 218.423 111.117 217.401C112.351 218.065 113.64 218.607 114.969 219.019C116.329 219.28 117.709 219.41 119.092 219.406Z" fill="#455A64"/>
<path d="M118.136 225.607C118.136 225.716 116.488 225.089 114.423 224.701C112.358 224.314 110.645 224.299 110.645 224.175C111.922 223.954 113.228 223.999 114.489 224.307C115.774 224.482 117.013 224.924 118.136 225.607Z" fill="#455A64"/>
<path d="M78.3543 132.162C78.3543 132.162 78.2152 132.324 77.9223 132.564C77.6293 132.804 77.19 133.122 76.6188 133.493C73.6291 135.372 70.2445 136.437 66.7694 136.59C66.2475 136.624 65.7241 136.624 65.2022 136.59C64.8288 136.59 64.6237 136.536 64.631 136.505C64.6384 136.474 65.4439 136.443 66.7547 136.327C68.4541 136.163 70.1342 135.823 71.771 135.313C73.4041 134.791 74.9839 134.099 76.487 133.246C77.0903 132.849 77.7136 132.487 78.3543 132.162Z" fill="#455A64"/>
<path d="M156.592 67.8892L176.093 94.5059L216.999 112.219L212.642 121.448L160.356 102.573L143.234 65.4659L156.592 67.8892Z" fill="#455A64"/>
<g opacity="0.2">
<path d="M156.592 67.8892L176.093 94.506L216.999 112.219L212.642 121.448L160.356 102.573L143.234 65.466L156.592 67.8892Z" fill="black"/>
</g>
<path d="M137.615 52.1263C137.201 51.7034 136.961 51.1259 136.946 50.5179C136.931 49.9099 137.142 49.3199 137.534 48.8747L140.2 45.7237C140.369 45.4826 140.622 45.3215 140.902 45.2752C141.183 45.2289 141.47 45.301 141.701 45.476C145.414 48.3173 159.466 59.5973 159.437 62.8334C159.437 66.4876 153.447 70.1727 153.447 70.1727L137.615 52.1263Z" fill="#455A64"/>
<path d="M128.314 71.8221C128.314 71.8221 154.435 109.974 161.268 114.403C168.1 118.831 210.844 125.017 210.844 125.017L212.47 111.6L171.227 97.6646C171.227 97.6646 144.315 55.7343 143.627 54.5266C142.938 53.3189 137.629 48.7898 131.771 49.5795C125.912 50.3692 122.939 60.1472 124.96 64.9859C125.729 66.7975 128.314 71.8221 128.314 71.8221Z" fill="#455A64"/>
<path d="M137.782 49.5947C137.782 49.5947 130.269 46.1805 123.056 53.2875C119.197 57.1043 83.8778 109.424 81.3806 112.9L71.2383 120.309C88.213 136.831 101.365 150.65 119.467 155.45L128.899 123.112L157.877 95.241L137.782 49.5947Z" fill="#455A64"/>
<path d="M125.496 67.8892C125.596 67.9976 125.684 68.117 125.76 68.2454C125.935 68.5241 126.162 68.8802 126.448 69.306C127.034 70.2428 127.913 71.5744 128.989 73.177C131.186 76.4518 134.313 80.8647 137.967 85.6027C141.621 90.3408 145.048 94.5215 147.487 97.5563C148.695 99.0505 149.684 100.266 150.416 101.164L151.2 102.155C151.376 102.38 151.463 102.511 151.449 102.519C151.337 102.427 151.233 102.323 151.141 102.209L150.306 101.265L147.297 97.7421C144.778 94.7537 141.321 90.5963 137.66 85.8505C133.998 81.1047 130.878 76.6608 128.755 73.3395C127.686 71.675 126.851 70.3124 126.309 69.3524C126.053 68.9034 125.84 68.5783 125.679 68.2454C125.606 68.1342 125.544 68.0148 125.496 67.8892Z" fill="#263238"/>
<path d="M212.467 111.6L212.262 111.546L211.661 111.345L209.354 110.57L200.728 107.536L171.165 97.0143H171.107L171.07 96.9523C168.397 92.7872 165.534 88.3124 162.583 83.6982L149.789 63.6775L144.217 54.9369C143.812 54.2585 143.372 53.6045 142.898 52.9782C142.653 52.6972 142.386 52.4382 142.1 52.204C141.815 51.964 141.566 51.6853 141.265 51.4763C140.115 50.6696 138.82 50.1205 137.461 49.8629C136.103 49.6052 134.708 49.6444 133.364 49.9781C132.02 50.3117 130.755 50.9327 129.647 51.8028C128.538 52.673 127.61 53.7738 126.92 55.0376C126.624 55.649 126.379 56.2862 126.187 56.9421C126.03 57.4197 125.917 57.9123 125.85 58.413C125.755 59.1021 125.711 59.4427 125.682 59.6595C125.678 59.2392 125.71 58.8194 125.777 58.4053C125.826 57.8939 125.929 57.3901 126.085 56.9034C126.266 56.2311 126.511 55.58 126.817 54.9601C127.719 53.2767 129.025 51.8747 130.603 50.8956C132.712 49.5992 135.18 49.1124 137.589 49.5176C138.976 49.8014 140.295 50.3809 141.463 51.2208C141.763 51.4631 142.052 51.7215 142.327 51.995C142.626 52.2418 142.903 52.5165 143.155 52.8156C143.641 53.4512 144.094 54.1155 144.509 54.8053L150.112 63.5304L162.927 83.5278L171.407 96.7898L171.312 96.7201L200.838 107.373L209.42 110.508L211.712 111.368L212.306 111.6C212.408 111.6 212.474 111.6 212.467 111.6Z" fill="#263238"/>
<path d="M143.23 94.5055C143.126 94.6982 142.998 94.8753 142.849 95.032C142.586 95.3571 142.183 95.8062 141.663 96.3171C138.905 99.0286 135.577 101.008 131.953 102.093C131.406 102.262 130.851 102.399 130.29 102.503C130.087 102.557 129.878 102.581 129.668 102.573C129.668 102.503 130.517 102.294 131.865 101.798C135.389 100.583 138.655 98.6527 141.48 96.1158C142.571 95.1249 143.179 94.4591 143.23 94.5055Z" fill="#263238"/>
<path d="M126.398 117.569C125.979 117.668 125.553 117.73 125.124 117.755C124.304 117.855 123.11 117.933 121.631 117.987C113.905 118.218 106.206 116.923 98.9294 114.17C97.5381 113.636 96.425 113.172 95.6707 112.808C95.2724 112.641 94.8858 112.444 94.5137 112.219C94.9306 112.327 95.3375 112.475 95.7293 112.661C96.4616 112.978 97.6186 113.435 99.0173 113.899C106.301 116.484 113.941 117.769 121.623 117.701C123.088 117.701 124.282 117.646 125.109 117.6C125.537 117.557 125.968 117.547 126.398 117.569Z" fill="#263238"/>
<path d="M127.404 112.885C126.747 113.153 126.061 113.332 125.361 113.419C122 114.007 118.561 113.862 115.256 112.993C114.566 112.849 113.897 112.612 113.264 112.289C113.957 112.39 114.644 112.532 115.321 112.715C116.963 113.063 118.628 113.275 120.301 113.35C121.978 113.413 123.658 113.341 125.325 113.133C126.013 113.009 126.707 112.926 127.404 112.885Z" fill="#263238"/>
<g opacity="0.2">
<path d="M130.043 75.042L141.76 96.0458C141.76 96.0458 135.169 101.016 132.438 101.79C136.144 100.675 139.759 99.2434 143.246 97.5091L149.42 100.466L130.043 75.042Z" fill="black"/>
</g>
<g opacity="0.2">
<path d="M122.953 117.708C118.854 119.958 114.192 120.8 109.618 120.116C105.199 119.53 101.102 117.367 98.0039 113.985C98.0039 113.985 107.568 116.733 111.237 117.166C114.905 117.6 122.953 117.708 122.953 117.708Z" fill="black"/>
</g>
<path d="M84.0341 122.439C82.7537 122.857 81.5246 123.434 80.3726 124.158C79.3884 124.852 78.5094 125.701 77.7656 126.674L77.6191 126.558C77.8388 126.302 77.9633 126.17 77.9926 126.194C78.0219 126.217 77.9413 126.379 77.7656 126.674L77.6191 126.565C78.2598 125.459 79.1284 124.519 80.1602 123.817C81.291 122.956 82.6411 122.476 84.0341 122.439Z" fill="#263238"/>
<path d="M93.6858 130.715C92.3595 133.051 90.4352 134.943 88.135 136.173C88.0691 136.072 89.4898 135.066 91.0129 133.556C92.5361 132.046 93.5906 130.637 93.6858 130.715Z" fill="#263238"/>
<path d="M103.877 139.78C103.365 141.092 102.619 142.288 101.681 143.303C100.848 144.405 99.8267 145.332 98.6708 146.036C98.5975 145.935 99.9743 144.758 101.395 143.032C102.816 141.305 103.76 139.718 103.877 139.78Z" fill="#263238"/>
<path d="M114.585 144.309C114.393 147.099 113.263 149.724 111.4 151.71C111.312 151.633 112.403 150.162 113.274 148.141C114.146 146.121 114.468 144.286 114.585 144.309Z" fill="#263238"/>
<path d="M140.377 50.6319C140.377 50.6319 140.414 50.3067 140.655 49.8577C140.977 49.2786 141.42 48.7857 141.951 48.4177C142.484 48.0615 143.067 47.8 143.68 47.6435C144.148 47.5274 144.412 47.5041 144.449 47.5583C144.485 47.6125 143.335 47.9764 142.164 48.7429C140.992 49.5093 140.458 50.7016 140.377 50.6319Z" fill="#263238"/>
<path d="M145.455 55.9507C145.732 55.0229 146.278 54.2105 147.015 53.6281C147.663 52.9469 148.499 52.4998 149.402 52.3507C149.446 52.4591 148.34 52.9391 147.264 53.8991C146.187 54.8591 145.558 56.0049 145.455 55.9507Z" fill="#263238"/>
<path d="M155.525 58.1803C155.053 59.4165 154.322 60.5231 153.386 61.4164C152.54 62.4019 151.49 63.1676 150.318 63.6538C150.26 63.5454 151.688 62.6474 153.123 61.1299C154.558 59.6125 155.422 58.1261 155.525 58.1803Z" fill="#263238"/>
<path d="M211.917 112.204L217.834 103.626L222.228 102.612L231.696 100.576C231.696 100.576 232.795 101.265 231.462 103.022L230.693 103.68L234.354 103.58C234.382 104.18 234.236 104.776 233.937 105.287C233.637 105.799 233.198 106.202 232.677 106.444L226.497 108.341L224.168 109.115C224.168 109.115 229.038 109.471 230.759 108.829C231.788 108.441 232.874 108.253 233.966 108.271C233.966 108.271 234.984 109.363 233.725 110.795C232.465 112.227 228.76 112.653 227.866 112.885C226.537 113.06 225.2 113.148 223.861 113.149C224.88 113.754 226.039 114.049 227.207 114C229.316 114 231.491 114.047 231.491 114.047C231.491 114.047 231.594 116.168 230.312 116.578C229.031 116.989 223.348 116.88 223.348 116.88L221.774 117.794C221.774 117.794 217.592 122.439 216.12 123.12C214.648 123.802 210.818 124.986 210.818 124.986L211.917 112.204Z" fill="#FFBE9D"/>
<path d="M231.179 103.796C230.738 104.099 230.257 104.331 229.751 104.485C228.564 104.937 227.338 105.267 226.09 105.468C224.845 105.674 223.585 105.757 222.326 105.716C221.802 105.738 221.278 105.672 220.773 105.522C220.773 105.398 223.153 105.522 226.031 105.073C228.909 104.624 231.128 103.68 231.179 103.796Z" fill="#EB996E"/>
<path d="M307.2 269.071C307.2 269.071 291.617 250.111 285.729 231.135C279.841 212.16 282.646 214.351 282.646 214.351C282.646 214.351 290.584 232.769 296.611 241.672C302.638 250.575 313.373 263.621 313.373 263.621L307.2 269.071Z" fill="#455A64"/>
<path d="M310.308 217.316C310.204 217.119 310.039 216.967 309.84 216.886C309.641 216.805 309.421 216.8 309.22 216.873C309.018 216.946 308.847 217.092 308.737 217.285C308.626 217.477 308.584 217.705 308.616 217.928C309.568 224.586 311.618 240.217 311.545 250.351C311.443 263.512 311.545 268.614 311.545 268.614H318.026C318.026 268.614 316.862 241.386 315.397 233.086C314.387 227.265 312.204 220.808 310.308 217.316Z" fill="#455A64"/>
<path d="M313.842 266.439C316.559 259.926 318.358 253.027 319.18 245.961C319.715 241.115 318.756 234.565 317.342 225.832C316.793 222.626 316.518 219.375 316.522 216.116C316.511 215.744 316.622 215.378 316.834 215.081C317.047 214.784 317.35 214.573 317.692 214.482C318.034 214.392 318.395 214.428 318.715 214.584C319.035 214.741 319.295 215.008 319.451 215.342C320.235 216.821 322.498 221.861 323.069 225.027C324.643 233.66 326.423 237.972 325.061 246.163C323.699 254.354 318.675 266.965 318.675 266.965L313.842 266.439Z" fill="#455A64"/>
<path d="M319.677 266.95C319.677 266.95 336.791 228.078 337.985 222.31C339.178 216.542 343.199 203.257 343.675 204.008C344.151 204.759 344.861 211.75 341.778 219.802C338.695 227.853 325.528 268.135 325.528 268.135H319.67" fill="#455A64"/>
<path d="M311.965 265.215C311.795 265.113 311.633 264.997 311.481 264.867C311.181 264.619 310.749 264.278 310.156 263.798C309.021 262.846 307.417 261.414 305.557 259.502C300.74 254.487 296.567 248.826 293.145 242.663C289.736 236.497 286.899 229.997 284.672 223.254C283.815 220.676 283.207 218.562 282.775 217.06C282.57 216.325 282.424 215.752 282.321 215.365C282.262 215.17 282.218 214.971 282.189 214.769C282.274 214.953 282.343 215.144 282.394 215.342C282.519 215.76 282.695 216.317 282.914 217.014C283.361 218.469 284.028 220.567 284.914 223.13C287.202 229.827 290.063 236.29 293.46 242.438C296.869 248.576 300.995 254.236 305.74 259.285C307.571 261.213 309.138 262.676 310.251 263.659C310.793 264.155 311.24 264.518 311.525 264.782C311.685 264.911 311.832 265.056 311.965 265.215Z" fill="#263238"/>
<path d="M313.834 246.565C313.757 246.191 313.705 245.81 313.68 245.427C313.599 244.653 313.497 243.569 313.365 242.331C313.094 239.698 312.677 236.075 312.069 232.088C311.461 228.101 310.787 224.516 310.267 221.931C310.011 220.692 309.806 219.662 309.645 218.834C309.547 218.462 309.481 218.081 309.447 217.696C309.589 218.051 309.7 218.419 309.777 218.795C309.975 219.507 310.223 220.545 310.509 221.838C311.095 224.408 311.813 227.993 312.42 231.987C313.028 235.982 313.409 239.629 313.614 242.269C313.724 243.585 313.79 244.653 313.819 245.365C313.862 245.764 313.867 246.166 313.834 246.565Z" fill="#263238"/>
<path d="M317.847 215.025C317.927 215.181 317.993 215.344 318.045 215.513L318.558 216.96C318.785 217.587 319.048 218.362 319.29 219.283C319.532 220.204 319.869 221.226 320.117 222.38C320.257 222.96 320.396 223.572 320.542 224.207C320.689 224.842 320.791 225.515 320.916 226.204C321.201 227.59 321.37 229.084 321.582 230.656C321.946 234.079 322.081 237.525 321.985 240.968C321.848 244.406 321.478 247.829 320.879 251.211C320.571 252.759 320.293 254.245 319.92 255.6C319.744 256.282 319.598 256.94 319.414 257.567L318.865 259.355C318.536 260.509 318.133 261.507 317.825 262.398C317.518 263.288 317.203 264.047 316.932 264.651L316.324 266.052C316.264 266.221 316.185 266.382 316.09 266.532C316.134 266.358 316.191 266.187 316.258 266.021L316.807 264.596C317.049 263.977 317.342 263.218 317.635 262.32C317.928 261.422 318.309 260.424 318.616 259.27L319.144 257.482C319.319 256.862 319.458 256.196 319.627 255.515C319.986 254.168 320.249 252.689 320.55 251.149C321.742 244.408 321.976 237.516 321.245 230.702C321.047 229.154 320.886 227.652 320.623 226.274C320.498 225.585 320.403 224.911 320.264 224.277C320.125 223.642 319.993 223.038 319.868 222.449C319.634 221.28 319.327 220.251 319.092 219.353C318.858 218.455 318.624 217.657 318.419 217.03C318.214 216.403 318.082 215.938 317.972 215.567C317.91 215.392 317.868 215.21 317.847 215.025Z" fill="#263238"/>
<path d="M343.472 204.79C343.483 204.846 343.483 204.904 343.472 204.96L343.391 205.471C343.318 205.912 343.223 206.57 343.055 207.399C342.725 209.071 342.176 211.479 341.319 214.366C340.462 217.254 339.298 220.715 337.914 224.477C336.53 228.24 334.926 232.343 333.41 236.702C331.894 241.061 330.679 245.319 329.558 249.174C328.438 253.03 327.405 256.506 326.388 259.37C325.605 261.636 324.703 263.854 323.685 266.013C323.341 266.787 323.019 267.36 322.821 267.755L322.58 268.196C322.554 268.249 322.522 268.299 322.484 268.343C322.5 268.286 322.523 268.232 322.55 268.181C322.602 268.057 322.675 267.902 322.755 267.716C322.938 267.313 323.231 266.725 323.561 265.951C324.249 264.402 325.179 262.142 326.146 259.27C327.113 256.397 328.152 252.937 329.236 249.073C330.32 245.21 331.521 240.944 333.066 236.57C334.611 232.196 336.2 228.101 337.599 224.346C338.998 220.591 340.191 217.192 341.07 214.281C341.949 211.37 342.535 208.993 342.916 207.313C343.106 206.485 343.223 205.835 343.318 205.401C343.362 205.2 343.399 205.037 343.435 204.898C343.446 204.861 343.458 204.825 343.472 204.79Z" fill="#263238"/>
<path d="M290.72 196.204C290.487 195.953 290.181 195.793 289.851 195.751C289.521 195.708 289.187 195.785 288.904 195.97C288.621 196.155 288.406 196.436 288.294 196.767C288.183 197.097 288.18 197.459 288.289 197.791C288.877 199.79 289.597 201.743 290.442 203.636C292.792 208.916 299.705 227.884 302.935 238.297C306.164 248.71 310.726 268.134 310.726 268.134L317.639 266.95C317.639 266.95 311.319 235.03 305.146 223.533C300.181 214.289 295.223 200.934 290.72 196.204Z" fill="#455A64"/>
<path d="M304.83 244.808C304.975 245.086 305.092 245.38 305.182 245.683C305.387 246.256 305.665 247.092 305.98 248.137C306.617 250.22 307.393 253.131 308.177 256.359C308.96 259.587 309.641 262.552 310.066 264.666C310.271 265.672 310.447 266.524 310.586 267.198C310.669 267.503 310.716 267.817 310.725 268.134C310.606 267.845 310.512 267.544 310.447 267.236L309.817 264.728L307.825 256.452C307.042 253.223 306.302 250.312 305.731 248.214L305.05 245.729C304.94 245.433 304.866 245.124 304.83 244.808Z" fill="#263238"/>
<path d="M314.191 267.546C314.173 267.483 314.161 267.418 314.154 267.352C314.154 267.197 314.111 267.012 314.074 266.772C314.001 266.268 313.935 265.517 313.796 264.565C313.539 262.645 313.063 259.881 312.331 256.506C311.446 252.562 310.365 248.67 309.094 244.847C307.681 240.519 305.901 235.843 303.888 231.004C299.823 221.342 295.766 212.772 293.101 206.431C291.753 203.272 290.706 200.687 290.018 198.89C289.666 197.992 289.417 197.288 289.242 196.816C289.168 196.591 289.103 196.413 289.051 196.274C289.023 196.213 289.006 196.147 289 196.08C289.038 196.134 289.068 196.194 289.088 196.258L289.315 196.785C289.513 197.28 289.798 197.961 290.15 198.836C290.882 200.609 291.958 203.172 293.335 206.323C296.059 212.625 300.153 221.172 304.224 230.849C306.238 235.696 308.01 240.387 309.416 244.73C310.677 248.572 311.734 252.485 312.58 256.452C313.312 259.835 313.708 262.645 313.92 264.542C314.045 265.502 314.089 266.261 314.132 266.764L314.176 267.345C314.191 267.41 314.196 267.478 314.191 267.546Z" fill="#263238"/>
<path d="M317.637 266.95C317.523 266.551 317.445 266.141 317.403 265.727C317.263 264.867 317.08 263.737 316.861 262.367C316.385 259.541 315.66 255.647 314.613 251.404C313.565 247.161 312.416 243.383 311.522 240.666C311.083 239.358 310.717 238.281 310.438 237.461C310.287 237.074 310.165 236.675 310.072 236.269C310.265 236.634 310.431 237.015 310.57 237.407C310.87 238.181 311.303 239.226 311.764 240.573C313.01 244.088 314.081 247.67 314.971 251.303C315.862 254.938 316.578 258.617 317.117 262.328C317.315 263.752 317.468 264.906 317.542 265.703C317.6 266.116 317.632 266.532 317.637 266.95Z" fill="#263238"/>
<path d="M331.805 265.905H304.85V300.627H331.805V265.905Z" fill="#349F6E"/>
<g opacity="0.3">
<path d="M331.807 265.905H304.852V300.627H331.807V265.905Z" fill="black"/>
</g>
<path d="M323.212 265.905H299.295V300.627H323.212V265.905Z" fill="#349F6E"/>
</svg>
