<svg width="382" height="280" viewBox="0 0 382 280" fill="none" xmlns="http://www.w3.org/2000/svg">
<g clip-path="url(#clip0_4321_43859)">
<path d="M362.563 35.7982C376.318 85.0809 357.423 139.789 320.185 175.114C282.948 210.439 229.671 227.266 177.448 226.61C140.169 226.135 101.904 216.751 72.4169 194.19C42.9296 171.63 23.7486 134.545 29.1251 98.6271C31.1571 85.06 37.0294 71.3952 48.2992 63.3024C66.2932 50.3498 91.4862 54.9722 113.377 60.1882C135.267 65.4041 160.432 70.0894 178.489 57.2136C192.363 47.3124 197.705 29.9049 206.873 15.7164C222.465 -8.3804 251.212 -23.8048 280.587 -23.742C298.099 -23.701 315.184 -18.3362 329.575 -8.35945C343.967 1.6173 354.984 15.7343 361.166 32.1184L362.563 35.7982Z" fill="#F5F5F5"/>
<path d="M413.311 272.439C413.311 272.544 316.742 272.621 197.641 272.621C78.5396 272.621 -18.043 272.544 -18.043 272.439C-18.043 272.335 78.5047 272.258 197.641 272.258C316.777 272.258 413.311 272.321 413.311 272.439Z" fill="#263238"/>
<path d="M200.299 170.418H194.734V272.44H200.299V170.418Z" fill="#263238"/>
<path d="M157.219 272.439L196.056 235.09L198.842 237.576L162.658 272.439H157.219Z" fill="#263238"/>
<path d="M237.621 272.356L198.861 235.09L196.082 237.576L232.259 272.439L237.621 272.356Z" fill="#263238"/>
<path d="M323.618 5.02734H72.9023V187.775H323.618V5.02734Z" fill="white"/>
<path d="M323.62 187.765C323.62 186.543 323.557 115.845 323.466 5.02505L323.62 5.17169H72.9466L73.1281 4.99014C73.1281 70.5423 73.1281 132.687 73.1281 187.73L72.9605 187.57L323.676 187.73L72.9605 187.898H72.793V187.73C72.793 132.687 72.793 70.5423 72.793 4.99014V4.80859H72.9955H323.669H323.815V4.95523C323.676 115.824 323.62 186.55 323.62 187.765Z" fill="#263238"/>
<path d="M104.939 24.0985H102.844V23.5469H107.732V24.0985H105.637V29.5868H105.001L104.939 24.0985Z" fill="#263238"/>
<path d="M108.095 26.5374C108.076 25.9066 108.245 25.2843 108.581 24.7503C108.918 24.2163 109.406 23.7948 109.983 23.5398C110.56 23.2848 111.2 23.2079 111.822 23.319C112.443 23.4301 113.017 23.724 113.47 24.1632C113.923 24.6024 114.235 25.1669 114.365 25.7843C114.496 26.4018 114.439 27.0441 114.202 27.6291C113.965 28.2141 113.559 28.715 113.036 29.0679C112.513 29.4207 111.896 29.6094 111.265 29.6097C110.852 29.6278 110.44 29.5614 110.054 29.4147C109.668 29.2679 109.315 29.0439 109.019 28.7563C108.722 28.4687 108.487 28.1236 108.328 27.742C108.169 27.3605 108.09 26.9506 108.095 26.5374ZM113.793 26.5374C113.8 26.0343 113.657 25.5406 113.382 25.1191C113.108 24.6975 112.714 24.3672 112.251 24.1702C111.788 23.9732 111.277 23.9184 110.783 24.0128C110.289 24.1072 109.834 24.3465 109.476 24.7003C109.119 25.054 108.874 25.5062 108.774 25.9993C108.675 26.4923 108.724 27.004 108.915 27.469C109.107 27.9341 109.433 28.3316 109.852 28.6108C110.27 28.8901 110.762 29.0385 111.265 29.0371C111.598 29.0476 111.929 28.9903 112.238 28.8688C112.548 28.7472 112.83 28.564 113.066 28.3301C113.302 28.0962 113.489 27.8167 113.614 27.5085C113.739 27.2003 113.8 26.8699 113.793 26.5374Z" fill="#263238"/>
<path d="M118.121 23.5469H120.579C122.506 23.5469 123.812 24.7898 123.812 26.5633C123.812 28.3369 122.506 29.5868 120.579 29.5868H118.121V23.5469ZM120.544 29.0352C120.879 29.053 121.215 29.0024 121.53 28.8864C121.845 28.7704 122.133 28.5915 122.376 28.3605C122.62 28.1295 122.814 27.8514 122.946 27.543C123.079 27.2346 123.147 26.9025 123.147 26.5668C123.147 26.2312 123.079 25.899 122.946 25.5906C122.814 25.2823 122.62 25.0041 122.376 24.7732C122.133 24.5422 121.845 24.3633 121.53 24.2473C121.215 24.1313 120.879 24.0807 120.544 24.0985H118.729V29.0352H120.544Z" fill="#263238"/>
<path d="M124.716 26.5374C124.697 25.9066 124.866 25.2843 125.202 24.7503C125.539 24.2163 126.027 23.7948 126.604 23.5398C127.181 23.2848 127.822 23.2079 128.443 23.319C129.064 23.4301 129.638 23.724 130.091 24.1632C130.544 24.6024 130.856 25.1669 130.987 25.7843C131.117 26.4018 131.06 27.0441 130.823 27.6291C130.587 28.2141 130.181 28.715 129.657 29.0679C129.134 29.4207 128.517 29.6094 127.886 29.6097C127.474 29.6278 127.061 29.5614 126.675 29.4147C126.289 29.2679 125.936 29.0439 125.64 28.7563C125.343 28.4687 125.108 28.1236 124.949 27.742C124.79 27.3605 124.711 26.9506 124.716 26.5374ZM130.414 26.5374C130.421 26.0343 130.278 25.5406 130.004 25.1191C129.729 24.6975 129.335 24.3672 128.872 24.1702C128.409 23.9732 127.898 23.9184 127.404 24.0128C126.91 24.1072 126.455 24.3465 126.097 24.7003C125.74 25.054 125.495 25.5062 125.395 25.9993C125.296 26.4923 125.345 27.004 125.537 27.469C125.728 27.9341 126.054 28.3316 126.473 28.6108C126.891 28.8901 127.383 29.0385 127.886 29.0371C128.219 29.0476 128.55 28.9903 128.859 28.8688C129.169 28.7472 129.451 28.564 129.687 28.3301C129.924 28.0962 130.11 27.8167 130.235 27.5085C130.36 27.2003 130.421 26.8699 130.414 26.5374Z" fill="#263238"/>
<path d="M193.444 23.5469L191.412 29.5868H190.714L188.948 24.4406L187.16 29.5868H186.497L184.465 23.5469H185.121L186.86 28.7419L188.661 23.5469H189.255L191.035 28.7628L192.802 23.5469H193.444Z" fill="#263238"/>
<path d="M194.002 26.5374C193.982 25.9066 194.151 25.2843 194.488 24.7503C194.824 24.2163 195.312 23.7948 195.889 23.5398C196.466 23.2848 197.107 23.2079 197.728 23.319C198.349 23.4301 198.923 23.724 199.376 24.1632C199.829 24.6024 200.141 25.1669 200.272 25.7843C200.402 26.4018 200.345 27.0441 200.109 27.6291C199.872 28.2141 199.466 28.715 198.943 29.0679C198.419 29.4207 197.803 29.6094 197.172 29.6097C196.759 29.6278 196.347 29.5614 195.96 29.4147C195.574 29.2679 195.222 29.0439 194.925 28.7563C194.628 28.4687 194.393 28.1236 194.234 27.742C194.076 27.3605 193.996 26.9506 194.002 26.5374ZM199.699 26.5374C199.706 26.0343 199.563 25.5406 199.289 25.1191C199.014 24.6975 198.62 24.3672 198.157 24.1702C197.695 23.9732 197.183 23.9184 196.689 24.0128C196.195 24.1072 195.74 24.3465 195.383 24.7003C195.025 25.054 194.781 25.5062 194.681 25.9993C194.581 26.4923 194.63 27.004 194.822 27.469C195.014 27.9341 195.339 28.3316 195.758 28.6108C196.176 28.8901 196.669 29.0385 197.172 29.0371C197.507 29.0525 197.841 28.9989 198.154 28.8794C198.468 28.76 198.753 28.5774 198.993 28.3429C199.233 28.1084 199.422 27.8271 199.548 27.5165C199.674 27.2059 199.735 26.8726 199.727 26.5374H199.699Z" fill="#263238"/>
<path d="M205.891 29.5843L204.495 27.6431C204.341 27.6431 204.188 27.6431 204.013 27.6431H202.393V29.5633H201.758V23.5234H204.013C205.549 23.5234 206.478 24.2985 206.478 25.6182C206.497 26.0457 206.368 26.4668 206.114 26.8111C205.86 27.1555 205.496 27.4023 205.082 27.5105L206.555 29.6052L205.891 29.5843ZM205.857 25.6182C205.857 24.6476 205.214 24.096 204.013 24.096H202.407V27.1264H204.013C205.214 27.1264 205.857 26.5329 205.857 25.6182Z" fill="#263238"/>
<path d="M209.872 26.7449L208.643 27.9948V29.5868H208.008V23.5469H208.643V27.2337L212.183 23.5818H212.917L210.305 26.3189L213.098 29.6217H212.344L209.872 26.7449Z" fill="#263238"/>
<path d="M260.551 23.5469H263.009C264.943 23.5469 266.242 24.7898 266.242 26.5633C266.242 28.3369 264.943 29.5868 263.009 29.5868H260.551V23.5469ZM262.974 29.0352C263.309 29.053 263.644 29.0024 263.959 28.8864C264.274 28.7704 264.562 28.5915 264.806 28.3605C265.049 28.1295 265.243 27.8514 265.376 27.543C265.509 27.2346 265.577 26.9025 265.577 26.5668C265.577 26.2312 265.509 25.899 265.376 25.5906C265.243 25.2823 265.049 25.0041 264.806 24.7732C264.562 24.5422 264.274 24.3633 263.959 24.2473C263.644 24.1313 263.309 24.0807 262.974 24.0985H261.172V29.0352H262.974Z" fill="#263238"/>
<path d="M267.142 26.5374C267.123 25.9066 267.292 25.2843 267.628 24.7503C267.965 24.2163 268.453 23.7948 269.03 23.5398C269.607 23.2848 270.247 23.2079 270.869 23.319C271.49 23.4301 272.064 23.724 272.517 24.1632C272.97 24.6024 273.282 25.1669 273.412 25.7843C273.543 26.4018 273.486 27.0441 273.249 27.6291C273.012 28.2141 272.606 28.715 272.083 29.0679C271.56 29.4207 270.943 29.6094 270.312 29.6097C269.899 29.6278 269.487 29.5614 269.101 29.4147C268.715 29.2679 268.362 29.0439 268.065 28.7563C267.769 28.4687 267.534 28.1236 267.375 27.742C267.216 27.3605 267.137 26.9506 267.142 26.5374ZM272.84 26.5374C272.847 26.0343 272.704 25.5406 272.429 25.1191C272.155 24.6975 271.761 24.3672 271.298 24.1702C270.835 23.9732 270.324 23.9184 269.83 24.0128C269.336 24.1072 268.881 24.3465 268.523 24.7003C268.165 25.054 267.921 25.5062 267.821 25.9993C267.721 26.4923 267.77 27.004 267.962 27.469C268.154 27.9341 268.48 28.3316 268.899 28.6108C269.317 28.8901 269.809 29.0385 270.312 29.0371C270.645 29.0486 270.976 28.992 271.286 28.8709C271.596 28.7497 271.878 28.5664 272.115 28.3324C272.352 28.0983 272.538 27.8183 272.663 27.5097C272.787 27.201 272.848 26.8701 272.84 26.5374Z" fill="#263238"/>
<path d="M279.955 23.5469V29.5868H279.432L275.549 24.699V29.5868H274.914V23.5469H275.438L279.327 28.4347V23.5469H279.955Z" fill="#263238"/>
<path d="M286.192 29.0352V29.5868H281.926V23.5469H286.066V24.0985H282.575V26.2491H285.696V26.7938H282.575V29.0352H286.192Z" fill="#263238"/>
<path d="M314.24 46.4628C314.24 46.5605 263.498 46.6443 200.92 46.6443C138.343 46.6443 87.5938 46.5605 87.5938 46.4628C87.5938 46.365 138.322 46.2812 200.92 46.2812C263.519 46.2812 314.24 46.365 314.24 46.4628Z" fill="#263238"/>
<path d="M157.834 187.766C157.736 187.766 157.652 148.524 157.652 100.128C157.652 51.7324 157.736 12.4766 157.834 12.4766C157.932 12.4766 158.015 51.7115 158.015 100.128C158.015 148.545 157.932 187.766 157.834 187.766Z" fill="#263238"/>
<path d="M240.994 187.766C240.889 187.766 240.812 148.524 240.812 100.128C240.812 51.7324 240.889 12.4766 240.994 12.4766C241.099 12.4766 241.176 51.7115 241.176 100.128C241.176 148.545 241.092 187.766 240.994 187.766Z" fill="#263238"/>
<path d="M116.592 53.3594C116.592 53.3594 114.839 69.3424 117.088 78.0915L138.44 77.1559C138.44 77.1559 133.867 61.3963 136.674 54.4137L116.592 53.3594Z" fill="#E0E0E0"/>
<path d="M88.3842 62.1445C88.3842 62.1445 86.6385 78.1276 88.8869 86.8767L110.233 85.941C110.233 85.941 105.659 70.1745 108.473 63.1919L88.3842 62.1445Z" fill="#E0E0E0"/>
<path d="M116.594 53.3594C116.594 53.3594 116.74 70.6132 117.613 75.8781L139.259 74.8516C139.259 74.8516 137.36 57.891 138.093 53.3594H116.594Z" fill="#455A64"/>
<path d="M127.249 55.8039H127.333H127.563C127.864 55.7933 128.166 55.8096 128.464 55.8528C128.947 55.9174 129.418 56.0539 129.861 56.2578C130.44 56.5423 130.951 56.947 131.362 57.4448C131.859 58.0566 132.212 58.7726 132.395 59.5396C132.566 60.4347 132.489 61.3595 132.172 62.2139C132.01 62.6782 131.807 63.1269 131.564 63.5546C131.307 63.9904 131.074 64.4403 130.866 64.9022C130.434 65.881 130.141 66.915 129.993 67.9745V68.0443H129.902H127.766L125.524 68.0792H125.441V68.0024C125.346 66.9442 124.989 65.9263 124.4 65.0418C124.142 64.6019 123.856 64.183 123.59 63.764C123.314 63.3638 123.06 62.9489 122.829 62.5211C122.435 61.7032 122.317 60.7793 122.494 59.8887C122.617 59.1194 122.9 58.3845 123.325 57.7311C123.686 57.207 124.164 56.7742 124.721 56.4673C125.137 56.2325 125.583 56.0585 126.048 55.9506C126.34 55.8819 126.636 55.8329 126.935 55.8039C126.64 55.8383 126.348 55.8943 126.062 55.9715C125.609 56.0939 125.173 56.2721 124.763 56.5022C124.219 56.8115 123.753 57.2415 123.402 57.759C122.995 58.3953 122.725 59.1083 122.606 59.8538C122.437 60.7179 122.557 61.6134 122.948 62.4024C123.176 62.8235 123.428 63.2314 123.702 63.6244C123.967 64.0433 124.254 64.4623 124.519 64.9092C125.123 65.8139 125.491 66.8559 125.587 67.9396L125.503 67.8628L127.745 67.8279L129.881 67.793L129.805 67.8628C129.954 66.7877 130.255 65.7392 130.698 64.7486C130.905 64.2815 131.138 63.8269 131.397 63.387C131.633 62.9912 131.834 62.5753 131.997 62.1441C132.311 61.3136 132.394 60.4132 132.235 59.5396C132.062 58.7927 131.72 58.0953 131.236 57.5007C130.845 57.0077 130.352 56.6052 129.791 56.3206C129.363 56.1175 128.91 55.9742 128.443 55.8947C128.148 55.8467 127.849 55.8233 127.549 55.8249H127.235L127.249 55.8039Z" fill="white"/>
<path d="M128.358 67.8198C128.356 67.7965 128.356 67.7732 128.358 67.7499V67.5544C128.358 67.3729 128.288 67.1145 128.239 66.7794C128.142 66.0811 127.995 65.1385 127.897 63.9235C127.897 63.6232 127.855 63.302 127.841 62.9739C127.827 62.6457 127.841 62.2756 127.841 61.9405C127.855 61.5676 127.938 61.2006 128.086 60.8582C128.25 60.4896 128.547 60.1957 128.917 60.0342C129.113 59.9523 129.328 59.9298 129.537 59.9695C129.745 60.0092 129.938 60.1094 130.09 60.2577C130.17 60.3328 130.234 60.4237 130.277 60.5246C130.32 60.6256 130.342 60.7344 130.341 60.8442C130.338 61.0692 130.262 61.2871 130.125 61.4656C129.987 61.6458 129.807 61.7896 129.601 61.8846C129.397 61.9846 129.181 62.0574 128.959 62.101C128.499 62.1956 128.031 62.2493 127.562 62.2616C127.095 62.2787 126.628 62.2553 126.166 62.1918C125.939 62.1602 125.718 62.0967 125.509 62.0033C125.305 61.9113 125.12 61.7809 124.965 61.6193C124.813 61.4551 124.706 61.2559 124.65 61.0397C124.605 60.8229 124.632 60.5973 124.727 60.3973C124.818 60.1991 124.98 60.0422 125.181 59.9574C125.278 59.9159 125.383 59.8945 125.488 59.8945C125.594 59.8945 125.698 59.9159 125.795 59.9574C125.98 60.0463 126.139 60.1809 126.256 60.3484C126.367 60.511 126.446 60.6936 126.487 60.8861C126.554 61.2502 126.591 61.6192 126.598 61.9893C126.633 62.6876 126.668 63.3858 126.703 63.9724C126.759 65.1803 126.808 66.1649 126.843 66.8422C126.843 67.1774 126.843 67.4427 126.878 67.6242C126.913 67.8058 126.878 67.7779 126.878 67.8267V67.8966C126.875 67.8734 126.875 67.8499 126.878 67.8267V67.6242C126.878 67.4427 126.878 67.1843 126.829 66.8422C126.787 66.1439 126.731 65.1873 126.661 63.9794C126.626 63.3719 126.592 62.7085 126.55 61.9963C126.539 61.6286 126.502 61.2622 126.438 60.9001C126.396 60.7156 126.32 60.5405 126.214 60.3833C126.103 60.2261 125.954 60.0989 125.782 60.0133C125.6 59.9399 125.397 59.9399 125.216 60.0133C125.029 60.0927 124.88 60.2399 124.797 60.4252C124.706 60.6114 124.679 60.8226 124.72 61.0257C124.771 61.2305 124.874 61.4183 125.02 61.5704C125.333 61.882 125.741 62.0789 126.18 62.129C126.631 62.1887 127.086 62.2097 127.541 62.1918C127.996 62.1798 128.449 62.1284 128.896 62.0382C129.113 61.9936 129.324 61.9232 129.524 61.8287C129.718 61.7359 129.887 61.5997 130.02 61.4307C130.149 61.2618 130.222 61.0568 130.229 60.8442C130.228 60.6393 130.145 60.4435 129.999 60.2996C129.853 60.1629 129.671 60.0706 129.474 60.0336C129.278 59.9965 129.075 60.0161 128.889 60.0901C128.535 60.2485 128.251 60.5319 128.093 60.8861C127.944 61.2185 127.861 61.5765 127.848 61.9405C127.848 62.2966 127.848 62.6387 127.848 62.9739C127.848 63.309 127.848 63.6163 127.897 63.9235C127.988 65.1315 128.128 66.102 128.211 66.7794C128.26 67.1075 128.295 67.3729 128.323 67.5474V67.7499C128.336 67.7724 128.348 67.7957 128.358 67.8198Z" fill="white"/>
<path d="M125.511 67.9369C125.541 68.1685 125.56 68.4016 125.567 68.6351C125.567 69.1588 125.63 69.7872 125.665 70.5134V70.4646L127.117 72.1473H127.04L128.73 72.0566L128.653 72.0915C128.926 71.7563 129.205 71.3932 129.498 71.0651L129.917 70.5553V70.6182C129.917 69.6336 129.868 68.698 129.847 67.8252L129.945 67.9089L126.796 67.9439H125.888C125.774 67.9536 125.66 67.9536 125.546 67.9439C125.646 67.9354 125.746 67.9354 125.846 67.9439L126.733 67.902L129.903 67.7344H129.994V67.8252C129.994 68.677 130.05 69.6127 130.078 70.6182V70.6601L129.659 71.1698L128.814 72.1962H128.772L127.089 72.28H127.04L125.609 70.5763C125.609 69.8268 125.609 69.1844 125.609 68.6491C125.497 68.1673 125.504 67.9299 125.511 67.9369Z" fill="white"/>
<path d="M129.86 70.3779L129.699 70.3081C129.556 70.2415 129.409 70.1832 129.259 70.1336C128.769 69.9672 128.254 69.8891 127.737 69.9031C127.221 69.9168 126.712 70.0257 126.236 70.2243C126.09 70.2839 125.948 70.3515 125.81 70.4268L125.656 70.5036C125.656 70.5036 125.705 70.4617 125.796 70.4059C125.93 70.3221 126.07 70.2474 126.215 70.1824C126.695 69.9691 127.212 69.8505 127.737 69.8333C128.263 69.8202 128.787 69.9079 129.28 70.0917C129.462 70.1615 129.608 70.2313 129.713 70.2802C129.766 70.3055 129.816 70.3384 129.86 70.3779Z" fill="white"/>
<path d="M129.86 69.6997C129.86 69.6997 129.797 69.6997 129.699 69.6298C129.601 69.56 129.448 69.5251 129.259 69.4623C128.275 69.1149 127.197 69.1473 126.236 69.553L125.81 69.7485L125.656 69.8253L125.796 69.7276C125.931 69.6465 126.071 69.5742 126.215 69.5111C126.694 69.2945 127.211 69.1758 127.737 69.162C128.26 69.1462 128.782 69.2316 129.273 69.4134C129.422 69.467 129.567 69.5324 129.706 69.6089L129.86 69.6997Z" fill="white"/>
<path d="M129.817 69.0589L129.656 68.996C129.516 68.9292 129.371 68.8709 129.223 68.8215C128.658 68.6286 128.059 68.555 127.464 68.6055C126.869 68.656 126.291 68.8294 125.767 69.1147L125.613 69.1915L125.753 69.0868C125.891 69.0073 126.033 68.9351 126.179 68.8703C126.657 68.6568 127.171 68.5383 127.694 68.5212C128.22 68.5062 128.743 68.5916 129.237 68.7726C129.426 68.8494 129.572 68.9192 129.67 68.9681L129.817 69.0589Z" fill="white"/>
<path d="M88.2266 62.1445C88.2266 62.1445 88.3732 79.3984 89.246 84.6632L110.892 83.6368C110.892 83.6368 108.958 66.7041 109.719 62.1445H88.2266Z" fill="#349F6E"/>
<path d="M106.453 69.4231C106.453 69.5208 103.213 69.8001 99.2055 70.0375C95.1975 70.2749 91.9367 70.3936 91.9297 70.2959C91.9227 70.1981 95.1696 69.9188 99.1846 69.6744C103.2 69.43 106.446 69.3253 106.453 69.4231Z" fill="white"/>
<path d="M106.461 73.0734C104.057 73.4029 101.638 73.6103 99.2133 73.6948C96.7938 73.9013 94.3655 73.9852 91.9375 73.9462C91.9375 73.8485 95.1774 73.5692 99.1854 73.3318C103.193 73.0943 106.454 72.9756 106.461 73.0734Z" fill="white"/>
<path d="M102.782 76.6599C101.422 76.9221 100.041 77.067 98.6554 77.0929C97.2775 77.2359 95.8895 77.257 94.5078 77.1557C95.8684 76.8939 97.2492 76.7514 98.6345 76.7298C100.012 76.5867 101.4 76.5633 102.782 76.6599Z" fill="white"/>
<path d="M128.462 80.8242C128.462 80.8242 126.717 96.8073 128.965 105.556L150.318 104.621C150.318 104.621 145.737 88.8541 148.551 81.8716L128.462 80.8242Z" fill="#EBEBEB"/>
<path d="M128.551 80.3008C128.551 80.3008 128.697 97.5546 129.577 102.819L151.223 101.8C151.223 101.8 149.324 84.8394 150.057 80.3008H128.551Z" fill="#349F6E"/>
<path d="M146.778 87.5539C144.375 87.8834 141.955 88.0908 139.531 88.1753C137.113 88.3818 134.687 88.4657 132.262 88.4267C132.262 88.3289 135.502 88.0496 139.51 87.8122C143.518 87.5748 146.778 87.4561 146.778 87.5539Z" fill="white"/>
<path d="M146.786 91.2124C146.786 91.3102 143.546 91.5895 139.538 91.8269C135.53 92.0643 132.277 92.183 132.27 92.0852C134.673 91.7557 137.092 91.5483 139.517 91.4638C141.935 91.2573 144.361 91.1734 146.786 91.2124Z" fill="white"/>
<path d="M143.114 94.8042C141.753 95.0613 140.373 95.2038 138.987 95.2302C137.61 95.3733 136.222 95.3967 134.84 95.3C136.2 95.0331 137.581 94.8882 138.967 94.8671C140.344 94.7198 141.733 94.6988 143.114 94.8042Z" fill="white"/>
<path d="M124.037 147.793C124.037 147.793 122.285 163.776 124.533 172.525L145.886 171.589C145.886 171.589 141.312 155.83 144.119 148.847L124.037 147.793Z" fill="#EBEBEB"/>
<path d="M124.121 147.285C124.121 147.285 124.268 164.539 125.148 169.797L146.793 168.777C146.793 168.777 144.887 151.817 145.62 147.285H124.121Z" fill="#349F6E"/>
<path d="M142.352 154.533C142.352 154.63 139.112 154.91 135.104 155.147C131.096 155.385 127.835 155.503 127.828 155.406C130.234 155.076 132.656 154.869 135.083 154.784C137.5 154.578 139.926 154.494 142.352 154.533Z" fill="white"/>
<path d="M142.36 158.183C142.36 158.281 139.12 158.56 135.112 158.804C131.104 159.049 127.843 159.153 127.836 159.056C127.829 158.958 131.076 158.679 135.091 158.441C139.106 158.204 142.353 158.085 142.36 158.183Z" fill="white"/>
<path d="M138.677 161.774C137.316 162.036 135.935 162.178 134.55 162.2C133.172 162.343 131.784 162.366 130.402 162.27C131.763 162.007 133.144 161.863 134.529 161.837C135.907 161.694 137.295 161.673 138.677 161.774Z" fill="white"/>
<path d="M94.0209 134.867C94.0209 134.867 92.2752 150.85 94.5236 159.599L115.876 158.664C115.876 158.664 111.303 142.904 114.11 135.922L94.0209 134.867Z" fill="#EBEBEB"/>
<path d="M94.1094 134.359C94.1094 134.359 94.256 151.613 95.1288 156.878L116.775 155.852C116.775 155.852 114.875 138.891 115.609 134.359H94.1094Z" fill="#349F6E"/>
<path d="M112.34 141.607C112.34 141.705 109.1 141.984 105.085 142.221C101.07 142.459 97.8234 142.578 97.8164 142.48C100.22 142.15 102.639 141.943 105.064 141.858C107.484 141.652 109.912 141.568 112.34 141.607Z" fill="white"/>
<path d="M112.348 145.237C112.348 145.334 109.101 145.614 105.093 145.858C102.676 146.065 100.25 146.148 97.8242 146.109C97.8242 146.012 101.064 145.732 105.072 145.495C109.08 145.258 112.341 145.16 112.348 145.237Z" fill="white"/>
<path d="M108.669 148.847C107.308 149.11 105.928 149.254 104.542 149.28C103.164 149.423 101.776 149.444 100.395 149.343C101.755 149.081 103.136 148.939 104.521 148.917C105.899 148.774 107.287 148.751 108.669 148.847Z" fill="white"/>
<path d="M205.357 137.25C205.357 137.25 203.611 153.233 205.86 161.982L227.205 161.047C227.205 161.047 222.632 145.287 225.446 138.297L205.357 137.25Z" fill="#EBEBEB"/>
<path d="M205.438 136.738C205.438 136.738 205.584 153.985 206.464 159.25L228.11 158.231C228.11 158.231 226.211 141.27 226.937 136.738H205.438Z" fill="#349F6E"/>
<path d="M223.669 143.981C221.265 144.31 218.846 144.517 216.421 144.602C212.413 144.846 209.159 144.958 209.152 144.86C211.556 144.531 213.975 144.323 216.4 144.239C220.408 143.995 223.662 143.883 223.669 143.981Z" fill="white"/>
<path d="M223.676 147.638C223.676 147.736 220.436 148.015 216.428 148.253C212.42 148.49 209.159 148.609 209.152 148.511C209.145 148.413 212.392 148.134 216.407 147.89C218.824 147.683 221.25 147.599 223.676 147.638Z" fill="white"/>
<path d="M219.977 151.227C218.617 151.489 217.236 151.632 215.851 151.653C214.473 151.796 213.085 151.819 211.703 151.723C213.064 151.461 214.444 151.316 215.83 151.29C217.208 151.147 218.596 151.126 219.977 151.227Z" fill="white"/>
<path d="M124.474 97.695C124.474 97.695 122.296 113.629 118.002 121.568L97.5078 115.494C97.5078 115.494 105.768 101.305 104.728 93.8477L124.474 97.695Z" fill="#EBEBEB"/>
<path d="M124.517 97.1786C124.517 97.1786 120.195 113.881 118.072 118.776L97.3203 112.547C97.3203 112.547 103.276 96.5501 103.66 91.9766L124.517 97.1786Z" fill="#455A64"/>
<path d="M105.074 99.793C107.434 100.344 109.764 101.013 112.057 101.797C114.39 102.467 116.688 103.254 118.942 104.157C118.942 104.248 115.785 103.354 111.959 102.146C109.626 101.479 107.328 100.694 105.074 99.793Z" fill="white"/>
<path d="M104.18 103.342C104.215 103.252 107.343 104.145 111.162 105.353C114.982 106.561 118.075 107.616 118.047 107.706C118.019 107.797 114.884 106.903 111.065 105.702C107.245 104.501 104.152 103.433 104.18 103.342Z" fill="white"/>
<path d="M106.859 107.715C108.225 107.95 109.566 108.307 110.867 108.783C112.206 109.13 113.51 109.598 114.764 110.18C113.399 109.936 112.059 109.576 110.756 109.104C109.42 108.751 108.117 108.286 106.859 107.715Z" fill="white"/>
<path d="M146.878 114.516C146.878 114.516 148.631 130.499 146.382 139.248L125.016 138.256C125.016 138.256 129.589 122.49 126.782 115.507L146.878 114.516Z" fill="#EBEBEB"/>
<path d="M125.015 110.742C125.015 110.742 123.556 129.888 122.383 133.547L141.829 135.593L144.755 132.8C144.755 132.8 146.654 118.765 146.361 114.233L125.015 110.742Z" fill="#455A64"/>
<path d="M142.284 132.672L141.844 135.598L144.769 132.819L142.284 132.672Z" fill="#263238"/>
<path d="M142.472 120.923C141.74 120.892 141.012 120.808 140.293 120.672L135.056 119.932L129.812 119.275C129.081 119.222 128.356 119.115 127.641 118.954C128.374 118.912 129.111 118.935 129.84 119.024C131.188 119.122 133.059 119.303 135.105 119.576C137.151 119.848 139.008 120.155 140.335 120.414C141.061 120.517 141.777 120.687 142.472 120.923Z" fill="white"/>
<path d="M141.654 124.92C140.955 124.962 140.254 124.938 139.559 124.85C138.26 124.759 136.473 124.584 134.511 124.34C132.549 124.096 130.768 123.809 129.49 123.579C128.795 123.486 128.108 123.334 127.438 123.125C128.14 123.13 128.841 123.197 129.532 123.327L134.553 123.977L139.58 124.598C140.279 124.646 140.973 124.754 141.654 124.92Z" fill="white"/>
<path d="M140.44 128.592C138.25 128.484 136.067 128.251 133.904 127.894C131.722 127.662 129.554 127.31 127.41 126.84C129.602 126.953 131.786 127.186 133.953 127.538C136.132 127.774 138.298 128.126 140.44 128.592Z" fill="white"/>
<path d="M304.528 134.766C304.528 134.766 306.281 150.742 304.032 159.498L282.68 158.562C282.68 158.562 287.253 142.796 284.446 135.813L304.528 134.766Z" fill="#EBEBEB"/>
<path d="M282.679 131.027C282.679 131.027 281.22 150.173 280.047 153.825L299.493 155.871L302.419 153.078C302.419 153.078 304.318 139.036 304.025 134.505L282.679 131.027Z" fill="#455A64"/>
<path d="M299.932 152.953L299.492 155.879L302.418 153.1L299.932 152.953Z" fill="#263238"/>
<path d="M300.152 141.208C299.42 141.176 298.692 141.089 297.974 140.949L292.744 140.216L287.493 139.56C286.763 139.512 286.039 139.403 285.328 139.232C286.06 139.189 286.793 139.212 287.521 139.301C288.875 139.399 290.74 139.581 292.785 139.853C294.831 140.125 296.689 140.44 298.015 140.698C298.742 140.8 299.458 140.971 300.152 141.208Z" fill="white"/>
<path d="M299.306 145.239C298.607 145.281 297.906 145.258 297.212 145.169C295.913 145.071 294.132 144.904 292.163 144.652C290.194 144.401 288.428 144.129 287.143 143.898C286.445 143.81 285.758 143.655 285.09 143.438C285.792 143.451 286.493 143.518 287.185 143.64L292.212 144.296L297.239 144.911C297.937 144.959 298.628 145.068 299.306 145.239Z" fill="white"/>
<path d="M298.092 148.875C293.72 148.535 289.37 147.952 285.062 147.129C287.255 147.238 289.439 147.471 291.605 147.827C293.785 148.057 295.951 148.407 298.092 148.875Z" fill="white"/>
<path d="M278.992 53.3242C278.992 53.3242 280.738 69.3003 278.489 78.0494L257.137 77.1207C257.137 77.1207 261.71 61.3541 258.903 54.3716L278.992 53.3242Z" fill="#EBEBEB"/>
<path d="M257.137 49.5781C257.137 49.5781 255.678 68.7312 254.512 72.3831L273.951 74.429L276.877 71.636C276.877 71.636 278.776 57.6011 278.49 53.0694L257.137 49.5781Z" fill="#455A64"/>
<path d="M274.394 71.5117L273.961 74.4374L276.88 71.6583L274.394 71.5117Z" fill="#263238"/>
<path d="M274.616 59.7634C273.882 59.7415 273.151 59.6574 272.431 59.512L267.201 58.8138L261.957 58.1574C261.225 58.106 260.499 57.9963 259.785 57.8292C260.517 57.7866 261.25 57.81 261.978 57.8991C263.332 57.9968 265.197 58.1784 267.249 58.4507C269.302 58.723 271.146 59.0372 272.479 59.2956C273.203 59.3929 273.918 59.5494 274.616 59.7634Z" fill="white"/>
<path d="M273.745 63.7594C273.046 63.8022 272.345 63.7812 271.65 63.6965C270.358 63.5988 268.571 63.4242 266.601 63.1798C264.632 62.9354 262.866 62.6561 261.588 62.4257C260.891 62.3381 260.203 62.1838 259.535 61.9648C260.238 61.978 260.938 62.0457 261.63 62.1673L266.657 62.8167L271.685 63.4382C272.379 63.491 273.068 63.5984 273.745 63.7594Z" fill="white"/>
<path d="M272.55 67.4401C270.36 67.3287 268.178 67.0956 266.014 66.7419C263.834 66.5139 261.668 66.1619 259.527 65.6875C261.717 65.8031 263.899 66.0362 266.063 66.3858C268.243 66.6178 270.409 66.9698 272.55 67.4401Z" fill="white"/>
<path d="M196.816 60.2891C196.816 60.2891 198.562 76.2721 196.314 85.0212L174.961 84.0856C174.961 84.0856 179.535 68.319 176.728 61.3364L196.816 60.2891Z" fill="#EBEBEB"/>
<path d="M174.961 56.5586C174.961 56.5586 173.502 75.7047 172.336 79.3566L191.775 81.4095L194.701 78.6164C194.701 78.6164 196.607 64.5815 196.314 60.0429L174.961 56.5586Z" fill="#455A64"/>
<path d="M192.214 78.4766L191.781 81.4023L194.7 78.6232L192.214 78.4766Z" fill="#263238"/>
<path d="M192.436 66.7349C191.703 66.7042 190.972 66.6202 190.251 66.4835L185.021 65.7433L179.777 65.087C179.046 65.0353 178.32 64.9279 177.605 64.7658C178.337 64.7187 179.071 64.7421 179.798 64.8356C181.153 64.9334 183.017 65.1149 185.07 65.3872C187.123 65.6595 188.966 65.9668 190.3 66.2251C191.026 66.3295 191.741 66.5002 192.436 66.7349Z" fill="white"/>
<path d="M191.588 70.7273C190.889 70.7697 190.188 70.7463 189.494 70.6574C188.202 70.5667 186.414 70.3921 184.445 70.1407C182.476 69.8894 180.71 69.617 179.432 69.3866C178.734 69.299 178.047 69.1447 177.379 68.9258C178.082 68.9396 178.782 69.0096 179.474 69.1352L184.501 69.7846L189.529 70.3991C190.224 70.4473 190.913 70.5571 191.588 70.7273Z" fill="white"/>
<path d="M190.37 74.4011C188.18 74.292 185.998 74.0589 183.834 73.7028C181.654 73.4708 179.489 73.1188 177.348 72.6484C179.537 72.7617 181.719 72.9948 183.883 73.3467C186.063 73.5787 188.229 73.9307 190.37 74.4011Z" fill="white"/>
<path d="M168.16 91.8477L169.843 130.922L218.616 131.509L216.43 92.3644L168.16 91.8477Z" fill="#EBEBEB"/>
<path d="M216.046 91.5703H167.594V128.159H216.046V91.5703Z" fill="white"/>
<path d="M216.046 128.152C216.046 128.152 216.046 127.922 216.046 127.454C216.046 126.986 216.046 126.351 216.046 125.499C216.046 123.781 216.046 121.31 216.011 118.098C216.011 111.715 215.962 102.589 215.934 91.5639L216.081 91.7105L167.608 91.7524L167.789 91.5709C167.789 104.726 167.789 117.183 167.789 128.152L167.622 127.992L202.535 128.076L212.471 128.117H215.117H216.039C215.967 128.124 215.894 128.124 215.822 128.117H215.124H212.513L202.611 128.159L167.559 128.243H167.398V128.076C167.398 117.106 167.398 104.649 167.398 91.494V91.3125H167.608H216.053H216.199V91.4661C216.199 102.547 216.144 111.715 216.123 118.105C216.123 121.282 216.123 123.767 216.088 125.478C216.088 126.307 216.088 126.949 216.088 127.405C216.06 127.943 216.046 128.152 216.046 128.152Z" fill="#263238"/>
<path d="M193.079 99.3203H173.438V124.039H193.079V99.3203Z" fill="white"/>
<path d="M193.081 124.037C193.079 123.995 193.079 123.953 193.081 123.911C193.081 123.814 193.081 123.702 193.081 123.555C193.081 123.227 193.081 122.78 193.081 122.208C193.081 121.007 193.081 119.296 193.032 117.131C193.032 112.781 192.983 106.623 192.955 99.319L193.116 99.4795H173.474L173.656 99.298V106.022C173.656 108.215 173.656 110.358 173.656 112.432C173.656 116.587 173.656 120.476 173.656 124.009L173.502 123.856L187.719 123.939H191.713H192.767C192.892 123.929 193.019 123.929 193.144 123.939C193.03 123.951 192.916 123.951 192.802 123.939H191.768L187.816 123.974L173.502 124.058H173.355V123.904C173.355 120.371 173.355 116.482 173.355 112.327C173.355 110.233 173.355 108.138 173.355 105.917V99.1933L173.537 99.0117H193.179H193.34V99.1723C193.34 106.525 193.284 112.711 193.263 117.09C193.263 119.24 193.228 120.937 193.214 122.131C193.214 122.69 193.214 123.129 193.214 123.451C193.187 123.65 193.143 123.846 193.081 124.037Z" fill="#263238"/>
<path d="M211.834 93.6641H174.191V97.2252H211.834V93.6641Z" fill="white"/>
<path d="M211.835 97.2263C211.826 97.1451 211.826 97.0631 211.835 96.9819C211.835 96.8097 211.835 96.5769 211.835 96.2836C211.835 95.6622 211.835 94.7824 211.793 93.6582L211.87 93.728C205.516 93.7909 191.048 93.8398 174.227 93.8398L174.409 93.6582V97.2053L174.227 97.0238L200.9 97.1006L208.909 97.1565H211.095H211.668H211.87H211.689H211.144H209L201.033 97.2123L174.227 97.2891H174.046V93.5605C174.122 93.4767 173.864 93.742 174.227 93.3789C191.048 93.3789 205.516 93.4208 211.87 93.4837H211.94V93.5605C211.94 94.7056 211.94 95.5924 211.898 96.2278V96.926C211.842 97.1565 211.835 97.2333 211.835 97.2263Z" fill="#263238"/>
<path d="M211.83 99.3203H195.484V114.221H211.83V99.3203Z" fill="white"/>
<path d="M211.837 114.215C211.828 114.12 211.828 114.024 211.837 113.929C211.837 113.72 211.837 113.454 211.837 113.119C211.837 112.386 211.837 111.367 211.795 110.082C211.795 107.456 211.746 103.756 211.711 99.3217L211.871 99.4753H195.525C195.483 99.5103 195.867 99.1332 195.7 99.2938V107.121C195.7 109.621 195.7 112.009 195.7 114.174L195.539 114.02L207.333 114.097L210.677 114.139H211.571H211.892C211.797 114.148 211.701 114.148 211.606 114.139H210.74L207.431 114.181L195.56 114.257H195.407V114.097C195.407 111.911 195.407 109.544 195.407 107.044V103.344C195.407 102.687 195.407 102.024 195.407 101.361V99.3566C195.246 99.5172 195.63 99.1332 195.595 99.1751H211.941H212.095V99.3287C212.06 103.805 212.032 107.54 212.011 110.187C212.011 111.457 212.011 112.463 211.976 113.189C211.976 113.51 211.976 113.769 211.976 113.971C211.976 114.174 211.837 114.222 211.837 114.215Z" fill="#263238"/>
<path d="M211.83 116.555H195.484V124.04H211.83V116.555Z" fill="white"/>
<path d="M211.836 124.036C211.82 123.855 211.82 123.673 211.836 123.492C211.836 123.108 211.836 122.612 211.801 121.983C211.801 120.664 211.759 118.813 211.731 116.551L211.864 116.684L195.517 116.732C195.35 116.893 195.734 116.509 195.692 116.551V120.398C195.692 121.648 195.692 122.863 195.692 124.022L195.517 123.848L207.206 123.931L210.614 123.98H211.535H211.871C211.773 123.99 211.675 123.99 211.577 123.98H210.691L207.325 124.029L195.517 124.113H195.35V123.938C195.35 122.779 195.35 121.564 195.35 120.315C195.35 119.686 195.35 119.051 195.35 118.408V116.467C195.315 116.509 195.699 116.125 195.538 116.286L211.885 116.334H212.017V116.467C212.017 118.764 211.961 120.657 211.94 121.983C211.94 122.591 211.94 123.087 211.94 123.457C211.917 123.652 211.882 123.845 211.836 124.036Z" fill="#263238"/>
<path d="M192.591 99.3594C186.516 107.738 179.519 115.636 173.438 124.036L192.591 99.3594Z" fill="white"/>
<path d="M173.438 124.036C173.641 123.672 173.874 123.326 174.136 123.002C174.583 122.353 175.253 121.424 176.098 120.286C177.781 118.017 180.197 114.944 182.899 111.586C185.601 108.227 188.052 105.176 189.784 102.948L191.837 100.309C192.073 99.9733 192.334 99.6559 192.619 99.3594C192.425 99.721 192.204 100.067 191.955 100.393C191.501 101.042 190.831 101.971 189.993 103.109C188.303 105.378 185.887 108.451 183.185 111.809C180.483 115.168 178.039 118.212 176.3 120.447L174.247 123.086C174.005 123.425 173.734 123.743 173.438 124.036Z" fill="#263238"/>
<path d="M193.081 124.039C193.004 124.102 188.542 118.621 183.117 111.792C177.691 104.963 173.341 99.3837 173.439 99.3208C173.537 99.258 177.978 104.739 183.403 111.568C188.829 118.397 193.158 123.976 193.081 124.039Z" fill="#263238"/>
<path d="M166.772 102.442C168.468 102.442 169.844 101.066 169.844 99.3692C169.844 97.6724 168.468 96.2969 166.772 96.2969C165.075 96.2969 163.699 97.6724 163.699 99.3692C163.699 101.066 165.075 102.442 166.772 102.442Z" fill="#349F6E"/>
<path d="M166.768 102.464C166.156 102.465 165.557 102.285 165.048 101.946C164.538 101.607 164.141 101.124 163.905 100.559C163.67 99.9941 163.608 99.3719 163.727 98.7714C163.845 98.1709 164.139 97.6191 164.572 97.1858C165.004 96.7525 165.555 96.4572 166.155 96.3373C166.755 96.2174 167.378 96.2782 167.943 96.5121C168.509 96.7461 168.993 97.1425 169.333 97.6514C169.673 98.1602 169.854 98.7585 169.855 99.3706C169.853 100.189 169.527 100.974 168.949 101.553C168.371 102.133 167.587 102.46 166.768 102.464ZM166.768 96.3192C166.163 96.3179 165.57 96.4962 165.066 96.8317C164.562 97.1673 164.169 97.6449 163.937 98.204C163.705 98.7631 163.644 99.3786 163.761 99.9725C163.879 100.566 164.171 101.112 164.599 101.54C165.027 101.968 165.572 102.26 166.166 102.378C166.76 102.495 167.376 102.434 167.935 102.202C168.494 101.969 168.972 101.576 169.307 101.072C169.643 100.568 169.821 99.9761 169.82 99.3706C169.818 98.5619 169.496 97.7868 168.924 97.215C168.352 96.6431 167.577 96.3211 166.768 96.3192Z" fill="#263238"/>
<path d="M217.025 94.9845C218.722 94.9845 220.098 93.609 220.098 91.9122C220.098 90.2154 218.722 88.8398 217.025 88.8398C215.329 88.8398 213.953 90.2154 213.953 91.9122C213.953 93.609 215.329 94.9845 217.025 94.9845Z" fill="#349F6E"/>
<path d="M217.023 95.0068C216.411 95.0068 215.813 94.8254 215.304 94.4855C214.796 94.1456 214.399 93.6625 214.165 93.0973C213.931 92.5321 213.87 91.9101 213.989 91.3101C214.108 90.7101 214.403 90.1589 214.836 89.7263C215.268 89.2937 215.819 88.9991 216.42 88.8798C217.02 88.7604 217.641 88.8217 218.207 89.0558C218.772 89.2899 219.255 89.6864 219.595 90.1951C219.935 90.7037 220.116 91.3018 220.116 91.9136C220.116 92.734 219.79 93.5207 219.21 94.1008C218.63 94.6809 217.843 95.0068 217.023 95.0068ZM217.023 88.8622C216.418 88.8622 215.826 89.0418 215.323 89.3781C214.82 89.7145 214.428 90.1926 214.197 90.7518C213.965 91.3111 213.905 91.9263 214.024 92.5198C214.142 93.1132 214.434 93.6582 214.863 94.0856C215.291 94.5131 215.837 94.8038 216.431 94.921C217.024 95.0382 217.639 94.9767 218.198 94.7441C218.757 94.5116 219.234 94.1185 219.569 93.6146C219.905 93.1107 220.083 92.5188 220.081 91.9136C220.081 91.5123 220.002 91.1149 219.848 90.7443C219.695 90.3736 219.469 90.0369 219.185 89.7535C218.901 89.47 218.564 89.2454 218.193 89.0925C217.822 88.9395 217.424 88.8613 217.023 88.8622Z" fill="#263238"/>
<path d="M234.125 77.5737L219.658 85.0171L212.668 84.0256L216.411 77.3922L231.667 72.0156L234.125 77.5737Z" fill="#EBEBEB"/>
<path d="M212.066 82.6611L215.607 76.9564L231.282 71.2656L234.431 77.4591L219.237 83.527L212.066 82.6611Z" fill="#455A64"/>
<path d="M229.517 74.9439C229.035 75.2237 228.528 75.4575 228.002 75.6421C227.045 76.0262 225.726 76.5499 224.259 77.1085L220.496 78.505C219.539 78.8541 218.911 79.0636 218.946 79.0426C218.827 78.896 221.208 77.8766 224.127 76.7593C227.045 75.6421 229.482 74.8322 229.517 74.9439Z" fill="white"/>
<path d="M227.073 77.75C226.026 78.4322 224.892 78.9701 223.701 79.349C222.551 79.8448 221.339 80.1807 220.098 80.3475C222.404 79.425 224.732 78.5589 227.08 77.75H227.073Z" fill="white"/>
<path d="M255.371 83.2689L260.664 111.22L313.508 101.214L304.326 73.9961L255.371 83.2689Z" fill="#EBEBEB"/>
<path d="M304.321 73.9926L254.266 83.4688L258.954 108.236L309.01 98.7596L304.321 73.9926Z" fill="white"/>
<path d="M309.01 98.7616L308.912 98.3147C308.849 98.0075 308.765 97.5746 308.654 97.023C308.43 95.8778 308.102 94.2299 307.683 92.0793C306.859 87.799 305.665 81.6055 304.192 74.0225L304.352 74.1272L254.309 83.6514L254.455 83.4349C256.096 92.1701 257.681 100.549 259.127 108.23L258.924 108.09L294.87 101.373L305.253 99.4529L308.046 98.9432L308.744 98.8175L308.996 98.7826L308.772 98.8384L308.074 98.9781L305.337 99.5227L295.01 101.527L258.98 108.425L258.812 108.46V108.293L254.113 83.5257L254.078 83.3511L254.26 83.3162L304.318 73.8828H304.45V74.0155C305.847 81.6614 307.02 87.8688 307.816 92.1701C308.2 94.2998 308.514 95.9546 308.717 97.0928C308.814 97.6444 308.884 98.0704 308.94 98.3706C308.996 98.6708 309.01 98.7616 309.01 98.7616Z" fill="#263238"/>
<path d="M274.127 85.3686L260.289 87.9883L262.909 101.826L276.747 99.2066L274.127 85.3686Z" fill="white"/>
<path d="M276.745 99.2084C276.715 99.1219 276.692 99.0332 276.676 98.9431C276.634 98.7476 276.585 98.4962 276.515 98.189C276.375 97.4907 276.187 96.5551 275.942 95.396L273.973 85.4319L274.155 85.5576L260.322 88.197C260.322 88.2459 260.595 87.799 260.469 87.9875V88.0294V88.0922V88.2109L260.511 88.4483L260.602 88.9162C260.665 89.2304 260.72 89.5446 260.783 89.8588C260.895 90.4803 261.014 91.0947 261.132 91.7092C261.356 92.9242 261.586 94.1252 261.831 95.2843C262.264 97.6094 262.676 99.802 263.046 101.813L262.864 101.694L272.863 99.8788L275.698 99.383L276.459 99.2573H276.731C276.658 99.2896 276.58 99.3108 276.501 99.3202L275.803 99.4808L273.01 100.046L262.941 102.036H262.787V101.883C262.403 99.8718 261.977 97.6932 261.537 95.3541C261.314 94.195 261.081 93.0033 260.839 91.779C260.72 91.1715 260.602 90.5501 260.49 89.9286C260.427 89.6214 260.371 89.3072 260.308 88.993L260.218 88.5182L260.176 88.2808V88.1621V88.1062V88.0573L260.322 87.8409L274.099 85.1875H274.253V85.3411C275.007 89.4957 275.649 92.966 276.082 95.4379C276.291 96.6179 276.452 97.5326 276.571 98.2309C276.62 98.5242 276.662 98.7685 276.689 98.9291C276.723 99.0187 276.742 99.113 276.745 99.2084Z" fill="#263238"/>
<path d="M276.744 99.2071C276.744 99.2071 276.667 98.851 276.471 98.2226C276.215 97.3232 275.706 96.5162 275.005 95.8974C274.508 95.4423 273.927 95.0889 273.294 94.857C272.549 94.5961 271.754 94.5055 270.969 94.5916H270.641L270.816 94.3123C271.109 93.8142 271.274 93.251 271.296 92.6733C271.318 92.0956 271.196 91.5216 270.941 91.0026C270.687 90.4228 270.26 89.9352 269.719 89.6061C269.153 89.2776 268.502 89.1245 267.848 89.1662C267.11 89.1971 266.401 89.4611 265.823 89.9203C265.274 90.3578 264.894 90.9724 264.748 91.659C264.609 92.2831 264.641 92.9332 264.842 93.5404C265.042 94.1476 265.403 94.6894 265.886 95.1084L266.06 95.248L265.872 95.3667C265.009 95.8783 264.289 96.5987 263.777 97.4615C263.381 98.1311 263.109 98.8668 262.974 99.633C262.879 100.308 262.861 100.992 262.918 101.672C262.856 101.503 262.816 101.327 262.8 101.148C262.728 100.639 262.728 100.122 262.8 99.6121C262.905 98.8115 263.163 98.0386 263.561 97.3358C264.069 96.4098 264.807 95.6305 265.704 95.0734V95.3248C265.165 94.876 264.76 94.2873 264.534 93.6234C264.307 92.9595 264.267 92.246 264.42 91.5612C264.573 90.7921 264.993 90.1021 265.607 89.6131C266.242 89.1054 267.022 88.8121 267.834 88.7752C268.566 88.7219 269.296 88.8924 269.929 89.264C270.523 89.6284 270.997 90.1604 271.29 90.7931C271.565 91.3666 271.692 91.9992 271.662 92.6341C271.631 93.269 271.444 93.8865 271.116 94.431L270.948 94.2635C271.781 94.1829 272.621 94.2903 273.406 94.5777C274.066 94.8334 274.669 95.218 275.18 95.7088C275.909 96.365 276.416 97.2311 276.632 98.1876C276.697 98.4356 276.746 98.6875 276.779 98.9418C276.751 99.1512 276.758 99.2071 276.744 99.2071Z" fill="#263238"/>
<path d="M279.406 84.8857L291.409 82.6094L279.406 84.8857Z" fill="white"/>
<path d="M291.409 82.6094C289.448 83.172 287.455 83.6127 285.439 83.9291C283.449 84.368 281.435 84.6874 279.406 84.8857C281.368 84.328 283.362 83.8874 285.376 83.566C287.367 83.1312 289.382 82.8118 291.409 82.6094Z" fill="#263238"/>
<path d="M279.938 87.6718L282.36 87.2109L279.938 87.6718Z" fill="white"/>
<path d="M282.361 87.2111C282.361 87.3089 281.851 87.4974 281.181 87.6231C280.511 87.7488 279.959 87.7697 279.938 87.672C279.917 87.5742 280.448 87.3927 281.118 87.267C281.788 87.1413 282.34 87.1134 282.361 87.2111Z" fill="#263238"/>
<path d="M302.309 88.4613C302.309 88.5591 297.54 89.5506 291.619 90.6678C285.698 91.785 280.873 92.6229 280.852 92.5182C280.831 92.4134 285.614 91.4708 291.549 90.3117C297.484 89.1526 302.288 88.3635 302.309 88.4613Z" fill="#263238"/>
<path d="M302.889 90.8623C302.889 90.96 298.092 91.9515 292.136 93.0827C286.179 94.2139 281.334 95.0448 281.313 94.947C281.292 94.8493 286.11 93.8508 292.066 92.7266C298.022 91.6024 302.868 90.7715 302.889 90.8623Z" fill="#263238"/>
<path d="M303.068 93.7192C302.802 93.8212 302.526 93.896 302.245 93.9427L299.982 94.4315C298.069 94.8295 295.423 95.3532 292.497 95.9048C289.571 96.4564 286.911 96.9382 284.984 97.3013L282.7 97.6714C282.423 97.7315 282.14 97.7619 281.855 97.7621C282.118 97.6531 282.392 97.5758 282.672 97.5317L284.914 97.0569C286.827 96.6589 289.473 96.1352 292.406 95.5836C295.339 95.032 297.992 94.5432 299.912 94.1871L302.196 93.81C302.482 93.7449 302.775 93.7144 303.068 93.7192Z" fill="#263238"/>
<path d="M281.236 82.1651C281.407 82.0588 281.584 81.9632 281.767 81.8789C282.293 81.6304 282.834 81.4136 283.387 81.2295C285.437 80.5742 287.605 80.3717 289.741 80.636C291.22 80.8055 292.662 81.2184 294.007 81.8579C294.766 82.2288 295.437 82.7572 295.976 83.408C296.269 83.7645 296.475 84.1837 296.58 84.633C296.684 85.0824 296.683 85.5497 296.577 85.9986C296.287 86.9115 295.709 87.7056 294.929 88.2609C294.154 88.8377 293.321 89.3315 292.443 89.7342C290.632 90.6302 288.712 91.2874 286.731 91.6893C284.739 92.1094 282.678 92.0808 280.698 91.6055C279.751 91.3855 278.845 91.0129 278.017 90.5023C277.198 90.0183 276.557 89.2839 276.188 88.4075C276.039 87.972 275.988 87.509 276.039 87.0516C276.089 86.5942 276.24 86.1535 276.481 85.7612C276.925 85.0468 277.504 84.4254 278.185 83.9317C279.389 83.0662 280.701 82.3619 282.088 81.837C284.095 81.0768 286.226 80.6979 288.372 80.7198C288.951 80.732 289.529 80.7763 290.104 80.8524C290.307 80.8736 290.507 80.9109 290.704 80.9641C290.501 80.9697 290.298 80.958 290.097 80.9292C289.706 80.9292 289.119 80.8594 288.372 80.8664C286.249 80.8916 284.148 81.3033 282.172 82.0814C280.816 82.609 279.537 83.3133 278.366 84.1761C277.722 84.6522 277.174 85.247 276.753 85.9287C276.54 86.2817 276.406 86.677 276.361 87.0872C276.316 87.4973 276.362 87.9122 276.495 88.3028C276.84 89.116 277.437 89.7966 278.199 90.244C278.995 90.732 279.865 91.088 280.775 91.2983C282.709 91.7481 284.717 91.7719 286.661 91.3681C288.61 90.9715 290.499 90.3261 292.282 89.4479C293.137 89.0688 293.949 88.6007 294.705 88.0514C295.435 87.5427 295.976 86.8059 296.241 85.9567C296.34 85.5573 296.344 85.1403 296.254 84.739C296.163 84.3377 295.979 83.9632 295.718 83.6454C295.21 83.0283 294.577 82.5261 293.86 82.1721C292.54 81.5338 291.125 81.1141 289.671 80.9292C287.566 80.6449 285.425 80.8067 283.387 81.404C282.688 81.6275 282.123 81.83 281.76 81.9836C281.591 82.0602 281.416 82.121 281.236 82.1651Z" fill="#349F6E"/>
<path d="M295.59 81.7999C296.69 80.6718 297.876 79.6306 299.137 78.6857C300.322 77.644 301.585 76.694 302.915 75.8438C301.813 76.973 300.628 78.0165 299.367 78.9649C298.183 80.0058 296.92 80.9536 295.59 81.7999Z" fill="#349F6E"/>
<path d="M300.082 81.2024C298.716 81.6622 297.315 82.0078 295.892 82.2358L295.397 82.3405L295.117 82.3964L295.18 82.1241C295.422 80.8631 295.94 79.6711 296.695 78.6328C296.786 78.6747 295.997 80.1341 295.529 82.1799L295.32 81.9565L295.822 81.8518C297.221 81.5133 298.646 81.296 300.082 81.2024Z" fill="#349F6E"/>
<path d="M292.595 84.2227C290.424 84.7394 288.225 85.138 286.011 85.4167C283.811 85.8132 281.592 86.0929 279.363 86.2546C281.537 85.7374 283.738 85.3389 285.955 85.0606C288.151 84.6597 290.368 84.38 292.595 84.2227Z" fill="#349F6E"/>
<path d="M277.614 78.9037C277.728 79.5008 277.662 80.1182 277.424 80.6778C277.187 81.2374 276.789 81.714 276.281 82.0474C275.773 82.3808 275.177 82.556 274.569 82.5508C273.962 82.5456 273.369 82.3602 272.867 82.0181C272.364 81.676 271.975 81.1925 271.747 80.6289C271.519 80.0653 271.464 79.4469 271.588 78.8518C271.712 78.2568 272.01 77.7119 272.443 77.2861C272.877 76.8603 273.428 76.5727 274.025 76.4598C274.825 76.3085 275.652 76.4809 276.325 76.9391C276.998 77.3973 277.461 78.1039 277.614 78.9037Z" fill="#349F6E"/>
<path d="M274.587 82.5693C273.792 82.5708 273.027 82.266 272.451 81.7182C271.874 81.1704 271.531 80.4217 271.492 79.6275C271.453 78.8333 271.721 78.0546 272.242 77.4531C272.762 76.8515 273.493 76.4734 274.285 76.3971C275.076 76.3208 275.867 76.5522 276.492 77.0434C277.117 77.5345 277.53 78.2476 277.643 79.0346C277.757 79.8216 277.563 80.6221 277.102 81.2699C276.64 81.9177 275.948 82.363 275.167 82.5135C274.976 82.549 274.782 82.5677 274.587 82.5693ZM274.587 76.4177C274.395 76.4194 274.203 76.4381 274.015 76.4736C273.42 76.585 272.871 76.8704 272.439 77.2936C272.006 77.7168 271.709 78.2588 271.585 78.851C271.46 79.4433 271.514 80.0591 271.74 80.6206C271.966 81.182 272.353 81.6639 272.853 82.0052C273.353 82.3465 273.942 82.5319 274.547 82.5379C275.153 82.5438 275.746 82.3702 276.252 82.0389C276.759 81.7075 277.155 81.2334 277.392 80.6766C277.629 80.1197 277.695 79.5051 277.583 78.9105C277.45 78.2121 277.079 77.5816 276.532 77.1268C275.986 76.6721 275.298 76.4214 274.587 76.4177Z" fill="#263238"/>
<path d="M73.1836 5.66276L323.145 12.4777L323.298 5.02734L73.1836 5.66276Z" fill="#E0E0E0"/>
<path d="M328.653 0.105469H70.6484V5.66357H328.653V0.105469Z" fill="#455A64"/>
<path d="M337.008 72.619C338.168 71.818 339.535 71.3695 340.944 71.3275C342.353 71.2855 343.744 71.6518 344.95 72.3823C346.156 73.1128 347.125 74.1764 347.74 75.4449C348.355 76.7133 348.59 78.1326 348.417 79.5317C348.236 80.9841 347.621 82.4435 347.998 83.8539C348.697 86.5073 352.432 87.5407 352.886 90.236C352.969 91.3144 352.809 92.3977 352.418 93.4061C352.132 94.4465 351.95 95.6265 352.488 96.5622C352.976 97.1964 353.544 97.7644 354.178 98.252C355.993 100.067 355.965 103.258 354.436 105.332C353.623 106.333 352.583 107.125 351.403 107.643C350.223 108.162 348.936 108.392 347.649 108.314C345.071 108.126 342.584 107.277 340.429 105.849" fill="#263238"/>
<path d="M338.806 74.2817C338.381 73.0631 337.651 71.9738 336.685 71.118C335.72 70.2622 334.55 69.6686 333.29 69.3939C330.783 68.7864 327.704 67.9974 325.371 69.1425C323.876 69.7896 322.673 70.9657 321.992 72.4452C321.294 74.2398 322.348 77.5844 322.865 79.4278C323.381 81.2712 323.765 83.3729 322.746 85.0138C321.726 86.6547 319.75 87.2063 318.501 88.5819C317.674 89.5749 317.265 90.8506 317.361 92.1393C317.458 93.428 318.052 94.6287 319.017 95.4876C316.797 95.355 314.925 97.6173 315.002 99.8448C315.079 102.072 316.706 104.034 318.689 105.019C320.727 105.931 322.952 106.35 325.183 106.241C327.942 106.247 330.695 105.962 333.394 105.389C335.615 104.921 337.933 104.174 339.378 102.421C340.712 100.808 341.075 98.6088 341.082 96.5211C341.082 89.1335 337.214 81.8088 338.897 74.6098" fill="#263238"/>
<path d="M327.656 153.164C327.656 153.164 313.209 200.045 314.124 215.19C315.038 230.335 326.036 268.006 326.036 268.006L327.656 153.164Z" fill="#EB996E"/>
<path d="M348.05 145.174C348.371 145.09 354.711 154.398 354.921 162.4C354.939 163.185 354.908 163.971 354.83 164.753C354.56 167.553 353.89 170.299 352.84 172.908C347.484 186.434 341.961 202.493 341.87 206.131C341.584 217.387 336.717 267.934 336.717 267.934L326.034 268.213L322.836 206.439L328.129 144.664L348.05 145.174Z" fill="#FFBE9D"/>
<path d="M265.799 112.464C266.895 111.319 271.867 115.634 272.313 115.955C272.76 116.277 273.256 115.648 272.837 115.369C272.237 114.971 265.987 110.586 267.049 109.455C267.635 108.826 268.669 109.992 268.669 109.992C268.669 109.992 274.206 114.517 274.687 113.972C275.169 113.428 272.013 110.642 270.882 109.783C269.751 108.924 269.709 108.058 270.498 107.877C271.036 107.751 274.569 110.293 275.665 111.172C276.761 112.052 279.743 114.496 279.261 112.094C278.779 109.692 279.31 107.667 279.841 107.206C280.371 106.745 281.181 107.332 281.007 108.072C280.892 108.892 280.892 109.724 281.007 110.544C281.08 111.205 281.264 111.85 281.551 112.45C281.886 113.148 282.201 113.728 282.48 114.21C285.804 116.221 295.377 121.534 305.131 122.666C306.891 122.868 313.706 112.192 313.706 112.192L324.326 120.829C324.326 120.829 324.41 121.527 316.764 130.947C306.367 143.788 276.091 121.87 276.091 121.87V121.835C273.667 120.8 271.301 119.634 269.004 118.343C265.896 116.43 266.064 116.144 266.35 115.823C267.111 114.957 271.936 118.986 271.406 117.519C270.875 116.053 264.968 113.337 265.799 112.464Z" fill="#FFBE9D"/>
<path d="M257.342 104.789C257.342 104.789 255.589 120.765 257.838 129.514L279.19 128.586C279.19 128.586 274.617 112.819 277.424 105.836L257.342 104.789Z" fill="#EBEBEB"/>
<path d="M257.426 104.27C257.426 104.27 257.572 121.523 258.445 126.788L280.091 125.762C280.091 125.762 278.192 108.801 278.925 104.27H257.426Z" fill="#349F6E"/>
<path d="M275.656 111.519C273.253 111.848 270.834 112.056 268.409 112.14C265.989 112.347 263.561 112.431 261.133 112.392C261.133 112.294 264.373 112.014 268.381 111.777C272.389 111.54 275.65 111.421 275.656 111.519Z" fill="white"/>
<path d="M275.664 115.216C275.664 115.314 272.424 115.593 268.409 115.831C264.394 116.068 261.148 116.187 261.141 116.089C263.545 115.76 265.964 115.552 268.388 115.468C270.808 115.261 273.236 115.177 275.664 115.216Z" fill="white"/>
<path d="M271.985 118.761C270.625 119.028 269.244 119.173 267.859 119.194C266.481 119.337 265.093 119.361 263.711 119.264C265.071 118.998 266.452 118.853 267.838 118.831C269.216 118.688 270.603 118.665 271.985 118.761Z" fill="white"/>
<path d="M358.862 197.795C358.862 197.795 360.957 152.995 354.505 149.084C348.053 145.174 318.245 151.472 318.245 151.472C318.245 151.472 308.965 193.766 309.356 194.115C312.442 196.796 358.862 197.795 358.862 197.795Z" fill="#455A64"/>
<path d="M359.037 193.876C357.245 193.963 355.449 193.933 353.66 193.785C351.867 193.755 350.077 193.601 348.305 193.324C350.097 193.238 351.893 193.271 353.681 193.422C355.475 193.452 357.264 193.604 359.037 193.876Z" fill="#263238"/>
<path d="M355.746 197.783C355.604 197.179 355.576 196.554 355.663 195.94C355.639 195.32 355.734 194.701 355.942 194.117C356.092 194.72 356.121 195.347 356.026 195.961C356.056 196.581 355.961 197.201 355.746 197.783Z" fill="#263238"/>
<path d="M350.259 197.791C350.028 197.117 349.912 196.409 349.917 195.696C349.793 195.004 349.793 194.294 349.917 193.602C350.148 194.276 350.263 194.984 350.259 195.696C350.381 196.389 350.381 197.098 350.259 197.791Z" fill="#263238"/>
<path d="M325.807 269.235V267.838L336.832 267.629V271.93L336.134 271.979C333.103 272.147 320.709 272.628 318.677 272.021C316.471 271.344 325.807 269.235 325.807 269.235Z" fill="#349F6E"/>
<g opacity="0.6">
<path d="M332.895 271.994C333.055 271.069 333.553 270.235 334.291 269.655C335.018 269.077 335.934 268.791 336.861 268.852V271.924L332.895 271.994Z" fill="white"/>
</g>
<g opacity="0.6">
<path d="M321.262 270.414C321.262 270.414 317.987 271.364 318.399 271.901C318.811 272.439 331.352 272.425 336.882 271.901V271.657L322.253 271.804C322.253 271.804 321.925 270.442 321.262 270.414Z" fill="white"/>
</g>
<path d="M336.94 271.623H336.752L336.207 271.658L334.21 271.741C332.527 271.804 330.195 271.86 327.619 271.867C325.042 271.874 322.731 271.825 321.027 271.769L319.03 271.692L318.485 271.658C318.423 271.667 318.359 271.667 318.297 271.658H319.03L321.027 271.699C322.717 271.699 325.042 271.762 327.619 271.755C330.195 271.748 332.506 271.706 334.21 271.672L336.207 271.623H336.752C336.814 271.615 336.878 271.615 336.94 271.623Z" fill="#263238"/>
<path d="M322.232 272.042C322.145 271.713 322.021 271.394 321.862 271.092C321.661 270.81 321.426 270.552 321.164 270.324C321.505 270.453 321.788 270.701 321.96 271.022C322.175 271.316 322.273 271.68 322.232 272.042Z" fill="#263238"/>
<path d="M325.681 270.133C325.681 270.133 325.5 269.966 325.339 269.715C325.223 269.569 325.142 269.4 325.102 269.219C325.102 269.219 325.29 269.393 325.451 269.645C325.611 269.896 325.716 270.113 325.681 270.133Z" fill="#263238"/>
<path d="M326.576 269.666C326.576 269.666 326.374 269.575 326.185 269.407C325.997 269.24 325.864 269.079 325.885 269.051C325.906 269.023 326.087 269.135 326.276 269.309C326.465 269.484 326.597 269.638 326.576 269.666Z" fill="#263238"/>
<path d="M327.133 268.625C326.949 268.69 326.754 268.716 326.56 268.702C326.365 268.722 326.167 268.7 325.98 268.639C326.166 268.572 326.364 268.549 326.56 268.569C326.753 268.544 326.948 268.564 327.133 268.625Z" fill="#263238"/>
<path d="M327.322 267.895C327.135 268.023 326.913 268.089 326.687 268.083C326.451 268.129 326.206 268.1 325.988 268C326.202 267.96 326.42 267.944 326.638 267.951C326.863 267.91 327.093 267.892 327.322 267.895Z" fill="#263238"/>
<path d="M325.308 269.178C325.077 269.217 324.841 269.217 324.61 269.178C324.353 269.146 324.101 269.09 323.855 269.01C323.705 268.968 323.56 268.909 323.423 268.836C323.338 268.786 323.276 268.706 323.248 268.612C323.237 268.56 323.241 268.507 323.26 268.457C323.278 268.408 323.311 268.365 323.353 268.333C323.623 268.2 323.93 268.165 324.223 268.234C324.516 268.302 324.776 268.471 324.959 268.71C325.069 268.847 325.148 269.007 325.189 269.178C325.203 269.24 325.203 269.304 325.189 269.366C325.112 269.15 325.001 268.947 324.861 268.766C324.702 268.58 324.494 268.445 324.26 268.375C323.982 268.283 323.678 268.306 323.416 268.438C323.304 268.521 323.353 268.647 323.478 268.724C323.602 268.794 323.733 268.85 323.869 268.891C324.108 268.974 324.354 269.037 324.603 269.08C325.036 269.157 325.308 269.157 325.308 269.178Z" fill="#263238"/>
<path d="M325.123 269.212C325.038 269.064 325.011 268.89 325.046 268.724C325.065 268.538 325.13 268.361 325.235 268.207C325.295 268.103 325.38 268.015 325.483 267.952C325.585 267.889 325.701 267.852 325.821 267.844C325.894 267.859 325.957 267.902 325.999 267.963C326.041 268.024 326.057 268.099 326.045 268.172C326.029 268.285 325.986 268.393 325.919 268.486C325.827 268.641 325.717 268.784 325.591 268.912C325.481 269.039 325.342 269.137 325.186 269.198C325.186 269.198 325.325 269.073 325.521 268.849C325.634 268.721 325.732 268.58 325.814 268.43C325.912 268.277 325.975 268.011 325.814 267.976C325.654 267.942 325.458 268.137 325.353 268.277C325.254 268.414 325.185 268.571 325.151 268.738C325.129 268.895 325.12 269.054 325.123 269.212Z" fill="#263238"/>
<path d="M337.01 268.828C337.01 268.828 336.696 268.828 336.2 268.863C335.556 268.926 334.942 269.168 334.427 269.561C333.924 269.975 333.542 270.518 333.324 271.132C333.241 271.389 333.173 271.65 333.121 271.914C333.121 271.914 333.121 271.837 333.121 271.691C333.143 271.49 333.183 271.291 333.24 271.097C333.437 270.451 333.825 269.879 334.354 269.458C334.882 269.036 335.526 268.785 336.2 268.737C336.4 268.718 336.601 268.718 336.801 268.737C336.875 268.756 336.946 268.787 337.01 268.828Z" fill="#263238"/>
<path d="M331.696 270.561C331.17 270.684 330.63 270.738 330.09 270.721C329.552 270.751 329.012 270.708 328.484 270.595C328.484 270.595 329.183 270.595 330.09 270.595C330.998 270.595 331.696 270.526 331.696 270.561Z" fill="#263238"/>
<path d="M333.872 270.554C333.872 270.554 333.816 270.707 333.74 270.875C333.663 271.042 333.628 271.182 333.593 271.182C333.558 271.182 333.537 271.007 333.593 270.819C333.649 270.63 333.851 270.533 333.872 270.554Z" fill="#263238"/>
<path d="M334.679 269.527C334.679 269.527 334.638 269.667 334.526 269.779C334.414 269.89 334.295 269.967 334.267 269.946C334.24 269.925 334.316 269.8 334.428 269.688C334.54 269.576 334.659 269.527 334.679 269.527Z" fill="#263238"/>
<path d="M335.845 269.082C335.845 269.124 335.692 269.124 335.524 269.18C335.356 269.236 335.252 269.32 335.224 269.299C335.196 269.278 335.287 269.117 335.482 269.054C335.678 268.991 335.887 269.054 335.845 269.082Z" fill="#263238"/>
<path d="M336.669 268.862C336.669 268.897 336.62 268.953 336.529 268.988C336.438 269.023 336.347 268.988 336.34 268.988C336.333 268.988 336.389 268.897 336.48 268.862C336.571 268.827 336.655 268.827 336.669 268.862Z" fill="#263238"/>
<path d="M307.016 121.365L319.312 128.277L320.164 127.411L321.071 129.115L320.234 152.025L353.589 145.741L350.866 141.823C348.248 138.206 348.834 133.13 349.909 128.794L350.279 127.314L357.318 127.425C357.318 127.425 358.016 123.459 357.318 114.633C357.318 114.501 357.318 114.375 357.318 114.242C356.952 110.302 355.058 106.661 352.043 104.098C349.027 101.536 345.129 100.254 341.181 100.529L329.025 101.353C329.025 101.353 319.354 99.3625 312.755 110.73L307.016 121.365Z" fill="#349F6E"/>
<path d="M321.84 117.648C321.748 118.236 321.601 118.813 321.4 119.373C321.037 120.539 320.604 121.915 320.129 123.444C319.662 124.772 319.74 126.23 320.346 127.501C320.607 128.026 320.84 128.564 321.044 129.114C320.651 128.662 320.328 128.154 320.087 127.606C319.783 127.021 319.583 126.387 319.494 125.734C319.421 124.929 319.507 124.118 319.745 123.346C320.241 121.733 320.758 120.323 321.142 119.289C321.317 118.72 321.551 118.17 321.84 117.648Z" fill="#263238"/>
<path d="M357.317 127.138C356.999 127.169 356.678 127.169 356.36 127.138L353.77 126.971C351.591 126.817 348.575 126.58 345.244 126.272L343.659 126.14H343.484V125.965C343.673 123.012 343.666 120.379 343.785 118.501C343.833 117.558 343.903 116.797 343.959 116.28C343.974 116.011 344.019 115.744 344.092 115.484C344.124 115.753 344.124 116.025 344.092 116.294C344.092 116.881 344.05 117.621 344.022 118.508C343.966 120.386 344.022 123.012 343.847 125.993L343.68 125.798L345.272 125.937C348.596 126.224 351.612 126.503 353.791 126.726L356.367 127.006C356.687 127.018 357.006 127.062 357.317 127.138Z" fill="#263238"/>
<path d="M357.136 114.013C356.978 114.003 356.821 113.975 356.669 113.929L355.328 113.629C353.692 113.238 352.034 112.947 350.363 112.756C349.202 112.644 348.033 112.644 346.872 112.756C345.555 112.882 344.257 113.16 343.004 113.587C340.322 114.425 337.55 115.877 334.345 116.652C333.552 116.843 332.744 116.967 331.929 117.022C331.136 117.055 330.341 117.011 329.555 116.89C328.091 116.601 326.679 116.092 325.366 115.381C322.852 114.069 320.736 112.644 318.712 111.995C317.158 111.389 315.473 111.202 313.824 111.45C313.227 111.586 312.643 111.773 312.078 112.009C312.6 111.666 313.183 111.429 313.796 111.311C315.48 110.998 317.218 111.15 318.823 111.75C320.918 112.386 323.055 113.803 325.547 115.081C326.834 115.771 328.219 116.261 329.653 116.533C331.201 116.773 332.78 116.694 334.297 116.303C337.439 115.542 340.218 114.097 342.934 113.266C344.215 112.841 345.541 112.569 346.886 112.456C348.05 112.37 349.219 112.398 350.377 112.539C352.055 112.752 353.717 113.081 355.349 113.524L356.669 113.894C356.828 113.917 356.985 113.957 357.136 114.013Z" fill="#FAFAFA"/>
<path d="M342.935 132.923C342.632 132.96 342.326 132.979 342.021 132.979C341.191 133.034 340.366 133.155 339.556 133.342C338.358 133.631 337.176 133.983 336.016 134.396C334.696 134.857 333.223 135.388 331.672 135.793C330.183 136.195 328.635 136.329 327.099 136.191C325.84 136.045 324.631 135.613 323.566 134.927C322.852 134.458 322.247 133.841 321.792 133.118C321.673 132.923 321.573 132.718 321.492 132.504C321.429 132.357 321.408 132.281 321.422 132.274C321.436 132.267 321.576 132.567 321.911 133.042C322.392 133.712 323.002 134.279 323.705 134.71C324.75 135.34 325.921 135.731 327.134 135.856C328.63 135.972 330.134 135.83 331.582 135.437C333.139 135.053 334.577 134.529 335.911 134.089C337.087 133.681 338.288 133.349 339.507 133.097C340.332 132.928 341.172 132.843 342.014 132.846C342.323 132.828 342.633 132.854 342.935 132.923Z" fill="#FAFAFA"/>
<g opacity="0.3">
<path d="M343.953 115.91C342.451 119.625 342.27 123.717 341.753 127.69C341.236 131.663 340.252 135.789 337.564 138.736C334.875 141.683 330.581 143.051 326.629 144.203L343.994 142.688L343.953 115.91Z" fill="black"/>
</g>
<path d="M343.012 214.604C343.012 214.604 349.247 188.07 354.819 171.912C360.405 155.601 352.383 145.246 352.383 145.246L320.821 148.933L314.747 172.269C314.747 172.269 309.922 197.189 311.856 215.56L343.012 214.604Z" fill="#349F6E"/>
<path d="M352.103 178C351.854 177.55 351.579 177.114 351.279 176.695C350.411 175.589 349.277 174.722 347.983 174.174C346.067 173.357 343.974 173.04 341.902 173.252C339.356 173.54 336.834 174.007 334.354 174.649C331.846 175.286 329.244 175.463 326.673 175.172C324.591 174.766 322.607 173.962 320.828 172.805C319.627 172.066 318.384 171.394 317.107 170.794C316.192 170.396 315.654 170.25 315.668 170.215C315.802 170.224 315.934 170.252 316.059 170.299C316.434 170.401 316.802 170.524 317.163 170.669C318.469 171.219 319.735 171.858 320.954 172.582C322.719 173.688 324.675 174.455 326.722 174.844C329.262 175.106 331.829 174.919 334.305 174.293C336.803 173.653 339.344 173.198 341.909 172.931C344.034 172.733 346.174 173.086 348.123 173.957C349.44 174.54 350.579 175.46 351.426 176.625C351.557 176.804 351.674 176.993 351.775 177.19C351.858 177.333 351.932 177.48 351.998 177.63C352.048 177.749 352.083 177.873 352.103 178Z" fill="#FAFAFA"/>
<path d="M344.66 204.587C344.357 204.226 344.03 203.886 343.682 203.568C342.681 202.743 341.474 202.207 340.191 202.018C338.302 201.775 336.384 202.003 334.605 202.681C332.552 203.379 330.415 204.482 328.055 205.355C325.818 206.216 323.402 206.509 321.024 206.207C319.088 205.957 317.221 205.328 315.528 204.357C314.389 203.712 313.35 202.905 312.442 201.962C312.194 201.708 311.961 201.44 311.744 201.159C311.658 201.067 311.585 200.963 311.527 200.852C311.527 200.852 311.876 201.229 312.54 201.857C313.47 202.754 314.518 203.519 315.654 204.133C317.332 205.05 319.168 205.64 321.066 205.872C323.392 206.149 325.75 205.855 327.936 205.013C330.275 204.161 332.405 203.037 334.493 202.367C336.331 201.682 338.313 201.475 340.254 201.766C341.553 201.991 342.762 202.577 343.745 203.456C344.006 203.7 344.24 203.972 344.443 204.266C344.611 204.496 344.673 204.587 344.66 204.587Z" fill="#FAFAFA"/>
<g opacity="0.2">
<path d="M317.036 186.256C316.669 187.502 316.588 188.814 316.798 190.096C317.106 191.353 318.195 192.519 319.473 192.484C320.171 192.484 320.869 192.135 321.477 192.484C321.898 192.86 322.169 193.376 322.238 193.936C322.601 195.246 323.32 196.429 324.313 197.356C325.307 198.282 326.537 198.917 327.869 199.188C329.2 199.46 330.58 199.358 331.858 198.895C333.135 198.431 334.259 197.624 335.107 196.562C336.824 194.411 337.201 191.451 336.838 188.72C336.475 185.99 335.393 183.421 334.492 180.851C332.68 175.489 331.323 169.983 330.435 164.393C330.147 163.295 330.191 162.136 330.561 161.063C331.35 159.352 333.494 158.856 335.344 158.535C342.397 157.307 349.369 155.651 356.222 153.577C352.333 152.718 348.276 153.312 344.351 154.031C339.999 154.827 335.679 155.772 331.392 156.866C330.285 157.057 329.248 157.539 328.389 158.263C327.664 159.155 327.182 160.221 326.993 161.356C324.647 170.36 321.101 179.007 316.449 187.066" fill="black"/>
</g>
<path d="M326.581 157.902L356.809 153.014C356.431 151.558 355.965 150.126 355.412 148.727C354.805 147.205 353.122 146.018 352.354 145.236C350.559 143.42 325.359 154.536 325.359 154.536L326.581 157.902Z" fill="#455A64"/>
<path d="M326.583 157.898L318.246 155.126L319.489 148.234L327.659 154.609L326.583 157.898Z" fill="#455A64"/>
<path d="M326.692 157.9C326.692 157.9 324.381 166.209 324.451 171.704C324.521 177.2 324.737 188.679 325.498 192.729C326.259 196.779 337.257 192.149 335.134 188.386C333.011 184.622 329.255 171.125 329.157 167.948C329.059 164.771 329.353 156.859 329.353 156.859L326.692 157.9Z" fill="#455A64"/>
<path d="M334.491 187.232C334.308 187.721 334.031 188.169 333.674 188.551C332.057 190.517 329.733 191.771 327.202 192.043C326.685 192.129 326.156 192.115 325.645 192.001C326.148 191.903 326.656 191.831 327.167 191.784C328.36 191.585 329.513 191.194 330.581 190.625C331.654 190.044 332.624 189.289 333.451 188.391C334.086 187.692 334.415 187.204 334.491 187.232Z" fill="#263238"/>
<path d="M328.604 194.31C328.513 194.345 328.234 193.835 327.983 193.172C327.731 192.508 327.599 191.943 327.696 191.908C327.794 191.873 328.066 192.376 328.318 193.039C328.569 193.702 328.702 194.275 328.604 194.31Z" fill="#263238"/>
<path d="M332.037 193.021C331.946 193.063 331.611 192.581 331.297 191.946C330.982 191.31 330.787 190.751 330.878 190.71C330.969 190.668 331.297 191.143 331.618 191.785C331.939 192.427 332.128 192.972 332.037 193.021Z" fill="#263238"/>
<path d="M334.896 190.867C334.812 190.916 334.449 190.441 334.086 189.806C333.723 189.17 333.5 188.619 333.591 188.57C333.681 188.521 334.037 188.989 334.4 189.631C334.764 190.274 334.987 190.818 334.896 190.867Z" fill="#263238"/>
<path d="M324.717 156.36C321.812 161.666 323.055 168.642 319.654 173.634C318.3 175.631 316.254 177.209 315.465 179.486C315.145 180.394 315.066 181.37 315.235 182.318C315.404 183.266 315.815 184.155 316.428 184.897C317.066 185.618 317.907 186.129 318.841 186.36C319.775 186.592 320.758 186.535 321.658 186.196C322.965 185.577 323.99 184.487 324.528 183.145C325.058 181.812 325.419 180.419 325.603 178.997C326.679 172.741 327.752 166.482 328.822 160.221C329.032 158.971 329.234 157.61 328.62 156.499C328.005 155.389 326.211 154.9 325.478 155.941" fill="#455A64"/>
<path d="M324.715 185.877C324.642 185.508 324.595 185.135 324.575 184.76C324.505 184.062 324.422 182.986 324.352 181.694C324.198 179.104 324.1 175.515 324.191 171.556C324.282 167.597 324.547 164.015 324.813 161.431C324.945 160.139 325.071 159.099 325.176 158.38C325.213 158.005 325.278 157.634 325.371 157.27C325.389 157.645 325.373 158.021 325.322 158.394C325.253 159.183 325.169 160.209 325.071 161.452C324.868 164.036 324.645 167.611 324.554 171.563C324.464 175.515 324.554 179.09 324.61 181.681C324.652 182.93 324.687 183.957 324.715 184.746C324.751 185.122 324.751 185.501 324.715 185.877Z" fill="#263238"/>
<path d="M322.774 185.298C322.302 185.335 321.828 185.281 321.377 185.137C319.173 184.583 317.263 183.21 316.036 181.297C315.754 180.926 315.554 180.5 315.449 180.047C316.244 181.374 317.302 182.524 318.558 183.428C319.814 184.331 321.242 184.967 322.753 185.298H322.774Z" fill="#263238"/>
<path d="M319.224 184.06C319.287 184.144 318.896 184.542 318.358 184.954C317.821 185.366 317.339 185.652 317.276 185.561C317.213 185.47 317.604 185.079 318.142 184.667C318.68 184.255 319.134 183.983 319.224 184.06Z" fill="#263238"/>
<path d="M316.484 181.911C316.533 181.994 316.282 182.232 316.016 182.539C315.751 182.846 315.535 183.119 315.444 183.077C315.353 183.035 315.444 182.651 315.744 182.302C316.044 181.952 316.435 181.82 316.484 181.911Z" fill="#263238"/>
<path d="M329.605 153.854C329.605 153.854 329.731 153.987 329.836 154.287C329.966 154.719 330 155.175 329.934 155.621C329.835 156.295 329.53 156.922 329.061 157.415C328.45 157.999 327.636 158.323 326.791 158.316C325.946 158.309 325.137 157.974 324.536 157.381C324.069 156.885 323.77 156.255 323.684 155.579C323.623 155.131 323.663 154.675 323.803 154.245C323.842 154.084 323.921 153.935 324.033 153.812C323.89 154.376 323.857 154.961 323.936 155.537C324.051 156.145 324.343 156.706 324.773 157.15C325.326 157.657 326.049 157.938 326.798 157.938C327.548 157.938 328.271 157.657 328.823 157.15C329.263 156.715 329.562 156.158 329.682 155.551C329.77 154.986 329.743 154.409 329.605 153.854Z" fill="#263238"/>
<path d="M327.983 157.807C327.792 157.095 327.558 156.396 327.285 155.712C326.894 155.097 326.465 154.507 326 153.945C326.687 154.302 327.248 154.861 327.608 155.546C327.967 156.232 328.108 157.011 328.011 157.779L327.983 157.807Z" fill="#263238"/>
<path d="M303.244 151.228C303.559 149.678 310.066 150.691 310.625 150.74C311.184 150.789 311.26 149.979 310.758 149.965C310.059 149.965 302.379 149.553 302.714 148.03C302.874 147.186 304.362 147.625 304.362 147.625C304.362 147.625 311.463 148.519 311.582 147.793C311.7 147.067 307.546 146.397 306.135 146.271C304.725 146.145 304.222 145.426 304.795 144.874C305.186 144.483 309.529 144.77 310.925 144.923C312.322 145.077 316.148 145.58 314.458 143.799C312.769 142.018 312.154 140.021 312.364 139.358C312.428 139.212 312.536 139.09 312.672 139.008C312.809 138.927 312.967 138.889 313.126 138.901C313.285 138.914 313.436 138.975 313.558 139.077C313.68 139.179 313.768 139.316 313.809 139.47C314.155 140.225 314.601 140.929 315.136 141.565C315.547 142.09 316.045 142.541 316.609 142.898C317.265 143.31 317.838 143.596 318.334 143.897C322.216 143.827 333.151 143.247 342.012 139.009C343.611 138.248 343.729 126.07 343.729 126.07L357.324 127.278C357.324 127.278 357.324 130.77 356.291 139.847C354.385 156.263 317 153.756 317 153.756C314.398 154.17 311.776 154.443 309.145 154.573C305.5 154.573 305.493 154.273 305.563 153.875C305.751 152.73 311.98 153.589 310.744 152.625C309.508 151.661 303 152.408 303.244 151.228Z" fill="#FFBE9D"/>
<g opacity="0.3">
<path d="M315.641 126.427C318.193 123.929 320.279 120.994 321.799 117.762C320.808 120.401 319.802 123.131 319.879 125.952C319.879 126.783 319.97 127.747 319.355 128.312C318.242 127.51 317.013 126.881 315.71 126.448" fill="black"/>
</g>
<path d="M342.405 75.5541L342.37 77.3137L342.021 103.617C341.987 104.364 341.805 105.097 341.486 105.773C341.167 106.449 340.716 107.055 340.161 107.556C339.606 108.057 338.956 108.443 338.251 108.69C337.545 108.938 336.798 109.044 336.051 109C332.748 108.931 330.067 106.375 330.053 103.289C330.053 100.049 329.976 96.6414 329.976 96.6414C329.976 96.6414 325.787 95.9431 324.942 90.5037C324.509 87.7945 324.649 83.3536 324.872 79.7297C324.921 78.9555 325.125 78.1992 325.473 77.5061C325.822 76.813 326.307 76.1975 326.899 75.6966C327.491 75.1957 328.178 74.8197 328.92 74.5912C329.661 74.3627 330.441 74.2865 331.212 74.3671L342.405 75.5541Z" fill="#FFBE9D"/>
<path d="M326.113 83.0933C326.113 83.2785 326.187 83.4561 326.318 83.587C326.449 83.718 326.626 83.7915 326.812 83.7915C326.985 83.7924 327.153 83.7285 327.282 83.6123C327.411 83.4961 327.492 83.3359 327.51 83.1631C327.51 82.9779 327.436 82.8003 327.305 82.6694C327.174 82.5384 326.997 82.4649 326.812 82.4649C326.638 82.464 326.47 82.5279 326.341 82.6441C326.212 82.7603 326.131 82.9204 326.113 83.0933Z" fill="#263238"/>
<path d="M325.835 82.041C325.926 82.1317 326.449 81.7407 327.231 81.7407C328.013 81.7407 328.53 82.1178 328.628 82.027C328.726 81.9362 328.579 81.8175 328.342 81.643C328.015 81.4182 327.628 81.2988 327.231 81.3008C326.84 81.3012 326.458 81.4259 326.142 81.6569C325.87 81.8315 325.793 81.9991 325.835 82.041Z" fill="#263238"/>
<path d="M333.207 83.0933C333.207 83.2785 333.281 83.4561 333.412 83.587C333.543 83.718 333.72 83.7915 333.905 83.7915C334.079 83.7924 334.247 83.7285 334.376 83.6123C334.505 83.4961 334.586 83.3359 334.604 83.1631C334.604 82.9779 334.53 82.8003 334.399 82.6694C334.268 82.5384 334.09 82.4649 333.905 82.4649C333.732 82.464 333.564 82.5279 333.435 82.6441C333.306 82.7603 333.224 82.9204 333.207 83.0933Z" fill="#263238"/>
<path d="M333.222 82.1777C333.305 82.2685 333.836 81.8774 334.618 81.8774C335.4 81.8774 335.917 82.2545 336.015 82.1637C336.112 82.0729 335.966 81.9542 335.721 81.7797C335.399 81.5569 335.017 81.4375 334.625 81.4375C334.233 81.4375 333.851 81.5569 333.529 81.7797C333.257 81.9682 333.18 82.1358 333.222 82.1777Z" fill="#263238"/>
<path d="M330.491 87.7446C330.096 87.6237 329.688 87.551 329.276 87.5282C329.08 87.5282 328.899 87.4723 328.864 87.3397C328.852 87.14 328.898 86.9414 328.996 86.7671C329.178 86.3062 329.366 85.8175 329.562 85.3077C330.089 84.0708 330.517 82.7936 330.84 81.4883C330.213 82.6772 329.683 83.9148 329.255 85.189C329.066 85.7057 328.885 86.1945 328.717 86.6623C328.592 86.8927 328.555 87.1607 328.612 87.4165C328.643 87.4834 328.687 87.543 328.742 87.5912C328.798 87.6394 328.863 87.6751 328.934 87.6958C329.039 87.7217 329.146 87.7357 329.255 87.7377C329.664 87.7976 330.08 87.7999 330.491 87.7446Z" fill="#263238"/>
<path d="M329.977 96.6395C332.547 96.6792 335.078 96.0048 337.287 94.6914C337.287 94.6914 335.521 98.4341 330.074 97.9243L329.977 96.6395Z" fill="#EB996E"/>
<path d="M330.812 89.5602C330.958 89.3831 331.145 89.2446 331.357 89.1569C331.569 89.0692 331.799 89.0351 332.027 89.0575C332.193 89.0721 332.353 89.1198 332.5 89.1978C332.646 89.2758 332.775 89.3824 332.879 89.5113C332.98 89.6377 333.039 89.7919 333.049 89.9529C333.059 90.114 333.019 90.2742 332.935 90.4121C332.814 90.5462 332.656 90.6411 332.48 90.6846C332.305 90.7282 332.12 90.7184 331.951 90.6565C331.598 90.53 331.275 90.3328 331.001 90.0769C330.913 90.0197 330.839 89.9433 330.785 89.8535C330.757 89.8121 330.742 89.7635 330.742 89.7138C330.742 89.6641 330.757 89.6155 330.785 89.5742" fill="#349F6E"/>
<path d="M332.704 88.2697C332.578 88.2697 332.578 89.0797 331.88 89.6662C331.182 90.2527 330.316 90.155 330.309 90.2667C330.302 90.3784 330.504 90.4273 330.867 90.4343C331.345 90.4413 331.809 90.2807 332.18 89.9804C332.536 89.6889 332.766 89.2713 332.822 88.8143C332.85 88.4652 332.76 88.2627 332.704 88.2697Z" fill="#263238"/>
<path d="M343.323 100.506C341.717 99.9471 339.832 99.3815 339.21 97.7895C338.641 96.1707 338.599 94.413 339.092 92.7691C339.308 92.0149 339.615 91.184 339.28 90.4718C338.968 89.9908 338.565 89.5757 338.093 89.2499C337.155 88.3492 336.602 87.1206 336.55 85.8214C336.505 84.531 336.744 83.2463 337.248 82.0578C337.6 81.4349 337.716 80.7065 337.577 80.005C337.356 79.5551 337.033 79.163 336.634 78.8598C335.858 78.136 335.218 77.2802 334.742 76.3322C334.541 76.0142 334.414 75.6556 334.37 75.2824C334.325 74.9093 334.364 74.5308 334.483 74.1745C334.874 73.3576 335.88 73.0992 336.808 73.0294C338.966 72.8688 341.347 73.3436 342.716 75.0124C343.952 76.5067 344.112 78.5945 344.175 80.5287C344.454 86.6314 344.72 92.783 343.665 98.795" fill="#263238"/>
<path d="M322.81 74.945C323.108 75.133 323.418 75.3009 323.738 75.4477C324.02 75.6582 324.284 75.8918 324.527 76.146C324.667 76.2856 324.821 76.4323 324.953 76.5929C324.953 76.6278 325.009 76.6697 325.051 76.7116L325.205 76.8652L325.582 77.2213C325.947 77.5574 326.337 77.8655 326.748 78.143C327.648 78.748 328.693 79.102 329.776 79.1683C330.859 79.2345 331.939 79.0108 332.906 78.52C333.789 78.0947 334.562 77.4738 335.169 76.7046C336.097 75.4687 336.237 74.4702 335.811 73.9116C335.385 73.353 334.31 73.4437 333.109 73.744C332.522 73.8933 331.928 74.0099 331.328 74.0931C330.864 74.1567 330.392 74.1449 329.932 74.0582C329.706 73.9996 329.487 73.9201 329.276 73.8208C328.975 73.6881 328.577 73.4786 328.151 73.2761C327.935 73.1714 327.697 73.0667 327.453 72.9689L327.069 72.8293L326.643 72.7036C326.11 72.5652 325.557 72.5203 325.009 72.5709C324.575 72.5871 324.15 72.6996 323.765 72.9C323.38 73.1005 323.044 73.3839 322.782 73.73C322.631 73.898 322.55 74.1173 322.555 74.343C322.56 74.5688 322.651 74.7841 322.81 74.945Z" fill="#263238"/>
<path d="M333.028 79.2318C333.105 79.4343 333.852 79.3366 334.732 79.4483C335.612 79.56 336.331 79.7904 336.442 79.6089C336.554 79.4273 336.373 79.3296 336.086 79.1341C335.706 78.8837 335.269 78.7302 334.816 78.6872C334.365 78.6356 333.909 78.6882 333.482 78.8408C333.161 78.9735 332.993 79.1341 333.028 79.2318Z" fill="#263238"/>
<path d="M326.113 79.8599C326.245 80.0344 326.762 79.8599 327.384 79.8599C328.005 79.8599 328.536 79.9716 328.654 79.797C328.773 79.6225 328.654 79.5387 328.396 79.3781C328.086 79.1846 327.725 79.0873 327.36 79.0985C326.995 79.1097 326.641 79.2289 326.343 79.4409C326.113 79.6015 326.05 79.7761 326.113 79.8599Z" fill="#263238"/>
<path d="M13.582 264.828L12.0039 271.217L22.8757 272.439L23.2667 266.106L13.582 264.828Z" fill="#455A64"/>
<path d="M18.4896 265.141C18.3616 267.112 18.0126 269.063 17.4492 270.957C17.5773 268.985 17.9263 267.034 18.4896 265.141Z" fill="#263238"/>
<path d="M22.9157 271.743C22.3878 271.732 21.862 271.674 21.3446 271.569L17.574 271.01C16.1007 270.787 14.781 270.563 13.8104 270.368C13.2878 270.294 12.7749 270.163 12.2812 269.977C12.8091 269.993 13.3347 270.053 13.8523 270.158L17.6229 270.717C19.0962 270.94 20.4159 271.164 21.3865 271.359C21.9075 271.437 22.4197 271.565 22.9157 271.743Z" fill="#263238"/>
<path d="M63.2905 269.107L63.1788 265.141H51.4062L51.4831 272.291H52.1813C55.4422 272.402 68.7648 272.612 70.9294 271.9C73.3454 271.139 63.2905 269.107 63.2905 269.107Z" fill="#455A64"/>
<path d="M51.3086 272.026H51.5111H52.0906L54.2413 272.075C56.0497 272.075 58.5565 272.075 61.3216 272.04C64.0866 272.005 66.5934 271.879 68.4019 271.774L70.5455 271.635L71.1251 271.593H71.3275C71.2604 271.584 71.1922 271.584 71.1251 271.593H70.5385L68.3949 271.684C66.5864 271.76 64.0866 271.858 61.3216 271.914C58.5565 271.97 56.0497 271.984 54.2413 271.984H51.5111C51.4418 271.987 51.3735 272.001 51.3086 272.026Z" fill="#263238"/>
<path d="M67.2081 272.001C67.2957 271.644 67.4221 271.297 67.5851 270.968C67.7887 270.667 68.0227 270.389 68.2834 270.137C67.9196 270.275 67.6225 270.548 67.4525 270.898C67.2388 271.223 67.1519 271.616 67.2081 272.001Z" fill="#263238"/>
<path d="M63.6903 270.309C63.7252 270.309 63.8858 270.128 64.0534 269.849C64.221 269.569 64.3257 269.339 64.2908 269.318C64.2559 269.297 64.0953 269.499 63.9277 269.779C63.7601 270.058 63.6554 270.288 63.6903 270.309Z" fill="#263238"/>
<path d="M62.7225 269.826C62.7225 269.826 62.9319 269.728 63.1274 269.539C63.323 269.351 63.4696 269.176 63.4417 269.148C63.4137 269.12 63.2322 269.246 63.0297 269.435C62.8272 269.623 62.6945 269.798 62.7225 269.826Z" fill="#263238"/>
<path d="M62.0938 268.726C62.497 268.828 62.9194 268.828 63.3227 268.726C62.9183 268.633 62.4981 268.633 62.0938 268.726Z" fill="#263238"/>
<path d="M61.8672 267.949C62.077 268.077 62.3199 268.14 62.5654 268.131C62.8041 268.162 63.0468 268.124 63.2637 268.019C63.0314 267.998 62.7977 267.998 62.5654 268.019C62.3357 267.972 62.1017 267.949 61.8672 267.949Z" fill="#263238"/>
<path d="M64.0664 269.277C64.3185 269.317 64.5754 269.317 64.8275 269.277C65.1 269.234 65.3686 269.168 65.6305 269.081C65.7886 269.03 65.9407 268.962 66.0844 268.879C66.1734 268.823 66.2382 268.736 66.2659 268.634C66.2759 268.578 66.2701 268.52 66.2492 268.467C66.2282 268.414 66.1929 268.368 66.1472 268.334C65.8543 268.2 65.5239 268.171 65.2121 268.252C64.9003 268.334 64.6263 268.521 64.4365 268.781C64.322 268.932 64.2411 269.106 64.1991 269.291C64.1822 269.36 64.1822 269.431 64.1991 269.5C64.269 269.264 64.3801 269.042 64.5272 268.844C64.6963 268.642 64.919 268.492 65.1696 268.411C65.3149 268.357 65.4695 268.333 65.6243 268.34C65.7791 268.347 65.9308 268.386 66.0704 268.453C66.1961 268.537 66.1542 268.676 66.0215 268.76C65.8864 268.839 65.7437 268.905 65.5956 268.956C65.3438 269.05 65.0845 269.122 64.8205 269.172C64.3527 269.242 64.0664 269.249 64.0664 269.277Z" fill="#263238"/>
<path d="M64.2677 269.305C64.3611 269.147 64.3886 268.959 64.3445 268.781C64.3184 268.582 64.2441 268.393 64.1281 268.229C64.0619 268.118 63.968 268.025 63.8555 267.96C63.7429 267.895 63.6156 267.861 63.4857 267.859C63.4474 267.868 63.4111 267.883 63.379 267.906C63.3469 267.928 63.3196 267.957 63.2988 267.99C63.2779 268.023 63.264 268.061 63.2577 268.099C63.2514 268.138 63.253 268.177 63.2622 268.215C63.2805 268.336 63.3258 268.45 63.3949 268.551C63.5006 268.713 63.6248 268.863 63.765 268.998C63.8849 269.132 64.0359 269.235 64.2049 269.298C64.2049 269.298 64.0513 269.165 63.8348 268.928C63.7108 268.792 63.603 268.642 63.5136 268.481C63.4019 268.32 63.3251 268.034 63.5136 267.999C63.7021 267.964 63.9046 268.16 64.0233 268.306C64.1287 268.453 64.2046 268.619 64.2468 268.795C64.2721 268.964 64.2791 269.135 64.2677 269.305Z" fill="#263238"/>
<path d="M51.4766 268.831C51.7673 268.816 52.0586 268.816 52.3494 268.831C53.0457 268.9 53.7099 269.158 54.2696 269.578C54.8216 270.004 55.2447 270.574 55.4915 271.226C55.687 271.729 55.708 272.071 55.7359 272.064C55.7512 271.986 55.7512 271.905 55.7359 271.827C55.7115 271.61 55.6647 271.398 55.5963 271.191C55.3642 270.505 54.9341 269.902 54.3604 269.459C53.779 269.033 53.0837 268.79 52.3633 268.761C52.1474 268.741 51.93 268.741 51.714 268.761C51.5604 268.761 51.4766 268.782 51.4766 268.831Z" fill="#263238"/>
<path d="M57.2148 270.926C57.7823 271.04 58.3614 271.084 58.9395 271.058C59.5199 271.075 60.0999 271.014 60.6642 270.877C60.6642 270.835 59.8892 270.877 58.9395 270.912C57.9899 270.947 57.2148 270.884 57.2148 270.926Z" fill="#263238"/>
<path d="M54.9062 270.965C54.9062 270.965 54.9691 271.126 55.0529 271.308C55.1367 271.489 55.1786 271.636 55.2205 271.629C55.2624 271.622 55.2763 271.447 55.1786 271.245C55.0808 271.042 54.9272 270.924 54.9062 270.965Z" fill="#263238"/>
<path d="M54.0039 269.904C54.0039 269.904 54.0598 270.051 54.1854 270.17C54.3111 270.288 54.4298 270.372 54.4578 270.337C54.4857 270.302 54.4089 270.19 54.2832 270.072C54.1575 269.953 54.0318 269.876 54.0039 269.904Z" fill="#263238"/>
<path d="M52.7468 269.436C52.7468 269.471 52.9144 269.471 53.089 269.527C53.2636 269.583 53.3892 269.674 53.4242 269.646C53.4591 269.618 53.3474 269.457 53.1309 269.388C52.9144 269.318 52.7329 269.395 52.7468 269.436Z" fill="#263238"/>
<path d="M51.8516 269.221C51.8516 269.256 51.9074 269.319 52.0122 269.354C52.1169 269.389 52.2007 269.389 52.2147 269.354C52.2286 269.319 52.1588 269.256 52.061 269.221C51.9633 269.187 51.8655 269.187 51.8516 269.221Z" fill="#263238"/>
<path d="M106.426 115.533L103.075 117.132L99.9883 112.293L101.797 108.557C101.964 108.208 102.153 107.817 102.341 107.37C102.564 106.849 102.699 106.294 102.739 105.729C102.817 105.032 102.798 104.327 102.684 103.634C102.516 103.013 103.179 102.496 103.626 102.866C104.073 103.236 104.576 104.961 104.241 106.993C103.905 109.025 106.335 106.867 107.194 106.085C108.053 105.303 110.937 103.027 111.384 103.111C112.082 103.243 112.026 103.991 111.118 104.752C110.211 105.513 107.662 107.978 108.088 108.431C108.612 108.487 109.105 108.706 109.499 109.057C109.892 109.407 110.165 109.872 110.281 110.387C110.504 111.399 110.693 112.796 110.12 113.263C108.939 114.098 107.705 114.856 106.426 115.533Z" fill="#B78876"/>
<path d="M41.458 70.3985L41.3672 99.5017L53.852 100.095L54.2151 93.0149C54.2151 93.0149 58.649 93.8947 59.8011 89.782C60.4994 87.1496 60.3527 66.8164 60.3527 66.8164L41.458 70.3985Z" fill="#B78876"/>
<path d="M63.1574 69.6873C62.3195 71.4259 58.3115 74.575 58.3115 74.575L56.5031 79.4209C54.932 78.192 52.8232 78.2618 52.4252 81.0199C52.139 83.0169 54.6178 83.4219 54.6178 83.4219C53.1724 85.8798 52.1948 87.8698 50.0931 90.209C47.8168 92.7366 46.539 93.002 44.0671 93.002H41.3509C41.3509 93.002 35.7649 88.3516 36.8821 76.0902C37.9993 63.8289 49.0038 67.4109 51.6292 64.3456C55.8886 59.4229 65.9644 63.8778 63.1574 69.6873Z" fill="#263238"/>
<path d="M37.4961 86.4007C37.4961 86.4007 37.6218 86.4007 37.8452 86.4007C38.1761 86.3884 38.5054 86.3487 38.8298 86.282C40.0252 86.0043 41.1276 85.4194 42.0278 84.5852C43.3202 83.3131 44.4104 81.8508 45.2607 80.2491C46.315 78.5104 47.4741 76.4715 49.4502 75.0959C50.423 74.4502 51.5003 73.9777 52.6342 73.6994C53.7235 73.4201 54.7849 73.2456 55.7904 73.0501C57.5921 72.8166 59.3165 72.1741 60.8318 71.1718C61.8214 70.4479 62.5394 69.4127 62.8707 68.2321C62.9745 67.7957 63.0122 67.3461 62.9824 66.8984C62.9824 66.8984 62.9824 67.0171 63.0243 67.2406C63.0352 67.5763 63.0024 67.9119 62.9265 68.2391C62.6145 69.4456 61.897 70.5082 60.8946 71.2486C59.3759 72.2793 57.6378 72.9416 55.8183 73.1827C53.8283 73.5877 51.5031 73.881 49.534 75.1797C47.5649 76.4785 46.4268 78.5523 45.3445 80.284C44.4806 81.8938 43.371 83.3591 42.0557 84.6271C41.1413 85.464 40.0207 86.0424 38.8088 86.3029C38.3799 86.4095 37.936 86.4425 37.4961 86.4007Z" fill="#455A64"/>
<path d="M36.8555 76.4318C36.8555 76.4318 37.051 76.355 37.435 76.2293C37.9887 76.0307 38.5623 75.8925 39.1457 75.8173C40.0803 75.6758 41.0343 75.882 41.827 76.3969C42.3253 76.7274 42.6719 77.2423 42.7906 77.8283C42.8564 78.1551 42.8404 78.493 42.7442 78.8122C42.6479 79.1313 42.4744 79.4217 42.239 79.6577C41.9664 79.8997 41.6186 80.0402 41.2545 80.0557C40.8763 80.063 40.5037 79.9638 40.1792 79.7694C39.4932 79.3629 38.983 78.7158 38.7477 77.954C38.47 77.1281 38.4389 76.2391 38.6584 75.3958C38.8779 74.5525 39.3385 73.7915 39.9836 73.2058C40.6878 72.5747 41.5715 72.1792 42.5113 72.0747C43.485 72.0174 44.4607 72.1429 45.3881 72.4448C46.3353 72.7495 47.3039 72.9829 48.2859 73.143C49.301 73.2757 50.3291 73.2757 51.3442 73.143C52.3592 73.0219 53.3502 72.7489 54.2839 72.333C54.7372 72.1467 55.1462 71.8669 55.4843 71.512C55.8223 71.1571 56.0818 70.735 56.246 70.2732C56.3769 69.8203 56.3858 69.3409 56.2717 68.8836C56.1577 68.4262 55.9248 68.0071 55.5966 67.6687C55.2625 67.3655 54.8458 67.1685 54.3995 67.1026C53.9532 67.0367 53.4974 67.105 53.0899 67.2986C52.6889 67.4702 52.3604 67.7764 52.1612 68.1645C51.9745 68.5428 51.9063 68.9687 51.9657 69.3864C52.0221 69.7891 52.1641 70.175 52.3821 70.5183C52.6001 70.8615 52.8891 71.1541 53.2295 71.3764C53.8842 71.7803 54.6388 71.9931 55.4081 71.9909C56.119 72.0036 56.827 71.8974 57.5028 71.6767C58.6744 71.3102 59.7387 70.663 60.6031 69.7914C61.6798 68.724 62.4368 67.3769 62.7886 65.9021C62.8654 65.5111 62.9143 65.3086 62.9143 65.3086C62.9143 65.3086 62.9143 65.5111 62.8166 65.9091C62.4874 67.4026 61.7389 68.7713 60.659 69.8542C59.7887 70.7367 58.7178 71.3956 57.5378 71.7744C56.8625 71.9991 56.1546 72.11 55.443 72.1026C54.6548 72.1076 53.881 71.8924 53.2086 71.4812C52.8495 71.2483 52.545 70.9406 52.316 70.579C52.087 70.2174 51.9389 69.8106 51.8819 69.3864C51.8158 68.9422 51.8889 68.4885 52.0914 68.0876C52.3033 67.6743 52.6509 67.3464 53.0759 67.159C53.5086 66.9551 53.9919 66.8834 54.4651 66.953C54.9383 67.0225 55.3805 67.2302 55.7363 67.55C56.0867 67.9037 56.3361 68.3445 56.4589 68.827C56.5817 69.3095 56.5733 69.816 56.4345 70.2941C56.2678 70.7773 55.9996 71.2192 55.6479 71.5902C55.2962 71.9611 54.8692 72.2525 54.3956 72.4448C53.447 72.8707 52.4394 73.1508 51.4071 73.2757C50.3805 73.4119 49.3404 73.4119 48.3138 73.2757C47.3246 73.1172 46.3489 72.8838 45.3951 72.5774C44.4954 72.2807 43.548 72.1552 42.6021 72.2074C41.9545 72.2749 41.3304 72.4872 40.7759 72.8285C40.2215 73.1698 39.7508 73.6314 39.3989 74.1792C39.0469 74.7269 38.8225 75.3468 38.7425 75.9929C38.6624 76.6391 38.7286 77.295 38.9363 77.9121C39.1699 78.6484 39.6672 79.2725 40.3328 79.6647C40.6386 79.8481 40.9886 79.9446 41.3452 79.944C41.6854 79.9283 42.0103 79.7978 42.2669 79.5739C42.4916 79.3502 42.6576 79.0744 42.7502 78.7711C42.8427 78.4678 42.859 78.1464 42.7976 77.8353C42.7455 77.5534 42.6378 77.2847 42.4808 77.045C42.3237 76.8052 42.1205 76.5991 41.8829 76.4388C41.1052 75.9314 40.17 75.7231 39.2505 75.8522C38.6681 75.9182 38.0945 76.0469 37.5398 76.2363L36.8555 76.4318Z" fill="#455A64"/>
<path d="M28.6224 155.658L12.0039 264.83L25.8084 266.582L45.2897 175.013L50.1914 267.197L65.155 266.939L62.6064 152.844L28.6224 155.658Z" fill="#263238"/>
<path d="M49.8628 267.55V267.215L45.1007 177.67L26.0803 266.963L11.6055 265.127L28.3217 155.333H28.594L62.9481 152.484V152.854L65.5037 267.298L49.8628 267.55ZM45.4918 172.357L50.5192 266.837L64.7985 266.586L62.2638 153.218L28.9292 156.011L12.4015 264.526L25.5356 266.195L45.4918 172.357Z" fill="#263238"/>
<path d="M60.705 266.736C60.6072 266.736 60.5234 244.86 60.5234 217.858C60.5234 190.857 60.6072 168.98 60.705 168.98C60.8027 168.98 60.8865 190.85 60.8865 217.858C60.8865 244.867 60.7748 266.736 60.705 266.736Z" fill="#455A64"/>
<path d="M22.7706 266.363C22.764 266.281 22.764 266.2 22.7706 266.118C22.7706 265.944 22.8474 265.72 22.8962 265.42L23.399 262.767C23.8668 260.442 24.5302 257.118 25.3471 252.991C27.0159 244.766 29.39 233.44 32.1132 220.906C34.8364 208.373 37.406 197.082 39.3122 188.912C40.2688 184.842 41.0509 181.546 41.5955 179.235C41.8748 178.117 42.0843 177.238 42.2379 176.616C42.3147 176.33 42.3706 176.106 42.4194 175.918C42.4356 175.839 42.459 175.762 42.4893 175.688C42.4975 175.766 42.4975 175.846 42.4893 175.925C42.4543 176.099 42.4055 176.33 42.3496 176.623C42.21 177.252 42.0145 178.131 41.7701 179.263C41.2534 181.574 40.5132 184.849 39.5985 188.961C37.7551 197.152 35.2344 208.464 32.5042 220.976C29.774 233.489 27.3721 244.829 25.6334 253.04C24.7676 257.125 24.0693 260.442 23.5386 262.76C23.2942 263.891 23.1057 264.778 22.9661 265.399L22.8125 266.097C22.8076 266.187 22.7936 266.276 22.7706 266.363Z" fill="#455A64"/>
<path d="M50.1904 174.913C49.4135 175.052 48.6266 175.129 47.8373 175.143C46.3779 175.248 44.346 175.353 42.1535 175.569C39.961 175.785 37.964 176.079 36.5046 176.267C35.7256 176.409 34.9362 176.486 34.1445 176.498C34.904 176.277 35.6789 176.114 36.4627 176.009C37.9011 175.764 39.8981 175.429 42.1186 175.206C44.339 174.982 46.364 174.927 47.8233 174.892C48.6117 174.837 49.4031 174.844 50.1904 174.913Z" fill="#455A64"/>
<path d="M62.9647 167.826C62.4412 168.011 61.8827 168.076 61.3308 168.015C59.9796 167.952 58.6756 167.499 57.5773 166.709C56.4791 165.919 55.6338 164.828 55.1442 163.567C54.9041 163.066 54.7868 162.516 54.8021 161.961C54.8649 161.961 54.9697 162.568 55.3817 163.469C55.9208 164.64 56.75 165.655 57.7906 166.416C58.8427 167.161 60.0692 167.623 61.3517 167.756C62.3363 167.861 62.9577 167.763 62.9647 167.826Z" fill="#455A64"/>
<path d="M26.9766 161.835H63.3417L61.9451 132.438C61.7077 126.664 61.7426 125.972 61.603 120.645C61.603 120.645 67.0284 127.208 71.3018 131.817C72.5604 133.171 74.2179 134.088 76.0336 134.436C77.8493 134.784 79.7286 134.544 81.3985 133.751L103.743 118.166L99.5531 107.462L79.2479 119.891C78.3192 119.318 70.408 108.02 64.9476 102.532C61.4496 99.0162 56.736 96.9768 51.7786 96.8341C47.6595 96.7401 43.5386 96.9057 39.4404 97.3299C36.4592 97.6519 33.6831 99.0015 31.5885 101.147C29.4938 103.293 28.2113 106.1 27.9611 109.089C27.5701 113.809 27.8843 119.283 27.8843 128.598L26.9766 161.835Z" fill="#349F6E"/>
<path d="M32.8447 100.02C29.4162 101.542 15.095 119.892 14.0826 131.804C13.3285 140.686 30.6103 139.722 30.6103 139.722C30.6103 139.722 31.7833 103.273 31.2736 103.79" fill="#349F6E"/>
<path d="M29.3544 103.129C29.3544 103.129 29.3544 103.262 29.3544 103.513C29.3544 103.764 29.3056 104.162 29.2706 104.602C29.2008 105.552 29.1031 106.92 29.0123 108.617C28.8168 112.011 28.6562 116.696 28.4956 121.884C28.335 127.072 28.1883 131.764 28.0138 135.151C27.93 136.848 27.8392 138.216 27.7694 139.166C27.7345 139.606 27.6996 139.962 27.6786 140.255C27.6577 140.548 27.6367 140.632 27.6367 140.632C27.6367 140.632 27.6367 140.499 27.6367 140.255C27.6367 140.011 27.6716 139.599 27.6996 139.159C27.7484 138.16 27.8183 136.799 27.8951 135.144C28.0417 131.75 28.1744 127.058 28.335 121.877C28.4956 116.696 28.6771 112.004 28.8936 108.61C28.9983 106.913 29.11 105.545 29.2008 104.595C29.2427 104.162 29.2846 103.799 29.3125 103.513C29.3405 103.227 29.3544 103.129 29.3544 103.129Z" fill="#263238"/>
<path d="M27.9124 126.512C27.7741 126.761 27.6103 126.995 27.4236 127.21C27.1024 127.622 26.6485 128.174 26.1179 128.76C25.5872 129.347 25.0844 129.856 24.7214 130.219C24.5273 130.423 24.3145 130.607 24.0859 130.771C24.255 130.547 24.4418 130.337 24.6445 130.143C25.0007 129.766 25.4964 129.249 26.0411 128.662C26.5857 128.076 27.0396 127.538 27.3817 127.147C27.5393 126.92 27.7169 126.707 27.9124 126.512Z" fill="#263238"/>
<path d="M78.4102 123.501C78.4737 122.897 78.5881 122.299 78.7523 121.714C78.8706 121.119 79.0316 120.533 79.2341 119.961C79.1712 120.565 79.0568 121.163 78.892 121.748C78.7803 122.345 78.6191 122.931 78.4102 123.501Z" fill="#263238"/>
<path d="M80.4482 123.816C80.222 123.159 80.0423 122.487 79.9106 121.805C79.7377 121.134 79.6071 120.453 79.5195 119.766C79.7464 120.42 79.9261 121.09 80.0572 121.77C80.2304 122.443 80.361 123.126 80.4482 123.816Z" fill="#263238"/>
<path d="M62.5364 121.593C62.5364 121.593 62.4596 121.53 62.3269 121.397C62.1943 121.265 61.9638 121.055 61.7404 120.832C61.2377 120.343 60.5045 119.624 59.6456 118.702C57.9419 116.873 55.5399 114.191 54.1923 110.533C53.545 108.824 53.2528 107.002 53.3334 105.177C53.3629 103.683 53.693 102.211 54.304 100.848C54.7388 99.9398 55.3853 99.1496 56.1893 98.5436C56.4114 98.3787 56.6447 98.2294 56.8875 98.0967L57.1389 97.957C57.1389 97.957 56.7968 98.1525 56.2451 98.5855C55.4642 99.2035 54.8379 99.9948 54.4157 100.897C53.826 102.248 53.5126 103.703 53.494 105.177C53.4139 106.983 53.7038 108.787 54.3459 110.477C55.6865 114.108 58.0606 116.761 59.7434 118.632C60.5953 119.561 61.3145 120.287 61.8382 120.797L62.4037 121.376L62.5364 121.593Z" fill="#263238"/>
<path d="M37.6802 111.203C37.6034 111.266 36.9819 110.645 36.3395 109.807C35.8864 109.337 35.5284 108.785 35.2852 108.18C35.8115 108.562 36.2654 109.035 36.6258 109.576C37.0729 110.05 37.4302 110.601 37.6802 111.203Z" fill="#FAFAFA"/>
<path d="M46.3725 121.07C45.2724 122.51 43.9829 123.795 42.5391 124.89C43.044 124.136 43.6449 123.45 44.3266 122.851C44.9242 122.167 45.6125 121.568 46.3725 121.07Z" fill="#FAFAFA"/>
<path d="M54.7794 135.223C54.4148 134.651 54.086 134.056 53.7949 133.443C53.4028 132.888 53.046 132.31 52.7266 131.711C53.3314 132.083 53.8162 132.621 54.1231 133.261C54.5219 133.84 54.7494 134.52 54.7794 135.223Z" fill="#FAFAFA"/>
<path d="M32.9735 133.627C32.0782 131.858 31.7282 129.863 31.9681 127.895C32.0798 127.895 32.1217 129.2 32.401 130.771C32.6803 132.342 33.0783 133.585 32.9735 133.627Z" fill="#FAFAFA"/>
<path d="M44.5557 139.853C44.1177 139.144 43.8766 138.332 43.8575 137.499C43.7267 136.68 43.8084 135.841 44.0949 135.062C44.2066 135.062 44.0949 136.159 44.2205 137.471C44.3462 138.784 44.6535 139.818 44.5557 139.853Z" fill="#FAFAFA"/>
<path d="M39.9762 148.911C39.0382 148.542 38.1494 148.059 37.3298 147.472C36.4451 146.992 35.6222 146.406 34.8789 145.727C35.8144 146.1 36.7027 146.583 37.5253 147.165C38.4085 147.648 39.2313 148.234 39.9762 148.911Z" fill="#FAFAFA"/>
<path d="M57.9838 146.238C57.1013 146.853 56.1877 147.422 55.2466 147.942C54.3689 148.567 53.46 149.148 52.5234 149.681C53.2412 148.858 54.0965 148.165 55.0511 147.635C55.9382 146.999 56.9312 146.526 57.9838 146.238Z" fill="#FAFAFA"/>
<path d="M35.3321 156.477C34.389 156.468 33.4506 156.342 32.5391 156.1C31.5803 155.973 30.6416 155.725 29.7461 155.359C30.701 155.37 31.6509 155.499 32.574 155.743C33.5205 155.871 34.4472 156.117 35.3321 156.477Z" fill="#FAFAFA"/>
<path d="M48.5713 158.33C47.4599 157.329 46.7214 155.98 46.4766 154.504C46.8711 155.111 47.2166 155.748 47.51 156.41C47.9157 157.02 48.2707 157.662 48.5713 158.33Z" fill="#FAFAFA"/>
<path d="M60.9837 155.455C61.0605 155.518 60.6835 156.097 60.1458 156.747C59.6082 157.396 59.0985 157.864 59.0216 157.801C58.9448 157.738 59.3219 157.159 59.8665 156.509C60.4112 155.86 60.9069 155.392 60.9837 155.455Z" fill="#FAFAFA"/>
<path d="M36.1424 117.065C36.1982 117.149 35.7095 117.568 35.0531 118.015C34.3967 118.462 33.8102 118.713 33.7543 118.657C33.6985 118.601 34.1873 118.148 34.8506 117.708C35.5139 117.268 36.0865 116.982 36.1424 117.065Z" fill="#FAFAFA"/>
<path d="M45.5672 106.533C45.0844 105.634 44.734 104.67 44.5268 103.67C44.2028 102.701 44.024 101.689 43.9961 100.668C44.3766 101.608 44.6711 102.58 44.8759 103.573C45.1981 104.536 45.4296 105.527 45.5672 106.533Z" fill="#FAFAFA"/>
<path d="M54.6163 116.121C53.9748 116.032 53.3402 115.899 52.7171 115.723C52.0695 115.66 51.4276 115.548 50.7969 115.387C51.4502 115.248 52.1249 115.241 52.7809 115.367C53.437 115.493 54.0611 115.749 54.6163 116.121Z" fill="#FAFAFA"/>
<path d="M60.8399 107.971C60.1429 108.154 59.4159 108.192 58.7036 108.083C57.9914 107.974 57.3092 107.72 56.6992 107.336C57.4038 107.427 58.103 107.555 58.794 107.72C59.8902 107.902 60.8329 107.867 60.8399 107.971Z" fill="#FAFAFA"/>
<path d="M67.209 117.059C67.0603 116.031 67.1005 114.985 67.3277 113.972C67.4343 112.942 67.7252 111.939 68.1865 111.012C68.076 112.028 67.9081 113.038 67.6838 114.035C67.5811 115.051 67.4226 116.06 67.209 117.059Z" fill="#FAFAFA"/>
<path d="M74.6855 127.785C73.264 126.664 71.9983 125.358 70.9219 123.902C72.3434 125.023 73.609 126.329 74.6855 127.785Z" fill="#FAFAFA"/>
<path d="M80.9085 126.93C80.6968 127.599 80.3682 128.225 79.938 128.78C79.6074 129.397 79.1755 129.954 78.6602 130.428C78.8753 129.76 79.2036 129.134 79.6307 128.578C79.9613 127.961 80.3932 127.403 80.9085 126.93Z" fill="#FAFAFA"/>
<path d="M88.128 123.419C87.6156 122.77 87.1993 122.05 86.8921 121.282C86.4783 120.568 86.1725 119.796 85.9844 118.992C86.916 120.352 87.6386 121.845 88.128 123.419Z" fill="#FAFAFA"/>
<path d="M97.9591 119.349C97.0941 119.379 96.2291 119.287 95.3896 119.077C94.5291 118.983 93.6855 118.772 92.8828 118.448C93.748 118.414 94.6135 118.506 95.4524 118.721C96.3136 118.81 97.1576 119.022 97.9591 119.349Z" fill="#FAFAFA"/>
<path d="M19.8828 129.804C20.4388 128.053 21.2254 126.384 22.222 124.84C21.6623 126.59 20.8759 128.259 19.8828 129.804Z" fill="#FAFAFA"/>
<path d="M25.0959 120.613C24.4392 120.159 23.8573 119.605 23.3712 118.972C22.7973 118.423 22.31 117.789 21.9258 117.094C22.5795 117.546 23.1589 118.097 23.6435 118.728C24.2148 119.284 24.7039 119.919 25.0959 120.613Z" fill="#FAFAFA"/>
<path d="M24.6624 135.38C24.7252 135.456 24.3481 135.875 23.8175 136.315C23.2868 136.755 22.812 137.014 22.7491 136.965C22.6863 136.916 23.0564 136.469 23.587 136.029C24.1177 135.589 24.5995 135.303 24.6624 135.38Z" fill="#FAFAFA"/>
<path d="M26.424 110.844C26.5008 110.907 26.2773 111.318 25.9282 111.758C25.5791 112.198 25.23 112.499 25.1462 112.457C25.0624 112.415 25.2928 111.989 25.6419 111.549C25.991 111.109 26.3472 110.781 26.424 110.844Z" fill="#FAFAFA"/>
<g opacity="0.3">
<path d="M55.6094 113.383C57.9695 120.805 59.7989 128.598 62.159 136.013L61.5934 120.652C59.2945 118.496 57.2833 116.053 55.6094 113.383Z" fill="black"/>
</g>
<g opacity="0.3">
<path d="M27.4907 139.749C25.7241 131.545 25.9336 122.991 28.8872 115.129L27.4907 139.749Z" fill="black"/>
</g>
</g>
<defs>
<clipPath id="clip0_4321_43859">
<rect width="380.549" height="280" fill="white" transform="translate(0.726562)"/>
</clipPath>
</defs>
</svg>
