<svg width="24" height="24" viewBox="0 0 24 24" fill="none" xmlns="http://www.w3.org/2000/svg">
<path d="M22.8969 11.2617L16.9642 9.06574L14.7489 1.80507C14.707 1.66869 14.6225 1.54934 14.5078 1.46454C14.3931 1.37974 14.2542 1.33398 14.1115 1.33398C13.9689 1.33398 13.83 1.37974 13.7153 1.46454C13.6005 1.54934 13.5161 1.66869 13.4742 1.80507L11.2595 9.06574L5.3262 11.2617C5.1984 11.309 5.08813 11.3942 5.01025 11.506C4.93237 11.6178 4.89062 11.7508 4.89062 11.8871C4.89062 12.0233 4.93237 12.1563 5.01025 12.2681C5.08813 12.3799 5.1984 12.4652 5.3262 12.5124L11.2562 14.7077L13.4722 22.1897C13.513 22.3277 13.5974 22.4487 13.7127 22.5347C13.8279 22.6208 13.9679 22.6672 14.1118 22.6671C14.2556 22.6671 14.3956 22.6205 14.5108 22.5343C14.6259 22.4481 14.7102 22.327 14.7509 22.1891L16.9669 14.7071L22.8975 12.5117C23.0257 12.4649 23.1363 12.3798 23.2145 12.2679C23.2926 12.1561 23.3345 12.0229 23.3344 11.8865C23.3343 11.7501 23.2923 11.617 23.2141 11.5052C23.1358 11.3934 23.0251 11.3085 22.8969 11.2617Z" fill="white"/>
<path d="M9.56426 18.5965L8.02159 18.0258L7.42159 15.8258C7.38398 15.684 7.30057 15.5586 7.18433 15.4692C7.06809 15.3797 6.92553 15.3311 6.77885 15.3311C6.63216 15.331 6.48956 15.3794 6.37323 15.4687C6.2569 15.5581 6.17335 15.6834 6.13559 15.8251L5.53559 18.0251L3.99359 18.5958C3.86579 18.643 3.75552 18.7283 3.67764 18.8401C3.59977 18.9519 3.55802 19.0849 3.55802 19.2211C3.55802 19.3574 3.59977 19.4904 3.67764 19.6022C3.75552 19.714 3.86579 19.7992 3.99359 19.8465L5.52759 20.4151L6.13226 22.8298C6.16846 22.9739 6.25178 23.1018 6.36899 23.1932C6.4862 23.2845 6.63058 23.3341 6.77919 23.3341C6.92779 23.334 7.07212 23.2842 7.18923 23.1928C7.30635 23.1013 7.38954 22.9733 7.42559 22.8291L8.03026 20.4145L9.56426 19.8458C9.69249 19.7992 9.80327 19.7142 9.88155 19.6025C9.95984 19.4907 10.0018 19.3576 10.0018 19.2211C10.0018 19.0847 9.95984 18.9515 9.88155 18.8398C9.80327 18.728 9.69249 18.6431 9.56426 18.5965ZM6.67226 4.15446L5.09626 3.57112L4.51226 1.99446C4.46532 1.86636 4.38017 1.75577 4.26833 1.67764C4.15649 1.59951 4.02335 1.55762 3.88693 1.55762C3.7505 1.55762 3.61736 1.59951 3.50552 1.67764C3.39368 1.75577 3.30853 1.86636 3.26159 1.99446L2.67826 3.57112L1.10159 4.15446C0.973786 4.20169 0.86352 4.28695 0.785643 4.39875C0.707765 4.51055 0.666016 4.64354 0.666016 4.77979C0.666016 4.91604 0.707765 5.04903 0.785643 5.16083C0.86352 5.27264 0.973786 5.35789 1.10159 5.40512L2.67826 5.98846L3.26159 7.56512C3.30882 7.69293 3.39408 7.80319 3.50588 7.88107C3.61769 7.95895 3.75067 8.0007 3.88693 8.0007C4.02318 8.0007 4.15616 7.95895 4.26797 7.88107C4.37977 7.80319 4.46503 7.69293 4.51226 7.56512L5.09559 5.98846L6.67226 5.40512C6.80007 5.35789 6.91033 5.27264 6.98821 5.16083C7.06609 5.04903 7.10784 4.91604 7.10784 4.77979C7.10784 4.64354 7.06609 4.51055 6.98821 4.39875C6.91033 4.28695 6.80007 4.20169 6.67226 4.15446Z" fill="white"/>
</svg>
