<svg width="336" height="321" viewBox="0 0 336 321" fill="none" xmlns="http://www.w3.org/2000/svg">
<path d="M20.2012 320.622H58.3641V176.714H20.2012V320.622Z" fill="#F3F2F1"/>
<path d="M265.142 319.828H226.979V224.57H265.142V319.828Z" fill="#F3F2F1"/>
<path d="M323.425 319.828H285.262V149.698H323.425V319.828Z" fill="#F3F2F1"/>
<path d="M162.326 319.828H200.489V155.873H162.326V319.828Z" fill="#F3F2F1"/>
<path d="M85.7656 319.828H123.929V109.454H85.7656V319.828Z" fill="#F3F2F1"/>
<path d="M285.261 15.4519C285.261 15.4519 285.077 15.6482 284.704 16.019C284.325 16.3935 283.769 16.9418 283.041 17.6619C281.567 19.1071 279.398 21.2341 276.595 23.9823C270.968 29.4795 262.799 37.4594 252.613 47.4112C232.207 67.3018 203.721 95.0691 171.373 126.599L171.231 126.739L171.102 126.585C164.715 118.922 158.041 110.913 151.235 102.747C132.96 80.807 115.627 59.9972 100.243 41.528L100.516 41.5129C82.4263 68.7456 67.1358 91.7653 56.3629 107.983C50.9702 116.08 46.7093 122.476 43.7923 126.856C42.3331 129.036 41.2109 130.712 40.4491 131.85C40.0703 132.411 39.7819 132.838 39.584 133.13C39.3885 133.417 39.2832 133.559 39.2832 133.559C39.2832 133.559 39.3727 133.407 39.5607 133.115C39.7531 132.819 40.034 132.387 40.4029 131.82C41.1546 130.675 42.262 128.989 43.7019 126.796C46.6001 122.404 50.834 115.989 56.1923 107.87C66.9377 91.6333 82.1893 68.5875 100.232 41.3238L100.359 41.1334L100.505 41.3094C115.897 59.7721 133.239 80.574 151.523 102.506C158.327 110.673 165.001 118.683 171.386 126.348L171.115 126.334C203.498 94.8397 232.015 67.1041 252.443 47.2359C262.662 37.3187 270.858 29.3662 276.503 23.8871C279.326 21.159 281.509 19.0472 282.993 17.6128C283.732 16.9036 284.296 16.3632 284.68 15.9945C285.061 15.6316 285.261 15.4519 285.261 15.4519Z" fill="#E7E8E5"/>
<path d="M107.456 41.4183C107.456 45.3354 104.285 48.51 100.374 48.51C96.4635 48.51 93.293 45.3354 93.293 41.4183C93.293 37.5012 96.4635 34.3259 100.374 34.3259C104.285 34.3259 107.456 37.5012 107.456 41.4183Z" fill="#E7E8E5"/>
<path d="M46.364 133.559C46.364 137.476 43.1934 140.651 39.2826 140.651C35.3716 140.651 32.2012 137.476 32.2012 133.559C32.2012 129.642 35.3716 126.466 39.2826 126.466C43.1934 126.466 46.364 129.642 46.364 133.559Z" fill="#E7E8E5"/>
<path d="M178.327 126.466C178.327 130.383 175.156 133.559 171.245 133.559C167.335 133.559 164.164 130.383 164.164 126.466C164.164 122.55 167.335 119.375 171.245 119.375C175.156 119.375 178.327 122.55 178.327 126.466Z" fill="#E7E8E5"/>
<path d="M295.959 12.7477C295.959 16.6647 292.79 19.8401 288.879 19.8401C284.967 19.8401 281.797 16.6647 281.797 12.7477C281.797 8.83057 284.967 5.65593 288.879 5.65593C292.79 5.65593 295.959 8.83057 295.959 12.7477Z" fill="#E7E8E5"/>
<path d="M34.5484 39.0626C30.7774 42.9746 30.8866 49.2077 34.7926 52.9841C38.6986 56.7612 44.922 56.6516 48.6926 52.7395C52.4632 48.8275 52.3543 42.5951 48.4483 38.818C44.5423 35.0416 38.3192 35.1513 34.5484 39.0626ZM29.6642 26.8388C31.3966 25.7904 33.2406 24.9953 35.143 24.4542L36.2714 19.0226L45.4336 18.8617L46.7523 24.2492C48.6723 24.7233 50.5434 25.4527 52.3118 26.4398L56.9421 23.4L63.5348 29.7753L60.6647 34.5156C61.7118 36.2508 62.5057 38.0986 63.0454 40.0042L68.4679 41.134L68.6289 50.3102L63.2494 51.6313C62.7764 53.5541 62.0478 55.4272 61.0623 57.1985L64.0971 61.8363L57.7327 68.4389L52.9985 65.5644C51.2658 66.6127 49.4215 67.4078 47.5191 67.9483L46.3904 73.3798L37.2285 73.5407L35.9095 68.1532C33.9898 67.6791 32.1189 66.949 30.3505 65.9627L25.7199 69.0024L19.1276 62.6278L21.9977 57.8868C20.9506 56.1516 20.1564 54.3045 19.6164 52.399L14.1939 51.2684L14.0332 42.0922L19.4129 40.7711C19.886 38.849 20.6148 36.9745 21.5998 35.2039L18.5647 30.5661L24.9294 23.9635L29.6642 26.8388Z" fill="#E7E8E5"/>
<path d="M186.953 25.4542C182.266 30.3157 182.402 38.0625 187.257 42.756C192.111 47.4501 199.846 47.3145 204.533 42.4515C209.219 37.59 209.084 29.8431 204.229 25.1497C199.375 20.4555 191.64 20.5919 186.953 25.4542ZM180.882 10.2606C183.036 8.95753 185.328 7.96906 187.692 7.29661L189.094 0.54615L200.483 0.346291L202.121 7.04263C204.508 7.63139 206.833 8.5376 209.031 9.76489L214.786 5.98637L222.98 13.91L219.413 19.8018C220.714 21.9592 221.701 24.2557 222.372 26.6237L229.111 28.0278L229.311 39.4334L222.625 41.0749C222.037 43.4645 221.132 45.7928 219.907 47.9941L223.679 53.759L215.768 61.9647L209.885 58.3918C207.731 59.6956 205.438 60.6833 203.074 61.3558L201.671 68.1062L190.284 68.3061L188.645 61.609C186.259 61.0203 183.933 60.1133 181.735 58.8868L175.98 62.6653L167.787 54.7417L171.354 48.8498C170.052 46.6925 169.066 44.3974 168.394 42.0287L161.655 40.6239L161.455 29.219L168.141 27.5768C168.729 25.1879 169.635 22.8589 170.859 20.6576L167.087 14.8934L174.997 6.68695L180.882 10.2606Z" fill="#F3F2F1"/>
<path d="M76.031 10.5752C74.0571 12.6228 74.114 15.8855 76.1585 17.8624C78.203 19.8386 81.46 19.7816 83.4339 17.734C85.4079 15.6863 85.3502 12.4244 83.3064 10.4474C81.2619 8.47051 78.0042 8.52823 76.031 10.5752ZM73.4743 4.17682C74.3813 3.62848 75.3466 3.21216 76.3422 2.92933L76.933 0.0865841L81.728 0.00213814L82.4182 2.82181C83.4231 3.07001 84.4029 3.45169 85.3279 3.9683L87.7521 2.37738L91.2029 5.71437L89.7001 8.19562C90.2483 9.104 90.664 10.0708 90.9464 11.068L93.7848 11.6596L93.8691 16.4627L91.053 17.1539C90.8052 18.1604 90.4241 19.1409 89.9083 20.0681L91.4968 22.4952L88.1656 25.9513L85.6881 24.4462C84.7811 24.9953 83.8158 25.4116 82.8194 25.6944L82.2287 28.5372L77.4336 28.6216L76.7435 25.8019C75.7385 25.5537 74.7595 25.1713 73.8337 24.6547L71.4101 26.2464L67.9594 22.9094L69.4616 20.4281C68.9136 19.5197 68.498 18.5529 68.2155 17.5558L65.3771 16.9642L65.293 12.161L68.1088 11.4699C68.3564 10.4633 68.7381 9.48281 69.2533 8.55567L67.6647 6.12849L70.996 2.67247L73.4743 4.17682Z" fill="#F3F2F1"/>
<path d="M300.317 63.2534C297.648 66.0218 297.725 70.4338 300.49 73.1078C303.255 75.7809 307.66 75.703 310.329 72.9339C312.998 70.1654 312.921 65.7527 310.156 63.0795C307.391 60.4063 302.986 60.4842 300.317 63.2534ZM296.86 54.6003C298.086 53.8579 299.391 53.2951 300.738 52.912L301.537 49.0677L308.022 48.9537L308.955 52.7669C310.315 53.1024 311.639 53.619 312.891 54.3182L316.169 52.1659L320.835 56.6782L318.803 60.0347C319.545 61.2627 320.107 62.5708 320.489 63.9193L324.327 64.7195L324.441 71.2145L320.633 72.1496C320.298 73.5104 319.782 74.8372 319.085 76.0905L321.233 79.3734L316.728 84.0473L313.377 82.0126C312.15 82.7543 310.845 83.3171 309.499 83.7003L308.7 87.5445L302.214 87.6584L301.281 83.8446C299.921 83.5091 298.597 82.9924 297.346 82.294L294.068 84.4463L289.401 79.9332L291.433 76.5775C290.692 75.3495 290.13 74.0421 289.748 72.6929L285.909 71.8927L285.795 65.3977L289.603 64.4626C289.938 63.1011 290.455 61.775 291.151 60.5217L289.003 57.2389L293.508 52.5649L296.86 54.6003Z" fill="#F3F2F1"/>
<path d="M336.001 320.812C336.001 320.916 260.778 321 168.009 321C75.2059 321 0 320.916 0 320.812C0 320.709 75.2059 320.624 168.009 320.624C260.778 320.624 336.001 320.709 336.001 320.812Z" fill="#17282F"/>
<path d="M219.942 320.812H279.073C280.203 320.812 281.096 319.853 281.016 318.724L278.065 276.813C277.993 275.792 277.146 275.001 276.125 274.999L221.84 274.922C220.798 274.921 219.938 275.742 219.892 276.784L217.996 318.773C217.946 319.884 218.832 320.812 219.942 320.812Z" fill="#17282F"/>
<path d="M228.101 320.812C228.192 320.812 228.266 310.556 228.266 297.908C228.266 285.256 228.192 275.001 228.101 275.001C228.01 275.001 227.936 285.256 227.936 297.908C227.936 310.556 228.01 320.812 228.101 320.812Z" fill="#33535F"/>
<path d="M228.799 276.088C228.794 276.091 228.825 276.148 228.888 276.255C228.963 276.378 229.058 276.534 229.177 276.729C229.45 277.16 229.832 277.762 230.318 278.528C231.324 280.081 232.783 282.328 234.754 284.992C236.744 287.63 239.242 290.728 242.604 293.562C244.278 294.98 246.176 296.305 248.279 297.447C250.388 298.56 252.764 299.449 255.316 299.654C257.872 299.868 260.365 299.291 262.577 298.394C264.793 297.484 266.781 296.26 268.487 294.872C271.904 292.078 274.162 288.698 275.543 285.69C276.934 282.663 277.429 279.978 277.632 278.144C277.673 277.681 277.72 277.272 277.739 276.916C277.743 276.565 277.748 276.264 277.751 276.013C277.751 275.784 277.751 275.601 277.751 275.458C277.748 275.333 277.745 275.269 277.739 275.269C277.733 275.269 277.726 275.333 277.717 275.458C277.708 275.601 277.697 275.783 277.684 276.011C277.672 276.261 277.658 276.561 277.641 276.909C277.612 277.263 277.555 277.67 277.505 278.129C277.263 279.949 276.736 282.605 275.331 285.592C273.936 288.56 271.681 291.889 268.295 294.635C266.606 296 264.641 297.201 262.455 298.094C260.275 298.974 257.833 299.534 255.342 299.324C252.852 299.124 250.514 298.257 248.43 297.161C246.35 296.036 244.465 294.729 242.799 293.329C239.454 290.531 236.948 287.464 234.939 284.851C232.951 282.213 231.463 279.987 230.425 278.458C229.917 277.706 229.518 277.115 229.232 276.692C229.102 276.505 228.998 276.355 228.917 276.237C228.844 276.136 228.804 276.085 228.799 276.088Z" fill="#33535F"/>
<path d="M253.27 299.691C253.27 301.192 254.485 302.409 255.983 302.409C257.482 302.409 258.697 301.192 258.697 299.691C258.697 298.19 257.482 296.974 255.983 296.974C254.485 296.974 253.27 298.19 253.27 299.691Z" fill="#33535F"/>
<path d="M237.393 266.467C238.528 265.413 240.124 265.024 241.664 264.871C245.378 264.502 249.465 265.275 252.711 267.121C255.956 268.967 258.344 272.041 259.931 275.424L257.799 277.659C256.927 274.142 254.982 271.079 251.963 269.081C248.944 267.082 245.736 266.167 242.163 266.742C241.343 266.874 240.181 267.181 239.5 267.659C238.106 268.636 237.892 269.772 238.138 271.221C238.502 273.365 239.04 274.297 239.956 275.446C238.386 275.483 238.02 275.491 236.45 275.528C236.054 273.98 235.655 272.408 235.683 270.809C235.712 269.21 236.221 267.553 237.393 266.467Z" fill="#17282F"/>
<path d="M178.017 307.667H155.6V298.821H178.017V307.667Z" fill="#FAFAF9"/>
<path d="M225.07 299.155H154.666V297.303H225.07V299.155Z" fill="#33535F"/>
<path d="M225.07 309.125H154.992V307.272H225.07V309.125Z" fill="#33535F"/>
<path d="M178.018 297.743L178.123 308.772H225.07V297.743H178.018Z" fill="#33535F"/>
<path d="M189.427 303.246C189.427 304.762 188.291 305.991 186.889 305.991C185.488 305.991 184.352 304.762 184.352 303.246C184.352 301.731 185.488 300.502 186.889 300.502C188.291 300.502 189.427 301.731 189.427 303.246Z" fill="#17282F"/>
<path d="M186.888 300.897C185.706 300.897 184.745 301.951 184.745 303.246C184.745 304.542 185.706 305.597 186.888 305.597C188.07 305.597 189.032 304.542 189.032 303.246C189.032 301.951 188.07 300.897 186.888 300.897ZM186.888 306.386C185.272 306.386 183.957 304.977 183.957 303.246C183.957 301.516 185.272 300.108 186.888 300.108C188.505 300.108 189.82 301.516 189.82 303.246C189.82 304.977 188.505 306.386 186.888 306.386Z" fill="#DADBD8"/>
<path d="M176.332 305.498C176.332 305.612 171.726 305.704 166.045 305.704C160.363 305.704 155.758 305.612 155.758 305.498C155.758 305.385 160.363 305.293 166.045 305.293C171.726 305.293 176.332 305.385 176.332 305.498Z" fill="#17282F"/>
<path d="M176.332 303.957C176.332 304.071 171.726 304.163 166.045 304.163C160.363 304.163 155.758 304.071 155.758 303.957C155.758 303.844 160.363 303.752 166.045 303.752C171.726 303.752 176.332 303.844 176.332 303.957Z" fill="#17282F"/>
<path d="M176.332 302.417C176.332 302.53 171.726 302.622 166.045 302.622C160.363 302.622 155.758 302.53 155.758 302.417C155.758 302.304 160.363 302.211 166.045 302.211C171.726 302.211 176.332 302.304 176.332 302.417Z" fill="#17282F"/>
<path d="M176.332 300.875C176.332 300.989 171.726 301.081 166.045 301.081C160.363 301.081 155.758 300.989 155.758 300.875C155.758 300.762 160.363 300.671 166.045 300.671C171.726 300.671 176.332 300.762 176.332 300.875Z" fill="#17282F"/>
<path d="M219.863 305.991H198.707V300.089H219.863V305.991Z" fill="white"/>
<path d="M202.003 305.391C201.89 305.391 201.799 304.339 201.799 303.04C201.799 301.741 201.89 300.689 202.003 300.689C202.117 300.689 202.209 301.741 202.209 303.04C202.209 304.339 202.117 305.391 202.003 305.391Z" fill="#DADBD8"/>
<path d="M204.801 305.391C204.688 305.391 204.596 304.339 204.596 303.04C204.596 301.741 204.688 300.689 204.801 300.689C204.914 300.689 205.006 301.741 205.006 303.04C205.006 304.339 204.914 305.391 204.801 305.391Z" fill="#DADBD8"/>
<path d="M207.598 305.391C207.485 305.391 207.393 304.339 207.393 303.04C207.393 301.741 207.485 300.689 207.598 300.689C207.711 300.689 207.803 301.741 207.803 303.04C207.803 304.339 207.711 305.391 207.598 305.391Z" fill="#DADBD8"/>
<path d="M210.395 305.391C210.282 305.391 210.189 304.339 210.189 303.04C210.189 301.741 210.282 300.689 210.395 300.689C210.508 300.689 210.6 301.741 210.6 303.04C210.6 304.339 210.508 305.391 210.395 305.391Z" fill="#DADBD8"/>
<path d="M213.192 305.391C213.079 305.391 212.986 304.339 212.986 303.04C212.986 301.741 213.079 300.689 213.192 300.689C213.305 300.689 213.397 301.741 213.397 303.04C213.397 304.339 213.305 305.391 213.192 305.391Z" fill="#DADBD8"/>
<path d="M215.989 305.391C215.875 305.391 215.783 304.339 215.783 303.04C215.783 301.741 215.875 300.689 215.989 300.689C216.102 300.689 216.194 301.741 216.194 303.04C216.194 304.339 216.102 305.391 215.989 305.391Z" fill="#DADBD8"/>
<path d="M180.995 319.164H158.578V310.318H180.995V319.164Z" fill="#FAFAF9"/>
<path d="M228.048 310.652H157.645V308.799H228.048V310.652Z" fill="#349F6E"/>
<path d="M228.048 320.622H157.971V318.769H228.048V320.622Z" fill="#349F6E"/>
<path d="M180.996 309.241L181.102 320.269H228.048V309.241H180.996Z" fill="#349F6E"/>
<path d="M192.405 314.744C192.405 316.26 191.269 317.488 189.867 317.488C188.466 317.488 187.33 316.26 187.33 314.744C187.33 313.228 188.466 311.999 189.867 311.999C191.269 311.999 192.405 313.228 192.405 314.744Z" fill="#17282F"/>
<path d="M189.867 312.394C188.685 312.394 187.723 313.448 187.723 314.744C187.723 316.04 188.685 317.094 189.867 317.094C191.049 317.094 192.011 316.04 192.011 314.744C192.011 313.448 191.049 312.394 189.867 312.394ZM189.867 317.882C188.25 317.882 186.936 316.474 186.936 314.744C186.936 313.013 188.25 311.605 189.867 311.605C191.484 311.605 192.798 313.013 192.798 314.744C192.798 316.474 191.484 317.882 189.867 317.882Z" fill="#DADBD8"/>
<path d="M179.311 316.996C179.311 317.109 174.705 317.201 169.025 317.201C163.342 317.201 158.736 317.109 158.736 316.996C158.736 316.882 163.342 316.79 169.025 316.79C174.705 316.79 179.311 316.882 179.311 316.996Z" fill="#17282F"/>
<path d="M179.311 315.455C179.311 315.568 174.705 315.66 169.025 315.66C163.342 315.66 158.736 315.568 158.736 315.455C158.736 315.341 163.342 315.25 169.025 315.25C174.705 315.25 179.311 315.341 179.311 315.455Z" fill="#17282F"/>
<path d="M179.311 313.914C179.311 314.027 174.705 314.119 169.025 314.119C163.342 314.119 158.736 314.027 158.736 313.914C158.736 313.8 163.342 313.708 169.025 313.708C174.705 313.708 179.311 313.8 179.311 313.914Z" fill="#17282F"/>
<path d="M179.311 312.373C179.311 312.486 174.705 312.578 169.025 312.578C163.342 312.578 158.736 312.486 158.736 312.373C158.736 312.26 163.342 312.167 169.025 312.167C174.705 312.167 179.311 312.26 179.311 312.373Z" fill="#17282F"/>
<path d="M222.841 317.488H201.686V311.586H222.841V317.488Z" fill="white"/>
<path d="M204.98 316.889C204.867 316.889 204.775 315.835 204.775 314.537C204.775 313.238 204.867 312.186 204.98 312.186C205.094 312.186 205.185 313.238 205.185 314.537C205.185 315.835 205.094 316.889 204.98 316.889Z" fill="#DADBD8"/>
<path d="M207.779 316.889C207.666 316.889 207.574 315.835 207.574 314.537C207.574 313.238 207.666 312.186 207.779 312.186C207.893 312.186 207.984 313.238 207.984 314.537C207.984 315.835 207.893 316.889 207.779 316.889Z" fill="#DADBD8"/>
<path d="M210.576 316.889C210.463 316.889 210.371 315.835 210.371 314.537C210.371 313.238 210.463 312.186 210.576 312.186C210.689 312.186 210.781 313.238 210.781 314.537C210.781 315.835 210.689 316.889 210.576 316.889Z" fill="#DADBD8"/>
<path d="M213.373 316.889C213.259 316.889 213.168 315.835 213.168 314.537C213.168 313.238 213.259 312.186 213.373 312.186C213.486 312.186 213.578 313.238 213.578 314.537C213.578 315.835 213.486 316.889 213.373 316.889Z" fill="#DADBD8"/>
<path d="M216.169 316.889C216.056 316.889 215.965 315.835 215.965 314.537C215.965 313.238 216.056 312.186 216.169 312.186C216.283 312.186 216.375 313.238 216.375 314.537C216.375 315.835 216.283 316.889 216.169 316.889Z" fill="#DADBD8"/>
<path d="M218.968 316.889C218.855 316.889 218.764 315.835 218.764 314.537C218.764 313.238 218.855 312.186 218.968 312.186C219.081 312.186 219.174 313.238 219.174 314.537C219.174 315.835 219.081 316.889 218.968 316.889Z" fill="#DADBD8"/>
<path d="M135.207 98.2308L129.404 97.067C125.503 99.259 120.9 100.321 116.049 99.821C104.611 98.6399 95.7835 88.748 95.8678 77.2312C95.965 63.9244 107.449 53.5527 120.764 54.9358C132.068 56.1097 140.834 65.7809 140.928 77.162C140.976 82.8107 138.966 87.9428 135.633 91.9039L135.643 91.8959L135.207 98.2308Z" fill="white"/>
<path d="M135.206 98.2308C135.206 98.2308 135.207 98.08 135.221 97.8022C135.237 97.5093 135.258 97.1016 135.286 96.5764C135.35 95.4919 135.442 93.9205 135.561 91.8909L135.69 91.9645L135.68 91.9717L135.564 91.9515L135.569 91.8497C137.34 89.7061 139.371 86.4795 140.288 82.1324C140.753 79.9715 140.905 77.5588 140.651 75.0162C140.377 72.4786 139.63 69.8227 138.333 67.2744C137.026 64.7347 135.156 62.319 132.773 60.3046C130.394 58.2995 127.507 56.6545 124.266 55.8103C121.042 54.9402 117.512 54.7894 114.049 55.4582C110.576 56.1047 107.215 57.7064 104.363 60.0246C102.886 61.1625 101.66 62.56 100.524 63.9836C100.01 64.7361 99.4833 65.4807 99.0338 66.2621L98.4063 67.4584L98.0972 68.0558L97.8487 68.6784C96.4583 71.9714 95.931 75.5061 96.1291 78.8763C96.3114 82.2594 97.3783 85.4456 98.8933 88.1953C100.421 90.9493 102.451 93.2675 104.708 95.0482C106.975 96.8231 109.454 98.0692 111.902 98.8253C112.522 98.9848 113.132 99.142 113.732 99.2965C114.335 99.4364 114.944 99.497 115.533 99.5988C116.714 99.7835 117.872 99.8181 118.976 99.8015C123.42 99.7099 126.958 98.3217 129.365 96.997L129.42 96.9883C131.264 97.3787 132.699 97.6824 133.692 97.8931C134.173 97.9977 134.545 98.0785 134.814 98.137C135.069 98.194 135.206 98.2308 135.206 98.2308C135.206 98.2308 135.087 98.2163 134.838 98.1723C134.572 98.1233 134.203 98.0555 133.728 97.9682C132.719 97.7777 131.261 97.5013 129.388 97.1463L129.443 97.137C127.037 98.5028 123.477 99.9393 118.982 100.063C117.865 100.087 116.695 100.059 115.497 99.8794C114.9 99.7799 114.283 99.7214 113.671 99.5829C113.062 99.4299 112.443 99.2734 111.813 99.1154C109.328 98.3607 106.807 97.1081 104.5 95.3152C102.201 93.5164 100.132 91.1694 98.572 88.3742C97.0246 85.5849 95.9324 82.3453 95.7408 78.9022C95.5326 75.4729 96.065 71.8762 97.4777 68.5219L97.7306 67.8869L98.0447 67.2787C98.2572 66.8739 98.4697 66.4677 98.6829 66.0601C99.1404 65.2643 99.675 64.5059 100.199 63.7397C101.354 62.2887 102.603 60.8666 104.105 59.7072C107.01 57.3478 110.434 55.7187 113.97 55.0621C117.498 54.3839 121.088 54.5426 124.369 55.4337C127.666 56.2995 130.599 57.9784 133.011 60.0232C135.428 62.0766 137.319 64.5362 138.636 67.1193C139.943 69.7109 140.689 72.4101 140.955 74.9844C141.199 77.5631 141.03 80.0047 140.546 82.188C139.588 86.5806 137.507 89.8209 135.696 91.9572L135.586 91.8353L135.596 91.8281L135.711 91.8483L135.726 91.9024C135.564 93.9508 135.438 95.5381 135.351 96.6319C135.307 97.1485 135.273 97.5475 135.249 97.8354C135.225 98.1031 135.206 98.2308 135.206 98.2308Z" fill="#17282F"/>
<path d="M108.408 78.838L111.231 75.812L117.036 80.6367L127.735 69.599L130.548 72.4331L116.81 86.2948L108.408 78.838Z" fill="#349F6E"/>
<path d="M291.705 60.3032H273.365L219.847 92.5619C220.047 92.8635 226.363 97.4386 234.615 103.347L157.115 246.262L92.2546 217.573L34.8242 320.95H66.2058L105.777 248.556L165.298 276.17L190.528 279.186L258.829 120.596C267.411 126.69 274.004 131.355 274.004 131.355H292.344C292.344 131.355 286.996 86.3973 286.996 86.0401C286.996 85.683 291.705 60.3032 291.705 60.3032Z" fill="#349F6E"/>
<path d="M53.3912 320.95H34.8242L64.9042 266.804L76.1512 274.896L103.97 229.493L53.3912 320.95Z" fill="#187B4E"/>
<path d="M190.53 279.186L165.299 276.17L123.93 256.977L120.59 255.428L124.345 248.556L190.53 279.186H190.53ZM175.683 246.262L160.808 239.455L160.911 239.264C164.155 240.132 167.317 240.64 169.849 240.64C171.453 240.64 172.805 240.436 173.764 239.992C179.396 237.379 187.997 221.797 187.997 221.797L189.574 220.646L175.683 246.262Z" fill="#187B4E"/>
<path d="M206.526 189.386C214.809 171.509 222.418 152.505 220.648 146.084C219.763 142.874 217.755 140.649 215.464 138.664L234.616 103.347C226.365 97.4386 220.048 92.8635 219.848 92.5619L273.366 60.3031H291.706C291.706 60.3031 290.579 66.3783 289.427 72.6258C288.225 79.1483 286.997 85.8583 286.997 86.0401C286.997 86.3973 292.345 131.355 292.345 131.355H274.005C274.005 131.355 272.941 130.602 271.112 129.306L283.848 105.618L259.032 92.5619L206.525 189.386" fill="#187B4E"/>
<path d="M53.3926 320.95L111.053 216.687L175.683 246.262L259.032 92.5619L283.848 105.618L190.53 279.186L124.345 248.556L84.7738 320.95H53.3926Z" fill="#349F6E"/>
<path d="M238.188 92.5619C238.778 93.4493 292.345 131.355 292.345 131.355L291.706 60.3031L238.188 92.5619Z" fill="#349F6E"/>
<path d="M238.187 92.5619C238.187 92.6657 234.082 92.7495 229.018 92.7495C223.953 92.7495 219.848 92.6657 219.848 92.5619C219.848 92.458 223.953 92.3735 229.018 92.3735C234.082 92.3735 238.187 92.458 238.187 92.5619Z" fill="#17282F"/>
<path d="M252.515 103.646C252.515 103.75 248.41 103.835 243.346 103.835C238.281 103.835 234.176 103.75 234.176 103.646C234.176 103.543 238.281 103.459 243.346 103.459C248.41 103.459 252.515 103.543 252.515 103.646Z" fill="#17282F"/>
<path d="M114.776 167.999C114.776 167.999 113.664 168.484 113.489 166.996C113.315 165.507 116.412 162.409 117.403 161.426C118.393 160.442 119.809 160.653 121.065 160.933C122.321 161.214 127.463 161.732 129.169 162.829C130.874 163.926 133.486 169.427 134.031 169.688C134.575 169.95 150.616 170.787 150.616 170.787L149.926 183.954C149.926 183.954 134.182 180.95 131.064 178.997C127.946 177.044 128.356 176.266 127.469 174.443C126.583 172.621 125.631 170.687 125.631 170.687L124.158 170.442L121.795 171.748C121.795 171.748 121.516 175.09 119.178 175.006L118.032 174.401C118.032 174.401 117.267 175.287 116.396 173.918C115.525 172.549 115.69 172.294 115.69 172.294C115.69 172.294 114.773 173.429 113.783 172.021C112.792 170.613 114.776 167.999 114.776 167.999Z" fill="#B96357"/>
<path d="M132.056 173.589C132.058 173.599 131.999 173.618 131.882 173.644C131.766 173.672 131.589 173.694 131.359 173.695C130.902 173.7 130.21 173.587 129.472 173.157C128.738 172.74 127.967 171.988 127.473 170.937C126.963 169.894 126.714 168.61 126.643 167.248L126.898 167.403C125.843 167.893 124.601 168.206 123.3 168.252C122.387 168.287 121.492 168.185 120.656 167.973C120.257 167.855 119.795 167.794 119.447 167.411C119.262 167.229 119.218 166.85 119.406 166.636C119.578 166.422 119.794 166.346 119.973 166.271C121.417 165.685 122.744 165.228 123.87 164.885C124.995 164.54 125.92 164.307 126.561 164.161C127.203 164.017 127.562 163.958 127.568 163.982C127.574 164.009 127.226 164.115 126.598 164.302C125.969 164.491 125.06 164.762 123.951 165.137C122.841 165.512 121.532 165.991 120.105 166.59C119.931 166.662 119.765 166.742 119.688 166.848C119.615 166.951 119.619 167.064 119.72 167.178C119.929 167.424 120.346 167.511 120.746 167.616C121.549 167.815 122.409 167.91 123.286 167.876C124.537 167.833 125.732 167.537 126.748 167.075L126.991 166.965L127.002 167.23C127.061 168.564 127.286 169.803 127.752 170.805C128.203 171.815 128.904 172.536 129.589 172.963C130.274 173.398 130.924 173.541 131.364 173.574C131.808 173.605 132.052 173.56 132.056 173.589Z" fill="#6F3430"/>
<path d="M123.936 164.56C123.966 164.599 123.394 164.908 122.422 164.855C121.944 164.849 121.381 164.768 120.786 164.808C120.18 164.836 119.612 165.093 119.144 165.635C118.17 166.725 117.003 167.446 116.126 167.812C115.241 168.186 114.648 168.263 114.639 168.222C114.622 168.162 115.184 167.996 116.014 167.572C116.843 167.149 117.92 166.44 118.874 165.374C119.126 165.113 119.407 164.846 119.752 164.695C120.088 164.535 120.442 164.477 120.766 164.463C121.42 164.441 121.974 164.553 122.437 164.589C123.367 164.707 123.914 164.506 123.936 164.56Z" fill="#6F3430"/>
<path d="M120.631 168.069C120.719 168.097 120.07 169.579 118.586 170.842C117.114 172.12 115.554 172.537 115.538 172.446C115.493 172.339 116.934 171.782 118.342 170.557C119.764 169.349 120.532 168.008 120.631 168.069Z" fill="#6F3430"/>
<path d="M121.209 170.087C121.302 170.098 121.091 171.394 120.153 172.667C119.225 173.948 118.055 174.542 118.017 174.455C117.952 174.361 118.974 173.659 119.849 172.445C120.74 171.243 121.1 170.055 121.209 170.087Z" fill="#6F3430"/>
<path d="M169.654 142.337L155.299 168.279L133.02 167.894L131.346 181.294L154.336 186.94L163.802 176.53L169.654 142.337Z" fill="#DADBD8"/>
<path d="M157.092 172.68C156.981 172.69 156.843 171.624 156.345 170.419C155.859 169.209 155.214 168.349 155.301 168.279C155.368 168.209 156.178 169.002 156.692 170.276C157.215 171.548 157.188 172.682 157.092 172.68Z" fill="#17282F"/>
<path d="M175.113 96.4234C173.297 96.6644 171.405 95.3599 170.983 93.5749C170.56 91.7891 171.666 89.7732 173.398 89.1729C172.244 88.0315 171.926 86.1318 172.644 84.6758C173.362 83.2205 175.063 82.3193 176.668 82.543C176.705 80.9405 177.632 79.3878 179.025 78.5963C180.417 77.8055 182.224 77.8048 183.617 78.5949C185.356 77.0451 188.205 76.9354 190.058 78.3474C191.607 78.0314 193.316 78.8294 194.071 80.2197C194.826 81.6108 194.565 83.4816 193.458 84.6115" fill="#17282F"/>
<path d="M190.929 82.0278L190.107 82.0444C181.841 82.2039 175.083 88.6939 174.579 96.9588C174.109 104.646 173.689 113.144 173.819 117.261C174.089 125.784 182.629 126.945 182.629 126.945L182.107 137.201L183.117 145.019L202.754 136.159L203.864 98.9761C204.454 90.1095 199.795 82.3741 190.929 82.0278Z" fill="#B96357"/>
<path d="M182.558 126.934C182.558 126.934 188.001 127.156 193.649 123.448C193.649 123.448 191.011 130.049 182.502 129.446L182.558 126.934Z" fill="#6F3430"/>
<path d="M177.344 105.649C177.333 106.292 177.869 106.831 178.54 106.854C179.209 106.877 179.761 106.376 179.771 105.732C179.782 105.089 179.247 104.549 178.577 104.526C177.906 104.503 177.354 105.006 177.344 105.649Z" fill="#17282F"/>
<path d="M176.489 101.094C176.643 101.25 177.55 100.55 178.859 100.528C180.165 100.487 181.138 101.143 181.277 100.98C181.346 100.907 181.186 100.623 180.763 100.327C180.345 100.031 179.637 99.7496 178.823 99.769C178.008 99.7892 177.329 100.102 176.94 100.418C176.544 100.735 176.414 101.024 176.489 101.094Z" fill="#17282F"/>
<path d="M188.422 105.377C188.411 106.019 188.947 106.558 189.618 106.582C190.287 106.605 190.839 106.103 190.849 105.46C190.86 104.817 190.324 104.276 189.655 104.253C188.984 104.23 188.432 104.733 188.422 105.377Z" fill="#17282F"/>
<path d="M189.352 101.089C189.506 101.245 190.415 100.545 191.723 100.523C193.029 100.483 194.002 101.138 194.14 100.974C194.209 100.902 194.051 100.618 193.626 100.322C193.208 100.026 192.501 99.7445 191.686 99.764C190.872 99.7842 190.192 100.098 189.803 100.413C189.409 100.729 189.277 101.019 189.352 101.089Z" fill="#17282F"/>
<path d="M184.793 110.898C184.797 110.823 183.982 110.698 182.661 110.555C182.326 110.527 182.009 110.466 181.948 110.239C181.865 109.999 181.997 109.636 182.152 109.243C182.45 108.428 182.762 107.572 183.09 106.676C184.392 103.023 185.327 100.022 185.18 99.9703C185.032 99.9191 183.858 102.838 182.556 106.492C182.244 107.393 181.944 108.252 181.66 109.073C181.541 109.456 181.332 109.891 181.512 110.39C181.607 110.638 181.855 110.815 182.071 110.868C182.286 110.929 182.474 110.929 182.639 110.936C183.967 110.982 184.79 110.972 184.793 110.898Z" fill="#17282F"/>
<path d="M188.121 96.0706C188.3 96.3988 189.413 96.0172 190.793 95.9457C192.17 95.8433 193.339 96.0814 193.458 95.7336C193.51 95.5677 193.259 95.2747 192.756 95.0179C192.258 94.7617 191.503 94.5705 190.677 94.6225C189.851 94.6752 189.137 94.9587 188.69 95.2747C188.238 95.5915 188.041 95.9133 188.121 96.0706Z" fill="#17282F"/>
<path d="M176.322 95.6932C176.603 95.9854 177.676 95.6557 178.975 95.616C180.271 95.5381 181.376 95.769 181.624 95.453C181.732 95.3 181.552 95.0049 181.067 94.7329C180.588 94.4616 179.792 94.2473 178.9 94.287C178.009 94.3281 177.241 94.6131 176.795 94.9263C176.342 95.2408 176.197 95.5504 176.322 95.6932Z" fill="#17282F"/>
<path d="M175.321 93.033C175.321 93.033 177.463 87.6505 180.01 86.3547C183.093 84.7862 184.499 88.1809 187.448 87.2934C190.398 86.4052 193.34 84.9001 196.415 87.1375C199.782 89.5864 198.262 91.3793 198.54 95.1586C199.667 110.478 202.547 114.761 203.203 107.522C203.275 106.729 205.456 106.057 205.716 102.707C206.053 98.3628 206.118 93.0951 205.092 90.0366C204.228 87.4593 202.717 85.696 200.031 83.7717C195.791 80.7341 190.049 80.7789 186.158 81.2471C182.267 81.7154 174.837 86.3547 175.321 93.033Z" fill="#17282F"/>
<path d="M202.657 107.301C202.685 105.984 203.797 104.923 205.109 105.022C206.699 105.143 208.483 106.011 208.442 109.299C208.369 115.131 202.538 113.854 202.53 113.687C202.524 113.573 202.605 109.741 202.657 107.301Z" fill="#B96357"/>
<path d="M203.824 111.509C203.85 111.49 203.925 111.581 204.095 111.662C204.261 111.74 204.548 111.797 204.853 111.687C205.471 111.469 206.001 110.497 206.043 109.446C206.064 108.916 205.959 108.409 205.777 107.988C205.604 107.559 205.332 107.258 205.024 107.198C204.716 107.123 204.495 107.307 204.422 107.47C204.341 107.631 204.377 107.748 204.346 107.758C204.33 107.773 204.222 107.659 204.272 107.418C204.298 107.303 204.368 107.167 204.506 107.056C204.647 106.944 204.853 106.888 205.069 106.915C205.518 106.952 205.916 107.37 206.117 107.832C206.342 108.297 206.472 108.867 206.448 109.462C206.396 110.637 205.782 111.729 204.937 111.962C204.526 112.064 204.186 111.936 204.011 111.796C203.833 111.65 203.804 111.519 203.824 111.509Z" fill="#6F3430"/>
<path d="M202.326 96.01C201.58 96.5417 200.791 97.0901 199.883 97.1976C198.974 97.3058 197.922 96.8022 197.751 95.9017C197.674 95.497 197.764 95.0244 197.492 94.7163C197.167 94.3483 196.583 94.4768 196.096 94.5381C194.407 94.7502 192.394 92.9176 191.932 91.2769C191.512 91.9327 190.571 92.1463 189.909 91.7372C189.249 91.3288 189.006 91.0929 188.483 90.5164C187.961 89.9399 187.233 89.4298 186.467 89.5539C186.037 89.6239 185.639 89.8879 185.206 89.8584C184.44 89.805 184.05 88.9161 183.919 88.1585C183.789 87.4009 183.682 86.5163 183.027 86.1159C182.42 85.745 181.646 85.981 180.945 86.0986C180.244 86.2162 179.332 86.0683 179.138 85.3828C179.037 85.0235 179.185 84.6397 179.378 84.3208C180.257 82.8741 182.221 82.201 183.8 82.8049C184.332 80.8683 186.101 79.3344 188.092 79.0848C190.083 78.8359 192.175 79.8856 193.167 81.6317C194.375 80.4895 196.154 79.9859 197.78 80.325C199.407 80.6634 200.837 81.8344 201.491 83.364C202.9 82.9636 204.524 83.4802 205.444 84.6216C206.362 85.7631 206.523 87.4622 205.834 88.7566C206.892 89.3345 207.808 90.3584 207.853 91.564C207.898 92.7704 206.748 93.9948 205.579 93.7004C206.067 94.6304 205.709 95.9126 204.811 96.4551C203.912 96.9977 202.613 96.7156 202.019 95.8491" fill="#17282F"/>
<path d="M183.399 84.5286C183.395 84.5293 183.396 84.5653 183.403 84.6353C183.412 84.7053 183.418 84.8114 183.446 84.9456C183.504 85.214 183.62 85.6108 183.89 86.061C184.161 86.504 184.578 87.0142 185.207 87.4139C185.823 87.8179 186.663 88.1181 187.604 88.0481L187.503 87.9211C187.332 88.4233 187.393 89.0207 187.651 89.5279C187.896 90.0452 188.275 90.4998 188.675 90.942C188.879 91.1549 189.058 91.4053 189.339 91.5986C189.612 91.7841 189.937 91.888 190.268 91.9233C190.926 91.9947 191.663 91.7768 192.128 91.2148L191.909 91.1563C192.08 92.3122 192.76 93.4587 193.819 94.1456C194.38 94.5352 195.07 94.7668 195.743 94.7358C196.416 94.7163 197.038 94.5056 197.618 94.2848L197.461 94.2199C197.788 94.9378 198.28 95.5467 198.873 95.9919C199.455 96.4364 200.224 96.6889 200.912 96.5056C202.279 96.1874 203.168 95.0258 203.331 93.945L203.2 94.0092C203.889 94.3678 204.621 94.3894 205.206 94.2646C205.799 94.1441 206.261 93.8757 206.588 93.6145C206.918 93.3476 207.11 93.077 207.225 92.8894C207.331 92.6953 207.373 92.5885 207.367 92.5857C207.337 92.5618 207.183 93.0323 206.528 93.5373C206.202 93.7783 205.749 94.0236 205.179 94.1261C204.616 94.2336 203.922 94.1961 203.285 93.8519L203.175 93.7927L203.155 93.9161C202.99 94.9248 202.133 96.0092 200.864 96.2899C200.241 96.4486 199.565 96.2228 199.014 95.8022C198.46 95.383 197.99 94.7956 197.686 94.1203L197.639 94.0135L197.529 94.0547C196.959 94.2704 196.358 94.4674 195.735 94.484C195.113 94.5092 194.495 94.3036 193.96 93.9342C192.959 93.2848 192.321 92.2119 192.154 91.1181L192.112 90.8425L191.935 91.0597C191.542 91.5409 190.884 91.748 190.292 91.6852C189.995 91.6549 189.707 91.564 189.469 91.4038C189.237 91.2509 189.05 91.0034 188.843 90.7891C188.443 90.354 188.075 89.9168 187.842 89.4363C187.597 88.9615 187.542 88.4362 187.688 87.9824L187.732 87.8424L187.586 87.8547C186.7 87.9319 185.892 87.6613 185.29 87.2826C184.676 86.9095 184.26 86.4254 183.983 86.0033C183.435 85.1317 183.441 84.5141 183.399 84.5286Z" fill="#33535F"/>
<path d="M185.166 115.375C185.194 115.157 186.632 115.429 187.887 114.392C189.144 113.358 189.275 111.793 189.478 111.82C189.572 111.818 189.692 112.215 189.586 112.866C189.487 113.505 189.106 114.394 188.339 115.028C187.57 115.66 186.674 115.824 186.076 115.761C185.464 115.7 185.138 115.472 185.166 115.375Z" fill="#17282F"/>
<path d="M143.68 197.907L154.764 185.663L164.033 157.607C165.926 152.739 167.55 146.559 169.843 141.944C170.971 139.674 172.871 137.884 175.185 136.855L179.12 135.104L181.474 131.342C180.118 139.852 192.025 140.899 204.68 130.335C204.68 130.335 208.86 133.168 214.753 138.062C217.332 140.205 219.671 142.546 220.646 146.084C222.416 152.505 214.808 171.509 206.525 189.386C204.047 194.734 192.244 218.696 192.244 218.696L187.996 221.797C187.996 221.797 150.437 210.4 147.058 204.154C143.68 197.907 143.68 197.907 143.68 197.907Z" fill="#DADBD8"/>
<path d="M149.829 190.606C149.82 190.598 149.928 190.472 150.143 190.239C150.387 189.982 150.703 189.649 151.097 189.234C151.97 188.34 153.181 187.098 154.671 185.57L154.64 185.622C155.334 183.484 156.163 180.928 157.087 178.082C158.041 175.234 159.009 172.072 159.987 168.728C161.88 162.172 163.672 156.243 165.327 152.077C166.129 149.986 166.882 148.336 167.412 147.203C167.678 146.67 167.892 146.242 168.057 145.913C168.208 145.62 168.293 145.469 168.305 145.475C168.317 145.481 168.254 145.643 168.125 145.946C167.977 146.282 167.784 146.719 167.544 147.263C167.057 148.413 166.343 150.074 165.575 152.172C163.988 156.35 162.241 162.274 160.347 168.834C159.37 172.176 158.386 175.352 157.414 178.191C156.461 181.026 155.604 183.572 154.888 185.704L154.877 185.734L154.856 185.755C153.331 187.248 152.091 188.462 151.199 189.336C150.785 189.731 150.452 190.047 150.195 190.292C149.963 190.507 149.837 190.616 149.829 190.606Z" fill="#17282F"/>
<path d="M184.312 143.881L171.323 197.216L157.83 203.937V190.89L181.179 142.723L184.312 143.881Z" fill="#349F6E"/>
<path d="M188.275 206.195C185.392 206.195 182.494 205.436 179.833 204.278C176.224 202.708 172.973 200.434 169.72 198.216C169.663 198.177 169.606 198.138 169.549 198.099L171.322 197.216L172.016 194.366L200.064 198.728C198.795 202.458 195.195 205.094 191.341 205.89C190.328 206.099 189.303 206.195 188.275 206.195Z" fill="#8F9192"/>
<path d="M169.55 198.099C166.352 195.922 163.087 193.778 159.469 192.415L172.018 194.366L171.323 197.216L169.55 198.099Z" fill="#187B4E"/>
<path d="M179.121 134.939L182.441 129.847L183.745 136.824L187.054 133.074L203.471 125.382L206.321 131.495L188.182 142.238L183.15 141.862L179.482 137.502L179.121 134.939Z" fill="#DADBD8"/>
<path d="M179.12 134.939C179.163 134.935 179.236 135.327 179.369 135.991C179.534 136.787 179.72 137.685 179.926 138.679L179.598 138.63C179.88 138.114 180.179 137.564 180.491 136.992C180.987 136.113 181.452 135.289 181.874 134.54L182.052 134.225L182.169 134.56C182.46 135.391 182.615 136.093 182.746 136.58C182.869 137.067 182.946 137.345 182.913 137.359C182.882 137.372 182.742 137.113 182.564 136.637C182.379 136.166 182.176 135.467 181.865 134.678L182.16 134.698C181.75 135.454 181.299 136.287 180.82 137.174C180.501 137.743 180.195 138.289 179.908 138.802L179.672 139.223L179.579 138.753C179.143 136.552 179.031 134.946 179.12 134.939Z" fill="#17282F"/>
<path d="M184.646 137.511L182.556 137.256C181.99 137.893 180.605 139.206 180.039 139.843L180.043 139.902C180.29 141.298 180.538 142.694 180.785 144.089C181.953 144.032 183.129 144.127 184.273 144.37C184.97 143.144 185.496 142.22 186.194 140.994L184.646 137.511Z" fill="#349F6E"/>
<path d="M188.212 216.182C188.169 216.22 187.555 215.564 186.527 214.546C185.499 213.528 184.037 212.164 182.318 210.784C180.596 209.404 178.948 208.273 177.732 207.491C176.515 206.708 175.743 206.251 175.77 206.2C175.782 206.177 175.99 206.265 176.356 206.444C176.723 206.62 177.241 206.899 177.87 207.264C179.13 207.993 180.816 209.099 182.553 210.49C184.286 211.883 185.732 213.29 186.717 214.361C187.21 214.897 187.596 215.342 187.847 215.662C188.102 215.981 188.232 216.165 188.212 216.182Z" fill="#17282F"/>
<path d="M184.809 137.941L187.129 136.796L187.915 140.865L185.983 141.037L184.809 137.941Z" fill="#349F6E"/>
<path d="M186.812 144.37V142.135L187.98 142.223L187.999 142.337L188.172 142.237L188.181 142.238L188.857 141.837L203.914 133.057L186.812 144.37Z" fill="#8F9192"/>
<path d="M188.181 142.238L188.172 142.237L188.857 141.837L188.181 142.238ZM187.98 142.223L186.812 142.135V140.963L187.758 140.879L187.98 142.223ZM186.812 136.953V135.158L187.087 136.817L186.812 136.953Z" fill="#8F9192"/>
<path d="M186.812 140.963V136.953L187.087 136.817L187.758 140.879L186.812 140.963Z" fill="#187B4E"/>
<path d="M206.32 131.495C206.335 131.515 205.98 131.782 205.326 132.246C204.666 132.701 203.698 133.343 202.47 134.083C200.028 135.587 196.521 137.428 192.741 139.603C191.144 140.531 189.638 141.464 188.281 142.384L188.057 142.537L188.008 142.271C187.489 139.458 187.039 137.018 186.7 135.18L186.892 135.241C186.152 135.931 185.55 136.494 185.088 136.925C184.664 137.311 184.43 137.511 184.415 137.495C184.4 137.48 184.606 137.251 185.002 136.837C185.445 136.386 186.023 135.798 186.732 135.076L186.882 134.924L186.925 135.137C187.296 136.968 187.788 139.4 188.355 142.204L188.081 142.091C189.439 141.153 190.95 140.209 192.553 139.278C196.346 137.096 199.866 135.295 202.335 133.854C203.577 133.145 204.563 132.539 205.246 132.124C205.923 131.699 206.305 131.473 206.32 131.495Z" fill="#17282F"/>
<path d="M182.581 138.034L181.622 135.682L180.039 138.595L180.717 139.651L182.581 138.034Z" fill="#349F6E"/>
<path d="M185.203 137.694C185.284 137.769 184.139 139.094 182.909 140.859C181.671 142.62 180.818 144.149 180.72 144.099C180.632 144.058 181.346 142.43 182.602 140.643C183.85 138.853 185.135 137.625 185.203 137.694Z" fill="#17282F"/>
<path d="M184.044 144.44C184.017 144.542 183.232 144.424 182.273 144.263C181.315 144.101 180.534 143.954 180.543 143.849C180.55 143.747 181.359 143.727 182.335 143.893C183.312 144.057 184.069 144.341 184.044 144.44Z" fill="#17282F"/>
<path d="M97.8353 177.614L87.0133 146.979C86.8065 146.319 87.21 145.623 87.885 145.475L112.883 138.936C113.507 138.798 114.134 139.155 114.334 139.762L125.709 174.272L160.985 197.478L159.29 199.211L150.265 197.008L97.8353 177.614Z" fill="#33535F"/>
<path d="M159.29 199.211C159.287 199.216 159.225 199.182 159.108 199.111C158.974 199.027 158.805 198.919 158.593 198.786C158.123 198.477 157.468 198.048 156.636 197.503C154.922 196.36 152.481 194.732 149.476 192.728C143.43 188.652 135.116 183.047 125.932 176.856C125.291 176.423 124.656 175.992 124.064 175.591L124.01 175.555L123.991 175.495C120.668 165.455 117.692 156.462 115.536 149.947C114.484 146.716 113.634 144.101 113.037 142.265C112.757 141.379 112.536 140.681 112.377 140.179C112.311 139.956 112.257 139.776 112.214 139.634C112.18 139.511 112.165 139.446 112.171 139.444C112.177 139.443 112.204 139.503 112.25 139.622C112.302 139.762 112.366 139.937 112.446 140.156C112.621 140.653 112.863 141.342 113.171 142.221C113.794 144.047 114.683 146.65 115.78 149.865C117.965 156.37 120.98 165.351 124.346 175.376L124.273 175.28C124.866 175.681 125.502 176.111 126.141 176.545C135.301 182.772 143.594 188.409 149.624 192.508C152.602 194.553 155.019 196.215 156.718 197.381C157.533 197.951 158.175 198.4 158.636 198.723C158.839 198.869 159.001 198.986 159.129 199.079C159.239 199.161 159.294 199.206 159.29 199.211Z" fill="#17282F"/>
<path d="M102.15 176.96C102.146 176.856 107.062 176.539 113.13 176.252C119.2 175.965 124.123 175.816 124.128 175.92C124.133 176.023 119.218 176.34 113.147 176.628C107.079 176.915 102.155 177.064 102.15 176.96Z" fill="#17282F"/>
<path d="M106.135 159.473C106.57 160.863 106.325 162.177 105.588 162.409C104.851 162.641 103.9 161.703 103.464 160.314C103.028 158.924 103.273 157.61 104.011 157.378C104.748 157.146 105.699 158.084 106.135 159.473Z" fill="#DADBD8"/>
<path d="M136.939 170.398C136.939 170.398 136.005 170.863 135.86 169.372C135.731 168.048 138.901 166.09 140.088 165.355C141.274 164.62 143.777 165.125 145.053 165.292C146.778 165.516 150.796 167.318 152.073 168.852C153.371 170.411 154.26 174.399 154.732 174.777C155.204 175.154 171.177 181.448 171.177 181.448L167.541 194.12C167.541 194.12 152.879 187.638 150.281 185.031C147.682 182.425 148.256 181.759 147.803 179.784C147.349 177.809 146.858 175.709 146.858 175.709L145.478 175.138L142.881 175.877C142.881 175.877 142.564 176.865 141.895 177.637C141.096 178.557 139.649 178.517 138.845 177.6C138.845 177.6 137.527 178.059 136.885 176.569C136.621 175.959 136.811 175.03 136.811 175.03C136.811 175.03 135.63 175.262 135.621 173.789C135.611 172.207 136.939 170.398 136.939 170.398Z" fill="#B96357"/>
<path d="M145.256 172.074C145.254 172.137 144.72 172.117 143.898 172.297C143.082 172.472 141.971 172.899 141.016 173.742C140.061 174.585 139.498 175.636 139.223 176.424C138.941 177.217 138.893 177.751 138.831 177.745C138.791 177.746 138.742 177.196 138.97 176.344C139.19 175.502 139.748 174.36 140.768 173.46C141.788 172.56 142.989 172.149 143.851 172.036C144.723 171.917 145.261 172.034 145.256 172.074Z" fill="#6F3430"/>
<path d="M144.063 169.357C144.056 169.424 143.482 169.327 142.602 169.532C141.727 169.725 140.575 170.289 139.593 171.256C138.609 172.227 137.941 173.316 137.455 174.094C136.973 174.879 136.671 175.367 136.623 175.341C136.579 175.318 136.798 174.788 137.224 173.963C137.655 173.145 138.301 172.005 139.331 170.987C140.364 169.969 141.613 169.405 142.552 169.271C143.497 169.125 144.076 169.323 144.063 169.357Z" fill="#6F3430"/>
<path d="M143.829 166.385C143.822 166.447 143.326 166.38 142.558 166.522C141.792 166.654 140.768 167.051 139.806 167.758C138.842 168.468 138.1 169.283 137.556 169.865C137.016 170.45 136.672 170.81 136.631 170.776C136.592 170.745 136.862 170.328 137.355 169.692C137.85 169.062 138.576 168.197 139.584 167.455C140.594 166.712 141.703 166.328 142.521 166.258C143.344 166.179 143.84 166.346 143.829 166.385Z" fill="#6F3430"/>
<path d="M211.999 137.604C216.489 138.484 219.412 142.436 220.326 147.376C221.622 154.385 205.579 187.511 202.59 194.743C199.44 202.362 192.472 204.027 188.415 203.933C184.358 203.839 155.926 190.483 155.926 190.483L160.094 176.033L185.357 183.545L195.368 155.334" fill="#DADBD8"/>
<path d="M195.368 155.334C195.368 155.334 195.321 155.507 195.21 155.838C195.093 156.18 194.928 156.667 194.711 157.304C194.259 158.601 193.601 160.493 192.753 162.926C191.034 167.816 188.552 174.873 185.485 183.59L185.442 183.713L185.317 183.676C178.057 181.528 169.476 178.989 160.045 176.198L160.258 176.081C158.929 180.702 157.538 185.535 156.1 190.534L156.002 190.319C162.638 193.404 169.741 196.643 177.144 199.763C180.151 201.012 183.131 202.257 186.142 203.217L187.273 203.542C187.65 203.64 188.025 203.672 188.399 203.744C189.174 203.756 189.952 203.718 190.718 203.614C192.251 203.425 193.74 202.987 195.122 202.363C197.891 201.115 200.182 198.98 201.573 196.402C202.281 195.129 202.798 193.748 203.398 192.427C203.991 191.106 204.578 189.799 205.158 188.508C209.825 178.207 213.963 168.893 216.931 160.873C218.391 156.864 219.657 153.183 220.171 149.836C220.279 149.001 220.346 148.182 220.232 147.417C220.083 146.647 219.912 145.91 219.679 145.224C219.229 143.848 218.63 142.656 217.952 141.679C216.591 139.708 214.947 138.701 213.812 138.207C213.237 137.961 212.78 137.812 212.468 137.739C212.156 137.656 211.999 137.604 211.999 137.604C211.999 137.604 212.161 137.631 212.477 137.701C212.794 137.763 213.257 137.901 213.841 138.138C214.995 138.613 216.675 139.612 218.072 141.595C218.767 142.577 219.383 143.78 219.848 145.168C220.089 145.86 220.267 146.604 220.424 147.382C220.548 148.185 220.483 149.016 220.378 149.864C219.878 153.252 218.626 156.941 217.18 160.965C214.239 169.009 210.123 178.34 205.472 188.651C204.895 189.942 204.311 191.249 203.72 192.57C203.125 193.885 202.614 195.26 201.886 196.578C200.465 199.216 198.111 201.418 195.274 202.699C193.857 203.339 192.335 203.787 190.766 203.983C189.982 204.09 189.187 204.128 188.388 204.116C187.989 204.045 187.572 204.006 187.185 203.905L186.031 203.574C182.989 202.604 180.013 201.361 177 200.109C169.587 196.985 162.485 193.744 155.848 190.648L155.707 190.583L155.75 190.433C157.195 185.435 158.593 180.604 159.929 175.985L159.977 175.819L160.142 175.868C169.566 178.684 178.141 181.246 185.395 183.414L185.228 183.499C188.343 174.798 190.864 167.756 192.612 162.876C193.488 160.453 194.169 158.569 194.637 157.277C194.869 156.647 195.048 156.164 195.173 155.825C195.296 155.498 195.368 155.334 195.368 155.334Z" fill="#17282F"/>
<path d="M189.39 194.144C189.273 194.165 188.886 191.627 187.76 188.697C186.653 185.759 185.257 183.607 185.357 183.545C185.396 183.519 185.795 184.024 186.336 184.912C186.878 185.798 187.544 187.078 188.111 188.563C188.674 190.049 189.029 191.448 189.213 192.471C189.398 193.495 189.436 194.138 189.39 194.144Z" fill="#17282F"/>
<path d="M210.25 137.666C210.272 137.732 209.32 138.039 207.891 138.762C207.175 139.118 206.356 139.605 205.483 140.2C204.621 140.811 203.714 141.537 202.838 142.385C201.972 143.243 201.225 144.135 200.596 144.984C199.981 145.842 199.476 146.653 199.104 147.362C198.35 148.775 198.021 149.721 197.956 149.698C197.932 149.689 197.997 149.448 198.136 149.016C198.269 148.582 198.516 147.972 198.868 147.241C199.215 146.506 199.705 145.668 200.315 144.782C200.939 143.907 201.693 142.99 202.576 142.117C203.469 141.252 204.401 140.519 205.289 139.915C206.187 139.324 207.035 138.853 207.776 138.523C208.515 138.187 209.129 137.954 209.566 137.832C209.999 137.702 210.242 137.642 210.25 137.666Z" fill="#17282F"/>
<path d="M52.62 241.593L38.9668 224.504C38.9668 224.504 91.782 180.926 96.7751 177.813C100.557 175.457 108.243 172.326 115.52 174.775C122.796 177.224 135.113 185.747 139.654 188.511C144.194 191.276 183.724 215.797 187.997 221.797C187.997 221.797 179.396 237.379 173.763 239.992C169.352 242.038 156.636 238.983 149.206 234.459C141.776 229.935 107.687 200.697 107.687 200.697L52.62 241.593Z" fill="#17282F"/>
<path d="M57.707 261.626L76.152 274.896L111.649 216.96L147.49 233.316L123.39 192.989C123.39 192.989 103.953 193.218 100.898 192.873C96.979 192.433 89.8239 198.627 85.9178 206.191C82.5233 212.765 57.707 261.626 57.707 261.626Z" fill="#17282F"/>
<path d="M135.888 228.541C135.813 228.613 127.719 220.344 117.812 210.071C107.901 199.797 99.9295 191.412 100.004 191.34C100.079 191.267 108.171 199.536 118.082 209.811C127.99 220.082 135.962 228.469 135.888 228.541Z" fill="#33535F"/>
<path d="M68.0703 230.119H76.7237V223.692H68.0703V230.119Z" fill="#A7A9A8"/>
<path d="M68.0703 230.119C68.0877 230.086 83.956 200.389 91.4332 198.41C91.4332 198.41 91.3993 198.456 91.3359 198.543C89.7496 200.237 88.2338 202.216 86.9486 204.348C85.7686 206.151 84.6037 208.085 83.4705 210.118C82.7335 211.465 82.034 212.797 81.3676 214.1C79.9729 216.623 78.6848 219.197 77.7014 221.615C77.3643 222.329 77.0386 223.022 76.7238 223.692L68.0703 230.119Z" fill="#0F191D"/>
<path d="M86.9473 204.348C88.2325 202.216 89.7482 200.237 91.3346 198.543C91.3043 198.584 91.2676 198.635 91.2251 198.694C90.5083 199.438 89.8152 200.265 89.1553 201.155C88.4162 202.164 87.6792 203.231 86.9473 204.348Z" fill="#0F191D"/>
<path d="M103.386 194.86C103.372 194.91 102.665 194.575 101.301 194.46C99.9488 194.328 97.9158 194.563 95.7236 195.648C93.5169 196.71 91.3449 198.751 89.4337 201.362C87.5325 203.99 85.6234 207.026 83.7979 210.299C80.1951 216.889 77.4165 223.114 75.1998 227.517C74.1105 229.728 73.1797 231.493 72.5277 232.708C72.2057 233.285 71.9475 233.745 71.7527 234.093C71.5718 234.408 71.4713 234.57 71.4601 234.564C71.4486 234.557 71.5267 234.383 71.6863 234.057C71.8653 233.702 72.102 233.23 72.3988 232.64C73.0097 231.406 73.9037 229.625 74.9613 227.401C77.1153 222.972 79.8543 216.73 83.4701 210.118C85.305 206.826 87.2241 203.794 89.1563 201.155C91.1 198.531 93.3376 196.464 95.6076 195.41C97.8596 194.332 99.9437 194.135 101.315 194.315C102.699 194.477 103.386 194.86 103.386 194.86Z" fill="#33535F"/>
<path d="M66.759 250.863L56.6555 269.512C56.6555 269.512 34.1306 266.846 32.1289 270.238L68.7314 288.981L83.9227 259.594L66.759 250.863Z" fill="#17282F"/>
<path d="M68.7849 273.719C70.2753 275.067 68.2877 277.447 66.7332 276.136C65.0731 274.636 67.4437 272.215 68.8975 273.835" fill="#DADBD8"/>
<path d="M68.7314 288.981L70.1466 285.958L34.5237 269.119C34.5237 269.119 32.5313 268.995 32.1289 270.238L68.7314 288.981Z" fill="#33535F"/>
<path d="M56.1564 269.022C56.0708 269.203 56.9229 269.742 57.5085 270.768C58.1209 271.779 58.1783 272.786 58.3792 272.799C59.4013 272.178 57.1894 268.425 56.1564 269.022Z" fill="white"/>
<path d="M51.5058 268.646C51.3767 268.799 51.9952 269.499 52.2159 270.567C52.4677 271.628 52.2029 272.525 52.3852 272.609C53.5581 272.368 52.6664 268.364 51.5058 268.646Z" fill="white"/>
<path d="M46.9766 272.131C47.9635 272.259 48.1103 268.291 47.1193 268.347C47.1662 268.468 47.03 272.017 46.9766 272.131Z" fill="white"/>
<path d="M58.6855 264.866C58.8144 264.86 62.316 266.922 62.3697 267.03C62.9334 266.189 59.1386 263.964 58.6855 264.866Z" fill="white"/>
<path d="M53.016 217.623L35.7028 229.849C35.7028 229.849 16.6943 217.455 13.3984 219.606L37.9042 252.662L63.8734 232.186L53.016 217.623Z" fill="#17282F"/>
<path d="M44.7119 239.008C45.4506 240.878 42.6154 242.128 41.8027 240.262C40.9793 238.181 44.1758 237.064 44.7614 239.161" fill="#DADBD8"/>
<path d="M37.9042 252.663L40.5113 250.582L16.0403 219.667C16.0403 219.667 14.31 218.67 13.3984 219.606L37.9042 252.663Z" fill="#33535F"/>
<path d="M35.4746 229.189C35.3172 229.314 35.8426 230.176 35.9133 231.354C36.0146 232.533 35.6198 233.461 35.794 233.562C36.9852 233.459 36.6647 229.113 35.4746 229.189Z" fill="white"/>
<path d="M31.4715 226.786C31.2881 226.865 31.5323 227.769 31.2571 228.823C31.0125 229.886 30.378 230.573 30.5049 230.728C31.6626 231.034 32.6366 227.048 31.4715 226.786Z" fill="white"/>
<path d="M25.8691 227.898C26.697 228.451 28.5859 224.96 27.6727 224.57C27.6609 224.699 25.9676 227.819 25.8691 227.898Z" fill="white"/>
<path d="M132.608 225.295C129.297 222.75 112.511 209.748 108.178 204.408C104.982 200.469 102.79 196.606 101.699 194.502C102.089 194.55 102.413 194.615 102.67 194.677L118.845 211.142C124.524 217.025 129.518 222.157 132.608 225.295ZM102.544 194.549C102.293 194.48 101.986 194.411 101.623 194.356C101.143 193.423 100.898 192.873 100.898 192.873L102.544 194.549Z" fill="#0F191D"/>
<path d="M133.178 225.73C133.178 225.73 132.977 225.577 132.608 225.295C129.519 222.157 124.525 217.025 118.846 211.142L133.178 225.73Z" fill="#20353D"/>
<path d="M102.67 194.677C102.413 194.615 102.089 194.55 101.699 194.502C101.673 194.452 101.648 194.404 101.623 194.356C101.986 194.411 102.293 194.48 102.544 194.549L102.67 194.677Z" fill="#20353D"/>
</svg>
