<svg width="56" height="56" viewBox="0 0 56 56" fill="none" xmlns="http://www.w3.org/2000/svg">
<rect width="56" height="56" rx="28" fill="#349F6E"/>
<path d="M29.9972 44L17.2029 29.4867L17.2768 26.6105C23.2815 26.9857 27.9498 26.4094 29.0359 21.2601L16.2414 21.1935L18.3122 18.0495L28.5182 18.1827C26.9631 15.2527 22.6864 14.8915 16.0195 15.1067L18.3122 12.0294L39.9819 12L37.8371 15.039H31.8467C32.9416 16.0869 33.7429 17.2925 33.7696 18.3163L39.9819 18.2494L37.8371 21.2591L33.6955 21.326C33.049 25.8156 28.4993 28.4737 22.75 29.0845L35.63 43.996L29.9977 43.9988L29.9972 44Z" fill="white" stroke="#349F6E" stroke-width="0.099084"/>
</svg>
