<svg width="59" height="34" viewBox="0 0 59 34" fill="none" xmlns="http://www.w3.org/2000/svg">
<g clip-path="url(#clip0_3320_3633)">
<path d="M4.57786 3.25525C4.4001 3.07778 3.93866 2.50808 4.57786 2.29424C5.21709 2.08121 16.0149 0.123629 25.7822 1.36962C25.7822 1.36962 27.7708 1.54775 27.4509 4.00241L18.5717 3.71823C18.5717 3.71823 9.12417 16.7069 8.30719 19.5181L4.57786 19.3399C4.57786 19.3399 9.01755 10.7281 14.5943 4.1094C14.5943 4.1094 14.7355 3.68199 13.4927 3.71823C12.2499 3.7538 6.53109 4.71427 6.24739 4.71427C5.96306 4.71427 5.14608 3.89569 4.57786 3.25525Z" fill="#E2221D"/>
<path d="M20.5188 15.9244C20.5188 15.9244 18.7374 17.4266 17.9263 17.745C17.1148 18.0625 15.7038 17.9572 16.5503 16.8256C17.3967 15.6947 21.7715 12.0545 22.5822 11.9136C23.394 11.7718 23.7109 12.4434 23.2169 13.1498C22.7237 13.8569 21.9999 14.7581 20.5188 15.9244ZM58.2802 25.6609C57.1862 24.7068 51.1552 23.4344 49.4258 23.1874C47.6982 22.9394 48.6148 22.2331 48.6148 22.2331C50.7662 19.6534 55.6696 14.8468 56.9043 13.822C58.1387 12.7966 56.2696 12.3722 55.2467 12.1607C54.2232 11.9485 53.8004 12.5496 53.8004 12.5496C51.8956 14.3518 47.4259 17.9003 47.4259 17.9003C44.8863 19.3637 45.2995 17.5326 45.8282 16.7907C46.3576 16.0487 48.6852 13.327 49.9554 12.1607C51.2255 10.9944 49.2852 10.676 48.5793 10.5351C47.8744 10.3933 47.6271 10.3933 46.9219 11.1596C46.2162 11.9266 42.9006 15.8009 41.7364 16.8612C40.5723 17.9215 39.902 18.6991 38.8439 18.1338C37.7856 17.5675 37.9972 16.8256 40.7138 13.4325C43.4294 10.0401 46.6746 7.88463 48.0507 6.61217C49.4258 5.3397 45.6866 4.88046 44.77 5.44588C43.8531 6.0113 36.339 13.5037 35.4927 14.2813C34.6462 15.0589 32.2831 17.7798 31.3654 17.2848C30.4487 16.7907 31.5773 15.412 31.5773 15.412C33.6938 12.4077 39.3022 6.96535 40.4663 6.08178C41.6305 5.19875 41.5949 4.45613 39.9369 4.10294C38.2794 3.74975 37.715 4.35061 37.1508 4.84476C36.5865 5.3397 33.7642 8.34387 32.0358 10.2373C30.3072 12.1313 25.863 16.2246 24.5573 17.3561C23.2526 18.4868 22.9 17.9003 22.9 17.9003C22.3 17.2431 23.5702 16.1192 24.7344 15.2354C25.898 14.3518 26.9561 12.6557 25.2633 10.6413C23.5702 8.62658 21.7715 9.08595 21.7715 9.08595C17.6789 10.8178 15.1394 13.9402 14.1516 14.8976C12.5993 16.4021 15.1394 19.1583 16.2895 19.8299C17.4383 20.5013 19.8713 19.0522 19.8713 19.0522C20.6163 20.784 23.0059 20.2536 24.3464 19.7594C25.6867 19.2645 28.438 17.5675 28.438 17.5675C28.5439 18.9818 29.7429 19.5175 29.7429 19.5175C33.2702 20.3603 35.6689 17.745 35.6689 17.745C35.9867 19.6177 38.2092 20.2893 38.2092 20.2893C41.313 20.8188 43.0066 19.1932 43.0066 19.1932C44.3116 20.9606 46.4279 20.0419 46.4279 20.0419C45.6866 21.0667 44.6995 22.4975 44.6995 22.4975C23.6936 20.1126 3.21632 25.3428 2.08758 25.6255C0.959058 25.908 1.77067 26.6509 2.93413 27.1807C4.09833 27.7111 5.01584 27.3223 5.01584 27.3223C26.6565 22.7098 43.2531 24.3885 43.2531 24.3885C43.2531 24.3885 41.4542 27.3573 41.172 27.8164C40.8901 28.2766 40.7138 28.7359 41.2077 28.8421C41.7009 28.9479 43.7116 29.1245 43.7116 29.1245L46.4279 24.9191C51.3306 25.4844 54.3647 26.8275 56.0578 27.3573C57.7505 27.8878 57.6802 27.7111 58.2802 26.9337C58.8794 26.156 58.2802 25.6609 58.2802 25.6609Z" fill="#E2221D"/>
<path d="M3.95089 2.52868C3.77315 2.35068 3.31171 1.78152 3.95089 1.56781C4.59014 1.35478 15.3879 -0.602669 25.155 0.643051C25.155 0.643051 27.1439 0.821184 26.8246 3.27611L17.9454 2.991C17.9454 2.991 8.49722 15.9807 7.68024 18.7915L3.95089 18.6134C3.95089 18.6134 8.39065 10.0015 13.9673 3.38283C13.9673 3.38283 14.1095 2.95529 12.8657 2.991C11.6229 3.0267 5.90475 3.98771 5.62042 3.98771C5.33611 3.98771 4.51913 3.16913 3.95089 2.52868Z" fill="#231F20"/>
<path d="M19.89 15.1984C19.89 15.1984 18.1086 16.7005 17.2969 17.018C16.4859 17.3364 15.0753 17.2302 15.9215 16.0996C16.768 14.9686 21.142 11.3286 21.9536 11.1876C22.7646 11.0459 23.0821 11.7173 22.5883 12.4237C22.0943 13.1307 21.3709 14.032 19.89 15.1984ZM57.6507 24.9349C56.5575 23.9808 50.5257 22.7083 48.7972 22.4613C47.0688 22.2134 47.9862 21.507 47.9862 21.507C50.1376 18.9263 55.041 14.1208 56.2755 13.096C57.5101 12.0705 55.6407 11.646 54.6173 11.4346C53.5946 11.2224 53.1717 11.8235 53.1717 11.8235C51.267 13.6257 46.797 17.1742 46.797 17.1742C44.2576 18.6376 44.6699 16.8067 45.1994 16.0646C45.7281 15.3218 48.0565 12.6009 49.3267 11.4346C50.5961 10.2683 48.6564 9.94992 47.9507 9.80897C47.2456 9.66721 46.9984 9.66721 46.2925 10.4335C45.5874 11.2005 42.2711 15.0748 41.107 16.1351C39.9435 17.1954 39.2734 17.9729 38.2152 17.4077C37.1567 16.8414 37.3678 16.0996 40.0843 12.7065C42.8008 9.31402 46.0459 7.15852 47.4218 5.88605C48.7972 4.61359 45.058 4.15435 44.1412 4.71977C43.2236 5.28519 35.7105 12.7776 34.864 13.5552C34.0176 14.3321 31.6536 17.0537 30.7368 16.5587C29.8192 16.0646 30.9486 14.6859 30.9486 14.6859C33.0651 11.6818 38.6735 6.23937 39.8378 5.35567C41.0019 4.47263 40.9664 3.73002 39.3081 3.37683C37.6509 3.02364 37.0859 3.62383 36.5215 4.11878C35.9571 4.61359 33.1354 7.61789 31.4071 9.51128C29.6786 11.4052 25.2336 15.4985 23.9287 16.63C22.6238 17.7608 22.2705 17.1742 22.2705 17.1742C21.6706 16.517 22.9408 15.3923 24.105 14.5094C25.2691 13.6257 26.3273 11.9297 24.6344 9.91515C22.9408 7.9006 21.142 8.35997 21.142 8.35997C17.0502 10.0917 14.5101 13.2141 13.5229 14.1713C11.9707 15.675 14.5108 18.4322 15.6599 19.1038C16.8097 19.7753 19.2417 18.3261 19.2417 18.3261C19.9869 20.058 22.3764 19.5274 23.7168 19.0333C25.058 18.5384 27.8092 16.8414 27.8092 16.8414C27.9145 18.2556 29.1142 18.7915 29.1142 18.7915C32.6415 19.6336 35.0401 17.018 35.0401 17.018C35.358 18.8915 37.5796 19.5632 37.5796 19.5632C40.6842 20.0927 42.377 18.4671 42.377 18.4671C43.6827 20.2345 45.7984 19.316 45.7984 19.316C45.058 20.3407 44.0702 21.7716 44.0702 21.7716C23.0648 19.3865 2.58753 24.6167 1.459 24.8994C0.330216 25.1821 1.14121 25.9249 2.30534 26.4546C3.46969 26.9851 4.38636 26.5962 4.38636 26.5962C26.0278 21.9837 42.6244 23.6624 42.6244 23.6624C42.6244 23.6624 40.8249 26.6312 40.5426 27.0903C40.2607 27.5505 40.0843 28.0098 40.5782 28.1159C41.0722 28.2218 43.0829 28.3984 43.0829 28.3984L45.7984 24.193C50.7019 24.7583 53.7359 26.1014 55.4291 26.6312C57.122 27.1616 57.0517 26.9851 57.6507 26.2076C58.2505 25.4298 57.6507 24.9349 57.6507 24.9349Z" fill="#231F20"/>
<path d="M1.7763 31.7932H2.18544C2.40418 31.7932 2.55533 31.5545 2.55533 31.3195C2.55533 31.0322 2.47749 30.7882 2.14618 30.7882H1.7763V31.7932ZM1.04102 30.2464H2.36559C3.03736 30.2464 3.30047 30.6565 3.30047 31.3006C3.30047 31.7008 3.18336 32.3343 2.32158 32.3343H1.7763V33.769H1.04102V30.2464Z" fill="#231F20"/>
<path d="M5.9733 32.0077C5.9733 31.1052 5.91943 30.7149 5.50559 30.7149C5.09196 30.7149 5.03816 31.1052 5.03816 32.0077C5.03816 32.9105 5.09196 33.3009 5.50559 33.3009C5.91943 33.3009 5.9733 32.9105 5.9733 32.0077ZM4.29297 32.0077C4.29297 31.0765 4.29297 30.1881 5.50559 30.1881C6.71822 30.1881 6.71822 31.0765 6.71822 32.0077C6.71822 32.9294 6.71822 33.8276 5.50559 33.8276C4.29297 33.8276 4.29297 32.9294 4.29297 32.0077Z" fill="#231F20"/>
<path d="M7.57422 30.2468H8.329L8.7868 32.7206H8.79581L9.35095 30.2468H10.2179L10.7437 32.7206H10.7535L11.1914 30.2468H11.9123L11.1333 33.7686H10.32L9.77017 31.1934H9.7603L9.1513 33.7686H8.35319L7.57422 30.2468Z" fill="#231F20"/>
<path d="M12.7988 33.769V30.2472H14.7173V30.7882H13.5341V31.6568H14.6249V32.198H13.5341V33.2272H14.7558V33.769H12.7988Z" fill="#231F20"/>
<path d="M16.5361 31.7689H16.8621C17.154 31.7689 17.2372 31.4763 17.2372 31.252C17.2372 30.9154 17.0958 30.7888 16.8621 30.7888H16.5361V31.7689ZM16.5361 33.769H15.8008V30.2471H17.1595C17.6609 30.2471 17.9824 30.5691 17.9824 31.1687C17.9824 31.6181 17.807 31.9545 17.3297 32.0325V32.0418C17.4898 32.0613 17.9672 32.1 17.9672 32.7344C17.9672 32.9587 17.9824 33.6227 18.0498 33.769H17.3297C17.2319 33.5544 17.2516 33.3157 17.2516 33.0861C17.2516 32.667 17.2911 32.3101 16.7258 32.3101H16.5361V33.769Z" fill="#231F20"/>
<path d="M22.4183 32.0077C22.4183 31.1052 22.3647 30.7149 21.9508 30.7149C21.537 30.7149 21.4834 31.1052 21.4834 32.0077C21.4834 32.9105 21.537 33.3009 21.9508 33.3009C22.3647 33.3009 22.4183 32.9105 22.4183 32.0077ZM20.7383 32.0077C20.7383 31.0765 20.7383 30.1881 21.9508 30.1881C23.1635 30.1881 23.1635 31.0765 23.1635 32.0077C23.1635 32.9294 23.1635 33.8276 21.9508 33.8276C20.7383 33.8276 20.7383 32.9294 20.7383 32.0077Z" fill="#231F20"/>
<path d="M24.3164 33.769V30.2472H26.1424V30.7882H25.0516V31.691H26.0942V32.2321H25.0516V33.769H24.3164Z" fill="#231F20"/>
<path d="M29.6952 33.8271C28.7845 33.8271 28.6143 33.2907 28.6536 32.6806H29.3882C29.3882 33.0179 29.4032 33.3004 29.8072 33.3004C30.0552 33.3004 30.1771 33.1391 30.1771 32.9004C30.1771 32.266 28.6975 32.2273 28.6975 31.1785C28.6975 30.6274 28.9599 30.1879 29.8557 30.1879C30.5721 30.1879 30.9267 30.5099 30.8785 31.2466H30.1627C30.1627 30.9836 30.1189 30.7153 29.8215 30.7153C29.5833 30.7153 29.4418 30.8463 29.4418 31.0904C29.4418 31.7589 30.9222 31.7005 30.9222 32.8078C30.9222 33.7195 30.2552 33.8271 29.6952 33.8271Z" fill="#231F20"/>
<path d="M32.0332 30.2466H32.7685V33.7686H32.0332V30.2466Z" fill="#231F20"/>
<path d="M33.9551 33.769V30.2472H35.1382L35.6883 32.642H35.6979L36.2827 30.2472H37.4265V33.769H36.7109V31.052H36.701L36.0241 33.769H35.3235L34.6807 31.052H34.6708V33.769H33.9551Z" fill="#231F20"/>
<path d="M39.3506 31.7932H39.76C39.9793 31.7932 40.1298 31.5545 40.1298 31.3195C40.1298 31.0322 40.052 30.7882 39.7204 30.7882H39.3506V31.7932ZM38.6152 30.2464H39.9397C40.6116 30.2464 40.8749 30.6565 40.8749 31.3006C40.8749 31.7008 40.7576 32.3343 39.8961 32.3343H39.3506V33.769H38.6152V30.2464Z" fill="#231F20"/>
<path d="M41.9062 33.769V30.2472H42.6415V33.184H43.7415V33.769H41.9062Z" fill="#231F20"/>
<path d="M44.6484 30.2466H45.3838V33.7686H44.6484V30.2466Z" fill="#231F20"/>
<path d="M46.5508 32.0077C46.5508 31.0765 46.5508 30.1881 47.7634 30.1881C48.5131 30.1881 48.8147 30.6027 48.7854 31.3592H48.0651C48.0651 30.8906 47.9829 30.7149 47.7634 30.7149C47.3497 30.7149 47.296 31.1052 47.296 32.0077C47.296 32.9105 47.3497 33.3009 47.7634 33.3009C48.1037 33.3009 48.0894 32.8613 48.0993 32.5831H48.8246C48.8246 33.5251 48.4495 33.8276 47.7634 33.8276C46.5508 33.8276 46.5508 32.9294 46.5508 32.0077Z" fill="#231F20"/>
<path d="M49.877 30.2466H50.6122V33.7686H49.877V30.2466Z" fill="#231F20"/>
<path d="M53.9068 30.2468V30.8318H53.0883V33.7686H52.3536V30.8318H51.5352V30.2468H53.9068Z" fill="#231F20"/>
<path d="M55.4805 32.5491L54.5605 30.2465H55.3638L55.8896 31.7342L56.4494 30.2465H57.199L56.2157 32.5491V33.7686H55.4805V32.5491Z" fill="#231F20"/>
</g>
<defs>
<clipPath id="clip0_3320_3633">
<rect width="57.7966" height="33.7006" fill="white" transform="translate(0.878906 0.149902)"/>
</clipPath>
</defs>
</svg>
