<svg width="24" height="24" viewBox="0 0 24 24" fill="none" xmlns="http://www.w3.org/2000/svg">
<g clip-path="url(#clip0_1593_7250)">
<path d="M5.04688 10.2839L7.98494 9.24592V2.58398H5.04688V10.2839Z" fill="#7A7A7A"/>
<path d="M13.0977 10.2839L16.038 9.24592V2.58398H13.0977V10.2839Z" fill="#7A7A7A"/>
<path d="M1.45703 24.0004H22.5459V16.8262H1.45703V24.0004ZM11.557 17.9314H13.8191V21.5511H11.557V17.9314ZM7.55848 17.9314H9.82172V21.5511H7.55848V17.9314ZM3.41201 17.9314H5.67301V21.5511H3.41201V17.9314Z" fill="#7A7A7A"/>
<path d="M17.5665 12.5784L16.9892 9.64819L9.65806 12.5784L8.78034 9.64819L1.45703 12.5784V15.7026H22.5447V12.5784H17.5665Z" fill="#7A7A7A"/>
<path d="M3.7191 2.10631C4.0879 2.03681 4.37263 1.82943 4.59794 1.60299C4.83223 1.37319 5.01158 1.14339 5.27949 1.00551C5.53283 0.863148 5.85567 0.822793 6.06417 0.864269C6.26371 0.899019 6.3915 0.985334 6.53947 1.21289C6.67847 1.43036 6.77935 1.70724 6.90266 1.99757H6.96207C7.06744 1.68594 7.07193 1.35413 6.96544 1.01896C6.90939 0.851938 6.81298 0.68043 6.65156 0.544792C6.49351 0.405792 6.25922 0.339654 6.0653 0.362074C5.66175 0.411397 5.42522 0.665857 5.17412 0.840729C4.92639 1.02008 4.66969 1.21513 4.40962 1.33171C4.14171 1.44717 3.87492 1.52676 3.64176 1.54134C3.40523 1.54694 3.22139 1.47071 3.03755 1.33059C2.65754 1.04811 2.35376 0.526857 2.03428 0L1.97487 0.0112097C1.93452 0.643438 2.08697 1.31826 2.634 1.83055C2.912 2.0794 3.35367 2.19262 3.7191 2.10631Z" fill="#7A7A7A"/>
<path d="M12.82 2.15885C13.098 2.10168 13.2953 1.94026 13.4511 1.76202C13.6025 1.59163 13.7269 1.42237 13.9107 1.33381C14.0878 1.23853 14.3244 1.24525 14.4398 1.28673C14.5441 1.32484 14.5934 1.33942 14.7055 1.48178C14.8064 1.61518 14.8938 1.79901 15.0138 1.99743H15.0743C15.183 1.77772 15.1987 1.53895 15.1315 1.28785C15.0945 1.16342 15.0227 1.03115 14.8994 0.924657C14.7784 0.813681 14.5912 0.764358 14.4421 0.784535C14.1338 0.832737 13.9791 1.04124 13.8065 1.16903C13.635 1.30355 13.4511 1.42349 13.2594 1.49411C13.0711 1.5524 12.885 1.59276 12.746 1.59388C12.6014 1.58603 12.5106 1.53783 12.3985 1.45824C12.1598 1.2957 11.9255 0.958286 11.6475 0.607422L11.5881 0.619753C11.504 1.07487 11.5881 1.56585 11.9927 1.95819C12.2035 2.14764 12.5465 2.23171 12.82 2.15885Z" fill="#7A7A7A"/>
</g>
<defs>
<clipPath id="clip0_1593_7250">
<rect width="24" height="24" fill="white"/>
</clipPath>
</defs>
</svg>
