<svg width="380" height="380" viewBox="0 0 380 380" fill="none" xmlns="http://www.w3.org/2000/svg">
<path d="M295.587 18.3017L294.393 18.8033C289.448 20.8225 285.149 24.1559 281.962 28.4426C278.776 32.7293 276.822 37.8061 276.313 43.1233C276.193 44.5109 276.175 45.9055 276.26 47.2957C276.639 52.3457 278.26 57.2238 280.978 61.4969C283.696 65.77 287.427 69.3059 291.84 71.7905C297.061 74.6785 303.346 76.2061 307.154 80.7738C312.109 86.7169 310.999 95.3886 309.624 102.951C308.248 110.513 307.161 119.184 312.147 125.112C315.263 128.821 320.226 130.592 325.067 131.055C337.911 132.287 350.633 125.105 357.99 114.662C365.347 104.22 367.87 90.9882 367.194 78.2581C366.32 60.4209 359.206 42.5609 345.876 30.4009C332.545 18.2409 312.755 12.7765 295.587 18.3017Z" fill="#F5F5F5"/>
<path d="M295.064 285.245L294.714 283.999C293.205 278.124 289.876 272.877 285.205 269.007C280.535 265.138 274.76 262.843 268.707 262.453C263.644 262.199 258.597 263.201 254.014 265.368C249.432 267.536 245.456 270.803 242.442 274.879C238.923 279.705 236.62 285.747 231.619 288.954C225.098 293.134 216.64 290.953 209.306 288.642C201.972 286.332 193.498 284.181 187 288.384C182.934 291.013 180.555 295.718 179.491 300.475C176.671 313.069 182.204 326.589 191.651 335.185C201.098 343.78 213.904 347.907 226.611 348.865C244.425 350.195 263.091 345.361 276.771 333.665C290.451 321.968 298.408 302.961 295.064 285.245Z" fill="#F5F5F5"/>
<path d="M332.176 194.539C342.363 194.539 350.621 186.281 350.621 176.094C350.621 165.907 342.363 157.648 332.176 157.648C321.989 157.648 313.73 165.907 313.73 176.094C313.73 186.281 321.989 194.539 332.176 194.539Z" fill="#F5F5F5"/>
<path d="M38.4413 194.539C48.6283 194.539 56.8865 186.281 56.8865 176.094C56.8865 165.907 48.6283 157.648 38.4413 157.648C28.2543 157.648 19.9961 165.907 19.9961 176.094C19.9961 186.281 28.2543 194.539 38.4413 194.539Z" fill="#F5F5F5"/>
<path d="M135.055 38.9841C140.15 38.9841 144.281 34.8533 144.281 29.7577C144.281 24.6621 140.15 20.5312 135.055 20.5312C129.959 20.5312 125.828 24.6621 125.828 29.7577C125.828 34.8533 129.959 38.9841 135.055 38.9841Z" fill="#F5F5F5"/>
<path d="M102.913 51.165C113.675 40.0538 110.179 21.3958 95.8832 15.483C81.1772 9.40305 59.7452 13.7198 44.6136 21.2286C22.3608 32.2638 8.89356 60.0874 10.2996 84.8862C10.8772 94.8346 14.0996 105.117 21.5324 111.775C28.9652 118.433 41.148 120.279 48.938 114.055C58.476 106.455 57.6172 91.6958 63.7656 81.1698C69.7924 70.8566 81.656 65.8406 91.8856 59.715C95.9125 57.3492 99.6187 54.4757 102.913 51.165Z" fill="#F5F5F5"/>
<path d="M146.678 108.172C150.324 104.856 154.399 102.044 158.792 99.8118L158.922 86.1318L181.007 81.3438L186.783 93.7318C191.712 93.9546 196.589 94.8364 201.284 96.3538L211.035 86.7854L230.035 99.0213L225.361 111.858C228.677 115.504 231.489 119.578 233.721 123.972L247.401 124.101L252.189 146.187L239.808 151.963C239.576 156.885 238.687 161.754 237.164 166.441L246.724 176.192L234.496 195.192L221.66 190.518C218.01 193.83 213.936 196.641 209.545 198.878L209.416 212.558L187.323 217.361L181.554 204.981C176.626 204.755 171.749 203.873 167.054 202.359L157.318 211.927L138.318 199.691L142.992 186.862C139.68 183.213 136.868 179.139 134.632 174.748L120.952 174.619L116.164 152.525L128.552 146.749C128.761 141.819 129.63 136.94 131.136 132.241L121.598 122.505L133.834 103.505L146.678 108.172ZM159.013 133.145C155.808 138.124 154.151 143.941 154.252 149.861C154.353 155.781 156.208 161.538 159.581 166.404C162.954 171.271 167.694 175.027 173.203 177.199C178.711 179.371 184.739 179.861 190.526 178.607C196.312 177.353 201.597 174.411 205.712 170.153C209.826 165.895 212.586 160.513 213.641 154.687C214.697 148.861 214.001 142.852 211.642 137.422C209.283 131.991 205.366 127.382 200.387 124.177C197.08 122.044 193.385 120.583 189.513 119.879C185.641 119.175 181.668 119.241 177.821 120.074C173.975 120.907 170.331 122.49 167.097 124.733C163.863 126.976 161.103 129.835 158.975 133.145H159.013Z" fill="#E0E0E0"/>
<path d="M158.978 133.144L159.244 132.741C159.441 132.467 159.707 132.072 160.064 131.57L160.665 130.712C160.908 130.4 161.197 130.096 161.493 129.746L162.466 128.629C162.848 128.216 163.251 127.823 163.674 127.451C165.769 125.441 168.161 123.764 170.765 122.481C174.208 120.752 177.952 119.704 181.793 119.395L183.412 119.281C183.959 119.281 184.506 119.281 185.068 119.281C185.631 119.281 186.193 119.281 186.763 119.357L188.481 119.562L189.355 119.676L190.221 119.866L191.977 120.262C192.57 120.414 193.14 120.634 193.732 120.816C194.33 120.993 194.916 121.206 195.488 121.455C196.674 121.933 197.824 122.494 198.931 123.134C199.486 123.461 200.071 123.765 200.618 124.13L202.244 125.285C202.51 125.49 202.799 125.665 203.058 125.886L203.818 126.554C204.319 127.01 204.851 127.444 205.338 127.93C206.321 128.919 207.238 129.973 208.081 131.084C208.952 132.223 209.747 133.419 210.46 134.664C210.802 135.294 211.098 135.963 211.433 136.617C211.585 136.951 211.767 137.27 211.896 137.62L212.284 138.654C212.815 140.054 213.252 141.489 213.591 142.948C213.89 144.453 214.089 145.976 214.184 147.508L214.268 148.663V149.826V150.988C214.266 151.38 214.239 151.771 214.184 152.159C214.085 152.919 213.986 153.679 213.895 154.5L213.371 156.818C211.771 163.117 208.157 168.721 203.08 172.778L201.18 174.214L199.121 175.476L198.619 175.78L198.087 176.038L197.038 176.547L195.99 177.056L194.91 177.459C193.483 178 192.02 178.445 190.533 178.789C189.065 179.083 187.58 179.281 186.087 179.382L184.977 179.458C184.612 179.458 184.217 179.458 183.875 179.458C183.115 179.458 182.416 179.458 181.694 179.382C180.269 179.251 178.855 179.025 177.461 178.706C176.099 178.394 174.759 177.996 173.448 177.512C172.802 177.262 172.186 176.958 171.563 176.684L170.636 176.274C170.332 176.129 170.051 175.939 169.754 175.78L168.037 174.799C167.474 174.45 166.965 174.039 166.433 173.667C165.392 172.926 164.404 172.114 163.477 171.235C163.014 170.816 162.578 170.369 162.17 169.897C161.759 169.434 161.318 169.008 160.938 168.529L159.852 167.093L159.32 166.386L158.856 165.626C158.552 165.132 158.256 164.638 157.952 164.152C157.648 163.665 157.442 163.133 157.192 162.632C156.941 162.13 156.698 161.636 156.477 161.112C156.257 160.587 156.105 160.093 155.915 159.592C154.606 155.968 154.01 152.125 154.159 148.275C154.252 145.374 154.788 142.503 155.748 139.763C155.953 139.208 156.082 138.654 156.318 138.175L156.933 136.83C157.131 136.412 157.29 136.024 157.473 135.682C157.655 135.34 157.845 135.044 158.005 134.77L158.765 133.546C158.932 133.273 159.023 133.136 159.023 133.136C159.023 133.136 158.955 133.288 158.803 133.569C158.651 133.85 158.408 134.276 158.111 134.816L157.594 135.728C157.42 136.07 157.268 136.488 157.078 136.883L156.485 138.228C156.273 138.748 156.088 139.278 155.93 139.816C155.001 142.546 154.488 145.4 154.41 148.283C154.284 152.101 154.895 155.907 156.211 159.493L156.774 161.013C156.994 161.507 157.245 161.993 157.488 162.533C157.731 163.072 157.944 163.551 158.248 164.053C158.552 164.554 158.841 165.026 159.145 165.512L159.601 166.272L160.133 166.971C160.49 167.442 160.893 167.914 161.212 168.392C161.531 168.871 162.025 169.282 162.436 169.738C162.839 170.202 163.27 170.641 163.728 171.052C164.649 171.92 165.629 172.722 166.661 173.454C167.186 173.826 167.695 174.214 168.25 174.571L169.96 175.552C170.248 175.711 170.53 175.894 170.834 176.038L171.761 176.319C172.376 176.585 172.984 176.889 173.615 177.132C174.912 177.606 176.237 177.997 177.582 178.303C178.961 178.621 180.36 178.842 181.77 178.964C182.484 179.025 183.206 179.01 183.928 179.04C184.286 179.04 184.65 179.04 185.015 179.04L186.11 178.964C187.583 178.866 189.048 178.67 190.495 178.379C191.962 178.038 193.405 177.596 194.812 177.056L195.883 176.654L196.917 176.16L197.958 175.65L198.475 175.4L198.969 175.103L200.952 173.88L202.822 172.466C207.842 168.458 211.411 162.917 212.983 156.688C213.158 155.928 213.325 155.168 213.5 154.408C213.675 153.648 213.69 152.888 213.781 152.128C213.839 151.749 213.867 151.365 213.865 150.981V149.826V148.678L213.781 147.538C213.686 146.035 213.491 144.539 213.196 143.062C212.863 141.623 212.434 140.209 211.912 138.828L211.532 137.802C211.41 137.46 211.228 137.141 211.076 136.814C210.749 136.168 210.46 135.507 210.118 134.884C209.419 133.654 208.637 132.473 207.777 131.35C206.945 130.248 206.041 129.202 205.072 128.219C204.585 127.74 204.061 127.314 203.552 126.866L202.792 126.197C202.533 125.984 202.252 125.802 201.986 125.604C201.454 125.217 200.914 124.844 200.39 124.449C199.866 124.054 199.265 123.796 198.718 123.469C197.625 122.83 196.487 122.271 195.313 121.797C194.749 121.548 194.171 121.335 193.58 121.158C192.995 120.976 192.433 120.756 191.848 120.604L190.115 120.216L189.256 120.018L188.39 119.904L186.687 119.692C186.132 119.608 185.562 119.638 185.015 119.608C184.468 119.578 183.913 119.57 183.374 119.608L181.77 119.714C177.961 120.004 174.243 121.023 170.818 122.716C168.223 123.976 165.834 125.624 163.735 127.603C163.31 127.967 162.904 128.353 162.519 128.758L161.539 129.86C161.235 130.202 160.938 130.506 160.703 130.81L160.08 131.654L159.236 132.802C159.155 132.92 159.069 133.034 158.978 133.144Z" fill="#263238"/>
<path d="M146.681 108.171L145.86 107.883L143.413 107.009L133.761 103.558H133.837L121.631 122.558V122.437L131.207 132.172L131.253 132.218V132.286C129.752 136.964 128.878 141.819 128.653 146.726V146.81H128.585L116.205 152.593L116.281 152.434C117.801 159.388 119.397 166.775 121.084 174.527L120.932 174.398L134.612 174.519H134.711L134.756 174.611C136.994 178.989 139.806 183.051 143.116 186.687L143.185 186.763V186.862L138.518 199.691L138.45 199.485L157.45 211.714H157.222L166.965 202.145L167.049 202.062H167.155C171.831 203.569 176.687 204.448 181.595 204.676H181.709L181.755 204.783C183.563 208.666 185.555 212.892 187.531 217.171L187.318 217.057L209.403 212.269L209.251 212.459C209.251 208.149 209.335 203.491 209.381 198.779V198.665L209.487 198.611C213.859 196.37 217.915 193.559 221.548 190.251L221.639 190.175H221.753L234.582 194.849L234.354 194.925L246.59 175.925V176.169L237.029 166.418L236.946 166.334V166.22C238.462 161.546 239.343 156.689 239.568 151.78V151.666L239.674 151.613L252.062 145.845L251.956 146.057C250.324 138.513 248.731 131.149 247.175 123.964L247.35 124.109L233.67 123.972H233.556L233.511 123.873C231.275 119.493 228.464 115.431 225.151 111.797L225.082 111.721V111.622L229.756 98.793L229.825 98.983L210.825 86.7394H211.015L201.256 96.3002L201.195 96.361H201.112C196.437 94.8451 191.581 93.9607 186.672 93.7314H186.596V93.663L180.881 81.3814L181.01 81.4422L158.909 86.1998L158.977 86.1162C158.917 91.5882 158.871 96.0646 158.825 99.7962V99.8342C155.519 101.517 152.388 103.523 149.477 105.823C148.52 106.583 147.828 107.183 147.365 107.579C146.901 107.974 146.681 108.171 146.681 108.171C146.681 108.171 147.532 107.32 149.439 105.777C152.332 103.438 155.457 101.401 158.765 99.6974V99.7582C158.765 96.0418 158.833 91.5654 158.871 86.0782V86.0098H158.939L181.025 81.1914H181.116V81.275C182.91 85.075 184.802 89.1486 186.907 93.6478L186.793 93.5794C191.734 93.7989 196.624 94.6782 201.332 96.1938H201.188L210.893 86.6406L210.977 86.557L211.083 86.6178L230.083 98.8462L230.197 98.9146L230.151 99.0438C228.631 103.209 227.111 107.472 225.485 111.873L225.447 111.698C228.785 115.358 231.619 119.448 233.875 123.858L233.716 123.759L247.396 123.888H247.54V124.033C249.101 131.212 250.699 138.574 252.336 146.118V146.27L252.199 146.331L239.819 152.107L239.925 151.94C239.703 156.887 238.818 161.782 237.295 166.494L237.25 166.296L246.818 176.047L246.925 176.153L246.841 176.29L234.605 195.29L234.521 195.419L234.377 195.366L221.541 190.692L221.746 190.654C218.085 193.987 213.995 196.816 209.586 199.067L209.692 198.893C209.647 203.582 209.601 208.241 209.563 212.573V212.725L209.403 212.763L187.318 217.543L187.166 217.581L187.097 217.437L181.329 205.056L181.489 205.163C176.544 204.936 171.652 204.049 166.942 202.525L167.132 202.48L157.435 212.041L157.328 212.139L157.207 212.063L138.207 199.82L138.085 199.744L138.131 199.607C139.765 195.146 141.361 190.753 142.812 186.778V186.953C139.482 183.291 136.655 179.202 134.407 174.793L134.551 174.877L120.871 174.74H120.749V174.618C119.077 166.866 117.481 159.479 115.977 152.525V152.419L116.075 152.365L128.463 146.605L128.395 146.719C128.626 141.797 129.511 136.929 131.025 132.241V132.355L121.471 122.596L121.411 122.543L121.456 122.475L133.723 103.475V103.429H133.768L143.306 106.94L145.753 107.845L146.681 108.171Z" fill="#263238"/>
<path d="M248.078 223.18L204.074 251.3H348.33V223.18H248.078Z" fill="#455A64"/>
<path d="M329.445 205.816V208.644V268.661L370.409 237.235L329.445 205.816Z" fill="#455A64"/>
<path d="M275.879 235.98H277.065V240.16H279.679V241.126H275.879V235.98Z" fill="#263238"/>
<path d="M283.738 240.016H281.352L280.896 241.11H279.68L281.96 235.98H283.138L285.418 241.11H284.171L283.738 240.016ZM283.358 239.112L282.545 237.12L281.732 239.081L283.358 239.112Z" fill="#263238"/>
<path d="M285.812 238.853V235.98H286.998V238.808C286.998 239.788 287.424 240.191 288.146 240.191C288.868 240.191 289.286 239.788 289.286 238.808V235.98H290.464V238.853C290.464 239.47 290.219 240.062 289.783 240.498C289.346 240.934 288.755 241.179 288.138 241.179C287.521 241.179 286.93 240.934 286.494 240.498C286.058 240.062 285.812 239.47 285.812 238.853Z" fill="#263238"/>
<path d="M296.337 235.98V241.11H295.364L292.803 237.994V241.11H291.633V235.98H292.598L295.144 239.096V235.98H296.337Z" fill="#263238"/>
<path d="M297.227 238.547C297.261 237.995 297.456 237.465 297.789 237.022C298.121 236.58 298.576 236.245 299.097 236.059C299.619 235.873 300.183 235.844 300.72 235.976C301.258 236.107 301.745 236.393 302.121 236.799L301.361 237.506C301.204 237.315 301.007 237.163 300.783 237.059C300.56 236.955 300.315 236.902 300.069 236.905C299.634 236.905 299.216 237.078 298.908 237.386C298.6 237.694 298.427 238.112 298.427 238.547C298.427 238.982 298.6 239.4 298.908 239.708C299.216 240.016 299.634 240.188 300.069 240.188C300.316 240.192 300.561 240.138 300.785 240.033C301.009 239.928 301.206 239.773 301.361 239.58L302.121 240.28C301.747 240.688 301.261 240.978 300.724 241.112C300.187 241.246 299.622 241.219 299.1 241.034C298.578 240.849 298.122 240.515 297.789 240.072C297.456 239.63 297.26 239.1 297.227 238.547Z" fill="#263238"/>
<path d="M307.626 235.98V241.11H306.441V239.013H304.107V241.11H302.922V235.98H304.107V238.002H306.441V235.98H307.626Z" fill="#263238"/>
<path d="M70.4894 152.994C75.0038 210.245 123.036 255.442 181.449 255.442V227.322C159.397 227.304 138.252 218.537 122.656 202.947C107.06 187.356 98.2859 166.215 98.2597 144.163C98.2597 144.163 99.5138 129.647 100.388 125.277L72.701 120.078C71.6902 125.041 70.0866 147.947 70.4894 152.994Z" fill="#349F6E"/>
<path d="M106.21 201.316L105.731 202.981V203.026L106.385 203.832L107.495 202.927L108.255 203.839L104.287 207.092L102.881 205.375C102.015 204.311 102.023 203.201 102.881 202.471C103.14 202.241 103.464 202.097 103.809 202.059C104.153 202.02 104.501 202.09 104.804 202.259L105.351 200.328L106.21 201.316ZM103.695 204.812L104.31 205.572L105.693 204.44L105.078 203.68C104.622 203.117 104.128 203.049 103.695 203.399C103.261 203.748 103.239 204.25 103.695 204.812Z" fill="#263238"/>
<path d="M101.838 197.066L102.598 196.496L104.954 199.688L100.835 202.728L98.5547 199.612L99.3147 199.042L100.911 201.216L101.807 200.555L100.394 198.639L101.154 198.092L102.567 200.007L103.517 199.3L101.838 197.066Z" fill="#263238"/>
<path d="M95.1055 194.562L100.6 193.551L101.254 194.524L98.2139 199.213L97.4995 198.149L99.6731 194.812L95.7515 195.534L95.1055 194.562Z" fill="#263238"/>
<path d="M94.8339 194.111L94.2031 193.1L98.5579 190.387L99.1887 191.39L94.8339 194.111Z" fill="#263238"/>
<path d="M95.1148 186.428L95.9432 185.949L97.9344 189.384L93.4808 191.961L91.5352 188.609L92.3636 188.13L93.7164 190.464L94.6816 189.901L93.4808 187.842L94.2864 187.378L95.4796 189.438L96.5056 188.845L95.1148 186.428Z" fill="#263238"/>
<path d="M87.3984 180.692L92.7184 179.863L93.3036 180.996L90.7196 183.58L94.3448 183.04L94.9148 184.165L91.1148 187.965L90.56 186.87L93.2428 184.203L89.4808 184.758L88.9868 183.785L91.6848 181.087L87.8848 181.672L87.3984 180.692Z" fill="#263238"/>
<path d="M117.654 118.318L62.3789 103.156L80.2617 146.301L117.654 118.318Z" fill="#455A64"/>
<path d="M103.564 117.246C109.439 101.259 120.073 87.4572 134.032 77.6992C147.992 67.9411 164.607 62.6961 181.639 62.6708V34.5508C133.524 34.5508 92.4456 65.2396 76.9492 108.073L103.564 117.246Z" fill="#455A64"/>
<path d="M107.441 78.9197L109.364 77.6049C110.755 76.6549 112.275 76.8449 113.164 78.1293C114.053 79.4137 113.658 80.8957 112.275 81.8381L110.352 83.1529L107.441 78.9197ZM111.659 81.0705C111.85 80.9607 112.015 80.8127 112.146 80.636C112.276 80.4592 112.368 80.2575 112.417 80.0433C112.466 79.8292 112.47 79.6072 112.429 79.3914C112.389 79.1756 112.304 78.9705 112.18 78.7891C112.056 78.6076 111.896 78.4537 111.71 78.3368C111.524 78.22 111.316 78.1428 111.099 78.1102C110.882 78.0775 110.66 78.09 110.448 78.1469C110.236 78.2038 110.037 78.3039 109.866 78.4409L108.969 79.0565L110.763 81.6785L111.659 81.0705Z" fill="#263238"/>
<path d="M118.074 76.7136L118.614 77.4736L115.33 79.708L112.48 75.5052L115.68 73.3164L116.22 74.0764L113.993 75.5964L114.616 76.516L116.546 75.2392L117.063 75.9992L115.102 77.3444L115.771 78.3248L118.074 76.7136Z" fill="#263238"/>
<path d="M121.22 71.7582C121.866 72.7082 121.562 73.7798 120.46 74.5474L119.608 75.1326L120.368 76.303L119.396 76.9718L116.5 72.731L118.332 71.477C119.464 70.679 120.574 70.8082 121.22 71.7582ZM120.232 72.4422C119.912 71.971 119.426 71.9102 118.826 72.313L118.066 72.8602L119.069 74.3346L119.829 73.7874C120.429 73.377 120.543 72.8982 120.232 72.4422Z" fill="#263238"/>
<path d="M120.84 69.7547L121.82 69.0859L124.169 72.5211L126.289 71.0695L126.836 71.8295L123.728 73.9499L120.84 69.7547Z" fill="#263238"/>
<path d="M125.627 69.6071C125.282 69.1612 125.079 68.6219 125.044 68.0592C125.01 67.4965 125.145 66.9363 125.433 66.4514C125.72 65.9666 126.147 65.5794 126.658 65.3401C127.168 65.1008 127.739 65.0205 128.295 65.1095C128.852 65.1986 129.369 65.453 129.779 65.8396C130.19 66.2262 130.474 66.7272 130.596 67.2776C130.718 67.8281 130.672 68.4024 130.464 68.9262C130.255 69.45 129.894 69.8991 129.427 70.2151C129.141 70.4328 128.813 70.5901 128.464 70.6776C128.115 70.7651 127.752 70.7809 127.397 70.7241C127.042 70.6673 126.702 70.539 126.398 70.347C126.093 70.155 125.831 69.9033 125.627 69.6071ZM129.275 67.1143C129.09 66.8606 128.834 66.6671 128.539 66.5578C128.244 66.4485 127.924 66.4281 127.618 66.4993C127.312 66.5704 127.033 66.73 126.817 66.9581C126.601 67.1861 126.456 67.4727 126.402 67.7822C126.347 68.0917 126.385 68.4104 126.51 68.6988C126.635 68.9872 126.841 69.2324 127.105 69.4042C127.368 69.5759 127.676 69.6665 127.99 69.6648C128.304 69.663 128.611 69.5689 128.872 69.3943C129.057 69.2778 129.214 69.1242 129.336 68.9432C129.457 68.7622 129.54 68.5579 129.577 68.3433C129.615 68.1286 129.608 67.9085 129.556 67.6968C129.504 67.4852 129.408 67.2868 129.275 67.1143Z" fill="#263238"/>
<path d="M133.281 65.2905L134.299 66.8105L133.319 67.4793L132.293 65.9593L128.789 64.3557L129.83 63.6489L132.239 64.7433L132.087 62.0833L133.053 61.4297L133.281 65.2905Z" fill="#263238"/>
<path d="M197.507 83.2884L160.891 43.2288L207.615 16.7656L197.507 83.2884Z" fill="#E0E0E0"/>
<path d="M248.034 89.4533C240.227 80.5169 230.598 73.3544 219.794 68.4466C208.99 63.5388 197.261 60.9994 185.395 60.9989V32.8789C201.271 32.8803 216.963 36.2772 231.419 42.8417C245.874 49.4062 258.759 58.9865 269.207 70.9397L248.034 89.4533Z" fill="#E0E0E0"/>
<path d="M216.387 51.681L214.867 51.0958L215.209 50.1914L219.389 51.7874L219.04 52.6918L217.52 52.1066L216 55.9902L214.898 55.5646L216.387 51.681Z" fill="#263238"/>
<path d="M222.179 57.32L221.845 58.2168L218.121 56.788L219.96 52L223.578 53.3908L223.236 54.28L220.72 53.3148L220.318 54.356L222.544 55.2072L222.218 56.066L219.991 55.2148L219.565 56.3244L222.179 57.32Z" fill="#263238"/>
<path d="M222.527 57.9354L223.219 57.2437C223.563 57.7412 224.047 58.1249 224.61 58.3457C225.271 58.5965 225.621 58.4825 225.735 58.1861C226.077 57.2893 223.052 56.8409 223.736 55.0625C224.047 54.2493 224.967 53.8237 226.327 54.3025C226.921 54.5135 227.446 54.8812 227.847 55.3665L227.186 56.081C226.873 55.6882 226.465 55.3821 226.001 55.1918C225.347 54.941 224.997 55.0929 224.883 55.3893C224.541 56.2785 227.559 56.7345 226.89 58.4901C226.578 59.2501 225.659 59.7213 224.283 59.1969C223.582 58.9665 222.969 58.5261 222.527 57.9354Z" fill="#263238"/>
<path d="M229.52 56.6888L228 56.1036L228.342 55.1992L232.514 56.7952L232.172 57.6996L230.652 57.1144L229.132 60.998L228 60.58L229.52 56.6888Z" fill="#263238"/>
<path d="M284.081 195.435L258.621 183.495C263.804 172.437 268.562 156.492 268.562 144.165C268.602 131.129 265.546 118.269 259.647 106.644C258.621 104.615 254.897 97.8736 253.871 96.1788L277.933 81.6172C279.407 84.0644 283.481 91.4972 284.727 93.9368C292.636 109.496 296.734 126.712 296.682 144.165C296.682 160.65 291.035 180.607 284.081 195.435Z" fill="#349F6E"/>
<path d="M243.969 109.007L291.856 77.497L247.647 62.4414L243.969 109.007Z" fill="#349F6E"/>
<path d="M279.901 114.211L280.532 116.453C280.988 118.072 280.327 119.493 278.837 119.873C277.348 120.253 276.056 119.463 275.6 117.851L274.969 115.571L279.901 114.211ZM276.519 117.525C276.549 117.752 276.628 117.969 276.749 118.163C276.871 118.357 277.033 118.523 277.224 118.649C277.415 118.775 277.631 118.858 277.858 118.893C278.084 118.928 278.315 118.914 278.535 118.851C278.756 118.789 278.96 118.68 279.134 118.532C279.309 118.384 279.45 118.2 279.547 117.993C279.644 117.785 279.695 117.559 279.697 117.33C279.699 117.102 279.652 116.875 279.559 116.666L279.263 115.617L276.223 116.483L276.519 117.525Z" fill="#263238"/>
<path d="M278.34 125.034L277.413 125.239L276.539 121.371L281.532 120.238L282.391 124.038L281.464 124.251L280.871 121.621L279.784 121.872L280.309 124.152L279.404 124.357L278.88 122.032L277.725 122.298L278.34 125.034Z" fill="#263238"/>
<path d="M283.479 129.999L278.045 128.715L277.84 127.567L282.499 124.527L282.719 125.789L279.39 127.963L283.274 128.882L283.479 129.999Z" fill="#263238"/>
<path d="M279.962 135.081L279.012 135.211L278.48 131.274L283.565 130.59L284.082 134.39L283.139 134.511L282.774 131.844L281.672 131.996L281.992 134.352L281.08 134.473L280.76 132.117L279.582 132.277L279.962 135.081Z" fill="#263238"/>
<path d="M284.24 135.613L284.354 136.799L280.212 137.186L280.448 139.748L279.49 139.839L279.133 136.1L284.24 135.613Z" fill="#263238"/>
<path d="M282.051 139.907C282.611 139.847 283.176 139.956 283.674 140.22C284.171 140.485 284.577 140.893 284.839 141.391C285.102 141.889 285.209 142.455 285.147 143.014C285.084 143.574 284.855 144.102 284.489 144.53C284.124 144.958 283.638 145.266 283.094 145.415C282.551 145.564 281.976 145.546 281.443 145.364C280.91 145.182 280.444 144.844 280.106 144.394C279.767 143.944 279.571 143.403 279.543 142.84C279.504 142.481 279.538 142.117 279.644 141.771C279.751 141.425 279.927 141.105 280.162 140.83C280.397 140.555 280.686 140.331 281.011 140.173C281.336 140.014 281.69 139.923 282.051 139.907ZM282.272 144.307C282.587 144.284 282.888 144.169 283.137 143.976C283.387 143.783 283.574 143.52 283.675 143.221C283.776 142.922 283.787 142.6 283.706 142.295C283.624 141.99 283.455 141.716 283.219 141.507C282.982 141.298 282.689 141.163 282.377 141.119C282.064 141.076 281.746 141.126 281.461 141.262C281.177 141.399 280.939 141.617 280.778 141.888C280.616 142.159 280.539 142.472 280.554 142.787C280.561 143.002 280.611 143.213 280.702 143.408C280.793 143.602 280.923 143.776 281.084 143.919C281.245 144.061 281.434 144.169 281.638 144.236C281.842 144.303 282.058 144.327 282.272 144.307Z" fill="#263238"/>
<path d="M283.069 150.915C281.921 150.915 281.207 150.064 281.207 148.696V147.662H279.793V146.477H284.915V148.696C284.923 150.049 284.239 150.907 283.069 150.915ZM283.069 149.714C283.631 149.714 283.958 149.342 283.958 148.62V147.655H282.179V148.627C282.172 149.349 282.506 149.722 283.061 149.722L283.069 149.714Z" fill="#263238"/>
<path d="M185.393 255.445H95.6602V227.325H185.393C198.193 227.371 210.828 224.443 222.302 218.771C233.776 213.1 243.776 204.841 251.513 194.645L273.85 211.729C263.498 225.368 250.119 236.416 234.769 244.002C219.418 251.588 202.516 255.505 185.393 255.445Z" fill="#349F6E"/>
<path d="M237.293 187.59L285.006 219.35L281.586 172.777L237.293 187.59Z" fill="#349F6E"/>
<g opacity="0.3">
<path d="M284.999 219.35L281.579 172.777L237.286 187.59L250.206 196.216C242.443 205.958 232.575 213.817 221.343 219.204C210.111 224.591 197.805 227.367 185.348 227.323H95.6602V255.443H185.393C202.487 255.502 219.361 251.597 234.69 244.032C250.019 236.468 263.384 225.452 273.736 211.849L284.999 219.35Z" fill="black"/>
</g>
<path d="M236.627 225.311C237.311 226.223 237.053 227.31 235.966 228.131L235.138 228.754L235.989 229.879L235.039 230.593L231.953 226.482L233.724 225.144C234.841 224.339 235.936 224.392 236.627 225.311ZM235.662 226.071C235.328 225.623 234.834 225.577 234.256 226.011L233.496 226.596L234.568 228.017L235.328 227.439C235.905 226.961 236.004 226.482 235.662 226.033V226.071Z" fill="#263238"/>
<path d="M236.176 223.32L237.126 222.605L239.626 225.927L241.678 224.407L242.263 225.167L239.261 227.447L236.176 223.32Z" fill="#263238"/>
<path d="M244.873 221.815L242.973 223.252L243.27 224.399L242.297 225.159L241.035 219.687L241.97 218.98L246.895 221.701L245.899 222.461L244.873 221.815ZM244.03 221.321L242.198 220.242L242.73 222.302L244.03 221.321Z" fill="#263238"/>
<path d="M247.989 214.418L251.075 218.514L250.315 219.107L246.393 218.157L248.27 220.642L247.336 221.349L244.25 217.253L245.01 216.66L248.916 217.61L247.047 215.125L247.989 214.418Z" fill="#263238"/>
<path d="M88.1914 209.957V272.809L128.631 241.383L88.1914 209.957Z" fill="#E0E0E0"/>
<path d="M95.6684 227.324H11.7188V255.444H95.6684V227.324Z" fill="#E0E0E0"/>
<path d="M47.6958 240.432C47.6958 241.572 46.837 242.287 45.4614 242.287H44.4278V243.7H43.2422V238.57H45.4614C46.837 238.57 47.6958 239.285 47.6958 240.432ZM46.4874 240.432C46.4874 239.87 46.1226 239.536 45.4006 239.536H44.4278V241.322H45.4006C46.1226 241.322 46.4874 240.987 46.4874 240.432Z" fill="#263238"/>
<path d="M48.5341 238.57H49.7197V242.735H52.2961V243.7H48.4961L48.5341 238.57Z" fill="#263238"/>
<path d="M56.3826 242.606H53.9962L53.5478 243.7H52.3242L54.6042 238.57H55.7822L58.0622 243.7H56.8386L56.3826 242.606ZM56.0102 241.679L55.197 239.71L54.3762 241.679H56.0102Z" fill="#263238"/>
<path d="M63.3216 238.57V243.7H62.3184L59.7572 240.584V243.7H58.6172V238.57H59.5976L62.1436 241.686V238.57H63.3216Z" fill="#263238"/>
<path d="M175.37 341.488L173.212 364.425L160.809 363.506L162.929 340.516L175.37 341.488Z" fill="#349F6E"/>
<path d="M167.201 363.112C167.102 363.112 167.551 358.073 168.22 351.887C168.888 345.7 169.496 340.692 169.603 340.707C169.709 340.722 169.253 345.738 168.592 351.925C167.931 358.111 167.27 363.119 167.201 363.112Z" fill="#263238"/>
<path d="M173.356 362.848L160.961 361.891L160.809 363.509L173.212 364.429L173.356 362.848Z" fill="#263238"/>
<path d="M161.484 356.16C161.587 355.979 161.721 355.817 161.88 355.681C162.253 355.287 162.663 354.928 163.103 354.61C163.755 354.128 164.471 353.742 165.231 353.462C166.173 353.115 167.181 352.985 168.18 353.082C169.086 353.167 169.965 353.439 170.76 353.882C171.555 354.324 172.25 354.926 172.801 355.651C173.122 356.091 173.377 356.575 173.561 357.087C173.643 357.269 173.689 357.466 173.698 357.665C173.376 357.018 173 356.4 172.573 355.818C171.462 354.473 169.863 353.623 168.127 353.455C166.388 353.339 164.663 353.825 163.24 354.83C162.108 355.583 161.538 356.213 161.484 356.16Z" fill="#263238"/>
<g opacity="0.3">
<path d="M162.329 347.062L162.094 349.593L174.527 350.46L174.71 348.56L162.329 347.062Z" fill="black"/>
</g>
<path d="M225.234 339.887L226.724 362.877L214.328 363.933L212.793 340.898L225.234 339.887Z" fill="#349F6E"/>
<path d="M220.545 362.519C220.438 362.519 220.096 357.488 219.785 351.279C219.473 345.07 219.283 340.023 219.382 340.016C219.481 340.008 219.838 345.039 220.142 351.256C220.446 357.473 220.651 362.519 220.545 362.519Z" fill="#263238"/>
<path d="M226.618 361.297L214.223 362.308L214.329 363.934L226.725 362.878L226.618 361.297Z" fill="#263238"/>
<path d="M213.844 356.567C213.844 356.567 213.92 356.362 214.125 356.043C214.431 355.594 214.78 355.177 215.166 354.796C215.732 354.216 216.38 353.722 217.089 353.329C218.323 352.632 219.748 352.349 221.155 352.523C222.561 352.696 223.875 353.318 224.902 354.295C225.292 354.677 225.627 355.112 225.897 355.587C226.005 355.754 226.082 355.939 226.125 356.134C225.703 355.546 225.232 354.995 224.719 354.485C223.405 353.34 221.694 352.756 219.954 352.858C218.221 353.019 216.595 353.77 215.349 354.986C214.361 355.898 213.897 356.605 213.844 356.567Z" fill="#263238"/>
<g opacity="0.3">
<path d="M213.227 347.455L213.401 349.986L225.812 348.876L225.691 346.969L213.227 347.455Z" fill="black"/>
</g>
<path d="M190.139 136.625L173.069 139.171L172.263 124.564C172.263 124.564 171.032 124.511 169.983 118.279C168.935 112.047 166.875 101.483 166.875 101.483C170.31 99.3578 174.236 98.1563 178.272 97.9952C182.308 97.8341 186.317 98.7188 189.911 100.563L190.982 101.118L190.139 136.625Z" fill="#FFBE9D"/>
<path d="M190.16 109.129C190.267 109.068 194.401 107.145 194.948 111.409C195.495 115.673 190.928 115.399 190.905 115.27C190.882 115.141 190.16 109.129 190.16 109.129Z" fill="#FFBE9D"/>
<path d="M169.246 111.605C169.124 111.605 165.02 111.187 165.849 115.405C166.677 119.623 170.933 117.921 170.918 117.792C170.903 117.662 169.246 111.605 169.246 111.605Z" fill="#FFBE9D"/>
<path d="M191.52 108.422C191.437 112.108 191.87 113.97 191.65 116.456C191.292 120.392 189.818 123.607 186.596 126.07C183.373 128.532 178.593 129.269 175.142 127.187C172.748 125.743 170.932 123.972 170.187 121.335C169.442 118.698 168.356 113.993 167.907 111.288C167.071 106.401 165.984 101.841 165.984 101.841L179.999 96.9844L188.974 100.321L191.52 108.422Z" fill="#263238"/>
<path d="M179.645 129.403C181.376 129.61 183.12 129.136 184.509 128.081C184.448 127.975 183.437 128.476 182.107 128.841C180.777 129.206 179.645 129.289 179.645 129.403Z" fill="#263238"/>
<path d="M191.812 114.615C191.637 110.884 191.234 106.643 191.204 102.683C191.204 101.163 191.386 99.02 191.014 97.576C190.73 96.1048 190.174 94.6998 189.372 93.434C188.796 92.6679 188.054 92.0408 187.203 91.5989C186.353 91.157 185.413 90.9114 184.455 90.8804C183.486 90.8598 182.524 91.0535 181.639 91.4476C180.753 91.8418 179.966 92.4266 179.333 93.1604C178.653 92.4925 177.796 92.0342 176.864 91.8401C175.931 91.646 174.963 91.7245 174.073 92.066C173.2 92.4209 172.451 93.027 171.922 93.8076C171.393 94.5882 171.108 95.5083 171.102 96.4512C170.492 96.0752 169.782 95.8954 169.067 95.9362C168.352 95.977 167.667 96.2363 167.104 96.6792C166.567 97.1328 166.192 97.7493 166.037 98.4351C165.882 99.121 165.955 99.8386 166.245 100.479C165.754 100.64 165.308 100.917 164.946 101.286C164.583 101.655 164.315 102.105 164.163 102.6C164.029 103.099 164.024 103.623 164.149 104.125C164.274 104.626 164.525 105.087 164.877 105.465C165.706 106.354 166.998 106.704 167.917 107.532C168.418 108.011 168.765 108.628 168.915 109.304C169.066 109.98 169.012 110.686 168.761 111.332" fill="#263238"/>
<path d="M169.625 104.614C169.674 104.753 169.752 104.88 169.853 104.987C170.123 105.309 170.46 105.568 170.841 105.747C171.451 106.048 172.141 106.143 172.809 106.02C173.243 105.937 173.656 105.769 174.024 105.525C174.392 105.281 174.707 104.966 174.953 104.599H174.633C174.825 105.073 175.135 105.49 175.535 105.809C175.934 106.129 176.409 106.34 176.913 106.423C177.481 106.534 178.067 106.508 178.622 106.347C179.177 106.185 179.686 105.894 180.105 105.496C180.855 104.804 181.364 103.891 181.557 102.889L181.215 102.98C181.672 103.443 182.231 103.793 182.847 104.001C183.463 104.21 184.12 104.271 184.764 104.181C185.272 104.11 185.76 103.94 186.201 103.679C186.642 103.418 187.027 103.072 187.333 102.661C187.743 102.142 188.005 101.523 188.093 100.867C188.146 100.64 188.146 100.403 188.093 100.176C188.093 100.176 188.093 100.419 187.987 100.845C187.856 101.457 187.582 102.03 187.189 102.517C186.588 103.262 185.721 103.744 184.772 103.862C184.186 103.932 183.592 103.867 183.036 103.67C182.48 103.474 181.976 103.152 181.565 102.729L181.299 102.448L181.223 102.828C181.034 103.747 180.564 104.583 179.877 105.222C179.507 105.576 179.056 105.836 178.565 105.98C178.073 106.124 177.553 106.148 177.05 106.051C176.612 105.988 176.197 105.816 175.844 105.55C175.491 105.285 175.21 104.934 175.029 104.531L174.907 104.181L174.709 104.5C174.275 105.174 173.592 105.65 172.809 105.823C172.2 105.952 171.565 105.889 170.993 105.64C170.471 105.397 170.005 105.047 169.625 104.614Z" fill="#455A64"/>
<path d="M169.384 102.911C169.376 102.341 169.501 101.776 169.749 101.262C170.039 100.704 170.518 100.267 171.101 100.031C171.464 99.8801 171.854 99.8063 172.246 99.8142C172.639 99.822 173.025 99.9113 173.381 100.076L173.777 100.266L173.67 99.8559C173.568 99.4458 173.55 99.0193 173.617 98.6019C173.692 98.1434 173.859 97.7048 174.109 97.3128C174.358 96.9209 174.685 96.5837 175.069 96.3219C175.727 95.8977 176.507 95.7027 177.288 95.7671C178.014 95.8519 178.712 96.0958 179.332 96.4815C179.332 96.4815 179.211 96.2991 178.891 96.0711C178.423 95.7504 177.883 95.5495 177.318 95.4859C176.463 95.3799 175.598 95.5675 174.863 96.0179C174.427 96.3008 174.054 96.6723 173.77 97.1082C173.486 97.5442 173.297 98.0349 173.214 98.5487C173.137 99.017 173.161 99.4962 173.283 99.9547L173.564 99.7267C173.157 99.5462 172.717 99.4529 172.272 99.4529C171.827 99.4529 171.387 99.5462 170.98 99.7267C170.319 99.9986 169.785 100.509 169.483 101.156C169.296 101.562 169.212 102.009 169.239 102.455C169.293 102.759 169.361 102.919 169.384 102.911Z" fill="#455A64"/>
<path d="M178.6 101.55C178.653 101.55 178.547 101.307 178.517 100.957C178.484 100.501 178.568 100.043 178.76 99.6275C178.98 99.1411 179.254 98.6319 179.413 98.3583C179.464 98.29 179.533 98.2384 179.613 98.2099C179.693 98.1815 179.78 98.1776 179.862 98.1987C179.862 98.1987 179.862 98.0999 179.733 98.0391C179.641 98.0077 179.542 98.0032 179.448 98.0261C179.354 98.049 179.268 98.0983 179.201 98.1683C179.041 98.3425 178.901 98.5336 178.783 98.7383C178.627 98.9786 178.495 99.2331 178.387 99.4983C178.161 99.9715 178.105 100.508 178.228 101.018C178.349 101.413 178.6 101.581 178.6 101.55Z" fill="#455A64"/>
<path d="M186.286 94.7962C186.331 94.7962 186.24 94.4618 185.89 94.0362C185.679 93.7977 185.42 93.6061 185.13 93.4738C184.738 93.3395 184.312 93.3422 183.922 93.4814C183.244 93.7138 182.679 94.1944 182.341 94.8266C182.083 95.2674 181.976 95.5866 182.022 95.5866C182.068 95.5866 182.273 95.3586 182.584 94.971C182.942 94.4582 183.449 94.0681 184.036 93.8538C184.326 93.7763 184.631 93.7755 184.922 93.8514C185.212 93.9273 185.478 94.0774 185.693 94.287C186.05 94.5758 186.202 94.8266 186.286 94.7962Z" fill="#455A64"/>
<path d="M186.963 113.239C187.544 112.344 187.913 111.328 188.042 110.268C188.304 109.239 188.317 108.163 188.08 107.129C187.958 107.129 187.951 108.527 187.639 110.169C187.328 111.811 186.864 113.239 186.963 113.239Z" fill="#455A64"/>
<path d="M185.207 114.609C185.611 113.969 185.87 113.248 185.967 112.496C186.191 111.776 186.253 111.016 186.149 110.27C185.857 110.956 185.663 111.68 185.572 112.42C185.344 113.128 185.221 113.866 185.207 114.609Z" fill="#455A64"/>
<path d="M173.098 116.863C173.095 118.169 173.478 119.446 174.2 120.534C174.818 121.7 175.756 122.666 176.905 123.316C176.044 122.387 175.259 121.391 174.557 120.336C173.976 119.221 173.488 118.059 173.098 116.863Z" fill="#455A64"/>
<path d="M170.651 114.059C170.431 115.21 170.526 116.399 170.928 117.501C171.329 118.602 172.021 119.574 172.931 120.313C172.304 119.379 171.765 118.39 171.319 117.357C170.998 116.28 170.774 115.176 170.651 114.059Z" fill="#455A64"/>
<path d="M172.324 136.214L172.476 132.551L190.321 128.781L190.952 131.798L172.324 136.214Z" fill="white"/>
<path d="M116.456 180.529C116.456 180.529 115.575 180.985 116.183 181.631C116.791 182.277 124.915 189.482 126.017 190.189C127.42 190.854 128.887 191.376 130.395 191.747L132.538 191.351L133.761 186.199L135.281 183.706L134.894 183.136L136.315 177.611C136.315 177.611 135.084 177.109 134.514 177.998C133.716 179.252 132.614 181.289 132.614 181.289C132.614 181.289 130.379 181.623 129.574 180.658C128.768 179.693 124.033 171.705 123.494 171.538C122.954 171.371 122.05 171.538 122.513 172.838C122.977 174.137 126.002 178.637 125.888 178.918C125.774 179.199 125.31 179.503 125.128 179.283C124.945 179.062 120.081 172.693 119.314 172.579C118.546 172.465 117.915 173.127 118.66 174.35C119.405 175.574 123.342 180.065 123.159 180.354C122.977 180.643 122.46 180.293 122.46 180.293C122.46 180.293 117.969 175.604 117.338 175.688C116.707 175.771 116.525 176.448 116.882 177.063C117.239 177.679 121.784 182.049 121.867 182.383C121.921 182.611 121.731 183.516 121.358 183.204C120.986 182.893 116.813 180.233 116.456 180.529Z" fill="#FFBE9D"/>
<path d="M162.337 227.241L161.395 288.558L159.312 352.208L176.587 353.401L182.401 288.527L189.036 242.479L190.495 242.388L203.56 290.321L211.699 351.881C212.71 351.6 228.001 350.361 228.001 350.361L217.361 225.82L215.591 215.461L170.112 216.472L162.337 227.241Z" fill="#263238"/>
<path d="M213.47 194.189L212.155 158.727L209.967 134.24H195.055L191.255 130.523L172.126 134.24L170.355 139.56C170.355 139.56 154.996 144.447 154.145 145.936C154.145 145.936 159.533 167.216 162.071 179.118C163.812 187.295 165.643 195.678 165.643 195.678L160.795 234.902C160.597 234.902 190.343 233.595 190.343 233.595L219.071 230.486L213.47 194.189Z" fill="#455A64"/>
<path d="M229.003 123.119C229.003 123.119 224.625 123.461 224.367 123.461C224.108 123.461 219.64 123.879 219.64 123.879C219.72 123.55 219.873 123.242 220.087 122.98C220.302 122.717 220.572 122.505 220.878 122.359C221.92 121.896 223.918 121.174 224.101 120.839C224.283 120.505 224.762 119.958 224.352 119.388C223.941 118.818 216.387 111.149 216.128 110.739C215.87 110.329 215.452 109.546 216.128 109.394C216.805 109.242 217.648 109.964 218.203 110.427C218.758 110.891 221.707 113.376 222.003 113.224C222.3 113.072 222.056 112.806 222.056 112.806C222.056 112.806 217.063 107.669 217.01 107.486C216.957 107.304 216.372 105.814 217.77 106.065C218.454 106.179 223.637 111.484 223.85 111.271C224.063 111.058 219.495 105.191 219.913 104.75C220.331 104.309 220.795 103.815 221.623 104.75C222.452 105.685 226.016 110.443 226.282 110.496C226.355 110.505 226.429 110.495 226.497 110.468C226.565 110.441 226.625 110.396 226.672 110.339C226.718 110.282 226.749 110.215 226.762 110.142C226.775 110.07 226.769 109.995 226.746 109.926C226.647 109.569 224.526 105.875 224.526 105.457C224.526 105.039 224.937 104.94 225.355 104.887C225.773 104.834 230.219 111.271 230.219 111.271C230.219 111.271 233.654 116.796 234.019 117.435C234.413 118.343 234.743 119.277 235.007 120.231L229.003 123.119Z" fill="#FFBE9D"/>
<path d="M227.911 123.37L230.89 134.876L224.05 137.43L209.352 134.238V155.966L211.434 161.613C211.434 161.613 242.214 146.77 244.258 145.159C248.058 142.119 242.016 131.586 242.016 131.586L236.43 119.562L227.911 123.37Z" fill="#455A64"/>
<path d="M154.139 145.957L150.696 152.85L142.002 181.639L132.289 184.231L130.465 193.107C130.465 193.107 145.665 196.672 148.477 195.448C153.257 193.373 161.245 173.553 161.245 173.553L160.166 156.612L154.139 145.957Z" fill="#455A64"/>
<path d="M240.543 139.582C239.131 138.389 237.604 137.34 235.983 136.451C234.313 135.676 232.569 135.073 230.777 134.65C231.327 134.61 231.879 134.661 232.411 134.802C233.714 135.062 234.974 135.499 236.158 136.101C237.346 136.71 238.445 137.477 239.426 138.381C239.865 138.714 240.243 139.12 240.543 139.582Z" fill="#263238"/>
<path d="M237.646 134.817C236.418 134.61 235.174 134.513 233.929 134.528C232.696 134.675 231.478 134.929 230.289 135.288C231.384 134.616 232.627 134.221 233.91 134.141C235.192 134.06 236.475 134.295 237.646 134.825V134.817Z" fill="#263238"/>
<path d="M195.054 134.238C194.797 134.46 194.517 134.653 194.218 134.816C193.945 134.998 193.603 135.203 193.192 135.424C192.782 135.644 192.318 135.903 191.786 136.184C190.551 136.782 189.283 137.307 187.986 137.757C186.402 138.282 184.791 138.723 183.16 139.079C180.179 139.736 177.144 140.125 174.093 140.242C172.923 140.288 171.981 140.288 171.327 140.242C170.986 140.248 170.645 140.223 170.309 140.166C170.644 140.104 170.986 140.076 171.327 140.083C171.973 140.083 172.915 140.014 174.078 139.938C177.103 139.741 180.108 139.317 183.069 138.669C184.802 138.281 186.428 137.818 187.887 137.347C189.347 136.875 190.631 136.351 191.687 135.827C192.219 135.599 192.691 135.363 193.101 135.158C193.511 134.953 193.861 134.778 194.157 134.611C194.444 134.458 194.744 134.333 195.054 134.238Z" fill="#263238"/>
<path d="M199.561 195.73C199.207 195.862 198.84 195.956 198.466 196.011C197.752 196.17 196.718 196.353 195.426 196.528C188.664 197.404 181.795 196.887 175.241 195.008C173.987 194.643 172.961 194.308 172.315 194.042C171.956 193.925 171.607 193.778 171.273 193.602C171.645 193.661 172.01 193.76 172.36 193.898C173.052 194.118 174.063 194.407 175.317 194.742C181.858 196.47 188.661 196.985 195.388 196.262C196.68 196.125 197.721 195.988 198.428 195.874C198.801 195.795 199.18 195.747 199.561 195.73Z" fill="#263238"/>
<path d="M141.46 184.269C141.354 184.269 142.426 180.263 143.847 175.392C145.268 170.52 146.499 166.599 146.606 166.629C146.712 166.659 145.648 170.627 144.227 175.506C142.806 180.385 141.567 184.299 141.46 184.269Z" fill="#263238"/>
<path d="M188.1 207.223C188.214 207.223 188.411 211.646 188.548 217.103C188.685 222.559 188.7 226.983 188.594 226.983C188.487 226.983 188.282 222.567 188.153 217.103C188.024 211.638 187.993 207.23 188.1 207.223Z" fill="#263238"/>
<path d="M199 240.844C199 240.95 195.154 241.748 190.366 242.63C185.578 243.512 181.687 244.15 181.664 244.021C181.641 243.892 185.51 243.116 190.298 242.235C195.086 241.353 198.977 240.738 199 240.844Z" fill="#455A64"/>
<path d="M216.542 287.364C214.869 287.457 213.206 287.67 211.564 288.002C209.958 288.467 208.386 289.041 206.859 289.72C207.222 289.375 207.641 289.095 208.098 288.892C209.167 288.333 210.3 287.907 211.473 287.622C212.644 287.334 213.846 287.191 215.052 287.197C215.555 287.163 216.059 287.22 216.542 287.364Z" fill="#455A64"/>
<path d="M174.932 290.318C174.932 290.432 173.504 290.143 171.756 290.227C170.008 290.311 168.632 290.706 168.602 290.592C170.594 289.673 172.868 289.575 174.932 290.318Z" fill="#455A64"/>
<path d="M165.637 195.699C165.582 195.575 165.541 195.445 165.516 195.311C165.44 195.007 165.341 194.635 165.234 194.179C164.991 193.138 164.657 191.724 164.262 190.006C163.456 186.427 162.369 181.578 161.168 176.22C159.968 170.862 158.888 166.006 158.09 162.426C157.703 160.708 157.384 159.287 157.156 158.246L156.912 157.106C156.873 156.975 156.852 156.84 156.852 156.703C156.915 156.826 156.961 156.956 156.988 157.091C157.072 157.387 157.178 157.76 157.3 158.208C157.566 159.188 157.931 160.61 158.356 162.365C159.223 165.876 160.348 170.725 161.548 176.129C162.749 181.532 163.828 186.404 164.535 189.946C164.885 191.678 165.174 193.1 165.379 194.141C165.462 194.604 165.538 194.984 165.592 195.288C165.627 195.422 165.643 195.56 165.637 195.699Z" fill="#263238"/>
<path d="M211.418 146.52C211.437 146.592 211.449 146.666 211.456 146.74L211.509 147.378C211.562 147.933 211.631 148.762 211.692 149.833C211.844 151.961 212.011 155.054 212.201 158.87C212.581 166.47 213.029 177.049 213.462 188.7C213.531 190.577 213.599 192.431 213.668 194.179C215.188 204.432 216.594 213.506 217.582 220.019C218.053 223.257 218.44 225.871 218.706 227.703C218.828 228.584 218.919 229.276 218.988 229.778C218.988 229.998 219.041 230.173 219.056 230.317C219.068 230.377 219.068 230.439 219.056 230.5C219.032 230.444 219.017 230.385 219.01 230.325C219.01 230.18 218.95 230.006 218.912 229.785C218.828 229.291 218.706 228.6 218.554 227.726C218.258 225.894 217.84 223.287 217.316 220.057C216.29 213.521 214.876 204.454 213.272 194.217C213.212 192.462 213.143 190.615 213.067 188.738C212.17 165.679 211.502 148.678 211.418 146.52Z" fill="#263238"/>
<g opacity="0.3">
<path d="M193.079 135.574C185.889 138.477 178.791 140.263 171.039 140.271C172.121 141.329 173.549 141.958 175.059 142.042C176.575 142.126 178.095 141.995 179.574 141.654C183.312 140.937 186.984 139.905 190.548 138.569C191.817 138.113 193.246 136.798 193.079 135.574Z" fill="black"/>
</g>
<g opacity="0.3">
<path d="M157.277 157.941C157.399 160.708 157.087 164.021 157.673 166.75C158.174 169.482 159.362 172.042 161.123 174.19C159.793 168.977 158.661 163.261 157.277 157.941Z" fill="black"/>
</g>
<g opacity="0.3">
<path d="M179.575 199.675L179.34 199.637C181.665 202.282 185.526 202.555 189.053 202.578C192.579 202.601 196.394 202.38 198.758 199.766C192.424 201.036 185.897 201.004 179.575 199.675Z" fill="black"/>
</g>
<path d="M51.2172 315.962C52.1368 318.819 55.5188 320.803 58.3156 319.762C59.904 319.161 61.0516 317.778 62.032 316.395C62.9034 314.94 64.0074 313.639 65.3 312.542C66.256 311.823 67.4457 311.487 68.6364 311.599L55.7848 306.766C50.2824 310.079 50.2976 313.119 51.2172 315.962Z" fill="#349F6E"/>
<path d="M51.2172 315.962C52.1368 318.819 55.5188 320.803 58.3156 319.762C59.904 319.161 61.0516 317.778 62.032 316.395C62.9034 314.94 64.0074 313.639 65.3 312.542C66.256 311.823 67.4457 311.487 68.6364 311.599L55.7848 306.766C50.2824 310.079 50.2976 313.119 51.2172 315.962Z" fill="#349F6E"/>
<g opacity="0.3">
<path d="M51.2172 315.962C52.1368 318.819 55.5188 320.803 58.3156 319.762C59.904 319.161 61.0516 317.778 62.032 316.395C62.9034 314.94 64.0074 313.639 65.3 312.542C66.256 311.823 67.4457 311.487 68.6364 311.599L55.7848 306.766C50.2824 310.079 50.2976 313.119 51.2172 315.962Z" fill="black"/>
</g>
<path d="M115.202 319.358C113.888 318.095 112.278 317.182 110.519 316.704C108.76 316.226 106.909 316.199 105.137 316.624C103.365 317.05 101.728 317.914 100.378 319.139C99.0273 320.363 98.0068 321.907 97.4102 323.629L98.6946 328.607C98.8959 327.745 99.2831 326.937 99.8292 326.24C100.375 325.543 101.067 324.974 101.856 324.572C103.536 323.812 105.489 324.26 107.176 324.883C108.863 325.507 110.596 326.35 112.435 326.464C114.275 326.578 116.334 325.704 116.881 323.956C117.429 322.208 116.441 320.551 115.202 319.358Z" fill="#349F6E"/>
<g opacity="0.3">
<path d="M115.202 319.358C113.888 318.095 112.278 317.182 110.519 316.704C108.76 316.226 106.909 316.199 105.137 316.624C103.365 317.05 101.728 317.914 100.378 319.139C99.0273 320.363 98.0068 321.907 97.4102 323.629L98.6946 328.607C98.8959 327.745 99.2831 326.937 99.8292 326.24C100.375 325.543 101.067 324.974 101.856 324.572C103.536 323.812 105.489 324.26 107.176 324.883C108.863 325.507 110.596 326.35 112.435 326.464C114.275 326.578 116.334 325.704 116.881 323.956C117.429 322.208 116.441 320.551 115.202 319.358Z" fill="black"/>
</g>
<path d="M84.1774 335.966C81.487 333.413 81.6238 328.967 82.9614 325.509C84.299 322.051 87.2326 319.429 90.5006 317.65C93.6919 315.975 97.2211 315.044 100.824 314.927C104.426 314.81 108.008 315.509 111.302 316.974C109.69 317.044 108.12 317.509 106.729 318.326C105.338 319.144 104.168 320.289 103.322 321.663C101.847 324.11 101.521 327.082 100.282 329.666C98.9089 332.579 96.4723 334.855 93.4727 336.027C90.4731 337.199 87.1386 337.177 84.1546 335.966" fill="#349F6E"/>
<path d="M82.8852 320.621C79.906 317.11 79.5108 311.501 79.9516 306.888C80.3924 302.274 81.4716 297.692 80.7116 293.139C80.286 290.449 79.2372 287.872 78.8876 285.167C78.538 282.461 79.032 279.406 81.1676 277.658C83.5768 275.652 87.3692 276.138 89.8772 278.015C92.3852 279.892 93.8368 282.856 94.8932 285.805C97.2264 292.288 98.0852 299.485 96.17 306.09C94.2548 312.694 89.7556 318.622 83.1664 320.621" fill="#349F6E"/>
<path d="M81.4592 349.447C81.4459 349.313 81.4459 349.178 81.4592 349.044C81.4592 348.778 81.4592 348.383 81.4592 347.881C81.4592 346.871 81.596 345.419 81.824 343.625C82.0892 341.529 82.4697 339.448 82.964 337.393C83.5817 334.871 84.5405 332.444 85.814 330.181C87.085 327.918 88.646 325.831 90.4576 323.972C91.9312 322.45 93.5645 321.092 95.3292 319.921C96.0892 319.404 96.7884 319.017 97.4116 318.652C98.0348 318.287 98.5972 318.044 99.0532 317.823L100.125 317.375C100.247 317.317 100.374 317.271 100.505 317.238L100.14 317.421L99.0912 317.915C98.6504 318.143 98.1032 318.431 97.48 318.773C96.8568 319.115 96.1576 319.533 95.428 320.065C91.5445 322.705 88.3264 326.209 86.0268 330.303C83.2908 335.091 82.5384 340.122 81.9988 343.648C81.748 345.434 81.6264 346.886 81.558 347.889C81.558 348.375 81.5048 348.755 81.4896 349.044C81.4909 349.179 81.4808 349.314 81.4592 349.447Z" fill="#263238"/>
<path d="M51.6797 310.407C53.1161 308.416 56.6729 307.838 58.9225 308.834C61.1721 309.829 62.8137 311.798 64.2881 313.759C65.7625 315.719 67.1913 317.802 69.2281 319.17C71.2649 320.538 74.1225 321.032 76.1517 319.656C76.8007 319.173 77.3444 318.563 77.7495 317.862C78.1546 317.162 78.4125 316.386 78.5077 315.583C78.6836 313.975 78.5729 312.349 78.1809 310.779C77.6945 308.499 76.9041 306.06 75.0573 304.593C72.9977 302.951 70.1325 302.875 67.5105 302.967C64.4848 302.942 61.4748 303.404 58.5957 304.335C55.7685 305.383 52.8805 307.641 51.6797 310.415" fill="#349F6E"/>
<path d="M76.8806 345.039C76.8806 345.039 76.8806 344.994 76.8806 344.918C76.8806 344.842 76.8806 344.705 76.8806 344.56C76.8806 344.226 76.8654 343.77 76.835 343.192C76.835 341.984 76.7514 340.274 76.6906 338.169C76.6298 336.064 76.5386 333.518 76.3866 330.721C76.2346 327.924 76.0218 324.838 75.6266 321.601C75.4466 320.041 75.1416 318.498 74.7146 316.988C74.2531 315.602 73.6654 314.261 72.959 312.982C72.3475 311.808 71.6355 310.69 70.831 309.638C70.1235 308.728 69.3459 307.874 68.5054 307.085C67.2767 305.952 65.889 305.004 64.3862 304.273C64.1126 304.151 63.877 304.03 63.6718 303.946L63.1322 303.741L62.7978 303.604L62.6914 303.551C62.6914 303.551 62.7294 303.551 62.8054 303.551L63.1474 303.657L63.6946 303.847C63.9074 303.923 64.1506 304.045 64.4546 304.159C65.9853 304.863 67.3999 305.795 68.6498 306.925C69.5075 307.711 70.3005 308.565 71.021 309.479C71.8408 310.535 72.5656 311.662 73.187 312.846C73.8758 314.148 74.4407 315.511 74.8742 316.919C75.3092 318.442 75.6193 319.997 75.8014 321.57C76.227 324.785 76.4322 327.871 76.5614 330.69C76.6906 333.51 76.7666 336.01 76.8122 338.146C76.8578 340.282 76.873 341.992 76.8806 343.177V344.545C76.8806 344.69 76.8806 344.804 76.8806 344.902C76.8844 344.948 76.8844 344.994 76.8806 345.039Z" fill="#263238"/>
<path d="M78.8659 347.527C78.6008 346.756 78.3975 345.966 78.2579 345.163C77.8757 342.97 77.7913 340.736 78.0071 338.521C78.343 335.238 79.0466 332.003 80.1047 328.876C81.2371 325.335 82.7723 321.55 84.0795 317.476C84.7274 315.499 85.2553 313.483 85.6603 311.442C86.0199 309.54 86.2737 307.619 86.4203 305.689C86.674 302.402 86.7324 299.103 86.5951 295.809C86.4963 293.004 86.3519 290.74 86.2607 289.174C86.2151 288.414 86.1771 287.791 86.1543 287.365V286.894C86.1543 286.788 86.1543 286.734 86.1543 286.734V286.894C86.1543 287.016 86.1543 287.168 86.1999 287.365C86.1999 287.791 86.2911 288.391 86.3519 289.166C86.4735 290.732 86.6483 292.966 86.7699 295.801C86.9303 299.094 86.8897 302.393 86.6483 305.681C86.5019 307.622 86.2481 309.552 85.8883 311.465C85.4877 313.522 84.9597 315.553 84.3075 317.545C82.9927 321.626 81.4499 325.411 80.3099 328.945C79.2488 332.051 78.5326 335.265 78.1743 338.528C77.9444 340.731 78.0032 342.953 78.3491 345.14C78.4783 345.9 78.6075 346.508 78.7139 346.904C78.7595 347.096 78.7975 347.248 78.8279 347.36C78.8583 347.474 78.8659 347.527 78.8659 347.527Z" fill="#263238"/>
<path d="M92.5144 350.017H66.6592L66.0664 345.039H92.5144V350.017Z" fill="#455A64"/>
<path d="M69.4336 349.449L72.6636 364.376H86.716L89.7408 349.449H69.4336Z" fill="#455A64"/>
<path d="M92.5166 350.018C92.5166 350.086 86.8318 350.124 79.817 350.101C72.8022 350.079 67.125 350.01 67.125 349.942C67.125 349.873 72.8098 349.835 79.817 349.858C86.8242 349.881 92.5166 349.949 92.5166 350.018Z" fill="#455A64"/>
<path d="M88.0761 357.384C87.3718 356.858 86.6062 356.419 85.7961 356.077C84.9126 355.735 83.9768 355.547 83.0297 355.522C81.8661 355.526 80.7127 355.74 79.6249 356.153C78.4469 356.548 77.3449 357.012 76.2733 357.27C75.3211 357.473 74.34 357.501 73.3777 357.354C72.73 357.258 72.1014 357.061 71.5157 356.768C71.361 356.68 71.2113 356.584 71.0673 356.48C70.9685 356.404 70.9229 356.366 70.9305 356.358C70.9381 356.35 71.1509 356.487 71.5613 356.677C72.1453 356.937 72.7655 357.106 73.4005 357.179C74.3406 357.302 75.2952 357.258 76.2201 357.05C77.2613 356.784 78.3557 356.29 79.5489 355.917C80.6629 355.495 81.8462 355.286 83.0373 355.302C84.0099 355.328 84.969 355.537 85.8645 355.917C86.4684 356.17 87.0358 356.502 87.5517 356.905C87.692 357.012 87.8264 357.126 87.9545 357.247C88.0381 357.331 88.0837 357.376 88.0761 357.384Z" fill="#263238"/>
<path d="M87.8778 358.377C87.1983 357.868 86.4642 357.438 85.689 357.092C84.8417 356.745 83.937 356.56 83.0214 356.545C81.8981 356.547 80.784 356.748 79.7306 357.138C78.5906 357.518 77.519 357.959 76.5006 358.232C75.5978 358.493 74.6572 358.598 73.719 358.544C73.0842 358.508 72.4635 358.342 71.895 358.057C71.7418 357.977 71.5945 357.885 71.4542 357.784C71.363 357.708 71.3174 357.67 71.325 357.662C71.3326 357.655 71.5378 357.784 71.933 357.966C72.5007 358.211 73.1089 358.348 73.7266 358.369C74.6444 358.398 75.5609 358.278 76.4398 358.012C77.4354 357.731 78.4994 357.252 79.647 356.902C80.729 356.502 81.8754 356.303 83.029 356.317C84.611 356.366 86.1353 356.923 87.3762 357.905C87.551 358.05 87.6726 358.164 87.7562 358.247C87.8012 358.286 87.842 358.329 87.8778 358.377Z" fill="white"/>
<path d="M88.3344 356.393C87.6068 355.85 86.8218 355.389 85.9936 355.018C85.094 354.631 84.1355 354.4 83.1588 354.334C81.9571 354.31 80.7623 354.519 79.64 354.949C78.5079 355.394 77.3507 355.772 76.1744 356.082C75.1836 356.253 74.1707 356.253 73.18 356.082C72.5121 355.977 71.8639 355.772 71.2572 355.474C71.0947 355.391 70.9396 355.294 70.7936 355.185C70.6948 355.109 70.6416 355.071 70.6492 355.063C70.6568 355.056 70.8772 355.192 71.3028 355.39C71.913 355.646 72.5544 355.82 73.2104 355.907C74.1794 356.051 75.1656 356.033 76.1288 355.854C77.2928 355.533 78.4394 355.153 79.564 354.714C80.7115 354.27 81.9365 354.06 83.1664 354.098C84.846 354.238 86.4499 354.858 87.7872 355.884C87.9772 356.036 88.114 356.158 88.2052 356.241C88.2547 356.286 88.2982 356.337 88.3344 356.393Z" fill="white"/>
<path d="M92.7227 350.032C92.7227 350.1 86.9087 350.161 79.7343 350.161C72.5599 350.161 66.7383 350.1 66.7383 350.032C66.7383 349.963 72.5599 349.91 79.7343 349.91C86.9087 349.91 92.7227 349.963 92.7227 350.032Z" fill="#263238"/>
<path d="M345.215 364.259C345.215 364.373 275.713 364.465 190.007 364.465C104.302 364.465 34.7773 364.373 34.7773 364.259C34.7773 364.145 104.264 364.039 190 364.039C275.735 364.039 345.215 364.153 345.215 364.259Z" fill="#263238"/>
<path d="M159.017 125.316L150.657 123.447C147.351 127.206 142.759 129.593 137.783 130.139C132.807 130.684 127.807 129.348 123.766 126.393C119.725 123.438 116.936 119.079 115.946 114.172C114.957 109.265 115.839 104.165 118.419 99.8752C120.999 95.5855 125.091 92.4162 129.89 90.9905C134.688 89.5648 139.846 89.9858 144.35 92.1707C148.854 94.3556 152.378 98.1464 154.228 102.798C156.079 107.449 156.122 112.624 154.35 117.306L159.017 125.316Z" fill="white"/>
<path d="M159.017 125.315L154.457 117.259C154.442 117.246 154.424 117.24 154.404 117.24C154.385 117.24 154.366 117.246 154.351 117.259L154.488 117.327C155.755 114.032 156.125 110.46 155.559 106.976C155.399 105.941 155.145 104.924 154.799 103.936C154.609 103.419 154.435 102.895 154.229 102.37L153.469 100.85C151.062 96.2995 147.001 92.8451 142.123 91.1982C139.438 90.2794 136.588 89.9426 133.763 90.2102C130.777 90.5174 127.897 91.4802 125.327 93.0298C122.636 94.6399 120.367 96.8673 118.707 99.5278C116.991 102.234 115.949 105.312 115.667 108.503C115.422 111.555 115.866 114.622 116.967 117.479C117.994 120.186 119.608 122.631 121.694 124.638C125.441 128.246 130.431 130.276 135.632 130.308C137.83 130.283 140.011 129.921 142.1 129.236C145.427 128.114 148.398 126.132 150.711 123.491H150.642L159.002 125.292L150.642 123.346C150.63 123.341 150.617 123.338 150.604 123.338C150.591 123.338 150.578 123.341 150.566 123.346C148.258 125.95 145.303 127.898 142.001 128.993C139.933 129.661 137.775 130.01 135.602 130.027C130.468 129.975 125.548 127.96 121.853 124.395C119.807 122.407 118.222 119.994 117.21 117.327C116.128 114.511 115.694 111.487 115.941 108.481C116.211 105.342 117.23 102.313 118.912 99.6494C120.541 97.0249 122.774 94.8282 125.425 93.2426C127.97 91.7299 130.816 90.7958 133.763 90.5066C136.55 90.2327 139.364 90.5566 142.016 91.4566C146.809 93.0832 150.809 96.4637 153.211 100.919C153.454 101.435 153.697 101.945 153.971 102.439C154.245 102.933 154.351 103.472 154.541 103.959C154.882 104.948 155.136 105.965 155.301 106.999C155.87 110.448 155.521 113.986 154.29 117.259C154.287 117.268 154.285 117.278 154.285 117.288C154.286 117.298 154.288 117.308 154.292 117.318C154.296 117.327 154.302 117.335 154.31 117.342C154.317 117.349 154.326 117.354 154.336 117.357C154.348 117.367 154.362 117.372 154.378 117.372C154.393 117.372 154.407 117.367 154.419 117.357H154.283L159.017 125.315Z" fill="#263238"/>
<path d="M124.656 110.632L127.521 107.767L133.054 112.684L143.915 102.234L146.575 105.1L132.644 118.21L124.656 110.632Z" fill="#349F6E"/>
</svg>
