<svg width="57" height="56" viewBox="0 0 57 56" fill="none" xmlns="http://www.w3.org/2000/svg">
<path d="M30.4972 44L17.7029 29.4867L17.7768 26.6105C23.7815 26.9857 28.4498 26.4094 29.5359 21.2601L16.7414 21.1935L18.8122 18.0495L29.0182 18.1827C27.4631 15.2527 23.1864 14.8915 16.5195 15.1067L18.8122 12.0294L40.4819 12L38.3371 15.039H32.3467C33.4416 16.0869 34.2429 17.2925 34.2696 18.3163L40.4819 18.2494L38.3371 21.2591L34.1955 21.326C33.549 25.8156 28.9993 28.4737 23.25 29.0845L36.13 43.996L30.4977 43.9988L30.4972 44Z" fill="#349F6E" stroke="#349F6E" stroke-width="0.099084"/>
<rect x="2.5" y="2" width="52" height="52" rx="26" stroke="#349F6E" stroke-width="4"/>
</svg>
