<svg width="360" height="360" viewBox="0 0 360 360" fill="none" xmlns="http://www.w3.org/2000/svg">
<path d="M322.047 120.528C322.543 116.938 317.431 113.915 313.582 113.607C311.751 113.463 309.849 113.743 308.111 113.133C304.349 111.826 302.841 106.965 299.172 105.414C296.429 104.258 293.263 105.285 290.606 106.628C287.95 107.97 285.315 109.65 282.342 109.844C279.757 110.009 276.943 109.047 274.681 110.311C272.994 111.251 272.111 113.183 270.56 114.339C269.009 115.495 267.056 115.703 265.167 115.775C263.279 115.847 261.333 115.897 259.61 116.68C257.887 117.462 256.473 119.286 256.832 121.138L322.047 120.528Z" fill="#EBEBEB"/>
<path d="M164.261 87.2487C164.763 83.6587 159.644 80.6432 155.803 80.3272C153.972 80.1836 152.062 80.4636 150.332 79.8605C146.562 78.5466 145.061 73.6857 141.392 72.1348C138.643 70.9789 135.483 72.0056 132.827 73.3483C130.17 74.6909 127.535 76.3711 124.555 76.5649C121.971 76.7301 119.163 75.7679 116.901 77.0316C115.214 77.9722 114.331 79.9036 112.78 81.0596C111.229 82.2156 109.276 82.4238 107.388 82.4956C105.5 82.5674 103.547 82.6177 101.831 83.4075C100.115 84.1973 98.693 86.0066 99.052 87.859L164.261 87.2487Z" fill="#EBEBEB"/>
<path d="M93.9828 200.822C94.4782 197.196 89.3661 194.209 85.5176 193.9C83.6867 193.757 81.7768 194.037 80.0464 193.427C76.2841 192.12 74.7763 187.259 71.1073 185.708C68.3574 184.552 65.1982 185.579 62.5416 186.922C59.885 188.264 57.2212 189.908 54.2774 190.095C51.6854 190.267 48.878 189.305 46.6163 190.569C44.929 191.51 44.0459 193.441 42.495 194.597C40.9441 195.753 38.9912 195.961 37.1028 196.033C35.2145 196.105 33.2615 196.155 31.5455 196.938C29.8295 197.72 28.4078 199.544 28.7668 201.396L93.9828 200.822Z" fill="#EBEBEB"/>
<path d="M224.63 151.783C224.939 149.564 221.808 147.74 219.46 147.554C218.34 147.46 217.177 147.633 216.114 147.266C213.817 146.462 212.898 143.49 210.65 142.542C208.977 141.824 207.06 142.47 205.416 143.26C203.772 144.05 202.185 145.105 200.39 145.22C198.811 145.321 197.095 144.739 195.709 145.507C194.682 146.082 194.144 147.274 193.189 147.97C192.203 148.582 191.06 148.894 189.9 148.868C188.743 148.835 187.591 149.023 186.504 149.42C185.964 149.629 185.507 150.007 185.2 150.498C184.894 150.988 184.754 151.565 184.802 152.142L224.63 151.783Z" fill="#EBEBEB"/>
<path d="M352.881 351.02C352.881 351.121 275.509 351.207 180.073 351.207C84.636 351.207 7.25 351.121 7.25 351.02C7.25 350.92 84.6145 350.834 180.073 350.834C275.531 350.834 352.881 350.92 352.881 351.02Z" fill="#263238"/>
<path d="M229.584 296.998L283.865 350.848L294.462 350.819L298.232 296.998H229.584Z" fill="#E0E0E0"/>
<path d="M273.721 302.096L219.023 350.848L257.228 350.791L289.431 323.708L273.721 302.096Z" fill="#E0E0E0"/>
<path d="M268.578 162.775L335.998 225.277L337.183 160.449L268.578 162.775Z" fill="#E0E0E0"/>
<path d="M313.999 165.475L131.648 350.819H167.577L330.434 186.541L313.999 165.475Z" fill="#E0E0E0"/>
<path d="M77.375 234.108L142.641 298.858L146.023 234.108H77.375Z" fill="#E0E0E0"/>
<path d="M122.682 238.345L5.50391 350.819H43.2635L138.391 259.956L122.682 238.345Z" fill="#E0E0E0"/>
<path d="M134.277 211.879L227.445 304.315V211.879H134.277Z" fill="#349F6E"/>
<path d="M195.753 213.961C193.642 215.649 59.5195 350.819 59.5195 350.819H117.304L222.742 244.756L195.753 213.961Z" fill="#349F6E"/>
<path d="M71.4836 63.2957C76.19 61.3635 78.439 55.9818 76.5069 51.2754C74.5747 46.569 69.193 44.32 64.4866 46.2521C59.7802 48.1843 57.5312 53.566 59.4633 58.2724C61.3955 62.9788 66.7772 65.2278 71.4836 63.2957Z" fill="#349F6E"/>
<path d="M66.671 75.3802C66.5647 74.1171 66.5263 72.8492 66.5561 71.582C66.5216 70.315 66.5551 69.0471 66.6566 67.7838C66.7069 67.7838 66.75 69.4854 66.75 71.582C66.75 73.6786 66.7213 75.3802 66.671 75.3802Z" fill="#349F6E"/>
<path d="M61.357 65.637C61.4073 65.637 60.5385 67.2525 59.4256 69.1839C58.3127 71.1153 57.3649 72.659 57.3219 72.6303C57.2788 72.6016 58.1404 71.022 59.2533 69.0834C60.3662 67.1448 61.3139 65.6082 61.357 65.637Z" fill="#349F6E"/>
<path d="M55.9086 62.248C55.2327 62.9062 54.513 63.5179 53.7546 64.0789C53.035 64.69 52.2745 65.2514 51.4785 65.759C52.1556 65.1022 52.8752 64.4906 53.6325 63.9281C54.3528 63.3178 55.1132 62.7565 55.9086 62.248Z" fill="#349F6E"/>
<path d="M75.8905 71.6394C75.7842 71.3353 75.7026 71.0232 75.6464 70.706C75.5171 70.1244 75.3304 69.3203 75.0935 68.4443C74.8566 67.5684 74.6196 66.7857 74.4401 66.2185C74.3303 65.9144 74.2439 65.6024 74.1816 65.2851C74.3462 65.5652 74.4764 65.8641 74.5694 66.1754C74.8461 66.9024 75.0857 67.6428 75.2874 68.3941C75.5243 69.2772 75.6894 70.0885 75.79 70.6773C75.8634 70.9926 75.8972 71.3158 75.8905 71.6394Z" fill="#349F6E"/>
<path d="M85.2247 65.0051C84.2755 64.3059 83.367 63.5532 82.5035 62.7506C81.5941 62.0016 80.7264 61.2034 79.9043 60.3596C80.8545 61.055 81.7631 61.8054 82.6255 62.607C83.534 63.3595 84.4016 64.16 85.2247 65.0051Z" fill="#349F6E"/>
<path d="M88.8139 55.8937C88.4422 55.8655 88.0728 55.8127 87.7081 55.7357C86.9901 55.6209 86.0783 55.4701 85.03 55.3552C83.9817 55.2403 83.034 55.1613 82.3375 55.1183C81.9644 55.115 81.5922 55.0814 81.2246 55.0177C81.5959 54.9687 81.9711 54.9567 82.3447 54.9818C83.2494 54.9956 84.1529 55.0555 85.0516 55.1613C85.951 55.2625 86.8449 55.4087 87.7297 55.5993C88.1014 55.6542 88.4654 55.7531 88.8139 55.8937Z" fill="#349F6E"/>
<path d="M88.8148 46.9331C88.8148 46.9833 86.8331 47.5146 84.3632 48.1178C81.8933 48.7209 79.8685 49.166 79.8613 49.1086C79.8542 49.0512 81.843 48.527 84.313 47.9239C86.7829 47.3208 88.8148 46.8756 88.8148 46.9331Z" fill="#349F6E"/>
<path d="M78.3878 36.4862C78.4309 36.4862 77.4759 38.037 76.2338 39.8895C74.9916 41.7419 73.9864 43.2138 73.9434 43.1851C74.5995 42.0127 75.3185 40.8766 76.0974 39.7818C77.3251 37.9365 78.3447 36.4574 78.3878 36.4862Z" fill="#349F6E"/>
<path d="M68.0565 34.3034C68.0847 34.7266 68.0847 35.1511 68.0565 35.5743C68.0565 36.3497 68.0565 37.4267 68.0565 38.6186C68.0565 39.8105 68.0565 40.8875 68.0924 41.6701C68.1207 42.0909 68.1207 42.513 68.0924 42.9338C68.0126 42.5171 67.9694 42.0943 67.9631 41.6701C67.92 40.8947 67.877 39.8105 67.877 38.6186C67.877 37.4267 67.877 36.3497 67.9559 35.5671C67.9527 35.1438 67.9863 34.7209 68.0565 34.3034Z" fill="#349F6E"/>
<path d="M60.231 44.0539C59.4566 42.971 58.7377 41.8494 58.077 40.6936C56.921 38.8053 56.0307 37.2544 56.0738 37.2257C56.1168 37.197 57.0933 38.7048 58.2278 40.5931C59.3622 42.4814 60.2741 44.0251 60.231 44.0539Z" fill="#349F6E"/>
<path d="M55.5564 48.0244C55.2245 48.0158 54.8945 47.9701 54.5728 47.888C53.9768 47.7588 53.1368 47.5577 52.2608 47.2921C51.3849 47.0264 50.5592 46.7536 49.9919 46.531C49.6728 46.4343 49.3666 46.2993 49.0801 46.1289C49.4055 46.1928 49.725 46.2841 50.035 46.4017C50.6166 46.5884 51.4208 46.8469 52.3111 47.1197C53.2014 47.3926 54.0199 47.608 54.6087 47.7659C54.932 47.8223 55.2493 47.9089 55.5564 48.0244Z" fill="#349F6E"/>
<path d="M53.51 55.1039C52.5408 55.2969 51.5597 55.424 50.5734 55.4844C49.5928 55.6143 48.6044 55.6767 47.6152 55.6711C48.5851 55.4824 49.5659 55.3553 50.5519 55.2906C51.5329 55.165 52.521 55.1027 53.51 55.1039Z" fill="#349F6E"/>
<path d="M328.008 257.616C328.389 254.887 324.533 252.64 321.639 252.403C320.261 252.295 318.825 252.504 317.518 252.051C314.682 251.06 313.555 247.399 310.79 246.236C308.723 245.367 306.339 246.142 304.328 247.147C302.318 248.153 300.344 249.423 298.111 249.567C296.165 249.696 294.047 248.971 292.367 249.926C291.096 250.644 290.428 252.08 289.258 252.956C288.042 253.711 286.632 254.093 285.201 254.055C283.773 254.03 282.353 254.274 281.015 254.773C279.723 255.361 278.653 256.733 278.926 258.126L328.008 257.616Z" fill="white"/>
<path d="M328.008 257.616H327.771H327.053L324.253 257.666L313.856 257.824L278.911 258.248H278.753V258.097C278.69 257.685 278.714 257.265 278.826 256.864C278.937 256.463 279.133 256.09 279.4 255.771C279.923 255.101 280.632 254.602 281.439 254.335C283.277 253.71 285.179 253.976 286.917 253.652C287.78 253.526 288.597 253.186 289.294 252.662C289.934 252.065 290.529 251.422 291.074 250.737C291.372 250.398 291.712 250.099 292.087 249.847C292.47 249.6 292.896 249.425 293.343 249.33C294.201 249.18 295.077 249.158 295.942 249.265C296.759 249.363 297.584 249.382 298.405 249.323C299.2 249.232 299.979 249.029 300.717 248.72C302.196 248.124 303.532 247.284 304.939 246.652C306.291 245.97 307.791 245.635 309.304 245.675C310.031 245.731 310.736 245.944 311.372 246.3C311.967 246.655 312.508 247.093 312.98 247.6C313.914 248.576 314.646 249.624 315.501 250.472C316.265 251.32 317.291 251.889 318.416 252.087C319.478 252.259 320.519 252.166 321.496 252.238C323.172 252.381 324.776 252.982 326.134 253.976C327.021 254.57 327.68 255.449 328.001 256.467C328.088 256.827 328.1 257.201 328.037 257.566C328.05 257.203 328.014 256.841 327.929 256.489C327.584 255.503 326.923 254.66 326.048 254.09C324.684 253.161 323.094 252.617 321.446 252.518C320.491 252.461 319.45 252.561 318.344 252.396C317.166 252.195 316.088 251.609 315.278 250.73C314.395 249.861 313.655 248.813 312.736 247.858C312.283 247.373 311.763 246.955 311.193 246.616C310.589 246.292 309.923 246.101 309.24 246.056C307.778 246.026 306.333 246.359 305.032 247.025C303.654 247.65 302.318 248.497 300.803 249.107C300.036 249.435 299.226 249.65 298.398 249.747C297.555 249.807 296.709 249.787 295.87 249.689C295.041 249.592 294.202 249.613 293.379 249.754C292.561 249.946 291.829 250.402 291.297 251.053C290.746 251.755 290.141 252.413 289.487 253.021C288.741 253.585 287.864 253.953 286.939 254.09C285.122 254.421 283.241 254.162 281.518 254.758C280.782 255 280.133 255.452 279.651 256.058C279.416 256.336 279.244 256.661 279.145 257.012C279.046 257.362 279.022 257.73 279.076 258.09L278.89 257.939L313.713 257.673L324.152 257.623H327.742C327.831 257.614 327.92 257.611 328.008 257.616Z" fill="#263238"/>
<path d="M173.752 317.712C174.248 314.086 169.136 311.1 165.287 310.791C163.456 310.647 161.554 310.927 159.816 310.317C156.054 309.01 154.546 304.149 150.877 302.598C148.127 301.442 144.968 302.469 142.311 303.812C139.654 305.155 137.019 306.835 134.047 307.021C131.455 307.194 128.648 306.232 126.386 307.495C124.699 308.436 123.815 310.367 122.265 311.523C120.714 312.679 118.761 312.887 116.872 312.959C114.984 313.031 113.031 313.081 111.315 313.864C109.599 314.647 108.177 316.47 108.536 318.323L173.752 317.712Z" fill="white"/>
<path d="M173.752 317.712H173.429H172.474L168.748 317.777L154.926 317.971L108.536 318.502H108.378V318.351C108.296 317.813 108.328 317.264 108.473 316.739C108.618 316.215 108.872 315.727 109.219 315.307C109.913 314.435 110.846 313.784 111.904 313.433C114.331 312.607 116.851 312.959 119.17 312.528C120.328 312.362 121.424 311.905 122.358 311.2C123.213 310.409 124.005 309.552 124.727 308.637C125.117 308.185 125.566 307.789 126.063 307.459C126.568 307.142 127.124 306.913 127.707 306.784C128.841 306.591 129.997 306.562 131.139 306.698C132.23 306.828 133.331 306.854 134.427 306.777C135.487 306.654 136.525 306.381 137.508 305.966C139.482 305.176 141.256 304.07 143.115 303.216C144.896 302.323 146.868 301.882 148.859 301.931C149.818 301.997 150.75 302.277 151.588 302.749C152.386 303.212 153.112 303.791 153.742 304.465C154.977 305.751 155.953 307.151 157.095 308.285C158.118 309.413 159.487 310.171 160.986 310.439C162.349 310.572 163.717 310.637 165.086 310.633C166.291 310.725 167.473 311.006 168.59 311.466C169.528 311.835 170.418 312.318 171.239 312.902C171.892 313.382 172.468 313.958 172.948 314.611C173.304 315.088 173.565 315.629 173.716 316.205C173.807 316.558 173.839 316.925 173.81 317.289C173.81 317.54 173.81 317.655 173.81 317.655C173.81 317.655 173.81 317.519 173.81 317.274C173.819 316.918 173.775 316.563 173.681 316.219C173.227 314.907 172.35 313.784 171.189 313.024C170.374 312.441 169.492 311.958 168.561 311.588C167.458 311.148 166.293 310.881 165.108 310.798C163.837 310.719 162.451 310.856 160.986 310.633C159.422 310.401 157.979 309.659 156.879 308.522C155.709 307.373 154.725 305.973 153.512 304.717C152.905 304.068 152.209 303.509 151.444 303.058C150.642 302.614 149.752 302.352 148.838 302.29C146.889 302.243 144.959 302.682 143.223 303.568C141.392 304.408 139.633 305.528 137.608 306.339C136.595 306.766 135.527 307.049 134.435 307.179C133.317 307.256 132.195 307.232 131.082 307.108C129.976 306.973 128.856 306.999 127.757 307.187C127.218 307.309 126.703 307.523 126.235 307.818C125.765 308.132 125.337 308.506 124.964 308.931C124.232 309.862 123.428 310.733 122.559 311.538C121.582 312.29 120.431 312.784 119.213 312.974C116.808 313.412 114.309 313.074 111.997 313.864C111.008 314.188 110.136 314.798 109.491 315.616C109.176 315.993 108.944 316.432 108.811 316.904C108.677 317.377 108.645 317.873 108.716 318.359L108.529 318.208L154.804 317.827L168.662 317.748H173.408C173.522 317.73 173.637 317.718 173.752 317.712Z" fill="#263238"/>
<path d="M107.352 146.477C107.768 143.432 103.475 140.934 100.251 140.668C98.7071 140.546 97.1132 140.783 95.6556 140.273C92.4964 139.175 91.2328 135.096 88.1525 133.811C85.8478 132.842 83.1912 133.711 80.9725 134.831C78.7539 135.951 76.5353 137.372 74.0367 137.53C71.8827 137.667 69.5133 136.863 67.5747 137.925C66.1387 138.715 65.4207 140.345 64.1139 141.307C62.8071 142.269 61.1701 142.449 59.5905 142.535C58.0109 142.621 56.3667 142.635 54.9235 143.296C53.4803 143.956 52.2884 145.45 52.59 147.037L107.352 146.477Z" fill="white"/>
<path d="M107.353 146.477H107.087H106.283L103.159 146.534L91.5637 146.706L52.6122 147.166H52.4615V147.015C52.3915 146.559 52.4193 146.093 52.5431 145.649C52.6669 145.205 52.8838 144.792 53.1795 144.437C53.764 143.701 54.5496 143.15 55.4411 142.851C57.4874 142.133 59.6056 142.456 61.5513 142.09C62.5169 141.955 63.4317 141.574 64.2079 140.984C64.925 140.32 65.5877 139.6 66.1896 138.83C66.5098 138.47 66.8741 138.151 67.2738 137.882C67.6981 137.61 68.1673 137.416 68.6595 137.308C69.6088 137.15 70.5755 137.126 71.5315 137.236C72.4439 137.345 73.3646 137.369 74.2815 137.308C75.1705 137.201 76.0404 136.972 76.8663 136.626C78.5177 135.965 80.0039 135.032 81.5692 134.321C83.0719 133.562 84.74 133.189 86.4228 133.237C87.2347 133.303 88.0217 133.548 88.7276 133.955C89.3889 134.346 89.9909 134.829 90.5155 135.391C91.5566 136.475 92.3679 137.645 93.3228 138.593C94.178 139.542 95.325 140.178 96.5826 140.402C97.7744 140.589 98.9376 140.488 100.022 140.567C101.89 140.724 103.678 141.392 105.191 142.499C106.178 143.16 106.91 144.138 107.266 145.27C107.347 145.57 107.373 145.881 107.345 146.189C107.345 146.398 107.345 146.491 107.345 146.491C107.345 146.491 107.345 146.376 107.345 146.175C107.349 145.877 107.311 145.579 107.23 145.292C106.85 144.192 106.115 143.25 105.141 142.614C103.639 141.552 101.877 140.917 100.043 140.776C98.9807 140.711 97.8175 140.826 96.5826 140.639C95.2723 140.411 94.0737 139.757 93.1721 138.78C92.1956 137.817 91.3699 136.626 90.3431 135.592C89.8375 135.047 89.2544 134.58 88.6128 134.206C87.9498 133.838 87.215 133.617 86.4588 133.56C84.8288 133.527 83.2159 133.897 81.763 134.637C80.2265 135.355 78.7331 136.281 77.053 136.963C76.1984 137.327 75.2968 137.569 74.3748 137.681C73.4369 137.752 72.4945 137.733 71.5603 137.624C70.6333 137.512 69.6952 137.534 68.7744 137.688C67.8636 137.902 67.0471 138.406 66.4481 139.124C65.8242 139.904 65.14 140.634 64.4018 141.307C63.5758 141.938 62.6017 142.346 61.5729 142.492C59.5481 142.865 57.4516 142.578 55.5273 143.246C54.7034 143.51 53.9747 144.009 53.4308 144.682C53.1688 144.994 52.9764 145.358 52.8662 145.751C52.756 146.143 52.7306 146.555 52.7917 146.958L52.6051 146.807L91.4273 146.505L103.066 146.441H107.374L107.353 146.477Z" fill="#263238"/>
<path d="M303.095 67.2166C303.418 64.8256 300.043 62.8583 297.509 62.6501C296.295 62.5567 295.046 62.7362 293.919 62.3413C291.434 61.4726 290.444 58.2631 288.024 57.2435C286.207 56.4825 284.125 57.1574 282.366 58.0477C280.607 58.938 278.877 60.0437 276.916 60.1658C275.208 60.2735 273.326 59.6417 271.89 60.4745C270.777 61.0992 270.196 62.3772 269.169 63.1383C268.102 63.7942 266.868 64.1283 265.615 64.1004C264.366 64.0693 263.121 64.2714 261.946 64.6964C260.812 65.2205 259.878 66.4124 260.115 67.6402L303.095 67.2166Z" fill="white"/>
<path d="M303.094 67.2166H302.886H302.254L299.806 67.2668L290.694 67.4104L260.065 67.791H259.907V67.6402C259.849 67.2761 259.87 66.904 259.968 66.5487C260.066 66.1933 260.238 65.8629 260.474 65.5795C260.94 64.9948 261.566 64.5582 262.276 64.323C263.892 63.7702 265.557 64.0071 267.079 63.7199C267.834 63.6177 268.549 63.3207 269.154 62.8583C269.715 62.3374 270.233 61.7732 270.705 61.171C271.221 60.5522 271.924 60.1186 272.709 59.936C273.463 59.8064 274.232 59.787 274.992 59.8786C275.707 59.9628 276.428 59.9796 277.146 59.9289C277.842 59.8494 278.523 59.673 279.171 59.4047C280.463 58.8878 281.633 58.1554 282.868 57.5954C284.054 56.9922 285.373 56.6983 286.702 56.7409C287.343 56.7846 287.966 56.971 288.526 57.2866C289.058 57.5954 289.541 57.9799 289.962 58.4282C290.773 59.2827 291.398 60.2089 292.166 60.9484C292.832 61.6944 293.726 62.1993 294.708 62.3844C295.641 62.5352 296.553 62.449 297.408 62.5137C298.879 62.6402 300.288 63.1693 301.479 64.043C302.253 64.5529 302.828 65.3133 303.109 66.197C303.186 66.5119 303.198 66.8393 303.145 67.1591C303.143 66.8426 303.107 66.5272 303.037 66.2185C302.714 65.3694 302.118 64.6519 301.342 64.1794C300.163 63.3489 298.781 62.8527 297.343 62.7434C296.51 62.6932 295.598 62.7865 294.622 62.6429C293.591 62.4721 292.645 61.9676 291.929 61.2069C291.154 60.4458 290.493 59.5196 289.704 58.6939C289.304 58.2708 288.847 57.9058 288.347 57.6097C287.825 57.3215 287.247 57.1523 286.652 57.1143C285.377 57.0819 284.114 57.3656 282.976 57.94C281.77 58.4929 280.599 59.2324 279.271 59.7709C278.597 60.0561 277.887 60.2447 277.16 60.3309C276.418 60.3849 275.673 60.3705 274.934 60.2879C274.218 60.2022 273.492 60.2191 272.78 60.3381C272.068 60.5055 271.432 60.9045 270.971 61.4726C270.484 62.0866 269.951 62.6627 269.377 63.1958C268.724 63.6969 267.952 64.0209 267.137 64.1363C265.543 64.4307 263.892 64.2081 262.391 64.7251C261.744 64.9285 261.171 65.3151 260.74 65.838C260.538 66.0799 260.39 66.3616 260.304 66.6647C260.219 66.9678 260.198 67.2855 260.244 67.5971L260.057 67.4463L290.572 67.2309H299.727H302.872L303.094 67.2166Z" fill="#263238"/>
<path d="M177.913 193.419L177.396 205.223C177.396 205.223 189.221 209.718 189.343 211.908L166.41 211.728L166.46 193.297L177.913 193.419Z" fill="#455A64"/>
<path d="M170.315 204.175C170.094 204.24 169.904 204.385 169.782 204.581C169.661 204.777 169.615 205.01 169.654 205.238C169.711 205.461 169.851 205.655 170.046 205.778C170.241 205.901 170.477 205.944 170.703 205.898C170.942 205.835 171.149 205.684 171.283 205.475C171.416 205.266 171.465 205.015 171.421 204.771C171.338 204.544 171.17 204.359 170.953 204.253C170.737 204.147 170.487 204.13 170.258 204.204" fill="#E0E0E0"/>
<g opacity="0.6">
<path d="M166.41 211.728L166.489 209.869L188.446 210.738C188.446 210.738 189.465 211.19 189.343 211.908L166.41 211.728Z" fill="white"/>
</g>
<path d="M177.768 205.13C177.768 205.245 177.201 205.295 176.648 205.647C176.095 205.999 175.801 206.473 175.693 206.43C175.586 206.386 175.765 205.712 176.411 205.317C177.057 204.922 177.79 205.008 177.768 205.13Z" fill="#263238"/>
<path d="M180.166 206.128C180.166 206.236 179.707 206.422 179.319 206.889C178.931 207.356 178.823 207.858 178.709 207.858C178.594 207.858 178.529 207.219 179.017 206.638C179.506 206.056 180.166 206.02 180.166 206.128Z" fill="#263238"/>
<path d="M181.509 209.014C181.409 209.014 181.258 208.476 181.545 207.866C181.832 207.255 182.364 207.018 182.414 207.112C182.464 207.205 182.134 207.528 181.897 208.031C181.66 208.533 181.617 209.007 181.509 209.014Z" fill="#263238"/>
<path d="M177.588 202.409C177.537 202.509 177.028 202.351 176.389 202.409C175.75 202.466 175.261 202.646 175.204 202.545C175.146 202.445 175.627 202.057 176.374 202.021C177.121 201.985 177.638 202.323 177.588 202.409Z" fill="#263238"/>
<path d="M213.538 193.419L213.028 205.223C213.028 205.223 224.861 209.718 224.976 211.908L202.043 211.728L202.093 193.297L213.538 193.419Z" fill="#455A64"/>
<path d="M205.943 204.175C205.723 204.242 205.534 204.386 205.412 204.582C205.291 204.777 205.245 205.011 205.282 205.238C205.339 205.461 205.479 205.655 205.674 205.778C205.869 205.901 206.105 205.944 206.331 205.898C206.571 205.837 206.779 205.686 206.913 205.477C207.046 205.267 207.095 205.015 207.049 204.771C206.967 204.543 206.8 204.357 206.583 204.251C206.365 204.145 206.115 204.128 205.885 204.204" fill="#E0E0E0"/>
<g opacity="0.6">
<path d="M202.037 211.728L202.116 209.869L224.073 210.738C224.073 210.738 225.092 211.19 224.97 211.908L202.037 211.728Z" fill="white"/>
</g>
<path d="M213.396 205.13C213.396 205.245 212.829 205.295 212.276 205.647C211.723 205.999 211.428 206.473 211.328 206.43C211.227 206.386 211.393 205.712 212.046 205.317C212.699 204.922 213.425 205.008 213.396 205.13Z" fill="#263238"/>
<path d="M215.793 206.128C215.793 206.236 215.333 206.422 214.945 206.889C214.558 207.356 214.45 207.858 214.335 207.858C214.22 207.858 214.163 207.219 214.651 206.638C215.139 206.056 215.793 206.02 215.793 206.128Z" fill="#263238"/>
<path d="M217.135 209.014C217.035 209.014 216.884 208.476 217.178 207.866C217.472 207.255 217.989 207.018 218.04 207.112C218.09 207.205 217.76 207.528 217.53 208.031C217.3 208.533 217.25 209.007 217.135 209.014Z" fill="#263238"/>
<path d="M213.215 202.409C213.165 202.509 212.655 202.351 212.023 202.409C211.392 202.466 210.896 202.646 210.839 202.545C210.781 202.445 211.255 202.057 212.002 202.021C212.749 201.985 213.273 202.323 213.215 202.409Z" fill="#263238"/>
<path d="M166.516 38.3673C165.652 36.1793 164.977 33.9213 164.499 31.6181C164.021 29.3046 164.127 26.9086 164.807 24.6463C164.915 24.3089 165.892 22.0328 166.243 22.0544C166.495 22.0544 165.92 24.2084 166.057 24.4022C167.29 26.5086 167.856 28.9394 167.679 31.374C167.554 33.7342 167.164 36.0728 166.516 38.3458" fill="#263238"/>
<path d="M167.271 50.8821L166.417 29.5503C166.015 23.6699 168.643 18.3926 174.537 18.1556H175.176C177.799 18.2026 180.308 19.2344 182.205 21.0462C184.102 22.858 185.248 25.317 185.415 27.9348C185.738 33.0613 186.033 38.7479 185.946 41.4978C185.781 47.1485 180.109 47.9598 180.109 47.9598C180.109 47.9598 180.353 52.0596 180.396 53.7038C180.396 53.7038 179.793 54.1418 174.523 54.3285C169.253 54.5152 167.271 50.8821 167.271 50.8821Z" fill="#FFBF9D"/>
<path d="M180.108 47.9383C177.509 47.8801 174.98 47.0805 172.82 45.6335C172.82 45.6335 174.544 49.7763 180.194 49.3671L180.108 47.9383Z" fill="#FF9A6C"/>
<path d="M183.469 33.0757C183.469 33.2865 183.386 33.4889 183.239 33.6393C183.091 33.7897 182.89 33.8761 182.679 33.8798C182.475 33.8918 182.274 33.8233 182.12 33.6891C181.966 33.5549 181.87 33.3657 181.854 33.1618C181.857 32.9516 181.942 32.751 182.091 32.6024C182.24 32.4537 182.44 32.3685 182.65 32.3648C182.853 32.351 183.053 32.4181 183.207 32.5513C183.36 32.6845 183.454 32.873 183.469 33.0757Z" fill="#263238"/>
<path d="M183.986 31.0581C183.885 31.1658 183.268 30.6991 182.406 30.6847C181.545 30.6704 180.898 31.094 180.805 30.9863C180.712 30.8786 180.862 30.7565 181.142 30.5555C181.524 30.3007 181.976 30.1703 182.435 30.1821C182.886 30.1913 183.323 30.342 183.684 30.6129C183.95 30.8211 184.036 31.015 183.986 31.0581Z" fill="#263238"/>
<path d="M176.038 33.2121C175.938 33.3126 175.32 32.8531 174.466 32.8387C173.612 32.8244 172.951 33.248 172.858 33.1403C172.764 33.0326 172.915 32.9033 173.202 32.7095C173.58 32.4517 174.03 32.3209 174.488 32.3361C174.941 32.3382 175.382 32.4868 175.744 32.7597C176.002 32.9751 176.089 33.1618 176.038 33.2121Z" fill="#263238"/>
<path d="M178.688 37.9078C179.154 37.7677 179.637 37.6905 180.124 37.678C180.346 37.678 180.554 37.6206 180.597 37.4698C180.621 37.2409 180.573 37.0102 180.461 36.8093L179.836 35.1076C179.243 33.6632 178.763 32.1749 178.4 30.656C179.099 32.0427 179.685 33.4834 180.152 34.964L180.755 36.6728C180.889 36.9419 180.923 37.2502 180.849 37.5416C180.817 37.6202 180.767 37.6903 180.704 37.7464C180.64 37.8025 180.565 37.843 180.483 37.8647C180.357 37.8917 180.23 37.9061 180.102 37.9078C179.633 37.9697 179.157 37.9697 178.688 37.9078Z" fill="#263238"/>
<path d="M176.08 30.893C175.973 31.1227 175.118 30.936 174.091 30.9648C173.065 30.9935 172.217 31.2017 172.103 30.9648C172.052 30.8642 172.217 30.656 172.569 30.455C173.036 30.2146 173.552 30.0845 174.078 30.0745C174.603 30.0646 175.123 30.1751 175.599 30.3975C175.958 30.5842 176.131 30.7853 176.08 30.893Z" fill="#263238"/>
<path d="M184.308 27.784C184.179 28.0138 183.454 27.9635 182.635 28.1287C181.817 28.2938 181.149 28.5882 180.948 28.423C180.854 28.3369 180.948 28.1215 181.185 27.8774C181.55 27.5555 181.997 27.3417 182.477 27.2599C182.956 27.1621 183.453 27.1968 183.913 27.3604C184.243 27.5184 184.38 27.6979 184.308 27.784Z" fill="#263238"/>
<path d="M166.803 33.7075C166.703 33.6644 162.933 32.4941 162.991 36.3569C163.048 40.2198 166.918 39.3725 166.926 39.2648C166.933 39.1571 166.803 33.7075 166.803 33.7075Z" fill="#FFBF9D"/>
<path d="M165.641 37.836C165.641 37.836 165.569 37.8863 165.454 37.9365C165.374 37.9701 165.289 37.9874 165.203 37.9874C165.116 37.9874 165.031 37.9701 164.951 37.9365C164.7 37.7807 164.495 37.561 164.356 37.3C164.217 37.0389 164.15 36.7457 164.162 36.4503C164.146 36.1184 164.205 35.7872 164.334 35.481C164.37 35.36 164.435 35.2495 164.522 35.1583C164.609 35.0672 164.717 34.9981 164.837 34.9568C164.913 34.9356 164.994 34.9419 165.067 34.9747C165.139 35.0076 165.197 35.0648 165.231 35.1363C165.289 35.244 165.231 35.323 165.289 35.3302C165.346 35.3374 165.368 35.2656 165.332 35.1004C165.309 35.007 165.256 34.9238 165.181 34.8635C165.074 34.7848 164.94 34.7513 164.808 34.7702C164.644 34.7983 164.492 34.8698 164.365 34.9772C164.239 35.0845 164.144 35.2238 164.09 35.3805C163.928 35.7182 163.852 36.0905 163.867 36.4646C163.853 36.8093 163.942 37.1504 164.122 37.4445C164.302 37.7386 164.566 37.9724 164.88 38.116C164.983 38.1448 165.091 38.1501 165.197 38.1314C165.303 38.1128 165.403 38.0707 165.49 38.0083C165.641 37.9222 165.641 37.836 165.641 37.836Z" fill="#FF9A6C"/>
<path d="M182.765 21.6882C183.382 21.322 181.458 19.3403 179.893 18.6798C177.545 17.6817 173.976 17.1145 171.851 17.7679C169.288 18.5649 167.17 19.9219 165.927 22.2769C164.74 24.6986 164.215 27.3913 164.405 30.0816C164.392 30.9055 164.598 31.7183 165.001 32.4366C165.561 33.2767 166.61 33.7937 166.595 34.9712C166.586 35.185 166.62 35.3985 166.694 35.5994C166.768 35.8003 166.881 35.9845 167.026 36.1415C167.744 36.8595 168.598 36.1415 168.979 35.4235C169.797 33.8942 169.848 32.0776 169.884 30.3401C169.973 29.1073 169.861 27.8682 169.553 26.6711C169.345 26.0321 169.029 25.429 168.835 24.7756C168.729 24.4558 168.694 24.1165 168.732 23.7817C168.771 23.4468 168.882 23.1244 169.058 22.837C169.151 22.72 169.254 22.6118 169.367 22.5139C169.896 22.0313 170.543 21.6979 171.244 21.5477C171.944 21.3976 172.671 21.4362 173.352 21.6595C175.549 22.3775 179.297 23.4401 180.252 22.679C180.934 22.2065 181.509 21.5948 181.939 20.884L182.765 21.6882Z" fill="#263238"/>
<path d="M179.283 40.2557C179.283 40.3203 179.089 40.4495 178.701 40.4926C178.191 40.5433 177.676 40.4513 177.215 40.2269C176.74 40.0259 176.332 39.6949 176.037 39.272C175.829 38.9417 175.793 38.6976 175.851 38.6689C175.908 38.6402 176.447 39.3869 177.394 39.8033C178.342 40.2198 179.218 40.1121 179.283 40.2557Z" fill="#263238"/>
<path d="M233.132 30.8427C233.132 30.8427 232.981 29.938 232.536 29.938C232.236 29.9365 231.941 30.0209 231.686 30.1811C231.432 30.3414 231.229 30.5709 231.1 30.8427C230.792 31.5032 233.132 30.8427 233.132 30.8427Z" fill="#FFBF9D"/>
<path d="M221.717 45.2386L222.162 38.1088L223.598 30.7637C223.598 30.7637 224.719 29.5718 225.314 29.8447C225.91 30.1175 225.688 31.1083 225.688 31.1083C225.688 31.1083 227.253 29.4139 227.842 29.8016C228.431 30.1893 228.215 31.1083 228.215 31.1083C228.215 31.1083 229.651 29.2272 230.305 29.7441C230.958 30.2611 230.305 31.1083 230.305 31.1083C230.305 31.1083 231.188 39.3294 230.743 42.2732C230.608 43.1314 230.27 43.9449 229.756 44.6456C229.243 45.3464 228.569 45.9141 227.792 46.3012L226.607 50.9251L220.77 47.7516L221.717 45.2386Z" fill="#FFBF9D"/>
<path d="M225.284 35.9046L193.592 35.5528V33.0182L225.284 32.1279V35.9046Z" fill="#349F6E"/>
<path d="M258.751 38.4176L213.969 36.5292C213.411 34.9275 213.411 33.184 213.969 31.5822L258.485 29.6149C260.489 31.7474 260.51 36.2277 258.751 38.4176Z" fill="#349F6E"/>
<path d="M258.32 30.0242C258.32 30.0242 256.971 31.2879 257.021 34.0378C257.071 36.7877 258.457 37.9437 258.457 37.9437C259.429 36.7303 259.881 35.1813 259.713 33.6357C259.476 30.9432 258.32 30.0242 258.32 30.0242Z" fill="#E0E0E0"/>
<path d="M256.525 38.4176C256.16 38.1245 255.863 37.7543 255.657 37.3334C255.073 36.3495 254.767 35.2251 254.774 34.0809C254.772 32.9453 255.041 31.8257 255.556 30.814C255.749 30.3804 256.05 30.0043 256.432 29.7226C256.482 29.7226 256.138 30.1678 255.793 30.9289C255.372 31.9291 255.152 33.0027 255.147 34.088C255.14 35.1709 255.386 36.2404 255.865 37.2114C256.108 37.6003 256.329 38.0031 256.525 38.4176Z" fill="#263238"/>
<path d="M258.522 29.7154C258.572 29.7585 258.242 30.1749 257.883 30.936C257.413 31.9231 257.18 33.0059 257.201 34.0989C257.222 35.1918 257.498 36.2648 258.005 37.2329C258.197 37.6409 258.468 38.0069 258.802 38.3099C258.802 38.3099 258.651 38.3099 258.443 38.1591C258.17 37.9407 257.943 37.6697 257.775 37.3621C257.174 36.3805 256.845 35.2559 256.823 34.1047C256.802 32.9534 257.088 31.8173 257.653 30.814C257.852 30.3841 258.15 30.0076 258.522 29.7154Z" fill="#263238"/>
<path d="M259.103 32.013C259.053 31.8685 258.972 31.7364 258.866 31.6253C258.815 31.5684 258.749 31.5254 258.676 31.5004C258.604 31.4753 258.526 31.4689 258.45 31.4817C258.374 31.4999 258.305 31.5381 258.249 31.5925C258.194 31.6469 258.154 31.7153 258.134 31.7904C258.097 31.9401 258.115 32.098 258.184 32.2356C258.349 32.5587 258.615 32.8603 258.601 33.1834C258.586 33.5065 258.515 33.8296 258.536 34.1527C258.542 34.2703 258.579 34.3843 258.644 34.4829C258.675 34.5334 258.72 34.5742 258.773 34.6008C258.827 34.6274 258.886 34.6388 258.945 34.6337C259.139 34.6337 259.233 34.3896 259.276 34.2029C259.446 33.4727 259.385 32.7077 259.103 32.013Z" fill="white"/>
<path d="M213.963 36.6872C213.492 35.9168 213.278 35.0166 213.352 34.1168C213.314 33.2124 213.566 32.3194 214.07 31.5679C214.178 31.611 213.762 32.7095 213.747 34.124C213.733 35.5384 214.07 36.6513 213.963 36.6872Z" fill="#263238"/>
<path d="M193.528 36.1559C193.4 36.1559 193.278 36.1052 193.188 36.015C193.098 35.9248 193.047 35.8024 193.047 35.6748V32.9895C193.047 32.8619 193.098 32.7396 193.188 32.6494C193.278 32.5591 193.4 32.5085 193.528 32.5085C193.656 32.5084 193.779 32.5589 193.871 32.6489C193.962 32.7389 194.014 32.8613 194.016 32.9895V35.682C194.012 35.809 193.959 35.9295 193.868 36.018C193.777 36.1065 193.655 36.1559 193.528 36.1559Z" fill="#349F6E"/>
<path d="M193.527 36.1559C193.527 36.1559 193.656 36.1559 193.786 35.9908C193.863 35.9149 193.907 35.8117 193.908 35.7036C193.908 35.5384 193.908 35.3733 193.908 35.201C193.908 34.7702 193.908 34.325 193.872 33.8655C193.872 33.607 193.872 33.3485 193.872 33.0757C193.883 33.0302 193.883 32.9828 193.873 32.9372C193.863 32.8915 193.843 32.8488 193.814 32.8121C193.785 32.7755 193.748 32.7459 193.705 32.7256C193.663 32.7054 193.617 32.6949 193.57 32.6951C193.524 32.6963 193.478 32.7076 193.437 32.7282C193.396 32.7489 193.359 32.7784 193.33 32.8148C193.302 32.8511 193.281 32.8933 193.271 32.9384C193.26 32.9834 193.259 33.0303 193.269 33.0757C193.269 33.3485 193.269 33.607 193.269 33.8655C193.269 34.3441 193.254 34.7893 193.226 35.201V35.7036C193.225 35.7566 193.235 35.8094 193.254 35.8586C193.274 35.9079 193.303 35.9528 193.341 35.9908C193.47 36.12 193.606 36.1272 193.599 36.1559C193.592 36.1846 193.463 36.2349 193.247 36.1056C193.184 36.0622 193.131 36.0058 193.091 35.9402C193.052 35.8746 193.026 35.8012 193.017 35.7251C193.017 35.5528 193.017 35.3805 193.017 35.201C193.017 34.7702 193.017 34.325 192.982 33.8655C192.982 33.607 192.982 33.3485 192.982 33.0757C192.965 32.8927 193.019 32.7103 193.132 32.5659C193.195 32.4899 193.274 32.4286 193.364 32.3864C193.453 32.3442 193.551 32.3222 193.649 32.3218C193.749 32.3239 193.847 32.3467 193.937 32.3887C194.027 32.4308 194.108 32.4911 194.173 32.5659C194.284 32.7113 194.336 32.8937 194.317 33.0757C194.317 33.3485 194.317 33.607 194.317 33.8655C194.317 34.3441 194.303 34.7893 194.274 35.201C194.274 35.3805 194.274 35.5528 194.274 35.7251C194.262 35.8013 194.235 35.8743 194.195 35.9398C194.154 36.0052 194.1 36.0616 194.037 36.1056C193.642 36.2349 193.52 36.1703 193.527 36.1559Z" fill="#263238"/>
<path d="M199.035 41.4691C199.035 41.4691 198.36 33.1475 198.561 32.4151C198.762 31.6827 201.052 29.1123 201.857 29.0261C202.661 28.94 202.747 29.8303 202.747 29.8303C203.416 29.3853 204.181 29.1071 204.98 29.019C205.285 28.9888 205.591 29.0748 205.836 29.2597C206.08 29.4447 206.247 29.715 206.301 30.017C206.834 29.6982 207.469 29.5979 208.075 29.737C208.548 29.8231 209.094 30.656 209.094 30.656C209.094 30.656 210.264 30.1534 210.824 30.656C211.282 31.1595 211.537 31.8139 211.542 32.4941C210.796 32.4892 210.067 32.7204 209.46 33.1546C209.325 34.9679 209.078 36.7711 208.721 38.554C208.276 40.3346 206.509 41.8137 205.913 42.7328L205.447 48.886L197.879 44.8939L199.035 41.4691Z" fill="#FFBF9D"/>
<path d="M200.738 33.0398C200.689 32.6571 200.719 32.2684 200.826 31.8979C200.934 31.5273 201.116 31.1828 201.362 30.8858C201.556 30.5502 201.818 30.2587 202.131 30.03C202.443 29.8013 202.8 29.6404 203.179 29.5575C202.633 30.0282 202.129 30.5447 201.671 31.1012C201.31 31.7223 200.998 32.3704 200.738 33.0398Z" fill="#FF9A6C"/>
<path d="M204.414 32.8962C204.307 32.5655 204.279 32.2141 204.334 31.8709C204.389 31.5276 204.525 31.2023 204.73 30.9217C204.987 30.4897 205.381 30.1561 205.85 29.9739C206.209 29.8518 206.446 29.8806 206.453 29.9236C206.46 29.9667 205.577 30.2108 205.053 31.1227C204.78 31.6904 204.566 32.2847 204.414 32.8962Z" fill="#FF9A6C"/>
<path d="M207.156 32.6233C207.055 32.6233 207.22 31.812 207.931 31.1873C208.642 30.5627 209.432 30.4693 209.439 30.5555C209.446 30.6416 208.8 30.8929 208.183 31.4673C207.565 32.0417 207.285 32.6592 207.156 32.6233Z" fill="#FF9A6C"/>
<path d="M226.527 43.5154C227.79 42.0291 226.828 38.0299 226.828 38.0299C227.358 37.841 227.837 37.53 228.225 37.1222C228.612 36.7143 228.899 36.221 229.061 35.682C229.506 33.8942 228.616 33.5926 228.616 33.5926C228.314 33.7434 225.557 35.5312 224.143 36.2779C222.728 37.0247 222.283 44.6067 222.283 44.6067" fill="#FFBF9D"/>
<path d="M222.284 44.578C222.247 44.2464 222.247 43.9116 222.284 43.58C222.32 42.941 222.384 42.0219 222.521 40.8803C222.652 39.5344 222.951 38.2102 223.411 36.9385C223.493 36.7517 223.594 36.5737 223.712 36.4072C223.847 36.2317 224.022 36.0913 224.222 35.9979C224.567 35.8112 224.94 35.6102 225.263 35.402L227.417 34.0737C227.791 33.8439 228.135 33.6213 228.523 33.3988L228.595 33.3557L228.667 33.3916C228.811 33.4618 228.94 33.5622 229.042 33.686C229.145 33.8099 229.22 33.9543 229.263 34.1096C229.346 34.3739 229.378 34.6518 229.356 34.9281C229.327 35.6625 229.073 36.3703 228.629 36.9558C228.184 37.5413 227.571 37.9764 226.872 38.2022L226.972 38.0155C227.295 39.3649 227.363 40.7625 227.173 42.1368C227.106 42.5198 226.975 42.8887 226.785 43.2282C226.713 43.3438 226.623 43.4479 226.52 43.5369C226.565 43.4103 226.625 43.2897 226.699 43.1779C226.852 42.8382 226.954 42.4777 227.001 42.1081C227.118 40.7612 227.006 39.4042 226.671 38.0945L226.635 37.9581L226.771 37.9078C227.573 37.5994 228.238 37.0134 228.645 36.2564C228.852 35.8375 228.969 35.3803 228.99 34.9137C229.03 34.6998 229.009 34.479 228.931 34.276C228.852 34.0731 228.718 33.8961 228.545 33.7649H228.688C228.351 33.9588 227.97 34.2029 227.618 34.4255C226.9 34.885 226.182 35.3302 225.464 35.7538C225.113 35.962 224.746 36.1631 224.409 36.3497C224.251 36.4163 224.112 36.5227 224.007 36.6585C223.897 36.7986 223.808 36.9533 223.741 37.118C223.276 38.354 222.96 39.6412 222.801 40.9521C222.628 42.0794 222.521 42.9984 222.442 43.6303C222.418 43.9503 222.365 44.2676 222.284 44.578Z" fill="#FF9A6C"/>
<path d="M167.293 110.06C167.293 110.06 168.176 146.197 167.293 150.605C166.41 155.014 164.924 173.229 164.924 186.742C164.924 200.255 165.491 203.335 165.491 203.335H178.609C178.609 203.335 179.542 177.645 183.592 162.768C187.354 148.961 191.684 127.967 191.684 118.862V106.534H168.471L167.293 110.06Z" fill="#263238"/>
<path d="M199.028 106.534C199.028 106.534 212.792 144.732 213.675 155.897C214.558 167.062 214.594 203.335 214.594 203.335H201.01L199.2 159.537L188.746 131.147V106.534H199.028Z" fill="#263238"/>
<path d="M191.682 127.105C191.656 127.454 191.598 127.8 191.51 128.139C191.374 128.857 191.187 129.819 190.964 130.953C190.498 133.402 189.873 136.654 189.191 140.244C188.509 143.834 187.827 147.159 187.303 149.521C187.037 150.706 186.807 151.675 186.635 152.314C186.565 152.661 186.462 153 186.326 153.326C186.352 152.975 186.41 152.626 186.498 152.285C186.635 151.567 186.822 150.605 187.037 149.471C187.511 147.022 188.128 143.77 188.818 140.173C189.507 136.575 190.182 133.265 190.706 130.903C190.972 129.718 191.201 128.749 191.374 128.11C191.441 127.765 191.545 127.428 191.682 127.105Z" fill="#455A64"/>
<path d="M204.24 123.4H207.148C207.148 123.4 207.815 113.348 206.135 106.534C204.455 99.7204 195.868 70.146 195.868 70.146L186.361 54.4649L181.264 52.196L198.007 108.336L204.24 123.4Z" fill="#455A64"/>
<path opacity="0.3" d="M193.642 74.6263C193.642 74.6263 202.445 100.711 203.903 107.547C204.915 112.789 205.654 118.081 206.114 123.4H204.233L197.318 105.192C197.318 105.192 190.138 76.2418 190.447 76.3136C190.756 76.3854 193.642 74.6263 193.642 74.6263Z" fill="black"/>
<path d="M165.281 51.5642L166.071 46.5382L180.115 52.8422V49.8051L186.319 60.1586L199.961 98.9306C200.399 100.13 200.93 104.107 200.133 105.105L199.02 106.541L184.229 108.458L170.207 57.8036L165.281 51.5642Z" fill="#E0E0E0"/>
<path opacity="0.3" d="M167.608 127.105C167.608 127.105 186.391 129.209 190.24 127.679C191.349 127.227 192.312 126.477 193.024 125.514C193.736 124.55 194.168 123.409 194.275 122.215C194.275 122.215 196.156 108.882 196.027 105.938C195.81 103.216 195.402 100.512 194.806 97.8464L167.572 124.75L167.608 127.105Z" fill="black"/>
<path d="M181.752 57.3584C181.752 57.3584 188.171 79.2143 188.121 79.3723C188.07 79.5303 195.236 101.738 195.236 101.738L196.672 95.0534L186.692 61.7454L182.678 56.8271L181.752 57.3584Z" fill="#349F6E"/>
<path d="M161.11 53.632C154.526 57.6456 154.189 63.8707 157.118 71.0076C157.599 72.1923 158.554 74.2242 159.186 75.6028C162.015 81.6268 167.895 91.4562 167.895 93.7539C167.895 99.1676 163.049 124.276 163.049 124.276C163.049 124.276 189.313 127.464 191.683 124.994C194.052 122.524 195.876 107.044 195.115 100.123C194.275 92.483 190.34 79.559 188.746 74.7771C187.784 71.9051 184.618 64.7251 180.848 60.0437C178.024 56.5305 174.663 53.4846 170.89 51.0185L165.296 47.3567L164.148 51.2339C163.216 52.1303 162.198 52.9334 161.11 53.632Z" fill="#455A64"/>
<path d="M186.672 55.348C187.218 55.348 211.22 63.1886 209.827 62.6142L210.474 61.9393L219.09 48.9004L226.988 53.5746C226.988 53.5746 219.183 68.5161 217.891 70.864C217.272 72.0127 216.353 72.9712 215.231 73.6366C214.108 74.302 212.826 74.6491 211.522 74.6407C209.763 74.6407 194.728 72.1205 194.728 72.1205L186.672 55.348Z" fill="#455A64"/>
<path d="M196.328 46.373L198.188 43.0846L206.545 47.8449L205.246 51.4637L196.328 46.373Z" fill="#E0E0E0"/>
<path opacity="0.3" d="M159.559 71.2302C159.559 71.2302 175.692 80.198 180.826 81.4114C185.959 82.6249 191.682 84.2403 191.682 84.2403L189.377 76.9024L175.355 68.3797L159.559 71.2302Z" fill="black"/>
<path d="M159.56 71.2302C159.359 71.0794 183.763 79.76 188.739 78.1948C193.715 76.6296 195.323 71.7328 197.104 68.6669C200.356 63.1168 206.122 52.074 206.122 52.074L195.797 46.1648L185.515 63.3968C185.515 63.3968 167.314 55.8865 165.641 55.3983C163.968 54.9101 158.791 54.2351 156.264 60.2879C153.435 66.9868 159.56 71.2302 159.56 71.2302Z" fill="#455A64"/>
<path d="M159.559 71.2302C159.492 71.2012 159.429 71.1625 159.373 71.1153C159.258 71.0291 159.086 70.8927 158.87 70.706C158.241 70.1581 157.677 69.5389 157.19 68.8608C156.388 67.775 155.839 66.524 155.582 65.199C155.506 64.7961 155.46 64.3881 155.445 63.9784C155.445 63.5548 155.488 63.1168 155.503 62.6573C155.517 62.1977 155.661 61.7526 155.804 61.2931C155.948 60.821 156.121 60.3582 156.321 59.9073C156.744 58.9202 157.332 58.0121 158.059 57.222C158.863 56.3599 159.87 55.7132 160.988 55.3408C162.198 54.9413 163.486 54.8403 164.743 55.0465C165.402 55.1499 166.046 55.3331 166.66 55.5921L168.563 56.3101C173.69 58.3277 179.398 60.6612 185.551 63.1886L185.336 63.2604L195.61 46.0284L195.704 45.8704L195.862 45.9638L199.588 48.1178L206.215 51.9016L206.373 51.9878L206.287 52.1457C204.255 56.0229 202.252 59.7781 200.284 63.3609C199.294 65.1559 198.317 66.9078 197.326 68.6095C196.335 70.3111 195.574 72.0559 194.54 73.6355C193.575 75.2122 192.249 76.5363 190.67 77.4983C189.905 77.9501 189.071 78.2727 188.2 78.4533C187.354 78.5503 186.498 78.5503 185.652 78.4533C182.619 78.0596 179.62 77.4452 176.677 76.6152C171.277 75.1792 167.012 73.7432 164.083 72.7954C161.153 71.8477 159.559 71.2302 159.559 71.2302C159.663 71.2394 159.765 71.2635 159.861 71.302L160.737 71.5748L164.119 72.6662C167.07 73.5924 171.342 74.9638 176.734 76.3711C179.669 77.1833 182.659 77.7808 185.68 78.1589C186.503 78.2523 187.334 78.2523 188.157 78.1589C188.987 77.9777 189.782 77.665 190.512 77.2327C192.045 76.2902 193.33 74.9954 194.26 73.456C195.28 71.9123 196.041 70.1532 197.032 68.43C198.023 66.7068 198.985 64.9836 199.968 63.1958C201.929 59.6058 203.932 55.8506 205.957 51.9734L206.036 52.2247L199.387 48.4552L195.668 46.3012L195.919 46.2366C192.286 52.2965 188.811 58.1123 185.623 63.4686L185.544 63.5978L185.407 63.5404C179.283 61.0059 173.539 58.658 168.455 56.6117L166.56 55.8937C165.965 55.6355 165.34 55.4522 164.7 55.348C163.485 55.1449 162.24 55.236 161.067 55.6137C159.987 55.9696 159.012 56.589 158.231 57.4159C157.519 58.1786 156.939 59.0546 156.515 60.0078C156.315 60.449 156.142 60.9022 155.998 61.3649C155.855 61.81 155.797 62.2695 155.697 62.7003C155.596 63.1311 155.603 63.5691 155.625 63.9856C155.635 64.3878 155.676 64.7886 155.747 65.1846C155.987 66.4912 156.512 67.729 157.283 68.8105C157.756 69.4911 158.303 70.1171 158.913 70.6773C159.114 70.8712 159.279 71.0076 159.394 71.1009L159.559 71.2302Z" fill="#263238"/>
<path d="M171.291 108.013L173.553 103.432L189.377 103.713L187.618 108.451L171.291 108.013Z" fill="#455A64"/>
<path d="M171.291 108.013H172.576H176.023C178.945 108.056 182.987 108.114 187.626 108.229L187.446 108.351C187.985 106.915 188.545 105.385 189.126 103.827L189.205 103.612L189.377 103.863C183.002 103.748 177.315 103.626 173.581 103.519L173.689 103.454L171.952 106.764C171.758 107.13 171.6 107.425 171.478 107.669C171.423 107.78 171.361 107.888 171.291 107.992C171.291 107.992 171.291 107.898 171.413 107.697C171.535 107.496 171.664 107.166 171.83 106.8L173.445 103.361V103.289H173.538C177.301 103.289 182.987 103.389 189.334 103.504H189.6L189.507 103.748L189.428 103.964L187.748 108.48L187.697 108.602H187.568C182.844 108.466 178.722 108.308 175.822 108.193L172.433 108.056L171.542 108.013C171.459 108.02 171.375 108.02 171.291 108.013Z" fill="#263238"/>
<path d="M181.854 61.3577C181.803 61.451 177.797 59.2468 172.9 56.4394C168.003 53.632 164.083 51.2842 164.133 51.198C164.184 51.1118 168.19 53.3089 173.087 56.1163C177.984 58.9237 181.911 61.2715 181.854 61.3577Z" fill="#263238"/>
<path d="M187.325 95.9079C187.325 96.0084 183.512 95.8504 178.816 95.5489C174.12 95.2473 170.315 94.9242 170.322 94.8309C170.329 94.7375 174.142 94.8883 178.838 95.1899C183.533 95.4914 187.332 95.8073 187.325 95.9079Z" fill="#263238"/>
<path d="M219.613 49.2522L221.207 46.5669L227.526 50.2574L226.298 53.1725L219.613 49.2522Z" fill="#E0E0E0"/>
<path d="M211.477 68.1284C210.782 67.4303 210.254 66.5836 209.934 65.6522C209.613 64.7208 209.507 63.7287 209.625 62.7506C209.732 62.7506 209.768 64.043 210.285 65.5293C210.802 67.0155 211.592 68.0638 211.477 68.1284Z" fill="#263238"/>
<path d="M196.02 70.6917C196.63 72.1444 197.127 73.6423 197.506 75.172C198.004 76.6685 198.381 78.2028 198.633 79.76C198.025 78.3064 197.528 76.8086 197.147 75.2797C196.648 73.7832 196.271 72.2489 196.02 70.6917Z" fill="#263238"/>
<path d="M186.326 68.8177C185.686 68.0706 185.262 67.1631 185.098 66.1928C184.935 65.2225 185.04 64.2261 185.4 63.3106C185.353 64.2517 185.377 65.195 185.472 66.1324C185.688 67.0479 185.974 67.9456 186.326 68.8177Z" fill="#263238"/>
<path opacity="0.3" d="M172.563 108.042L172.283 109.428L188.668 109.887L189.379 103.713L187.62 108.451L172.563 108.042Z" fill="black"/>
<path d="M179.771 55.8937L179.944 56.0804L181.753 57.3584L182.658 56.8486L182.069 54.8454L180.159 53.4094L179.771 55.8937Z" fill="#349F6E"/>
<path d="M182.213 53.4094C182.409 53.9704 182.547 54.5503 182.622 55.1398L182.68 55.4486L182.414 55.2619C181.782 54.8167 180.978 54.228 180.052 53.553L180.339 53.4382C180.253 54.0054 180.16 54.6013 180.066 55.2188C180.002 55.5922 179.944 55.9368 179.894 56.303L179.851 56.5543L179.628 56.4394C178.25 55.7645 177.051 55.1614 176.196 54.709C175.722 54.4971 175.272 54.2347 174.854 53.9264C175.352 54.0605 175.834 54.2508 176.29 54.4936C177.173 54.8813 178.4 55.4486 179.779 56.1091L179.521 56.2455L179.686 55.1614C179.786 54.5439 179.88 53.9479 179.973 53.3879L180.023 53.0863L180.26 53.2658C181.165 53.9838 181.962 54.5798 182.565 55.0608L182.357 55.1829C182.249 54.598 182.201 54.0039 182.213 53.4094Z" fill="#263238"/>
</svg>
