<svg width="24" height="24" viewBox="0 0 24 24" fill="none" xmlns="http://www.w3.org/2000/svg">
<path d="M12 11.75C12.4833 11.75 12.8958 11.5792 13.2375 11.2375C13.5792 10.8958 13.75 10.4833 13.75 10C13.75 9.51667 13.5792 9.10417 13.2375 8.7625C12.8958 8.42083 12.4833 8.25 12 8.25C11.5167 8.25 11.1042 8.42083 10.7625 8.7625C10.4208 9.10417 10.25 9.51667 10.25 10C10.25 10.4833 10.4208 10.8958 10.7625 11.2375C11.1042 11.5792 11.5167 11.75 12 11.75ZM12 22C9.31667 19.7167 7.3125 17.5958 5.9875 15.6375C4.6625 13.6792 4 11.8667 4 10.2C4 7.7 4.80417 5.70833 6.4125 4.225C8.02083 2.74167 9.88333 2 12 2C14.1167 2 15.9792 2.74167 17.5875 4.225C19.1958 5.70833 20 7.7 20 10.2C20 11.8667 19.3375 13.6792 18.0125 15.6375C16.6875 17.5958 14.6833 19.7167 12 22Z" fill="#7A7A7A"/>
</svg>
