<svg width="481" height="418" viewBox="0 0 481 418" fill="none" xmlns="http://www.w3.org/2000/svg">
<g clip-path="url(#clip0_2197_16030)">
<path d="M124.149 15.0039H46.3516V127.733H124.149V15.0039Z" fill="#E0E0E0"/>
<path d="M120.254 15.0039H42.457V127.733H120.254V15.0039Z" fill="#F5F5F5"/>
<path d="M110.574 27.209H52.1133V115.519H110.574V27.209Z" fill="white"/>
<path d="M110.631 115.529C110.631 115.529 110.631 115.375 110.631 115.096C110.631 114.817 110.631 114.384 110.631 113.836C110.631 112.73 110.631 111.105 110.631 109.027C110.631 104.796 110.631 98.621 110.574 90.8307C110.574 75.2597 110.573 53.2063 110.477 27.2385L110.679 27.4308H52.2186L52.4302 27.2192C52.4302 60.535 52.4302 91.2539 52.4302 115.539L52.2571 115.365L94.8159 115.452L106.572 115.5H109.66C110.352 115.5 110.727 115.5 110.727 115.5H109.688H106.639L94.9218 115.548L52.2571 115.635H51.9492V115.471C51.9492 91.1866 51.9492 60.4676 51.9492 27.1519V26.998H52.1705H110.631H110.824V27.1904C110.824 53.2159 110.747 75.2789 110.727 90.9173C110.727 98.6884 110.727 104.834 110.67 109.056C110.67 111.153 110.67 112.769 110.67 113.865C110.67 114.404 110.67 114.827 110.67 115.096C110.67 115.365 110.631 115.529 110.631 115.529Z" fill="#E0E0E0"/>
<path d="M120.461 15.0039C120.059 15.7135 119.595 16.3861 119.075 17.014C118.171 18.2258 116.892 19.8993 115.42 21.6401C113.948 23.3809 112.591 24.9967 111.572 26.1123C111.05 26.7418 110.477 27.3273 109.859 27.8628C110.296 27.1795 110.792 26.5359 111.341 25.9392L115.093 21.3901L118.825 16.8505C119.317 16.1894 119.864 15.5716 120.461 15.0039Z" fill="#E0E0E0"/>
<path d="M110.879 115.24C113.783 119.864 117.204 124.143 121.076 127.993L110.879 115.24Z" fill="white"/>
<path d="M121.076 127.993C120.428 127.518 119.832 126.977 119.296 126.378C117.942 124.997 116.658 123.549 115.448 122.04C114.034 120.261 112.861 118.578 112.062 117.327C111.595 116.676 111.198 115.976 110.879 115.24C111.401 115.848 111.88 116.49 112.312 117.164C113.168 118.366 114.371 120.049 115.775 121.771C117.18 123.492 118.527 125.07 119.508 126.166C120.074 126.736 120.598 127.347 121.076 127.993Z" fill="#E0E0E0"/>
<path d="M42.4336 127.695L52.6308 115.125L42.4336 127.695Z" fill="white"/>
<path d="M52.6308 115.076C51.0981 117.299 49.4508 119.44 47.6957 121.491C46.0518 123.635 44.2953 125.689 42.4336 127.646C43.9647 125.42 45.612 123.275 47.3687 121.222C49.011 119.08 50.7676 117.029 52.6308 115.076Z" fill="#E0E0E0"/>
<path d="M42.457 15.0039C44.2114 16.8911 45.862 18.872 47.4017 20.938C49.0496 22.9103 50.5879 24.9716 52.0097 27.1126C50.2562 25.2347 48.6055 23.2634 47.065 21.2073C45.4163 19.2256 43.878 17.1547 42.457 15.0039Z" fill="#E0E0E0"/>
<path d="M92.3619 45.1465H72.7852V100.718H92.3619V45.1465Z" fill="#E0E0E0"/>
<path d="M343.492 111.469C346.399 116.088 349.82 120.363 353.689 124.212L343.492 111.469Z" fill="white"/>
<path d="M353.689 124.212C353.041 123.738 352.444 123.196 351.91 122.596C350.55 121.22 349.266 119.772 348.062 118.259C346.853 116.75 345.723 115.18 344.675 113.556C344.208 112.904 343.811 112.204 343.492 111.469C344.019 112.072 344.498 112.715 344.926 113.392C345.782 114.604 346.984 116.278 348.389 118.009C349.793 119.74 351.14 121.298 352.131 122.404C352.691 122.971 353.211 123.575 353.689 124.212Z" fill="#E0E0E0"/>
<path d="M275.059 123.847L285.246 111.344L275.059 123.847Z" fill="white"/>
<path d="M285.246 111.344C283.715 113.57 282.068 115.715 280.311 117.768C278.67 119.908 276.917 121.96 275.059 123.914C276.589 121.692 278.233 119.551 279.984 117.499C281.631 115.358 283.388 113.304 285.246 111.344Z" fill="#E0E0E0"/>
<path d="M56.5273 164.576C56.5273 164.432 57.0661 164.326 57.7298 164.326C58.3936 164.326 58.9323 164.432 58.9323 164.576C58.9323 164.721 58.3936 164.826 57.7298 164.826C57.0661 164.826 56.5273 164.711 56.5273 164.576Z" fill="#E0E0E0"/>
<path d="M47.1367 164.579C47.8925 164.329 48.6927 164.244 49.484 164.328C50.2721 164.245 51.0691 164.33 51.8217 164.579C51.0678 164.821 50.2721 164.906 49.484 164.829C48.6927 164.908 47.8936 164.823 47.1367 164.579Z" fill="#E0E0E0"/>
<path d="M37.7695 164.579C38.5221 164.33 39.3191 164.245 40.1072 164.328C40.8985 164.244 41.6987 164.329 42.4545 164.579C41.6976 164.823 40.8985 164.908 40.1072 164.829C39.3191 164.906 38.5233 164.821 37.7695 164.579Z" fill="#E0E0E0"/>
<path d="M30.6692 166.981C30.4254 166.204 30.3403 165.386 30.4191 164.576L30.6692 164.326H31.1502H31.6023H32.372C32.8049 164.374 33.0742 164.432 33.0742 164.509C33.0742 164.586 32.8049 164.634 32.372 164.682L31.6023 164.74H30.6403L30.8905 164.49C30.9905 165.326 30.9151 166.175 30.6692 166.981Z" fill="#E0E0E0"/>
<path d="M30.6695 176.58C30.4257 175.804 30.3406 174.986 30.4194 174.176C30.3401 173.369 30.4252 172.554 30.6695 171.781C30.9138 172.554 30.9989 173.369 30.9196 174.176C30.9984 174.986 30.9133 175.804 30.6695 176.58Z" fill="#E0E0E0"/>
<path d="M30.6695 186.178C30.4257 185.402 30.3406 184.584 30.4194 183.774C30.3401 182.967 30.4252 182.152 30.6695 181.379C30.9138 182.152 30.9989 182.967 30.9196 183.774C30.9984 184.584 30.9133 185.402 30.6695 186.178Z" fill="#E0E0E0"/>
<path d="M30.6695 195.778C30.4257 195.001 30.3406 194.183 30.4194 193.373C30.3401 192.566 30.4252 191.752 30.6695 190.979C30.9138 191.752 30.9989 192.566 30.9196 193.373C30.9984 194.183 30.9133 195.001 30.6695 195.778Z" fill="#E0E0E0"/>
<path d="M30.6691 205.375C30.3342 203.79 30.3342 202.152 30.6691 200.566C31.004 202.152 31.004 203.79 30.6691 205.375Z" fill="#E0E0E0"/>
<path d="M30.6691 214.973C30.3342 213.387 30.3342 211.75 30.6691 210.164C31.004 211.75 31.004 213.387 30.6691 214.973Z" fill="#E0E0E0"/>
<path d="M30.6691 224.574C30.3342 222.989 30.3342 221.351 30.6691 219.766C31.004 221.351 31.004 222.989 30.6691 224.574Z" fill="#E0E0E0"/>
<path d="M30.6691 234.172C30.3342 232.587 30.3342 230.949 30.6691 229.363C31.004 230.949 31.004 232.587 30.6691 234.172Z" fill="#E0E0E0"/>
<path d="M30.6691 243.77C30.3342 242.184 30.3342 240.546 30.6691 238.961C31.004 240.546 31.004 242.184 30.6691 243.77Z" fill="#E0E0E0"/>
<path d="M30.6695 253.368C30.4252 252.594 30.3401 251.78 30.4194 250.973C30.3406 250.163 30.4257 249.345 30.6695 248.568C30.9133 249.345 30.9984 250.163 30.9196 250.973C30.9989 251.78 30.9138 252.594 30.6695 253.368Z" fill="#E0E0E0"/>
<path d="M30.6695 262.967C30.4252 262.194 30.3401 261.379 30.4194 260.572C30.3406 259.762 30.4257 258.945 30.6695 258.168C30.9133 258.945 30.9984 259.762 30.9196 260.572C30.9989 261.379 30.9138 262.194 30.6695 262.967Z" fill="#E0E0E0"/>
<path d="M30.6695 272.567C30.4252 271.794 30.3401 270.979 30.4194 270.172C30.3406 269.362 30.4257 268.544 30.6695 267.768C30.9133 268.544 30.9984 269.362 30.9196 270.172C30.9989 270.979 30.9138 271.794 30.6695 272.567Z" fill="#E0E0E0"/>
<path d="M30.6695 282.164C30.4252 281.391 30.3401 280.577 30.4194 279.77C30.3406 278.96 30.4257 278.142 30.6695 277.365C30.9133 278.142 30.9984 278.96 30.9196 279.77C30.9989 280.577 30.9138 281.391 30.6695 282.164Z" fill="#E0E0E0"/>
<path d="M30.6695 291.772C30.4257 290.995 30.3406 290.178 30.4194 289.367C30.3401 288.561 30.4252 287.746 30.6695 286.973C30.9138 287.746 30.9989 288.561 30.9196 289.367C30.9984 290.178 30.9133 290.995 30.6695 291.772Z" fill="#E0E0E0"/>
<path d="M30.6695 301.37C30.4257 300.593 30.3406 299.775 30.4194 298.965C30.3401 298.158 30.4252 297.343 30.6695 296.57C30.9138 297.343 30.9989 298.158 30.9196 298.965C30.9984 299.775 30.9133 300.593 30.6695 301.37Z" fill="#E0E0E0"/>
<path d="M30.6695 310.969C30.4257 310.193 30.3406 309.375 30.4194 308.565C30.3401 307.758 30.4252 306.943 30.6695 306.17C30.9138 306.943 30.9989 307.758 30.9196 308.565C30.9984 309.375 30.9133 310.193 30.6695 310.969Z" fill="#E0E0E0"/>
<path d="M30.6695 320.567C30.4257 319.79 30.3406 318.973 30.4194 318.162C30.3401 317.355 30.4252 316.541 30.6695 315.768C30.9138 316.541 30.9989 317.355 30.9196 318.162C30.9984 318.973 30.9133 319.79 30.6695 320.567Z" fill="#E0E0E0"/>
<path d="M33.0731 327.743C32.2963 327.987 31.4784 328.072 30.6681 327.993L30.418 327.743V326.839C30.418 326.55 30.418 326.29 30.4757 326.069C30.4757 325.636 30.5815 325.367 30.6488 325.367C30.7162 325.367 30.7835 325.636 30.822 326.069C30.822 326.29 30.822 326.55 30.8797 326.839V327.281V327.743L30.6296 327.493C31.4526 327.403 32.2853 327.488 33.0731 327.743Z" fill="#E0E0E0"/>
<path d="M43.1755 327.743C42.3557 327.986 41.497 328.071 40.6454 327.993C39.797 328.072 38.9413 327.987 38.125 327.743C38.9402 327.493 39.797 327.408 40.6454 327.493C41.497 327.408 42.3569 327.493 43.1755 327.743Z" fill="#E0E0E0"/>
<path d="M53.2653 327.743C52.449 327.987 51.5933 328.072 50.7449 327.993C49.8933 328.071 49.0347 327.986 48.2148 327.743C49.0334 327.493 49.8933 327.408 50.7449 327.493C51.5933 327.408 52.4502 327.493 53.2653 327.743Z" fill="#E0E0E0"/>
<path d="M63.3669 327.743C62.5471 327.986 61.6884 328.071 60.8368 327.993C59.9884 328.072 59.1327 327.987 58.3164 327.743C59.1316 327.493 59.9884 327.408 60.8368 327.493C61.6884 327.408 62.5483 327.493 63.3669 327.743Z" fill="#E0E0E0"/>
<path d="M70.823 327.742C70.823 327.877 70.2842 327.992 69.6205 327.992C68.9567 327.992 68.418 327.877 68.418 327.742C68.418 327.608 68.9567 327.492 69.6205 327.492C70.2842 327.492 70.823 327.627 70.823 327.742Z" fill="#E0E0E0"/>
<path d="M326.334 13.8301V76.1624H236.791L233.559 14.2629L326.334 13.8301Z" fill="#E0E0E0"/>
<path d="M233.559 14.2625V76.0273H323.102V14.2625L233.559 14.2625Z" fill="white"/>
<path d="M323.526 76.4511H233.098V13.8398H323.526V76.4511ZM233.973 75.6047H322.669V14.6862H233.973V75.6047Z" fill="#E0E0E0"/>
<path d="M313.407 21.9375H243.258V68.3525H313.407V21.9375Z" fill="white"/>
<path d="M313.408 21.8999H313.061H312.099H308.251L293.821 21.9576L243.326 22.0537L243.528 21.8518C243.528 36.0379 243.528 51.7436 243.528 68.2668L243.307 68.0456L313.456 68.0937L313.283 68.2668C313.283 54.148 313.35 42.5587 313.379 34.499C313.379 30.4692 313.379 27.3146 313.379 25.1603C313.379 24.0927 313.379 23.2367 313.379 22.7077C313.379 22.1788 313.379 21.8518 313.379 21.8518C313.379 21.8518 313.379 22.1211 313.379 22.6693C313.379 23.2175 313.379 24.035 313.379 25.0929C313.379 27.2377 313.379 30.3731 313.379 34.3836C313.379 42.4817 313.436 54.0999 313.475 68.2668V68.4495H313.292H243.143H242.922V68.2283C242.922 51.7051 242.922 35.9994 242.922 21.8133V21.6113H243.124L293.754 21.7075L308.184 21.7652H312.032H313.331L313.408 21.8999Z" fill="#E0E0E0"/>
<path d="M233.559 14.0898C234.109 14.3465 234.626 14.6695 235.098 15.0516C236.012 15.7152 237.262 16.6482 238.609 17.7253C239.956 18.8025 241.139 19.822 241.976 20.6106C242.457 20.9821 242.888 21.4154 243.256 21.8994C243.179 21.9956 241.024 20.2163 238.33 18.0523C236.658 16.8333 235.064 15.5099 233.559 14.0898Z" fill="#E0E0E0"/>
<path d="M323.103 14.2637C321.634 15.7125 320.062 17.0529 318.399 18.2743C316.824 19.6017 315.156 20.8135 313.406 21.9001C314.88 20.4528 316.455 19.1125 318.12 17.8895C319.695 16.5673 321.36 15.3558 323.103 14.2637Z" fill="#E0E0E0"/>
<path d="M323.036 76.0377L313.051 67.9492L323.036 76.0377Z" fill="white"/>
<path d="M313.051 67.9492C314.851 69.1104 316.567 70.3959 318.188 71.7963C319.885 73.0896 321.492 74.4971 322.998 76.0089C321.2 74.8488 319.487 73.5632 317.87 72.1618C316.169 70.8699 314.559 69.4624 313.051 67.9492Z" fill="#E0E0E0"/>
<path d="M233.559 76.0278C235.014 74.5936 236.573 73.2691 238.224 72.0653C239.779 70.7387 241.429 69.5269 243.159 68.4395C241.703 69.8755 240.144 71.203 238.494 72.4116C236.937 73.7334 235.288 74.9419 233.559 76.0278Z" fill="#E0E0E0"/>
<path d="M257.504 36.4031V51.9453H301.64V36.4031H257.504Z" fill="#E0E0E0"/>
<path d="M147.706 145.688H337.22C338.116 145.688 338.975 146.043 339.608 146.676C340.241 147.309 340.597 148.168 340.597 149.063V225.043H144.301V149.063C144.301 148.618 144.389 148.176 144.561 147.765C144.732 147.353 144.983 146.98 145.3 146.666C145.617 146.352 145.992 146.104 146.405 145.936C146.818 145.768 147.26 145.684 147.706 145.688Z" fill="#349F6E"/>
<path opacity="0.5" d="M147.706 145.688H337.22C338.116 145.688 338.975 146.043 339.608 146.676C340.241 147.309 340.597 148.168 340.597 149.063V225.043H144.301V149.063C144.301 148.618 144.389 148.176 144.561 147.765C144.732 147.353 144.983 146.98 145.3 146.666C145.617 146.352 145.992 146.104 146.405 145.936C146.818 145.768 147.26 145.684 147.706 145.688Z" fill="#292929"/>
<path d="M326.583 91.2031H159.156V304.88H326.583V91.2031Z" fill="white"/>
<path d="M326.512 90.4434H159.086V131.415H326.512V90.4434Z" fill="#F5F5F5"/>
<path d="M231.257 125.221H167.457V135.541H231.257V125.221Z" fill="#349F6E"/>
<path d="M317.038 176.627H167.457V191.448H317.038V176.627Z" fill="#FAFAFA"/>
<path d="M317.038 191.438H167.457V206.258H317.038V191.438Z" fill="#E0E0E0"/>
<path d="M174.277 128.703H174.566V131.415H174.277V128.703Z" fill="white"/>
<path d="M177.271 130.23V131.413H177.011V130.259C177.011 129.827 176.79 129.605 176.405 129.605C176.307 129.599 176.21 129.614 176.119 129.65C176.027 129.685 175.945 129.74 175.877 129.811C175.81 129.881 175.758 129.966 175.726 130.058C175.694 130.15 175.683 130.249 175.693 130.346V131.413H175.414V129.375H175.674V129.75C175.759 129.623 175.876 129.521 176.012 129.454C176.149 129.386 176.301 129.356 176.453 129.365C176.566 129.359 176.679 129.377 176.785 129.419C176.89 129.461 176.985 129.525 177.063 129.608C177.141 129.69 177.2 129.789 177.236 129.896C177.272 130.004 177.284 130.118 177.271 130.23Z" fill="white"/>
<path d="M179.695 129.377L178.791 131.416H178.502L177.598 129.377H177.886L178.646 131.118L179.425 129.377H179.695Z" fill="white"/>
<path d="M179.82 130.396C179.82 130.191 179.881 129.99 179.995 129.819C180.109 129.648 180.271 129.515 180.461 129.436C180.651 129.358 180.86 129.337 181.061 129.377C181.263 129.417 181.448 129.516 181.593 129.662C181.739 129.807 181.838 129.992 181.878 130.193C181.918 130.395 181.897 130.604 181.819 130.794C181.74 130.983 181.607 131.146 181.436 131.26C181.265 131.374 181.064 131.435 180.859 131.435C180.719 131.447 180.579 131.428 180.448 131.38C180.316 131.332 180.197 131.255 180.098 131.157C179.999 131.058 179.923 130.938 179.875 130.807C179.827 130.676 179.808 130.535 179.82 130.396ZM181.609 130.396C181.614 130.295 181.599 130.194 181.563 130.099C181.528 130.004 181.473 129.917 181.403 129.844C181.333 129.771 181.248 129.713 181.154 129.674C181.061 129.635 180.96 129.616 180.859 129.617C180.699 129.607 180.539 129.646 180.402 129.728C180.264 129.81 180.154 129.932 180.087 130.077C180.019 130.223 179.997 130.385 180.023 130.543C180.049 130.701 180.122 130.848 180.232 130.964C180.343 131.08 180.486 131.16 180.642 131.194C180.799 131.228 180.962 131.214 181.111 131.154C181.259 131.093 181.386 130.99 181.475 130.856C181.564 130.723 181.611 130.566 181.609 130.406V130.396Z" fill="white"/>
<path d="M182.387 128.732C182.389 128.68 182.412 128.631 182.449 128.595C182.487 128.559 182.537 128.539 182.589 128.539C182.615 128.538 182.641 128.542 182.665 128.551C182.69 128.56 182.712 128.574 182.731 128.592C182.75 128.61 182.765 128.632 182.775 128.656C182.786 128.68 182.791 128.706 182.791 128.732C182.791 128.785 182.769 128.837 182.732 128.874C182.694 128.912 182.642 128.934 182.589 128.934C182.535 128.934 182.484 128.912 182.446 128.874C182.408 128.837 182.387 128.785 182.387 128.732ZM182.454 129.376H182.723V131.415H182.454V129.376Z" fill="white"/>
<path d="M183.292 130.395C183.282 130.255 183.302 130.115 183.352 129.984C183.401 129.853 183.478 129.735 183.578 129.637C183.678 129.539 183.798 129.464 183.93 129.417C184.061 129.37 184.202 129.353 184.341 129.365C184.498 129.356 184.655 129.388 184.795 129.459C184.935 129.53 185.054 129.637 185.14 129.769L184.938 129.904C184.871 129.809 184.781 129.732 184.677 129.68C184.573 129.628 184.457 129.602 184.341 129.606C184.146 129.627 183.965 129.72 183.834 129.867C183.703 130.013 183.63 130.203 183.63 130.399C183.63 130.596 183.703 130.786 183.834 130.932C183.965 131.078 184.146 131.171 184.341 131.193C184.457 131.196 184.573 131.171 184.677 131.119C184.781 131.067 184.871 130.99 184.938 130.895L185.14 131.029C185.054 131.162 184.935 131.269 184.795 131.34C184.655 131.411 184.498 131.443 184.341 131.433C184.201 131.446 184.06 131.429 183.927 131.381C183.794 131.334 183.674 131.258 183.574 131.159C183.474 131.06 183.397 130.94 183.348 130.808C183.3 130.676 183.281 130.535 183.292 130.395Z" fill="white"/>
<path d="M187.419 130.483H185.716C185.729 130.683 185.82 130.87 185.969 131.004C186.119 131.137 186.315 131.206 186.515 131.195C186.633 131.2 186.75 131.178 186.858 131.131C186.966 131.085 187.063 131.015 187.14 130.926L187.294 131.109C187.147 131.262 186.959 131.369 186.751 131.416C186.544 131.463 186.327 131.447 186.129 131.371C185.93 131.295 185.759 131.162 185.636 130.988C185.513 130.815 185.444 130.609 185.438 130.397C185.438 130.134 185.542 129.882 185.728 129.696C185.914 129.511 186.166 129.406 186.428 129.406C186.691 129.406 186.943 129.511 187.129 129.696C187.315 129.882 187.419 130.134 187.419 130.397V130.483ZM185.716 130.281H187.159C187.159 130.09 187.083 129.907 186.948 129.771C186.813 129.636 186.629 129.56 186.438 129.56C186.247 129.56 186.063 129.636 185.928 129.771C185.792 129.907 185.716 130.09 185.716 130.281Z" fill="white"/>
<path d="M191.643 129.616L191.537 130.424H192.095V130.645H191.518L191.421 131.376H191.219L191.306 130.645H190.479L190.392 131.376H190.181L190.267 130.645H189.719V130.424H190.296L190.392 129.616H189.844V129.405H190.421L190.517 128.664H190.729L190.633 129.405H191.441L191.527 128.664H191.739L191.652 129.405H192.201V129.616H191.643ZM191.431 129.616H190.642L190.536 130.424H191.335L191.431 129.616Z" fill="white"/>
<path d="M194.326 130.636C194.326 131.088 193.999 131.444 193.364 131.444C193.011 131.448 192.668 131.321 192.402 131.088L192.547 130.867C192.773 131.079 193.074 131.193 193.384 131.184C193.836 131.184 194.076 130.973 194.076 130.636C194.076 130.299 193.855 130.097 193.345 130.097H193.153V129.895L193.903 128.934H192.518V128.684H194.259V128.886L193.499 129.847C194.038 129.895 194.326 130.203 194.326 130.636Z" fill="white"/>
<path d="M197.028 130.704H196.479V131.415H196.248V130.704H194.719V130.502L196.162 128.703H196.47L195.084 130.454H196.248V129.828H196.518V130.454H197.066L197.028 130.704Z" fill="white"/>
<path d="M199.139 130.578C199.139 131.04 198.821 131.405 198.177 131.405C197.823 131.412 197.479 131.285 197.215 131.049L197.35 130.828C197.573 131.039 197.87 131.153 198.177 131.145C198.639 131.145 198.889 130.924 198.889 130.588C198.889 130.251 198.667 130.03 197.984 130.03H197.407L197.542 128.664H199.023V128.914H197.782L197.696 129.78H198.042C198.802 129.818 199.139 130.136 199.139 130.578Z" fill="white"/>
<path d="M201.504 130.577C201.503 130.698 201.477 130.817 201.427 130.927C201.377 131.037 201.304 131.135 201.213 131.214C201.122 131.293 201.015 131.352 200.899 131.387C200.783 131.421 200.661 131.43 200.542 131.414C199.82 131.414 199.426 130.914 199.426 130.058C199.426 129.202 199.926 128.654 200.667 128.654C200.891 128.643 201.113 128.693 201.311 128.798L201.196 129.019C201.035 128.928 200.851 128.884 200.667 128.894C200.08 128.894 199.705 129.269 199.705 130.01C199.705 130.068 199.705 130.144 199.705 130.231C199.781 130.08 199.901 129.955 200.048 129.871C200.195 129.788 200.363 129.749 200.532 129.76C200.652 129.737 200.775 129.741 200.892 129.772C201.01 129.802 201.12 129.859 201.213 129.937C201.306 130.015 201.38 130.114 201.431 130.224C201.481 130.335 201.506 130.456 201.504 130.577ZM201.225 130.577C201.225 130.221 200.965 129.991 200.542 129.991C200.456 129.981 200.37 129.99 200.288 130.015C200.207 130.04 200.131 130.082 200.066 130.138C200.001 130.194 199.948 130.263 199.911 130.34C199.874 130.417 199.853 130.501 199.849 130.587C199.849 130.885 200.099 131.164 200.561 131.164C200.644 131.173 200.728 131.165 200.808 131.14C200.887 131.115 200.961 131.074 201.023 131.018C201.086 130.963 201.136 130.895 201.171 130.819C201.206 130.743 201.224 130.661 201.225 130.577Z" fill="white"/>
<path d="M203.677 131.165V131.415H201.753V131.223L202.878 130.117C203.186 129.809 203.244 129.626 203.244 129.443C203.244 129.261 203.023 128.934 202.609 128.934C202.471 128.929 202.333 128.954 202.205 129.007C202.077 129.06 201.962 129.14 201.868 129.241L201.676 129.068C201.798 128.938 201.948 128.835 202.114 128.769C202.28 128.703 202.459 128.673 202.638 128.684C203.186 128.684 203.532 128.963 203.532 129.415C203.527 129.58 203.484 129.742 203.407 129.888C203.331 130.034 203.222 130.162 203.09 130.261L202.128 131.165H203.677Z" fill="white"/>
<path d="M260.926 107.062H262.542V115.776H260.926V107.062Z" fill="#263238"/>
<path d="M272.64 107.062V115.776H271.284L266.474 109.871V115.776H264.867V107.062H266.204L271.014 112.958V107.062H272.64Z" fill="#263238"/>
<path d="M282.897 107.062L279.097 115.776H277.5L273.652 107.062H275.413L278.299 113.795L281.185 107.062H282.897Z" fill="#263238"/>
<path d="M283.111 111.42C283.066 110.482 283.305 109.551 283.794 108.749C284.284 107.947 285.003 107.31 285.858 106.92C286.714 106.53 287.666 106.405 288.593 106.562C289.52 106.718 290.379 107.149 291.058 107.798C291.738 108.447 292.208 109.285 292.407 110.203C292.606 111.122 292.525 112.079 292.175 112.951C291.825 113.823 291.222 114.57 290.443 115.096C289.664 115.622 288.745 115.903 287.805 115.902C287.198 115.934 286.591 115.841 286.022 115.629C285.452 115.418 284.931 115.093 284.492 114.673C284.052 114.253 283.703 113.748 283.465 113.189C283.228 112.63 283.107 112.028 283.111 111.42ZM290.864 111.42C290.866 110.813 290.688 110.218 290.351 109.712C290.015 109.206 289.536 108.811 288.974 108.578C288.413 108.345 287.795 108.283 287.199 108.401C286.603 108.519 286.055 108.812 285.626 109.241C285.196 109.671 284.903 110.219 284.785 110.815C284.667 111.411 284.729 112.028 284.962 112.589C285.196 113.15 285.591 113.629 286.097 113.966C286.603 114.302 287.197 114.481 287.805 114.479C288.21 114.491 288.613 114.42 288.99 114.27C289.367 114.121 289.709 113.896 289.995 113.61C290.282 113.323 290.506 112.981 290.656 112.605C290.805 112.228 290.876 111.825 290.864 111.42Z" fill="#263238"/>
<path d="M294.219 107.062H295.835V115.776H294.219V107.062Z" fill="#263238"/>
<path d="M297.57 111.42C297.618 110.5 297.934 109.615 298.479 108.873C299.023 108.13 299.773 107.563 300.636 107.241C301.498 106.92 302.436 106.857 303.334 107.061C304.232 107.265 305.051 107.727 305.69 108.39L304.641 109.352C304.35 109.023 303.991 108.76 303.59 108.583C303.188 108.405 302.752 108.316 302.313 108.323C301.896 108.299 301.479 108.361 301.087 108.505C300.695 108.648 300.336 108.87 300.033 109.157C299.73 109.443 299.488 109.789 299.323 110.172C299.158 110.556 299.072 110.969 299.072 111.386C299.072 111.803 299.158 112.216 299.323 112.6C299.488 112.983 299.73 113.328 300.033 113.615C300.336 113.902 300.695 114.124 301.087 114.267C301.479 114.411 301.896 114.472 302.313 114.449C302.752 114.455 303.188 114.367 303.59 114.189C303.991 114.011 304.35 113.749 304.641 113.42L305.69 114.382C305.053 115.049 304.235 115.515 303.337 115.722C302.438 115.929 301.499 115.868 300.635 115.546C299.771 115.225 299.02 114.657 298.475 113.913C297.93 113.17 297.616 112.283 297.57 111.362V111.42Z" fill="#263238"/>
<path d="M313.778 114.42V115.776H307.246V107.062H313.615V108.457H308.872V110.717H313.076V112.054H308.872V114.459L313.778 114.42Z" fill="#263238"/>
<path d="M292.13 143.619C290.398 143.953 288.618 143.953 286.887 143.619C288.618 143.286 290.398 143.286 292.13 143.619Z" fill="#263238"/>
<path d="M293.055 145.803C293.312 144.174 293.908 142.618 294.806 141.234C294.748 142.061 294.529 142.868 294.161 143.61C293.941 144.407 293.565 145.152 293.055 145.803Z" fill="#263238"/>
<path d="M299.787 143.619C298.51 143.953 297.168 143.953 295.891 143.619C295.891 143.475 296.766 143.369 297.815 143.369C298.863 143.369 299.787 143.475 299.787 143.619Z" fill="#263238"/>
<path d="M301.387 145.275C301.39 144.563 301.558 143.862 301.877 143.226C302.272 142.149 302.695 141.303 302.839 141.36C302.836 142.069 302.669 142.767 302.349 143.399C301.945 144.486 301.521 145.323 301.387 145.275Z" fill="#263238"/>
<path d="M311.206 143.619C308.62 143.953 306.001 143.953 303.414 143.619C306.001 143.286 308.62 143.286 311.206 143.619Z" fill="#263238"/>
<path d="M317.038 166.309H167.457V176.628H317.038V166.309Z" fill="#349F6E"/>
<path d="M212.471 184.822C212.471 184.957 205.285 185.072 196.415 185.072C187.546 185.072 180.359 184.957 180.359 184.822C180.359 184.688 187.546 184.572 196.415 184.572C205.285 184.572 212.471 184.688 212.471 184.822Z" fill="#263238"/>
<path d="M264.995 185.168C262.669 185.415 260.329 185.499 257.992 185.418C255.654 185.499 253.314 185.415 250.988 185.168C253.314 184.915 255.654 184.831 257.992 184.918C260.329 184.831 262.67 184.915 264.995 185.168Z" fill="#263238"/>
<path d="M284.754 184.311C284.754 184.445 284.062 184.561 283.215 184.561C282.368 184.561 281.676 184.445 281.676 184.311C281.676 184.176 282.368 184.061 283.215 184.061C284.062 184.061 284.754 184.166 284.754 184.311Z" fill="#263238"/>
<path d="M311.518 184.649C309.451 184.902 307.366 184.986 305.285 184.899C303.203 184.986 301.118 184.902 299.051 184.649C301.119 184.402 303.203 184.318 305.285 184.399C307.366 184.318 309.45 184.402 311.518 184.649Z" fill="#263238"/>
<path d="M229.037 199.172C229.037 199.307 218.147 199.422 204.698 199.422C191.249 199.422 180.359 199.307 180.359 199.172C180.359 199.037 191.259 198.922 204.698 198.922C218.137 198.922 229.037 199.028 229.037 199.172Z" fill="#263238"/>
<path d="M262.437 199.334C260.541 199.587 258.625 199.671 256.713 199.584C254.786 199.674 252.854 199.59 250.941 199.334C252.855 199.084 254.786 199 256.713 199.084C258.625 199.003 260.54 199.087 262.437 199.334Z" fill="#263238"/>
<path d="M285.39 199.172C283.927 199.505 282.408 199.505 280.945 199.172C282.408 198.839 283.927 198.839 285.39 199.172Z" fill="#263238"/>
<path d="M309.817 198.863C305.838 199.197 301.838 199.197 297.859 198.863C301.838 198.53 305.838 198.53 309.817 198.863Z" fill="#263238"/>
<path d="M316.617 228.293H246.141V237.478H316.617V228.293Z" fill="#349F6E"/>
<path d="M301.159 215.319C298.373 215.573 295.575 215.656 292.78 215.569C289.987 215.656 287.192 215.573 284.41 215.319C287.193 215.071 289.987 214.988 292.78 215.069C295.575 214.988 298.373 215.072 301.159 215.319Z" fill="#263238"/>
<path d="M301.159 221.485C298.373 221.732 295.575 221.816 292.78 221.735C289.987 221.816 287.193 221.732 284.41 221.485C287.192 221.231 289.987 221.147 292.78 221.234C295.575 221.148 298.373 221.231 301.159 221.485Z" fill="#263238"/>
<path d="M270.035 221.484C267.25 221.732 264.452 221.816 261.656 221.734C258.861 221.816 256.063 221.732 253.277 221.484C256.063 221.231 258.861 221.148 261.656 221.234C264.452 221.148 267.25 221.231 270.035 221.484Z" fill="#263238"/>
<path d="M270.035 215.012C270.035 215.146 264.437 215.262 257.529 215.262C250.622 215.262 245.023 215.146 245.023 215.012C245.023 214.877 250.613 214.762 257.529 214.762C264.446 214.762 270.035 214.877 270.035 215.012Z" fill="#263238"/>
<path d="M301.159 233.345C298.373 233.598 295.575 233.681 292.78 233.595C289.987 233.682 287.192 233.598 284.41 233.345C287.193 233.097 289.987 233.013 292.78 233.094C295.575 233.013 298.373 233.097 301.159 233.345Z" fill="white"/>
<path d="M270.961 233.344C268.176 233.598 265.378 233.681 262.582 233.595C259.787 233.681 256.988 233.598 254.203 233.344C256.989 233.097 259.787 233.013 262.582 233.094C265.378 233.013 268.175 233.097 270.961 233.344Z" fill="white"/>
<path d="M175.646 105.457H173.895C173.045 105.457 172.355 106.146 172.355 106.996V108.746C172.355 109.596 173.045 110.285 173.895 110.285H175.646C176.496 110.285 177.185 109.596 177.185 108.746V106.996C177.185 106.146 176.496 105.457 175.646 105.457Z" fill="#349F6E"/>
<path d="M173.443 111.342C173.443 111.416 173.472 111.487 173.525 111.539C173.577 111.592 173.648 111.621 173.722 111.621H178.359V106.812C178.359 106.738 178.33 106.667 178.277 106.615C178.225 106.563 178.154 106.533 178.08 106.533C178.005 106.533 177.933 106.562 177.879 106.614C177.825 106.666 177.794 106.737 177.791 106.812V110.967H173.722C173.676 110.964 173.629 110.973 173.587 110.992C173.545 111.012 173.509 111.042 173.481 111.079C173.453 111.116 173.435 111.16 173.429 111.206C173.422 111.252 173.427 111.299 173.443 111.342Z" fill="#349F6E"/>
<path d="M208.335 107.131C208.335 107.266 202.13 107.381 194.482 107.381C186.834 107.381 180.629 107.266 180.629 107.131C180.629 106.996 186.824 106.881 194.482 106.881C202.139 106.881 208.335 106.987 208.335 107.131Z" fill="#349F6E"/>
<path d="M195.491 109.784C193.082 110.037 190.659 110.12 188.238 110.034C185.817 110.12 183.393 110.037 180.984 109.784C183.394 109.536 185.817 109.453 188.238 109.534C190.659 109.453 193.082 109.536 195.491 109.784Z" fill="#349F6E"/>
<path d="M326.516 304.11C326.516 302.138 326.43 217.262 326.295 90.4433L326.516 90.6645H159.128L159.378 90.4144C159.378 169.626 159.378 243.192 159.378 304.081L159.167 303.879L326.555 304.081L159.167 304.293H158.965V304.081C158.965 243.192 158.965 169.626 158.965 90.4144V90.1836H159.234H326.622H326.853V90.4144C326.613 217.262 326.516 302.148 326.516 304.11Z" fill="#263238"/>
<path d="M242.252 149.131C242.252 149.266 233.296 149.381 222.252 149.381C211.208 149.381 202.242 149.266 202.242 149.131C202.242 148.996 211.198 148.881 222.252 148.881C233.305 148.881 242.252 148.987 242.252 149.131Z" fill="#263238"/>
<path d="M242.252 152.959C242.252 153.094 233.296 153.209 222.252 153.209C211.208 153.209 202.242 153.094 202.242 152.959C202.242 152.824 211.198 152.709 222.252 152.709C233.305 152.709 242.252 152.815 242.252 152.959Z" fill="#263238"/>
<path d="M217.201 156.787C214.715 157.034 212.215 157.118 209.717 157.037C207.223 157.118 204.726 157.034 202.242 156.787C204.726 156.542 207.223 156.462 209.717 156.546C212.214 156.462 214.714 156.542 217.201 156.787Z" fill="#263238"/>
<path d="M242.877 145.004C242.877 145.139 226.032 145.254 205.263 145.254C184.493 145.254 167.648 145.139 167.648 145.004C167.648 144.869 184.483 144.754 205.263 144.754C226.042 144.754 242.877 144.879 242.877 145.004Z" fill="#263238"/>
<path d="M213.393 171.473C213.393 171.607 205.889 171.723 196.625 171.723C187.361 171.723 179.848 171.607 179.848 171.473C179.848 171.338 187.351 171.223 196.625 171.223C205.899 171.223 213.393 171.328 213.393 171.473Z" fill="white"/>
<path d="M265.591 171.471C262.638 171.719 259.673 171.802 256.711 171.721C253.749 171.802 250.785 171.719 247.832 171.471C250.785 171.217 253.749 171.134 256.711 171.221C259.673 171.134 262.638 171.217 265.591 171.471Z" fill="white"/>
<path d="M290.99 171.471C288.806 171.718 286.607 171.801 284.41 171.721C282.21 171.801 280.008 171.718 277.82 171.471C280.007 171.218 282.21 171.134 284.41 171.221C286.607 171.134 288.806 171.218 290.99 171.471Z" fill="white"/>
<path d="M312.941 171.471C310.757 171.718 308.558 171.802 306.361 171.721C304.165 171.802 301.965 171.718 299.781 171.471C301.965 171.217 304.165 171.134 306.361 171.221C308.558 171.134 310.758 171.217 312.941 171.471Z" fill="white"/>
<path d="M60.1367 399.97V234.449C60.1367 231.753 61.208 229.167 63.115 227.261C65.0219 225.354 67.6083 224.283 70.3051 224.283H410.699C413.396 224.283 415.982 225.354 417.889 227.261C419.796 229.167 420.867 231.753 420.867 234.449V399.97H60.1367Z" fill="#D9D9D9"/>
<path d="M301.167 279.18C309.971 279.18 317.107 272.045 317.107 263.243C317.107 254.442 309.971 247.307 301.167 247.307C292.363 247.307 285.227 254.442 285.227 263.243C285.227 272.045 292.363 279.18 301.167 279.18Z" fill="#263238"/>
<path d="M320.645 263.244C320.537 261.65 320.299 260.068 319.934 258.512C319.472 256.701 318.739 254.969 317.759 253.377C315.454 249.536 311.883 246.617 307.659 245.122C303.436 243.627 298.823 243.648 294.614 245.182C292.865 245.801 291.224 246.687 289.746 247.808C288.979 248.376 288.253 248.996 287.572 249.664C286.882 250.361 286.239 251.104 285.648 251.886C283.224 255.175 281.916 259.154 281.916 263.24C281.916 267.325 283.224 271.304 285.648 274.593C286.242 275.377 286.884 276.122 287.572 276.825C288.253 277.49 288.98 278.107 289.746 278.671C291.224 279.792 292.865 280.678 294.614 281.297C298.823 282.821 303.431 282.838 307.652 281.345C311.872 279.853 315.445 276.943 317.759 273.112C318.737 271.515 319.47 269.781 319.934 267.967C320.299 266.415 320.537 264.835 320.645 263.244C320.66 263.346 320.66 263.45 320.645 263.552C320.645 263.802 320.645 264.1 320.645 264.514C320.644 265.02 320.603 265.525 320.52 266.024C320.442 266.708 320.316 267.386 320.145 268.053C319.717 269.9 319.003 271.668 318.029 273.295C316.616 275.703 314.705 277.781 312.423 279.392C310.142 281.002 307.544 282.108 304.801 282.634C301.334 283.294 297.752 283.011 294.431 281.816C292.636 281.184 290.948 280.279 289.429 279.133C288.637 278.545 287.888 277.903 287.187 277.209C286.495 276.49 285.852 275.726 285.263 274.92C282.758 271.541 281.406 267.446 281.406 263.24C281.406 259.033 282.758 254.938 285.263 251.559C285.852 250.754 286.495 249.989 287.187 249.27C287.888 248.577 288.637 247.934 289.429 247.346C290.947 246.2 292.634 245.298 294.431 244.673C297.751 243.47 301.333 243.184 304.801 243.845C307.544 244.372 310.142 245.477 312.423 247.087C314.705 248.698 316.616 250.776 318.029 253.184C319.003 254.811 319.717 256.579 320.145 258.426C320.317 259.096 320.442 259.777 320.52 260.465C320.603 260.961 320.644 261.463 320.645 261.965C320.645 262.35 320.645 262.658 320.645 262.927C320.66 263.032 320.66 263.139 320.645 263.244Z" fill="#263238"/>
<path d="M419.819 297.791C419.819 297.935 339.31 298.041 240.002 298.041C140.695 298.041 60.1758 297.926 60.1758 297.791C60.1758 297.656 140.676 297.541 240.002 297.541C339.329 297.541 419.819 297.656 419.819 297.791Z" fill="#263238"/>
<path d="M335.768 183.234V197.372H326.484V224.273V226.543H349.909V183.234H335.768Z" fill="#F0F0F0"/>
<path d="M149.842 197.372V183.234H135.691V224.485H159.126V224.273V197.372H149.842Z" fill="#F0F0F0"/>
<path opacity="0.3" d="M347.951 399.971L129.625 394.998V381.938H347.951V399.971Z" fill="black"/>
<path opacity="0.5" d="M344.513 321.748H135.605V360.681H344.513V321.748Z" fill="black"/>
<path d="M407.726 224.274C407.726 224.408 332.132 224.524 238.895 224.524C145.658 224.524 70.0547 224.408 70.0547 224.274C70.0547 224.139 145.639 224.023 238.895 224.023C332.152 224.023 407.726 224.129 407.726 224.274Z" fill="#263238"/>
<path d="M254.192 298.29C254.047 298.29 253.941 281.786 253.941 261.425C253.941 241.065 254.047 224.57 254.192 224.57C254.336 224.57 254.442 241.065 254.442 261.425C254.442 281.786 254.326 298.29 254.192 298.29Z" fill="#263238"/>
<path d="M117.242 296.666C117.108 296.666 116.992 280.47 116.992 260.484C116.992 240.499 117.108 224.293 117.242 224.293C117.377 224.293 117.492 240.499 117.492 260.484C117.492 280.47 117.367 296.666 117.242 296.666Z" fill="#263238"/>
<path d="M296.826 257.935C296.826 257.935 296.47 258.262 295.941 258.897C295.186 259.84 294.688 260.964 294.498 262.157C294.354 263.03 294.384 263.923 294.585 264.784C294.787 265.645 295.156 266.459 295.672 267.177C296.28 268.023 297.068 268.723 297.981 269.226C299.435 270.009 301.127 270.23 302.734 269.847C304.341 269.464 305.751 268.503 306.696 267.149C307.713 265.693 308.123 263.9 307.841 262.147C307.642 260.959 307.138 259.842 306.379 258.906C305.84 258.233 305.417 257.944 305.484 257.944C305.552 257.944 305.6 257.993 305.782 258.127C306.052 258.333 306.303 258.561 306.533 258.81C307.378 259.745 307.953 260.892 308.197 262.128C308.372 263.051 308.364 263.998 308.172 264.918C307.981 265.837 307.61 266.709 307.081 267.485C306.081 268.947 304.575 269.986 302.853 270.402C301.131 270.818 299.316 270.58 297.759 269.736C296.787 269.19 295.949 268.434 295.306 267.524C294.768 266.752 294.388 265.881 294.19 264.961C293.992 264.041 293.979 263.091 294.152 262.167C294.388 260.932 294.957 259.784 295.797 258.848C296.024 258.598 296.272 258.366 296.538 258.156C296.72 257.983 296.817 257.916 296.826 257.935Z" fill="#FAFAFA"/>
<path d="M301.164 254.029C301.498 257.84 301.498 261.673 301.164 265.484C300.831 261.673 300.831 257.84 301.164 254.029Z" fill="#FAFAFA"/>
<path d="M217.597 246.836H153.835C152.884 246.836 152.113 247.607 152.113 248.558V279.44C152.113 280.391 152.884 281.162 153.835 281.162H217.597C218.548 281.162 219.319 280.391 219.319 279.44V248.558C219.319 247.607 218.548 246.836 217.597 246.836Z" fill="white"/>
<path d="M184.203 255.801L183.308 254.906L182.395 255.82V263.206L183.357 264.168L184.261 263.264L184.203 255.801Z" fill="#263238"/>
<path d="M184.203 265.369L183.308 264.475L182.395 265.388V272.775L183.357 273.736L184.261 272.832L184.203 265.369Z" fill="#263238"/>
<path d="M193.846 265.369L192.941 264.475L192.027 265.388V272.775L192.989 273.736L193.894 272.832L193.846 265.369Z" fill="#263238"/>
<path d="M193.9 255.801L193.006 254.906L192.082 255.82V263.206L193.044 264.168L193.958 263.264L193.9 255.801Z" fill="#263238"/>
<path d="M184.348 253.839L183.453 254.733L184.367 255.647H191.755L192.717 254.685L191.813 253.781L184.348 253.839Z" fill="#263238"/>
<path d="M184.348 273.044L183.453 273.938L184.367 274.852H191.755L192.717 273.89L191.813 272.986L184.348 273.044Z" fill="#263238"/>
<path d="M184.348 263.456L183.453 264.351L184.367 265.264H191.755L192.717 264.303L191.813 263.398L184.348 263.456Z" fill="#E0E0E0"/>
<path d="M201.586 255.646L200.691 254.752L199.777 255.666V263.052L200.739 264.014L201.644 263.11L201.586 255.646Z" fill="#E0E0E0"/>
<path d="M201.586 265.217L200.691 264.322L199.777 265.236V272.622L200.739 273.584L201.644 272.68L201.586 265.217Z" fill="#263238"/>
<path d="M211.219 265.217L210.324 264.322L209.41 265.236V272.622L210.372 273.584L211.276 272.68L211.219 265.217Z" fill="#E0E0E0"/>
<path d="M211.283 255.646L210.388 254.752L209.465 255.666V263.052L210.427 264.014L211.341 263.11L211.283 255.646Z" fill="#263238"/>
<path d="M201.731 253.685L200.836 254.579L201.75 255.493H209.138L210.1 254.531L209.196 253.627L201.731 253.685Z" fill="#263238"/>
<path d="M201.731 272.89L200.836 273.784L201.75 274.698H209.138L210.1 273.736L209.196 272.832L201.731 272.89Z" fill="#263238"/>
<path d="M201.731 263.292L200.836 264.196L201.75 265.11H209.138L210.1 264.148L209.196 263.244L201.731 263.292Z" fill="#263238"/>
<path d="M219.754 283.846C219.754 283.846 219.946 283.846 220.302 283.76C220.771 283.652 221.201 283.415 221.541 283.075C221.881 282.734 222.119 282.305 222.226 281.836C222.296 281.355 222.315 280.869 222.284 280.384C222.284 279.307 222.284 278.085 222.284 276.7C222.284 271.141 222.284 263.139 222.207 253.252C222.207 252.021 222.207 250.752 222.207 249.453V247.53C222.242 246.901 222.032 246.284 221.62 245.808C221.416 245.567 221.165 245.369 220.882 245.229C220.599 245.088 220.291 245.007 219.975 244.991H213.568H194.982H152.395C151.968 244.994 151.55 245.113 151.186 245.335C150.822 245.557 150.525 245.873 150.326 246.251C150.128 246.636 150.038 247.068 150.067 247.501V254.454C150.067 258.138 150.067 261.754 150.067 265.322C150.067 268.891 150.067 272.382 150.067 275.806V280.884C150.022 281.268 150.067 281.658 150.199 282.022C150.331 282.386 150.546 282.714 150.826 282.981C151.099 283.233 151.429 283.415 151.788 283.51C152.17 283.593 152.562 283.623 152.953 283.596L187.729 283.654L211.182 283.731L217.551 283.779H219.215H219.783H219.215H217.551H211.182L187.729 283.865L152.962 284.077C152.53 284.106 152.096 284.073 151.673 283.981C151.236 283.863 150.833 283.642 150.499 283.336C150.163 283.032 149.901 282.654 149.734 282.232C149.567 281.81 149.5 281.355 149.537 280.903V275.806C149.537 272.382 149.537 268.881 149.537 265.322V247.52C149.511 247.008 149.617 246.498 149.845 246.039C150.089 245.581 150.452 245.197 150.895 244.928C151.339 244.659 151.847 244.515 152.366 244.51H194.953H213.539H217.83C218.542 244.51 219.215 244.51 219.927 244.51C220.296 244.534 220.656 244.631 220.986 244.796C221.317 244.962 221.611 245.191 221.851 245.472C222.318 246.023 222.556 246.732 222.515 247.453V249.376C222.515 250.675 222.515 251.944 222.515 253.175C222.515 263.062 222.457 271.064 222.438 276.623C222.438 278.008 222.438 279.23 222.438 280.307C222.464 280.802 222.435 281.299 222.351 281.788C222.255 282.195 222.06 282.571 221.784 282.884C221.408 283.308 220.905 283.598 220.35 283.712C220.16 283.788 219.958 283.833 219.754 283.846Z" fill="#263238"/>
<path d="M420.87 321.75C420.87 321.885 340.235 322 240.793 322C141.351 322 60.6875 321.885 60.6875 321.75C60.6875 321.615 141.313 321.5 240.793 321.5C340.274 321.5 420.87 321.615 420.87 321.75Z" fill="#263238"/>
<path d="M350.947 381.938H123.098V390.959H350.947V381.938Z" fill="#7A7A7A"/>
<path d="M350.948 390.948C350.948 390.948 350.948 390.226 350.948 388.745C350.948 387.264 350.948 385.014 350.948 381.936L351.006 381.994L123.166 382.186L123.416 381.936V390.948L123.166 390.698L284.541 390.803L333.18 390.88H346.398H349.832H351.015C351.015 390.88 350.64 390.88 349.871 390.88H346.465H333.305L284.724 390.957L123.137 391.217H122.887V381.705H123.137L350.977 381.888H351.044V381.955C351.044 385.052 351.044 387.312 351.044 388.803C351.044 390.294 350.948 390.948 350.948 390.948Z" fill="#263238"/>
<path d="M129.625 381.677V374.012H136.167L129.625 369.818V360.682H344.507V371.309L339.822 373.569L344.507 373.627V381.841L129.625 381.677Z" fill="white"/>
<path d="M129.625 360.682V369.818L135.916 373.848H129.625V381.677H145.2V360.682H129.625Z" fill="#E0E0E0"/>
<path d="M339.818 373.569C339.818 373.714 296.249 373.906 242.511 374.002C188.774 374.098 145.195 374.06 145.195 373.925C145.195 373.79 188.755 373.598 242.511 373.502C296.268 373.406 339.818 373.435 339.818 373.569Z" fill="#EBEBEB"/>
<path d="M339.818 368.233C339.818 368.367 296.249 368.56 242.511 368.666C188.774 368.771 145.195 368.723 145.195 368.589C145.195 368.454 188.755 368.262 242.511 368.156C296.268 368.05 339.818 368.137 339.818 368.233Z" fill="#EBEBEB"/>
<path d="M465.608 399.971C465.608 400.105 364.598 400.221 239.99 400.221C115.382 400.221 14.4297 400.105 14.4297 399.971C14.4297 399.836 115.44 399.721 240.057 399.721C364.675 399.721 465.608 399.875 465.608 399.971Z" fill="#263238"/>
<g opacity="0.3">
<path d="M94.5423 224.293L80.3432 224.495L82.3345 289.087L70.8867 317.71C82.0844 317.998 96.2931 309.823 98.0055 298.753C98.7751 293.752 97.8997 288.664 97.3802 283.625C96.4182 274.103 96.6491 264.495 96.9184 254.925C97.1012 248.347 97.3225 241.576 99.9872 235.555C102.652 229.535 108.366 224.37 114.946 224.428L94.5423 224.293Z" fill="black"/>
</g>
<path d="M85.1719 266.968L86.8361 304.093L102.469 302.967L105.97 264.016L85.1719 266.968Z" fill="#FFBE9D"/>
<path d="M103.015 296.138C103.015 296.138 92.0101 303.948 86.6614 297.186L85.2665 300.466L79.0135 323.789C78.7983 324.521 78.8585 325.307 79.1828 325.998C79.5071 326.689 80.0731 327.237 80.774 327.54C81.309 327.756 81.8952 327.813 82.4619 327.704C83.0286 327.595 83.5516 327.324 83.9678 326.924C88.4988 322.625 105.064 306.727 104.901 304.554L104.843 298.783C104.841 298.201 104.662 297.633 104.331 297.154C103.999 296.675 103.531 296.307 102.987 296.1L103.015 296.138Z" fill="#455A64"/>
<path d="M81.3438 327.742L104.942 302.602V303.852C105.057 305.208 104.461 305.775 103.816 306.622C101.892 309.19 96.6203 314.951 84.0951 326.973C83.7356 327.318 83.2962 327.569 82.8161 327.703C82.3361 327.838 81.8302 327.851 81.3438 327.742Z" fill="#263238"/>
<path d="M101.49 298.83C101.126 299.095 100.873 299.485 100.779 299.925C100.685 300.366 100.756 300.825 100.98 301.216C101.23 301.589 101.614 301.853 102.053 301.951C102.491 302.05 102.951 301.976 103.337 301.744C103.723 301.464 103.992 301.049 104.09 300.582C104.187 300.114 104.108 299.627 103.866 299.215C103.565 298.85 103.133 298.616 102.662 298.564C102.192 298.512 101.719 298.645 101.346 298.936" fill="#263238"/>
<path d="M88.1435 314.823C87.98 314.9 87.3162 313.352 85.5654 312.515C83.8145 311.678 82.1984 312.025 82.1695 311.852C82.1407 311.678 82.5158 311.544 83.2085 311.448C84.1181 311.353 85.0358 311.52 85.854 311.928C86.6584 312.335 87.3269 312.966 87.778 313.746C88.1724 314.362 88.2205 314.795 88.1435 314.823Z" fill="#263238"/>
<path d="M86.0273 318.769C85.883 318.894 84.9402 317.932 83.4106 317.489C81.8811 317.047 80.5727 317.288 80.5246 317.105C80.4765 316.922 81.8714 316.335 83.603 316.864C85.3346 317.393 86.1812 318.692 86.0273 318.769Z" fill="#263238"/>
<path d="M92.0806 309.766C91.9459 309.91 90.5029 308.419 88.2326 307.515C85.9623 306.611 83.8651 306.678 83.8555 306.476C83.8459 306.274 86.0104 305.918 88.4731 306.919C90.9358 307.919 92.2249 309.689 92.0806 309.766Z" fill="#263238"/>
<path d="M92.6101 302.668C92.5331 302.841 90.8977 302.158 88.7621 302.071C86.6264 301.985 84.9141 302.485 84.9141 302.302C84.9141 302.12 86.5398 301.34 88.8198 301.417C91.0997 301.494 92.7063 302.523 92.6101 302.668Z" fill="#263238"/>
<path d="M87.5402 302.004C87.5122 301.628 87.568 301.25 87.7038 300.898C87.9888 299.909 88.4697 298.986 89.1179 298.186C89.5367 297.556 90.1524 297.083 90.8687 296.84C91.1124 296.784 91.367 296.804 91.599 296.897C91.831 296.99 92.0292 297.151 92.1674 297.359C92.4067 297.782 92.482 298.278 92.3791 298.753C92.1305 299.717 91.5536 300.564 90.7476 301.149C89.9417 301.734 88.9572 302.019 87.9635 301.956C86.9918 301.866 86.0685 301.491 85.3088 300.878C84.5491 300.266 83.9868 299.443 83.6922 298.513C83.6178 298.277 83.5957 298.027 83.6272 297.781C83.6588 297.535 83.7433 297.3 83.875 297.09C84.0309 296.892 84.2442 296.748 84.4855 296.678C84.7268 296.607 84.9841 296.613 85.2218 296.695C85.9056 296.987 86.4998 297.455 86.9438 298.051C87.6166 298.826 88.1445 299.715 88.5022 300.677C88.6672 301.016 88.7559 301.387 88.762 301.764C88.2097 300.525 87.4734 299.378 86.5782 298.359C86.1677 297.856 85.6389 297.463 85.039 297.215C84.9108 297.165 84.7697 297.158 84.6376 297.196C84.5054 297.235 84.3895 297.315 84.3079 297.426C84.2298 297.573 84.1834 297.734 84.1718 297.9C84.1602 298.066 84.1836 298.232 84.2406 298.388C84.5237 299.188 85.0302 299.891 85.7002 300.412C86.3702 300.934 87.1757 301.253 88.0212 301.331C88.8599 301.38 89.6904 301.143 90.3771 300.659C91.0638 300.175 91.5661 299.473 91.8019 298.667C91.8784 298.344 91.841 298.004 91.6961 297.705C91.6233 297.587 91.5156 297.495 91.3879 297.442C91.2603 297.389 91.1191 297.376 90.9842 297.407C90.3801 297.604 89.85 297.979 89.4642 298.484C88.6204 299.535 87.9691 300.727 87.5402 302.004Z" fill="#263238"/>
<path d="M52.6949 234.172L33.5703 270.469L48.8373 279.616L73.5318 244.838L52.6949 234.172Z" fill="#FFBE9D"/>
<path d="M35.9572 265.611L35.3319 266.621C35.3319 266.621 14.014 262.985 11.8398 266.12L45.9043 286.789L52.3208 275.18C49.0664 274.851 45.9208 273.827 43.0974 272.176C40.274 270.524 37.8389 268.286 35.9572 265.611Z" fill="#455A64"/>
<path d="M46.6724 276.71C46.9388 277.009 47.0859 277.396 47.0859 277.797C47.0859 278.197 46.9388 278.584 46.6724 278.884C46.3812 279.159 45.9957 279.312 45.5949 279.312C45.1942 279.312 44.8086 279.159 44.5175 278.884C44.2322 278.569 44.0742 278.159 44.0742 277.734C44.0742 277.309 44.2322 276.9 44.5175 276.585C44.8494 276.329 45.2672 276.21 45.6843 276.253C46.1015 276.296 46.4862 276.497 46.7589 276.816" fill="#263238"/>
<path d="M45.9043 286.789L47.4531 283.999L14.2352 265.226C14.2352 265.226 12.3112 264.966 11.8398 266.139L45.9043 286.789Z" fill="#263238"/>
<path d="M35.1565 266.641C35.0603 266.814 35.8491 267.391 36.3397 268.42C36.8304 269.449 36.8496 270.421 37.042 270.45C37.2344 270.479 37.5711 269.363 36.9458 268.122C36.3205 266.882 35.2142 266.468 35.1565 266.641Z" fill="#263238"/>
<path d="M30.6852 265.947C30.5505 266.091 31.0988 266.803 31.2431 267.871C31.3874 268.938 31.0892 269.794 31.2431 269.852C31.397 269.91 32.0897 269.073 31.8877 267.775C31.6856 266.476 30.7814 265.793 30.6852 265.947Z" fill="#263238"/>
<path d="M26.0577 268.997C26.1924 269.122 26.9235 268.429 27.0197 267.266C27.1159 266.102 26.5868 265.255 26.4329 265.342C26.2789 265.429 26.4329 266.217 26.3463 267.179C26.2597 268.141 25.9038 268.881 26.0577 268.997Z" fill="#263238"/>
<path d="M143.067 182.013C143.067 182.013 154.217 197.402 152.379 211.607C150.984 222.446 148.339 224.293 148.339 224.293H114.149L106.848 178.426L117.43 179.253L143.067 182.013Z" fill="#263238"/>
<path d="M89.3005 202.712L89.0792 202.847C86.647 204.313 84.6561 206.409 83.3167 208.912C81.9773 211.416 81.3392 214.235 81.4698 217.072L85.5295 275.057L105.299 275.653L108.925 224.679L119.094 224.102L102.23 204.636C100.637 202.858 98.4732 201.693 96.1123 201.342C93.7513 200.991 91.3418 201.475 89.3005 202.712Z" fill="#263238"/>
<path d="M43.2266 251.763L75.7518 184.439C75.7518 184.439 80.3117 177.707 86.709 178.043C93.1063 178.38 132.972 191.172 132.972 191.172V223.728L118.965 223.42L87.315 220.381L75.2612 243.251L61.1198 263.449L43.2266 251.763Z" fill="#263238"/>
<path d="M140.606 195.546C140.449 195.519 140.297 195.471 140.154 195.402L138.884 194.892L134.228 192.968C130.293 191.381 124.829 189.256 118.72 187.13C112.611 185.005 107.003 183.283 102.934 182.072L98.1237 180.677L96.8154 180.283C96.6581 180.248 96.5061 180.193 96.3633 180.119C96.5227 180.127 96.6808 180.153 96.8347 180.196L98.1622 180.513C99.3166 180.783 100.981 181.216 103.03 181.783C107.128 182.899 112.756 184.591 118.884 186.717C125.012 188.842 130.428 191.026 134.362 192.689C136.286 193.517 137.893 194.219 138.97 194.719L140.202 195.296C140.344 195.365 140.48 195.449 140.606 195.546Z" fill="#455A64"/>
<path d="M141.563 188.563C140.574 188.589 139.584 188.551 138.6 188.447C136.772 188.332 134.252 188.207 131.452 188.14L124.295 187.995C123.305 188.016 122.315 187.965 121.332 187.841C121.59 187.776 121.855 187.747 122.121 187.755L124.295 187.688C126.132 187.688 128.662 187.688 131.462 187.688C134.261 187.688 136.801 187.938 138.629 188.12C139.543 188.216 140.274 188.303 140.784 188.38C141.051 188.402 141.314 188.464 141.563 188.563Z" fill="#455A64"/>
<path d="M98.2163 200.787C97.3505 200.594 96.4675 200.487 95.5805 200.47C93.1572 200.498 90.8031 201.281 88.8465 202.711C85.9791 204.9 83.9433 208.001 83.0745 211.501C81.9393 215.349 81.9585 219.927 82.3145 224.601C83.0167 233.968 83.6516 242.442 84.123 248.645C84.325 251.675 84.4886 254.156 84.6137 255.935C84.6137 256.753 84.6906 257.416 84.7195 257.916C84.7447 258.147 84.7447 258.379 84.7195 258.609C84.67 258.384 84.6379 258.156 84.6233 257.926C84.5656 257.426 84.4982 256.772 84.4213 255.945C84.2577 254.175 84.0365 251.703 83.7671 248.674C83.2669 242.47 82.5742 233.997 81.8431 224.63C81.4872 219.946 81.4775 215.349 82.6608 211.376C83.5646 207.792 85.6781 204.629 88.6444 202.422C90.6697 200.981 93.1047 200.229 95.5901 200.278C96.259 200.296 96.9237 200.39 97.5718 200.556C97.7943 200.61 98.0104 200.687 98.2163 200.787Z" fill="#455A64"/>
<path d="M130.933 224.052C130.786 224.052 130.641 224.033 130.5 223.994C130.211 223.936 129.797 223.859 129.268 223.715C127.776 223.332 126.31 222.85 124.882 222.272C120.183 220.318 115.802 217.673 111.885 214.424C107.981 211.171 104.322 207.635 100.937 203.845C99.6194 202.412 98.5805 201.229 97.8686 200.411C97.4802 199.999 97.1233 199.559 96.8008 199.094C97.2346 199.456 97.6399 199.852 98.0129 200.277L101.197 203.672C104.646 207.363 108.321 210.835 112.202 214.068C116.101 217.277 120.426 219.928 125.055 221.945C126.459 222.55 127.894 223.08 129.355 223.532C129.891 223.673 130.418 223.846 130.933 224.052Z" fill="#455A64"/>
<path d="M109.021 215.129C109.156 215.129 108.905 221.496 108.453 229.325C108.001 237.153 107.491 243.492 107.385 243.492C107.28 243.492 107.501 237.125 107.953 229.296C108.405 221.467 108.877 215.119 109.021 215.129Z" fill="#455A64"/>
<path d="M108.024 106.294C108.168 105.894 108.223 105.468 108.187 105.044C108.14 104.553 107.989 104.078 107.745 103.649C107.373 103.093 106.945 102.577 106.465 102.11C105.855 101.53 105.339 100.859 104.936 100.12C104.486 99.2532 104.218 98.3041 104.147 97.3305C104.061 96.2519 104.229 95.1681 104.638 94.1663C105.078 93.1229 105.613 92.1218 106.235 91.1752C106.832 90.25 107.329 89.2633 107.716 88.2322C108.054 87.2825 108.131 86.2593 107.937 85.2699C107.533 83.3464 106.504 81.8364 106.013 80.3841C105.542 79.251 105.451 77.9956 105.754 76.8063C105.846 76.4862 105.985 76.1815 106.167 75.9023C106.225 75.8032 106.3 75.7153 106.388 75.6426C106.21 76.0355 106.059 76.4404 105.936 76.8544C105.723 78.004 105.864 79.1913 106.34 80.2591C106.85 81.6536 107.918 83.1444 108.38 85.1737C108.606 86.2436 108.533 87.3551 108.168 88.386C107.773 89.454 107.263 90.4762 106.648 91.4348C106.044 92.35 105.519 93.3153 105.08 94.3202C104.699 95.2557 104.532 96.2644 104.59 97.2728C104.651 98.1864 104.893 99.0789 105.301 99.8984C105.673 100.607 106.15 101.256 106.716 101.822C107.196 102.318 107.618 102.867 107.976 103.457C108.233 103.922 108.388 104.437 108.428 104.967C108.442 105.296 108.383 105.625 108.255 105.929C108.12 106.217 108.034 106.304 108.024 106.294Z" fill="#263238"/>
<path d="M134.676 98.7048C134.981 99.5332 135.521 100.255 136.23 100.781C136.939 101.307 137.787 101.615 138.668 101.667C139.552 101.695 140.429 101.508 141.225 101.123C142.021 100.737 142.711 100.165 143.238 99.455C144.275 98.0116 144.716 96.2237 144.469 94.4634C144.299 93.6902 144.241 92.8967 144.296 92.1071C144.488 90.9914 145.354 90.1162 145.7 89.039C146.306 87.1155 144.988 84.9419 143.161 84.0474C141.262 83.2726 139.16 83.1541 137.187 83.7108" fill="#263238"/>
<path d="M107.405 74.3437C105.481 76.0556 106.058 78.4793 106.809 80.1143C107.559 81.7493 108.473 83.4709 108.396 85.2886C108.319 87.1064 107.194 88.7799 106.578 90.5399C105.81 92.7841 105.864 95.2281 106.732 97.4358C107.386 99.0804 108.463 100.523 109.127 102.168C109.791 103.812 109.955 105.832 108.848 107.217C109.337 107.142 109.802 106.953 110.204 106.665C110.607 106.378 110.936 106 111.167 105.563C111.627 104.671 111.864 103.681 111.859 102.677C111.984 98.9265 110.397 95.1949 111.061 91.5017C111.436 89.3569 112.571 87.3372 112.552 85.154C112.533 82.9708 111.359 80.9799 110.541 78.9506C109.724 76.9212 109.32 74.4206 110.657 72.6895" fill="#263238"/>
<path d="M112.243 67.4957C111.124 67.5375 110.03 67.8381 109.047 68.3737C108.064 68.9094 107.219 69.6656 106.577 70.583C105.975 71.5244 105.724 72.648 105.868 73.7562C106.012 74.8644 106.543 75.8862 107.366 76.6422C109.02 77.9502 111.483 77.6905 113.311 76.6422C114.695 75.9026 115.779 74.7062 116.38 73.2567C116.669 72.534 116.781 71.7524 116.705 70.9775C116.63 70.2027 116.37 69.4572 115.947 68.8037C115.502 68.1638 114.871 67.6763 114.14 67.4079C113.408 67.1394 112.611 67.1029 111.858 67.3034" fill="#263238"/>
<path d="M110.445 67.1691C111.058 65.8704 111.946 64.7204 113.047 63.7987C114.148 62.877 115.437 62.2057 116.823 61.8313C119.611 61.1049 122.54 61.1248 125.318 61.889C128.078 62.6604 130.766 63.6708 133.351 64.909C135.305 65.6485 137.118 66.7189 138.709 68.0732C140.163 69.5508 141.216 71.3747 141.768 73.3725C142.894 77.085 142.807 79.7394 141.037 83.1922C140.267 84.6926 140.729 86.4526 140.027 88.001C139.325 89.5495 136.39 91.2422 137.189 92.7233" fill="#263238"/>
<path d="M133.043 70.2655C133.785 70.3447 134.469 70.6987 134.963 71.2577C135.456 71.8167 135.722 72.5402 135.708 73.2854L133.928 113.526C133.851 118.277 126.906 120.951 121.817 120.826C116.68 120.71 116.516 118.19 116.449 113.67C116.343 106.111 116.352 103.283 116.352 103.322C116.352 103.36 109.859 102.235 108.531 93.7615C107.868 89.5394 108.099 82.6339 108.464 76.9883C108.801 71.9101 112.177 65.6875 117.238 66.2261L133.043 70.2655Z" fill="#FFBE9D"/>
<path d="M110.367 82.78C110.364 83.0618 110.471 83.3336 110.665 83.5382C110.859 83.7427 111.125 83.864 111.406 83.8765C111.683 83.8977 111.957 83.8084 112.168 83.6281C112.379 83.4478 112.51 83.1913 112.532 82.9147C112.532 82.632 112.423 82.3602 112.228 82.1559C112.032 81.9516 111.766 81.8307 111.483 81.8183C111.346 81.8065 111.209 81.8221 111.078 81.8643C110.947 81.9066 110.826 81.9745 110.723 82.0641C110.619 82.1537 110.534 82.2632 110.473 82.3862C110.412 82.5091 110.376 82.643 110.367 82.78Z" fill="#263238"/>
<path d="M109.955 80.0373C110.09 80.1816 110.917 79.5757 112.081 79.5757C113.245 79.5757 114.111 80.172 114.236 80.0277C114.361 79.8834 114.159 79.7103 113.793 79.441C113.286 79.0861 112.681 78.8979 112.062 78.9024C111.455 78.8995 110.862 79.0879 110.369 79.441C110.013 79.7199 109.888 79.9796 109.955 80.0373Z" fill="#263238"/>
<path d="M121.43 82.7801C121.427 83.0634 121.535 83.3366 121.731 83.5414C121.927 83.7462 122.195 83.8665 122.478 83.8765C122.615 83.887 122.752 83.8704 122.882 83.8276C123.012 83.7849 123.133 83.7169 123.236 83.6275C123.34 83.5382 123.425 83.4292 123.486 83.3068C123.548 83.1845 123.584 83.0512 123.594 82.9147C123.599 82.6322 123.493 82.359 123.299 82.154C123.105 81.9489 122.838 81.8283 122.555 81.8183C122.418 81.8065 122.28 81.8221 122.149 81.8642C122.017 81.9063 121.896 81.9741 121.791 82.0636C121.686 82.1531 121.6 82.2625 121.538 82.3855C121.476 82.5085 121.439 82.6426 121.43 82.7801Z" fill="#263238"/>
<path d="M121.451 80.8359C121.586 80.9706 122.413 80.3647 123.577 80.3743C124.741 80.3839 125.607 80.961 125.732 80.8263C125.857 80.6917 125.655 80.4993 125.28 80.23C124.775 79.8776 124.174 79.6895 123.558 79.6914C122.95 79.6913 122.357 79.8831 121.865 80.2396C121.509 80.5089 121.384 80.7686 121.451 80.8359Z" fill="#263238"/>
<path d="M117.189 89.4927C116.565 89.2976 115.918 89.1813 115.265 89.1465C114.967 89.1465 114.688 89.0503 114.64 88.8483C114.613 88.5395 114.684 88.2301 114.842 87.9635L115.727 85.6937C116.553 83.7707 117.219 81.7827 117.718 79.75C116.749 81.6068 115.926 83.5361 115.256 85.5206C114.957 86.3189 114.669 87.0787 114.399 87.8096C114.21 88.1665 114.155 88.5796 114.245 88.9734C114.287 89.08 114.354 89.1755 114.439 89.2523C114.524 89.3291 114.626 89.385 114.736 89.4158C114.903 89.4593 115.074 89.482 115.246 89.4831C115.891 89.5693 116.544 89.5726 117.189 89.4927Z" fill="#263238"/>
<path d="M116.402 103.323C120.391 103.395 124.322 102.356 127.754 100.322C127.754 100.322 124.868 106.141 116.402 105.333V103.323Z" fill="#EB996E"/>
<path d="M120.931 77.4129C121.047 77.7302 122.221 77.5764 123.587 77.7495C124.953 77.9226 126.069 78.2977 126.251 78.0092C126.338 77.8745 126.145 77.5764 125.693 77.2686C125.115 76.8886 124.456 76.6483 123.769 76.5665C123.067 76.4835 122.356 76.5659 121.691 76.8069C121.143 77.0089 120.883 77.259 120.931 77.4129Z" fill="#263238"/>
<path d="M110.396 77.2104C110.598 77.4701 111.358 77.2104 112.32 77.2104C113.282 77.2104 114.11 77.3931 114.302 77.1142C114.389 76.9796 114.254 76.7103 113.898 76.4602C113.417 76.1606 112.859 76.0091 112.293 76.0245C111.727 76.0399 111.178 76.2215 110.714 76.5468C110.416 76.8065 110.3 77.0757 110.396 77.2104Z" fill="#263238"/>
<path d="M117.68 92.1853C117.884 91.9211 118.154 91.7147 118.463 91.5865C118.772 91.4584 119.108 91.4128 119.44 91.4544C119.682 91.4766 119.916 91.5477 120.13 91.6634C120.343 91.7792 120.531 91.9371 120.681 92.1276C120.827 92.309 120.913 92.5309 120.929 92.7632C120.944 92.9954 120.888 93.2268 120.768 93.426C120.591 93.6206 120.36 93.7582 120.105 93.8216C119.85 93.885 119.582 93.8711 119.334 93.7819C118.82 93.5953 118.346 93.3112 117.939 92.9451C117.818 92.8556 117.714 92.7448 117.632 92.6181C117.594 92.5574 117.574 92.4875 117.574 92.4162C117.574 92.3448 117.594 92.2749 117.632 92.2142" fill="#EB996E"/>
<path d="M120.428 90.3086C120.255 90.3086 120.245 91.4819 119.235 92.3187C118.225 93.1554 116.955 93.0304 116.946 93.1939C116.936 93.3574 117.234 93.4247 117.763 93.444C118.463 93.4568 119.144 93.2217 119.687 92.7803C120.212 92.3632 120.556 91.7607 120.649 91.0972C120.64 90.5971 120.515 90.3086 120.428 90.3086Z" fill="#263238"/>
<path d="M110.176 69.431C110.58 72.1047 114.822 72.5472 117.478 72.0278C118.367 73.1677 119.53 74.0649 120.858 74.6365C122.187 75.2081 123.638 75.4355 125.077 75.2978C125.459 75.2013 125.859 75.2013 126.241 75.2978C126.598 75.5095 126.895 75.8071 127.107 76.1634C128.232 77.6631 129.874 78.6914 131.715 79.0487C131.923 80.3867 132.524 81.6326 133.442 82.6277C134.36 83.6229 135.554 84.3222 136.871 84.6366C136.871 84.6366 137.747 84.2038 137.439 80.7895C137.131 77.3752 137.506 70.2101 137.506 70.2101L128.233 65.9975L117.141 63.9297C117.141 63.9297 109.493 64.8915 110.176 69.431Z" fill="#263238"/>
<path d="M140.881 83.5772C140.796 82.763 140.602 81.9639 140.303 81.2016C139.877 80.2173 139.196 79.3644 138.33 78.7305C137.464 78.0966 136.445 77.7047 135.378 77.595H135.224V77.4411C134.891 75.9697 134.127 74.6306 133.031 73.594C132.414 73.0295 131.647 72.6555 130.823 72.5172C129.998 72.379 129.151 72.4824 128.384 72.815L128.134 72.94L128.038 72.6611L127.922 72.3533C127.488 71.2168 126.75 70.2217 125.788 69.4769C124.826 68.7322 123.677 68.2666 122.468 68.1312C121.925 68.0686 121.376 68.0686 120.833 68.1312C120.276 68.2354 119.703 68.2091 119.159 68.0542C118.662 67.8495 118.227 67.5179 117.898 67.0925C117.617 66.7351 117.294 66.4122 116.936 66.1307C116.386 65.738 115.757 65.4686 115.093 65.3408C114.429 65.213 113.745 65.2298 113.088 65.3901C112.61 65.5312 112.146 65.7181 111.703 65.948C111.703 65.948 111.79 65.8422 112.001 65.6883C112.322 65.4782 112.672 65.3162 113.04 65.2074C113.726 65.0024 114.449 64.953 115.156 65.0628C115.864 65.1726 116.537 65.4389 117.129 65.8422C117.908 66.3423 118.379 67.3233 119.255 67.6214C120.13 67.9196 121.275 67.4483 122.487 67.6214C123.789 67.7569 125.029 68.2513 126.066 69.0494C127.104 69.8475 127.9 70.9181 128.365 72.1418C128.41 72.2482 128.449 72.3574 128.48 72.4688L128.134 72.3245C128.988 71.9522 129.932 71.8359 130.85 71.9895C131.769 72.1432 132.623 72.5603 133.31 73.1901C134.484 74.3016 135.284 75.75 135.599 77.3353L135.416 77.1718C136.702 77.3224 137.91 77.8628 138.88 78.7203C139.616 79.3698 140.184 80.1883 140.534 81.1054C140.759 81.6869 140.889 82.3006 140.919 82.9232C140.942 83.1418 140.929 83.3628 140.881 83.5772Z" fill="#455A64"/>
<path d="M126.24 74.6227C126.024 74.7466 125.785 74.8252 125.537 74.8535C124.879 74.9824 124.205 75.018 123.536 74.9593C122.412 74.867 121.319 74.5434 120.326 74.0088C119.333 73.4743 118.461 72.7402 117.764 71.8528L118.072 71.9297L117.793 72.0548C116.593 72.549 115.272 72.6697 114.003 72.401C112.973 72.1775 112.018 71.6903 111.232 70.9872C110.707 70.5248 110.27 69.9708 109.943 69.3522C109.804 69.1343 109.715 68.8878 109.684 68.6309C110.171 69.4101 110.771 70.1134 111.463 70.7179C112.228 71.3249 113.129 71.7345 114.09 71.9105C115.266 72.1379 116.484 72.0142 117.591 71.5546L117.851 71.4392L118.034 71.3527L118.159 71.5066C119.494 73.1975 121.438 74.2988 123.575 74.5746C124.461 74.6597 125.351 74.6758 126.24 74.6227Z" fill="#455A64"/>
<path d="M121.471 69.6121C121.471 69.7564 120.23 69.6121 118.787 69.9872C117.344 70.3623 116.286 70.949 116.199 70.8143C116.844 70.1019 117.72 69.639 118.672 69.5063C119.588 69.2075 120.58 69.2451 121.471 69.6121Z" fill="#455A64"/>
<path d="M118.267 69.3339C118.151 69.4205 117.718 69.0646 117.17 68.6703C116.622 68.276 116.15 67.9778 116.208 67.8432C116.266 67.7085 116.862 67.8432 117.468 68.2663C118.074 68.6895 118.372 69.257 118.267 69.3339Z" fill="#455A64"/>
<path d="M131.423 74.2571C131.375 74.3918 130.298 74.0455 128.951 74.0936C127.604 74.1417 126.546 74.5264 126.488 74.3918C127.21 73.8947 128.06 73.6174 128.936 73.5935C129.812 73.5696 130.676 73.8001 131.423 74.2571Z" fill="#455A64"/>
<path d="M133.774 78.7982C132.609 78.9622 131.421 78.8025 130.34 78.3366C129.201 78.0292 128.172 77.4095 127.367 76.5477C127.454 76.4227 128.743 77.2594 130.503 77.8653C132.264 78.4712 133.784 78.6444 133.774 78.7982Z" fill="#455A64"/>
<path d="M139.564 82.0376C138.859 81.5681 138.119 81.1534 137.351 80.7969C136.533 80.5866 135.7 80.4419 134.859 80.3641C135.274 80.1618 135.73 80.0566 136.192 80.0566C136.653 80.0566 137.109 80.1618 137.524 80.3641C138.986 80.845 139.679 81.9799 139.564 82.0376Z" fill="#455A64"/>
<path d="M139.39 69.871C139.39 69.871 139.256 69.5825 138.958 69.1304C138.508 68.5098 137.922 68 137.245 67.6397C134.946 66.5168 132.416 65.947 129.857 65.9758C127.287 65.9799 124.728 66.303 122.238 66.9376C120.314 67.4185 119.14 67.784 119.121 67.7166C119.365 67.5572 119.631 67.4341 119.91 67.3512C120.429 67.1492 121.189 66.8799 122.142 66.601C124.636 65.8367 127.229 65.4414 129.838 65.4276C132.479 65.3866 135.086 66.0259 137.409 67.2839C138.114 67.6917 138.698 68.2791 139.102 68.9862C139.287 69.2446 139.387 69.5535 139.39 69.871Z" fill="#455A64"/>
<path d="M140.085 74.4592C139.727 73.6237 139.289 72.8249 138.777 72.074C137.421 70.3504 135.55 69.1039 133.437 68.5155C131.305 67.975 129.095 67.8058 126.905 68.0154C125.99 68.1328 125.068 68.197 124.145 68.2077C125.026 67.915 125.941 67.7309 126.867 67.6595C129.114 67.3406 131.403 67.468 133.601 68.0346C135.817 68.6482 137.754 70.0069 139.084 71.8817C139.476 72.4509 139.778 73.0769 139.979 73.7379C140.06 73.9694 140.096 74.2143 140.085 74.4592Z" fill="#455A64"/>
<path d="M108.348 77.9973C107.71 77.7892 107.159 77.3768 106.78 76.8239C106.254 76.2005 105.887 75.4589 105.71 74.6626C105.533 73.8664 105.552 73.0392 105.765 72.2518C105.977 71.4643 106.378 70.7402 106.931 70.1412C107.485 69.5422 108.176 69.0863 108.944 68.8124C109.545 68.533 110.219 68.4522 110.868 68.5816C110.254 68.727 109.649 68.9134 109.06 69.1394C108.371 69.4284 107.758 69.8707 107.266 70.4327C106.774 70.9947 106.418 71.6615 106.223 72.3822C106.028 73.103 106 73.8587 106.142 74.5917C106.283 75.3248 106.59 76.0159 107.039 76.6123C107.444 77.1032 107.881 77.5659 108.348 77.9973Z" fill="#455A64"/>
<path d="M142.923 91.2991C142.923 91.2221 143.76 90.8182 145.02 89.9718C145.749 89.494 146.366 88.864 146.829 88.1252C147.107 87.6895 147.28 87.1953 147.335 86.6814C147.39 86.1674 147.325 85.6477 147.146 85.163C146.968 84.6733 146.694 84.2238 146.341 83.8408C145.987 83.4577 145.561 83.1487 145.087 82.9317C144.295 82.5879 143.419 82.4809 142.567 82.6239C141.77 82.7956 141 83.0738 140.277 83.451C140.277 83.451 140.422 83.2491 140.778 82.999C141.301 82.652 141.885 82.4073 142.5 82.2777C143.42 82.0726 144.382 82.1463 145.26 82.4893C145.798 82.7226 146.283 83.063 146.685 83.4896C147.086 83.9162 147.397 84.4201 147.598 84.9706C147.801 85.525 147.87 86.1191 147.802 86.7054C147.733 87.2916 147.529 87.8536 147.204 88.3464C146.694 89.1362 146.005 89.7951 145.193 90.27C144.668 90.59 144.118 90.8666 143.548 91.0971C143.354 91.2022 143.142 91.2707 142.923 91.2991Z" fill="#263238"/>
<path d="M143.335 91.3672C143.486 91.5993 143.603 91.852 143.682 92.1174C143.946 92.8223 144.171 93.5415 144.355 94.2717C144.636 95.3639 144.753 96.492 144.701 97.6187C144.643 99.0328 144.168 100.398 143.335 101.543C142.903 102.111 142.358 102.584 141.733 102.932C141.109 103.28 140.42 103.494 139.709 103.562C139.124 103.614 138.536 103.526 137.992 103.305C137.448 103.085 136.965 102.738 136.582 102.293C136.051 101.712 135.741 100.963 135.707 100.177C135.67 99.892 135.724 99.6025 135.861 99.3499C135.861 99.3499 135.861 99.6577 135.861 100.167C136.001 101.043 136.468 101.833 137.168 102.377C137.868 102.921 138.748 103.18 139.632 103.101C140.274 103.026 140.895 102.822 141.457 102.501C142.019 102.181 142.511 101.75 142.902 101.235C143.671 100.167 144.121 98.903 144.201 97.5898C144.27 96.504 144.192 95.4138 143.97 94.3487C143.614 92.5117 143.23 91.396 143.335 91.3672Z" fill="#263238"/>
<path d="M102.525 119.346C102.525 119.346 96.5604 123.097 95.8581 132.416C95.1558 141.736 93.1068 161.202 93.1068 161.202L70.3555 166.761L72.8855 180.408L110.404 169.944L102.525 119.346Z" fill="#349F6E"/>
<path d="M150.25 115.94C148.153 115.045 135.098 112.66 135.098 112.66L134.454 105.678L116.397 107.236L115.772 114.776L102.554 119.344L102.246 133.377L105.411 179.292L142.188 182.562C142.907 182.627 143.631 182.54 144.313 182.306C144.996 182.072 145.621 181.697 146.149 181.205C146.676 180.713 147.094 180.115 147.375 179.451C147.655 178.786 147.793 178.07 147.778 177.349L146.979 136.647C146.979 136.647 152.357 116.844 150.25 115.94Z" fill="#349F6E"/>
<path d="M150.253 115.939C150.253 115.939 157.747 118.825 158.391 130.116C158.805 137.56 161.421 150.265 163.201 158.075C164.163 162.46 163.923 167.385 161.498 171.174C157.987 175.252 153.196 178.801 147.02 179.291H131.484L124.75 168.587L142.614 163.374L146.857 137.618L150.253 115.939Z" fill="#349F6E"/>
<path d="M153.485 169.55C153.381 169.145 153.304 168.734 153.254 168.319C153.053 167.201 152.73 166.107 152.292 165.059C151.657 163.515 150.6 162.182 149.243 161.212C148.447 160.651 147.537 160.273 146.578 160.105C145.535 159.976 144.477 160.028 143.451 160.259C139.771 161.046 136.138 162.041 132.571 163.241L129.329 164.337C128.936 164.489 128.53 164.608 128.117 164.693C128.485 164.487 128.872 164.317 129.272 164.183L132.475 162.952C136.027 161.659 139.666 160.617 143.365 159.836C144.442 159.597 145.552 159.548 146.645 159.692C147.667 159.868 148.634 160.276 149.474 160.884C150.881 161.909 151.958 163.323 152.571 164.953C152.992 166.027 153.27 167.153 153.399 168.3C153.474 168.712 153.503 169.131 153.485 169.55Z" fill="#263238"/>
<path d="M143.403 137.656C143.485 137.928 143.53 138.209 143.538 138.493C143.596 139.032 143.644 139.811 143.702 140.782C143.788 142.821 143.904 145.437 144.038 148.322C144.153 150.832 144.433 153.332 144.875 155.805C145.241 157.728 145.626 158.825 145.549 158.854C145.404 158.609 145.291 158.348 145.212 158.075C145.116 157.825 145.02 157.507 144.914 157.113C144.808 156.719 144.683 156.324 144.577 155.843C144.04 153.372 143.718 150.859 143.615 148.332C143.452 145.379 143.432 142.706 143.403 140.772C143.403 139.878 143.403 139.118 143.403 138.483C143.371 138.209 143.371 137.931 143.403 137.656Z" fill="#263238"/>
<path d="M159.293 173.512C159.04 173.822 158.756 174.105 158.446 174.358C157.621 175.069 156.739 175.713 155.81 176.282C152.706 178.16 149.195 179.262 145.574 179.494C143.588 179.622 141.594 179.473 139.649 179.052C137.84 178.667 136.32 178.022 135.002 177.715C133.947 177.485 132.876 177.337 131.799 177.272C131.398 177.25 131.002 177.169 130.625 177.032C131.024 177.032 131.422 177.055 131.818 177.099C132.909 177.108 133.997 177.214 135.069 177.417C136.435 177.695 137.955 178.311 139.726 178.657C141.638 179.056 143.596 179.192 145.546 179.061C149.103 178.831 152.562 177.792 155.656 176.022C156.912 175.251 158.126 174.413 159.293 173.512Z" fill="#263238"/>
<path d="M105.667 128.127C105.76 128.485 105.802 128.854 105.792 129.223C105.815 130.223 105.76 131.223 105.628 132.214C105.465 133.465 105.176 134.946 104.81 136.562C104.445 138.177 104.05 139.966 103.848 141.851C103.605 143.613 103.65 145.403 103.983 147.151C104.276 148.569 104.859 149.912 105.695 151.094C106.497 152.171 107.521 153.063 108.697 153.71C108.6 153.703 108.505 153.677 108.418 153.633C108.159 153.54 107.909 153.428 107.668 153.296C106.788 152.792 106.019 152.114 105.407 151.306C104.481 150.11 103.825 148.729 103.483 147.257C103.116 145.459 103.054 143.612 103.3 141.794C103.552 140.001 103.899 138.222 104.339 136.465C104.724 134.85 105.051 133.397 105.301 132.157C105.695 129.695 105.58 128.127 105.667 128.127Z" fill="#263238"/>
<path d="M146.673 115.191C146.673 115.268 145.942 115.682 144.903 116.605C143.547 117.801 142.484 119.291 141.796 120.962C141.125 122.634 140.839 124.435 140.959 126.233C141.055 127.617 141.315 128.454 141.228 128.483C140.869 127.797 140.66 127.043 140.612 126.271C140.372 124.406 140.621 122.51 141.334 120.77C142.048 119.03 143.201 117.505 144.682 116.346C145.256 115.824 145.935 115.431 146.673 115.191Z" fill="#263238"/>
<path d="M118.324 115.374C117.944 114.069 117.769 112.713 117.804 111.354C117.671 110.003 117.752 108.64 118.045 107.314C118.257 108.647 118.351 109.995 118.324 111.344C118.45 112.685 118.45 114.034 118.324 115.374Z" fill="#263238"/>
<path d="M123.519 114.757C123.045 113.526 122.772 112.227 122.711 110.91C122.497 109.594 122.497 108.253 122.711 106.938C123.007 108.223 123.184 109.534 123.24 110.852C123.446 112.143 123.539 113.449 123.519 114.757Z" fill="#263238"/>
<path d="M129.107 114.363C128.624 113.028 128.348 111.627 128.289 110.208C128.076 108.802 128.076 107.373 128.289 105.967C128.58 107.344 128.754 108.744 128.808 110.15C129.023 111.544 129.123 112.953 129.107 114.363Z" fill="#263238"/>
<path d="M134.467 151.978C134.467 151.978 134.275 152.142 133.87 152.315C133.304 152.561 132.709 152.739 132.1 152.844C130.063 153.233 127.954 152.963 126.08 152.072C124.207 151.182 122.666 149.717 121.682 147.891C121.381 147.347 121.145 146.769 120.98 146.169C120.896 145.955 120.857 145.726 120.864 145.496C120.951 145.496 121.191 146.41 121.99 147.708C123.006 149.41 124.502 150.774 126.29 151.629C128.079 152.485 130.08 152.794 132.043 152.517C133.553 152.305 134.438 151.901 134.467 151.978Z" fill="#263238"/>
<path d="M141.675 119.768L141.261 119.605L140.097 119.124C138.676 118.519 137.225 117.986 135.749 117.528C133.577 116.831 131.288 116.573 129.015 116.768C126.241 117.171 123.551 118.022 121.05 119.288C118.553 120.561 115.983 121.685 113.354 122.654C111.173 123.432 108.847 123.718 106.543 123.49C104.989 123.328 103.492 122.815 102.166 121.99C101.683 121.687 101.24 121.326 100.848 120.913C100.848 120.913 100.973 121 101.194 121.192C101.511 121.466 101.853 121.71 102.214 121.923C103.539 122.715 105.025 123.201 106.562 123.346C108.843 123.552 111.141 123.256 113.296 122.481C115.926 121.508 118.495 120.381 120.992 119.105C123.511 117.826 126.226 116.974 129.025 116.585C131.329 116.389 133.65 116.663 135.845 117.393C137.323 117.862 138.772 118.417 140.184 119.057L141.338 119.576C141.54 119.691 141.675 119.768 141.675 119.768Z" fill="#FAFAFA"/>
<path d="M157.938 124.809L157.775 124.895L157.303 125.107C156.723 125.359 156.129 125.577 155.524 125.761C153.528 126.396 151.451 126.743 149.357 126.79C147.265 126.833 145.176 126.584 143.152 126.049C142.538 125.893 141.935 125.701 141.344 125.472L140.863 125.28C140.804 125.265 140.748 125.239 140.699 125.203C140.757 125.194 140.815 125.194 140.872 125.203L141.363 125.357C141.786 125.501 142.412 125.684 143.181 125.876C145.203 126.364 147.278 126.59 149.357 126.549C151.433 126.5 153.494 126.177 155.485 125.588C156.255 125.366 156.861 125.155 157.274 124.991L157.765 124.809C157.871 124.809 157.929 124.809 157.938 124.809Z" fill="#FAFAFA"/>
<path d="M158.902 138.205C158.683 138.204 158.464 138.181 158.248 138.137C157.655 138.06 157.057 138.016 156.459 138.003C152.472 137.897 148.571 139.171 145.415 141.609C144.94 141.97 144.487 142.358 144.059 142.773C143.909 142.939 143.742 143.087 143.559 143.215C143.559 143.215 143.713 143.033 144.001 142.725C144.417 142.287 144.86 141.875 145.329 141.494C146.891 140.246 148.663 139.285 150.562 138.657C152.464 138.04 154.461 137.769 156.459 137.858C157.063 137.881 157.664 137.949 158.258 138.06C158.477 138.09 158.692 138.138 158.902 138.205Z" fill="#FAFAFA"/>
<path d="M163.28 161.912C163.279 161.654 163.253 161.396 163.203 161.143C163.005 160.461 162.59 159.864 162.02 159.44C161.179 158.832 160.172 158.496 159.134 158.479C157.951 158.421 156.633 158.565 155.286 158.479C152.915 158.423 150.563 158.048 148.292 157.363C147.607 157.16 146.933 156.923 146.272 156.651L145.734 156.421C145.67 156.398 145.609 156.369 145.551 156.334L145.743 156.382L146.292 156.584C146.773 156.748 147.465 156.988 148.331 157.228C150.597 157.865 152.933 158.218 155.286 158.277C156.662 158.277 157.98 158.181 159.134 158.277C160.22 158.283 161.275 158.637 162.145 159.287C162.727 159.734 163.14 160.364 163.319 161.076C163.37 161.354 163.357 161.64 163.28 161.912Z" fill="#FAFAFA"/>
<path d="M146.897 178.803C146.897 178.803 146.954 178.514 147.051 178.004C147.195 177.275 147.285 176.535 147.32 175.792C147.461 173.345 147.03 170.898 146.06 168.646C145.06 166.411 143.559 164.437 141.673 162.876C141.099 162.404 140.495 161.97 139.865 161.577C139.624 161.448 139.393 161.304 139.172 161.145C140.099 161.576 140.968 162.122 141.76 162.77C143.702 164.308 145.237 166.298 146.231 168.567C147.226 170.835 147.649 173.313 147.464 175.783C147.409 176.81 147.218 177.825 146.897 178.803Z" fill="#FAFAFA"/>
<path d="M142.144 139.1C142.144 139.1 141.933 138.571 141.365 137.734C140.529 136.578 139.418 135.65 138.133 135.032C136.223 134.12 134.119 133.687 132.005 133.772C129.419 133.964 126.877 134.541 124.463 135.484C121.865 136.445 119.412 137.407 117.074 137.975C115.011 138.518 112.871 138.71 110.744 138.542C109.307 138.419 107.908 138.014 106.627 137.349C106.291 137.165 105.97 136.956 105.665 136.724L105.348 136.484C105.348 136.484 105.8 136.82 106.694 137.282C107.974 137.909 109.362 138.288 110.783 138.398C112.896 138.546 115.019 138.341 117.065 137.792C119.374 137.215 121.817 136.215 124.424 135.291C126.857 134.344 129.419 133.77 132.024 133.589C134.166 133.51 136.295 133.963 138.219 134.907C139.521 135.544 140.637 136.504 141.461 137.696C141.678 138.021 141.865 138.365 142.019 138.725C142.096 138.965 142.144 139.1 142.144 139.1Z" fill="#FAFAFA"/>
<path d="M107.927 153.286C107.927 153.286 107.648 153.536 107.244 153.728C106.84 153.92 106.503 154.055 106.475 154.007C106.446 153.959 106.754 153.757 107.158 153.555C107.562 153.353 107.908 153.228 107.927 153.286Z" fill="#FAFAFA"/>
<path d="M130.136 153.371C129.186 153.695 128.194 153.877 127.192 153.91C124.772 153.953 122.354 153.721 119.986 153.217C117.631 152.728 115.215 152.592 112.82 152.813C112.097 152.902 111.384 153.064 110.694 153.294C110.203 153.458 109.943 153.564 109.934 153.554C110.837 153.094 111.813 152.794 112.82 152.669C115.228 152.409 117.663 152.529 120.035 153.025C122.392 153.514 124.793 153.765 127.201 153.775C127.929 153.75 128.652 153.667 129.366 153.525C129.619 153.458 129.876 153.407 130.136 153.371Z" fill="#FAFAFA"/>
<path d="M143.97 152.507C143.97 152.507 143.345 152.219 142.296 151.863C140.924 151.407 139.491 151.157 138.044 151.122C136.599 151.097 135.158 151.295 133.773 151.709C132.715 152.026 132.09 152.325 132.07 152.296C132.204 152.2 132.349 152.122 132.503 152.065C132.9 151.869 133.312 151.705 133.735 151.574C135.127 151.114 136.588 150.892 138.054 150.92C139.529 150.953 140.988 151.229 142.373 151.738C142.788 151.892 143.193 152.072 143.585 152.276C143.722 152.339 143.851 152.416 143.97 152.507Z" fill="#FAFAFA"/>
<path d="M127.108 164.75C127.057 164.795 126.999 164.831 126.935 164.856L126.435 165.106C125.808 165.402 125.166 165.665 124.511 165.895C120.191 167.441 115.519 167.725 111.043 166.712C110.369 166.564 109.705 166.377 109.052 166.154L108.523 165.971L108.34 165.895C108.34 165.895 108.407 165.895 108.532 165.895L109.081 166.048C109.542 166.183 110.225 166.356 111.072 166.539C115.526 167.457 120.144 167.175 124.453 165.721C125.271 165.442 125.925 165.192 126.377 164.99L126.887 164.779L127.108 164.75Z" fill="#FAFAFA"/>
<path d="M105.442 134.291C105.442 134.291 104.942 134.041 104.095 133.753C101.882 133.023 99.4722 133.168 97.3615 134.157C96.5534 134.542 96.1109 134.888 96.082 134.859C96.1762 134.763 96.2793 134.676 96.3899 134.599C96.6749 134.385 96.9774 134.195 97.2942 134.032C98.3522 133.488 99.5119 133.171 100.699 133.099C101.887 133.028 103.076 133.205 104.192 133.618C104.525 133.744 104.847 133.899 105.154 134.08C105.255 134.142 105.352 134.213 105.442 134.291Z" fill="#FAFAFA"/>
<g opacity="0.4">
<path d="M121.352 146.689C120.752 148.128 120.694 149.736 121.189 151.215C121.684 152.693 122.699 153.942 124.045 154.73C125.53 155.586 127.226 156.008 128.939 155.946C130.651 155.885 132.313 155.343 133.732 154.383C134.252 153.999 134.694 153.316 134.29 152.864C133.886 152.412 133.328 152.585 132.799 152.662C130.458 152.985 128.074 152.572 125.979 151.479C123.938 150.462 122.32 148.76 121.409 146.67" fill="black"/>
</g>
<path d="M99.4766 174.705L121.381 174.311L109.174 180.139L99.4766 174.705Z" fill="#263238"/>
<path d="M54.0427 143.159L62.5276 180.236C62.6815 180.909 63.0614 181.509 63.604 181.936C64.1466 182.363 64.8193 182.591 65.5098 182.582L109.329 182.082L121.354 176.167L121.161 174.484L110.724 179.178L104.182 140.582C104.135 139.84 103.813 139.143 103.28 138.626C102.746 138.108 102.039 137.808 101.296 137.783L56.2361 140.274C55.891 140.291 55.5538 140.383 55.2482 140.544C54.9425 140.705 54.6758 140.931 54.4668 141.206C54.2577 141.481 54.1114 141.798 54.0382 142.136C53.9649 142.473 53.9665 142.823 54.0427 143.159Z" fill="#455A64"/>
<path d="M111.203 174.743C112.588 176.666 113.772 175.079 115.369 174.473C116.138 174.184 116.869 173.8 117.543 173.329L117.177 179.003L113.791 181.408C113.791 181.408 113.791 182.937 116.013 183.091C117.066 183.234 118.138 183.155 119.159 182.86L119.274 183.61C119.339 184.021 119.546 184.396 119.859 184.67C120.172 184.944 120.571 185.1 120.987 185.11C121.345 185.137 121.704 185.078 122.035 184.937C122.721 185.295 123.484 185.481 124.257 185.481C125.031 185.481 125.793 185.295 126.48 184.937C127.118 184.586 127.646 184.065 128.006 183.432C128.366 182.798 128.544 182.078 128.519 181.35L131.992 174.406L132.954 174.117C133.533 173.094 133.76 171.909 133.602 170.743C133.444 169.578 132.909 168.497 132.079 167.664C131.293 166.905 130.312 166.379 129.245 166.147C128.178 165.914 127.067 165.983 126.037 166.346L121.439 167.866C120.282 167.741 119.12 168.05 118.178 168.732C117.418 169.289 114.435 171.386 114.435 171.386L111.203 174.743Z" fill="#FFBE9D"/>
<path d="M121.593 177.82C121.661 177.82 121.728 178.186 121.805 178.782C121.942 179.565 121.942 180.365 121.805 181.148C121.714 181.605 121.498 182.028 121.18 182.369C120.917 182.647 120.585 182.849 120.218 182.956C119.573 183.12 119.198 182.85 119.256 182.812C119.314 182.773 119.641 182.879 120.15 182.668C120.476 182.521 120.761 182.298 120.981 182.016C121.201 181.734 121.348 181.403 121.411 181.052C121.533 180.305 121.574 179.547 121.536 178.792C121.507 178.195 121.536 177.83 121.593 177.82Z" fill="#EB996E"/>
<path d="M117.544 173.328C117.695 174.284 117.695 175.258 117.544 176.213C117.551 177.17 117.419 178.123 117.149 179.041C116.997 178.085 116.997 177.111 117.149 176.156C117.139 175.199 117.272 174.246 117.544 173.328Z" fill="#EB996E"/>
<path d="M125.433 179.178C125.589 179.525 125.665 179.903 125.654 180.284C125.76 181.217 125.586 182.161 125.154 182.996C124.653 183.797 123.898 184.407 123.009 184.727C122.667 184.902 122.286 184.985 121.902 184.968C121.902 184.9 122.287 184.756 122.864 184.448C123.65 184.082 124.316 183.502 124.788 182.775C125.173 182.005 125.365 181.154 125.346 180.293C125.319 179.919 125.348 179.543 125.433 179.178Z" fill="#EB996E"/>
<path d="M131.679 176.744C131.977 176.026 132.334 175.335 132.747 174.676C133.12 173.938 133.349 173.135 133.42 172.31C133.529 171.312 133.38 170.303 132.987 169.378C132.595 168.454 131.972 167.645 131.179 167.03C130.525 166.533 129.784 166.161 128.995 165.934C128.243 165.763 127.482 165.641 126.715 165.568C126.915 165.497 127.128 165.465 127.34 165.472C127.922 165.449 128.504 165.504 129.072 165.636C129.917 165.838 130.714 166.204 131.419 166.713C132.272 167.36 132.936 168.223 133.343 169.213C133.763 170.205 133.912 171.29 133.776 172.358C133.68 173.222 133.409 174.057 132.977 174.811C132.69 175.313 132.369 175.795 132.015 176.253C131.925 176.431 131.812 176.596 131.679 176.744Z" fill="#263238"/>
<path d="M82.4215 160.017C82.4215 160.504 82.2771 160.98 82.0065 161.385C81.7359 161.79 81.3513 162.105 80.9013 162.292C80.4513 162.478 79.9561 162.527 79.4784 162.432C79.0006 162.337 78.5618 162.102 78.2174 161.758C77.873 161.413 77.6384 160.975 77.5434 160.497C77.4484 160.02 77.4972 159.524 77.6836 159.075C77.87 158.625 78.1856 158.24 78.5906 157.97C78.9956 157.699 79.4717 157.555 79.9588 157.555C80.612 157.555 81.2384 157.814 81.7002 158.276C82.1621 158.738 82.4215 159.364 82.4215 160.017Z" fill="#FAFAFA"/>
<path d="M131.588 79.125C130.444 81.1062 131.088 83.6261 132.031 85.7131C132.974 87.8002 134.195 89.8872 134.147 92.1666C134.08 96.0137 130.472 99.1875 130.732 103.015C130.837 104.152 131.277 105.232 131.996 106.119C132.715 107.006 133.682 107.66 134.773 107.997C133.031 106.68 133.022 104.006 133.811 101.986C134.599 99.9666 138.265 94.696 138.871 92.5994C140.9 85.5592 140.256 84.684 137.909 82.0199" fill="#263238"/>
<path d="M138.179 84.5974C137.746 84.7308 137.283 84.7308 136.851 84.5974C135.781 84.3684 134.804 83.8263 134.043 83.0401C133.283 82.254 132.773 81.2594 132.58 80.1828C132.435 79.3557 132.58 78.846 132.58 78.8556C132.718 79.2635 132.824 79.6815 132.897 80.1059C133.167 81.0804 133.678 81.9716 134.382 82.6975C135.087 83.4234 135.962 83.9609 136.928 84.2607C137.353 84.3412 137.771 84.4537 138.179 84.5974Z" fill="#455A64"/>
<path d="M134.014 105.678C134.014 105.678 133.918 105.63 133.773 105.495C133.556 105.303 133.365 105.083 133.206 104.841C132.6 103.938 132.319 102.856 132.407 101.773C132.455 101.02 132.686 100.29 133.081 99.6474C133.558 98.9317 134.131 98.2846 134.783 97.7238C135.458 97.1436 136.021 96.4463 136.448 95.6657C136.874 94.8177 137.102 93.8834 137.112 92.9342C137.128 91.9866 136.913 91.0492 136.486 90.2028C136.059 89.4102 135.566 88.6542 135.014 87.9426C134.028 86.7203 133.227 85.3592 132.638 83.9032C132.252 82.9092 132.05 81.8533 132.042 80.7871C132.015 80.3991 132.068 80.0098 132.196 79.6426C132.17 81.0567 132.436 82.461 132.975 83.7686C133.59 85.1733 134.4 86.4845 135.38 87.6637C135.962 88.3883 136.477 89.1641 136.919 89.9816C137.389 90.8973 137.627 91.9146 137.612 92.9438C137.605 93.9689 137.354 94.9776 136.881 95.8869C136.426 96.7144 135.823 97.4513 135.101 98.0605C134.473 98.5731 133.913 99.1646 133.437 99.8205C133.061 100.398 132.83 101.058 132.763 101.744C132.663 102.745 132.874 103.753 133.369 104.629C133.716 105.36 134.052 105.639 134.014 105.678Z" fill="#455A64"/>
<path d="M139.036 84.4121C139.036 84.4121 139.248 84.5468 139.536 84.8834C139.941 85.3709 140.266 85.9195 140.498 86.5088C141.198 88.4898 141.167 90.6556 140.412 92.616C139.643 94.5342 138.491 96.2753 137.026 97.7326C136.465 98.3774 135.818 98.9407 135.102 99.4061C135.608 98.7327 136.154 98.0903 136.737 97.4826C138.085 96 139.16 94.2905 139.912 92.4333C140.611 90.5849 140.689 88.5591 140.133 86.6626C139.836 85.8811 139.468 85.1279 139.036 84.4121Z" fill="#455A64"/>
<path d="M109.311 182.082C109.28 182.008 109.261 181.93 109.254 181.851L109.138 181.178C109.042 180.543 108.907 179.677 108.744 178.581C108.388 176.282 107.897 173.022 107.291 169.021C106.685 165.02 105.906 160.182 104.963 154.873C104.482 152.219 104.001 149.43 103.357 146.564C103.058 145.131 102.712 143.678 102.395 142.207C102.228 141.499 101.899 140.841 101.433 140.283C100.923 139.761 100.237 139.445 99.5087 139.398C98.7534 139.331 97.9936 139.331 97.2383 139.398L94.9488 139.543L90.4755 139.841L82.0195 140.379L67.6953 141.274L58.0753 141.822L55.4491 141.947H54.766H54.5352C54.5352 141.947 54.6121 141.947 54.766 141.899L55.4394 141.832L58.0657 141.61L67.6857 140.899L82.0003 139.937L90.4562 139.37L94.9295 139.071L97.2191 138.917C98.0063 138.845 98.7984 138.845 99.5856 138.917C100.422 138.992 101.204 139.364 101.789 139.966C102.304 140.587 102.663 141.323 102.837 142.111C103.212 143.592 103.549 144.996 103.799 146.487C104.405 149.372 104.905 152.161 105.377 154.816C106.339 160.144 107.022 164.953 107.599 168.992C108.176 173.031 108.561 176.311 108.898 178.61C109.023 179.716 109.129 180.581 109.196 181.226C109.196 181.495 109.196 181.726 109.263 181.909C109.284 181.965 109.3 182.023 109.311 182.082Z" fill="#263238"/>
<g opacity="0.5">
<path d="M384.078 127.897C384.078 127.897 384.078 127.743 384.155 127.464C384.232 127.185 384.299 126.753 384.415 126.214C384.665 125.098 385.021 123.492 385.473 121.405C386.435 117.221 387.782 111.21 389.465 103.776C392.89 88.878 397.613 68.2961 402.847 45.5022L403.078 44.502L403.318 45.531C403.405 45.935 403.511 46.3774 403.607 46.8198L416.94 106.026C418.614 113.586 419.98 119.712 420.923 123.973C421.384 126.079 421.74 127.724 421.981 128.859C422.096 129.407 422.183 129.821 422.25 130.138C422.281 130.281 422.304 130.425 422.318 130.571C422.318 130.571 422.27 130.426 422.202 130.148C422.135 129.869 422.019 129.426 421.894 128.878C421.625 127.753 421.24 126.108 420.74 124.011L416.603 106.094C413.159 90.9362 408.397 70.0273 403.135 46.9256C403.039 46.4832 402.933 46.0408 402.847 45.6368H403.318C398.027 68.4116 393.256 88.9742 389.792 103.872C388.051 111.287 386.637 117.337 385.656 121.463C385.165 123.521 384.78 125.127 384.511 126.272C384.376 126.791 384.271 127.233 384.203 127.503C384.136 127.772 384.078 127.897 384.078 127.897Z" fill="#263238"/>
<path d="M384.066 145.199V130.58H423.104V145.199C423.104 147.436 422.664 149.651 421.807 151.717C420.951 153.784 419.696 155.661 418.114 157.243C416.532 158.825 414.654 160.079 412.587 160.935C410.52 161.791 408.305 162.232 406.067 162.232H401.152C398.91 162.238 396.69 161.802 394.617 160.949C392.544 160.096 390.661 158.842 389.073 157.26C387.486 155.678 386.227 153.798 385.368 151.728C384.509 149.659 384.066 147.44 384.066 145.199Z" fill="#455A64"/>
<path d="M384.066 130.58C384.229 130.774 384.377 130.98 384.509 131.196L385.702 133.004C386.741 134.629 388.203 136.918 390.002 139.736L404.038 161.943L404.143 162.107H403.73L417.352 139.746C419.093 136.937 420.507 134.639 421.517 133.013L422.671 131.196C422.795 130.976 422.94 130.77 423.104 130.58C423.007 130.81 422.891 131.032 422.758 131.244L421.681 133.119C420.719 134.764 419.324 137.082 417.64 139.938L404.172 162.367L403.97 162.703L403.759 162.367L403.662 162.213C398.237 153.557 393.33 145.641 389.742 139.9L385.567 133.11L384.451 131.244C384.299 131.038 384.17 130.815 384.066 130.58Z" fill="#263238"/>
<path d="M407.465 45.3954C407.465 46.2381 407.215 47.0618 406.747 47.7625C406.278 48.4631 405.613 49.0093 404.834 49.3317C404.055 49.6542 403.198 49.7386 402.372 49.5742C401.545 49.4098 400.786 49.004 400.19 48.4081C399.594 47.8123 399.188 47.0531 399.023 46.2266C398.859 45.4001 398.943 44.5435 399.266 43.7649C399.588 42.9864 400.135 42.321 400.835 41.8528C401.536 41.3846 402.36 41.1348 403.203 41.1348C404.333 41.1348 405.417 41.5837 406.217 42.3827C407.016 43.1817 407.465 44.2654 407.465 45.3954Z" fill="#263238"/>
<path d="M403.201 -27.1504C403.336 -27.1504 403.442 -10.733 403.442 9.51228C403.442 29.7575 403.336 46.1846 403.201 46.1846C403.067 46.1846 402.961 29.7672 402.961 9.51228C402.961 -10.7426 403.076 -27.1504 403.201 -27.1504Z" fill="#263238"/>
<path d="M405.413 163.82C405.413 164.181 405.306 164.534 405.105 164.835C404.905 165.135 404.619 165.369 404.285 165.508C403.951 165.646 403.584 165.682 403.229 165.612C402.874 165.541 402.549 165.367 402.293 165.112C402.038 164.856 401.863 164.531 401.793 164.176C401.722 163.822 401.759 163.454 401.897 163.12C402.035 162.786 402.27 162.501 402.57 162.3C402.871 162.099 403.224 161.992 403.586 161.992C404.07 161.992 404.535 162.185 404.878 162.527C405.221 162.87 405.413 163.335 405.413 163.82Z" fill="#263238"/>
<path d="M402.779 164.502L403.068 164.358C402.553 164.69 402.121 165.134 401.802 165.657C401.484 166.18 401.289 166.769 401.231 167.378C401.126 168.595 401.23 169.822 401.539 171.004C401.625 171.389 401.818 171.86 402.212 171.841C402.606 171.821 402.722 171.398 402.789 171.052C402.906 170.33 402.922 169.595 402.837 168.869C402.797 169.802 403.098 170.718 403.684 171.446C403.799 171.591 403.963 171.735 404.136 171.687C404.309 171.639 404.376 171.456 404.425 171.283C404.587 170.67 404.677 170.041 404.694 169.407C404.738 169.963 404.941 170.494 405.281 170.937C405.368 171.041 405.476 171.126 405.597 171.187C405.718 171.248 405.851 171.285 405.987 171.294C406.122 171.303 406.258 171.284 406.387 171.239C406.515 171.195 406.633 171.124 406.733 171.033C406.925 170.73 406.994 170.365 406.926 170.013C406.616 167.827 405.737 165.761 404.376 164.021" fill="#263238"/>
<path d="M386.521 130.58C386.521 130.58 368.984 110.383 370.937 109.642C372.89 108.901 388.474 120.106 388.474 120.106C388.474 120.106 375.074 90.1854 377.758 87.9541C380.441 85.7228 394.564 114.499 394.564 114.499C394.564 114.499 392.37 72.6139 394.564 72.1234C396.757 71.6329 404.79 114.008 404.79 114.008C404.79 114.008 416.728 75.2876 420.182 75.2876C423.635 75.2876 416.526 112.547 416.526 112.547C416.526 112.547 430.648 88.685 432.88 91.8493C435.112 95.0135 422.895 120.827 422.895 120.827C422.895 120.827 440.682 105.978 441.413 107.92C442.144 109.863 422.173 130.57 422.173 130.57L386.521 130.58Z" fill="#AFAFAF"/>
<path d="M384.078 100.129C384.203 100.072 387.31 106.746 391.024 115.017C394.737 123.289 397.652 130.06 397.537 130.108C397.421 130.156 394.304 123.5 390.572 115.191C386.839 106.881 383.953 100.187 384.078 100.129Z" fill="#263238"/>
<path d="M398.265 103.852C398.4 103.852 398.909 109.718 399.419 116.98C399.929 124.241 400.227 130.127 400.093 130.137C399.958 130.146 399.439 124.27 398.938 117.009C398.438 109.747 398.111 103.861 398.265 103.852Z" fill="#263238"/>
<path d="M417.785 85.0977C417.774 85.2584 417.742 85.4169 417.689 85.5689C417.583 85.9248 417.458 86.3672 417.304 86.9058C416.929 88.1272 416.438 89.7911 415.832 91.782C414.591 95.8983 412.946 101.611 411.243 107.949C409.541 114.287 408.146 120.068 407.165 124.251C406.693 126.3 406.299 127.973 406.01 129.214C405.875 129.753 405.77 130.176 405.673 130.561C405.651 130.721 405.602 130.877 405.529 131.022C405.522 130.86 405.538 130.698 405.577 130.541C405.645 130.176 405.722 129.724 405.827 129.176C406.039 127.993 406.385 126.29 406.837 124.174C407.732 119.971 409.079 114.172 410.772 107.824C412.465 101.477 414.187 95.7829 415.505 91.6858C416.169 89.6276 416.717 87.983 417.121 86.8769L417.593 85.5689C417.639 85.4051 417.703 85.247 417.785 85.0977Z" fill="#263238"/>
<path d="M426.243 106.688C426.349 106.765 422.925 111.863 418.596 118.085C414.267 124.308 410.659 129.28 410.553 129.203C410.447 129.126 413.872 124.029 418.249 117.806C422.626 111.584 426.166 106.611 426.243 106.688Z" fill="#263238"/>
<path d="M392.498 130.149C391.937 129.856 391.419 129.487 390.958 129.052C389.794 128.081 388.68 127.05 387.62 125.965C386.559 124.884 385.56 123.744 384.629 122.551C384.202 122.086 383.845 121.561 383.57 120.993C383.676 120.906 385.494 123.118 387.967 125.628C390.439 128.139 392.498 130.033 392.498 130.149Z" fill="#263238"/>
<path d="M403.079 122.117C403.448 123.476 403.658 124.874 403.704 126.282C403.907 127.676 403.952 129.089 403.839 130.494C403.483 129.132 403.277 127.736 403.223 126.33C403.014 124.936 402.966 123.522 403.079 122.117Z" fill="#263238"/>
<path d="M423.106 139.688C422.612 139.831 422.106 139.934 421.595 139.996C420.633 140.169 419.2 140.39 417.449 140.64C412.875 141.281 408.27 141.689 403.654 141.862C399.032 142.034 394.403 141.842 389.811 141.285C388.051 141.054 386.636 140.823 385.665 140.621C385.156 140.539 384.655 140.42 384.164 140.265C384.678 140.275 385.19 140.33 385.694 140.429C386.656 140.583 388.089 140.765 389.849 140.948C394.43 141.403 399.035 141.548 403.635 141.381C409.032 141.198 413.89 140.698 417.411 140.294L421.567 139.813C422.075 139.724 422.59 139.682 423.106 139.688Z" fill="white"/>
<path d="M423.106 144.044C422.61 144.181 422.105 144.284 421.595 144.351C420.633 144.524 419.2 144.746 417.449 144.986C412.875 145.631 408.271 146.042 403.654 146.217C399.032 146.39 394.403 146.197 389.811 145.64C388.051 145.409 386.636 145.178 385.665 144.967C385.154 144.897 384.652 144.778 384.164 144.611C384.677 144.634 385.188 144.692 385.694 144.784C386.656 144.938 388.089 145.121 389.849 145.304C394.43 145.754 399.035 145.899 403.635 145.736C409.032 145.544 413.89 145.053 417.411 144.65L421.567 144.169C422.075 144.079 422.59 144.037 423.106 144.044Z" fill="white"/>
</g>
</g>
<defs>
<clipPath id="clip0_2197_16030">
<rect width="481" height="418" fill="white"/>
</clipPath>
</defs>
</svg>
