<svg width="24" height="24" viewBox="0 0 24 24" fill="none" xmlns="http://www.w3.org/2000/svg">
<g clip-path="url(#clip0_1593_7271)">
<path d="M3 20.5V6.55H9.175V4.25L12 1.5L14.825 4.25V10.7H21V20.5H3ZM4.5 19H7.15V16.35H4.5V19ZM4.5 14.85H7.15V12.2H4.5V14.85ZM4.5 10.7H7.15V8.05H4.5V10.7ZM10.675 19H13.325V16.35H10.675V19ZM10.675 14.85H13.325V12.2H10.675V14.85ZM10.675 10.7H13.325V8.05H10.675V10.7ZM10.675 6.55H13.325V3.9H10.675V6.55ZM16.85 19H19.5V16.35H16.85V19ZM16.85 14.85H19.5V12.2H16.85V14.85Z" fill="#7A7A7A"/>
</g>
<defs>
<clipPath id="clip0_1593_7271">
<rect width="24" height="24" fill="white"/>
</clipPath>
</defs>
</svg>
