<svg width="521" height="340" viewBox="0 0 521 340" fill="none" xmlns="http://www.w3.org/2000/svg">
<g clip-path="url(#clip0_3070_19878)">
<path d="M508.139 230.376C508.139 230.376 502.979 228.141 499.309 240.205C495.639 252.269 494.64 258.991 494.64 258.991C494.64 258.991 493.57 261.575 491.707 260.346C489.845 259.117 486.904 255.21 484.336 256.462C481.768 257.714 481.308 261.059 482.663 265.562C484.019 270.064 486.627 280.043 486.848 280.947C487.07 281.85 486.801 283.253 485.398 282.619C483.995 281.985 475.379 275.255 472.438 279.536C469.498 283.816 475.324 295.745 475.942 297.061C476.56 298.377 476.386 299.011 475.791 299.439C475.197 299.867 472.51 297.37 469.989 295.555C467.468 293.74 464.211 292.083 462.713 294.699C461.215 297.315 462.293 306.85 474 320.571L479.842 326.571L488.03 324.637C505.301 319.437 511.365 311.994 511.523 308.998C511.682 306.002 508.052 305.629 504.944 305.78C501.837 305.931 498.215 306.573 497.961 305.907C497.708 305.241 497.914 304.575 499.142 303.798C500.371 303.022 511.737 296.149 511.571 290.958C511.404 285.766 500.529 286.757 499.008 286.535C497.486 286.313 498.017 284.949 498.69 284.347C499.364 283.745 506.966 276.73 510.58 273.678C514.194 270.626 515.637 267.654 514.099 265.118C512.562 262.581 508.028 264.365 505.8 264.388C503.573 264.412 504.065 261.67 504.065 261.67C504.065 261.67 506.878 255.447 510.326 243.32C513.774 231.193 508.004 230.337 508.004 230.337" fill="#EBEBEB"/>
<path d="M504.834 241.172C504.834 241.172 504.834 241.259 504.771 241.426L504.572 242.218C504.39 242.884 504.129 243.851 503.78 245.088C503.09 247.584 502.06 251.191 500.784 255.638C498.215 264.531 494.569 276.785 490.479 290.308C486.389 303.83 482.735 316.084 480.12 324.97C478.82 329.4 477.742 332.991 477.036 335.488L476.188 338.341L475.966 339.086C475.911 339.253 475.879 339.332 475.879 339.332C475.879 339.332 475.879 339.245 475.934 339.079C475.99 338.912 476.053 338.651 476.133 338.326C476.323 337.66 476.584 336.693 476.925 335.456C477.615 332.959 478.637 329.353 479.921 324.906C482.49 316.013 486.136 303.759 490.226 290.228C494.316 276.698 497.97 264.46 500.585 255.582L503.669 245.056C504.033 243.827 504.319 242.868 504.509 242.202C504.612 241.885 504.683 241.64 504.739 241.457C504.794 241.275 504.834 241.172 504.834 241.172Z" fill="#E0E0E0"/>
<path d="M488.236 262.115C488.358 262.278 488.462 262.453 488.545 262.638C488.728 262.979 488.981 263.486 489.291 264.113C489.901 265.357 490.701 267.109 491.542 269.059C492.382 271.009 493.127 272.713 493.682 274.052C493.935 274.647 494.157 275.146 494.332 275.558C494.432 275.736 494.504 275.929 494.546 276.129C494.422 275.968 494.318 275.792 494.237 275.606C494.046 275.265 493.793 274.766 493.492 274.132C492.897 272.879 492.12 271.12 491.28 269.17C490.44 267.22 489.695 265.532 489.108 264.192L488.442 262.686C488.345 262.507 488.276 262.315 488.236 262.115Z" fill="#E0E0E0"/>
<path d="M495.322 276.136C495.322 276.064 498.826 274.257 503.249 272.109C507.672 269.961 511.23 268.257 511.262 268.328C511.294 268.4 507.767 270.207 503.336 272.363C498.905 274.519 495.37 276.207 495.322 276.136Z" fill="#E0E0E0"/>
<path d="M488.143 296.626C488.337 296.556 488.54 296.508 488.745 296.483L490.402 296.19C491.797 295.944 493.723 295.596 495.839 295.136C497.955 294.676 499.85 294.2 501.229 293.844L502.814 293.424C503.013 293.362 503.218 293.319 503.425 293.297C503.242 293.398 503.048 293.475 502.846 293.527C502.473 293.661 501.919 293.836 501.261 294.034C499.905 294.446 498.003 294.953 495.887 295.413C493.77 295.873 491.82 296.206 490.417 296.396C489.712 296.491 489.141 296.563 488.745 296.594C488.546 296.631 488.344 296.642 488.143 296.626Z" fill="#E0E0E0"/>
<path d="M478.93 285.363C478.93 285.363 479.088 285.49 479.334 285.76C479.58 286.029 479.936 286.425 480.372 286.917C481.236 287.908 482.409 289.295 483.701 290.817C484.993 292.339 486.135 293.749 486.959 294.78C487.371 295.295 487.704 295.707 487.926 296C488.052 296.147 488.161 296.306 488.251 296.476C488.098 296.359 487.959 296.223 487.839 296.072C487.593 295.802 487.237 295.406 486.809 294.915C485.945 293.924 484.763 292.537 483.479 291.015C482.195 289.493 481.038 288.082 480.214 287.052C479.802 286.544 479.477 286.124 479.255 285.831C479.129 285.688 479.02 285.531 478.93 285.363Z" fill="#E0E0E0"/>
<path d="M470.283 302.641C470.475 302.791 470.648 302.964 470.798 303.156L472.13 304.638C473.24 305.898 474.762 307.658 476.434 309.608C478.107 311.558 479.605 313.333 480.675 314.625C481.174 315.244 481.594 315.759 481.935 316.163C482.096 316.347 482.24 316.546 482.363 316.758C482.174 316.604 482.001 316.432 481.848 316.242L480.516 314.752C479.406 313.492 477.885 311.74 476.212 309.79C474.54 307.84 473.042 306.065 471.972 304.773L470.751 303.227C470.576 303.047 470.42 302.851 470.283 302.641Z" fill="#E0E0E0"/>
<path d="M482.174 316.338C482.431 316.248 482.697 316.181 482.966 316.14L485.051 315.696C486.811 315.316 489.244 314.792 491.907 314.111C494.571 313.429 496.972 312.803 498.708 312.319L500.761 311.749C501.019 311.665 501.285 311.604 501.554 311.566C501.316 311.682 501.07 311.777 500.817 311.852C500.341 312.018 499.652 312.248 498.788 312.51C497.068 313.049 494.674 313.73 492.003 314.388C489.331 315.046 486.89 315.545 485.115 315.87C484.235 316.029 483.529 316.156 483.014 316.227C482.74 316.3 482.457 316.337 482.174 316.338Z" fill="#E0E0E0"/>
<path d="M267.446 261.986H164.324V309.545H267.446V261.986Z" fill="#F5F5F5"/>
<path d="M264.998 307.342H166.711V264.539H264.998V307.342ZM167.329 306.699H264.356V265.165H167.329V306.699Z" fill="#E0E0E0"/>
<path d="M292.637 261.986H267.447V309.545H292.637V261.986Z" fill="#E0E0E0"/>
<path d="M167.003 277.738H264.664C264.693 277.731 264.719 277.714 264.737 277.69C264.756 277.667 264.766 277.637 264.766 277.607C264.766 277.577 264.756 277.548 264.737 277.524C264.719 277.501 264.693 277.484 264.664 277.477H167.003C166.974 277.484 166.948 277.501 166.929 277.524C166.91 277.548 166.9 277.577 166.9 277.607C166.9 277.637 166.91 277.667 166.929 277.69C166.948 277.714 166.974 277.731 167.003 277.738Z" fill="#E0E0E0"/>
<path d="M216.156 277.609C216.426 273.307 216.44 268.993 216.195 264.689C216.195 264.654 216.181 264.619 216.156 264.594C216.131 264.569 216.096 264.555 216.061 264.555C216.025 264.555 215.991 264.569 215.965 264.594C215.94 264.619 215.926 264.654 215.926 264.689C215.681 268.993 215.695 273.307 215.965 277.609C215.965 277.635 215.975 277.659 215.993 277.677C216.011 277.695 216.035 277.705 216.061 277.705C216.086 277.705 216.11 277.695 216.128 277.677C216.146 277.659 216.156 277.635 216.156 277.609Z" fill="#E0E0E0"/>
<path d="M242.47 271.15C242.47 271.413 242.392 271.671 242.245 271.89C242.099 272.109 241.891 272.279 241.648 272.38C241.405 272.481 241.137 272.507 240.878 272.456C240.62 272.405 240.383 272.278 240.197 272.092C240.01 271.905 239.884 271.668 239.832 271.41C239.781 271.151 239.807 270.884 239.908 270.64C240.009 270.397 240.179 270.189 240.398 270.043C240.617 269.896 240.875 269.818 241.138 269.818C241.313 269.818 241.486 269.853 241.648 269.92C241.809 269.987 241.956 270.085 242.08 270.208C242.204 270.332 242.302 270.479 242.369 270.64C242.435 270.802 242.47 270.975 242.47 271.15Z" fill="#E0E0E0"/>
<path d="M191.187 271.15C191.187 271.414 191.108 271.671 190.962 271.891C190.815 272.11 190.607 272.28 190.363 272.381C190.119 272.482 189.851 272.507 189.592 272.455C189.334 272.403 189.097 272.276 188.911 272.089C188.725 271.902 188.599 271.664 188.548 271.405C188.498 271.146 188.525 270.878 188.627 270.635C188.729 270.392 188.901 270.184 189.121 270.039C189.341 269.894 189.599 269.817 189.863 269.818C190.215 269.82 190.551 269.962 190.799 270.211C191.048 270.461 191.187 270.798 191.187 271.15Z" fill="#E0E0E0"/>
<path d="M217.171 285.894C217.171 286.157 217.093 286.415 216.947 286.634C216.8 286.853 216.592 287.024 216.349 287.124C216.106 287.225 215.838 287.252 215.58 287.2C215.321 287.149 215.084 287.022 214.898 286.836C214.712 286.649 214.585 286.412 214.533 286.154C214.482 285.896 214.508 285.628 214.609 285.385C214.71 285.141 214.881 284.933 215.1 284.787C215.319 284.641 215.576 284.563 215.839 284.562C216.014 284.562 216.187 284.597 216.349 284.664C216.511 284.731 216.657 284.829 216.781 284.953C216.905 285.076 217.003 285.223 217.07 285.385C217.137 285.546 217.171 285.719 217.171 285.894Z" fill="#E0E0E0"/>
<path d="M176.651 309.547L171.34 339.406H174.328L184.117 309.547H176.651Z" fill="#E0E0E0"/>
<path d="M260.156 309.547L264.595 339.453H261.607L252.689 309.547H260.156Z" fill="#E0E0E0"/>
<path d="M280.09 309.547L285.123 339.453H282.135L272.623 309.547H280.09Z" fill="#E0E0E0"/>
<path d="M217.107 299.353C217.107 299.617 217.029 299.874 216.882 300.093C216.736 300.312 216.528 300.483 216.285 300.583C216.041 300.684 215.774 300.711 215.515 300.659C215.257 300.608 215.02 300.481 214.833 300.295C214.647 300.108 214.52 299.871 214.469 299.613C214.418 299.355 214.444 299.087 214.545 298.844C214.646 298.6 214.816 298.392 215.035 298.246C215.254 298.1 215.512 298.021 215.775 298.021C215.95 298.021 216.123 298.056 216.285 298.123C216.446 298.19 216.593 298.288 216.717 298.412C216.84 298.535 216.938 298.682 217.005 298.844C217.072 299.005 217.107 299.178 217.107 299.353Z" fill="#E0E0E0"/>
<path d="M167.003 292.465H264.664C264.693 292.457 264.719 292.441 264.737 292.417C264.756 292.393 264.766 292.364 264.766 292.334C264.766 292.304 264.756 292.275 264.737 292.251C264.719 292.227 264.693 292.21 264.664 292.203H167.003C166.974 292.21 166.948 292.227 166.929 292.251C166.91 292.275 166.9 292.304 166.9 292.334C166.9 292.364 166.91 292.393 166.929 292.417C166.948 292.441 166.974 292.457 167.003 292.465Z" fill="#E0E0E0"/>
<path d="M484.74 30.5605H419.537V118.004H484.74V30.5605Z" fill="#EBEBEB"/>
<path d="M481.341 34.002H422.932V114.574H481.341V34.002Z" fill="#FAFAFA"/>
<path d="M464.156 61.8691H441.859V87.3525H464.156V61.8691Z" fill="#EBEBEB"/>
<path d="M456.34 138.732V181.074H513.132V138.732H456.34Z" fill="#EBEBEB"/>
<path d="M510.898 140.943H458.576V178.879H510.898V140.943Z" fill="#FAFAFA"/>
<path d="M476.68 152.104V166.586H493.23V152.104H476.68Z" fill="#EBEBEB"/>
<path d="M43.1939 64.334H1.82617V119.819H43.1939V64.334Z" fill="#EBEBEB"/>
<path d="M41.0442 66.5137H3.98047V117.639H41.0442V66.5137Z" fill="#FAFAFA"/>
<path d="M30.1408 84.1992H15.9922V100.369H30.1408V84.1992Z" fill="#EBEBEB"/>
<path d="M232.087 234.957L229.266 261.122H265.394L268.39 234.957H232.087Z" fill="#EBEBEB"/>
<path d="M233.571 236.838L230.828 259.737H263.429L266.069 236.838H233.571Z" fill="#FAFAFA"/>
<path d="M239.056 240.689L237.367 255.884H257.944L258.998 240.689H239.056Z" fill="#E0E0E0"/>
<path d="M267.099 246.229L274.557 261.226L265.395 261.123L267.21 245.246" fill="#F5F5F5"/>
<path d="M498.992 339.253C498.992 339.364 387.325 339.459 249.62 339.459C111.915 339.459 0.216797 339.364 0.216797 339.253C0.216797 339.142 111.86 339.047 249.605 339.047C387.349 339.047 498.992 339.142 498.992 339.253Z" fill="#263238"/>
<path d="M363.699 24.6953H65.4531V221.008H363.699V24.6953Z" fill="#EBEBEB"/>
<path d="M363.699 221.016C363.699 219.668 363.636 144.447 363.533 24.6949L363.699 24.8614H65.4771L65.6832 24.6553C65.6832 94.4946 65.6832 160.989 65.6832 220.976L65.493 220.786L363.739 220.976L65.493 221.158H65.3027V220.976C65.3027 160.949 65.3027 94.4946 65.3027 24.6553V24.4492H65.5326L363.755 24.4968H363.913V24.6553C363.747 144.447 363.699 219.676 363.699 221.016Z" fill="#263238"/>
<path d="M363.699 42.1651C363.699 42.276 296.927 42.3712 214.58 42.3712C132.233 42.3712 65.4531 42.276 65.4531 42.1651C65.4531 42.0541 132.209 41.959 214.58 41.959C296.951 41.959 363.699 42.0541 363.699 42.1651Z" fill="#263238"/>
<path d="M343.272 71.207H93.2422V105.425H343.272V71.207Z" fill="#E0E0E0"/>
<path d="M144.471 165.27H88.9629V220.778H144.471V165.27Z" fill="#E0E0E0"/>
<path d="M210.087 165.27H154.578V220.778H210.087V165.27Z" fill="#E0E0E0"/>
<path d="M273.743 165.27H218.234V220.778H273.743V165.27Z" fill="#E0E0E0"/>
<path d="M188.217 141.743H128.048C125.617 141.743 123.285 140.778 121.566 139.06C119.846 137.342 118.879 135.011 118.877 132.58C118.887 130.155 119.858 127.833 121.577 126.121C123.296 124.41 125.622 123.449 128.048 123.449H188.217C190.649 123.449 192.982 124.415 194.702 126.135C196.422 127.855 197.388 130.188 197.388 132.62C197.375 135.044 196.403 137.364 194.685 139.074C192.966 140.784 190.641 141.743 188.217 141.743Z" fill="#349F6E"/>
<path d="M258.557 141.744L259.35 141.688C259.627 141.688 259.952 141.593 260.348 141.53C262.097 141.162 263.699 140.291 264.959 139.023C266.218 137.755 267.078 136.147 267.435 134.396C267.869 132.203 267.491 129.927 266.372 127.992C265.706 126.852 264.799 125.872 263.715 125.119C262.631 124.366 261.395 123.859 260.095 123.632C258.628 123.49 257.153 123.445 255.68 123.497H250.924H240.62L127.978 123.561C125.643 123.544 123.393 124.439 121.708 126.057C120.024 127.674 119.038 129.886 118.96 132.22C118.883 134.554 119.72 136.826 121.293 138.552C122.867 140.278 125.052 141.321 127.383 141.459C128.66 141.522 129.983 141.459 131.275 141.459H161.181L211.823 141.506L245.962 141.57L255.244 141.609L245.962 141.649L211.823 141.712H161.181H131.275C129.975 141.712 128.691 141.712 127.36 141.712C126.014 141.628 124.703 141.255 123.515 140.618C121.682 139.625 120.233 138.048 119.396 136.138C118.559 134.228 118.382 132.094 118.894 130.073C119.406 128.051 120.577 126.258 122.222 124.977C123.868 123.696 125.893 122.999 127.978 122.998L240.62 123.054H250.924H255.68C257.167 122.998 258.655 123.051 260.134 123.212C261.356 123.428 262.523 123.887 263.564 124.562C264.605 125.237 265.5 126.115 266.196 127.142C266.891 128.17 267.373 129.327 267.614 130.544C267.854 131.762 267.847 133.015 267.593 134.23C267.206 136 266.317 137.62 265.033 138.898C264.087 139.822 262.955 140.533 261.712 140.983C261.272 141.14 260.822 141.268 260.364 141.363C259.96 141.419 259.627 141.482 259.358 141.498L258.557 141.744Z" fill="#263238"/>
<path d="M178.27 148.156H178.959L178.119 152.349H180.719L180.6 152.944H177.318L178.27 148.156Z" fill="#263238"/>
<path d="M181.241 151.423C181.232 151.14 181.28 150.858 181.383 150.594C181.487 150.33 181.644 150.091 181.843 149.89C182.043 149.69 182.282 149.532 182.546 149.428C182.809 149.323 183.091 149.274 183.374 149.283C183.593 149.258 183.815 149.282 184.024 149.352C184.233 149.421 184.425 149.535 184.586 149.686C184.747 149.836 184.874 150.02 184.957 150.224C185.041 150.428 185.079 150.648 185.07 150.868C185.081 151.151 185.034 151.433 184.931 151.697C184.828 151.961 184.673 152.201 184.474 152.403C184.275 152.604 184.036 152.762 183.773 152.868C183.51 152.973 183.229 153.024 182.946 153.016C182.727 153.032 182.507 153.003 182.301 152.931C182.094 152.858 181.904 152.743 181.744 152.593C181.584 152.443 181.457 152.262 181.37 152.061C181.284 151.859 181.24 151.642 181.241 151.423ZM184.412 150.884C184.424 150.742 184.404 150.599 184.353 150.465C184.302 150.332 184.222 150.212 184.119 150.113C184.015 150.015 183.891 149.942 183.755 149.898C183.619 149.854 183.475 149.842 183.334 149.861C183.138 149.862 182.945 149.903 182.766 149.981C182.586 150.06 182.425 150.174 182.292 150.318C182.159 150.461 182.057 150.631 181.992 150.815C181.927 151 181.901 151.196 181.915 151.391C181.905 151.533 181.926 151.675 181.977 151.808C182.028 151.941 182.108 152.06 182.212 152.158C182.315 152.256 182.439 152.33 182.574 152.374C182.709 152.418 182.852 152.432 182.993 152.414C183.189 152.413 183.382 152.372 183.561 152.294C183.739 152.215 183.9 152.1 184.033 151.957C184.165 151.813 184.266 151.644 184.33 151.459C184.394 151.274 184.419 151.079 184.404 150.884H184.412Z" fill="#263238"/>
<path d="M189.722 149.322L189.009 152.944H188.375L188.462 152.5C188.292 152.662 188.092 152.789 187.873 152.873C187.654 152.957 187.421 152.998 187.186 152.992C186.974 153.004 186.763 152.972 186.565 152.897C186.367 152.822 186.187 152.705 186.037 152.556C185.887 152.406 185.771 152.226 185.695 152.028C185.62 151.83 185.588 151.618 185.601 151.406C185.585 151.129 185.627 150.851 185.724 150.59C185.821 150.329 185.97 150.091 186.162 149.89C186.355 149.69 186.587 149.531 186.843 149.423C187.1 149.316 187.376 149.263 187.654 149.266C187.911 149.241 188.169 149.289 188.401 149.404C188.632 149.519 188.826 149.696 188.961 149.916L189.08 149.306L189.722 149.322ZM188.747 150.907C188.758 150.764 188.737 150.621 188.685 150.488C188.634 150.355 188.553 150.235 188.449 150.137C188.344 150.038 188.22 149.965 188.084 149.921C187.947 149.878 187.803 149.865 187.662 149.884C187.467 149.886 187.274 149.928 187.096 150.007C186.917 150.086 186.757 150.201 186.625 150.344C186.493 150.487 186.391 150.656 186.327 150.84C186.263 151.024 186.237 151.22 186.251 151.414C186.24 151.556 186.261 151.698 186.312 151.831C186.364 151.964 186.444 152.083 186.547 152.181C186.65 152.279 186.774 152.353 186.909 152.397C187.044 152.441 187.188 152.455 187.329 152.437C187.527 152.438 187.723 152.397 187.905 152.317C188.086 152.238 188.249 152.121 188.383 151.975C188.516 151.828 188.618 151.656 188.681 151.468C188.744 151.28 188.766 151.081 188.747 150.883V150.907Z" fill="#263238"/>
<path d="M194.683 147.871L193.669 152.944H193.043L193.13 152.5C192.783 152.826 192.322 153.003 191.846 152.992C191.634 153.004 191.423 152.972 191.224 152.897C191.026 152.822 190.846 152.706 190.697 152.556C190.547 152.406 190.43 152.226 190.355 152.028C190.28 151.83 190.248 151.618 190.261 151.406C190.246 151.129 190.289 150.852 190.386 150.592C190.483 150.331 190.633 150.094 190.825 149.893C191.017 149.693 191.248 149.534 191.504 149.426C191.76 149.318 192.036 149.264 192.313 149.266C192.572 149.242 192.833 149.29 193.066 149.407C193.298 149.523 193.494 149.702 193.629 149.924L194.041 147.855L194.683 147.871ZM193.407 150.883C193.419 150.741 193.399 150.598 193.348 150.465C193.298 150.331 193.218 150.211 193.114 150.113C193.011 150.015 192.886 149.941 192.75 149.897C192.615 149.854 192.471 149.841 192.329 149.861C192.134 149.861 191.94 149.902 191.761 149.981C191.582 150.059 191.42 150.174 191.287 150.317C191.154 150.461 191.052 150.63 190.987 150.815C190.923 150.999 190.896 151.195 190.91 151.391C190.9 151.533 190.921 151.676 190.973 151.81C191.024 151.943 191.105 152.063 191.209 152.161C191.313 152.259 191.438 152.333 191.574 152.376C191.711 152.42 191.855 152.432 191.996 152.413C192.192 152.413 192.385 152.372 192.564 152.293C192.743 152.215 192.903 152.1 193.036 151.956C193.168 151.813 193.27 151.643 193.334 151.459C193.397 151.274 193.423 151.078 193.407 150.883Z" fill="#263238"/>
<path d="M195.635 149.322H196.293L195.58 152.944H194.914L195.635 149.322ZM195.746 148.228C195.745 148.166 195.757 148.104 195.78 148.047C195.804 147.99 195.839 147.938 195.884 147.895C195.929 147.851 195.982 147.818 196.04 147.796C196.098 147.774 196.16 147.765 196.222 147.768C196.274 147.766 196.326 147.774 196.375 147.792C196.424 147.81 196.469 147.838 196.507 147.873C196.545 147.908 196.576 147.951 196.598 147.998C196.62 148.045 196.632 148.097 196.634 148.149C196.636 148.212 196.626 148.275 196.602 148.333C196.579 148.392 196.544 148.445 196.5 148.49C196.455 148.535 196.402 148.569 196.343 148.593C196.284 148.616 196.222 148.626 196.159 148.624C196.105 148.625 196.053 148.616 196.003 148.597C195.954 148.577 195.909 148.548 195.87 148.511C195.832 148.475 195.801 148.431 195.78 148.382C195.759 148.333 195.747 148.281 195.746 148.228Z" fill="#263238"/>
<path d="M200.717 150.486C200.714 150.63 200.701 150.773 200.677 150.914L200.273 152.944H199.615L200.019 150.914C200.026 150.814 200.026 150.714 200.019 150.613C200.019 150.138 199.75 149.876 199.179 149.876C198.849 149.858 198.526 149.969 198.276 150.185C198.026 150.401 197.87 150.705 197.839 151.033L197.451 152.944H196.793L197.514 149.321H198.148L198.053 149.781C198.228 149.614 198.435 149.484 198.661 149.398C198.887 149.312 199.127 149.273 199.369 149.282C199.54 149.253 199.716 149.263 199.882 149.311C200.049 149.359 200.203 149.444 200.332 149.56C200.462 149.676 200.563 149.819 200.63 149.98C200.696 150.14 200.726 150.313 200.717 150.486Z" fill="#263238"/>
<path d="M205.695 149.32L205.077 152.491C205.061 152.757 204.991 153.018 204.873 153.257C204.754 153.496 204.588 153.709 204.386 153.883C204.183 154.056 203.947 154.188 203.693 154.269C203.439 154.349 203.17 154.378 202.905 154.353C202.309 154.383 201.722 154.2 201.248 153.838L201.613 153.339C201.993 153.639 202.468 153.793 202.952 153.775C203.125 153.795 203.3 153.781 203.468 153.733C203.635 153.684 203.791 153.602 203.925 153.492C204.06 153.381 204.171 153.245 204.252 153.091C204.332 152.936 204.381 152.767 204.395 152.594L204.45 152.332C204.095 152.666 203.622 152.846 203.135 152.831C202.931 152.85 202.726 152.826 202.532 152.76C202.339 152.695 202.161 152.589 202.012 152.449C201.862 152.31 201.743 152.141 201.664 151.953C201.584 151.764 201.545 151.561 201.549 151.357C201.544 151.085 201.594 150.815 201.696 150.564C201.798 150.312 201.951 150.084 202.145 149.893C202.338 149.702 202.569 149.553 202.822 149.455C203.076 149.356 203.346 149.31 203.618 149.32C203.888 149.296 204.159 149.35 204.399 149.475C204.639 149.6 204.838 149.791 204.973 150.025L205.108 149.36L205.695 149.32ZM204.688 150.794C204.688 150.216 204.292 149.859 203.61 149.859C203.421 149.851 203.233 149.883 203.057 149.951C202.881 150.019 202.721 150.124 202.587 150.257C202.453 150.39 202.348 150.549 202.278 150.725C202.209 150.901 202.177 151.089 202.183 151.278C202.183 151.864 202.588 152.221 203.269 152.221C203.458 152.228 203.646 152.195 203.822 152.126C203.998 152.057 204.157 151.952 204.29 151.818C204.424 151.684 204.528 151.524 204.596 151.348C204.665 151.171 204.696 150.983 204.688 150.794Z" fill="#263238"/>
<path d="M207.842 152.548C207.839 152.483 207.849 152.418 207.872 152.357C207.895 152.296 207.93 152.24 207.976 152.194C208.021 152.147 208.076 152.11 208.136 152.085C208.196 152.06 208.261 152.048 208.326 152.049C208.383 152.049 208.44 152.06 208.493 152.083C208.546 152.105 208.594 152.138 208.634 152.18C208.674 152.221 208.705 152.27 208.726 152.324C208.747 152.378 208.756 152.435 208.754 152.493C208.757 152.557 208.747 152.622 208.725 152.682C208.702 152.743 208.668 152.798 208.623 152.845C208.579 152.891 208.525 152.928 208.466 152.954C208.407 152.979 208.343 152.992 208.278 152.992C208.22 152.992 208.163 152.981 208.11 152.958C208.056 152.936 208.008 152.903 207.967 152.862C207.927 152.82 207.895 152.771 207.873 152.718C207.852 152.664 207.841 152.606 207.842 152.548Z" fill="#263238"/>
<path d="M209.397 152.548C209.394 152.483 209.404 152.418 209.427 152.357C209.45 152.296 209.485 152.24 209.53 152.194C209.576 152.147 209.63 152.11 209.69 152.085C209.751 152.06 209.815 152.048 209.881 152.049C209.938 152.049 209.995 152.06 210.048 152.083C210.101 152.105 210.149 152.138 210.189 152.18C210.229 152.221 210.26 152.27 210.281 152.324C210.301 152.378 210.311 152.435 210.309 152.493C210.312 152.557 210.302 152.622 210.279 152.682C210.257 152.743 210.223 152.798 210.178 152.845C210.134 152.891 210.08 152.928 210.021 152.954C209.961 152.979 209.898 152.992 209.833 152.992C209.775 152.992 209.718 152.981 209.664 152.958C209.611 152.936 209.563 152.903 209.522 152.862C209.481 152.82 209.449 152.771 209.428 152.718C209.407 152.664 209.396 152.606 209.397 152.548Z" fill="#263238"/>
<path d="M210.942 152.548C210.94 152.483 210.951 152.418 210.975 152.356C210.998 152.295 211.034 152.24 211.08 152.193C211.126 152.146 211.181 152.11 211.242 152.085C211.303 152.06 211.368 152.048 211.433 152.049C211.491 152.049 211.548 152.06 211.601 152.083C211.654 152.105 211.702 152.138 211.742 152.18C211.781 152.221 211.813 152.27 211.833 152.324C211.854 152.378 211.863 152.435 211.861 152.493C211.864 152.557 211.854 152.622 211.832 152.682C211.81 152.743 211.775 152.798 211.731 152.845C211.686 152.891 211.633 152.928 211.573 152.954C211.514 152.979 211.45 152.992 211.386 152.992C211.268 152.992 211.155 152.945 211.072 152.862C210.988 152.779 210.942 152.666 210.942 152.548Z" fill="#263238"/>
<path d="M76.8109 34.2775C76.8109 34.7102 76.6826 35.1332 76.4422 35.4929C76.2018 35.8527 75.8602 36.1331 75.4604 36.2987C75.0607 36.4643 74.6208 36.5076 74.1964 36.4232C73.7721 36.3388 73.3823 36.1304 73.0763 35.8245C72.7704 35.5185 72.562 35.1287 72.4776 34.7043C72.3932 34.28 72.4365 33.8401 72.6021 33.4403C72.7677 33.0406 73.048 32.6989 73.4078 32.4585C73.7676 32.2182 74.1905 32.0898 74.6232 32.0898C75.2034 32.0898 75.7599 32.3203 76.1702 32.7306C76.5804 33.1409 76.8109 33.6973 76.8109 34.2775Z" fill="#263238"/>
<path d="M86.1332 34.2775C86.1332 34.7102 86.0049 35.1332 85.7645 35.4929C85.5241 35.8527 85.1824 36.1331 84.7827 36.2987C84.3829 36.4643 83.9431 36.5076 83.5187 36.4232C83.0943 36.3388 82.7045 36.1304 82.3986 35.8245C82.0926 35.5185 81.8843 35.1287 81.7998 34.7043C81.7154 34.28 81.7588 33.8401 81.9243 33.4403C82.0899 33.0406 82.3703 32.6989 82.7301 32.4585C83.0899 32.2182 83.5128 32.0898 83.9455 32.0898C84.5257 32.0898 85.0822 32.3203 85.4924 32.7306C85.9027 33.1409 86.1332 33.6973 86.1332 34.2775Z" fill="#263238"/>
<path d="M95.4242 34.2775C95.4242 34.7106 95.2957 35.1338 95.0549 35.4938C94.8142 35.8537 94.4721 36.1341 94.0719 36.2994C93.6716 36.4648 93.2314 36.5076 92.8068 36.4226C92.3822 36.3375 91.9924 36.1284 91.6868 35.8216C91.3811 35.5149 91.1734 35.1243 91.0899 34.6995C91.0064 34.2746 91.0508 33.8344 91.2176 33.4348C91.3844 33.0352 91.6661 32.6941 92.0269 32.4547C92.3877 32.2153 92.8114 32.0883 93.2444 32.0899C93.8233 32.092 94.3777 32.3234 94.7862 32.7334C95.1948 33.1435 95.4242 33.6987 95.4242 34.2775Z" fill="#263238"/>
<path d="M332.611 212.288C390.098 212.288 436.7 165.685 436.7 108.199C436.7 50.7117 390.098 4.10938 332.611 4.10938C275.124 4.10938 228.521 50.7117 228.521 108.199C228.521 165.685 275.124 212.288 332.611 212.288Z" fill="#F5F5F5"/>
<path d="M436.667 108.2C436.667 108.2 436.667 107.629 436.604 106.511C436.604 105.949 436.564 105.259 436.541 104.435C436.517 103.61 436.541 102.643 436.398 101.565C436.255 100.487 436.216 99.2588 436.105 97.9272C435.994 96.5956 435.756 95.1292 435.558 93.5518C435.037 89.9252 434.334 86.3273 433.449 82.7719C432.314 78.3269 430.89 73.9607 429.185 69.7014C427.175 64.6286 424.752 59.7295 421.94 55.0534C415.09 43.6159 406.127 33.5853 395.53 25.4959C382.655 15.6963 367.665 9.04574 351.76 6.0763C338.283 3.58465 324.45 3.7435 311.034 6.54396C301.489 8.55743 292.28 11.9259 283.688 16.547C279.238 18.9492 274.961 21.6587 270.887 24.6557C262.486 30.8619 255.072 38.3046 248.899 46.7307C245.724 51.0472 242.891 55.6055 240.426 60.3641C239.832 61.5768 239.15 62.742 238.619 64.0023L236.923 67.7118C235.916 70.2403 234.886 72.7768 234.053 75.3925C232.298 80.6314 230.972 86.0049 230.09 91.4593C229.221 96.9926 228.766 102.583 228.727 108.184C228.763 113.785 229.216 119.375 230.082 124.909C230.968 130.367 232.293 135.746 234.045 140.991L234.711 142.933L235.036 143.908L235.409 144.859C235.937 146.138 236.439 147.409 236.915 148.672L238.595 152.381C239.126 153.626 239.808 154.807 240.402 156.02C242.867 160.781 245.7 165.342 248.876 169.661C252.004 173.888 255.426 177.89 259.117 181.638C262.79 185.269 266.706 188.646 270.84 191.744C274.932 194.737 279.225 197.446 283.688 199.853C288.038 202.166 292.54 204.181 297.163 205.884C301.703 207.508 306.345 208.832 311.058 209.848C324.474 212.649 338.307 212.808 351.784 210.315C367.687 207.341 382.673 200.688 395.545 190.888C406.147 182.801 415.113 172.77 421.964 161.33C424.77 156.652 427.191 151.754 429.201 146.682C430.922 142.428 432.357 138.065 433.497 133.62C434.48 129.601 435.169 125.994 435.613 122.84C435.803 121.255 436.017 119.812 436.16 118.472C436.303 117.133 436.358 115.92 436.445 114.834C436.533 113.748 436.572 112.789 436.588 111.965C436.604 111.14 436.636 110.443 436.652 109.888C436.652 108.77 436.715 108.2 436.715 108.2C436.715 108.2 436.715 108.77 436.715 109.888C436.715 110.443 436.715 111.14 436.667 111.965C436.62 112.789 436.667 113.756 436.541 114.842C436.414 115.928 436.374 117.141 436.271 118.48C436.168 119.82 435.938 121.278 435.748 122.856C435.238 126.49 434.542 130.096 433.663 133.659C432.548 138.117 431.134 142.494 429.431 146.762C427.422 151.864 424.996 156.793 422.178 161.497C415.328 172.974 406.357 183.042 395.744 191.165C382.838 200.999 367.806 207.669 351.855 210.64C338.333 213.147 324.452 212.999 310.987 210.204C301.38 208.197 292.112 204.821 283.466 200.177C278.998 197.766 274.703 195.049 270.61 192.045C266.458 188.937 262.523 185.55 258.831 181.907C255.12 178.145 251.676 174.127 248.527 169.883C245.336 165.546 242.49 160.967 240.014 156.186C239.419 154.973 238.738 153.808 238.199 152.54L236.51 148.815C236.011 147.538 235.512 146.27 235.004 144.994L234.624 144.035L234.299 143.06L233.633 141.102C231.873 135.838 230.548 130.437 229.67 124.956C227.847 113.838 227.847 102.498 229.67 91.38C230.548 85.9013 231.873 80.5038 233.633 75.2419C234.465 72.6183 235.504 70.0818 236.51 67.5375L238.199 63.8121C238.738 62.5597 239.419 61.3787 240.014 60.1659C242.488 55.3867 245.334 50.8096 248.527 46.4771C251.672 42.2296 255.115 38.2113 258.831 34.4527C262.527 30.8287 266.465 27.4601 270.618 24.3704C274.708 21.3526 279.004 18.6245 283.474 16.2062C292.12 11.5632 301.388 8.18637 310.995 6.17934C324.456 3.37394 338.336 3.22316 351.855 5.73547C367.805 8.73385 382.832 15.4223 395.736 25.2661C406.352 33.3867 415.323 43.4558 422.17 54.9345C424.976 59.6277 427.394 64.5426 429.399 69.63C431.102 73.8978 432.516 78.2751 433.632 82.7323C434.607 86.7589 435.28 90.3813 435.716 93.536C435.906 95.1213 436.113 96.5718 436.239 97.9113C436.366 99.2509 436.43 100.472 436.509 101.557C436.588 102.643 436.667 103.634 436.667 104.427C436.667 105.219 436.667 105.949 436.715 106.511C436.667 107.597 436.667 108.2 436.667 108.2Z" fill="#263238"/>
<mask id="mask0_3070_19878" style="mask-type:luminance" maskUnits="userSpaceOnUse" x="238" y="11" width="190" height="163">
<path d="M290.901 144.533C283.366 136.541 278.354 126.506 276.491 115.681C274.627 104.856 275.996 93.7221 280.424 83.6705C284.853 73.6189 292.146 65.0953 301.391 59.1649C310.636 53.2346 321.425 50.1604 332.407 50.3266C343.39 50.4928 354.08 53.892 363.142 60.0994C372.204 66.3068 379.235 75.0471 383.358 85.2281C387.48 95.4091 388.511 106.579 386.321 117.343C384.131 128.106 378.817 137.985 371.044 145.746L399.167 173.203C412.41 160.058 421.463 143.285 425.184 125C428.905 106.715 427.127 87.7376 420.075 70.4622C413.022 53.1867 401.011 38.387 385.556 27.9304C370.102 17.4737 351.897 11.8285 333.238 11.7071C314.578 11.5856 296.301 16.9933 280.712 27.2479C265.123 37.5025 252.92 52.1446 245.643 69.3268C238.366 86.509 236.341 105.462 239.824 123.793C243.306 142.125 252.14 159.015 265.211 172.331L290.901 144.533Z" fill="white"/>
</mask>
<g mask="url(#mask0_3070_19878)">
<path d="M290.901 144.533C283.366 136.541 278.354 126.506 276.491 115.681C274.627 104.856 275.996 93.7221 280.424 83.6705C284.853 73.6189 292.146 65.0953 301.391 59.1649C310.636 53.2346 321.425 50.1604 332.407 50.3266C343.39 50.4928 354.08 53.892 363.142 60.0994C372.204 66.3068 379.235 75.0471 383.358 85.2281C387.48 95.4091 388.511 106.579 386.321 117.343C384.131 128.106 378.817 137.985 371.044 145.746L399.167 173.203C412.41 160.058 421.463 143.285 425.184 125C428.905 106.715 427.127 87.7376 420.075 70.4622C413.022 53.1867 401.011 38.387 385.556 27.9304C370.102 17.4737 351.897 11.8285 333.238 11.7071C314.578 11.5856 296.301 16.9933 280.712 27.2479C265.123 37.5025 252.92 52.1446 245.643 69.3268C238.366 86.509 236.341 105.462 239.824 123.793C243.306 142.125 252.14 159.015 265.211 172.331L290.901 144.533Z" fill="#349F6E"/>
<g opacity="0.8">
<path d="M382.038 105.711H432.838C432.838 105.711 427.702 147.063 426.672 147.832C425.641 148.601 395.592 183.279 395.592 183.279L361.43 142.695L382.038 105.711Z" fill="black"/>
</g>
<g opacity="0.7">
<path d="M368.332 71.5089L404.278 36.2207L429.587 73.982L432.964 105.711H382.647L373.484 85.5386L368.332 71.5089Z" fill="black"/>
</g>
<g opacity="0.5">
<path d="M334.82 58.7072C334.21 57.6768 334.82 7.85156 334.82 7.85156L365.796 11.7434L403.938 36.3628L367.294 72.3168L344.221 68.9798L334.82 58.7072Z" fill="black"/>
</g>
<g opacity="0.3">
<path d="M261.033 38.1635C261.826 38.4172 295.196 74.1176 295.196 74.1176L324.991 62.3073L334.55 50.4177L334.82 7.88477L299.31 11.7766L261.033 38.1635Z" fill="black"/>
</g>
<g opacity="0.1">
<path d="M234.805 105.71C235.597 106.226 291.312 105.71 291.312 105.71L290.329 69.0272L263.427 40.4922L245.077 62.3056L234.805 105.71Z" fill="black"/>
</g>
</g>
<path d="M333.663 129.885C345.64 129.885 355.35 120.175 355.35 108.198C355.35 96.2211 345.64 86.5117 333.663 86.5117C321.686 86.5117 311.977 96.2211 311.977 108.198C311.977 120.175 321.686 129.885 333.663 129.885Z" fill="#E0E0E0"/>
<path d="M327.284 109.65C327.739 111.208 328.792 112.524 330.213 113.309C331.634 114.095 333.307 114.286 334.869 113.843L410.297 92.4414L332.452 101.81C331.565 101.918 330.712 102.218 329.953 102.688C329.194 103.159 328.546 103.788 328.054 104.534C327.562 105.28 327.239 106.124 327.106 107.007C326.973 107.89 327.033 108.792 327.284 109.65Z" fill="#455A64"/>
<path d="M322.084 155.109L317.938 176.154H312.437L314.601 165.057L307.594 174.077H304.978L301.126 165.065L298.907 176.162H293.43L297.639 155.117H302.482L307.467 167.284L316.979 155.109H322.084Z" fill="#263238"/>
<path d="M342.343 159.855L339.093 176.152H333.68L334.012 174.622C332.737 175.817 331.043 176.463 329.296 176.422C325.777 176.422 322.408 173.75 322.408 168.995C322.408 163.589 326.371 159.586 331.246 159.586C333.442 159.586 335.209 160.252 336.24 161.813L336.628 159.855H342.343ZM335.154 167.282C335.191 166.866 335.137 166.446 334.995 166.053C334.853 165.659 334.627 165.301 334.333 165.004C334.038 164.706 333.683 164.477 333.291 164.331C332.899 164.185 332.48 164.127 332.063 164.159C329.804 164.159 328.179 165.99 328.179 168.725C328.142 169.141 328.198 169.56 328.34 169.953C328.483 170.345 328.711 170.702 329.006 170.997C329.301 171.292 329.658 171.519 330.05 171.662C330.443 171.805 330.862 171.861 331.278 171.824C333.569 171.8 335.162 169.993 335.162 167.282H335.154Z" fill="#263238"/>
<path d="M355.025 168.068L359.44 176.153H353.369L351.141 171.889L347.178 176.153H340.758L348.906 167.838L344.602 159.912H350.587L352.75 164.066L356.634 159.912H362.952L355.025 168.068Z" fill="#263238"/>
<path d="M360.962 173.299C360.949 172.815 361.035 172.333 361.215 171.884C361.395 171.434 361.666 171.027 362.01 170.686C362.354 170.345 362.764 170.078 363.215 169.902C363.666 169.725 364.148 169.643 364.632 169.661C365.051 169.637 365.469 169.702 365.862 169.85C366.254 169.998 366.611 170.226 366.909 170.52C367.208 170.814 367.442 171.168 367.596 171.558C367.749 171.947 367.82 172.365 367.803 172.784C367.815 173.265 367.729 173.744 367.55 174.19C367.372 174.637 367.104 175.043 366.764 175.383C366.424 175.724 366.018 175.991 365.571 176.17C365.124 176.348 364.646 176.434 364.165 176.422C363.746 176.44 363.329 176.371 362.937 176.221C362.546 176.072 362.19 175.844 361.89 175.551C361.59 175.259 361.353 174.908 361.194 174.521C361.034 174.134 360.955 173.718 360.962 173.299Z" fill="#263238"/>
<path d="M323.177 191.894H329.748L329.431 193.527H319.99L320.252 192.251L326.648 187.131C328.416 185.704 328.939 184.84 328.939 183.77C328.939 182.7 328.146 181.876 326.371 181.876C325.735 181.875 325.106 182.005 324.521 182.255C323.936 182.506 323.409 182.873 322.971 183.334L321.734 182.248C322.368 181.589 323.133 181.07 323.979 180.723C324.825 180.377 325.734 180.21 326.648 180.235C329.312 180.235 330.834 181.59 330.834 183.524C330.834 185.046 330.176 186.362 327.925 188.137L323.177 191.894Z" fill="#263238"/>
<path d="M336.003 182.02L334.917 185.626H336.193C339.554 185.626 341.076 187.013 341.076 189.137C341.076 191.856 338.841 193.679 335.48 193.679C334.642 193.732 333.802 193.613 333.011 193.329C332.221 193.046 331.496 192.604 330.883 192.031L331.874 190.58C332.363 191.066 332.949 191.444 333.593 191.69C334.238 191.935 334.926 192.043 335.615 192.007C337.882 192.007 339.198 191.016 339.198 189.344C339.198 188.052 338.262 187.259 335.861 187.259H332.69L334.735 180.387H342.154L341.829 182.02H336.003Z" fill="#263238"/>
<path d="M342.873 188.85C342.873 184.293 345.449 180.234 349.523 180.234C352.282 180.234 353.954 182.018 353.954 185.062C353.954 189.627 351.362 193.678 347.328 193.678C344.546 193.678 342.873 191.894 342.873 188.85ZM352.076 185.101C352.076 183.017 351.061 181.931 349.373 181.931C346.408 181.931 344.752 185.783 344.752 188.842C344.752 190.927 345.766 192.013 347.478 192.013C350.419 192.005 352.076 188.161 352.076 185.101Z" fill="#263238"/>
<path d="M446.131 322.815L449.5 328.252L458.076 318.344L453.558 313.549L446.131 322.815Z" fill="#349F6E"/>
<path d="M457.316 317.33C456.996 317.885 456.61 318.399 456.166 318.86C455.374 319.763 454.319 320.976 453.091 322.292L449.92 325.637C449.509 326.126 449.047 326.57 448.541 326.961C448.87 326.413 449.258 325.902 449.698 325.439C450.491 324.535 451.553 323.322 452.774 322.007L455.944 318.662C456.355 318.173 456.815 317.727 457.316 317.33Z" fill="#263238"/>
<path d="M449.422 317.844C450.214 318.327 450.925 318.932 451.53 319.635C452.235 320.236 452.847 320.939 453.345 321.72C452.557 321.231 451.846 320.628 451.237 319.928C450.535 319.325 449.923 318.622 449.422 317.844Z" fill="#263238"/>
<g opacity="0.6">
<path d="M449.501 328.253L458.077 318.345L457.229 317.434L448.471 327.056L449.39 328.158" fill="white"/>
</g>
<path d="M378.472 335.806V334.467L392.018 334.57V338.977L391.225 339.024C387.5 339.199 372.281 339.651 369.824 338.937C366.986 338.137 378.472 335.806 378.472 335.806Z" fill="#349F6E"/>
<g opacity="0.6">
<path d="M387.127 338.848C387.346 337.77 387.97 336.817 388.871 336.185C389.79 335.525 390.913 335.211 392.041 335.297V338.801L387.127 338.848Z" fill="white"/>
</g>
<g opacity="0.6">
<path d="M372.86 337.129C372.86 337.129 368.833 338.183 369.325 338.801C369.816 339.42 385.217 339.499 392.01 338.976V338.698L374.049 338.746C374.049 338.746 373.645 337.161 372.86 337.129Z" fill="white"/>
</g>
<path d="M392.208 338.691H391.97H391.304L388.855 338.779C386.786 338.834 383.925 338.882 380.762 338.866C377.599 338.85 374.738 338.787 372.669 338.707L370.22 338.596L369.554 338.557H369.324H370.22L372.669 338.612C374.746 338.668 377.599 338.715 380.762 338.731C383.925 338.747 386.778 338.731 388.855 338.731L391.304 338.691H392.208Z" fill="#263238"/>
<path d="M374.049 338.944C373.947 338.563 373.798 338.195 373.605 337.85C373.376 337.53 373.11 337.238 372.812 336.979C373.222 337.113 373.567 337.396 373.779 337.771C374.02 338.112 374.117 338.533 374.049 338.944Z" fill="#263238"/>
<path d="M378.012 337.09C378.012 337.09 377.79 336.892 377.592 336.607C377.393 336.321 377.275 336.06 377.314 336.044C377.354 336.028 377.536 336.234 377.734 336.527C377.933 336.821 378.067 337.066 378.012 337.09Z" fill="#263238"/>
<path d="M379.129 336.559C379.129 336.559 378.884 336.456 378.654 336.258C378.424 336.06 378.265 335.877 378.297 335.846C378.475 335.907 378.635 336.011 378.765 336.147C378.995 336.345 379.161 336.527 379.129 336.559Z" fill="#263238"/>
<path d="M379.827 335.377C379.6 335.453 379.359 335.48 379.121 335.457C378.886 335.48 378.649 335.456 378.424 335.385C378.647 335.305 378.886 335.278 379.121 335.306C379.359 335.278 379.6 335.303 379.827 335.377Z" fill="#263238"/>
<path d="M380.072 334.546C379.831 334.686 379.557 334.757 379.279 334.752C379.01 334.793 378.736 334.757 378.486 334.649C378.749 334.609 379.014 334.593 379.279 334.601C379.54 334.554 379.806 334.535 380.072 334.546Z" fill="#263238"/>
<path d="M377.585 335.987C377.299 336.04 377.006 336.04 376.721 335.987C376.409 335.952 376.101 335.888 375.801 335.797C375.617 335.747 375.439 335.678 375.27 335.591C375.22 335.565 375.174 335.529 375.138 335.485C375.101 335.442 375.073 335.391 375.056 335.337C375.045 335.277 375.051 335.214 375.075 335.158C375.099 335.101 375.14 335.053 375.191 335.02C375.522 334.869 375.892 334.83 376.247 334.909C376.602 334.987 376.921 335.179 377.157 335.456C377.285 335.615 377.379 335.798 377.434 335.995C377.434 336.137 377.434 336.217 377.434 336.217C377.351 335.963 377.219 335.729 377.046 335.527C376.849 335.312 376.597 335.156 376.317 335.075C375.975 334.965 375.604 334.988 375.278 335.139C375.143 335.226 375.191 335.376 375.342 335.464C375.498 335.546 375.663 335.612 375.833 335.662C376.124 335.754 376.421 335.829 376.721 335.884C377.22 335.963 377.585 335.963 377.585 335.987Z" fill="#263238"/>
<path d="M377.362 336.028C377.308 335.947 377.273 335.856 377.256 335.761C377.24 335.665 377.243 335.567 377.266 335.473C377.296 335.261 377.378 335.06 377.504 334.887C377.582 334.763 377.69 334.661 377.817 334.589C377.944 334.517 378.087 334.478 378.233 334.475C378.275 334.481 378.315 334.496 378.351 334.519C378.388 334.541 378.419 334.571 378.443 334.606C378.467 334.64 378.485 334.68 378.494 334.721C378.502 334.763 378.503 334.805 378.495 334.847C378.473 334.978 378.421 335.103 378.344 335.212C378.227 335.389 378.089 335.552 377.932 335.695C377.793 335.841 377.622 335.952 377.433 336.02C377.433 336.02 377.607 335.878 377.845 335.624C377.984 335.475 378.109 335.313 378.218 335.14C378.336 334.966 378.416 334.665 378.218 334.625C378.019 334.586 377.782 334.808 377.647 334.966C377.52 335.117 377.433 335.296 377.393 335.489C377.359 335.667 377.348 335.848 377.362 336.028Z" fill="#263238"/>
<path d="M391.962 335.259C391.962 335.259 391.573 335.259 390.963 335.259C390.181 335.331 389.43 335.604 388.783 336.051C388.164 336.501 387.687 337.12 387.412 337.835C387.198 338.366 387.174 338.731 387.143 338.723C387.127 338.639 387.127 338.553 387.143 338.469C387.171 338.239 387.224 338.014 387.301 337.795C387.565 337.051 388.045 336.402 388.68 335.933C389.35 335.462 390.138 335.188 390.955 335.14C391.203 335.117 391.452 335.117 391.7 335.14C391.793 335.167 391.881 335.207 391.962 335.259Z" fill="#263238"/>
<path d="M385.438 337.621C384.126 337.845 382.786 337.845 381.475 337.621C381.475 337.573 382.354 337.621 383.44 337.621C384.526 337.621 385.43 337.581 385.438 337.621Z" fill="#263238"/>
<path d="M388.079 337.63C388.079 337.63 388.008 337.805 387.913 337.995C387.818 338.185 387.778 338.343 387.731 338.343C387.683 338.343 387.659 338.145 387.731 337.931C387.802 337.717 388.056 337.606 388.079 337.63Z" fill="#263238"/>
<path d="M389.108 336.487C389.108 336.487 389.052 336.646 388.909 336.772C388.767 336.899 388.632 336.986 388.6 336.955C388.569 336.923 388.656 336.796 388.798 336.669C388.941 336.543 389.052 336.455 389.108 336.487Z" fill="#263238"/>
<path d="M390.521 335.964C390.521 336.004 390.33 336.004 390.132 336.067C389.934 336.131 389.791 336.234 389.752 336.202C389.712 336.17 389.831 336.004 390.077 335.925C390.322 335.845 390.536 335.925 390.521 335.964Z" fill="#263238"/>
<path d="M391.535 335.718C391.535 335.758 391.472 335.821 391.361 335.861C391.25 335.901 391.147 335.908 391.131 335.861C391.115 335.813 391.194 335.758 391.305 335.718C391.416 335.679 391.488 335.687 391.535 335.718Z" fill="#263238"/>
<path d="M372.9 159.753L351.982 138.558L354.637 110.95L355.113 110.403C355.374 110.102 355.668 109.769 356.016 109.404C356.42 108.992 356.888 108.649 357.404 108.39C358.032 108.04 358.704 107.774 359.401 107.597C360.059 107.51 360.273 106.678 359.75 106.4C359.227 106.123 357.419 106.337 355.612 107.478C353.805 108.62 354.907 105.489 355.279 104.308C355.652 103.127 356.666 99.5519 356.397 99.1636C356.016 98.6008 355.319 98.9178 354.962 100.067C354.606 101.216 353.314 104.625 352.711 104.411C352.109 104.197 354.13 98.3709 354.13 98.3709C354.13 98.3709 354.764 97.1978 354.074 96.9283C352.838 96.4369 351.165 102.778 351.015 103.38C350.92 103.8 350.222 103.594 350.389 103.151C350.555 102.707 352.529 97.3801 351.269 96.8728C350.309 96.4844 349.842 102.073 348.811 102.96C347.781 103.848 349.604 98.7514 348.669 98.4185C348.32 98.2916 348.035 98.2441 347.416 101.312C346.908 103.424 346.511 105.562 346.227 107.716L339.648 140.698L360.257 167.957L372.9 159.753Z" fill="#FFBE9D"/>
<path d="M383.561 99.0676C382.697 99.559 385.4 104.251 384.227 103.57C383.053 102.888 381.595 97.4585 380.723 98.0213C379.574 98.7505 382.499 103.609 382.713 104.037C382.927 104.465 382.308 104.783 382.134 104.378C381.88 103.808 379.098 97.8786 377.973 98.5761C377.346 98.9645 378.179 100.011 378.179 100.011C378.179 100.011 381.191 105.385 380.652 105.694C380.113 106.003 378.218 102.92 377.656 101.826C377.093 100.732 376.364 100.566 376.07 101.192C375.88 101.62 377.513 104.989 378.092 106.051C378.67 107.113 380.303 110.014 378.321 109.221C376.34 108.429 374.525 108.54 374.065 108.904C373.605 109.269 373.962 110.046 374.62 110.014C375.338 110.063 376.047 110.207 376.728 110.442C377.299 110.612 377.835 110.88 378.313 111.235C378.718 111.528 379.066 111.805 379.376 112.027L379.946 112.479L391.249 140.348L380.985 164.246L396.901 170.175L404.035 138.565L387.635 107.81C386.97 105.744 386.195 103.714 385.313 101.731C384.155 98.7902 383.886 98.8774 383.561 99.0676Z" fill="#FFBE9D"/>
<path d="M419.072 268.401L408.768 215.215L394.167 216.475V216.348L367.503 218.766C367.503 218.766 366.251 279.847 365.807 279.847L373.115 335.529L394.167 334.57L386.035 279.141L389.031 234.666L389.633 233.874L401.792 279.331L443.271 326.271L456.746 313.209L419.072 268.401Z" fill="#455A64"/>
<path d="M386.565 270.746C386.546 270.593 386.546 270.439 386.565 270.286C386.565 269.945 386.565 269.494 386.613 268.986C386.668 267.805 386.755 266.188 386.858 264.231C387.112 260.148 387.461 254.608 387.841 248.481C388.23 242.932 388.586 237.844 388.856 233.96V233.912L392.51 229.568L393.524 228.403C393.762 228.134 393.889 227.999 393.905 228.015C393.815 228.171 393.711 228.32 393.596 228.459L392.645 229.679L389.109 234.055V233.968C388.864 237.852 388.547 242.932 388.198 248.489C387.77 254.616 387.405 260.148 387.096 264.231C386.938 266.204 386.811 267.813 386.716 268.986C386.66 269.51 386.621 269.938 386.589 270.278C386.601 270.435 386.593 270.592 386.565 270.746Z" fill="#263238"/>
<path d="M394.136 216.348C394.344 218.035 394.413 219.737 394.342 221.436C394.413 223.135 394.344 224.837 394.136 226.525C393.861 223.138 393.861 219.735 394.136 216.348Z" fill="#263238"/>
<path d="M376.159 220.946C376.373 220.884 376.594 220.847 376.817 220.835L378.758 220.605C380.447 220.407 382.88 220.137 385.797 219.812H385.995V220.011C385.995 222.515 385.995 225.393 385.995 228.46V228.587L385.884 228.642L385.734 228.714L380.669 231.25L380.566 231.298L380.478 231.242L376.071 228.635L375.992 228.579V228.492C375.992 226.233 376.056 224.354 376.071 222.943L376.119 221.453C376.099 221.287 376.099 221.12 376.119 220.954C376.143 221.141 376.156 221.328 376.159 221.517C376.159 221.921 376.159 222.428 376.159 223.046C376.159 224.41 376.206 226.257 376.246 228.476L376.159 228.325L380.597 230.886H380.415L385.496 228.365L385.647 228.286L385.528 228.476C385.528 225.409 385.528 222.531 385.528 220.027L385.734 220.209C382.88 220.462 380.486 220.653 378.782 220.78L376.793 220.922C376.582 220.94 376.37 220.947 376.159 220.946Z" fill="#263238"/>
<path d="M396.686 218.948C396.902 218.892 397.122 218.858 397.344 218.845L399.286 218.607C400.975 218.409 403.408 218.139 406.325 217.814H406.523V218.021C406.523 220.517 406.523 223.403 406.523 226.462V226.589L406.404 226.644L406.254 226.724L401.165 229.228L401.07 229.268L400.975 229.221L396.568 226.605L396.488 226.557V226.494C396.488 224.235 396.552 222.356 396.575 220.945V219.447C396.557 219.281 396.557 219.114 396.575 218.948C396.599 219.135 396.612 219.323 396.615 219.511C396.615 219.923 396.615 220.422 396.615 221.04C396.615 222.404 396.663 224.251 396.702 226.47L396.615 226.327L401.054 228.888H400.998L406.079 226.367L406.23 226.296L406.111 226.478C406.111 223.418 406.111 220.533 406.111 218.036L406.309 218.219C403.456 218.472 401.062 218.663 399.358 218.789L397.368 218.932C397.141 218.951 396.914 218.956 396.686 218.948Z" fill="#263238"/>
<path d="M386.001 222.133C382.738 222.561 379.445 222.714 376.156 222.593C377.779 222.308 379.423 222.162 381.071 222.157C382.711 222.013 384.36 222.005 386.001 222.133Z" fill="#263238"/>
<path d="M406.35 220.261C403.155 220.776 399.923 221.022 396.688 220.998C398.272 220.667 399.881 220.473 401.499 220.42C403.109 220.233 404.731 220.18 406.35 220.261Z" fill="#263238"/>
<path d="M384.352 278.674C381.2 279.339 377.997 279.731 374.777 279.847C377.929 279.182 381.133 278.79 384.352 278.674Z" fill="#263238"/>
<path d="M417.738 269.549C417.738 269.668 415.456 270.476 412.832 271.927C410.208 273.377 408.298 274.931 408.211 274.836C408.547 274.411 408.945 274.04 409.392 273.734C410.412 272.923 411.496 272.197 412.634 271.562C413.771 270.94 414.956 270.41 416.177 269.977C416.671 269.751 417.198 269.606 417.738 269.549Z" fill="#263238"/>
<path d="M372.899 85.4028C372.843 85.3081 372.793 85.2102 372.749 85.1095L372.321 84.2376C372.139 83.8572 371.925 83.3657 371.639 82.8188L370.609 80.9244C370.212 80.2269 369.713 79.4739 369.198 78.6337C368.683 77.7935 368.025 76.9454 367.343 76.0259C365.75 73.9689 363.998 72.0395 362.104 70.2555C357.131 65.6311 351.194 62.1684 344.721 60.1177C340.907 58.9187 336.94 58.2753 332.943 58.2074C324.315 58.0193 315.812 60.2813 308.418 64.7308C304.986 66.786 301.864 69.3188 299.144 72.253C294.547 77.2519 291.115 83.2073 289.094 89.691C288.34 92.1779 287.778 94.7192 287.413 97.2924C287.279 98.4259 287.176 99.4959 287.104 100.463C287.033 101.43 287.009 102.341 287.017 103.15C287.025 103.958 287.017 104.672 287.065 105.298C287.112 105.924 287.152 106.447 287.176 106.883C287.199 107.319 287.231 107.613 287.247 107.85C287.254 107.961 287.254 108.072 287.247 108.183C287.22 108.076 287.202 107.968 287.192 107.858C287.192 107.62 287.128 107.295 287.088 106.891C287.049 106.487 286.97 105.94 286.93 105.306C286.89 104.672 286.882 103.958 286.851 103.15C286.819 102.341 286.851 101.438 286.898 100.447C286.946 99.4563 287.049 98.3941 287.176 97.2765C287.5 94.681 288.03 92.1154 288.761 89.6038C290.761 83.0615 294.194 77.0475 298.812 71.9993C301.546 69.0308 304.694 66.4708 308.157 64.3979C315.609 59.8946 324.19 57.6097 332.895 57.8111C336.931 57.8864 340.936 58.5431 344.785 59.761C351.305 61.8513 357.276 65.3718 362.262 70.0653C364.154 71.8725 365.9 73.8258 367.486 75.907C368.167 76.8423 368.778 77.7222 369.325 78.5544C369.872 79.3867 370.323 80.1397 370.712 80.8689L371.71 82.7871C371.988 83.342 372.186 83.8334 372.36 84.2297C372.535 84.626 372.654 84.9035 372.749 85.1175C372.806 85.2087 372.856 85.304 372.899 85.4028Z" fill="#263238"/>
<path d="M363.935 83.2165C363.793 83.0755 363.668 82.9185 363.562 82.7488C363.325 82.4318 363.016 81.9562 362.548 81.3538C361.276 79.6598 359.871 78.0696 358.347 76.598C356.095 74.4285 353.594 72.534 350.896 70.9544C344.265 67.0285 336.595 65.2174 328.908 65.7626C325.789 65.969 322.706 66.5437 319.722 67.4747C317.704 68.1115 315.74 68.9067 313.848 69.8526C313.174 70.1617 312.675 70.463 312.318 70.6453C312.143 70.7467 311.96 70.8342 311.771 70.9068C311.928 70.7784 312.099 70.6668 312.279 70.5739C312.62 70.3758 313.071 70.0508 313.777 69.7179C315.65 68.7175 317.607 67.8846 319.627 67.229C326.333 65.0314 333.515 64.727 340.383 66.3492C347.252 67.9715 353.539 71.4576 358.553 76.4236C360.066 77.9117 361.445 79.5296 362.675 81.2587C363.127 81.8611 363.412 82.3684 363.634 82.7013C363.744 82.8673 363.844 83.0393 363.935 83.2165Z" fill="#263238"/>
<path d="M404.042 176.194L400.356 195.352C408.037 206.037 408.734 215.168 408.734 215.168L367.469 218.719C368.262 212.243 372.225 198.237 372.225 198.237L366.233 177.787L354.232 162.18L366.122 151.448C365.892 152.05 377.29 158.645 377.29 158.645L393.666 158.787C394.471 158.87 395.267 159.027 396.044 159.255L404.042 138.512C404.042 138.512 410.224 147.611 408.156 158.779C406.673 166.706 406.959 168.584 404.042 176.218" fill="#349F6E"/>
<path d="M374.114 161.639C374.347 161.847 374.55 162.087 374.716 162.352C375.208 163.056 375.623 163.81 375.953 164.603C376.432 165.789 376.701 167.05 376.745 168.329C376.811 169.911 376.475 171.484 375.77 172.902C375.074 174.335 373.971 175.531 372.6 176.342C371.475 176.987 370.202 177.328 368.906 177.333C368.042 177.341 367.185 177.177 366.386 176.849C366.168 176.76 365.958 176.651 365.759 176.524C365.625 176.445 365.553 176.39 365.561 176.382C366.618 176.832 367.757 177.056 368.906 177.04C370.14 176.992 371.344 176.641 372.41 176.017C373.698 175.223 374.734 174.08 375.398 172.72C376.073 171.362 376.405 169.86 376.365 168.344C376.329 167.103 376.088 165.877 375.651 164.714C375.215 163.652 374.701 162.624 374.114 161.639Z" fill="#263238"/>
<path d="M402.622 175.59C402.551 175.59 402.907 174.797 403.256 173.537C404.167 170.199 403.887 166.648 402.464 163.494C401.917 162.289 401.449 161.608 401.504 161.568C401.56 161.528 401.663 161.711 401.893 162.012C402.195 162.44 402.46 162.894 402.686 163.367C403.484 164.942 403.969 166.657 404.112 168.416C404.252 170.175 404.044 171.945 403.502 173.624C403.345 174.132 403.143 174.625 402.9 175.098C402.757 175.431 402.646 175.606 402.622 175.59Z" fill="#263238"/>
<g opacity="0.3">
<path d="M397.091 194.201C396.86 194.025 396.587 193.912 396.299 193.876C396.01 193.84 395.718 193.881 395.45 193.995C394.55 194.29 393.62 194.481 392.676 194.566C390.909 194.605 389.315 193.607 387.683 192.925C386.05 192.243 383.981 191.942 382.689 193.147C382.227 193.6 381.934 194.198 381.858 194.841C381.781 195.483 381.926 196.133 382.269 196.682C382.679 197.265 383.298 197.668 383.997 197.808C388.119 198.973 391.662 198.117 395.696 196.5C396.202 196.342 396.659 196.055 397.02 195.667C397.201 195.47 397.307 195.215 397.32 194.947C397.333 194.679 397.252 194.415 397.091 194.201Z" fill="black"/>
</g>
<g opacity="0.3">
<path d="M366.813 151.286C365.025 153.445 364.116 156.199 364.268 158.998C364.538 161.757 366.408 164.436 369.088 165.149C370.927 165.633 372.932 165.197 374.731 165.807C378.052 166.925 379.812 171.276 383.308 171.586C386.478 171.871 388.769 168.677 391.717 167.503C393.288 167.019 394.907 166.705 396.545 166.568C399.897 166.021 403.195 164.404 405.153 161.63C407.11 158.856 407.428 154.813 405.39 152.118C403.211 149.217 399.168 148.504 395.546 148.504C390.042 148.505 384.593 149.605 379.519 151.738C378.408 152.15 377.377 152.753 376.475 153.521C376.023 153.907 375.66 154.386 375.409 154.925C375.159 155.464 375.028 156.05 375.024 156.644" fill="black"/>
</g>
<path d="M413.998 149.092C413.9 148.368 413.61 147.682 413.159 147.106C412.707 146.531 412.11 146.086 411.429 145.819C409.844 145.209 407.974 145.644 406.42 144.955C404.478 144.091 403.662 141.784 403.17 139.747C402.679 137.71 402.211 135.396 400.539 134.088C399.381 133.184 397.851 132.915 396.575 132.138C394.728 131.004 393.722 128.928 392.462 127.16C391.978 126.482 391.41 125.866 390.773 125.329L390.702 125.226C388.015 121.992 380.857 121.572 377.766 124.433L377.885 124.323C372.115 124.758 368.453 134.08 368.373 139.985C368.373 143.663 369.523 147.507 368.135 150.908C367.343 152.889 365.71 154.482 365.092 156.527C364.668 157.933 364.753 159.442 365.332 160.791C365.91 162.14 366.945 163.242 368.255 163.904C369.565 164.566 371.066 164.746 372.495 164.411C373.924 164.077 375.189 163.25 376.07 162.076C375.983 163.574 377.219 164.898 378.63 165.405C380.079 165.812 381.598 165.904 383.085 165.674C386.255 165.413 389.981 164.882 391.621 162.1C392.723 163.756 394.887 164.43 396.869 164.287C398.804 164.245 400.716 163.853 402.512 163.13C402.436 163.027 402.367 162.918 402.306 162.805C402.603 162.694 402.89 162.556 403.162 162.393C404.684 161.466 405.627 159.452 404.914 157.811L406.642 159.817C408.11 158.972 409.215 157.616 409.747 156.008C410.279 154.399 410.201 152.652 409.527 151.098C410.544 151.519 411.467 152.135 412.246 152.913C412.853 152.491 413.336 151.914 413.644 151.242C413.952 150.57 414.074 149.828 413.998 149.092Z" fill="#263238"/>
<path d="M413.269 151.548C413.363 150.901 413.232 150.24 412.897 149.678C412.499 149.029 411.916 148.513 411.224 148.196C410.288 147.809 409.295 147.579 408.284 147.514C407.024 147.445 405.782 147.178 404.606 146.721C403.946 146.424 403.369 145.969 402.926 145.398C402.47 144.791 402.124 144.11 401.903 143.384C401.412 141.926 401.301 140.317 400.817 138.787C400.588 138.008 400.223 137.276 399.739 136.623C399.245 135.977 398.542 135.523 397.75 135.339C396.957 135.141 396.069 135.157 395.205 134.982C394.337 134.827 393.542 134.396 392.938 133.754C391.733 132.509 391.258 130.908 390.727 129.521C390.292 128.185 389.564 126.963 388.595 125.946C387.545 124.864 386.225 124.082 384.771 123.682C383.317 123.282 381.783 123.278 380.327 123.671C379.697 123.854 379.078 124.074 378.473 124.329C378.611 124.224 378.76 124.134 378.917 124.06C379.355 123.835 379.814 123.651 380.288 123.513C382.049 122.986 383.934 123.041 385.662 123.671C386.854 124.109 387.936 124.801 388.832 125.701C389.855 126.74 390.626 128.001 391.084 129.386C391.622 130.789 392.106 132.327 393.232 133.468C393.778 134.052 394.498 134.443 395.284 134.586C396.077 134.745 396.957 134.721 397.845 134.943C398.73 135.159 399.514 135.674 400.064 136.401C400.58 137.091 400.965 137.87 401.198 138.7C401.697 140.285 401.792 141.87 402.268 143.297C402.427 143.974 402.732 144.607 403.16 145.155C403.588 145.702 404.13 146.15 404.749 146.468C405.889 146.917 407.092 147.184 408.315 147.26C409.357 147.352 410.376 147.62 411.328 148.053C412.045 148.394 412.639 148.948 413.032 149.638C413.283 150.076 413.404 150.577 413.38 151.081C413.367 151.241 413.329 151.399 413.269 151.548Z" fill="#455A64"/>
<path d="M403.138 162.972C403.138 162.972 403.304 162.9 403.574 162.71C403.959 162.423 404.238 162.016 404.366 161.553C404.595 160.827 404.547 160.042 404.232 159.349C403.745 158.462 403.017 157.73 402.131 157.241C401.18 156.638 400.007 156.187 398.85 155.449C398.243 155.075 397.707 154.598 397.264 154.039C396.793 153.427 396.446 152.73 396.242 151.986C395.925 150.417 395.721 148.828 395.632 147.23C395.433 145.644 394.942 143.909 393.531 142.934C392.12 141.959 390.36 141.681 389.1 140.397C388.038 139.159 387.367 137.634 387.174 136.014C386.928 134.508 386.825 133.073 386.484 131.789C386.169 130.6 385.631 129.481 384.899 128.492C383.817 127.056 382.384 125.923 380.738 125.202C379.565 124.719 378.859 124.624 378.867 124.576C379.038 124.578 379.208 124.599 379.375 124.64C379.861 124.738 380.339 124.879 380.801 125.06C382.51 125.737 384.005 126.862 385.129 128.317C385.906 129.326 386.479 130.475 386.817 131.702C387.182 133.018 387.293 134.468 387.555 135.943C387.738 137.487 388.379 138.941 389.393 140.12C390.495 141.285 392.279 141.57 393.777 142.601C394.51 143.13 395.078 143.855 395.418 144.693C395.736 145.488 395.944 146.323 396.036 147.174C396.115 148.747 396.305 150.313 396.606 151.859C396.781 152.552 397.091 153.204 397.518 153.777C397.934 154.311 398.441 154.767 399.016 155.124C400.126 155.846 401.299 156.321 402.274 156.955C403.195 157.483 403.941 158.268 404.422 159.214C404.756 159.967 404.784 160.819 404.501 161.592C404.341 162.074 404.023 162.488 403.598 162.765C403.459 162.863 403.303 162.933 403.138 162.972Z" fill="#455A64"/>
<path d="M383.996 164.706C384.331 164.245 384.514 163.691 384.519 163.121C384.519 162.47 384.379 161.827 384.107 161.235C383.806 160.529 383.315 159.792 382.902 158.857C382.425 157.871 382.308 156.75 382.57 155.686C382.934 154.507 383.423 153.37 384.028 152.294C384.684 151.143 385.041 149.845 385.066 148.521C385.037 147.103 384.551 145.732 383.679 144.613C382.807 143.44 381.729 142.449 380.881 141.292C380.453 140.728 380.106 140.106 379.851 139.445C379.625 138.804 379.489 138.134 379.447 137.456C379.4 136.22 379.496 134.983 379.732 133.77C379.938 132.722 380.088 131.663 380.184 130.599C380.369 129.081 380.075 127.543 379.343 126.2C379.044 125.728 378.684 125.296 378.273 124.916C378.408 124.98 378.531 125.066 378.638 125.17C378.967 125.437 379.25 125.756 379.478 126.113C380.29 127.466 380.641 129.046 380.477 130.615C380.395 131.678 380.26 132.736 380.073 133.786C379.852 134.972 379.77 136.179 379.827 137.384C379.869 138.029 380.003 138.664 380.223 139.271C380.468 139.895 380.799 140.482 381.206 141.014C381.999 142.124 383.109 143.107 384.012 144.328C384.931 145.517 385.442 146.971 385.471 148.473C385.441 149.866 385.062 151.228 384.369 152.436C383.768 153.488 383.277 154.598 382.902 155.75C382.633 156.751 382.729 157.816 383.172 158.754C383.56 159.634 384.028 160.394 384.321 161.132C384.586 161.76 384.708 162.44 384.678 163.121C384.659 163.552 384.528 163.97 384.297 164.334C384.221 164.476 384.119 164.602 383.996 164.706Z" fill="#455A64"/>
<path d="M370.086 164.057C369.98 163.951 369.901 163.82 369.856 163.677C369.712 163.261 369.712 162.808 369.856 162.393C370.085 161.74 370.505 161.171 371.061 160.76C371.779 160.254 372.457 159.695 373.09 159.087C373.783 158.299 374.234 157.327 374.39 156.289C374.537 155.089 374.342 153.872 373.827 152.778C373.222 151.518 372.949 150.123 373.035 148.728C373.315 147.27 373.823 145.866 374.541 144.566C375.227 143.306 375.592 141.896 375.603 140.46C375.47 139.111 375.182 137.781 374.747 136.497C374.009 134.261 373.942 131.858 374.557 129.585C375.002 128.06 375.904 126.707 377.141 125.709C377.475 125.445 377.836 125.216 378.219 125.028C378.35 124.954 378.492 124.901 378.639 124.869C378.143 125.154 377.669 125.474 377.22 125.828C376.068 126.846 375.241 128.18 374.842 129.665C374.289 131.885 374.385 134.219 375.119 136.386C375.576 137.686 375.876 139.035 376.015 140.405C376.018 141.909 375.641 143.389 374.921 144.709C374.23 145.972 373.733 147.332 373.447 148.743C373.376 150.079 373.649 151.411 374.24 152.611C374.482 153.21 374.665 153.832 374.786 154.466C374.889 155.075 374.889 155.696 374.786 156.305C374.608 157.404 374.112 158.426 373.36 159.246C372.71 159.859 372.007 160.414 371.259 160.902C370.724 161.279 370.308 161.802 370.062 162.408C369.905 162.79 369.875 163.213 369.975 163.613C370.031 163.922 370.126 164.049 370.086 164.057Z" fill="#455A64"/>
<path d="M42.7281 317.551C42.7625 317.429 42.8103 317.312 42.8707 317.202L43.3384 316.195C43.9139 314.9 44.3779 313.558 44.7255 312.184C45.637 308.618 45.9541 303.172 44.6066 296.696C43.8743 293.171 42.9132 289.697 41.7293 286.297C40.5166 282.603 39.1057 278.688 37.9485 274.455C36.6461 270.035 36.0181 265.444 36.0858 260.837C36.2601 256.018 37.671 251.207 39.2563 246.427C40.8416 241.648 42.4269 236.916 42.9183 232.231C43.468 227.702 42.569 223.115 40.3501 219.129C38.2734 215.3 35.6657 212.035 33.7078 208.642C31.8956 205.499 30.56 202.103 29.7447 198.568C28.5673 193.438 28.4836 188.117 29.4989 182.953C29.8427 181.055 30.3737 179.197 31.0842 177.404C31.0633 177.528 31.0315 177.65 30.9891 177.769L30.6562 178.831C30.2477 180.186 29.9116 181.562 29.6495 182.953C28.7111 188.101 28.846 193.387 30.0459 198.481C30.8641 201.978 32.1999 205.333 34.009 208.436C35.9589 211.781 38.5826 215.039 40.6989 218.907C42.9821 222.969 43.9226 227.65 43.386 232.279C42.8945 237.074 41.2617 241.79 39.7002 246.546C38.1387 251.302 36.7278 256.058 36.5296 260.814C36.4614 265.371 37.0759 269.913 38.3527 274.288C39.4862 278.497 40.8812 282.421 42.086 286.123C43.2603 289.543 44.203 293.038 44.9078 296.585C46.2236 303.109 45.8511 308.61 44.9078 312.184C44.54 313.564 44.0465 314.906 43.4335 316.195C43.2116 316.607 43.0451 316.932 42.9183 317.178C42.8638 317.307 42.8002 317.431 42.7281 317.551Z" fill="#263238"/>
<path d="M36.3322 211.987C36.3322 211.987 32.369 199.305 39.5028 191.862C39.5545 191.788 39.628 191.732 39.7131 191.701C39.7983 191.671 39.8908 191.668 39.9779 191.692C40.0649 191.716 40.1423 191.767 40.1992 191.837C40.2561 191.908 40.2897 191.994 40.2954 192.084C40.6204 194.177 41.096 200.558 36.3322 211.987Z" fill="#349F6E"/>
<path d="M38.7098 196.094C38.7038 196.894 38.6135 197.691 38.4403 198.472C38.1787 200.057 37.8775 201.975 37.5367 204.068C37.1959 206.16 36.9026 208.031 36.649 209.664C36.5806 210.449 36.44 211.227 36.2289 211.986C36.1585 211.193 36.1824 210.395 36.3002 209.608C36.427 208.158 36.6886 206.16 37.0453 203.973C37.402 201.785 37.7904 199.811 38.0995 198.424C38.2159 197.627 38.4206 196.846 38.7098 196.094Z" fill="#263238"/>
<path d="M40.9922 241.919C40.9922 241.919 43.4177 228.848 53.1909 225.606C53.2679 225.578 53.3512 225.573 53.4312 225.59C53.5113 225.607 53.585 225.646 53.6437 225.703C53.7024 225.76 53.7439 225.833 53.7634 225.913C53.7828 225.992 53.7794 226.076 53.7537 226.153C53.1116 228.182 50.5435 234.048 40.9922 241.919Z" fill="#349F6E"/>
<path d="M50.5267 228.98C50.1476 229.67 49.7016 230.32 49.1951 230.922L45.7788 235.448L42.3784 239.966C41.9522 240.627 41.4638 241.246 40.9199 241.813C41.225 241.087 41.6162 240.401 42.0851 239.768C42.8777 238.548 44.0429 236.899 45.3825 235.131C46.722 233.364 47.9823 231.802 48.9176 230.693C49.3914 230.066 49.9308 229.492 50.5267 228.98Z" fill="#263238"/>
<path d="M38.3513 274.716C38.3513 274.716 36.877 261.503 45.2869 255.566C45.3522 255.517 45.43 255.487 45.5113 255.48C45.5926 255.473 45.6743 255.489 45.747 255.526C45.8197 255.564 45.8805 255.62 45.9225 255.69C45.9644 255.76 45.9859 255.841 45.9844 255.922C45.9606 258.055 45.2076 264.412 38.3513 274.716Z" fill="#349F6E"/>
<path d="M43.7171 259.568C43.5597 260.338 43.3233 261.09 43.0117 261.812L41.0539 267.138C40.3246 269.128 39.6747 270.927 39.1119 272.465C38.8991 273.22 38.6124 273.953 38.2559 274.652C38.3377 273.868 38.5133 273.096 38.779 272.354C39.1832 270.959 39.8174 269.048 40.5862 266.964C41.3551 264.879 42.1081 263 42.6788 261.685C42.9474 260.944 43.2956 260.234 43.7171 259.568Z" fill="#263238"/>
<path d="M45.7092 307.705C45.7092 307.705 44.7105 294.444 53.3265 288.816C53.3934 288.771 53.4718 288.744 53.5528 288.741C53.6338 288.737 53.7143 288.756 53.7851 288.796C53.856 288.835 53.9144 288.894 53.9537 288.964C53.9931 289.035 54.012 289.116 54.0081 289.197C53.9051 291.321 52.9301 297.654 45.7092 307.705Z" fill="#349F6E"/>
<path d="M51.6116 292.758C51.4263 293.526 51.1606 294.273 50.819 294.985C50.2007 296.491 49.4715 298.267 48.6709 300.232L46.5466 305.48C46.3023 306.228 45.9892 306.953 45.6113 307.644C45.7202 306.861 45.9224 306.095 46.2137 305.361C46.6655 303.982 47.371 302.095 48.2112 300.042C49.0514 297.989 49.8757 296.158 50.494 294.842C50.7951 294.112 51.1695 293.413 51.6116 292.758Z" fill="#263238"/>
<path d="M30.624 200.836C30.624 200.836 18.8374 194.677 18.6076 184.388C18.6056 184.307 18.6259 184.227 18.6663 184.157C18.7068 184.086 18.7657 184.028 18.8369 183.989C18.908 183.95 18.9885 183.931 19.0697 183.934C19.1508 183.937 19.2295 183.963 19.2972 184.008C21.0489 185.221 25.8998 189.398 30.624 200.836Z" fill="#349F6E"/>
<path d="M21.0566 187.924C21.6073 188.488 22.0987 189.107 22.523 189.771L25.8521 194.36L29.1812 198.949C29.6894 199.551 30.1405 200.198 30.5287 200.883C29.9315 200.378 29.399 199.8 28.9434 199.163C28.0081 198.046 26.7795 196.453 25.4875 194.653C24.1955 192.854 23.062 191.19 22.3169 189.969C21.8218 189.336 21.3991 188.65 21.0566 187.924Z" fill="#263238"/>
<path d="M43.2809 228.077C43.2809 228.077 31.1456 222.647 30.2896 212.39C30.281 212.31 30.295 212.228 30.3301 212.155C30.3653 212.082 30.4201 212.02 30.4884 211.977C30.5568 211.933 30.636 211.909 30.7171 211.908C30.7981 211.907 30.8779 211.929 30.9475 211.97C32.7705 213.088 37.8751 216.98 43.2809 228.077Z" fill="#349F6E"/>
<path d="M32.9453 215.783C33.532 216.312 34.0632 216.899 34.5306 217.535C35.5689 218.795 36.7817 220.285 38.1292 221.918L41.7357 226.294C42.274 226.866 42.7619 227.484 43.1941 228.14C42.5567 227.686 41.9788 227.153 41.4741 226.555C40.4754 225.501 39.1437 223.987 37.7408 222.267C36.3378 220.547 35.1171 218.954 34.2532 217.781C33.7449 217.165 33.3063 216.495 32.9453 215.783Z" fill="#263238"/>
<path d="M36.3 258.49C36.3 258.49 27.9693 248.13 31.877 238.611C31.9044 238.531 31.9542 238.461 32.0204 238.409C32.0866 238.357 32.1665 238.326 32.2503 238.318C32.3341 238.311 32.4182 238.327 32.4927 238.367C32.5671 238.406 32.6286 238.466 32.6697 238.539C33.7794 240.347 36.5536 246.117 36.3 258.49Z" fill="#349F6E"/>
<path d="M32.7012 242.828C32.979 243.564 33.1835 244.326 33.3115 245.103C33.6523 246.688 34.0645 248.575 34.5163 250.651C34.9681 252.728 35.3803 254.615 35.737 256.2C35.9576 256.953 36.1088 257.726 36.1888 258.507C35.8322 257.803 35.5659 257.057 35.3961 256.287C34.984 254.892 34.4925 252.942 34.0249 250.739C33.5572 248.535 33.2322 246.593 32.9627 245.19C32.7903 244.415 32.7026 243.623 32.7012 242.828Z" fill="#263238"/>
<path d="M44.56 294.272C44.56 294.272 32.5119 288.636 31.8303 278.372C31.8222 278.29 31.8371 278.209 31.8732 278.135C31.9093 278.062 31.9652 278.001 32.0346 277.958C32.104 277.915 32.184 277.892 32.2656 277.893C32.3471 277.893 32.427 277.916 32.4961 277.959C34.3033 279.093 39.3365 283.048 44.56 294.272Z" fill="#349F6E"/>
<path d="M34.4277 281.795C35.0151 282.331 35.5462 282.926 36.013 283.57L39.5323 288.017L43.0675 292.448C43.6 293.026 44.0776 293.652 44.4942 294.319C43.8406 293.845 43.2471 293.294 42.7267 292.678C41.7517 291.6 40.4439 290.062 39.0726 288.326C37.7013 286.59 36.5044 284.965 35.6642 283.784C35.1803 283.169 34.7656 282.501 34.4277 281.795Z" fill="#263238"/>
<path d="M68.5512 241.988C68.5631 242.086 68.5631 242.184 68.5512 242.282C68.5512 242.511 68.5512 242.789 68.5512 243.13C68.5512 243.922 68.464 245.008 68.4085 246.356C68.25 249.193 68.036 253.141 67.7744 257.873C66.9104 262.684 64.4612 268.019 61.1717 273.194C58.7938 277.007 56.2257 280.479 54.038 283.705C52.0506 286.52 50.2627 289.47 48.6877 292.535C47.6586 294.615 46.8228 296.785 46.1909 299.019C45.9769 299.811 45.8183 300.437 45.7311 300.858C45.6945 301.078 45.6334 301.293 45.5488 301.5C45.5572 301.278 45.5837 301.058 45.6281 300.842C45.6915 300.406 45.8183 299.78 46.0006 298.971C46.569 296.701 47.3657 294.494 48.3785 292.384C49.9216 289.282 51.6886 286.297 53.6654 283.451C55.8293 280.201 58.3499 276.73 60.7516 272.933C64.0252 267.781 66.4666 262.526 67.3543 257.793C67.6872 253.038 67.9646 249.122 68.1469 246.292C68.25 244.953 68.3372 243.875 68.4006 243.074C68.4006 242.741 68.464 242.464 68.4878 242.226C68.5116 241.988 68.5353 241.988 68.5512 241.988Z" fill="#263238"/>
<path d="M61.3775 272.227C61.3775 272.227 66.4741 259.949 60.0617 251.903C60.0145 251.831 59.9468 251.774 59.8673 251.74C59.7877 251.706 59.6998 251.697 59.6148 251.713C59.5298 251.729 59.4516 251.77 59.39 251.831C59.3284 251.891 59.2863 251.969 59.269 252.054C58.7221 254.107 57.6679 260.424 61.3775 272.227Z" fill="#349F6E"/>
<path d="M60.4493 256.186C60.6662 256.943 60.8017 257.722 60.8536 258.508C61.028 259.951 61.2341 261.956 61.3926 264.167C61.5511 266.379 61.6224 268.392 61.6224 269.843C61.672 270.638 61.6241 271.437 61.4798 272.221C61.3404 271.436 61.2714 270.64 61.2737 269.843C61.1627 268.21 61.0359 266.3 60.8932 264.183C60.7505 262.067 60.6158 260.157 60.4969 258.532C60.4003 257.753 60.3843 256.967 60.4493 256.186Z" fill="#263238"/>
<g opacity="0.3">
<path d="M61.3775 272.227C61.3775 272.227 66.4741 259.949 60.0617 251.903C60.0145 251.831 59.9468 251.774 59.8673 251.74C59.7877 251.706 59.6998 251.697 59.6148 251.713C59.5298 251.729 59.4516 251.77 59.39 251.831C59.3284 251.891 59.2863 251.969 59.269 252.054C58.7221 254.107 57.6679 260.424 61.3775 272.227Z" fill="black"/>
</g>
<path d="M45.5734 301.794C45.5734 301.794 49.6634 289.111 42.6168 281.637C42.5633 281.567 42.4903 281.515 42.4069 281.486C42.3236 281.458 42.2338 281.455 42.1488 281.478C42.0639 281.501 41.9877 281.549 41.9299 281.615C41.8721 281.681 41.8353 281.763 41.8242 281.851C41.4596 283.975 40.9206 290.356 45.5734 301.794Z" fill="#349F6E"/>
<path d="M43.3477 285.939C43.6365 286.674 43.8361 287.44 43.9421 288.222C44.2354 289.641 44.6 291.623 44.9409 293.81C45.2817 295.998 45.5116 298.003 45.6305 299.454C45.7496 300.241 45.7656 301.041 45.678 301.832C45.4786 301.071 45.3459 300.294 45.2817 299.509C45.0439 297.924 44.7586 295.998 44.4891 293.905C44.2196 291.813 43.8787 289.942 43.633 288.302C43.4619 287.525 43.3664 286.734 43.3477 285.939Z" fill="#263238"/>
<g opacity="0.3">
<path d="M45.5734 301.794C45.5734 301.794 49.6634 289.111 42.6168 281.637C42.5633 281.567 42.4903 281.515 42.4069 281.486C42.3236 281.458 42.2338 281.455 42.1488 281.478C42.0639 281.501 41.9877 281.549 41.9299 281.615C41.8721 281.681 41.8353 281.763 41.8242 281.851C41.4596 283.975 40.9206 290.356 45.5734 301.794Z" fill="black"/>
</g>
<path d="M67.8711 257.223C67.8711 257.223 78.7699 249.598 77.6681 239.365C77.6614 239.284 77.632 239.206 77.5833 239.14C77.5346 239.075 77.4685 239.025 77.3925 238.995C77.3165 238.965 77.2337 238.957 77.1535 238.972C77.0734 238.987 76.999 239.024 76.9389 239.08C75.3536 240.506 71.0813 245.27 67.8711 257.223Z" fill="#349F6E"/>
<g opacity="0.3">
<path d="M67.8711 257.223C67.8711 257.223 78.7699 249.598 77.6681 239.365C77.6614 239.284 77.632 239.206 77.5833 239.14C77.5346 239.075 77.4685 239.025 77.3925 238.995C77.3165 238.965 77.2337 238.957 77.1535 238.972C77.0734 238.987 76.999 239.024 76.9389 239.08C75.3536 240.506 71.0813 245.27 67.8711 257.223Z" fill="black"/>
</g>
<path d="M75.6928 243.186C75.4778 243.945 75.1746 244.677 74.7892 245.365C74.171 246.681 73.2674 248.472 72.2132 250.422C71.1589 252.372 70.1444 254.116 69.3676 255.345C68.984 256.035 68.5183 256.676 67.9805 257.255C68.275 256.526 68.6358 255.825 69.0585 255.162L71.7772 250.192L74.4801 245.207C74.8167 244.495 75.2229 243.818 75.6928 243.186Z" fill="#263238"/>
<path d="M49.9648 289.278C49.9648 289.278 63.1068 287.233 66.6102 277.563C66.6394 277.486 66.6469 277.403 66.6318 277.323C66.6166 277.242 66.5795 277.168 66.5246 277.107C66.4696 277.046 66.3989 277.002 66.3203 276.979C66.2417 276.956 66.1582 276.955 66.0792 276.976C64.05 277.563 58.1132 279.957 49.9648 289.278Z" fill="#349F6E"/>
<g opacity="0.3">
<path d="M49.9648 289.278C49.9648 289.278 63.1068 287.233 66.6102 277.563C66.6394 277.486 66.6469 277.403 66.6318 277.323C66.6166 277.242 66.5795 277.168 66.5246 277.107C66.4696 277.046 66.3989 277.002 66.3203 276.979C66.2417 276.956 66.1582 276.955 66.0792 276.976C64.05 277.563 58.1132 279.957 49.9648 289.278Z" fill="black"/>
</g>
<path d="M63.1773 280.123C62.6473 280.717 62.0517 281.249 61.4018 281.708C60.2683 282.62 58.6672 283.833 56.86 285.117C55.0528 286.401 53.3803 287.495 52.1042 288.287C51.4569 288.74 50.7568 289.113 50.0195 289.397C50.6025 288.867 51.2371 288.397 51.9139 287.994L56.535 284.72L61.1561 281.439C61.7824 280.931 62.4598 280.49 63.1773 280.123Z" fill="#263238"/>
<path d="M37.432 313.459L33.6035 339.251H57.4857L54.3865 313.459H37.432Z" fill="#455A64"/>
<path d="M55.3451 321.451C55.3451 321.586 51.0331 321.697 45.7145 321.697C40.3959 321.697 36.084 321.586 36.084 321.451C36.084 321.316 40.388 321.205 45.7145 321.205C51.0411 321.205 55.3451 321.316 55.3451 321.451Z" fill="#263238"/>
<path d="M55.8131 323.504C55.8131 323.638 51.3664 323.749 45.8734 323.749C40.3804 323.749 35.9258 323.638 35.9258 323.504C35.9258 323.369 40.3725 323.258 45.8734 323.258C51.3743 323.258 55.8131 323.369 55.8131 323.504Z" fill="#263238"/>
<path d="M481.057 304.725C480.215 304.967 479.43 305.376 478.749 305.927C478.068 306.479 477.505 307.162 477.093 307.935C476.274 309.492 475.823 311.217 475.778 312.976C475.579 316.368 476.895 320.046 478.473 323.05C481.691 321.085 483.062 316.939 483.633 314.783C484.52 311.391 484.069 304.709 481.08 304.725" fill="#349F6E"/>
<path d="M474.288 327.951C474.648 327.031 474.757 326.032 474.602 325.057C474.447 324.081 474.035 323.165 473.408 322.402C472.774 321.652 471.996 321.036 471.121 320.589C470.246 320.143 469.291 319.875 468.311 319.802C467.865 319.719 467.406 319.735 466.966 319.849C466.527 319.963 466.117 320.171 465.767 320.46C465.487 320.781 465.298 321.17 465.22 321.588C465.142 322.007 465.178 322.438 465.323 322.838C465.625 323.634 466.131 324.336 466.789 324.875C468.953 326.817 471.403 328.291 474.288 327.943" fill="#349F6E"/>
<path d="M476.134 338.785C476.15 338.553 476.15 338.32 476.134 338.088C476.134 337.588 476.134 336.946 476.134 336.177C476.171 334.069 475.869 331.968 475.238 329.955C474.567 327.942 473.375 326.142 471.782 324.74C471.298 324.323 470.766 323.966 470.197 323.678C469.999 323.575 469.832 323.511 469.721 323.464L469.555 323.416C470.311 323.826 471.022 324.312 471.679 324.867C473.215 326.28 474.366 328.061 475.024 330.042C475.645 332.031 475.965 334.102 475.975 336.185C476.015 336.978 476.046 337.636 476.078 338.088C476.074 338.322 476.092 338.555 476.134 338.785Z" fill="#263238"/>
<path d="M480.978 309.846C480.943 309.941 480.917 310.039 480.899 310.139L480.701 310.987C480.534 311.724 480.304 312.794 480.035 314.118C479.488 316.765 478.791 320.459 478.117 324.502C477.443 328.544 476.904 332.269 476.532 334.949C476.357 336.288 476.23 337.374 476.143 338.119C476.143 338.476 476.08 338.761 476.056 338.983C476.039 339.085 476.039 339.19 476.056 339.292C476.083 339.193 476.105 339.093 476.119 338.991C476.119 338.769 476.199 338.484 476.246 338.135C476.365 337.342 476.524 336.28 476.714 334.964C477.102 332.293 477.665 328.623 478.339 324.533C479.012 320.443 479.686 316.797 480.186 314.142C480.431 312.834 480.629 311.764 480.78 310.971C480.843 310.622 480.891 310.337 480.931 310.115C480.97 309.893 480.994 309.846 480.978 309.846Z" fill="#263238"/>
<path d="M478.783 330.835C479.466 328.88 480.603 327.116 482.101 325.687C483.599 324.258 485.415 323.205 487.399 322.615C488.414 322.33 489.682 322.25 490.332 323.075C490.982 323.899 490.601 325.12 490.054 326.023C488.895 327.891 487.208 329.373 485.205 330.281C483.203 331.188 480.976 331.48 478.807 331.12" fill="#349F6E"/>
<path d="M486.423 325.691C486.204 325.723 485.989 325.776 485.781 325.85C485.533 325.915 485.289 325.997 485.052 326.096C484.73 326.208 484.415 326.337 484.108 326.484C483.73 326.651 483.362 326.841 483.007 327.055C482.589 327.294 482.187 327.558 481.802 327.847C480.93 328.492 480.133 329.231 479.424 330.051C478.717 330.883 478.111 331.796 477.617 332.77C477.405 333.197 477.217 333.637 477.054 334.085C476.902 334.471 476.775 334.865 476.674 335.266C476.563 335.631 476.523 335.972 476.46 336.265C476.404 336.526 476.367 336.791 476.349 337.058C476.329 337.277 476.329 337.497 476.349 337.716C476.404 337.716 476.467 336.788 476.88 335.338C476.993 334.945 477.128 334.559 477.284 334.181C477.449 333.742 477.639 333.313 477.855 332.896C478.842 330.98 480.264 329.321 482.008 328.053C482.384 327.768 482.776 327.503 483.181 327.261C483.526 327.045 483.883 326.849 484.251 326.674C485.527 325.985 486.439 325.747 486.423 325.691Z" fill="#263238"/>
</g>
<defs>
<clipPath id="clip0_3070_19878">
<rect width="520" height="340" fill="white" transform="translate(0.5)"/>
</clipPath>
</defs>
</svg>
