<svg width="335" height="325" viewBox="0 0 335 325" fill="none" xmlns="http://www.w3.org/2000/svg">
<g clip-path="url(#clip0_3110_42728)">
<path d="M64.8859 39.5127C67.38 24.7212 57.3329 10.7216 42.4452 8.24371C27.5575 5.76581 13.4669 15.7479 10.9728 30.5394C8.47883 45.3309 18.5259 59.3305 33.4136 61.8084C48.3013 64.2863 62.3919 54.3042 64.8859 39.5127Z" fill="white"/>
<path d="M65.2621 35.0262C65.2468 34.8821 65.2468 34.7369 65.2621 34.5929C65.2621 34.273 65.2621 33.85 65.1687 33.3032C65.1687 33.0143 65.1687 32.7048 65.1064 32.354C65.0441 32.0032 64.9921 31.6318 64.9298 31.2191C64.7873 30.2671 64.5791 29.326 64.3068 28.4024C63.6645 25.8564 62.6387 23.4215 61.2641 21.1802C58.0209 15.8097 52.9943 11.7308 47.0501 9.64606C41.1058 7.56132 34.6159 7.60116 28.6981 9.75873C27.4875 10.1913 26.3079 10.7049 25.1673 11.296C24.0158 11.929 22.909 12.6391 21.8546 13.4214C20.7614 14.2175 19.7208 15.0825 18.7393 16.0111C17.7968 16.9859 16.9225 18.0235 16.1224 19.1167C14.4371 21.362 13.129 23.8637 12.2489 26.5246C10.3934 32.0283 10.3934 37.9828 12.2489 43.4865C13.1292 46.1569 14.4371 48.6688 16.1224 50.9254C16.9321 52.0166 17.8169 53.0509 18.7704 54.0206C19.7466 54.9552 20.7876 55.8206 21.8858 56.6103C22.9361 57.3985 24.0433 58.1089 25.1985 58.7357C26.3401 59.3278 27.5195 59.8447 28.7292 60.2833C34.6492 62.4128 41.1297 62.434 47.0637 60.3434C52.9977 58.2527 58.017 54.1799 61.2641 48.8206C62.6423 46.5811 63.6683 44.1456 64.3068 41.5984C64.5607 40.6803 64.7515 39.7462 64.8779 38.8024C64.9402 38.4 65.0233 38.0183 65.0544 37.6675C65.0856 37.3167 65.0544 37.0071 65.1167 36.7286C65.1167 36.1817 65.1894 35.7484 65.2102 35.4389C65.1952 35.2914 65.1952 35.1427 65.2102 34.9952C65.2239 35.1428 65.2239 35.2913 65.2102 35.4389C65.2102 35.7587 65.2102 36.1817 65.2102 36.7286V37.6881C65.2102 38.0389 65.1167 38.4103 65.0648 38.823C64.9556 39.7773 64.7751 40.7223 64.5248 41.65C63.9149 44.2193 62.9097 46.6798 61.5445 48.9444C59.5634 52.2927 56.8862 55.1825 53.6914 57.4207C50.4966 59.659 46.858 61.1942 43.0184 61.9238C38.1553 62.8335 33.1357 62.4346 28.48 60.7683C27.2452 60.3253 26.0414 59.8014 24.8766 59.2C23.6966 58.5644 22.5651 57.8437 21.4912 57.0437C20.3962 56.235 19.3555 55.3561 18.3758 54.4127C17.4071 53.413 16.5052 52.3515 15.6758 51.2349C13.9571 48.9451 12.6211 46.3949 11.7193 43.6825C9.82273 38.0655 9.82273 31.9869 11.7193 26.3698C12.6211 23.6575 13.9571 21.1073 15.6758 18.8175C16.5031 17.6996 17.4088 16.6411 18.3862 15.65C19.3607 14.6977 20.4017 13.8151 21.5016 13.0087C22.5941 12.2178 23.739 11.5008 24.9285 10.8627C26.1101 10.2589 27.3313 9.73499 28.5838 9.29445C32.9015 7.7466 37.5414 7.30106 42.0775 7.99871C46.6136 8.69636 50.9007 10.5149 54.5453 13.2873C57.3473 15.416 59.7067 18.0651 61.4925 21.0873C62.8731 23.3552 63.8892 25.8233 64.5041 28.4024C64.7543 29.3301 64.9348 30.275 65.0441 31.2294C65.0441 31.6421 65.1583 32.0238 65.1894 32.3746V33.3238C65.1894 33.8741 65.1894 34.3074 65.1894 34.6238C65.2257 34.7555 65.2501 34.8902 65.2621 35.0262Z" fill="#263238"/>
<path d="M30.5476 28.8667H34.4937C34.4908 28.4203 34.5782 27.9779 34.7506 27.5657C34.9231 27.1535 35.1772 26.7799 35.4978 26.4672C35.8184 26.1544 36.199 25.9088 36.617 25.745C37.035 25.5812 37.4818 25.5025 37.931 25.5136C38.603 25.4871 39.2661 25.6724 39.8257 26.043C40.3852 26.4137 40.8125 26.9506 41.0464 27.577C41.2591 28.0903 41.3447 28.6469 41.2959 29.1999C41.2471 29.7529 41.0654 30.2861 40.766 30.7548C40.1014 31.8588 38.6267 32.8183 35.9683 32.385V41.1961H39.8729V36.0374C41.4765 35.5717 42.8818 34.5956 43.8724 33.259C44.8631 31.9224 45.3843 30.2994 45.3559 28.6398C45.3559 22.9032 40.1637 21.562 37.9517 21.562C36.2487 21.531 30.4749 21.9437 30.5476 28.8667Z" fill="#263238"/>
<path d="M39.9103 43.0225H35.9434V46.7058H39.9103V43.0225Z" fill="#263238"/>
<path d="M66.177 61.057C68.2876 61.057 69.9985 59.3571 69.9985 57.2602C69.9985 55.1633 68.2876 53.4634 66.177 53.4634C64.0664 53.4634 62.3555 55.1633 62.3555 57.2602C62.3555 59.3571 64.0664 61.057 66.177 61.057Z" fill="white"/>
<path d="M69.9983 57.2914C69.9096 56.9962 69.8368 56.6966 69.7802 56.3937C69.5411 55.6056 69.0487 54.9171 68.3783 54.4334C67.8449 54.042 67.2126 53.8053 66.5519 53.7497C65.8911 53.6941 65.2278 53.8218 64.6357 54.1186C64.0437 54.4154 63.5462 54.8696 63.1986 55.4307C62.851 55.9918 62.6669 56.6377 62.6669 57.2965C62.6669 57.9554 62.851 58.6013 63.1986 59.1624C63.5462 59.7234 64.0437 60.1777 64.6357 60.4744C65.2278 60.7712 65.8911 60.8989 66.5519 60.8434C67.2126 60.7878 67.8449 60.5511 68.3783 60.1596C69.0465 59.6738 69.5383 58.9861 69.7802 58.1993C69.9464 57.6318 69.9464 57.2914 69.9983 57.2914C70.0774 57.6064 70.0774 57.9359 69.9983 58.2509C69.826 59.1277 69.3388 59.9124 68.6275 60.4588C68.0994 60.8786 67.4717 61.1569 66.8045 61.2671C66.1373 61.3773 65.4528 61.3157 64.8164 61.0882C64.0246 60.8121 63.3386 60.2985 62.8534 59.6184C62.3681 58.9382 62.1074 58.1251 62.1074 57.2914C62.1074 56.4577 62.3681 55.6445 62.8534 54.9644C63.3386 54.2842 64.0246 53.7706 64.8164 53.4945C65.4536 53.2719 66.137 53.2129 66.8033 53.3229C67.4696 53.433 68.0971 53.7085 68.6275 54.1239C69.3346 54.6786 69.8204 55.4647 69.9983 56.3422C70.0778 56.6536 70.0778 56.9799 69.9983 57.2914Z" fill="#263238"/>
<path d="M253.988 273.083H238.494V490.131H253.988V273.083Z" fill="#E0E0E0"/>
<path opacity="0.3" d="M238.497 297.525L253.99 301.136V288.951L238.424 286.361L238.497 297.525Z" fill="black"/>
<path d="M327.961 270.689L249.921 289.952L161.684 269.575V259.67L242.538 240.614L327.961 259.67V270.689Z" fill="#455A64"/>
<path d="M327.968 270.689L327.574 270.813L326.411 271.133L321.925 272.288L305.309 276.415L250.001 290.21H249.939H249.877L244.923 289.075L186.053 275.394L168.223 271.184L163.383 270.018L162.127 269.699C161.982 269.669 161.839 269.628 161.701 269.575C161.849 269.582 161.995 269.606 162.137 269.647L163.404 269.905L168.275 270.937L186.136 274.981L245.048 288.507L249.991 289.652H249.866L305.257 276.064L321.873 272.051L326.38 271.019L327.553 270.751L327.968 270.689Z" fill="#263238"/>
<path d="M327.96 261.032C327.832 261.084 327.7 261.122 327.565 261.146L326.381 261.445L321.833 262.528L305.03 266.439L249.058 279.181H248.995L244.904 278.293L186.075 265.417L168.266 261.455L163.426 260.351L162.17 260.052L161.744 259.928L162.18 260L163.447 260.248L168.307 261.28L186.158 265.077L245.018 277.798L249.109 278.696H248.954L304.968 266.098L321.822 262.373L326.391 261.342L327.586 261.094C327.708 261.061 327.833 261.041 327.96 261.032Z" fill="#263238"/>
<path d="M207.414 154.184C207.076 153.875 206.773 153.529 206.511 153.153L204.195 150.367C202.243 148.004 199.532 144.754 196.49 141.205C193.447 137.656 190.643 134.499 188.608 132.208L186.199 129.495C185.887 129.177 185.606 128.832 185.357 128.463C185.734 128.725 186.082 129.026 186.396 129.361C187.009 129.959 187.87 130.857 188.93 131.961C191.007 134.189 193.894 137.315 196.947 140.864C200 144.414 202.658 147.715 204.527 150.15C205.472 151.368 206.22 152.358 206.718 153.049C206.989 153.403 207.222 153.783 207.414 154.184Z" fill="#263238"/>
<path d="M250.409 98.4082C250.554 98.4082 250.679 109.757 250.679 123.748C250.679 137.738 250.554 149.098 250.409 149.098C250.263 149.098 250.139 137.749 250.139 123.748C250.139 109.747 250.253 98.4082 250.409 98.4082Z" fill="#263238"/>
<path d="M310.064 124.191C309.85 124.633 309.596 125.054 309.306 125.45C308.797 126.245 308.039 127.369 307.094 128.752C305.183 131.517 302.494 135.303 299.42 139.41C296.346 143.516 293.469 147.168 291.351 149.727C290.312 151.037 289.419 152.079 288.796 152.822C288.484 153.199 288.136 153.544 287.758 153.854C288.002 153.428 288.283 153.024 288.599 152.647L291.008 149.49C293.085 146.818 295.868 143.134 298.942 139.038C302.016 134.942 304.757 131.197 306.741 128.483L309.098 125.285C309.384 124.891 309.707 124.524 310.064 124.191Z" fill="#263238"/>
<path d="M225.188 134.87C225.053 134.87 223.558 130.238 221.865 124.439C220.75 120.96 219.81 117.427 219.051 113.854C219.196 113.854 220.681 118.476 222.384 124.284C224.087 130.093 225.333 134.829 225.188 134.87Z" fill="#263238"/>
<path d="M281.427 113.08C281.192 114.157 280.876 115.216 280.482 116.247C279.848 118.176 278.965 120.838 278.052 123.799C277.138 126.761 276.338 129.464 275.767 131.414C275.497 132.469 275.15 133.504 274.729 134.509C274.837 133.412 275.049 132.327 275.362 131.269C275.84 129.288 276.577 126.575 277.501 123.603C278.425 120.632 279.36 117.98 280.087 116.072C280.447 115.038 280.895 114.037 281.427 113.08Z" fill="#263238"/>
<path d="M177.23 172.653L247.254 166.008L318.564 172.653L247.721 180.411L177.23 172.653Z" fill="white"/>
<path d="M247.492 273.083L177.23 257.05V172.653L247.721 180.412L247.492 273.083Z" fill="white"/>
<path d="M318.561 257.813L247.012 273.083L247.718 180.412L318.561 172.653V257.813Z" fill="white"/>
<path fill-rule="evenodd" clip-rule="evenodd" d="M296.101 200.169C296.151 200.123 296.201 200.076 296.25 200.027C298.279 198.028 298.279 194.785 296.25 192.786C294.246 190.81 291.011 190.786 288.977 192.715L288.972 192.71L270.66 210.717C268.631 212.013 266.539 211.606 264.956 210.789L274.447 220.144C275.723 220.074 277.405 218.649 278.189 217.824L296.101 200.169ZM263.026 209.415L263.029 209.413L262.832 209.219C262.892 209.282 262.957 209.348 263.026 209.415Z" fill="url(#paint0_linear_3110_42728)"/>
<path fill-rule="evenodd" clip-rule="evenodd" d="M304.636 233.133C304.67 233.168 304.704 233.202 304.738 233.236C306.767 235.236 310.056 235.236 312.085 233.236C314.09 231.26 314.113 228.069 312.155 226.065L312.158 226.061L293.888 208.013C292.574 206.012 292.987 203.951 293.816 202.39L284.324 211.745C284.396 213.002 285.842 214.66 286.679 215.433L304.636 233.133ZM295.21 200.488L295.212 200.491L295.409 200.297C295.344 200.356 295.278 200.42 295.21 200.488Z" fill="url(#paint1_linear_3110_42728)"/>
<path fill-rule="evenodd" clip-rule="evenodd" d="M263.063 208.916C263.016 208.866 262.968 208.817 262.919 208.768C260.89 206.769 257.601 206.769 255.572 208.768C253.568 210.744 253.544 213.933 255.501 215.938L255.496 215.943L273.766 233.992C275.081 235.992 274.667 238.053 273.839 239.614L283.33 230.259C283.259 229.002 281.812 227.344 280.976 226.571L263.063 208.916ZM272.444 241.516L272.442 241.514L272.245 241.707C272.31 241.648 272.376 241.584 272.444 241.516Z" fill="url(#paint2_linear_3110_42728)"/>
<path fill-rule="evenodd" clip-rule="evenodd" d="M271.645 241.775C271.573 241.839 271.501 241.905 271.432 241.974C269.403 243.973 269.403 247.215 271.432 249.215C273.437 251.191 276.673 251.214 278.706 249.285L278.714 249.292L297.026 231.285C299.055 229.989 301.147 230.397 302.731 231.213L293.239 221.858C291.963 221.928 290.282 223.354 289.498 224.178L271.645 241.775ZM304.66 232.587L304.658 232.59L304.854 232.783C304.794 232.72 304.729 232.654 304.66 232.587Z" fill="url(#paint3_linear_3110_42728)"/>
<path fill-rule="evenodd" clip-rule="evenodd" d="M225.386 200.169C225.436 200.123 225.486 200.076 225.535 200.027C227.564 198.028 227.564 194.785 225.535 192.786C223.531 190.81 220.296 190.786 218.262 192.715L218.257 192.71L199.945 210.717C197.916 212.013 195.825 211.606 194.241 210.789L203.732 220.144C205.008 220.074 206.69 218.649 207.474 217.824L225.386 200.169ZM192.311 209.415L192.314 209.413L192.117 209.219C192.177 209.282 192.242 209.348 192.311 209.415Z" fill="url(#paint4_linear_3110_42728)"/>
<path fill-rule="evenodd" clip-rule="evenodd" d="M233.921 233.133C233.955 233.168 233.989 233.202 234.023 233.236C236.052 235.236 239.341 235.236 241.37 233.236C243.375 231.26 243.398 228.069 241.44 226.065L241.443 226.061L223.174 208.013C221.859 206.012 222.273 203.951 223.101 202.39L213.609 211.745C213.681 213.002 215.127 214.66 215.964 215.433L233.921 233.133ZM224.495 200.488L224.497 200.491L224.694 200.297C224.629 200.356 224.563 200.42 224.495 200.488Z" fill="url(#paint5_linear_3110_42728)"/>
<path fill-rule="evenodd" clip-rule="evenodd" d="M192.348 208.916C192.301 208.866 192.253 208.817 192.204 208.768C190.176 206.769 186.886 206.769 184.858 208.768C182.853 210.744 182.829 213.933 184.786 215.938L184.781 215.943L203.051 233.992C204.366 235.992 203.952 238.053 203.124 239.614L212.615 230.259C212.544 229.002 211.098 227.344 210.261 226.571L192.348 208.916ZM201.729 241.516L201.727 241.514L201.531 241.707C201.595 241.648 201.662 241.584 201.729 241.516Z" fill="url(#paint6_linear_3110_42728)"/>
<path fill-rule="evenodd" clip-rule="evenodd" d="M200.93 241.775C200.858 241.839 200.787 241.905 200.717 241.974C198.688 243.973 198.688 247.215 200.717 249.215C202.722 251.191 205.958 251.214 207.992 249.285L208 249.292L226.311 231.285C228.341 229.989 230.432 230.397 232.016 231.213L222.524 221.858C221.249 221.928 219.567 223.354 218.783 224.178L200.93 241.775ZM233.945 232.587L233.943 232.59L234.139 232.783C234.079 232.72 234.014 232.654 233.945 232.587Z" fill="url(#paint7_linear_3110_42728)"/>
<path opacity="0.3" d="M247.015 273.083L177.23 257.05V172.653L247.721 180.412L247.015 273.083Z" fill="black"/>
<path d="M318.534 172.663L318.181 172.725L317.143 172.859L313.103 173.344L298.15 175.067L247.722 180.68L247.961 180.411C247.961 183.909 247.909 187.634 247.878 191.338C247.681 213.902 247.494 234.331 247.359 249.115C247.265 256.482 247.193 262.466 247.141 266.655C247.141 268.719 247.068 270.308 247.047 271.422C247.047 271.948 247.047 272.35 247.047 272.66C247.061 272.801 247.061 272.942 247.047 273.083C247.034 272.942 247.034 272.801 247.047 272.66C247.047 272.35 247.047 271.948 247.047 271.422C247.047 270.297 247.047 268.698 247.047 266.655C247.047 262.528 247.047 256.513 247.099 249.115C247.193 234.3 247.328 213.871 247.463 191.338C247.463 187.592 247.525 183.909 247.556 180.411V180.174H247.795L298.233 174.747L313.207 173.189L317.247 172.797L318.285 172.704C318.367 172.683 318.45 172.669 318.534 172.663Z" fill="#263238"/>
<path d="M215.174 169.052C215.174 168.907 231.156 170.383 250.824 172.343C270.492 174.303 286.422 176.026 286.412 176.181C286.402 176.336 270.44 174.85 250.762 172.88C231.083 170.909 215.163 169.207 215.174 169.052Z" fill="#263238"/>
<path d="M80.5571 102.618C78.7369 97.6969 77.3472 92.6295 76.4033 87.4716C75.4575 82.3068 75.8143 76.9897 77.4418 71.9954C77.7117 71.2422 80.0275 66.2176 80.8271 66.2898C81.3879 66.2898 79.986 71.0152 80.2767 71.4486C83.0806 76.1017 83.901 81.766 83.5271 87.1311C83.1146 92.3829 82.1186 97.5732 80.5571 102.607" fill="#263238"/>
<path d="M80.7353 129.484L79.7799 82.622C79.188 69.4879 86.3845 58.2006 99.6144 57.9736L100.84 58.0252C106.782 58.2669 112.415 60.7227 116.618 64.9039C120.821 69.0851 123.285 74.6851 123.52 80.5895C123.966 91.9387 124.319 104.557 123.987 110.644C123.302 123.242 110.487 124.676 110.487 124.676C110.487 124.676 110.487 125.801 110.487 129.494L91.3587 140.152L86.7895 139.729L80.7353 129.484Z" fill="#FFBF9D"/>
<path d="M110.538 124.676C104.683 124.42 99.0246 122.501 94.2344 119.146C94.2344 119.146 97.8171 128.793 110.528 128.174L110.538 124.676Z" fill="#FF9A6C"/>
<path d="M119.152 91.8256C119.133 92.2945 118.932 92.7381 118.591 93.0631C118.25 93.3882 117.796 93.5696 117.324 93.5692C117.093 93.5775 116.862 93.5397 116.646 93.4581C116.43 93.3766 116.232 93.2528 116.065 93.0942C115.897 92.9355 115.763 92.7452 115.671 92.5344C115.579 92.3237 115.53 92.0967 115.527 91.8668C115.541 91.3979 115.739 90.9529 116.078 90.627C116.418 90.3011 116.872 90.1203 117.345 90.1232C117.576 90.1149 117.807 90.1526 118.024 90.2341C118.241 90.3156 118.439 90.4392 118.608 90.5977C118.776 90.7562 118.911 90.9464 119.004 91.1572C119.097 91.368 119.148 91.5953 119.152 91.8256Z" fill="#263238"/>
<path d="M120.582 86.037C120.344 86.264 119.014 85.2013 117.062 85.1291C115.11 85.0569 113.646 85.9648 113.448 85.7172C113.251 85.4696 113.594 85.191 114.227 84.768C115.098 84.2232 116.117 83.9567 117.145 84.0045C118.16 84.0451 119.135 84.4066 119.928 85.0362C120.51 85.5108 120.697 85.9442 120.582 86.037Z" fill="#263238"/>
<path d="M101.502 91.8255C101.486 92.2935 101.288 92.737 100.949 93.0624C100.61 93.3877 100.157 93.5694 99.6852 93.5691C99.454 93.5774 99.2235 93.5396 99.0072 93.4581C98.7909 93.3765 98.5933 93.2527 98.4259 93.0941C98.2584 92.9354 98.1247 92.7451 98.0324 92.5344C97.9402 92.3236 97.8913 92.0966 97.8887 91.8668C97.9022 91.3978 98.1 90.9528 98.4396 90.6269C98.7793 90.3011 99.2338 90.1202 99.706 90.1231C99.9375 90.1134 100.169 90.1502 100.386 90.2312C100.602 90.3123 100.801 90.436 100.968 90.5949C101.136 90.7538 101.27 90.9447 101.362 91.1561C101.453 91.3676 101.501 91.5952 101.502 91.8255Z" fill="#263238"/>
<path d="M101.872 86.0374C101.634 86.2644 100.304 85.2017 98.352 85.1295C96.3997 85.0573 94.9355 85.9652 94.7382 85.7176C94.5409 85.47 94.8732 85.1914 95.5274 84.7684C96.3941 84.2219 97.4098 83.9552 98.4351 84.0049C99.4497 84.0455 100.425 84.407 101.218 85.0366C101.8 85.5112 101.987 85.9446 101.872 86.0374Z" fill="#263238"/>
<path d="M107.824 100.874C108.867 100.595 109.942 100.45 111.022 100.441C111.521 100.441 111.988 100.327 112.061 99.997C112.127 99.486 112.032 98.9672 111.791 98.5113C111.365 97.2938 110.929 96.0248 110.472 94.6835C108.655 89.2462 107.357 84.7684 107.575 84.6962C107.793 84.624 109.454 88.9883 111.272 94.4359C111.708 95.7772 112.134 97.0565 112.528 98.2843C112.814 98.8938 112.877 99.5838 112.705 100.234C112.625 100.406 112.507 100.558 112.359 100.677C112.212 100.797 112.039 100.882 111.853 100.926C111.574 100.988 111.287 101.012 111.002 100.998C109.941 101.093 108.873 101.051 107.824 100.874Z" fill="#263238"/>
<path d="M102.339 83.1792C102.048 83.6641 100.179 83.0657 97.8736 82.9213C95.5682 82.7768 93.647 83.0554 93.429 82.5292C93.3355 82.2816 93.7509 81.8585 94.5713 81.4974C95.6657 81.0652 96.8446 80.8852 98.0191 80.971C99.1937 81.0568 100.333 81.4061 101.352 81.9927C102.121 82.457 102.464 82.9419 102.339 83.1792Z" fill="#263238"/>
<path d="M120.904 78.7325C120.489 79.1658 118.91 78.6603 116.999 78.588C115.089 78.5158 113.469 78.7944 113.105 78.3198C112.949 78.0928 113.219 77.6595 113.936 77.288C114.926 76.8103 116.021 76.5899 117.12 76.6477C118.219 76.7054 119.285 77.0394 120.219 77.6182C120.883 78.0619 121.091 78.5261 120.904 78.7325Z" fill="#263238"/>
<path d="M80.4308 92.0008C80.2231 91.8976 71.8219 89.081 71.7389 97.7064C71.6558 106.332 80.3996 104.64 80.41 104.392C80.4204 104.144 80.4308 92.0008 80.4308 92.0008Z" fill="#FFBF9D"/>
<path d="M77.7865 101.111C77.7865 101.111 77.6307 101.215 77.3711 101.328C77.1933 101.401 77.0028 101.439 76.8103 101.439C76.6179 101.439 76.4273 101.401 76.2495 101.328C75.3253 100.988 74.5672 99.5328 74.5465 97.9748C74.5289 97.2361 74.6779 96.5029 74.9826 95.8288C75.0703 95.5611 75.2204 95.3178 75.4207 95.1188C75.621 94.9198 75.8659 94.7706 76.1353 94.6836C76.3105 94.6383 76.4961 94.6559 76.6595 94.7333C76.8229 94.8107 76.9535 94.9429 77.0284 95.1066C77.1426 95.3439 77.0284 95.5193 77.1322 95.5296C77.2361 95.5399 77.3192 95.3955 77.2465 95.0344C77.2026 94.8194 77.0852 94.6262 76.9142 94.4875C76.6767 94.309 76.3793 94.2277 76.0834 94.2605C75.7277 94.329 75.3952 94.486 75.1173 94.717C74.8394 94.948 74.6251 95.2454 74.4945 95.5812C74.1182 96.3265 73.9294 97.1514 73.9442 97.9851C73.9442 99.7288 74.8684 101.359 76.1249 101.73C76.3565 101.801 76.6014 101.819 76.8408 101.781C77.0802 101.744 77.3077 101.652 77.5061 101.514C77.7657 101.307 77.8176 101.111 77.7865 101.111Z" fill="#FF9A6C"/>
<path d="M117.9 66.2897C119.312 65.5159 115.096 60.9968 111.669 59.4389C106.476 57.0762 98.4804 55.6214 93.6619 56.9833C87.8674 58.6135 83.0593 61.4714 80.162 66.7127C77.3585 72.0466 76.0324 78.0251 76.3197 84.0357C76.2488 85.8701 76.6718 87.6901 77.5451 89.3079C78.7497 91.2167 81.0759 92.4032 80.972 95.0548C80.9413 95.5308 81.0053 96.0081 81.1603 96.4595C81.3154 96.9109 81.5584 97.3276 81.8755 97.6857C83.4643 99.3675 85.4062 97.7889 86.2993 96.2103C88.21 92.8262 88.4281 88.7921 88.5943 84.923C88.8734 82.1609 88.6909 79.372 88.0543 76.669C87.6285 75.2349 86.9535 73.873 86.6004 72.4183C86.3813 71.6978 86.3236 70.9384 86.4312 70.1933C86.5389 69.4483 86.8093 68.7357 87.2235 68.1056C87.4373 67.8511 87.6736 67.6163 87.9297 67.404C89.1396 66.3529 90.6097 65.6411 92.1885 65.3419C93.7673 65.0426 95.3978 65.1668 96.9123 65.7016C101.803 67.4246 110.153 70.004 112.333 68.3532C115.449 65.9802 116.228 64.4325 116.228 64.4325L117.9 66.2897Z" fill="#263238"/>
<path d="M101.703 102.07C101.994 102.07 102.015 104.041 103.78 105.434C105.546 106.827 107.612 106.61 107.633 106.889C107.654 107.167 107.155 107.27 106.262 107.301C105.094 107.319 103.956 106.932 103.043 106.208C102.175 105.5 101.614 104.488 101.475 103.381C101.34 102.555 101.568 102.06 101.703 102.07Z" fill="#263238"/>
<path d="M130.098 260.763C132.252 270.234 132.98 279.969 132.258 289.652C131.78 295.781 110.938 465.565 110.938 465.565H82.8063L90.7089 305.995L88.4035 306.49C88.4035 306.49 73.0448 374.586 71.7882 385.563C70.6667 395.468 58.1948 473.386 58.1948 473.386L31.9219 471.023L40.2295 372.532L49.7937 281.213L53.3868 254.635L130.098 260.763Z" fill="#263238"/>
<path d="M86.2676 289.704C86.6282 289.974 87.0227 290.196 87.441 290.364C88.5443 290.92 89.7179 291.326 90.9303 291.571C91.7851 291.727 92.6612 291.727 93.516 291.571C94.5288 291.41 95.4734 290.962 96.2368 290.282C97.0244 289.487 97.5899 288.502 97.8775 287.424C98.2098 286.34 98.3967 285.205 98.6252 284.06C99.5287 279.459 100.131 275.249 100.494 272.195C100.671 270.668 100.785 269.44 100.848 268.574C100.891 268.131 100.891 267.685 100.848 267.243C100.706 267.667 100.615 268.107 100.578 268.553C100.432 269.523 100.245 270.72 100.027 272.143C99.5702 275.177 98.8952 279.366 97.9502 283.947C97.4933 286.216 97.1921 288.528 95.7591 289.89C95.0931 290.443 94.3114 290.842 93.4708 291.058C92.6301 291.274 91.7516 291.301 90.8991 291.138C89.71 290.928 88.5496 290.582 87.441 290.106C87.0648 289.932 86.6716 289.798 86.2676 289.704Z" fill="#455A64"/>
<path d="M94.7423 268.068C94.7423 268.068 94.5553 267.924 94.1607 267.893C93.5924 267.881 93.0365 268.059 92.5823 268.398C92.2333 268.645 91.9454 268.967 91.7403 269.341C91.5352 269.714 91.4183 270.13 91.3984 270.555C91.4358 271.085 91.6257 271.594 91.9456 272.02C92.2655 272.446 92.7019 272.772 93.203 272.959C93.704 273.146 94.2485 273.186 94.7718 273.074C95.2951 272.963 95.775 272.704 96.1546 272.329C96.4216 271.995 96.6081 271.605 96.6999 271.188C96.7917 270.772 96.7863 270.34 96.6842 269.925C96.5688 269.375 96.2685 268.88 95.8326 268.522C95.5211 268.274 95.2926 268.243 95.2823 268.264C95.8106 268.717 96.1753 269.33 96.3207 270.008C96.3761 270.354 96.3566 270.708 96.2634 271.046C96.1703 271.384 96.0058 271.698 95.7807 271.968C95.4698 272.244 95.0887 272.431 94.6786 272.507C94.2686 272.584 93.8454 272.547 93.4549 272.401C93.0644 272.256 92.7214 272.007 92.4632 271.681C92.2051 271.355 92.0415 270.966 91.9903 270.555C91.9995 270.205 92.084 269.86 92.238 269.545C92.392 269.231 92.6121 268.952 92.8834 268.728C93.4146 268.314 94.067 268.082 94.7423 268.068Z" fill="#455A64"/>
<path d="M117.172 134.891C122.541 135.221 132.26 138.43 136.373 146.064C139.82 152.451 140.755 179.741 140.942 180.391L130.557 183.053L117.338 202.48L63.2031 190.481L59.8074 198.962L57.7305 138.233C57.7305 138.233 111.793 134.56 117.172 134.891Z" fill="#455A64"/>
<path d="M54.2827 226.705L50.1289 168.67L51.0947 141.143L76.4122 130.062L78.9253 120.436L105.136 132.744L110.629 126.719L112.924 133.518L118.667 135.375L132.053 158.074L131.866 196.032C131.866 196.032 133.278 242.46 132.157 258.566C132.09 259.548 131.733 260.489 131.131 261.271C130.529 262.052 129.708 262.64 128.771 262.961C124.125 264.356 119.294 265.051 114.441 265.024C88.0326 265.654 52.0708 263.993 52.0708 263.993L51.7074 262.847C50.6749 259.649 50.3699 256.262 50.8143 252.932L54.2827 226.705Z" fill="#455A64"/>
<path d="M108.604 145.61C108.241 144.156 107.95 143 107.732 142.154C107.642 141.79 107.559 141.49 107.483 141.256C107.483 141.05 107.389 140.947 107.379 140.957C107.363 141.06 107.363 141.164 107.379 141.267C107.379 141.514 107.483 141.814 107.555 142.185C107.742 143.041 107.992 144.249 108.303 145.672C108.957 148.706 109.944 153.091 111.045 158.528C112.145 163.965 113.329 170.465 114.16 177.739C114.991 185.013 115.199 193.091 115.313 201.552C115.489 218.483 115.032 233.804 114.742 244.885C114.596 250.384 114.472 254.852 114.378 258.019C114.378 259.526 114.378 260.712 114.305 261.599V262.528C114.291 262.634 114.291 262.742 114.305 262.848C114.305 262.848 114.305 262.734 114.305 262.528C114.305 262.322 114.305 261.971 114.378 261.599C114.378 260.722 114.492 259.536 114.575 258.029C114.721 254.862 114.918 250.395 115.157 244.906C115.572 233.814 116.102 218.483 115.936 201.572C115.832 193.091 115.541 185.064 114.721 177.687C113.9 170.31 112.644 163.872 111.47 158.445" fill="#263238"/>
<g opacity="0.3">
<path d="M105.25 134.044C105.489 134.23 107.016 148.592 107.016 148.592L79.0605 131.816L104.513 144.506L105.25 134.044Z" fill="black"/>
</g>
<path d="M104.889 132.651C105.322 133.473 105.797 134.272 106.311 135.045C107.194 136.52 108.388 138.584 109.479 140.947L109.749 141.514L109.925 141.886L110.102 141.524C111.009 139.617 111.789 137.652 112.438 135.643C112.677 134.88 112.854 134.261 112.957 133.828C113.028 133.607 113.07 133.378 113.082 133.147C113.03 133.147 112.729 134.065 112.179 135.561C111.47 137.534 110.659 139.469 109.749 141.359H110.102L109.832 140.782C108.874 138.747 107.774 136.782 106.54 134.901C106.062 134.178 105.668 133.611 105.377 133.219C105.086 132.827 104.909 132.631 104.889 132.651Z" fill="#263238"/>
<path d="M76.4199 130.062C76.5401 130.15 76.6689 130.226 76.8042 130.289L77.9257 130.877L82.0795 133.023C85.5895 134.839 90.3872 137.429 95.7456 140.245C98.996 141.968 102.07 143.557 104.749 144.888L104.988 145.012V144.744C104.988 141.287 105.05 138.388 105.071 136.283C105.071 135.252 105.071 134.499 105.071 133.9C105.091 133.618 105.091 133.336 105.071 133.054C105.022 133.333 104.998 133.617 104.998 133.9C104.998 134.499 104.967 135.293 104.905 136.283C104.853 138.347 104.77 141.287 104.687 144.733L104.936 144.589C102.267 143.227 99.2037 141.628 95.9533 139.905C90.626 137.078 85.7868 134.519 82.2353 132.765C80.4595 131.888 79.0161 131.197 78.0088 130.702L76.8457 130.176C76.7078 130.124 76.5652 130.086 76.4199 130.062Z" fill="#263238"/>
<path d="M108.632 134.787C109.07 132.146 109.192 129.462 108.995 126.791C108.995 126.791 107.167 121.633 107.437 120.694C107.707 119.755 108.175 118.785 110.002 119.662C111.83 120.539 114.156 122.21 114.395 125.213C114.451 126.615 114.699 128.004 115.132 129.34L116.867 126.698L116.503 123.975C116.503 123.975 113.917 123.325 113.824 121.911C114.664 121.251 115.537 120.635 116.441 120.064C116.441 120.064 121.072 120.291 121.54 122.014C122.007 123.737 123.18 127.472 123.18 127.472C123.18 127.472 127.023 128.112 127.48 131.207C127.48 131.207 129.681 134.117 129.556 135.933C130.219 137.102 130.596 138.409 130.657 139.75C130.564 141.483 125.527 148.757 125.527 148.757L123.99 160.158L109.857 155.412L110.792 145.022C110.792 145.022 107.894 138.522 108.632 134.787Z" fill="#FFBF9D"/>
<path d="M108.633 134.725C108.565 134.954 108.52 135.189 108.498 135.427C108.423 136.113 108.423 136.805 108.498 137.49C108.862 140.094 109.585 142.635 110.648 145.043V144.96C110.368 147.87 110.025 151.378 109.61 155.34V155.525L109.797 155.577L124.065 159.312L124.356 159.384V159.095C124.802 155.814 125.27 152.348 125.768 148.778V148.901C127.066 147.003 128.364 145.032 129.569 142.928C129.87 142.401 130.161 141.896 130.431 141.308C130.746 140.729 130.923 140.087 130.95 139.43C130.849 138.141 130.462 136.891 129.818 135.767V135.932C129.803 135.218 129.637 134.515 129.33 133.869C128.878 132.854 128.314 131.892 127.648 131.001L127.71 131.135C127.528 130.046 126.928 129.07 126.038 128.411C125.184 127.788 124.202 127.361 123.161 127.163L123.39 127.359C122.819 125.481 122.248 123.624 121.697 121.808C121.47 121.309 121.068 120.909 120.565 120.683C120.123 120.473 119.66 120.307 119.184 120.188C118.266 119.956 117.327 119.814 116.38 119.765H116.287L116.214 119.817L114.781 120.776L114.075 121.271L113.722 121.54L113.628 121.622L113.556 121.705C113.512 121.769 113.487 121.844 113.483 121.921V122.179C113.704 122.771 114.147 123.256 114.719 123.531C115.226 123.804 115.762 124.018 116.318 124.171L116.11 123.944C116.245 124.872 116.37 125.78 116.484 126.678V126.502L114.75 129.144H115.197C114.884 128.135 114.672 127.098 114.563 126.048C114.529 124.979 114.282 123.927 113.836 122.953C112.849 121.237 111.287 119.919 109.423 119.228C109.195 119.129 108.95 119.077 108.701 119.077C108.452 119.077 108.207 119.129 107.979 119.228C107.575 119.483 107.285 119.882 107.169 120.343C107.087 120.556 107.052 120.785 107.065 121.013C107.082 121.225 107.109 121.435 107.148 121.643C107.232 122.035 107.325 122.417 107.418 122.788C107.823 124.274 108.28 125.594 108.696 126.781C108.85 128.759 108.85 130.746 108.696 132.724C108.633 133.405 108.571 133.91 108.53 134.251C108.511 134.426 108.511 134.602 108.53 134.777C108.583 134.611 108.624 134.443 108.654 134.271C108.727 133.931 108.81 133.415 108.893 132.744C109.117 130.758 109.166 128.755 109.038 126.76C108.644 125.574 108.208 124.253 107.834 122.778C107.74 122.406 107.647 122.035 107.585 121.643C107.545 121.456 107.521 121.266 107.512 121.075C107.498 120.892 107.53 120.707 107.605 120.539C107.627 120.346 107.697 120.163 107.809 120.004C107.922 119.846 108.073 119.719 108.248 119.635C108.423 119.55 108.617 119.511 108.812 119.521C109.006 119.531 109.195 119.59 109.36 119.693C111.12 120.358 112.589 121.613 113.514 123.242C113.934 124.167 114.16 125.168 114.179 126.182C114.284 127.288 114.499 128.38 114.823 129.443L114.978 129.907L115.269 129.484C115.83 128.631 116.412 127.754 117.014 126.853L117.066 126.771V126.678C116.941 125.79 116.827 124.882 116.702 123.954V123.778H116.526C116.018 123.643 115.53 123.446 115.072 123.19C114.629 122.979 114.281 122.611 114.096 122.159V121.994C114.148 121.994 113.597 121.994 113.836 121.994H113.961C114.013 121.994 114.127 122.097 114.075 122.107H114.137L114.459 121.859L115.155 121.375L116.588 120.425H116.422C117.326 120.482 118.222 120.62 119.101 120.838C119.932 121.065 120.939 121.426 121.178 122.107C121.732 123.923 122.289 125.77 122.85 127.648V127.813H123.037C123.979 128.002 124.869 128.392 125.643 128.958C126.417 129.518 126.936 130.36 127.087 131.3V131.372L127.139 131.434C127.773 132.292 128.313 133.216 128.748 134.189C129.014 134.748 129.162 135.355 129.185 135.974V136.056V136.128C129.765 137.172 130.119 138.325 130.223 139.513C130.188 140.08 130.028 140.633 129.756 141.132C129.496 141.669 129.216 142.164 128.915 142.721C127.731 144.785 126.433 146.766 125.155 148.654V148.705V148.778C124.678 152.378 124.221 155.845 123.785 159.095L124.117 158.868L109.817 155.226L109.983 155.453C110.326 151.491 110.617 147.973 110.866 145.063V144.981C109.782 142.611 109.017 140.11 108.592 137.542C108.482 136.605 108.496 135.658 108.633 134.725Z" fill="#FF9A6C"/>
<path d="M112.094 134.385C112.9 133.584 113.563 132.652 114.056 131.631C114.712 130.709 115.204 129.683 115.51 128.597C114.701 129.392 114.036 130.32 113.548 131.342C112.89 132.265 112.398 133.295 112.094 134.385Z" fill="#FF9A6C"/>
<g opacity="0.3">
<path d="M100.458 216.574C90.0744 216.481 80.0239 212.919 71.9243 206.463C63.8246 200.006 58.1469 191.03 55.8047 180.979L100.458 216.574Z" fill="black"/>
</g>
<path d="M106.901 154.36L94.1697 189.171L68.8521 149.046C68.8521 149.046 55.6325 134.313 49.4226 143C43.2126 151.687 46.3695 168.133 50.3052 175.944C53.971 183.166 87.8662 226.2 94.0762 226.891C100.286 227.583 108.282 223.579 111.938 215.542C115.593 207.505 128.719 160.488 128.719 160.488L106.901 154.36Z" fill="#455A64"/>
<path d="M53.0215 141.277C55.1975 141.388 57.3523 141.758 59.4391 142.381C62.8661 143.547 65.0157 145.641 65.1403 145.476C63.7087 143.736 61.7896 142.458 59.6261 141.803C57.5281 140.971 55.2261 140.788 53.0215 141.277Z" fill="#263238"/>
<path d="M67.7122 148.221C67.7122 148.221 67.8576 148.479 68.1587 148.974L69.5295 151.141C70.7653 153.06 72.5514 155.845 74.8256 159.395L94.1929 189.315L94.4421 189.707L94.6082 189.274C98.3259 178.956 102.604 167.029 107.246 154.133L106.904 154.308L128.919 160.829L128.722 160.468C126.967 166.421 125.139 172.673 123.27 179.039C120.725 187.53 118.192 195.815 115.595 203.801C114.256 207.763 112.989 211.673 111.442 215.346C109.918 218.938 107.147 221.867 103.632 223.6C100.305 225.288 96.5823 226.058 92.8532 225.829H92.1782L91.5967 225.653C91.2026 225.467 90.8241 225.249 90.4648 225.003C90.1029 224.759 89.7561 224.494 89.4263 224.209C89.0836 223.941 88.7409 223.662 88.3879 223.363C87.0586 222.197 85.8333 220.969 84.6494 219.741C79.9348 214.799 75.8537 209.888 72.1879 205.39C64.8461 196.352 59.2072 188.81 55.4169 183.527C53.5165 180.886 52.0938 178.802 51.1696 177.337C50.7127 176.614 50.3804 176.057 50.1311 175.675C49.8819 175.294 49.7988 175.108 49.7988 175.108C49.7988 175.108 49.8819 175.314 50.0792 175.706C50.2765 176.098 50.5984 176.666 51.0554 177.398C51.9484 178.864 53.34 180.968 55.2092 183.641C58.9476 188.975 64.5553 196.558 71.8245 205.627C75.4902 210.146 79.5506 215.078 84.286 220.071C85.4698 221.32 86.7056 222.558 88.0348 223.734C88.3671 224.033 88.7098 224.333 89.0733 224.611C89.4046 224.901 89.7513 225.173 90.1117 225.426C90.4959 225.694 90.9023 225.929 91.3267 226.128C91.5655 226.2 91.8148 226.283 92.0536 226.334L92.7494 226.396C96.5777 226.643 100.402 225.859 103.819 224.126C107.456 222.333 110.324 219.302 111.899 215.583C113.498 211.848 114.765 207.948 116.052 203.987C118.659 196.032 121.245 187.757 123.737 179.225C125.637 172.869 127.475 166.617 129.189 160.653L129.272 160.375L128.992 160.302L106.966 153.802L106.706 153.73L106.623 153.978L94.0786 189.15H94.4836L74.9606 159.302L69.5503 151.048L68.273 148.933C67.8991 148.458 67.7122 148.221 67.7122 148.221Z" fill="#263238"/>
<g opacity="0.3">
<path d="M72.1486 219.886C72.7936 219.341 73.6179 219.051 74.4644 219.071C88.86 217.802 103.33 217.585 117.758 218.421L132.41 229.543C132.488 229.786 132.48 230.049 132.387 230.287C132.295 230.525 132.123 230.725 131.901 230.853C131.444 231.095 130.935 231.223 130.416 231.225L118.993 232.256C115.479 232.633 111.946 232.798 108.412 232.752C106.21 232.679 104.008 232.432 101.807 232.442C98.156 232.622 94.5166 232.987 90.9032 233.536C88.019 233.925 85.0923 233.88 82.2217 233.402C79.3381 232.915 76.686 231.527 74.6513 229.44C72.8692 227.43 71.8067 224.89 71.6294 222.218C71.5489 221.814 71.5535 221.399 71.6429 220.998C71.7323 220.596 71.9045 220.218 72.1486 219.886Z" fill="black"/>
</g>
<path d="M71.9298 218.431C72.3868 218.204 78.4098 215.769 78.4098 215.769L86.1463 214.242L78.711 213.943L72.2206 215.738C72.2206 215.738 69.6245 216.037 70.206 213.871C70.7875 211.704 78.7006 209.3 78.7006 209.3L88.8048 208.619C88.8048 208.619 80.9956 207.484 80.196 205.08C79.9399 204.462 79.8578 203.785 79.9584 203.124C80.059 202.463 80.3385 201.841 80.7671 201.325C83.4197 202.386 86.1436 203.261 88.919 203.945C92.3877 204.663 95.7734 205.731 99.0232 207.133C101.322 208.041 103.568 209.075 105.752 210.229L110.041 225.055C110.041 225.055 102.928 229.502 94.8901 229.275C86.8525 229.048 79.739 231.627 78.7006 230.905C77.6621 230.183 77.5583 228.934 78.7006 228.356C80.6677 227.78 82.6784 227.363 84.7132 227.108L88.8671 225.395C88.8671 225.395 74.5156 226.654 73.3733 226.076C72.231 225.499 71.0783 224.714 71.5352 223.456C71.6455 223.111 71.8583 222.807 72.1455 222.584C72.4328 222.361 72.7811 222.23 73.1448 222.207C73.1448 222.207 70.0295 222.321 70.1541 221.062C70.249 220.525 70.456 220.013 70.7618 219.56C71.0676 219.107 71.4655 218.722 71.9298 218.431Z" fill="#FFBF9D"/>
<path d="M88.5579 219.948C87.7563 220.061 86.9479 220.119 86.1383 220.123C84.6533 220.216 82.6075 220.391 80.3644 220.721C78.1214 221.052 76.1172 221.506 74.6633 221.856C73.8938 222.087 73.1098 222.266 72.3164 222.393C73.0397 222.031 73.8029 221.754 74.5906 221.568C76.4621 221.012 78.3706 220.588 80.3021 220.298C82.2306 220.006 84.1772 219.848 86.1279 219.824C86.94 219.77 87.7555 219.812 88.5579 219.948Z" fill="#FF9A6C"/>
<path d="M131.143 204.038L133.002 164.832L137.156 146.941L151.819 187.107L156.772 205.101C160.428 222.135 147.115 229.203 141.102 228.986L108.858 229.522L105.898 209.599L131.143 204.038Z" fill="#455A64"/>
<path d="M131.488 204.048L133.264 164.347L131.488 204.048Z" fill="white"/>
<path d="M133.26 164.347C133.105 164.347 132.565 173.22 132.077 184.187C131.588 195.155 131.318 204.038 131.485 204.048C131.651 204.059 132.18 195.175 132.668 184.208C133.157 173.24 133.427 164.357 133.26 164.347Z" fill="#263238"/>
<path d="M141.751 228.893C141.538 228.867 141.321 228.867 141.108 228.893H139.28L132.426 229.068L108.708 229.853L108.998 230.1C108.396 225.726 107.752 220.99 107.077 216.068C106.776 213.902 106.485 211.766 106.205 209.744L105.977 210.064C111.605 208.784 116.922 207.618 121.74 206.607C124.139 206.112 126.413 205.648 128.553 205.266C130.501 204.845 132.488 204.63 134.482 204.626C137.345 204.533 140.175 205.249 142.644 206.69C143.507 207.278 144.292 207.971 144.981 208.753C144.839 208.525 144.679 208.307 144.503 208.103C143.991 207.513 143.404 206.989 142.759 206.545C140.278 204.98 137.389 204.172 134.451 204.224C132.432 204.204 130.416 204.398 128.438 204.802C126.299 205.163 124.015 205.607 121.595 206.091C116.777 207.123 111.46 208.217 105.81 209.486L105.551 209.548V209.806C105.821 211.869 106.122 213.933 106.413 216.13C107.098 221.052 107.752 225.798 108.365 230.162V230.41H108.77L132.478 229.378L139.332 229.038L141.159 228.924C141.357 228.929 141.555 228.918 141.751 228.893Z" fill="#263238"/>
<path d="M90.896 202.48C91.0829 202.48 91.301 199.385 92.3394 195.64C93.3779 191.895 94.7902 189.109 94.6344 189.026C92.0958 193.038 90.7961 197.701 90.896 202.439V202.48Z" fill="#263238"/>
<g opacity="0.3">
<path d="M131.818 204.069C134.216 203.257 136.695 202.707 139.212 202.428C141.748 202.163 144.305 202.682 146.533 203.914C147.262 204.309 147.858 204.908 148.247 205.637C148.421 206.008 148.48 206.421 148.417 206.825C148.355 207.23 148.172 207.606 147.894 207.907C147.601 208.127 147.257 208.27 146.893 208.32C146.53 208.371 146.159 208.328 145.817 208.196C145.13 207.937 144.481 207.59 143.885 207.164C140.518 205.02 136.474 204.182 132.525 204.812" fill="black"/>
</g>
</g>
<defs>
<linearGradient id="paint0_linear_3110_42728" x1="293.901" y1="190.47" x2="269.215" y2="215.515" gradientUnits="userSpaceOnUse">
<stop stop-color="#78DBF8"/>
<stop offset="0.690625" stop-color="#50BEF2"/>
<stop offset="1" stop-color="#42B4F0"/>
</linearGradient>
<linearGradient id="paint1_linear_3110_42728" x1="314.433" y1="230.922" x2="289.745" y2="205.874" gradientUnits="userSpaceOnUse">
<stop stop-color="#FAE267"/>
<stop offset="0.651042" stop-color="#F7D14E"/>
<stop offset="1" stop-color="#F6C841"/>
</linearGradient>
<linearGradient id="paint2_linear_3110_42728" x1="253.223" y1="211.084" x2="277.909" y2="236.13" gradientUnits="userSpaceOnUse">
<stop stop-color="#3FB3B7"/>
<stop offset="0.690625" stop-color="#309599"/>
<stop offset="1" stop-color="#278589"/>
</linearGradient>
<linearGradient id="paint3_linear_3110_42728" x1="273.783" y1="251.532" x2="298.47" y2="226.486" gradientUnits="userSpaceOnUse">
<stop stop-color="#E95F45"/>
<stop offset="0.739583" stop-color="#D83F2E"/>
<stop offset="1" stop-color="#D23426"/>
</linearGradient>
<linearGradient id="paint4_linear_3110_42728" x1="223.186" y1="190.47" x2="198.5" y2="215.515" gradientUnits="userSpaceOnUse">
<stop stop-color="#78DBF8"/>
<stop offset="0.690625" stop-color="#50BEF2"/>
<stop offset="1" stop-color="#42B4F0"/>
</linearGradient>
<linearGradient id="paint5_linear_3110_42728" x1="243.718" y1="230.922" x2="219.03" y2="205.874" gradientUnits="userSpaceOnUse">
<stop stop-color="#FAE267"/>
<stop offset="0.651042" stop-color="#F7D14E"/>
<stop offset="1" stop-color="#F6C841"/>
</linearGradient>
<linearGradient id="paint6_linear_3110_42728" x1="182.508" y1="211.084" x2="207.194" y2="236.13" gradientUnits="userSpaceOnUse">
<stop stop-color="#3FB3B7"/>
<stop offset="0.690625" stop-color="#309599"/>
<stop offset="1" stop-color="#278589"/>
</linearGradient>
<linearGradient id="paint7_linear_3110_42728" x1="203.068" y1="251.532" x2="227.755" y2="226.486" gradientUnits="userSpaceOnUse">
<stop stop-color="#E95F45"/>
<stop offset="0.739583" stop-color="#D83F2E"/>
<stop offset="1" stop-color="#D23426"/>
</linearGradient>
<clipPath id="clip0_3110_42728">
<rect width="334.986" height="325" fill="white"/>
</clipPath>
</defs>
</svg>
