<svg width="537" height="311" viewBox="0 0 537 311" fill="none" xmlns="http://www.w3.org/2000/svg">
<g clip-path="url(#clip0_3932_28218)">
<path d="M116.272 206.713H9.37891V289.156H116.272V206.713Z" fill="#EBEBEB"/>
<path d="M89.4932 288.569C89.3711 288.569 89.2734 270.199 89.2734 247.531C89.2734 224.863 89.3711 206.484 89.4932 206.484C89.6153 206.484 89.7048 224.863 89.7048 247.531C89.7048 270.199 89.6072 288.569 89.4932 288.569Z" fill="#E0E0E0"/>
<path d="M107.212 270.387H99.0156V279.649H107.212V270.387Z" fill="#FAFAFA"/>
<path d="M54.136 206.924H41.9922V224.513H54.136V206.924Z" fill="#E0E0E0"/>
<path d="M54.136 271.314H41.9922V288.903H54.136V271.314Z" fill="#E0E0E0"/>
<path d="M132.989 124.457H26.0957V206.9H132.989V124.457Z" fill="#EBEBEB"/>
<path d="M106.202 206.315C106.088 206.315 105.99 187.944 105.99 165.276C105.99 142.609 106.088 124.238 106.202 124.238C106.316 124.238 106.413 142.609 106.413 165.276C106.413 187.944 106.324 206.315 106.202 206.315Z" fill="#E0E0E0"/>
<path d="M123.923 188.131H115.727V197.393H123.923V188.131Z" fill="#FAFAFA"/>
<path d="M70.845 124.668H58.7012V142.257H70.845V124.668Z" fill="#E0E0E0"/>
<path d="M70.845 189.066H58.7012V206.655H70.845V189.066Z" fill="#E0E0E0"/>
<path d="M125.64 58.3828H39.6895V124.669H125.64V58.3828Z" fill="#F5F5F5"/>
<path d="M104.103 124.204C104.013 124.204 103.932 109.424 103.932 91.1997C103.932 72.9759 104.013 58.2031 104.103 58.2031C104.192 58.2031 104.273 72.9759 104.273 91.1997C104.273 109.424 104.2 124.204 104.103 124.204Z" fill="#E0E0E0"/>
<path d="M118.355 109.578H111.762V117.026H118.355V109.578Z" fill="#FAFAFA"/>
<path d="M75.6711 58.5547H65.9121V72.7007H75.6711V58.5547Z" fill="#E0E0E0"/>
<path d="M75.6711 110.328H65.9121V124.474H75.6711V110.328Z" fill="#E0E0E0"/>
<path d="M509.308 104.402H428.574V166.668H509.308V104.402Z" fill="#F5F5F5"/>
<path d="M489.083 166.235C488.993 166.235 488.92 152.349 488.92 135.233C488.92 118.116 488.993 104.238 489.083 104.238C489.172 104.238 489.237 118.116 489.237 135.233C489.237 152.349 489.172 166.235 489.083 166.235Z" fill="#E0E0E0"/>
<path d="M502.453 152.496H496.268V159.496H502.453V152.496Z" fill="#FAFAFA"/>
<path d="M462.376 104.566H453.203V117.85H462.376V104.566Z" fill="#E0E0E0"/>
<path d="M462.376 153.205H453.203V166.488H462.376V153.205Z" fill="#E0E0E0"/>
<path d="M536.364 238.262H443.316V310.034H536.364V238.262Z" fill="#EBEBEB"/>
<path d="M513.085 309.521C512.988 309.521 512.906 293.527 512.906 273.798C512.906 254.068 512.988 238.066 513.085 238.066C513.183 238.066 513.272 254.06 513.272 273.798C513.272 293.536 513.159 309.521 513.085 309.521Z" fill="#E0E0E0"/>
<path d="M528.476 293.689H521.346V301.755H528.476V293.689Z" fill="#FAFAFA"/>
<path d="M482.278 238.441H471.705V253.751H482.278V238.441Z" fill="#E0E0E0"/>
<path d="M482.278 294.504H471.705V309.814H482.278V294.504Z" fill="#E0E0E0"/>
<path d="M523.511 166.676H430.463V238.448H523.511V166.676Z" fill="#EBEBEB"/>
<path d="M500.201 237.935C500.095 237.935 500.014 221.941 500.014 202.212C500.014 182.482 500.095 166.48 500.201 166.48C500.307 166.48 500.388 182.474 500.388 202.212C500.388 221.95 500.307 237.935 500.201 237.935Z" fill="#E0E0E0"/>
<path d="M515.624 222.105H508.494V230.171H515.624V222.105Z" fill="#FAFAFA"/>
<path d="M469.426 166.855H458.854V182.165H469.426V166.855Z" fill="#E0E0E0"/>
<path d="M469.426 222.918H458.854V238.228H469.426V222.918Z" fill="#E0E0E0"/>
<path d="M351.903 105.404H271.17V167.67H351.903V105.404Z" fill="#F5F5F5"/>
<path d="M331.676 167.237C331.587 167.237 331.521 153.351 331.521 136.235C331.521 119.118 331.587 105.24 331.676 105.24C331.766 105.24 331.839 119.077 331.839 136.235C331.839 153.392 331.766 167.237 331.676 167.237Z" fill="#E0E0E0"/>
<path d="M345.059 153.498H338.873V160.498H345.059V153.498Z" fill="#FAFAFA"/>
<path d="M304.972 105.566H295.799V118.85H304.972V105.566Z" fill="#E0E0E0"/>
<path d="M304.972 154.207H295.799V167.49H304.972V154.207Z" fill="#E0E0E0"/>
<path d="M359.065 43.3008H278.332V105.566H359.065V43.3008Z" fill="#EBEBEB"/>
<path d="M338.839 105.126C338.749 105.126 338.676 91.289 338.676 74.1314C338.676 56.9738 338.749 43.1289 338.839 43.1289C338.928 43.1289 339.001 56.9657 339.001 74.1314C339.001 91.2971 338.904 105.126 338.839 105.126Z" fill="#E0E0E0"/>
<path d="M352.219 91.3945H346.033V98.3943H352.219V91.3945Z" fill="#FAFAFA"/>
<path d="M312.134 43.457H302.961V56.7403H312.134V43.457Z" fill="#E0E0E0"/>
<path d="M312.134 92.0957H302.961V105.379H312.134V92.0957Z" fill="#E0E0E0"/>
<path d="M356.038 0.0820312H298.273V44.6364H356.038V0.0820312Z" fill="#EBEBEB"/>
<path d="M341.575 44.3265C341.51 44.3265 341.461 34.3965 341.461 22.1469C341.461 9.89735 341.51 0 341.575 0C341.64 0 341.689 9.92991 341.689 22.1795C341.689 34.4291 341.632 44.3265 341.575 44.3265Z" fill="#E0E0E0"/>
<path d="M351.145 34.5039H346.717V39.5096H351.145V34.5039Z" fill="#FAFAFA"/>
<path d="M322.463 0.203125H315.902V9.70979H322.463V0.203125Z" fill="#E0E0E0"/>
<path d="M322.463 35H315.902V44.5067H322.463V35Z" fill="#E0E0E0"/>
<path d="M378.966 239.262H285.918V311.034H378.966V239.262Z" fill="#EBEBEB"/>
<path d="M355.654 310.521C355.548 310.521 355.467 294.527 355.467 274.798C355.467 255.068 355.548 239.066 355.654 239.066C355.76 239.066 355.833 255.06 355.833 274.798C355.833 294.536 355.752 310.521 355.654 310.521Z" fill="#E0E0E0"/>
<path d="M371.069 294.691H363.939V302.757H371.069V294.691Z" fill="#FAFAFA"/>
<path d="M324.872 239.441H314.299V254.751H324.872V239.441Z" fill="#E0E0E0"/>
<path d="M324.872 295.504H314.299V310.814H324.872V295.504Z" fill="#E0E0E0"/>
<path d="M366.105 167.676H273.057V239.448H366.105V167.676Z" fill="#EBEBEB"/>
<path d="M342.802 238.935C342.697 238.935 342.615 222.941 342.615 203.212C342.615 183.482 342.697 167.48 342.802 167.48C342.908 167.48 342.982 183.474 342.982 203.212C342.982 222.95 342.9 238.935 342.802 238.935Z" fill="#E0E0E0"/>
<path d="M358.22 223.105H351.09V231.171H358.22V223.105Z" fill="#FAFAFA"/>
<path d="M312.02 167.855H301.447V183.165H312.02V167.855Z" fill="#E0E0E0"/>
<path d="M312.02 223.918H301.447V239.228H312.02V223.918Z" fill="#E0E0E0"/>
<path d="M163.747 296.815V289.156H7.0664C6.51162 289.156 5.97957 289.377 5.58728 289.769C5.19499 290.161 4.97461 290.693 4.97461 291.248V294.724C4.97461 295.278 5.19499 295.81 5.58728 296.203C5.97957 296.595 6.51162 296.815 7.0664 296.815H11.429V300.34C11.429 300.61 11.3758 300.878 11.2723 301.128C11.1688 301.377 11.0171 301.604 10.8259 301.796C10.6347 301.987 10.4077 302.139 10.1578 302.242C9.90801 302.346 9.64024 302.399 9.36981 302.399H7.03384C6.49606 302.399 5.97955 302.609 5.59474 302.985C5.20993 303.36 4.98736 303.872 4.97461 304.409V307.95C4.97461 308.496 5.19156 309.02 5.57775 309.406C5.96393 309.792 6.4877 310.009 7.03384 310.009H163.747V302.35H127.226V296.799L163.747 296.815ZM48.9836 296.815H58.3763V302.366H48.9836V296.815ZM42.7245 302.366H33.34V296.815H42.7245V302.366ZM64.611 296.815H73.9956V302.366H64.611V296.815ZM80.2547 296.815H89.6474V302.366H80.2791L80.2547 296.815ZM95.9065 296.815H105.307V302.366H95.9309L95.9065 296.815ZM17.6637 296.815H27.0809V302.366H17.6881L17.6637 296.815ZM120.943 302.366H111.575V296.815H120.967L120.943 302.366Z" fill="#E0E0E0"/>
<path d="M158.465 137.145H73.6699V202.552H158.465V137.145Z" fill="#349F6E"/>
<path opacity="0.3" d="M158.465 137.145H73.6699V202.552H158.465V137.145Z" fill="black"/>
<path d="M137.222 202.089C137.149 202.089 137.084 187.511 137.084 169.532C137.084 151.552 137.149 136.975 137.222 136.975C137.296 136.975 137.361 151.552 137.361 169.532C137.361 187.511 137.296 202.089 137.222 202.089Z" fill="#263238"/>
<path d="M151.279 187.666H144.775V195.016H151.279V187.666Z" fill="#F5F5F5"/>
<path d="M109.166 137.316H99.5371V151.275H109.166V137.316Z" fill="#263238"/>
<path d="M109.166 188.398H99.5371V202.357H109.166V188.398Z" fill="#263238"/>
<path d="M157.732 137.146H157.512H156.877H154.435L145.425 137.187H115.709H85.984L76.982 137.138L85.984 137.098H115.709H145.425L154.435 137.138H156.877H157.512L157.732 137.146Z" fill="#263238"/>
<path d="M229.057 137.064H144.262V202.472H229.057V137.064Z" fill="#349F6E"/>
<path d="M207.814 202.009C207.741 202.009 207.676 187.431 207.676 169.452C207.676 151.472 207.741 136.895 207.814 136.895C207.887 136.895 207.953 151.464 207.953 169.452C207.953 187.439 207.863 202.009 207.814 202.009Z" fill="#263238"/>
<path d="M221.87 187.586H215.367V194.936H221.87V187.586Z" fill="#F5F5F5"/>
<path opacity="0.5" d="M179.758 137.236H170.129V151.195H179.758V137.236Z" fill="white"/>
<path opacity="0.5" d="M179.758 188.318H170.129V202.277H179.758V188.318Z" fill="white"/>
<path d="M228.106 137.064H227.463H225.021L216.019 137.105H186.303H156.578L147.568 137.064L156.578 137.015L186.303 136.975L216.019 137.015L225.021 137.064H227.463H228.106Z" fill="#263238"/>
<path d="M233.818 71.6562H149.023V137.063H233.818V71.6562Z" fill="#349F6E"/>
<path d="M212.576 136.6C212.494 136.6 212.438 122.023 212.438 104.043C212.438 86.0638 212.494 71.4863 212.576 71.4863C212.657 71.4863 212.714 86.0556 212.714 104.043C212.714 122.031 212.649 136.6 212.576 136.6Z" fill="#263238"/>
<path d="M226.632 122.178H220.129V129.527H226.632V122.178Z" fill="#F5F5F5"/>
<path d="M184.519 71.8281H174.891V85.787H184.519V71.8281Z" fill="#263238"/>
<path d="M184.519 122.91H174.891V136.869H184.519V122.91Z" fill="#263238"/>
<path d="M233.093 71.625C233.023 71.6372 232.951 71.6372 232.881 71.625H232.238H229.797H220.795L191.078 71.6657L161.353 71.625H152.343H149.901H149.258C149.188 71.6372 149.117 71.6372 149.047 71.625H149.258H149.901H152.343L161.353 71.5762H191.078H220.795L229.797 71.625H232.238H232.881H233.093Z" fill="#263238"/>
<path d="M224.751 275.374V267.715H68.0784C67.5229 267.715 66.99 267.935 66.5964 268.327C66.2029 268.719 65.9807 269.251 65.9785 269.807V273.282C65.9807 273.838 66.2029 274.37 66.5964 274.762C66.99 275.154 67.5229 275.374 68.0784 275.374H72.4411V278.857C72.4411 279.406 72.2233 279.932 71.8356 280.319C71.4479 280.707 70.922 280.925 70.3737 280.925H68.0459C67.499 280.925 66.9744 281.142 66.5869 281.528C66.1994 281.913 65.9807 282.437 65.9785 282.984V286.5C65.9807 287.047 66.1994 287.571 66.5869 287.957C66.9744 288.343 67.499 288.559 68.0459 288.559H224.751V280.9H188.23V275.349L224.751 275.374ZM109.988 275.374H119.372V280.925H109.996L109.988 275.374ZM103.728 280.925H94.3439V275.374H103.737L103.728 280.925ZM125.656 275.374H135.048V280.925H125.656V275.374ZM141.307 275.374H150.692V280.925H141.291L141.307 275.374ZM156.951 275.374H166.352V280.925H156.935L156.951 275.374ZM78.7165 275.374H88.101V280.925H78.7002L78.7165 275.374ZM181.987 280.925H172.578V275.374H181.971L181.987 280.925Z" fill="#455A64"/>
<path d="M351.041 143.421C351.297 143.158 351.499 142.848 351.634 142.507C351.769 142.165 351.835 141.801 351.827 141.434C351.82 141.067 351.739 140.705 351.59 140.37C351.441 140.035 351.226 139.733 350.959 139.481L324.531 114.502C324.003 114.006 323.306 113.73 322.582 113.73C321.857 113.73 321.16 114.006 320.632 114.502C320.355 114.76 320.131 115.071 319.975 115.417C319.819 115.762 319.734 116.135 319.724 116.514C319.714 116.893 319.78 117.271 319.918 117.624C320.056 117.977 320.263 118.299 320.526 118.571L331.067 129.657L325.581 134.94L322.724 132.669L302.791 155.499L292.137 145.252L279.293 183.026L281.841 234.304H311.386L309.319 173.365L329.138 145.138L329.292 138.423L334.99 132.587L347.272 143.559C347.805 144.033 348.5 144.284 349.213 144.258C349.925 144.232 350.601 143.932 351.098 143.421H351.041Z" fill="#263238"/>
<path d="M271.348 243.804C271.234 243.804 271.137 197.02 271.137 139.32C271.137 81.6211 271.234 34.8203 271.348 34.8203C271.462 34.8203 271.56 81.5967 271.56 139.32C271.56 197.044 271.438 243.804 271.348 243.804Z" fill="#263238"/>
<path d="M337.48 230.624L355.452 180.69L348.696 177.955V168.31L397.833 167.553C398.991 167.531 400.102 167.088 400.959 166.308C401.815 165.528 402.359 164.464 402.489 163.312L409.716 99.1587C409.878 97.724 410.563 96.3992 411.639 95.4369C412.716 94.4747 414.109 93.9423 415.552 93.9414C416.344 93.9407 417.128 94.1002 417.856 94.4103C418.584 94.7203 419.242 95.1746 419.791 95.7456C420.339 96.3167 420.766 96.9928 421.046 97.7332C421.326 98.4736 421.454 99.263 421.421 100.054L418.67 166.161L444.325 166.299L445.196 178.354L369.321 181.325L349.535 229.908L337.48 230.624Z" fill="#455A64"/>
<path d="M348.785 229.404L284.908 229.909V234.165L311.369 233.824L353.514 233.498L455.694 219.075L444.112 174.993H374.928C373.732 174.975 372.55 175.249 371.484 175.791C370.417 176.333 369.499 177.126 368.808 178.102L348.785 229.404Z" fill="#263238"/>
<path d="M318.175 45.0582L271.781 193.136L272.107 234.329H286.814V193.396L324.857 45.4571L427.933 44.8792L447.646 198.98H459.277L435.291 45.9617C434.914 43.9601 433.849 42.1532 432.281 40.8529C430.714 39.5526 428.741 38.8406 426.704 38.8398H326.542C324.664 38.839 322.836 39.4436 321.329 40.5637C319.822 41.6838 318.716 43.2599 318.175 45.0582Z" fill="#455A64"/>
<path d="M263.404 281.903V242.346L272.064 234.329L353.457 233.279L368.108 221.363C370.837 219.147 374.195 217.849 377.704 217.651L393.38 216.764C393.38 216.764 400.413 211.921 407.217 207.119C415.835 201.013 426.135 197.731 436.697 197.727H481.813C483.452 197.727 485.023 198.377 486.182 199.536C487.34 200.695 487.991 202.266 487.991 203.904V281.903H263.404Z" fill="#349F6E"/>
<path d="M487.976 269.156H262.607V282.163H487.976V269.156Z" fill="#263238"/>
<path d="M274.271 281.757C274.189 287.269 275.744 292.681 278.739 297.309C281.733 301.937 286.033 305.573 291.094 307.758C296.155 309.942 301.751 310.576 307.172 309.58C312.594 308.584 317.598 306.002 321.553 302.162C325.507 298.321 328.234 293.394 329.388 288.004C330.542 282.614 330.071 277.002 328.036 271.879C326.001 266.757 322.492 262.352 317.953 259.224C313.415 256.095 308.05 254.383 302.538 254.304C295.15 254.197 288.021 257.029 282.72 262.178C277.419 267.326 274.38 274.369 274.271 281.757Z" fill="#263238"/>
<path d="M274.278 281.691C274.278 281.691 274.278 281.732 274.278 281.757C274.236 289.105 277.098 296.172 282.241 301.421C287.384 306.67 294.392 309.675 301.739 309.782C309.087 309.889 316.18 307.09 321.474 301.994C326.768 296.898 329.835 289.917 330.007 282.57C330.007 282.57 330.007 282.522 330.007 282.497L274.278 281.691Z" fill="#263238"/>
<path d="M282.574 281.878C282.524 285.739 283.62 289.527 285.723 292.766C287.825 296.004 290.84 298.546 294.387 300.072C297.933 301.598 301.853 302.039 305.65 301.338C309.446 300.638 312.951 298.828 315.72 296.138C318.489 293.447 320.398 289.996 321.207 286.221C322.016 282.446 321.688 278.516 320.265 274.927C318.841 271.338 316.387 268.251 313.21 266.056C310.033 263.862 306.278 262.658 302.417 262.596C299.847 262.555 297.294 263.022 294.905 263.97C292.516 264.917 290.337 266.327 288.493 268.118C286.65 269.91 285.178 272.047 284.162 274.408C283.147 276.77 282.607 279.308 282.574 281.878Z" fill="#FAFAFA"/>
<path d="M302.416 262.596C299.846 262.555 297.293 263.022 294.903 263.97C292.514 264.917 290.335 266.327 288.492 268.118C286.648 269.91 285.177 272.047 284.161 274.408C283.145 276.77 282.605 279.308 282.572 281.878L321.698 282.44C321.739 279.87 321.272 277.317 320.324 274.927C319.377 272.538 317.967 270.359 316.176 268.516C314.384 266.672 312.247 265.2 309.886 264.185C307.524 263.169 304.986 262.629 302.416 262.596Z" fill="#E0E0E0"/>
<path d="M290.216 281.993C290.187 284.349 290.858 286.661 292.143 288.637C293.428 290.612 295.27 292.162 297.436 293.091C299.602 294.019 301.995 294.284 304.312 293.853C306.629 293.422 308.766 292.313 310.452 290.667C312.139 289.021 313.3 286.912 313.788 284.607C314.276 282.301 314.07 279.903 313.195 277.715C312.32 275.526 310.816 273.647 308.873 272.313C306.93 270.98 304.635 270.253 302.278 270.223C299.118 270.187 296.073 271.405 293.812 273.612C291.55 275.819 290.256 278.833 290.216 281.993Z" fill="#263238"/>
<path d="M410.636 281.757C410.554 287.269 412.109 292.681 415.104 297.309C418.098 301.937 422.398 305.573 427.459 307.758C432.521 309.942 438.116 310.576 443.538 309.58C448.959 308.584 453.964 306.002 457.918 302.162C461.872 298.321 464.599 293.394 465.753 288.004C466.907 282.614 466.437 277.002 464.401 271.879C462.366 266.757 458.857 262.352 454.318 259.224C449.78 256.095 444.415 254.383 438.904 254.304C431.515 254.197 424.386 257.029 419.085 262.178C413.784 267.326 410.745 274.369 410.636 281.757Z" fill="#263238"/>
<path d="M410.645 281.691C410.645 281.691 410.645 281.732 410.645 281.757C410.603 289.105 413.465 296.172 418.608 301.421C423.751 306.67 430.759 309.675 438.106 309.782C445.454 309.889 452.547 307.09 457.841 301.994C463.135 296.898 466.202 289.917 466.375 282.57C466.375 282.57 466.375 282.522 466.375 282.497L410.645 281.691Z" fill="#263238"/>
<path d="M418.937 281.878C418.888 285.739 419.983 289.527 422.086 292.766C424.189 296.004 427.203 298.546 430.75 300.072C434.297 301.598 438.216 302.039 442.013 301.338C445.81 300.638 449.314 298.828 452.083 296.138C454.852 293.447 456.761 289.996 457.57 286.221C458.379 282.446 458.051 278.516 456.628 274.927C455.205 271.338 452.75 268.251 449.573 266.056C446.397 263.862 442.641 262.658 438.781 262.596C436.211 262.555 433.658 263.022 431.268 263.97C428.879 264.917 426.7 266.327 424.857 268.118C423.013 269.91 421.541 272.047 420.526 274.408C419.51 276.77 418.97 279.308 418.937 281.878Z" fill="#FAFAFA"/>
<path d="M438.781 262.596C436.211 262.555 433.658 263.022 431.269 263.97C428.879 264.917 426.7 266.327 424.857 268.118C423.014 269.91 421.542 272.047 420.526 274.408C419.51 276.77 418.97 279.308 418.938 281.878L458.063 282.44C458.104 279.87 457.637 277.317 456.69 274.927C455.742 272.538 454.332 270.359 452.541 268.516C450.75 266.672 448.612 265.2 446.251 264.185C443.89 263.169 441.351 262.629 438.781 262.596Z" fill="#E0E0E0"/>
<path d="M426.589 281.993C426.56 284.349 427.23 286.66 428.514 288.635C429.798 290.609 431.639 292.159 433.804 293.088C435.968 294.017 438.36 294.284 440.676 293.855C442.992 293.425 445.129 292.319 446.817 290.676C448.504 289.032 449.667 286.926 450.158 284.622C450.649 282.318 450.446 279.92 449.575 277.732C448.704 275.543 447.203 273.662 445.263 272.325C443.323 270.989 441.031 270.258 438.676 270.224C437.109 270.201 435.553 270.488 434.097 271.068C432.641 271.647 431.314 272.508 430.191 273.601C429.068 274.695 428.172 275.999 427.554 277.439C426.936 278.879 426.608 280.426 426.589 281.993Z" fill="#263238"/>
<path d="M474.766 262.328C474.715 262.266 474.669 262.201 474.628 262.133L474.27 261.547L473.7 260.586C473.451 260.146 473.179 259.72 472.886 259.308C471.098 256.619 468.988 254.159 466.603 251.983C465.886 251.259 465.015 250.632 464.161 249.908C463.306 249.183 462.329 248.565 461.353 247.873C460.376 247.181 459.302 246.546 458.146 245.984C457.584 245.691 457.015 245.374 456.429 245.089L454.597 244.275C451.999 243.18 449.293 242.361 446.523 241.833C443.55 241.262 440.522 241.032 437.497 241.15C431.633 241.477 425.917 243.106 420.762 245.919L419.02 246.896C418.459 247.238 417.93 247.612 417.393 247.954C416.294 248.622 415.35 249.435 414.381 250.144C413.412 250.852 412.574 251.657 411.777 252.431C410.979 253.204 410.197 253.945 409.546 254.734C407.378 257.129 405.511 259.78 403.987 262.629C403.732 263.065 403.504 263.516 403.304 263.98C403.116 264.371 402.954 264.705 402.823 264.99L402.522 265.608C402.49 265.679 402.452 265.747 402.408 265.812C402.422 265.735 402.447 265.661 402.481 265.592L402.742 264.957L403.181 263.931C403.374 263.46 403.594 263.001 403.841 262.556C405.318 259.659 407.161 256.965 409.327 254.539C409.97 253.725 410.775 253.009 411.549 252.195C412.322 251.381 413.25 250.664 414.161 249.867C415.073 249.069 416.082 248.329 417.181 247.645C417.718 247.295 418.255 246.92 418.809 246.57L420.559 245.569C423.061 244.212 425.699 243.121 428.429 242.314C431.369 241.45 434.397 240.925 437.456 240.751C443.384 240.52 449.288 241.618 454.736 243.966L456.575 244.78C457.169 245.065 457.739 245.39 458.309 245.691C459.473 246.261 460.49 246.994 461.564 247.612C462.639 248.231 463.51 248.98 464.381 249.688C465.251 250.396 466.106 251.063 466.822 251.796C469.205 254.008 471.295 256.516 473.041 259.26C473.336 259.678 473.607 260.113 473.855 260.562L474.384 261.547C474.522 261.799 474.628 261.994 474.709 262.157C474.791 262.32 474.774 262.32 474.766 262.328Z" fill="#263238"/>
<path d="M338.522 267.457C338.474 267.389 338.436 267.315 338.408 267.237C338.342 267.066 338.253 266.847 338.139 266.57L337.699 265.487C337.504 265.064 337.284 264.576 337.04 264.03C335.622 260.954 333.855 258.051 331.774 255.378C328.739 251.372 324.867 248.075 320.428 245.717C317.77 244.419 314.95 243.48 312.045 242.925C308.931 242.284 305.756 241.995 302.579 242.063C299.401 242.107 296.239 242.514 293.153 243.275C290.283 243.994 287.515 245.075 284.916 246.49C280.477 248.851 276.508 252.004 273.204 255.793C271.007 258.362 269.097 261.162 267.506 264.144C266.937 265.202 266.505 266.033 266.237 266.586C266.106 266.855 265.993 267.066 265.911 267.229C265.88 267.305 265.839 267.376 265.789 267.441C265.804 267.361 265.831 267.284 265.87 267.213L266.163 266.554C266.408 265.968 266.815 265.129 267.36 264.055C268.901 261.022 270.785 258.176 272.976 255.574C276.275 251.724 280.261 248.52 284.729 246.124C287.353 244.692 290.148 243.598 293.047 242.868C296.165 242.098 299.36 241.686 302.57 241.639C305.782 241.583 308.99 241.889 312.134 242.551C315.073 243.119 317.922 244.077 320.607 245.4C325.082 247.799 328.973 251.156 332.002 255.232C334.074 257.937 335.814 260.88 337.187 263.998L337.805 265.471C337.96 265.902 338.098 266.285 338.204 266.57C338.31 266.855 338.383 267.074 338.44 267.254C338.475 267.318 338.503 267.386 338.522 267.457Z" fill="#263238"/>
<path d="M263.348 267.715H139.811V282.162H263.348V267.715Z" fill="#263238"/>
<path d="M260.002 273.844C260.002 274.555 259.791 275.251 259.395 275.842C259 276.434 258.438 276.895 257.781 277.167C257.124 277.44 256.4 277.511 255.702 277.372C255.004 277.233 254.363 276.891 253.86 276.388C253.357 275.884 253.015 275.243 252.876 274.545C252.737 273.848 252.808 273.124 253.08 272.467C253.353 271.81 253.814 271.248 254.406 270.852C254.997 270.457 255.693 270.246 256.404 270.246C257.358 270.246 258.273 270.625 258.948 271.3C259.623 271.974 260.002 272.89 260.002 273.844Z" fill="#455A64"/>
<path d="M261.728 37.6992H251.416V242.548H261.728V37.6992Z" fill="#455A64"/>
<path d="M408.381 254.221C408.381 254.335 390.996 254.433 369.557 254.433C348.118 254.433 330.732 254.335 330.732 254.221C330.732 254.107 348.11 254.01 369.557 254.01C391.004 254.01 408.381 254.107 408.381 254.221Z" fill="#263238"/>
<path d="M392.557 251.153C392.435 251.153 392.346 243.591 392.346 234.264C392.346 224.936 392.435 217.383 392.557 217.383C392.679 217.383 392.769 224.936 392.769 234.264C392.769 243.591 392.671 251.153 392.557 251.153Z" fill="#263238"/>
<path d="M271.357 33.0039H250.309V42.3966H271.357V33.0039Z" fill="#263238"/>
<path d="M263.349 240.855H249.797V267.894H263.349V240.855Z" fill="#263238"/>
<path d="M231.881 202.496H147.086V267.903H231.881V202.496Z" fill="#349F6E"/>
<path opacity="0.3" d="M231.881 202.496H147.086V267.903H231.881V202.496Z" fill="black"/>
<path d="M210.638 267.438C210.565 267.438 210.5 252.861 210.5 234.881C210.5 216.902 210.565 202.324 210.638 202.324C210.712 202.324 210.777 216.902 210.777 234.881C210.777 252.861 210.712 267.438 210.638 267.438Z" fill="#263238"/>
<path d="M224.695 253.016H218.191V260.365H224.695V253.016Z" fill="#F5F5F5"/>
<path d="M182.582 202.668H172.953V216.627H182.582V202.668Z" fill="#263238"/>
<path d="M182.582 253.75H172.953V267.709H182.582V253.75Z" fill="#263238"/>
<path d="M231.141 202.496H230.929H230.286H227.844L218.834 202.537L189.142 202.667H159.418L150.416 202.626H147.974H147.331H147.119C147.19 202.619 147.26 202.619 147.331 202.626H147.974H150.416L159.418 202.586L189.142 202.545L218.859 202.586L227.869 202.626H230.311H230.954C231.011 202.576 231.074 202.533 231.141 202.496Z" fill="#263238"/>
<path d="M142.936 202.496H58.1406V267.903H142.936V202.496Z" fill="#349F6E"/>
<path d="M121.701 267.438C121.619 267.438 121.562 252.861 121.562 234.881C121.562 216.902 121.619 202.324 121.701 202.324C121.782 202.324 121.831 216.902 121.831 234.881C121.831 252.861 121.774 267.438 121.701 267.438Z" fill="#263238"/>
<path d="M135.755 253.016H129.252V260.365H135.755V253.016Z" fill="#F5F5F5"/>
<path opacity="0.5" d="M93.6424 202.668H84.0137V216.627H93.6424V202.668Z" fill="white"/>
<path opacity="0.5" d="M93.6424 253.75H84.0137V267.709H93.6424V253.75Z" fill="white"/>
<path d="M142.202 202.495H141.983H141.348H138.906L129.904 202.536H100.187H70.4628L61.4527 202.495H59.0109H58.376H58.1562C58.2294 202.489 58.3029 202.489 58.376 202.495H59.0109H61.4527L70.4628 202.455L100.187 202.414L129.904 202.455L138.906 202.495H141.348H141.983C142.056 202.488 142.129 202.488 142.202 202.495Z" fill="#263238"/>
<path d="M491.533 220.273C495.904 221.332 499.575 225.767 499.502 230.268C499.409 232.523 498.579 234.685 497.14 236.423C495.701 238.16 493.731 239.378 491.533 239.889" fill="#349F6E"/>
<g opacity="0.6">
<path d="M491.533 220.273C495.904 221.332 499.575 225.767 499.502 230.268C499.409 232.523 498.579 234.685 497.14 236.423C495.701 238.16 493.731 239.378 491.533 239.889" fill="white"/>
</g>
<path d="M491.711 217.75H487.975V242.502H491.711V217.75Z" fill="#349F6E"/>
<path opacity="0.3" d="M491.711 217.75H487.975V242.502H491.711V217.75Z" fill="black"/>
<path d="M313.958 118.566C313.508 118.218 313.2 117.719 313.087 117.162C312.975 116.605 313.068 116.026 313.347 115.531C313.974 114.44 314.706 113.154 315.04 112.617C315.448 111.981 315.82 111.324 316.155 110.647C316.258 110.242 316.473 109.875 316.776 109.587C317.078 109.299 317.455 109.102 317.864 109.019C318.859 108.891 319.867 108.921 320.852 109.109L331.034 111.306L335.779 113.65L331.164 117.72L328.6 116.906C327.827 117.573 324.807 117.923 323.782 117.801C322.471 117.639 319.85 116.784 318.361 117.069L316.92 117.272L317.604 117.842C318.856 117.752 320.109 118.008 321.226 118.583C321.404 118.703 321.541 118.876 321.616 119.077C321.692 119.279 321.702 119.499 321.647 119.707C321.591 119.915 321.472 120.1 321.306 120.237C321.14 120.374 320.936 120.456 320.721 120.471L317.376 120.691C316.471 120.266 315.6 119.77 314.772 119.209C314.512 118.98 314.24 118.766 313.958 118.566Z" fill="#FFBE9D"/>
<path d="M316.929 117.305C316.765 117.418 316.579 117.495 316.384 117.533C315.852 117.688 315.288 117.688 314.756 117.533C314.374 117.408 314.037 117.173 313.788 116.858C313.645 116.666 313.544 116.447 313.491 116.215C313.437 115.982 313.433 115.741 313.478 115.507C313.539 115.238 313.688 114.997 313.902 114.823C314.114 114.668 314.35 114.55 314.602 114.473C315.089 114.311 315.586 114.183 316.091 114.09C317.051 113.905 318.021 113.78 318.997 113.716C319.444 113.716 319.868 113.667 320.275 113.667H320.584H320.828C320.998 113.643 321.166 113.611 321.333 113.569C322.025 113.347 322.729 113.159 323.441 113.008C322.808 113.382 322.122 113.657 321.406 113.822C321.233 113.879 321.056 113.923 320.877 113.952C320.769 113.965 320.659 113.965 320.551 113.952H320.275C319.892 113.952 319.461 114.001 319.029 114.042C318.071 114.126 317.117 114.259 316.172 114.44C315.688 114.53 315.209 114.649 314.74 114.798C314.268 114.937 313.926 115.148 313.861 115.531C313.825 115.713 313.825 115.9 313.861 116.081C313.898 116.263 313.969 116.435 314.072 116.589C314.283 116.861 314.565 117.069 314.886 117.191C315.372 117.361 315.892 117.409 316.4 117.33C316.71 117.322 316.929 117.265 316.929 117.305Z" fill="#EB996E"/>
<path d="M318.189 111.996C318.303 111.996 318.498 112.501 318.295 113.144C318.091 113.787 317.635 114.129 317.562 114.039C317.489 113.95 317.733 113.559 317.896 113.022C318.059 112.484 318.067 112.012 318.189 111.996Z" fill="#EB996E"/>
<path d="M319.785 112.641C319.899 112.641 319.932 113.048 319.647 113.455C319.362 113.862 318.979 113.895 318.939 113.781C318.898 113.667 319.11 113.471 319.313 113.195C319.517 112.918 319.663 112.625 319.785 112.641Z" fill="#EB996E"/>
<path d="M359.872 110.369C361.272 109.783 351.831 119.493 351.831 119.493L334.38 112.982L328.219 116.767L346.98 129.977C348.908 131.336 351.259 131.961 353.607 131.737C355.956 131.513 358.147 130.455 359.783 128.756L370.86 115.953L359.872 110.369Z" fill="#FFBE9D"/>
<path d="M370.103 71.464C367.661 70.9919 366.147 70.2431 366.082 69.3071C365.952 67.37 372.097 65.384 379.813 64.8549C387.529 64.3259 393.878 65.4817 394.016 67.4107C394.073 68.3467 392.681 69.2908 390.353 70.0804" fill="#349F6E"/>
<g opacity="0.4">
<path d="M371.461 71.3003C369.305 70.8933 367.896 70.2259 367.896 69.3957C367.896 67.076 373.228 65.9121 380.065 65.4481C386.902 64.9842 392.542 66.0016 392.656 67.719C392.713 68.5329 391.476 69.3468 389.4 70.0794" fill="black"/>
</g>
<path d="M367.938 68.2656C367.938 68.2656 369.378 59.9228 369.525 59.5077C369.671 59.0926 371.763 55.3486 377.289 53.9405L381.913 53.623C381.913 53.623 388.619 55.2916 389.922 56.8136C391.224 58.3357 392.266 66.0517 392.266 66.0517L379.113 64.1146L370.444 66.8575L367.938 68.2656Z" fill="#349F6E"/>
<path d="M378.738 52.9063L376.752 53.0365C376.289 53.6507 376.058 54.4091 376.101 55.1771C376.101 56.6178 376.451 66.4989 376.451 66.4989L382.23 65.8477L381.228 53.6714L383.223 53.9807L383.117 53.2888L382.555 52.7109L378.738 52.9063Z" fill="#349F6E"/>
<path d="M390.817 98.3814L376.655 98.6907C376.476 97.2012 376.606 87.8817 376.606 87.8817C376.606 87.8817 371.218 87.4097 370.787 82.0784C370.355 76.7472 370.453 66.036 370.453 66.036L370.51 65.5639C376.508 62.4954 383.647 61.771 389.23 65.515L390.044 66.0685L390.817 98.3814Z" fill="#FFBE9D"/>
<path d="M376.606 87.9063C379.072 87.731 381.436 86.8526 383.419 85.375C383.419 85.375 381.945 89.4446 376.59 89.29L376.606 87.9063Z" fill="#EB996E"/>
<path d="M389.799 71.6254C389.888 71.6254 393.388 70.2987 393.518 73.9532C393.649 77.6077 389.953 76.981 389.945 76.8833C389.937 76.7857 389.799 71.6254 389.799 71.6254Z" fill="#FFBE9D"/>
<path d="M390.996 75.4604C390.996 75.4604 391.061 75.5093 391.167 75.55C391.243 75.5824 391.325 75.5992 391.407 75.5992C391.49 75.5992 391.571 75.5824 391.647 75.55C391.878 75.3917 392.062 75.1748 392.181 74.9215C392.3 74.6682 392.349 74.3879 392.323 74.1093C392.322 73.796 392.25 73.4869 392.111 73.2059C392.073 73.093 392.007 72.9912 391.921 72.909C391.834 72.8268 391.729 72.7667 391.615 72.7338C391.541 72.7181 391.465 72.7281 391.398 72.7622C391.332 72.7963 391.279 72.8524 391.248 72.921C391.2 73.0268 391.248 73.1001 391.208 73.1082C391.167 73.1163 391.126 73.0512 391.151 72.8966C391.171 72.8054 391.219 72.7228 391.289 72.6605C391.388 72.5813 391.513 72.5433 391.639 72.5547C391.79 72.5788 391.933 72.6417 392.053 72.7373C392.173 72.8329 392.266 72.9578 392.323 73.1C392.496 73.3955 392.599 73.7269 392.624 74.0686C392.66 74.3971 392.595 74.7288 392.438 75.0196C392.281 75.3103 392.039 75.5464 391.745 75.6965C391.648 75.73 391.545 75.7409 391.443 75.7282C391.342 75.7155 391.244 75.6796 391.159 75.6232C390.996 75.55 390.996 75.4686 390.996 75.4604Z" fill="#EB996E"/>
<path d="M372.219 72.6196C372.241 72.8196 372.336 73.0043 372.487 73.1381C372.637 73.2719 372.831 73.3452 373.033 73.344C373.229 73.344 373.418 73.266 373.556 73.127C373.695 72.9881 373.773 72.7998 373.773 72.6033C373.751 72.4033 373.656 72.2186 373.505 72.0848C373.355 71.9511 373.161 71.8777 372.959 71.8789C372.763 71.8789 372.575 71.957 372.436 72.0959C372.297 72.2348 372.219 72.4232 372.219 72.6196Z" fill="#263238"/>
<path d="M371.973 71.8711C372.071 71.9607 372.624 71.4967 373.447 71.4398C374.269 71.3828 374.895 71.7572 374.977 71.6514C375.058 71.5456 374.903 71.4316 374.635 71.2607C374.261 71.0409 373.83 70.9388 373.398 70.9677C372.97 70.9955 372.563 71.1579 372.234 71.4316C371.998 71.6269 371.924 71.8304 371.973 71.8711Z" fill="#263238"/>
<path d="M380.301 72.3185C380.306 72.4197 380.331 72.5189 380.375 72.6103C380.419 72.7017 380.481 72.7835 380.556 72.8509C380.632 72.9183 380.72 72.97 380.816 73.003C380.912 73.0359 381.014 73.0495 381.115 73.0429C381.212 73.0429 381.308 73.0237 381.397 72.9863C381.486 72.949 381.567 72.8943 381.636 72.8254C381.704 72.7566 381.758 72.6748 381.794 72.585C381.83 72.4952 381.848 72.3991 381.847 72.3022C381.842 72.2009 381.817 72.1017 381.773 72.0103C381.729 71.9189 381.668 71.8371 381.592 71.7697C381.516 71.7023 381.428 71.6507 381.332 71.6177C381.236 71.5848 381.135 71.5712 381.033 71.5778C380.936 71.5778 380.841 71.597 380.751 71.6343C380.662 71.6716 380.581 71.7263 380.513 71.7952C380.444 71.8641 380.391 71.9458 380.354 72.0356C380.318 72.1255 380.3 72.2216 380.301 72.3185Z" fill="#263238"/>
<path d="M380.048 71.4726C380.145 71.5703 380.691 71.1064 381.513 71.0494C382.335 70.9924 382.961 71.3668 383.043 71.261C383.124 71.1552 382.978 71.0412 382.701 70.8622C382.331 70.6415 381.901 70.5419 381.472 70.5773C381.044 70.6011 380.635 70.764 380.308 71.0412C380.072 71.2529 379.999 71.4319 380.048 71.4726Z" fill="#263238"/>
<path d="M377.483 77.7553C377.04 77.6556 376.586 77.6064 376.132 77.6088C375.92 77.6088 375.717 77.6088 375.676 77.4297C375.643 77.2157 375.677 76.9967 375.774 76.803L376.287 75.1751C376.763 73.7836 377.133 72.3579 377.394 70.9102C376.798 72.2577 376.314 73.6514 375.945 75.0775C375.774 75.6472 375.611 76.1925 375.456 76.7053C375.349 76.9635 375.332 77.2501 375.408 77.5192C375.444 77.5903 375.495 77.6522 375.559 77.7001C375.622 77.7481 375.696 77.7809 375.774 77.796C375.893 77.8114 376.013 77.8114 376.132 77.796C376.582 77.8426 377.037 77.8289 377.483 77.7553Z" fill="#263238"/>
<path d="M379.934 78.1387C379.796 78.1387 379.861 79.0258 379.12 79.7095C378.379 80.3932 377.492 80.3607 377.492 80.5235C377.492 80.6863 377.712 80.6781 378.119 80.6618C378.638 80.6314 379.13 80.4213 379.511 80.0677C379.876 79.7225 380.094 79.2506 380.121 78.7491C380.105 78.3666 379.991 78.1387 379.934 78.1387Z" fill="#263238"/>
<path d="M379.6 68.2734C379.697 68.4932 380.503 68.3304 381.472 68.3874C382.44 68.4444 383.238 68.6478 383.352 68.4362C383.466 68.2246 383.254 68.1351 382.929 67.9397C382.494 67.6985 382.009 67.5646 381.512 67.549C381.015 67.5237 380.519 67.6157 380.064 67.8176C379.738 67.9886 379.6 68.1758 379.6 68.2734Z" fill="#263238"/>
<path d="M372.112 69.4775C372.275 69.6484 372.82 69.4205 373.504 69.3635C374.187 69.3065 374.765 69.4042 374.887 69.2007C375.009 68.9972 374.83 68.924 374.57 68.7612C374.218 68.5734 373.818 68.4941 373.422 68.5332C373.025 68.5723 372.648 68.7281 372.34 68.981C372.112 69.1844 372.047 69.3879 372.112 69.4775Z" fill="#263238"/>
<path d="M390.181 68.1661C390.14 69.6556 390.287 71.1451 390.246 72.6346C390.198 73.1972 390.054 73.7476 389.823 74.2624C389.745 74.5607 389.577 74.8273 389.34 75.0246C389.104 75.222 388.811 75.3402 388.504 75.3627C388.196 75.3851 387.89 75.3107 387.627 75.1498C387.364 74.989 387.159 74.7498 387.039 74.4659C386.749 73.8781 386.593 73.2331 386.583 72.5776C386.578 71.9214 386.468 71.2703 386.258 70.6486C385.911 70.0041 385.496 69.3983 385.02 68.8417C384.787 68.5588 384.622 68.2257 384.539 67.8684C384.455 67.5112 384.456 67.1395 384.54 66.7825C386.51 66.7221 388.46 67.1975 390.181 68.158" fill="#263238"/>
<path d="M370.453 68.8261L370.363 65.839L378.91 62.6484L390.02 65.0902L390.231 68.2971C383.811 65.9503 376.738 66.1395 370.453 68.8261Z" fill="#455A64"/>
<path d="M370.867 65.1719L370.509 65.5625L367.506 67.752C371.439 66.4342 375.521 65.6139 379.658 65.3102C384.201 65.2066 388.741 65.6327 393.185 66.58L388.888 64.3742C388.19 63.7228 387.369 63.2179 386.473 62.8893C385.577 62.5608 384.624 62.4153 383.67 62.4615L375.824 62.8359C374.885 62.8804 373.964 63.1097 373.113 63.5105C372.263 63.9113 371.5 64.4759 370.867 65.1719Z" fill="#349F6E"/>
<path d="M376.345 62.5677C376.489 61.1808 376.527 59.7849 376.459 58.3922C376.493 56.9971 376.422 55.6013 376.247 54.2168C376.093 55.603 376.055 56.9997 376.133 58.3922C376.094 59.7875 376.165 61.1836 376.345 62.5677Z" fill="#263238"/>
<path d="M383.215 53.9799C382.733 53.8025 382.229 53.6929 381.717 53.6543C381.558 53.6665 381.41 53.7377 381.302 53.8537C381.193 53.9697 381.132 54.1222 381.131 54.281L381.18 55.1601C381.237 55.7868 381.286 56.4542 381.342 57.146C381.456 58.5623 381.587 59.8401 381.692 60.7599C381.716 61.2642 381.798 61.764 381.937 62.2494C381.996 61.7492 381.996 61.2438 381.937 60.7436C381.888 59.8157 381.798 58.5379 381.676 57.1298C381.611 56.4298 381.554 55.7624 381.497 55.1356C381.497 54.8426 381.432 54.5578 381.408 54.281C381.407 54.1844 381.441 54.0907 381.504 54.0174C381.566 53.944 381.654 53.896 381.749 53.8822C382.234 53.9542 382.724 53.9869 383.215 53.9799Z" fill="#263238"/>
<path d="M367.303 67.7277C367.303 67.7277 367.661 67.5486 368.32 67.2638C368.646 67.1173 369.045 66.9545 369.5 66.7022C370.029 66.4287 370.48 66.0254 370.811 65.5301C371.193 64.9604 371.218 64.2034 371.625 63.6337C372.032 63.0639 372.878 62.9744 373.708 62.893C375.385 62.7058 377.233 62.5674 379.178 62.486C381.123 62.4046 382.987 62.3883 384.672 62.4046C385.445 62.3399 386.218 62.5409 386.861 62.9744C387.122 63.2236 387.359 63.496 387.569 63.7883L387.903 64.1871L388.074 64.3743C388.144 64.438 388.224 64.4902 388.31 64.529C389.515 65.0092 390.5 65.3429 391.175 65.5627C391.517 65.7041 391.868 65.8237 392.225 65.9208C392.146 65.8634 392.062 65.8142 391.973 65.7743C391.802 65.6929 391.55 65.5789 391.216 65.4406C390.565 65.1557 389.588 64.8139 388.416 64.3174C388.355 64.2893 388.297 64.2537 388.245 64.2115L388.09 64.0243L387.773 63.6255C387.551 63.3349 387.306 63.0627 387.04 62.8116C386.356 62.3195 385.521 62.0833 384.68 62.1442C382.987 62.1442 381.123 62.1442 379.17 62.2011C377.216 62.2581 375.352 62.429 373.668 62.6325C373.251 62.6651 372.837 62.7305 372.43 62.8279C372.04 62.9273 371.697 63.1606 371.462 63.4871C370.99 64.1546 370.99 64.9115 370.648 65.4162C370.349 65.8894 369.934 66.2788 369.443 66.5475C369.012 66.808 368.629 66.9952 368.296 67.158C367.962 67.3207 367.734 67.4591 367.571 67.5568C367.474 67.6005 367.384 67.6581 367.303 67.7277Z" fill="#263238"/>
<path d="M368.507 68.1093C368.585 68.0759 368.659 68.0321 368.726 67.9791C368.865 67.8814 369.076 67.7512 369.353 67.5966C370.158 67.1964 371 66.8774 371.868 66.6443C374.746 65.8884 377.717 65.5431 380.691 65.6187C382.441 65.6187 384.101 65.6187 385.575 65.6838C387.048 65.7489 388.432 65.985 389.555 66.1722C390.059 66.2578 390.559 66.3692 391.052 66.5059C391.425 66.5737 391.779 66.7238 392.086 66.9454C392.208 67.0427 392.306 67.1667 392.372 67.3078C392.438 67.449 392.472 67.6034 392.469 67.7593C392.514 67.6806 392.531 67.5887 392.517 67.4989C392.489 67.2399 392.367 67 392.176 66.8233C391.866 66.566 391.501 66.3848 391.109 66.2943C390.612 66.1398 390.107 66.0121 389.595 65.9117C388.274 65.6535 386.94 65.466 385.599 65.3501C384.077 65.2362 382.4 65.2687 380.659 65.2606C377.655 65.1798 374.658 65.5614 371.77 66.392C370.891 66.6411 370.046 66.9992 369.255 67.4582C369.042 67.5834 368.84 67.7278 368.653 67.8896C368.555 68.0361 368.498 68.1012 368.507 68.1093Z" fill="#263238"/>
<path d="M377.607 53.2315C377.878 53.2523 378.15 53.2523 378.421 53.2315L380.391 53.1583C381.156 53.1583 381.864 53.0362 382.353 53.085C382.485 53.0901 382.615 53.124 382.733 53.1845C382.851 53.2449 382.955 53.3304 383.036 53.435C383.036 53.435 383.036 53.3536 382.922 53.2478C382.767 53.1053 382.57 53.0168 382.361 52.9955C381.702 52.9442 381.041 52.9442 380.383 52.9955L378.413 53.1094C378.141 53.1197 377.871 53.1606 377.607 53.2315Z" fill="#FAFAFA"/>
<path d="M377.266 62.892C377.404 62.906 377.543 62.906 377.681 62.892H378.804C379.756 62.892 381.067 62.892 382.515 62.892L384.558 62.9408C385.104 62.9378 385.648 62.9814 386.186 63.071C386.551 63.1466 386.878 63.3448 387.114 63.6326C387.193 63.741 387.259 63.8585 387.309 63.9826C387.294 63.8433 387.24 63.711 387.155 63.6001C386.924 63.2879 386.589 63.0685 386.211 62.9815C385.674 62.8777 385.129 62.8232 384.583 62.8187C383.956 62.8187 383.264 62.7699 382.54 62.7617C381.083 62.7617 379.772 62.7617 378.82 62.8024L377.697 62.8594C377.553 62.8575 377.408 62.8684 377.266 62.892Z" fill="#FAFAFA"/>
<path d="M381.556 61.4439C381.567 61.3465 381.567 61.2482 381.556 61.1508C381.556 60.8822 381.482 60.6218 381.442 60.3369C381.352 59.6614 381.238 58.7091 381.132 57.6917C381.027 56.6742 380.97 55.722 380.929 55.0464C380.929 54.7697 380.913 54.4983 380.88 54.2325C380.894 54.1353 380.894 54.0366 380.88 53.9395C380.868 54.0368 380.868 54.1352 380.88 54.2325C380.88 54.4197 380.88 54.6964 380.88 55.0464C380.88 55.7301 380.945 56.6742 381.043 57.7079C381.141 58.7416 381.279 59.6776 381.393 60.3451C381.45 60.6869 381.507 60.9555 381.547 61.159C381.536 61.2538 381.539 61.3498 381.556 61.4439Z" fill="#FAFAFA"/>
<path d="M388.326 64.6836C388.409 64.7311 388.496 64.7693 388.587 64.7975L389.303 65.0661L391.68 65.8801C392.118 66.0197 392.547 66.1855 392.966 66.3766C393.3 66.5307 393.568 66.7991 393.723 67.1335C393.823 67.3612 393.848 67.6148 393.796 67.8579C393.739 68.0207 393.674 68.1021 393.69 68.1102C393.759 68.0441 393.811 67.9635 393.845 67.8742C393.937 67.6247 393.937 67.3505 393.845 67.101C393.681 66.7396 393.392 66.4502 393.031 66.287C392.611 66.0813 392.176 65.9099 391.728 65.7743L389.335 64.9603L388.611 64.7324C388.518 64.7045 388.423 64.6881 388.326 64.6836Z" fill="#FAFAFA"/>
<path d="M328.168 210.14L328.908 223.359C328.908 223.359 315.723 228.543 315.625 230.993L341.296 230.489L340.987 209.855L328.168 210.14Z" fill="#349F6E"/>
<g opacity="0.4">
<path d="M328.168 210.14L328.908 223.359C328.908 223.359 315.723 228.543 315.625 230.993L341.296 230.489L340.987 209.855L328.168 210.14Z" fill="black"/>
</g>
<path d="M336.819 222.089C337.068 222.158 337.283 222.317 337.421 222.535C337.559 222.753 337.612 223.015 337.568 223.27C337.508 223.52 337.353 223.738 337.137 223.877C336.92 224.017 336.657 224.067 336.404 224.018C336.136 223.951 335.902 223.784 335.751 223.551C335.601 223.319 335.543 223.038 335.59 222.765C335.681 222.511 335.866 222.302 336.107 222.18C336.348 222.059 336.627 222.035 336.885 222.114" fill="#E0E0E0"/>
<path d="M341.298 230.49L341.184 228.414L316.611 229.676C316.611 229.676 315.48 230.197 315.626 230.994L341.298 230.49Z" fill="#E0E0E0"/>
<path d="M328.493 223.237C328.493 223.36 329.12 223.4 329.747 223.791C330.373 224.182 330.715 224.702 330.829 224.654C330.943 224.605 330.74 223.88 329.975 223.425C329.209 222.969 328.461 223.123 328.493 223.237Z" fill="#263238"/>
<path d="M325.816 224.399C325.816 224.522 326.337 224.725 326.777 225.213C327.216 225.702 327.347 226.296 327.469 226.288C327.591 226.28 327.664 225.563 327.111 224.928C326.557 224.294 325.816 224.277 325.816 224.399Z" fill="#263238"/>
<path d="M324.353 227.655C324.467 227.655 324.629 227.045 324.296 226.369C323.962 225.694 323.368 225.425 323.319 225.555C323.27 225.686 323.636 226.019 323.905 226.581C324.173 227.142 324.255 227.639 324.353 227.655Z" fill="#263238"/>
<path d="M328.657 220.201C328.714 220.315 329.284 220.136 329.992 220.201C330.7 220.266 331.262 220.445 331.319 220.34C331.376 220.234 330.847 219.794 330.008 219.762C329.17 219.729 328.592 220.104 328.657 220.201Z" fill="#263238"/>
<g opacity="0.3">
<path d="M328.322 212.761L328.444 215.114L341.06 214.747L341.036 212.623L328.322 212.761Z" fill="black"/>
</g>
<path d="M328.561 217.54C328.982 217.651 329.425 217.651 329.847 217.54C330.306 217.443 330.754 217.296 331.181 217.1C331.433 216.978 331.678 216.843 331.914 216.693C332.054 216.606 332.182 216.502 332.296 216.384C332.374 216.292 332.42 216.177 332.427 216.057C332.434 215.937 332.403 215.817 332.337 215.716C332.273 215.63 332.19 215.56 332.094 215.512C331.997 215.464 331.891 215.439 331.784 215.44C331.621 215.436 331.458 215.461 331.303 215.513C331.023 215.581 330.75 215.68 330.49 215.806C330.059 216.015 329.664 216.289 329.317 216.62C328.74 217.182 328.544 217.654 328.585 217.678C328.626 217.702 328.927 217.32 329.521 216.864C329.871 216.594 330.253 216.369 330.66 216.197C330.898 216.096 331.143 216.014 331.393 215.953C331.662 215.871 331.89 215.871 331.963 215.953C332.036 216.034 331.963 216.018 331.963 216.099C331.88 216.186 331.787 216.263 331.686 216.327C331.469 216.473 331.243 216.606 331.01 216.726C330.617 216.932 330.206 217.101 329.781 217.23C329.367 217.3 328.958 217.403 328.561 217.54Z" fill="#263238"/>
<path d="M328.722 217.711C328.771 217.711 329.007 217.28 329.039 216.466C329.048 215.989 328.98 215.513 328.836 215.058C328.75 214.775 328.636 214.503 328.494 214.244C328.423 214.078 328.311 213.934 328.169 213.824C328.026 213.714 327.858 213.643 327.68 213.617C327.566 213.622 327.456 213.659 327.362 213.724C327.269 213.789 327.195 213.879 327.151 213.983C327.09 214.135 327.049 214.294 327.029 214.456C326.988 214.742 326.988 215.032 327.029 215.318C327.111 215.798 327.309 216.251 327.607 216.637C328.119 217.296 328.648 217.451 328.657 217.394C328.665 217.337 328.258 217.093 327.843 216.466C327.613 216.1 327.466 215.689 327.411 215.261C327.375 215.016 327.375 214.766 327.411 214.521C327.411 214.244 327.542 214.024 327.647 214.049C327.753 214.073 327.997 214.244 328.103 214.464C328.239 214.682 328.351 214.914 328.437 215.155C328.59 215.566 328.684 215.996 328.714 216.433C328.779 217.223 328.657 217.695 328.722 217.711Z" fill="#263238"/>
<path d="M397.506 154.005C397.506 154.005 394.698 168.395 390.042 168.598C384.345 168.843 342.957 169.412 342.957 169.412L345.415 215.489L327.362 215.057L320.183 169.648C319.381 165.574 320.063 161.348 322.104 157.733L322.25 157.48C323.793 154.943 325.962 152.844 328.549 151.386C331.136 149.928 334.054 149.16 337.023 149.154L371.395 148.633L397.506 154.005Z" fill="#263238"/>
<path d="M335.193 210.14L335.926 223.359C335.926 223.359 322.74 228.543 322.643 230.993L348.314 230.489L348.005 209.855L335.193 210.14Z" fill="#349F6E"/>
<path d="M343.837 222.089C344.086 222.158 344.3 222.317 344.439 222.535C344.577 222.753 344.63 223.015 344.586 223.27C344.527 223.521 344.373 223.74 344.156 223.88C343.939 224.02 343.675 224.07 343.422 224.018C343.153 223.951 342.92 223.784 342.769 223.551C342.618 223.319 342.561 223.038 342.608 222.765C342.699 222.511 342.884 222.302 343.125 222.18C343.366 222.059 343.644 222.035 343.902 222.114" fill="#E0E0E0"/>
<path d="M348.313 230.49L348.199 228.414L323.627 229.676C323.627 229.676 322.495 230.197 322.642 230.994L348.313 230.49Z" fill="#E0E0E0"/>
<path d="M335.511 223.237C335.511 223.36 336.146 223.4 336.764 223.791C337.383 224.182 337.733 224.702 337.847 224.654C337.961 224.605 337.757 223.88 336.992 223.425C336.227 222.969 335.478 223.123 335.511 223.237Z" fill="#263238"/>
<path d="M332.84 224.399C332.84 224.522 333.361 224.725 333.792 225.213C334.224 225.702 334.362 226.296 334.484 226.288C334.606 226.28 334.679 225.563 334.126 224.928C333.572 224.294 332.84 224.277 332.84 224.399Z" fill="#263238"/>
<path d="M331.366 227.655C331.488 227.655 331.643 227.045 331.309 226.369C330.976 225.694 330.381 225.425 330.333 225.555C330.284 225.686 330.65 226.019 330.919 226.581C331.187 227.142 331.244 227.639 331.366 227.655Z" fill="#263238"/>
<path d="M335.648 220.201C335.705 220.315 336.275 220.136 336.983 220.201C337.691 220.266 338.253 220.445 338.31 220.34C338.367 220.234 337.838 219.794 337 219.762C336.161 219.729 335.648 220.104 335.648 220.201Z" fill="#263238"/>
<g opacity="0.3">
<path d="M335.34 212.761L335.47 215.114L348.078 214.747L348.053 212.623L335.34 212.761Z" fill="black"/>
</g>
<path d="M335.574 217.54C335.996 217.651 336.439 217.651 336.86 217.54C337.32 217.443 337.768 217.296 338.195 217.1C338.448 216.98 338.692 216.844 338.928 216.693C339.067 216.606 339.196 216.502 339.31 216.384C339.388 216.292 339.433 216.177 339.441 216.057C339.448 215.937 339.416 215.817 339.351 215.716C339.287 215.63 339.203 215.56 339.107 215.512C339.011 215.464 338.905 215.439 338.797 215.44C338.634 215.436 338.472 215.461 338.317 215.513C338.036 215.581 337.763 215.68 337.503 215.806C337.074 216.013 336.681 216.288 336.339 216.62C335.753 217.182 335.525 217.654 335.599 217.678C335.672 217.702 335.94 217.32 336.535 216.864C336.884 216.594 337.267 216.369 337.674 216.197C337.911 216.096 338.156 216.014 338.407 215.953C338.675 215.871 338.903 215.871 338.976 215.953C339.05 216.034 338.976 216.018 338.976 216.099C338.894 216.186 338.801 216.263 338.7 216.327C338.483 216.473 338.257 216.606 338.024 216.726C337.631 216.932 337.22 217.101 336.795 217.23C336.38 217.3 335.972 217.403 335.574 217.54Z" fill="#263238"/>
<path d="M335.737 217.711C335.786 217.711 336.022 217.28 336.055 216.466C336.068 215.988 335.999 215.512 335.851 215.058C335.766 214.775 335.651 214.503 335.509 214.244C335.439 214.078 335.327 213.934 335.184 213.824C335.042 213.714 334.874 213.643 334.696 213.617C334.582 213.622 334.472 213.659 334.378 213.724C334.284 213.789 334.211 213.879 334.166 213.983C334.106 214.135 334.065 214.294 334.044 214.456C334.003 214.742 334.003 215.032 334.044 215.318C334.127 215.798 334.325 216.251 334.622 216.637C335.135 217.296 335.664 217.451 335.672 217.394C335.68 217.337 335.273 217.093 334.858 216.466C334.629 216.1 334.482 215.689 334.427 215.261C334.39 215.016 334.39 214.766 334.427 214.521C334.468 214.244 334.565 214.024 334.663 214.049C334.761 214.073 335.013 214.244 335.119 214.464C335.254 214.682 335.366 214.914 335.452 215.155C335.606 215.566 335.699 215.996 335.729 216.433C335.794 217.223 335.648 217.695 335.737 217.711Z" fill="#263238"/>
<path d="M402.033 154.005C402.033 154.005 399.233 168.395 394.569 168.598C388.872 168.843 347.483 169.412 347.483 169.412L349.998 215.489L331.946 215.057L324.726 169.648C323.924 165.574 324.606 161.348 326.647 157.733L326.793 157.48C328.337 154.942 330.507 152.843 333.095 151.384C335.684 149.926 338.603 149.158 341.574 149.154L375.938 148.633L402.033 154.005Z" fill="#263238"/>
<path d="M366.822 96.2323L372.276 132.436L368.588 148.714L402.073 158.571C405.101 154.241 405.215 140.494 405.109 130.767C404.922 113.626 405.679 112.796 404.938 106.781C404.198 100.766 402.936 96.9079 399.762 95.0115L390.63 90.3477C390.63 90.3477 385.486 93.6034 382.352 93.4487C382.352 93.4487 378.632 93.6034 376.573 91.6255C376.573 91.6011 369.02 93.8801 366.822 96.2323Z" fill="#349F6E"/>
<path d="M366.821 96.2305L355.662 111.614L370.858 120.534L369.694 114.943L366.821 96.2305Z" fill="#349F6E"/>
<path d="M340.231 149.372C340.167 149.386 340.1 149.386 340.036 149.372L339.474 149.413C339.166 149.433 338.859 149.471 338.554 149.527C338.14 149.577 337.73 149.653 337.325 149.755C334.733 150.391 332.339 151.661 330.358 153.45C328.996 154.677 327.825 156.101 326.883 157.674C325.804 159.476 325.135 161.494 324.921 163.583C324.727 165.905 324.814 168.242 325.182 170.542C325.515 172.984 325.996 175.426 326.248 178.022C326.826 183.15 327.599 188.017 328.323 192.437C329.048 196.857 329.748 200.82 330.309 204.174C330.871 207.527 331.31 210.221 331.579 212.101C331.701 213.013 331.799 213.729 331.872 214.266C331.872 214.494 331.921 214.673 331.937 214.828C331.944 214.893 331.944 214.958 331.937 215.023C331.912 214.964 331.895 214.901 331.888 214.836C331.888 214.682 331.823 214.502 331.774 214.275L331.408 212.126C331.066 210.221 330.594 207.535 330.008 204.223C329.422 200.91 328.714 196.897 327.933 192.502C327.151 188.107 326.394 183.215 325.816 178.063C325.556 175.499 325.092 173.025 324.766 170.599C324.394 168.266 324.315 165.895 324.53 163.542C324.755 161.4 325.453 159.334 326.573 157.495C327.542 155.896 328.75 154.455 330.155 153.222C332.184 151.426 334.638 150.177 337.285 149.592C338.252 149.385 339.244 149.311 340.231 149.372Z" fill="#455A64"/>
<path d="M353.059 138.199C353.059 138.199 365.976 142.366 376.02 146.004C377.725 146.623 379.557 146.811 381.352 146.549C383.147 146.288 384.85 145.586 386.308 144.507C388.174 143.131 389.556 141.199 390.255 138.988L397.133 117.322L385.648 113.301L377.973 132.778L349.404 129.026" fill="#FFBE9D"/>
<path d="M335.975 133.731L335.869 132.705C335.94 131.948 336.254 131.234 336.764 130.67C337.041 130.363 337.372 130.109 337.741 129.921L341.119 128.155C341.621 127.9 342.19 127.809 342.747 127.895L349.673 129.075L357.625 130.117L355.998 139.184L352.319 137.963C352.319 137.963 349.657 139.436 348.013 139.086C348.013 139.086 346.491 140.104 345.864 139.355C345.864 139.355 344.505 140.527 343.992 140.454C343.479 140.38 342.47 139.786 342.511 139.436L342.551 138.964C342.291 139.107 341.996 139.176 341.699 139.163C341.402 139.15 341.114 139.056 340.867 138.891C340.515 138.618 340.247 138.251 340.093 137.833C339.459 137.766 338.86 137.508 338.376 137.092C338.056 136.623 337.842 136.09 337.749 135.529C337.749 135.529 336.227 134.789 335.975 133.731Z" fill="#FFBE9D"/>
<path d="M341.087 130.449C341.136 130.449 341.217 130.824 341.046 131.393C340.794 132.115 340.376 132.767 339.825 133.298C339.215 133.925 338.645 134.437 338.295 134.861C337.945 135.284 337.758 135.577 337.701 135.553C337.644 135.528 337.701 135.17 338.059 134.682C338.49 134.078 338.978 133.516 339.516 133.005C340.024 132.505 340.448 131.924 340.769 131.288C340.989 130.799 341.013 130.449 341.087 130.449Z" fill="#EB996E"/>
<path d="M342.405 134.071C342.017 135.527 341.176 136.821 340.004 137.766C340.303 137.092 340.686 136.457 341.143 135.878C341.803 134.869 342.291 134.014 342.405 134.071Z" fill="#EB996E"/>
<path d="M344.17 136.465C344.268 136.53 343.983 137.116 343.527 137.783C343.072 138.451 342.632 138.939 342.534 138.866C342.437 138.793 342.73 138.207 343.177 137.547C343.625 136.888 344.073 136.4 344.17 136.465Z" fill="#EB996E"/>
<path d="M343.844 135.511C343.844 135.56 343.665 135.568 343.454 135.438C343.316 135.346 343.199 135.226 343.111 135.086C343.022 134.946 342.964 134.788 342.941 134.624C342.912 134.464 342.92 134.299 342.962 134.141C343.004 133.984 343.08 133.837 343.185 133.713C343.34 133.525 343.494 133.477 343.535 133.517C343.576 133.558 343.266 134.014 343.356 134.559C343.446 135.104 343.893 135.406 343.844 135.511Z" fill="#EB996E"/>
<path d="M345.773 137.946C345.773 137.995 345.627 138.003 345.448 137.946C345.333 137.878 345.234 137.787 345.156 137.679C345.077 137.571 345.022 137.449 344.992 137.319C344.942 137.177 344.936 137.023 344.975 136.878C345.014 136.732 345.097 136.602 345.212 136.505C345.423 136.359 345.586 136.456 345.57 136.505C345.48 136.59 345.417 136.699 345.388 136.819C345.359 136.939 345.366 137.064 345.407 137.181C345.497 137.596 345.822 137.84 345.773 137.946Z" fill="#EB996E"/>
<path d="M342.723 132.922C342.723 132.971 342.544 133.012 342.3 132.922C342.137 132.843 341.998 132.723 341.895 132.575C341.792 132.426 341.73 132.253 341.713 132.073C341.697 131.893 341.727 131.711 341.802 131.546C341.876 131.381 341.992 131.239 342.137 131.131C342.357 130.977 342.536 130.993 342.544 131.042C342.552 131.091 342.089 131.457 342.137 132.035C342.186 132.613 342.756 132.824 342.723 132.922Z" fill="#EB996E"/>
<path d="M397.189 97.9489C394.568 96.8094 391.337 97.9489 389.44 99.9349C387.544 101.921 386.673 104.517 385.859 107.04C385.045 109.564 383.108 114.423 382.318 116.856L397.205 123.229C398.475 119.795 399.658 116.33 400.754 112.836C401.682 109.906 402.544 106.747 401.47 103.834" fill="#349F6E"/>
<path d="M401.471 103.834C401.538 103.946 401.59 104.066 401.626 104.192C401.755 104.543 401.851 104.905 401.911 105.274C402.144 106.657 402.108 108.072 401.805 109.442C401.349 111.527 400.748 113.578 400.006 115.579C399.192 117.907 398.378 120.503 397.41 123.295L397.336 123.498L397.125 123.409L386.641 118.932L382.23 117.044L382.051 116.962L382.108 116.8C383.312 113.251 384.655 110.003 385.665 107.033C386.107 105.593 386.651 104.187 387.292 102.825C387.867 101.609 388.656 100.506 389.62 99.5688C391.095 98.1786 393.047 97.4092 395.074 97.42C395.628 97.4373 396.176 97.536 396.701 97.713C396.878 97.7748 397.05 97.8511 397.214 97.9409C396.528 97.7135 395.812 97.5874 395.09 97.5665C393.127 97.6093 391.252 98.3912 389.84 99.756C388.921 100.672 388.171 101.744 387.626 102.922C387.009 104.279 386.486 105.677 386.063 107.106C385.079 110.125 383.736 113.389 382.555 116.914L382.433 116.669L386.853 118.558L397.32 123.051L397.035 123.165C397.996 120.373 398.891 117.793 399.697 115.473C400.455 113.489 401.083 111.458 401.577 109.393C401.892 108.06 401.969 106.683 401.805 105.323C401.634 104.338 401.439 103.842 401.471 103.834Z" fill="#263238"/>
<path d="M382.391 140.209C382.343 140.209 382.229 139.395 381.724 137.906C381.414 137.028 381.001 136.189 380.495 135.407C379.849 134.379 378.96 133.527 377.907 132.925H377.947L361.823 130.825L352.056 129.514L347.816 128.928L344.129 128.334L342.501 128.082C342.045 128.001 341.574 128.084 341.174 128.318L339.082 129.327L337.756 129.954C337.605 130.037 337.443 130.1 337.275 130.141C337.415 130.04 337.562 129.95 337.715 129.872L339.009 129.181L341.068 128.106C341.511 127.841 342.031 127.738 342.541 127.813L344.169 128.041L347.856 128.578L352.105 129.132L361.872 130.41L377.972 132.615H378.021C379.123 133.252 380.044 134.16 380.698 135.252C381.199 136.059 381.595 136.926 381.879 137.833C382.058 138.4 382.199 138.98 382.302 139.566C382.355 139.777 382.385 139.992 382.391 140.209Z" fill="#EB996E"/>
<path d="M372.275 131.858C372.163 131.475 372.089 131.083 372.055 130.686C371.917 129.872 371.746 128.781 371.543 127.487C371.079 124.712 370.468 121.016 369.793 116.906C369.117 112.796 368.499 109.125 368.043 106.325C367.839 105.031 367.676 103.948 367.546 103.118C367.462 102.728 367.418 102.329 367.416 101.93C367.55 102.305 367.648 102.692 367.709 103.085L368.336 106.276C368.849 108.97 369.524 112.69 370.216 116.857C370.908 121.024 371.478 124.728 371.844 127.438C372.031 128.797 372.153 129.88 372.226 130.694C372.281 131.079 372.297 131.469 372.275 131.858Z" fill="#263238"/>
<path d="M526.514 310.024C526.514 310.146 408.706 310.236 263.421 310.236C118.135 310.236 0.310547 310.146 0.310547 310.024C0.310547 309.902 118.094 309.812 263.437 309.812C408.78 309.812 526.514 309.91 526.514 310.024Z" fill="#263238"/>
<path d="M16.0856 282.888C14.7752 284.654 12.3415 283.987 11.2427 282.888C10.1439 281.789 9.69627 280.153 9.29744 278.623C8.39398 275.131 7.49052 271.469 8.32887 267.961C8.53206 266.894 9.02806 265.905 9.76138 265.104C10.131 264.71 10.5978 264.419 11.1149 264.262C11.632 264.105 12.1813 264.087 12.7078 264.208C13.9368 264.567 14.6694 265.796 15.1984 266.96C16.7307 270.393 17.484 274.123 17.4042 277.882C17.4686 279.646 17.0067 281.388 16.0775 282.888" fill="#349F6E"/>
<g opacity="0.2">
<path d="M16.0856 282.888C14.7752 284.654 12.3415 283.987 11.2427 282.888C10.1439 281.789 9.69627 280.153 9.29744 278.623C8.39398 275.131 7.49052 271.469 8.32887 267.961C8.53206 266.894 9.02806 265.905 9.76138 265.104C10.131 264.71 10.5978 264.419 11.1149 264.262C11.632 264.105 12.1813 264.087 12.7078 264.208C13.9368 264.567 14.6694 265.796 15.1984 266.96C16.7307 270.393 17.484 274.123 17.4042 277.882C17.4686 279.646 17.0067 281.388 16.0775 282.888" fill="black"/>
</g>
<path d="M11.12 291.865C9.03771 290.821 6.67636 290.471 4.38064 290.864C3.12864 290.945 1.93843 291.437 0.994706 292.264C0.131943 293.167 -0.0634003 294.787 0.872615 295.609C1.48222 296.038 2.22061 296.245 2.96441 296.195C4.75505 296.195 6.74917 295.959 8.14912 297.074C8.96305 297.717 9.46768 298.751 10.4363 299.076C10.9205 299.204 11.4332 299.17 11.8961 298.978C12.359 298.787 12.7467 298.45 13.0001 298.018C13.4903 297.133 13.6214 296.092 13.3664 295.113C13.2664 294.435 13.0117 293.79 12.6221 293.227C12.2326 292.664 11.7186 292.198 11.12 291.865Z" fill="#349F6E"/>
<path d="M19.471 285.557C18.8449 284.696 18.4396 283.694 18.2906 282.64C18.1416 281.586 18.2535 280.511 18.6163 279.51C19.3496 277.511 20.6198 275.754 22.2872 274.431C24.2041 272.821 26.4156 271.599 28.7986 270.833C29.7208 270.49 30.7067 270.351 31.688 270.426C32.1771 270.467 32.6488 270.627 33.0617 270.893C33.4746 271.158 33.8162 271.52 34.0565 271.948C34.6995 273.243 34.0077 274.781 33.2426 276.018C31.9529 278.221 30.4915 280.32 28.8718 282.293C27.5695 283.881 26.0882 285.443 24.151 286.127C22.2139 286.811 20.2279 286.664 19.2675 285.313" fill="#349F6E"/>
<path d="M15.4421 310.025C15.3813 309.758 15.3513 309.485 15.3526 309.211C15.3038 308.609 15.2549 307.86 15.1898 306.973C15.1091 305.881 14.9705 304.794 14.7747 303.717C14.5186 302.393 14.1566 301.092 13.6922 299.827C13.2391 298.557 12.6059 297.359 11.812 296.27C11.1661 295.387 10.3321 294.658 9.37024 294.137C8.7183 293.789 8.01487 293.547 7.28658 293.421C7.01073 293.407 6.73749 293.361 6.47266 293.283C6.74325 293.255 7.01599 293.255 7.28658 293.283C8.04282 293.359 8.77905 293.571 9.45977 293.909C10.474 294.424 11.3567 295.165 12.0399 296.074C12.8651 297.178 13.5208 298.399 13.9852 299.696C14.465 300.961 14.8327 302.266 15.084 303.595C15.2661 304.694 15.383 305.803 15.434 306.916C15.434 307.868 15.4828 308.633 15.4828 309.162C15.4982 309.451 15.4845 309.74 15.4421 310.025Z" fill="#263238"/>
<path d="M15.3351 308.3C15.3174 308.173 15.3174 308.044 15.3351 307.917C15.3351 307.633 15.3351 307.274 15.3351 306.835C15.3351 305.899 15.4002 304.531 15.3921 302.855C15.3921 299.485 15.2375 294.838 14.8142 289.718C14.391 284.598 13.7642 279.951 13.1864 276.695C13.048 275.881 12.9096 275.116 12.7713 274.465C12.6329 273.814 12.5352 273.244 12.4294 272.78C12.3236 272.316 12.2585 271.966 12.2015 271.722C12.1697 271.6 12.1506 271.474 12.1445 271.348C12.1445 271.348 12.2015 271.47 12.2666 271.706C12.3317 271.942 12.4375 272.324 12.5515 272.756C12.6654 273.187 12.812 273.773 12.9585 274.424C13.105 275.075 13.2677 275.824 13.4224 276.654C14.2353 280.961 14.8167 285.308 15.1642 289.677C15.5874 294.805 15.7177 299.444 15.6526 302.847C15.6526 304.531 15.5549 305.899 15.4816 306.835C15.4816 307.274 15.4165 307.649 15.3921 307.917C15.3816 308.046 15.3626 308.174 15.3351 308.3Z" fill="#263238"/>
<path d="M15.5567 299.321C15.5228 298.941 15.5228 298.56 15.5567 298.181C15.6219 297.457 15.7439 296.407 15.9881 295.129C16.6338 291.786 17.6834 288.533 19.1136 285.443C20.4908 282.32 22.421 279.472 24.8111 277.035C25.2289 276.62 25.672 276.232 26.1378 275.871C26.3413 275.709 26.5203 275.546 26.6994 275.416L27.2122 275.082C27.5198 274.865 27.8436 274.672 28.1807 274.504C27.0598 275.338 25.9915 276.24 24.982 277.206C22.6598 279.661 20.7718 282.494 19.3985 285.581C18.6227 287.268 17.9566 289.002 17.4043 290.774C16.9353 292.218 16.5414 293.685 16.2242 295.169C15.9556 296.439 15.7928 297.481 15.687 298.197C15.6689 298.574 15.6254 298.949 15.5567 299.321Z" fill="#263238"/>
</g>
<defs>
<clipPath id="clip0_3932_28218">
<rect width="536.378" height="310.92" fill="white" transform="translate(0.310547)"/>
</clipPath>
</defs>
</svg>
