<svg width="30" height="24" viewBox="0 0 30 24" fill="none" xmlns="http://www.w3.org/2000/svg">
<path d="M26.6663 5.99825C26.6858 6.26075 26.6858 6.52175 26.6858 6.78275C26.6858 14.7703 20.6063 23.9743 9.4958 23.9743C6.0728 23.9743 2.8928 22.9828 0.216797 21.2608C0.702797 21.3163 1.1708 21.3358 1.6763 21.3358C4.39579 21.3423 7.03827 20.433 9.1778 18.7542C7.91693 18.7314 6.69466 18.3154 5.68165 17.5644C4.66865 16.8133 3.91547 15.7646 3.5273 14.5648C3.9008 14.6203 4.2758 14.6578 4.6688 14.6578C5.2103 14.6578 5.7548 14.5828 6.2603 14.4523C4.89194 14.176 3.66151 13.4343 2.77822 12.3533C1.89494 11.2723 1.41334 9.91872 1.4153 8.52275V8.44775C2.2208 8.89625 3.1553 9.17675 4.1453 9.21425C3.31593 8.66313 2.63588 7.91529 2.16581 7.03744C1.69574 6.15959 1.45027 5.17903 1.4513 4.18325C1.4513 3.06125 1.7498 2.03225 2.2733 1.13525C3.7915 3.00278 5.68505 4.53059 7.8313 5.61974C9.97755 6.70888 12.3286 7.33507 14.7323 7.45775C14.6393 7.00775 14.5823 6.54125 14.5823 6.07325C14.5819 5.27969 14.7379 4.49384 15.0414 3.76061C15.3449 3.02738 15.7899 2.36116 16.3511 1.80003C16.9122 1.2389 17.5784 0.793867 18.3117 0.490368C19.0449 0.186868 19.8307 0.0308564 20.6243 0.0312507C22.3643 0.0312507 23.9348 0.76025 25.0388 1.93925C26.3915 1.67768 27.6886 1.18388 28.8728 0.47975C28.4219 1.87597 27.4774 3.05991 26.2163 3.80975C27.416 3.67292 28.5884 3.35743 29.6948 2.87375C28.8685 4.0784 27.8446 5.13477 26.6663 5.99825Z" fill="black"/>
</svg>
