<svg xmlns="http://www.w3.org/2000/svg" xmlns:xlink="http://www.w3.org/1999/xlink" width="222.148" height="154.423" viewBox="0 0 222.148 154.423"><defs><style>.a,.c{fill:#05b384;}.b{clip-path:url(#a);}.c{fill-rule:evenodd;}</style><clipPath id="a"><rect class="a" width="222.148" height="154.423"/></clipPath></defs><g class="b"><path class="a" d="M104.244,66.594a4.208,4.208,0,0,0-3.582-1.633h-1.8V78.884h1.863a4.152,4.152,0,0,0,3.521-1.632,8.02,8.02,0,0,0,1.233-4.864v-.956a7.957,7.957,0,0,0-1.233-4.839m0,0a4.208,4.208,0,0,0-3.582-1.633h-1.8V78.884h1.863a4.152,4.152,0,0,0,3.521-1.632,8.02,8.02,0,0,0,1.233-4.864v-.956a7.957,7.957,0,0,0-1.233-4.839m0,0a4.208,4.208,0,0,0-3.582-1.633h-1.8V78.884h1.863a4.152,4.152,0,0,0,3.521-1.632,8.02,8.02,0,0,0,1.233-4.864v-.956a7.957,7.957,0,0,0-1.233-4.839m28,.46-2.372,7.681h4.768Zm-28-.46a4.208,4.208,0,0,0-3.582-1.633h-1.8V78.884h1.863a4.152,4.152,0,0,0,3.521-1.632,8.02,8.02,0,0,0,1.233-4.864v-.956a7.957,7.957,0,0,0-1.233-4.839m28,.46-2.372,7.681h4.768Zm-28-.46a4.208,4.208,0,0,0-3.582-1.633h-1.8V78.884h1.863a4.152,4.152,0,0,0,3.521-1.632,8.02,8.02,0,0,0,1.233-4.864v-.956a7.957,7.957,0,0,0-1.233-4.839m28,.46-2.372,7.681h4.768Zm-28-.46a4.208,4.208,0,0,0-3.582-1.633h-1.8V78.884h1.863a4.152,4.152,0,0,0,3.521-1.632,8.02,8.02,0,0,0,1.233-4.864v-.956a7.957,7.957,0,0,0-1.233-4.839m28,.46-2.372,7.681h4.768Zm-28-.46a4.208,4.208,0,0,0-3.582-1.633h-1.8V78.884h1.863a4.152,4.152,0,0,0,3.521-1.632,8.02,8.02,0,0,0,1.233-4.864v-.956a7.957,7.957,0,0,0-1.233-4.839m28,.46-2.372,7.681h4.768Zm-28-.46a4.208,4.208,0,0,0-3.582-1.633h-1.8V78.884h1.863a4.152,4.152,0,0,0,3.521-1.632,8.02,8.02,0,0,0,1.233-4.864v-.956a7.957,7.957,0,0,0-1.233-4.839m28,.46-2.372,7.681h4.768Zm-28-.46a4.208,4.208,0,0,0-3.582-1.633h-1.8V78.884h1.863a4.152,4.152,0,0,0,3.521-1.632,8.02,8.02,0,0,0,1.233-4.864v-.956a7.957,7.957,0,0,0-1.233-4.839m28,.46-2.372,7.681h4.768Zm-28-.46a4.208,4.208,0,0,0-3.582-1.633h-1.8V78.884h1.863a4.152,4.152,0,0,0,3.521-1.632,8.02,8.02,0,0,0,1.233-4.864v-.956a7.957,7.957,0,0,0-1.233-4.839m28,.46-2.372,7.681h4.768Zm-28-.46a4.208,4.208,0,0,0-3.582-1.633h-1.8V78.884h1.863a4.152,4.152,0,0,0,3.521-1.632,8.02,8.02,0,0,0,1.233-4.864v-.956a7.957,7.957,0,0,0-1.233-4.839m28,.46-2.372,7.681h4.768Zm-28-.46a4.208,4.208,0,0,0-3.582-1.633h-1.8V78.884h1.863a4.152,4.152,0,0,0,3.521-1.632,8.02,8.02,0,0,0,1.233-4.864v-.956a7.957,7.957,0,0,0-1.233-4.839m28,.46-2.372,7.681h4.768Zm-28-.46a4.208,4.208,0,0,0-3.582-1.633h-1.8V78.884h1.863a4.152,4.152,0,0,0,3.521-1.632,8.02,8.02,0,0,0,1.233-4.864v-.956a7.957,7.957,0,0,0-1.233-4.839m28,.46-2.372,7.681h4.768Zm-28-.46a4.208,4.208,0,0,0-3.582-1.633h-1.8V78.884h1.863a4.152,4.152,0,0,0,3.521-1.632,8.02,8.02,0,0,0,1.233-4.864v-.956a7.957,7.957,0,0,0-1.233-4.839m28,.46-2.372,7.681h4.768Zm15.6-17.116A51.567,51.567,0,0,0,54.334,93.425l.012.011a50.722,50.722,0,0,0,4.536,7.839c.435.618.871,1.234,1.331,1.828s.931,1.184,1.415,1.753c.435.521.883,1.04,1.343,1.536.556.617,1.125,1.21,1.706,1.79a51.515,51.515,0,0,0,72.917,0c.494-.495.98-.991,1.45-1.512.641-.688,1.259-1.4,1.876-2.141.4-.5.81-1,1.2-1.523.363-.46.712-.945,1.052-1.429q.216-.289.4-.581c.279-.387.558-.786.8-1.2a1.564,1.564,0,0,0,.23-.351c.217-.325.422-.653.616-.992.52-.835,1-1.681,1.452-2.552q.454-.833.871-1.706a.54.54,0,0,0,.1-.194,1.962,1.962,0,0,0,.158-.325c.073-.183.156-.351.241-.533a51.651,51.651,0,0,0-.181-43.208M67.615,38.216a47.416,47.416,0,0,1,75.592,11.721l-42.714.05-41.5.023a47.5,47.5,0,0,1,8.624-11.794M142.94,83h-5.734l-1.294-4.137h-7.306L127.323,83h-5.71l8.129-22.15h5.019Zm-23.588,0h-5.324V60.848h5.324Zm-8.432-11.54v.93a11.72,11.72,0,0,1-.761,4.308,9.8,9.8,0,0,1-2.117,3.349,9.4,9.4,0,0,1-3.231,2.165,10.525,10.525,0,0,1-4.089.787h-7.2V60.848h7.136a10.7,10.7,0,0,1,4.138.775,9.545,9.545,0,0,1,3.242,2.176,9.98,9.98,0,0,1,2.117,3.364,11.73,11.73,0,0,1,.761,4.294M90.152,60.848V83h-5.31L76.989,69.207V83H71.656V60.848h5.333l7.838,13.779V60.848ZM67.943,83H62.62V60.848h5.322Zm66.7,22.244a47.408,47.408,0,0,1-75.663-11.83l41.514-.132,42.9-.122a47.259,47.259,0,0,1-8.746,12.084m-2.4-38.188-2.372,7.681h4.768Zm-31.584-2.093h-1.8V78.884h1.863a4.152,4.152,0,0,0,3.521-1.632,8.02,8.02,0,0,0,1.233-4.864v-.956a7.957,7.957,0,0,0-1.233-4.839,4.208,4.208,0,0,0-3.582-1.633m31.584,2.093-2.372,7.681h4.768Zm-28-.46a4.208,4.208,0,0,0-3.582-1.633h-1.8V78.884h1.863a4.152,4.152,0,0,0,3.521-1.632,8.02,8.02,0,0,0,1.233-4.864v-.956a7.957,7.957,0,0,0-1.233-4.839m28,.46-2.372,7.681h4.768Zm-28-.46a4.208,4.208,0,0,0-3.582-1.633h-1.8V78.884h1.863a4.152,4.152,0,0,0,3.521-1.632,8.02,8.02,0,0,0,1.233-4.864v-.956a7.957,7.957,0,0,0-1.233-4.839m28,.46-2.372,7.681h4.768Zm-28-.46a4.208,4.208,0,0,0-3.582-1.633h-1.8V78.884h1.863a4.152,4.152,0,0,0,3.521-1.632,8.02,8.02,0,0,0,1.233-4.864v-.956a7.957,7.957,0,0,0-1.233-4.839m28,.46-2.372,7.681h4.768Zm-28-.46a4.208,4.208,0,0,0-3.582-1.633h-1.8V78.884h1.863a4.152,4.152,0,0,0,3.521-1.632,8.02,8.02,0,0,0,1.233-4.864v-.956a7.957,7.957,0,0,0-1.233-4.839m28,.46-2.372,7.681h4.768Zm-28-.46a4.208,4.208,0,0,0-3.582-1.633h-1.8V78.884h1.863a4.152,4.152,0,0,0,3.521-1.632,8.02,8.02,0,0,0,1.233-4.864v-.956a7.957,7.957,0,0,0-1.233-4.839m28,.46-2.372,7.681h4.768Zm-28-.46a4.208,4.208,0,0,0-3.582-1.633h-1.8V78.884h1.863a4.152,4.152,0,0,0,3.521-1.632,8.02,8.02,0,0,0,1.233-4.864v-.956a7.957,7.957,0,0,0-1.233-4.839m28,.46-2.372,7.681h4.768Zm-28-.46a4.208,4.208,0,0,0-3.582-1.633h-1.8V78.884h1.863a4.152,4.152,0,0,0,3.521-1.632,8.02,8.02,0,0,0,1.233-4.864v-.956a7.957,7.957,0,0,0-1.233-4.839m28,.46-2.372,7.681h4.768Zm-28-.46a4.208,4.208,0,0,0-3.582-1.633h-1.8V78.884h1.863a4.152,4.152,0,0,0,3.521-1.632,8.02,8.02,0,0,0,1.233-4.864v-.956a7.957,7.957,0,0,0-1.233-4.839m28,.46-2.372,7.681h4.768Zm-28-.46a4.208,4.208,0,0,0-3.582-1.633h-1.8V78.884h1.863a4.152,4.152,0,0,0,3.521-1.632,8.02,8.02,0,0,0,1.233-4.864v-.956a7.957,7.957,0,0,0-1.233-4.839m28,.46-2.372,7.681h4.768Zm-28-.46a4.208,4.208,0,0,0-3.582-1.633h-1.8V78.884h1.863a4.152,4.152,0,0,0,3.521-1.632,8.02,8.02,0,0,0,1.233-4.864v-.956a7.957,7.957,0,0,0-1.233-4.839m28,.46-2.372,7.681h4.768Zm-28-.46a4.208,4.208,0,0,0-3.582-1.633h-1.8V78.884h1.863a4.152,4.152,0,0,0,3.521-1.632,8.02,8.02,0,0,0,1.233-4.864v-.956a7.957,7.957,0,0,0-1.233-4.839m28,.46-2.372,7.681h4.768Zm-28-.46a4.208,4.208,0,0,0-3.582-1.633h-1.8V78.884h1.863a4.152,4.152,0,0,0,3.521-1.632,8.02,8.02,0,0,0,1.233-4.864v-.956a7.957,7.957,0,0,0-1.233-4.839m0,0a4.208,4.208,0,0,0-3.582-1.633h-1.8V78.884h1.863a4.152,4.152,0,0,0,3.521-1.632,8.02,8.02,0,0,0,1.233-4.864v-.956a7.957,7.957,0,0,0-1.233-4.839m0,0a4.208,4.208,0,0,0-3.582-1.633h-1.8V78.884h1.863a4.152,4.152,0,0,0,3.521-1.632,8.02,8.02,0,0,0,1.233-4.864v-.956a7.957,7.957,0,0,0-1.233-4.839" transform="translate(10.389 4.231)"/><path class="a" d="M103.521,61.437A4.208,4.208,0,0,0,99.939,59.8h-1.8V73.727H100a4.152,4.152,0,0,0,3.521-1.632,8.019,8.019,0,0,0,1.233-4.864v-.956a7.957,7.957,0,0,0-1.233-4.839m0,0A4.208,4.208,0,0,0,99.939,59.8h-1.8V73.727H100a4.152,4.152,0,0,0,3.521-1.632,8.019,8.019,0,0,0,1.233-4.864v-.956a7.957,7.957,0,0,0-1.233-4.839m0,0A4.208,4.208,0,0,0,99.939,59.8h-1.8V73.727H100a4.152,4.152,0,0,0,3.521-1.632,8.019,8.019,0,0,0,1.233-4.864v-.956a7.957,7.957,0,0,0-1.233-4.839m28,.46-2.372,7.681h4.768Zm0,0-2.372,7.681h4.768Zm-28-.46A4.208,4.208,0,0,0,99.939,59.8h-1.8V73.727H100a4.152,4.152,0,0,0,3.521-1.632,8.019,8.019,0,0,0,1.233-4.864v-.956a7.957,7.957,0,0,0-1.233-4.839m0,0A4.208,4.208,0,0,0,99.939,59.8h-1.8V73.727H100a4.152,4.152,0,0,0,3.521-1.632,8.019,8.019,0,0,0,1.233-4.864v-.956a7.957,7.957,0,0,0-1.233-4.839m28,.46-2.372,7.681h4.768Zm0,0-2.372,7.681h4.768Zm-28-.46A4.208,4.208,0,0,0,99.939,59.8h-1.8V73.727H100a4.152,4.152,0,0,0,3.521-1.632,8.019,8.019,0,0,0,1.233-4.864v-.956a7.957,7.957,0,0,0-1.233-4.839m0,0A4.208,4.208,0,0,0,99.939,59.8h-1.8V73.727H100a4.152,4.152,0,0,0,3.521-1.632,8.019,8.019,0,0,0,1.233-4.864v-.956a7.957,7.957,0,0,0-1.233-4.839m28,.46-2.372,7.681h4.768Zm0,0-2.372,7.681h4.768Zm-28-.46A4.208,4.208,0,0,0,99.939,59.8h-1.8V73.727H100a4.152,4.152,0,0,0,3.521-1.632,8.019,8.019,0,0,0,1.233-4.864v-.956a7.957,7.957,0,0,0-1.233-4.839m0,0A4.208,4.208,0,0,0,99.939,59.8h-1.8V73.727H100a4.152,4.152,0,0,0,3.521-1.632,8.019,8.019,0,0,0,1.233-4.864v-.956a7.957,7.957,0,0,0-1.233-4.839m28,.46-2.372,7.681h4.768Zm0,0-2.372,7.681h4.768Zm-28-.46A4.208,4.208,0,0,0,99.939,59.8h-1.8V73.727H100a4.152,4.152,0,0,0,3.521-1.632,8.019,8.019,0,0,0,1.233-4.864v-.956a7.957,7.957,0,0,0-1.233-4.839m0,0A4.208,4.208,0,0,0,99.939,59.8h-1.8V73.727H100a4.152,4.152,0,0,0,3.521-1.632,8.019,8.019,0,0,0,1.233-4.864v-.956a7.957,7.957,0,0,0-1.233-4.839m28,.46-2.372,7.681h4.768Zm0,0-2.372,7.681h4.768Zm-28-.46A4.208,4.208,0,0,0,99.939,59.8h-1.8V73.727H100a4.152,4.152,0,0,0,3.521-1.632,8.019,8.019,0,0,0,1.233-4.864v-.956a7.957,7.957,0,0,0-1.233-4.839m0,0A4.208,4.208,0,0,0,99.939,59.8h-1.8V73.727H100a4.152,4.152,0,0,0,3.521-1.632,8.019,8.019,0,0,0,1.233-4.864v-.956a7.957,7.957,0,0,0-1.233-4.839m28,.46-2.372,7.681h4.768Zm0,0-2.372,7.681h4.768Zm-28-.46A4.208,4.208,0,0,0,99.939,59.8h-1.8V73.727H100a4.152,4.152,0,0,0,3.521-1.632,8.019,8.019,0,0,0,1.233-4.864v-.956a7.957,7.957,0,0,0-1.233-4.839M142.483,44.78l-42.714.05-41.5.023a47.428,47.428,0,0,0-.012,43.4l41.514-.132,42.9-.122a47.456,47.456,0,0,0-.181-43.221M67.219,77.841H61.9V55.691h5.322Zm22.209,0h-5.31L76.266,64.05V77.841H70.933V55.691h5.333L84.1,69.47V55.691h5.324ZM110.2,67.231a11.72,11.72,0,0,1-.761,4.308,9.8,9.8,0,0,1-2.117,3.349,9.4,9.4,0,0,1-3.231,2.165,10.525,10.525,0,0,1-4.089.787H92.8V55.691h7.136a10.7,10.7,0,0,1,4.138.775,9.545,9.545,0,0,1,3.242,2.176,9.98,9.98,0,0,1,2.117,3.364A11.731,11.731,0,0,1,110.2,66.3Zm8.432,10.61h-5.324V55.691h5.324Zm17.854,0L135.189,73.7h-7.306L126.6,77.841h-5.71l8.129-22.15h5.019l8.18,22.15Zm-7.333-8.263h4.768l-2.4-7.681ZM99.939,59.8h-1.8V73.727H100a4.152,4.152,0,0,0,3.521-1.632,8.019,8.019,0,0,0,1.233-4.864v-.956a7.957,7.957,0,0,0-1.233-4.839A4.208,4.208,0,0,0,99.939,59.8m3.582,1.633A4.208,4.208,0,0,0,99.939,59.8h-1.8V73.727H100a4.152,4.152,0,0,0,3.521-1.632,8.019,8.019,0,0,0,1.233-4.864v-.956a7.957,7.957,0,0,0-1.233-4.839m28,.46-2.372,7.681h4.768Zm0,0-2.372,7.681h4.768Zm-28-.46A4.208,4.208,0,0,0,99.939,59.8h-1.8V73.727H100a4.152,4.152,0,0,0,3.521-1.632,8.019,8.019,0,0,0,1.233-4.864v-.956a7.957,7.957,0,0,0-1.233-4.839m0,0A4.208,4.208,0,0,0,99.939,59.8h-1.8V73.727H100a4.152,4.152,0,0,0,3.521-1.632,8.019,8.019,0,0,0,1.233-4.864v-.956a7.957,7.957,0,0,0-1.233-4.839m28,.46-2.372,7.681h4.768Zm0,0-2.372,7.681h4.768Zm-28-.46A4.208,4.208,0,0,0,99.939,59.8h-1.8V73.727H100a4.152,4.152,0,0,0,3.521-1.632,8.019,8.019,0,0,0,1.233-4.864v-.956a7.957,7.957,0,0,0-1.233-4.839m0,0A4.208,4.208,0,0,0,99.939,59.8h-1.8V73.727H100a4.152,4.152,0,0,0,3.521-1.632,8.019,8.019,0,0,0,1.233-4.864v-.956a7.957,7.957,0,0,0-1.233-4.839m28,.46-2.372,7.681h4.768Zm0,0-2.372,7.681h4.768Zm-28-.46A4.208,4.208,0,0,0,99.939,59.8h-1.8V73.727H100a4.152,4.152,0,0,0,3.521-1.632,8.019,8.019,0,0,0,1.233-4.864v-.956a7.957,7.957,0,0,0-1.233-4.839m0,0A4.208,4.208,0,0,0,99.939,59.8h-1.8V73.727H100a4.152,4.152,0,0,0,3.521-1.632,8.019,8.019,0,0,0,1.233-4.864v-.956a7.957,7.957,0,0,0-1.233-4.839m28,.46-2.372,7.681h4.768Zm0,0-2.372,7.681h4.768Zm-28-.46A4.208,4.208,0,0,0,99.939,59.8h-1.8V73.727H100a4.152,4.152,0,0,0,3.521-1.632,8.019,8.019,0,0,0,1.233-4.864v-.956a7.957,7.957,0,0,0-1.233-4.839m0,0A4.208,4.208,0,0,0,99.939,59.8h-1.8V73.727H100a4.152,4.152,0,0,0,3.521-1.632,8.019,8.019,0,0,0,1.233-4.864v-.956a7.957,7.957,0,0,0-1.233-4.839m28,.46-2.372,7.681h4.768Zm0,0-2.372,7.681h4.768Zm-28-.46A4.208,4.208,0,0,0,99.939,59.8h-1.8V73.727H100a4.152,4.152,0,0,0,3.521-1.632,8.019,8.019,0,0,0,1.233-4.864v-.956a7.957,7.957,0,0,0-1.233-4.839m28,.46-2.372,7.681h4.768Zm-28-.46A4.208,4.208,0,0,0,99.939,59.8h-1.8V73.727H100a4.152,4.152,0,0,0,3.521-1.632,8.019,8.019,0,0,0,1.233-4.864v-.956a7.957,7.957,0,0,0-1.233-4.839m28,.46-2.372,7.681h4.768Zm-28-.46A4.208,4.208,0,0,0,99.939,59.8h-1.8V73.727H100a4.152,4.152,0,0,0,3.521-1.632,8.019,8.019,0,0,0,1.233-4.864v-.956a7.957,7.957,0,0,0-1.233-4.839m0,0A4.208,4.208,0,0,0,99.939,59.8h-1.8V73.727H100a4.152,4.152,0,0,0,3.521-1.632,8.019,8.019,0,0,0,1.233-4.864v-.956a7.957,7.957,0,0,0-1.233-4.839m0,0A4.208,4.208,0,0,0,99.939,59.8h-1.8V73.727H100a4.152,4.152,0,0,0,3.521-1.632,8.019,8.019,0,0,0,1.233-4.864v-.956a7.957,7.957,0,0,0-1.233-4.839" transform="translate(11.112 9.388)"/><path class="a" d="M179.244,54.132a77.336,77.336,0,1,0,3.532,23.08,77.345,77.345,0,0,0-3.532-23.08m-4.766,49.656c-.277.714-.569,1.429-.859,2.13s-.6,1.39-.919,2.079c-.181.411-.374.81-.567,1.21-.316.665-.642,1.319-.981,1.972-.4.75-.8,1.488-1.21,2.226-.254.437-.508.871-.762,1.306q-.689,1.161-1.415,2.286-1.433,2.25-3.036,4.379c-.351.484-.713.944-1.077,1.415-.411.521-.835,1.04-1.257,1.548-.207.266-.425.52-.642.762l-.653.762c-.883.992-1.79,1.972-2.71,2.927-.46.484-.944.956-1.415,1.415s-.956.921-1.452,1.368c-.979.894-1.984,1.777-3.012,2.625-.446.374-.907.737-1.379,1.113s-.93.725-1.4,1.075-.956.7-1.438,1.052c-.969.677-1.949,1.344-2.941,1.984-.508.327-1,.641-1.512.943s-1.039.63-1.56.933-1.016.579-1.536.859c-.8.434-1.6.846-2.407,1.245-.387.194-.774.376-1.161.57-.422.206-.859.4-1.281.592-.667.3-1.332.593-2.009.872-.918.386-1.839.75-2.781,1.1-.775.278-1.55.558-2.336.812-.64.217-1.293.422-1.935.617-.712.217-1.439.422-2.176.616s-1.464.375-2.2.556-1.464.34-2.2.485c-.543.108-1.077.206-1.621.3-1.052.194-2.1.362-3.169.5q-1.032.143-2.068.254c-.52.06-1.028.109-1.547.144-.364.036-.739.062-1.1.085-.46.036-.907.06-1.367.086-.63.036-1.258.059-1.9.071s-1.258.025-1.9.025-1.27-.013-1.9-.025-1.271-.035-1.9-.071c-.5-.025-.98-.06-1.475-.1-.521-.036-1.042-.073-1.55-.133-.859-.06-1.706-.157-2.564-.266-1.233-.157-2.456-.351-3.665-.567-.544-.1-1.077-.195-1.609-.3-.218-.038-.448-.086-.665-.134q-1.488-.325-2.939-.689c-.6-.157-1.221-.327-1.825-.495-.3-.074-.594-.158-.9-.255s-.593-.181-.9-.278c-.448-.133-.882-.278-1.329-.422-.4-.134-.81-.267-1.21-.412-.787-.278-1.574-.569-2.348-.871-.387-.157-.785-.3-1.173-.471s-.774-.315-1.161-.485c-.75-.325-1.5-.665-2.238-1.016s-1.5-.714-2.249-1.1c-.533-.277-1.064-.556-1.586-.833-.688-.376-1.379-.763-2.068-1.175-.229-.132-.448-.266-.677-.4-.362-.218-.712-.434-1.063-.653-.739-.46-1.464-.931-2.191-1.415-.52-.351-1.039-.714-1.547-1.077s-1.017-.725-1.512-1.1c-.907-.676-1.8-1.378-2.687-2.117-.411-.339-.833-.689-1.245-1.039a1.465,1.465,0,0,1-.145-.134c-.449-.387-.9-.786-1.332-1.185s-.871-.8-1.293-1.21-.848-.81-1.271-1.234c-.556-.556-1.1-1.124-1.644-1.693s-1.064-1.149-1.586-1.741-1.039-1.2-1.536-1.814c-.3-.363-.593-.727-.883-1.09a71.7,71.7,0,0,1-4.96-7.052c-.23-.363-.46-.737-.677-1.113-.337-.556-.665-1.124-.98-1.692s-.628-1.138-.93-1.719c-.242-.434-.461-.871-.679-1.319-.448-.882-.871-1.766-1.27-2.673-.217-.448-.41-.9-.593-1.355-.206-.46-.387-.919-.579-1.367a70.139,70.139,0,0,1-2.445-7.064A73.855,73.855,0,1,1,176.631,97.3v.011c-.242.883-.508,1.755-.786,2.625-.411,1.306-.871,2.589-1.367,3.847" transform="translate(5.947)"/><path class="c" d="M110.594,61.445a4.208,4.208,0,0,0-3.582-1.633h-1.8V73.735h1.863a4.152,4.152,0,0,0,3.521-1.632,8.019,8.019,0,0,0,1.233-4.864v-.956a7.957,7.957,0,0,0-1.233-4.839m0,0a4.208,4.208,0,0,0-3.582-1.633h-1.8V73.735h1.863a4.152,4.152,0,0,0,3.521-1.632,8.019,8.019,0,0,0,1.233-4.864v-.956a7.957,7.957,0,0,0-1.233-4.839m0,0a4.208,4.208,0,0,0-3.582-1.633h-1.8V73.735h1.863a4.152,4.152,0,0,0,3.521-1.632,8.019,8.019,0,0,0,1.233-4.864v-.956a7.957,7.957,0,0,0-1.233-4.839m28,.46-2.372,7.681h4.768Zm0,0-2.372,7.681h4.768Zm-28-.46a4.208,4.208,0,0,0-3.582-1.633h-1.8V73.735h1.863a4.152,4.152,0,0,0,3.521-1.632,8.019,8.019,0,0,0,1.233-4.864v-.956a7.957,7.957,0,0,0-1.233-4.839m0,0a4.208,4.208,0,0,0-3.582-1.633h-1.8V73.735h1.863a4.152,4.152,0,0,0,3.521-1.632,8.019,8.019,0,0,0,1.233-4.864v-.956a7.957,7.957,0,0,0-1.233-4.839m28,.46-2.372,7.681h4.768Zm0,0-2.372,7.681h4.768Zm-28-.46a4.208,4.208,0,0,0-3.582-1.633h-1.8V73.735h1.863a4.152,4.152,0,0,0,3.521-1.632,8.019,8.019,0,0,0,1.233-4.864v-.956a7.957,7.957,0,0,0-1.233-4.839m0,0a4.208,4.208,0,0,0-3.582-1.633h-1.8V73.735h1.863a4.152,4.152,0,0,0,3.521-1.632,8.019,8.019,0,0,0,1.233-4.864v-.956a7.957,7.957,0,0,0-1.233-4.839m28,.46-2.372,7.681h4.768Zm0,0-2.372,7.681h4.768Zm-28-.46a4.208,4.208,0,0,0-3.582-1.633h-1.8V73.735h1.863a4.152,4.152,0,0,0,3.521-1.632,8.019,8.019,0,0,0,1.233-4.864v-.956a7.957,7.957,0,0,0-1.233-4.839m0,0a4.208,4.208,0,0,0-3.582-1.633h-1.8V73.735h1.863a4.152,4.152,0,0,0,3.521-1.632,8.019,8.019,0,0,0,1.233-4.864v-.956a7.957,7.957,0,0,0-1.233-4.839m28,.46-2.372,7.681h4.768Zm0,0-2.372,7.681h4.768Zm-28-.46a4.208,4.208,0,0,0-3.582-1.633h-1.8V73.735h1.863a4.152,4.152,0,0,0,3.521-1.632,8.019,8.019,0,0,0,1.233-4.864v-.956a7.957,7.957,0,0,0-1.233-4.839m0,0a4.208,4.208,0,0,0-3.582-1.633h-1.8V73.735h1.863a4.152,4.152,0,0,0,3.521-1.632,8.019,8.019,0,0,0,1.233-4.864v-.956a7.957,7.957,0,0,0-1.233-4.839m28,.46-2.372,7.681h4.768Zm0,0-2.372,7.681h4.768Zm-28-.46a4.208,4.208,0,0,0-3.582-1.633h-1.8V73.735h1.863a4.152,4.152,0,0,0,3.521-1.632,8.019,8.019,0,0,0,1.233-4.864v-.956a7.957,7.957,0,0,0-1.233-4.839m0,0a4.208,4.208,0,0,0-3.582-1.633h-1.8V73.735h1.863a4.152,4.152,0,0,0,3.521-1.632,8.019,8.019,0,0,0,1.233-4.864v-.956a7.957,7.957,0,0,0-1.233-4.839m28,.46-2.372,7.681h4.768Zm0,0-2.372,7.681h4.768Zm-28-.46a4.208,4.208,0,0,0-3.582-1.633h-1.8V73.735h1.863a4.152,4.152,0,0,0,3.521-1.632,8.019,8.019,0,0,0,1.233-4.864v-.956a7.957,7.957,0,0,0-1.233-4.839m70.558-16.693-3.52.012H167.278l-.665.013h-2.661l-9.751.011h-4.644l-42.714.05-41.5.023-4.645.013H46.422l-2.2.012H33.745L19.266,44.9V88.408l13.778-.048,3.472-.012h.012l8.37-.023,15.787-.048,4.645-.013,41.514-.132,42.9-.122L154.382,88l13.138-.036h.931l10.088-.024h.022l3.474-.011,12.373-.038V44.74Zm-106.86,33.1H68.97V55.7h5.322Zm22.209,0h-5.31L83.34,64.058V77.849H78.006V55.7H83.34l7.838,13.779V55.7H96.5Zm20.768-10.61a11.72,11.72,0,0,1-.761,4.308,9.8,9.8,0,0,1-2.117,3.349,9.4,9.4,0,0,1-3.231,2.165,10.526,10.526,0,0,1-4.089.787h-7.2V55.7h7.136a10.7,10.7,0,0,1,4.138.775,9.545,9.545,0,0,1,3.242,2.176,9.979,9.979,0,0,1,2.117,3.364,11.73,11.73,0,0,1,.761,4.294Zm8.432,10.61h-5.324V55.7H125.7Zm17.854,0-1.294-4.137h-7.306l-1.283,4.137h-5.71l8.129-22.15h5.019l8.18,22.15Zm-7.333-8.263h4.768L138.6,61.9Zm-29.212-9.774h-1.8V73.735h1.863a4.152,4.152,0,0,0,3.521-1.632,8.019,8.019,0,0,0,1.233-4.864v-.956a7.957,7.957,0,0,0-1.233-4.839,4.208,4.208,0,0,0-3.582-1.633m3.582,1.633a4.208,4.208,0,0,0-3.582-1.633h-1.8V73.735h1.863a4.152,4.152,0,0,0,3.521-1.632,8.019,8.019,0,0,0,1.233-4.864v-.956a7.957,7.957,0,0,0-1.233-4.839m28,.46-2.372,7.681h4.768Zm0,0-2.372,7.681h4.768Zm-28-.46a4.208,4.208,0,0,0-3.582-1.633h-1.8V73.735h1.863a4.152,4.152,0,0,0,3.521-1.632,8.019,8.019,0,0,0,1.233-4.864v-.956a7.957,7.957,0,0,0-1.233-4.839m0,0a4.208,4.208,0,0,0-3.582-1.633h-1.8V73.735h1.863a4.152,4.152,0,0,0,3.521-1.632,8.019,8.019,0,0,0,1.233-4.864v-.956a7.957,7.957,0,0,0-1.233-4.839m28,.46-2.372,7.681h4.768Zm0,0-2.372,7.681h4.768Zm-28-.46a4.208,4.208,0,0,0-3.582-1.633h-1.8V73.735h1.863a4.152,4.152,0,0,0,3.521-1.632,8.019,8.019,0,0,0,1.233-4.864v-.956a7.957,7.957,0,0,0-1.233-4.839m0,0a4.208,4.208,0,0,0-3.582-1.633h-1.8V73.735h1.863a4.152,4.152,0,0,0,3.521-1.632,8.019,8.019,0,0,0,1.233-4.864v-.956a7.957,7.957,0,0,0-1.233-4.839m28,.46-2.372,7.681h4.768Zm0,0-2.372,7.681h4.768Zm-28-.46a4.208,4.208,0,0,0-3.582-1.633h-1.8V73.735h1.863a4.152,4.152,0,0,0,3.521-1.632,8.019,8.019,0,0,0,1.233-4.864v-.956a7.957,7.957,0,0,0-1.233-4.839m0,0a4.208,4.208,0,0,0-3.582-1.633h-1.8V73.735h1.863a4.152,4.152,0,0,0,3.521-1.632,8.019,8.019,0,0,0,1.233-4.864v-.956a7.957,7.957,0,0,0-1.233-4.839m28,.46-2.372,7.681h4.768Zm0,0-2.372,7.681h4.768Zm-28-.46a4.208,4.208,0,0,0-3.582-1.633h-1.8V73.735h1.863a4.152,4.152,0,0,0,3.521-1.632,8.019,8.019,0,0,0,1.233-4.864v-.956a7.957,7.957,0,0,0-1.233-4.839m0,0a4.208,4.208,0,0,0-3.582-1.633h-1.8V73.735h1.863a4.152,4.152,0,0,0,3.521-1.632,8.019,8.019,0,0,0,1.233-4.864v-.956a7.957,7.957,0,0,0-1.233-4.839m28,.46-2.372,7.681h4.768Zm0,0-2.372,7.681h4.768Zm-28-.46a4.208,4.208,0,0,0-3.582-1.633h-1.8V73.735h1.863a4.152,4.152,0,0,0,3.521-1.632,8.019,8.019,0,0,0,1.233-4.864v-.956a7.957,7.957,0,0,0-1.233-4.839m0,0a4.208,4.208,0,0,0-3.582-1.633h-1.8V73.735h1.863a4.152,4.152,0,0,0,3.521-1.632,8.019,8.019,0,0,0,1.233-4.864v-.956a7.957,7.957,0,0,0-1.233-4.839m28,.46-2.372,7.681h4.768Zm0,0-2.372,7.681h4.768Zm-28-.46a4.208,4.208,0,0,0-3.582-1.633h-1.8V73.735h1.863a4.152,4.152,0,0,0,3.521-1.632,8.019,8.019,0,0,0,1.233-4.864v-.956a7.957,7.957,0,0,0-1.233-4.839m0,0a4.208,4.208,0,0,0-3.582-1.633h-1.8V73.735h1.863a4.152,4.152,0,0,0,3.521-1.632,8.019,8.019,0,0,0,1.233-4.864v-.956a7.957,7.957,0,0,0-1.233-4.839m0,0a4.208,4.208,0,0,0-3.582-1.633h-1.8V73.735h1.863a4.152,4.152,0,0,0,3.521-1.632,8.019,8.019,0,0,0,1.233-4.864v-.956a7.957,7.957,0,0,0-1.233-4.839" transform="translate(4.039 9.379)"/><path class="c" d="M38.482,97.363,0,97.452l11.9-22.2L.306,53.516l21.034.03V88.073L38.451,97.3Z" transform="translate(0 11.219)"/><path class="c" d="M151.863,97.363l38.448.089-11.864-22.2,11.591-21.738L169,53.546V88.073L151.863,97.3Z" transform="translate(31.837 11.219)"/><path class="c" d="M88.742,17.685l-6.81-9.629L80.25,8.59l-1.681.52-.218,11.613-.036,3.313,3.314-1.015L81.6,20.142l4.04-1.222,1.6,2.394,3.313-1.051Zm-7.173-.18-.023-4.6.059-.036,2.577,3.835Zm20.854-3.581-.156-2.552A5.5,5.5,0,0,0,100.33,7.3a5.726,5.726,0,0,0-4.294-1.4l-5.177.3L91.5,17.227l.157,3.157,5.215-.3a5.66,5.66,0,0,0,4.075-1.875,5.222,5.222,0,0,0,1.017-1.5,5.943,5.943,0,0,0,.458-2.782m-3.9,2.6a.489.489,0,0,0-.121.158,2.183,2.183,0,0,1-1.693.859l-1.9.121-.024-.8-.5-8.347,1.9-.085a2.243,2.243,0,0,1,1.9.8,3.674,3.674,0,0,1,.859,2.323l.157,2.577a3.8,3.8,0,0,1-.581,2.394m17.444-6.289.46-2.481L107.261,6.1,105.3,16.961l-.556,3.121,9.145,1.657.46-2.516-5.915-1.064.145-.775.5-2.7,4.937.9.422-2.516-4.9-.9.52-3Zm25.268,9.822-1.378,1.862-.34.461-1.161,1.56-.339.495-1.077,1.441-.339.46-.676.9-.025-.036.121-1.319.1-.7.242-2.117.06-.677.242-2.238.06-.665.316-2.552-2.673-1.961-1.415,1.925-.328.472-1.173,1.56-.362.46-1.078,1.464-.339.471-1,1.38-.376.46-.641.882L125.9,26.4l2.673,1.96,1.9-2.6.581-.8.375-.46,1-1.379.339-.46,1.077-1.439.036-.036h.06v.1l-.254,2.056-.06.641-.206,2-.1.677-.1.98-.422,3.859,2.636,1.96,1.863-2.54.375-.5.364-.484,1.015-1.379.339-.46,1.1-1.476.339-.461L142,24.593l.339-.5,1.56-2.082Zm-14.818-8.746-4.536,9.871-1.4,3.036,3,1.378,1.39-3.024.508-1.112.254-.52.7-1.56.085-.218,3.013-6.472ZM75.278,22.041l-6.434-9.592-3.618,2.419,1.319,4.572.157.581.52,1.814.145.581.532,1.742.146.579.059.195-.024.024-.157-.121-.5-.363-1.4-1.113-.461-.4-1.476-1.125-.46-.4-1.6-1.235-.46-.362-1.718-1.355-3.581,2.431L57.69,23l.327.46,1.113,1.657.3.46,1.016,1.535.327.461.992,1.439.3.484.46.714,1.683,2.48,2.733-1.839L65.13,28.113l-.544-.786-.3-.473-.992-1.438-.3-.484-1.016-1.476-.06-.1.06-.024.061.06,1.477,1.1.5.375,1.4,1.064.5.375.859.641,2.782,2.141L71.4,27.872l-.9-3.314-.337-1.222-.146-.581-1.137-4.234.061-.036,3.4,5.032,1.718,2.54,2.734-1.839Z" transform="translate(11.798 1.232)"/><path class="a" d="M60.719,26.515a63.334,63.334,0,0,0-15.58,23.093c-.448,1.113-.847,2.249-1.222,3.4h.641c.375-1.149.786-2.285,1.234-3.4A62.939,62.939,0,0,1,61.057,27.036Zm1.415,2.056A60.16,60.16,0,0,0,47.8,49.608c-.46,1.113-.883,2.249-1.27,3.4h.641c.387-1.149.823-2.285,1.27-3.4A59.761,59.761,0,0,1,62.473,29.091ZM57.719,22.16A67.951,67.951,0,0,0,39.538,49.62c-.411,1.113-.774,2.237-1.113,3.386h.653c.339-1.137.714-2.273,1.125-3.386A67.853,67.853,0,0,1,58.045,22.645ZM163.26,49.5a63.3,63.3,0,0,0-15.52-22.983l-.363.521a62.691,62.691,0,0,1,15.217,22.475c.46,1.148.883,2.309,1.27,3.495h.641c-.387-1.185-.8-2.359-1.246-3.508m-2.637.013A60.782,60.782,0,0,0,146.3,28.571l-.339.52a59.513,59.513,0,0,1,13.971,20.42c.484,1.148.919,2.309,1.331,3.495h.677c-.4-1.185-.835-2.347-1.318-3.495m8.25-.013A68.33,68.33,0,0,0,150.74,22.16l-.363.485A67.52,67.52,0,0,1,168.22,49.5c.423,1.161.81,2.323,1.161,3.508h.653c-.351-1.185-.738-2.359-1.161-3.508m-2.891,0a65.087,65.087,0,0,0-16.8-25.1l-.339.521A64.581,64.581,0,0,1,165.316,49.5c.448,1.149.847,2.323,1.222,3.508h.641c-.363-1.185-.762-2.359-1.2-3.508M59.255,24.4A65.665,65.665,0,0,0,42.4,49.608c-.423,1.113-.81,2.249-1.161,3.4H41.9c.363-1.149.751-2.285,1.173-3.4A64.786,64.786,0,0,1,59.618,24.919Z" transform="translate(8.056 4.646)"/><path class="c" d="M97.006,116.681a1.674,1.674,0,0,0-1.319-1.016,1.647,1.647,0,0,0-1.536.617,3.987,3.987,0,0,0-.823,2.2l-.7,4.912a4.6,4.6,0,0,0,.145,2.419,1.67,1.67,0,0,0,1.319.979,1.54,1.54,0,0,0,1.535-.579,4.214,4.214,0,0,0,.859-2.262l.7-4.887a4.553,4.553,0,0,0-.18-2.383M112.065,119a4.293,4.293,0,0,0-.617-2.3,1.566,1.566,0,0,0-1.475-.762,1.59,1.59,0,0,0-1.379.859,4.245,4.245,0,0,0-.425,2.323l.183,4.946a4.356,4.356,0,0,0,.579,2.36,1.712,1.712,0,0,0,2.879-.121,4.378,4.378,0,0,0,.437-2.359Zm0,0a4.293,4.293,0,0,0-.617-2.3,1.566,1.566,0,0,0-1.475-.762,1.59,1.59,0,0,0-1.379.859,4.245,4.245,0,0,0-.425,2.323l.183,4.946a4.356,4.356,0,0,0,.579,2.36,1.712,1.712,0,0,0,2.879-.121,4.378,4.378,0,0,0,.437-2.359Zm-15.059-2.322a1.674,1.674,0,0,0-1.319-1.016,1.647,1.647,0,0,0-1.536.617,3.987,3.987,0,0,0-.823,2.2l-.7,4.912a4.6,4.6,0,0,0,.145,2.419,1.67,1.67,0,0,0,1.319.979,1.54,1.54,0,0,0,1.535-.579,4.214,4.214,0,0,0,.859-2.262l.7-4.887a4.553,4.553,0,0,0-.18-2.383m0,0a1.674,1.674,0,0,0-1.319-1.016,1.647,1.647,0,0,0-1.536.617,3.987,3.987,0,0,0-.823,2.2l-.7,4.912a4.6,4.6,0,0,0,.145,2.419,1.67,1.67,0,0,0,1.319.979,1.54,1.54,0,0,0,1.535-.579,4.214,4.214,0,0,0,.859-2.262l.7-4.887a4.553,4.553,0,0,0-.18-2.383M112.065,119a4.293,4.293,0,0,0-.617-2.3,1.566,1.566,0,0,0-1.475-.762,1.59,1.59,0,0,0-1.379.859,4.245,4.245,0,0,0-.425,2.323l.183,4.946a4.356,4.356,0,0,0,.579,2.36,1.712,1.712,0,0,0,2.879-.121,4.378,4.378,0,0,0,.437-2.359Zm23.541,1.535-.267-.833a2.453,2.453,0,0,0-.9-1.223,1.537,1.537,0,0,0-1.4-.12,1.458,1.458,0,0,0-1.052.956,2.134,2.134,0,0,0,0,1.5l.277.859a2.374,2.374,0,0,0,.921,1.2,1.488,1.488,0,0,0,1.415.144,1.506,1.506,0,0,0,1.039-.979,2.224,2.224,0,0,0-.035-1.5m0,0-.267-.833a2.453,2.453,0,0,0-.9-1.223,1.537,1.537,0,0,0-1.4-.12,1.458,1.458,0,0,0-1.052.956,2.134,2.134,0,0,0,0,1.5l.277.859a2.374,2.374,0,0,0,.921,1.2,1.488,1.488,0,0,0,1.415.144,1.506,1.506,0,0,0,1.039-.979,2.224,2.224,0,0,0-.035-1.5M112.065,119a4.293,4.293,0,0,0-.617-2.3,1.566,1.566,0,0,0-1.475-.762,1.59,1.59,0,0,0-1.379.859,4.245,4.245,0,0,0-.425,2.323l.183,4.946a4.356,4.356,0,0,0,.579,2.36,1.712,1.712,0,0,0,2.879-.121,4.378,4.378,0,0,0,.437-2.359Zm-15.059-2.322a1.674,1.674,0,0,0-1.319-1.016,1.647,1.647,0,0,0-1.536.617,3.987,3.987,0,0,0-.823,2.2l-.7,4.912a4.6,4.6,0,0,0,.145,2.419,1.67,1.67,0,0,0,1.319.979,1.54,1.54,0,0,0,1.535-.579,4.214,4.214,0,0,0,.859-2.262l.7-4.887a4.553,4.553,0,0,0-.18-2.383m0,0a1.674,1.674,0,0,0-1.319-1.016,1.647,1.647,0,0,0-1.536.617,3.987,3.987,0,0,0-.823,2.2l-.7,4.912a4.6,4.6,0,0,0,.145,2.419,1.67,1.67,0,0,0,1.319.979,1.54,1.54,0,0,0,1.535-.579,4.214,4.214,0,0,0,.859-2.262l.7-4.887a4.553,4.553,0,0,0-.18-2.383M112.065,119a4.293,4.293,0,0,0-.617-2.3,1.566,1.566,0,0,0-1.475-.762,1.59,1.59,0,0,0-1.379.859,4.245,4.245,0,0,0-.425,2.323l.183,4.946a4.356,4.356,0,0,0,.579,2.36,1.712,1.712,0,0,0,2.879-.121,4.378,4.378,0,0,0,.437-2.359Zm13.029-4.755-.3-.821a2.1,2.1,0,0,0-.9-1.2,1.506,1.506,0,0,0-1.4-.157,1.464,1.464,0,0,0-1.039.993,2.29,2.29,0,0,0,.023,1.5l.279.823a2.087,2.087,0,0,0,.882,1.2,1.591,1.591,0,0,0,1.453.121,1.458,1.458,0,0,0,1-.945,2.309,2.309,0,0,0,0-1.512m10.512,6.29-.267-.833a2.453,2.453,0,0,0-.9-1.223,1.537,1.537,0,0,0-1.4-.12,1.458,1.458,0,0,0-1.052.956,2.134,2.134,0,0,0,0,1.5l.277.859a2.374,2.374,0,0,0,.921,1.2,1.488,1.488,0,0,0,1.415.144,1.506,1.506,0,0,0,1.039-.979,2.224,2.224,0,0,0-.035-1.5m0,0-.267-.833a2.453,2.453,0,0,0-.9-1.223,1.537,1.537,0,0,0-1.4-.12,1.458,1.458,0,0,0-1.052.956,2.134,2.134,0,0,0,0,1.5l.277.859a2.374,2.374,0,0,0,.921,1.2,1.488,1.488,0,0,0,1.415.144,1.506,1.506,0,0,0,1.039-.979,2.224,2.224,0,0,0-.035-1.5m-10.512-6.29-.3-.821a2.1,2.1,0,0,0-.9-1.2,1.506,1.506,0,0,0-1.4-.157,1.464,1.464,0,0,0-1.039.993,2.29,2.29,0,0,0,.023,1.5l.279.823a2.087,2.087,0,0,0,.882,1.2,1.591,1.591,0,0,0,1.453.121,1.458,1.458,0,0,0,1-.945,2.309,2.309,0,0,0,0-1.512M112.065,119a4.293,4.293,0,0,0-.617-2.3,1.566,1.566,0,0,0-1.475-.762,1.59,1.59,0,0,0-1.379.859,4.245,4.245,0,0,0-.425,2.323l.183,4.946a4.356,4.356,0,0,0,.579,2.36,1.712,1.712,0,0,0,2.879-.121,4.378,4.378,0,0,0,.437-2.359Zm-15.059-2.322a1.674,1.674,0,0,0-1.319-1.016,1.647,1.647,0,0,0-1.536.617,3.987,3.987,0,0,0-.823,2.2l-.7,4.912a4.6,4.6,0,0,0,.145,2.419,1.67,1.67,0,0,0,1.319.979,1.54,1.54,0,0,0,1.535-.579,4.214,4.214,0,0,0,.859-2.262l.7-4.887a4.553,4.553,0,0,0-.18-2.383M175.548,80.44l-10.088.035h-.933l-13.123.048c-.086.183-.157.351-.254.521a2.121,2.121,0,0,1-.157.327.606.606,0,0,1-.1.194q-.4.871-.871,1.706c-.448.871-.931,1.718-1.452,2.551-.194.34-.4.667-.617.993a1.634,1.634,0,0,1-.23.351c-.243.41-.52.81-.8,1.2q-.181.29-.4.579c-.337.485-.688.969-1.052,1.429-.386.52-.8,1.028-1.2,1.524-.618.738-1.234,1.452-1.876,2.14-.471.521-.956,1.017-1.45,1.512a51.515,51.515,0,0,1-72.917,0c-.582-.579-1.149-1.172-1.706-1.789-.46-.5-.907-1.016-1.344-1.537-.483-.567-.956-1.161-1.415-1.753s-.894-1.21-1.329-1.828A50.672,50.672,0,0,1,57.7,80.8l-15.8.036-8.371.024q1.052,3.611,2.433,7.063c.192.449.375.907.581,1.367s.387.907.593,1.355c.4.907.821,1.791,1.27,2.673.217.449.448.884.677,1.319.3.582.617,1.149.931,1.719s.641,1.137.979,1.694c.219.375.448.75.679,1.113a72.034,72.034,0,0,0,4.958,7.052c.292.362.582.726.884,1.089.5.617,1.016,1.21,1.535,1.814s1.052,1.173,1.586,1.741,1.087,1.138,1.644,1.695c.425.422.847.833,1.271,1.233s.859.81,1.293,1.21.884.8,1.332,1.187a1.452,1.452,0,0,0,.145.133c.411.35.835.7,1.245,1.04.884.738,1.779,1.439,2.687,2.117.495.375,1,.738,1.512,1.1s1.028.725,1.547,1.075c.727.485,1.453.956,2.191,1.415.351.219.7.437,1.064.653.229.134.448.267.676.4.691.411,1.38.8,2.068,1.175.521.278,1.052.556,1.586.835.75.387,1.5.75,2.249,1.1s1.489.689,2.239,1.016c.386.169.774.327,1.161.484s.785.315,1.173.472c.773.3,1.56.593,2.347.87.4.145.81.279,1.21.412.448.144.882.289,1.331.423.3.1.593.194.9.277s.593.183.9.255c.6.169,1.222.338,1.827.495q1.452.365,2.939.691c.217.048.448.1.664.133.533.109,1.064.206,1.609.3,1.21.229,2.433.411,3.666.569.859.109,1.706.206,2.564.265.508.06,1.027.1,1.548.134.495.036.98.071,1.476.1.628.036,1.258.06,1.9.071s1.258.025,1.9.025,1.27-.013,1.9-.025,1.27-.035,1.9-.071c.46-.025.907-.048,1.367-.085.363-.024.737-.048,1.1-.086.52-.035,1.028-.083,1.547-.144q1.036-.109,2.068-.254c1.064-.133,2.117-.3,3.169-.5.546-.1,1.078-.194,1.621-.3.739-.145,1.477-.316,2.2-.484s1.475-.363,2.2-.556,1.464-.4,2.177-.617c.641-.194,1.294-.4,1.934-.617.787-.254,1.56-.532,2.336-.812.942-.35,1.863-.714,2.782-1.1.676-.278,1.341-.57,2.008-.872.423-.192.859-.386,1.282-.592.387-.194.773-.375,1.161-.57.809-.4,1.609-.81,2.407-1.245.519-.278,1.027-.57,1.535-.859s1.052-.618,1.56-.931,1-.617,1.512-.945c.993-.64,1.972-1.306,2.941-1.983.483-.351.968-.7,1.438-1.052s.933-.7,1.4-1.077.931-.738,1.378-1.113c1.029-.835,2.033-1.718,3.012-2.625.5-.448.981-.907,1.453-1.368s.956-.93,1.415-1.415c.918-.956,1.825-1.934,2.71-2.927.218-.254.434-.508.653-.761s.434-.5.641-.762c.423-.508.846-1.028,1.257-1.55.364-.471.727-.93,1.078-1.415q1.6-2.121,3.036-4.379.726-1.123,1.415-2.285c.253-.437.507-.871.761-1.306.411-.739.81-1.476,1.21-2.226.34-.653.665-1.306.981-1.972.194-.4.386-.8.569-1.21.313-.689.616-1.38.918-2.081s.582-1.416.859-2.13q.746-1.887,1.367-3.845c.292-.871.556-1.743.81-2.625V80.44ZM52.889,93.032,50.059,91.5l-2.841,1.452.579-3.133L45.56,87.576l3.157-.422L50.157,84.3l1.379,2.879,3.157.5-2.323,2.2ZM64.6,104.257l.737,4.634-4.112-2.238-4.173,2.14.859-4.6-3.3-3.316,4.622-.6L61.346,96.1l2.019,4.234,4.634.7Zm17.9,23.117-3.738-1L82.3,113.427l-3.255-.9.762-2.841,7.149,1.319Zm18.459-7.512-.6,4.391a6.471,6.471,0,0,1-2.274,4.415,5.478,5.478,0,0,1-4.416,1.1,5.706,5.706,0,0,1-3.931-2.3,6.693,6.693,0,0,1-.919-4.875l.617-4.379a6.724,6.724,0,0,1,2.239-4.415,6.128,6.128,0,0,1,8.371,1.185,6.373,6.373,0,0,1,.919,4.875m13.705,8.431a5.418,5.418,0,0,1-4.137,1.839,5.476,5.476,0,0,1-4.294-1.525,6.519,6.519,0,0,1-1.778-4.633l-.145-4.414a6.58,6.58,0,0,1,1.4-4.754,6.159,6.159,0,0,1,8.467-.3,6.719,6.719,0,0,1,1.779,4.621l.145,4.451a6.415,6.415,0,0,1-1.439,4.718m9.845-10.271a3.25,3.25,0,0,1-2.7-.12,3.141,3.141,0,0,1-1.621-2l-.315-.821a3.659,3.659,0,0,1,.121-2.613,3.637,3.637,0,0,1,4.73-1.562,3.324,3.324,0,0,1,1.657,2l.266.823a3.319,3.319,0,0,1-.121,2.575,3.058,3.058,0,0,1-2.021,1.718m3.037,7.235-1.415-.3,3.532-14.806,1.438.339Zm9.532-2.637a3.432,3.432,0,0,1-2.02,1.718,3.386,3.386,0,0,1-2.7-.145,3.278,3.278,0,0,1-1.657-2l-.277-.859a3.282,3.282,0,0,1,2.14-4.294,3.186,3.186,0,0,1,2.673.157,3.278,3.278,0,0,1,1.657,1.983l.279.836a3.45,3.45,0,0,1-.1,2.6M152.843,104.2l.859,4.6-4.173-2.14-4.1,2.238.739-4.634-3.375-3.218,4.6-.7,2.02-4.234,2.117,4.173,4.633.6Zm10.124-14.383.582,3.133L160.693,91.5,157.9,93.032l.5-3.157-2.3-2.2,3.121-.5L160.6,84.3l1.477,2.856,3.156.422Zm-27.628,29.89a2.453,2.453,0,0,0-.9-1.223,1.537,1.537,0,0,0-1.4-.12,1.458,1.458,0,0,0-1.052.956,2.134,2.134,0,0,0,0,1.5l.277.859a2.374,2.374,0,0,0,.921,1.2,1.488,1.488,0,0,0,1.415.144,1.506,1.506,0,0,0,1.039-.979,2.224,2.224,0,0,0-.035-1.5Zm-10.547-6.278a2.1,2.1,0,0,0-.9-1.2,1.506,1.506,0,0,0-1.4-.157,1.464,1.464,0,0,0-1.039.993,2.29,2.29,0,0,0,.023,1.5l.279.823a2.087,2.087,0,0,0,.882,1.2,1.591,1.591,0,0,0,1.453.121,1.458,1.458,0,0,0,1-.945,2.309,2.309,0,0,0,0-1.512Zm-13.344,3.278a1.566,1.566,0,0,0-1.475-.762,1.59,1.59,0,0,0-1.379.859,4.245,4.245,0,0,0-.425,2.323l.183,4.946a4.356,4.356,0,0,0,.579,2.36,1.712,1.712,0,0,0,2.879-.121,4.378,4.378,0,0,0,.437-2.359L112.065,119a4.293,4.293,0,0,0-.617-2.3m-15.76-1.04a1.647,1.647,0,0,0-1.536.617,3.987,3.987,0,0,0-.823,2.2l-.7,4.912a4.6,4.6,0,0,0,.145,2.419,1.67,1.67,0,0,0,1.319.979,1.54,1.54,0,0,0,1.535-.579,4.214,4.214,0,0,0,.859-2.262l.7-4.887a4.553,4.553,0,0,0-.18-2.383,1.674,1.674,0,0,0-1.319-1.016m1.319,1.016a1.674,1.674,0,0,0-1.319-1.016,1.647,1.647,0,0,0-1.536.617,3.987,3.987,0,0,0-.823,2.2l-.7,4.912a4.6,4.6,0,0,0,.145,2.419,1.67,1.67,0,0,0,1.319.979,1.54,1.54,0,0,0,1.535-.579,4.214,4.214,0,0,0,.859-2.262l.7-4.887a4.553,4.553,0,0,0-.18-2.383M112.065,119a4.293,4.293,0,0,0-.617-2.3,1.566,1.566,0,0,0-1.475-.762,1.59,1.59,0,0,0-1.379.859,4.245,4.245,0,0,0-.425,2.323l.183,4.946a4.356,4.356,0,0,0,.579,2.36,1.712,1.712,0,0,0,2.879-.121,4.378,4.378,0,0,0,.437-2.359Zm13.029-4.755-.3-.821a2.1,2.1,0,0,0-.9-1.2,1.506,1.506,0,0,0-1.4-.157,1.464,1.464,0,0,0-1.039.993,2.29,2.29,0,0,0,.023,1.5l.279.823a2.087,2.087,0,0,0,.882,1.2,1.591,1.591,0,0,0,1.453.121,1.458,1.458,0,0,0,1-.945,2.309,2.309,0,0,0,0-1.512m10.512,6.29-.267-.833a2.453,2.453,0,0,0-.9-1.223,1.537,1.537,0,0,0-1.4-.12,1.458,1.458,0,0,0-1.052.956,2.134,2.134,0,0,0,0,1.5l.277.859a2.374,2.374,0,0,0,.921,1.2,1.488,1.488,0,0,0,1.415.144,1.506,1.506,0,0,0,1.039-.979,2.224,2.224,0,0,0-.035-1.5m0,0-.267-.833a2.453,2.453,0,0,0-.9-1.223,1.537,1.537,0,0,0-1.4-.12,1.458,1.458,0,0,0-1.052.956,2.134,2.134,0,0,0,0,1.5l.277.859a2.374,2.374,0,0,0,.921,1.2,1.488,1.488,0,0,0,1.415.144,1.506,1.506,0,0,0,1.039-.979,2.224,2.224,0,0,0-.035-1.5m-10.512-6.29-.3-.821a2.1,2.1,0,0,0-.9-1.2,1.506,1.506,0,0,0-1.4-.157,1.464,1.464,0,0,0-1.039.993,2.29,2.29,0,0,0,.023,1.5l.279.823a2.087,2.087,0,0,0,.882,1.2,1.591,1.591,0,0,0,1.453.121,1.458,1.458,0,0,0,1-.945,2.309,2.309,0,0,0,0-1.512M112.065,119a4.293,4.293,0,0,0-.617-2.3,1.566,1.566,0,0,0-1.475-.762,1.59,1.59,0,0,0-1.379.859,4.245,4.245,0,0,0-.425,2.323l.183,4.946a4.356,4.356,0,0,0,.579,2.36,1.712,1.712,0,0,0,2.879-.121,4.378,4.378,0,0,0,.437-2.359Zm-15.059-2.322a1.674,1.674,0,0,0-1.319-1.016,1.647,1.647,0,0,0-1.536.617,3.987,3.987,0,0,0-.823,2.2l-.7,4.912a4.6,4.6,0,0,0,.145,2.419,1.67,1.67,0,0,0,1.319.979,1.54,1.54,0,0,0,1.535-.579,4.214,4.214,0,0,0,.859-2.262l.7-4.887a4.553,4.553,0,0,0-.18-2.383m0,0a1.674,1.674,0,0,0-1.319-1.016,1.647,1.647,0,0,0-1.536.617,3.987,3.987,0,0,0-.823,2.2l-.7,4.912a4.6,4.6,0,0,0,.145,2.419,1.67,1.67,0,0,0,1.319.979,1.54,1.54,0,0,0,1.535-.579,4.214,4.214,0,0,0,.859-2.262l.7-4.887a4.553,4.553,0,0,0-.18-2.383M112.065,119a4.293,4.293,0,0,0-.617-2.3,1.566,1.566,0,0,0-1.475-.762,1.59,1.59,0,0,0-1.379.859,4.245,4.245,0,0,0-.425,2.323l.183,4.946a4.356,4.356,0,0,0,.579,2.36,1.712,1.712,0,0,0,2.879-.121,4.378,4.378,0,0,0,.437-2.359Zm0,0a4.293,4.293,0,0,0-.617-2.3,1.566,1.566,0,0,0-1.475-.762,1.59,1.59,0,0,0-1.379.859,4.245,4.245,0,0,0-.425,2.323l.183,4.946a4.356,4.356,0,0,0,.579,2.36,1.712,1.712,0,0,0,2.879-.121,4.378,4.378,0,0,0,.437-2.359Zm-15.059-2.322a1.674,1.674,0,0,0-1.319-1.016,1.647,1.647,0,0,0-1.536.617,3.987,3.987,0,0,0-.823,2.2l-.7,4.912a4.6,4.6,0,0,0,.145,2.419,1.67,1.67,0,0,0,1.319.979,1.54,1.54,0,0,0,1.535-.579,4.214,4.214,0,0,0,.859-2.262l.7-4.887a4.553,4.553,0,0,0-.18-2.383m0,0a1.674,1.674,0,0,0-1.319-1.016,1.647,1.647,0,0,0-1.536.617,3.987,3.987,0,0,0-.823,2.2l-.7,4.912a4.6,4.6,0,0,0,.145,2.419,1.67,1.67,0,0,0,1.319.979,1.54,1.54,0,0,0,1.535-.579,4.214,4.214,0,0,0,.859-2.262l.7-4.887a4.553,4.553,0,0,0-.18-2.383m0,0a1.674,1.674,0,0,0-1.319-1.016,1.647,1.647,0,0,0-1.536.617,3.987,3.987,0,0,0-.823,2.2l-.7,4.912a4.6,4.6,0,0,0,.145,2.419,1.67,1.67,0,0,0,1.319.979,1.54,1.54,0,0,0,1.535-.579,4.214,4.214,0,0,0,.859-2.262l.7-4.887a4.553,4.553,0,0,0-.18-2.383" transform="translate(7.03 16.864)"/></g></svg>