<svg width="293" height="280" viewBox="0 0 293 280" fill="none" xmlns="http://www.w3.org/2000/svg">
<g clip-path="url(#clip0_4321_46497)">
<path d="M170.626 146.699H139.383V154.964H170.626V146.699Z" fill="#EBEBEB"/>
<path d="M157.419 163.673C157.414 163.622 157.414 163.57 157.419 163.519V163.095C157.419 162.71 157.419 162.164 157.419 161.47C157.419 160.045 157.387 157.99 157.367 155.402L157.464 155.504L126.221 155.562L126.381 155.402V163.667L126.227 163.506L148.492 163.577L155.062 163.622H156.841H157.303H157.47H157.322H156.879H155.139L148.601 163.667L126.227 163.737H126.066V155.408L126.227 155.254L157.47 155.312H157.566V155.408C157.566 158.022 157.528 160.096 157.515 161.535C157.515 162.222 157.515 162.755 157.515 163.14C157.515 163.307 157.515 163.442 157.515 163.545C157.486 163.59 157.454 163.633 157.419 163.673Z" fill="#E0E0E0"/>
<path d="M216.584 191.961V207.335H214.016V209.005H216.584V219.28H264.57V209.93H261.018V207.894H264.57V204.831H266.15V203.444H264.274V191.961H216.584Z" fill="#F5F5F5"/>
<path d="M251.828 192.006V219.12H264.569V209.756H261.012V207.888L264.569 207.952V204.895H266.181L266.149 203.315L264.274 203.27V191.961L251.828 192.006Z" fill="#E0E0E0"/>
<path d="M252.732 208.784C252.732 208.88 244.049 208.958 233.344 208.958C222.638 208.958 213.949 208.88 213.949 208.784C213.949 208.688 222.632 208.617 233.344 208.617C244.056 208.617 252.732 208.688 252.732 208.784Z" fill="#E0E0E0"/>
<path d="M252.732 207.218C252.732 207.314 244.049 207.391 233.344 207.391C222.638 207.391 213.949 207.314 213.949 207.218C213.949 207.121 222.632 207.051 233.344 207.051C244.056 207.051 252.732 207.128 252.732 207.218Z" fill="#E0E0E0"/>
<path d="M255.224 203.009C255.224 203.099 246.541 203.176 235.836 203.176C225.13 203.176 216.441 203.099 216.441 203.009C216.441 202.919 225.124 202.836 235.836 202.836C246.548 202.836 255.224 202.926 255.224 203.009Z" fill="#E0E0E0"/>
<path d="M255.469 214.472C255.469 214.568 246.78 214.645 236.074 214.645C225.369 214.645 216.68 214.568 216.68 214.472C216.68 214.375 225.362 214.305 236.074 214.305C246.786 214.305 255.469 214.382 255.469 214.472Z" fill="#E0E0E0"/>
<path d="M220.206 218.535V233.909H217.637V235.579H220.206V245.854H268.191V236.504H264.633V234.475H268.191V231.411H269.771V230.024H267.895V218.535H220.206Z" fill="#F5F5F5"/>
<path d="M255.441 218.58V245.694H268.189V236.331H264.631V234.462L268.189 234.526V231.469H269.795L269.763 229.889L267.887 229.844V218.535L255.441 218.58Z" fill="#E0E0E0"/>
<path d="M256.357 235.354C256.357 235.451 247.674 235.528 236.962 235.528C226.25 235.528 217.574 235.451 217.574 235.354C217.574 235.258 226.25 235.188 236.962 235.188C247.674 235.188 256.357 235.265 256.357 235.354Z" fill="#E0E0E0"/>
<path d="M256.357 233.796C256.357 233.892 247.674 233.969 236.962 233.969C226.25 233.969 217.574 233.892 217.574 233.796C217.574 233.7 226.25 233.629 236.962 233.629C247.674 233.629 256.357 233.706 256.357 233.796Z" fill="#E0E0E0"/>
<path d="M258.848 229.595C258.848 229.685 250.165 229.762 239.453 229.762C228.741 229.762 220.078 229.685 220.078 229.595C220.078 229.505 228.754 229.422 239.466 229.422C250.178 229.422 258.848 229.499 258.848 229.595Z" fill="#E0E0E0"/>
<path d="M259.083 241.046C259.083 241.142 250.401 241.219 239.695 241.219C228.99 241.219 220.301 241.142 220.301 241.046C220.301 240.95 228.983 240.879 239.695 240.879C250.407 240.879 259.083 240.956 259.083 241.046Z" fill="#E0E0E0"/>
<path d="M215.998 244.75V260.124H213.43V261.794H215.998V272.069H263.984V262.732H260.426V260.696H263.984V257.594H265.564V256.207H263.688V244.75H215.998Z" fill="#F5F5F5"/>
<path d="M251.238 244.795V271.909H263.986V262.545H260.428V260.683L263.986 260.741V257.684H265.591L265.566 256.104L263.691 256.059V244.75L251.238 244.795Z" fill="#E0E0E0"/>
<path d="M252.15 261.576C252.15 261.666 243.467 261.743 232.762 261.743C222.056 261.743 213.367 261.666 213.367 261.576C213.367 261.486 222.05 261.402 232.762 261.402C243.474 261.402 252.15 261.479 252.15 261.576Z" fill="#E0E0E0"/>
<path d="M252.15 260.011C252.15 260.107 243.467 260.184 232.762 260.184C222.056 260.184 213.367 260.107 213.367 260.011C213.367 259.914 222.05 259.844 232.762 259.844C243.474 259.844 252.15 259.921 252.15 260.011Z" fill="#E0E0E0"/>
<path d="M254.638 255.81C254.638 255.906 245.955 255.977 235.244 255.977C224.532 255.977 215.855 255.906 215.855 255.81C215.855 255.714 224.532 255.637 235.244 255.637C245.955 255.637 254.638 255.714 254.638 255.81Z" fill="#E0E0E0"/>
<path d="M254.876 267.261C254.876 267.357 246.194 267.434 235.488 267.434C224.783 267.434 216.094 267.357 216.094 267.261C216.094 267.164 224.776 267.094 235.488 267.094C246.2 267.094 254.876 267.171 254.876 267.261Z" fill="#E0E0E0"/>
<path d="M224.741 168.379V183.74H222.172V185.41H224.741V195.685H272.739V186.348H269.187V184.306H272.739V181.249H274.319V179.887H272.443V168.379H224.741Z" fill="#F5F5F5"/>
<path d="M259.977 168.417V195.538H272.718V186.174H269.166V184.306L272.718 184.37V181.313H274.33L274.298 179.733L272.422 179.688V168.379L259.977 168.417Z" fill="#E0E0E0"/>
<path d="M260.891 185.198C260.891 185.295 252.208 185.372 241.496 185.372C230.784 185.372 222.102 185.295 222.102 185.198C222.102 185.102 230.784 185.031 241.496 185.031C252.208 185.031 260.891 185.108 260.891 185.198Z" fill="#E0E0E0"/>
<path d="M260.891 183.636C260.891 183.732 252.208 183.809 241.496 183.809C230.784 183.809 222.102 183.732 222.102 183.636C222.102 183.539 230.784 183.469 241.496 183.469C252.208 183.469 260.891 183.539 260.891 183.636Z" fill="#E0E0E0"/>
<path d="M263.383 179.435C263.383 179.525 254.694 179.602 243.988 179.602C233.283 179.602 224.594 179.525 224.594 179.435C224.594 179.345 233.276 179.262 243.988 179.262C254.7 179.262 263.383 179.339 263.383 179.435Z" fill="#E0E0E0"/>
<path d="M263.621 190.886C263.621 190.982 254.938 191.059 244.227 191.059C233.515 191.059 224.832 190.982 224.832 190.886C224.832 190.789 233.515 190.719 244.227 190.719C254.938 190.719 263.621 190.802 263.621 190.886Z" fill="#E0E0E0"/>
<path d="M84.0493 218.699V234.074H81.4805V235.756H84.0493V246.031H132.035V236.668H128.477V234.626H132.035V231.569H133.614V230.175H131.739V218.699H84.0493Z" fill="#F5F5F5"/>
<path d="M119.285 218.74V245.86H132.026V236.497H128.475V234.628L132.026 234.693V231.636H133.638L133.606 230.056L131.731 230.011V218.695L119.285 218.74Z" fill="#E0E0E0"/>
<path d="M120.197 235.519C120.197 235.615 111.514 235.692 100.802 235.692C90.0902 235.692 81.4141 235.615 81.4141 235.519C81.4141 235.422 90.0902 235.352 100.802 235.352C111.514 235.352 120.197 235.429 120.197 235.519Z" fill="#E0E0E0"/>
<path d="M120.195 233.962C120.195 234.059 111.513 234.136 100.801 234.136C90.0888 234.136 81.4062 234.059 81.4062 233.962C81.4062 233.866 90.0824 233.789 100.794 233.789C111.506 233.789 120.195 233.866 120.195 233.962Z" fill="#E0E0E0"/>
<path d="M122.687 229.757C122.687 229.853 114.005 229.93 103.293 229.93C92.581 229.93 83.8984 229.853 83.8984 229.757C83.8984 229.66 92.581 229.59 103.293 229.59C114.005 229.59 122.687 229.667 122.687 229.757Z" fill="#E0E0E0"/>
<path d="M122.927 241.214C122.927 241.31 114.245 241.387 103.539 241.387C92.8335 241.387 84.1445 241.31 84.1445 241.214C84.1445 241.118 92.8271 241.047 103.539 241.047C114.251 241.047 122.927 241.118 122.927 241.214Z" fill="#E0E0E0"/>
<path d="M87.6665 245.277V260.652H85.0977V262.321H87.6665V272.597H135.645V263.246H132.094V261.204H135.645V258.147H137.225V256.753H135.35V245.277H87.6665Z" fill="#F5F5F5"/>
<path d="M122.906 245.314V272.435H135.648V263.071H132.096V261.203L135.648 261.267V258.21H137.259L137.227 256.63L135.352 256.585V245.27L122.906 245.314Z" fill="#E0E0E0"/>
<path d="M123.793 262.089C123.793 262.185 115.11 262.262 104.398 262.262C93.6865 262.262 85.0039 262.185 85.0039 262.089C85.0039 261.993 93.6865 261.922 104.398 261.922C115.11 261.922 123.793 262.005 123.793 262.089Z" fill="#E0E0E0"/>
<path d="M123.793 260.537C123.793 260.633 115.11 260.71 104.398 260.71C93.6865 260.71 85.0039 260.633 85.0039 260.537C85.0039 260.44 93.6865 260.363 104.398 260.363C115.11 260.363 123.793 260.44 123.793 260.537Z" fill="#E0E0E0"/>
<path d="M126.306 256.308C126.306 256.404 117.623 256.481 106.918 256.481C96.2124 256.481 87.5234 256.404 87.5234 256.308C87.5234 256.211 96.206 256.141 106.918 256.141C117.63 256.141 126.306 256.237 126.306 256.308Z" fill="#E0E0E0"/>
<path d="M126.547 267.784C126.547 267.88 117.864 267.958 107.152 267.958C96.4404 267.958 87.7578 267.88 87.7578 267.784C87.7578 267.688 96.4404 267.617 107.152 267.617C117.864 267.617 126.547 267.688 126.547 267.784Z" fill="#E0E0E0"/>
<path d="M92.1938 195.113V210.526H89.625V212.189H92.1938V222.465H140.179V213.089H136.634V211.046H140.186V207.989H141.772V206.596H139.897V195.113H92.1938Z" fill="#F5F5F5"/>
<path d="M127.434 195.158V222.278H140.181V212.915H136.624V211.046L140.181 211.111V208.047L141.787 208.054L141.761 206.474L139.886 206.422V195.113L127.434 195.158Z" fill="#E0E0E0"/>
<path d="M128.345 211.94C128.345 212.037 119.662 212.114 108.957 212.114C98.2515 212.114 89.5625 212.037 89.5625 211.94C89.5625 211.844 98.2451 211.773 108.957 211.773C119.669 211.773 128.345 211.844 128.345 211.94Z" fill="#E0E0E0"/>
<path d="M128.345 210.377C128.345 210.473 119.662 210.543 108.957 210.543C98.2515 210.543 89.5625 210.473 89.5625 210.377C89.5625 210.28 98.2451 210.203 108.957 210.203C119.669 210.203 128.345 210.28 128.345 210.377Z" fill="#E0E0E0"/>
<path d="M130.857 206.171C130.857 206.267 122.174 206.344 111.469 206.344C100.763 206.344 92.0742 206.267 92.0742 206.171C92.0742 206.075 100.757 206.004 111.469 206.004C122.181 206.004 130.857 206.081 130.857 206.171Z" fill="#E0E0E0"/>
<path d="M131.076 217.63C131.076 217.727 122.393 217.797 111.687 217.797C100.982 217.797 92.293 217.727 92.293 217.63C92.293 217.534 100.976 217.457 111.687 217.457C122.399 217.457 131.076 217.534 131.076 217.63Z" fill="#E0E0E0"/>
<path d="M162.903 245.32V260.219H160.398V261.838H162.884V271.811H209.392V262.73H205.995V260.752H209.443V257.785H210.972V256.443H209.154V245.32H162.903Z" fill="#F5F5F5"/>
<path d="M197.055 245.359V271.644H209.404V262.57H205.962V260.759L209.404 260.817V257.856H210.965L210.939 256.321L209.115 256.276V245.32L197.055 245.359Z" fill="#E0E0E0"/>
<path d="M197.942 261.629C197.942 261.719 189.523 261.79 179.145 261.79C168.767 261.79 160.348 261.719 160.348 261.629C160.348 261.539 168.748 261.449 179.145 261.449C189.542 261.449 197.942 261.533 197.942 261.629Z" fill="#E0E0E0"/>
<path d="M197.942 260.112C197.942 260.202 189.523 260.279 179.145 260.279C168.767 260.279 160.348 260.202 160.348 260.112C160.348 260.022 168.76 259.945 179.145 259.945C189.529 259.945 197.942 260.022 197.942 260.112Z" fill="#E0E0E0"/>
<path d="M200.35 256.042C200.35 256.132 191.937 256.203 181.559 256.203C171.181 256.203 162.762 256.132 162.762 256.042C162.762 255.952 171.175 255.875 181.559 255.875C191.943 255.875 200.35 255.946 200.35 256.042Z" fill="#E0E0E0"/>
<path d="M200.585 267.136C200.585 267.226 192.166 267.303 181.788 267.303C171.41 267.303 162.965 267.226 162.965 267.136C162.965 267.046 171.384 266.969 181.762 266.969C192.14 266.969 200.585 267.046 200.585 267.136Z" fill="#E0E0E0"/>
<path d="M11.4605 245.32V260.219H8.96875V261.838H11.4605V271.811H57.9623V262.73H54.5201V260.752H57.9623V257.785H59.4972V256.443H57.6477V245.32H11.4605Z" fill="#F5F5F5"/>
<path d="M45.6094 245.359V271.644H57.9589V262.57H54.5103V260.759L57.9589 260.817V257.856H59.5195L59.4874 256.321L57.6699 256.276V245.32L45.6094 245.359Z" fill="#E0E0E0"/>
<path d="M46.4904 261.629C46.4904 261.719 38.0776 261.79 27.6996 261.79C17.3216 261.79 8.90234 261.719 8.90234 261.629C8.90234 261.539 17.3152 261.449 27.6996 261.449C38.084 261.449 46.4904 261.533 46.4904 261.629Z" fill="#E0E0E0"/>
<path d="M46.4904 260.112C46.4904 260.202 38.0776 260.279 27.6996 260.279C17.3216 260.279 8.90234 260.202 8.90234 260.112C8.90234 260.022 17.3152 259.945 27.6996 259.945C38.084 259.945 46.4904 260.022 46.4904 260.112Z" fill="#E0E0E0"/>
<path d="M48.9045 256.042C48.9045 256.132 40.4916 256.203 30.1137 256.203C19.7357 256.203 11.3164 256.132 11.3164 256.042C11.3164 255.952 19.7292 255.875 30.1137 255.875C40.4981 255.875 48.9045 255.946 48.9045 256.042Z" fill="#E0E0E0"/>
<path d="M49.1389 267.136C49.1389 267.226 40.726 267.303 30.348 267.303C19.97 267.303 11.5508 267.226 11.5508 267.136C11.5508 267.046 19.9636 266.969 30.348 266.969C40.7324 266.969 49.1389 267.046 49.1389 267.136Z" fill="#E0E0E0"/>
<path d="M288.594 272.011C288.594 272.107 224.579 272.178 145.634 272.178C66.6877 272.178 2.66016 272.107 2.66016 272.011C2.66016 271.914 66.6556 271.844 145.634 271.844C224.612 271.844 288.594 271.921 288.594 272.011Z" fill="#263238"/>
<path d="M256.227 111.394H201.377C201.377 83.779 178.778 60.6597 151.169 60.6597C123.561 60.6597 101.013 83.779 101.013 111.394H46.0859C46.0859 53.4671 93.2171 5.66797 151.144 5.66797C209.07 5.66797 256.227 53.4671 256.227 111.394Z" fill="#E0E0E0"/>
<path d="M151.202 12.5078C140.669 12.4996 130.203 14.1821 120.203 17.4913L133.689 59.3693C145.566 55.3729 158.452 55.5542 170.211 59.8831L184.205 18.1785C173.609 14.4175 162.446 12.4995 151.202 12.5078Z" fill="#349F6E"/>
<path d="M250.088 111.394C250.108 91.8782 244.32 72.798 233.462 56.582L198.141 82.9765C203.348 91.542 206.097 101.376 206.085 111.4L250.088 111.394Z" fill="#349F6E"/>
<path d="M52.3087 111.391H96.2995C96.2891 101.295 99.079 91.3932 104.359 82.7874L69.3912 55.8984C58.2409 72.2547 52.2871 91.5957 52.3087 111.391Z" fill="#349F6E"/>
<path d="M69.3906 55.9023L104.359 82.7913C111.096 71.8033 121.465 63.5179 133.669 59.3702L120.182 17.4922C99.4957 24.3753 81.6478 37.8724 69.3906 55.9023Z" fill="#349F6E"/>
<path d="M184.204 18.1797L170.191 59.8843C181.849 64.222 191.702 72.3682 198.153 83.0035L233.474 56.609C221.61 38.8349 204.332 25.3586 184.204 18.1797Z" fill="#349F6E"/>
<g opacity="0.5">
<path d="M52.3087 111.391H96.2995C96.2891 101.295 99.079 91.3932 104.359 82.7874L69.3912 55.8984C58.2409 72.2547 52.2871 91.5957 52.3087 111.391Z" fill="white"/>
</g>
<g opacity="0.3">
<path d="M69.3906 55.9023L104.359 82.7913C111.096 71.8033 121.465 63.5179 133.669 59.3702L120.182 17.4922C99.4957 24.3753 81.6478 37.8724 69.3906 55.9023Z" fill="white"/>
</g>
<g opacity="0.3">
<path d="M184.204 18.1797L170.191 59.8843C181.849 64.222 191.702 72.3682 198.153 83.0035L233.474 56.609C221.61 38.8349 204.332 25.3586 184.204 18.1797Z" fill="black"/>
</g>
<g opacity="0.5">
<path d="M250.088 111.394C250.108 91.8782 244.32 72.798 233.462 56.582L198.141 82.9765C203.348 91.542 206.097 101.376 206.085 111.4L250.088 111.394Z" fill="black"/>
</g>
<path d="M233.46 56.5802C233.46 56.5802 234.212 57.6912 235.593 59.8747C237.58 63.112 239.383 66.459 240.993 69.8994C241.507 71.0361 242.072 72.2242 242.586 73.515L243.402 75.4802C243.659 76.1673 243.915 76.8609 244.179 77.5802C244.738 78.9994 245.193 80.5279 245.727 82.0756C245.964 82.8719 246.202 83.6811 246.439 84.5095L246.805 85.7939C246.908 86.2242 247.017 86.6545 247.126 87.0783C248.088 90.8034 248.818 94.5847 249.31 98.4003C249.883 102.707 250.177 107.047 250.19 111.392V111.495H250.087H206.096H205.993V111.366C205.998 98.8791 201.716 86.7686 193.862 77.06C189.602 71.7962 184.418 67.3525 178.565 63.9462C175.521 62.2024 172.322 60.7448 169.009 59.5921C158.544 55.9901 147.232 55.6541 136.571 58.6288C129.157 60.7033 122.264 64.3184 116.342 69.238C110.131 74.3615 105.131 80.7956 101.699 88.0791C98.2669 95.3625 96.4887 103.315 96.4916 111.366V111.533H52.1797V111.366C52.1614 85.6234 62.2049 60.8927 80.1669 42.4517C82.9102 39.6174 85.8226 36.9516 88.888 34.4692C91.8849 32.0519 95.0106 29.7987 98.2513 27.7196C104.501 23.7661 111.172 20.5222 118.14 18.0481C124.684 15.7044 131.462 14.0766 138.357 13.193C160.977 10.216 183.928 15.1921 203.283 27.2701C206.821 29.4574 210.21 31.8752 213.43 34.5077C216.136 36.7074 218.725 39.0461 221.188 41.5141C223.391 43.7554 225.26 45.8169 226.814 47.6664L228.92 50.2352L230.583 52.438C231.084 53.0802 231.502 53.6774 231.868 54.1976L232.754 55.482C233.236 56.1756 233.473 56.5352 233.473 56.5352C233.473 56.5352 233.216 56.1884 232.728 55.5013L231.829 54.2169C231.47 53.7031 231.052 53.1123 230.545 52.4701C225.586 45.8157 219.807 39.813 213.347 34.604C210.126 31.983 206.736 29.576 203.2 27.3985C183.86 15.3984 160.958 10.4756 138.395 13.4692C131.521 14.3614 124.762 15.9913 118.237 18.3306C111.291 20.7941 104.641 24.0251 98.4118 27.9637C95.1904 30.0525 92.0861 32.3164 89.1127 34.7453C86.059 37.225 83.1554 39.8841 80.4173 42.7086C62.4997 61.0917 52.4828 85.7536 52.5072 111.424L52.3403 111.264H96.3311L96.1641 111.431C96.1644 103.33 97.9556 95.3293 101.409 88.0018C104.863 80.6742 109.895 74.2009 116.143 69.0453C119.133 66.5502 122.384 64.3862 125.84 62.5912C129.232 60.816 132.801 59.4018 136.488 58.3719C147.212 55.3896 158.588 55.7345 169.112 59.3609C172.453 60.519 175.678 61.9875 178.745 63.7471C184.627 67.1725 189.835 71.6427 194.113 76.938C202 86.6999 206.296 98.8741 206.282 111.424L206.154 111.302H250.145L250.042 111.399C250.04 107.062 249.755 102.731 249.188 98.4325C248.704 94.6237 247.984 90.8488 247.03 87.1297C246.927 86.693 246.818 86.2627 246.715 85.8453C246.613 85.4279 246.471 85.004 246.356 84.593C246.112 83.7646 245.881 82.949 245.649 82.1526C245.116 80.5857 244.667 79.0572 244.115 77.6572L243.344 75.5572L242.535 73.5921C242.027 72.3077 241.462 71.1132 240.955 69.9765C239.332 66.5199 237.523 63.154 235.535 59.8939C234.893 58.7958 234.321 57.9673 233.974 57.415L233.46 56.5802Z" fill="#263238"/>
<path d="M58.668 100L59.0661 98.3757L64.7753 99.7821L65.6423 96.25L66.9652 96.5775L65.6808 101.715L58.668 100Z" fill="white"/>
<path d="M67.2403 94.3766C66.7717 94.8458 66.1829 95.1769 65.5385 95.3335C64.8811 95.4783 64.1972 95.4484 63.5549 95.2467C62.9127 95.045 62.3345 94.6786 61.8779 94.1839C61.436 93.6901 61.1403 93.0831 61.0238 92.4307C60.9106 91.7388 60.9609 91.03 61.1705 90.3609C61.3801 89.6919 61.7434 89.0811 62.2311 88.5775C62.5932 88.2317 63.0209 87.9618 63.4889 87.7839C63.9569 87.6059 64.4558 87.5235 64.9562 87.5415C65.4566 87.5594 65.9483 87.6774 66.4023 87.8884C66.8564 88.0994 67.2636 88.3993 67.5999 88.7702C68.0369 89.2673 68.3319 89.8729 68.4541 90.5234C68.5818 91.2179 68.5333 91.9333 68.3128 92.6041C68.1115 93.2764 67.7424 93.8863 67.2403 94.3766ZM67.0155 90.9601C66.9347 90.5765 66.7452 90.2242 66.4697 89.9454C66.1758 89.6487 65.814 89.4281 65.4156 89.3028C65.0172 89.1775 64.5943 89.1511 64.1834 89.2261C63.797 89.302 63.4405 89.487 63.1559 89.7592C62.864 90.0395 62.6474 90.3888 62.5262 90.7749C62.405 91.161 62.383 91.5715 62.4623 91.9683C62.5447 92.3532 62.7339 92.7071 63.0082 92.9894C63.3027 93.285 63.6648 93.5044 64.0632 93.6286C64.4615 93.7528 64.8841 93.7781 65.2944 93.7023C65.6804 93.6289 66.037 93.4461 66.322 93.1757C66.6134 92.8937 66.8296 92.5432 66.9508 92.1562C67.0719 91.7691 67.0942 91.3579 67.0155 90.9601Z" fill="white"/>
<path d="M67.0176 75.0586L72.8424 79.9714L72.2002 81.6412L67.0626 81.2751L70.9928 84.6402L70.3185 86.3035L62.7148 85.7898L63.357 84.1779L68.6873 84.576L64.6093 81.0824L65.1873 79.6439L70.569 80.0357L66.446 76.5485L67.0176 75.0586Z" fill="white"/>
<path d="M134.71 27.7684L133.791 23.5234L132.456 27.473L131.717 27.6271L128.93 24.6666L129.823 28.8216L128.288 29.1491L126.766 22.0849L128.121 21.7959L131.717 25.6491L133.38 20.6913L134.729 20.4023L136.27 27.4666L134.71 27.7684Z" fill="white"/>
<path d="M143.179 25.2553L143.34 26.5911L137.772 27.2333L136.918 20.0406L142.351 19.3984L142.512 20.7342L138.729 21.1838L138.915 22.7443L142.255 22.3461L142.409 23.6306L139.069 24.0287L139.268 25.7562L143.179 25.2553Z" fill="white"/>
<path d="M144.238 19.2492L147.526 19.1144C148.245 19.0695 148.965 19.1949 149.626 19.4804C150.219 19.7335 150.725 20.1529 151.084 20.6878C151.437 21.2539 151.636 21.9019 151.663 22.5683C151.69 23.2347 151.544 23.8967 151.238 24.4896C150.926 25.0529 150.457 25.5144 149.89 25.8189C149.25 26.1525 148.543 26.3348 147.822 26.352L144.534 26.4804L144.238 19.2492ZM147.68 24.9777C148.316 24.9853 148.93 24.7432 149.389 24.3034C149.599 24.0836 149.76 23.8215 149.86 23.5347C149.961 23.2479 150 22.9429 149.973 22.6401C149.974 22.3365 149.91 22.0361 149.788 21.7585C149.665 21.4808 149.485 21.232 149.26 21.0281C148.766 20.6272 148.134 20.4359 147.501 20.4951L145.972 20.5529L146.152 25.0483L147.68 24.9777Z" fill="white"/>
<path d="M153.123 19.0156L154.799 19.0542L154.619 26.2918H152.949L153.123 19.0156Z" fill="white"/>
<path d="M157.136 25.6155C156.858 25.2648 156.654 24.8616 156.536 24.4301C156.418 23.9986 156.388 23.5477 156.449 23.1045L156.744 19.0586L158.414 19.1806L158.125 23.1623C158.028 24.4467 158.523 25.1467 159.595 25.2237C159.816 25.2547 160.04 25.2362 160.252 25.1695C160.464 25.1029 160.659 24.9898 160.822 24.8384C161.166 24.4388 161.351 23.9269 161.342 23.3999L161.631 19.4182L163.282 19.5338L162.993 23.5797C162.989 24.0266 162.896 24.4682 162.717 24.8777C162.538 25.2873 162.278 25.6562 161.952 25.9623C161.23 26.462 160.359 26.7 159.483 26.637C158.607 26.5739 157.779 26.2135 157.136 25.6155Z" fill="white"/>
<path d="M170.736 28.0023L171.456 23.7188L168.745 26.8849L168 26.7564L166.498 22.961L165.785 27.1546L164.25 26.8913L165.477 19.75L166.819 19.9748L168.745 24.8683L172.136 20.8803L173.491 21.1115L172.29 28.2528L170.736 28.0023Z" fill="white"/>
<path d="M238.237 82.1205L231.5 84.7792L230.858 83.2187L233.626 82.1269L232.444 79.0572L229.677 80.1425L229.066 78.5884L235.803 75.9297L236.445 77.4902L233.787 78.537L234.994 81.5939L237.646 80.5471L238.237 82.1205Z" fill="white"/>
<path d="M238.863 83.9961L239.402 85.5823L232.543 87.9135L232.004 86.3273L238.863 83.9961Z" fill="white"/>
<path d="M238.039 93.1224L238.463 94.593L235.644 95.4151C235.233 95.1044 234.881 94.724 234.603 94.2912C234.32 93.848 234.104 93.3654 233.961 92.8591C233.753 92.1852 233.717 91.4696 233.858 90.7784C233.988 90.1316 234.295 89.5336 234.744 89.0508C235.216 88.5632 235.806 88.2072 236.457 88.0179C237.108 87.8287 237.797 87.8128 238.456 87.9719C239.096 88.1434 239.676 88.4878 240.133 88.9673C240.623 89.4853 240.978 90.1162 241.166 90.804C241.326 91.3694 241.376 91.9602 241.314 92.5444C241.256 93.082 241.073 93.5987 240.781 94.0536L239.529 93.2958C239.713 92.9961 239.831 92.661 239.876 92.3124C239.922 91.9638 239.893 91.6096 239.792 91.2729C239.672 90.8574 239.452 90.478 239.15 90.1683C238.873 89.8813 238.518 89.6825 238.129 89.5967C237.717 89.4999 237.287 89.5154 236.883 89.6417C236.478 89.7592 236.11 89.9806 235.817 90.2839C235.539 90.5676 235.345 90.9235 235.258 91.3114C235.169 91.7268 235.189 92.1582 235.316 92.5637C235.429 92.9991 235.65 93.399 235.958 93.7261L238.039 93.1224Z" fill="white"/>
<path d="M243.73 101.965L236.665 103.507L236.306 101.869L239.208 101.227L238.508 98.0158L235.606 98.658L235.246 97.0204L242.31 95.4727L242.67 97.1103L239.876 97.7204L240.583 100.931L243.37 100.321L243.73 101.965Z" fill="white"/>
<path d="M58.668 100L59.0661 98.3757L64.7753 99.7821L65.6423 96.25L66.9652 96.5775L65.6808 101.715L58.668 100Z" fill="white"/>
<path d="M67.2403 94.3766C66.7717 94.8458 66.1829 95.1769 65.5385 95.3335C64.8811 95.4783 64.1972 95.4484 63.5549 95.2467C62.9127 95.045 62.3345 94.6786 61.8779 94.1839C61.436 93.6901 61.1403 93.0831 61.0238 92.4307C60.9106 91.7388 60.9609 91.03 61.1705 90.3609C61.3801 89.6919 61.7434 89.0811 62.2311 88.5775C62.5932 88.2317 63.0209 87.9618 63.4889 87.7839C63.9569 87.6059 64.4558 87.5235 64.9562 87.5415C65.4566 87.5594 65.9483 87.6774 66.4023 87.8884C66.8564 88.0994 67.2636 88.3993 67.5999 88.7702C68.0369 89.2673 68.3319 89.8729 68.4541 90.5234C68.5818 91.2179 68.5333 91.9333 68.3128 92.6041C68.1115 93.2764 67.7424 93.8863 67.2403 94.3766ZM67.0155 90.9601C66.9347 90.5765 66.7452 90.2242 66.4697 89.9454C66.1758 89.6487 65.814 89.4281 65.4156 89.3028C65.0172 89.1775 64.5943 89.1511 64.1834 89.2261C63.797 89.302 63.4405 89.487 63.1559 89.7592C62.864 90.0395 62.6474 90.3888 62.5262 90.7749C62.405 91.161 62.383 91.5715 62.4623 91.9683C62.5447 92.3532 62.7339 92.7071 63.0082 92.9894C63.3027 93.285 63.6648 93.5044 64.0632 93.6286C64.4615 93.7528 64.8841 93.7781 65.2944 93.7023C65.6804 93.6289 66.037 93.4461 66.322 93.1757C66.6134 92.8937 66.8296 92.5432 66.9508 92.1562C67.0719 91.7691 67.0942 91.3579 67.0155 90.9601Z" fill="white"/>
<path d="M67.0176 75.0586L72.8424 79.9714L72.2002 81.6412L67.0626 81.2751L70.9928 84.6402L70.3185 86.3035L62.7148 85.7898L63.357 84.1779L68.6873 84.576L64.6093 81.0824L65.1873 79.6439L70.569 80.0357L66.446 76.5485L67.0176 75.0586Z" fill="white"/>
<path d="M134.71 27.7684L133.791 23.5234L132.456 27.473L131.717 27.6271L128.93 24.6666L129.823 28.8216L128.288 29.1491L126.766 22.0849L128.121 21.7959L131.717 25.6491L133.38 20.6913L134.729 20.4023L136.27 27.4666L134.71 27.7684Z" fill="white"/>
<path d="M143.179 25.2553L143.34 26.5911L137.772 27.2333L136.918 20.0406L142.351 19.3984L142.512 20.7342L138.729 21.1838L138.915 22.7443L142.255 22.3461L142.409 23.6306L139.069 24.0287L139.268 25.7562L143.179 25.2553Z" fill="white"/>
<path d="M144.238 19.2492L147.526 19.1144C148.245 19.0695 148.965 19.1949 149.626 19.4804C150.219 19.7335 150.725 20.1529 151.084 20.6878C151.437 21.2539 151.636 21.9019 151.663 22.5683C151.69 23.2347 151.544 23.8967 151.238 24.4896C150.926 25.0529 150.457 25.5144 149.89 25.8189C149.25 26.1525 148.543 26.3348 147.822 26.352L144.534 26.4804L144.238 19.2492ZM147.68 24.9777C148.316 24.9853 148.93 24.7432 149.389 24.3034C149.599 24.0836 149.76 23.8215 149.86 23.5347C149.961 23.2479 150 22.9429 149.973 22.6401C149.974 22.3365 149.91 22.0361 149.788 21.7585C149.665 21.4808 149.485 21.232 149.26 21.0281C148.766 20.6272 148.134 20.4359 147.501 20.4951L145.972 20.5529L146.152 25.0483L147.68 24.9777Z" fill="white"/>
<path d="M153.123 19.0156L154.799 19.0542L154.619 26.2918H152.949L153.123 19.0156Z" fill="white"/>
<path d="M157.136 25.6155C156.858 25.2648 156.654 24.8616 156.536 24.4301C156.418 23.9986 156.388 23.5477 156.449 23.1045L156.744 19.0586L158.414 19.1806L158.125 23.1623C158.028 24.4467 158.523 25.1467 159.595 25.2237C159.816 25.2547 160.04 25.2362 160.252 25.1695C160.464 25.1029 160.659 24.9898 160.822 24.8384C161.166 24.4388 161.351 23.9269 161.342 23.3999L161.631 19.4182L163.282 19.5338L162.993 23.5797C162.989 24.0266 162.896 24.4682 162.717 24.8777C162.538 25.2873 162.278 25.6562 161.952 25.9623C161.23 26.462 160.359 26.7 159.483 26.637C158.607 26.5739 157.779 26.2135 157.136 25.6155Z" fill="white"/>
<path d="M170.736 28.0023L171.456 23.7188L168.745 26.8849L168 26.7564L166.498 22.961L165.785 27.1546L164.25 26.8913L165.477 19.75L166.819 19.9748L168.745 24.8683L172.136 20.8803L173.491 21.1115L172.29 28.2528L170.736 28.0023Z" fill="white"/>
<path d="M238.237 82.1205L231.5 84.7792L230.858 83.2187L233.626 82.1269L232.444 79.0572L229.677 80.1425L229.066 78.5884L235.803 75.9297L236.445 77.4902L233.787 78.537L234.994 81.5939L237.646 80.5471L238.237 82.1205Z" fill="white"/>
<path d="M238.863 83.9961L239.402 85.5823L232.543 87.9135L232.004 86.3273L238.863 83.9961Z" fill="white"/>
<path d="M238.039 93.1224L238.463 94.593L235.644 95.4151C235.233 95.1044 234.881 94.724 234.603 94.2912C234.32 93.848 234.104 93.3654 233.961 92.8591C233.753 92.1852 233.717 91.4696 233.858 90.7784C233.988 90.1316 234.295 89.5336 234.744 89.0508C235.216 88.5632 235.806 88.2072 236.457 88.0179C237.108 87.8287 237.797 87.8128 238.456 87.9719C239.096 88.1434 239.676 88.4878 240.133 88.9673C240.623 89.4853 240.978 90.1162 241.166 90.804C241.326 91.3694 241.376 91.9602 241.314 92.5444C241.256 93.082 241.073 93.5987 240.781 94.0536L239.529 93.2958C239.713 92.9961 239.831 92.661 239.876 92.3124C239.922 91.9638 239.893 91.6096 239.792 91.2729C239.672 90.8574 239.452 90.478 239.15 90.1683C238.873 89.8813 238.518 89.6825 238.129 89.5967C237.717 89.4999 237.287 89.5154 236.883 89.6417C236.478 89.7592 236.11 89.9806 235.817 90.2839C235.539 90.5676 235.345 90.9235 235.258 91.3114C235.169 91.7268 235.189 92.1582 235.316 92.5637C235.429 92.9991 235.65 93.399 235.958 93.7261L238.039 93.1224Z" fill="white"/>
<path d="M243.73 101.965L236.665 103.507L236.306 101.869L239.208 101.227L238.508 98.0158L235.606 98.658L235.246 97.0204L242.31 95.4727L242.67 97.1103L239.876 97.7204L240.583 100.931L243.37 100.321L243.73 101.965Z" fill="white"/>
<path d="M171.759 101.12C173.027 95.7851 169.73 90.4326 164.396 89.1646C159.061 87.8967 153.708 91.1934 152.44 96.5282C151.172 101.863 154.469 107.215 159.804 108.483C165.139 109.751 170.491 106.455 171.759 101.12Z" fill="#263238"/>
<path d="M84.1137 72.6384C84.0011 72.9498 83.9515 73.2805 83.9679 73.6113C83.9843 73.9421 84.0663 74.2663 84.2091 74.5651C84.3519 74.8639 84.5527 75.1313 84.7998 75.3518C85.047 75.5723 85.3354 75.7414 85.6485 75.8494L162.109 104.408L166.328 94.3769L87.1898 71.1485C86.5837 70.9594 85.9284 71.0083 85.3571 71.285C84.7857 71.5617 84.3411 72.0456 84.1137 72.6384Z" fill="#263238"/>
<path d="M171.759 101.12C173.027 95.7851 169.73 90.4326 164.396 89.1646C159.061 87.8967 153.708 91.1934 152.44 96.5282C151.172 101.863 154.469 107.215 159.804 108.483C165.139 109.751 170.491 106.455 171.759 101.12Z" fill="#263238"/>
<path d="M84.1137 72.6384C84.0011 72.9498 83.9515 73.2805 83.9679 73.6113C83.9843 73.9421 84.0663 74.2663 84.2091 74.5651C84.3519 74.8639 84.5527 75.1313 84.7998 75.3518C85.047 75.5723 85.3354 75.7414 85.6485 75.8494L162.109 104.408L166.328 94.3769L87.1898 71.1485C86.5837 70.9594 85.9284 71.0083 85.3571 71.285C84.7857 71.5617 84.3411 72.0456 84.1137 72.6384Z" fill="#263238"/>
<path d="M144.846 96.9315C144.824 96.5508 144.824 96.1691 144.846 95.7884C144.846 95.5829 144.885 95.3838 144.904 95.1847C144.866 95.5315 144.904 95.0627 144.949 94.9471C145.021 94.5701 145.114 94.1971 145.225 93.8297C145.283 93.637 145.347 93.4444 145.418 93.2581L145.514 93.0077C145.623 92.7187 145.45 93.1233 145.514 92.9563C145.833 92.2611 146.216 91.5968 146.657 90.9719C146.657 90.9719 146.856 90.7214 146.734 90.8691C146.612 91.0169 146.799 90.7921 146.824 90.7664C146.953 90.6123 147.081 90.4646 147.222 90.3169C147.5 90.0223 147.794 89.7436 148.102 89.482C148.401 89.1791 148.569 88.7708 148.569 88.3453C148.569 87.9198 148.401 87.5115 148.102 87.2086C147.796 86.9191 147.39 86.7578 146.969 86.7578C146.547 86.7578 146.142 86.9191 145.835 87.2086C144.45 88.4109 143.351 89.9083 142.62 91.5908C141.888 93.2733 141.543 95.0982 141.61 96.9315C141.61 97.3573 141.779 97.7657 142.08 98.0668C142.381 98.3679 142.789 98.537 143.215 98.537C143.641 98.537 144.049 98.3679 144.35 98.0668C144.651 97.7657 144.821 97.3573 144.821 96.9315H144.846Z" fill="#B56F57"/>
<path d="M144.858 95.3728C144.333 95.3051 143.812 95.2108 143.297 95.0902C142.767 95.08 142.237 95.0414 141.711 94.9746C142.21 94.7119 142.786 94.6368 143.336 94.7627C143.9 94.7745 144.441 94.9913 144.858 95.3728Z" fill="#263238"/>
<path d="M145.63 92.7694C145.151 92.5447 144.684 92.2961 144.23 92.0244C143.453 91.652 142.753 91.5235 142.766 91.4272C143.319 91.3278 143.89 91.4327 144.371 91.7226C145.232 92.1143 145.714 92.718 145.63 92.7694Z" fill="#263238"/>
<path d="M146.811 90.9048C146.728 90.9497 146.355 90.346 145.726 89.7552C145.097 89.1644 144.487 88.8048 144.525 88.7148C145.083 88.7977 145.592 89.0807 145.957 89.5112C146.632 90.1534 146.914 90.8726 146.811 90.9048Z" fill="#263238"/>
<path d="M134.456 93.2269C134.433 92.8462 134.433 92.4645 134.456 92.0837C134.456 91.8782 134.494 91.6792 134.514 91.4801C134.475 91.8269 134.514 91.3581 134.559 91.2425C134.63 90.8673 134.722 90.4964 134.835 90.1315C134.893 89.9324 134.957 89.7461 135.027 89.5535L135.124 89.303C135.233 89.014 135.06 89.425 135.124 89.2516C135.442 88.5577 135.824 87.8954 136.267 87.2737C136.267 87.2737 136.466 87.0168 136.344 87.1645C136.222 87.3122 136.408 87.0874 136.434 87.0617C136.562 86.9076 136.697 86.7599 136.832 86.6122C137.109 86.3177 137.403 86.0389 137.712 85.7773C138.012 85.4764 138.18 85.0688 138.18 84.6438C138.18 84.2189 138.012 83.8113 137.712 83.5104C137.407 83.2179 137.001 83.0547 136.578 83.0547C136.156 83.0547 135.75 83.2179 135.445 83.5104C134.059 84.7108 132.959 86.2069 132.228 87.8885C131.497 89.5701 131.152 91.3944 131.219 93.2269C131.219 93.6527 131.388 94.061 131.689 94.3621C131.99 94.6632 132.399 94.8324 132.825 94.8324C133.25 94.8324 133.659 94.6632 133.96 94.3621C134.261 94.061 134.43 93.6527 134.43 93.2269H134.456Z" fill="#B56F57"/>
<path d="M134.467 91.6669C133.942 91.5992 133.422 91.5049 132.907 91.3844C132.376 91.3741 131.847 91.3355 131.32 91.2688C131.835 91.0601 132.395 90.9872 132.946 91.0569C133.497 91.1266 134.021 91.3367 134.467 91.6669Z" fill="#263238"/>
<path d="M135.255 89.0663C134.776 88.8416 134.309 88.593 133.855 88.3213C133.078 87.9488 132.378 87.8204 132.391 87.7241C132.944 87.6246 133.515 87.7296 133.996 88.0195C134.838 88.4112 135.351 89.0149 135.255 89.0663Z" fill="#263238"/>
<path d="M136.417 87.1977C136.333 87.2427 135.954 86.639 135.332 86.0482C134.709 85.4574 134.092 85.0977 134.131 85.0078C134.687 85.0972 135.193 85.379 135.563 85.8041C136.237 86.4463 136.5 87.1656 136.417 87.1977Z" fill="#263238"/>
<path d="M148.956 98.3954C148.933 98.0147 148.933 97.633 148.956 97.2523C148.956 97.0468 148.994 96.8477 149.014 96.6487C148.975 96.9954 149.014 96.5266 149.058 96.411C149.13 96.0359 149.222 95.665 149.335 95.3C149.395 95.1074 149.459 94.9147 149.527 94.722L149.624 94.4716C149.733 94.1826 149.559 94.5936 149.624 94.4202C149.943 93.727 150.325 93.0649 150.767 92.4422C150.767 92.4101 150.966 92.1854 150.844 92.3331C150.722 92.4808 150.908 92.256 150.927 92.2367C151.062 92.0762 151.191 91.9285 151.332 91.7808C151.609 91.4862 151.903 91.2075 152.212 90.9459C152.512 90.645 152.68 90.2373 152.68 89.8124C152.68 89.3875 152.512 88.9799 152.212 88.6789C151.906 88.3861 151.499 88.2227 151.075 88.2227C150.651 88.2227 150.244 88.3861 149.938 88.6789C148.554 89.8809 147.457 91.3774 146.727 93.0588C145.997 94.7401 145.652 96.5636 145.719 98.3954C145.719 98.8213 145.888 99.2296 146.189 99.5307C146.49 99.8318 146.899 100.001 147.325 100.001C147.75 100.001 148.159 99.8318 148.46 99.5307C148.761 99.2296 148.93 98.8213 148.93 98.3954H148.956Z" fill="#B56F57"/>
<path d="M148.961 96.8376C148.436 96.7724 147.915 96.6781 147.4 96.5551C146.872 96.5446 146.344 96.506 145.82 96.4395C146.319 96.1768 146.896 96.1016 147.445 96.2275C148.008 96.2397 148.547 96.4566 148.961 96.8376Z" fill="#263238"/>
<path d="M149.757 94.2448C149.687 94.309 149.115 93.8531 148.357 93.4934C147.6 93.1338 146.88 92.9925 146.887 92.8962C147.442 92.7963 148.015 92.9013 148.499 93.1916C149.34 93.5833 149.822 94.187 149.757 94.2448Z" fill="#263238"/>
<path d="M150.921 92.3721C150.837 92.4106 150.458 91.807 149.835 91.2161C149.213 90.6253 148.596 90.2657 148.635 90.1758C149.19 90.2651 149.697 90.547 150.067 90.9721C150.767 91.6143 151.004 92.3336 150.921 92.3721Z" fill="#263238"/>
<path d="M55.2131 261.496L61.8214 270.634C61.8214 270.634 47.7572 277.499 47.8599 280.209L76.0783 277.409L75.8086 274.507C75.7241 273.625 75.4689 272.767 75.0572 271.983L66.4902 255.594L55.2131 261.496Z" fill="#263238"/>
<path d="M76.0783 277.409L75.7764 275.129L48.804 278.667C48.804 278.667 47.6031 279.342 47.8342 280.209L76.0783 277.409Z" fill="#455A64"/>
<path d="M61.6693 270.646C61.6693 270.781 62.3821 270.775 63.1078 271.154C63.8335 271.533 64.2445 272.072 64.3922 272.002C64.5399 271.931 64.2316 271.16 63.3454 270.717C62.4592 270.274 61.6307 270.524 61.6693 270.646Z" fill="white"/>
<path d="M58.6954 272.254C58.6954 272.389 59.299 272.568 59.8256 273.101C60.3522 273.635 60.5449 274.238 60.6798 274.219C60.8146 274.2 60.8275 273.416 60.166 272.761C59.5045 272.106 58.6889 272.119 58.6954 272.254Z" fill="white"/>
<path d="M57.3769 276.088C57.5054 276.088 57.6338 275.401 57.2035 274.682C56.7733 273.962 56.0989 273.725 56.054 273.847C56.009 273.969 56.4457 274.329 56.7861 274.926C57.1265 275.523 57.2421 276.088 57.3769 276.088Z" fill="white"/>
<path d="M60.5388 268.697C60.648 268.781 61.1296 268.325 61.8232 268.055C62.5168 267.785 63.2039 267.702 63.2168 267.56C63.2296 267.419 62.4783 267.239 61.6306 267.612C60.7828 267.984 60.4296 268.627 60.5388 268.697Z" fill="white"/>
<path d="M141.307 246.449L152.751 260.321L164.953 268.669C165.162 268.812 165.339 268.995 165.473 269.209C165.607 269.422 165.696 269.661 165.734 269.911C165.772 270.16 165.758 270.415 165.694 270.659C165.629 270.902 165.515 271.13 165.358 271.328C165.177 271.559 164.943 271.744 164.676 271.865C164.409 271.987 164.116 272.043 163.823 272.028C160.021 271.835 146.06 271.039 145.276 269.98C144.371 268.753 132.227 256.153 132.227 256.153L141.307 246.449Z" fill="#263238"/>
<path d="M165.378 271.341L144.5 269.074L145.001 269.652C145.433 270.15 146.026 270.48 146.677 270.583C148.417 270.847 153.24 271.489 163.798 272.08C164.102 272.095 164.405 272.036 164.68 271.908C164.956 271.779 165.195 271.584 165.378 271.341Z" fill="#455A64"/>
<path d="M157.122 268.089C157.083 267.381 157.179 266.673 157.405 266.001C157.848 264.903 158.766 264.447 158.689 264.345C158.612 264.242 158.407 264.345 158.047 264.576C157.589 264.893 157.231 265.333 157.014 265.846C156.797 266.359 156.73 266.923 156.82 267.472C156.93 267.87 157.084 268.108 157.122 268.089Z" fill="white"/>
<path d="M159.665 269.075C159.866 268.519 160.1 267.974 160.365 267.444C160.878 266.622 161.598 266.23 161.546 266.16C161.495 266.089 160.621 266.333 160.031 267.264C159.834 267.517 159.698 267.813 159.635 268.127C159.571 268.441 159.582 268.766 159.665 269.075Z" fill="white"/>
<path d="M153.334 267.317C153.456 267.317 153.533 266.064 154.246 264.748C154.959 263.431 155.928 262.629 155.858 262.532C155.787 262.436 154.637 263.129 153.893 264.568C153.39 265.39 153.192 266.363 153.334 267.317Z" fill="white"/>
<path d="M149.484 263.372C149.594 263.423 150.075 262.46 151.019 261.58C151.963 260.7 152.946 260.264 152.901 260.155C152.856 260.045 151.758 260.334 150.75 261.291C150.098 261.816 149.651 262.552 149.484 263.372Z" fill="white"/>
<path d="M146.005 259.405C146.429 258.695 146.95 258.046 147.552 257.479C148.606 256.612 149.768 256.49 149.749 256.374C149.73 256.259 149.447 256.284 148.978 256.374C148.364 256.501 147.789 256.774 147.302 257.171C146.811 257.563 146.422 258.067 146.165 258.641C145.979 259.091 145.96 259.393 146.005 259.405Z" fill="white"/>
<path d="M146.875 256.75C146.875 256.75 146.766 256.525 146.451 256.217C145.994 255.786 145.458 255.448 144.872 255.221C144.458 255.023 143.992 254.964 143.542 255.054C143.396 255.099 143.267 255.188 143.172 255.308C143.078 255.429 143.023 255.576 143.016 255.729C143.021 256.023 143.133 256.306 143.33 256.525C143.757 256.956 144.321 257.225 144.924 257.285C145.527 257.346 146.133 257.196 146.638 256.859C147.127 256.513 147.502 256.03 147.717 255.472C147.932 254.913 147.976 254.303 147.845 253.719C147.811 253.571 147.746 253.433 147.654 253.314C147.562 253.194 147.445 253.096 147.312 253.025C147.17 252.968 147.014 252.957 146.866 252.995C146.718 253.033 146.586 253.118 146.49 253.237C146.216 253.598 146.045 254.026 145.995 254.476C145.886 255.09 145.886 255.719 145.995 256.332C146.017 256.558 146.085 256.776 146.195 256.975C146.105 256.157 146.135 255.33 146.284 254.521C146.349 254.133 146.505 253.765 146.74 253.449C146.793 253.384 146.865 253.338 146.946 253.317C147.027 253.296 147.112 253.302 147.19 253.333C147.275 253.385 147.348 253.454 147.404 253.536C147.46 253.618 147.499 253.711 147.517 253.808C147.614 254.316 147.564 254.84 147.371 255.319C147.179 255.799 146.853 256.213 146.432 256.512C146.007 256.797 145.497 256.929 144.987 256.886C144.477 256.842 143.997 256.627 143.626 256.275C143.484 256.126 143.397 255.933 143.382 255.729C143.383 255.644 143.411 255.562 143.462 255.494C143.513 255.426 143.583 255.375 143.664 255.35C144.047 255.274 144.443 255.317 144.801 255.472C145.561 255.775 146.263 256.208 146.875 256.75Z" fill="white"/>
<path d="M47.4086 191.812C47.4086 191.812 22.4077 218.643 24.726 225.161C28.4701 235.719 56.6948 267.925 56.6948 267.925L71.3242 260.861L53.0985 230.825L48.0701 223.479L68.1453 204.592L69.8536 204.418C69.8536 204.418 108.386 229.246 108.758 229.04C109.131 228.835 138.479 264.31 138.479 264.31L152.261 255.666C152.261 255.666 122.585 216.768 121.968 215.849C121.352 214.931 87.4435 189.185 87.4435 189.185L77.2646 175.391L48.571 180.464L47.4086 191.812Z" fill="#455A64"/>
<path d="M67.6349 203.717C67.5836 203.75 67.1147 202.857 66.145 201.566C65.5724 200.819 64.9502 200.111 64.2826 199.447C63.4575 198.64 62.5683 197.901 61.6239 197.238C60.6685 196.588 59.6636 196.015 58.6184 195.523C57.7635 195.129 56.8814 194.796 55.979 194.528C54.4313 194.072 53.4102 193.95 53.4102 193.885C53.6466 193.869 53.8841 193.884 54.1166 193.93C54.3932 193.954 54.6679 193.997 54.9386 194.059C55.2597 194.123 55.6257 194.181 56.0111 194.296C56.9385 194.537 57.8449 194.853 58.7212 195.24C60.8822 196.193 62.8434 197.546 64.501 199.228C65.1706 199.911 65.7827 200.648 66.3313 201.431C66.5817 201.752 66.7615 202.073 66.9349 202.35C67.0859 202.583 67.2232 202.826 67.3459 203.075C67.468 203.277 67.5651 203.492 67.6349 203.717Z" fill="#263238"/>
<path d="M83.5064 190.16C83.5064 190.231 82.4853 190.526 80.9762 191.367C80.0985 191.867 79.2611 192.433 78.4716 193.063C77.5117 193.853 76.6102 194.711 75.7743 195.632C74.2761 197.309 72.9826 199.159 71.9211 201.142C71.0991 202.664 70.7138 203.666 70.6367 203.646C70.6846 203.397 70.76 203.154 70.8615 202.921C70.9386 202.69 71.0542 202.413 71.1954 202.099C71.3367 201.784 71.4908 201.418 71.6899 201.033C72.7151 198.992 74.0112 197.1 75.5431 195.407C76.3942 194.481 77.3152 193.622 78.2982 192.838C79.1049 192.213 79.9644 191.658 80.867 191.181C81.2124 190.994 81.5684 190.827 81.9331 190.68C82.2055 190.557 82.4867 190.454 82.7743 190.372C83.0106 190.277 83.2559 190.206 83.5064 190.16Z" fill="#263238"/>
<path d="M53.625 128.863C53.625 128.863 56.547 129.281 61.1067 132.074L78.7094 142.992L93.6534 129.204L100.557 135.484C100.557 135.484 85.5874 153.402 84.6177 154.301C80.9378 157.595 77.4956 155.765 77.4956 155.765L62.3975 148.463L53.625 128.863Z" fill="#455A64"/>
<path d="M72.6563 166.576L53.9554 128.84L40.7645 130.439L36.7058 129.084L22.5774 132.937L22.0957 140.226C22.0957 140.226 12.1866 150.174 12.4627 150.797L44.0012 183.408C44.0012 183.408 44.2003 195.655 44.3609 195.34C47.5719 189.2 54.5526 192.514 64.2691 195.937L65.1939 181.327L72.0077 194.107L89.1544 185.116L72.6563 166.576Z" fill="#455A64"/>
<path d="M23.4985 135.98L47.2857 153.975L38.3783 130.303L36.0536 128.023L22.4453 133.155L23.4985 135.98Z" fill="#E0E0E0"/>
<path d="M11.4065 101.846C11.3993 101.278 11.5684 100.722 11.8904 100.254C12.2124 99.7858 12.6715 99.429 13.2046 99.2326C13.5419 98.4676 14.1251 97.8373 14.8617 97.4417C15.5982 97.0461 16.4457 96.9079 17.2698 97.0491C17.5574 96.5497 17.9698 96.1336 18.4666 95.8416C18.9635 95.5496 19.5276 95.3916 20.1038 95.3832C20.6801 95.3748 21.2486 95.5162 21.7537 95.7936C22.2589 96.071 22.6833 96.4749 22.9854 96.9656C23.4407 96.5759 24.0099 96.3437 24.6079 96.3037C25.206 96.2637 25.8009 96.418 26.3041 96.7436C26.8074 97.0692 27.1919 97.5487 27.4005 98.1107C27.609 98.6726 27.6304 99.2869 27.4615 99.862C28.1144 99.7227 28.7958 99.8328 29.3715 100.171C29.9473 100.509 30.3756 101.05 30.5721 101.688C30.7687 102.326 30.7193 103.015 30.4336 103.618C30.1479 104.221 29.6466 104.696 29.0285 104.948L13.4294 104.306C12.8772 104.159 12.3849 103.843 12.022 103.402C11.6591 102.961 11.4438 102.417 11.4065 101.846Z" fill="#263238"/>
<path d="M29.5267 105.09C27.9334 102.722 25.5066 101.042 22.73 100.384C19.9533 99.7259 17.0306 100.138 14.5442 101.538L14.0304 101.827C8.68087 105.257 8.61023 111.711 12.1873 116.958L23.0533 134.772L36.3855 136.911L36.0644 128.029L35.4222 126.488C35.4222 126.488 40.2708 122.673 37.3488 117.33C35.9359 114.736 32.6029 109.656 29.5267 105.09Z" fill="#FFBF9D"/>
<path d="M35.4522 126.449C32.9862 127.838 30.173 128.489 27.3477 128.324C27.3477 128.324 31.0275 131.484 36.0623 128.023L35.4522 126.449Z" fill="#FF9A6C"/>
<path d="M30.6235 110.663C30.7369 110.859 30.7688 111.092 30.7124 111.312C30.656 111.532 30.5157 111.721 30.3216 111.838C30.2298 111.9 30.1264 111.943 30.0178 111.964C29.9091 111.985 29.7973 111.984 29.6889 111.962C29.5805 111.939 29.4778 111.895 29.3869 111.832C29.2959 111.768 29.2185 111.688 29.1592 111.594C29.0436 111.399 29.0097 111.166 29.065 110.946C29.1204 110.726 29.2604 110.536 29.4547 110.419C29.547 110.357 29.6509 110.314 29.76 110.293C29.8692 110.271 29.9815 110.272 30.0904 110.295C30.1993 110.318 30.3025 110.362 30.3941 110.425C30.4856 110.488 30.5636 110.569 30.6235 110.663Z" fill="#263238"/>
<path d="M30.032 108.565C29.9935 108.719 29.1843 108.616 28.3687 109.079C27.5531 109.541 27.1806 110.28 27.0393 110.235C26.8981 110.19 26.9623 109.978 27.1164 109.644C27.333 109.205 27.6779 108.842 28.1054 108.604C28.5297 108.362 29.0205 108.263 29.5054 108.321C29.8907 108.366 30.077 108.494 30.032 108.565Z" fill="#263238"/>
<path d="M23.7174 114.78C23.8292 114.977 23.8602 115.209 23.8039 115.429C23.7476 115.648 23.6083 115.837 23.4156 115.955C23.3232 116.017 23.2194 116.06 23.1102 116.082C23.001 116.103 22.8887 116.102 22.7798 116.079C22.6709 116.057 22.5677 116.012 22.4761 115.949C22.3846 115.886 22.3066 115.805 22.2467 115.711C22.135 115.515 22.104 115.282 22.1603 115.063C22.2166 114.844 22.3558 114.655 22.5486 114.536C22.641 114.474 22.7448 114.431 22.854 114.41C22.9631 114.389 23.0755 114.389 23.1843 114.412C23.2932 114.435 23.3965 114.479 23.488 114.542C23.5795 114.606 23.6575 114.686 23.7174 114.78Z" fill="#263238"/>
<path d="M22.1765 112.841C22.138 112.995 21.3224 112.892 20.5068 113.355C19.6912 113.817 19.3252 114.556 19.1839 114.504C19.0426 114.453 19.1068 114.254 19.2609 113.92C19.4781 113.477 19.8255 113.112 20.2563 112.873C20.6807 112.631 21.1715 112.532 21.6563 112.59C22.0096 112.642 22.1958 112.77 22.1765 112.841Z" fill="#263238"/>
<path d="M28.2661 117.381C28.6226 117.006 29.0238 116.676 29.4606 116.398C29.6532 116.257 29.833 116.103 29.7881 115.942C29.7431 115.782 29.5376 115.589 29.3 115.403L27.7908 114.163C25.6651 112.385 24.0018 110.875 24.0725 110.785C24.1431 110.696 25.9284 112.07 28.0541 113.855L29.544 115.14C29.8153 115.318 30.0153 115.586 30.1092 115.897C30.1208 115.988 30.1111 116.079 30.081 116.165C30.0509 116.251 30.0012 116.329 29.9358 116.392C29.8384 116.49 29.7282 116.574 29.6083 116.642C29.1943 116.945 28.7432 117.193 28.2661 117.381Z" fill="#263238"/>
<path d="M26.1775 119.295C26.306 119.211 26.8197 120.097 27.9179 120.303C29.0161 120.508 29.9152 119.873 29.9922 119.995C30.0693 120.117 29.8766 120.284 29.4849 120.521C28.9716 120.821 28.3682 120.928 27.783 120.823C27.2185 120.726 26.714 120.413 26.3766 119.95C26.1775 119.596 26.1197 119.327 26.1775 119.295Z" fill="#263238"/>
<path d="M21.684 110.985C21.6069 111.242 20.7785 111.133 19.8088 111.274C18.8391 111.416 18.0556 111.724 17.9271 111.499C17.8693 111.39 18.0042 111.152 18.3125 110.902C18.7192 110.593 19.1996 110.396 19.706 110.33C20.2056 110.258 20.7156 110.32 21.1831 110.51C21.5427 110.664 21.729 110.863 21.684 110.985Z" fill="#263238"/>
<path d="M28.6052 106.431C28.6052 106.701 27.963 106.874 27.2823 107.304C26.6015 107.735 26.1777 108.223 25.9272 108.12C25.8116 108.068 25.7795 107.837 25.9272 107.51C26.1068 107.09 26.4118 106.735 26.8006 106.495C27.1831 106.25 27.631 106.127 28.085 106.142C28.4125 106.174 28.6116 106.302 28.6052 106.431Z" fill="#263238"/>
<path d="M27.6426 102.938C27.6426 102.938 24.3738 100.369 22.3316 100.524C19.8591 100.678 20.2252 103.279 18.0802 103.799C15.9353 104.319 13.5848 104.441 12.4931 106.958C11.2986 109.688 12.8913 110.24 14.0858 112.668C18.9408 122.519 18.7096 126.199 15.6848 121.98C15.3509 121.517 13.7582 121.89 12.3903 119.924C10.6114 117.356 8.65915 114.145 8.18392 111.891C7.78575 109.964 8.08117 108.352 9.03805 106.194C10.5601 102.784 14.1179 100.729 16.6867 99.6052C19.2555 98.4813 25.5362 98.6483 27.6426 102.938Z" fill="#263238"/>
<path d="M15.942 121.645C15.8262 121.453 15.6727 121.287 15.4907 121.157C15.3087 121.026 15.1021 120.934 14.8835 120.886C14.6648 120.838 14.4386 120.835 14.2187 120.877C13.9988 120.919 13.7898 121.006 13.6043 121.131C12.6667 121.773 11.8832 122.961 13.097 124.984C15.2548 128.549 18.3888 125.627 18.3374 125.543C18.286 125.46 16.8603 123.128 15.942 121.645Z" fill="#FFBF9D"/>
<path d="M16.745 124.656C16.745 124.656 16.7129 124.739 16.6358 124.848C16.5249 125.002 16.3595 125.108 16.1734 125.144C15.8558 125.134 15.5464 125.041 15.276 124.874C15.0055 124.708 14.7835 124.473 14.6321 124.193C14.4371 123.893 14.312 123.553 14.2661 123.198C14.2338 123.066 14.2333 122.929 14.2646 122.797C14.2959 122.666 14.358 122.543 14.4459 122.44C14.5047 122.377 14.5846 122.336 14.6707 122.327C14.7568 122.318 14.8435 122.339 14.9147 122.389C15.0239 122.459 15.0431 122.543 15.0688 122.537C15.0945 122.53 15.1074 122.427 14.9918 122.299C14.9175 122.224 14.8202 122.177 14.7156 122.164C14.6449 122.155 14.5731 122.161 14.5047 122.181C14.4362 122.201 14.3725 122.234 14.3175 122.28C14.1883 122.397 14.0916 122.545 14.0364 122.71C13.9813 122.876 13.9697 123.053 14.0028 123.224C14.0361 123.624 14.1686 124.011 14.3881 124.348C14.5623 124.676 14.8295 124.945 15.1562 125.122C15.483 125.3 15.8547 125.376 16.2248 125.343C16.338 125.312 16.4428 125.256 16.5317 125.179C16.6205 125.103 16.6912 125.007 16.7386 124.9C16.7899 124.746 16.7642 124.656 16.745 124.656Z" fill="#FF9A6C"/>
<path d="M12.0504 114.567C12.6955 114.676 13.3575 114.623 13.9771 114.413C14.2835 114.296 14.5378 114.073 14.6934 113.784C14.849 113.495 14.8956 113.16 14.8248 112.84C14.722 112.563 14.4972 112.307 14.555 112.018C14.6128 111.729 15.0303 111.536 15.3514 111.375C15.9055 111.117 16.354 110.676 16.6217 110.127C16.8895 109.577 16.9602 108.953 16.822 108.357C17.0859 108.446 17.3735 108.433 17.6281 108.32C17.8826 108.207 18.0854 108.002 18.1963 107.747C18.4047 107.231 18.5388 106.689 18.5945 106.135C18.6227 105.858 18.719 105.592 18.8747 105.362C19.0304 105.131 19.2408 104.942 19.4871 104.812C19.7912 104.753 20.0882 104.663 20.3734 104.542C20.8293 104.228 20.7459 103.541 20.5532 103.027C20.3605 102.513 20.1037 101.929 20.367 101.447C20.6303 100.965 21.1697 100.863 21.6514 100.676C22.133 100.49 22.6339 100.073 22.5055 99.5846C22.4601 99.4581 22.3895 99.3422 22.2978 99.2439C22.2062 99.1457 22.0955 99.0671 21.9725 99.013C21.4339 98.7358 20.8176 98.6484 20.2233 98.765C19.6289 98.8815 19.0912 99.1952 18.6972 99.6552C18.1783 99.1515 17.5218 98.8127 16.8106 98.6817C16.0993 98.5506 15.3652 98.6333 14.7008 98.9191C14.0365 99.2049 13.4717 99.681 13.0777 100.288C12.6837 100.894 12.4782 101.604 12.4871 102.327C11.9059 102.196 11.3019 102.208 10.7261 102.36C10.1502 102.512 9.61945 102.801 9.1786 103.201C8.73776 103.602 8.39977 104.103 8.1932 104.661C7.98662 105.22 7.91752 105.82 7.99173 106.411C7.48264 106.547 7.02438 106.828 6.67352 107.221C6.32266 107.614 6.09456 108.101 6.01739 108.623C5.94021 109.144 6.01733 109.676 6.23922 110.154C6.46112 110.632 6.81808 111.034 7.26604 111.311C7.02492 111.669 6.87793 112.082 6.83865 112.512C6.79936 112.942 6.86905 113.375 7.04127 113.771C7.13876 113.959 7.2761 114.124 7.44373 114.253C7.61136 114.383 7.80524 114.475 8.01188 114.522C8.21851 114.569 8.43292 114.57 8.64018 114.526C8.84743 114.482 9.04254 114.393 9.21191 114.265C9.20766 114.66 9.36054 115.041 9.63694 115.324C9.91334 115.606 10.2906 115.767 10.6858 115.771C11.0809 115.776 11.4616 115.623 11.744 115.346C12.0264 115.07 12.1875 114.693 12.1917 114.297" fill="#263238"/>
<path d="M8.94531 114.467C8.94531 114.467 9.05449 114.807 9.58751 115.038C9.89946 115.159 10.2453 115.159 10.5572 115.038C10.7534 114.965 10.9315 114.85 11.0789 114.702C11.2264 114.553 11.3398 114.374 11.4114 114.178L11.2444 114.242C11.626 114.474 12.0423 114.643 12.4774 114.743C12.7701 114.81 13.0727 114.823 13.3701 114.781C13.6533 114.737 13.9194 114.617 14.1407 114.434C14.3386 114.3 14.5048 114.124 14.6279 113.919C14.7509 113.714 14.828 113.484 14.8536 113.246C14.8686 112.934 14.8228 112.623 14.7187 112.328C14.6545 112.123 14.5967 112.013 14.5838 112.02C14.571 112.026 14.5838 112.142 14.6288 112.347C14.6924 112.636 14.7097 112.933 14.6802 113.227C14.6331 113.458 14.5383 113.677 14.4019 113.869C14.2655 114.062 14.0905 114.223 13.888 114.344C13.6855 114.465 13.4601 114.542 13.226 114.571C12.992 114.6 12.7545 114.58 12.5288 114.512C12.1182 114.42 11.724 114.266 11.36 114.056L11.238 113.979L11.193 114.113C11.1345 114.285 11.0401 114.443 10.9161 114.576C10.7921 114.709 10.6413 114.814 10.4738 114.884C10.1981 114.986 9.89524 114.986 9.61962 114.884C9.36944 114.791 9.14024 114.649 8.94531 114.467Z" fill="#455A64"/>
<path d="M11.1448 102.314C11.1448 102.314 11.254 102.282 11.4531 102.263C11.7411 102.233 12.0317 102.289 12.2879 102.424L12.3714 102.469V102.372C12.4832 101.501 12.8147 100.672 13.3347 99.9639C13.6776 99.5035 14.1157 99.1224 14.6191 98.8465C15.1631 98.5416 15.7815 98.3948 16.4045 98.4226C16.893 98.4394 17.3724 98.5598 17.8109 98.7759C18.2121 98.9845 18.5595 99.2835 18.8256 99.6492L18.8962 99.752L18.9925 99.6621C19.4276 99.2492 20.0047 99.0192 20.6045 99.0199C21.078 99.0187 21.5403 99.1645 21.9274 99.4373C22.268 99.6916 22.5505 100.016 22.7558 100.388C22.7558 100.388 22.7558 100.266 22.6338 100.067C22.4768 99.7762 22.2575 99.524 21.9916 99.3281C21.5904 99.0168 21.0994 98.8433 20.5916 98.8337C20.2661 98.8276 19.9426 98.8858 19.6396 99.0048C19.3366 99.1238 19.06 99.3013 18.8256 99.5272H18.9925C18.7111 99.1249 18.3366 98.7966 17.9008 98.5704C17.4324 98.339 16.9202 98.2098 16.398 98.1914C15.725 98.1597 15.0568 98.3201 14.4714 98.6538C13.9642 98.9575 13.5266 99.3645 13.187 99.8483C12.6623 100.59 12.3472 101.46 12.2751 102.366L12.365 102.314C12.0853 102.181 11.7703 102.14 11.4659 102.199C11.2347 102.237 11.1384 102.302 11.1448 102.314Z" fill="#455A64"/>
<path d="M47.9298 155.712C47.8082 155.704 47.6889 155.676 47.5766 155.629L46.594 155.321L42.9913 154.12L31.1426 150.042L27.7711 148.86L27.6298 148.815V148.667L28.6445 144.307L28.7986 144.487L23.8408 144.673H23.7573V144.596C23.2436 143.26 22.8261 142.175 22.5243 141.385C22.3959 141.038 22.2931 140.743 22.2032 140.518C22.165 140.415 22.1349 140.31 22.1133 140.203C22.1773 140.292 22.2291 140.389 22.2674 140.492C22.3637 140.717 22.4858 140.999 22.6399 141.34C22.9674 142.13 23.417 143.202 23.9628 144.551L23.8537 144.48L28.8114 144.223H29.0041L28.9656 144.416C28.6573 145.777 28.3234 147.242 27.9766 148.789L27.8674 148.597L31.2518 149.701L43.0683 153.869L46.6325 155.154L47.6023 155.52C47.7164 155.575 47.8259 155.64 47.9298 155.712Z" fill="#263238"/>
<path d="M65.2386 181.298C65.1729 181.207 65.119 181.108 65.0781 181.003L64.6735 180.136C64.3267 179.385 63.8579 178.274 63.2285 176.925C62.4858 175.359 61.6583 173.835 60.7496 172.359C60.2359 171.524 59.6707 170.663 59.0478 169.79C58.4248 168.917 57.7634 168.056 57.0698 167.151C54.334 163.535 51.8744 160.253 50.1019 157.864L48.0147 155.039C47.79 154.73 47.6102 154.467 47.4625 154.262C47.3902 154.175 47.3317 154.077 47.2891 153.973C47.3727 154.046 47.448 154.127 47.5138 154.217L48.1175 154.962C48.6634 155.655 49.4019 156.593 50.2817 157.736C52.0992 160.086 54.5973 163.342 57.3459 166.958C58.0267 167.863 58.7074 168.737 59.3239 169.617C59.9404 170.497 60.5056 171.357 61.0193 172.186C61.9213 173.677 62.734 175.221 63.4533 176.809C64.057 178.177 64.4872 179.295 64.8019 180.065L65.1423 180.958C65.1915 181.066 65.2239 181.181 65.2386 181.298Z" fill="#263238"/>
<path d="M86.704 186.373C86.6239 186.433 86.5379 186.484 86.4472 186.527L85.6829 186.944L82.7481 188.505L78.1306 190.945L75.2664 192.454L73.7187 193.289L72.916 193.726L72.5114 193.951L72.3059 194.066L72.2095 194.124H72.1646C72.1646 194.124 72.1646 193.887 72.1004 193.925L71.9398 194.118L65.0939 181.376L65.3958 181.287C65.627 184.369 65.871 187.644 66.1215 191.016C66.2499 192.692 66.3719 194.342 66.4875 195.954V196.263L66.2114 196.115L64.7664 195.299C64.2896 195.018 63.7963 194.765 63.2894 194.542C62.3158 194.076 61.3117 193.677 60.2839 193.347C59.297 193.015 58.2885 192.751 57.2655 192.557C56.7646 192.461 56.2572 192.429 55.7628 192.365C55.2732 192.3 54.7796 192.27 54.2857 192.275C50.7462 192.134 47.2694 193.238 44.46 195.396L44.2673 195.55V195.299C44.171 191.478 44.1004 188.37 44.0426 186.199C44.0426 185.14 44.0426 184.311 44.004 183.727C44.004 183.457 44.004 183.245 44.004 183.085C43.9987 183.012 43.9987 182.939 44.004 182.866C44.0105 182.939 44.0105 183.012 44.004 183.085C44.004 183.245 44.004 183.464 44.004 183.727L44.1132 186.199C44.1903 188.37 44.3059 191.478 44.4407 195.299L44.2417 195.216C47.0855 192.99 50.6251 191.841 54.2343 191.973C54.7366 191.966 55.2387 191.993 55.7371 192.056C56.238 192.12 56.7517 192.153 57.2655 192.249C58.3031 192.443 59.3265 192.707 60.3288 193.039C61.3675 193.375 62.3841 193.776 63.3728 194.24C63.893 194.445 64.3618 194.747 64.8628 195.004L66.3527 195.82L66.1022 195.974C65.9802 194.362 65.8582 192.711 65.7297 191.035C65.4857 187.664 65.2417 184.388 65.0169 181.306L64.9591 180.535L65.3187 181.216L72.1646 194.015V194.053L71.9848 194.208C71.9462 194.24 71.8435 194.028 71.9205 193.989L71.9719 193.951L72.0747 193.893L72.2802 193.771L72.6912 193.553L73.5004 193.116L75.0545 192.3L77.9316 190.81L82.5811 188.428L85.5545 186.931L86.338 186.546C86.4517 186.472 86.5748 186.414 86.704 186.373Z" fill="#263238"/>
<path d="M49.1821 155.258C49.1388 155.16 49.1106 155.056 49.0986 154.95C49.0601 154.706 49.0023 154.404 48.9381 154.044C48.8032 153.21 48.6234 152.086 48.3986 150.718C47.9619 147.905 47.3711 144.013 46.7482 139.717C46.5876 138.625 46.4335 137.559 46.2858 136.506L46.4335 136.647L42.195 136.262H41.9766L42.0729 136.069L43.7234 132.903L43.7555 133.051L41.0133 130.989L40.3069 130.437C40.1399 130.302 40.0564 130.232 40.0628 130.219C40.1641 130.261 40.2591 130.318 40.3454 130.386L41.1161 130.906L43.9225 132.884L44.006 132.948L43.961 133.038L42.3619 136.249L42.2463 136.031L46.4913 136.384H46.6197V136.512C46.7674 137.54 46.9216 138.606 47.0821 139.691C47.7243 143.994 48.2573 147.886 48.6427 150.711C48.8161 152.079 48.9638 153.21 49.0729 154.051C49.1115 154.417 49.15 154.693 49.1757 154.963C49.191 155.061 49.1932 155.16 49.1821 155.258Z" fill="#263238"/>
<path d="M55.2241 133.422C55.3011 133.384 59.0323 140.306 63.5727 148.886C68.1131 157.466 71.6901 164.46 71.6131 164.505C71.536 164.55 67.7984 157.627 63.2644 149.04C58.7305 140.454 55.1406 133.467 55.2241 133.422Z" fill="#263238"/>
<path d="M36.332 137.391C36.332 137.346 36.332 139.664 36.332 139.664L38.188 140.441L39.3632 139.799L39.0229 137.783L36.7109 137.031L36.332 137.391Z" fill="#349F6E"/>
<path d="M38.1953 140.442L40.3017 148.688L47.2889 153.973L43.699 144.424L39.3384 139.652L38.1953 140.442Z" fill="#349F6E"/>
<path d="M36.3966 137.176C36.4714 137.867 36.4929 138.562 36.4608 139.257V140.31C36.4608 140.502 36.4608 140.695 36.4608 140.894V141.138C36.4608 141.305 36.2232 141.286 36.2425 141.273H36.2039L35.9021 141.19L33.2434 140.425C31.3617 139.879 29.6663 139.366 28.4461 138.974C27.7796 138.8 27.1337 138.554 26.5195 138.242C26.7058 138.256 26.8894 138.295 27.0654 138.357L28.536 138.743C29.7755 139.083 31.4838 139.558 33.3654 140.104L36.0113 140.881L36.3131 140.971H36.3516C36.3516 140.868 36.3131 141.119 36.3516 141.093H36.2232V140.875V140.29C36.2232 139.924 36.2553 139.571 36.2746 139.244C36.2589 138.552 36.2998 137.861 36.3966 137.176Z" fill="#263238"/>
<path d="M40.339 135.395C40.4828 136.243 40.5345 137.104 40.4932 137.963V138.169L40.3069 138.143L39.5748 137.951C38.4849 137.717 37.4219 137.373 36.4023 136.923C37.5076 137.055 38.5978 137.291 39.6583 137.629L40.3904 137.828L40.1849 137.983C40.1353 137.117 40.187 136.248 40.339 135.395Z" fill="#263238"/>
<path d="M70.6888 170.605C70.4727 170.766 70.2376 170.9 69.9888 171.004C69.5264 171.241 68.8521 171.575 68.0172 171.967C66.3475 172.763 64.0099 173.81 61.3961 174.876C58.7824 175.942 56.3805 176.841 54.6273 177.445C53.7539 177.747 53.0411 177.984 52.5466 178.139C52.2967 178.238 52.0358 178.307 51.7695 178.344C52.0048 178.212 52.2521 178.102 52.5081 178.016L54.5503 177.22C56.2714 176.578 58.6539 175.634 61.2677 174.561C63.8815 173.489 66.2255 172.487 67.9209 171.749L69.931 170.882C70.1745 170.766 70.4282 170.674 70.6888 170.605Z" fill="#263238"/>
<path d="M94.7656 130.573L102.234 124.723L105.323 128.024L99.4537 134.529L94.7656 130.573Z" fill="#FFBF9D"/>
<path d="M110.494 118.542C110.494 118.542 110.16 117.258 108.799 118.009C108.304 118.285 105.279 120.694 105.279 120.694C105.279 120.694 103.231 122.184 103.16 122.293C103.198 122.729 103.282 123.159 103.411 123.577L105.941 122.53L110.494 118.542Z" fill="#FF9A6C"/>
<path d="M48.7987 231.102C45.9751 217.293 41.3706 203.909 35.1005 191.286C33.7246 188.506 33.3419 185.339 34.016 182.312C34.6902 179.284 36.3806 176.579 38.806 174.646L150.806 86.125L153.195 89.1498L41.195 177.671C39.4608 179.052 38.2523 180.986 37.7708 183.15C37.2894 185.314 37.5641 187.578 38.5491 189.564C45.0184 202.509 49.7413 216.254 52.5941 230.441L48.7987 231.102Z" fill="#B56F57"/>
<path d="M40.7064 194.086C40.0343 194.048 39.3618 194.156 38.7349 194.401C38.1466 194.732 37.6345 195.182 37.2321 195.724C37.1936 195.724 37.2321 195.461 37.4312 195.12C37.7094 194.674 38.109 194.316 38.5833 194.089C39.0576 193.861 39.5869 193.774 40.1092 193.836C40.5073 193.92 40.7193 194.048 40.7064 194.086Z" fill="#263238"/>
<path d="M38.4213 189.295C37.749 189.265 37.0777 189.374 36.4497 189.616C35.861 189.944 35.3488 190.392 34.9469 190.933C34.9084 190.933 34.9469 190.67 35.146 190.329C35.427 189.886 35.8271 189.53 36.3007 189.303C36.7742 189.076 37.3021 188.986 37.824 189.045C38.2222 189.128 38.4341 189.257 38.4213 189.295Z" fill="#263238"/>
<path d="M52.8552 168.53C52.7342 167.869 52.4761 167.241 52.0974 166.686C51.6458 166.187 51.0916 165.79 50.4727 165.524C50.4727 165.486 50.7231 165.46 51.1149 165.582C51.6202 165.749 52.0664 166.059 52.3993 166.475C52.7233 166.886 52.9257 167.38 52.9837 167.9C52.9772 168.324 52.8938 168.536 52.8552 168.53Z" fill="#263238"/>
<path d="M56.1781 165.834C56.1019 165.159 55.8376 164.518 55.4152 163.986C54.9928 163.453 54.4294 163.05 53.7891 162.822C53.7891 162.784 54.0459 162.764 54.4313 162.887C54.9389 163.049 55.3862 163.36 55.7157 163.779C56.0443 164.188 56.2473 164.683 56.3001 165.205C56.2937 165.603 56.2166 165.841 56.1781 165.834Z" fill="#263238"/>
<path d="M63.488 160.166C63.3671 159.506 63.1089 158.878 62.7302 158.323C62.2786 157.823 61.7244 157.427 61.1055 157.161C61.1055 157.122 61.3559 157.097 61.7477 157.219C62.2413 157.392 62.6757 157.702 63.0007 158.113C63.3257 158.523 63.5281 159.017 63.5844 159.537C63.6036 159.935 63.5266 160.173 63.488 160.166Z" fill="#263238"/>
<path d="M67.0101 157.411C66.8867 156.748 66.6264 156.118 66.2459 155.561C65.7921 155.064 65.2384 154.668 64.6211 154.399C64.6211 154.361 64.878 154.335 65.2633 154.457C65.7698 154.625 66.2162 154.938 66.5477 155.356C66.8752 155.763 67.0781 156.256 67.1321 156.775C67.1257 157.186 67.0486 157.411 67.0101 157.411Z" fill="#263238"/>
<path d="M70.8123 154.423C70.7389 153.747 70.4763 153.106 70.0548 152.574C69.6333 152.041 69.07 151.638 68.4297 151.411C68.4297 151.372 68.6866 151.347 69.0719 151.469C69.5643 151.644 69.9975 151.955 70.3222 152.365C70.6469 152.775 70.8501 153.267 70.9086 153.787C70.9343 154.198 70.8508 154.423 70.8123 154.423Z" fill="#263238"/>
<path d="M74.6208 151.424C74.4999 150.764 74.2417 150.136 73.8631 149.581C73.4114 149.081 72.8572 148.685 72.2383 148.419C72.2383 148.38 72.4952 148.354 72.8805 148.476C73.3755 148.646 73.8106 148.957 74.1328 149.369C74.4577 149.78 74.6602 150.274 74.7172 150.795C74.7429 151.193 74.6594 151.431 74.6208 151.424Z" fill="#263238"/>
<path d="M78.4294 148.42C78.3085 147.76 78.0503 147.132 77.6716 146.577C77.217 146.079 76.6637 145.681 76.0469 145.408C76.0469 145.37 76.2973 145.35 76.6891 145.472C77.1958 145.637 77.6426 145.947 77.9735 146.365C78.2996 146.775 78.5023 147.27 78.5579 147.791C78.5515 148.202 78.468 148.42 78.4294 148.42Z" fill="#263238"/>
<path d="M82.1353 145.483C81.9776 144.842 81.715 144.233 81.3582 143.678C80.9421 143.168 80.432 142.743 79.8555 142.426C79.8555 142.387 80.1059 142.381 80.4656 142.529C80.9333 142.735 81.337 143.063 81.6344 143.479C81.9337 143.888 82.1278 144.364 82.1995 144.866C82.238 145.251 82.1802 145.489 82.1353 145.483Z" fill="#263238"/>
<path d="M85.6534 142.678C85.4883 142.038 85.2263 141.427 84.8764 140.867C84.4578 140.359 83.9454 139.936 83.3672 139.621C83.3672 139.583 83.6176 139.576 84.0094 139.724C84.4753 139.93 84.8769 140.259 85.1718 140.674C85.472 141.083 85.6662 141.559 85.7369 142.061C85.7562 142.447 85.692 142.678 85.6534 142.678Z" fill="#263238"/>
<path d="M89.315 139.725C89.1567 139.083 88.8942 138.471 88.5379 137.914C88.1228 137.405 87.6124 136.982 87.0352 136.668C87.0352 136.629 87.2856 136.623 87.6774 136.771C88.1455 136.974 88.548 137.303 88.8398 137.721C89.1442 138.128 89.3408 138.605 89.4113 139.108C89.4177 139.494 89.3599 139.725 89.315 139.725Z" fill="#263238"/>
<path d="M93.0831 136.858C92.918 136.218 92.656 135.607 92.3061 135.047C91.8894 134.537 91.3767 134.113 90.7969 133.801C90.7969 133.762 91.0538 133.756 91.4391 133.904C91.9062 134.108 92.3082 134.437 92.6015 134.854C92.9072 135.259 93.1019 135.738 93.1666 136.241C93.1859 136.652 93.1216 136.89 93.0831 136.858Z" fill="#263238"/>
<path d="M97.0519 133.647C96.8869 133.009 96.6248 132.4 96.2748 131.842C95.858 131.331 95.3453 130.905 94.7656 130.59C94.7656 130.551 95.0161 130.545 95.4078 130.693C95.8724 130.901 96.2735 131.229 96.5702 131.643C96.8721 132.051 97.0665 132.528 97.1354 133.03C97.1546 133.396 97.0904 133.647 97.0519 133.647Z" fill="#263238"/>
<path d="M101.014 130.381C100.857 129.738 100.595 129.126 100.237 128.57C99.8219 128.05 99.312 127.614 98.7344 127.285C98.7344 127.247 98.9848 127.24 99.3766 127.388C99.8433 127.593 100.245 127.922 100.539 128.338C100.842 128.746 101.038 129.223 101.111 129.726C101.117 130.143 101.059 130.381 101.014 130.381Z" fill="#263238"/>
<path d="M104.985 127.124C104.822 126.48 104.56 125.865 104.208 125.301C103.792 124.79 103.279 124.367 102.699 124.055C102.699 124.016 102.956 124.01 103.341 124.157C103.807 124.364 104.209 124.692 104.504 125.108C104.81 125.513 105.004 125.991 105.069 126.495C105.088 126.893 105.024 127.124 104.985 127.124Z" fill="#263238"/>
<path d="M114.423 119.835C114.259 119.195 113.997 118.584 113.646 118.024C113.229 117.514 112.717 117.09 112.137 116.778C112.137 116.733 112.394 116.727 112.779 116.881C113.246 117.083 113.648 117.409 113.941 117.825C114.245 118.231 114.44 118.709 114.506 119.212C114.526 119.597 114.461 119.835 114.423 119.835Z" fill="#263238"/>
<path d="M118.381 116.598C118.224 115.956 117.962 115.344 117.604 114.787C117.186 114.279 116.676 113.855 116.102 113.535C116.102 113.496 116.352 113.49 116.712 113.644C117.178 113.846 117.581 114.173 117.874 114.588C118.178 114.995 118.372 115.472 118.439 115.975C118.484 116.361 118.42 116.598 118.381 116.598Z" fill="#263238"/>
<path d="M122.36 113.534C122.196 112.896 121.933 112.288 121.583 111.73C121.168 111.208 120.656 110.771 120.074 110.445C120.074 110.407 120.331 110.4 120.716 110.548C121.182 110.755 121.584 111.083 121.879 111.499C122.183 111.905 122.378 112.382 122.444 112.886C122.463 113.303 122.399 113.541 122.36 113.534Z" fill="#263238"/>
<path d="M126.307 110.476C126.149 109.835 125.887 109.226 125.53 108.671C125.119 108.147 124.609 107.711 124.027 107.387C124.027 107.348 124.278 107.342 124.637 107.489C125.106 107.692 125.508 108.021 125.8 108.44C126.111 108.864 126.306 109.362 126.365 109.885C126.41 110.245 126.365 110.482 126.307 110.476Z" fill="#263238"/>
<path d="M130.278 107.42C130.113 106.78 129.851 106.17 129.501 105.609C129.085 105.099 128.572 104.676 127.992 104.363C127.992 104.325 128.249 104.318 128.634 104.466C129.1 104.673 129.502 105.001 129.797 105.416C130.102 105.822 130.297 106.3 130.362 106.804C130.381 107.189 130.317 107.42 130.278 107.42Z" fill="#263238"/>
<path d="M134.069 104.049C133.912 103.406 133.649 102.794 133.292 102.238C132.879 101.716 132.368 101.28 131.789 100.953C131.789 100.915 132.04 100.908 132.399 101.056C132.866 101.261 133.268 101.59 133.562 102.006C133.864 102.414 134.061 102.891 134.133 103.393C134.184 103.811 134.127 104.049 134.069 104.049Z" fill="#263238"/>
<path d="M138.139 101.009C137.982 100.367 137.72 99.755 137.362 99.1985C136.947 98.6792 136.437 98.2434 135.859 97.9141C135.859 97.8755 136.11 97.8691 136.502 98.0168C136.968 98.2219 137.37 98.5505 137.664 98.9673C137.967 99.3751 138.163 99.8518 138.236 100.354C138.242 100.772 138.184 101.009 138.139 101.009Z" fill="#263238"/>
<path d="M142.122 97.9475C141.957 97.3097 141.695 96.701 141.345 96.1429C140.926 95.6336 140.414 95.2086 139.836 94.8906C139.836 94.8521 140.086 94.8457 140.478 94.9934C140.943 95.202 141.344 95.5299 141.641 95.9438C141.942 96.3514 142.137 96.8285 142.206 97.331C142.225 97.7163 142.161 97.9539 142.122 97.9475Z" fill="#263238"/>
<path d="M146.15 94.7282C145.985 94.0882 145.723 93.4773 145.372 92.9172C144.954 92.3985 144.442 91.9628 143.863 91.6328C143.863 91.5943 144.114 91.5879 144.505 91.7356C144.97 91.9442 145.371 92.2721 145.668 92.686C145.966 93.0957 146.16 93.5718 146.233 94.0732C146.272 94.4713 146.188 94.7282 146.15 94.7282Z" fill="#263238"/>
<path d="M59.9529 162.822C59.8795 162.147 59.6169 161.506 59.1955 160.973C58.774 160.441 58.2107 160.037 57.5703 159.811C57.5703 159.772 57.8208 159.753 58.2125 159.875C58.7076 160.045 59.1426 160.355 59.4648 160.767C59.7909 161.178 59.9936 161.672 60.0492 162.193C60.0749 162.591 59.9914 162.829 59.9529 162.822Z" fill="#263238"/>
<path d="M42.5384 198.1C41.8661 198.07 41.1949 198.179 40.5668 198.421C39.9796 198.75 39.4677 199.199 39.0641 199.737C39.0255 199.737 39.0641 199.48 39.2696 199.134C39.5482 198.69 39.9499 198.338 40.4255 198.119C40.8959 197.891 41.4229 197.806 41.9411 197.875C42.3393 197.933 42.5512 198.068 42.5384 198.1Z" fill="#263238"/>
<path d="M44.4915 202.715C43.8193 202.677 43.1469 202.784 42.5199 203.029C41.9317 203.36 41.4196 203.811 41.0172 204.352C40.9787 204.352 41.0172 204.089 41.2227 203.71C41.5014 203.267 41.903 202.914 42.3787 202.695C42.8522 202.47 43.3804 202.386 43.9007 202.451C44.2924 202.548 44.5043 202.676 44.4915 202.715Z" fill="#263238"/>
<path d="M46.2975 207.808C45.628 207.739 44.9515 207.813 44.3131 208.026C43.7105 208.326 43.1768 208.748 42.7461 209.266C42.7461 209.266 42.7461 209.002 42.9837 208.675C43.2751 208.249 43.6832 207.917 44.1589 207.718C44.6439 207.516 45.1768 207.458 45.6938 207.551C46.0855 207.628 46.3167 207.769 46.2975 207.808Z" fill="#263238"/>
<path d="M47.9706 212.542C47.3008 212.481 46.6255 212.557 45.9862 212.767C45.3808 213.062 44.8463 213.485 44.4193 214.006C44.3807 214.006 44.4193 213.743 44.6505 213.409C44.9537 212.982 45.3725 212.65 45.8578 212.452C46.3406 212.25 46.8713 212.192 47.3862 212.285C47.778 212.369 48.0156 212.51 47.9706 212.542Z" fill="#263238"/>
<path d="M49.4332 217.588C48.7748 217.448 48.0944 217.448 47.436 217.588C46.8077 217.829 46.2368 218.199 45.7598 218.674C45.7213 218.674 45.7919 218.417 46.0488 218.108C46.3933 217.715 46.8413 217.425 47.3419 217.273C47.8424 217.121 48.3756 217.112 48.8809 217.248C49.2598 217.396 49.4525 217.556 49.4332 217.588Z" fill="#263238"/>
<path d="M50.9791 223.243C50.3321 223.059 49.6529 223.017 48.9883 223.121C48.3435 223.314 47.7463 223.64 47.235 224.078C47.1965 224.078 47.2864 223.821 47.5626 223.532C47.9318 223.161 48.4 222.905 48.9112 222.793C49.4237 222.679 49.9583 222.712 50.4525 222.89C50.825 223.031 51.0048 223.211 50.9791 223.243Z" fill="#263238"/>
<path d="M52.4196 229.472C51.7726 229.288 51.0934 229.246 50.4287 229.35C49.7771 229.541 49.1731 229.867 48.6562 230.307C48.6562 230.307 48.7076 230.05 48.9838 229.761C49.3561 229.393 49.8249 229.137 50.3362 229.023C50.8474 228.91 51.3804 228.943 51.8737 229.119C52.2654 229.26 52.4452 229.44 52.4196 229.472Z" fill="#263238"/>
<path d="M109.147 118.441C109.661 118.212 110.223 118.115 110.784 118.159C111.345 118.202 111.886 118.385 112.358 118.691C113.041 119.146 113.63 119.728 114.092 120.406C114.198 120.637 114.221 120.898 114.157 121.143C114.092 121.389 113.944 121.605 113.739 121.755C113 122.313 111.028 122.262 111.028 122.262L111.902 121.53L110.508 120.245C110.2 120.321 109.875 120.301 109.578 120.186C109.282 120.071 109.028 119.867 108.851 119.603C108.383 118.672 109.147 118.441 109.147 118.441Z" fill="#FFBF9D"/>
<path d="M103.354 121.954C103.802 121.393 104.452 121.031 105.165 120.945C105.984 121.003 106.79 121.176 107.56 121.459C107.56 121.459 109.924 124.028 110.129 124.548C110.335 125.068 109.191 125.903 109.191 125.903C109.191 125.903 109.493 127.239 108.96 127.939C108.427 128.639 103.508 131.792 103.508 131.792L100.207 130.81C100.207 130.81 103.45 127.027 104.298 126.353C105.146 125.678 104.78 125.987 104.78 125.987L104.529 125.299C104.422 125.004 104.245 124.74 104.013 124.527C103.782 124.315 103.503 124.161 103.2 124.079L102.821 123.977L101.19 125.261C101.086 125.01 101.048 124.737 101.079 124.467C101.111 124.197 101.211 123.94 101.369 123.72C101.944 123.04 102.612 122.446 103.354 121.954Z" fill="#FFBF9D"/>
<path d="M106.899 122.455C106.899 122.455 105.942 121.113 106.674 120.612C107.406 120.111 108.126 120.471 108.903 120.702C109.341 120.849 109.741 121.09 110.074 121.41C110.407 121.73 110.665 122.12 110.829 122.552C111.028 123.354 111.24 124.478 110.116 124.549C108.993 124.619 106.899 122.455 106.899 122.455Z" fill="#FFBF9D"/>
<path d="M103.172 122.128C103.498 121.86 103.912 121.72 104.334 121.736C105.348 121.705 106.335 122.061 107.096 122.732C107.861 123.372 108.473 124.175 108.887 125.082C109.086 125.442 109.202 125.841 109.228 126.251C109.025 125.906 108.841 125.55 108.676 125.185C108.217 124.351 107.61 123.609 106.884 122.995C106.174 122.362 105.265 121.997 104.315 121.961C103.93 121.984 103.548 122.04 103.172 122.128Z" fill="#FF9A6C"/>
<path d="M110.121 124.831C110.064 124.831 110.044 124.491 109.89 123.977C109.693 123.317 109.338 122.716 108.856 122.224C108.309 121.799 107.682 121.487 107.013 121.306C106.722 121.245 106.439 121.148 106.172 121.017C106.472 120.965 106.78 120.984 107.071 121.074C107.806 121.205 108.497 121.516 109.081 121.98C109.611 122.505 109.974 123.175 110.121 123.907C110.215 124.208 110.215 124.53 110.121 124.831Z" fill="#FF9A6C"/>
<path d="M97.6367 132.879C97.6367 132.879 101.561 133.232 103.673 131.698C105.786 130.163 102.967 127.703 102.967 127.703L97.6367 132.879Z" fill="#FFBF9D"/>
<path d="M105.361 127.031C105.278 127.076 105.072 126.857 104.905 126.543C104.738 126.228 104.661 125.945 104.745 125.9C104.828 125.855 105.027 126.074 105.201 126.382C105.374 126.69 105.438 126.986 105.361 127.031Z" fill="#FF9A6C"/>
<path d="M12.4796 150.77C12.4796 150.77 7.55388 178.943 7.92636 183.914C8.35021 189.559 10.675 189.918 13.8796 190.207C16.8658 190.47 39.4649 187.311 39.4649 187.311L36.8383 176.862L21.9264 177.62L25.5869 162.252L12.4796 150.77Z" fill="#455A64"/>
<path d="M44.2425 183.629C44.1783 183.694 37.8526 177.207 30.1141 169.135C22.3755 161.062 16.1526 154.467 16.2233 154.403C16.2939 154.339 22.6453 160.825 30.3517 168.904C38.0581 176.983 44.3132 183.565 44.2425 183.629Z" fill="#263238"/>
<path d="M38.3794 176.994C38.3794 176.994 39.2464 172.371 41.2629 170.855C43.2794 169.339 48.6033 167.605 48.6033 167.605C48.6033 167.605 48.7638 168.209 48.006 169.307C47.2482 170.405 44.6601 171.818 44.6601 171.818L50.3629 170.727L55.5455 167.927C55.6384 167.872 55.7472 167.851 55.8536 167.868C55.9601 167.884 56.0576 167.937 56.1299 168.016C56.406 168.331 56.6501 168.922 55.7189 169.75C54.2996 171.035 50.0803 173.905 50.0803 173.905C50.0803 173.905 50.5106 178.716 48.9757 179.48C47.4409 180.244 41.2693 182.28 41.2693 182.28L38.3794 183.211L36.9023 177.091L38.3794 176.994Z" fill="#FFBF9D"/>
<path d="M15.6451 182.301C15.6364 181.858 15.7309 181.418 15.9212 181.017C16.3213 179.994 17.0167 179.113 17.919 178.486C18.8214 177.859 19.8897 177.515 20.9882 177.498C21.4389 177.453 21.8937 177.521 22.3111 177.697C22.3111 177.748 21.7974 177.665 21.0267 177.735C19.989 177.815 18.9913 178.169 18.1366 178.763C17.282 179.357 16.6014 180.168 16.1653 181.113C15.7928 181.813 15.7029 182.308 15.6451 182.301Z" fill="#263238"/>
</g>
<defs>
<clipPath id="clip0_4321_46497">
<rect width="292.202" height="280" fill="white" transform="translate(0.796875)"/>
</clipPath>
</defs>
</svg>
