<svg width="501" height="418" viewBox="0 0 501 418" fill="none" xmlns="http://www.w3.org/2000/svg">
<g clip-path="url(#clip0_4061_23723)">
<path d="M170.24 27.8105H59.0801V222.291H170.24V27.8105Z" fill="#FAFAFA"/>
<path d="M93.6999 224.16C93.6999 224.16 81.4999 136.66 75.1499 127.05C75.1499 127.05 111.56 99.6996 112.68 25.5996H57.4199V224.16H93.6999Z" fill="#EBEBEB"/>
<path d="M135.589 223.771C135.589 223.771 147.769 136.271 154.149 126.661C154.149 126.661 117.729 99.3209 116.619 25.2109H171.879V223.771H135.589Z" fill="#EBEBEB"/>
<path d="M173.16 20.4102H48.7695V228.72H178.31V20.4102H173.16ZM81.4195 128.64V178.17H59.0795V128.64H81.4195ZM59.0795 125.05V73.7802H81.4195V125.05H59.0795ZM115.43 125.05V73.7802H143.37V125.05H115.43ZM143.37 128.64V178.17H115.43V128.64H143.37ZM82.3695 125.05V73.7802H111.81V125.05H82.3695ZM111.81 128.64V178.17H82.4095V128.64H111.81ZM82.4095 72.9002V27.8102H111.85V72.9002H82.4095ZM111.85 179.06V222.31H82.4095V179.06H111.85ZM115.43 179.06H143.37V222.31H115.43V179.06ZM115.43 72.9002V27.8102H143.37V72.9002H115.43ZM144.37 128.64H168.01V178.17H144.37V128.64ZM144.37 125.05V73.7802H168.01V125.05H144.37ZM168.01 72.9002H144.37V27.8102H168.01V72.9002ZM81.4195 27.8102V72.9002H59.0795V27.8102H81.4195ZM59.0795 179.06H81.4195V222.31H59.0795V179.06ZM144.37 222.31V179.06H168.01V222.31H144.37Z" fill="#E0E0E0"/>
<path d="M293.924 27.8105H405.084V222.291H293.924V27.8105Z" fill="#FAFAFA"/>
<path d="M370.454 224.16C370.454 224.16 382.634 136.66 389.014 127.05C389.014 127.05 352.594 99.6996 351.484 25.5996H406.744V224.16H370.454Z" fill="#EBEBEB"/>
<path d="M328.563 223.771C328.563 223.771 316.393 136.271 310.013 126.661C310.013 126.661 346.423 99.3209 347.543 25.2109H292.283V223.771H328.563Z" fill="#EBEBEB"/>
<path d="M290.991 20.4102H415.381V228.72H285.841V20.4102H290.991ZM382.731 128.64V178.17H405.081V128.64H382.731ZM405.081 125.05V73.7802H382.731V125.05H405.081ZM348.731 125.05V73.7802H320.731V125.05H348.731ZM320.731 128.64V178.17H348.731V128.64H320.731ZM381.731 125.05V73.7802H352.301V125.05H381.731ZM352.301 128.64V178.17H381.741V128.64H352.301ZM381.741 72.9002V27.8102H352.311V72.9002H381.741ZM352.311 179.06V222.31H381.741V179.06H352.311ZM348.731 179.06H320.731V222.31H348.731V179.06ZM348.731 72.9002V27.8102H320.731V72.9002H348.731ZM319.791 128.64H296.151V178.17H319.791V128.64ZM319.791 125.05V73.7802H296.151V125.05H319.791ZM296.151 72.9002H319.791V27.8102H296.151V72.9002ZM382.731 27.8102V72.9002H405.081V27.8102H382.731ZM405.081 179.06H382.731V222.31H405.081V179.06ZM319.791 222.31V179.06H296.151V222.31H319.791Z" fill="#E0E0E0"/>
<path d="M235.389 74.75H208.359V108.87H235.389V74.75Z" fill="#EBEBEB"/>
<path d="M223.92 108.1H220.17V109.01H223.92V108.1Z" fill="#E0E0E0"/>
<path d="M222.74 86.4902L217.76 87.2202L215.91 91.9002L219.03 95.8402L224 95.1102L225.86 90.4402L222.74 86.4902Z" fill="#E0E0E0"/>
<path d="M225.07 89.5098L220.09 90.2398L218.23 94.9198L221.35 98.8598L226.33 98.1398L228.19 93.4598L225.07 89.5098Z" fill="#FAFAFA"/>
<path d="M224.449 74.2793H220.699V75.0593H224.449V74.2793Z" fill="#E0E0E0"/>
<path d="M444.903 29.1992H490.033V86.1692H444.903V29.1992Z" fill="#EBEBEB"/>
<path d="M281.83 84.9004H275.57V86.4204H281.83V84.9004Z" fill="#E0E0E0"/>
<path d="M279.859 48.8203L271.539 50.0303L268.439 57.8403L273.649 64.4303L281.959 63.2203L285.059 55.4103L279.859 48.8203Z" fill="#E0E0E0"/>
<path d="M283.74 53.8594L275.43 55.0794L272.32 62.8894L277.54 69.4794L285.85 68.2594L288.95 60.4594L283.74 53.8594Z" fill="#FAFAFA"/>
<path d="M282.709 28.4297H276.449V29.7297H282.709V28.4297Z" fill="#E0E0E0"/>
<path d="M225.359 266.781C219.239 267.781 216.509 275.281 217.039 281.461C217.569 287.641 220.119 293.671 219.439 299.831C218.569 307.661 212.659 314.271 211.969 322.111C211.159 331.361 217.699 339.561 219.649 348.641C220.599 353.051 220.469 357.721 222.109 361.931C223.508 365.516 226.107 368.504 229.464 370.386C232.82 372.268 236.725 372.927 240.513 372.251C244.301 371.574 247.737 369.605 250.235 366.678C252.732 363.751 254.137 360.048 254.209 356.201C254.339 349.101 249.959 342.411 250.489 335.331C250.879 330.091 253.949 325.131 253.299 319.921C252.509 313.731 246.769 309.331 244.749 303.421C242.729 297.511 244.669 291.001 243.969 284.791C242.709 273.651 236.539 265.881 225.359 266.791" fill="#F5F5F5"/>
<path d="M194.11 320.711C193.11 331.031 197.63 343.171 202.94 352.081C208.318 361.05 216.413 368.072 226.05 372.131C227.12 372.581 228.47 372.961 229.38 372.231C229.701 371.875 229.942 371.454 230.087 370.997C230.232 370.54 230.277 370.057 230.22 369.581C230.291 358.627 226.811 347.944 220.302 339.134C213.792 330.324 204.602 323.86 194.11 320.711Z" fill="#EBEBEB"/>
<path d="M239.069 393.71C238.946 393.533 238.846 393.342 238.769 393.14C238.579 392.69 238.339 392.14 238.039 391.45C237.419 389.97 236.489 387.85 235.309 385.25C232.23 378.468 228.809 371.846 225.059 365.41C221.295 358.983 217.206 352.752 212.809 346.74C211.119 344.44 209.719 342.59 208.739 341.32L207.629 339.85C207.489 339.69 207.371 339.512 207.279 339.32C207.279 339.32 207.449 339.46 207.719 339.78L208.919 341.18C209.919 342.4 211.399 344.18 213.139 346.5C217.647 352.452 221.798 358.667 225.569 365.11C229.332 371.572 232.712 378.251 235.689 385.11C236.819 387.74 237.689 389.89 238.249 391.39C238.509 392.09 238.719 392.67 238.879 393.12C238.964 393.309 239.028 393.507 239.069 393.71Z" fill="#E0E0E0"/>
<path d="M232.42 295.33C232.486 295.66 232.526 295.994 232.54 296.33C232.59 297.03 232.66 297.98 232.74 299.17C232.9 301.7 233.13 305.25 233.42 309.63C233.97 318.46 234.76 330.63 235.7 344.12C236.64 357.61 237.58 369.78 238.27 378.6C238.6 382.97 238.88 386.53 239.07 389.05C239.15 390.24 239.21 391.19 239.26 391.89C239.286 392.223 239.286 392.557 239.26 392.89C239.185 392.561 239.135 392.227 239.11 391.89C239.04 391.2 238.94 390.25 238.81 389.06C238.57 386.54 238.24 382.99 237.81 378.63C237.02 369.81 236.02 357.63 235.07 344.15C234.12 330.67 233.4 318.48 232.95 309.64C232.75 305.26 232.58 301.7 232.46 299.17C232.46 297.98 232.39 297.03 232.37 296.33C232.36 295.996 232.377 295.662 232.42 295.33Z" fill="#E0E0E0"/>
<path d="M222.93 379H248.78V398C248.78 401.291 247.472 404.448 245.145 406.775C242.818 409.103 239.661 410.41 236.37 410.41C233.193 410.409 230.138 409.191 227.833 407.005C225.528 404.819 224.149 401.832 223.98 398.66L222.93 379Z" fill="#E0E0E0"/>
<path d="M-7.5 410.731C-7.5 410.871 93.69 410.991 218.5 410.991C343.31 410.991 444.5 410.871 444.5 410.731C444.5 410.591 343.33 410.471 218.5 410.471C93.67 410.471 -7.5 410.591 -7.5 410.731Z" fill="#263238"/>
<path d="M413.86 199.421L417.86 198.591C421.43 197.521 423.45 197.061 424.28 195.891C425.38 194.321 423.28 193.421 423.28 193.421C423.28 193.421 425.74 191.991 425.17 190.421C425.03 190.11 424.795 189.851 424.498 189.682C424.201 189.513 423.859 189.442 423.52 189.481C423.52 189.481 425.66 188.111 425.93 187.051C426.3 185.611 424.52 185.231 424.52 185.231C427.3 182.651 426.63 180.771 425.86 180.731C425.09 180.691 422.86 182.301 422.86 182.301C420.86 183.301 415.54 186.171 417.03 182.611C418.52 179.051 418.33 175.761 417.66 174.901C417.483 174.718 417.252 174.595 417.002 174.55C416.751 174.505 416.492 174.541 416.263 174.652C416.033 174.763 415.845 174.943 415.724 175.167C415.603 175.392 415.556 175.648 415.59 175.901C415.501 177.201 415.235 178.483 414.8 179.711C414.484 180.709 414 181.645 413.37 182.481C412.63 183.481 411.97 184.251 411.37 184.911L408.48 189.051L413.86 199.421Z" fill="#FFBE9D"/>
<path d="M429.259 406.731L425.819 399.471L412.179 405.831L417.099 416.501L417.969 416.161C421.829 414.611 437.489 408.031 439.649 406.091C442.059 403.931 429.259 406.731 429.259 406.731Z" fill="#349F6E"/>
<g opacity="0.3">
<path d="M422 414.08C421.259 413.025 420.156 412.28 418.9 411.99C417.665 411.683 416.36 411.858 415.25 412.48L417.03 416.29L422 414.08Z" fill="white"/>
</g>
<g opacity="0.3">
<path d="M435.61 405.559C435.61 405.559 440.21 404.839 440.02 405.749C439.83 406.659 424.25 413.899 417.1 416.499L416.98 416.179L435.22 407.879C435.22 407.879 434.83 405.999 435.61 405.559Z" fill="white"/>
</g>
<path d="M416.77 416.27L417.01 416.19L417.7 415.92L420.23 414.87C422.36 413.97 425.29 412.69 428.48 411.2C431.67 409.71 434.55 408.31 436.61 407.26L439.04 406L439.69 405.65L439.92 405.52C439.835 405.541 439.755 405.575 439.68 405.62L439.01 405.94L436.55 407.15C434.48 408.15 431.6 409.55 428.41 411.04C425.22 412.53 422.3 413.82 420.18 414.75L417.68 415.85L417 416.15L416.77 416.27Z" fill="#263238"/>
<path d="M435.311 408.09C435.234 407.63 435.207 407.164 435.231 406.7C435.313 406.236 435.447 405.783 435.631 405.35C435.311 405.723 435.11 406.183 435.053 406.671C434.996 407.159 435.086 407.653 435.311 408.09Z" fill="#263238"/>
<path d="M430.38 407.931C430.497 407.705 430.562 407.455 430.57 407.201C430.63 406.958 430.63 406.704 430.57 406.461C430.57 406.461 430.44 406.771 430.39 407.181C430.325 407.426 430.321 407.684 430.38 407.931Z" fill="#263238"/>
<path d="M428.96 407.86C429.01 407.86 429.16 407.63 429.3 407.31C429.44 406.99 429.51 406.72 429.46 406.7C429.41 406.68 429.26 406.92 429.13 407.24C429.021 407.429 428.963 407.642 428.96 407.86Z" fill="#263238"/>
<path d="M427.67 406.89C427.67 406.94 428.02 406.83 428.42 406.65C428.672 406.566 428.904 406.43 429.1 406.25C429.1 406.2 428.74 406.31 428.35 406.49C428.097 406.574 427.866 406.711 427.67 406.89Z" fill="#263238"/>
<path d="M427 406.101C427.31 406.147 427.628 406.098 427.91 405.961C428.207 405.878 428.472 405.707 428.67 405.471C428.384 405.551 428.106 405.658 427.84 405.791C427.552 405.87 427.271 405.974 427 406.101Z" fill="#263238"/>
<path d="M430.25 406.52C430.561 406.433 430.855 406.295 431.12 406.11C431.42 405.925 431.702 405.71 431.96 405.47C432.117 405.329 432.258 405.172 432.38 405C432.455 404.892 432.488 404.76 432.47 404.63C432.457 404.558 432.422 404.491 432.37 404.44C432.318 404.388 432.252 404.353 432.18 404.34C431.916 404.337 431.654 404.393 431.414 404.503C431.174 404.613 430.961 404.774 430.79 404.975C430.619 405.177 430.495 405.413 430.426 405.668C430.357 405.923 430.344 406.19 430.39 406.45C430.402 406.539 430.432 406.624 430.48 406.7C430.447 406.386 430.464 406.069 430.53 405.76C430.623 405.441 430.803 405.153 431.05 404.93C431.193 404.792 431.362 404.684 431.548 404.611C431.733 404.539 431.931 404.505 432.13 404.51C432.32 404.51 432.34 404.74 432.23 404.91C432.113 405.071 431.979 405.218 431.83 405.35C431.583 405.586 431.319 405.803 431.04 406C430.57 406.34 430.24 406.49 430.25 406.52Z" fill="#263238"/>
<path d="M430.499 406.459C430.516 406.224 430.449 405.99 430.309 405.799C430.175 405.585 429.994 405.404 429.779 405.269C429.643 405.176 429.486 405.119 429.322 405.101C429.158 405.084 428.992 405.107 428.839 405.169C428.761 405.231 428.709 405.32 428.694 405.418C428.679 405.517 428.703 405.618 428.759 405.699C428.843 405.83 428.956 405.94 429.089 406.019C429.293 406.162 429.515 406.276 429.749 406.359C429.96 406.453 430.19 406.495 430.419 406.479C430.419 406.479 430.17 406.399 429.8 406.239C429.582 406.145 429.377 406.024 429.189 405.879C428.979 405.749 428.739 405.459 428.939 405.319C429.139 405.179 429.479 405.319 429.689 405.419C429.892 405.532 430.069 405.685 430.209 405.869C430.318 406.06 430.414 406.257 430.499 406.459Z" fill="#263238"/>
<path d="M415.31 412.409C415.31 412.409 415.68 412.189 416.31 411.979C417.156 411.7 418.062 411.659 418.93 411.859C419.792 412.082 420.579 412.531 421.21 413.159C421.69 413.649 421.89 414.029 421.92 414.019C421.896 413.918 421.851 413.823 421.79 413.739C421.653 413.498 421.488 413.273 421.3 413.069C420.678 412.386 419.867 411.902 418.97 411.679C418.072 411.468 417.132 411.531 416.27 411.859C416.011 411.953 415.763 412.074 415.53 412.219C415.38 412.329 415.3 412.399 415.31 412.409Z" fill="#263238"/>
<path d="M414.079 406.08C414.412 407.054 414.806 408.006 415.259 408.93C415.658 409.885 416.113 410.817 416.619 411.72C416.276 410.745 415.879 409.791 415.429 408.86C415.032 407.909 414.581 406.981 414.079 406.08Z" fill="#263238"/>
<path d="M423.1 411.999C423.819 411.84 424.518 411.595 425.18 411.269C425.862 410.986 426.506 410.62 427.1 410.179C427.1 410.129 426.21 410.599 425.1 411.099C423.99 411.599 423.08 411.909 423.1 411.999Z" fill="#263238"/>
<path d="M420.38 413.199C420.38 413.199 420.54 413.349 420.73 413.509C420.92 413.669 421.05 413.829 421.09 413.809C421.13 413.789 421.09 413.559 420.85 413.369C420.61 413.179 420.38 413.149 420.38 413.199Z" fill="#263238"/>
<path d="M418.83 412.409C418.83 412.409 418.97 412.559 419.17 412.639C419.37 412.719 419.56 412.739 419.58 412.689C419.6 412.639 419.44 412.539 419.24 412.469C419.04 412.399 418.85 412.359 418.83 412.409Z" fill="#263238"/>
<path d="M417.12 412.51C417.12 412.51 417.33 412.46 417.57 412.44C417.81 412.42 417.99 412.44 418.01 412.44C418.03 412.44 417.83 412.26 417.55 412.29C417.27 412.32 417.09 412.47 417.12 412.51Z" fill="#263238"/>
<path d="M415.97 412.719C415.97 412.719 416.08 412.799 416.22 412.789C416.36 412.779 416.46 412.729 416.45 412.679C416.44 412.629 416.34 412.599 416.2 412.609C416.06 412.619 415.97 412.669 415.97 412.719Z" fill="#263238"/>
<path d="M314.21 410.7L317.61 403.42L304.02 397L298.93 407.59L299.75 408.05C303.4 410.05 318.45 417.9 321.32 418.33C324.52 418.78 314.21 410.7 314.21 410.7Z" fill="#349F6E"/>
<g opacity="0.3">
<path d="M303.911 409.79C304.26 408.549 304.132 407.222 303.551 406.07C302.995 404.931 302.031 404.043 300.851 403.58L299.041 407.37L303.911 409.79Z" fill="white"/>
</g>
<g opacity="0.3">
<path d="M319.151 414.85C319.151 414.85 322.641 417.94 321.821 418.37C321.001 418.8 305.491 411.37 298.931 407.56L299.101 407.27L317.101 416.03C317.101 416.03 318.381 414.51 319.151 414.85Z" fill="white"/>
</g>
<path d="M298.89 407.16L299.11 407.29L299.76 407.65L302.18 408.93C304.23 410 307.08 411.44 310.27 412.93C313.46 414.42 316.36 415.75 318.48 416.67L321 417.75L321.69 418.03L321.93 418.11L321.7 417.99L321.03 417.68L318.53 416.56C316.43 415.61 313.53 414.28 310.34 412.76C307.15 411.24 304.34 409.83 302.24 408.76L299.8 407.53L299.13 407.2C299.051 407.178 298.971 407.164 298.89 407.16Z" fill="#263238"/>
<path d="M317.011 416.24C317.306 415.871 317.642 415.535 318.011 415.24C318.42 415.01 318.852 414.826 319.301 414.69C318.808 414.682 318.324 414.822 317.91 415.091C317.497 415.36 317.174 415.746 316.981 416.2L317.011 416.24Z" fill="#263238"/>
<path d="M313.97 412.301C313.97 412.301 314.3 412.201 314.65 411.981C315 411.761 315.26 411.551 315.23 411.511C315.2 411.471 314.9 411.611 314.55 411.831C314.2 412.051 313.95 412.261 313.97 412.301Z" fill="#263238"/>
<path d="M313.149 411.189C313.149 411.239 313.449 411.189 313.779 411.099C314.109 411.009 314.369 410.879 314.359 410.829C314.144 410.81 313.928 410.845 313.729 410.929C313.379 410.999 313.139 411.139 313.149 411.189Z" fill="#263238"/>
<path d="M313.06 409.58C313.06 409.63 313.34 409.82 313.73 410.01C314.12 410.2 314.45 410.32 314.48 410.27C314.29 410.08 314.062 409.934 313.81 409.84C313.38 409.65 313.09 409.53 313.06 409.58Z" fill="#263238"/>
<path d="M313.261 408.561C313.261 408.561 313.491 408.921 313.941 409.171C314.198 409.344 314.5 409.442 314.811 409.451C314.289 409.162 313.773 408.865 313.261 408.561Z" fill="#263238"/>
<path d="M315 411.33C315.262 411.519 315.557 411.658 315.87 411.74C316.195 411.853 316.53 411.933 316.87 411.98C317.083 412.006 317.298 412.006 317.51 411.98C317.575 411.976 317.639 411.959 317.698 411.93C317.756 411.901 317.808 411.86 317.85 411.81C317.889 411.749 317.91 411.678 317.91 411.605C317.91 411.532 317.889 411.461 317.85 411.4C317.593 411.078 317.232 410.855 316.829 410.769C316.426 410.684 316.006 410.74 315.64 410.93C315.426 411.042 315.235 411.195 315.08 411.38C315.021 411.443 314.977 411.518 314.95 411.6C315.167 411.375 315.421 411.189 315.7 411.05C316.012 410.905 316.361 410.86 316.7 410.92C316.896 410.942 317.085 411.003 317.257 411.099C317.428 411.195 317.579 411.325 317.7 411.48C317.79 411.65 317.7 411.79 317.46 411.81C317.264 411.83 317.066 411.83 316.87 411.81C316.532 411.775 316.198 411.711 315.87 411.62C315.38 411.46 315.01 411.31 315 411.33Z" fill="#263238"/>
<path d="M315.2 411.48C315.2 411.48 315.45 411.34 315.59 410.92C315.672 410.679 315.695 410.422 315.66 410.17C315.645 410.006 315.59 409.848 315.499 409.71C315.408 409.572 315.285 409.459 315.14 409.38C315.042 409.359 314.939 409.376 314.853 409.428C314.768 409.48 314.706 409.563 314.68 409.66C314.646 409.812 314.646 409.969 314.68 410.12C314.703 410.367 314.76 410.609 314.85 410.84C314.99 411.24 315.16 411.45 315.18 411.43C315.2 411.41 315.08 411.19 314.97 410.8C314.904 410.575 314.864 410.344 314.85 410.11C314.85 409.86 314.9 409.49 315.13 409.56C315.36 409.63 315.48 409.97 315.53 410.2C315.581 410.427 315.581 410.663 315.53 410.89C315.444 411.099 315.333 411.297 315.2 411.48Z" fill="#263238"/>
<path d="M300.939 403.57C300.939 403.57 301.339 403.72 301.939 404.09C302.687 404.551 303.29 405.213 303.679 406C304.063 406.802 304.219 407.695 304.129 408.58C304.059 409.27 303.899 409.67 303.929 409.68C303.987 409.594 304.031 409.499 304.059 409.4C304.156 409.142 304.223 408.873 304.259 408.6C304.39 407.686 304.248 406.753 303.849 405.92C303.447 405.08 302.798 404.382 301.989 403.92C301.75 403.779 301.495 403.665 301.229 403.58C301.134 403.561 301.036 403.557 300.939 403.57Z" fill="#263238"/>
<path d="M305.029 398.59C304.499 399.472 304.018 400.384 303.589 401.32C303.108 402.234 302.68 403.176 302.309 404.14C302.841 403.255 303.322 402.34 303.749 401.4C304.237 400.492 304.664 399.553 305.029 398.59Z" fill="#263238"/>
<path d="M306.249 409.28C306.827 409.74 307.463 410.123 308.139 410.42C308.788 410.773 309.481 411.038 310.199 411.21C310.199 411.21 309.309 410.79 308.199 410.26C307.089 409.73 306.279 409.24 306.249 409.28Z" fill="#263238"/>
<path d="M303.59 408C303.59 408 303.59 408.23 303.59 408.47C303.59 408.71 303.54 408.92 303.59 408.94C303.64 408.96 303.77 408.76 303.77 408.48C303.77 408.2 303.64 408 303.59 408Z" fill="#263238"/>
<path d="M303.179 406.291C303.129 406.291 303.179 406.491 303.229 406.701C303.279 406.911 303.399 407.061 303.439 407.051C303.479 407.041 303.439 406.851 303.439 406.641C303.439 406.431 303.229 406.271 303.179 406.291Z" fill="#263238"/>
<path d="M302.019 405C302.019 405.05 302.189 405.14 302.349 405.3C302.509 405.46 302.609 405.64 302.659 405.63C302.709 405.62 302.659 405.37 302.479 405.17C302.299 404.97 302.019 405 302.019 405Z" fill="#263238"/>
<path d="M301.119 404.279C301.119 404.279 301.119 404.419 301.219 404.519C301.319 404.619 301.419 404.659 301.459 404.629C301.499 404.599 301.459 404.489 301.359 404.389C301.259 404.289 301.159 404.239 301.119 404.279Z" fill="#263238"/>
<path d="M298.32 400.581L320.32 410.811L359.88 340.381C365.03 321.801 370 256.381 370 256.381L341.38 258.561C341.38 258.561 336.97 305.561 330.06 329.721L298.32 400.581Z" fill="#263238"/>
<path d="M323.84 403.921C323.84 403.921 323.56 403.711 323.01 403.421C322.46 403.131 321.65 402.721 320.65 402.231C318.65 401.231 315.86 399.921 312.77 398.481C309.68 397.041 306.88 395.771 304.84 394.881C303.84 394.431 302.98 394.071 302.41 393.881C302.119 393.733 301.81 393.625 301.49 393.561C301.741 393.766 302.021 393.934 302.32 394.061C302.88 394.351 303.68 394.761 304.68 395.251C306.68 396.251 309.47 397.561 312.55 399.001C315.63 400.441 318.44 401.701 320.49 402.601C321.49 403.051 322.34 403.411 322.92 403.601C323.21 403.75 323.52 403.858 323.84 403.921Z" fill="#455A64"/>
<path d="M328.381 230.051C327.841 230.051 321.991 247.381 327.621 258.871C328.191 260.021 332.621 266.351 332.621 266.351C348.201 284.731 363.981 320.351 368.381 329.741C377.381 348.951 410.741 412.141 410.741 412.141L432.141 399.891L400.851 319.441L372.451 246.841L328.381 230.051Z" fill="#263238"/>
<path d="M366.961 304.38C366.961 304.38 368.471 311.69 369.251 311.27C371.481 310.06 386.811 304.35 386.811 304.35L382.671 299.76L366.961 304.38Z" fill="#455A64"/>
<path d="M371.479 310.061C371.479 310.061 374.349 321.851 378.039 321.211C381.729 320.571 389.439 316.691 389.439 316.691L384.789 305.061L371.479 310.061Z" fill="#455A64"/>
<path d="M369.249 311.27L386.359 304.43L385.539 306.94L371.989 311.9L369.249 311.27Z" fill="#263238"/>
<path d="M339.55 275.6C339.622 275.759 339.717 275.907 339.83 276.04L340.71 277.23C341.47 278.23 342.55 279.79 343.8 281.72C346.31 285.58 349.47 291.1 352.7 297.34C355.93 303.58 358.7 309.34 360.65 313.48L363 318.41L363.65 319.74C363.719 319.899 363.806 320.05 363.91 320.19C363.878 320.02 363.824 319.855 363.75 319.7L363.18 318.33C362.68 317.14 361.93 315.43 360.99 313.33C359.09 309.13 356.41 303.33 353.16 297.1C350.454 291.742 347.449 286.541 344.16 281.52C342.86 279.61 341.74 278.11 340.92 277.11C340.54 276.65 340.22 276.28 339.92 275.98C339.813 275.838 339.689 275.71 339.55 275.6Z" fill="#455A64"/>
<path d="M430.509 396.139C430.449 396.019 425.399 398.419 419.229 401.509C413.059 404.599 408.119 407.219 408.229 407.349C408.339 407.479 413.339 405.069 419.509 401.979C425.679 398.889 430.569 396.269 430.509 396.139Z" fill="#455A64"/>
<path d="M405.08 188.631C406.241 191.25 407.556 193.798 409.02 196.261C410.331 198.81 411.801 201.275 413.42 203.641C412.257 201.019 410.942 198.468 409.48 196.001C408.161 193.459 406.692 190.998 405.08 188.631Z" fill="#263238"/>
<path d="M364.65 158.199C363.48 158.199 362.09 166.699 360.91 181.969C359.57 199.289 359.69 216.769 364.48 227.759C364.922 228.933 365.591 230.007 366.449 230.922C367.307 231.837 368.337 232.573 369.48 233.089C381.88 238.209 416.09 201.529 416.09 201.529L407.67 186.759L383.58 206.209C383.58 206.209 381.18 186.529 381.64 177.459C382.01 170.579 375.14 158.279 364.65 158.199Z" fill="#455A64"/>
<path d="M353.99 158.371C353.99 158.371 333.07 161.431 327.66 169.651C322.25 177.871 324.99 250.371 324.99 250.371L378.77 253.551C378.77 253.551 374.43 161.271 371.77 160.221C365.09 157.601 354.79 158.111 353.99 158.371Z" fill="#455A64"/>
<path d="M440.09 139.281C440.247 137.081 439.837 134.878 438.9 132.881C438.485 132.027 438.266 131.091 438.26 130.141V127.711H469.61C470.886 127.711 472.109 128.218 473.011 129.12C473.913 130.022 474.42 131.245 474.42 132.521V163.741H476.54C477.52 163.732 478.484 163.499 479.36 163.061C481.325 162.115 483.496 161.678 485.674 161.791C487.852 161.904 489.967 162.564 491.823 163.708C493.68 164.853 495.218 166.446 496.297 168.342C497.376 170.237 497.961 172.373 497.998 174.554C498.035 176.734 497.523 178.889 496.509 180.82C495.494 182.75 494.011 184.395 492.194 185.602C490.378 186.809 488.287 187.539 486.114 187.726C483.941 187.913 481.756 187.55 479.76 186.671C478.934 186.295 478.038 186.097 477.13 186.091H474.38V216.531C474.381 217.163 474.258 217.79 474.017 218.375C473.776 218.959 473.422 219.491 472.975 219.939C472.528 220.386 471.997 220.742 471.413 220.984C470.829 221.226 470.203 221.351 469.57 221.351H384.88C383.84 221.351 382.843 220.938 382.108 220.203C381.373 219.468 380.96 218.471 380.96 217.431V131.631C380.959 131.116 381.059 130.605 381.256 130.129C381.452 129.653 381.741 129.22 382.105 128.856C382.469 128.492 382.902 128.203 383.378 128.007C383.855 127.81 384.365 127.71 384.88 127.711H415.48V131.181C415.483 131.984 415.327 132.779 415.02 133.521C414.304 135.265 413.976 137.145 414.059 139.029C414.141 140.913 414.633 142.756 415.5 144.431C416.366 146.106 417.587 147.572 419.076 148.728C420.566 149.885 422.29 150.703 424.127 151.126C425.965 151.549 427.873 151.568 429.718 151.18C431.564 150.793 433.303 150.008 434.815 148.881C436.327 147.754 437.576 146.312 438.474 144.654C439.373 142.996 439.901 141.163 440.02 139.281H440.09Z" fill="#349F6E"/>
<path d="M375.12 173.789C375.088 173.988 375.072 174.188 375.07 174.389C375.07 174.849 375.07 175.389 375.07 176.119C375.07 177.689 375.07 179.849 374.99 182.479C374.99 187.849 374.9 195.269 375.07 203.479C375.24 211.689 375.69 219.099 376.24 224.479C376.52 227.159 376.79 229.309 377.01 230.799C377.12 231.499 377.21 232.059 377.29 232.509C377.304 232.711 377.348 232.91 377.42 233.099C377.433 232.899 377.433 232.699 377.42 232.499C377.37 232.049 377.32 231.499 377.24 230.779C377.09 229.279 376.87 227.119 376.64 224.449C376.18 219.099 375.77 211.699 375.64 203.509C375.51 195.319 375.48 187.909 375.41 182.509C375.41 179.879 375.34 177.719 375.32 176.149C375.32 175.449 375.32 174.869 375.27 174.419C375.248 174.203 375.198 173.991 375.12 173.789Z" fill="#263238"/>
<path d="M343.131 124.189C343.991 129.649 343.941 134.439 341.271 137.999C340.692 138.684 340.157 139.406 339.671 140.159C339.43 140.539 339.269 140.963 339.199 141.407C339.128 141.851 339.15 142.304 339.261 142.739C339.385 143.125 339.609 143.472 339.911 143.742C340.213 144.012 340.582 144.197 340.979 144.278C341.377 144.358 341.788 144.331 342.172 144.2C342.555 144.068 342.897 143.837 343.161 143.529C343.074 144.147 343.174 144.777 343.446 145.338C343.719 145.899 344.152 146.366 344.691 146.679C344.967 146.806 345.267 146.869 345.571 146.862C345.874 146.855 346.172 146.78 346.441 146.641C346.711 146.502 346.946 146.304 347.128 146.061C347.31 145.818 347.434 145.537 347.491 145.239C347.491 145.239 346.781 148.009 349.961 147.579L347.721 128.579L343.131 124.189Z" fill="#263238"/>
<path d="M357.38 166.19C358.62 166.189 359.847 165.928 360.98 165.424C362.113 164.919 363.128 164.181 363.958 163.259C364.787 162.337 365.414 161.251 365.797 160.071C366.18 158.891 366.31 157.643 366.18 156.41C365.89 153.57 365.63 151.26 365.63 151.26C365.63 151.26 372.63 150.17 372.72 143.17C372.81 136.17 371.59 120.1 371.59 120.1C367.611 118.392 363.248 117.776 358.951 118.318C354.655 118.859 350.581 120.538 347.15 123.18L346.15 123.97L348.58 157.97C348.739 160.197 349.734 162.282 351.366 163.807C352.998 165.331 355.147 166.183 357.38 166.19Z" fill="#FFBE9D"/>
<path d="M369.79 132.74C369.646 132.606 369.544 132.433 369.498 132.242C369.452 132.05 369.464 131.85 369.531 131.665C369.599 131.48 369.719 131.319 369.878 131.203C370.036 131.086 370.225 131.019 370.422 131.009C370.618 130.999 370.813 131.048 370.982 131.149C371.151 131.249 371.287 131.397 371.372 131.575C371.457 131.752 371.488 131.951 371.461 132.145C371.434 132.34 371.35 132.523 371.22 132.67C371.131 132.77 371.024 132.851 370.904 132.909C370.783 132.967 370.653 133 370.52 133.007C370.386 133.013 370.253 132.993 370.128 132.947C370.002 132.901 369.888 132.831 369.79 132.74Z" fill="#263238"/>
<path d="M371.73 130.53C371.62 130.65 370.93 130.12 369.97 130.12C369.01 130.12 368.3 130.61 368.2 130.49C368.1 130.37 368.25 130.22 368.56 129.98C368.969 129.683 369.465 129.529 369.97 129.54C370.477 129.54 370.971 129.701 371.38 130C371.68 130.26 371.78 130.48 371.73 130.53Z" fill="#263238"/>
<path d="M360.62 132C360.735 132.068 360.835 132.158 360.914 132.265C360.994 132.372 361.051 132.494 361.083 132.623C361.114 132.753 361.12 132.887 361.099 133.019C361.078 133.151 361.03 133.277 360.96 133.39C360.892 133.506 360.802 133.607 360.694 133.688C360.586 133.768 360.463 133.826 360.332 133.858C360.202 133.889 360.066 133.894 359.933 133.872C359.8 133.85 359.673 133.802 359.56 133.73C359.445 133.661 359.344 133.57 359.265 133.462C359.185 133.354 359.129 133.23 359.098 133.1C359.067 132.969 359.063 132.834 359.086 132.701C359.108 132.569 359.157 132.443 359.23 132.33C359.299 132.216 359.389 132.117 359.497 132.038C359.604 131.96 359.726 131.903 359.856 131.873C359.985 131.842 360.119 131.837 360.251 131.859C360.382 131.881 360.507 131.929 360.62 132Z" fill="#263238"/>
<path d="M361.259 131.379C361.149 131.499 360.459 130.969 359.499 130.969C358.539 130.969 357.829 131.459 357.729 131.339C357.629 131.219 357.789 131.069 358.089 130.829C358.502 130.532 359.001 130.377 359.509 130.389C360.016 130.39 360.509 130.559 360.909 130.869C361.209 131.109 361.309 131.329 361.259 131.379Z" fill="#263238"/>
<path d="M365.12 139.33C365.619 139.14 366.146 139.028 366.68 139C366.93 139 367.13 138.92 367.15 138.78C367.16 138.528 367.098 138.278 366.97 138.06L366.21 136.06C365.484 134.405 364.931 132.679 364.56 130.91C365.446 132.5 366.169 134.175 366.72 135.91C366.97 136.59 367.21 137.24 367.44 137.91C367.607 138.233 367.657 138.605 367.58 138.96C367.544 139.056 367.487 139.142 367.412 139.211C367.338 139.281 367.248 139.332 367.15 139.36C367.009 139.396 366.865 139.417 366.72 139.42C366.185 139.482 365.644 139.452 365.12 139.33Z" fill="#263238"/>
<path d="M366.156 143.427C366.966 144.266 363.861 141.29 361.941 140.88C362.388 140.475 362.957 140.234 363.558 140.196C364.159 140.158 364.755 140.324 365.249 140.668C367.078 141.956 366.156 143.427 366.156 143.427Z" fill="white"/>
<path d="M365.691 151.161C362.46 151.221 359.285 150.315 356.571 148.561C356.571 148.561 358.731 153.561 365.711 152.971L365.691 151.161Z" fill="#EB996E"/>
<path d="M346.149 130.749C345.999 130.699 340.929 130.349 341.769 136.249C342.609 142.149 348.289 139.349 348.279 139.179C348.269 139.009 346.149 130.749 346.149 130.749Z" fill="#FFBE9D"/>
<path d="M346.18 137.37C346.18 137.37 346.09 137.46 345.92 137.56C345.808 137.631 345.683 137.678 345.553 137.701C345.422 137.723 345.289 137.719 345.16 137.69C344.744 137.501 344.386 137.206 344.122 136.833C343.859 136.46 343.699 136.024 343.66 135.57C343.566 135.068 343.59 134.551 343.73 134.06C343.76 133.868 343.835 133.686 343.95 133.529C344.065 133.372 344.216 133.246 344.39 133.16C344.504 133.109 344.633 133.102 344.752 133.139C344.871 133.175 344.974 133.254 345.04 133.36C345.14 133.51 345.12 133.63 345.16 133.64C345.2 133.65 345.27 133.52 345.16 133.29C345.109 133.144 345.005 133.023 344.87 132.95C344.782 132.898 344.684 132.865 344.582 132.853C344.481 132.841 344.378 132.85 344.28 132.88C344.045 132.972 343.839 133.124 343.681 133.32C343.524 133.517 343.42 133.751 343.38 134C343.197 134.544 343.156 135.125 343.26 135.69C343.304 136.22 343.504 136.725 343.835 137.142C344.166 137.558 344.613 137.867 345.12 138.03C345.285 138.052 345.453 138.038 345.612 137.988C345.771 137.938 345.917 137.853 346.04 137.74C346.19 137.51 346.2 137.38 346.18 137.37Z" fill="#EB996E"/>
<path d="M373.471 119.43C373.368 118.836 373.035 118.306 372.545 117.954C372.055 117.602 371.447 117.457 370.851 117.55C371.253 117.515 371.642 117.389 371.988 117.18C372.333 116.97 372.626 116.684 372.843 116.344C373.061 116.003 373.196 115.617 373.24 115.216C373.284 114.814 373.235 114.408 373.097 114.028C372.958 113.649 372.734 113.306 372.442 113.027C372.15 112.748 371.797 112.541 371.412 112.42C371.026 112.299 370.618 112.269 370.219 112.331C369.82 112.394 369.441 112.547 369.111 112.78C369.899 112.04 370.526 111.144 370.951 110.15C371.165 109.642 371.215 109.079 371.093 108.541C370.971 108.003 370.683 107.516 370.271 107.15C369.815 106.887 369.297 106.748 368.771 106.748C368.244 106.748 367.727 106.887 367.271 107.15C365.831 107.88 364.741 109.2 363.271 109.82C361.801 110.44 360.071 110.29 358.441 110.46C356.629 110.608 354.91 111.325 353.531 112.51C352.843 113.101 352.304 113.845 351.957 114.682C351.609 115.519 351.463 116.426 351.531 117.33C349.321 117.2 346.901 117.33 345.191 118.7C345.32 117.809 345.211 116.9 344.873 116.065C344.536 115.231 343.983 114.501 343.271 113.95C342.362 113.318 341.307 112.93 340.206 112.821C339.105 112.713 337.995 112.888 336.981 113.33C336.5 113.494 336.058 113.756 335.684 114.101C335.311 114.445 335.013 114.864 334.811 115.33C334.361 116.68 335.211 118.13 336.281 119.07C337.282 119.92 338.468 120.522 339.745 120.83C341.022 121.137 342.352 121.141 343.631 120.84C343.225 121.883 343.055 123.003 343.131 124.12C343.241 126.05 344.791 128.05 345.471 129.86L345.621 131.05L346.781 136L349.881 135.75L349.031 125.35C349.031 125.35 348.451 120.98 352.251 121.13C356.051 121.28 361.441 125.23 368.721 123.7C369.915 123.558 371.063 123.151 372.081 122.51C372.561 122.162 372.942 121.695 373.185 121.155C373.429 120.615 373.528 120.02 373.471 119.43Z" fill="#263238"/>
<path d="M332.699 124C333.284 124.448 333.972 124.743 334.699 124.86C336.467 125.261 338.319 125.045 339.946 124.246C341.573 123.447 342.877 122.114 343.639 120.47C343.997 119.82 344.186 119.091 344.189 118.35C344.099 118.35 343.939 119.16 343.309 120.35C342.503 121.853 341.245 123.066 339.713 123.818C338.181 124.569 336.452 124.822 334.769 124.54C333.489 124.28 332.739 123.9 332.699 124Z" fill="#263238"/>
<path d="M340.131 129.76C340.211 129.76 340.131 129.14 340.311 128.22C340.595 127.018 341.086 125.875 341.761 124.84C342.467 123.784 343.102 122.681 343.661 121.54C343.921 121.068 344.058 120.539 344.061 120C343.781 120.44 343.537 120.901 343.331 121.38C342.881 122.22 342.111 123.3 341.331 124.57C340.614 125.651 340.143 126.877 339.951 128.16C339.834 128.699 339.897 129.261 340.131 129.76Z" fill="#263238"/>
<path d="M391.94 187.6C395.42 185.483 398.782 183.176 402.01 180.69C405.88 177.42 405.6 177.06 405.15 176.69C403.95 175.62 398.15 182.19 398.58 180.03C399.01 177.87 406.58 172.85 405.3 171.79C403.6 170.4 397.64 177.39 397.09 177.94C396.54 178.49 395.74 177.7 396.26 177.23C397.01 176.55 404.69 169.23 403.04 167.85C402.12 167.08 400.94 168.9 400.94 168.9C400.94 168.9 394.24 176.31 393.48 175.63C392.72 174.95 396.48 170.46 397.88 169.04C399.28 167.62 399.15 166.41 398.04 166.3C397.29 166.23 392.96 170.47 391.62 171.9C390.28 173.33 386.7 177.34 386.9 173.9C387.1 170.46 386 167.72 385.2 167.19C384.4 166.66 383.39 167.62 383.77 168.62C384.075 169.747 384.223 170.912 384.21 172.08C384.239 173.018 384.11 173.954 383.83 174.85C383.59 175.62 383.35 176.3 383.12 176.9L380.77 183.37L386.67 190.84L391.94 187.6Z" fill="#FFBE9D"/>
<path d="M333.73 165.361C332.49 165.671 325.11 169.491 324.99 186.221C324.9 199.521 325.92 229.041 334.99 233.431C339.1 235.431 345.34 235.431 350.76 231.881C366.04 222.011 393.1 190.191 393.1 190.191L380.99 177.291C380.99 177.291 349.55 209.291 348.21 208.111C346.21 206.331 349.28 191.051 347.56 175.951C346.38 165.211 341.38 163.451 333.73 165.361Z" fill="#455A64"/>
<path d="M381.01 177.75C381.071 177.832 381.141 177.906 381.22 177.97L381.87 178.61C382.44 179.16 383.28 179.98 384.34 181.08C387.358 184.197 390.133 187.54 392.64 191.08V190.85C384.1 199.56 371.64 212.23 357.81 226.32C354.543 229.427 350.558 231.677 346.21 232.87C344.162 233.44 342.011 233.535 339.92 233.15C337.932 232.71 336.085 231.778 334.55 230.44C331.749 227.874 329.699 224.593 328.62 220.95C327.664 217.774 327.021 214.512 326.7 211.21C325.89 205.21 325.46 200.21 325.27 196.84C325.17 195.14 325.12 193.84 325.08 192.92V191.92C325.094 191.807 325.094 191.693 325.08 191.58C325.065 191.696 325.065 191.814 325.08 191.93C325.08 192.18 325.08 192.52 325.08 192.93C325.08 193.83 325.08 195.15 325.17 196.86C325.3 200.27 325.67 205.21 326.44 211.27C326.739 214.6 327.366 217.893 328.31 221.1C329.391 224.824 331.465 228.184 334.31 230.82C335.903 232.217 337.822 233.191 339.89 233.65C342.053 234.051 344.28 233.956 346.4 233.37C350.838 232.166 354.907 229.878 358.24 226.71C372.12 212.6 384.48 199.84 392.96 191.11L393.07 191L392.98 190.88C390.438 187.349 387.615 184.029 384.54 180.95C383.45 179.88 382.54 179.08 381.99 178.54L381.31 177.95L381.01 177.75Z" fill="#263238"/>
<path d="M381.001 177.289C381.001 177.289 380.931 177.289 380.831 177.429L380.361 177.899L378.571 179.709C377.021 181.289 374.751 183.549 371.901 186.319C369.051 189.089 365.611 192.389 361.731 196.009L355.611 201.679C353.461 203.619 351.241 205.679 348.861 207.619L349.271 207.819C349.201 206.639 349.131 205.389 349.061 204.129C348.661 197.519 348.291 191.219 347.951 185.489C347.741 182.629 347.691 179.899 347.381 177.349C347.15 174.965 346.493 172.641 345.441 170.489C344.568 168.701 343.245 167.171 341.601 166.049C340.344 165.226 338.899 164.734 337.401 164.619C336.461 164.541 335.514 164.657 334.621 164.959C334.307 165.052 334.008 165.186 333.731 165.359C333.731 165.359 334.041 165.229 334.651 165.059C335.54 164.806 336.47 164.725 337.391 164.819C338.841 164.97 340.232 165.474 341.441 166.289C343.015 167.414 344.28 168.917 345.121 170.659C346.123 172.782 346.745 175.063 346.961 177.399C347.241 179.919 347.271 182.649 347.471 185.509L348.541 204.149C348.611 205.409 348.691 206.669 348.751 207.839V208.349L349.141 208.039C351.581 206.039 353.761 204.039 355.911 202.039C358.061 200.039 360.081 198.159 362.021 196.339C365.881 192.689 369.301 189.339 372.121 186.569C374.941 183.799 377.171 181.449 378.681 179.829C379.451 179.029 380.011 178.389 380.401 177.949L380.831 177.459C380.961 177.349 381.011 177.289 381.001 177.289Z" fill="#263238"/>
<path d="M387.76 195.53C387.329 194.763 386.816 194.045 386.23 193.39C385.23 192.12 383.81 190.39 382.18 188.52C380.55 186.65 379.04 185 377.92 183.83C377.347 183.162 376.707 182.555 376.01 182.02C376.489 182.757 377.038 183.447 377.65 184.08L381.79 188.86L385.95 193.63C386.492 194.319 387.098 194.955 387.76 195.53Z" fill="#263238"/>
<path d="M346.13 215.33C346.748 214.108 347.257 212.833 347.65 211.52C348.214 210.272 348.669 208.977 349.01 207.65C347.527 209.983 346.546 212.598 346.13 215.33Z" fill="#263238"/>
<path d="M343.381 213.199C344.558 212.474 345.64 211.604 346.601 210.609C347.675 209.729 348.639 208.722 349.471 207.609C347.211 209.206 345.165 211.085 343.381 213.199Z" fill="#263238"/>
<path d="M102.981 362.169L70.8605 391.159L62.0605 379.899L90.2105 345.029L102.981 362.169Z" fill="#FFBE9D"/>
<path d="M71.6002 392.249L72.7002 391.249L62.5602 378.799L57.9902 382.799L58.6002 383.579C61.3302 387.049 72.7402 401.029 75.3602 402.649C78.2802 404.449 71.6002 392.249 71.6002 392.249Z" fill="#349F6E"/>
<g opacity="0.5">
<path d="M61.9199 387.059C62.7761 385.992 63.2039 384.644 63.1199 383.279C63.0594 381.929 62.4873 380.653 61.5199 379.709L58.1699 382.709L61.9199 387.059Z" fill="white"/>
</g>
<path opacity="0.5" d="M74.6902 398.37C74.6902 398.37 76.8102 402.85 75.8202 402.92C74.8302 402.99 62.8202 389.3 57.9902 382.8L58.2802 382.58L72.2102 398.67C72.2102 398.67 74.0402 397.7 74.6902 398.37Z" fill="white"/>
<path d="M58.1211 382.389C58.1663 382.468 58.2199 382.541 58.2811 382.609L58.7611 383.239L60.5911 385.499C62.1411 387.399 64.3311 389.989 66.8011 392.799C69.2711 395.609 71.5711 398.109 73.2611 399.899L75.2611 401.999L75.8111 402.559C75.8741 402.629 75.9445 402.693 76.0211 402.749L75.8411 402.529L75.3111 401.949C74.7811 401.359 74.1211 400.649 73.3111 399.809C71.6511 397.999 69.3711 395.489 66.9011 392.679C64.4311 389.869 62.2311 387.289 60.6411 385.409L58.7711 383.189L58.2611 382.589C58.2217 382.517 58.1748 382.45 58.1211 382.389Z" fill="#263238"/>
<path d="M72.0195 398.829C72.4638 398.603 72.9339 398.431 73.4195 398.319C73.9146 398.262 74.4145 398.262 74.9095 398.319C74.4456 398.065 73.9034 397.994 73.3895 398.119C72.861 398.179 72.3732 398.432 72.0195 398.829Z" fill="#263238"/>
<path d="M70.7012 393.71C70.9609 393.772 71.2314 393.772 71.4912 393.71C71.9212 393.65 72.2612 393.55 72.2512 393.49C71.7218 393.445 71.1896 393.531 70.7012 393.74V393.71Z" fill="#263238"/>
<path d="M70.3594 392.29C70.3594 392.29 70.6394 392.42 71.0094 392.46C71.3794 392.5 71.6794 392.46 71.6894 392.46C71.6994 392.46 71.3994 392.33 71.0294 392.29C70.6594 392.25 70.3594 392.23 70.3594 392.29Z" fill="#263238"/>
<path d="M70.9512 390.68C70.9512 390.68 71.1212 391.02 71.4212 391.37C71.7212 391.72 72.0012 391.98 72.0412 391.94C72.0812 391.9 71.8712 391.6 71.5612 391.25C71.2512 390.9 70.9912 390.64 70.9512 390.68Z" fill="#263238"/>
<path d="M71.5605 389.76C71.6008 390.089 71.7443 390.397 71.9706 390.64C72.3006 391.07 72.6705 391.32 72.7005 391.28C72.7305 391.24 72.4305 390.94 72.1305 390.52C71.9609 390.252 71.7703 389.998 71.5605 389.76Z" fill="#263238"/>
<path d="M72.1002 393.198C72.2837 393.49 72.5173 393.748 72.7902 393.958C73.0666 394.209 73.3682 394.43 73.6902 394.618C73.8777 394.748 74.0832 394.849 74.3002 394.918C74.429 394.968 74.5714 394.968 74.7002 394.918C74.7698 394.881 74.8268 394.824 74.8642 394.755C74.9015 394.686 74.9175 394.607 74.9102 394.528C74.8327 394.259 74.6968 394.01 74.5122 393.799C74.3276 393.588 74.0987 393.42 73.842 393.307C73.5852 393.195 73.3068 393.14 73.0266 393.147C72.7463 393.154 72.471 393.223 72.2202 393.348C72.1328 393.389 72.0546 393.447 71.9902 393.518C72.3057 393.378 72.6452 393.3 72.9902 393.288C73.3435 393.284 73.6905 393.381 73.9902 393.568C74.1752 393.676 74.3363 393.82 74.4635 393.992C74.5908 394.164 74.6815 394.36 74.7302 394.568C74.7302 394.768 74.5702 394.848 74.3702 394.788C74.1729 394.715 73.9823 394.624 73.8002 394.518C73.4825 394.337 73.1784 394.133 72.8902 393.908C72.3802 393.468 72.1302 393.168 72.1002 393.198Z" fill="#263238"/>
<path d="M72.241 393.429C72.4844 393.382 72.7017 393.247 72.851 393.049C73.034 392.847 73.1645 392.603 73.231 392.339C73.2944 392.172 73.3121 391.991 73.2822 391.816C73.2523 391.64 73.1759 391.475 73.061 391.339C72.9736 391.277 72.866 391.251 72.7601 391.266C72.6542 391.281 72.5579 391.335 72.491 391.419C72.3857 391.545 72.3074 391.691 72.261 391.849C72.1808 392.102 72.1337 392.364 72.121 392.629C72.0831 392.868 72.1072 393.112 72.191 393.339C72.2278 393.107 72.2478 392.873 72.251 392.639C72.2894 392.391 72.3497 392.146 72.431 391.909C72.501 391.659 72.731 391.329 72.941 391.489C73.0156 391.606 73.0648 391.738 73.0855 391.876C73.1061 392.014 73.0978 392.154 73.061 392.289C73.0069 392.529 72.9011 392.754 72.751 392.949C72.5947 393.123 72.4241 393.283 72.241 393.429Z" fill="#263238"/>
<path d="M61.6094 379.739C61.6094 379.739 61.9494 380.049 62.3594 380.649C62.9005 381.429 63.2155 382.342 63.2694 383.289C63.3044 384.234 63.0832 385.17 62.6294 385.999C62.2694 386.629 61.9394 386.999 61.9694 386.999C61.9994 386.999 62.0694 386.939 62.2094 386.789C62.4117 386.577 62.5895 386.342 62.7394 386.089C63.2553 385.253 63.5063 384.281 63.4594 383.299C63.4035 382.317 63.0553 381.373 62.4594 380.589C62.2844 380.354 62.0831 380.139 61.8594 379.949C61.7194 379.789 61.6194 379.729 61.6094 379.739Z" fill="#263238"/>
<path d="M64.4004 387.55C64.7802 388.237 65.2474 388.872 65.7904 389.44C66.287 390.052 66.8619 390.597 67.5004 391.06C67.5004 391.06 66.8004 390.28 65.9504 389.31C65.1004 388.34 64.5004 387.52 64.4004 387.55Z" fill="#263238"/>
<path d="M62.3495 385.189C62.2895 385.189 62.2395 385.399 62.1295 385.629C62.0195 385.859 61.8995 386.059 61.9395 386.099C61.9795 386.139 62.1795 385.989 62.3095 385.709C62.4395 385.429 62.3995 385.189 62.3495 385.189Z" fill="#263238"/>
<path d="M62.6706 383.33C62.6206 383.33 62.5606 383.51 62.5406 383.75C62.5206 383.99 62.5406 384.18 62.6106 384.18C62.6806 384.18 62.7206 384 62.7406 383.76C62.7606 383.52 62.7206 383.33 62.6706 383.33Z" fill="#263238"/>
<path d="M62.0605 381.62C62.0605 381.62 62.1705 381.82 62.2605 382.05C62.3505 382.28 62.3705 382.49 62.4305 382.5C62.4905 382.51 62.5605 382.26 62.4305 381.98C62.3005 381.7 62.0805 381.57 62.0605 381.62Z" fill="#263238"/>
<path d="M61.5 380.509C61.5 380.509 61.5 380.649 61.5 380.779C61.5 380.909 61.63 381.009 61.68 380.989C61.73 380.969 61.68 380.849 61.68 380.709C61.68 380.569 61.55 380.489 61.5 380.509Z" fill="#263238"/>
<path d="M160.111 361.869L163.981 405.659H147.431L140.131 361.869H160.111Z" fill="#FFBE9D"/>
<path d="M163.5 406.069V404.599L147.43 404.529L147.62 410.599H148.62C153.04 410.679 171.08 410.719 173.99 409.719C177.13 408.639 163.5 406.069 163.5 406.069Z" fill="#349F6E"/>
<g opacity="0.5">
<path d="M153.301 410.259C153.019 408.92 152.249 407.733 151.141 406.929C150.053 406.138 148.708 405.781 147.371 405.929L147.531 410.399L153.301 410.259Z" fill="white"/>
</g>
<path opacity="0.5" d="M170.15 407.559C170.15 407.559 174.95 408.759 174.39 409.559C173.83 410.359 155.59 411.009 147.52 410.559V410.199L168.8 409.629C168.8 409.629 169.22 407.639 170.15 407.559Z" fill="white"/>
<path d="M147.279 410.239H147.559H148.349H151.249C153.709 410.239 157.099 410.239 160.839 410.069C164.579 409.899 167.969 409.749 170.419 409.579L173.319 409.359L174.109 409.279H173.319L170.409 409.439C167.959 409.579 164.579 409.749 160.839 409.879C157.099 410.009 153.709 410.069 151.249 410.099H148.349H147.559L147.279 410.239Z" fill="#263238"/>
<path d="M168.81 409.919C168.919 409.432 169.084 408.959 169.3 408.509C169.588 408.092 169.923 407.709 170.3 407.369C169.805 407.563 169.404 407.939 169.18 408.419C168.875 408.856 168.744 409.391 168.81 409.919Z" fill="#263238"/>
<path d="M164.01 407.69C164.06 407.69 164.28 407.44 164.5 407.06C164.72 406.68 164.86 406.36 164.81 406.33C164.606 406.507 164.442 406.725 164.33 406.97C164.172 407.184 164.063 407.43 164.01 407.69Z" fill="#263238"/>
<path d="M162.701 407.059C162.701 407.059 162.981 406.919 163.251 406.659C163.521 406.399 163.701 406.159 163.661 406.129C163.621 406.099 163.381 406.259 163.111 406.519C162.841 406.779 162.661 406.999 162.701 407.059Z" fill="#263238"/>
<path d="M161.83 405.579C162.098 405.666 162.382 405.69 162.66 405.649C162.945 405.673 163.231 405.635 163.5 405.539C163.23 405.447 162.942 405.419 162.66 405.459C162.2 405.469 161.83 405.519 161.83 405.579Z" fill="#263238"/>
<path d="M161.5 404.52C161.781 404.695 162.109 404.779 162.44 404.76C162.782 404.815 163.133 404.759 163.44 404.6C163.128 404.566 162.812 404.566 162.5 404.6C162.17 404.544 161.835 404.518 161.5 404.52Z" fill="#263238"/>
<path d="M164.5 406.279C164.831 406.338 165.169 406.338 165.5 406.279C165.871 406.219 166.236 406.125 166.59 405.999C166.803 405.929 167.008 405.835 167.2 405.719C167.321 405.644 167.41 405.526 167.45 405.389C167.462 405.314 167.452 405.236 167.422 405.165C167.392 405.094 167.343 405.033 167.28 404.989C166.882 404.808 166.433 404.771 166.011 404.886C165.589 405.001 165.221 405.261 164.97 405.619C164.817 405.827 164.711 406.066 164.66 406.319C164.636 406.408 164.636 406.501 164.66 406.589C164.761 406.272 164.909 405.972 165.1 405.699C165.322 405.424 165.616 405.216 165.95 405.099C166.145 405.018 166.354 404.976 166.565 404.976C166.776 404.976 166.985 405.018 167.18 405.099C167.35 405.219 167.29 405.409 167.11 405.529C166.931 405.632 166.744 405.719 166.55 405.789C166.209 405.922 165.858 406.026 165.5 406.099C164.9 406.229 164.5 406.249 164.5 406.279Z" fill="#263238"/>
<path d="M164.78 406.319C164.891 406.1 164.923 405.849 164.87 405.609C164.83 405.34 164.724 405.086 164.56 404.869C164.471 404.717 164.345 404.59 164.192 404.502C164.039 404.414 163.866 404.368 163.69 404.369C163.587 404.397 163.498 404.464 163.443 404.555C163.387 404.646 163.368 404.755 163.39 404.859C163.415 405.023 163.48 405.177 163.58 405.309C163.721 405.532 163.893 405.734 164.09 405.909C164.252 406.092 164.458 406.23 164.69 406.309C164.69 406.309 164.48 406.129 164.18 405.819C164.014 405.632 163.863 405.431 163.73 405.219C163.58 404.999 163.47 404.619 163.73 404.559C163.99 404.499 164.26 404.779 164.42 404.969C164.571 405.163 164.677 405.389 164.73 405.629C164.765 405.857 164.782 406.088 164.78 406.319Z" fill="#263238"/>
<path d="M147.5 405.859C147.5 405.859 147.96 405.799 148.68 405.859C149.627 405.941 150.531 406.287 151.29 406.859C152.046 407.426 152.631 408.191 152.98 409.069C153.25 409.749 153.29 410.209 153.33 410.199C153.345 410.093 153.345 409.985 153.33 409.879C153.287 409.59 153.216 409.305 153.12 409.029C152.802 408.098 152.209 407.286 151.42 406.699C150.626 406.122 149.68 405.792 148.7 405.749C148.407 405.724 148.113 405.724 147.82 405.749C147.708 405.767 147.6 405.805 147.5 405.859Z" fill="#263238"/>
<path d="M155.26 408.65C156.03 408.797 156.817 408.841 157.6 408.78C158.385 408.786 159.168 408.692 159.93 408.5C159.93 408.44 158.88 408.55 157.59 408.59C156.3 408.63 155.26 408.6 155.26 408.65Z" fill="#263238"/>
<path d="M152.131 408.739C152.131 408.739 152.221 408.959 152.341 409.189C152.461 409.419 152.521 409.639 152.571 409.639C152.621 409.639 152.651 409.379 152.511 409.109C152.371 408.839 152.161 408.699 152.131 408.739Z" fill="#263238"/>
<path d="M150.9 407.319C150.9 407.319 150.97 407.519 151.14 407.679C151.31 407.839 151.48 407.939 151.52 407.899C151.56 407.859 151.45 407.699 151.27 407.539C151.09 407.379 150.93 407.279 150.9 407.319Z" fill="#263238"/>
<path d="M149.191 406.7C149.191 406.76 149.411 406.75 149.651 406.82C149.891 406.89 150.061 407.02 150.101 406.98C150.141 406.94 150.001 406.72 149.701 406.64C149.401 406.56 149.171 406.66 149.191 406.7Z" fill="#263238"/>
<path d="M147.971 406.43C147.971 406.48 148.051 406.56 148.181 406.61C148.311 406.66 148.441 406.61 148.461 406.61C148.481 406.61 148.381 406.48 148.251 406.43C148.121 406.38 147.991 406.38 147.971 406.43Z" fill="#263238"/>
<path d="M131.02 233.35C131.02 233.35 143.97 319.35 142.09 323.54C140.21 327.73 98.26 370.64 98.26 370.64L82.5 343.68C82.5 343.68 110.26 312.93 109.86 311.34C109.46 309.75 89.86 226.43 89.86 226.43L131.02 233.35Z" fill="#263238"/>
<path d="M135.631 265.11C135.501 264.19 125.051 240.7 125.051 240.7L130.121 233.54L131.021 233.35L135.631 265.11Z" fill="#263238"/>
<path d="M82.5004 225.25L81.7104 228.44C79.4226 237.854 80.8555 247.787 85.7104 256.17L120.79 317C123.283 321.31 125.097 325.978 126.17 330.84L134.92 370.2H163.72C163.72 370.2 160.16 343.2 156.99 323.51C154.59 308.64 134.69 262.51 125.05 240.67L131.05 233.32L120.68 231.59L82.5004 225.25Z" fill="#263238"/>
<path d="M125.811 240.529C126.213 241.845 126.704 243.131 127.281 244.379C128.281 246.729 129.561 249.979 130.961 253.589C132.361 257.199 133.591 260.499 134.471 262.879C134.893 264.188 135.401 265.467 135.991 266.709C135.954 266.337 135.87 265.97 135.741 265.619C135.551 264.939 135.251 263.949 134.861 262.739C134.071 260.319 132.861 257.009 131.501 253.379C130.141 249.749 128.711 246.529 127.651 244.219C127.121 243.059 126.651 242.129 126.361 241.499C126.221 241.153 126.036 240.827 125.811 240.529Z" fill="#455A64"/>
<path d="M128.96 342.789C128.983 342.563 128.983 342.335 128.96 342.109C128.9 341.599 128.83 340.959 128.74 340.159C128.641 339.128 128.487 338.103 128.28 337.089C128.05 335.909 127.83 334.539 127.44 333.089C127.26 332.349 127.07 331.569 126.87 330.769C126.67 329.969 126.39 329.139 126.13 328.279C125.65 326.549 124.97 324.759 124.31 322.859C122.742 318.766 120.956 314.76 118.96 310.859C115.263 303.842 111.17 297.041 106.7 290.489C105.01 287.969 103.61 285.939 102.63 284.549L101.5 282.999C101.373 282.809 101.229 282.632 101.07 282.469C101.157 282.681 101.267 282.882 101.4 283.069L102.45 284.719C103.45 286.209 104.75 288.249 106.37 290.719C109.66 295.819 114.2 302.899 118.46 311.119C120.428 314.988 122.2 318.952 123.77 322.999C124.44 324.879 125.14 326.659 125.64 328.369C125.9 329.219 126.17 330.039 126.4 330.839C126.63 331.639 126.81 332.399 127 333.139C127.42 334.599 127.66 335.949 127.92 337.139C128.18 338.329 128.36 339.339 128.48 340.139C128.6 340.939 128.72 341.569 128.81 342.069C128.833 342.314 128.883 342.555 128.96 342.789Z" fill="#455A64"/>
<path d="M87.2304 253.299C87.2304 253.299 87.1504 253.209 87.0104 252.999L86.4004 251.999C86.8811 251.244 87.51 250.594 88.2491 250.089C88.9882 249.583 89.8221 249.233 90.7004 249.059C92.0138 248.764 93.3717 248.723 94.7004 248.939C96.2607 249.212 97.7934 249.624 99.2804 250.169C100.998 250.7 102.67 251.369 104.28 252.169C106.118 253.085 107.563 254.633 108.35 256.529C108.743 257.565 108.809 258.695 108.54 259.769C108.212 260.81 107.78 261.815 107.25 262.769C106.71 263.7 106.417 264.753 106.4 265.829C106.488 266.915 106.985 267.927 107.79 268.659C109.71 270.569 112.55 270.919 114.9 272.109C117.194 273.27 119.063 275.125 120.24 277.409C121.346 279.441 121.865 281.74 121.74 284.049C121.622 286.062 120.974 288.008 119.86 289.689C118.271 292.131 115.897 293.958 113.13 294.869C112.385 295.104 111.618 295.262 110.84 295.339C110.571 295.359 110.3 295.359 110.03 295.339C111.048 295.191 112.052 294.956 113.03 294.639C115.705 293.679 117.984 291.857 119.51 289.459C120.565 287.825 121.172 285.942 121.27 283.999C121.364 281.77 120.849 279.558 119.78 277.599C118.633 275.414 116.833 273.642 114.63 272.529C113.5 271.969 112.23 271.589 110.96 271.109C109.63 270.671 108.409 269.951 107.38 268.999C106.481 268.174 105.931 267.037 105.84 265.819C105.858 264.657 106.171 263.518 106.75 262.509C107.269 261.581 107.695 260.602 108.02 259.589C108.267 258.611 108.205 257.58 107.84 256.639C107.109 254.846 105.752 253.378 104.02 252.509C102.438 251.695 100.793 251.01 99.1004 250.459C97.6464 249.9 96.1432 249.478 94.6104 249.199C93.3294 248.964 92.0148 248.981 90.7404 249.249C89.8876 249.407 89.0743 249.731 88.3467 250.203C87.6192 250.674 86.9918 251.285 86.5004 251.999L87.0504 252.999C87.1215 253.092 87.1818 253.193 87.2304 253.299Z" fill="#FAFAFA"/>
<path d="M159.941 342.899C159.234 342.278 158.434 341.772 157.571 341.399C156.54 340.995 155.466 340.713 154.371 340.559C153.101 340.349 151.621 340.219 150.001 339.959C148.205 339.701 146.473 339.115 144.891 338.229C141.861 336.534 139.551 333.797 138.39 330.526C137.23 327.255 137.297 323.674 138.581 320.449C139.531 318.099 140.961 316.059 141.361 313.789C141.614 311.568 141.29 309.318 140.421 307.259C139.66 305.348 139.012 303.395 138.481 301.409C138.049 299.638 138.049 297.79 138.481 296.019C139.107 293.455 140.554 291.166 142.601 289.499C143.332 288.879 144.164 288.389 145.061 288.049C144.244 288.522 143.465 289.057 142.731 289.649C140.788 291.336 139.426 293.593 138.841 296.099C138.426 297.814 138.426 299.604 138.841 301.319C139.397 303.282 140.065 305.212 140.841 307.099C141.755 309.231 142.099 311.564 141.841 313.869C141.421 316.299 139.951 318.369 139.051 320.649C137.811 323.758 137.735 327.21 138.837 330.37C139.94 333.53 142.146 336.186 145.051 337.849C146.596 338.733 148.291 339.326 150.051 339.599C151.651 339.879 153.131 340.029 154.411 340.269C155.525 340.466 156.61 340.802 157.641 341.269C158.289 341.56 158.892 341.944 159.431 342.409C159.781 342.699 159.961 342.879 159.941 342.899Z" fill="#FAFAFA"/>
<path d="M146.5 371.589C146.4 371.589 146.37 370.289 145.85 368.279C145.545 367.104 145.127 365.962 144.6 364.869C143.943 363.537 143.149 362.277 142.23 361.109C141.29 359.957 140.231 358.908 139.07 357.979C138.117 357.215 137.092 356.546 136.01 355.979C134.16 355.039 132.89 354.729 132.92 354.629C133.228 354.632 133.533 354.69 133.82 354.799C134.161 354.876 134.496 354.98 134.82 355.109C135.272 355.26 135.713 355.44 136.14 355.649C137.273 356.169 138.345 356.809 139.34 357.559C141.783 359.407 143.728 361.833 145 364.619C145.519 365.75 145.915 366.933 146.18 368.149C146.292 368.613 146.372 369.084 146.42 369.559C146.478 369.913 146.504 370.271 146.5 370.629C146.556 370.946 146.556 371.271 146.5 371.589Z" fill="#FAFAFA"/>
<path d="M131.721 258.469C131.721 258.469 131.591 258.469 131.331 258.549C130.95 258.603 130.566 258.637 130.181 258.649C128.767 258.696 127.353 258.545 125.981 258.199C123.933 257.706 121.993 256.838 120.261 255.639C118.102 254.197 116.326 252.25 115.087 249.968C113.848 247.685 113.184 245.136 113.151 242.539C113.104 240.432 113.443 238.334 114.151 236.349C114.614 235.01 115.26 233.742 116.071 232.579C116.284 232.264 116.518 231.964 116.771 231.679C116.941 231.479 117.041 231.379 117.051 231.389C115.986 232.966 115.129 234.673 114.501 236.469C113.867 238.424 113.583 240.476 113.661 242.529C113.714 245.039 114.362 247.501 115.551 249.712C116.74 251.923 118.436 253.821 120.501 255.249C122.178 256.433 124.05 257.313 126.031 257.849C127.892 258.305 129.805 258.514 131.721 258.469Z" fill="#FAFAFA"/>
<path d="M106.08 314.58C106.273 314.647 106.461 314.731 106.64 314.83C107.01 315 107.53 315.29 108.19 315.68C110.058 316.813 111.713 318.265 113.08 319.97C114.024 321.167 114.748 322.521 115.22 323.97C115.743 325.649 115.86 327.428 115.56 329.16C115.26 331.103 114.333 332.894 112.92 334.26C111.44 335.7 109.27 336.18 108.01 337.76C106.75 339.34 106.47 341.41 106.28 343.34C106.219 345.258 105.882 347.158 105.28 348.98C104.602 350.627 103.366 351.982 101.79 352.81C100.45 353.542 98.9712 353.984 97.4497 354.11C95.2696 354.23 93.0841 354.014 90.9697 353.47C90.2197 353.29 89.6497 353.14 89.2597 353.03C89.0591 352.992 88.8641 352.928 88.6797 352.84C88.8855 352.85 89.0898 352.88 89.2897 352.93L91.0097 353.27C93.1093 353.734 95.2649 353.892 97.4097 353.74C98.8713 353.599 100.288 353.156 101.57 352.44C103.048 351.642 104.204 350.355 104.84 348.8C105.402 347.015 105.715 345.161 105.77 343.29C105.843 342.279 105.997 341.276 106.23 340.29C106.465 339.244 106.937 338.265 107.61 337.43C109.05 335.7 111.23 335.23 112.61 333.89C113.946 332.606 114.827 330.921 115.12 329.09C115.416 327.424 115.321 325.712 114.84 324.09C114.399 322.689 113.723 321.373 112.84 320.2C111.519 318.504 109.928 317.038 108.13 315.86C107.5 315.44 106.99 315.13 106.64 314.93C106.439 314.837 106.251 314.719 106.08 314.58Z" fill="#FAFAFA"/>
<path d="M109.149 107.658C103.599 106.278 97.6293 109.748 94.8693 114.748C92.1093 119.748 92.0793 125.878 93.3793 131.438C93.9293 133.768 94.6993 136.178 94.1593 138.518C93.5793 141.028 91.5793 142.978 90.6193 145.378C88.7893 150.008 91.1193 155.138 93.3993 159.558C94.3993 161.558 95.7693 163.808 97.9893 164.248C100.479 164.738 102.669 162.748 104.769 161.318C108.476 158.817 112.988 157.8 117.409 158.468C122.409 159.238 126.929 162.108 131.949 162.198C134.223 162.215 136.464 161.66 138.468 160.586C140.472 159.511 142.175 157.951 143.419 156.048C144.909 153.718 145.419 150.208 143.269 148.488C141.849 147.358 139.679 147.398 138.429 146.078C136.909 144.468 137.569 141.878 138.349 139.818C139.129 137.758 139.909 135.238 138.519 133.518C136.969 131.578 133.609 131.948 132.129 129.958C130.649 127.968 132.209 124.958 132.129 122.318C132.031 121.156 131.672 120.03 131.078 119.026C130.484 118.022 129.671 117.165 128.699 116.518C126.819 115.148 126.559 114.708 123.969 109.998" fill="#263238"/>
<path d="M101.41 153.389L121.41 155.099C121.41 155.099 135.98 152.969 141.56 189.919L163.7 189.009L164.7 203.729L134.25 205.229L130.66 203.079L131.02 233.349L80.65 229.639C81.79 222.769 87.16 213.729 88.96 207.929C87.13 203.349 77.01 184.679 76.51 175.089C75.15 148.829 101.41 153.389 101.41 153.389Z" fill="#349F6E"/>
<path opacity="0.3" d="M132.91 180.479C132.91 180.479 136.45 184.479 136.51 187.849C136.6 193.249 135.24 196.019 136.93 201.919L132.11 203.079C132.11 203.079 131.37 201.639 132 198.559C132.63 195.479 133.85 191.729 134.39 188.379C134.869 185.653 134.344 182.846 132.91 180.479Z" fill="black"/>
<path d="M132.11 203.079C131.962 202.699 131.862 202.303 131.81 201.899C131.668 200.796 131.668 199.681 131.81 198.579C132.024 196.959 132.358 195.358 132.81 193.789C133.378 191.893 133.819 189.962 134.13 188.009C134.427 186.075 134.217 184.097 133.52 182.269C132.881 180.805 132.01 179.454 130.94 178.269C129.12 176.199 127.83 175.049 127.94 174.979C128.281 175.196 128.6 175.447 128.89 175.729C129.723 176.45 130.514 177.217 131.26 178.029C132.405 179.224 133.335 180.608 134.01 182.119C134.768 184.022 135 186.095 134.68 188.119C134.376 190.098 133.918 192.05 133.31 193.959C132.837 195.504 132.459 197.077 132.18 198.669C132.012 199.743 131.955 200.832 132.01 201.919C132.084 202.301 132.117 202.689 132.11 203.079Z" fill="#263238"/>
<g opacity="0.2">
<path d="M132.769 202.7L117.849 203.04C116.667 203.152 115.474 203.012 114.349 202.63C112.779 201.97 111.769 200.44 110.889 198.98C108.269 194.66 105.869 190.22 103.689 185.66C103.689 185.66 107.629 198.19 110.099 203.66C110.339 204.35 110.835 204.922 111.485 205.257C112.134 205.592 112.888 205.665 113.589 205.46C120.083 205.472 126.543 204.542 132.769 202.7Z" fill="black"/>
</g>
<path d="M230.31 169.699C232.51 169.543 234.714 169.952 236.71 170.889C237.561 171.304 238.494 171.523 239.44 171.529H241.88V140.179C241.88 139.547 241.755 138.92 241.513 138.336C241.271 137.752 240.916 137.221 240.468 136.774C240.02 136.328 239.489 135.974 238.904 135.732C238.319 135.491 237.693 135.368 237.06 135.369H205.84V133.249C205.85 132.267 206.083 131.299 206.52 130.419C207.709 127.981 208.094 125.23 207.62 122.559C207.065 119.349 205.325 116.464 202.745 114.476C200.165 112.488 196.932 111.54 193.686 111.822C190.441 112.104 187.419 113.594 185.22 115.997C183.021 118.4 181.804 121.541 181.81 124.799C181.81 126.601 182.188 128.383 182.92 130.029C183.29 130.854 183.488 131.745 183.5 132.649V135.369H153.05C151.775 135.369 150.551 135.876 149.649 136.778C148.747 137.68 148.24 138.903 148.24 140.179V224.869C148.24 225.384 148.342 225.894 148.539 226.369C148.736 226.845 149.024 227.277 149.388 227.641C149.752 228.005 150.185 228.294 150.66 228.491C151.136 228.688 151.645 228.789 152.16 228.789H237.96C238.999 228.787 239.995 228.373 240.729 227.638C241.464 226.904 241.878 225.908 241.88 224.869V194.259H238.41C237.608 194.26 236.813 194.416 236.07 194.719C234.534 195.346 232.89 195.669 231.23 195.669C227.782 195.791 224.427 194.538 221.903 192.187C219.379 189.835 217.892 186.577 217.77 183.129C217.648 179.681 218.901 176.326 221.253 173.802C223.604 171.278 226.862 169.791 230.31 169.669V169.699Z" fill="#349F6E"/>
<path opacity="0.2" d="M230.31 169.699C232.51 169.543 234.714 169.952 236.71 170.889C237.561 171.304 238.494 171.523 239.44 171.529H241.88V140.179C241.88 139.547 241.755 138.92 241.513 138.336C241.271 137.752 240.916 137.221 240.468 136.774C240.02 136.328 239.489 135.974 238.904 135.732C238.319 135.491 237.693 135.368 237.06 135.369H205.84V133.249C205.85 132.267 206.083 131.299 206.52 130.419C207.709 127.981 208.094 125.23 207.62 122.559C207.065 119.349 205.325 116.464 202.745 114.476C200.165 112.488 196.932 111.54 193.686 111.822C190.441 112.104 187.419 113.594 185.22 115.997C183.021 118.4 181.804 121.541 181.81 124.799C181.81 126.601 182.188 128.383 182.92 130.029C183.29 130.854 183.488 131.745 183.5 132.649V135.369H153.05C151.775 135.369 150.551 135.876 149.649 136.778C148.747 137.68 148.24 138.903 148.24 140.179V224.869C148.24 225.384 148.342 225.894 148.539 226.369C148.736 226.845 149.024 227.277 149.388 227.641C149.752 228.005 150.185 228.294 150.66 228.491C151.136 228.688 151.645 228.789 152.16 228.789H237.96C238.999 228.787 239.995 228.373 240.729 227.638C241.464 226.904 241.878 225.908 241.88 224.869V194.259H238.41C237.608 194.26 236.813 194.416 236.07 194.719C234.534 195.346 232.89 195.669 231.23 195.669C227.782 195.791 224.427 194.538 221.903 192.187C219.379 189.835 217.892 186.577 217.77 183.129C217.648 179.681 218.901 176.326 221.253 173.802C223.604 171.278 226.862 169.791 230.31 169.669V169.699Z" fill="white"/>
<path d="M101.14 154.09L99.5898 118.79L113.59 108.17L126.33 114.4C126.33 114.4 126.76 130.4 126.33 137.34C125.9 144.28 118.91 145.02 118.91 145.02C118.91 145.02 119.08 149.08 119.24 153.35C119.286 154.576 119.083 155.799 118.642 156.944C118.202 158.09 117.534 159.134 116.679 160.013C115.824 160.893 114.799 161.59 113.666 162.062C112.533 162.534 111.317 162.772 110.09 162.76C107.773 162.732 105.555 161.817 103.89 160.205C102.226 158.593 101.242 156.405 101.14 154.09Z" fill="#FFBE9D"/>
<path d="M124.969 126.06C124.969 126.236 124.917 126.408 124.819 126.554C124.722 126.701 124.583 126.815 124.42 126.882C124.257 126.95 124.078 126.967 123.906 126.933C123.733 126.898 123.575 126.814 123.45 126.689C123.326 126.565 123.241 126.406 123.207 126.234C123.172 126.061 123.19 125.882 123.257 125.719C123.325 125.557 123.439 125.418 123.585 125.32C123.731 125.222 123.903 125.17 124.079 125.17C124.315 125.17 124.542 125.264 124.709 125.431C124.876 125.598 124.969 125.824 124.969 126.06Z" fill="#263238"/>
<path d="M125.829 125.09C125.709 125.21 125.059 124.65 124.099 124.6C123.139 124.55 122.429 125.01 122.329 124.88C122.229 124.75 122.399 124.61 122.709 124.4C123.13 124.123 123.63 123.989 124.133 124.02C124.636 124.051 125.115 124.244 125.499 124.57C125.789 124.82 125.879 125 125.829 125.09Z" fill="#263238"/>
<path d="M114.68 126.06C114.68 126.236 114.628 126.408 114.53 126.554C114.433 126.701 114.294 126.815 114.131 126.882C113.968 126.95 113.789 126.967 113.617 126.933C113.444 126.898 113.286 126.814 113.161 126.689C113.037 126.565 112.952 126.406 112.917 126.234C112.883 126.061 112.901 125.882 112.968 125.719C113.036 125.557 113.15 125.418 113.296 125.32C113.442 125.222 113.614 125.17 113.79 125.17C114.026 125.17 114.253 125.264 114.42 125.431C114.587 125.598 114.68 125.824 114.68 126.06Z" fill="#263238"/>
<path d="M115.23 125.089C115.11 125.209 114.46 124.649 113.5 124.599C112.54 124.549 111.83 125.009 111.73 124.879C111.63 124.749 111.8 124.609 112.11 124.399C112.519 124.123 113.006 123.983 113.5 123.999C114.003 124.032 114.483 124.225 114.87 124.549C115.19 124.819 115.28 124.999 115.23 125.089Z" fill="#263238"/>
<path d="M118.94 144.999C115.643 144.859 112.455 143.78 109.75 141.889C109.75 141.889 112.05 147.079 119.01 146.799L118.94 144.999Z" fill="#EB996E"/>
<path d="M118.68 133.169C119.19 133.044 119.714 132.976 120.24 132.969C120.48 132.969 120.72 132.969 120.78 132.749C120.807 132.481 120.759 132.21 120.64 131.969C120.433 131.349 120.213 130.682 119.98 129.969C119.53 128.559 119.14 127.279 118.87 126.349C118.693 125.851 118.575 125.334 118.52 124.809C118.782 125.265 118.987 125.752 119.13 126.259C119.46 127.179 119.9 128.439 120.35 129.849L120.98 131.849C121.124 132.162 121.155 132.515 121.07 132.849C121.034 132.934 120.98 133.01 120.91 133.07C120.841 133.131 120.759 133.175 120.67 133.199C120.53 133.212 120.389 133.212 120.25 133.199C119.727 133.251 119.2 133.241 118.68 133.169Z" fill="#263238"/>
<path d="M117.97 134C117.595 134.099 117.251 134.292 116.97 134.56C116.798 134.706 116.684 134.91 116.651 135.133C116.617 135.357 116.667 135.585 116.789 135.774C116.912 135.964 117.099 136.103 117.316 136.165C117.534 136.227 117.766 136.207 117.97 136.11C118.153 136.07 118.326 135.992 118.476 135.879C118.626 135.767 118.75 135.624 118.84 135.46C118.924 135.289 118.958 135.097 118.937 134.907C118.915 134.718 118.84 134.538 118.72 134.39C118.595 134.255 118.428 134.167 118.247 134.14C118.065 134.113 117.879 134.148 117.72 134.24" fill="#EB996E"/>
<path d="M116.879 134.167C116.915 134.032 117.735 134.024 118.429 134.717C119.123 135.41 119.136 136.252 118.993 136.245C118.85 136.238 118.639 135.632 118.061 135.084C117.484 134.536 116.859 134.317 116.879 134.167Z" fill="#263238"/>
<path d="M114.37 106.789C112.9 106.738 111.437 107.012 110.086 107.591C108.734 108.17 107.527 109.04 106.55 110.139C104.609 112.384 103.623 115.298 103.8 118.259C103.78 119.372 104.132 120.459 104.8 121.349C105.8 122.499 107.49 122.729 109.02 122.879C110.573 123.167 112.173 123.085 113.69 122.639C115.17 122.069 116.4 120.539 116.07 118.999C115.34 119.999 115.95 121.479 116.99 122.109C118.09 122.649 119.32 122.871 120.54 122.749H125.78C126.377 122.808 126.979 122.679 127.5 122.379C127.779 122.095 128 121.757 128.147 121.386C128.295 121.015 128.367 120.618 128.36 120.219C128.64 117.429 128.9 114.459 127.62 111.969C126.348 109.763 124.274 108.133 121.83 107.419C119.44 106.629 116.83 106.989 114.34 106.829" fill="#263238"/>
<path d="M99.5908 153.09C101.501 154.09 105.121 150.15 106.301 148.34C107.351 146.433 107.705 144.219 107.301 142.08C107.051 139.93 106.481 137.82 106.431 135.66C106.361 132.16 107.681 128.81 108.301 125.36C108.966 121.607 108.806 117.754 107.831 114.07C107.451 112.64 106.831 111.07 105.431 110.53C104.846 110.334 104.219 110.297 103.615 110.422C103.011 110.547 102.451 110.829 101.991 111.24C101.085 112.075 100.375 113.099 99.9108 114.24L98.8008 122.66L99.6308 134.45L99.5908 153.09Z" fill="#263238"/>
<path d="M149.931 197.488L155.031 214.888C155.031 214.888 128.341 224.598 113.891 224.418C100.341 224.258 96.4612 222.718 91.7012 211.778C86.9412 200.838 81.5012 188.278 80.3912 181.048C80.3912 181.048 69.5012 150.828 98.6612 153.808L102.661 176.808C102.661 176.808 105.891 187.478 106.121 188.098C108.301 193.858 111.121 202.298 113.851 203.318C116.581 204.338 149.931 197.488 149.931 197.488Z" fill="#349F6E"/>
<path d="M149.93 197.489C149.704 197.575 149.469 197.635 149.23 197.669L147.23 198.099C145.45 198.469 142.87 199.019 139.67 199.759C136.47 200.499 132.67 201.409 128.31 202.209C123.575 203.148 118.756 203.594 113.93 203.539H113.76L113.7 203.379C113.15 201.949 112.57 200.439 112.02 198.899C108.18 188.109 105.26 178.189 102.9 171.089C101.73 167.529 100.75 164.659 100.05 162.689C99.72 161.689 99.45 160.979 99.25 160.419C99.1415 160.158 99.0578 159.887 99 159.609C99 159.609 99.13 159.869 99.35 160.379C99.57 160.889 99.87 161.639 100.24 162.619C101 164.569 102.03 167.419 103.24 170.969C105.7 178.049 108.68 187.969 112.51 198.719C113.06 200.259 113.63 201.719 114.18 203.189L113.94 203.029C118.734 203.089 123.521 202.667 128.23 201.769C132.55 200.989 136.38 200.099 139.6 199.429C142.82 198.759 145.4 198.239 147.2 197.919L149.26 197.589C149.481 197.544 149.705 197.511 149.93 197.489Z" fill="#263238"/>
<path d="M155.029 214.889C154.781 215.033 154.52 215.153 154.249 215.249C153.729 215.469 152.959 215.769 151.959 216.139C149.959 216.879 147.019 217.859 143.349 218.929C139.679 219.999 135.289 221.169 130.399 222.409C125.109 223.885 119.686 224.833 114.209 225.239C112.762 225.307 111.311 225.271 109.869 225.129C108.457 224.999 107.065 224.707 105.719 224.259C103.2 223.346 100.89 221.935 98.9294 220.109C95.6849 216.979 92.9816 213.333 90.9294 209.319C89.1294 205.949 87.9294 203.109 87.0694 201.139C86.6594 200.139 86.3494 199.389 86.1494 198.859C86.0285 198.601 85.9314 198.334 85.8594 198.059C86.0121 198.298 86.1394 198.553 86.2394 198.819C86.4894 199.379 86.8294 200.119 87.2394 201.059C88.1294 202.999 89.3994 205.809 91.2394 209.149C93.3133 213.093 96.0153 216.673 99.2394 219.749C101.163 221.508 103.416 222.868 105.869 223.749C107.167 224.177 108.509 224.456 109.869 224.579C111.288 224.721 112.715 224.758 114.139 224.689C119.58 224.288 124.969 223.357 130.229 221.909C135.129 220.699 139.529 219.579 143.229 218.549C146.929 217.519 149.849 216.549 151.869 215.919L154.189 215.119C154.463 215.02 154.744 214.944 155.029 214.889Z" fill="#263238"/>
<path opacity="0.2" d="M90.7012 209.139C90.7012 209.139 95.7012 228.339 108.701 227.949C121.701 227.559 133.911 221.999 133.911 221.999L133.331 221.399C133.331 221.399 111.331 226.139 105.221 223.159C93.6112 217.519 90.7012 209.139 90.7012 209.139Z" fill="black"/>
<path d="M153.221 212.888H157.311C161.021 212.528 163.091 212.468 164.131 211.488C165.521 210.158 163.611 208.868 163.611 208.868C163.611 208.868 166.291 207.938 166.041 206.308C165.871 205.188 164.601 205.068 164.601 205.068C164.601 205.068 166.971 204.138 167.441 203.148C168.071 201.808 166.441 201.088 166.441 201.088C169.671 199.088 169.381 197.088 168.631 196.928C167.881 196.768 165.371 197.928 165.371 197.928C163.241 198.538 157.431 200.308 159.581 197.108C161.731 193.908 162.181 190.638 161.691 189.668C161.554 189.457 161.354 189.294 161.12 189.202C160.886 189.109 160.629 189.092 160.385 189.153C160.141 189.213 159.921 189.348 159.757 189.539C159.594 189.73 159.493 189.968 159.471 190.218C159.139 191.477 158.631 192.682 157.961 193.798C157.455 194.717 156.799 195.546 156.021 196.248C155.111 197.058 154.301 197.708 153.611 198.248L149.971 201.748L153.221 212.888Z" fill="#FFBE9D"/>
</g>
<defs>
<clipPath id="clip0_4061_23723">
<rect width="500" height="418" fill="white" transform="translate(0.5)"/>
</clipPath>
</defs>
</svg>
