<svg width="9" height="17" viewBox="0 0 9 17" fill="none" xmlns="http://www.w3.org/2000/svg">
<path d="M0.789314 9.44299H2.54317V16.6633C2.54317 16.8059 2.65868 16.9214 2.80124 16.9214H5.77497C5.91752 16.9214 6.03303 16.8059 6.03303 16.6633V9.477H8.04924C8.18033 9.477 8.29063 9.37863 8.3056 9.24841L8.61182 6.59024C8.62023 6.5171 8.59706 6.44386 8.54813 6.389C8.49915 6.33408 8.42906 6.30265 8.35551 6.30265H6.03313V4.63638C6.03313 4.13408 6.30359 3.87937 6.83706 3.87937C6.91308 3.87937 8.35551 3.87937 8.35551 3.87937C8.49806 3.87937 8.61357 3.76381 8.61357 3.62131V1.18136C8.61357 1.03881 8.49806 0.923296 8.35551 0.923296H6.26286C6.2481 0.922574 6.21533 0.921387 6.16702 0.921387C5.80392 0.921387 4.54183 0.992664 3.54488 1.90983C2.44026 2.92619 2.5938 4.14312 2.6305 4.35411V6.3026H0.789314C0.64676 6.3026 0.53125 6.41811 0.53125 6.56066V9.18487C0.53125 9.32743 0.64676 9.44299 0.789314 9.44299Z" fill="white"/>
</svg>
