<svg width="13" height="24" viewBox="0 0 13 24" fill="none" xmlns="http://www.w3.org/2000/svg">
<path d="M0.387097 12.7824H3.01788V23.6129C3.01788 23.8267 3.19115 24 3.40498 24H7.86557C8.07941 24 8.25267 23.8267 8.25267 23.6129V12.8334H11.277C11.4736 12.8334 11.6391 12.6859 11.6615 12.4905L12.1209 8.50328C12.1335 8.39357 12.0987 8.28372 12.0253 8.20142C11.9518 8.11905 11.8467 8.0719 11.7364 8.0719H8.25283V5.57249C8.25283 4.81905 8.6585 4.43698 9.45871 4.43698C9.57275 4.43698 11.7364 4.43698 11.7364 4.43698C11.9502 4.43698 12.1235 4.26364 12.1235 4.04988V0.389961C12.1235 0.176129 11.9502 0.00286452 11.7364 0.00286452H8.59742C8.57528 0.00178065 8.52612 0 8.45365 0C7.90901 0 6.01587 0.106916 4.52044 1.48266C2.86351 3.0072 3.09383 4.83259 3.14888 5.14908V8.07182H0.387097C0.173265 8.07182 0 8.24508 0 8.45892V12.3952C0 12.6091 0.173265 12.7824 0.387097 12.7824Z" fill="#272828"/>
</svg>
