<svg width="378" height="350" viewBox="0 0 378 350" fill="none" xmlns="http://www.w3.org/2000/svg">
<g clip-path="url(#clip0_4099_25405)">
<path d="M194.353 2.08678C189.858 -0.0359306 184.86 -0.275517 181.682 0.208443C178.706 0.661255 174.397 1.79692 170.773 4.63598C168.523 6.39932 166.847 8.59628 165.793 11.1638C164.544 14.2057 164.163 17.7931 164.661 21.8245C164.736 22.4291 165.045 22.9657 165.532 23.3347C166.021 23.7052 166.625 23.8586 167.231 23.7667L175.035 22.5792C176.137 22.4115 176.958 21.446 176.946 20.3327C176.92 17.833 177.746 13.4918 183.57 12.5023C188.01 11.7508 190.333 14.6913 191.127 15.9906C192.419 18.1054 192.586 20.8215 191.574 23.2556C190.018 26.9955 186.278 28.1008 184.187 28.4266C181.782 28.802 180.122 31.0525 180.486 33.4451L181.764 41.8425C181.95 43.0684 183.1 43.9149 184.326 43.7281L191.929 42.5709C193.156 42.384 194.002 41.2348 193.815 40.0089L193.546 38.2448L193.6 38.141C195.23 37.2745 198.346 35.3067 200.898 31.8591C204.157 27.4579 205.354 22.2358 204.456 16.3373C203.172 7.89512 198.253 3.92838 194.353 2.08678Z" fill="#E7E8E5"/>
<path d="M188.828 45.2043L188.163 45.3058C184.984 45.7897 182.79 48.7701 183.274 51.9502C183.758 55.1303 186.738 57.3233 189.918 56.8393L190.584 56.7387C193.763 56.2547 195.957 53.2743 195.473 50.0942C194.989 46.9142 192.008 44.7212 188.828 45.2043Z" fill="#E7E8E5"/>
<path d="M37.7329 137.645C35.4743 134.82 32.2855 133.066 30.0543 132.366C27.9645 131.71 24.7863 131.074 21.5101 131.771C19.4755 132.203 17.6783 133.102 16.1681 134.443C14.3794 136.031 12.9837 138.253 12.0197 141.047C11.875 141.466 11.9055 141.915 12.1058 142.312C12.3068 142.711 12.6524 143.004 13.0782 143.138L18.5571 144.857C19.3302 145.1 20.1759 144.732 20.524 144.001C21.3061 142.359 23.234 139.786 27.3565 141.003C30.4976 141.931 31.0754 144.595 31.1786 145.698C31.3468 147.494 30.5875 149.322 29.1475 150.589C26.9348 152.535 24.1374 152.061 22.6668 151.605C20.9757 151.081 19.1708 152.021 18.6438 153.7L16.793 159.596C16.5229 160.457 17.0032 161.378 17.8642 161.647L23.2025 163.323C24.0635 163.594 24.9838 163.113 25.2543 162.252L25.643 161.013L25.7106 160.962C27.0533 160.918 29.719 160.628 32.4888 159.192C36.0252 157.358 38.4775 154.329 39.7774 150.187C41.6376 144.261 39.6923 140.096 37.7329 137.645Z" fill="#E7E8E5"/>
<path d="M20.3335 164.053L19.8665 163.907C17.6342 163.205 15.2477 164.451 14.5467 166.684C13.846 168.916 15.0924 171.303 17.3247 172.004L17.7917 172.151C20.024 172.851 22.4105 171.605 23.1115 169.372C23.8122 167.14 22.5659 164.754 20.3335 164.053Z" fill="#E7E8E5"/>
<path d="M274.422 328.99C293.859 328.146 318.516 321.939 333.595 309.256C312.782 309.795 291.735 316.814 274.422 328.99Z" fill="#E7E8E5"/>
<path d="M287.945 306.004C307.383 305.159 332.039 298.953 347.119 286.269C326.306 286.808 305.258 293.828 287.945 306.004Z" fill="#E7E8E5"/>
<path d="M302.48 284.107C321.918 283.263 346.574 277.057 361.654 264.373C340.841 264.911 319.794 271.931 302.48 284.107Z" fill="#E7E8E5"/>
<path d="M318.703 261.521C338.038 258.299 361.872 249.165 375.246 234.845C354.494 237.936 334.381 247.424 318.703 261.521Z" fill="#E7E8E5"/>
<path d="M332.961 244.855C350.129 235.03 369.262 218.267 376.385 200.573C357.813 210.787 342.368 226.538 332.961 244.855Z" fill="#E7E8E5"/>
<path d="M326.051 252.734C331.338 233.452 332.98 207.529 325.222 189.145C319.2 209.688 319.495 232.306 326.051 252.734Z" fill="#E7E8E5"/>
<path d="M312.295 271.158C316.042 250.706 315.375 223.637 305.588 205.135C301.19 226.956 303.575 250.439 312.295 271.158Z" fill="#E7E8E5"/>
<path d="M295.905 293.756C299.652 273.304 298.985 246.234 289.197 227.733C284.799 249.554 287.185 273.037 295.905 293.756Z" fill="#E7E8E5"/>
<path d="M278.432 322.385C282.179 301.932 281.512 274.863 271.724 256.362C267.326 278.182 269.712 301.666 278.432 322.385Z" fill="#E7E8E5"/>
<path d="M271.775 332.959C268.959 338.157 266.753 342.403 265.294 345.369C264.586 346.809 264.026 347.95 263.616 348.786C263.447 349.147 263.31 349.441 263.197 349.683C263.106 349.887 263.065 349.994 263.076 350C263.087 350.005 263.151 349.91 263.264 349.717C263.395 349.484 263.554 349.2 263.748 348.853C264.189 348.033 264.79 346.914 265.549 345.5C267.085 342.577 269.36 338.371 272.231 333.21C275.087 328.04 278.617 321.956 282.634 315.259C286.686 308.584 291.257 301.314 296.242 293.805C306.235 278.806 316.011 265.729 323.311 256.442C326.959 251.798 329.953 248.069 332.051 245.516C333.058 244.268 333.856 243.28 334.442 242.555C334.686 242.241 334.886 241.984 335.049 241.773C335.183 241.594 335.247 241.499 335.237 241.491C335.227 241.482 335.144 241.562 334.992 241.725C334.813 241.923 334.595 242.164 334.328 242.459C333.716 243.163 332.884 244.122 331.831 245.333C329.664 247.829 326.607 251.511 322.902 256.118C315.491 265.33 305.635 278.377 295.629 293.396" fill="#DADBD8"/>
<path d="M238.229 198.504C245.323 180.99 249.785 156.702 244.662 138.263C236.742 156.869 234.454 178.296 238.229 198.504Z" fill="#E7E8E5"/>
<path d="M223.374 177.285C230.468 159.772 234.93 135.483 229.807 117.045C221.887 135.65 219.599 157.077 223.374 177.285Z" fill="#E7E8E5"/>
<path d="M209.889 155.609C216.983 138.096 221.445 113.808 216.322 95.3684C208.402 113.975 206.114 135.401 209.889 155.609Z" fill="#E7E8E5"/>
<path d="M196.479 132.168C201.431 113.785 202.975 89.0429 195.718 71.4494C190.077 91.0322 190.348 112.629 196.479 132.168Z" fill="#E7E8E5"/>
<path d="M187.503 112.846C185.747 93.7141 178.654 70.0481 165.895 56.6178C167.427 77.1461 175.113 97.1458 187.503 112.846Z" fill="#E7E8E5"/>
<path d="M191.678 122.131C176.774 109.682 154.533 97.7748 135.16 97.2141C150.882 110.821 170.984 119.684 191.678 122.131Z" fill="#E7E8E5"/>
<path d="M202.41 141.715C185.851 130.155 161.665 119.825 141.371 121.01C158.875 133.698 180.586 141.062 202.41 141.715Z" fill="#E7E8E5"/>
<path d="M215.761 165.312C199.203 153.753 175.017 143.423 154.723 144.608C172.227 157.295 193.938 164.66 215.761 165.312Z" fill="#E7E8E5"/>
<path d="M234.011 192.297C217.452 180.737 193.267 170.407 172.973 171.591C190.477 184.28 212.188 191.644 234.011 192.297Z" fill="#E7E8E5"/>
<path d="M240.667 202.447C244.124 207.031 246.986 210.692 249.018 213.178C250.005 214.383 250.786 215.339 251.361 216.039C251.611 216.333 251.815 216.573 251.984 216.771C252.127 216.933 252.206 217.013 252.215 217.005C252.225 216.997 252.166 216.903 252.04 216.726C251.888 216.516 251.701 216.261 251.473 215.949C250.925 215.228 250.18 214.246 249.237 213.006C247.273 210.469 244.475 206.762 241.073 202.144C237.657 197.535 233.706 191.962 229.409 185.712C225.145 179.439 220.566 172.468 215.943 165.035C206.721 150.156 199.111 136.243 193.85 126.048C191.219 120.951 189.131 116.803 187.723 113.919C187.027 112.525 186.476 111.422 186.071 110.612C185.892 110.269 185.745 109.99 185.625 109.76C185.521 109.57 185.462 109.475 185.451 109.479C185.44 109.485 185.477 109.59 185.559 109.791C185.662 110.029 185.787 110.319 185.941 110.673C186.315 111.497 186.826 112.621 187.472 114.039C188.804 116.961 190.823 121.146 193.4 126.278C198.549 136.541 206.101 150.513 215.335 165.412L240.667 202.447Z" fill="#DADBD8"/>
<path d="M373.538 129.941C370.266 126.053 365.726 123.7 362.567 122.794C359.609 121.946 355.122 121.164 350.545 122.256C347.702 122.935 345.208 124.261 343.134 126.198C340.677 128.491 338.795 131.661 337.539 135.619C337.349 136.212 337.408 136.842 337.703 137.393C337.999 137.946 338.495 138.345 339.098 138.519L346.854 140.743C347.948 141.057 349.123 140.51 349.587 139.471C350.629 137.137 353.246 133.456 359.08 135.021C363.525 136.215 364.429 139.936 364.613 141.483C364.912 143.999 363.909 146.593 361.931 148.423C358.891 151.233 354.944 150.665 352.863 150.077C350.469 149.4 347.967 150.784 347.286 153.161L344.892 161.507C344.542 162.726 345.25 164.002 346.469 164.351L354.025 166.518C355.244 166.868 356.52 166.161 356.87 164.941L357.372 163.189L357.466 163.115C359.35 163.005 363.085 162.505 366.925 160.391C371.829 157.692 375.167 153.35 376.848 147.487C379.254 139.098 376.376 133.315 373.538 129.941Z" fill="#E7E8E5"/>
<path d="M350.018 167.643L349.357 167.453C346.197 166.546 342.888 168.381 341.982 171.541C341.075 174.702 342.909 178.01 346.07 178.916L346.731 179.106C349.891 180.013 353.2 178.178 354.106 175.018C355.013 171.857 353.178 168.549 350.018 167.643Z" fill="#E7E8E5"/>
<path d="M117.599 198.232C113.832 195.414 109.244 194.246 106.206 194.093C103.36 193.95 99.1508 194.188 95.2536 196.135C92.833 197.344 90.8636 199.063 89.4006 201.245C87.6676 203.829 86.6358 207.083 86.3347 210.915C86.29 211.49 86.4752 212.046 86.857 212.481C87.2403 212.917 87.7706 213.173 88.3512 213.202L95.811 213.577C96.8636 213.631 97.8083 212.89 98.008 211.857C98.456 209.534 100.043 205.665 105.631 205.849C109.889 205.992 111.487 209.158 111.977 210.513C112.775 212.719 112.417 215.268 111.017 217.334C108.868 220.507 105.191 220.824 103.19 220.73C100.889 220.623 98.924 222.396 98.809 224.683L98.4049 232.71C98.3458 233.883 99.2522 234.885 100.424 234.944L107.693 235.31C108.865 235.368 109.867 234.463 109.926 233.29L110.01 231.603L110.08 231.518C111.755 231.023 115.017 229.787 118.036 227.074C121.889 223.61 123.987 218.994 124.27 213.356C124.676 205.286 120.866 200.677 117.599 198.232Z" fill="#E7E8E5"/>
<path d="M104.32 237.165L103.684 237.133C100.645 236.979 98.0471 239.328 97.8937 242.368C97.7412 245.408 100.09 248.006 103.129 248.158L103.765 248.19C106.805 248.343 109.403 245.995 109.556 242.954C109.708 239.915 107.36 237.317 104.32 237.165Z" fill="#E7E8E5"/>
<path d="M78.8125 340.41H85.7133C89.7743 325.939 91.7285 309.836 89.0691 296.374C82.8399 309.869 79.35 325.072 78.8125 340.41Z" fill="#E7E8E5"/>
<path d="M77.5036 273.256C69.0187 291.637 65.5984 313.181 67.8367 333.928C67.9137 334.09 67.9917 334.255 68.0691 334.418C75.7424 316.883 81.2851 292.4 77.5036 273.256Z" fill="#E7E8E5"/>
<path d="M59.2979 247.39C53.0794 266.341 51.9283 287.526 55.98 307.269C56.2299 307.868 56.4866 308.481 56.7464 309.098C62.3611 290.586 65.1042 265.68 59.2979 247.39Z" fill="#E7E8E5"/>
<path d="M47.4342 286.16C47.3671 285.949 47.3384 285.839 47.3493 285.834C47.3602 285.83 47.4108 285.93 47.4987 286.133C47.5995 286.376 47.723 286.673 47.8734 287.037C47.9944 287.344 48.137 287.706 48.2896 288.093C48.564 288.535 48.828 288.986 49.1088 289.422C48.5429 269.651 43.165 244.887 31.8125 230.289C32.0755 250.639 37.7706 270.829 47.8456 287.372C47.8129 287.28 47.7764 287.177 47.7461 287.092C47.6207 286.717 47.5181 286.412 47.4342 286.16Z" fill="#E7E8E5"/>
<path d="M52.194 299.15C52.136 299.001 52.0792 298.854 52.0221 298.706C38.5717 285.162 18.4092 271.857 0.261719 270.097C14.3354 284.972 32.7946 295.291 52.194 299.15Z" fill="#E7E8E5"/>
<path d="M61.6099 320.021C61.5353 319.958 61.4577 319.895 61.3828 319.831L61.4599 320.004L61.6099 320.021Z" fill="#E7E8E5"/>
<path d="M4.79297 294.938C20.4748 308.87 40.3415 317.725 60.7395 319.918C60.5935 319.583 60.4534 319.258 60.31 318.927C45.2711 306.432 23.6003 294.984 4.79297 294.938Z" fill="#E7E8E5"/>
<path d="M16.125 320.021C26.396 329.147 38.4662 336.082 51.3005 340.41H67.0843C52.4235 329.401 33.1071 320.063 16.125 320.021Z" fill="#E7E8E5"/>
<path d="M53.9363 303.595C55.717 308.093 57.8573 313.277 60.3099 318.927C60.4534 319.258 60.5935 319.584 60.7394 319.919C63.5121 326.272 66.6801 333.199 70.1837 340.41H70.9511C69.9647 338.388 69.0039 336.389 68.0699 334.419C67.9925 334.256 67.9145 334.091 67.8374 333.93C65.5427 329.076 63.4098 324.404 61.4591 320.004L61.3821 319.831C59.696 316.024 58.1493 312.431 56.747 309.098C56.4871 308.481 56.2305 307.868 55.9806 307.269C55.4212 305.928 54.8846 304.628 54.3777 303.386C52.1706 297.984 50.4258 293.591 49.2535 290.539C48.8807 289.593 48.5632 288.787 48.2902 288.094C48.1377 287.707 47.995 287.345 47.874 287.038C47.7237 286.675 47.6001 286.377 47.4993 286.134C47.4114 285.932 47.3608 285.831 47.3499 285.835C47.339 285.84 47.3677 285.95 47.4348 286.162C47.5187 286.414 47.6213 286.719 47.7467 287.093C47.777 287.179 47.8135 287.281 47.8462 287.374C48.1445 288.214 48.5288 289.297 49.008 290.648C49.7539 292.745 50.774 295.474 52.0231 298.707C52.0802 298.854 52.1369 299.001 52.1949 299.151C52.7356 300.547 53.3136 302.023 53.9363 303.595Z" fill="#DADBD8"/>
<path d="M362.54 340.096C362.54 340.216 283.734 340.314 186.546 340.314C89.3232 340.314 10.5352 340.216 10.5352 340.096C10.5352 339.976 89.3232 339.878 186.546 339.878C283.734 339.878 362.54 339.976 362.54 340.096Z" fill="#17282F"/>
<path d="M68.4604 60.4694C68.4604 74.6743 56.9448 86.1895 42.7401 86.1895C28.5351 86.1895 17.0195 74.6743 17.0195 60.4694C17.0195 46.2644 28.5351 34.7484 42.7401 34.7484C56.9448 34.7484 68.4604 46.2644 68.4604 60.4694Z" fill="white"/>
<path d="M68.4625 60.4697C68.4625 60.4697 68.4445 60.3284 68.4252 60.0529C68.4067 59.767 68.3808 59.3613 68.3471 58.8326C68.3312 58.5634 68.3134 58.2632 68.2938 57.9333C68.2592 57.6043 68.189 57.2473 68.1313 56.8592C68.0698 56.4711 68.0033 56.0534 67.9326 55.607C67.8792 55.1574 67.7123 54.7005 67.5969 54.2046C67.1443 52.2185 66.2149 49.8705 64.749 47.3821C63.271 44.9032 61.1387 42.3141 58.2344 40.1163C57.8697 39.8448 57.5007 39.57 57.1273 39.2913C56.7383 39.0366 56.3286 38.8034 55.9234 38.5542C55.5101 38.3186 55.1186 38.0327 54.675 37.8323C54.2367 37.6214 53.7937 37.409 53.346 37.195C53.1221 37.0887 52.8968 36.9817 52.6703 36.8739C52.4348 36.7885 52.198 36.7022 51.9603 36.616C51.4849 36.4427 51.0048 36.2678 50.5203 36.0913C50.0312 35.93 49.5192 35.8253 49.0126 35.688C48.501 35.5722 47.9978 35.3917 47.4644 35.3374C46.4065 35.1872 45.3374 34.9692 44.2293 34.9636C43.6778 34.9445 43.1222 34.8902 42.5619 34.8989C42.0019 34.9277 41.4376 34.9572 40.8693 34.9868C40.5857 35.006 40.2987 35.0044 40.0148 35.0419L39.1619 35.1729C38.5929 35.2679 38.0139 35.3342 37.4415 35.4524C36.3128 35.7599 35.1436 35.9891 34.0318 36.4539C32.8847 36.8204 31.806 37.3874 30.6973 37.9185C30.1572 38.2116 29.6397 38.5526 29.105 38.8697C28.8436 39.0374 28.5644 39.1803 28.3152 39.3688L27.5627 39.9334C26.5232 40.6466 25.6142 41.5386 24.6624 42.3979C24.2316 42.8723 23.7983 43.3499 23.3631 43.829L23.0362 44.1884L22.7426 44.5773L22.1577 45.3608L21.5697 46.1466L21.0549 46.9883L20.5411 47.8349L20.2831 48.2589L20.0648 48.7062C19.7765 49.3043 19.4874 49.9057 19.1969 50.5094C18.9667 51.138 18.7356 51.7681 18.5034 52.4021C17.6699 54.9673 17.221 57.6922 17.1842 60.4657C17.2207 63.2401 17.6683 65.9658 18.5016 68.5325C18.7336 69.1658 18.9648 69.7975 19.195 70.426C19.4855 71.029 19.7749 71.6303 20.0632 72.2293L20.2813 72.6765L20.5392 73.1014L21.0534 73.9479L21.5678 74.7896L22.1559 75.5763L22.7411 76.3597L23.0346 76.7486L23.3615 77.1088C23.7968 77.588 24.23 78.0648 24.6612 78.5399C25.613 79.3993 26.522 80.2921 27.5614 81.0053L28.3142 81.5691C28.5631 81.7583 28.8426 81.9013 29.1043 82.069C29.6391 82.3861 30.1566 82.7271 30.6966 83.0202C31.8056 83.552 32.8847 84.1183 34.0318 84.4856C35.1436 84.9504 36.3131 85.1796 37.4421 85.4863C38.0145 85.6053 38.5935 85.6716 39.1629 85.7658L40.0157 85.8976C40.2996 85.9343 40.5866 85.9327 40.8702 85.9527C41.4386 85.9822 42.0029 86.011 42.5632 86.0397C43.1232 86.0485 43.679 85.995 44.2306 85.9758C45.3387 85.9694 46.4077 85.7514 47.4656 85.6013C47.9994 85.547 48.5026 85.3665 49.0142 85.2507C49.5208 85.1133 50.0327 85.0095 50.5219 84.8474C51.0063 84.6709 51.4864 84.496 51.9618 84.3227C52.1999 84.2356 52.4367 84.1494 52.6722 84.0639C52.8984 83.9569 53.1236 83.8499 53.3479 83.7437C53.7952 83.5289 54.2382 83.3164 54.6768 83.1064C55.1201 82.9052 55.5117 82.6193 55.9253 82.3845C56.3302 82.1345 56.7401 81.9013 57.1289 81.6465C57.5019 81.3678 57.8713 81.0931 58.236 80.8216C61.1403 78.6238 63.2722 76.0339 64.7496 73.5566C66.2155 71.0673 67.1448 68.7202 67.5972 66.7332C67.7126 66.2373 67.8795 65.7813 67.9329 65.3309C68.0033 64.8853 68.0698 64.4676 68.1313 64.0795C68.189 63.6913 68.2595 63.3344 68.2938 63.0053C68.3134 62.6755 68.3312 62.376 68.3471 62.1061C68.3808 61.5774 68.4067 61.1717 68.4252 60.8858C68.4445 60.6103 68.4625 60.4697 68.4625 60.4697C68.4625 60.4697 68.4666 60.6103 68.4582 60.8866C68.4473 61.1733 68.4323 61.5798 68.4124 62.1101C68.4011 62.3808 68.3887 62.6819 68.3746 63.0133C68.3453 63.3439 68.2797 63.7025 68.227 64.093C68.1697 64.4836 68.1082 64.9036 68.0424 65.3516C67.9937 65.8053 67.8308 66.2645 67.7195 66.7636C67.2837 68.7649 66.3671 71.1336 64.9056 73.6492C63.4325 76.1537 61.2963 78.7747 58.3751 81.0045C58.0079 81.28 57.6367 81.5587 57.2611 81.8406C56.8699 82.0993 56.4571 82.3365 56.0491 82.5897C55.633 82.8293 55.2381 83.1184 54.7913 83.3236C54.3496 83.5369 53.9029 83.7533 53.4518 83.9713C53.2256 84.0791 52.9985 84.1877 52.7701 84.2971C52.5328 84.385 52.2941 84.4728 52.0542 84.5607C51.5744 84.7372 51.0899 84.9153 50.6008 85.0949C50.1073 85.2603 49.5904 85.3673 49.0791 85.5078C48.5625 85.626 48.054 85.8089 47.5152 85.8664C46.4468 86.0213 45.3664 86.2434 44.2468 86.2529C43.6893 86.2737 43.1272 86.3288 42.561 86.3216C41.9948 86.2937 41.4242 86.2657 40.8496 86.237C40.5626 86.2178 40.2725 86.2202 39.9854 86.1827L39.1226 86.0525C38.5467 85.9582 37.9609 85.892 37.3816 85.773C36.2388 85.4655 35.0556 85.2347 33.9297 84.7667C32.7683 84.397 31.6756 83.826 30.5528 83.2885C30.006 82.993 29.4812 82.6488 28.94 82.3286C28.6748 82.1593 28.3919 82.0147 28.1395 81.8238L27.3768 81.2544C26.3242 80.5333 25.4027 79.6316 24.4388 78.7619C24.0017 78.282 23.5628 77.7996 23.1216 77.3149L22.7904 76.9507L22.4927 76.557L21.8997 75.7648L21.3039 74.9685L20.782 74.1172L20.261 73.2595L19.9996 72.8299L19.7781 72.377C19.4861 71.7709 19.1928 71.1624 18.8984 70.5514C18.6647 69.9149 18.4304 69.276 18.1952 68.634C17.3498 66.0353 16.8959 63.2745 16.8594 60.4657C16.8962 57.6578 17.3513 54.8978 18.1967 52.2999C18.4323 51.6586 18.6666 51.0197 18.9002 50.3833C19.1948 49.7723 19.4879 49.1646 19.78 48.5584L20.0018 48.1056L20.2629 47.6759L20.7838 46.819L21.3057 45.9685L21.9013 45.1723L22.4946 44.3801L22.7922 43.9864L23.1232 43.6222C23.5643 43.1374 24.0032 42.6559 24.44 42.1751C25.404 41.3062 26.3255 40.4046 27.378 39.6834L28.1404 39.1148C28.3931 38.924 28.6757 38.7794 28.9406 38.6101C29.4822 38.2899 30.0065 37.9457 30.5534 37.6502C31.6759 37.1127 32.7686 36.5417 33.9297 36.1719C35.0556 35.7048 36.2385 35.4739 37.3812 35.1665C37.9602 35.0475 38.5458 34.9804 39.122 34.887L39.9846 34.756C40.2715 34.7193 40.5616 34.7209 40.8487 34.7017C41.4233 34.6737 41.9939 34.645 42.5601 34.617C43.1263 34.6099 43.6881 34.665 44.2452 34.6857C45.3652 34.6953 46.4452 34.9173 47.5136 35.0731C48.0524 35.1298 48.5609 35.3126 49.0775 35.4308C49.5888 35.5714 50.1054 35.6784 50.5992 35.8429C51.0884 36.0234 51.5728 36.2015 52.0523 36.378C52.2925 36.4658 52.5308 36.5537 52.7686 36.6415C52.9969 36.7501 53.224 36.8587 53.4502 36.9666C53.9013 37.1854 54.3477 37.401 54.7897 37.615C55.2365 37.8195 55.6315 38.1094 56.0475 38.3482C56.4556 38.6013 56.868 38.8385 57.2595 39.0973C57.6351 39.3792 58.0067 39.6579 58.3735 39.9334C61.295 42.1631 63.4313 44.7842 64.905 47.2886C66.3665 49.8043 67.2834 52.1729 67.7195 54.1743C67.8308 54.6734 67.9933 55.1334 68.0424 55.5862C68.1082 56.035 68.1697 56.4551 68.2267 56.8456C68.2797 57.2361 68.3453 57.5947 68.3746 57.9253C68.3887 58.2568 68.4011 58.5579 68.4124 58.8286C68.4323 59.3589 68.4473 59.7662 68.4582 60.0529C68.4666 60.3284 68.4625 60.4697 68.4625 60.4697Z" fill="#17282F"/>
<path d="M33.5907 56.0597H38.4769C38.4769 56.0597 38.4769 51.9572 42.7411 51.8837C44.9554 51.8454 46.1034 53.2956 46.57 54.4073C47.1116 55.6979 46.9475 57.1681 46.2219 58.3644C45.393 59.7309 43.5768 60.9735 40.2837 60.3929V67.5645H45.1154V64.957C45.1154 64.957 51.8924 63.2056 51.8924 55.737C51.8924 48.5918 45.4842 46.9323 42.7414 46.9323C40.6438 46.9323 33.4984 47.4394 33.5907 56.0597Z" fill="#349F6E"/>
<path d="M45.1732 74.0059H40.2695V69.4258H45.1732V74.0059Z" fill="#349F6E"/>
<path d="M69.6267 84.5341C69.6267 86.7024 67.8685 88.4609 65.7001 88.4609C63.5313 88.4609 61.7734 86.7024 61.7734 84.5341C61.7734 82.3651 63.5313 80.6074 65.7001 80.6074C67.8685 80.6074 69.6267 82.3651 69.6267 84.5341Z" fill="white"/>
<path d="M69.629 84.5337C69.5944 84.5353 69.6069 84.184 69.445 83.5906C69.2847 83.0076 68.8862 82.1571 68.0084 81.5038C67.1602 80.8482 65.7648 80.4832 64.4159 80.9863C63.7514 81.2275 63.1182 81.6811 62.6683 82.3064C62.206 82.9246 61.9461 83.716 61.938 84.533C61.9458 85.3499 62.2057 86.1422 62.6683 86.7603C63.1179 87.3864 63.7514 87.84 64.4159 88.0804C65.7651 88.5843 67.1605 88.2186 68.0087 87.5629C68.8866 86.9096 69.2847 86.0591 69.445 85.4769C69.6069 84.8835 69.5944 84.5314 69.629 84.5337C69.6403 84.5337 69.6468 84.62 69.649 84.7861C69.6543 84.9514 69.6353 85.1982 69.5676 85.5073C69.44 86.1174 69.0597 87.0286 68.1478 87.7458C67.2675 88.4645 65.7773 88.8894 64.3139 88.3623C63.5933 88.11 62.9032 87.6244 62.4119 86.948C61.9072 86.2811 61.6205 85.4194 61.6133 84.533C61.6208 83.6465 61.9075 82.7848 62.4122 82.1179C62.9035 81.4423 63.5933 80.9576 64.3139 80.7052C65.7773 80.1773 67.2672 80.603 68.1475 81.3209C69.0594 82.0381 69.44 82.9493 69.5676 83.5594C69.6353 83.8685 69.6543 84.1153 69.649 84.2814C69.6468 84.4475 69.6403 84.5337 69.629 84.5337Z" fill="#17282F"/>
<path d="M355.66 44.4964C355.66 59.424 343.559 71.5254 328.631 71.5254C313.703 71.5254 301.602 59.424 301.602 44.4964C301.602 29.5687 313.703 17.4673 328.631 17.4673C343.559 17.4673 355.66 29.5687 355.66 44.4964Z" fill="white"/>
<path d="M355.663 44.4961C355.663 44.4961 355.643 44.3476 355.623 44.0585C355.604 43.7582 355.576 43.3309 355.541 42.7759C355.524 42.4924 355.505 42.1777 355.485 41.8311C355.449 41.4845 355.375 41.11 355.314 40.7019C355.25 40.2938 355.179 39.8554 355.105 39.3866C355.049 38.9138 354.874 38.4338 354.752 37.9131C354.277 35.8248 353.3 33.3579 351.76 30.7424C350.206 28.1381 347.966 25.4165 344.913 23.1077C344.53 22.8218 344.143 22.5327 343.75 22.2404C343.342 21.9728 342.911 21.7277 342.486 21.4649C342.051 21.2182 341.639 20.9179 341.173 20.707C340.713 20.4858 340.247 20.2622 339.777 20.037C339.541 19.9252 339.305 19.8134 339.067 19.7008C338.819 19.6105 338.571 19.5195 338.321 19.4285C337.821 19.2472 337.316 19.0627 336.807 18.8774C336.293 18.7073 335.755 18.5979 335.223 18.4534C334.685 18.332 334.156 18.1419 333.595 18.0852C332.484 17.9279 331.361 17.6987 330.196 17.6915C329.617 17.6723 329.032 17.6156 328.443 17.6244C327.856 17.6547 327.262 17.6859 326.665 17.7163C326.367 17.737 326.065 17.7354 325.767 17.7745L324.87 17.9127C324.272 18.0117 323.665 18.082 323.062 18.2058C321.876 18.5292 320.647 18.7696 319.48 19.2576C318.274 19.6433 317.141 20.2391 315.976 20.7981C315.408 21.1055 314.864 21.4641 314.302 21.7971C314.028 21.9736 313.734 22.1238 313.472 22.3218L312.681 22.9144C311.589 23.6643 310.634 24.6019 309.634 25.5051C309.181 26.0034 308.726 26.505 308.268 27.0089L307.925 27.3866L307.616 27.7955L307.002 28.6181L306.383 29.4447L305.843 30.3287L305.302 31.2184L305.031 31.664L304.802 32.1344C304.499 32.7629 304.195 33.3946 303.89 34.0287C303.648 34.6891 303.405 35.352 303.161 36.018C302.285 38.7141 301.814 41.578 301.775 44.4921C301.813 47.4071 302.283 50.2717 303.159 52.9694C303.403 53.6346 303.646 54.2983 303.888 54.9595C304.193 55.5936 304.497 56.2253 304.8 56.8538L305.03 57.3242L305.3 57.7707L305.841 58.6603L306.382 59.5444L306.999 60.3717L307.614 61.1943L307.923 61.6032L308.267 61.9817C308.724 62.4849 309.179 62.9872 309.632 63.4863C310.632 64.3888 311.588 65.3271 312.68 66.077L313.471 66.6696C313.733 66.8684 314.027 67.0178 314.302 67.1943C314.863 67.5273 315.408 67.8859 315.975 68.1933C317.14 68.7524 318.274 69.3481 319.48 69.7339C320.648 70.2226 321.877 70.463 323.063 70.7864C323.665 70.9102 324.273 70.9805 324.871 71.0795L325.768 71.2177C326.066 71.2568 326.368 71.2552 326.666 71.276C327.263 71.3063 327.857 71.3375 328.445 71.3678C329.034 71.3766 329.617 71.3199 330.197 71.2999C331.362 71.2936 332.485 71.0644 333.597 70.907C334.158 70.8495 334.687 70.6603 335.224 70.5381C335.756 70.3935 336.295 70.2841 336.809 70.114C337.318 69.9287 337.822 69.745 338.322 69.563C338.572 69.4719 338.821 69.3817 339.068 69.2914C339.306 69.178 339.543 69.0662 339.778 68.9544C340.249 68.7284 340.714 68.5056 341.175 68.2844C341.641 68.0727 342.053 67.7733 342.487 67.5257C342.913 67.2638 343.343 67.0186 343.752 66.7502C344.144 66.458 344.532 66.1689 344.915 65.8837C347.967 63.5734 350.208 60.8525 351.761 58.2482C353.301 55.6328 354.278 53.1658 354.753 51.0783C354.874 50.5576 355.049 50.0776 355.105 49.6048C355.18 49.1361 355.25 48.6976 355.314 48.2895C355.375 47.8814 355.449 47.5069 355.485 47.1611C355.505 46.8137 355.524 46.499 355.541 46.2163C355.576 45.6605 355.604 45.234 355.623 44.9338C355.643 44.6447 355.663 44.4961 355.663 44.4961C355.663 44.4961 355.667 44.6447 355.658 44.9338C355.647 45.2356 355.631 45.6629 355.61 46.2203C355.598 46.5046 355.584 46.8209 355.57 47.1691C355.539 47.5165 355.47 47.8934 355.415 48.3039C355.354 48.7144 355.29 49.1552 355.221 49.6272C355.17 50.1032 354.999 50.5855 354.882 51.111C354.423 53.2138 353.46 55.703 351.924 58.3464C350.377 60.9779 348.132 63.7331 345.062 66.0754C344.676 66.3653 344.286 66.6576 343.891 66.9547C343.48 67.227 343.046 67.4762 342.617 67.7421C342.18 67.9929 341.765 68.2972 341.296 68.5128C340.831 68.7372 340.362 68.9648 339.888 69.194C339.65 69.3074 339.412 69.4216 339.171 69.5358C338.922 69.6285 338.671 69.7203 338.419 69.8129C337.915 69.9982 337.406 70.1859 336.892 70.3744C336.373 70.5485 335.83 70.6603 335.292 70.808C334.749 70.9326 334.215 71.1251 333.649 71.1849C332.526 71.3479 331.391 71.5819 330.214 71.5914C329.629 71.613 329.038 71.6713 328.443 71.6633C327.848 71.6346 327.248 71.605 326.644 71.5747C326.343 71.5547 326.038 71.5571 325.736 71.518L324.83 71.3806C324.224 71.2816 323.609 71.2113 323 71.0867C321.799 70.7633 320.556 70.5213 319.372 70.0302C318.152 69.6412 317.003 69.0407 315.824 68.4761C315.249 68.1654 314.698 67.8044 314.128 67.4674C313.85 67.2893 313.553 67.1384 313.287 66.9371L312.486 66.339C311.38 65.5811 310.412 64.6339 309.398 63.7195C308.939 63.2148 308.477 62.7077 308.014 62.1982L307.666 61.8156L307.354 61.4027L306.73 60.5698L306.104 59.7329L305.555 58.8384L305.008 57.9368L304.733 57.4855L304.501 57.0096C304.194 56.3731 303.885 55.7334 303.576 55.0913C303.33 54.4221 303.084 53.7504 302.837 53.0764C301.949 50.3451 301.472 47.4438 301.434 44.4921C301.472 41.5412 301.95 38.6407 302.839 35.911C303.086 35.237 303.333 34.5654 303.578 33.8969C303.888 33.2548 304.196 32.6152 304.503 31.9787L304.736 31.5027L305.01 31.0515L305.558 30.1514L306.106 29.257L306.732 28.42L307.355 27.5879L307.668 27.175L308.016 26.7917C308.48 26.2821 308.941 25.7758 309.4 25.2711C310.412 24.3575 311.381 23.4103 312.487 22.6524L313.288 22.0543C313.554 21.8538 313.851 21.7021 314.129 21.524C314.699 21.1878 315.25 20.826 315.824 20.5154C317.004 19.9508 318.153 19.351 319.372 18.9621C320.556 18.4709 321.799 18.2289 322.999 17.9055C323.608 17.7801 324.224 17.7107 324.829 17.6116L325.735 17.4742C326.037 17.4351 326.342 17.4375 326.643 17.4175C327.247 17.3872 327.847 17.3577 328.442 17.3289C329.037 17.3209 329.627 17.3792 330.213 17.4008C331.39 17.4104 332.524 17.6444 333.647 17.8065C334.213 17.8664 334.748 18.0588 335.291 18.1834C335.828 18.3312 336.371 18.4438 336.89 18.6171C337.404 18.8055 337.913 18.9932 338.417 19.1785C338.67 19.2711 338.92 19.3638 339.17 19.4556C339.41 19.5698 339.649 19.684 339.886 19.7974C340.36 20.0266 340.829 20.2542 341.294 20.4786C341.764 20.6935 342.178 20.9977 342.616 21.2493C343.045 21.5152 343.478 21.7644 343.889 22.0367C344.284 22.333 344.674 22.6261 345.06 22.9152C348.13 25.2583 350.375 28.012 351.923 30.6442C353.46 33.2876 354.423 35.7769 354.882 37.8804C354.998 38.4051 355.169 38.8883 355.221 39.3642C355.29 39.8354 355.354 40.277 355.414 40.6875C355.47 41.098 355.539 41.475 355.57 41.8224C355.584 42.1706 355.598 42.4868 355.61 42.7711C355.631 43.3285 355.647 43.7566 355.658 44.0577C355.667 44.3476 355.663 44.4961 355.663 44.4961Z" fill="#17282F"/>
<path d="M319.017 39.8637H324.152C324.152 39.8637 324.152 35.552 328.632 35.4746C330.959 35.4346 332.166 36.9592 332.656 38.1268C333.225 39.4828 333.053 41.0281 332.29 42.2859C331.419 43.7218 329.51 45.0268 326.05 44.4174V51.9531H331.127V49.2131C331.127 49.2131 338.249 47.3723 338.249 39.5243C338.249 32.015 331.515 30.2716 328.633 30.2716C326.428 30.2716 318.919 30.8043 319.017 39.8637Z" fill="#349F6E"/>
<path d="M331.189 58.7227H326.035V53.9094H331.189V58.7227Z" fill="#349F6E"/>
<path d="M303.483 67.7876C303.483 70.0661 301.636 71.9141 299.357 71.9141C297.078 71.9141 295.23 70.0661 295.23 67.7876C295.23 65.5084 297.078 63.6612 299.357 63.6612C301.636 63.6612 303.483 65.5084 303.483 67.7876Z" fill="white"/>
<path d="M303.482 67.7878C303.446 67.7894 303.459 67.4204 303.289 66.7967C303.121 66.1842 302.701 65.2897 301.779 64.6037C300.888 63.9153 299.421 63.5312 298.004 64.0599C297.306 64.313 296.64 64.7898 296.168 65.4478C295.682 66.0971 295.408 66.9285 295.4 67.787C295.408 68.6455 295.681 69.4776 296.167 70.1269C296.64 70.7858 297.306 71.2617 298.004 71.5157C299.421 72.0444 300.888 71.6603 301.78 70.9711C302.702 70.2851 303.121 69.3906 303.289 68.7789C303.459 68.1552 303.446 67.7854 303.482 67.7878C303.494 67.7878 303.501 67.878 303.503 68.0529C303.509 68.227 303.489 68.4858 303.418 68.8108C303.283 69.4521 302.884 70.4096 301.926 71.1635C301.001 71.9182 299.435 72.3654 297.897 71.8112C297.139 71.5461 296.415 71.0357 295.898 70.325C295.368 69.6246 295.067 68.719 295.059 67.787C295.067 66.8558 295.368 65.9502 295.898 65.2498C296.415 64.539 297.14 64.0295 297.897 63.7644C299.434 63.2101 301 63.6566 301.926 64.412C302.884 65.1651 303.283 66.1227 303.418 66.764C303.489 67.089 303.509 67.3485 303.503 67.5226C303.501 67.6967 303.494 67.7878 303.482 67.7878Z" fill="#17282F"/>
<path d="M153.249 266.288C144.63 244.695 138.162 229.697 138.162 229.697L59.3437 241.677C59.3437 241.677 45.177 277.994 46.4034 294.473C47.6293 310.952 53.3978 339.971 53.3978 339.971H148.774C148.774 339.971 161.869 287.882 153.249 266.288Z" fill="#17282F"/>
<path d="M124.801 86.1853C125.419 79.9553 126.352 73.691 128.632 67.8603C130.912 62.0288 134.648 56.6119 139.924 53.2417L141.279 54.5019C142.214 51.825 144.704 49.7558 147.508 49.3253C150.311 48.8965 153.307 50.1247 155.001 52.4C158.024 51.5854 161.492 52.82 163.32 55.362C165.147 57.904 165.214 61.584 163.479 64.1915C166.311 64.5501 168.812 66.7798 169.493 69.5518C170.173 72.3246 168.989 75.4583 166.646 77.0883C169.767 79.786 171.012 84.4571 169.644 88.3503C168.277 92.2428 164.386 95.1106 160.263 95.2647C161.183 98.8489 159.316 102.951 156.008 104.612C152.701 106.271 148.296 105.318 145.971 102.439C146.26 106.167 143.279 109.697 139.646 110.585C136.012 111.472 132.054 110.004 129.404 107.366C126.752 104.728 125.297 101.071 124.734 97.3738C124.169 93.6771 124.431 89.9068 124.801 86.1853Z" fill="#17282F"/>
<path d="M141.574 58.5811C145.199 59.7551 145.941 62.69 146.694 65.1369C148.315 70.4022 146.492 78.1943 143.546 82.8494C140.598 87.5045 137.368 89.8708 131.915 90.6582C131.737 82.2991 131.56 73.9408 131.383 65.5826L141.574 58.5811Z" fill="#349F6E"/>
<path d="M143.621 72.9767C146.097 69.7615 145.746 64.7127 142.85 61.8697C144.437 59.8763 143.868 56.8008 142.254 54.8275C140.642 52.8549 138.245 51.7225 135.933 50.6539C134.663 44.8201 128.113 40.716 122.31 42.1184C119.286 37.6733 112.846 36.9761 107.685 38.4807C106.424 38.8472 105.164 39.3224 103.852 39.3168C102.888 39.3128 101.948 39.0501 100.992 38.9215C95.7424 38.2147 90.5315 41.9107 88.4846 46.7974C88.1572 47.5785 87.8881 48.4019 87.369 49.0711C86.6885 49.9496 85.6551 50.4655 84.7751 51.1443C82.872 52.6105 81.6637 54.9433 81.563 57.3439C81.4776 59.3828 82.1261 61.5462 81.2676 63.3974C80.8371 64.3262 80.06 65.0753 79.7246 66.0416C78.7538 68.8431 81.8585 71.7062 81.2835 74.6147C81.1661 75.2081 80.8986 75.7607 80.7341 76.3429C80.3979 77.5328 80.5121 78.8449 81.0487 79.959C81.4632 80.8191 82.1317 81.6066 82.1876 82.5601C82.2307 83.2828 81.9088 83.9713 81.7635 84.6812C81.4089 86.4174 85.1552 93.1114 86.655 94.0553L131.484 94.457C134.876 93.7654 137.639 90.6916 137.966 87.2448C138.02 86.6714 138.029 86.0492 138.384 85.5956C138.686 85.2091 139.175 85.0326 139.607 84.8002C142.494 83.2509 142.842 79.2874 142.538 76.0258C142.496 75.569 142.448 75.1011 142.563 74.657C142.73 74.011 143.214 73.5054 143.621 72.9767Z" fill="#17282F"/>
<path d="M130.778 73.0409C130.911 65.1067 125.935 55.9905 118.054 52.1109C113.086 49.6655 109.21 49.6495 106.599 49.3445C100.747 48.6625 96.0257 51.5622 96.0257 51.5622C93.5548 52.142 84.5002 60.4332 84.0298 69.4304C83.5075 79.425 83.2639 91.6486 84.5273 99.0884C87.0677 114.048 98.5733 115.832 98.5733 115.832L97.5024 140.7L119.615 158.822L126.371 129.068L130.778 73.0409Z" fill="#F9A78D"/>
<path d="M98.5739 115.833C98.5739 115.833 108.73 116.377 118.653 110.267C118.653 110.267 113.424 120.887 98.4102 119.645L98.5739 115.833Z" fill="#F57F62"/>
<path d="M128.517 87.2702C128.508 86.1538 129.769 83.5088 130.87 83.3251C133.808 82.8347 139.115 83.0144 139.245 90.4878C139.421 100.704 129.392 98.4229 129.105 98.482C127.475 98.8158 128.549 91.1235 128.517 87.2702Z" fill="#F9A78D"/>
<path d="M131.86 94.7015C131.905 94.668 132.041 94.8229 132.344 94.9555C132.64 95.0841 133.146 95.1687 133.675 94.9603C134.747 94.545 135.627 92.816 135.644 90.9736C135.654 90.0424 135.445 89.1607 135.102 88.4332C134.777 87.6913 134.285 87.1778 133.739 87.0907C133.197 86.9749 132.818 87.3072 132.697 87.5963C132.566 87.8846 132.634 88.0874 132.58 88.1058C132.552 88.1321 132.358 87.9389 132.433 87.5156C132.471 87.312 132.587 87.0684 132.824 86.8679C133.065 86.6643 133.424 86.5565 133.803 86.5908C134.593 86.6323 135.314 87.3447 135.691 88.1425C136.11 88.9443 136.368 89.9354 136.357 90.98C136.327 93.0396 135.306 94.9842 133.836 95.437C133.121 95.6367 132.518 95.4306 132.204 95.1943C131.883 94.9483 131.826 94.7207 131.86 94.7015Z" fill="#F57F62"/>
<path d="M81.8391 67.916C82.1641 64.2049 83.6432 60.6862 85.4329 57.4191C86.6723 55.1582 88.0978 52.9516 90.048 51.2658C91.6788 49.857 93.6194 48.8611 95.5657 47.9379C100.685 45.5102 106.394 43.4497 111.92 44.6956C114.886 45.364 117.558 46.9405 120.156 48.5209C122.147 49.7316 124.146 50.9727 125.815 52.6011C127.278 54.0298 128.454 55.7268 129.492 57.4886C131.966 61.6893 133.712 66.3843 134.047 71.2471C134.381 76.1098 138.061 80.4095 135.21 84.3635C134.988 84.6693 129.911 85.7203 129.559 85.8601C128.734 86.1891 127.827 85.2931 127.834 84.405C127.84 83.5169 128.452 82.7511 129.11 82.1545C127.845 82.1122 126.978 80.7042 127.058 79.4416C127.137 78.179 127.885 77.0673 128.635 76.0491C128.734 75.9157 128.835 75.7752 128.856 75.6115C128.909 75.1802 128.421 74.9151 128.047 74.6947C126.227 73.6173 126.024 70.6209 127.683 69.3096C125.245 68.7442 123.666 65.8141 124.535 63.4678C124.672 63.0964 124.859 62.6811 124.681 62.3274C124.511 61.9879 124.089 61.8817 123.724 61.7739C121.028 60.9745 119.216 57.9278 119.8 55.1766C118.383 55.2508 116.941 55.3235 115.561 54.9881C114.181 54.6527 112.847 53.8453 112.216 52.5731C111.311 54.2023 109.535 55.3131 107.674 55.413C105.813 55.5128 103.929 54.5984 102.855 53.0754C100.476 53.303 98.0413 52.9261 95.842 51.9893C95.3021 54.207 93.5531 56.0902 91.3817 56.7914C90.9601 56.9279 90.4753 57.0605 90.2724 57.4542C90.1431 57.705 90.1638 58.0029 90.1782 58.2848C90.2541 59.7111 89.2814 60.3188 88.4947 61.5112C87.7089 62.7035 86.3369 64.4804 84.9641 64.0867C85.1166 66.5161 83.8173 68.2842 81.7656 69.5955L81.8391 67.916Z" fill="#17282F"/>
<path d="M79.7266 66.0413C79.7266 66.0413 79.8248 65.6188 80.2672 64.94C80.4804 64.5982 80.7831 64.1997 81.0674 63.6902C81.3453 63.1799 81.5658 62.533 81.6233 61.7767C81.6975 61.022 81.6289 60.1747 81.5562 59.2491C81.4827 58.3267 81.4052 57.2973 81.6089 56.2152C81.803 55.137 82.2286 54.0174 82.9242 52.9848C83.2708 52.4689 83.6861 51.9745 84.1676 51.5273C84.6468 51.0737 85.209 50.6928 85.7713 50.3126C86.3295 49.9277 86.8941 49.5156 87.3118 48.959C87.7311 48.4023 87.9866 47.7195 88.2629 47.0271C88.818 45.6312 89.6278 44.2631 90.7099 43.0556C91.7856 41.8481 93.0945 40.7524 94.6431 39.9746C95.4025 39.5585 96.2403 39.2774 97.094 39.029C97.9613 38.8334 98.8589 38.6792 99.7765 38.7016C100.234 38.6952 100.694 38.7551 101.154 38.799C101.612 38.8661 102.063 38.9587 102.516 39.0346C103.42 39.2063 104.334 39.2247 105.246 39.0138C106.159 38.8262 107.053 38.4884 107.996 38.2448C108.932 37.9789 109.904 37.8199 110.888 37.7089C111.872 37.5987 112.875 37.5979 113.882 37.6546C114.888 37.7297 115.894 37.907 116.884 38.1809C118.842 38.7607 120.751 39.842 122.056 41.5311C122.185 41.6988 122.313 41.8657 122.44 42.031L122.276 41.9679C125.361 41.2292 128.592 42.0358 131.089 43.6706C133.602 45.3005 135.472 47.8289 136.077 50.6225L135.996 50.5203C137.236 51.0945 138.462 51.6719 139.594 52.3802C140.722 53.0862 141.759 53.9319 142.54 54.9717C143.313 56.0155 143.787 57.2446 143.899 58.4872C144.016 59.7251 143.711 61.0053 142.952 61.9492L142.942 61.7783C144.413 63.2286 145.165 65.166 145.338 67.0044C145.513 68.8516 145.141 70.6541 144.318 72.0908C144.131 72.4606 143.877 72.7824 143.648 73.1082C143.402 73.4197 143.15 73.712 142.952 74.0258C142.754 74.3397 142.623 74.6767 142.597 75.0305C142.565 75.3843 142.606 75.7388 142.635 76.091C142.754 77.4998 142.735 78.8079 142.558 79.9699C142.381 81.1295 142.053 82.1469 141.578 82.9296C141.113 83.7194 140.527 84.2608 140.003 84.6011C139.478 84.954 139.012 85.0922 138.755 85.2839C138.488 85.4596 138.394 85.6041 138.385 85.5953C138.385 85.5953 138.467 85.442 138.732 85.2519C138.988 85.0459 139.454 84.8925 139.96 84.5372C140.47 84.1922 141.034 83.6531 141.48 82.8729C141.937 82.0998 142.248 81.0951 142.413 79.9491C142.576 78.7999 142.585 77.5038 142.457 76.107C142.426 75.758 142.381 75.3938 142.411 75.0145C142.436 74.6336 142.581 74.2526 142.788 73.9236C142.994 73.5906 143.25 73.2927 143.49 72.9844C143.711 72.6642 143.957 72.3511 144.137 71.9894C144.93 70.5886 145.285 68.8277 145.106 67.0276C144.93 65.2355 144.188 63.3564 142.763 61.9612L142.68 61.8805L142.752 61.7903C143.461 60.9022 143.748 59.6955 143.633 58.5104C143.523 57.322 143.063 56.1369 142.318 55.1378C141.563 54.138 140.553 53.3138 139.442 52.623C138.329 51.929 137.113 51.358 135.873 50.7862L135.807 50.7558L135.791 50.6848C135.2 47.9775 133.377 45.5145 130.922 43.9253C128.484 42.3305 125.335 41.551 122.348 42.2674L122.251 42.2906L122.185 42.2043C122.062 42.0454 121.938 41.8841 121.814 41.722C120.556 40.092 118.71 39.0426 116.797 38.4756C115.832 38.2072 114.847 38.0324 113.86 37.9589C112.872 37.9022 111.887 37.9022 110.918 38.0084C109.951 38.117 108.994 38.2719 108.073 38.5331C107.148 38.7695 106.247 39.1089 105.306 39.3022C104.837 39.4004 104.358 39.4619 103.877 39.4619C103.397 39.4619 102.926 39.398 102.467 39.3197C102.009 39.2415 101.559 39.1488 101.113 39.0825C100.665 39.0394 100.219 38.9795 99.7741 38.9851C98.8829 38.9611 98.0092 39.1097 97.1627 39.2974C96.3297 39.5393 95.5103 39.8101 94.766 40.2158C93.2495 40.972 91.9613 42.043 90.9015 43.2249C89.8346 44.4077 89.0352 45.7445 88.4842 47.1166C88.2054 47.8026 87.9411 48.5062 87.4939 49.0963C87.0458 49.6865 86.4573 50.1074 85.8942 50.4923C85.3248 50.8732 84.777 51.2406 84.3082 51.6791C83.8362 52.1127 83.4289 52.5919 83.0863 53.0942C82.4003 54.0996 81.9763 55.1929 81.779 56.2463C81.5706 57.3029 81.6376 58.3139 81.7023 59.2387C81.7662 60.1643 81.8277 61.0204 81.7423 61.7879C81.6752 62.557 81.4388 63.2206 81.1473 63.7349C80.8494 64.2484 80.5395 64.6397 80.3191 64.9743C80.0927 65.3058 79.9462 65.5741 79.8575 65.7594C79.7683 65.9439 79.7343 66.0445 79.7266 66.0413Z" fill="#33535F"/>
<path d="M117.496 39.9116C117.481 39.9348 117.225 39.7591 116.727 39.5195C116.229 39.2839 115.473 38.9908 114.494 38.8878C113.523 38.7784 112.319 38.8703 111.139 39.4029C109.967 39.9332 108.83 40.8931 108.105 42.1957C107.896 42.5694 107.718 42.9679 107.606 43.3561C107.499 43.7426 107.486 44.1531 107.689 44.4318L107.941 44.7768L107.527 44.6642C106.393 44.3527 105.227 44.5779 104.371 45.0651C103.5 45.5514 102.952 46.2997 102.653 46.9698C102.351 47.647 102.281 48.2499 102.268 48.6564C102.257 49.0653 102.291 49.2905 102.268 49.2929C102.259 49.2945 102.243 49.2402 102.22 49.1332C102.196 49.027 102.174 48.8665 102.164 48.6572C102.146 48.2412 102.186 47.6127 102.477 46.8947C102.762 46.1855 103.323 45.3749 104.242 44.8407C105.144 44.3064 106.379 44.0477 107.607 44.3751L107.446 44.6075C107.159 44.2098 107.197 43.6971 107.311 43.2762C107.434 42.8449 107.616 42.4424 107.836 42.0455C108.597 40.6799 109.792 39.6832 111.024 39.1442C112.266 38.6003 113.522 38.5316 114.52 38.6714C115.528 38.8072 116.291 39.1402 116.782 39.4133C117.027 39.5515 117.21 39.6713 117.326 39.7623C117.444 39.8525 117.502 39.9029 117.496 39.9116Z" fill="#33535F"/>
<path d="M134.168 51.5102C134.18 51.5229 134.06 51.6587 133.814 51.8783C133.566 52.094 133.19 52.3974 132.664 52.6897C132.14 52.978 131.453 53.2631 130.63 53.3174C129.822 53.3725 128.86 53.196 128.088 52.5707L128.314 52.5348C128.217 52.6722 128.118 52.8127 128.017 52.9565C127.909 53.0938 127.788 53.2248 127.672 53.3614C126.926 54.1448 126.016 54.6831 125.132 54.9698C124.248 55.266 123.399 55.3443 122.699 55.2948C121.997 55.2461 121.45 55.0784 121.087 54.941C120.728 54.7845 120.543 54.6767 120.551 54.6599C120.573 54.596 121.346 55.0289 122.71 55.0776C123.385 55.0975 124.197 55.0001 125.038 54.7014C125.881 54.4131 126.741 53.8916 127.447 53.1505C127.556 53.0219 127.671 52.8982 127.774 52.7688C127.87 52.6338 127.964 52.5004 128.056 52.3719L128.155 52.2313L128.282 52.3351C128.971 52.9006 129.856 53.0826 130.616 53.0475C131.385 53.0132 132.05 52.7648 132.569 52.51C133.608 51.975 134.135 51.4654 134.168 51.5102Z" fill="#33535F"/>
<path d="M139.644 60.9439C139.654 60.9463 139.646 61.0102 139.62 61.1324C139.586 61.2505 139.528 61.4287 139.397 61.6283C139.148 62.0308 138.594 62.5219 137.759 62.736C136.92 62.9612 135.878 62.8007 134.838 62.4421C134.316 62.26 133.775 62.0779 133.22 61.8184C132.681 61.5588 132.092 61.1843 131.799 60.5438L131.734 60.3801L131.976 60.4512C130.997 61.2282 129.989 61.9054 128.959 62.2951C127.936 62.6992 126.906 62.7703 126.092 62.6138C125.271 62.466 124.666 62.1226 124.318 61.824C124.14 61.677 124.018 61.5445 123.945 61.4486C123.871 61.3528 123.837 61.3001 123.845 61.2937C123.866 61.2745 124.028 61.4702 124.39 61.7297C124.748 61.9901 125.339 62.2864 126.127 62.4006C126.912 62.522 127.879 62.4349 128.856 62.0324C129.839 61.6435 130.817 60.9798 131.784 60.21L131.946 60.0814L132.026 60.281L132.08 60.4184C132.32 60.9479 132.836 61.2961 133.352 61.5468C133.874 61.796 134.421 61.9885 134.93 62.1737C135.944 62.5395 136.925 62.7072 137.708 62.5244C138.495 62.3503 139.034 61.9182 139.298 61.5596C139.572 61.1986 139.613 60.9327 139.644 60.9439Z" fill="#33535F"/>
<path d="M106.652 81.6921C106.585 82.6888 107.374 83.5672 108.413 83.6567C109.451 83.7461 110.348 83.013 110.415 82.0163C110.483 81.0197 109.694 80.1396 108.657 80.0501C107.617 79.9607 106.72 80.6954 106.652 81.6921Z" fill="#17282F"/>
<path d="M88.34 81.1901C88.2721 82.1868 89.0612 83.0653 90.1002 83.1547C91.1376 83.2442 92.0352 82.5111 92.1031 81.5144C92.1702 80.5177 91.3811 79.6376 90.3445 79.549C89.3047 79.4588 88.4071 80.1935 88.34 81.1901Z" fill="#17282F"/>
<path d="M87.5938 74.92C87.8198 75.174 89.2853 74.1613 91.3186 74.2316C93.3502 74.2731 94.8093 75.3672 95.0369 75.1253C95.1495 75.0182 94.9243 74.5662 94.2902 74.0719C93.6665 73.5807 92.5899 73.088 91.3233 73.0512C90.0567 73.0185 88.9762 73.4506 88.3485 73.9074C87.708 74.3674 87.482 74.8058 87.5938 74.92Z" fill="#17282F"/>
<path d="M107.813 75.9349C108.065 76.1641 109.42 75.0053 111.449 74.868C113.473 74.7003 115.037 75.6378 115.239 75.3743C115.339 75.2561 115.072 74.8297 114.388 74.4032C113.716 73.9783 112.596 73.5982 111.332 73.6932C110.069 73.7899 109.039 74.3305 108.46 74.8504C107.873 75.3727 107.691 75.8327 107.813 75.9349Z" fill="#17282F"/>
<path d="M100.231 91.1975C100.245 91.0825 98.9876 90.8237 96.9479 90.4955C96.4312 90.4252 95.9425 90.3062 95.8666 89.9492C95.7564 89.5699 95.9912 89.018 96.2627 88.4215C96.7914 87.1812 97.344 85.8803 97.9254 84.5178C100.238 78.9587 101.93 74.3795 101.706 74.2884C101.481 74.1974 99.4236 78.6297 97.1108 84.1896C96.5534 85.5608 96.0192 86.8682 95.512 88.1188C95.2964 88.7026 94.937 89.3614 95.1774 90.1481C95.3044 90.541 95.6765 90.8341 96.0064 90.9347C96.3362 91.0473 96.6277 91.0617 96.884 91.0856C98.9413 91.2629 100.22 91.3133 100.231 91.1975Z" fill="#17282F"/>
<path d="M103.38 94.2202C104.142 94.3272 104.903 94.721 105.348 95.3583C105.792 95.9955 106.113 97.4873 105.671 98.0671C105.295 98.5623 103.616 98.5607 102.461 98.4153C101.926 98.3475 101.479 97.9769 101.303 97.4674L100.846 96.1553C100.586 95.4078 100.975 94.5692 101.73 94.3328C102.243 94.1723 102.815 94.1404 103.38 94.2202Z" fill="#F57F62"/>
<path d="M106.887 68.5124C107.19 69.0164 109.134 68.3711 111.531 68.197C113.926 67.975 115.948 68.2928 116.164 67.745C116.257 67.4854 115.829 67.039 114.962 66.662C114.103 66.2843 112.798 66.0208 111.361 66.1382C109.925 66.2587 108.681 66.7323 107.895 67.2458C107.103 67.7601 106.753 68.2712 106.887 68.5124Z" fill="#17282F"/>
<path d="M88.0932 71.5831C88.5197 72.0327 90.1289 71.5104 92.0791 71.4353C94.0261 71.3012 95.6904 71.6485 96.057 71.155C96.2183 70.9162 95.9444 70.4602 95.2112 70.0425C94.4885 69.6265 93.289 69.3022 91.9489 69.3733C90.6096 69.446 89.4596 69.8964 88.7944 70.3875C88.118 70.8803 87.9039 71.3627 88.0932 71.5831Z" fill="#17282F"/>
<path d="M158.16 156.018L138.976 225.6L145.706 245.544C120.374 256.709 83.7556 260.257 54.8906 246.269C54.8906 246.269 64.6955 217.499 65.0289 211.899C65.3624 206.299 62.9523 173.584 65.6208 162.613C68.2886 151.641 75.9275 128.126 75.9275 128.126L98.3966 124.558C108.699 130.092 115.295 130.916 126.374 124.503L147.304 129.068L158.16 156.018Z" fill="#33535F"/>
<path d="M76.2674 128.09C76.2674 128.09 64.2009 129.367 59.3424 139.291C54.5429 149.096 41.2195 192.488 40.4945 199.736C39.7696 206.985 45.6506 216.743 50.777 218.092L66.3237 202.594L79.222 203.742L96.2049 124.504L76.2674 128.09Z" fill="#33535F"/>
<path d="M67.076 195.652C65.567 193.266 62.7382 191.972 59.9343 191.644C59.3176 191.572 58.6999 191.541 58.082 191.541C55.8898 191.541 53.6933 191.937 51.5273 192.333C52.5984 190.203 55.0566 189.057 57.4359 188.901C57.672 188.886 57.9075 188.879 58.1427 188.879C60.2803 188.879 62.3898 189.48 64.4534 190.076C60.9822 188.199 57.9416 185.532 55.6271 182.335C58.4587 183.392 61.2901 184.449 64.1218 185.508C62.3433 175.229 63.4039 164.475 67.1559 154.743L64.6895 168.015C64.1757 177.278 64.9821 186.614 67.076 195.652Z" fill="#20353D"/>
<path d="M63.03 220.602C62.6604 218.661 63.109 216.397 63.6315 214.419L64.5995 214.515C64.2439 216.154 63.6926 218.259 63.03 220.602Z" fill="#A7A9A8"/>
<path d="M102.275 229.697C98.2429 229.697 94.1093 229.103 90.1465 228.48C83.2282 227.392 76.3098 226.303 69.3912 225.215C67.6455 224.941 65.7856 224.613 64.4987 223.401C63.682 222.632 63.2338 221.666 63.0312 220.602C63.6939 218.26 64.2451 216.154 64.6008 214.515L89.5971 216.991L90.0731 224.255C90.0731 224.255 100.03 226.199 105.557 226.199C105.971 226.199 106.362 226.187 106.719 226.164C110.392 225.923 115.165 223.179 117.591 221.632C117.594 221.635 117.597 221.638 117.6 221.641C118.021 222.048 119.405 222.363 121.018 222.632C118.964 223.902 117.005 225.541 114.926 226.745C111.081 228.969 106.74 229.697 102.275 229.697Z" fill="#20353D"/>
<path d="M111.992 209.214L122.595 198.976C123.624 197.983 125.032 197.487 126.456 197.622C129.483 197.908 134.612 198.441 135.667 198.851C137.183 199.441 138.615 200.283 139.037 201.041C139.458 201.8 140.89 206.35 140.974 207.024C141.015 207.351 140.917 208.296 140.805 209.18C140.672 210.226 139.522 210.843 138.606 210.324C138.193 210.091 137.818 209.784 137.604 209.383C136.93 208.119 137.015 207.613 137.015 207.613C137.015 207.613 137.352 212.163 133.645 212.247C133.645 212.247 135.352 216.122 130.58 217.723C130.58 217.723 130.757 220.251 126.766 220.588C122.776 220.925 119.153 220.588 119.153 220.588C119.153 220.588 111.859 225.828 106.719 226.165C101.58 226.502 90.0724 224.255 90.0724 224.255L88.6836 203.061L111.992 209.214Z" fill="#F9A78D"/>
<path d="M126.36 202.719C126.347 202.755 126.994 203.028 128.058 203.43C129.123 203.828 130.604 204.359 132.287 204.806C133.119 205.043 133.959 205.176 134.657 205.368C135.366 205.558 135.794 206.089 136.102 206.553C136.41 207.022 136.654 207.422 136.867 207.664C137.075 207.911 137.223 208.015 137.233 208.003C137.249 207.987 137.131 207.857 136.956 207.597C136.774 207.34 136.564 206.938 136.271 206.444C136.121 206.2 135.942 205.932 135.693 205.686C135.448 205.436 135.108 205.236 134.738 205.118C133.991 204.899 133.196 204.769 132.36 204.531C130.691 204.087 129.205 203.589 128.125 203.24C127.046 202.888 126.373 202.681 126.36 202.719Z" fill="#F57F62"/>
<path d="M124.992 209.216C124.979 209.252 125.429 209.462 126.173 209.76C126.916 210.06 127.954 210.446 129.113 210.834C130.274 211.222 131.335 211.538 132.109 211.747C132.883 211.956 133.368 212.059 133.379 212.022C133.39 211.984 132.924 211.812 132.167 211.555C131.307 211.267 130.308 210.933 129.204 210.564C128.1 210.195 127.101 209.86 126.242 209.572C125.481 209.322 125.007 209.178 124.992 209.216Z" fill="#F57F62"/>
<path d="M122.375 215.258C122.365 215.345 124.221 215.534 126.427 216.136C128.638 216.725 130.336 217.494 130.373 217.414C130.388 217.381 129.983 217.147 129.291 216.84C128.6 216.532 127.618 216.163 126.501 215.861C125.385 215.561 124.351 215.386 123.599 215.305C122.846 215.223 122.377 215.222 122.375 215.258Z" fill="#F57F62"/>
<path d="M97.8152 225.6L50.7773 218.091C50.7773 218.091 56.4298 194.498 64.677 194.498C65.8852 194.498 107.667 208.072 107.667 208.072L97.8152 225.6Z" fill="#33535F"/>
<path d="M106.044 215.327C106.074 215.354 106.487 214.959 107.148 214.317C107.874 213.603 108.75 212.743 109.718 211.792C110.716 210.799 111.607 209.886 112.232 209.205C112.858 208.526 113.219 208.082 113.191 208.055C113.162 208.028 112.75 208.424 112.088 209.066C111.362 209.779 110.486 210.64 109.518 211.591C108.519 212.584 107.629 213.496 107.004 214.177C106.378 214.856 106.017 215.301 106.044 215.327Z" fill="#F57F62"/>
<path d="M107.666 208.072C107.66 208.094 107.454 208.055 107.068 207.96C106.608 207.837 106.055 207.69 105.392 207.513C103.839 207.067 101.771 206.472 99.2624 205.75C94.0962 204.233 86.9718 202.094 79.1162 199.69C74.7666 198.346 70.6456 197.074 66.9873 195.944L66.8918 195.915L66.8207 195.82C65.3795 193.88 63.2547 192.699 61.3383 192.115C59.3895 191.52 57.5661 191.448 56.0949 191.581C54.615 191.701 53.4745 192.026 52.7067 192.258C51.9406 192.504 51.5438 192.68 51.5278 192.649C51.5119 192.62 51.8844 192.383 52.6413 192.075C53.3996 191.782 54.5448 191.394 56.0568 191.217C57.5593 191.029 59.4444 191.05 61.4825 191.628C63.5027 192.215 65.7126 193.357 67.332 195.485L67.166 195.36C70.83 196.471 74.9571 197.723 79.3136 199.044C87.1698 201.447 94.2711 203.66 99.4022 205.294C101.885 206.099 103.932 206.763 105.468 207.262C106.118 207.487 106.658 207.674 107.108 207.83C107.481 207.967 107.673 208.05 107.666 208.072Z" fill="#17282F"/>
<path d="M95.2038 132.657C95.5967 131.349 97.8065 119.262 98.7049 116.451C99.9723 112.485 110.275 105.395 110.275 105.395C110.275 105.395 108.66 101.673 104.273 103.607C99.0795 105.899 96.5127 109.754 95.2038 108.969C93.8957 108.184 85.7379 99.8802 83.5137 100.141C81.2896 100.403 80.8008 102.686 81.5859 103.601C82.3709 104.517 83.2518 106.03 83.2518 106.03C83.2518 106.03 78.5418 104.612 79.4577 109.769C79.4577 109.769 74.0933 106.422 74.6165 113.487C74.6165 113.487 71.0838 112.048 70.2989 114.534C69.5141 117.02 71.8422 119.898 73.0196 121.86C74.1972 123.823 78.0183 135.206 78.0183 135.206L78.0633 145.242L96.8202 141.387L95.2038 132.657Z" fill="#F9A78D"/>
<path d="M95.2058 132.657C95.2201 132.658 95.2704 132.853 95.3543 133.234C95.4421 133.653 95.5587 134.209 95.7065 134.916C96.006 136.437 96.4324 138.599 96.9763 141.359L97.0058 141.509L96.8533 141.541C92.2213 142.519 85.8157 143.872 78.1176 145.497L77.8072 145.562L77.8047 145.243C77.7813 142.152 77.7561 138.772 77.7292 135.208L77.7442 135.299C76.4056 131.438 75.0146 127.286 73.2673 123.091C72.4132 121.071 70.6322 119.31 69.9902 116.858C69.8333 116.252 69.7603 115.596 69.8663 114.942C69.9646 114.314 70.2619 113.589 70.8818 113.193C71.4845 112.794 72.1992 112.707 72.8449 112.752C73.5025 112.8 74.1199 112.943 74.7444 113.178L74.2855 113.512C74.2593 112.822 74.2322 112.121 74.3311 111.397C74.4602 110.692 74.619 109.905 75.228 109.31C75.8178 108.688 76.7469 108.555 77.4946 108.688C78.267 108.814 78.9649 109.09 79.6381 109.483L79.1271 109.828C79.0017 108.88 78.8395 107.724 79.478 106.685C79.8755 106.032 80.6183 105.659 81.3083 105.562C82.0135 105.46 82.6795 105.533 83.3512 105.706L82.9622 106.199C82.4918 105.412 81.9871 104.626 81.4265 103.933C81.0639 103.571 80.8731 102.943 80.9034 102.434C80.9306 101.905 81.1094 101.394 81.4137 100.967C81.7156 100.54 82.1508 100.208 82.6284 100.022C82.8696 99.9346 83.114 99.8635 83.3623 99.8299C83.6027 99.7972 83.9405 99.8339 84.1745 99.8994C85.1376 100.212 85.874 100.75 86.6215 101.27C89.5468 103.407 92.0544 105.86 94.5844 108.074C94.8855 108.32 95.2585 108.67 95.4789 108.732C95.7057 108.806 96.0818 108.631 96.4069 108.437C97.0753 108.022 97.7126 107.488 98.3563 106.989C99.6373 105.972 100.959 105.021 102.346 104.241C103.725 103.514 105.18 102.707 106.819 102.774C108.463 102.81 109.875 103.904 110.531 105.285L110.627 105.487L110.435 105.623C106.42 108.477 102.811 111.286 100.258 114.309C99.6229 115.069 99.1269 115.871 98.8442 116.725C98.5815 117.605 98.3778 118.482 98.1822 119.32C97.8132 121 97.4738 122.542 97.1672 123.939C96.5794 126.694 96.1154 128.868 95.7879 130.402C95.6234 131.144 95.4893 131.711 95.3886 132.09C95.2904 132.469 95.2058 132.657 95.2058 132.657C95.1882 132.658 95.2345 132.457 95.3056 132.072C95.3862 131.646 95.4917 131.082 95.6258 130.368C95.9181 128.828 96.3326 126.644 96.8573 123.876C97.1448 122.473 97.4618 120.923 97.8068 119.235C97.9937 118.39 98.1854 117.514 98.4457 116.604C98.7364 115.681 99.2699 114.808 99.9088 114.029C102.499 110.904 106.087 108.076 110.121 105.168L110.024 105.505C109.447 104.325 108.207 103.362 106.796 103.353C105.379 103.29 103.994 104.038 102.642 104.765C101.294 105.53 100.011 106.461 98.7404 107.477C98.0967 107.978 97.473 108.512 96.7311 108.977C96.355 109.178 95.9317 109.475 95.32 109.346C94.7434 109.134 94.5277 108.823 94.1684 108.558C91.6104 106.331 89.1044 103.896 86.2365 101.81C85.5242 101.308 84.7647 100.785 83.9924 100.542C83.7976 100.498 83.665 100.473 83.4622 100.49C83.2585 100.518 83.0668 100.576 82.8776 100.642C82.5062 100.788 82.1852 101.037 81.9584 101.358C81.5072 101.992 81.3938 102.946 81.9456 103.506C82.5509 104.254 83.0549 105.041 83.5452 105.859L83.9717 106.57L83.1563 106.352C82.0638 106.061 80.6255 106.092 80.0474 107.049C79.5704 107.786 79.664 108.834 79.7919 109.71L79.8952 110.416L79.2806 110.055C78.7069 109.718 78.0387 109.456 77.3964 109.355C76.7497 109.247 76.1058 109.358 75.7003 109.789C74.8704 110.685 74.8942 112.196 74.9516 113.462L74.975 113.973L74.4924 113.796C73.4351 113.411 72.114 113.183 71.2549 113.74C70.8281 114.01 70.6088 114.505 70.5162 115.05C70.4282 115.589 70.4849 116.151 70.6253 116.697C70.9098 117.793 71.4866 118.815 72.0943 119.796C72.6905 120.77 73.4133 121.738 73.8504 122.836C75.6079 127.095 76.9724 131.231 78.2967 135.113L78.3117 135.158V135.205C78.3166 138.769 78.3213 142.151 78.3254 145.241L78.0128 144.987C85.7278 143.445 92.1487 142.161 96.7902 141.233L96.668 141.415C96.1857 138.632 95.8079 136.451 95.542 134.917C95.4286 134.209 95.3383 133.65 95.2704 133.23C95.2137 132.85 95.1922 132.656 95.2058 132.657Z" fill="#F57F62"/>
<path d="M83.2673 106.16C83.217 106.224 84.276 107.129 85.5442 108.284C86.814 109.437 87.8154 110.405 87.8745 110.349C87.9296 110.297 87.0144 109.235 85.7351 108.074C84.4581 106.91 83.3137 106.1 83.2673 106.16Z" fill="#F57F62"/>
<path d="M79.0737 109.488C79.0063 109.517 79.4085 110.531 80.2292 111.584C81.0454 112.642 81.9278 113.283 81.9718 113.225C82.0269 113.162 81.2474 112.439 80.4544 111.41C79.6543 110.386 79.1489 109.451 79.0737 109.488Z" fill="#F57F62"/>
<path d="M74.6897 113.229C74.626 113.275 75.0675 113.995 75.6752 114.838C76.2835 115.68 76.8276 116.326 76.8915 116.281C76.9548 116.235 76.5137 115.514 75.9057 114.672C75.2977 113.829 74.7533 113.183 74.6897 113.229Z" fill="#F57F62"/>
<path d="M147.302 129.068L127.129 149.196L106.433 175.197L98.2025 140.547L77.1719 144.87C77.1719 144.87 78.6559 184.011 85.1276 201.75C86.359 205.126 90.0031 207.637 91.6283 208.408C101.795 213.237 111.721 205.766 111.721 205.766C111.721 205.766 154.138 177.298 158.736 158.24C160.907 149.241 160.037 138.541 156.337 134.136C153.086 130.263 147.302 129.068 147.302 129.068Z" fill="#33535F"/>
<path d="M158.737 158.241C158.737 158.241 158.69 158.451 158.575 158.856C158.443 159.256 158.337 159.883 158.008 160.639C157.474 162.199 156.375 164.384 154.677 167.007C152.969 169.625 150.614 172.654 147.621 175.932C144.617 179.199 141.016 182.755 136.832 186.455C132.662 190.172 127.923 194.047 122.706 198.034C120.095 200.026 117.362 202.042 114.506 204.062C113.788 204.562 113.065 205.066 112.337 205.573C111.617 206.07 110.863 206.595 110.077 207.037C108.501 207.928 106.817 208.678 105.041 209.234C101.512 210.375 97.5207 210.607 93.772 209.445C93.2953 209.334 92.8576 209.1 92.3968 208.933C91.9432 208.747 91.4768 208.584 91.0448 208.33C90.1751 207.851 89.3669 207.272 88.5962 206.639C87.0805 205.361 85.6957 203.798 84.9538 201.861C83.6097 198.055 82.6498 194.069 81.7992 190.004C81.027 185.925 80.3098 181.772 79.7744 177.544C78.2917 166.267 77.4471 155.282 76.9727 144.878L76.9648 144.708L77.1327 144.674C84.473 143.17 91.5048 141.729 98.1652 140.365L98.3433 140.329L98.3848 140.504C101.495 153.67 104.261 165.383 106.572 175.165L106.329 175.101C113.433 167.46 119.134 161.327 123.07 157.094C125.035 154.994 126.556 153.367 127.596 152.254C128.11 151.712 128.503 151.297 128.777 151.008C129.044 150.728 129.188 150.592 129.188 150.592C129.188 150.592 129.064 150.747 128.806 151.035C128.54 151.33 128.156 151.754 127.656 152.309C126.628 153.433 125.125 155.077 123.184 157.199C119.271 161.454 113.602 167.616 106.539 175.294L106.358 175.49L106.296 175.23C103.961 165.454 101.164 153.748 98.0215 140.591L98.2411 140.73C91.5814 142.104 84.5521 143.553 77.2135 145.067L77.3733 144.862C77.8567 155.25 78.7062 166.231 80.1868 177.489C80.7211 181.71 81.4359 185.854 82.2049 189.923C83.0515 193.974 84.0074 197.947 85.3363 201.72C86.0359 203.556 87.3744 205.081 88.8542 206.329C89.6049 206.947 90.3979 207.516 91.2373 207.98C91.6485 208.222 92.1045 208.382 92.5486 208.565C92.9982 208.728 93.4247 208.958 93.891 209.067C97.5479 210.202 101.451 209.987 104.927 208.867C106.674 208.324 108.337 207.586 109.891 206.712C110.674 206.272 111.388 205.777 112.127 205.268C112.855 204.762 113.578 204.261 114.295 203.763C117.151 201.752 119.885 199.743 122.497 197.76C127.717 193.789 132.461 189.932 136.637 186.235C140.827 182.555 144.435 179.02 147.449 175.774C150.453 172.519 152.819 169.513 154.542 166.918C156.255 164.317 157.373 162.153 157.929 160.609C158.27 159.86 158.389 159.24 158.535 158.845C158.662 158.444 158.737 158.241 158.737 158.241Z" fill="#17282F"/>
<path d="M110.259 191.111C110.185 191.094 110.432 190.093 110.56 188.451C110.639 187.631 110.628 186.649 110.57 185.566C110.482 184.483 110.3 183.302 109.99 182.088C109.37 179.653 108.324 177.607 107.479 176.196C106.621 174.788 105.985 173.979 106.043 173.933C106.065 173.915 106.242 174.102 106.546 174.457C106.855 174.806 107.258 175.348 107.728 176.039C108.647 177.427 109.759 179.495 110.394 181.983C110.71 183.223 110.884 184.435 110.953 185.542C110.99 186.649 110.972 187.65 110.853 188.479C110.753 189.31 110.62 189.975 110.491 190.424C110.368 190.874 110.287 191.118 110.259 191.111Z" fill="#17282F"/>
<path d="M107.387 96.8569C107.349 96.9671 106.915 96.9192 106.253 96.7843C105.589 96.6533 104.699 96.4504 103.71 96.3738C102.719 96.2907 101.833 96.3626 101.224 96.5223C100.601 96.6677 100.339 96.92 100.237 96.8785C100.189 96.8561 100.188 96.718 100.314 96.5319C100.437 96.3474 100.681 96.1422 101.012 95.9737C101.673 95.6311 102.694 95.4522 103.776 95.5448C104.863 95.6295 105.799 95.9449 106.431 96.2236C107.065 96.5071 107.423 96.7499 107.387 96.8569Z" fill="#17282F"/>
<path d="M139.434 225.158C139.434 225.158 139.319 225.144 139.109 225.117L140.469 220.184H140.695L139.434 225.158Z" fill="#A7A9A8"/>
<path d="M139.108 225.117C137.43 224.91 129.645 223.94 125.231 223.257C123.973 223.062 122.41 222.864 121.017 222.633C122.817 221.519 124.691 220.691 126.785 220.691C126.841 220.691 126.897 220.692 126.953 220.694L126.276 220.626C126.439 220.615 126.602 220.602 126.766 220.588C127.544 220.522 128.164 220.373 128.657 220.176L140.468 220.184L139.108 225.117ZM116.602 204.764C116.673 203.971 116.756 203.175 116.853 202.383C118.28 201.351 119.675 200.322 121.037 199.298C120.947 199.772 120.861 200.248 120.78 200.728L116.602 204.764Z" fill="#20353D"/>
<path d="M121.017 222.633C119.404 222.364 118.019 222.049 117.599 221.642C117.596 221.639 117.593 221.636 117.59 221.633C118.559 221.015 119.153 220.588 119.153 220.588C119.153 220.588 120.763 220.738 123.019 220.738C124.007 220.738 125.12 220.709 126.276 220.626L126.953 220.694C126.897 220.692 126.84 220.691 126.784 220.691C124.69 220.691 122.817 221.52 121.017 222.633Z" fill="#142127"/>
<path d="M117.591 221.633C116.629 220.689 116.635 219.126 116.532 217.78C116.203 213.481 116.212 209.117 116.603 204.764L120.781 200.728C120.137 204.527 119.754 208.524 119.633 212.709C119.577 214.68 120.303 216.546 121.679 217.964C123.063 219.388 124.918 220.174 126.903 220.175L128.659 220.176C128.165 220.373 127.545 220.522 126.767 220.588C126.603 220.602 126.44 220.615 126.277 220.626C125.121 220.709 124.009 220.738 123.02 220.738C120.764 220.738 119.154 220.588 119.154 220.588C119.154 220.588 118.56 221.015 117.591 221.633Z" fill="#BA7562"/>
<path d="M116.914 201.895C119.102 184.935 127.263 168.417 144.056 156.965C145.042 157.824 146.215 158.607 147.595 159.288C148.039 159.507 148.572 159.697 149.185 159.861C148.647 160.142 148.11 160.434 147.576 160.735C139.517 165.273 133.085 171.478 128.459 179.174C125.026 184.887 122.577 191.45 121.135 198.788C119.76 199.819 118.354 200.856 116.914 201.895Z" fill="#20353D"/>
<path d="M116.855 202.383C116.875 202.219 116.896 202.058 116.917 201.894C118.357 200.855 119.763 199.818 121.138 198.787C121.104 198.957 121.071 199.128 121.039 199.298C119.677 200.322 118.283 201.351 116.855 202.383Z" fill="#0F191D"/>
<path d="M283.756 45.6123C286.889 45.8926 290.037 43.5199 290.632 40.4308C291.225 37.3426 289.181 33.9717 286.168 33.0692C288.062 31.0304 288.47 27.7537 287.131 25.3131C285.794 22.8726 282.812 21.4542 280.074 21.9549C279.893 19.2133 278.188 16.6218 275.742 15.3688C273.297 14.1166 270.198 14.2483 267.867 15.7034C264.77 13.1758 259.876 13.1966 256.801 15.7513C254.121 15.3233 251.247 16.8143 250.053 19.2508C248.86 21.6882 249.445 24.8731 251.426 26.7275" fill="#17282F"/>
<path d="M255.577 22.118L256.988 22.0853C271.177 21.7539 283.242 32.373 284.712 46.4901C286.08 59.6201 287.421 74.1436 287.499 81.2026C287.659 95.8188 273.097 98.4318 273.097 98.4318L274.742 115.959L239.252 115.687L234.631 52.0899C232.969 36.9482 240.396 23.3606 255.577 22.118Z" fill="#F9A78D"/>
<path d="M273.113 98.4281C273.113 98.4281 262.924 99.1868 252.965 93.2508C252.965 93.2508 258.903 103.903 273.452 102.247L273.113 98.4281Z" fill="#F57F62"/>
<path d="M280.247 62.349C280.312 63.4503 279.432 64.4134 278.283 64.5012C277.137 64.5899 276.153 63.7713 276.089 62.67C276.025 61.5687 276.903 60.6056 278.049 60.5162C279.198 60.4283 280.182 61.2485 280.247 62.349Z" fill="#17282F"/>
<path d="M281.735 53.7134C281.482 53.9914 279.875 52.8581 277.629 52.9164C275.385 52.942 273.764 54.1359 273.514 53.8668C273.392 53.7478 273.644 53.2502 274.349 52.7112C275.043 52.1745 276.236 51.6402 277.636 51.6139C279.034 51.5891 280.223 52.0763 280.911 52.5874C281.614 53.1017 281.859 53.5881 281.735 53.7134Z" fill="#17282F"/>
<path d="M260.912 62.3489C260.976 63.4502 260.097 64.4133 258.948 64.5011C257.802 64.5906 256.818 63.7712 256.753 62.6699C256.689 61.5694 257.568 60.6055 258.715 60.5168C259.863 60.4274 260.847 61.2484 260.912 62.3489Z" fill="#17282F"/>
<path d="M259.673 54.6462C259.421 54.9241 257.81 53.7917 255.567 53.85C253.324 53.8763 251.702 55.0695 251.452 54.8003C251.329 54.6813 251.579 54.1838 252.288 53.6447C252.982 53.1081 254.174 52.5746 255.573 52.5474C256.972 52.5219 258.161 53.0098 258.85 53.521C259.55 54.0345 259.797 54.5216 259.673 54.6462Z" fill="#17282F"/>
<path d="M268.212 71.1088C268.199 70.981 269.589 70.7079 271.844 70.3653C272.416 70.2934 272.956 70.1665 273.044 69.7727C273.169 69.3559 272.914 68.7433 272.621 68.0821C272.05 66.7077 271.452 65.2662 270.825 63.7552C268.324 57.5931 266.501 52.5219 266.749 52.4237C266.999 52.3254 269.226 57.2393 271.726 63.4006C272.329 64.9204 272.905 66.3699 273.453 67.7554C273.685 68.4023 274.076 69.1322 273.803 69.9987C273.659 70.4308 273.245 70.7518 272.88 70.8596C272.514 70.9802 272.193 70.9938 271.909 71.017C269.636 71.1927 268.224 71.235 268.212 71.1088Z" fill="#17282F"/>
<path d="M260.148 50.0091C259.864 50.5857 257.926 50.0131 255.554 49.9916C253.184 49.9173 251.198 50.41 250.968 49.8238C250.868 49.5443 251.277 49.0228 252.119 48.5469C252.956 48.0717 254.236 47.6891 255.657 47.7171C257.079 47.7474 258.322 48.1803 259.113 48.689C259.912 49.1977 260.273 49.7352 260.148 50.0091Z" fill="#17282F"/>
<path d="M281.631 44.4496C281.17 44.9703 279.305 44.4839 277.075 44.5111C274.845 44.4735 272.967 44.9503 272.521 44.4264C272.324 44.1724 272.609 43.6541 273.422 43.1526C274.223 42.6527 275.574 42.227 277.106 42.2302C278.638 42.235 279.977 42.6663 280.764 43.171C281.563 43.6765 281.834 44.1964 281.631 44.4496Z" fill="#17282F"/>
<path d="M283.148 39.8225C283.148 39.8225 279.081 30.7614 274.618 28.7282C269.217 26.2676 267.054 32.1846 261.93 30.8804C256.806 29.5763 251.649 27.2148 246.538 31.2709C240.944 35.7112 243.682 38.6709 243.481 45.1628C242.668 71.4819 238.041 79.0272 236.387 66.6774C236.205 65.3246 232.416 64.3335 231.724 58.6154C230.828 51.2011 230.331 42.184 231.867 36.8716C233.162 32.3938 235.625 29.2632 240.091 25.7709C247.141 20.2589 256.993 19.9147 263.701 20.4322C270.409 20.9489 283.491 28.3496 283.148 39.8225Z" fill="#17282F"/>
<path d="M237.31 66.257C237.165 64.0041 235.181 62.2687 232.938 62.5347C230.219 62.8573 227.223 64.4753 227.534 70.1023C228.086 80.085 237.994 77.4719 237.996 77.1844C237.997 76.9896 237.578 70.4322 237.31 66.257Z" fill="#F9A78D"/>
<path d="M235.617 73.5495C235.572 73.5208 235.449 73.6821 235.163 73.833C234.884 73.9799 234.396 74.0973 233.865 73.9312C232.788 73.6022 231.808 71.9778 231.66 70.1809C231.585 69.2737 231.727 68.3984 232.01 67.6637C232.274 66.9162 232.718 66.3804 233.244 66.2574C233.765 66.1056 234.159 66.4027 234.296 66.6766C234.445 66.9482 234.394 67.151 234.447 67.1662C234.477 67.1893 234.652 66.9865 234.548 66.5784C234.497 66.3828 234.366 66.1535 234.121 65.9747C233.871 65.7934 233.514 65.7135 233.146 65.7742C232.379 65.87 231.725 66.6159 231.415 67.4217C231.063 68.2331 230.881 69.2186 230.966 70.2376C231.141 72.2454 232.275 74.071 233.741 74.408C234.453 74.5526 235.027 74.3082 235.317 74.0566C235.612 73.7923 235.652 73.5663 235.617 73.5495Z" fill="#F57F62"/>
<path d="M237.055 46.8984C238.373 47.7537 239.765 48.6354 241.332 48.7536C242.899 48.8726 244.665 47.9326 244.893 46.3777C244.995 45.6789 244.807 44.8763 245.252 44.3284C245.782 43.6744 246.793 43.8517 247.632 43.9212C250.544 44.1615 253.863 40.8745 254.536 38.0314C255.303 39.1231 256.934 39.421 258.038 38.6719C259.142 37.9236 259.541 37.5011 260.395 36.4765C261.249 35.4511 262.459 34.5239 263.784 34.6812C264.525 34.7682 265.226 35.1923 265.968 35.1093C267.277 34.9623 267.882 33.4106 268.05 32.1041C268.218 30.7975 268.338 29.2746 269.432 28.5407C270.446 27.8611 271.789 28.2092 273.002 28.3586C274.213 28.5087 275.766 28.1885 276.048 27.0001C276.195 26.3772 275.914 25.7319 275.558 25.1993C273.946 22.7859 270.528 21.7772 267.864 22.9272C266.809 19.6497 263.663 17.1525 260.23 16.8706C256.798 16.5894 253.286 18.5404 251.712 21.6031C249.556 19.7376 246.469 19.0044 243.705 19.7032C240.939 20.402 238.571 22.5127 237.561 25.1801C235.116 24.5971 232.368 25.6018 230.875 27.6239C229.382 29.646 229.231 32.5673 230.507 34.7331C228.735 35.8009 227.239 37.6209 227.25 39.6901C227.261 41.7585 229.323 43.7718 231.306 43.1808C230.537 44.81 231.244 46.9798 232.824 47.8423C234.406 48.7056 236.614 48.1274 237.568 46.6005" fill="#17282F"/>
<path d="M268.673 25.8489C268.681 25.8497 268.681 25.912 268.674 26.0326C268.664 26.1524 268.661 26.3345 268.623 26.5677C268.542 27.0309 268.372 27.7185 267.943 28.5091C267.51 29.2885 266.832 30.1926 265.782 30.9225C264.756 31.6604 263.337 32.2362 261.717 32.1851L261.882 31.9599C262.212 32.8072 262.151 33.8342 261.745 34.7223C261.364 35.6255 260.747 36.4321 260.093 37.2196C259.758 37.5981 259.469 38.0405 259.002 38.3919C258.548 38.7297 257.998 38.9318 257.432 39.0164C256.309 39.1865 255.03 38.8679 254.191 37.9383L254.561 37.8241C254.353 39.8151 253.27 41.8284 251.504 43.0822C250.57 43.7906 249.404 44.237 248.248 44.2338C247.092 44.249 246.009 43.9351 244.998 43.5997L245.263 43.4759C244.756 44.7297 243.955 45.8086 242.971 46.6136C242.005 47.4179 240.705 47.9066 239.512 47.6431C237.143 47.199 235.533 45.2744 235.175 43.4352L235.403 43.5358C234.248 44.2002 232.995 44.2905 231.982 44.1196C230.956 43.9567 230.145 43.5318 229.564 43.1077C228.98 42.6757 228.63 42.2245 228.418 41.913C228.224 41.588 228.142 41.4075 228.153 41.4019C228.203 41.3604 228.502 42.1534 229.661 42.9704C230.239 43.3601 231.032 43.7474 232.019 43.88C232.992 44.023 234.18 43.9087 235.246 43.273L235.43 43.1628L235.475 43.3729C235.832 45.0883 237.381 46.8836 239.577 47.2701C240.658 47.4969 241.801 47.0609 242.715 46.2998C243.634 45.5403 244.398 44.5005 244.869 43.3218L244.943 43.1357L245.133 43.198C246.128 43.5254 247.172 43.8193 248.242 43.8017C249.312 43.7993 250.357 43.4016 251.248 42.73C252.916 41.5448 253.933 39.6609 254.139 37.7746L254.191 37.301L254.51 37.6596C255.218 38.4542 256.364 38.7609 257.374 38.61C257.88 38.5373 258.368 38.3592 258.765 38.0685C259.152 37.789 259.453 37.3513 259.794 36.9696C260.448 36.1949 261.047 35.4195 261.411 34.5793C261.797 33.748 261.853 32.8456 261.57 32.0781L261.483 31.8417L261.734 31.8521C263.26 31.92 264.627 31.3969 265.631 30.7037C266.656 30.0209 267.335 29.1616 267.781 28.4173C268.655 26.8855 268.601 25.8282 268.673 25.8489Z" fill="#33535F"/>
<path d="M196.816 114.391C196.816 114.391 159.263 127.617 148.401 133.081C139.915 137.349 134.537 152.833 147.596 159.286C157.334 164.099 210.047 154.902 210.047 154.902L196.816 114.391Z" fill="#F9A78D"/>
<path d="M311.456 245.871L216.043 242.26L212.588 274.739L208.766 339.891L257.47 340.096C257.491 339.82 263.544 303.473 263.544 303.473L266.297 302.753L266.041 340.096H311.691C314.087 309.193 315.457 283.239 315.541 280.796C316.205 261.492 311.456 245.871 311.456 245.871Z" fill="#17282F"/>
<path d="M260.11 283.231C260.092 283.275 260.603 283.545 261.559 283.968C262.519 284.371 263.93 284.99 265.823 285.261C266.768 285.392 267.836 285.396 268.95 285.15C270.055 284.905 271.225 284.381 272.151 283.443C273.077 282.503 273.645 281.218 273.986 279.894C274.329 278.56 274.5 277.179 274.721 275.775C275.566 270.141 276.083 265.009 276.353 261.288C276.489 259.427 276.566 257.92 276.6 256.877C276.631 255.834 276.622 255.256 276.573 255.253C276.523 255.25 276.437 255.822 276.32 256.857C276.191 258.043 276.033 259.509 275.846 261.242C275.447 264.944 274.853 270.052 274.01 275.669C273.58 278.446 273.325 281.266 271.675 282.982C270.025 284.667 267.64 284.938 265.882 284.755C264.067 284.562 262.644 284.029 261.661 283.708C260.678 283.367 260.13 283.183 260.11 283.231Z" fill="#33535F"/>
<path d="M269.206 256.541C269.215 256.51 268.978 256.373 268.499 256.364C268.026 256.348 267.314 256.522 266.627 257.054C265.97 257.582 265.286 258.51 265.309 259.735C265.306 260.977 266.324 262.155 267.605 262.556C268.875 262.991 270.394 262.644 271.126 261.641C271.87 260.666 271.867 259.513 271.649 258.699C271.411 257.864 270.939 257.303 270.548 257.035C270.157 256.76 269.885 256.729 269.874 256.76C269.785 256.857 270.853 257.289 271.154 258.815C271.288 259.536 271.211 260.503 270.611 261.224C270.036 261.961 268.881 262.22 267.83 261.872C266.775 261.53 265.998 260.639 265.97 259.704C265.914 258.767 266.423 257.942 266.957 257.441C268.103 256.388 269.219 256.672 269.206 256.541Z" fill="#33535F"/>
<path d="M216.043 272.786C216.041 272.836 216.453 272.88 217.205 272.918C217.956 272.968 219.047 272.94 220.389 272.819C223.068 272.585 226.764 271.776 230.503 270.02C234.238 268.249 237.211 265.91 239.095 263.989C240.041 263.031 240.755 262.205 241.194 261.594C241.643 260.99 241.87 260.643 241.831 260.613C241.731 260.533 240.695 261.827 238.743 263.622C236.799 265.42 233.849 267.636 230.196 269.369C226.538 271.087 222.952 271.956 220.328 272.315C217.702 272.681 216.044 272.658 216.043 272.786Z" fill="#33535F"/>
<path d="M313.379 240.574C311.507 236.312 311.854 235.921 311.854 235.921L306.549 189.499L301.454 144.34L297.322 110.914L273.454 105.804C273.454 105.804 270.706 113.418 259.169 113.648C245.877 113.913 238.259 102.028 238.259 102.028L200.094 110.222L214.446 208.66L216.167 235.175C216.167 235.175 213.318 239.466 213.318 244.068C213.318 248.671 213.131 251.738 213.131 251.738C248.555 261.47 283.71 269.898 316.056 260.478C316.056 260.478 315.25 244.836 313.379 240.574Z" fill="#33535F"/>
<path d="M288.613 109.173C288.613 109.173 302.371 110.709 307.251 115.891C312.132 121.072 327.736 146.708 327.736 146.708L305.073 177.713L294.573 163.386L288.613 109.173Z" fill="#33535F"/>
<path d="M299.103 125.216C299.293 125.198 301.461 142.238 303.944 163.272C306.427 184.313 308.286 201.38 308.095 201.398C307.905 201.417 305.737 184.38 303.254 163.339C300.771 142.304 298.912 125.235 299.103 125.216Z" fill="#17282F"/>
<path d="M200.093 110.224L169.535 123.787L180.592 154.721L210.046 159.389L200.093 110.224Z" fill="#33535F"/>
<path d="M204.301 130.728C204.505 130.706 205.962 142.775 207.556 157.68C209.152 172.592 210.28 184.693 210.076 184.715C209.872 184.736 208.415 172.67 206.82 157.759C205.225 142.854 204.097 130.749 204.301 130.728Z" fill="#17282F"/>
<path d="M211.836 287.572C211.836 287.572 212.129 282.24 212.512 275.468C212.524 275.462 212.536 275.456 212.547 275.45L211.836 287.572Z" fill="#A7A9A8"/>
<path d="M211.836 287.572L212.547 275.45C214.011 274.711 215.555 273.869 217.15 272.915C217.168 272.916 217.187 272.917 217.206 272.918C217.441 272.933 217.71 272.942 218.009 272.942C218.665 272.942 219.468 272.903 220.39 272.819C223.069 272.586 226.764 271.777 230.504 270.02C234.239 268.249 237.212 265.91 239.096 263.989C240.042 263.031 240.756 262.205 241.195 261.594C241.643 260.99 241.871 260.643 241.832 260.614C241.829 260.611 241.825 260.61 241.821 260.61C241.671 260.61 240.639 261.88 238.744 263.622C236.8 265.42 233.85 267.637 230.197 269.37C226.539 271.087 222.953 271.956 220.329 272.315C219.268 272.463 218.364 272.547 217.664 272.604C221.832 270.064 226.321 266.757 230.605 262.505C232.227 260.893 233.747 259.222 235.162 257.491C238.042 258.184 240.913 258.845 243.781 259.466C236.571 271.146 227.502 281.94 211.836 287.572Z" fill="#0F191D"/>
<path d="M218.008 272.941C217.708 272.941 217.44 272.933 217.204 272.917C217.186 272.917 217.167 272.915 217.148 272.914C217.319 272.812 217.49 272.708 217.663 272.604C218.362 272.547 219.266 272.462 220.328 272.314C222.951 271.956 226.538 271.087 230.195 269.369C233.848 267.636 236.798 265.419 238.742 263.622C240.637 261.88 241.669 260.609 241.819 260.609C241.823 260.609 241.827 260.611 241.83 260.613C241.869 260.643 241.642 260.989 241.193 261.594C240.755 262.205 240.041 263.031 239.094 263.989C237.21 265.91 234.237 268.249 230.502 270.019C226.763 271.776 223.068 272.585 220.388 272.819C219.467 272.902 218.663 272.941 218.008 272.941Z" fill="#20353D"/>
<path d="M243.78 259.465C240.912 258.844 238.04 258.183 235.16 257.49C244.426 246.162 249.257 232.282 249.55 216.119C253.373 229.416 252.021 245.654 245.039 257.385C244.625 258.08 244.205 258.774 243.78 259.465Z" fill="#20353D"/>
<path d="M258.731 113.654C258.642 113.654 258.553 113.653 258.465 113.653C258.474 113.509 258.488 113.364 258.506 113.22L269.312 110.699C267.12 112.233 263.876 113.556 259.169 113.65C259.023 113.653 258.876 113.654 258.731 113.654Z" fill="#BA7562"/>
<path d="M307.083 194.52C300.619 192.322 295.377 187.328 291.634 181.607C287.821 175.778 285.385 169.177 282.981 162.641C280.189 155.051 277.397 147.461 274.605 139.872C273.268 136.237 271.893 132.534 269.492 129.496C267.388 126.834 264.593 124.807 262.285 122.32C260.076 119.94 258.257 116.864 258.466 113.651C258.554 113.652 258.643 113.653 258.731 113.653C258.877 113.653 259.024 113.651 259.17 113.648C263.877 113.555 267.121 112.231 269.312 110.698L275.855 109.172L291.356 134.1L294.576 163.385L304.957 177.551C305.795 184.434 306.532 190.318 307.083 194.52Z" fill="#20353D"/>
<path d="M304.956 177.551L294.575 163.385L291.355 134.101L301.805 150.906C302.253 154.802 302.74 158.986 303.253 163.339C303.847 168.364 304.422 173.16 304.956 177.551Z" fill="#20353D"/>
<path d="M307.444 194.641C307.323 194.601 307.202 194.562 307.082 194.521C306.531 190.319 305.793 184.435 304.955 177.552C304.421 173.161 303.846 168.365 303.253 163.34C302.739 158.987 302.252 154.803 301.805 150.907L302.41 151.881L307.444 194.641Z" fill="#0F191D"/>
<path d="M286.022 113.591C286.022 113.054 286.448 93.2484 285.12 91.0978C283.792 88.9463 282.729 86.9298 282.464 84.9133C282.464 84.9133 283.188 83.737 281.868 83.0006C280.548 82.2627 278.455 84.0596 278.41 87.2389C278.364 90.4174 278.728 95.8543 278.728 95.8543C278.728 95.8543 264.117 87.5615 260.112 87.3307C256.106 87.1007 250.098 86.3636 249.779 88.2986C249.461 90.2337 249.734 90.6945 251.828 91.4316C253.921 92.1687 257.244 92.675 260.521 93.7811C263.798 94.8864 265.3 95.6379 265.3 95.6379C265.3 95.6379 257.836 93.4401 256.197 95.6379C254.558 97.8349 254.786 99.8162 255.833 100.876C255.833 100.876 253.602 101.798 253.83 104.239C254.057 106.681 255.15 107.28 255.15 107.28C255.15 107.28 252.965 108.939 254.012 111.058C255.059 113.177 257.517 111.841 259.839 114.237C262.159 116.633 267.941 122.253 270.17 123.497C272.401 124.741 277.499 125.248 277.499 125.248L286.022 113.591Z" fill="#F9A78D"/>
<path d="M286.02 113.592C286.025 113.594 285.981 113.662 285.89 113.794C285.79 113.938 285.654 114.132 285.477 114.384C285.097 114.913 284.549 115.678 283.839 116.669C282.384 118.68 280.266 121.605 277.584 125.312L277.548 125.361L277.486 125.355C276.478 125.249 275.427 125.1 274.335 124.895C273.245 124.687 272.109 124.434 270.973 124.005C270.401 123.801 269.847 123.484 269.342 123.116C268.827 122.757 268.333 122.357 267.832 121.95C266.838 121.125 265.844 120.238 264.836 119.309C263.827 118.379 262.805 117.406 261.769 116.391C261.255 115.88 260.734 115.363 260.206 114.839C259.685 114.297 259.175 113.778 258.523 113.42C257.882 113.048 257.145 112.866 256.389 112.699C255.652 112.53 254.763 112.354 254.209 111.657C253.665 111.009 253.43 110.093 253.637 109.249C253.852 108.406 254.378 107.698 255.045 107.143L255.065 107.432C254.488 107.03 254.206 106.446 253.982 105.846C253.778 105.236 253.665 104.609 253.642 103.946C253.62 103.279 253.818 102.593 254.201 102.024C254.595 101.46 255.122 101.011 255.763 100.711L255.704 101.003C254.768 100.068 254.628 98.5775 255.058 97.3827C255.259 96.7718 255.57 96.2032 255.941 95.6809C256.112 95.415 256.384 95.1402 256.68 94.9877C256.978 94.8232 257.296 94.7178 257.615 94.6395C258.907 94.368 260.215 94.4798 261.503 94.6459C262.794 94.8264 264.074 95.0995 265.352 95.4573L265.214 95.8071C263.295 94.9262 261.219 94.1819 259.108 93.539C256.984 92.9049 254.767 92.4904 252.555 91.8651C251.762 91.6144 250.973 91.3868 250.235 90.9148C249.867 90.676 249.564 90.2503 249.508 89.7983C249.44 89.3551 249.496 88.9366 249.549 88.5301C249.581 88.344 249.598 88.0941 249.734 87.8785C249.862 87.6708 250.046 87.5207 250.234 87.4025C250.619 87.1805 251.028 87.071 251.433 86.992C252.245 86.8434 253.054 86.8163 253.856 86.8115C255.458 86.8131 257.035 86.9361 258.593 87.0431C259.373 87.107 260.137 87.115 260.936 87.2691C261.321 87.3554 261.693 87.4728 262.07 87.5734L263.165 87.9535C266.04 89.046 268.73 90.3701 271.33 91.687C273.925 93.0135 276.42 94.3576 278.811 95.7057L278.555 95.8662C278.375 92.7284 278.19 89.7256 278.271 86.8195C278.381 85.3716 278.93 83.8798 280.14 83.0405C280.445 82.8448 280.799 82.7074 281.172 82.6931C281.545 82.6715 281.926 82.8248 282.2 83.0405C282.486 83.2529 282.726 83.5747 282.786 83.9445C282.848 84.315 282.762 84.6704 282.586 84.9899L282.606 84.8948C282.922 87.107 284.026 89.0133 285.057 90.7463C285.184 90.9507 285.338 91.1951 285.405 91.4498C285.491 91.6982 285.535 91.9458 285.587 92.1918C285.676 92.6845 285.74 93.1709 285.789 93.6508C285.889 94.6092 285.949 95.5403 285.996 96.4396C286.169 100.04 286.167 103.146 286.167 105.688C286.158 108.229 286.123 110.205 286.093 111.546C286.074 112.205 286.06 112.714 286.05 113.072C286.037 113.415 286.02 113.592 286.02 113.592C286.02 113.592 286.008 113.417 286.007 113.071C286.007 112.713 286.008 112.204 286.008 111.545C286.007 110.189 286.005 108.217 286.004 105.688C285.98 103.149 285.958 100.042 285.764 96.4523C285.711 95.5555 285.647 94.6283 285.543 93.6772C285.492 93.202 285.426 92.7212 285.336 92.2405C285.234 91.7477 285.137 91.3053 284.833 90.8828C283.791 89.145 282.657 87.2268 282.318 84.9332L282.312 84.8877L282.339 84.8381C282.472 84.5922 282.549 84.2751 282.496 83.9948C282.447 83.7105 282.266 83.4621 282.02 83.2784C281.531 82.868 280.844 82.9334 280.307 83.2968C279.225 84.0467 278.684 85.4595 278.589 86.8427C278.519 89.6937 278.712 92.7212 278.898 95.843L278.917 96.1585L278.641 96.0043C276.253 94.6659 273.758 93.3274 271.166 92.0081C268.572 90.6984 265.883 89.3806 263.036 88.3033L261.958 87.9296C261.593 87.8337 261.227 87.7179 260.859 87.6365C260.138 87.4943 259.342 87.4799 258.567 87.4193C257.008 87.3122 255.437 87.1916 253.856 87.1916C253.068 87.1956 252.273 87.2244 251.504 87.3666C250.766 87.5159 249.906 87.7786 249.927 88.5844C249.874 88.9758 249.828 89.3743 249.885 89.736C249.937 90.1002 250.141 90.3877 250.453 90.6009C251.092 91.0138 251.896 91.259 252.662 91.4986C254.841 92.1151 257.074 92.5336 259.216 93.1733C261.358 93.8273 263.414 94.5636 265.383 95.4693L265.245 95.8199C263.994 95.4685 262.719 95.1945 261.452 95.0164C260.189 94.8503 258.899 94.7473 257.698 95.0005C257.108 95.1426 256.548 95.3838 256.242 95.8933C255.886 96.3917 255.593 96.9291 255.406 97.4969C255.004 98.6126 255.145 99.9335 255.959 100.75L256.14 100.931L255.9 101.043C255.348 101.299 254.841 101.723 254.496 102.225C254.153 102.733 253.975 103.336 253.994 103.942C254.013 104.547 254.123 105.17 254.312 105.732C254.502 106.282 254.815 106.842 255.232 107.13L255.433 107.269L255.252 107.417C254.652 107.912 254.15 108.59 253.967 109.328C253.78 110.062 253.99 110.877 254.463 111.444C254.924 112.038 255.713 112.21 256.46 112.38C257.217 112.55 257.998 112.742 258.679 113.142C259.368 113.52 259.926 114.092 260.429 114.619C260.953 115.144 261.471 115.662 261.982 116.174C263.013 117.19 264.03 118.165 265.032 119.097C266.034 120.028 267.021 120.917 268.006 121.74C269.003 122.541 269.952 123.366 271.066 123.768C272.172 124.193 273.299 124.453 274.379 124.665C275.461 124.874 276.51 125.03 277.508 125.142L277.411 125.185C280.123 121.514 282.263 118.617 283.734 116.625C284.466 115.645 285.031 114.888 285.421 114.364C285.61 114.117 285.755 113.926 285.862 113.785C285.962 113.656 286.02 113.592 286.02 113.592Z" fill="#F57F62"/>
<path d="M333.374 159.83C331.914 157.04 328.617 151.232 327.027 147.677L316.582 151.473C316.582 151.473 286.996 111.507 286.051 111.507C285.107 111.507 272.258 123.421 272.258 123.421C272.824 123.988 299.463 185.04 309.666 191.653C319.87 198.267 327.475 202.467 332.955 193.019C338.434 183.571 339.798 172.112 333.374 159.83Z" fill="#F9A78D"/>
<path d="M329.96 169.41C329.936 169.422 329.763 169.145 329.469 168.635C329.18 168.123 328.749 167.389 328.204 166.492C327.117 164.695 325.508 162.279 323.555 159.738C321.602 157.196 319.706 154.994 318.326 153.406C317.677 152.658 317.13 152.028 316.693 151.525C316.31 151.078 316.107 150.821 316.126 150.804C316.146 150.785 316.386 151.007 316.803 151.423C317.22 151.84 317.811 152.454 318.528 153.226C319.96 154.77 321.895 156.951 323.858 159.505C325.821 162.058 327.404 164.515 328.437 166.355C328.955 167.274 329.351 168.031 329.6 168.565C329.854 169.098 329.983 169.398 329.96 169.41Z" fill="#F57F62"/>
<path d="M269.778 80.4132C269.512 80.6088 268.411 79.474 266.662 78.863C264.929 78.2066 263.357 78.3687 263.28 78.0485C263.245 77.9031 263.622 77.6508 264.321 77.5174C265.013 77.3816 266.028 77.4128 267.055 77.7849C268.081 78.1595 268.878 78.788 269.321 79.3366C269.771 79.8885 269.897 80.3237 269.778 80.4132Z" fill="#17282F"/>
<path d="M296.484 240.301C296.491 240.313 296.365 240.387 296.119 240.516C295.87 240.637 295.516 240.849 295.025 241.046C294.055 241.461 292.588 241.944 290.711 242.208C288.837 242.469 286.563 242.498 284.084 242.175C281.603 241.86 278.922 241.236 276.168 240.407C270.668 238.725 265.8 236.882 262.317 235.457C260.575 234.744 259.179 234.134 258.22 233.699C257.775 233.491 257.411 233.321 257.122 233.186C256.873 233.065 256.745 232.995 256.75 232.983C256.756 232.971 256.894 233.017 257.153 233.115C257.45 233.234 257.822 233.381 258.279 233.562C259.305 233.97 260.706 234.527 262.416 235.206C265.92 236.565 270.796 238.365 276.279 240.04C279.019 240.866 281.676 241.495 284.13 241.825C286.581 242.164 288.822 242.163 290.676 241.939C292.532 241.713 293.991 241.277 294.97 240.908C295.942 240.523 296.468 240.27 296.484 240.301Z" fill="#17282F"/>
<path d="M224.221 164.105C210.883 155.121 195.019 151.913 184.621 151.906C174.883 151.899 160.551 153.425 147.576 160.734C139.517 165.272 133.085 171.477 128.459 179.173C122.98 188.29 120.01 199.572 119.632 212.708C119.575 214.679 120.302 216.545 121.678 217.963C123.061 219.387 124.916 220.173 126.902 220.174L152.436 220.191C156.039 220.193 159.138 217.507 159.644 213.943C160.781 205.937 165.543 192.458 184.652 192.141C199.215 191.907 205.207 202.443 207.111 206.987C210.21 214.382 209.417 223.148 204.989 230.436C198.188 241.635 185.688 243.341 178.841 243.361C170.968 243.385 164.56 249.772 164.555 257.599L164.536 285.075C164.533 289.087 167.796 292.354 171.809 292.357L196.686 292.373C200.699 292.376 203.965 289.114 203.968 285.101L203.972 279.328C203.972 279.19 204.059 279.071 204.192 279.023C209.829 277.05 220.756 272.279 230.602 262.503C243.171 250.023 249.55 233.909 249.563 214.609C249.581 186.987 235.792 171.899 224.221 164.105Z" fill="#349F6E"/>
<path d="M185.484 299.283L183.307 299.282C172.902 299.275 164.432 307.734 164.426 318.138C164.419 328.543 172.877 337.013 183.282 337.02L185.459 337.021C195.863 337.029 204.333 328.569 204.34 318.165C204.347 307.76 195.888 299.29 185.484 299.283Z" fill="#349F6E"/>
<path d="M248.606 202.459C246.622 190.465 241.772 181.443 236.109 174.726C240.63 178.448 244.25 183.256 246.501 188.871C247.537 191.456 248.271 194.15 248.605 196.963C248.82 198.776 248.847 200.645 248.606 202.459Z" fill="#20353D"/>
<path d="M238.338 213.357C238.189 213.357 238.042 213.353 237.893 213.345C232.187 213.033 229.368 207.563 227.248 202.718C225.392 198.475 223.536 194.232 221.68 189.99C220.427 187.128 219.1 184.163 216.723 182.135C214.287 180.056 211.05 179.224 207.917 178.557C198.154 176.479 187.751 172.724 178.09 170.22C168.427 167.715 159.313 166.294 152.332 159.16L216.529 166.461C223.821 167.29 230.627 170.21 236.11 174.725C241.773 181.443 246.623 190.464 248.607 202.459C248.173 205.732 246.863 208.829 244.204 211.109C242.567 212.512 240.484 213.357 238.338 213.357Z" fill="#187B4E"/>
<path d="M247.692 179.767C247.195 178.893 237.438 166.963 232.588 162.338C229.455 159.351 224.736 157.292 221.777 156.202C221.777 156.202 172.927 138.562 169.537 136.84L147.598 159.287C155.236 161.412 207.092 173.897 219.885 176.704C222.123 179.315 224.374 181.454 224.374 181.454L228.092 190.191C228.092 190.191 228.521 193.371 228.254 196.781C227.986 200.192 230.752 198.862 230.752 198.862C230.752 198.862 230.621 200.981 230.801 204.036L230.808 204.126C230.989 206.411 234.27 206.693 234.969 204.51L237.489 196.635C237.489 196.635 237.16 203.802 237.025 207.791C237.001 208.515 237.127 209.11 237.35 209.599C238.314 211.714 241.463 211.319 241.998 209.058L244.951 196.598L243.996 188.967L246.472 195.94C246.472 195.94 247.157 199.666 247.019 204.902C246.963 206.997 247.669 207.888 248.537 208.203C249.989 208.731 251.523 207.574 251.649 206.034L252.594 194.489C252.594 194.489 248.188 180.641 247.692 179.767Z" fill="#F9A78D"/>
<path d="M166.383 135.968C166.405 135.877 167.793 136.099 169.977 136.705C172.163 137.305 175.124 138.325 178.329 139.597C181.534 140.871 184.398 142.099 186.472 142.981C188.545 143.866 189.826 144.422 189.791 144.521C189.758 144.615 188.41 144.231 186.281 143.469C184.152 142.71 181.252 141.556 178.057 140.286C174.861 139.017 171.952 137.929 169.821 137.206C167.694 136.477 166.357 136.076 166.383 135.968Z" fill="#F57F62"/>
</g>
<defs>
<clipPath id="clip0_4099_25405">
<rect width="377.48" height="350" fill="white" transform="translate(0.261719)"/>
</clipPath>
</defs>
</svg>
