<svg width="24" height="17" viewBox="0 0 24 17" fill="none" xmlns="http://www.w3.org/2000/svg">
<path d="M23.0017 3.43911C22.8716 2.95614 22.6172 2.51569 22.2639 2.16159C21.9106 1.80749 21.4707 1.55209 20.988 1.42082C19.1983 0.929395 12.0383 0.921395 12.0383 0.921395C12.0383 0.921395 4.87947 0.913395 3.08861 1.38311C2.60624 1.52042 2.16726 1.77943 1.81383 2.13526C1.46039 2.4911 1.20436 2.93182 1.07032 3.41511C0.598323 5.20482 0.593752 8.91682 0.593752 8.91682C0.593752 8.91682 0.58918 12.6471 1.05775 14.4185C1.32061 15.398 2.09204 16.1717 3.07261 16.4357C4.88061 16.9271 12.0212 16.9351 12.0212 16.9351C12.0212 16.9351 19.1812 16.9431 20.9709 16.4745C21.4537 16.3435 21.894 16.0887 22.2482 15.7353C22.6024 15.3819 22.8582 14.9422 22.9903 14.4597C23.4635 12.6711 23.4669 8.96025 23.4669 8.96025C23.4669 8.96025 23.4897 5.22882 23.0017 3.43911V3.43911ZM9.74804 12.3557L9.75375 5.49854L15.7046 8.93282L9.74804 12.3557V12.3557Z" fill="white"/>
</svg>
