<svg width="376" height="280" viewBox="0 0 376 280" fill="none" xmlns="http://www.w3.org/2000/svg">
<g clip-path="url(#clip0_4321_44431)">
<path d="M332.949 65.2C332.858 64.1176 332.69 63.0431 332.445 61.9848C332.125 60.754 331.624 59.5773 330.96 58.4926C329.392 55.883 326.964 53.9009 324.094 52.887C321.223 51.8731 318.089 51.8907 315.23 52.9367C314.044 53.3577 312.93 53.9583 311.927 54.7174C310.864 55.4873 309.933 56.4244 309.171 57.4922C307.524 59.7258 306.635 62.428 306.635 65.2032C306.635 67.9783 307.524 70.6806 309.171 72.9142C310.696 74.9983 312.804 76.5836 315.23 77.4697C318.09 78.5083 321.221 78.5221 324.09 77.5089C326.959 76.4956 329.387 74.518 330.96 71.9138C331.624 70.8291 332.125 69.6524 332.445 68.4216C332.69 67.3612 332.858 66.2846 332.949 65.2C332.958 65.2731 332.958 65.3472 332.949 65.4203C332.949 65.5902 332.949 65.7978 332.949 66.0495C332.951 66.3952 332.924 66.7405 332.867 67.0814C332.822 67.5486 332.74 68.0115 332.621 68.4657C332.329 69.7263 331.843 70.934 331.18 72.0459C330.316 73.5341 329.168 74.8381 327.802 75.8841C326.141 77.167 324.2 78.0401 322.139 78.4324C319.771 78.8806 317.327 78.6872 315.06 77.8724C313.832 77.4413 312.677 76.8237 311.637 76.0414C310.537 75.2492 309.573 74.2846 308.78 73.1848C307.069 70.8757 306.145 68.0775 306.145 65.2032C306.145 62.3289 307.069 59.5307 308.78 57.2216C310.363 55.0664 312.555 53.4338 315.073 52.534C317.34 51.7191 319.784 51.5258 322.151 51.974C324.023 52.336 325.796 53.0928 327.351 54.1941C328.907 55.2954 330.211 56.7158 331.174 58.3605C331.836 59.4724 332.322 60.6801 332.615 61.9407C332.733 62.3949 332.815 62.8578 332.86 63.325C332.917 63.6639 332.945 64.007 332.942 64.3506C332.942 64.6086 332.942 64.8162 332.942 64.9798C332.955 65.0526 332.957 65.1267 332.949 65.2Z" fill="#E0E0E0"/>
<path d="M350.783 87.3615C350.714 87.4685 346.014 84.4419 340.294 80.6037C334.575 76.7655 329.994 73.5628 330.063 73.4559C330.132 73.3489 334.833 76.3754 340.552 80.2199C346.272 84.0644 350.852 87.2545 350.783 87.3615Z" fill="#E0E0E0"/>
<path d="M326.955 168.988H273.258V238.221H326.955V168.988Z" fill="#EBEBEB"/>
<path d="M309.291 168.988H255.594V238.221H309.291V168.988Z" fill="#F5F5F5"/>
<path fill-rule="evenodd" clip-rule="evenodd" d="M266.556 175.683V172.676H261.484V175.683C261.48 176.302 261.703 176.9 262.112 177.364C262.52 177.829 263.085 178.126 263.699 178.2V180.818H262.56C262.164 180.818 261.843 181.044 261.843 181.321H266.172C266.172 181.044 265.851 180.818 265.455 180.818H264.328V178.194C264.944 178.123 265.511 177.827 265.922 177.364C266.333 176.901 266.558 176.303 266.556 175.683Z" fill="#E0E0E0"/>
<path fill-rule="evenodd" clip-rule="evenodd" d="M276.259 175.482C276.061 174.684 275.603 173.975 274.957 173.466C274.311 172.958 273.513 172.68 272.691 172.676C271.868 172.678 271.069 172.956 270.422 173.464C269.774 173.973 269.315 174.683 269.117 175.482H272.345V180.195C272.325 180.369 272.241 180.529 272.11 180.646C271.979 180.762 271.809 180.825 271.634 180.824C271.458 180.825 271.288 180.762 271.156 180.646C271.023 180.53 270.938 180.369 270.917 180.195H270.231C270.231 180.567 270.379 180.924 270.642 181.187C270.905 181.45 271.262 181.598 271.634 181.598C272.006 181.598 272.363 181.45 272.626 181.187C272.889 180.924 273.037 180.567 273.037 180.195V175.482H276.259Z" fill="#E0E0E0"/>
<path d="M327.094 202.117C327.094 202.205 310.973 202.28 291.103 202.28C271.232 202.28 255.105 202.205 255.105 202.117C255.105 202.029 271.22 201.953 291.103 201.953C310.986 201.953 327.094 202.029 327.094 202.117Z" fill="#E0E0E0"/>
<path d="M282.445 238.503C282.35 238.503 282.281 222.917 282.281 203.701C282.281 184.485 282.35 168.887 282.445 168.887C282.539 168.887 282.608 184.472 282.608 203.701C282.608 222.93 282.533 238.503 282.445 238.503Z" fill="#E0E0E0"/>
<path d="M265.097 192.875H219.988V237.983H265.097V192.875Z" fill="#EBEBEB"/>
<path d="M247.233 192.875H202.125V237.983H247.233V192.875Z" fill="#F5F5F5"/>
<path fill-rule="evenodd" clip-rule="evenodd" d="M214.285 200.488H215.569L214.468 198.462L213.36 196.43L212.253 198.462L211.145 200.488H212.435V205.591H209.27V200.488H210.56L209.453 198.462L208.345 196.43L207.238 198.462L206.137 200.488H207.42V205.591H206.672V206.296H215.034V205.591H214.285V200.488Z" fill="#E0E0E0"/>
<path d="M225.178 237.914C225.083 237.914 225.008 227.91 225.008 215.564C225.008 203.219 225.083 193.215 225.178 193.215C225.272 193.215 225.341 203.219 225.341 215.564C225.341 227.91 225.266 237.914 225.178 237.914Z" fill="#E0E0E0"/>
<path d="M265.524 215.368C265.524 215.456 251.241 215.531 233.617 215.531C215.993 215.531 201.703 215.456 201.703 215.368C201.703 215.279 215.999 215.191 233.617 215.191C251.235 215.191 265.524 215.273 265.524 215.368Z" fill="#E0E0E0"/>
<path fill-rule="evenodd" clip-rule="evenodd" d="M348.133 273.036H80.8303C76.1688 273.036 71.6981 271.184 68.4014 267.889C65.1046 264.593 63.2517 260.123 63.25 255.462C63.2451 253.15 63.6961 250.86 64.5774 248.723C65.4587 246.585 66.7528 244.643 68.3858 243.006C70.0188 241.37 71.9585 240.071 74.0939 239.186C76.2293 238.3 78.5184 237.844 80.8303 237.844H348.133C350.448 237.839 352.741 238.291 354.881 239.175C357.021 240.058 358.965 241.356 360.602 242.993C362.239 244.63 363.536 246.574 364.42 248.714C365.303 250.854 365.756 253.147 365.751 255.462C365.739 260.127 363.878 264.597 360.575 267.891C357.272 271.186 352.798 273.036 348.133 273.036Z" fill="#E0E0E0"/>
<path fill-rule="evenodd" clip-rule="evenodd" d="M349.768 265.417H80.955C78.3139 265.417 75.7807 264.369 73.9119 262.502C72.0432 260.636 70.9916 258.104 70.9883 255.463C70.9883 252.819 72.0383 250.284 73.9075 248.415C75.7766 246.546 78.3117 245.496 80.955 245.496H349.768C352.411 245.496 354.946 246.546 356.815 248.415C358.684 250.284 359.734 252.819 359.734 255.463C359.731 258.104 358.68 260.636 356.811 262.502C354.942 264.369 352.409 265.417 349.768 265.417Z" fill="#EBEBEB"/>
<path d="M90.4282 255.462C90.3636 254.795 90.2564 254.133 90.1073 253.48C89.6348 251.719 88.5844 250.168 87.1249 249.076C86.126 248.321 84.9646 247.811 83.7334 247.585C82.319 247.331 80.8628 247.455 79.5114 247.943C78.7806 248.202 78.0949 248.573 77.479 249.044C76.8269 249.518 76.2554 250.094 75.7864 250.749C74.7732 252.123 74.2265 253.784 74.2265 255.491C74.2265 257.197 74.7732 258.859 75.7864 260.232C76.2571 260.886 76.8284 261.461 77.479 261.937C78.0951 262.406 78.7809 262.775 79.5114 263.032C80.8613 263.527 82.3193 263.65 83.7334 263.39C84.9663 263.17 86.1289 262.659 87.1249 261.899C88.5844 260.807 89.6348 259.255 90.1073 257.495C90.257 256.842 90.3642 256.179 90.4282 255.513C90.4433 255.686 90.4433 255.861 90.4282 256.035C90.4304 256.246 90.4136 256.456 90.3779 256.664C90.3498 256.953 90.2993 257.239 90.2269 257.52C89.7962 259.342 88.7493 260.961 87.2633 262.1C86.2416 262.893 85.0473 263.435 83.7774 263.68C82.3048 263.961 80.7836 263.842 79.3729 263.334C78.6156 263.067 77.9028 262.687 77.2588 262.207C76.5807 261.716 75.9859 261.119 75.497 260.439C74.4386 259.012 73.8672 257.283 73.8672 255.506C73.8672 253.73 74.4386 252 75.497 250.573C75.9866 249.894 76.5839 249.299 77.2651 248.811C77.9059 248.329 78.6167 247.947 79.3729 247.679C80.7742 247.178 82.2841 247.06 83.746 247.339C85.299 247.637 86.7334 248.376 87.878 249.467C89.0227 250.559 89.8293 251.956 90.2017 253.493C90.2736 253.774 90.3241 254.06 90.3527 254.349C90.388 254.556 90.4048 254.767 90.4031 254.978C90.4246 255.138 90.433 255.3 90.4282 255.462Z" fill="#E0E0E0"/>
<path d="M82.2386 258.407C83.8718 258.407 85.1959 257.083 85.1959 255.449C85.1959 253.816 83.8718 252.492 82.2386 252.492C80.6053 252.492 79.2812 253.816 79.2812 255.449C79.2812 257.083 80.6053 258.407 82.2386 258.407Z" fill="#E0E0E0"/>
<path d="M357.217 255.461C357.153 254.794 357.046 254.132 356.897 253.479C356.613 252.388 356.105 251.368 355.404 250.484C354.703 249.601 353.826 248.874 352.827 248.349C351.829 247.825 350.732 247.515 349.607 247.44C348.482 247.364 347.354 247.524 346.294 247.91C345.566 248.171 344.883 248.542 344.268 249.012C343.613 249.483 343.039 250.059 342.569 250.717C341.56 252.091 341.015 253.752 341.015 255.458C341.015 257.163 341.56 258.824 342.569 260.199C343.51 261.477 344.805 262.451 346.294 262.999C347.644 263.494 349.102 263.617 350.516 263.358C351.751 263.136 352.915 262.625 353.914 261.866C355.371 260.771 356.421 259.221 356.897 257.462C357.046 256.809 357.153 256.147 357.217 255.48C357.238 255.866 357.223 256.254 357.173 256.638C357.145 256.926 357.095 257.212 357.022 257.493C356.646 259.028 355.838 260.422 354.694 261.512C353.55 262.601 352.118 263.34 350.567 263.641C349.094 263.923 347.573 263.803 346.162 263.295C345.404 263.029 344.691 262.649 344.048 262.168C343.367 261.679 342.769 261.082 342.28 260.4C341.225 258.972 340.656 257.243 340.656 255.467C340.656 253.692 341.225 251.963 342.28 250.534C343.263 249.21 344.613 248.204 346.162 247.64C347.573 247.133 349.095 247.016 350.567 247.3C352.12 247.598 353.554 248.337 354.699 249.428C355.843 250.519 356.65 251.917 357.022 253.454C357.094 253.735 357.145 254.021 357.173 254.31C357.206 254.518 357.222 254.728 357.224 254.939C357.233 255.113 357.231 255.287 357.217 255.461Z" fill="#E0E0E0"/>
<path d="M349.032 258.407C350.665 258.407 351.989 257.083 351.989 255.449C351.989 253.816 350.665 252.492 349.032 252.492C347.398 252.492 346.074 253.816 346.074 255.449C346.074 257.083 347.398 258.407 349.032 258.407Z" fill="#E0E0E0"/>
<path d="M349.786 247.183C349.786 247.278 289.885 247.353 216.022 247.353C142.158 247.353 82.2383 247.278 82.2383 247.183C82.2383 247.089 142.127 247.02 216.022 247.02C289.916 247.02 349.786 247.095 349.786 247.183Z" fill="#E0E0E0"/>
<path d="M349.786 263.64C349.786 263.728 290.136 263.804 216.575 263.804C143.014 263.804 83.3516 263.728 83.3516 263.64C83.3516 263.552 142.988 263.477 216.575 263.477C290.161 263.477 349.786 263.539 349.786 263.64Z" fill="#E0E0E0"/>
<path d="M362.714 273.363C362.714 273.451 267.703 273.526 150.575 273.526C33.4466 273.526 -61.5898 273.451 -61.5898 273.363C-61.5898 273.275 33.3836 273.199 150.575 273.199C267.766 273.199 362.714 273.268 362.714 273.363Z" fill="#263238"/>
<path d="M140.822 15.4805H20.3338C18.1237 15.4805 16.332 17.2721 16.332 19.4823V189.389C16.332 191.599 18.1237 193.391 20.3338 193.391H140.822C143.032 193.391 144.824 191.599 144.824 189.389V19.4823C144.824 17.2721 143.032 15.4805 140.822 15.4805Z" fill="#04242D"/>
<path d="M135.806 24.9961H25.3477V187.163H135.806V24.9961Z" fill="#E0E0E0"/>
<path d="M134.283 23.6953H23.8242V182.767H134.283V23.6953Z" fill="#EBEBEB"/>
<path d="M134.289 182.764C134.289 181.436 134.226 117.552 134.138 23.6988L134.289 23.8435H23.8433L24.0069 23.6799C24.0069 83.4111 24.0069 138.593 23.9754 182.745L23.8433 182.613L134.308 182.745L23.8433 182.877H23.7111V182.745C23.7111 138.593 23.7111 83.4111 23.6797 23.6799V23.5352H23.8622H134.308H134.453V23.6862C134.346 117.552 134.289 181.436 134.289 182.764Z" fill="#263238"/>
<path d="M95.1055 182.763C95.1055 182.763 123.489 171.959 134.029 154.039C130.762 156.316 127.068 157.908 123.17 158.719C119.271 159.53 115.249 159.544 111.345 158.758C111.345 158.758 103.833 178.811 95.1055 182.763Z" fill="#E0E0E0"/>
<path d="M95.1039 182.764L95.5758 182.5C96.0467 182.241 96.5006 181.954 96.9349 181.638C98.5325 180.414 99.9607 178.984 101.182 177.384C104.391 173.313 108.022 166.82 111.206 158.709L111.256 158.59H111.375C114.761 159.27 118.24 159.34 121.65 158.797C122.55 158.684 123.431 158.445 124.337 158.256C125.243 158.067 126.124 157.765 127.005 157.438C128.808 156.802 130.546 155.995 132.196 155.028C132.825 154.657 133.41 154.28 133.926 153.889L134.606 153.367L134.166 154.097C132.434 156.949 130.389 159.597 128.068 161.994C125.906 164.206 123.593 166.266 121.147 168.16C117.016 171.34 112.64 174.189 108.059 176.68C104.171 178.813 100.918 180.323 98.659 181.311C97.5264 181.808 96.6329 182.166 96.0289 182.399L95.343 182.663C95.2638 182.696 95.1817 182.722 95.0977 182.739C95.0977 182.739 95.1732 182.695 95.3305 182.632L96.01 182.342C96.6015 182.085 97.4824 181.713 98.6087 181.197C100.849 180.172 104.083 178.63 107.952 176.478C112.512 173.977 116.871 171.127 120.99 167.952C123.418 166.063 125.712 164.007 127.855 161.799C130.156 159.417 132.186 156.788 133.908 153.959L134.147 154.166C133.58 154.587 132.992 154.977 132.385 155.337C130.716 156.31 128.959 157.123 127.137 157.765C126.244 158.099 125.331 158.344 124.432 158.596C123.532 158.848 122.626 159.03 121.713 159.137C118.269 159.678 114.755 159.599 111.338 158.904L111.501 158.81C108.286 166.946 104.58 173.433 101.339 177.491C100.098 179.093 98.6384 180.514 97.0042 181.713C96.41 182.13 95.7729 182.482 95.1039 182.764Z" fill="#263238"/>
<path d="M48.101 67.043H38.9019C37.7134 67.043 36.75 68.0064 36.75 69.1949V78.394C36.75 79.5824 37.7134 80.5459 38.9019 80.5459H48.101C49.2895 80.5459 50.2529 79.5824 50.2529 78.394V69.1949C50.2529 68.0064 49.2895 67.043 48.101 67.043Z" fill="#349F6E"/>
<path d="M42.6522 75.744C42.6087 75.7418 42.5661 75.7306 42.5271 75.7111C42.4881 75.6916 42.4535 75.6642 42.4257 75.6307L40.5381 73.4284C40.4848 73.3638 40.4589 73.2809 40.466 73.1974C40.473 73.1139 40.5125 73.0365 40.5758 72.9817C40.6045 72.9524 40.6388 72.9291 40.6766 72.9132C40.7144 72.8974 40.755 72.8892 40.796 72.8892C40.8371 72.8892 40.8777 72.8974 40.9155 72.9132C40.9533 72.9291 40.9876 72.9524 41.0163 72.9817L42.6837 74.9323L47.0882 70.446C47.148 70.3879 47.2282 70.3555 47.3115 70.3555C47.3949 70.3555 47.475 70.3879 47.5349 70.446C47.5644 70.4752 47.5878 70.51 47.6038 70.5484C47.6198 70.5867 47.628 70.6278 47.628 70.6693C47.628 70.7109 47.6198 70.752 47.6038 70.7903C47.5878 70.8287 47.5644 70.8635 47.5349 70.8927L42.9165 75.6244C42.8837 75.6623 42.8431 75.6926 42.7975 75.7132C42.7519 75.7338 42.7023 75.7443 42.6522 75.744Z" fill="white"/>
<path d="M121.402 68.687C121.402 68.7814 107.031 68.8506 89.3125 68.8506C71.5939 68.8506 57.2227 68.7814 57.2227 68.687C57.2227 68.5927 71.5876 68.5234 89.3125 68.5234C107.037 68.5234 121.402 68.5864 121.402 68.687Z" fill="#263238"/>
<path d="M84.2545 78.5659C83.9021 78.6132 83.5467 78.6342 83.1912 78.6289L80.2905 78.6792C77.8491 78.7107 74.464 78.7295 70.7327 78.7295C67.0015 78.7295 63.6163 78.7295 61.1687 78.6792L58.268 78.6289C57.9146 78.6341 57.5613 78.6131 57.2109 78.5659C57.5608 78.5148 57.9145 78.4937 58.268 78.503L61.1687 78.4464C63.6163 78.4464 66.9952 78.4023 70.7327 78.4023C74.4703 78.4023 77.8491 78.4023 80.2905 78.4464L83.1912 78.503C83.5468 78.4936 83.9025 78.5146 84.2545 78.5659Z" fill="#263238"/>
<path d="M121.402 73.0659C121.402 73.154 107.031 73.2295 89.3125 73.2295C71.5939 73.2295 57.2227 73.154 57.2227 73.0659C57.2227 72.9778 71.5876 72.9023 89.3125 72.9023C107.037 72.9023 121.402 72.9904 121.402 73.0659Z" fill="#263238"/>
<path d="M48.101 90.7461H38.9019C37.7134 90.7461 36.75 91.7095 36.75 92.898V102.097C36.75 103.286 37.7134 104.249 38.9019 104.249H48.101C49.2895 104.249 50.2529 103.286 50.2529 102.097V92.898C50.2529 91.7095 49.2895 90.7461 48.101 90.7461Z" fill="#349F6E"/>
<path d="M42.6545 99.4187C42.6112 99.419 42.5683 99.4095 42.5291 99.391C42.4899 99.3725 42.4553 99.3454 42.428 99.3117L40.5404 97.1032C40.5135 97.0718 40.4931 97.0354 40.4803 96.9961C40.4675 96.9568 40.4626 96.9154 40.4658 96.8742C40.469 96.833 40.4803 96.7929 40.499 96.756C40.5178 96.7192 40.5436 96.6864 40.575 96.6596C40.6064 96.6327 40.6428 96.6123 40.682 96.5995C40.7213 96.5867 40.7627 96.5818 40.8039 96.585C40.8451 96.5882 40.8853 96.5995 40.9221 96.6183C40.9589 96.637 40.9917 96.6628 41.0186 96.6942L42.686 98.6385L47.0905 94.1585C47.1185 94.1254 47.153 94.0984 47.1919 94.0792C47.2308 94.0601 47.2732 94.0492 47.3165 94.0472C47.3598 94.0452 47.403 94.0522 47.4435 94.0678C47.484 94.0833 47.5208 94.107 47.5517 94.1375C47.5826 94.1679 47.6068 94.2044 47.6229 94.2446C47.639 94.2849 47.6466 94.328 47.6453 94.3713C47.6439 94.4147 47.6336 94.4573 47.615 94.4964C47.5964 94.5356 47.5699 94.5705 47.5372 94.5989L42.9188 99.3243C42.8848 99.359 42.8433 99.3856 42.7975 99.4019C42.7517 99.4183 42.7028 99.424 42.6545 99.4187Z" fill="white"/>
<path d="M121.402 92.3862C121.402 92.4743 107.031 92.5498 89.3125 92.5498C71.5939 92.5498 57.2227 92.4743 57.2227 92.3862C57.2227 92.2982 71.5876 92.2227 89.3125 92.2227C107.037 92.2227 121.402 92.2982 121.402 92.3862Z" fill="#263238"/>
<path d="M84.2545 102.269C83.9021 102.316 83.5467 102.337 83.1912 102.332L80.2905 102.382C77.8491 102.382 74.464 102.433 70.7327 102.433C67.0015 102.433 63.6163 102.433 61.1687 102.382L58.268 102.332C57.9146 102.337 57.5613 102.316 57.2109 102.269C57.5608 102.217 57.9144 102.194 58.268 102.2L61.1687 102.15C63.6163 102.118 66.9952 102.105 70.7327 102.105C74.4703 102.105 77.8491 102.105 80.2905 102.15L83.1912 102.2C83.5469 102.194 83.9025 102.217 84.2545 102.269Z" fill="#263238"/>
<path d="M121.402 96.7691C121.402 96.8572 107.031 96.9327 89.3125 96.9327C71.5939 96.9327 57.2227 96.8572 57.2227 96.7691C57.2227 96.681 71.5876 96.6055 89.3125 96.6055C107.037 96.6055 121.402 96.6747 121.402 96.7691Z" fill="#263238"/>
<path d="M48.101 114.449H38.9019C37.7134 114.449 36.75 115.413 36.75 116.601V125.8C36.75 126.989 37.7134 127.952 38.9019 127.952H48.101C49.2895 127.952 50.2529 126.989 50.2529 125.8V116.601C50.2529 115.413 49.2895 114.449 48.101 114.449Z" fill="#349F6E"/>
<path d="M42.6545 123.145C42.6114 123.144 42.5689 123.134 42.5299 123.116C42.4909 123.097 42.4562 123.071 42.428 123.038L40.5404 120.83C40.4861 120.766 40.4593 120.684 40.4658 120.601C40.4723 120.518 40.5116 120.44 40.575 120.386C40.6384 120.332 40.7207 120.305 40.8039 120.312C40.8871 120.318 40.9643 120.357 41.0186 120.421L42.686 122.365L47.0905 117.885C47.1185 117.852 47.153 117.825 47.1919 117.806C47.2308 117.787 47.2732 117.776 47.3165 117.774C47.3598 117.772 47.403 117.779 47.4435 117.794C47.484 117.81 47.5208 117.834 47.5517 117.864C47.5826 117.894 47.6068 117.931 47.6229 117.971C47.639 118.011 47.6466 118.055 47.6453 118.098C47.6439 118.141 47.6336 118.184 47.615 118.223C47.5964 118.262 47.5699 118.297 47.5372 118.325L42.9188 123.051C42.8848 123.086 42.8433 123.112 42.7975 123.128C42.7517 123.145 42.7028 123.151 42.6545 123.145Z" fill="white"/>
<path d="M121.402 116.093C121.402 116.181 107.031 116.257 89.3125 116.257C71.5939 116.257 57.2227 116.181 57.2227 116.093C57.2227 116.005 71.5876 115.93 89.3125 115.93C107.037 115.93 121.402 115.999 121.402 116.093Z" fill="#263238"/>
<path d="M84.2545 125.96C83.9025 126.012 83.5468 126.033 83.1912 126.023L80.2905 126.08C77.8491 126.08 74.464 126.124 70.7327 126.124C67.0015 126.124 63.6163 126.124 61.1687 126.08L58.268 126.023C57.9145 126.033 57.5608 126.012 57.2109 125.96C57.5613 125.913 57.9146 125.892 58.268 125.898L61.1687 125.847C63.6163 125.847 66.9952 125.797 70.7327 125.797C74.4703 125.797 77.8491 125.797 80.2905 125.847L83.1912 125.898C83.5467 125.892 83.9021 125.913 84.2545 125.96Z" fill="#263238"/>
<path d="M121.402 120.464C121.402 120.559 107.031 120.628 89.3125 120.628C71.5939 120.628 57.2227 120.559 57.2227 120.464C57.2227 120.37 71.5876 120.301 89.3125 120.301C107.037 120.301 121.402 120.376 121.402 120.464Z" fill="#263238"/>
<path d="M48.101 138.145H38.9019C37.7134 138.145 36.75 139.108 36.75 140.296V149.496C36.75 150.684 37.7134 151.647 38.9019 151.647H48.101C49.2895 151.647 50.2529 150.684 50.2529 149.496V140.296C50.2529 139.108 49.2895 138.145 48.101 138.145Z" fill="#349F6E"/>
<path d="M42.6522 146.848C42.6087 146.846 42.5661 146.835 42.5271 146.815C42.4881 146.796 42.4535 146.768 42.4257 146.735L40.5381 144.532C40.4848 144.468 40.4589 144.385 40.466 144.301C40.473 144.218 40.5125 144.14 40.5758 144.086C40.607 144.059 40.6432 144.038 40.6824 144.025C40.7216 144.013 40.7629 144.008 40.804 144.011C40.8451 144.015 40.885 144.027 40.9215 144.046C40.9579 144.065 40.9902 144.091 41.0163 144.123L42.6837 146.068L47.0882 141.581C47.1174 141.552 47.1522 141.528 47.1906 141.512C47.2289 141.497 47.27 141.488 47.3115 141.488C47.3531 141.488 47.3942 141.497 47.4325 141.512C47.4709 141.528 47.5057 141.552 47.5349 141.581C47.5642 141.61 47.5875 141.644 47.6034 141.682C47.6193 141.72 47.6275 141.761 47.6275 141.802C47.6275 141.843 47.6193 141.883 47.6034 141.921C47.5875 141.959 47.5642 141.993 47.5349 142.022L42.9165 146.753C42.8815 146.787 42.8399 146.812 42.7944 146.829C42.7488 146.845 42.7004 146.851 42.6522 146.848Z" fill="white"/>
<path d="M121.402 139.795C121.402 139.883 107.031 139.958 89.3125 139.958C71.5939 139.958 57.2227 139.883 57.2227 139.795C57.2227 139.707 71.5876 139.625 89.3125 139.625C107.037 139.625 121.402 139.688 121.402 139.795Z" fill="#263238"/>
<path d="M84.2545 149.667C83.9025 149.719 83.5468 149.74 83.1912 149.73L80.2905 149.781C77.8491 149.781 74.464 149.831 70.7327 149.831C67.0015 149.831 63.6163 149.831 61.1687 149.781L58.268 149.73C57.9145 149.74 57.5608 149.719 57.2109 149.667C57.5608 149.616 57.9145 149.595 58.268 149.605L61.1687 149.554C63.6163 149.523 66.9952 149.504 70.7327 149.504C74.4703 149.504 77.8491 149.504 80.2905 149.554L83.1912 149.605C83.5468 149.595 83.9025 149.616 84.2545 149.667Z" fill="#263238"/>
<path d="M121.402 144.168C121.402 144.256 107.031 144.331 89.3125 144.331C71.5939 144.331 57.2227 144.256 57.2227 144.168C57.2227 144.079 71.5876 144.004 89.3125 144.004C107.037 144.004 121.402 144.092 121.402 144.168Z" fill="#263238"/>
<path d="M39.8203 13.793V22.1175C39.8195 23.2665 40.0451 24.4045 40.4843 25.4664C40.9234 26.5282 41.5675 27.4931 42.3797 28.3059C43.192 29.1188 44.1564 29.7635 45.2179 30.2035C46.2795 30.6434 47.4173 30.8698 48.5664 30.8698H109.663C111.984 30.8698 114.21 29.9477 115.852 28.3063C117.493 26.6649 118.415 24.4387 118.415 22.1175V13.8433L39.8203 13.793Z" fill="#263238"/>
<path d="M79.0587 16.2541C77.4409 16.2541 75.8594 15.7744 74.5142 14.8755C73.1691 13.9767 72.1207 12.6992 71.5016 11.2046C70.8825 9.70992 70.7205 8.06524 71.0361 6.47852C71.3517 4.8918 72.1308 3.4343 73.2747 2.29034C74.4187 1.14637 75.8762 0.367326 77.4629 0.0517073C79.0496 -0.263911 80.6943 -0.101925 82.1889 0.517182C83.6836 1.13629 84.9611 2.18471 85.8599 3.52987C86.7587 4.87503 87.2385 6.4565 87.2385 8.07431C87.2285 10.2407 86.3635 12.3155 84.8317 13.8473C83.2998 15.3792 81.225 16.2442 79.0587 16.2541ZM79.0587 2.99027C78.0631 2.99027 77.0899 3.28549 76.2621 3.8386C75.4343 4.39171 74.7891 5.17787 74.4081 6.09766C74.0272 7.01745 73.9275 8.02956 74.1217 9.006C74.3159 9.98244 74.7953 10.8794 75.4993 11.5833C76.2033 12.2873 77.1002 12.7667 78.0767 12.961C79.0531 13.1552 80.0652 13.0555 80.985 12.6745C81.9048 12.2935 82.6909 11.6483 83.2441 10.8206C83.7972 9.99276 84.0924 9.01955 84.0924 8.02397C84.0841 6.6915 83.5512 5.41594 82.6089 4.47372C81.6667 3.5315 80.3912 2.99852 79.0587 2.99027Z" fill="#263238"/>
<path d="M305.46 252.316L308.732 266.235L315.207 277.34C315.318 277.53 315.388 277.74 315.414 277.958C315.44 278.176 315.421 278.397 315.358 278.607C315.294 278.817 315.189 279.012 315.047 279.179C314.905 279.347 314.73 279.483 314.534 279.58C314.308 279.699 314.056 279.761 313.801 279.761C313.545 279.761 313.294 279.699 313.068 279.58C310.161 278.013 299.502 272.193 299.288 271.073C299.036 269.771 294.82 255.123 294.82 255.123L305.46 252.316Z" fill="#349F6E"/>
<g opacity="0.6">
<path d="M314.533 279.598L299.004 270.047L299.18 270.676C299.331 271.227 299.672 271.706 300.143 272.029C301.401 272.885 304.963 275.175 313.023 279.579C313.255 279.703 313.515 279.768 313.778 279.768C314.041 279.768 314.301 279.703 314.533 279.579V279.598Z" fill="white"/>
</g>
<g opacity="0.6">
<path d="M300.746 264.341C300.969 264.426 301.154 264.591 301.264 264.803C301.374 265.015 301.402 265.261 301.344 265.493C301.266 265.717 301.105 265.903 300.895 266.013C300.684 266.123 300.44 266.149 300.211 266.084C299.973 265.997 299.777 265.824 299.66 265.599C299.544 265.374 299.516 265.114 299.582 264.87C299.685 264.639 299.875 264.458 300.11 264.367C300.346 264.275 300.608 264.279 300.84 264.379" fill="white"/>
</g>
<path d="M309.272 273.973C309.505 273.404 309.842 272.883 310.266 272.438C310.759 272.069 311.316 271.794 311.909 271.626C311.909 271.589 311.688 271.526 311.323 271.57C310.853 271.657 310.417 271.875 310.065 272.199C309.703 272.519 309.441 272.936 309.31 273.401C309.197 273.747 309.234 273.973 309.272 273.973Z" fill="#263238"/>
<path d="M310.9 275.692C310.988 275.742 311.34 275.119 312.051 274.678C312.513 274.442 312.988 274.232 313.473 274.049C313.201 273.969 312.913 273.955 312.634 274.009C312.354 274.062 312.092 274.182 311.869 274.358C311.057 274.892 310.812 275.673 310.9 275.692Z" fill="#263238"/>
<path d="M306.561 271.938C307.082 271.339 307.643 270.775 308.241 270.252C308.91 269.824 309.608 269.444 310.33 269.113C309.498 269.178 308.701 269.478 308.032 269.978C307.364 270.478 306.852 271.158 306.555 271.938H306.561Z" fill="#263238"/>
<path d="M305.02 267.416C305.082 267.498 305.819 266.919 306.907 266.579C307.996 266.239 308.908 266.264 308.914 266.164C308.215 266.006 307.486 266.04 306.804 266.262C306.122 266.483 305.512 266.884 305.038 267.422L305.02 267.416Z" fill="#263238"/>
<path d="M303.786 263.012C304.355 262.571 305.01 262.256 305.71 262.088C306.41 261.92 307.137 261.902 307.844 262.037C307.844 261.999 307.643 261.855 307.215 261.748C306.685 261.624 306.134 261.626 305.605 261.754C305.076 261.882 304.584 262.132 304.17 262.484C303.88 262.767 303.755 263.012 303.786 263.012Z" fill="#263238"/>
<path d="M305.456 261.264C305.45 261.066 305.403 260.871 305.317 260.692C305.122 260.185 304.829 259.721 304.455 259.327C304.204 259.014 303.857 258.793 303.467 258.697C303.341 258.683 303.213 258.707 303.101 258.766C302.989 258.826 302.897 258.918 302.838 259.031C302.733 259.264 302.717 259.529 302.794 259.773C302.968 260.269 303.31 260.69 303.76 260.962C304.21 261.234 304.74 261.341 305.261 261.264C305.773 261.176 306.247 260.937 306.624 260.579C307 260.22 307.262 259.758 307.375 259.251C307.405 259.124 307.406 258.993 307.379 258.865C307.352 258.738 307.297 258.618 307.218 258.515C307.128 258.417 307.01 258.349 306.88 258.322C306.75 258.295 306.615 258.309 306.494 258.364C306.146 258.548 305.852 258.822 305.645 259.157C305.326 259.596 305.087 260.088 304.94 260.61C304.87 260.797 304.84 260.996 304.852 261.195C305.085 260.521 305.415 259.885 305.833 259.308C306.027 259.025 306.289 258.796 306.595 258.641C306.659 258.608 306.732 258.597 306.803 258.611C306.874 258.624 306.938 258.662 306.985 258.716C307.031 258.788 307.062 258.869 307.076 258.953C307.09 259.038 307.087 259.124 307.067 259.207C306.953 259.641 306.718 260.034 306.389 260.339C306.061 260.645 305.652 260.85 305.21 260.931C304.767 260.994 304.316 260.903 303.932 260.674C303.547 260.445 303.252 260.092 303.096 259.673C303.032 259.504 303.032 259.319 303.096 259.15C303.128 259.085 303.18 259.031 303.244 258.997C303.309 258.963 303.383 258.95 303.455 258.962C303.783 259.042 304.077 259.222 304.298 259.478C304.786 260.001 305.177 260.606 305.456 261.264Z" fill="#263238"/>
<g opacity="0.3">
<path d="M295.297 256.775L295.888 258.858L306.447 256.536L306.094 255.02L295.297 256.775Z" fill="black"/>
</g>
<path d="M263.478 255.969L264.208 267.087C264.208 267.087 253.153 271.567 253.121 273.637L274.735 273.008L274.3 255.629L263.478 255.969Z" fill="#349F6E"/>
<g opacity="0.6">
<path d="M270.863 265.952C271.07 266.012 271.248 266.145 271.364 266.327C271.48 266.509 271.525 266.727 271.492 266.94C271.44 267.149 271.31 267.33 271.129 267.447C270.948 267.564 270.729 267.607 270.517 267.569C270.295 267.507 270.104 267.365 269.98 267.172C269.856 266.978 269.807 266.745 269.844 266.518C269.919 266.303 270.073 266.124 270.276 266.02C270.479 265.916 270.714 265.894 270.932 265.958" fill="white"/>
</g>
<g opacity="0.6">
<path d="M274.705 272.991L274.661 271.254L253.897 272.512C253.897 272.512 252.947 272.959 253.079 273.632L274.705 272.991Z" fill="white"/>
</g>
<path d="M263.853 266.989C263.853 267.096 264.388 267.128 264.923 267.455C265.458 267.782 265.741 268.21 265.835 268.166C265.93 268.122 265.753 267.537 265.105 267.134C264.457 266.731 263.815 266.895 263.853 266.989Z" fill="#263238"/>
<path d="M261.617 267.997C261.617 268.097 262.064 268.267 262.435 268.701C262.806 269.135 262.92 269.607 263.027 269.601C263.134 269.595 263.184 268.972 262.712 268.456C262.24 267.94 261.617 267.896 261.617 267.997Z" fill="#263238"/>
<path d="M260.413 270.747C260.508 270.747 260.64 270.237 260.35 269.665C260.061 269.092 259.564 268.884 259.52 268.973C259.476 269.061 259.79 269.363 260.023 269.835C260.256 270.307 260.306 270.741 260.413 270.747Z" fill="#263238"/>
<path d="M263.968 264.433C264.019 264.534 264.497 264.37 265.095 264.395C265.692 264.421 266.164 264.59 266.215 264.496C266.265 264.402 265.812 264.043 265.107 264.024C264.403 264.005 263.918 264.358 263.968 264.433Z" fill="#263238"/>
<g opacity="0.3">
<path d="M263.523 256.368L263.649 258.344L274.333 258.036V256.066L263.523 256.368Z" fill="black"/>
</g>
<path d="M263.863 262.19C264.221 262.278 264.595 262.265 264.946 262.152C265.336 262.075 265.714 261.948 266.072 261.774C266.29 261.672 266.5 261.554 266.701 261.422C266.822 261.352 266.93 261.263 267.022 261.158C267.088 261.081 267.127 260.984 267.133 260.883C267.139 260.782 267.111 260.681 267.053 260.598C266.998 260.526 266.926 260.468 266.844 260.429C266.762 260.389 266.672 260.37 266.581 260.371C266.444 260.372 266.308 260.396 266.179 260.44C265.95 260.502 265.726 260.584 265.512 260.686C265.152 260.864 264.821 261.095 264.53 261.372C264.046 261.856 263.901 262.253 263.901 262.271C263.901 262.29 264.184 261.969 264.688 261.567C264.977 261.338 265.294 261.146 265.631 260.994C265.836 260.91 266.046 260.841 266.261 260.786C266.487 260.717 266.682 260.711 266.745 260.786C266.808 260.862 266.745 260.837 266.745 260.906C266.675 260.98 266.597 261.045 266.512 261.101C266.331 261.228 266.142 261.343 265.946 261.447C265.616 261.621 265.271 261.765 264.914 261.875C264.557 261.957 264.206 262.062 263.863 262.19Z" fill="#263238"/>
<path d="M264.006 262.337C264.199 262.02 264.288 261.65 264.258 261.28C264.268 260.88 264.206 260.481 264.075 260.103C263.999 259.883 263.9 259.673 263.78 259.474C263.718 259.332 263.621 259.209 263.497 259.117C263.374 259.024 263.228 258.965 263.075 258.945C262.979 258.951 262.886 258.983 262.807 259.039C262.728 259.094 262.666 259.171 262.628 259.26C262.579 259.389 262.547 259.525 262.534 259.663C262.499 259.905 262.499 260.15 262.534 260.392C262.608 260.794 262.778 261.172 263.031 261.494C263.471 262.041 263.912 262.154 263.924 262.123C263.937 262.091 263.578 261.877 263.239 261.349C263.045 261.043 262.919 260.7 262.867 260.342C262.839 260.133 262.839 259.922 262.867 259.713C262.899 259.48 262.974 259.291 263.062 259.31C263.151 259.329 263.358 259.474 263.453 259.656C263.568 259.839 263.665 260.033 263.742 260.235C263.872 260.581 263.952 260.943 263.981 261.311C264.05 261.921 263.95 262.324 264.006 262.337Z" fill="#263238"/>
<path d="M290.628 75.168C290.312 75.4854 290.115 75.9012 290.068 76.3463C290.021 76.7915 290.127 77.2393 290.37 77.6156C290.865 78.366 291.507 79.0082 292.257 79.5032C293.019 79.9856 293.616 80.6877 293.969 81.5167C294.485 83.0898 293.34 84.8767 293.969 86.412C294.497 87.7459 296.14 88.2997 296.87 89.5581C297.599 90.8165 297.203 92.4588 296.662 93.8367C296.121 95.2147 295.454 96.6556 295.737 98.1091C295.894 98.9082 296.366 99.6758 296.247 100.488C296.114 101.664 294.932 102.375 293.812 102.797C291.973 103.435 290 103.587 288.086 103.237C286.701 102.979 285.279 102.388 284.543 101.192C283.914 100.173 283.914 98.8956 283.914 97.6875C284.066 90.6965 284.93 83.7391 286.494 76.9235" fill="#263238"/>
<path d="M251.788 122.787L258.464 106.886C258.464 106.886 263.114 92.4145 270.52 92.6473L272.306 105.672L262.044 127.764L251.039 123.032" fill="#E0E0E0"/>
<path d="M264.144 131.375C264.144 131.375 252.082 155.166 252.284 162.609C252.397 166.749 258.721 256.557 258.721 256.557H276.917L273.551 162.88L292.642 257.205L308.756 254.588L295.907 153.718C295.907 153.718 293.705 139.989 289.175 134.357L264.144 131.375Z" fill="#263238"/>
<path d="M273.185 153.039C273.408 154.668 273.523 156.309 273.531 157.953C273.642 159.594 273.642 161.24 273.531 162.88C273.308 161.251 273.193 159.61 273.185 157.966C273.074 156.325 273.074 154.679 273.185 153.039Z" fill="#455A64"/>
<path d="M296.756 162.244C296.575 162.319 296.384 162.364 296.189 162.376C295.661 162.442 295.129 162.461 294.597 162.433C292.824 162.343 291.109 161.767 289.641 160.769C288.173 159.77 287.008 158.387 286.273 156.77C286.052 156.286 285.875 155.783 285.744 155.266C285.686 155.079 285.656 154.884 285.656 154.688C285.719 154.688 285.889 155.487 286.481 156.67C287.249 158.211 288.4 159.529 289.823 160.498C291.246 161.468 292.894 162.056 294.61 162.207C295.906 162.339 296.749 162.188 296.756 162.244Z" fill="#455A64"/>
<path d="M259.622 153.594C259.486 154.109 259.273 154.601 258.993 155.054C258.369 156.179 257.603 157.219 256.715 158.149C255.824 159.081 254.815 159.891 253.713 160.559C253.275 160.861 252.794 161.095 252.285 161.251C255.381 159.413 257.918 156.766 259.622 153.594Z" fill="#455A64"/>
<path d="M275.213 257.79C275.194 257.708 275.183 257.623 275.182 257.539C275.182 257.356 275.144 257.117 275.119 256.802C275.068 256.135 274.999 255.185 274.911 253.971C274.747 251.498 274.508 247.943 274.219 243.557C273.665 234.748 272.898 222.598 272.054 209.19C271.211 195.781 270.488 183.606 270.003 174.803C269.871 170.399 270.324 166.793 271.104 164.44C271.372 163.524 271.817 162.669 272.413 161.923C272.565 161.728 272.743 161.555 272.942 161.407L273.143 161.25C273.089 161.317 273.027 161.378 272.961 161.432C272.774 161.588 272.607 161.765 272.463 161.961C271.892 162.715 271.466 163.568 271.205 164.478C270.475 166.825 270.054 170.405 270.211 174.797C270.765 183.606 271.526 195.75 272.363 209.165C273.2 222.579 273.898 234.73 274.433 243.545C274.678 247.949 274.88 251.486 275.018 253.965C275.081 255.179 275.131 256.135 275.163 256.802C275.163 257.111 275.163 257.356 275.194 257.539C275.209 257.622 275.215 257.706 275.213 257.79Z" fill="#455A64"/>
<path d="M307.767 256.133C307.679 256.133 304.703 235.161 301.122 209.263C297.542 183.364 294.711 162.336 294.799 162.336C294.887 162.336 297.863 183.301 301.443 209.206C305.024 235.111 307.861 256.12 307.767 256.133Z" fill="#455A64"/>
<path d="M288.813 132.034L292.242 114.68L294.891 96.0176C292.493 93.9188 289.562 92.523 286.422 91.9844L270.521 92.6451L264.531 106.702L265.16 135.752L288.813 132.034Z" fill="#E0E0E0"/>
<path d="M287.767 92.2812C287.767 92.2812 280.178 109.138 276.17 110.252C274.377 117.393 272.785 155.165 272.785 155.165L297.796 154.158L290.403 129.619L293.392 117.343C293.392 117.343 290.145 97.9064 293.625 94.5464C291.649 93.2502 290.038 92.4197 287.767 92.2812Z" fill="#349F6E"/>
<path d="M272.308 91.9861C271.839 95.2974 271.629 98.6402 271.678 101.984C271.798 104.993 273.003 107.856 275.07 110.044L271.747 155.165L254.035 152.586C254.035 152.586 257.691 141.298 260.604 136.383C260.604 136.383 261.988 134.049 264.53 129.632C264.53 129.632 262.756 115.229 262.693 113.197C262.693 112.429 267.28 93.4899 267.28 93.4899C267.972 92.9104 268.774 92.4781 269.639 92.2196C270.503 91.961 271.411 91.8815 272.308 91.9861Z" fill="#349F6E"/>
<path d="M267.547 70.7673C265.276 70.1696 263.879 69.3642 263.879 68.4707C263.879 66.6334 269.819 65.1484 277.143 65.1484C284.467 65.1484 290.4 66.6334 290.4 68.4707C290.4 69.3579 289.022 70.1633 286.776 70.761" fill="#0B7F9D"/>
<g opacity="0.4">
<path d="M268.815 70.706C266.801 70.1775 265.512 69.4476 265.568 68.6737C265.707 66.4777 270.828 65.7227 277.322 65.7227C283.815 65.7227 289.069 67.044 289.069 68.6737C289.069 69.4539 287.849 70.1712 285.854 70.6997" fill="black"/>
</g>
<path d="M286.704 68.8828C286.427 69.8329 287.113 70.7705 287.899 71.3997C288.686 72.0289 289.63 72.4064 290.24 73.1803C290.623 73.7352 290.855 74.3799 290.915 75.0515C290.975 75.7231 290.859 76.3986 290.58 77.0122C289.996 78.2421 289.135 79.3193 288.063 80.1583C287.295 80.8253 286.295 81.4797 285.332 81.1462" fill="#263238"/>
<path d="M293.614 94.5469C293.299 94.5469 292.135 97.5105 291.267 100.21C290.495 102.573 290.226 105.072 290.476 107.546C290.727 110.019 291.491 112.414 292.72 114.575L298.226 124.252L281.652 129.814L284.081 137.573L307.274 131.35C308.332 131.067 309.306 130.532 310.111 129.788C310.916 129.045 311.527 128.116 311.892 127.084C312.224 126.159 312.349 125.172 312.259 124.194C312.169 123.216 311.865 122.269 311.37 121.421L299.277 100.657C299.277 100.657 295.35 94.5406 293.614 94.5469Z" fill="#E0E0E0"/>
<path d="M286.524 70.0523C286.505 68.8471 286.244 67.658 285.755 66.5562C285.266 65.4544 284.56 64.4627 283.679 63.6402C282.797 62.8178 281.759 62.1816 280.627 61.7697C279.494 61.3579 278.289 61.1788 277.086 61.2433C274.758 61.4054 272.579 62.4517 270.998 64.1679C269.416 65.8841 268.551 68.1402 268.579 70.4739C268.579 74.6896 268.635 78.9242 268.875 80.4343C269.592 84.9772 272.518 86.3615 273.675 86.7264C274.089 86.8137 274.511 86.8559 274.934 86.8523V86.8837L274.688 92.2572C274.726 95.7494 277.086 98.5494 280.578 98.5494C284.07 98.5494 286.386 95.5228 286.404 92.0181L286.524 70.0523Z" fill="#FFBE9D"/>
<path d="M270.285 72.8076C270.283 72.9979 270.356 73.1815 270.488 73.319C270.619 73.4565 270.8 73.5372 270.99 73.5437C271.173 73.5595 271.355 73.5022 271.497 73.3844C271.638 73.2666 271.727 73.0977 271.745 72.9145C271.748 72.7237 271.676 72.5392 271.544 72.4013C271.412 72.2634 271.231 72.1833 271.04 72.1783C270.857 72.1626 270.675 72.2198 270.533 72.3377C270.392 72.4555 270.303 72.6244 270.285 72.8076Z" fill="#263238"/>
<path d="M269.816 71.5294C269.91 71.6301 270.445 71.2148 271.251 71.2211C272.056 71.2274 272.616 71.6175 272.698 71.5168C272.78 71.4162 272.648 71.3029 272.396 71.1204C272.056 70.8844 271.652 70.7592 271.238 70.7618C270.828 70.7586 270.428 70.8889 270.099 71.133C269.854 71.3155 269.772 71.4917 269.816 71.5294Z" fill="#263238"/>
<path d="M277.988 72.8076C277.987 72.9979 278.059 73.1815 278.191 73.319C278.323 73.4565 278.503 73.5372 278.693 73.5437C278.876 73.5595 279.059 73.5022 279.2 73.3844C279.341 73.2666 279.431 73.0977 279.448 72.9145C279.45 72.7241 279.377 72.5406 279.245 72.4031C279.114 72.2655 278.934 72.1849 278.743 72.1783C278.56 72.1626 278.378 72.2198 278.236 72.3377C278.095 72.4555 278.006 72.6244 277.988 72.8076Z" fill="#263238"/>
<path d="M277.554 71.6819C277.649 71.7763 278.184 71.3673 278.989 71.3673C279.794 71.3673 280.354 71.7637 280.442 71.6693C280.53 71.575 280.392 71.4554 280.14 71.2666C279.798 71.0313 279.392 70.9081 278.976 70.9143C278.568 70.912 278.169 71.0398 277.837 71.2792C277.592 71.468 277.51 71.6379 277.554 71.6819Z" fill="#263238"/>
<path d="M274.699 77.5199C274.291 77.3896 273.868 77.3114 273.441 77.2871C273.239 77.2871 273.051 77.2305 273.013 77.0921C272.991 76.873 273.04 76.6526 273.151 76.4629L273.743 74.9339C274.293 73.6354 274.739 72.2951 275.077 70.9258C274.425 72.1772 273.872 73.4773 273.422 74.8143C273.227 75.3554 273.038 75.8651 272.856 76.3559C272.729 76.5976 272.692 76.8758 272.749 77.1424C272.777 77.2143 272.822 77.2784 272.88 77.3297C272.938 77.3811 273.007 77.4182 273.082 77.4381C273.193 77.4685 273.307 77.4854 273.422 77.4885C273.845 77.5494 274.274 77.56 274.699 77.5199Z" fill="#263238"/>
<path d="M274.957 86.8316C274.957 86.8316 277.996 87.077 281.796 84.793C281.796 84.793 280.601 88.8136 274.875 88.2788L274.957 86.8316Z" fill="#EB996E"/>
<path d="M275.029 79.4199C275.176 79.232 275.369 79.0848 275.589 78.9923C275.81 78.8998 276.05 78.865 276.287 78.8913C276.461 78.9066 276.629 78.9568 276.783 79.039C276.936 79.1212 277.072 79.2336 277.181 79.3695C277.286 79.5004 277.349 79.6606 277.36 79.8284C277.371 79.9961 277.331 80.1633 277.244 80.3071C277.118 80.4499 276.953 80.5515 276.768 80.5987C276.584 80.6458 276.39 80.6363 276.212 80.5713C275.838 80.4291 275.496 80.2154 275.205 79.9421C275.118 79.879 275.043 79.8 274.985 79.7093C274.954 79.6673 274.937 79.6166 274.938 79.5646C274.937 79.5126 274.954 79.4619 274.985 79.4199" fill="#EB996E"/>
<path d="M277.032 78.0665C276.906 78.0665 276.906 78.9097 276.176 79.52C275.446 80.1304 274.534 80.0297 274.527 80.1492C274.521 80.2688 274.729 80.3128 275.113 80.3254C275.614 80.3329 276.102 80.1636 276.491 79.8472C276.86 79.5401 277.099 79.1035 277.158 78.6265C277.17 78.2679 277.076 78.0603 277.032 78.0665Z" fill="#263238"/>
<path d="M277.199 70.3027C277.275 70.5166 278.061 70.416 278.986 70.5229C279.911 70.6299 280.66 70.8879 280.779 70.6928C280.836 70.6047 280.704 70.4034 280.402 70.1957C280.003 69.9369 279.547 69.7772 279.074 69.7301C278.602 69.6705 278.123 69.7267 277.677 69.8937C277.337 70.0321 277.168 70.1957 277.199 70.3027Z" fill="#263238"/>
<path d="M270.111 69.9245C270.25 70.1007 270.791 69.9245 271.445 69.9245C272.1 69.9245 272.653 70.044 272.779 69.8616C272.905 69.6791 272.748 69.591 272.502 69.4211C272.179 69.2174 271.802 69.1146 271.42 69.1258C271.038 69.137 270.668 69.2617 270.357 69.484C270.111 69.6539 270.042 69.8427 270.111 69.9245Z" fill="#263238"/>
<path d="M278.245 77.6976C278.262 77.6917 278.281 77.69 278.299 77.6925C278.317 77.695 278.335 77.7017 278.35 77.7121C278.365 77.7224 278.378 77.7362 278.387 77.7522C278.396 77.7683 278.401 77.7862 278.402 77.8045C278.4 77.8224 278.394 77.8396 278.385 77.8548C278.375 77.8701 278.363 77.883 278.348 77.8927C278.333 77.9024 278.315 77.9085 278.298 77.9107C278.28 77.9129 278.262 77.911 278.245 77.9052C278.229 77.8971 278.215 77.8855 278.204 77.8712C278.193 77.857 278.186 77.8405 278.182 77.823C278.179 77.8055 278.179 77.7874 278.183 77.7701C278.187 77.7527 278.196 77.7365 278.207 77.7228" fill="#263238"/>
<path d="M273.621 66.6978C274.042 67.3063 274.591 67.8146 275.231 68.1865C275.87 68.5585 276.584 68.7849 277.321 68.8497C278.284 68.9252 279.385 68.7553 280.115 69.3908C280.576 69.9319 280.892 70.5815 281.033 71.2784C281.366 72.3133 282.058 73.195 282.984 73.7638C283.714 74.1728 284.626 74.349 285.155 75.0223C285.683 75.6955 285.658 76.6897 285.677 77.5769C285.696 78.4641 285.897 79.496 286.696 79.8798C286.725 76.654 286.755 73.422 286.784 70.1836C286.817 69.7032 286.759 69.2208 286.614 68.7616C286.224 67.7486 285.079 67.2641 284.028 66.9809C281.058 66.1692 277.95 66.0749 274.873 65.9805" fill="#263238"/>
<path d="M265.707 67.6094C265.707 67.6094 267.595 59.8134 267.765 59.4296C267.934 59.0458 270.149 55.6543 275.46 54.6602H279.864C279.864 54.6602 286.094 56.6674 287.232 58.1838C288.371 59.7002 288.856 67.0682 288.856 67.0682L276.548 64.3941L268.18 66.4327L265.707 67.6094Z" fill="#04242D"/>
<path d="M276.892 53.7734H275.005C274.526 54.3235 274.261 55.0266 274.256 55.7555C274.168 57.1208 273.859 66.4521 273.859 66.4521L279.359 66.2067L279.182 54.6417L281.07 55.057L281.014 54.4278L280.516 53.8427L276.892 53.7734Z" fill="#074F62"/>
<path d="M268.047 68.3019L268.154 65.4704L276.434 63.0039L286.779 66.0682V69.1136C280.865 66.4693 274.167 66.179 268.047 68.3019Z" fill="#455A64"/>
<path d="M268.669 64.8656L268.304 65.2242L265.328 67.1119C269.131 66.1128 273.043 65.5928 276.975 65.564C282.902 65.6269 289.679 67.6278 289.679 67.6278L285.752 65.2683C285.136 64.608 284.394 64.0779 283.569 63.7093C282.745 63.3408 281.854 63.1413 280.951 63.1227L273.508 62.9779C271.709 62.9417 269.969 63.6205 268.669 64.8656Z" fill="#074F62"/>
<path d="M273.991 62.7662C273.904 61.4455 273.923 60.1198 274.048 58.8022C274.067 57.4809 274.195 56.1634 274.432 54.8633C274.519 56.1819 274.501 57.5054 274.375 58.821C274.355 60.1444 274.227 61.4639 273.991 62.7662Z" fill="#263238"/>
<path d="M281.059 55.0824C280.593 55.0682 280.129 55.0092 279.675 54.9062C279.585 54.9109 279.5 54.949 279.437 55.0131C279.374 55.0772 279.338 55.1625 279.335 55.2523C279.335 55.5166 279.335 55.7871 279.335 56.0703C279.335 56.668 279.335 57.2972 279.379 57.9579C279.379 59.3044 279.379 60.5188 279.379 61.3997C279.4 61.8757 279.368 62.3526 279.284 62.8217C279.185 62.3544 279.139 61.8774 279.146 61.3997C279.102 60.5188 279.064 59.3044 279.039 57.9642C279.039 57.2972 279.039 56.668 279.039 56.0766V55.2397C279.056 55.0851 279.13 54.9423 279.246 54.8389C279.362 54.7355 279.513 54.6788 279.668 54.6797C280.149 54.7473 280.617 54.8829 281.059 55.0824Z" fill="#263238"/>
<path d="M265.141 67.0584C265.213 67.0028 265.291 66.9543 265.373 66.9137C265.531 66.8256 265.77 66.7124 266.084 66.5739C266.399 66.4355 266.783 66.2908 267.204 66.0706C267.684 65.8462 268.1 65.5042 268.413 65.0764C268.765 64.6234 268.815 63.9061 269.306 63.302C269.565 62.9915 269.927 62.7839 270.325 62.7169C270.716 62.6498 271.112 62.614 271.508 62.6099C273.113 62.5281 274.881 62.5029 276.737 62.5533C278.593 62.6036 280.349 62.7169 281.953 62.8553C282.75 62.8529 283.522 63.1289 284.137 63.6355C284.371 63.8946 284.582 64.1748 284.766 64.4724L285.043 64.8688L285.181 65.0575C285.222 65.102 285.271 65.1383 285.326 65.1645C286.389 65.7119 287.308 66.0957 287.906 66.4229C288.208 66.5739 288.44 66.6998 288.591 66.7879C288.676 66.8292 288.754 66.8822 288.824 66.9452C288.824 66.9452 288.472 66.8005 287.849 66.5362C287.226 66.2719 286.32 65.907 285.213 65.3784C285.128 65.3408 285.053 65.2849 284.992 65.2148L284.848 65.0261C284.753 64.9002 284.653 64.7681 284.558 64.6297C284.372 64.3497 284.161 64.0866 283.929 63.8431C283.353 63.3894 282.636 63.1513 281.903 63.1699C280.311 63.044 278.555 62.9434 276.706 62.893C274.856 62.8427 273.1 62.8553 271.508 62.893C270.715 62.893 269.91 62.893 269.495 63.4593C269.08 64.0256 268.985 64.68 268.582 65.196C268.236 65.642 267.784 65.9945 267.267 66.2216C266.821 66.4229 266.431 66.5614 266.11 66.6746C265.493 66.92 265.153 67.0836 265.141 67.0584Z" fill="#263238"/>
<path d="M266.254 67.4952C266.254 67.4952 266.304 67.4323 266.436 67.3379C266.631 67.1886 266.842 67.0619 267.066 66.9604C267.84 66.5757 268.661 66.2903 269.507 66.111C272.29 65.5094 275.148 65.3396 277.982 65.6076C279.631 65.7271 281.217 65.8089 282.645 66.0103C283.917 66.2045 285.177 66.4692 286.42 66.8031C286.895 66.9298 287.364 67.081 287.823 67.2561C288.189 67.3676 288.523 67.5638 288.799 67.8287C288.965 67.9972 289.064 68.2213 289.075 68.4579C289.085 68.5438 289.065 68.6304 289.019 68.7033C289.032 68.5526 289.011 68.4007 288.958 68.2591C288.905 68.1175 288.82 67.9897 288.711 67.8853C288.436 67.6521 288.111 67.4862 287.76 67.4008C287.358 67.2624 286.886 67.124 286.364 66.9919C285.319 66.7465 284.042 66.4759 282.632 66.2808C281.223 66.0858 279.644 66.0229 277.989 65.9033C275.184 65.6406 272.356 65.7761 269.589 66.306C268.753 66.4641 267.937 66.7109 267.154 67.0422C266.537 67.3253 266.273 67.533 266.254 67.4952Z" fill="#263238"/>
<path d="M274.867 63.132C274.997 63.1227 275.127 63.1227 275.257 63.132H276.327C277.227 63.132 278.473 63.2201 279.844 63.3334C280.524 63.39 281.178 63.4529 281.77 63.5221C282.299 63.5584 282.824 63.6447 283.336 63.7801C283.688 63.8804 283.992 64.1037 284.192 64.4093C284.266 64.5192 284.308 64.648 284.312 64.7806C284.271 64.6594 284.216 64.5433 284.148 64.4345C283.942 64.1518 283.647 63.9459 283.311 63.8493C282.8 63.7308 282.281 63.655 281.757 63.6228L279.832 63.4466C278.46 63.3334 277.22 63.2579 276.321 63.2075L275.257 63.1509C275.127 63.1602 274.996 63.1539 274.867 63.132Z" fill="#FAFAFA"/>
<path d="M279.006 62.0344C278.981 61.9438 278.964 61.8511 278.956 61.7575C278.956 61.5813 278.899 61.3171 278.861 60.9962C278.798 60.367 278.729 59.4672 278.698 58.4793C278.666 57.4915 278.698 56.5917 278.698 55.9625C278.698 55.6416 278.698 55.3773 278.742 55.2011C278.743 55.1056 278.755 55.0105 278.779 54.918C278.789 55.0121 278.789 55.107 278.779 55.2011C278.779 55.4528 278.779 55.7045 278.779 55.9625C278.779 56.5917 278.779 57.4977 278.779 58.4793C278.779 59.4609 278.861 60.367 278.905 60.9962L278.956 61.7575C278.988 61.8462 279.005 61.9399 279.006 62.0344Z" fill="#FAFAFA"/>
<path d="M285.211 65.5273C285.3 65.5432 285.387 65.5707 285.469 65.6091L286.142 65.8734L288.351 66.7858C288.764 66.9416 289.164 67.131 289.546 67.3521C289.871 67.5374 290.117 67.835 290.238 68.1889C290.327 68.4242 290.327 68.6835 290.238 68.9188C290.205 69.0043 290.149 69.0786 290.075 69.1327C290.075 69.1327 290.131 69.0572 290.188 68.8999C290.266 68.678 290.266 68.436 290.188 68.2141C290.065 67.888 289.828 67.6175 289.521 67.4527C289.14 67.2432 288.745 67.0603 288.338 66.9053L286.142 65.9552L285.513 65.6532C285.408 65.6218 285.307 65.5797 285.211 65.5273Z" fill="#FAFAFA"/>
<path d="M275.805 54.0111C276.062 53.9843 276.32 53.9738 276.579 53.9797H278.466C279.097 53.966 279.728 53.9976 280.354 54.074C280.548 54.1121 280.726 54.2087 280.864 54.3509C280.915 54.4023 280.95 54.4681 280.964 54.5396C280.891 54.4369 280.798 54.3508 280.689 54.2868C280.581 54.2228 280.46 54.1825 280.335 54.1684C279.882 54.0866 279.209 54.137 278.447 54.1055C277.686 54.074 277.063 54.074 276.56 54.0552C276.307 54.0638 276.054 54.049 275.805 54.0111Z" fill="#FAFAFA"/>
<path d="M268.045 68.3023C267.454 70.7941 267.641 73.4074 268.58 75.7899C268.587 74.2346 268.73 72.6828 269.008 71.1526C269.112 70.4019 269.353 69.6767 269.719 69.0133C270.204 68.3841 271.066 68.233 271.84 68.0632C272.614 67.8933 273.469 67.7737 273.727 67.0312C271.776 67.1977 269.855 67.6208 268.014 68.2897" fill="#263238"/>
<path d="M274.888 88.286C274.036 88.335 273.23 88.6929 272.623 89.2928C272.094 89.9534 271.761 90.7714 271.094 91.2874C270.427 91.8033 269.615 91.9166 269.049 92.4703C267.929 93.5463 268.476 95.4339 267.992 96.8748C267.623 97.7043 267.152 98.4843 266.589 99.1966C266.311 99.5558 266.122 99.9758 266.038 100.422C265.954 100.868 265.977 101.328 266.104 101.764C266.266 102.104 266.511 102.398 266.817 102.618C267.123 102.838 267.479 102.977 267.853 103.022C268.601 103.095 269.355 102.992 270.056 102.72L269.968 100.971C270.038 101.31 270.177 101.632 270.377 101.915C270.482 102.054 270.626 102.157 270.791 102.212C270.956 102.267 271.134 102.271 271.302 102.223C271.805 102.022 271.818 101.323 271.767 100.782C271.572 98.7813 271.667 96.6231 272.805 94.9683C273.34 94.1818 274.253 93.3512 274.693 92.5206L274.869 88.2734" fill="#263238"/>
<path d="M242.557 119.696C242.557 119.696 243.683 117.242 245.325 117.343C246.968 117.444 251.573 117.972 251.573 117.972L252.083 120.225L242.016 119.709" fill="#FFBE9D"/>
<path d="M247.34 119.724L250.152 111.009C250.223 110.789 250.362 110.598 250.548 110.462C250.735 110.326 250.96 110.253 251.191 110.254C251.36 110.253 251.527 110.292 251.679 110.367C251.83 110.442 251.963 110.551 252.065 110.686C252.168 110.821 252.237 110.978 252.269 111.144C252.301 111.31 252.293 111.481 252.248 111.644L249.813 120.214L247.34 119.724Z" fill="#349F6E"/>
<path d="M237.328 119.715H264.661L282.789 144.349L257.224 143.977L237.328 119.715Z" fill="#263238"/>
<path d="M271.181 128.707C272.396 128.566 273.622 128.528 274.843 128.594C276.272 128.738 281.651 129.959 281.651 129.959L283.954 137.101L281.286 136.862L279.493 137.73C276.63 138.107 273.339 138.491 272.71 138.359C272.71 138.359 271.634 137.73 271.955 137.138C271.955 137.138 269.514 136.855 269.765 134.911C269.351 134.821 268.974 134.604 268.69 134.289C268.405 133.974 268.227 133.577 268.18 133.155L263.706 132.91C263.493 132.897 263.291 132.809 263.137 132.66C262.983 132.511 262.888 132.311 262.869 132.098C262.825 131.595 263.498 131.419 264.008 131.4L270.986 131.098C271.173 131.09 271.355 131.03 271.51 130.926C271.666 130.821 271.79 130.676 271.87 130.506C271.949 130.336 271.98 130.148 271.959 129.962C271.939 129.775 271.868 129.598 271.754 129.449L271.181 128.707Z" fill="#FFBE9D"/>
<g opacity="0.5">
<path d="M273.217 145.966L294 141.523L296.321 149.212L272.934 151.792L273.217 145.966Z" fill="white"/>
</g>
<g opacity="0.5">
<path d="M272.37 145.834L258.401 140.863L255.211 148.426L272.017 151.535L272.37 145.834Z" fill="white"/>
</g>
<path d="M290.371 77.6133C290.447 77.7576 290.491 77.9164 290.501 78.0791C290.51 78.2418 290.486 78.4047 290.428 78.5571C290.326 78.9382 290.14 79.2919 289.884 79.5923C289.629 79.8927 289.309 80.1323 288.949 80.2937C288.575 80.4169 288.179 80.4576 287.788 80.4131C287.397 80.3685 287.02 80.2398 286.684 80.0357C286.174 79.7086 286.055 79.3373 286.055 79.3247C286.055 79.3122 286.306 79.589 286.797 79.8344C287.43 80.1422 288.157 80.1984 288.83 79.9917C289.146 79.8436 289.43 79.6345 289.665 79.3764C289.901 79.1184 290.083 78.8164 290.201 78.4879C290.283 78.2017 290.339 77.9091 290.371 77.6133Z" fill="#455A64"/>
<path d="M290.32 77.4451C290.176 77.794 289.938 78.0966 289.634 78.3197C289.322 78.5919 288.952 78.7879 288.552 78.8923C288.044 79.0302 287.502 78.9718 287.035 78.7287C286.585 78.4781 286.219 78.0992 285.984 77.6402C285.797 77.276 285.673 76.8822 285.62 76.4761C285.538 76.1136 285.538 75.7375 285.62 75.375C285.722 75.7211 285.797 76.0745 285.846 76.4321C285.914 76.8419 286.068 77.2327 286.298 77.5787C286.528 77.9247 286.828 78.218 287.18 78.4393C287.58 78.6442 288.039 78.7 288.476 78.5966C288.843 78.5171 289.188 78.3605 289.489 78.1372C290.018 77.7534 290.276 77.3948 290.32 77.4451Z" fill="#455A64"/>
<path d="M293.189 117.771C293.189 117.771 293.12 117.715 293.013 117.582C292.906 117.45 292.748 117.255 292.572 116.953C292.053 116.208 291.592 115.423 291.194 114.606C289.857 111.902 289.148 108.931 289.118 105.914C289.089 102.898 289.74 99.9132 291.024 97.1834C291.406 96.357 291.852 95.5617 292.358 94.805C292.491 94.5986 292.634 94.3991 292.786 94.2072C292.887 94.0688 292.95 94.0059 292.956 94.0121C292.81 94.3091 292.646 94.5969 292.465 94.8742C292.008 95.6495 291.598 96.4522 291.238 97.2778C289.873 100.418 289.291 103.843 289.542 107.259C289.793 110.674 290.87 113.977 292.679 116.884C292.866 117.17 293.036 117.466 293.189 117.771Z" fill="#263238"/>
<path d="M275.617 112.75C275.845 112.518 276.093 112.308 276.36 112.121C277.043 111.579 277.699 111.001 278.323 110.391C280.361 108.35 282.106 106.035 283.508 103.514C284.907 100.986 286.142 98.3717 287.207 95.6862C287.616 94.7046 287.956 93.8866 288.214 93.2574C288.321 92.9543 288.456 92.6615 288.617 92.3828C288.551 92.6972 288.456 93.0047 288.334 93.3015C288.126 93.8929 287.824 94.7361 287.421 95.7743C286.412 98.4951 285.2 101.137 283.797 103.677C282.384 106.224 280.593 108.543 278.486 110.554C277.843 111.158 277.158 111.715 276.435 112.222C276.183 112.411 275.976 112.53 275.837 112.618C275.771 112.674 275.697 112.718 275.617 112.75Z" fill="#263238"/>
<path d="M270.512 92.8477C270.575 92.8477 270.223 93.9236 269.971 95.698C269.827 96.7403 269.762 97.792 269.776 98.8441C269.807 100.124 269.946 101.4 270.192 102.657C270.457 103.91 270.825 105.139 271.293 106.332C271.687 107.301 272.154 108.239 272.689 109.138C273.608 110.673 274.344 111.516 274.294 111.554C274.092 111.385 273.91 111.193 273.753 110.982C273.55 110.754 273.361 110.515 273.187 110.264C272.973 109.969 272.721 109.635 272.488 109.258C271.919 108.363 271.427 107.422 271.016 106.445C270.004 104.034 269.482 101.446 269.48 98.8315C269.479 97.7772 269.567 96.7246 269.745 95.6854C269.801 95.2387 269.915 94.8423 269.99 94.4899C270.056 94.19 270.138 93.8938 270.236 93.6027C270.296 93.3405 270.389 93.0869 270.512 92.8477Z" fill="#263238"/>
<path d="M268.223 91.7383C268.311 91.7383 267.279 96.7217 265.92 102.831C264.561 108.941 263.403 113.874 263.29 113.855C263.176 113.836 264.233 108.866 265.599 102.756C266.964 96.6462 268.135 91.7195 268.223 91.7383Z" fill="#263238"/>
<path d="M236.511 87.3609L238.607 80.062C238.607 80.062 239.368 77.0984 239.55 76.4063C239.783 75.4876 239.148 75.1919 238.758 75.8148C238.613 76.0539 236.977 79.0616 236.977 79.0616L238.355 73.9398C238.783 72.329 237.776 72.4863 237.48 73.0589C237.185 73.6315 235.316 78.5141 235.316 78.5141C237.071 72.1591 236.574 71.5928 236.071 71.4858C235.568 71.3789 234.039 77.1928 234.039 77.1928C233.658 76.5264 233.138 75.9493 232.516 75.5002C230.987 74.4243 228.413 75.4625 228.281 76.1861C228.149 76.9097 229.068 77.1173 229.068 77.1173C229.431 76.8466 229.867 76.6886 230.319 76.6629C230.772 76.6372 231.222 76.7449 231.614 76.9727C232.006 77.2005 232.322 77.5384 232.524 77.9444C232.726 78.3504 232.804 78.8067 232.749 79.2566C232.718 79.5929 232.569 79.9075 232.33 80.1456C232.09 80.3837 231.775 80.5301 231.439 80.5594C231.102 80.5886 230.766 80.4987 230.489 80.3055C230.212 80.1122 230.012 79.8279 229.923 79.502C229.294 76.6265 228.313 77.5452 228.313 77.5452L229.25 83.8939L228.168 87.04" fill="#B78876"/>
<path d="M202.536 62.1162C204.921 61.487 206.393 60.6313 206.393 59.7C206.393 57.7621 200.139 56.1953 192.431 56.1953C184.723 56.1953 178.469 57.7621 178.469 59.7C178.469 60.6313 179.916 61.4744 182.288 62.1036" fill="#04242D"/>
<g opacity="0.4">
<path d="M201.198 62.0484C203.318 61.4884 204.671 60.7334 204.614 59.9028C204.469 57.5999 199.077 56.8008 192.238 56.8008C185.398 56.8008 179.867 58.1913 179.867 59.9028C179.867 60.7334 181.126 61.4821 183.252 62.0358" fill="black"/>
</g>
<path d="M204.471 58.7898C204.471 58.7898 202.47 50.61 202.3 50.1821C202.13 49.7543 199.783 46.1866 194.196 45.1484H189.571C189.571 45.1484 183.008 47.2626 181.813 48.8608C180.617 50.459 180.133 58.2298 180.133 58.2298L193.088 55.4109L201.897 57.5565L204.471 58.7898Z" fill="#04242D"/>
<path d="M192.718 44.2227H194.7C195.205 44.7996 195.486 45.5386 195.492 46.3054C195.581 47.74 195.908 57.5997 195.908 57.5997L190.113 57.3355L190.301 45.1602L188.332 45.6006L188.395 44.9085L188.917 44.2793L192.718 44.2227Z" fill="#074F62"/>
<path d="M162.313 249.617L158.493 264.756L152.025 275.862C151.912 276.052 151.84 276.263 151.813 276.482C151.786 276.701 151.804 276.924 151.868 277.136C151.931 277.347 152.037 277.544 152.18 277.712C152.323 277.88 152.5 278.017 152.698 278.114C152.925 278.231 153.176 278.292 153.431 278.292C153.686 278.292 153.937 278.231 154.164 278.114C157.065 276.548 167.73 270.727 167.944 269.601C168.196 268.305 173.028 253.871 173.028 253.871L162.313 249.617Z" fill="#349F6E"/>
<g opacity="0.6">
<path d="M152.699 278.114L168.228 268.562L168.052 269.192C167.898 269.742 167.555 270.221 167.083 270.545C165.825 271.407 162.27 273.691 154.209 278.095C153.977 278.221 153.718 278.286 153.454 278.286C153.191 278.286 152.931 278.221 152.699 278.095V278.114Z" fill="white"/>
</g>
<g opacity="0.6">
<path d="M166.481 262.846C166.259 262.931 166.076 263.094 165.967 263.306C165.858 263.517 165.831 263.761 165.89 263.991C165.965 264.217 166.125 264.406 166.336 264.517C166.547 264.629 166.793 264.654 167.022 264.588C167.26 264.5 167.457 264.326 167.573 264.1C167.69 263.874 167.718 263.613 167.652 263.368C167.547 263.138 167.357 262.959 167.122 262.867C166.887 262.775 166.625 262.779 166.393 262.877" fill="white"/>
</g>
<path d="M157.953 272.45C157.723 271.879 157.386 271.358 156.959 270.915C156.466 270.545 155.909 270.27 155.316 270.103C155.316 270.065 155.537 270.002 155.902 270.046C156.373 270.129 156.811 270.348 157.16 270.676C157.524 270.995 157.788 271.412 157.921 271.877C158.035 272.242 157.997 272.45 157.953 272.45Z" fill="#263238"/>
<path d="M156.327 274.191C156.233 274.236 155.887 273.613 155.17 273.178C154.71 272.941 154.238 272.731 153.754 272.549C154.026 272.469 154.312 272.455 154.591 272.509C154.869 272.562 155.13 272.682 155.352 272.858C156.164 273.392 156.415 274.173 156.327 274.191Z" fill="#263238"/>
<path d="M160.665 270.442C160.149 269.84 159.59 269.276 158.991 268.756C158.325 268.324 157.627 267.943 156.902 267.617C157.746 267.622 158.561 267.928 159.199 268.479C159.903 268.941 160.422 269.636 160.665 270.442Z" fill="#263238"/>
<path d="M162.211 265.938C162.142 266.02 161.406 265.441 160.324 265.101C159.241 264.761 158.323 264.787 158.316 264.686C159.009 264.463 159.759 264.495 160.431 264.774C161.143 264.941 161.773 265.353 162.211 265.938Z" fill="#263238"/>
<path d="M163.441 261.524C162.844 261.133 162.196 260.824 161.516 260.606C160.811 260.489 160.093 260.472 159.383 260.555C159.383 260.511 159.584 260.373 160.012 260.266C160.543 260.144 161.094 260.146 161.624 260.272C162.153 260.399 162.646 260.647 163.064 260.996C163.347 261.273 163.473 261.499 163.441 261.524Z" fill="#263238"/>
<path d="M161.781 259.766C161.782 259.568 161.827 259.372 161.913 259.194C162.11 258.686 162.405 258.222 162.781 257.828C163.029 257.515 163.375 257.294 163.763 257.199C163.889 257.184 164.016 257.207 164.128 257.266C164.24 257.324 164.332 257.415 164.392 257.526C164.502 257.761 164.52 258.028 164.443 258.275C164.269 258.772 163.928 259.192 163.478 259.463C163.027 259.734 162.496 259.839 161.976 259.76C161.463 259.674 160.988 259.437 160.61 259.08C160.232 258.722 159.97 258.26 159.856 257.753C159.829 257.625 159.829 257.492 159.858 257.364C159.886 257.236 159.941 257.115 160.019 257.01C160.109 256.913 160.228 256.847 160.358 256.821C160.488 256.795 160.622 256.811 160.743 256.866C161.091 257.05 161.384 257.324 161.592 257.658C161.911 258.095 162.149 258.585 162.297 259.106C162.367 259.292 162.397 259.492 162.385 259.691C162.151 259.016 161.818 258.38 161.397 257.803C161.204 257.52 160.945 257.289 160.642 257.13C160.576 257.099 160.502 257.091 160.43 257.105C160.359 257.12 160.294 257.157 160.246 257.212C160.201 257.284 160.17 257.365 160.158 257.449C160.145 257.534 160.149 257.62 160.17 257.703C160.282 258.137 160.516 258.53 160.846 258.835C161.175 259.139 161.585 259.343 162.026 259.42C162.47 259.484 162.921 259.394 163.306 259.165C163.691 258.936 163.985 258.582 164.141 258.162C164.198 257.993 164.198 257.809 164.141 257.64C164.106 257.575 164.053 257.523 163.987 257.49C163.922 257.457 163.848 257.446 163.776 257.457C163.447 257.535 163.151 257.716 162.932 257.973C162.446 258.498 162.056 259.105 161.781 259.766Z" fill="#263238"/>
<path d="M203.006 253.961L202.156 266.042C202.156 266.042 214.155 270.949 214.218 273.196L190.742 272.415L191.271 253.539L203.006 253.961Z" fill="#349F6E"/>
<path d="M194.945 264.781C194.716 264.841 194.518 264.983 194.389 265.181C194.26 265.379 194.209 265.618 194.246 265.851C194.298 266.082 194.436 266.284 194.633 266.415C194.83 266.547 195.07 266.597 195.303 266.556C195.545 266.49 195.753 266.338 195.888 266.127C196.023 265.916 196.075 265.663 196.033 265.417C195.958 265.179 195.793 264.981 195.573 264.863C195.353 264.745 195.096 264.718 194.857 264.787" fill="#E0E0E0"/>
<g opacity="0.6">
<path d="M190.754 272.415L190.88 270.527L213.343 271.987C213.343 271.987 214.375 272.478 214.23 273.208L190.754 272.415Z" fill="white"/>
</g>
<path d="M202.552 265.933C202.552 266.046 201.973 266.084 201.394 266.43C200.815 266.776 200.501 267.254 200.4 267.204C200.3 267.153 200.488 266.499 201.193 266.09C201.898 265.681 202.584 265.832 202.552 265.933Z" fill="#263238"/>
<path d="M204.982 267.032C204.982 267.145 204.504 267.322 204.102 267.794C203.699 268.265 203.567 268.775 203.472 268.769C203.378 268.762 203.309 268.14 203.825 267.51C204.341 266.881 204.989 266.925 204.982 267.032Z" fill="#263238"/>
<path d="M206.285 270.026C206.178 270.026 206.039 269.466 206.354 268.85C206.668 268.233 207.216 268 207.26 268.094C207.304 268.189 206.964 268.516 206.713 269.032C206.461 269.548 206.398 270.02 206.285 270.026Z" fill="#263238"/>
<path d="M202.439 263.158C202.389 263.265 201.867 263.089 201.219 263.108C200.571 263.127 200.061 263.322 200.004 263.221C199.948 263.12 200.445 262.724 201.212 262.711C201.98 262.699 202.502 263.07 202.439 263.158Z" fill="#263238"/>
<path d="M202.566 260.725C202.176 260.812 201.77 260.795 201.39 260.674C200.968 260.59 200.56 260.45 200.175 260.259C199.944 260.148 199.721 260.019 199.508 259.875C199.376 259.8 199.259 259.702 199.162 259.586C199.086 259.5 199.042 259.391 199.036 259.277C199.03 259.162 199.064 259.049 199.131 258.956C199.191 258.879 199.268 258.816 199.356 258.773C199.445 258.731 199.542 258.709 199.64 258.711C199.79 258.716 199.938 258.742 200.081 258.787C200.329 258.859 200.571 258.951 200.804 259.063C201.194 259.256 201.551 259.508 201.861 259.812C202.39 260.334 202.566 260.769 202.522 260.787C202.478 260.806 202.22 260.46 201.679 260.02C201.363 259.767 201.016 259.556 200.647 259.391C200.431 259.297 200.208 259.219 199.98 259.158C199.735 259.089 199.521 259.076 199.452 259.158C199.382 259.24 199.452 259.221 199.452 259.296C199.528 259.374 199.612 259.444 199.703 259.504C199.911 259.649 200.112 259.768 200.332 259.881C200.692 260.07 201.066 260.228 201.452 260.353C201.833 260.447 202.205 260.571 202.566 260.725Z" fill="#263238"/>
<path d="M202.409 260.878C202.202 260.533 202.108 260.133 202.138 259.733C202.135 259.305 202.203 258.879 202.34 258.474C202.425 258.229 202.535 257.993 202.667 257.769C202.734 257.616 202.84 257.483 202.975 257.384C203.11 257.284 203.268 257.222 203.435 257.203C203.539 257.208 203.639 257.242 203.724 257.303C203.809 257.363 203.874 257.446 203.913 257.543C203.972 257.683 204.008 257.832 204.02 257.983C204.061 258.244 204.061 258.509 204.02 258.77C203.941 259.209 203.755 259.621 203.479 259.972C203 260.563 202.516 260.683 202.51 260.645C202.503 260.607 202.881 260.381 203.252 259.808C203.465 259.476 203.604 259.103 203.661 258.713C203.689 258.488 203.689 258.259 203.661 258.034C203.63 257.782 203.542 257.581 203.447 257.6C203.353 257.618 203.126 257.776 203.026 257.971C202.903 258.171 202.798 258.382 202.711 258.6C202.569 258.974 202.48 259.366 202.447 259.764C202.365 260.431 202.472 260.859 202.409 260.878Z" fill="#263238"/>
<path d="M183.732 90.2985L197.846 89.6692C197.927 88.1717 197.16 78.9097 197.16 78.9097C197.16 78.9097 202.495 78.0791 202.565 72.7434C202.634 67.4077 201.822 56.7551 201.822 56.7551L201.728 56.2895C195.555 53.6405 188.401 53.4014 183.078 57.5038L182.285 58.1331L183.732 90.2985Z" fill="#B78876"/>
<path d="M197.171 78.8117C194.702 78.8622 192.274 78.1742 190.199 76.8359C190.199 76.8359 191.848 80.6741 197.171 80.1959V78.8117Z" fill="#AA6550"/>
<path d="M182.942 63.6158C182.854 63.5781 179.28 62.5336 179.393 66.183C179.507 69.8325 183.169 68.9579 183.169 68.8572C183.169 68.7565 182.942 63.6158 182.942 63.6158Z" fill="#B78876"/>
<path d="M182.024 67.5117C182.024 67.5117 181.967 67.5558 181.86 67.6061C181.707 67.669 181.535 67.669 181.382 67.6061C181.142 67.4648 180.944 67.2619 180.81 67.0185C180.675 66.7751 180.607 66.5 180.614 66.2218C180.592 65.9086 180.642 65.5945 180.759 65.3032C180.79 65.1878 180.848 65.0817 180.93 64.994C181.011 64.9063 181.112 64.8396 181.225 64.7998C181.297 64.7797 181.374 64.7851 181.442 64.8148C181.511 64.8446 181.567 64.897 181.602 64.9634C181.652 65.0641 181.634 65.1396 181.652 65.1459C181.671 65.1522 181.728 65.0829 181.697 64.9319C181.673 64.8416 181.62 64.7618 181.545 64.7054C181.495 64.6693 181.438 64.6434 181.377 64.6294C181.317 64.6154 181.254 64.6134 181.193 64.6236C181.047 64.661 180.912 64.7349 180.802 64.8383C180.692 64.9417 180.61 65.0713 180.564 65.2151C180.418 65.5342 180.354 65.8843 180.375 66.2344C180.369 66.5594 180.458 66.879 180.632 67.154C180.805 67.429 181.055 67.6474 181.35 67.7823C181.449 67.8072 181.552 67.81 181.653 67.7904C181.753 67.7708 181.847 67.7294 181.929 67.669C182.024 67.5998 182.024 67.518 182.024 67.5117Z" fill="#AA6550"/>
<path d="M199.954 63.4074C199.957 63.6055 199.883 63.7971 199.746 63.9407C199.61 64.0843 199.422 64.1685 199.224 64.1751C199.127 64.1836 199.029 64.1725 198.936 64.1424C198.844 64.1122 198.758 64.0637 198.685 63.9996C198.611 63.9356 198.552 63.8574 198.509 63.7697C198.467 63.6819 198.442 63.5865 198.438 63.4892C198.436 63.2915 198.511 63.1009 198.647 62.9577C198.783 62.8144 198.97 62.7297 199.167 62.7216C199.264 62.713 199.362 62.7241 199.455 62.7542C199.548 62.7844 199.633 62.8329 199.707 62.897C199.78 62.961 199.84 63.0393 199.882 63.127C199.925 63.2147 199.949 63.3101 199.954 63.4074Z" fill="#263238"/>
<path d="M200.696 62.6469C200.601 62.7476 200.023 62.3197 199.205 62.3197C198.387 62.3197 197.783 62.735 197.694 62.6343C197.606 62.5336 197.745 62.4078 198.009 62.2191C198.363 61.9724 198.786 61.8426 199.217 61.8478C199.644 61.8451 200.061 61.9796 200.406 62.2316C200.658 62.4204 200.74 62.6029 200.696 62.6469Z" fill="#263238"/>
<path d="M191.902 63.6974C191.903 63.8962 191.827 64.0877 191.69 64.2311C191.552 64.3746 191.364 64.4585 191.165 64.4651C191.069 64.4728 190.971 64.4611 190.879 64.4306C190.786 64.4001 190.701 64.3515 190.628 64.2876C190.555 64.2237 190.495 64.1458 190.452 64.0585C190.409 63.9712 190.384 63.8763 190.379 63.7792C190.377 63.5799 190.453 63.3877 190.59 63.2432C190.728 63.0988 190.916 63.0135 191.115 63.0053C191.311 62.9932 191.504 63.0593 191.651 63.189C191.799 63.3187 191.889 63.5015 191.902 63.6974Z" fill="#263238"/>
<path d="M192.637 62.7992C192.543 62.8999 191.964 62.472 191.146 62.4783C190.328 62.4846 189.724 62.8873 189.636 62.7866C189.548 62.6859 189.686 62.5664 189.95 62.3713C190.306 62.1273 190.727 61.9978 191.159 62.0001C191.586 61.996 192.003 62.1307 192.348 62.3839C192.599 62.579 192.719 62.7551 192.637 62.7992Z" fill="#263238"/>
<path d="M195.61 68.8825C196.042 68.7414 196.491 68.6588 196.944 68.6371C197.152 68.6371 197.347 68.5742 197.385 68.4358C197.404 68.2168 197.356 67.9971 197.246 67.8066C197.051 67.2969 196.844 66.7684 196.617 66.2146C196.047 64.8618 195.582 63.4671 195.227 62.043C195.911 63.3422 196.488 64.6953 196.951 66.0888C197.158 66.6488 197.36 67.1836 197.542 67.6933C197.677 67.9458 197.717 68.2381 197.655 68.5176C197.625 68.5912 197.578 68.6568 197.518 68.7092C197.458 68.7616 197.386 68.7994 197.309 68.8196C197.195 68.853 197.076 68.8699 196.957 68.8699C196.51 68.927 196.058 68.9312 195.61 68.8825Z" fill="#263238"/>
<path d="M193.202 69.4494C193.334 69.4494 193.334 70.3303 194.095 70.9595C194.857 71.5887 195.807 71.4943 195.813 71.5887C195.819 71.6831 195.599 71.7586 195.184 71.7711C194.662 71.7786 194.154 71.6027 193.749 71.2741C193.362 70.9622 193.113 70.5099 193.057 70.0156C193.038 69.6633 193.139 69.4431 193.202 69.4494Z" fill="#263238"/>
<path d="M192.85 59.5885C192.768 59.8087 191.95 59.7018 190.963 59.8213C189.975 59.9409 189.226 60.1989 189.075 59.9975C189.018 59.9031 189.157 59.6955 189.471 59.4753C189.887 59.2054 190.362 59.0393 190.856 58.9908C191.347 58.9324 191.845 58.9906 192.309 59.1607C192.718 59.3054 192.882 59.4815 192.85 59.5885Z" fill="#263238"/>
<path d="M200.392 60.2741C200.248 60.4628 199.681 60.2741 199.002 60.2741C198.322 60.2741 197.743 60.3999 197.617 60.2049C197.561 60.1105 197.617 59.928 197.901 59.7518C198.234 59.5326 198.628 59.4247 199.027 59.4435C199.427 59.4489 199.814 59.5811 200.134 59.821C200.38 59.9909 200.455 60.1797 200.392 60.2741Z" fill="#263238"/>
<path d="M208.072 140.904L205.738 261.43C205.731 261.82 205.571 262.191 205.291 262.464C205.012 262.736 204.636 262.887 204.246 262.883L190.209 262.757C190.013 262.756 189.819 262.715 189.639 262.638C189.459 262.561 189.296 262.449 189.16 262.309C189.024 262.168 188.917 262.002 188.845 261.82C188.773 261.638 188.738 261.443 188.743 261.247L190.92 157.509L172.66 260.499C172.548 261.128 172.213 261.696 171.716 262.099C171.219 262.501 170.593 262.71 169.954 262.688L158.182 262.279C157.808 262.265 157.441 262.172 157.106 262.006C156.771 261.84 156.474 261.604 156.236 261.316C155.999 261.027 155.825 260.691 155.726 260.33C155.628 259.969 155.607 259.591 155.665 259.221L174.157 140.426L208.072 140.904Z" fill="#263238"/>
<path d="M236.763 87.2054L228.036 85.1038L222.291 100.727L206.378 86.4881C204.686 85.2297 201.766 85.0913 199.545 84.8207H199.375C198.513 84.7137 198.117 84.5942 197.576 84.5312C193.738 87.413 187.175 87.5955 183.406 84.6193C183.406 84.6193 180.549 85.2486 178.844 85.5946C173.471 86.6265 169.601 90.5402 168.531 94.1519L175.258 109.662L176.547 124.398L172.822 137.612C172.732 137.927 172.71 138.258 172.759 138.582C172.808 138.906 172.925 139.216 173.104 139.491C173.284 139.765 173.52 139.998 173.797 140.173C174.074 140.348 174.385 140.462 174.71 140.506L208.058 141.016L208.6 140.745C209.304 139.449 209.82 137.958 209.493 136.523C208.058 130.231 209.059 111.355 208.757 105.604C215.294 111.952 222.505 117.219 227.772 113.96C232.164 111.21 236.763 87.2054 236.763 87.2054Z" fill="#E0E0E0"/>
<path d="M182.344 60.1832C182.482 61.6619 182.438 63.1594 182.583 64.6381C182.668 65.1967 182.847 65.737 183.111 66.2363C183.209 66.528 183.396 66.7817 183.645 66.9614C183.895 67.1412 184.194 67.2379 184.502 67.2379C184.81 67.2379 185.109 67.1412 185.359 66.9614C185.608 66.7817 185.795 66.528 185.893 66.2363C186.14 65.6391 186.252 64.9943 186.22 64.3486C186.182 63.696 186.25 63.0415 186.421 62.4106C186.722 61.745 187.091 61.1124 187.522 60.523C187.738 60.2277 187.881 59.8863 187.941 59.5258C188.001 59.1653 187.976 58.7957 187.868 58.4466C185.886 58.4088 184.062 59.2079 182.344 60.1895" fill="#263238"/>
<path d="M202.005 59.5186L201.891 56.5362L193.171 53.9375L182.285 57.1465V60.3555C188.512 57.576 195.565 57.2767 202.005 59.5186Z" fill="#455A64"/>
<path d="M201.343 55.8986L201.727 56.2698L204.873 58.2456C200.867 57.1955 196.745 56.6523 192.604 56.6285C186.362 56.6914 179.227 58.7993 179.227 58.7993L183.36 56.2824C184.006 55.5893 184.784 55.0327 185.649 54.6458C186.514 54.2589 187.447 54.0494 188.394 54.0298L196.228 53.8725C197.172 53.8535 198.111 54.0228 198.99 54.3707C199.868 54.7186 200.668 55.238 201.343 55.8986Z" fill="#074F62"/>
<path d="M195.745 53.6878C195.504 52.316 195.371 50.9275 195.348 49.535C195.219 48.1482 195.196 46.7536 195.279 45.3633C195.523 46.7345 195.656 48.1234 195.675 49.5161C195.804 50.9029 195.828 52.2975 195.745 53.6878Z" fill="#263238"/>
<path d="M188.312 45.5997C188.781 45.3901 189.277 45.2461 189.785 45.1719C189.944 45.1715 190.098 45.2317 190.215 45.3403C190.332 45.449 190.403 45.5979 190.414 45.757V46.6379C190.414 47.2672 190.414 47.8964 190.414 48.6263C190.414 50.042 190.351 51.3193 190.307 52.2442C190.311 52.7471 190.263 53.249 190.162 53.7418C190.079 53.2473 190.049 52.7451 190.074 52.2442C190.074 51.3193 190.074 50.042 190.074 48.6263C190.074 47.9278 190.106 47.2609 190.118 46.6379C190.118 46.3422 190.118 46.0528 190.15 45.7759C190.144 45.6794 190.103 45.5884 190.034 45.52C189.966 45.4517 189.875 45.4106 189.779 45.4047C189.296 45.5116 188.806 45.5769 188.312 45.5997Z" fill="#263238"/>
<path d="M205.062 58.209C205.062 58.209 204.697 58.058 204.024 57.8189C203.69 57.693 203.275 57.5546 202.809 57.3344C202.263 57.101 201.786 56.7303 201.425 56.2584C201.003 55.7173 200.928 54.9622 200.462 54.4274C199.997 53.8926 199.172 53.8611 198.342 53.8297C196.662 53.7604 194.806 53.7416 192.868 53.7982C190.93 53.8548 189.092 53.9555 187.393 54.0876C186.619 54.0686 185.863 54.32 185.254 54.7986C185.02 55.0565 184.81 55.3344 184.625 55.6292L184.323 56.0508L184.166 56.2458C184.101 56.3161 184.024 56.3738 183.939 56.4157C182.775 56.982 181.819 57.3407 181.164 57.6364C180.51 57.9321 180.151 58.0894 180.145 58.0705C180.139 58.0517 180.22 58.0013 180.384 57.907C180.548 57.8126 180.793 57.6804 181.108 57.5231C181.737 57.1959 182.706 56.787 183.826 56.2144C183.883 56.1843 183.936 56.1462 183.983 56.1011L184.128 55.9061C184.222 55.7676 184.323 55.6292 184.417 55.4845C184.615 55.1716 184.841 54.8768 185.09 54.6036C185.738 54.0693 186.554 53.7797 187.393 53.7856C189.073 53.6409 190.93 53.5213 192.88 53.4647C194.831 53.4081 196.693 53.4647 198.379 53.5276C198.801 53.5335 199.222 53.5714 199.638 53.6409C200.058 53.7132 200.436 53.9371 200.701 54.2701C201.217 54.8993 201.274 55.6544 201.645 56.1577C201.97 56.6078 202.403 56.9691 202.904 57.2085C203.35 57.435 203.753 57.5923 204.086 57.7371C204.42 57.8818 204.665 58.0013 204.829 58.0894C204.993 58.1775 205.068 58.1964 205.062 58.209Z" fill="#263238"/>
<path d="M203.899 58.6676C203.899 58.6676 203.811 58.6361 203.667 58.5543C203.465 58.4292 203.254 58.3178 203.037 58.2208C202.212 57.8709 201.351 57.6094 200.47 57.4406C197.556 56.8815 194.578 56.7375 191.624 57.0128C189.874 57.1386 188.219 57.2141 186.728 57.4092C185.237 57.6042 183.903 57.8999 182.802 58.1642C182.255 58.3026 181.757 58.4474 181.33 58.5921C180.963 58.6849 180.622 58.8615 180.335 59.108C180.219 59.2174 180.129 59.3519 180.072 59.5012C180.016 59.6506 179.994 59.811 180.008 59.9701C179.962 59.8925 179.942 59.8019 179.952 59.7121C179.958 59.4532 180.061 59.2062 180.241 59.0199C180.528 58.7315 180.88 58.5158 181.267 58.3907C181.695 58.2271 182.192 58.0635 182.745 57.9125C184.044 57.5624 185.361 57.2852 186.691 57.082C188.194 56.868 189.837 56.7799 191.598 56.6541C194.582 56.3707 197.591 56.549 200.521 57.1826C201.41 57.3716 202.273 57.6718 203.088 58.0761C203.312 58.1821 203.523 58.313 203.717 58.4662C203.786 58.5253 203.848 58.5929 203.899 58.6676Z" fill="#263238"/>
<path d="M193.838 44.4742C193.569 44.5154 193.298 44.5364 193.026 44.5371L191.057 44.5875C190.295 44.5875 189.584 44.5875 189.106 44.6504C188.974 44.6663 188.847 44.7098 188.733 44.7781C188.62 44.8464 188.521 44.938 188.445 45.0468C188.445 45.0468 188.445 44.965 188.546 44.8517C188.688 44.6996 188.876 44.598 189.081 44.5623C189.736 44.481 190.396 44.4473 191.057 44.4616H193.02C193.292 44.4416 193.566 44.4458 193.838 44.4742Z" fill="#FAFAFA"/>
<path d="M194.827 54.071C194.69 54.0989 194.551 54.1115 194.411 54.1087L193.291 54.1717C192.348 54.222 191.039 54.2975 189.598 54.4171L187.566 54.6058C187.017 54.6386 186.471 54.7186 185.936 54.8449C185.578 54.9483 185.265 55.1701 185.049 55.4741C184.976 55.5897 184.919 55.7146 184.879 55.8454C184.887 55.7048 184.93 55.5685 185.005 55.449C185.216 55.1245 185.535 54.8841 185.905 54.7694C186.444 54.6268 186.996 54.5362 187.553 54.4989C188.182 54.4296 188.868 54.3604 189.585 54.2975C191.033 54.178 192.341 54.115 193.285 54.0899H194.411C194.549 54.0744 194.688 54.0681 194.827 54.071Z" fill="#FAFAFA"/>
<path d="M190.46 52.9182C190.451 52.8199 190.451 52.7208 190.46 52.6225C190.46 52.3582 190.498 52.0939 190.517 51.8171C190.561 51.1438 190.618 50.2063 190.649 49.1744C190.681 48.1425 190.649 47.1986 190.649 46.5191V45.7137C190.632 45.6159 190.632 45.5158 190.649 45.418C190.669 45.5155 190.682 45.6143 190.687 45.7137C190.687 45.9025 190.718 46.1793 190.731 46.5191C190.762 47.1986 190.775 48.1362 190.731 49.1744C190.687 50.2126 190.63 51.1501 190.561 51.8297C190.561 52.1631 190.498 52.4589 190.467 52.6288C190.479 52.725 190.477 52.8226 190.46 52.9182Z" fill="#FAFAFA"/>
<path d="M183.909 56.5938C183.909 56.5938 183.827 56.6504 183.663 56.7259L182.971 57.0468L180.662 58.0409C180.229 58.2035 179.809 58.3969 179.404 58.6198C179.08 58.7978 178.829 59.0825 178.693 59.4252C178.614 59.6601 178.614 59.9139 178.693 60.1488C178.729 60.2335 178.771 60.3155 178.818 60.3942C178.744 60.3343 178.685 60.2564 178.649 60.1677C178.56 59.9173 178.56 59.6441 178.649 59.3937C178.78 59.0245 179.039 58.7143 179.378 58.5191C179.781 58.2852 180.202 58.0852 180.637 57.9214L182.959 56.9587L183.67 56.6818C183.747 56.6463 183.827 56.6169 183.909 56.5938Z" fill="#FAFAFA"/>
<path d="M182.344 85.5677L183.118 80.2383L190.379 82.8999L192.43 86.5115L193.701 82.5475L197.684 81.1758L199.389 84.7246L196.463 88.8585L190.983 89.9659L182.344 85.5677Z" fill="#E0E0E0"/>
<path d="M192.556 87.3429C192.556 87.3429 192.449 87.2799 192.285 87.1226C192.051 86.8952 191.828 86.6558 191.618 86.4053C190.872 85.4993 190.279 84.4769 189.863 83.3788H190.133L188.453 87.6071C188.164 88.3307 187.881 89.0292 187.61 89.6961L187.522 89.9163L187.352 89.7528C185.886 88.337 184.621 87.0912 183.728 86.1977L182.69 85.1406C182.556 85.0208 182.44 84.8832 182.344 84.7316C182.5 84.8217 182.642 84.934 182.765 85.0651L183.866 86.053C184.798 86.9087 186.094 88.1168 187.573 89.5199L187.315 89.5766C187.579 88.9096 187.862 88.2112 188.151 87.4876L189.869 83.2719L190.008 82.9258L190.133 83.2781C190.523 84.3559 191.068 85.3712 191.75 86.2921C192.248 86.9716 192.581 87.3177 192.556 87.3429Z" fill="#263238"/>
<path d="M199.388 84.7246C199.155 85.1489 198.87 85.5421 198.538 85.8949C197.748 86.8541 196.809 87.6805 195.757 88.3426L195.594 88.437L195.531 88.2608C195.292 87.6316 195.015 86.9143 194.725 86.1907C194.291 85.1021 193.882 84.0702 193.561 83.1516H193.844C193.605 84.3534 193.31 85.3412 193.127 86.0334C193.053 86.4065 192.948 86.7727 192.812 87.1282C192.814 86.7462 192.863 86.3658 192.957 85.9956C193.089 85.2846 193.347 84.2905 193.555 83.1012L193.649 82.5664L193.838 83.0761C194.172 83.9821 194.593 85.0015 195.027 86.09C195.323 86.8199 195.594 87.5246 195.82 88.179L195.594 88.0972C196.626 87.4587 197.568 86.6841 198.394 85.7943C198.701 85.4162 199.033 85.0589 199.388 84.7246Z" fill="#263238"/>
<path d="M195.192 141.629C195.187 141.444 195.198 141.259 195.224 141.076C195.27 140.686 195.327 140.157 195.394 139.49C195.488 138.804 195.538 137.955 195.608 136.973C195.645 136.482 195.683 135.96 195.721 135.406C195.721 134.847 195.765 134.255 195.79 133.638C195.903 131.166 195.897 128.221 195.84 124.949C195.784 121.677 195.576 118.078 195.318 114.309C194.771 106.758 194.028 99.9629 193.468 95.0424C193.192 92.6011 192.965 90.6379 192.801 89.2096C192.73 88.5427 192.673 88.0141 192.632 87.624C192.606 87.4405 192.594 87.2555 192.594 87.0703C192.648 87.2487 192.683 87.4321 192.701 87.6177C192.757 88.0078 192.833 88.5301 192.927 89.197C193.122 90.5687 193.393 92.5571 193.701 95.011C194.33 99.9314 195.098 106.74 195.645 114.284C195.903 118.059 196.073 121.664 196.143 124.943C196.212 128.221 196.143 131.172 196.023 133.651C195.992 134.28 195.96 134.859 195.929 135.419C195.897 135.979 195.834 136.495 195.79 136.992C195.702 137.974 195.633 138.817 195.52 139.509L195.293 141.088C195.269 141.27 195.236 141.451 195.192 141.629Z" fill="#263238"/>
<path d="M189.364 85.3281L191.012 86.1901L190.704 88.965L188.137 88.4239L189.364 85.3281Z" fill="#074F62"/>
<path d="M193.145 86.0167L194.39 84.9219L195.536 87.8225L193.9 88.6091L193.145 86.0167Z" fill="#04242D"/>
<path d="M191.318 89.6386L190.551 122.471L196.1 127.958L198.781 120.671L193.458 89.4688L191.318 89.6386Z" fill="#04242D"/>
<path d="M191.357 85.1741C191.734 85.13 192.257 85.0293 192.666 84.9413C192.859 84.901 193.059 84.9239 193.239 85.0066C193.418 85.0893 193.565 85.2274 193.66 85.4006L194.358 86.6905C194.462 86.8828 194.495 87.1054 194.453 87.3197L194.169 88.7669C194.136 88.9443 194.05 89.1078 193.924 89.2366C193.797 89.3654 193.635 89.4538 193.458 89.4905L191.873 89.8114C191.677 89.8506 191.473 89.8244 191.294 89.7369C191.114 89.6494 190.968 89.5053 190.879 89.3269L190.086 87.7664C190.027 87.6448 189.996 87.5115 189.996 87.3763C189.996 87.2412 190.027 87.1078 190.086 86.9862L190.633 85.7278C190.695 85.5805 190.795 85.452 190.921 85.3549C191.048 85.2578 191.198 85.1955 191.357 85.1741Z" fill="#04242D"/>
<path d="M193.659 85.5234C193.536 85.7108 193.395 85.8857 193.238 86.0457C192.967 86.3603 192.608 86.7882 192.155 87.2475L191.042 88.4304C190.892 88.5979 190.728 88.7517 190.551 88.8897C190.669 88.7008 190.809 88.5257 190.966 88.3675C191.243 88.0529 191.595 87.625 192.055 87.1594C192.514 86.6938 192.879 86.2785 193.168 85.9828C193.318 85.8152 193.482 85.6615 193.659 85.5234Z" fill="#263238"/>
<path d="M192.04 87.0342C191.504 86.6389 191.022 86.1757 190.605 85.6562C191.141 86.0516 191.624 86.5148 192.04 87.0342Z" fill="#263238"/>
<path d="M193.894 89.1364C193.99 88.5006 194.12 87.8705 194.284 87.2488C194.311 86.7948 194.17 86.3468 193.888 85.9903C193.777 85.8306 193.711 85.6435 193.699 85.4492C193.699 85.4492 193.775 85.6506 193.97 85.94C194.086 86.1126 194.193 86.2911 194.291 86.4748C194.417 86.7097 194.461 86.9797 194.417 87.2425C194.31 87.7836 194.171 88.2366 194.077 88.5764C194.041 88.7704 193.98 88.9588 193.894 89.1364Z" fill="#263238"/>
<g opacity="0.3">
<path d="M175.246 130.834C175.971 131.509 176.846 132.003 177.798 132.277C178.75 132.55 179.754 132.595 180.727 132.407C182.105 132.13 183.413 131.381 184.817 131.469C186.358 131.57 187.629 132.646 189.032 133.281C191.65 134.471 194.695 134.093 197.489 133.351C198.747 133.011 200.1 132.545 200.924 131.513C201.513 130.666 201.876 129.683 201.982 128.657C202.302 126.787 202.442 124.89 202.397 122.994C202.397 121.805 202.24 120.534 201.484 119.615C200.831 118.897 199.934 118.449 198.968 118.356C198 118.269 197.025 118.324 196.073 118.52C188.461 119.775 181.266 122.854 175.102 127.493" fill="black"/>
</g>
<path d="M188.761 124.587C188.761 124.587 171.144 132.471 169.338 132.867C163.385 134.17 156.577 128.551 158.471 122.139C159.17 119.755 168.658 93.3906 168.658 93.3906L177.687 105.868L173.843 118.628L183.841 117.961L188.761 124.587Z" fill="#E0E0E0"/>
<path d="M183.053 118.069C182.824 118.124 182.59 118.155 182.354 118.164L180.423 118.327C178.787 118.459 176.49 118.617 173.873 118.78H173.652L173.715 118.566C173.91 117.937 174.105 117.264 174.307 116.591C175.2 113.608 176.024 110.928 176.635 108.971C176.931 108.046 177.182 107.272 177.371 106.674C177.451 106.389 177.556 106.111 177.686 105.844C177.646 106.136 177.581 106.425 177.491 106.706C177.321 107.335 177.107 108.096 176.861 109.034C176.308 110.997 175.515 113.696 174.628 116.679C174.42 117.358 174.225 118.019 173.998 118.655L173.841 118.459C176.459 118.302 178.755 118.183 180.398 118.113L182.335 118.038C182.575 118.022 182.816 118.032 183.053 118.069Z" fill="#263238"/>
<path d="M186.79 125.604C186.821 125.686 182.952 127.36 178.144 129.336C173.337 131.311 169.436 132.859 169.38 132.765C169.323 132.67 173.218 131.009 178.025 129.027C182.832 127.045 186.758 125.529 186.79 125.604Z" fill="#263238"/>
<path d="M184.658 117.483L183.28 110.744C183.254 110.617 183.256 110.486 183.287 110.36C183.318 110.235 183.376 110.117 183.458 110.017C183.54 109.917 183.644 109.837 183.761 109.782C183.878 109.727 184.006 109.698 184.136 109.699L201.659 109.781C201.781 109.782 201.902 109.809 202.013 109.859C202.124 109.91 202.224 109.983 202.305 110.074C202.386 110.166 202.447 110.273 202.485 110.389C202.522 110.506 202.534 110.629 202.521 110.75L200.709 126.26C200.676 126.557 200.534 126.83 200.311 127.028C200.088 127.226 199.799 127.333 199.501 127.33L188.074 127.242C187.807 127.239 187.548 127.148 187.337 126.983C187.127 126.818 186.977 126.588 186.91 126.329L184.658 117.483Z" fill="#455A64"/>
<path d="M183.113 113.922C183.484 113.92 183.848 114.031 184.154 114.24C184.461 114.449 184.697 114.746 184.831 115.092C185.12 115.841 185.542 116.716 186.008 116.98C186.87 117.452 188.355 117.823 189.154 117.445C189.953 117.068 193.067 114.243 193.615 114.557C194.162 114.872 194.628 115.577 194.08 116.2C193.533 116.823 190.639 118.717 191.186 119.346C191.734 119.975 197.837 117.219 198.774 117.458C199.712 117.697 200.259 118.276 199.712 118.654C199.165 119.031 195.018 120.592 194.785 121.139C194.785 121.139 201.046 119.497 201.279 119.881C201.511 120.264 201.908 120.9 201.279 121.139C200.649 121.378 195.257 122.781 194.785 123.027C194.01 123.347 193.202 123.581 192.375 123.725C192.205 123.725 190.978 124.14 189.858 124.524C188.593 124.964 187.211 124.928 185.97 124.423L185.341 124.165C184.86 123.97 184.452 123.629 184.176 123.19C183.899 122.751 183.768 122.236 183.799 121.718L183.906 119.553L183.227 117.792L183.113 113.922Z" fill="#B78876"/>
<path d="M193.63 112.278C193.63 112.402 193.593 112.524 193.523 112.627C193.454 112.731 193.356 112.811 193.241 112.859C193.126 112.907 193 112.919 192.878 112.895C192.756 112.87 192.643 112.811 192.555 112.723C192.467 112.635 192.407 112.522 192.383 112.4C192.359 112.278 192.371 112.152 192.419 112.037C192.467 111.922 192.547 111.824 192.651 111.754C192.754 111.685 192.876 111.648 193 111.648C193.167 111.648 193.327 111.715 193.445 111.833C193.563 111.951 193.63 112.111 193.63 112.278Z" fill="#FAFAFA"/>
<path d="M205.462 101.473H198.289V103.794H205.462V101.473Z" fill="#263238"/>
<path d="M181.171 144.783L173.551 144.594L173.909 142.285L181.435 142.581L181.171 144.783Z" fill="#455A64"/>
<path d="M202.328 144.733L183.188 144.595L183.439 142.48L202.309 142.531L202.328 144.733Z" fill="#455A64"/>
<path d="M190.791 142.354V144.903C190.777 145.085 190.835 145.265 190.953 145.405C191.07 145.545 191.238 145.634 191.42 145.651H196.693C196.875 145.634 197.043 145.545 197.161 145.405C197.278 145.265 197.336 145.085 197.322 144.903V142.354C197.336 142.172 197.278 141.991 197.161 141.851C197.043 141.711 196.875 141.623 196.693 141.605H191.42C191.238 141.623 191.07 141.711 190.953 141.851C190.835 141.991 190.777 142.172 190.791 142.354ZM196.492 144.72H191.609V142.562H196.492V144.72Z" fill="#FAFAFA"/>
<path d="M203.969 142.55V144.708L208.008 144.783L208.065 142.48L203.969 142.55Z" fill="#455A64"/>
<path d="M163.887 256.288C163.887 256.288 163.887 256.188 163.918 255.999L164.044 255.175C164.164 254.426 164.34 253.362 164.56 251.991C165.026 249.21 165.693 245.22 166.511 240.294C168.159 230.402 170.431 216.767 172.941 201.71C175.452 186.653 177.635 172.98 179.195 163.089C179.963 158.156 180.586 154.154 181.02 151.373C181.24 150.002 181.404 148.932 181.524 148.189C181.586 147.837 181.631 147.56 181.662 147.365C181.693 147.17 181.719 147.082 181.719 147.082C181.724 147.176 181.724 147.271 181.719 147.365C181.719 147.567 181.662 147.843 181.612 148.202C181.511 148.945 181.366 150.02 181.171 151.392C180.787 154.167 180.19 158.175 179.447 163.121C177.95 173.024 175.779 186.685 173.287 201.761C170.795 216.837 168.48 230.472 166.769 240.331C165.9 245.252 165.202 249.241 164.711 252.01C164.466 253.375 164.271 254.445 164.132 255.156C164.069 255.508 164.013 255.785 163.975 255.98C163.937 256.175 163.887 256.288 163.887 256.288Z" fill="#455A64"/>
<path d="M199.871 256.719C199.776 256.719 199.94 232.179 200.223 201.939C200.506 171.699 200.814 147.16 200.902 147.16C200.991 147.16 200.833 171.699 200.55 201.946C200.267 232.192 199.959 256.719 199.871 256.719Z" fill="#455A64"/>
<path d="M206.162 257.148C206.162 257.236 202.337 257.312 197.611 257.312C192.886 257.312 189.066 257.236 189.066 257.148C189.066 257.06 192.892 256.984 197.611 256.984C202.33 256.984 206.162 257.054 206.162 257.148Z" fill="#455A64"/>
<path d="M173.495 256.495C173.269 256.541 173.039 256.563 172.809 256.557L170.921 256.62L164.748 256.771C162.339 256.822 160.155 256.841 158.576 256.828C157.783 256.828 157.148 256.828 156.688 256.79C156.456 256.796 156.224 256.774 155.996 256.727C156.221 256.676 156.451 256.653 156.682 256.658L158.57 256.595L164.736 256.444C167.146 256.394 169.329 256.375 170.908 256.394C171.701 256.394 172.337 256.394 172.796 256.432C173.031 256.422 173.266 256.443 173.495 256.495Z" fill="#455A64"/>
<path d="M222.116 106.753C221.956 105.713 221.901 104.659 221.952 103.607C221.901 102.555 221.956 101.501 222.116 100.461C222.28 101.501 222.335 102.555 222.28 103.607C222.335 104.659 222.28 105.713 222.116 106.753Z" fill="#263238"/>
<path d="M224.336 107.155C223.732 106.129 223.256 105.032 222.92 103.889C222.484 102.781 222.189 101.623 222.039 100.441C222.503 101.53 222.9 102.646 223.228 103.783C223.663 104.884 224.033 106.01 224.336 107.155Z" fill="#263238"/>
</g>
<defs>
<clipPath id="clip0_4321_44431">
<rect width="374.382" height="280" fill="white" transform="translate(0.808594)"/>
</clipPath>
</defs>
</svg>
