<svg width="500" height="500" viewBox="0 0 500 500" fill="none" xmlns="http://www.w3.org/2000/svg">
<path d="M332.18 92.0803H397.93C397.93 92.0803 392.12 81.5003 375.19 83.0803C359.03 84.5503 358.19 77.8703 349.99 77.0803C341.79 76.2903 334.92 82.4903 332.18 92.0803Z" fill="#E0E0E0"/>
<path d="M160.321 265.9C160.321 265.9 153.731 269.46 163.321 283.22C172.911 296.98 179.151 303.58 179.151 303.58C179.151 303.58 180.971 306.83 178.151 307.76C175.331 308.69 168.821 308.56 168.021 312.27C167.191 316.13 170.341 319.27 176.161 321.52C181.981 323.77 194.561 329.3 195.691 329.8C196.821 330.3 198.061 331.75 196.241 332.69C194.421 333.63 180.311 337.1 182.351 343.69C184.391 350.28 201.671 354.01 203.551 354.45C205.431 354.89 205.961 355.59 205.951 356.59C205.941 357.59 201.091 358.31 197.111 359.46C193.131 360.61 188.731 362.65 190.231 366.36C191.731 370.07 202.591 376.8 226.571 375.85L237.651 374.69L242.371 364.54C251.141 342.21 248.371 329.74 245.371 327.1C242.371 324.46 238.991 327.96 236.601 331.34C234.211 334.72 231.931 339.06 230.981 338.74C230.031 338.42 229.551 337.69 229.751 335.74C229.951 333.79 232.121 316.28 226.561 312.18C221.001 308.08 213.081 320.26 211.561 321.67C210.041 323.08 209.111 321.42 209.011 320.2C208.911 318.98 207.861 305.29 207.611 299.03C207.361 292.77 205.471 288.79 201.561 288.31C197.651 287.83 195.781 294.03 193.971 296.39C192.161 298.75 189.691 295.96 189.691 295.96C189.691 295.96 185.501 287.9 175.691 274.32C165.881 260.74 160.191 266 160.191 266" fill="#EBEBEB"/>
<path d="M238.581 377.22C231.391 367.22 218.921 349.22 208.131 333.83C197.341 318.44 187.571 304.52 180.431 294.48C176.861 289.48 173.981 285.42 171.971 282.61L169.671 279.37L169.081 278.53C168.951 278.34 168.891 278.23 168.891 278.23C168.891 278.23 168.971 278.32 169.111 278.51L169.731 279.33L172.081 282.53C174.081 285.3 177.081 289.34 180.631 294.34C187.821 304.34 197.631 318.24 208.411 333.63C219.191 349.02 231.641 367.04 238.781 377.07" fill="#E0E0E0"/>
<path d="M177.121 312.83C177.391 312.841 177.659 312.878 177.921 312.94C178.431 313.03 179.161 313.18 180.071 313.38C181.881 313.77 184.361 314.38 187.071 315.1L194.071 316.97L196.191 317.53C196.456 317.575 196.715 317.652 196.961 317.76C196.692 317.757 196.423 317.723 196.161 317.66C195.651 317.57 194.921 317.42 194.011 317.21C192.211 316.8 189.731 316.21 187.011 315.44L180.011 313.62L177.891 313.07C177.625 313.025 177.366 312.944 177.121 312.83Z" fill="#E0E0E0"/>
<path d="M197.62 317C197.52 317 198.55 311.8 199.91 305.44C201.27 299.08 202.46 293.93 202.55 293.95C202.64 293.97 201.62 299.14 200.25 305.51C198.88 311.88 197.71 317 197.62 317Z" fill="#E0E0E0"/>
<path d="M213.121 341.331C213.207 341.071 213.325 340.822 213.471 340.591L214.531 338.591C215.421 336.931 216.651 334.591 217.901 332.031C219.151 329.471 220.231 327.031 220.981 325.341L221.881 323.291C221.968 323.027 222.092 322.778 222.251 322.551C222.196 322.821 222.115 323.085 222.011 323.341C221.831 323.841 221.561 324.551 221.211 325.431C220.511 327.191 219.481 329.591 218.211 332.191C216.941 334.791 215.681 337.071 214.741 338.711C214.261 339.521 213.861 340.181 213.581 340.621C213.451 340.872 213.297 341.109 213.121 341.331Z" fill="#E0E0E0"/>
<path d="M193.762 341.691C194.006 341.623 194.259 341.593 194.512 341.601L196.582 341.481C198.322 341.391 200.732 341.301 203.392 341.211C206.052 341.121 208.462 341.071 210.212 341.051H212.282C212.535 341.029 212.789 341.029 213.042 341.051C212.794 341.118 212.538 341.152 212.282 341.151L210.222 341.271C208.472 341.351 206.062 341.451 203.402 341.531C200.742 341.611 198.332 341.671 196.582 341.691H194.522C194.269 341.72 194.014 341.72 193.762 341.691Z" fill="#E0E0E0"/>
<path d="M204.711 365C205.039 364.927 205.375 364.89 205.711 364.89L208.361 364.73C210.591 364.61 213.681 364.46 217.091 364.32C220.501 364.18 223.591 364.08 225.821 364.02L228.471 363.96C228.804 363.934 229.138 363.934 229.471 363.96C229.141 364.024 228.807 364.061 228.471 364.07L225.821 364.23C223.591 364.35 220.501 364.5 217.091 364.64C213.681 364.78 210.591 364.88 208.361 364.94L205.711 365C205.378 365.028 205.044 365.028 204.711 365Z" fill="#E0E0E0"/>
<path d="M228.809 363.8C228.922 363.472 229.062 363.154 229.229 362.85L230.489 360.3C231.549 358.15 232.989 355.18 234.489 351.85C235.989 348.52 237.289 345.48 238.209 343.26L239.299 340.64C239.418 340.317 239.562 340.002 239.729 339.7C239.659 340.043 239.555 340.378 239.419 340.7C239.199 341.34 238.869 342.25 238.419 343.36C237.559 345.6 236.299 348.67 234.789 352C233.279 355.33 231.789 358.3 230.679 360.42C230.119 361.48 229.679 362.34 229.319 362.92C229.171 363.226 229 363.52 228.809 363.8Z" fill="#E0E0E0"/>
<path d="M321.8 216.22C309.9 202.87 311.04 183.6 315.55 167.11C316.3 164.35 316.69 161.35 318.55 159.23C320.41 157.11 323.93 156.17 326.14 157.93C327.97 159.39 328.3 162 328.98 164.26C329.884 167.265 331.617 169.955 333.98 172.02C335.53 173.36 337.58 174.43 339.56 173.89C342.27 173.13 343.33 169.89 343.97 167.12C345.15 161.967 346.337 156.813 347.53 151.66C348.024 148.864 348.959 146.163 350.3 143.66C351.78 141.24 354.3 139.26 357.06 139.15C359.82 139.04 362.75 141.32 362.66 144.15C362.495 145.318 362.251 146.474 361.93 147.61C361.78 148.177 361.799 148.776 361.986 149.332C362.172 149.889 362.518 150.378 362.98 150.74C363.98 151.33 365.29 150.81 366.31 150.19C369.82 148.08 372.61 144.95 375.26 141.8C377.91 138.65 380.53 135.42 383.84 132.99C387.15 130.56 391.29 128.99 395.3 129.71C399.31 130.43 402.94 133.87 403.02 137.98C403.1 142.09 399.9 145.53 396.68 148.09C391.922 151.891 386.641 154.986 381 157.28C379.934 157.577 378.991 158.208 378.31 159.08C377.31 160.78 378.58 163.02 380.25 164.08C382.15 165.25 384.43 165.57 386.53 166.33C388.63 167.09 390.73 168.6 391.06 170.82C391.52 173.91 388.46 176.31 385.68 177.7C380.113 180.467 374.113 182.259 367.94 183C365.73 183.26 363.44 183.41 361.46 184.44C359.48 185.47 357.91 187.73 358.46 189.91C359.01 192.09 361.38 193.32 363.6 193.42C365.82 193.52 368 192.83 370.21 192.55C374.34 192.01 379.21 193.43 380.83 197.29C381.311 198.602 381.481 200.008 381.324 201.396C381.168 202.785 380.691 204.118 379.93 205.29C378.407 207.603 376.435 209.585 374.13 211.12C366.406 216.916 357.282 220.56 347.69 221.68C338.17 222.68 329.81 221.54 321.82 216.27" fill="#F5F5F5"/>
<path d="M324.219 217.821C326.379 211.381 324.119 214.611 328.569 206.821C333.475 198.412 338.861 190.292 344.699 182.501C346.232 180.421 347.749 178.371 349.249 176.351C350.749 174.351 352.249 172.351 353.809 170.461C356.844 166.887 360.072 163.482 363.479 160.261C366.709 157.161 369.889 154.341 372.889 151.721C375.889 149.101 378.729 146.721 381.409 144.671C385.628 141.401 390.099 138.468 394.779 135.901C396.429 134.991 397.779 134.331 398.629 133.901L399.629 133.411L399.979 133.261C399.876 133.338 399.765 133.405 399.649 133.461L398.649 134.001C397.769 134.471 396.479 135.161 394.849 136.091C390.224 138.724 385.805 141.703 381.629 145.001C378.969 147.071 376.149 149.461 373.169 152.081C370.189 154.701 367.029 157.541 363.809 160.641C360.427 163.861 357.219 167.259 354.199 170.821C352.639 172.681 351.199 174.671 349.669 176.691L345.119 182.841C339.301 190.606 333.919 198.688 328.999 207.051C324.539 214.821 326.779 211.541 324.579 217.941" fill="#E0E0E0"/>
<path d="M353.999 170.48C353.959 170.068 353.959 169.653 353.999 169.24C353.999 168.44 354.129 167.24 354.259 165.87C354.519 163.02 355.019 159.11 355.579 154.8C356.139 150.49 356.579 146.58 356.789 143.74C356.899 142.32 356.979 141.18 357.029 140.38C357.026 139.967 357.069 139.554 357.159 139.15C357.225 139.56 357.248 139.976 357.229 140.39C357.229 141.18 357.229 142.39 357.159 143.76C357.039 146.62 356.659 150.55 356.089 154.87C355.519 159.19 355.019 162.97 354.629 165.87C354.459 167.2 354.319 168.32 354.209 169.22C354.186 169.647 354.116 170.069 353.999 170.48Z" fill="#E0E0E0"/>
<path d="M391 172.25C390.513 172.247 390.027 172.193 389.55 172.09C388.62 171.95 387.27 171.75 385.6 171.55C382.27 171.13 377.6 170.72 372.52 170.48C367.44 170.24 362.75 170.24 359.38 170.33C357.7 170.33 356.38 170.43 355.38 170.47C354.891 170.511 354.399 170.511 353.91 170.47C354.389 170.351 354.878 170.278 355.37 170.25C356.31 170.15 357.67 170.03 359.37 169.95C362.74 169.76 367.37 169.71 372.55 169.95C376.938 170.14 381.314 170.55 385.66 171.18C387.32 171.43 388.66 171.69 389.59 171.88C390.071 171.958 390.543 172.082 391 172.25Z" fill="#E0E0E0"/>
<path d="M329.159 206.26C329.085 206.106 329.038 205.94 329.019 205.77C328.939 205.38 328.839 204.91 328.709 204.34C328.459 203.1 328.129 201.34 327.759 199.06C327.009 194.59 326.169 188.38 325.329 181.51C324.489 174.64 323.709 168.43 323.059 163.95C322.739 161.77 322.469 159.95 322.269 158.65C322.189 158.07 322.119 157.59 322.059 157.2C322.043 157.031 322.043 156.86 322.059 156.69C322.131 156.846 322.181 157.011 322.209 157.18L322.509 158.61C322.769 159.85 323.089 161.61 323.459 163.89C324.209 168.36 325.049 174.57 325.889 181.44C326.729 188.31 327.509 194.52 328.159 199C328.489 201.18 328.749 203 328.949 204.31C329.039 204.88 329.099 205.36 329.159 205.75C329.18 205.92 329.18 206.091 329.159 206.26Z" fill="#E0E0E0"/>
<path d="M379.931 202.23C379.766 202.283 379.594 202.31 379.421 202.31L377.941 202.45L372.501 202.89C367.911 203.26 361.571 203.89 354.571 204.51C347.571 205.13 341.211 205.7 336.571 205.98C334.271 206.12 332.411 206.21 331.121 206.25H329.641C329.469 206.276 329.293 206.276 329.121 206.25C329.287 206.202 329.458 206.176 329.631 206.17L331.111 206.03L336.551 205.59C341.141 205.22 347.481 204.59 354.481 203.97C361.481 203.35 367.831 202.78 372.481 202.51C374.791 202.37 376.651 202.27 377.941 202.23H379.421C379.59 202.21 379.762 202.21 379.931 202.23Z" fill="#E0E0E0"/>
<path d="M419.31 304C419.275 304.162 419.221 304.32 419.15 304.47L418.6 305.8C418.09 307 417.37 308.69 416.47 310.8L408.76 328.63L408.71 328.73H408.6L384.38 332.73L376.26 334.06L375.89 334.12L375.98 333.76C377.98 325.97 379.77 318.76 381.32 312.71L381.43 312.94L367.2 306.58L363.27 304.79L362.27 304.31C362.15 304.259 362.036 304.196 361.93 304.12L362.29 304.25L363.34 304.68L367.34 306.37L381.64 312.57L381.8 312.64V312.8C380.28 318.9 378.49 326.08 376.55 333.88L376.27 333.58L384.39 332.24L408.62 328.3L408.45 328.43L416.32 310.68C417.27 308.56 418.03 306.88 418.57 305.68L419.17 304.37C419.209 304.244 419.256 304.12 419.31 304Z" fill="#E0E0E0"/>
<path d="M379.1 331.25L378.43 332.99L379.49 334.53L377.63 334.44L376.5 335.92L376.01 334.12L374.25 333.5L375.81 332.48L375.86 330.62L377.31 331.79L379.1 331.25Z" fill="#E0E0E0"/>
<path d="M362.469 303.001L362.139 303.871L362.659 304.631L361.739 304.581L361.179 305.321L360.929 304.431L360.059 304.121L360.829 303.611L360.859 302.681L361.579 303.261L362.469 303.001Z" fill="#E0E0E0"/>
<path d="M409.441 327.56L409.111 328.43L409.631 329.19L408.711 329.15L408.151 329.89L407.901 328.99L407.031 328.69L407.801 328.18L407.821 327.25L408.551 327.83L409.441 327.56Z" fill="#E0E0E0"/>
<path d="M382.328 311.97L381.998 312.83L382.528 313.6L381.598 313.55L381.038 314.29L380.798 313.39L379.918 313.09L380.698 312.58L380.718 311.65L381.438 312.23L382.328 311.97Z" fill="#E0E0E0"/>
<path d="M420.441 303.13L420.111 304L420.641 304.76L419.711 304.72L419.151 305.46L418.911 304.56L418.031 304.25L418.811 303.75L418.831 302.82L419.551 303.4L420.441 303.13Z" fill="#E0E0E0"/>
<path d="M117.34 375.91H169.7C169.7 375.91 165.07 367.48 151.59 368.71C138.72 369.88 138.07 364.56 131.52 363.91C124.97 363.26 119.53 368.27 117.34 375.91Z" fill="#E0E0E0"/>
<path d="M127.738 169.791H180.088C180.088 169.791 175.458 161.371 161.978 162.591C149.118 163.771 148.458 158.451 141.918 157.801C135.378 157.151 129.918 162.161 127.738 169.791Z" fill="#F5F5F5"/>
<path d="M393.621 206.2H436.621C436.621 206.2 432.821 199.28 421.751 200.28C411.171 201.28 410.631 196.88 405.261 196.34C399.891 195.8 395.411 199.93 393.621 206.2Z" fill="#F5F5F5"/>
<path d="M307.733 291.09C309.873 274.98 298.543 261.68 284.383 253.69C270.223 245.7 253.793 243 238.153 238.58C223.403 234.39 208.733 228.27 197.813 217.51C186.893 206.75 180.333 190.58 184.253 175.76C185.253 172.04 187.003 168.3 190.203 166.15C193.403 164 198.273 164.06 200.663 167.08C205.743 173.52 195.843 185.08 202.043 190.42C203.463 191.66 205.423 192.11 206.893 193.28C210.803 196.41 209.543 202.48 210.093 207.46C211.183 217.31 220.423 224.15 229.493 228.14C241.643 233.48 254.803 235.99 267.683 239.14C280.563 242.29 293.573 246.3 304.303 254.14C315.033 261.98 324.363 274.14 324.303 287.43C324.303 291.14 323.813 295.7 321.483 298.58C319.153 301.46 316.193 302.07 312.833 300.49C309.473 298.91 307.133 296.49 307.753 291.11" fill="#349F6E"/>
<g opacity="0.8">
<path d="M307.733 291.09C309.873 274.98 298.543 261.68 284.383 253.69C270.223 245.7 253.793 243 238.153 238.58C223.403 234.39 208.733 228.27 197.813 217.51C186.893 206.75 180.333 190.58 184.253 175.76C185.253 172.04 187.003 168.3 190.203 166.15C193.403 164 198.273 164.06 200.663 167.08C205.743 173.52 195.843 185.08 202.043 190.42C203.463 191.66 205.423 192.11 206.893 193.28C210.803 196.41 209.543 202.48 210.093 207.46C211.183 217.31 220.423 224.15 229.493 228.14C241.643 233.48 254.803 235.99 267.683 239.14C280.563 242.29 293.573 246.3 304.303 254.14C315.033 261.98 324.363 274.14 324.303 287.43C324.303 291.14 323.813 295.7 321.483 298.58C319.153 301.46 316.193 302.07 312.833 300.49C309.473 298.91 307.133 296.49 307.753 291.11" fill="white"/>
</g>
<path d="M239.231 162.999C238.721 156.999 243.171 151.829 248.231 149.049C253.291 146.269 259.091 145.129 264.301 142.659C277.251 136.519 285.481 122.069 286.091 107.259C286.701 92.4495 280.271 77.6295 270.231 66.7495C266.141 62.3295 261.121 57.6895 261.061 51.6595C261.001 45.3595 267.061 40.3995 273.201 40.4795C279.341 40.5595 284.921 44.6495 288.571 49.7795C292.221 54.9095 294.231 60.9995 296.201 66.9995C294.801 64.4795 297.671 61.3695 300.451 61.6395C303.231 61.9095 305.451 64.2195 307.121 66.5195C314.52 76.5642 318.068 88.9302 317.121 101.369C316.119 113.577 310.591 124.969 301.621 133.309C291.751 142.309 278.701 146.519 266.041 150.519L239.631 158.849" fill="#349F6E"/>
<g opacity="0.8">
<path d="M239.231 162.999C238.721 156.999 243.171 151.829 248.231 149.049C253.291 146.269 259.091 145.129 264.301 142.659C277.251 136.519 285.481 122.069 286.091 107.259C286.701 92.4495 280.271 77.6295 270.231 66.7495C266.141 62.3295 261.121 57.6895 261.061 51.6595C261.001 45.3595 267.061 40.3995 273.201 40.4795C279.341 40.5595 284.921 44.6495 288.571 49.7795C292.221 54.9095 294.231 60.9995 296.201 66.9995C294.801 64.4795 297.671 61.3695 300.451 61.6395C303.231 61.9095 305.451 64.2195 307.121 66.5195C314.52 76.5642 318.068 88.9302 317.121 101.369C316.119 113.577 310.591 124.969 301.621 133.309C291.751 142.309 278.701 146.519 266.041 150.519L239.631 158.849" fill="white"/>
</g>
<path d="M231.883 37.5195C230.544 38.072 229.47 39.1204 228.885 40.4458C228.3 41.7712 228.249 43.2712 228.744 44.633C229.238 45.9947 230.239 47.1129 231.539 47.7542C232.838 48.3954 234.334 48.5103 235.716 48.0748C237.098 47.6392 238.258 46.6869 238.954 45.4166C239.651 44.1463 239.83 42.6561 239.454 41.2569C239.078 39.8578 238.177 38.6578 236.937 37.9074C235.698 37.157 234.217 36.9142 232.803 37.2295" fill="#349F6E"/>
<g opacity="0.8">
<path d="M231.883 37.5195C230.544 38.072 229.47 39.1204 228.885 40.4458C228.3 41.7712 228.249 43.2712 228.744 44.633C229.238 45.9947 230.239 47.1129 231.539 47.7542C232.838 48.3954 234.334 48.5103 235.716 48.0748C237.098 47.6392 238.258 46.6869 238.954 45.4166C239.651 44.1463 239.83 42.6561 239.454 41.2569C239.078 39.8578 238.177 38.6578 236.937 37.9074C235.698 37.157 234.217 36.9142 232.803 37.2295" fill="white"/>
</g>
<path d="M264.451 422.839C261.211 416.129 264.041 407.759 269.201 402.379C274.361 396.999 281.401 393.929 288.201 390.929C303.261 384.289 319.201 376.389 326.851 361.829C329.431 356.919 330.901 351.519 332.351 346.159C335.161 335.799 337.801 324.029 332.151 314.899C330.521 312.269 328.081 309.899 325.041 309.399C321.571 308.779 318.041 310.689 315.881 313.479C313.878 316.395 312.675 319.784 312.391 323.309C311.551 329.939 312.251 336.689 311.551 343.309C310.851 349.929 308.441 356.999 303.001 360.779C296.331 365.429 286.821 364.389 280.351 369.299C275.121 373.299 273.131 380.139 269.051 385.299C265.611 389.609 260.801 392.549 256.401 395.869C252.001 399.189 247.741 403.229 246.241 408.539C245.454 411.315 245.484 414.259 246.328 417.018C247.171 419.777 248.793 422.234 250.998 424.094C253.202 425.955 255.897 427.141 258.758 427.509C261.62 427.877 264.527 427.412 267.131 426.169" fill="#349F6E"/>
<g opacity="0.8">
<path d="M264.451 422.839C261.211 416.129 264.041 407.759 269.201 402.379C274.361 396.999 281.401 393.929 288.201 390.929C303.261 384.289 319.201 376.389 326.851 361.829C329.431 356.919 330.901 351.519 332.351 346.159C335.161 335.799 337.801 324.029 332.151 314.899C330.521 312.269 328.081 309.899 325.041 309.399C321.571 308.779 318.041 310.689 315.881 313.479C313.878 316.395 312.675 319.784 312.391 323.309C311.551 329.939 312.251 336.689 311.551 343.309C310.851 349.929 308.441 356.999 303.001 360.779C296.331 365.429 286.821 364.389 280.351 369.299C275.121 373.299 273.131 380.139 269.051 385.299C265.611 389.609 260.801 392.549 256.401 395.869C252.001 399.189 247.741 403.229 246.241 408.539C245.454 411.315 245.484 414.259 246.328 417.018C247.171 419.777 248.793 422.234 250.998 424.094C253.202 425.955 255.897 427.141 258.758 427.509C261.62 427.877 264.527 427.412 267.131 426.169" fill="white"/>
</g>
<path d="M164.331 83.8596C161.668 81.8827 159.516 79.2992 158.052 76.3236C156.588 73.348 155.855 70.066 155.913 66.7503C155.972 63.4346 156.821 60.1807 158.389 57.2587C159.957 54.3367 162.2 51.831 164.931 49.9496C168.011 47.8396 171.651 46.5396 174.391 43.9496C176.821 41.6896 178.391 38.5596 181.121 36.6596C182.825 35.4514 184.87 34.8191 186.958 34.855C189.047 34.8908 191.069 35.593 192.73 36.859C194.391 38.125 195.605 39.8887 196.193 41.8927C196.781 43.8968 196.714 46.0364 196.001 47.9996C194.751 51.5096 191.601 54.0796 190.281 57.5596C188.861 61.3196 189.781 65.5596 189.281 69.4996C188.954 71.9526 188.079 74.3005 186.72 76.3692C185.362 78.4379 183.556 80.1744 181.435 81.4499C179.314 82.7254 176.934 83.5072 174.47 83.7374C172.006 83.9676 169.521 83.6402 167.201 82.7796" fill="#349F6E"/>
<g opacity="0.8">
<path d="M164.331 83.8596C161.668 81.8827 159.516 79.2992 158.052 76.3236C156.588 73.348 155.855 70.066 155.913 66.7503C155.972 63.4346 156.821 60.1807 158.389 57.2587C159.957 54.3367 162.2 51.831 164.931 49.9496C168.011 47.8396 171.651 46.5396 174.391 43.9496C176.821 41.6896 178.391 38.5596 181.121 36.6596C182.825 35.4514 184.87 34.8191 186.958 34.855C189.047 34.8908 191.069 35.593 192.73 36.859C194.391 38.125 195.605 39.8887 196.193 41.8927C196.781 43.8968 196.714 46.0364 196.001 47.9996C194.751 51.5096 191.601 54.0796 190.281 57.5596C188.861 61.3196 189.781 65.5596 189.281 69.4996C188.954 71.9526 188.079 74.3005 186.72 76.3692C185.362 78.4379 183.556 80.1744 181.435 81.4499C179.314 82.7254 176.934 83.5072 174.47 83.7374C172.006 83.9676 169.521 83.6402 167.201 82.7796" fill="white"/>
</g>
<path d="M164.711 62.4199H177.001V87.7499C177.001 88.4604 176.861 89.1639 176.589 89.8202C176.317 90.4766 175.919 91.073 175.416 91.5754C174.914 92.0777 174.318 92.4762 173.661 92.7481C173.005 93.02 172.301 93.1599 171.591 93.1599H170.131C168.696 93.1599 167.32 92.5899 166.305 91.5754C165.291 90.5608 164.721 89.1847 164.721 87.7499V62.4199H164.711Z" fill="#349F6E"/>
<path d="M164.711 62.4194L170.851 51.1494L177.001 62.4194H164.711Z" fill="#FFBE9D"/>
<path d="M168.422 55.6094C168.422 55.6094 170.292 58.4194 173.292 55.6094L170.862 51.1494L168.422 55.6094Z" fill="#349F6E"/>
<path d="M177.17 86.52C175.096 86.7705 173.006 86.8541 170.92 86.77C168.836 86.8543 166.75 86.7707 164.68 86.52C166.75 86.2694 168.836 86.1858 170.92 86.27C173.006 86.1859 175.096 86.2695 177.17 86.52Z" fill="#263238"/>
<path d="M177.002 84.6293C174.972 84.8797 172.925 84.9634 170.882 84.8793C168.838 84.9634 166.791 84.8797 164.762 84.6293C166.792 84.3914 168.839 84.3111 170.882 84.3893C172.925 84.3111 174.971 84.3914 177.002 84.6293Z" fill="#263238"/>
<path d="M168.32 62.5996C168.45 62.5996 168.57 67.4996 168.57 73.5496C168.57 79.5996 168.45 84.5496 168.32 84.5496C168.19 84.5496 168.07 79.6396 168.07 73.5496C168.07 67.4596 168.18 62.5996 168.32 62.5996Z" fill="#FAFAFA"/>
<path d="M173.293 62.5996C173.433 62.5996 173.543 67.4996 173.543 73.5496C173.543 79.5996 173.433 84.5496 173.293 84.5496C173.153 84.5496 173.043 79.6396 173.043 73.5496C173.043 67.4596 173.153 62.5996 173.293 62.5996Z" fill="#FAFAFA"/>
<path d="M271.492 408.72L327.322 411.11L328.672 414.36L292.072 473.76L226.012 471.83L271.492 408.72Z" fill="#263238"/>
<path d="M223.512 466.04L289.962 469.84L324.682 415.97L300.302 417.95L238.612 439.67L223.512 466.04Z" fill="#E0E0E0"/>
<path d="M214.171 462.05L275.171 463.05C272.641 455.24 278.611 444.25 286.821 440.55C292.261 438.1 302.491 434.92 307.771 432.21C317.771 427.06 326.871 417.32 326.081 408.95L301.001 408.12L269.001 406.88C266.321 414.82 260.601 420.01 251.901 423.14C244.121 425.94 235.261 425.93 227.661 429.14C215.441 434.26 209.571 450.85 214.121 462.08" fill="#EBEBEB"/>
<path d="M214.172 462.05C214.172 462.05 214.112 461.92 214.022 461.65L213.602 460.48C213.38 459.826 213.206 459.158 213.082 458.48C212.878 457.564 212.737 456.635 212.662 455.7C212.467 453.103 212.629 450.492 213.142 447.94C213.852 444.502 215.18 441.222 217.062 438.26C217.592 437.403 218.176 436.581 218.812 435.8C219.142 435.41 219.462 434.98 219.812 434.6L220.942 433.45C221.32 433.055 221.728 432.691 222.162 432.36C222.592 432.01 223.012 431.64 223.472 431.31C224.424 430.639 225.427 430.044 226.472 429.53C230.702 427.4 235.752 426.53 241.012 425.53C243.652 425.05 246.372 424.53 249.092 423.8C251.891 423.032 254.592 421.945 257.142 420.56C258.459 419.847 259.713 419.024 260.892 418.1C262.106 417.166 263.222 416.11 264.222 414.95C266.293 412.556 267.87 409.776 268.862 406.77L268.922 406.6H269.092L295.742 407.6C304.992 407.96 314.562 408.21 324.362 408.54L326.142 408.6H326.362V408.82C326.496 410.735 326.223 412.657 325.562 414.46C325.246 415.35 324.872 416.219 324.442 417.06C324 417.886 323.513 418.687 322.982 419.46C320.873 422.487 318.325 425.183 315.422 427.46C312.615 429.695 309.549 431.585 306.292 433.09C303.072 434.54 299.812 435.72 296.622 436.9C293.432 438.08 290.272 439.2 287.282 440.5C285.81 441.152 284.428 441.992 283.172 443C282.522 443.46 281.982 444.05 281.392 444.56C280.802 445.07 280.292 445.69 279.822 446.32C277.874 448.671 276.422 451.392 275.552 454.32C274.669 457.091 274.617 460.059 275.402 462.86L275.492 463.13H275.212L230.822 462.35L218.512 462.1L215.292 462.01H214.182C214.182 462.01 214.562 462.01 215.292 462.01H218.522L230.832 462.15L275.212 462.77L275.022 463.03C274.2 460.154 274.246 457.1 275.152 454.25C276.022 451.256 277.496 448.472 279.482 446.07C279.952 445.43 280.542 444.88 281.072 444.28C281.602 443.68 282.232 443.15 282.892 442.67C284.172 441.636 285.585 440.779 287.092 440.12C290.092 438.8 293.272 437.67 296.462 436.49C299.652 435.31 302.902 434.12 306.092 432.68C309.306 431.19 312.328 429.316 315.092 427.1C317.957 424.859 320.471 422.203 322.552 419.22C323.074 418.471 323.558 417.697 324.002 416.9C324.42 416.081 324.784 415.236 325.092 414.37C325.729 412.634 325.995 410.784 325.872 408.94L326.112 409.16L324.322 409.11C314.522 408.78 304.952 408.52 295.712 408.11L269.052 407.11L269.282 406.95C268.261 410.009 266.651 412.839 264.542 415.28C263.521 416.46 262.382 417.532 261.142 418.48C259.944 419.42 258.666 420.253 257.322 420.97C254.745 422.371 252.013 423.465 249.182 424.23C246.432 424.98 243.702 425.48 241.062 425.95C235.802 426.89 230.772 427.77 226.602 429.85C225.581 430.352 224.601 430.934 223.672 431.59C223.212 431.91 222.802 432.28 222.372 432.59C221.941 432.917 221.536 433.279 221.162 433.67L220.002 434.82C219.642 435.2 219.332 435.62 219.002 436.01C218.365 436.776 217.78 437.584 217.252 438.43C215.37 441.357 214.038 444.604 213.322 448.01C212.785 450.539 212.6 453.13 212.772 455.71C212.831 456.641 212.958 457.567 213.152 458.48C213.263 459.157 213.424 459.825 213.632 460.48C213.802 461 213.922 461.39 214.012 461.67C214.102 461.95 214.172 462.05 214.172 462.05Z" fill="#263238"/>
<path d="M286.19 407.87C286.19 407.87 286.27 407.48 286.33 406.78C286.404 405.795 286.239 404.807 285.85 403.9C285.306 402.547 284.28 401.442 282.97 400.8C282.167 400.426 281.298 400.218 280.413 400.187C279.528 400.156 278.646 400.304 277.819 400.621C276.992 400.938 276.238 401.419 275.601 402.033C274.964 402.648 274.457 403.385 274.11 404.2C273.497 405.527 273.292 407.006 273.52 408.45C273.665 409.421 274.005 410.353 274.52 411.19C274.9 411.79 275.18 412.07 275.15 412.1C274.84 411.887 274.575 411.615 274.37 411.3C273.751 410.477 273.33 409.522 273.14 408.51C272.843 406.993 273.021 405.422 273.65 404.01C274.016 403.134 274.555 402.341 275.237 401.68C275.918 401.02 276.727 400.504 277.613 400.166C278.5 399.827 279.446 399.672 280.395 399.711C281.343 399.749 282.274 399.98 283.13 400.39C284.522 401.096 285.594 402.304 286.13 403.77C286.504 404.723 286.621 405.757 286.47 406.77C286.43 407.046 286.363 407.317 286.27 407.58C286.25 407.79 286.21 407.87 286.19 407.87Z" fill="#263238"/>
<path d="M295.764 407.87C295.714 407.87 295.844 407.48 295.904 406.78C295.972 405.795 295.808 404.809 295.424 403.9C294.874 402.546 293.845 401.443 292.534 400.8C291.731 400.427 290.861 400.22 289.977 400.19C289.092 400.16 288.21 400.308 287.384 400.625C286.558 400.942 285.804 401.422 285.166 402.036C284.529 402.65 284.021 403.386 283.674 404.2C283.064 405.528 282.862 407.007 283.094 408.45C283.234 409.422 283.575 410.355 284.094 411.19C284.474 411.79 284.754 412.07 284.724 412.1C284.406 411.892 284.137 411.62 283.934 411.3C283.318 410.475 282.898 409.521 282.704 408.51C282.416 406.992 282.597 405.422 283.224 404.01C283.589 403.135 284.129 402.344 284.809 401.684C285.49 401.024 286.297 400.509 287.183 400.17C288.068 399.832 289.013 399.677 289.961 399.715C290.908 399.752 291.838 399.982 292.694 400.39C294.086 401.096 295.158 402.304 295.694 403.77C296.064 404.724 296.185 405.756 296.044 406.77C296.006 407.047 295.935 407.319 295.834 407.58C295.831 407.68 295.807 407.779 295.764 407.87Z" fill="#263238"/>
<path d="M303 408.37C303 408.37 303.06 407.97 303.08 407.27C303.095 406.283 302.876 405.306 302.44 404.42C301.814 403.103 300.725 402.063 299.38 401.5C298.559 401.175 297.682 401.017 296.8 401.034C295.917 401.051 295.047 401.244 294.24 401.6C292.615 402.345 291.352 403.704 290.73 405.38C290.195 406.741 290.073 408.23 290.38 409.66C290.591 410.627 290.999 411.539 291.58 412.34C291.99 412.91 292.29 413.18 292.26 413.21C291.934 413.021 291.651 412.766 291.43 412.46C290.765 411.671 290.29 410.741 290.04 409.74C289.665 408.242 289.755 406.665 290.3 405.22C290.615 404.325 291.109 403.503 291.752 402.805C292.395 402.106 293.173 401.546 294.039 401.158C294.906 400.77 295.842 400.562 296.791 400.547C297.74 400.532 298.682 400.71 299.56 401.07C300.99 401.694 302.13 402.838 302.75 404.27C303.185 405.207 303.364 406.242 303.27 407.27C303.249 407.549 303.195 407.824 303.11 408.09C303.08 408.28 303 408.37 303 408.37Z" fill="#263238"/>
<path d="M310.81 408.81C310.81 408.81 310.81 408.41 310.81 407.71C310.777 406.723 310.506 405.759 310.02 404.9C309.328 403.614 308.185 402.631 306.81 402.14C305.972 401.857 305.086 401.745 304.204 401.811C303.322 401.877 302.462 402.119 301.676 402.524C300.889 402.929 300.192 403.488 299.626 404.167C299.06 404.847 298.636 405.633 298.38 406.48C297.915 407.866 297.873 409.36 298.26 410.77C298.523 411.725 298.979 412.617 299.6 413.39C300.04 413.93 300.35 414.18 300.32 414.22C299.985 414.044 299.689 413.803 299.45 413.51C298.747 412.757 298.224 411.854 297.92 410.87C297.459 409.395 297.459 407.814 297.92 406.34C298.19 405.431 298.64 404.585 299.243 403.854C299.846 403.122 300.59 402.519 301.43 402.08C302.277 401.646 303.203 401.39 304.152 401.326C305.101 401.263 306.053 401.393 306.95 401.71C308.407 402.253 309.606 403.324 310.31 404.71C310.795 405.633 311.026 406.668 310.98 407.71C310.971 407.986 310.934 408.261 310.87 408.53C310.86 408.72 310.83 408.81 310.81 408.81Z" fill="#263238"/>
<path d="M318.612 408.63C318.612 408.63 318.612 408.23 318.612 407.53C318.551 406.544 318.253 405.587 317.742 404.74C317.014 403.477 315.846 402.527 314.462 402.07C313.616 401.809 312.726 401.72 311.845 401.81C310.964 401.9 310.11 402.167 309.334 402.595C308.558 403.022 307.877 403.602 307.33 404.298C306.783 404.995 306.383 405.795 306.152 406.65C305.792 407.822 305.733 409.065 305.979 410.265C306.226 411.466 306.77 412.585 307.562 413.52C308.022 414.05 308.342 414.29 308.312 414.32C307.97 414.165 307.666 413.937 307.422 413.65C306.702 412.914 306.155 412.025 305.822 411.05C305.324 409.587 305.285 408.006 305.712 406.52C305.958 405.604 306.384 404.747 306.966 403.998C307.549 403.249 308.275 402.624 309.102 402.16C309.936 401.705 310.853 401.424 311.799 401.335C312.744 401.245 313.698 401.349 314.602 401.64C316.078 402.147 317.309 403.189 318.052 404.56C318.563 405.476 318.822 406.512 318.802 407.56C318.802 407.839 318.772 408.118 318.712 408.39C318.662 408.53 318.632 408.63 318.612 408.63Z" fill="#263238"/>
<path d="M325.191 409.5C325.191 409.5 325.191 409.1 325.191 408.4C325.169 407.412 324.908 406.445 324.431 405.58C323.752 404.292 322.624 403.299 321.261 402.79C320.426 402.496 319.541 402.372 318.658 402.427C317.775 402.482 316.912 402.714 316.121 403.11C315.329 403.506 314.626 404.057 314.052 404.73C313.478 405.404 313.046 406.186 312.781 407.03C312.378 408.186 312.27 409.425 312.467 410.633C312.665 411.842 313.161 412.982 313.911 413.95C314.351 414.5 314.651 414.75 314.631 414.79C314.297 414.612 314.004 414.367 313.771 414.07C313.072 413.311 312.558 412.401 312.271 411.41C311.83 409.928 311.854 408.347 312.341 406.88C312.621 405.974 313.081 405.134 313.692 404.409C314.304 403.684 315.055 403.089 315.901 402.66C316.752 402.238 317.681 401.994 318.63 401.942C319.579 401.89 320.528 402.033 321.421 402.36C322.876 402.92 324.064 404.015 324.741 405.42C325.216 406.346 325.437 407.381 325.381 408.42C325.369 408.697 325.329 408.971 325.261 409.24C325.241 409.41 325.211 409.51 325.191 409.5Z" fill="#263238"/>
<path d="M354.001 204.65C351.239 204.567 348.474 204.694 345.731 205.03C337.408 206.101 329.764 210.178 324.238 216.494C318.713 222.81 315.687 230.928 315.731 239.32C315.702 244.841 316.418 250.34 317.861 255.67C322.671 272.73 324.151 287.76 323.601 295.09L339.701 303.74C339.701 303.74 347.151 293.03 354.351 288.41C361.551 283.79 385.511 271.41 395.001 258.76C401.111 250.58 402.291 233.76 387.711 219.1C378.744 210.138 366.675 204.965 354.001 204.65Z" fill="#349F6E"/>
<path d="M315.901 313.71L330.441 321.57L320.981 333.59L311.281 329.19L315.901 313.71Z" fill="#455A64"/>
<path d="M316.61 314.199C316.48 314.149 317.92 309.829 319.83 304.559C321.74 299.289 323.39 295.039 323.52 295.089C323.65 295.139 322.21 299.449 320.3 304.729C318.39 310.009 316.74 314.239 316.61 314.199Z" fill="#263238"/>
<path d="M329.532 321C329.412 320.93 331.692 316.85 334.612 311.89C337.532 306.93 340.002 303 340.132 303C340.262 303 337.972 307.15 335.042 312.11C332.112 317.07 329.642 321.05 329.532 321Z" fill="#263238"/>
<g opacity="0.4">
<path d="M358.8 205.109C358.15 205.109 350.15 214.509 346.61 220.849C334.7 242.179 334.16 262.929 330.86 287.129C330.39 290.589 328.67 298.039 328.7 297.869C330.46 299.249 336.38 301.999 336.38 301.999C336.38 301.999 341.97 295.259 344.19 291.869C353.07 278.299 362.72 267.709 370.33 253.379C377.94 239.049 385.26 226.379 378.22 211.719C378.22 211.719 366 204.699 358.8 205.109Z" fill="black"/>
</g>
<path d="M395.003 260.9C394.918 260.753 394.848 260.599 394.793 260.44C394.663 260.14 394.503 259.67 394.233 259.09C393.479 257.411 392.536 255.824 391.423 254.36C389.713 252.099 387.626 250.15 385.253 248.6C382.211 246.584 378.744 245.3 375.123 244.85H375.003L374.943 244.77C372.999 242.1 370.828 239.604 368.453 237.31C365.853 234.801 362.856 232.74 359.583 231.21C356.294 229.722 352.698 229.036 349.093 229.21C345.807 229.338 342.627 230.4 339.923 232.27L339.773 232.37L339.643 232.25C336.894 229.838 333.475 228.321 329.843 227.9C327.021 227.579 324.164 227.942 321.513 228.96C319.796 229.617 318.185 230.523 316.733 231.65C316.233 232.05 315.853 232.37 315.613 232.59C315.494 232.709 315.363 232.816 315.223 232.91C315.329 232.78 315.442 232.656 315.563 232.54C315.793 232.3 316.153 231.96 316.643 231.54C318.076 230.349 319.689 229.393 321.423 228.71C324.108 227.633 327.015 227.228 329.893 227.53C333.613 227.931 337.121 229.463 339.943 231.92H339.663C342.433 229.987 345.698 228.887 349.073 228.75C352.751 228.561 356.421 229.247 359.783 230.75C363.107 232.305 366.149 234.404 368.783 236.96C371.177 239.277 373.359 241.803 375.303 244.51L375.153 244.42C378.837 244.887 382.358 246.217 385.433 248.3C387.824 249.894 389.919 251.894 391.623 254.21C392.724 255.706 393.637 257.331 394.343 259.05C394.593 259.64 394.733 260.12 394.843 260.43C394.906 260.583 394.959 260.74 395.003 260.9Z" fill="#263238"/>
<path d="M365.062 282.15C364.815 280.912 364.344 279.729 363.672 278.66C362.885 277.436 361.828 276.41 360.582 275.66C358.989 274.674 357.118 274.231 355.252 274.4H355.052V274.2C354.662 271.806 353.666 269.552 352.159 267.651C350.652 265.75 348.684 264.266 346.442 263.34C344.455 262.563 342.32 262.238 340.192 262.39C338.237 262.532 336.333 263.08 334.602 264L334.452 264.08L334.332 263.95C332.835 262.381 330.877 261.33 328.742 260.95C327.085 260.628 325.376 260.683 323.742 261.11C322.293 261.514 320.935 262.193 319.742 263.11C319.742 263.11 319.802 263.02 319.952 262.89C320.102 262.76 320.322 262.55 320.632 262.32C321.545 261.674 322.559 261.184 323.632 260.87C325.306 260.387 327.068 260.298 328.782 260.61C331.016 260.978 333.069 262.063 334.632 263.7L334.362 263.65C336.14 262.705 338.095 262.14 340.102 261.99C342.303 261.835 344.511 262.177 346.562 262.99C349.03 263.987 351.168 265.657 352.732 267.81C354.139 269.701 355.06 271.909 355.412 274.24L355.182 274.06C357.134 273.907 359.083 274.395 360.732 275.45C362.001 276.237 363.069 277.309 363.852 278.58C364.353 279.393 364.712 280.286 364.912 281.22C364.963 281.464 364.999 281.711 365.022 281.96C365.041 282.022 365.054 282.085 365.062 282.15Z" fill="#263238"/>
<path d="M327.632 325.36C327.632 325.36 327.472 325.16 327.102 325C326.544 324.831 325.946 324.852 325.402 325.06C324.983 325.191 324.55 325.269 324.112 325.29C323.842 325.288 323.575 325.23 323.327 325.122C323.08 325.014 322.857 324.857 322.672 324.66C321.902 323.85 321.612 322.66 320.882 321.89C320.715 321.7 320.509 321.551 320.277 321.452C320.045 321.353 319.794 321.308 319.542 321.32C319.027 321.376 318.518 321.48 318.022 321.63C317.528 321.771 317.008 321.798 316.502 321.71C315.97 321.578 315.486 321.299 315.105 320.905C314.725 320.51 314.464 320.016 314.352 319.48C314.284 319.258 314.284 319.021 314.352 318.8C314.352 318.8 314.352 319.04 314.522 319.44C314.71 319.992 315.058 320.476 315.522 320.83C315.826 321.073 316.188 321.235 316.572 321.3C317.018 321.36 317.473 321.319 317.902 321.18C318.425 321.011 318.965 320.898 319.512 320.84C319.833 320.821 320.155 320.875 320.453 320.998C320.751 321.121 321.017 321.31 321.232 321.55C322.082 322.55 322.342 323.65 322.992 324.34C323.279 324.661 323.682 324.855 324.112 324.88C324.514 324.875 324.914 324.818 325.302 324.71C325.919 324.518 326.585 324.561 327.172 324.83C327.592 325.07 327.652 325.36 327.632 325.36Z" fill="#263238"/>
<path d="M329.3 323C326.864 321.986 324.496 320.817 322.21 319.5C319.842 318.327 317.548 317.012 315.34 315.56C317.776 316.579 320.148 317.748 322.44 319.06C324.804 320.233 327.095 321.549 329.3 323Z" fill="#263238"/>
<path d="M326.411 326.69C326.411 326.69 326.211 326.79 325.861 326.95C325.681 327.03 325.481 327.15 325.201 327.27C324.88 327.382 324.539 327.426 324.201 327.4C323.322 327.351 322.482 327.026 321.801 326.47C321.402 326.131 321.09 325.703 320.891 325.22C320.727 324.747 320.488 324.304 320.181 323.91C319.82 323.606 319.399 323.382 318.946 323.251C318.493 323.12 318.018 323.085 317.551 323.15C316.7 323.249 315.837 323.168 315.021 322.91C314.461 322.696 314.003 322.278 313.741 321.74C313.581 321.35 313.641 321.1 313.661 321.11C313.681 321.12 313.721 321.33 313.921 321.65C314.21 322.093 314.645 322.422 315.151 322.58C315.929 322.775 316.738 322.812 317.531 322.69C318.064 322.611 318.609 322.649 319.127 322.801C319.645 322.953 320.124 323.215 320.531 323.57C320.869 324.007 321.132 324.497 321.311 325.02C321.479 325.443 321.743 325.823 322.081 326.13C322.686 326.637 323.426 326.957 324.211 327.05C324.746 327.098 325.285 327.001 325.771 326.77C326.181 326.66 326.411 326.66 326.411 326.69Z" fill="#263238"/>
<path d="M216.619 233.299L241.769 229.569L229.769 212.569L223.329 212.949C221.2 213.072 219.148 213.784 217.402 215.006C215.655 216.228 214.283 217.912 213.439 219.869C212.525 221.992 212.271 224.34 212.709 226.609L216.619 233.299Z" fill="#349F6E"/>
<path opacity="0.4" d="M216.619 233.299L241.769 229.569L229.769 212.569L223.329 212.949C221.2 213.072 219.148 213.784 217.402 215.006C215.655 216.228 214.283 217.912 213.439 219.869C212.525 221.992 212.271 224.34 212.709 226.609L216.619 233.299Z" fill="black"/>
<path d="M324.637 261.159C324.897 261.879 325.177 262.729 325.467 263.749C325.706 264.628 325.798 265.541 325.737 266.449C325.697 267.577 325.506 268.693 325.167 269.769C324.757 270.769 325.717 271.689 326.527 271.209C327.337 270.729 328.527 268.129 328.527 264.789C328.527 261.449 331.867 265.449 333.137 266.889C334.407 268.329 338.547 272.599 339.297 272.559C340.397 272.499 340.537 271.309 339.237 269.899C337.937 268.489 334.327 263.999 335.117 263.359C335.907 262.719 342.267 270.149 342.267 270.149C342.267 270.149 343.367 271.959 344.267 271.259C345.967 269.989 338.617 262.599 337.897 261.919C337.407 261.439 338.237 260.719 338.747 261.259C339.257 261.799 344.927 268.809 346.667 267.529C347.997 266.529 340.667 261.399 340.307 259.299C339.947 257.199 345.467 263.769 346.697 262.789C347.167 262.419 347.457 262.079 343.697 258.789C341.897 257.169 335.037 252.369 335.037 252.369L314.397 193.279L298.457 202.409L324.637 261.159Z" fill="#FFBE9D"/>
<path d="M201.768 149.399L178.708 121.879C178.417 120.93 178.039 120.009 177.578 119.129C177.043 118.031 176.282 117.059 175.344 116.277C174.407 115.494 173.314 114.919 172.138 114.589C170.678 114.269 168.998 114.429 167.848 113.469C167.338 113.039 166.998 112.469 166.458 112.029C165.918 111.589 165.028 111.549 164.678 112.119C164.588 112.342 164.551 112.582 164.568 112.821C164.585 113.06 164.657 113.292 164.778 113.499C165.644 115.535 167.022 117.313 168.778 118.659C166.618 119.319 163.528 120.319 163.528 120.319C163.528 120.319 158.658 115.029 156.158 115.039C153.658 115.049 158.158 119.769 158.158 119.769C158.158 119.769 154.158 116.069 152.918 117.109C151.678 118.149 154.858 120.899 154.858 120.899C153.903 120.25 152.762 119.93 151.608 119.989C150.478 120.179 149.508 121.509 150.118 122.479C150.378 122.829 150.722 123.107 151.118 123.289L157.258 126.709C158.241 127.364 159.365 127.776 160.538 127.909C163.658 128.009 166.028 126.079 169.138 126.159C169.138 126.159 186.528 162.769 188.288 164.659C190.048 166.549 228.288 169.119 228.288 169.119L250.398 150.069L201.768 149.399Z" fill="#FFBE9D"/>
<path d="M271.047 348.829L294.597 359.079L281.997 388.449C279.257 387.079 280.157 369.449 280.157 369.449L264.797 363.499L271.047 348.829Z" fill="#349F6E"/>
<g opacity="0.6">
<path d="M282.767 359.839C282.974 359.592 283.265 359.43 283.584 359.384C283.903 359.337 284.228 359.411 284.497 359.589C284.748 359.789 284.914 360.077 284.961 360.395C285.007 360.713 284.931 361.036 284.747 361.299C284.528 361.559 284.221 361.728 283.885 361.775C283.548 361.821 283.207 361.74 282.927 361.549C282.682 361.316 282.537 360.996 282.524 360.659C282.511 360.321 282.63 359.991 282.857 359.739" fill="white"/>
</g>
<path opacity="0.6" d="M294.6 359.08L292.18 358.14L281 386.65C281 386.65 281 388.21 282 388.45L294.6 359.08Z" fill="white"/>
<path d="M279.79 369.88C279.94 369.93 280.31 369.24 281.08 368.74C281.85 368.24 282.6 368.11 282.6 367.96C282.6 367.81 281.68 367.66 280.77 368.29C279.86 368.92 279.65 369.85 279.79 369.88Z" fill="#263238"/>
<path d="M279.738 373.5C279.868 373.6 280.378 373.08 281.198 372.85C282.018 372.62 282.708 372.76 282.768 372.62C282.828 372.48 282.048 372.03 281.038 372.33C280.028 372.63 279.608 373.44 279.738 373.5Z" fill="#263238"/>
<path d="M282.679 376.84C282.769 376.72 282.129 376.21 281.189 376.24C280.249 376.27 279.649 376.81 279.739 376.92C279.829 377.03 280.429 376.8 281.209 376.79C281.989 376.78 282.599 377 282.679 376.84Z" fill="#263238"/>
<path d="M276.438 368.129C276.598 368.129 276.678 367.379 277.088 366.599C277.498 365.819 278.018 365.289 277.928 365.159C277.838 365.029 277.058 365.419 276.598 366.349C276.138 367.279 276.298 368.149 276.438 368.129Z" fill="#263238"/>
<path d="M273.259 365.93C273.319 365.93 273.649 365.43 273.879 364.46C274.016 363.89 274.08 363.305 274.069 362.72C274.064 362.385 274.037 362.051 273.989 361.72C273.967 361.516 273.913 361.317 273.829 361.13C273.768 360.992 273.663 360.879 273.531 360.809C273.399 360.738 273.246 360.714 273.099 360.74C272.967 360.765 272.844 360.823 272.74 360.906C272.635 360.99 272.553 361.097 272.499 361.22C272.418 361.408 272.364 361.607 272.339 361.81C272.178 362.744 272.257 363.704 272.569 364.6C272.899 365.55 273.339 366.01 273.389 365.97C273.439 365.93 273.159 365.4 272.929 364.49C272.805 363.956 272.748 363.408 272.759 362.86C272.766 362.524 272.8 362.19 272.859 361.86C272.909 361.52 273.019 361.25 273.199 361.23C273.379 361.21 273.279 361.23 273.349 361.33C273.402 361.472 273.439 361.619 273.459 361.77C273.516 362.101 273.552 362.434 273.569 362.77C273.599 363.321 273.575 363.873 273.499 364.42C273.385 364.917 273.304 365.422 273.259 365.93Z" fill="#263238"/>
<path d="M273.538 365.84C273.538 365.84 273.198 365.29 272.288 364.84C271.754 364.579 271.179 364.413 270.588 364.35C270.256 364.313 269.92 364.313 269.588 364.35C269.36 364.347 269.134 364.403 268.933 364.511C268.732 364.62 268.562 364.777 268.438 364.97C268.387 365.102 268.374 365.246 268.4 365.386C268.427 365.526 268.492 365.655 268.588 365.76C268.73 365.907 268.892 366.035 269.068 366.14C269.378 366.333 269.715 366.478 270.068 366.57C270.653 366.714 271.264 366.714 271.848 366.57C272.848 366.32 273.288 365.8 273.248 365.77C272.766 365.937 272.276 366.078 271.778 366.19C271.249 366.265 270.71 366.225 270.198 366.07C269.901 365.976 269.618 365.841 269.358 365.67C269.068 365.49 268.868 365.27 268.948 365.17C269.034 365.069 269.142 364.989 269.263 364.936C269.384 364.882 269.516 364.856 269.648 364.86C269.981 364.827 270.316 364.827 270.648 364.86C271.191 364.897 271.727 365.012 272.238 365.2C272.998 365.52 273.488 365.9 273.538 365.84Z" fill="#263238"/>
<path d="M252.906 389.17L262.646 409.58L265.696 428C265.748 428.313 265.864 428.612 266.036 428.879C266.209 429.146 266.434 429.374 266.699 429.549C266.963 429.725 267.261 429.844 267.574 429.899C267.887 429.954 268.208 429.944 268.516 429.87C268.876 429.787 269.21 429.618 269.491 429.377C269.771 429.137 269.989 428.833 270.126 428.49C271.916 424.06 278.426 407.71 277.626 406.26C276.706 404.58 268.776 384.05 268.776 384.05L252.906 389.17Z" fill="#349F6E"/>
<path opacity="0.6" d="M268.52 429.819L277 404.819L277.4 405.689C277.739 406.444 277.799 407.294 277.57 408.089C276.95 410.219 275.12 416.089 270.19 428.409C270.05 428.764 269.824 429.079 269.533 429.325C269.241 429.572 268.893 429.741 268.52 429.819Z" fill="white"/>
<g opacity="0.6">
<path d="M269.776 400.07C269.606 400.369 269.552 400.72 269.626 401.057C269.7 401.393 269.896 401.69 270.176 401.89C270.471 402.072 270.823 402.134 271.162 402.063C271.501 401.992 271.799 401.794 271.996 401.51C272.172 401.19 272.224 400.817 272.143 400.461C272.062 400.105 271.853 399.792 271.556 399.58C271.231 399.422 270.856 399.397 270.512 399.511C270.169 399.625 269.883 399.868 269.716 400.19" fill="white"/>
</g>
<path d="M269.176 418.69C268.42 418.203 267.546 417.929 266.646 417.897C265.747 417.865 264.856 418.077 264.066 418.51C264.066 418.51 264.216 418.19 264.666 417.91C265.269 417.547 265.964 417.37 266.666 417.4C267.364 417.421 268.041 417.643 268.616 418.04C269.056 418.36 269.216 418.65 269.176 418.69Z" fill="#263238"/>
<path d="M268.997 422.109C268.259 422.041 267.517 422.021 266.777 422.049C266.055 422.221 265.344 422.435 264.647 422.689C264.537 422.609 265.337 421.689 266.707 421.549C267.105 421.452 267.522 421.452 267.92 421.55C268.319 421.647 268.688 421.839 268.997 422.109Z" fill="#263238"/>
<path d="M270.32 413.919C269.19 413.722 268.046 413.612 266.9 413.589C265.757 413.717 264.626 413.938 263.52 414.249C264.503 413.55 265.666 413.147 266.871 413.088C268.076 413.03 269.273 413.318 270.32 413.919Z" fill="#263238"/>
<path d="M267.878 407.469C267.878 407.619 266.528 407.649 265.018 408.269C263.508 408.889 262.498 409.759 262.398 409.649C262.971 408.766 263.834 408.112 264.838 407.799C265.781 407.334 266.858 407.217 267.878 407.469Z" fill="#263238"/>
<path d="M265.166 401.4C264.137 401.517 263.128 401.773 262.166 402.16C261.275 402.681 260.46 403.324 259.746 404.07C259.696 404.07 259.796 403.68 260.156 403.2C260.627 402.565 261.245 402.053 261.956 401.71C262.661 401.358 263.439 401.179 264.226 401.19C264.826 401.21 265.176 401.35 265.166 401.4Z" fill="#263238"/>
<path d="M261.69 400.999C261.516 400.768 261.388 400.507 261.31 400.229C261.063 399.482 260.965 398.694 261.02 397.909C261.008 397.331 261.187 396.765 261.53 396.299C261.653 396.163 261.814 396.067 261.992 396.023C262.17 395.978 262.357 395.988 262.53 396.049C262.866 396.214 263.133 396.494 263.28 396.839C263.545 397.554 263.552 398.339 263.3 399.058C263.048 399.777 262.553 400.386 261.9 400.779C261.247 401.155 260.498 401.328 259.747 401.278C258.996 401.229 258.277 400.957 257.68 400.499C257.528 400.38 257.404 400.228 257.318 400.055C257.231 399.882 257.184 399.692 257.18 399.499C257.19 399.308 257.26 399.125 257.38 398.976C257.501 398.827 257.665 398.719 257.85 398.669C258.409 398.556 258.988 398.591 259.53 398.769C260.295 398.969 261.017 399.308 261.66 399.769C262.11 400.079 262.31 400.309 262.29 400.339C261.411 399.795 260.453 399.39 259.45 399.139C258.972 398.998 258.466 398.981 257.98 399.089C257.878 399.115 257.787 399.172 257.721 399.253C257.654 399.334 257.615 399.434 257.61 399.539C257.627 399.662 257.669 399.78 257.733 399.886C257.796 399.992 257.88 400.085 257.98 400.159C258.505 400.541 259.13 400.764 259.779 400.802C260.428 400.839 261.074 400.689 261.64 400.369C262.207 400.039 262.642 399.523 262.871 398.909C263.101 398.295 263.111 397.62 262.9 396.999C262.81 396.753 262.632 396.55 262.4 396.429C262.304 396.385 262.198 396.374 262.095 396.395C261.992 396.417 261.899 396.471 261.83 396.549C261.536 396.942 261.375 397.419 261.37 397.909C261.294 398.95 261.402 399.996 261.69 400.999Z" fill="#263238"/>
<path d="M285.727 351.319L259.017 333.319L267.857 246.529L242.557 231.759L219.427 226.399C219.427 226.399 209.767 246.499 205.427 259.399C196.287 286.769 189.877 296.579 191.347 316.399C191.807 322.679 214.987 338.399 229.627 347.109C229.791 348.852 230.051 350.585 230.407 352.299C235.407 374.919 250.687 404.999 250.687 404.999L273.887 394.209L266.407 368.559L274.207 373.109L285.727 351.319ZM228.317 295.319L231.437 281.409C230.777 290.259 230.177 299.489 229.747 308.339C228.239 304.186 227.748 299.731 228.317 295.349V295.319Z" fill="#263238"/>
<path d="M250.726 405C250.655 404.882 250.595 404.758 250.546 404.63L250.056 403.54L248.266 399.31C246.726 395.62 244.516 390.31 241.866 383.66C239.216 377.01 236.076 369.13 232.866 360.23C232.076 358 231.306 355.71 230.576 353.34C230.256 352.14 229.846 350.96 229.636 349.69C229.576 349.38 229.506 349.06 229.456 348.75L229.346 347.8L229.136 345.9C228.856 343.34 228.633 340.733 228.466 338.08C228.386 336.76 228.316 335.42 228.256 334.08C228.196 332.74 228.156 331.37 228.256 330C228.656 319.1 229.566 308.76 230.326 299.35C231.086 289.94 231.816 281.48 232.416 274.35C233.016 267.22 233.416 261.48 233.616 257.49C233.746 255.49 233.816 253.95 233.856 252.91L233.926 251.71C233.908 251.577 233.908 251.442 233.926 251.31C233.937 251.443 233.937 251.576 233.926 251.71C233.926 252.01 233.926 252.4 233.926 252.91C233.926 253.96 233.876 255.51 233.786 257.5C233.616 261.5 233.266 267.26 232.736 274.38C232.206 281.5 231.496 289.97 230.736 299.38C229.976 308.79 229.106 319.13 228.736 330C228.656 331.36 228.736 332.7 228.736 334.05C228.736 335.4 228.856 336.72 228.946 338.05C229.106 340.716 229.323 343.313 229.596 345.84L229.806 347.75L229.916 348.69C229.966 349 230.036 349.3 230.096 349.61C230.296 350.83 230.696 352.02 231.016 353.21C231.726 355.56 232.496 357.85 233.276 360.08C236.416 368.97 239.526 376.88 242.126 383.53C244.726 390.18 246.896 395.53 248.386 399.23C249.116 401.07 249.696 402.5 250.096 403.5C250.276 403.97 250.426 404.34 250.526 404.61C250.626 404.88 250.726 405 250.726 405Z" fill="#455A64"/>
<path d="M232.867 248.369C232.867 248.369 232.637 248.229 232.267 247.879C231.79 247.341 231.407 246.726 231.137 246.059C230.346 243.853 229.959 241.522 229.997 239.179C229.967 236.841 230.077 234.504 230.327 232.179C230.374 231.219 230.508 230.265 230.727 229.329C230.809 230.287 230.809 231.251 230.727 232.209C230.637 233.979 230.497 236.429 230.537 239.129C230.521 241.424 230.859 243.707 231.537 245.899C231.772 246.542 232.092 247.15 232.487 247.709C232.727 248.119 232.897 248.349 232.867 248.369Z" fill="#455A64"/>
<path d="M222.887 227.72C223.123 228.503 223.191 229.328 223.087 230.14C222.954 232.131 222.292 234.05 221.168 235.699C220.045 237.348 218.501 238.667 216.697 239.52C215.977 239.912 215.184 240.151 214.367 240.22C214.367 240.14 215.237 239.9 216.537 239.22C218.229 238.32 219.677 237.022 220.757 235.439C221.837 233.855 222.517 232.034 222.737 230.13C222.907 228.65 222.797 227.72 222.887 227.72Z" fill="#455A64"/>
<path d="M264.388 278.18C264.388 278.18 264.388 278.27 264.388 278.44C264.388 278.61 264.388 278.9 264.328 279.21C264.248 279.93 264.148 280.93 264.028 282.21C263.738 284.82 263.338 288.53 262.838 293.09C261.838 302.32 260.358 314.99 258.778 329C258.215 335.595 258.657 342.237 260.088 348.7C260.715 351.515 261.52 354.287 262.498 357C263.398 359.56 264.228 361.95 264.998 364.14C266.508 368.48 267.728 372.01 268.588 374.49C268.988 375.69 269.308 376.63 269.588 377.31L269.828 378.05C269.862 378.129 269.882 378.214 269.888 378.3C269.888 378.3 269.888 378.23 269.778 378.06C269.668 377.89 269.608 377.64 269.498 377.34C269.238 376.67 268.898 375.74 268.498 374.55L264.758 364.26C263.978 362.08 263.118 359.69 262.198 357.14C261.196 354.412 260.371 351.623 259.728 348.79C258.256 342.286 257.794 335.594 258.358 328.95C259.918 314.9 261.478 302.24 262.568 293.05C263.138 288.49 263.568 284.78 263.918 282.18C264.078 280.92 264.208 279.94 264.308 279.18C264.308 278.87 264.388 278.62 264.418 278.42C264.397 278.342 264.387 278.261 264.388 278.18Z" fill="#455A64"/>
<path d="M219.43 226.249L223.53 215.779L232.88 229.719L220.41 226.609" fill="#FFBE9D"/>
<path d="M317.25 194.779L306.16 169.909C304.83 165.909 302.34 165.289 300.26 162.969L272.47 147.299C252.21 138.999 241.18 166.819 241.18 166.819L222.77 208.819C201.12 215.989 216.45 232.619 216.45 232.619C216.45 232.619 210.56 222.379 216.36 218.689C222.42 214.819 229.14 225.009 235.6 234.689C243.23 246.109 268.01 253.529 268.01 253.529C270.91 250.469 270.1 239.779 272.37 234.039C273.09 232.229 290.25 192.479 290.25 192.479L296.9 208.589C296.9 208.589 305.42 198.589 309.56 197.009C312.055 196.049 314.628 195.303 317.25 194.779Z" fill="#349F6E"/>
<path d="M267.998 212.459C267.744 212.69 267.462 212.888 267.158 213.049C266.351 213.518 265.504 213.916 264.628 214.239C261.716 215.337 258.569 215.664 255.493 215.189C252.417 214.714 249.515 213.454 247.068 211.529C246.33 210.959 245.643 210.323 245.018 209.629C244.771 209.394 244.561 209.12 244.398 208.819C244.468 208.749 245.398 209.879 247.278 211.249C249.722 213.052 252.566 214.235 255.566 214.699C258.567 215.162 261.635 214.891 264.508 213.909C266.728 213.169 267.998 212.379 267.998 212.459Z" fill="#263238"/>
<path d="M221.999 173L239.149 174.62L266.589 145.62L250.449 145.06L221.719 147.9C223.23 156.19 223.325 164.677 221.999 173Z" fill="#349F6E"/>
<path d="M245.77 157.739C245.728 157.926 245.657 158.105 245.56 158.269L244.87 159.749C244.25 161.089 243.38 162.939 242.33 165.179C240.2 169.779 237.33 176.179 234.33 183.279C231.33 190.379 228.47 196.809 226.33 201.419C225.28 203.729 224.41 205.579 223.79 206.859L223.06 208.319C222.983 208.497 222.886 208.665 222.77 208.819C222.82 208.634 222.887 208.453 222.97 208.279L223.61 206.779L226.01 201.279C228.01 196.569 230.8 190.159 233.84 183.079C236.88 175.999 239.84 169.599 242.01 165.029C243.12 162.749 244.01 160.919 244.7 159.659C245.02 159.079 245.27 158.599 245.47 158.219C245.552 158.049 245.653 157.888 245.77 157.739Z" fill="#263238"/>
<path d="M298.117 166.17C298.167 166.26 297.117 166.81 295.647 168.05C294.804 168.773 294.03 169.573 293.337 170.44C292.492 171.511 291.761 172.667 291.157 173.89C290.576 175.121 290.121 176.408 289.797 177.73C289.545 178.817 289.397 179.925 289.357 181.04C289.287 182.94 289.507 184.12 289.407 184.13C289.301 183.871 289.234 183.598 289.207 183.32C289.132 182.991 289.085 182.657 289.067 182.32C289.015 181.882 288.992 181.441 288.997 181C288.989 179.857 289.106 178.717 289.347 177.6C289.647 176.221 290.099 174.879 290.697 173.6C291.323 172.347 292.084 171.167 292.967 170.08C293.698 169.206 294.519 168.411 295.417 167.71C295.755 167.432 296.113 167.178 296.487 166.95C296.756 166.757 297.04 166.587 297.337 166.44C297.581 166.309 297.844 166.218 298.117 166.17Z" fill="#263238"/>
<path d="M302.91 126.34L286.82 156.42C285.551 158.785 283.435 160.583 280.895 161.451C278.355 162.32 275.58 162.194 273.129 161.1C271.809 160.502 270.624 159.64 269.649 158.568C268.675 157.495 267.93 156.233 267.461 154.862C266.993 153.49 266.81 152.036 266.925 150.591C267.04 149.146 267.45 147.74 268.129 146.46L270.899 141.24C270.899 141.24 263.899 136.71 267.179 129.15C270.099 122.41 280.819 103.37 283.089 99.3496L296.649 105.42C298.455 106.361 300.053 107.655 301.349 109.224C302.646 110.794 303.614 112.607 304.198 114.557C304.781 116.508 304.968 118.555 304.747 120.579C304.526 122.603 303.901 124.562 302.91 126.34Z" fill="#FFBE9D"/>
<path d="M270.898 141.13C274.341 142.747 278.187 143.304 281.948 142.73C281.948 142.73 277.208 147.1 270.008 143.07L270.898 141.13Z" fill="#EB996E"/>
<path d="M276.068 117.079C275.94 117.358 275.926 117.676 276.029 117.966C276.132 118.255 276.343 118.493 276.618 118.629C276.75 118.701 276.895 118.745 277.044 118.76C277.193 118.775 277.343 118.76 277.487 118.717C277.63 118.673 277.763 118.601 277.879 118.505C277.994 118.41 278.089 118.292 278.158 118.159C278.286 117.88 278.301 117.562 278.198 117.273C278.095 116.983 277.884 116.745 277.608 116.609C277.477 116.538 277.332 116.493 277.183 116.478C277.034 116.463 276.883 116.478 276.74 116.522C276.597 116.566 276.464 116.637 276.348 116.733C276.233 116.829 276.138 116.946 276.068 117.079Z" fill="#263238"/>
<path d="M276.129 116.129C276.199 116.329 277.279 116.129 278.439 116.609C279.599 117.089 280.179 118.079 280.369 117.999C280.559 117.919 280.429 117.649 280.189 117.219C279.842 116.65 279.329 116.2 278.719 115.929C278.117 115.659 277.445 115.586 276.799 115.719C276.329 115.829 276.089 115.999 276.129 116.129Z" fill="#263238"/>
<path d="M286.876 122.399C286.746 122.678 286.73 122.997 286.833 123.287C286.936 123.577 287.149 123.815 287.426 123.949C287.559 124.02 287.704 124.064 287.853 124.079C288.003 124.093 288.154 124.077 288.297 124.033C288.44 123.988 288.573 123.915 288.688 123.818C288.803 123.722 288.898 123.603 288.966 123.469C289.091 123.191 289.104 122.876 289.001 122.589C288.899 122.302 288.689 122.065 288.416 121.929C288.285 121.857 288.14 121.811 287.991 121.795C287.841 121.779 287.69 121.794 287.547 121.838C287.403 121.882 287.27 121.954 287.154 122.05C287.039 122.147 286.945 122.266 286.876 122.399Z" fill="#263238"/>
<path d="M287.387 121.419C287.457 121.619 288.537 121.419 289.697 121.899C290.857 122.379 291.437 123.379 291.627 123.299C291.817 123.219 291.697 122.949 291.447 122.509C291.099 121.943 290.586 121.497 289.977 121.229C289.376 120.955 288.703 120.881 288.057 121.019C287.587 121.129 287.347 121.329 287.387 121.419Z" fill="#263238"/>
<path d="M279.36 128.11C278.835 127.652 278.258 127.26 277.64 126.94C277.36 126.77 277.1 126.59 277.14 126.37C277.18 126.15 277.44 125.86 277.73 125.58L279.61 123.72C281.27 122.177 282.805 120.505 284.2 118.72C282.41 120.117 280.738 121.659 279.2 123.33L277.35 125.22C277.005 125.493 276.768 125.879 276.68 126.31C276.678 126.433 276.703 126.554 276.753 126.667C276.804 126.779 276.877 126.879 276.97 126.96C277.114 127.075 277.272 127.172 277.44 127.25C278.037 127.623 278.683 127.913 279.36 128.11Z" fill="#263238"/>
<path d="M282.399 130.429C282.219 130.339 281.659 131.589 280.189 131.999C278.719 132.409 277.439 131.679 277.349 131.849C277.259 132.019 277.539 132.219 278.099 132.489C278.827 132.83 279.653 132.901 280.429 132.689C281.176 132.491 281.816 132.006 282.209 131.339C282.489 130.839 282.489 130.469 282.399 130.429Z" fill="#263238"/>
<path d="M289.117 116.76C289.117 117.13 290.307 117.49 291.587 118.26C292.867 119.03 293.807 119.89 294.107 119.69C294.247 119.59 294.187 119.21 293.887 118.69C293.461 118.056 292.897 117.526 292.237 117.139C291.577 116.753 290.839 116.521 290.077 116.46C289.497 116.46 289.127 116.59 289.117 116.76Z" fill="#263238"/>
<path d="M278.049 113C278.139 113.36 279.049 113.44 280.049 113.85C281.049 114.26 281.739 114.85 282.049 114.63C282.359 114.41 282.189 114.21 281.939 113.81C281.61 113.291 281.123 112.891 280.549 112.67C279.982 112.425 279.352 112.365 278.749 112.5C278.249 112.58 277.999 112.8 278.049 113Z" fill="#263238"/>
<path d="M297.848 130.85C298.008 130.85 303.698 131.63 301.238 136.7C298.778 141.77 294.238 138.25 294.238 138.1C294.238 137.95 297.848 130.85 297.848 130.85Z" fill="#FFBE9D"/>
<path d="M296.737 136.929C296.737 136.929 296.797 137.029 296.907 137.179C297.077 137.369 297.313 137.487 297.567 137.509C298.001 137.466 298.416 137.306 298.768 137.048C299.119 136.789 299.395 136.441 299.567 136.039C299.79 135.612 299.916 135.141 299.937 134.659C299.965 134.478 299.949 134.292 299.889 134.118C299.83 133.943 299.73 133.786 299.597 133.659C299.507 133.584 299.394 133.544 299.277 133.544C299.16 133.544 299.047 133.584 298.957 133.659C298.827 133.769 298.807 133.879 298.777 133.879C298.747 133.879 298.707 133.739 298.847 133.549C298.938 133.437 299.065 133.36 299.207 133.329C299.397 133.293 299.594 133.333 299.757 133.439C299.943 133.582 300.091 133.77 300.185 133.985C300.28 134.2 300.318 134.435 300.297 134.669C300.298 135.212 300.168 135.748 299.917 136.229C299.722 136.693 299.396 137.089 298.978 137.368C298.56 137.647 298.069 137.797 297.567 137.799C297.412 137.768 297.265 137.705 297.135 137.614C297.006 137.523 296.898 137.405 296.817 137.269C296.687 137.059 296.717 136.929 296.737 136.929Z" fill="#EB996E"/>
<path d="M300.788 132C300.317 131.762 299.792 131.652 299.265 131.682C298.739 131.712 298.229 131.88 297.788 132.17C297.128 132.75 296.678 133.55 296.018 134.17C295.714 134.492 295.311 134.705 294.873 134.774C294.435 134.842 293.987 134.764 293.598 134.55C293.371 134.347 293.201 134.087 293.106 133.797C293.011 133.508 292.995 133.198 293.058 132.9C293.192 132.301 293.44 131.734 293.788 131.23C295.158 128.97 296.728 126.81 297.908 124.44C299.192 122.099 299.752 119.429 299.518 116.77C299.383 115.447 298.893 114.185 298.101 113.117C297.31 112.049 296.245 111.214 295.018 110.7C293.368 110.12 291.528 110.29 289.838 109.81C288.838 109.509 287.919 108.986 287.15 108.28C286.381 107.573 285.782 106.701 285.398 105.73C285.199 105.338 284.979 104.957 284.738 104.59C284.798 104.47 285.398 103.45 285.988 103.25C290.448 101.74 296.478 103.47 300.168 106.38C302.052 107.843 303.593 109.7 304.685 111.821C305.776 113.942 306.392 116.276 306.488 118.66C306.538 123.36 303.578 128.54 300.828 132.04" fill="#263238"/>
<path d="M300.838 131.45C302.248 129.05 304.528 127.32 306.268 125.16C308.008 123 309.268 119.95 307.968 117.47C307.548 116.62 306.868 115.91 306.518 115.03C306.241 114.116 306.073 113.173 306.018 112.22C305.792 110.763 305.239 109.377 304.401 108.164C303.563 106.952 302.461 105.945 301.178 105.22C299.398 104.22 297.348 103.82 295.538 102.87C292.688 101.37 290.598 98.5895 287.538 97.3995C287.056 97.1643 286.529 97.0338 285.993 97.0166C285.457 96.9994 284.924 97.0958 284.428 97.2995C284.19 97.415 283.98 97.5791 283.81 97.7813C283.641 97.9834 283.515 98.219 283.443 98.4728C283.37 98.7265 283.352 98.9927 283.389 99.254C283.426 99.5154 283.517 99.766 283.658 99.9895C283.599 99.7592 283.49 99.5446 283.339 99.3607C283.188 99.1769 282.999 99.0283 282.784 98.9254C282.57 98.8225 282.336 98.7678 282.098 98.765C281.86 98.7623 281.624 98.8116 281.408 98.9095C280.982 99.1415 280.635 99.4939 280.409 99.9227C280.183 100.351 280.088 100.837 280.138 101.32C280.255 102.282 280.632 103.195 281.228 103.96C283.082 106.588 285.812 108.47 288.928 109.27L295.838 108.73L301.498 112.92L305.678 119.59L298.088 129.45L300.838 131.45Z" fill="#263238"/>
<path d="M257.651 92.0996C257.37 87.7425 255.924 83.5408 253.464 79.9334C251.005 76.326 247.621 73.4454 243.668 71.5925C239.714 69.7395 235.336 68.9823 230.99 69.3998C226.644 69.8174 222.489 71.3945 218.961 73.9662C215.433 76.538 212.66 80.0101 210.932 84.0198C209.204 88.0295 208.585 92.4297 209.138 96.7606C209.692 101.091 211.399 105.194 214.08 108.64C216.761 112.086 220.319 114.748 224.381 116.35C224.571 119.23 224.781 122.49 224.781 122.49L246.101 121.11C246.101 121.11 246.011 117.66 245.851 114.58C249.694 112.28 252.829 108.964 254.911 104.998C256.993 101.032 257.941 96.5693 257.651 92.0996Z" fill="#349F6E"/>
<path d="M238.38 121.509C238.38 121.509 238.38 121.399 238.38 121.209C238.38 121.019 238.38 120.699 238.38 120.319C238.38 119.549 238.49 118.399 238.61 116.929C238.73 115.459 238.9 113.649 239.23 111.579C239.595 109.221 240.188 106.903 241 104.659C241.478 103.353 242.07 102.091 242.77 100.889C243.151 100.233 243.691 99.6825 244.34 99.2892C244.691 99.0933 245.084 98.9847 245.486 98.9725C245.888 98.9603 246.287 99.0449 246.65 99.2192C247.034 99.404 247.331 99.7301 247.48 100.129C247.644 100.533 247.644 100.985 247.48 101.389C247.123 102.166 246.493 102.786 245.71 103.129C244.884 103.452 244.003 103.609 243.117 103.589C242.23 103.569 241.357 103.373 240.547 103.013C239.737 102.653 239.006 102.136 238.397 101.492C237.788 100.847 237.313 100.088 237 99.2592C236.63 98.3751 236.516 97.405 236.67 96.4592C236.754 95.9562 237.01 95.4982 237.395 95.1641C237.78 94.8301 238.27 94.6409 238.78 94.6292C239.044 94.6377 239.301 94.7139 239.527 94.8505C239.753 94.9871 239.94 95.1795 240.07 95.4092C240.339 95.8526 240.441 96.377 240.36 96.8892C240.125 97.8756 239.582 98.7616 238.81 99.4192C238.075 100.126 237.198 100.67 236.239 101.014C235.279 101.359 234.257 101.497 233.24 101.419C232.221 101.323 231.24 100.982 230.382 100.425C229.523 99.8677 228.812 99.1109 228.31 98.2192C228.052 97.7798 227.887 97.2918 227.827 96.7858C227.767 96.2798 227.812 95.7668 227.96 95.2792C228.032 95.029 228.159 94.7977 228.33 94.6017C228.502 94.4057 228.714 94.2498 228.953 94.1449C229.191 94.04 229.45 93.9887 229.71 93.9946C229.971 94.0005 230.226 94.0635 230.46 94.1792C230.92 94.3922 231.304 94.7412 231.56 95.1792C231.799 95.606 231.955 96.0743 232.02 96.5592C232.148 97.4957 232.084 98.4485 231.83 99.3592C231.36 101.144 230.226 102.682 228.66 103.659C227.165 104.576 225.392 104.93 223.66 104.659C222.818 104.58 222.024 104.229 221.4 103.659C221.094 103.361 220.899 102.968 220.846 102.545C220.794 102.122 220.887 101.693 221.11 101.329C221.369 100.994 221.75 100.775 222.17 100.719C222.57 100.668 222.976 100.72 223.35 100.869C224.04 101.206 224.599 101.762 224.94 102.449C225.64 103.729 226.21 104.979 226.79 106.169C229.05 110.949 230.69 114.899 231.79 117.639C232.34 119.009 232.79 120.079 233.03 120.799C233.16 121.159 233.26 121.439 233.34 121.629C233.377 121.724 233.407 121.821 233.43 121.919L233.31 121.639L232.97 120.829L231.68 117.679C230.54 114.959 228.87 111.019 226.59 106.259C226.01 105.079 225.42 103.809 224.73 102.559C224.409 101.922 223.89 101.406 223.25 101.089C222.927 100.937 222.563 100.892 222.213 100.96C221.862 101.028 221.542 101.207 221.3 101.469C221.118 101.786 221.047 102.155 221.098 102.517C221.149 102.879 221.318 103.214 221.58 103.469C222.163 104.001 222.904 104.327 223.69 104.399C225.361 104.648 227.066 104.293 228.5 103.399C229.986 102.447 231.058 100.968 231.5 99.2592C231.744 98.3844 231.806 97.4687 231.68 96.5692C231.651 96.1221 231.507 95.6899 231.264 95.3136C231.021 94.9373 230.686 94.6294 230.29 94.4192C230.091 94.3276 229.874 94.2802 229.655 94.2802C229.436 94.2802 229.219 94.3276 229.02 94.4192C228.817 94.5158 228.638 94.6553 228.495 94.828C228.352 95.0006 228.248 95.2023 228.19 95.4192C228.055 95.8676 228.015 96.339 228.072 96.8037C228.129 97.2684 228.281 97.7163 228.52 98.1192C229.007 98.9584 229.687 99.6688 230.505 100.191C231.323 100.713 232.254 101.031 233.22 101.119C234.194 101.191 235.173 101.057 236.091 100.724C237.01 100.391 237.848 99.8684 238.55 99.1892C239.265 98.5793 239.772 97.7612 240 96.8492C240.07 96.4031 239.982 95.9467 239.75 95.5592C239.643 95.3729 239.49 95.2167 239.307 95.1048C239.123 94.993 238.915 94.9291 238.7 94.9192C238.258 94.922 237.834 95.0896 237.51 95.3892C237.184 95.6871 236.966 96.0844 236.89 96.5192C236.742 97.4108 236.85 98.326 237.2 99.1592C237.499 99.9613 237.955 100.696 238.541 101.319C239.128 101.943 239.833 102.443 240.616 102.79C241.398 103.138 242.242 103.326 243.098 103.343C243.954 103.359 244.804 103.205 245.6 102.889C246.323 102.573 246.906 102.004 247.24 101.289C247.383 100.952 247.392 100.573 247.266 100.23C247.14 99.8859 246.887 99.6033 246.56 99.4392C246.232 99.2809 245.871 99.2038 245.508 99.2142C245.144 99.2246 244.788 99.3224 244.47 99.4992C243.864 99.8713 243.36 100.386 243 100.999C242.306 102.186 241.717 103.43 241.24 104.719C240.418 106.942 239.816 109.239 239.44 111.579C239.09 113.649 238.9 115.449 238.76 116.919C238.62 118.389 238.55 119.519 238.48 120.309C238.48 120.679 238.42 120.979 238.41 121.189C238.4 121.399 238.38 121.509 238.38 121.509Z" fill="#263238"/>
<path d="M244.71 125.159L226.41 126.349C226.044 126.371 225.685 126.248 225.41 126.006C225.134 125.765 224.966 125.424 224.94 125.059C224.918 124.695 225.042 124.336 225.283 124.063C225.525 123.789 225.866 123.622 226.23 123.599L244.54 122.419C244.72 122.407 244.901 122.43 245.072 122.488C245.242 122.546 245.4 122.637 245.536 122.756C245.672 122.875 245.782 123.019 245.862 123.181C245.942 123.343 245.989 123.519 246 123.699C246.022 124.064 245.898 124.422 245.657 124.696C245.415 124.969 245.074 125.136 244.71 125.159Z" fill="#263238"/>
<path d="M244.792 126.359L226.482 127.549C226.119 127.573 225.78 127.741 225.54 128.014C225.3 128.288 225.178 128.646 225.202 129.009C225.226 129.373 225.393 129.712 225.667 129.952C225.941 130.192 226.299 130.313 226.662 130.289L228.662 130.159L231.662 135.069C231.833 135.343 232.074 135.566 232.361 135.714C232.648 135.862 232.97 135.929 233.292 135.909L239.832 135.489C240.156 135.464 240.467 135.353 240.732 135.166C240.998 134.98 241.209 134.725 241.342 134.429L243.602 129.199L244.972 129.109C245.323 129.067 245.644 128.892 245.869 128.621C246.094 128.349 246.207 128.001 246.184 127.649C246.161 127.297 246.004 126.967 245.745 126.727C245.486 126.487 245.145 126.356 244.792 126.359Z" fill="#263238"/>
<g opacity="0.2">
<path d="M216.691 79.18C218.04 77.7454 219.618 76.5456 221.361 75.63C222.502 75.0061 223.729 74.5546 225.001 74.29C225.921 74.14 226.451 74.19 226.511 74.38C226.641 74.82 224.841 75.59 222.511 77.38C219.399 79.6449 217.004 82.7575 215.612 86.3463C214.22 89.9352 213.89 93.8487 214.661 97.62C215.191 100.57 216.001 102.35 215.661 102.62C215.481 102.73 215.061 102.41 214.491 101.68C213.708 100.625 213.094 99.4542 212.671 98.21C212.024 96.358 211.686 94.4119 211.671 92.45C211.625 90.0085 212.049 87.5809 212.921 85.3" fill="white"/>
</g>
<g opacity="0.2">
<path d="M232.45 75.0599C230.91 75.1399 229.52 74.8099 229.31 73.9999C229.22 73.5999 229.48 73.1499 230.01 72.7799C230.697 72.3629 231.474 72.1194 232.276 72.0707C233.077 72.0219 233.879 72.1692 234.611 72.4999C235.191 72.8099 235.49 73.2299 235.45 73.6399" fill="white"/>
</g>
<path d="M241.003 134.88C240.567 134.803 240.136 134.7 239.713 134.57C238.685 134.352 237.63 134.288 236.583 134.38C235.551 134.491 234.541 134.75 233.583 135.15C232.843 135.47 232.403 135.73 232.383 135.69C232.706 135.382 233.082 135.134 233.493 134.96C234.465 134.486 235.516 134.191 236.593 134.09C237.671 133.986 238.759 134.081 239.803 134.37C240.229 134.471 240.635 134.643 241.003 134.88Z" fill="#455A64"/>
<path d="M243.649 129.26C243.649 129.34 240.349 129.62 236.259 129.89C232.169 130.16 228.869 130.3 228.859 130.21C228.849 130.12 232.159 129.85 236.239 129.59C240.319 129.33 243.639 129.18 243.649 129.26Z" fill="#455A64"/>
<path d="M242.643 131.51C242.055 131.655 241.456 131.752 240.853 131.8C239.743 131.95 238.203 132.11 236.493 132.25C234.783 132.39 233.242 132.46 232.122 132.49C231.52 132.544 230.915 132.544 230.312 132.49C230.905 132.369 231.508 132.302 232.113 132.29L236.473 131.96L240.833 131.6C241.432 131.518 242.038 131.488 242.643 131.51Z" fill="#455A64"/>
<path d="M110.801 254L114.801 260.37C114.801 260.37 131.801 244.76 148.591 249.17C148.561 249.15 133.441 236.33 110.801 254Z" fill="#349F6E"/>
<path d="M148.559 249.15C148.559 249.15 161.009 235.63 179.269 238.71L184.269 239.46L182.689 236.59C182.689 236.59 150.899 225.71 148.559 249.15Z" fill="#349F6E"/>
<path d="M122.28 203.56C122.28 203.56 97.34 199.27 81 208.12L107 257C107 257 128.26 236.51 148.6 249.13L122.28 203.56Z" fill="#F5F5F5"/>
<path d="M122.279 203.56C122.33 203.623 122.377 203.69 122.419 203.76L122.789 204.38L124.229 206.81L129.629 216.07L148.749 249.07C148.773 249.112 148.782 249.16 148.776 249.208C148.769 249.256 148.747 249.3 148.713 249.334C148.679 249.368 148.635 249.39 148.587 249.397C148.539 249.403 148.491 249.394 148.449 249.37C145.517 247.557 142.271 246.312 138.879 245.7C137.097 245.411 135.293 245.284 133.489 245.32C131.633 245.402 129.787 245.636 127.969 246.02C120.285 247.908 113.196 251.69 107.349 257.02L107.129 257.22C107.106 257.244 107.079 257.263 107.049 257.276C107.019 257.289 106.987 257.296 106.954 257.296C106.921 257.296 106.889 257.289 106.859 257.276C106.828 257.263 106.801 257.244 106.779 257.22V257.17L80.8089 208.22C80.7951 208.197 80.7863 208.172 80.7828 208.146C80.7794 208.119 80.7815 208.093 80.7891 208.067C80.7966 208.042 80.8094 208.018 80.8266 207.998C80.8438 207.978 80.865 207.961 80.8889 207.95C86.1005 205.35 91.7241 203.675 97.5089 203C101.923 202.457 106.374 202.263 110.819 202.42C114.499 202.55 117.369 202.84 119.309 203.08C120.309 203.2 121.029 203.31 121.529 203.4L122.099 203.5H122.279H122.089L121.519 203.43C121.019 203.37 120.279 203.27 119.299 203.17C117.299 202.97 114.479 202.72 110.809 202.63C106.382 202.507 101.951 202.731 97.5589 203.3C91.8219 204.005 86.2499 205.697 81.0889 208.3L81.1689 208.03L107.169 256.91L106.779 256.84L106.999 256.64C110.031 253.931 113.366 251.582 116.939 249.64C120.366 247.752 124.042 246.358 127.859 245.5C129.705 245.105 131.582 244.871 133.469 244.8C135.304 244.758 137.139 244.888 138.949 245.19C142.394 245.824 145.691 247.096 148.669 248.94L148.359 249.24L129.449 216.24L124.129 206.9L122.739 204.42C122.589 204.14 122.469 203.93 122.389 203.77C122.347 203.703 122.311 203.632 122.279 203.56Z" fill="#263238"/>
<path d="M161.478 193.53C161.478 193.53 142.618 181.53 122.598 203.53L148.878 249.12C148.878 249.12 154.238 230.62 185.618 237.05L161.478 193.53Z" fill="#F5F5F5"/>
<path d="M161.479 193.53C161.531 193.587 161.574 193.651 161.609 193.72C161.689 193.87 161.809 194.06 161.949 194.31L163.279 196.63L168.279 205.47L185.809 237C185.823 237.024 185.833 237.051 185.836 237.079C185.84 237.106 185.838 237.135 185.83 237.162C185.823 237.189 185.81 237.214 185.793 237.236C185.775 237.258 185.754 237.276 185.729 237.29C185.681 237.308 185.628 237.308 185.579 237.29L180.909 236.52C180.112 236.384 179.307 236.294 178.499 236.25L176.039 236.05C175.205 235.98 174.366 235.96 173.529 235.99L170.999 236C170.139 236 169.289 236.17 168.429 236.25C167.561 236.321 166.699 236.451 165.849 236.64L163.279 237.22L160.749 238.11C159.918 238.445 159.103 238.823 158.309 239.24C157.897 239.428 157.502 239.652 157.129 239.91L155.979 240.65C155.219 241.16 154.539 241.78 153.829 242.35C153.159 242.978 152.528 243.646 151.939 244.35C150.729 245.771 149.781 247.397 149.139 249.15C149.117 249.212 149.07 249.263 149.01 249.291C148.95 249.319 148.882 249.322 148.819 249.3C148.764 249.28 148.718 249.241 148.689 249.19L147.629 247.36C138.339 231.21 129.629 216.16 122.439 203.59C122.415 203.553 122.402 203.509 122.402 203.465C122.402 203.421 122.415 203.377 122.439 203.34C126.408 198.846 131.25 195.205 136.669 192.64C140.874 190.72 145.484 189.855 150.099 190.12C153.047 190.296 155.947 190.944 158.689 192.04C159.407 192.335 160.108 192.668 160.789 193.04L161.309 193.34L161.469 193.46L161.289 193.37L160.759 193.1C160.289 192.87 159.589 192.53 158.649 192.17C155.141 190.835 151.401 190.216 147.649 190.352C143.898 190.488 140.212 191.375 136.809 192.96C131.451 195.532 126.669 199.162 122.749 203.63V203.39L147.999 247.19L149.099 249L148.639 249.06C149.3 247.236 150.279 245.543 151.529 244.06C152.139 243.337 152.787 242.646 153.469 241.99C154.209 241.4 154.899 240.76 155.679 240.25L156.849 239.49C157.232 239.229 157.637 239.001 158.059 238.81C158.899 238.42 159.689 237.95 160.549 237.65L163.119 236.76L165.739 236.17C166.602 235.976 167.478 235.845 168.359 235.78C169.229 235.7 170.089 235.54 170.949 235.53H173.519C174.363 235.49 175.208 235.51 176.049 235.59L178.529 235.8C179.344 235.839 180.156 235.929 180.959 236.07L185.659 236.86L185.429 237.18C178.259 224.18 172.269 213.29 168.049 205.62C165.959 201.81 164.309 198.79 163.179 196.71L161.899 194.35C161.769 194.09 161.659 193.89 161.579 193.74C161.499 193.59 161.479 193.53 161.479 193.53Z" fill="#263238"/>
<path d="M88 184.62L116.13 238.77C116.13 238.77 138.98 237.77 148.66 248.91L122.6 203.56C122.6 203.56 107.32 184.62 88 184.62Z" fill="#F5F5F5"/>
<path d="M87.9983 184.62H88.7183L90.8783 184.71C91.1183 184.71 91.3783 184.71 91.6383 184.71L92.4683 184.85L94.3483 185.16C95.0767 185.281 95.7952 185.455 96.4983 185.68C97.3132 185.875 98.1176 186.112 98.9083 186.39C105.628 188.63 114.648 194.05 122.748 203.39L148.848 248.71C148.881 248.767 148.89 248.835 148.873 248.899C148.856 248.962 148.815 249.017 148.758 249.05C148.716 249.084 148.663 249.103 148.608 249.103C148.554 249.103 148.501 249.084 148.458 249.05L147.358 247.95C145.267 245.942 142.827 244.333 140.158 243.2C137.573 242.044 134.876 241.16 132.108 240.56C126.857 239.395 121.486 238.865 116.108 238.98C116.066 238.98 116.024 238.97 115.987 238.948C115.95 238.927 115.92 238.897 115.898 238.86C107.698 222.96 100.698 209.37 95.7283 199.75C93.3083 195 91.3683 191.2 89.9983 188.58C89.3483 187.31 88.8383 186.32 88.4883 185.58L88.1083 184.83L87.9883 184.58C88.048 184.664 88.0983 184.755 88.1383 184.85L88.5583 185.62L90.1383 188.62L95.9983 199.84L116.298 238.66L116.088 238.54C121.502 238.409 126.911 238.933 132.198 240.1C134.995 240.708 137.722 241.599 140.338 242.76C143.059 243.921 145.547 245.568 147.678 247.62L148.818 248.74L148.408 249.03C138.738 232.18 129.788 216.56 122.408 203.67C118.793 199.45 114.657 195.707 110.098 192.53C106.619 190.072 102.825 188.095 98.8183 186.65C98.0312 186.366 97.2301 186.123 96.4183 185.92C95.7227 185.688 95.0107 185.507 94.2883 185.38L92.4183 185.04L91.6083 184.89L90.8683 184.83L87.9983 184.62Z" fill="#263238"/>
<path d="M175.799 338.2L176.399 339.2C177.077 340.326 178.063 341.235 179.239 341.82L180.239 342.34L179.239 342.94C178.117 343.622 177.209 344.606 176.619 345.78L176.099 346.83L175.499 345.83C174.822 344.704 173.836 343.795 172.659 343.21L171.609 342.69L172.609 342.09C173.738 341.415 174.648 340.429 175.229 339.25L175.799 338.2Z" fill="#349F6E"/>
<path d="M120.36 131.93L120.96 132.93C121.639 134.053 122.624 134.958 123.8 135.54L124.8 136.06L123.8 136.67C122.67 137.342 121.76 138.329 121.18 139.51L120.66 140.51L120.06 139.51C119.381 138.381 118.392 137.471 117.21 136.89L116.16 136.37L117.16 135.77C118.284 135.085 119.192 134.097 119.78 132.92L120.36 131.93Z" fill="#349F6E"/>
<path d="M376.941 167.52L377.541 168.52C378.22 169.648 379.209 170.558 380.391 171.14L381.441 171.66L380.441 172.26C379.317 172.942 378.412 173.93 377.831 175.11L377.311 176.11L376.701 175.11C376.025 173.984 375.039 173.078 373.861 172.5L372.801 172L373.801 171.39C374.931 170.717 375.841 169.73 376.421 168.55L376.941 167.52Z" fill="#349F6E"/>
<path d="M346.642 351.15L347.242 352.15C347.924 353.274 348.912 354.18 350.092 354.76L351.142 355.28L350.142 355.89C349.016 356.569 348.107 357.554 347.522 358.73L347.012 359.78L346.402 358.78C345.727 357.652 344.741 356.742 343.562 356.16L342.512 355.64L343.512 355.04C344.641 354.362 345.55 353.372 346.132 352.19L346.642 351.15Z" fill="#349F6E"/>
<path d="M352.41 389.74L352.7 389.86C353.018 389.984 353.364 390.019 353.7 389.96L354.01 389.9L353.89 390.19C353.766 390.508 353.731 390.854 353.79 391.19L353.85 391.5L353.56 391.38C353.242 391.257 352.896 391.222 352.56 391.28L352.25 391.34L352.37 391.05C352.494 390.732 352.529 390.386 352.47 390.05L352.41 389.74Z" fill="#349F6E"/>
<path d="M369.859 128.81L370.139 128.93C370.458 129.052 370.803 129.087 371.139 129.03L371.439 128.97L371.329 129.26C371.2 129.576 371.166 129.924 371.229 130.26L371.289 130.57L370.999 130.45C370.681 130.327 370.335 130.293 369.999 130.35L369.699 130.41L369.809 130.12C369.938 129.803 369.973 129.456 369.909 129.12L369.859 128.81Z" fill="#349F6E"/>
<path d="M131.629 105L131.919 105.11C132.236 105.239 132.583 105.273 132.919 105.21H133.229L133.109 105.49C132.986 105.808 132.952 106.154 133.009 106.49L133.069 106.79L132.779 106.68C132.462 106.551 132.115 106.517 131.779 106.58H131.469L131.589 106.3C131.711 105.982 131.746 105.636 131.689 105.3L131.629 105Z" fill="#349F6E"/>
<path d="M161 308.16L161.29 308.27C161.605 308.403 161.954 308.438 162.29 308.37L162.6 308.32L162.48 308.61C162.356 308.928 162.321 309.274 162.38 309.61L162.44 309.91L162.15 309.8C161.833 309.671 161.486 309.637 161.15 309.7L160.84 309.76L160.96 309.47C161.082 309.152 161.117 308.806 161.06 308.47L161 308.16Z" fill="#349F6E"/>
<path d="M192.91 386.69L192.63 386.98L191.8 387.81L188.57 391L176.57 402.57V402.45C177.2 415 178 432 178.84 451V451.42L178.48 451.19L174.15 448.29L146.71 429.92H146.65V429.86C142.55 417.63 139.1 407.31 136.65 400.03C135.45 396.41 134.51 393.55 133.85 391.57L133.13 389.32C133.05 389.08 132.99 388.89 132.95 388.75C132.95 388.61 132.89 388.55 132.9 388.55L132.98 388.73L133.19 389.3C133.37 389.83 133.63 390.57 133.97 391.53L136.87 399.96C139.35 407.23 142.87 417.52 147.01 429.73L146.93 429.63L174.4 447.97L178.73 450.86L178.39 451.05C177.58 432.05 176.85 415.05 176.31 402.48V402.41H176.36L188.44 390.95L191.73 387.86L192.59 387.07C192.8 386.77 192.91 386.69 192.91 386.69Z" fill="#349F6E"/>
<path d="M180.129 445.25L180.039 448.08L182.329 449.76L179.609 450.55L178.719 453.24L177.119 450.9L174.289 450.89L176.029 448.65L175.159 445.95L177.829 446.91L180.129 445.25Z" fill="#349F6E"/>
<path d="M147.07 426.04L147.13 427.87L148.67 428.87L146.94 429.48L146.47 431.26L145.35 429.81L143.52 429.91L144.55 428.39L143.89 426.68L145.65 427.2L147.07 426.04Z" fill="#349F6E"/>
<path d="M132.828 385.11L134.208 386.89L136.458 386.75L135.198 388.62L136.018 390.71L133.858 390.09L132.118 391.52L132.038 389.27L130.148 388.06L132.258 387.29L132.828 385.11Z" fill="#349F6E"/>
<path d="M191.52 383.34L192.91 385.11L195.15 384.98L193.89 386.84L194.71 388.94L192.55 388.31L190.81 389.74L190.74 387.49L188.84 386.28L190.96 385.51L191.52 383.34Z" fill="#349F6E"/>
<path d="M176.118 400.48L176.998 401.62L178.428 401.53L177.628 402.72L178.148 404.06L176.768 403.66L175.658 404.57L175.608 403.14L174.398 402.36L175.748 401.87L176.118 400.48Z" fill="#349F6E"/>
<path d="M123.19 324.851C134.203 324.851 143.13 315.923 143.13 304.911C143.13 293.898 134.203 284.971 123.19 284.971C112.177 284.971 103.25 293.898 103.25 304.911C103.25 315.923 112.177 324.851 123.19 324.851Z" fill="#349F6E"/>
<g opacity="0.3">
<path d="M120.598 311.131C120.6 311.776 120.41 312.408 120.053 312.946C119.695 313.483 119.186 313.903 118.59 314.151C117.994 314.399 117.338 314.464 116.705 314.339C116.071 314.213 115.489 313.903 115.033 313.446C114.576 312.99 114.266 312.408 114.14 311.774C114.015 311.141 114.08 310.485 114.328 309.889C114.576 309.293 114.996 308.784 115.533 308.426C116.071 308.069 116.702 307.879 117.348 307.881C118.209 307.884 119.034 308.227 119.643 308.836C120.252 309.445 120.595 310.27 120.598 311.131Z" fill="white"/>
</g>
<g opacity="0.3">
<path d="M115.999 301.749C116.001 302.126 115.891 302.494 115.684 302.808C115.476 303.121 115.18 303.367 114.833 303.512C114.486 303.657 114.104 303.696 113.735 303.624C113.365 303.552 113.026 303.372 112.759 303.106C112.493 302.841 112.311 302.503 112.236 302.134C112.162 301.765 112.199 301.382 112.343 301.035C112.486 300.687 112.73 300.39 113.043 300.18C113.355 299.971 113.723 299.859 114.099 299.859C114.601 299.859 115.083 300.058 115.439 300.412C115.795 300.767 115.997 301.247 115.999 301.749Z" fill="white"/>
</g>
<path d="M103.84 309.76C103.93 310.11 86.7696 326.57 91.1996 330.08C95.6296 333.59 114.2 324.59 130.09 311.78C145.98 298.97 160.44 283.41 156.47 279.29C152.5 275.17 132.68 287.36 132.68 287.36L135.05 288.88C135.05 288.88 147.05 281.19 150.83 284.17C154.61 287.15 143.83 298.81 128.56 309.95C113.29 321.09 98.5596 328.89 96.2896 325.84C94.0196 322.79 104.79 312.62 104.79 312.62L103.84 309.76Z" fill="#349F6E"/>
<g opacity="0.3">
<path d="M103.84 309.76C103.93 310.11 86.7696 326.57 91.1996 330.08C95.6296 333.59 114.2 324.59 130.09 311.78C145.98 298.97 160.44 283.41 156.47 279.29C152.5 275.17 132.68 287.36 132.68 287.36L135.05 288.88C135.05 288.88 147.05 281.19 150.83 284.17C154.61 287.15 143.83 298.81 128.56 309.95C113.29 321.09 98.5596 328.89 96.2896 325.84C94.0196 322.79 104.79 312.62 104.79 312.62L103.84 309.76Z" fill="black"/>
</g>
<g opacity="0.3">
<path d="M112.198 290.86C112.358 291.05 111.008 292.2 109.478 294.5C107.448 297.456 106.329 300.941 106.258 304.525C106.186 308.11 107.167 311.637 109.078 314.67C110.518 317.04 111.818 318.24 111.648 318.42C111.478 318.6 109.948 317.64 108.168 315.28C107.14 313.899 106.324 312.373 105.748 310.75C104.289 306.712 104.378 302.277 105.998 298.3C106.636 296.698 107.513 295.201 108.598 293.86C110.468 291.58 112.108 290.72 112.198 290.86Z" fill="white"/>
</g>
<path d="M354.364 129.941C360.915 123.646 361.122 113.232 354.827 106.682C348.532 100.131 338.119 99.924 331.568 106.219C325.017 112.514 324.81 122.928 331.105 129.478C337.4 136.029 347.814 136.236 354.364 129.941Z" fill="#349F6E"/>
<g opacity="0.4">
<path d="M348.329 111.8C348.341 111.27 348.51 110.756 348.814 110.322C349.119 109.888 349.545 109.554 350.039 109.362C350.533 109.17 351.073 109.13 351.59 109.245C352.107 109.36 352.579 109.625 352.945 110.009C353.312 110.392 353.556 110.875 353.648 111.397C353.74 111.919 353.675 112.456 353.461 112.941C353.247 113.426 352.895 113.837 352.447 114.121C352 114.406 351.479 114.552 350.949 114.54C350.597 114.534 350.249 114.457 349.926 114.316C349.604 114.174 349.312 113.97 349.068 113.716C348.825 113.461 348.634 113.161 348.507 112.832C348.38 112.503 348.32 112.152 348.329 111.8Z" fill="black"/>
</g>
<g opacity="0.4">
<path d="M353.688 118.06C353.694 117.749 353.792 117.447 353.97 117.192C354.148 116.937 354.398 116.741 354.687 116.628C354.977 116.515 355.294 116.49 355.597 116.558C355.901 116.625 356.178 116.781 356.392 117.005C356.607 117.23 356.751 117.514 356.804 117.82C356.858 118.126 356.819 118.441 356.693 118.726C356.568 119.01 356.36 119.251 356.098 119.417C355.835 119.583 355.529 119.668 355.218 119.66C355.012 119.656 354.809 119.612 354.621 119.529C354.432 119.446 354.262 119.327 354.12 119.178C353.978 119.03 353.866 118.854 353.792 118.662C353.718 118.47 353.683 118.266 353.688 118.06Z" fill="black"/>
</g>
<g opacity="0.4">
<path d="M351.598 122.86C351.673 122.86 351.748 122.875 351.817 122.904C351.886 122.934 351.949 122.977 352.001 123.031C352.053 123.085 352.094 123.149 352.121 123.219C352.148 123.29 352.161 123.365 352.158 123.44C352.153 123.593 352.088 123.738 351.978 123.844C351.868 123.95 351.721 124.01 351.568 124.01C351.416 124.005 351.272 123.94 351.167 123.829C351.062 123.719 351.005 123.572 351.008 123.42C351.009 123.344 351.026 123.269 351.056 123.2C351.086 123.131 351.13 123.068 351.185 123.016C351.24 122.964 351.305 122.923 351.376 122.896C351.447 122.87 351.522 122.857 351.598 122.86Z" fill="black"/>
</g>
</svg>
