<svg xmlns="http://www.w3.org/2000/svg" width="132.156" height="135.644" viewBox="0 0 132.156 135.644"><defs><style>.a{fill:#05b384;}</style></defs><g transform="translate(-6.583 0)"><path class="a" d="M107.765,345.75,88.259,355.769a9.288,9.288,0,0,0-6.609-2.758H68.208a4.418,4.418,0,0,1-.882-.052c-.122-.083-.426-.368-.672-.6l-.128-.121c-10.941-10.3-20.185-9.649-30.7-5.5a6.945,6.945,0,0,1-3.307.725l-2.961,0a6.745,6.745,0,0,0-6.351-4.5h-9.89a6.745,6.745,0,0,0-6.734,6.742v25.937a6.742,6.742,0,0,0,6.734,6.734h9.89a6.745,6.745,0,0,0,6.351-4.5H35a7.7,7.7,0,0,1,1.8.376l25.574,6.839c1.12.3,2.148.6,3.142.891,3.3.96,6.079,1.766,8.974,1.766,3.27,0,6.692-1.03,11.193-4.032l.067-.046,31.533-22.454a9.082,9.082,0,0,0-9.515-15.469ZM24.642,375.643a1.455,1.455,0,0,1-1.436,1.436h-9.89a1.455,1.455,0,0,1-1.436-1.436V349.706a1.459,1.459,0,0,1,1.436-1.443h9.89a1.459,1.459,0,0,1,1.436,1.443ZM114.2,356.9l-31.5,22.429c-6.411,4.267-9.139,3.474-15.715,1.563-1.017-.3-2.068-.6-3.243-.92l-25.581-6.84A12.689,12.689,0,0,0,35,372.581H29.94V352.768l2.819-.012a11.784,11.784,0,0,0,5.011-1.089c9.113-3.6,16.146-4.025,25.125,4.43l.127.119a6.182,6.182,0,0,0,5.186,2.093H81.65a4.015,4.015,0,1,1,0,8.031H59.858a2.649,2.649,0,0,0,0,5.3H81.65a9.313,9.313,0,0,0,9.123-11.2l19.416-9.973c1.77-.912,4.191-.819,5.392,1.124A4,4,0,0,1,114.2,356.9Z" transform="translate(0 -252.107)"/><path class="a" d="M197.661,62.661a8.6,8.6,0,0,0,.918,15.854V82.46a8.768,8.768,0,0,0,8.754,8.762h11.737a8.772,8.772,0,0,0,8.762-8.762V78.515a8.6,8.6,0,0,0,.918-15.854c1.16-4.31,3.512-7.519,5.985-10.885,3.8-5.178,8.117-11.047,8.108-21.385,0-.923-.038-1.87-.113-2.816a2.649,2.649,0,1,0-5.282.42c.064.806.1,1.612.1,2.4.008,8.6-3.435,13.285-7.079,18.245C227.7,52.4,224.852,56.282,223.5,61.8H202.912c-1.356-5.514-4.2-9.393-6.969-13.157-3.646-4.96-7.089-9.645-7.078-18.246.012-9.171,3.941-14.962,7.235-18.206A24,24,0,0,1,213.167,5.3h.076a23.993,23.993,0,0,1,14.524,4.715,2.649,2.649,0,1,0,3.15-4.26,30.051,30.051,0,0,0-38.533,2.659c-5.756,5.668-8.8,13.267-8.816,21.974-.014,10.342,4.3,16.212,8.107,21.39,2.474,3.365,4.826,6.574,5.986,10.883Zm24.872,19.8a3.467,3.467,0,0,1-3.463,3.464H207.333a3.463,3.463,0,0,1-3.456-3.464V79h18.655ZM201.416,67.095h23.578a3.3,3.3,0,1,1,0,6.6H201.416a3.3,3.3,0,1,1,0-6.6Z" transform="translate(-130.099 0)"/><path class="a" d="M290.738,65.7a2.649,2.649,0,0,0-5.3,0v16.43a2.649,2.649,0,0,0,5.3,0Z" transform="translate(-204.983 -46.348)"/><path class="a" d="M288.089,170.311a2.649,2.649,0,0,0-2.649,2.649v.015a2.649,2.649,0,1,0,2.649-2.664Z" transform="translate(-204.983 -125.193)"/><path class="a" d="M458.235,114.64h-10.76a2.649,2.649,0,1,0,0,5.3h10.76a2.649,2.649,0,0,0,0-5.3Z" transform="translate(-322.144 -84.27)"/><path class="a" d="M430.666,18.9a2.636,2.636,0,0,0,1.474-.45l8.928-5.992a2.649,2.649,0,0,0-2.953-4.4l-8.928,5.992a2.649,2.649,0,0,0,1.479,4.849Z" transform="translate(-309.787 -5.59)"/><path class="a" d="M441.069,205.5l-8.928-5.992a2.649,2.649,0,1,0-2.953,4.4l8.928,5.992a2.649,2.649,0,0,0,2.953-4.4Z" transform="translate(-309.788 -146.321)"/><path class="a" d="M88.087,119.938H98.84a2.649,2.649,0,0,0,0-5.3H88.087a2.649,2.649,0,0,0,0,5.3Z" transform="translate(-57.965 -84.27)"/><path class="a" d="M110.335,12.455l8.928,5.992a2.649,2.649,0,0,0,2.953-4.4l-8.928-5.992a2.649,2.649,0,0,0-2.953,4.4Z" transform="translate(-75.404 -5.591)"/><path class="a" d="M119.264,199.5l-8.928,5.992a2.649,2.649,0,1,0,2.953,4.4l8.928-5.992a2.649,2.649,0,1,0-2.953-4.4Z" transform="translate(-75.405 -146.321)"/><path class="a" d="M375.284,56.667a2.6,2.6,0,1,0-.008-.007Z" transform="translate(-270.45 -38.325)"/></g></svg>