<svg xmlns="http://www.w3.org/2000/svg" width="139.813" height="93.67" viewBox="0 0 139.813 93.67"><defs><style>.a{fill:#05b384;}</style></defs><g transform="translate(0 -84.489)"><g transform="translate(21.337 97.575)"><g transform="translate(0 0)"><path class="a" d="M172.266,132.411H81.144a3.009,3.009,0,0,0-3.009,3.009v45.446a3.009,3.009,0,0,0,6.018,0V138.429h85.1v42.437h0a3.009,3.009,0,0,0,6.018,0V135.42A3.009,3.009,0,0,0,172.266,132.411Z" transform="translate(-78.135 -132.411)"/></g></g><g transform="translate(0 84.489)"><g transform="translate(0 0)"><path class="a" d="M137.105,156.775h-5.542V93.585a9.106,9.106,0,0,0-9.1-9.1H17.346a9.106,9.106,0,0,0-9.1,9.1v63.191H2.708A2.708,2.708,0,0,0,0,159.483V164.8a13.375,13.375,0,0,0,13.36,13.36H126.453a13.375,13.375,0,0,0,13.36-13.36v-5.316A2.707,2.707,0,0,0,137.105,156.775ZM14.268,93.585a3.082,3.082,0,0,1,3.078-3.078H122.467a3.081,3.081,0,0,1,3.078,3.078v63.191H84.8a2.649,2.649,0,0,0-.587.048,2.708,2.708,0,0,0-2.2,2.659,4.15,4.15,0,0,1-4.145,4.145H61.938a4.15,4.15,0,0,1-4.145-4.145,2.716,2.716,0,0,0-2.771-2.708H14.268ZM134.4,164.8h0a7.953,7.953,0,0,1-7.944,7.944H13.36A7.953,7.953,0,0,1,5.416,164.8v-2.608H52.768a9.578,9.578,0,0,0,9.17,6.852H77.875a9.579,9.579,0,0,0,9.171-6.852H134.4V164.8Z" transform="translate(0 -84.489)"/></g></g><g transform="translate(50.306 114.184)"><path class="a" d="M208.283,194.113a3.009,3.009,0,0,0-4.256,0L185.1,213.037a3.009,3.009,0,1,0,4.255,4.255l18.924-18.924A3.009,3.009,0,0,0,208.283,194.113Z" transform="translate(-184.223 -193.232)"/></g><g transform="translate(72.908 125.15)"><g transform="translate(0 0)"><path class="a" d="M279.664,234.273a3.009,3.009,0,0,0-4.255,0l-7.538,7.538a3.009,3.009,0,1,0,4.255,4.256l7.538-7.538A3.009,3.009,0,0,0,279.664,234.273Z" transform="translate(-266.989 -233.392)"/></g></g></g></svg>