<svg xmlns="http://www.w3.org/2000/svg" width="102.312" height="89.98" viewBox="0 0 102.312 89.98"><defs><style>.a{fill:#05b384;}</style></defs><g transform="translate(0 -30.855)"><g transform="translate(0 30.855)"><path class="a" d="M89.866,72.616a2.734,2.734,0,0,0-5.453.393c.067.93.1,1.885.1,2.836A39.523,39.523,0,1,1,44.991,36.322a39.156,39.156,0,0,1,23.7,7.9,2.734,2.734,0,0,0,3.285-4.371A44.584,44.584,0,0,0,44.99,30.855a44.99,44.99,0,1,0,44.99,44.99C89.981,74.763,89.942,73.677,89.866,72.616Z" transform="translate(0 -30.855)"/></g><g transform="translate(12.561 33.914)"><g transform="translate(0 0)"><path class="a" d="M149.49,49.283a10.677,10.677,0,0,0-15.082,0L95.02,88.671,81.057,74.708A10.664,10.664,0,0,0,65.975,89.79l24.047,24.047a7.075,7.075,0,0,0,9.994,0L149.49,64.364A10.677,10.677,0,0,0,149.49,49.283ZM145.624,60.5,96.151,109.972a1.6,1.6,0,0,1-2.262,0L69.842,85.924a5.2,5.2,0,0,1,7.35-7.35L91.555,92.938a4.9,4.9,0,0,0,6.93,0l39.789-39.789a5.2,5.2,0,0,1,7.35,7.35Z" transform="translate(-62.857 -46.165)"/></g></g></g></svg>