<svg xmlns="http://www.w3.org/2000/svg" width="139" height="136.931" viewBox="0 0 139 136.931"><defs><style>.a{fill:#05b384;}</style></defs><g transform="translate(0 -3.81)"><g transform="translate(8.029 3.81)"><g transform="translate(0 0)"><path class="a" d="M149.743,57.537a9.166,9.166,0,0,0-5.08-15.635l-30.414-4.419a1.832,1.832,0,0,1-1.38-1L99.266,8.92a9.166,9.166,0,0,0-16.44,0l-13.6,27.56a1.834,1.834,0,0,1-1.38,1L37.43,41.9a9.166,9.166,0,0,0-5.08,15.635L54.358,78.99a1.834,1.834,0,0,1,.527,1.623l-5.2,30.291a9.167,9.167,0,0,0,13.3,9.664l27.2-14.3a1.833,1.833,0,0,1,1.707,0l27.2,14.3a9.167,9.167,0,0,0,13.3-9.664l-5.2-30.291a1.835,1.835,0,0,1,.527-1.623ZM119.98,81.852l5.2,30.292a1.833,1.833,0,0,1-2.66,1.932l-27.2-14.3a9.166,9.166,0,0,0-8.531,0l-27.2,14.3a1.833,1.833,0,0,1-2.66-1.932l5.2-30.291a9.164,9.164,0,0,0-2.636-8.114L37.469,52.287a1.834,1.834,0,0,1,1.016-3.127L68.9,44.74a9.165,9.165,0,0,0,6.9-5.015l13.6-27.56a1.833,1.833,0,0,1,3.288,0h0l13.6,27.56a9.164,9.164,0,0,0,6.9,5.015l30.414,4.419a1.833,1.833,0,0,1,1.016,3.127L122.616,73.739A9.164,9.164,0,0,0,119.98,81.852Z" transform="translate(-29.574 -3.81)"/></g></g><g transform="translate(102.621 8.218)"><path class="a" d="M387.715,20.745a3.667,3.667,0,0,0-5.122.811L378.7,26.914a3.667,3.667,0,0,0,5.933,4.311l3.892-5.357A3.667,3.667,0,0,0,387.715,20.745Z" transform="translate(-378.001 -20.045)"/></g><g transform="translate(25.137 8.196)"><g transform="translate(0 0)"><path class="a" d="M103.115,26.835l-3.892-5.357a3.667,3.667,0,0,0-5.933,4.31l3.892,5.357a3.667,3.667,0,1,0,5.933-4.31Z" transform="translate(-92.59 -19.966)"/></g></g><g transform="translate(0 83.54)"><path class="a" d="M13.453,300.028a3.667,3.667,0,0,0-4.62-2.354l-6.3,2.046A3.667,3.667,0,1,0,4.8,306.695l6.3-2.046A3.667,3.667,0,0,0,13.453,300.028Z" transform="translate(0 -297.493)"/></g><g transform="translate(65.835 126.786)"><path class="a" d="M246.166,456.786a3.667,3.667,0,0,0-3.667,3.667v6.622a3.667,3.667,0,0,0,7.333,0v-6.622A3.666,3.666,0,0,0,246.166,456.786Z" transform="translate(-242.499 -456.786)"/></g><g transform="translate(125.367 83.546)"><path class="a" d="M472.882,299.74l-6.3-2.046a3.667,3.667,0,0,0-2.266,6.975l6.3,2.046a3.667,3.667,0,0,0,2.266-6.975Z" transform="translate(-461.783 -297.513)"/></g></g></svg>