<svg xmlns="http://www.w3.org/2000/svg" width="117.045" height="103.36" viewBox="0 0 117.045 103.36"><defs><style>.a{fill:#05b384;}</style></defs><path class="a" d="M102.76,54.557V35.724a5.79,5.79,0,0,0-8.627-5.043A134.7,134.7,0,0,1,37.941,47.552c-.152.011-18.145.09-18.145.09a8.846,8.846,0,0,0-8.771,7.793H7.332A7.341,7.341,0,0,0,0,62.768V78.877A7.341,7.341,0,0,0,7.332,86.21h3.693a8.854,8.854,0,0,0,5.209,7.041l13.141,36.267a5.753,5.753,0,0,0,5.39,3.774H47.953a5.735,5.735,0,0,0,5.391-7.694L42.053,94.454a134.513,134.513,0,0,1,52.08,16.5A5.753,5.753,0,0,0,99.9,110.9a5.728,5.728,0,0,0,2.855-4.987V87.079a16.4,16.4,0,0,0,0-32.522Zm-91.8,26H7.332a1.679,1.679,0,0,1-1.677-1.678V62.768a1.679,1.679,0,0,1,1.677-1.677h3.629ZM18.5,88.069a3.182,3.182,0,0,1-1.884-2.9V56.476h0A3.183,3.183,0,0,1,19.8,53.3H35.188v35.05s-15.527-.006-15.594-.01A2.965,2.965,0,0,1,18.5,88.069Zm29.527,39.459a.063.063,0,0,1-.009.074.065.065,0,0,1-.066.035H34.765a.081.081,0,0,1-.075-.049L22.521,94H35.874ZM97.1,105.911a.1.1,0,0,1-.061.109.131.131,0,0,1-.151,0A140.18,140.18,0,0,0,40.843,88.655V52.984A140.219,140.219,0,0,0,96.892,35.617a.132.132,0,0,1,.152,0,.1.1,0,0,1,.061.109Zm5.655-24.557V60.281a10.748,10.748,0,0,1,0,21.074Z" transform="translate(0 -29.933)"/></svg>