<svg width="25" height="24" viewBox="0 0 25 24" fill="none" xmlns="http://www.w3.org/2000/svg">
<path d="M22.8678 0H1.53451C1.18088 0 0.841745 0.140476 0.591696 0.390524C0.341648 0.640573 0.201172 0.979711 0.201172 1.33333V22.6667C0.201172 23.0203 0.341648 23.3594 0.591696 23.6095C0.841745 23.8595 1.18088 24 1.53451 24H22.8678C23.2215 24 23.5606 23.8595 23.8106 23.6095C24.0607 23.3594 24.2012 23.0203 24.2012 22.6667V1.33333C24.2012 0.979711 24.0607 0.640573 23.8106 0.390524C23.5606 0.140476 23.2215 0 22.8678 0ZM7.31984 20.4493H3.75717V8.996H7.31984V20.4493ZM5.53851 7.432C4.9911 7.432 4.46611 7.21454 4.07904 6.82747C3.69196 6.44039 3.47451 5.91541 3.47451 5.368C3.47451 4.82059 3.69196 4.29561 4.07904 3.90853C4.46611 3.52146 4.9911 3.304 5.53851 3.304C6.08591 3.304 6.6109 3.52146 6.99797 3.90853C7.38505 4.29561 7.6025 4.82059 7.6025 5.368C7.6025 5.91541 7.38505 6.44039 6.99797 6.82747C6.6109 7.21454 6.08591 7.432 5.53851 7.432ZM20.6518 20.4493H17.0932V14.88C17.0932 13.552 17.0692 11.844 15.2425 11.844C13.3892 11.844 13.1078 13.292 13.1078 14.7867V20.4507H9.55184V8.99733H12.9652V10.5627H13.0145C13.4878 9.66267 14.6505 8.71333 16.3798 8.71333C19.9852 8.71333 20.6505 11.084 20.6505 14.1693V20.4493H20.6518Z" fill="black"/>
</svg>
