<svg width="24" height="24" viewBox="0 0 24 24" fill="none" xmlns="http://www.w3.org/2000/svg">
<path d="M12.003 0H11.997C5.38052 0 1.57454e-05 5.382 1.57454e-05 12C-0.0040929 14.5275 0.795989 16.9908 2.28452 19.0335L0.789016 23.4915L5.40152 22.017C7.35807 23.3151 9.65503 24.005 12.003 24C18.6195 24 24 18.6165 24 12C24 5.3835 18.6195 0 12.003 0ZM18.9855 16.9455C18.696 17.763 17.547 18.441 16.6305 18.639C16.0035 18.7725 15.1845 18.879 12.4275 17.736C8.90102 16.275 6.63002 12.6915 6.45302 12.459C6.28352 12.2265 5.02802 10.5615 5.02802 8.8395C5.02802 7.1175 5.90252 6.279 6.25502 5.919C6.54452 5.6235 7.02302 5.4885 7.48202 5.4885C7.63052 5.4885 7.76402 5.496 7.88402 5.502C8.23652 5.517 8.41352 5.538 8.64602 6.0945C8.93552 6.792 9.64052 8.514 9.72452 8.691C9.81002 8.868 9.89552 9.108 9.77552 9.3405C9.66302 9.5805 9.56402 9.687 9.38702 9.891C9.21002 10.095 9.04202 10.251 8.86502 10.47C8.70302 10.6605 8.52002 10.8645 8.72402 11.217C8.92802 11.562 9.63302 12.7125 10.671 13.6365C12.0105 14.829 13.0965 15.21 13.485 15.372C13.7745 15.492 14.1195 15.4635 14.331 15.2385C14.5995 14.949 14.931 14.469 15.2685 13.9965C15.5085 13.6575 15.8115 13.6155 16.1295 13.7355C16.4535 13.848 18.168 14.6955 18.5205 14.871C18.873 15.048 19.1055 15.132 19.191 15.2805C19.275 15.429 19.275 16.1265 18.9855 16.9455Z" fill="black"/>
</svg>
