<svg width="407" height="407" viewBox="0 0 407 407" fill="none" xmlns="http://www.w3.org/2000/svg">
<path d="M377.248 63.6387H243.891V303.199H377.248V63.6387Z" fill="#EBEBEB"/>
<path d="M370.549 70.582H249.223V296.06H370.549V70.582Z" fill="#FAFAFA"/>
<path d="M382.889 305.356L377.248 303.199V59.5684H382.889V305.356Z" fill="#E0E0E0"/>
<path d="M278.957 216.214L310.467 186.91C314.464 183.198 319.681 179.201 324.818 181.033C327.26 181.912 329.14 184.02 331.566 185.03C336.401 187.04 341.928 184.134 345.648 180.439C349.368 176.743 352.298 172.136 356.808 169.458C361.318 166.78 368.318 167.122 370.54 171.9V203.768L324.785 223.377L278.957 216.214Z" fill="#F5F5F5"/>
<path d="M249.223 197.908C260.83 193.178 272.414 197.2 280.724 206.585C282.475 208.563 284.07 210.842 286.471 211.933C289.727 213.414 293.488 212.307 297.053 211.933C301.931 211.451 306.848 212.329 311.258 214.468C315.668 216.607 319.401 219.924 322.043 224.053L283.272 243.077L249.231 242.832L249.223 197.908Z" fill="#E0E0E0"/>
<path d="M370.541 198.071C362.897 194.375 356.166 198.844 349.108 203.573C342.051 208.303 335.498 214.359 327.228 216.264C321.701 217.534 315.775 216.834 310.427 218.706C299.536 222.58 293.243 236.41 281.701 237.07C275.433 237.428 269.808 233.626 264.216 230.777C258.624 227.928 254.212 225.226 249.23 229.035V296.028H370.516L370.541 198.071Z" fill="#EBEBEB"/>
<path d="M373.179 135.449H249.223V137.851H373.179V135.449Z" fill="#E0E0E0"/>
<path d="M373.179 189.141H249.223V191.542H373.179V189.141Z" fill="#E0E0E0"/>
<path d="M373.179 242.841H249.223V245.242H373.179V242.841Z" fill="#E0E0E0"/>
<path d="M306.812 136.646V302.458H312.942V136.646H306.812Z" fill="#E0E0E0"/>
<path d="M275.36 70.582H272.584V136.646H275.36V70.582Z" fill="#E0E0E0"/>
<path d="M299.307 70.582H296.531V136.646H299.307V70.582Z" fill="#E0E0E0"/>
<path d="M323.254 70.582H320.479V136.646H323.254V70.582Z" fill="#E0E0E0"/>
<path d="M347.203 70.582H344.428V136.646H347.203V70.582Z" fill="#E0E0E0"/>
<path d="M243.889 59.5684H238.248V304.68H243.889V59.5684Z" fill="#E0E0E0"/>
<path d="M382.888 57.1016H238.248V63.638H382.888V57.1016Z" fill="#E0E0E0"/>
<path d="M386.698 306.161H234.244V312.25H386.698V306.161Z" fill="#E0E0E0"/>
<path d="M377.248 303.198L386.706 306.161H234.244L243.89 303.198H377.248Z" fill="#EBEBEB"/>
<path d="M72.657 83.6709C72.5129 83.0601 72.4419 82.4344 72.4453 81.8068C72.4193 81.0553 72.3349 80.3069 72.193 79.5683C72.0789 78.5548 71.8912 77.5509 71.6313 76.5647C70.9792 73.8435 69.9257 71.2346 68.5056 68.8235C65.1887 63.04 59.9655 58.5886 53.7292 56.2307C47.4929 53.8728 40.6312 53.7549 34.3176 55.8972C31.6981 56.7552 29.227 58.0127 26.9916 59.6253C25.8467 60.4431 24.7589 61.3378 23.7356 62.3034C22.7075 63.3246 21.7476 64.4123 20.8622 65.5594C17.1548 70.3606 15.0767 76.2198 14.9303 82.284C14.7839 88.3481 16.5769 94.3008 20.0482 99.2753C20.8753 100.461 21.7809 101.589 22.7588 102.653C23.7263 103.669 24.7566 104.624 25.8438 105.511C27.995 107.225 30.3973 108.598 32.9663 109.581C39.179 112.004 46.0384 112.204 52.382 110.148C58.7256 108.092 64.1631 103.905 67.773 98.2985C69.3043 95.9584 70.4811 93.4046 71.265 90.7201C71.5796 89.7485 71.8244 88.7556 71.9976 87.749C72.1716 87.0181 72.2914 86.2754 72.3558 85.5268C72.3878 84.899 72.4888 84.2766 72.657 83.6709C72.7313 84.2955 72.7313 84.9267 72.657 85.5512C72.6511 86.3156 72.5803 87.0781 72.4453 87.8304C72.3303 88.8531 72.1371 89.8654 71.8674 90.8585C71.1757 93.6466 70.0494 96.3084 68.53 98.7462C66.3153 102.359 63.3538 105.456 59.844 107.83C56.3341 110.204 52.3572 111.8 48.18 112.511C42.8813 113.388 37.4443 112.826 32.4372 110.883C29.727 109.861 27.1902 108.428 24.9159 106.634C23.7335 105.719 22.6132 104.726 21.5622 103.663C20.5277 102.541 19.5679 101.353 18.6888 100.106C15.0107 94.873 13.1081 88.5987 13.2604 82.2046C13.4128 75.8106 15.6122 69.634 19.5353 64.5826C20.4693 63.3785 21.4837 62.239 22.5716 61.1719C23.6661 60.1592 24.8273 59.221 26.0473 58.3636C28.4079 56.6828 31.0135 55.3759 33.7722 54.489C38.8712 52.8095 44.3274 52.5284 49.5719 53.675C53.7145 54.58 57.6155 56.3608 61.0131 58.8977C64.4107 61.4347 67.2263 64.6692 69.2707 68.384C70.6679 70.894 71.6622 73.6078 72.2174 76.4263C72.4475 77.4443 72.5999 78.4784 72.6733 79.5195C72.7695 80.2752 72.8022 81.0376 72.7709 81.7987C72.8046 82.4251 72.7664 83.0532 72.657 83.6709Z" fill="#EBEBEB"/>
<path d="M66.7954 65.3555C66.8524 65.4451 66.3233 65.9091 65.3058 66.6661L63.4173 68.0173C63.0428 68.2778 62.6521 68.5627 62.2207 68.8313L60.7718 69.5883C55.5312 72.5799 49.5718 74.0803 43.5394 73.927L40.9346 73.813L38.4275 73.4141C38.0205 73.349 37.6135 73.292 37.2065 73.2106L36.0425 72.9502C35.2285 72.7385 34.5121 72.5594 33.7877 72.3234C31.2319 71.466 28.7758 70.3362 26.4617 68.9534C22.5301 66.5765 20.6172 64.4194 20.7637 64.2811C20.9102 64.1427 23.0592 65.9091 27.0152 67.9603C29.3239 69.1553 31.7348 70.1415 34.2191 70.907C34.9191 71.1105 35.6517 71.2652 36.3925 71.4524L37.5158 71.7373L38.6798 71.9082L41.073 72.2664L43.5557 72.3641C49.3405 72.4692 55.0642 71.1674 60.2345 68.5708L61.6916 67.9441C62.1393 67.708 62.5056 67.4557 62.9289 67.244L64.9313 66.1451C66.0791 65.5509 66.7465 65.266 66.7954 65.3555Z" fill="#EBEBEB"/>
<path d="M19.894 101.001C19.8289 100.912 20.358 100.456 21.3755 99.6905L23.264 98.3393C23.6384 98.087 24.0292 97.7939 24.4606 97.5253L25.9095 96.7764C31.1482 93.7793 37.1084 92.2759 43.1419 92.4297L45.7548 92.5436L48.2538 92.9343C48.6608 92.9995 49.0678 93.0564 49.4748 93.1378L50.6388 93.4472C51.4121 93.6588 52.1691 93.846 52.8936 94.0739C55.45 94.9297 57.9063 96.0596 60.2196 97.4439C64.1512 99.8208 66.0641 101.978 65.9176 102.116C65.7711 102.255 63.6221 100.488 59.6661 98.437C57.3581 97.2467 54.9503 96.2607 52.4703 95.4903C51.7621 95.2868 51.0295 95.1321 50.2888 94.9449L49.1655 94.6682L48.0259 94.4891L45.5839 94.1146L43.1419 94.0088C37.355 93.8885 31.6255 95.1763 26.4467 97.7614L24.9897 98.3963C24.542 98.6242 24.1757 98.8765 23.7524 99.0882L21.7174 100.22C20.6104 100.806 19.9592 101.091 19.894 101.001Z" fill="#EBEBEB"/>
<path d="M72.6412 84.3462C72.6412 84.7939 59.4951 84.8346 43.3372 84.4439C27.1793 84.0532 14.0332 83.3694 14.0332 82.9217C14.0332 82.474 27.1793 82.4333 43.3372 82.8322C59.4951 83.231 72.6493 83.9067 72.6412 84.3462Z" fill="#EBEBEB"/>
<path d="M41.9774 112.243C41.5297 112.243 41.489 99.1048 41.8878 82.9388C42.2867 66.7727 42.9542 53.6348 43.4019 53.6348C43.8496 53.6348 43.8903 66.7727 43.4996 82.9388C43.1088 99.1048 42.4251 112.259 41.9774 112.243Z" fill="#EBEBEB"/>
<path d="M41.977 112.202C41.8711 112.372 38.6396 110.183 34.9114 105.226C32.7384 102.319 30.9746 99.1284 29.6693 95.7425C28.092 91.5453 27.3242 87.0874 27.4064 82.6045C27.5106 78.1093 28.5154 73.6806 30.3612 69.5805C31.8425 66.2669 33.7587 63.1654 36.0592 60.3579C40.0071 55.5878 43.2631 53.4714 43.3852 53.6424C43.5073 53.8133 40.5932 56.2309 36.9709 61.0579C34.8709 63.8713 33.1164 66.9267 31.745 70.1584C30.0592 74.0973 29.1393 78.3213 29.0344 82.6045C28.9518 86.8915 29.6468 91.1579 31.0856 95.1971C32.2673 98.5042 33.856 101.651 35.815 104.566C39.2338 109.58 42.1398 112.022 41.977 112.202Z" fill="#EBEBEB"/>
<path d="M44.0613 53.6509C44.1672 53.4799 47.3987 55.6696 51.1269 60.6268C53.3008 63.5444 55.0646 66.746 56.369 70.1425C57.9379 74.3412 58.6975 78.7991 58.6075 83.2805C58.5033 87.7757 57.4985 92.2044 55.6527 96.3045C54.1714 99.6181 52.2552 102.72 49.9547 105.527C46.0068 110.297 42.7508 112.414 42.6287 112.243C42.5066 112.072 45.4207 109.662 49.043 104.827C51.1549 102.013 52.9204 98.9545 54.3015 95.7184C55.9872 91.7795 56.9072 87.5555 57.0121 83.2723C57.0946 78.9854 56.3996 74.7189 54.9608 70.6797C53.7663 67.3706 52.164 64.2233 50.1908 61.3106C46.8045 56.2882 43.8985 53.8299 44.0613 53.6509Z" fill="#EBEBEB"/>
<path d="M389.768 406.479C389.768 406.593 306.365 406.691 203.508 406.691C100.651 406.691 17.2324 406.593 17.2324 406.479C17.2324 406.365 100.619 406.268 203.508 406.268C306.398 406.268 389.768 406.357 389.768 406.479Z" fill="#263238"/>
<path d="M41.7832 366.08L47.6196 406.707H68.8406L74.1804 366.08H41.7832Z" fill="#455A64"/>
<path d="M39.4473 366.08C39.5531 363.353 40.1799 360.911 42.2637 359.308H74.1806C75.9307 360.634 76.4598 363.199 76.6959 366.08H39.4473Z" fill="#455A64"/>
<path d="M44.3145 359.308L47.0088 355.344H69.1252L71.4776 359.308H44.3145Z" fill="#455A64"/>
<path d="M74.0738 359.17C74.0738 359.284 67.22 359.381 58.7625 359.381C50.3051 359.381 43.4512 359.284 43.4512 359.17C43.4512 359.056 50.3051 358.958 58.7625 358.958C67.22 358.958 74.0738 359.056 74.0738 359.17Z" fill="#263238"/>
<path d="M76.6962 366.081C76.6962 366.195 68.4341 366.292 58.2428 366.292C48.0515 366.292 39.7812 366.195 39.7812 366.081C39.7812 365.967 48.0434 365.869 58.2428 365.869C68.4422 365.869 76.6962 365.991 76.6962 366.081Z" fill="#263238"/>
<path d="M43.1016 375.254H72.9754L71.2253 388.563H45.0145L43.1016 375.254Z" fill="#263238"/>
<path d="M56.9152 311.941C57.0688 311.961 57.2175 312.008 57.3548 312.08C57.7484 312.288 58.082 312.593 58.3235 312.967C58.6982 313.565 58.8984 314.256 58.9014 314.961C58.8703 315.895 58.5892 316.803 58.0874 317.591C57.5056 318.524 56.8668 319.422 56.1745 320.277C55.3927 321.229 54.8635 322.363 54.6361 323.573C54.551 324.927 54.9587 326.266 55.7838 327.342C56.5978 328.523 57.599 329.613 58.527 330.851C58.9971 331.466 59.401 332.129 59.7317 332.829C60.0455 333.531 60.2171 334.29 60.2364 335.059C60.17 336.504 59.6326 337.888 58.7061 338.999C57.8921 340.073 56.9641 340.944 56.1745 341.815C55.4239 342.591 54.7979 343.478 54.3186 344.444C53.9361 345.244 53.7947 346.138 53.9116 347.017C53.9836 347.681 54.2277 348.315 54.6198 348.856C54.9721 349.308 55.4346 349.661 55.9629 349.882C55.9629 349.882 55.9629 349.882 55.8489 349.882C55.7356 349.864 55.6257 349.828 55.5233 349.776C55.1158 349.596 54.7603 349.316 54.4895 348.962C54.0572 348.406 53.7767 347.747 53.6755 347.049C53.5259 346.126 53.6563 345.179 54.05 344.33C54.5247 343.314 55.1626 342.382 55.9385 341.571C56.7525 340.676 57.6397 339.805 58.3805 338.755C59.259 337.716 59.7735 336.418 59.8456 335.059C59.8219 334.35 59.6587 333.653 59.3654 333.008C59.0455 332.336 58.6554 331.7 58.2014 331.111C57.2978 329.898 56.2722 328.799 55.4501 327.578C54.5726 326.411 54.1527 324.964 54.2697 323.508C54.5042 322.236 55.0652 321.047 55.8977 320.057C56.5867 319.215 57.2306 318.338 57.8269 317.428C58.3108 316.686 58.5915 315.83 58.6409 314.945C58.6582 314.277 58.489 313.618 58.1525 313.04C57.8568 312.561 57.4265 312.178 56.9152 311.941Z" fill="#263238"/>
<path d="M62.271 311.941C62.4245 311.961 62.5733 312.008 62.7106 312.08C63.1042 312.288 63.4378 312.593 63.6793 312.967C64.054 313.565 64.2542 314.256 64.2572 314.961C64.2222 315.894 63.9414 316.801 63.4432 317.591C62.8614 318.524 62.2226 319.422 61.5303 320.277C60.7484 321.229 60.2193 322.363 59.9918 323.573C59.9118 324.925 60.3158 326.261 61.1314 327.342C61.9454 328.523 62.9548 329.613 63.8828 330.851C64.3643 331.464 64.779 332.127 65.12 332.829C65.4346 333.526 65.6089 334.278 65.6329 335.043C65.5665 336.488 65.029 337.872 64.1025 338.982C63.2885 340.057 62.3606 340.928 61.571 341.799C60.8204 342.574 60.1944 343.461 59.7151 344.428C59.3326 345.228 59.1912 346.122 59.3081 347C59.3801 347.665 59.6242 348.299 60.0163 348.84C60.3686 349.291 60.8311 349.645 61.3594 349.866C61.3594 349.866 61.3594 349.866 61.2454 349.866C61.1321 349.847 61.0222 349.812 60.9198 349.76C60.5123 349.58 60.1568 349.3 59.886 348.946C59.4537 348.389 59.1732 347.73 59.072 347.033C58.9224 346.11 59.0528 345.163 59.4465 344.314C59.9103 343.306 60.5343 342.38 61.2942 341.571C62.1082 340.676 62.9955 339.805 63.7362 338.755C64.6148 337.716 65.1293 336.418 65.2014 335.059C65.1737 334.351 65.0107 333.655 64.7212 333.008C64.3983 332.338 64.0083 331.702 63.5572 331.111C62.6536 329.898 61.628 328.799 60.8058 327.578C59.9283 326.411 59.5085 324.964 59.6255 323.508C59.8632 322.237 60.4238 321.049 61.2535 320.057C61.9475 319.217 62.5943 318.339 63.1909 317.428C63.6747 316.686 63.9554 315.83 64.0049 314.945C64.0221 314.277 63.853 313.618 63.5165 313.04C63.2185 312.559 62.7853 312.177 62.271 311.941Z" fill="#263238"/>
<path d="M216.191 96.4922H60.1797V302.06H216.191V96.4922Z" fill="white"/>
<path d="M216.192 302.059C216.192 300.374 216.119 218.331 216.005 96.4919L216.192 96.6873L60.238 96.7117L60.4496 96.4919C60.4496 173.008 60.4496 243.899 60.4496 302.059L60.2787 301.889L216.29 302.059L60.2787 302.239H60.0996V302.059C60.0996 243.899 60.0996 172.975 60.0996 96.4919V96.2803H60.238H216.233H216.428V96.4675C216.274 218.331 216.2 300.383 216.192 302.059Z" fill="#263238"/>
<path d="M216.191 111.51C216.191 111.583 181.262 111.64 138.193 111.64C95.1247 111.64 60.1797 111.583 60.1797 111.51C60.1797 111.437 95.1003 111.388 138.193 111.388C181.287 111.388 216.191 111.445 216.191 111.51Z" fill="#263238"/>
<path d="M168.386 104.485C168.386 104.559 156.469 104.616 141.776 104.616C127.083 104.616 115.158 104.559 115.158 104.485C115.158 104.412 127.075 104.363 141.776 104.363C156.477 104.363 168.386 104.42 168.386 104.485Z" fill="#455A64"/>
<path d="M67.9787 104.485C67.9787 104.827 67.8775 105.16 67.6879 105.444C67.4983 105.728 67.2287 105.949 66.9134 106.08C66.5981 106.21 66.2511 106.245 65.9164 106.178C65.5816 106.111 65.2741 105.947 65.0328 105.706C64.7914 105.464 64.6271 105.157 64.5605 104.822C64.4939 104.487 64.5281 104.14 64.6587 103.825C64.7893 103.51 65.0105 103.24 65.2943 103.051C65.5781 102.861 65.9117 102.76 66.253 102.76C66.4796 102.76 66.704 102.804 66.9134 102.891C67.1228 102.978 67.313 103.105 67.4733 103.265C67.6335 103.425 67.7606 103.616 67.8473 103.825C67.9341 104.034 67.9787 104.259 67.9787 104.485Z" fill="#E0E0E0"/>
<path d="M73.8225 104.485C73.8225 104.827 73.721 105.161 73.531 105.445C73.3411 105.729 73.0711 105.95 72.7553 106.081C72.4395 106.211 72.0921 106.245 71.7571 106.177C71.4221 106.11 71.1147 105.945 70.8736 105.703C70.6326 105.461 70.4689 105.152 70.4033 104.817C70.3376 104.482 70.3729 104.135 70.5048 103.819C70.6367 103.504 70.8591 103.235 71.144 103.047C71.4288 102.858 71.7633 102.758 72.1049 102.76C72.3312 102.76 72.5552 102.804 72.7641 102.891C72.973 102.978 73.1627 103.105 73.3223 103.266C73.4819 103.426 73.6082 103.616 73.6941 103.826C73.7799 104.035 73.8235 104.259 73.8225 104.485Z" fill="#E0E0E0"/>
<path d="M79.676 104.485C79.676 104.827 79.5748 105.16 79.3851 105.444C79.1955 105.728 78.926 105.949 78.6107 106.08C78.2954 106.21 77.9484 106.245 77.6136 106.178C77.2789 106.111 76.9714 105.947 76.7301 105.706C76.4887 105.464 76.3244 105.157 76.2578 104.822C76.1912 104.487 76.2254 104.14 76.356 103.825C76.4866 103.51 76.7078 103.24 76.9916 103.051C77.2753 102.861 77.609 102.76 77.9503 102.76C78.1769 102.76 78.4013 102.804 78.6107 102.891C78.8201 102.978 79.0103 103.105 79.1705 103.265C79.3308 103.425 79.4579 103.616 79.5446 103.825C79.6313 104.034 79.676 104.259 79.676 104.485Z" fill="#E0E0E0"/>
<path d="M119.53 132.52H115.956L115.273 134.148H113.449L116.884 126.447H118.643L122.102 134.164H120.23L119.53 132.52ZM118.968 131.16L117.747 128.214L116.526 131.16H118.968Z" fill="#455A64"/>
<path d="M127.8 134.163L126.319 132.023H124.691V134.163H122.916V126.463H126.253C128.305 126.463 129.599 127.529 129.599 129.263C129.623 129.785 129.483 130.301 129.198 130.739C128.913 131.177 128.498 131.515 128.012 131.705L129.737 134.147L127.8 134.163ZM126.131 127.92H124.674V130.598H126.131C127.214 130.598 127.759 130.093 127.759 129.263C127.759 128.433 127.206 127.92 126.123 127.92H126.131Z" fill="#455A64"/>
<path d="M132.456 127.92H130.014V126.463H136.721V127.92H134.279V134.163H132.496L132.456 127.92Z" fill="#455A64"/>
<path d="M137.656 126.463H139.439V134.163H137.656V126.463Z" fill="#455A64"/>
<path d="M140.822 130.314C140.875 129.488 141.168 128.695 141.666 128.034C142.164 127.373 142.845 126.873 143.625 126.595C144.404 126.317 145.248 126.273 146.052 126.47C146.856 126.667 147.585 127.095 148.148 127.701L147.009 128.751C146.773 128.467 146.476 128.24 146.141 128.085C145.806 127.93 145.441 127.852 145.071 127.856C144.424 127.856 143.803 128.113 143.345 128.571C142.887 129.029 142.629 129.65 142.629 130.298C142.629 130.945 142.887 131.567 143.345 132.025C143.803 132.482 144.424 132.74 145.071 132.74C145.442 132.745 145.81 132.666 146.145 132.508C146.481 132.35 146.776 132.117 147.009 131.828L148.148 132.886C147.585 133.493 146.856 133.921 146.052 134.118C145.248 134.314 144.404 134.271 143.625 133.993C142.845 133.715 142.164 133.214 141.666 132.553C141.168 131.892 140.875 131.099 140.822 130.273V130.314Z" fill="#455A64"/>
<path d="M149.322 126.463H151.105V132.714H154.971V134.163H149.322V126.463Z" fill="#455A64"/>
<path d="M161.929 132.739V134.163H155.963V126.463H161.783V127.896H157.713V129.524H161.286V130.915H157.713V132.698L161.929 132.739Z" fill="#455A64"/>
<path d="M109.638 131.005C109.638 131.07 101.384 131.127 91.2011 131.127C81.018 131.127 72.7559 131.07 72.7559 131.005C72.7559 130.94 81.0098 130.875 91.2011 130.875C101.392 130.875 109.638 130.932 109.638 131.005Z" fill="#263238"/>
<path d="M207.726 131.005C207.726 131.07 199.057 131.127 188.361 131.127C177.665 131.127 168.996 131.07 168.996 131.005C168.996 130.94 177.665 130.875 188.361 130.875C199.057 130.875 207.726 130.932 207.726 131.005Z" fill="#263238"/>
<path d="M200.734 255.531H163.322V291.73H200.734V255.531Z" fill="#455A64"/>
<g opacity="0.3">
<path d="M166.221 288.636L176.575 270.004L185.04 281.913L190.185 275.588L197.836 288.636H166.221Z" fill="black"/>
</g>
<g opacity="0.3">
<path d="M187.921 264.412C190.119 267.294 186.863 270.55 183.982 268.36C181.784 265.47 185.04 262.214 187.921 264.412Z" fill="black"/>
</g>
<g opacity="0.3">
<path d="M197.803 288.734C197.8 288.685 197.8 288.636 197.803 288.587C197.803 288.481 197.803 288.343 197.803 288.164C197.803 287.781 197.803 287.236 197.803 286.536C197.803 285.103 197.803 283.028 197.762 280.39C197.762 275.099 197.714 267.57 197.681 258.534L197.836 258.681H166.228C166.281 258.618 166.338 258.558 166.399 258.502V266.642C166.399 269.295 166.399 271.9 166.399 274.44C166.399 279.511 166.399 284.298 166.399 288.709L166.244 288.555L189.101 288.636L195.548 288.677H197.258H195.573L189.167 288.718L166.204 288.791H166.057V288.636C166.057 284.224 166.057 279.438 166.057 274.367V266.683C166.057 265.348 166.057 264.004 166.057 262.613V258.543C165.902 258.697 166.277 258.323 166.244 258.363H197.852H198.007V258.543C198.007 267.619 197.942 275.181 197.925 280.521C197.925 283.142 197.925 285.201 197.925 286.634C197.925 287.317 197.925 287.855 197.925 288.262C197.925 288.433 197.925 288.563 197.925 288.669C197.887 288.694 197.846 288.716 197.803 288.734Z" fill="black"/>
</g>
<path d="M108.996 144.714C108.996 144.836 100.815 144.925 90.7297 144.925C80.6442 144.925 72.4473 144.836 72.4473 144.714C72.4473 144.592 80.5873 144.502 90.7216 144.502C100.856 144.502 108.996 144.583 108.996 144.714Z" fill="#263238"/>
<path d="M137.185 153.488C137.185 153.602 122.687 153.7 104.82 153.7C86.9527 153.7 72.4473 153.602 72.4473 153.488C72.4473 153.374 86.9365 153.276 104.812 153.276C122.687 153.276 137.185 153.366 137.185 153.488Z" fill="#263238"/>
<path d="M159.309 152.845C159.309 152.959 155.385 153.057 150.542 153.057C145.699 153.057 141.775 152.959 141.775 152.845C141.775 152.731 145.699 152.634 150.542 152.634C155.385 152.634 159.309 152.723 159.309 152.845Z" fill="#263238"/>
<path d="M202.216 152.47C202.216 152.584 194.117 152.682 184.121 152.682C174.125 152.682 166.025 152.584 166.025 152.47C166.025 152.356 174.125 152.259 184.121 152.259C194.117 152.259 202.216 152.356 202.216 152.47Z" fill="#263238"/>
<path d="M201.872 159.935C201.872 160.049 172.804 160.147 136.956 160.147C101.107 160.147 72.0312 160.049 72.0312 159.935C72.0312 159.821 101.091 159.724 136.956 159.724C172.821 159.724 201.872 159.813 201.872 159.935Z" fill="#263238"/>
<path d="M132.446 167.765C132.446 167.887 118.991 167.977 102.41 167.977C85.8285 167.977 72.373 167.887 72.373 167.765C72.373 167.643 85.8203 167.554 102.41 167.554C118.999 167.554 132.446 167.651 132.446 167.765Z" fill="#263238"/>
<path d="M154.457 167.765C151.728 167.98 148.989 168.05 146.252 167.977C143.513 168.05 140.771 167.98 138.039 167.765C140.771 167.556 143.513 167.485 146.252 167.554C148.989 167.485 151.728 167.556 154.457 167.765Z" fill="#263238"/>
<path d="M201.874 167.025C201.874 167.139 192.44 167.237 180.799 167.237C169.159 167.237 159.717 167.139 159.717 167.025C159.717 166.911 169.151 166.813 180.799 166.813C192.448 166.813 201.874 166.903 201.874 167.025Z" fill="#263238"/>
<path d="M136.362 234.937C136.362 235.059 121.873 235.149 104.006 235.149C86.1383 235.149 71.6328 235.027 71.6328 234.937C71.6328 234.848 86.122 234.726 103.997 234.726C121.873 234.726 136.362 234.791 136.362 234.937Z" fill="#263238"/>
<path d="M158.487 234.269C158.487 234.383 154.563 234.481 149.72 234.481C144.877 234.481 140.953 234.383 140.953 234.269C140.953 234.155 144.877 234.058 149.72 234.058C154.563 234.058 158.487 234.123 158.487 234.269Z" fill="#263238"/>
<path d="M201.401 233.895C201.401 234.009 193.261 234.107 183.306 234.107C173.351 234.107 165.211 234.009 165.211 233.895C165.211 233.781 173.31 233.684 183.306 233.684C193.302 233.684 201.401 233.773 201.401 233.895Z" fill="#263238"/>
<path d="M201.06 241.359C201.06 241.473 171.992 241.571 136.143 241.571C100.295 241.571 71.2188 241.473 71.2188 241.359C71.2188 241.245 100.279 241.14 136.143 241.14C172.008 241.14 201.06 241.237 201.06 241.359Z" fill="#263238"/>
<path d="M131.624 249.19C131.624 249.312 118.177 249.402 101.587 249.402C84.9981 249.402 71.5508 249.312 71.5508 249.19C71.5508 249.068 84.9981 248.979 101.587 248.979C118.177 248.979 131.624 249.076 131.624 249.19Z" fill="#263238"/>
<path d="M153.643 249.19C150.911 249.405 148.169 249.475 145.43 249.402C142.693 249.475 139.954 249.405 137.225 249.19C139.954 248.98 142.693 248.91 145.43 248.979C148.169 248.91 150.911 248.981 153.643 249.19Z" fill="#263238"/>
<path d="M201.06 248.441C201.06 248.563 191.617 248.653 179.977 248.653C168.337 248.653 158.895 248.563 158.895 248.441C158.895 248.319 168.337 248.229 179.977 248.229C191.617 248.229 201.06 248.327 201.06 248.441Z" fill="#263238"/>
<path d="M154.457 257.786C154.457 257.908 136.11 257.997 113.481 257.997C90.8515 257.997 72.5039 257.908 72.5039 257.786C72.5039 257.664 90.8433 257.574 113.481 257.574C136.118 257.574 154.457 257.672 154.457 257.786Z" fill="#263238"/>
<path d="M153.644 266.382C153.644 266.504 135.329 266.593 112.749 266.593C90.1682 266.593 71.8613 266.504 71.8613 266.382C71.8613 266.259 90.16 266.17 112.749 266.17C135.337 266.17 153.644 266.268 153.644 266.382Z" fill="#263238"/>
<path d="M151.373 176.061H71.9102V226.797H151.373V176.061Z" fill="#349F6E"/>
<path d="M147.962 222.727C147.962 222.727 147.962 222.45 147.962 221.913C147.962 221.376 147.962 220.619 147.962 219.625C147.962 217.615 147.962 214.676 147.921 210.907C147.921 203.37 147.872 192.527 147.831 179.243L148.002 179.406L75.9877 179.455L76.1993 179.243C76.1993 194.644 76.1993 209.361 76.1993 222.702L76.004 222.507L127.791 222.605L142.662 222.654H146.635H147.66H148.019H147.685H146.675H142.752L127.921 222.702L76.004 222.8H75.8086V222.727C75.8086 209.353 75.8086 194.668 75.8086 179.267V179.056H76.0202L148.035 179.105H148.198V179.267C148.157 192.601 148.132 203.476 148.108 211.013C148.108 214.766 148.108 217.688 148.067 219.691C148.067 220.667 148.067 221.424 148.067 221.945C148.067 222.466 147.962 222.727 147.962 222.727Z" fill="#263238"/>
<g opacity="0.2">
<path d="M77.8926 222.76L98.7228 195.914L113.774 213.106L125.3 202.735L146.252 222.76H77.8926Z" fill="black"/>
</g>
<g opacity="0.2">
<path d="M118.438 192.723C118.438 193.642 118.166 194.541 117.655 195.305C117.144 196.07 116.419 196.665 115.569 197.017C114.72 197.369 113.785 197.461 112.884 197.282C111.982 197.102 111.154 196.66 110.504 196.01C109.854 195.36 109.411 194.532 109.232 193.63C109.053 192.728 109.145 191.794 109.496 190.944C109.848 190.095 110.444 189.369 111.208 188.859C111.973 188.348 112.871 188.075 113.791 188.075C114.401 188.075 115.005 188.195 115.569 188.429C116.133 188.663 116.646 189.005 117.077 189.437C117.509 189.868 117.851 190.381 118.085 190.944C118.318 191.508 118.438 192.113 118.438 192.723Z" fill="black"/>
</g>
<path d="M201.872 175.621C201.872 175.735 191.901 175.832 179.601 175.832C167.302 175.832 157.322 175.735 157.322 175.621C157.322 175.507 167.294 175.409 179.601 175.409C191.909 175.409 201.872 175.515 201.872 175.621Z" fill="#263238"/>
<path d="M201.872 183.516C201.872 183.63 191.901 183.728 179.601 183.728C167.302 183.728 157.322 183.63 157.322 183.516C157.322 183.402 167.294 183.305 179.601 183.305C191.909 183.305 201.872 183.394 201.872 183.516Z" fill="#263238"/>
<path d="M200.246 217.884C200.246 217.997 190.274 218.095 177.974 218.095C165.675 218.095 155.695 217.997 155.695 217.884C155.695 217.77 165.667 217.672 177.974 217.672C190.282 217.672 200.246 217.761 200.246 217.884Z" fill="#263238"/>
<path d="M200.246 226.797C200.246 226.911 190.274 227.008 177.974 227.008C165.675 227.008 155.695 226.911 155.695 226.797C155.695 226.683 165.667 226.585 177.974 226.585C190.282 226.585 200.246 226.674 200.246 226.797Z" fill="#263238"/>
<path d="M187.295 191.413C187.295 191.527 180.58 191.624 172.293 191.624C164.007 191.624 157.291 191.527 157.291 191.413C157.291 191.299 164.007 191.201 172.293 191.201C180.58 191.201 187.295 191.299 187.295 191.413Z" fill="#263238"/>
<path d="M202.175 191.323C200.316 191.532 198.444 191.603 196.575 191.534C194.705 191.603 192.834 191.532 190.975 191.323C192.833 191.108 194.705 191.038 196.575 191.111C198.444 191.038 200.317 191.108 202.175 191.323Z" fill="#263238"/>
<path d="M202.175 200.073C202.175 200.187 195.492 200.285 187.238 200.285C178.984 200.285 172.293 200.187 172.293 200.073C172.293 199.959 178.984 199.861 187.238 199.861C195.492 199.861 202.175 199.935 202.175 200.073Z" fill="#263238"/>
<path d="M187.295 208.889C187.295 209.011 180.58 209.101 172.293 209.101C164.007 209.101 157.291 209.011 157.291 208.889C157.291 208.767 164.007 208.678 172.293 208.678C180.58 208.678 187.295 208.8 187.295 208.889Z" fill="#263238"/>
<path d="M202.175 208.824C200.316 209.033 198.444 209.104 196.575 209.035C194.705 209.104 192.834 209.033 190.975 208.824C192.834 208.614 194.705 208.544 196.575 208.612C198.444 208.544 200.316 208.614 202.175 208.824Z" fill="#263238"/>
<path d="M166.367 199.87C165.002 200.079 163.62 200.149 162.24 200.081C160.861 200.149 159.478 200.079 158.113 199.87C159.478 199.661 160.861 199.59 162.24 199.658C163.62 199.59 165.002 199.661 166.367 199.87Z" fill="#263238"/>
<path d="M154.458 274.823C154.458 274.945 135.964 275.043 113.164 275.043C90.3636 275.043 71.8613 274.945 71.8613 274.823C71.8613 274.701 90.3473 274.611 113.164 274.611C135.98 274.611 154.458 274.685 154.458 274.823Z" fill="#263238"/>
<path d="M155.702 284.331C155.702 284.445 137.208 284.542 114.4 284.542C91.5917 284.542 73.0977 284.445 73.0977 284.331C73.0977 284.217 91.5836 284.119 114.4 284.119C137.216 284.119 155.702 284.209 155.702 284.331Z" fill="#263238"/>
<path d="M208.125 91.1357H52.1133V296.703H208.125V91.1357Z" fill="white"/>
<path d="M208.132 296.703C208.132 295.018 208.051 212.975 207.937 91.1355L208.132 91.3227H52.1371L52.3487 91.111C52.3487 167.586 52.3487 238.51 52.3487 296.679L52.1697 296.5L208.189 296.679L52.0964 296.874H51.9255V296.703C51.9255 238.535 51.9255 167.611 51.8848 91.1355V90.9238H52.1208H208.116H208.303V91.1192C208.205 212.959 208.132 295.018 208.132 296.703Z" fill="#263238"/>
<path d="M208.133 106.154C208.133 106.219 173.205 106.276 130.128 106.276C87.0508 106.276 52.0977 106.219 52.0977 106.154C52.0977 106.089 87.0183 106.032 130.111 106.032C173.205 106.032 208.133 106.081 208.133 106.154Z" fill="#263238"/>
<path d="M160.36 99.1293C160.36 99.1944 148.451 99.2514 133.75 99.2514C119.049 99.2514 107.141 99.1944 107.141 99.1293C107.141 99.0641 119.009 98.999 133.71 98.999C148.41 98.999 160.36 99.056 160.36 99.1293Z" fill="#455A64"/>
<path d="M58.1944 100.855C59.1475 100.855 59.9201 100.082 59.9201 99.129C59.9201 98.1759 59.1475 97.4033 58.1944 97.4033C57.2414 97.4033 56.4688 98.1759 56.4688 99.129C56.4688 100.082 57.2414 100.855 58.1944 100.855Z" fill="#E0E0E0"/>
<path d="M65.7636 99.1293C65.7571 99.4692 65.6505 99.7996 65.457 100.079C65.2636 100.359 64.9919 100.575 64.676 100.7C64.3602 100.826 64.0143 100.855 63.6817 100.785C63.3491 100.715 63.0447 100.548 62.8066 100.306C62.5685 100.063 62.4073 99.7555 62.3434 99.4216C62.2794 99.0878 62.3154 98.7425 62.4469 98.4291C62.5784 98.1157 62.7996 97.848 63.0826 97.6598C63.3656 97.4716 63.698 97.3712 64.0379 97.3711C64.2673 97.3711 64.4944 97.4167 64.7059 97.5055C64.9174 97.5943 65.1091 97.7243 65.2698 97.888C65.4305 98.0517 65.5569 98.2458 65.6417 98.4589C65.7264 98.6721 65.7679 98.9 65.7636 99.1293Z" fill="#E0E0E0"/>
<path d="M71.6327 99.1295C71.6263 99.4687 71.5201 99.7984 71.3273 100.078C71.1345 100.357 70.8638 100.573 70.5489 100.699C70.234 100.825 69.8889 100.855 69.5568 100.787C69.2246 100.718 68.9202 100.552 68.6814 100.311C68.4427 100.07 68.2803 99.7645 68.2144 99.4317C68.1486 99.0989 68.1823 98.7542 68.3114 98.4404C68.4404 98.1267 68.659 97.858 68.9399 97.6678C69.2208 97.4777 69.5515 97.3745 69.8907 97.3713C70.1218 97.3679 70.3512 97.4112 70.5651 97.4986C70.779 97.586 70.9731 97.7157 71.1358 97.8798C71.2984 98.044 71.4262 98.2393 71.5116 98.454C71.597 98.6687 71.6382 98.8985 71.6327 99.1295Z" fill="#E0E0E0"/>
<path d="M111.47 127.155H107.896L107.212 128.783H105.381L108.816 121.083H110.574L114.017 128.783H112.153L111.47 127.155ZM110.908 125.804L109.687 122.858L108.466 125.804H110.908Z" fill="#455A64"/>
<path d="M119.724 128.807L118.243 126.675H116.615V128.823H114.832V121.123H118.161C120.221 121.123 121.507 122.189 121.507 123.915C121.529 124.437 121.389 124.952 121.104 125.39C120.82 125.828 120.405 126.166 119.92 126.357L121.653 128.799L119.724 128.807ZM118.031 122.556H116.582V125.242H118.031C119.122 125.242 119.659 124.737 119.659 123.899C119.659 123.06 119.146 122.556 118.031 122.556Z" fill="#455A64"/>
<path d="M124.389 122.556H121.947V121.107H128.614V122.556H126.172V128.808H124.389V122.556Z" fill="#455A64"/>
<path d="M129.59 121.107H131.373V128.808H129.59V121.107Z" fill="#455A64"/>
<path d="M132.684 124.958C132.738 124.133 133.032 123.342 133.53 122.682C134.028 122.022 134.708 121.522 135.487 121.244C136.265 120.965 137.108 120.921 137.911 121.115C138.715 121.309 139.444 121.734 140.01 122.337L138.862 123.395C138.629 123.107 138.333 122.877 137.997 122.72C137.662 122.563 137.295 122.485 136.925 122.491C136.277 122.491 135.656 122.749 135.198 123.207C134.74 123.665 134.483 124.286 134.483 124.933C134.483 125.581 134.74 126.202 135.198 126.66C135.656 127.118 136.277 127.375 136.925 127.375C137.295 127.381 137.663 127.301 137.998 127.143C138.334 126.985 138.629 126.753 138.862 126.464L140.01 127.522C139.447 128.128 138.719 128.556 137.916 128.753C137.112 128.95 136.269 128.908 135.489 128.63C134.71 128.353 134.029 127.854 133.53 127.194C133.032 126.534 132.737 125.743 132.684 124.917V124.958Z" fill="#455A64"/>
<path d="M141.262 121.107H143.044V127.351H146.903V128.808H141.262V121.107Z" fill="#455A64"/>
<path d="M153.846 127.375V128.808H147.904V121.107H153.724V122.532H149.654V124.233H153.228V125.617H149.654V127.4L153.846 127.375Z" fill="#455A64"/>
<path d="M101.58 125.642C101.58 125.715 93.3178 125.772 83.1347 125.772C72.9515 125.772 64.6895 125.715 64.6895 125.642C64.6895 125.568 72.9434 125.52 83.1347 125.52C93.326 125.52 101.58 125.577 101.58 125.642Z" fill="#263238"/>
<path d="M199.66 125.642C199.66 125.715 190.991 125.772 180.303 125.772C169.615 125.772 160.93 125.715 160.93 125.642C160.93 125.568 169.599 125.52 180.303 125.52C191.007 125.52 199.66 125.577 199.66 125.642Z" fill="#263238"/>
<path d="M192.667 250.175H155.256V286.373H192.667V250.175Z" fill="#455A64"/>
<g opacity="0.3">
<path d="M158.162 283.273L168.508 264.648L176.974 276.557L182.118 270.232L189.77 283.273H158.162Z" fill="black"/>
</g>
<g opacity="0.3">
<path d="M179.896 259.048C182.093 261.937 178.829 265.193 175.948 262.995C173.725 260.114 176.981 256.858 179.896 259.048Z" fill="black"/>
</g>
<g opacity="0.3">
<path d="M189.768 283.378C189.768 283.378 189.768 283.321 189.768 283.224C189.768 283.126 189.768 282.979 189.768 282.809C189.768 282.418 189.768 281.872 189.768 281.181C189.768 279.748 189.768 277.672 189.727 275.035C189.727 269.752 189.727 262.222 189.654 253.179L189.801 253.334H158.193C158.152 253.374 158.527 253 158.372 253.163V257.233C158.372 258.592 158.372 259.935 158.372 261.262V269.125C158.372 274.196 158.372 278.991 158.372 283.403L158.217 283.248L181.074 283.321H187.521H189.231H189.67H189.263H187.586L181.172 283.362L158.217 283.443H158.063V283.289C158.063 278.877 158.063 274.082 158.063 269.011C158.063 266.48 158.063 263.875 158.063 261.213V253.073C157.9 253.228 158.274 252.845 158.242 252.886H189.849H190.004V253.041C190.004 262.125 189.947 269.687 189.931 275.019C189.931 277.64 189.931 279.707 189.931 281.132C189.931 281.824 189.931 282.353 189.931 282.76C189.931 282.922 189.931 283.061 189.931 283.167C189.931 283.272 189.776 283.378 189.768 283.378Z" fill="black"/>
</g>
<path d="M100.937 139.357C100.937 139.471 92.7969 139.569 82.6626 139.569C72.5283 139.569 64.3965 139.471 64.3965 139.357C64.3965 139.243 72.5365 139.146 82.6626 139.146C92.7888 139.146 100.937 139.235 100.937 139.357Z" fill="#263238"/>
<path d="M129.118 148.124C129.118 148.238 114.628 148.335 96.7611 148.335C78.8938 148.335 64.3965 148.238 64.3965 148.124C64.3965 148.01 78.8775 147.912 96.7611 147.912C114.645 147.912 129.118 148.01 129.118 148.124Z" fill="#263238"/>
<path d="M151.243 147.481C151.243 147.603 147.319 147.693 142.476 147.693C137.632 147.693 133.709 147.603 133.709 147.481C133.709 147.359 137.632 147.27 142.476 147.27C147.319 147.27 151.243 147.367 151.243 147.481Z" fill="#263238"/>
<path d="M194.157 147.106C194.157 147.228 186.017 147.326 176.062 147.326C166.107 147.326 157.967 147.228 157.967 147.106C157.967 146.984 166.066 146.895 176.062 146.895C186.058 146.895 194.157 147.025 194.157 147.106Z" fill="#263238"/>
<path d="M193.783 154.571C193.783 154.693 164.715 154.783 128.866 154.783C93.0178 154.783 63.9336 154.693 63.9336 154.571C63.9336 154.449 93.0015 154.359 128.866 154.359C164.731 154.359 193.783 154.457 193.783 154.571Z" fill="#263238"/>
<path d="M124.38 162.41C124.38 162.524 110.933 162.622 94.3432 162.622C77.7539 162.622 64.3066 162.491 64.3066 162.41C64.3066 162.328 77.7539 162.198 94.3432 162.198C110.933 162.198 124.38 162.288 124.38 162.41Z" fill="#263238"/>
<path d="M146.399 162.409C143.666 162.619 140.925 162.69 138.186 162.621C135.449 162.69 132.71 162.619 129.98 162.409C132.71 162.195 135.449 162.124 138.186 162.198C140.925 162.124 143.667 162.195 146.399 162.409Z" fill="#263238"/>
<path d="M193.782 161.677C193.782 161.8 184.34 161.889 172.7 161.889C161.06 161.889 151.617 161.8 151.617 161.677C151.617 161.555 161.06 161.466 172.7 161.466C184.34 161.466 193.782 161.547 193.782 161.677Z" fill="#263238"/>
<path d="M128.303 229.549C128.303 229.663 113.814 229.76 95.9389 229.76C78.0634 229.76 63.5742 229.663 63.5742 229.549C63.5742 229.435 78.0634 229.337 95.9389 229.337C113.814 229.337 128.303 229.426 128.303 229.549Z" fill="#263238"/>
<path d="M150.428 228.905C150.428 229.019 146.505 229.117 141.661 229.117C136.818 229.117 132.895 229.019 132.895 228.905C132.895 228.791 136.818 228.693 141.661 228.693C146.505 228.693 150.428 228.791 150.428 228.905Z" fill="#263238"/>
<path d="M193.335 228.531C193.335 228.653 185.236 228.743 175.24 228.743C165.244 228.743 157.145 228.653 157.145 228.531C157.145 228.409 165.244 228.319 175.24 228.319C185.236 228.319 193.335 228.425 193.335 228.531Z" fill="#263238"/>
<path d="M192.96 235.995C192.96 236.109 163.892 236.206 128.044 236.206C92.1952 236.206 63.1191 236.109 63.1191 235.995C63.1191 235.881 92.1789 235.783 128.044 235.783C163.909 235.783 192.96 235.881 192.96 235.995Z" fill="#263238"/>
<path d="M123.565 243.834C123.565 243.948 110.118 244.045 93.5288 244.045C76.9395 244.045 63.4922 243.948 63.4922 243.834C63.4922 243.72 76.9395 243.622 93.5288 243.622C110.118 243.622 123.565 243.712 123.565 243.834Z" fill="#263238"/>
<path d="M145.577 243.834C142.847 244.043 140.108 244.114 137.371 244.045C134.632 244.114 131.891 244.043 129.158 243.834C131.89 243.619 134.632 243.548 137.371 243.622C140.108 243.548 142.847 243.619 145.577 243.834Z" fill="#263238"/>
<path d="M192.96 243.077C192.96 243.191 183.526 243.289 171.885 243.289C160.245 243.289 150.803 243.191 150.803 243.077C150.803 242.963 160.237 242.865 171.885 242.865C183.534 242.865 192.96 242.971 192.96 243.077Z" fill="#263238"/>
<path d="M146.399 252.429C146.399 252.543 128.051 252.641 105.422 252.641C82.7929 252.641 64.4453 252.543 64.4453 252.429C64.4453 252.315 82.7847 252.218 105.422 252.218C128.059 252.218 146.399 252.307 146.399 252.429Z" fill="#263238"/>
<path d="M145.577 261.026C145.577 261.14 127.271 261.238 104.69 261.238C82.1099 261.238 63.7949 261.14 63.7949 261.026C63.7949 260.912 82.1018 260.814 104.69 260.814C127.279 260.814 145.577 260.904 145.577 261.026Z" fill="#263238"/>
<path d="M143.314 170.704H63.8516V221.441H143.314V170.704Z" fill="#349F6E"/>
<path d="M139.895 217.404C139.895 217.404 139.895 217.127 139.895 216.59C139.895 216.053 139.895 215.304 139.895 214.303C139.895 212.292 139.895 209.353 139.895 205.593C139.895 198.055 139.838 187.213 139.806 173.928L139.969 174.091L67.9623 174.14L68.1739 173.928C68.1739 189.321 68.1739 204.046 68.1739 217.388L67.9786 217.184L119.773 217.282L134.645 217.339H138.609H139.635H139.993H138.658H134.727L119.904 217.396L67.9786 217.493H67.7832V217.298C67.7832 203.924 67.7832 189.231 67.7832 173.839V173.627H68.003L140.009 173.668H140.18V173.839C140.18 187.164 140.115 198.039 140.099 205.585C140.099 209.337 140.099 212.259 140.058 214.262C140.058 215.247 140.058 215.996 140.058 216.517C140.058 217.038 139.895 217.404 139.895 217.404Z" fill="#263238"/>
<g opacity="0.2">
<path d="M69.8262 217.403L90.6646 190.558L105.715 207.749L117.234 197.379L138.186 217.403H69.8262Z" fill="black"/>
</g>
<g opacity="0.2">
<path d="M110.372 187.359C110.374 188.279 110.102 189.178 109.592 189.944C109.082 190.709 108.356 191.306 107.507 191.659C106.657 192.012 105.722 192.105 104.819 191.926C103.917 191.747 103.088 191.304 102.438 190.653C101.787 190.003 101.344 189.174 101.165 188.271C100.986 187.369 101.079 186.434 101.432 185.584C101.784 184.735 102.381 184.009 103.147 183.499C103.913 182.989 104.812 182.717 105.732 182.719C106.962 182.721 108.141 183.21 109.011 184.08C109.88 184.95 110.37 186.129 110.372 187.359Z" fill="black"/>
</g>
<path d="M193.783 170.257C193.783 170.379 183.811 170.468 171.503 170.468C159.196 170.468 149.232 170.379 149.232 170.257C149.232 170.134 159.204 170.045 171.503 170.045C183.803 170.045 193.783 170.143 193.783 170.257Z" fill="#263238"/>
<path d="M193.783 178.152C193.783 178.274 183.811 178.364 171.503 178.364C159.196 178.364 149.232 178.274 149.232 178.152C149.232 178.03 159.204 177.94 171.503 177.94C183.803 177.94 193.783 178.038 193.783 178.152Z" fill="#263238"/>
<path d="M192.187 212.519C192.187 212.641 182.207 212.731 169.908 212.731C157.608 212.731 147.637 212.641 147.637 212.519C147.637 212.397 157.608 212.308 169.908 212.308C182.207 212.308 192.187 212.405 192.187 212.519Z" fill="#263238"/>
<path d="M192.187 221.432C192.187 221.554 182.207 221.644 169.908 221.644C157.608 221.644 147.637 221.554 147.637 221.432C147.637 221.31 157.608 221.221 169.908 221.221C182.207 221.221 192.187 221.318 192.187 221.432Z" fill="#263238"/>
<path d="M179.228 186.049C179.228 186.171 172.513 186.26 164.234 186.26C155.956 186.26 149.232 186.171 149.232 186.049C149.232 185.926 155.948 185.837 164.234 185.837C172.521 185.837 179.228 185.935 179.228 186.049Z" fill="#263238"/>
<path d="M194.117 185.959C192.258 186.173 190.386 186.244 188.516 186.17C186.647 186.244 184.775 186.173 182.916 185.959C184.775 185.749 186.647 185.678 188.516 185.747C190.386 185.678 192.258 185.749 194.117 185.959Z" fill="#263238"/>
<path d="M194.117 194.709C194.117 194.831 187.426 194.92 179.172 194.92C170.918 194.92 164.227 194.831 164.227 194.709C164.227 194.587 170.918 194.497 179.172 194.497C187.426 194.497 194.117 194.595 194.117 194.709Z" fill="#263238"/>
<path d="M179.228 203.557C179.228 203.671 172.513 203.769 164.234 203.769C155.956 203.769 149.232 203.671 149.232 203.557C149.232 203.443 155.948 203.346 164.234 203.346C172.521 203.346 179.228 203.435 179.228 203.557Z" fill="#263238"/>
<path d="M194.117 203.468C192.258 203.677 190.386 203.748 188.516 203.68C186.647 203.748 184.775 203.677 182.916 203.468C184.774 203.248 186.647 203.175 188.516 203.248C190.386 203.175 192.259 203.248 194.117 203.468Z" fill="#263238"/>
<path d="M158.299 194.505C156.934 194.719 155.551 194.79 154.172 194.717C152.793 194.79 151.409 194.719 150.045 194.505C151.41 194.296 152.793 194.225 154.172 194.294C155.551 194.225 156.934 194.296 158.299 194.505Z" fill="#263238"/>
<path d="M146.4 269.442C146.4 269.556 127.906 269.654 105.097 269.654C82.289 269.654 63.7949 269.556 63.7949 269.442C63.7949 269.328 82.2809 269.23 105.097 269.23C127.914 269.23 146.4 269.328 146.4 269.442Z" fill="#263238"/>
<path d="M147.636 278.967C147.636 279.089 129.142 279.178 106.341 279.178C83.5413 279.178 65.0391 279.089 65.0391 278.967C65.0391 278.844 83.525 278.755 106.341 278.755C129.158 278.755 147.636 278.893 147.636 278.967Z" fill="#263238"/>
<path d="M200.375 83.3779H44.3633V288.945H200.375V83.3779Z" fill="white"/>
<path d="M200.376 288.946C200.376 287.261 200.302 205.218 200.188 83.3783L200.376 83.5737H44.3806L44.5922 83.362C44.5922 159.878 44.5922 230.769 44.5922 288.93L44.4213 288.759L200.433 288.93L44.4213 289.101H44.2422V288.93C44.2422 230.769 44.2422 159.845 44.2422 83.362V83.1504H44.4701H200.465H200.66V83.3376C200.457 205.218 200.376 287.261 200.376 288.946Z" fill="#263238"/>
<path d="M200.375 98.3965C200.375 98.4698 165.446 98.5268 122.369 98.5268C79.292 98.5268 44.3633 98.4698 44.3633 98.3965C44.3633 98.3233 79.2839 98.2744 122.369 98.2744C165.454 98.2744 200.375 98.3314 200.375 98.3965Z" fill="#263238"/>
<path d="M152.569 91.3721C152.569 91.4454 140.652 91.4942 125.951 91.4942C111.25 91.4942 99.3086 91.4454 99.3086 91.3721C99.3086 91.2988 111.226 91.25 125.918 91.25C140.611 91.25 152.569 91.307 152.569 91.3721Z" fill="#455A64"/>
<path d="M50.4366 93.0978C51.3897 93.0978 52.1623 92.3252 52.1623 91.3722C52.1623 90.4191 51.3897 89.6465 50.4366 89.6465C49.4835 89.6465 48.7109 90.4191 48.7109 91.3722C48.7109 92.3252 49.4835 93.0978 50.4366 93.0978Z" fill="#E0E0E0"/>
<path d="M58.006 91.3722C58.006 91.7135 57.9048 92.0471 57.7152 92.3309C57.5256 92.6147 57.2561 92.8359 56.9408 92.9665C56.6254 93.0971 56.2785 93.1313 55.9437 93.0647C55.609 92.9981 55.3015 92.8337 55.0601 92.5924C54.8188 92.3511 54.6544 92.0436 54.5878 91.7088C54.5213 91.3741 54.5554 91.0271 54.686 90.7118C54.8167 90.3964 55.0378 90.1269 55.3216 89.9373C55.6054 89.7477 55.9391 89.6465 56.2804 89.6465C56.738 89.6465 57.177 89.8283 57.5006 90.1519C57.8242 90.4756 58.006 90.9145 58.006 91.3722Z" fill="#E0E0E0"/>
<path d="M63.8596 91.3722C63.8596 91.7135 63.7584 92.0471 63.5687 92.3309C63.3791 92.6147 63.1096 92.8359 62.7943 92.9665C62.4789 93.0971 62.132 93.1313 61.7972 93.0647C61.4625 92.9981 61.155 92.8337 60.9136 92.5924C60.6723 92.3511 60.5079 92.0436 60.4414 91.7088C60.3748 91.3741 60.409 91.0271 60.5396 90.7118C60.6702 90.3964 60.8914 90.1269 61.1751 89.9373C61.4589 89.7477 61.7926 89.6465 62.1339 89.6465C62.5916 89.6465 63.0305 89.8283 63.3541 90.1519C63.6778 90.4756 63.8596 90.9145 63.8596 91.3722Z" fill="#E0E0E0"/>
<path d="M103.712 119.398H100.122L99.4386 121.026H97.6152L101.042 113.325H102.809L106.252 121.026H104.38L103.712 119.398ZM103.15 118.046L101.929 115.1L100.708 118.046H103.15Z" fill="#455A64"/>
<path d="M111.975 121.05L110.485 118.901H108.857V121.05H107.074V113.35H110.403C112.463 113.35 113.749 114.416 113.749 116.142C113.772 116.662 113.633 117.177 113.35 117.615C113.067 118.053 112.654 118.391 112.17 118.584L113.896 121.026L111.975 121.05ZM110.298 114.799H108.849V117.485H110.298C111.388 117.485 111.926 116.98 111.926 116.142C111.926 115.303 111.388 114.799 110.298 114.799Z" fill="#455A64"/>
<path d="M116.631 114.799H114.189V113.35H120.897V114.799H118.455V121.05H116.672L116.631 114.799Z" fill="#455A64"/>
<path d="M121.84 113.35H123.623V121.05H121.84V113.35Z" fill="#455A64"/>
<path d="M124.959 117.2C125.013 116.375 125.308 115.584 125.806 114.924C126.304 114.265 126.984 113.765 127.762 113.486C128.54 113.208 129.383 113.163 130.187 113.357C130.99 113.551 131.72 113.976 132.285 114.579L131.137 115.637C130.905 115.351 130.611 115.12 130.276 114.964C129.942 114.808 129.577 114.729 129.208 114.734C128.554 114.734 127.927 114.994 127.464 115.456C127.002 115.919 126.742 116.546 126.742 117.2C126.742 117.854 127.002 118.482 127.464 118.944C127.927 119.407 128.554 119.667 129.208 119.667C129.578 119.67 129.943 119.59 130.277 119.433C130.612 119.275 130.906 119.043 131.137 118.755L132.285 119.805C131.722 120.411 130.994 120.839 130.191 121.036C129.388 121.233 128.544 121.19 127.765 120.913C126.985 120.636 126.304 120.137 125.806 119.477C125.307 118.817 125.013 118.025 124.959 117.2Z" fill="#455A64"/>
<path d="M133.498 113.35H135.281V119.601H139.139V121.05H133.498V113.35Z" fill="#455A64"/>
<path d="M146.115 119.617V121.05H140.148V113.35H145.969V114.782H141.899V116.41H145.472V117.794H141.899V119.577L146.115 119.617Z" fill="#455A64"/>
<path d="M93.8221 117.892C93.8221 117.957 85.5682 118.014 75.3769 118.014C65.1856 118.014 56.9316 117.957 56.9316 117.892C56.9316 117.827 65.1937 117.762 75.3769 117.762C85.56 117.762 93.8221 117.819 93.8221 117.892Z" fill="#263238"/>
<path d="M191.91 117.892C191.91 117.957 183.233 118.014 172.545 118.014C161.857 118.014 153.18 117.957 153.18 117.892C153.18 117.827 161.849 117.762 172.545 117.762C183.241 117.762 191.91 117.819 191.91 117.892Z" fill="#263238"/>
<path d="M184.917 242.418H147.506V278.617H184.917V242.418Z" fill="#455A64"/>
<g opacity="0.3">
<path d="M150.404 275.523L160.758 256.891L169.224 268.799L174.368 262.475L182.02 275.523H150.404Z" fill="black"/>
</g>
<g opacity="0.3">
<path d="M172.105 251.298C174.303 254.18 171.047 257.436 168.157 255.238C165.967 252.356 169.223 249.1 172.105 251.298Z" fill="black"/>
</g>
<g opacity="0.3">
<path d="M182.02 275.637C182.012 275.589 182.012 275.539 182.02 275.491C182.02 275.377 182.02 275.238 182.02 275.068C182.02 274.677 182.02 274.14 182.02 273.44C182.02 271.999 182.02 269.923 182.02 267.286C182.02 262.003 181.971 254.473 181.939 245.43L182.094 245.584H150.478L150.657 245.414V253.554C150.657 256.215 150.657 258.82 150.657 261.36C150.657 266.423 150.657 271.217 150.657 275.629L150.502 275.475L173.359 275.548L179.806 275.589H181.516H179.839L173.424 275.629L150.47 275.711H150.315V275.637C150.315 271.225 150.315 266.431 150.315 261.368C150.315 258.828 150.315 256.223 150.315 253.562V245.422C150.16 245.576 150.535 245.202 150.494 245.234H182.11H182.264V245.381C182.264 254.465 182.199 262.027 182.183 267.359C182.183 269.98 182.183 272.048 182.183 273.472C182.183 274.164 182.183 274.693 182.183 275.1C182.183 275.271 182.183 275.401 182.183 275.507C182.183 275.613 182.02 275.637 182.02 275.637Z" fill="black"/>
</g>
<path d="M93.1791 131.599C93.1791 131.713 85.0391 131.811 74.913 131.811C64.7868 131.811 56.6387 131.713 56.6387 131.599C56.6387 131.485 64.7787 131.388 74.913 131.388C85.0473 131.388 93.1791 131.477 93.1791 131.599Z" fill="#263238"/>
<path d="M121.36 140.367C121.36 140.489 106.871 140.579 89.0033 140.579C71.136 140.579 56.6387 140.489 56.6387 140.367C56.6387 140.245 71.1279 140.155 89.0033 140.155C106.879 140.155 121.36 140.253 121.36 140.367Z" fill="#263238"/>
<path d="M143.493 139.699C143.493 139.813 139.561 139.911 134.726 139.911C129.891 139.911 125.951 139.813 125.951 139.699C125.951 139.585 129.883 139.487 134.726 139.487C139.569 139.487 143.493 139.609 143.493 139.699Z" fill="#263238"/>
<path d="M186.407 139.357C186.407 139.471 178.267 139.569 168.312 139.569C158.357 139.569 150.217 139.471 150.217 139.357C150.217 139.243 158.316 139.146 168.312 139.146C178.308 139.146 186.407 139.235 186.407 139.357Z" fill="#263238"/>
<path d="M186.025 146.813C186.025 146.935 156.957 147.033 121.109 147.033C85.2603 147.033 56.168 146.935 56.168 146.813C56.168 146.691 85.2278 146.602 121.093 146.602C156.957 146.602 186.025 146.699 186.025 146.813Z" fill="#263238"/>
<path d="M116.624 154.652C116.624 154.766 103.176 154.864 86.5952 154.864C70.014 154.864 56.5586 154.766 56.5586 154.652C56.5586 154.538 69.9977 154.44 86.5952 154.44C103.193 154.44 116.624 154.538 116.624 154.652Z" fill="#263238"/>
<path d="M138.641 154.652C135.909 154.862 133.167 154.932 130.428 154.864C127.691 154.932 124.952 154.862 122.223 154.652C124.952 154.442 127.691 154.372 130.428 154.44C133.167 154.372 135.909 154.442 138.641 154.652Z" fill="#263238"/>
<path d="M186.025 153.903C186.025 154.025 176.59 154.115 164.942 154.115C153.294 154.115 143.859 154.025 143.859 153.903C143.859 153.781 153.302 153.692 164.942 153.692C176.582 153.692 186.025 153.789 186.025 153.903Z" fill="#263238"/>
<path d="M120.547 221.791C120.547 221.905 106.058 222.002 88.1827 222.002C70.3072 222.002 55.8262 221.905 55.8262 221.791C55.8262 221.677 70.3072 221.579 88.1827 221.579C106.058 221.579 120.547 221.677 120.547 221.791Z" fill="#263238"/>
<path d="M142.67 221.148C142.67 221.27 138.747 221.36 133.904 221.36C129.06 221.36 125.137 221.27 125.137 221.148C125.137 221.026 129.06 220.937 133.904 220.937C138.747 220.937 142.67 221.034 142.67 221.148Z" fill="#263238"/>
<path d="M185.593 220.782C185.593 220.896 177.453 220.993 167.498 220.993C157.543 220.993 149.395 220.896 149.395 220.782C149.395 220.668 157.535 220.562 167.498 220.562C177.461 220.562 185.593 220.659 185.593 220.782Z" fill="#263238"/>
<path d="M185.211 228.238C185.211 228.36 156.143 228.45 120.286 228.45C84.4296 228.45 55.3535 228.36 55.3535 228.238C55.3535 228.116 84.4215 228.026 120.278 228.026C156.135 228.026 185.211 228.124 185.211 228.238Z" fill="#263238"/>
<path d="M115.81 236.077C115.81 236.191 102.362 236.289 85.7729 236.289C69.1836 236.289 55.7363 236.191 55.7363 236.077C55.7363 235.963 69.1836 235.865 85.7729 235.865C102.362 235.865 115.81 235.955 115.81 236.077Z" fill="#263238"/>
<path d="M137.82 236.077C135.091 236.286 132.352 236.357 129.615 236.288C126.878 236.357 124.14 236.286 121.41 236.077C124.14 235.862 126.878 235.791 129.615 235.865C132.352 235.791 135.091 235.862 137.82 236.077Z" fill="#263238"/>
<path d="M185.21 235.328C185.21 235.45 175.768 235.539 164.128 235.539C152.487 235.539 143.045 235.45 143.045 235.328C143.045 235.206 152.479 235.116 164.128 235.116C175.776 235.116 185.21 235.214 185.21 235.328Z" fill="#263238"/>
<path d="M138.641 244.705C138.641 244.819 120.293 244.916 97.6643 244.916C75.0351 244.916 56.6875 244.819 56.6875 244.705C56.6875 244.591 75.0269 244.493 97.6643 244.493C120.302 244.493 138.641 244.558 138.641 244.705Z" fill="#263238"/>
<path d="M137.82 253.268C137.82 253.382 119.513 253.48 96.9325 253.48C74.3521 253.48 56.0371 253.382 56.0371 253.268C56.0371 253.154 74.344 253.057 96.9325 253.057C119.521 253.057 137.82 253.154 137.82 253.268Z" fill="#263238"/>
<path d="M135.556 162.947H56.0938V213.684H135.556V162.947Z" fill="#349F6E"/>
<path d="M132.138 209.646C132.138 209.646 132.138 209.37 132.138 208.832C132.138 208.295 132.138 207.546 132.138 206.553C132.138 204.543 132.138 201.604 132.138 197.835C132.138 190.298 132.089 179.455 132.048 166.171L132.211 166.333L60.2048 166.382L60.4164 166.171C60.4164 181.563 60.4164 196.289 60.4164 209.63L60.2211 209.435L112.008 209.524L126.88 209.581H130.844H131.877H132.228H131.902H130.893H126.969L112.138 209.63L60.2211 209.728H60.0176V209.532C60.0176 196.158 60.0176 181.466 60.0176 166.073V165.861H60.2374L132.244 165.91H132.415V166.073C132.415 179.398 132.35 190.281 132.325 197.819C132.325 201.572 132.325 204.502 132.285 206.504C132.285 207.481 132.285 208.238 132.285 208.759C132.285 209.28 132.138 209.646 132.138 209.646Z" fill="#263238"/>
<g opacity="0.2">
<path d="M62.0762 209.646L82.9064 182.8L97.9573 199.991L109.475 189.621L130.428 209.646H62.0762Z" fill="black"/>
</g>
<g opacity="0.2">
<path d="M102.614 179.585C102.616 180.505 102.344 181.405 101.834 182.17C101.324 182.936 100.598 183.533 99.7488 183.886C98.8991 184.239 97.9639 184.331 97.0615 184.152C96.1592 183.973 95.3302 183.53 94.6797 182.88C94.0292 182.229 93.5864 181.4 93.4073 180.498C93.2282 179.596 93.3209 178.66 93.6737 177.811C94.0265 176.961 94.6235 176.235 95.3891 175.725C96.1547 175.215 97.0545 174.944 97.9744 174.945C99.2043 174.947 100.383 175.437 101.253 176.307C102.123 177.176 102.612 178.355 102.614 179.585Z" fill="black"/>
</g>
<path d="M186.025 162.491C186.025 162.613 176.053 162.711 163.754 162.711C151.454 162.711 141.475 162.613 141.475 162.491C141.475 162.369 151.446 162.279 163.754 162.279C176.061 162.279 186.025 162.385 186.025 162.491Z" fill="#263238"/>
<path d="M186.025 170.403C186.025 170.517 176.053 170.615 163.754 170.615C151.454 170.615 141.475 170.517 141.475 170.403C141.475 170.289 151.446 170.191 163.754 170.191C176.061 170.191 186.025 170.281 186.025 170.403Z" fill="#263238"/>
<path d="M184.429 204.762C184.429 204.885 174.458 204.974 162.15 204.974C149.842 204.974 139.879 204.885 139.879 204.762C139.879 204.64 149.85 204.551 162.15 204.551C174.449 204.551 184.429 204.648 184.429 204.762Z" fill="#263238"/>
<path d="M184.429 213.675C184.429 213.797 174.458 213.887 162.15 213.887C149.842 213.887 139.879 213.797 139.879 213.675C139.879 213.553 149.85 213.464 162.15 213.464C174.449 213.464 184.429 213.561 184.429 213.675Z" fill="#263238"/>
<path d="M171.471 178.299C171.471 178.413 164.755 178.51 156.477 178.51C148.198 178.51 141.475 178.413 141.475 178.299C141.475 178.185 148.19 178.087 156.477 178.087C164.763 178.087 171.471 178.176 171.471 178.299Z" fill="#263238"/>
<path d="M186.359 178.201C184.5 178.415 182.628 178.486 180.759 178.412C178.889 178.486 177.017 178.415 175.158 178.201C177.017 177.991 178.889 177.921 180.759 177.989C182.628 177.921 184.5 177.991 186.359 178.201Z" fill="#263238"/>
<path d="M186.359 186.96C186.359 187.074 179.667 187.172 171.422 187.172C163.176 187.172 156.477 187.074 156.477 186.96C156.477 186.846 163.16 186.748 171.422 186.748C179.684 186.748 186.359 186.838 186.359 186.96Z" fill="#263238"/>
<path d="M171.471 195.8C171.471 195.913 164.755 196.011 156.477 196.011C148.198 196.011 141.475 195.913 141.475 195.8C141.475 195.686 148.19 195.588 156.477 195.588C164.763 195.588 171.471 195.686 171.471 195.8Z" fill="#263238"/>
<path d="M186.359 195.71C184.5 195.92 182.628 195.991 180.759 195.922C178.889 195.991 177.017 195.92 175.158 195.71C177.017 195.496 178.889 195.425 180.759 195.499C182.628 195.425 184.5 195.496 186.359 195.71Z" fill="#263238"/>
<path d="M150.543 186.756C149.178 186.965 147.795 187.036 146.416 186.968C145.037 187.036 143.654 186.965 142.289 186.756C143.654 186.542 145.037 186.471 146.416 186.544C147.795 186.471 149.178 186.542 150.543 186.756Z" fill="#263238"/>
<path d="M138.642 261.685C138.642 261.807 120.148 261.897 97.3395 261.897C74.5312 261.897 56.0371 261.807 56.0371 261.685C56.0371 261.563 74.5312 261.474 97.3395 261.474C120.148 261.474 138.642 261.571 138.642 261.685Z" fill="#263238"/>
<path d="M139.88 271.217C139.88 271.331 121.394 271.428 98.5856 271.428C75.7773 271.428 57.2832 271.331 57.2832 271.217C57.2832 271.103 75.7691 270.997 98.5856 270.997C121.402 270.997 139.88 271.095 139.88 271.217Z" fill="#263238"/>
<path d="M41.2627 201.352C47.2823 201.352 52.1622 196.472 52.1622 190.452C52.1622 184.433 47.2823 179.553 41.2627 179.553C35.2431 179.553 30.3633 184.433 30.3633 190.452C30.3633 196.472 35.2431 201.352 41.2627 201.352Z" fill="#EBEBEB"/>
<path d="M52.1623 190.452C52.0788 189.562 51.9375 188.678 51.739 187.806C51.3615 186.353 50.6842 184.994 49.7506 183.818C48.8169 182.642 47.6475 181.674 46.3175 180.976C44.9875 180.278 43.5263 179.867 42.0278 179.767C40.5293 179.668 39.0265 179.883 37.6161 180.399C35.6287 181.124 33.9027 182.424 32.6588 184.135C31.3102 185.965 30.5826 188.179 30.5826 190.452C30.5826 192.725 31.3102 194.939 32.6588 196.769C33.9064 198.474 35.6315 199.771 37.6161 200.497C39.2991 201.114 41.1099 201.299 42.8831 201.036C44.6562 200.773 46.3352 200.07 47.7667 198.991C49.7149 197.525 51.1139 195.446 51.739 193.089C51.9364 192.22 52.0778 191.339 52.1623 190.452C52.1766 190.682 52.1766 190.913 52.1623 191.144C52.1597 191.416 52.138 191.688 52.0971 191.958C52.0533 192.342 51.9853 192.722 51.8936 193.097C51.401 195.148 50.3298 197.013 48.8073 198.472C47.2849 199.931 45.3753 200.922 43.3059 201.327C41.36 201.698 39.3502 201.541 37.4858 200.871C35.4193 200.124 33.6205 198.782 32.3169 197.013C30.9087 195.114 30.1484 192.812 30.1484 190.448C30.1484 188.084 30.9087 185.782 32.3169 183.883C32.9671 182.98 33.7587 182.189 34.6613 181.539C35.5185 180.897 36.4681 180.389 37.4777 180.033C39.3452 179.364 41.3582 179.209 43.3059 179.585C45.3733 179.982 47.2829 180.965 48.807 182.417C50.3311 183.869 51.4054 185.728 51.9018 187.774C51.9928 188.149 52.0607 188.53 52.1053 188.914C52.1458 189.183 52.1676 189.455 52.1704 189.728C52.1829 189.969 52.1801 190.211 52.1623 190.452Z" fill="#263238"/>
<path opacity="0.5" d="M204.673 201.352C210.693 201.352 215.572 196.472 215.572 190.452C215.572 184.433 210.693 179.553 204.673 179.553C198.653 179.553 193.773 184.433 193.773 190.452C193.773 196.472 198.653 201.352 204.673 201.352Z" fill="#EBEBEB"/>
<path d="M215.572 190.452C215.489 189.562 215.348 188.678 215.149 187.806C214.522 185.45 213.124 183.372 211.177 181.905C209.843 180.9 208.293 180.22 206.651 179.918C204.777 179.586 202.848 179.751 201.059 180.399C199.071 181.123 197.345 182.424 196.101 184.135C194.753 185.965 194.025 188.178 194.025 190.452C194.025 192.725 194.753 194.938 196.101 196.768C197.349 198.474 199.074 199.771 201.059 200.496C202.742 201.113 204.553 201.299 206.326 201.036C208.099 200.773 209.778 200.07 211.209 198.991C213.158 197.524 214.557 195.446 215.182 193.089C215.379 192.22 215.52 191.339 215.605 190.452C215.625 190.682 215.625 190.913 215.605 191.144C215.602 191.416 215.581 191.688 215.54 191.958C215.496 192.341 215.428 192.722 215.336 193.097C214.844 195.146 213.774 197.011 212.253 198.47C210.732 199.929 208.825 200.92 206.757 201.327C204.811 201.698 202.801 201.54 200.937 200.871C199.929 200.516 198.982 200.008 198.128 199.365C197.221 198.714 196.427 197.92 195.776 197.012C194.37 195.112 193.611 192.811 193.611 190.448C193.611 188.084 194.37 185.783 195.776 183.883C196.427 182.978 197.221 182.186 198.128 181.538C198.982 180.895 199.929 180.388 200.937 180.032C202.802 179.366 204.812 179.211 206.757 179.585C208.824 179.981 210.734 180.964 212.258 182.416C213.782 183.868 214.856 185.728 215.353 187.774C215.444 188.149 215.511 188.53 215.556 188.913C215.597 189.183 215.618 189.455 215.621 189.727C215.626 189.97 215.609 190.212 215.572 190.452Z" fill="#263238"/>
<path opacity="0.5" d="M203.379 194.033C203.32 194.034 203.262 194.02 203.208 193.995C203.155 193.97 203.107 193.933 203.07 193.887C203.001 193.803 202.968 193.696 202.977 193.588C202.986 193.48 203.037 193.38 203.119 193.309L206.538 190.452L203.119 187.587C203.078 187.553 203.044 187.511 203.019 187.464C202.994 187.417 202.979 187.365 202.974 187.312C202.97 187.259 202.976 187.205 202.992 187.155C203.009 187.104 203.035 187.057 203.07 187.017C203.138 186.934 203.237 186.882 203.343 186.871C203.45 186.86 203.557 186.892 203.64 186.96L207.425 190.134C207.471 190.173 207.509 190.222 207.534 190.277C207.559 190.332 207.572 190.391 207.571 190.452C207.573 190.511 207.561 190.57 207.536 190.624C207.51 190.678 207.472 190.725 207.425 190.761L203.64 193.936C203.568 194 203.475 194.035 203.379 194.033Z" fill="#263238"/>
<path opacity="0.5" d="M43.144 194.034C43.0458 194.033 42.9509 193.999 42.8754 193.936L39.074 190.761C39.0296 190.723 38.9942 190.676 38.9703 190.622C38.9464 190.569 38.9346 190.511 38.9356 190.452C38.9431 190.343 38.9927 190.241 39.074 190.167L42.8591 186.993C42.9445 186.927 43.0519 186.896 43.1594 186.906C43.2668 186.917 43.3661 186.968 43.437 187.05C43.4719 187.09 43.4984 187.137 43.5149 187.187C43.5314 187.238 43.5375 187.292 43.533 187.345C43.5284 187.398 43.5132 187.45 43.4884 187.497C43.4635 187.544 43.4294 187.586 43.3882 187.619L39.9694 190.485L43.3882 193.342C43.4702 193.413 43.5212 193.513 43.5303 193.621C43.5394 193.729 43.5059 193.836 43.437 193.92C43.3985 193.958 43.3526 193.987 43.3022 194.007C43.2518 194.026 43.198 194.036 43.144 194.034Z" fill="#263238"/>
<path d="M247.089 297.615L228.041 360.293L188.033 379.333L190.687 400.847L228.277 391.893C247.992 387.904 258.338 380.497 262.71 362.019L270.247 337.371L247.089 297.615Z" fill="#349F6E"/>
<path d="M343.287 279.707C342.914 279.783 342.535 279.823 342.155 279.829C341.129 279.898 340.107 280.023 339.095 280.203C337.6 280.478 336.16 280.992 334.829 281.726C333.196 282.618 331.695 283.733 330.368 285.038C329.091 286.402 327.997 287.926 327.112 289.572C326.379 290.912 325.724 292.292 325.151 293.708C324.654 294.92 324.296 295.914 324.044 296.605C323.934 296.968 323.798 297.321 323.637 297.664C323.689 297.287 323.777 296.917 323.897 296.557C324.101 295.848 324.426 294.839 324.89 293.61C325.429 292.167 326.062 290.761 326.787 289.402C327.661 287.717 328.756 286.157 330.043 284.762C331.396 283.43 332.934 282.301 334.609 281.408C335.98 280.671 337.467 280.172 339.005 279.935C340.031 279.773 341.068 279.686 342.106 279.674C342.5 279.648 342.895 279.659 343.287 279.707Z" fill="#263238"/>
<path d="M203.1 383.183L214.951 375.319C216.14 374.586 217.551 374.297 218.932 374.505L228 375.759L248.789 386.186L259.249 385.372L258.395 403.435C258.395 403.435 249.131 403.435 245.517 402.621C241.903 401.807 237.003 398.274 237.003 398.274C237.003 398.274 238.118 400.171 237.434 401.53C236.75 402.89 231.736 404.876 231.736 404.876C231.736 404.876 228.22 405.901 227.748 403.427C227.748 403.427 221.618 403.899 221.284 398.999C221.284 398.999 212.07 396.899 213.633 392.69C214.797 389.564 215.928 387.293 215.928 387.293L219.013 381.359L215.961 380.651C215.961 380.651 210.149 384.501 207.699 384.77C205.249 385.039 203.1 383.183 203.1 383.183Z" fill="#FFBE9D"/>
<path d="M226.063 385.193C225.348 385.651 224.658 386.146 223.995 386.675C222.451 388.003 221.335 389.759 220.788 391.722C220.58 392.816 220.536 393.935 220.658 395.043C220.747 396.077 220.902 397.004 221.04 397.778C221.237 398.609 221.381 399.452 221.472 400.301C221.362 400.096 221.283 399.877 221.236 399.65C221.113 399.227 220.943 398.608 220.763 397.835C220.555 396.925 220.397 396.003 220.291 395.075C220.149 393.929 220.187 392.767 220.405 391.632C220.966 389.589 222.16 387.776 223.816 386.455C224.321 386.059 224.866 385.717 225.444 385.438C225.633 385.318 225.843 385.235 226.063 385.193Z" fill="#EB996E"/>
<path d="M230.704 390.566C230.704 390.566 230.468 390.566 230.053 390.566C229.48 390.587 228.921 390.75 228.425 391.038C227.693 391.471 227.102 392.107 226.724 392.869C226.293 393.824 226.106 394.87 226.178 395.914C226.25 396.976 226.414 398.03 226.667 399.064C226.878 400.033 227.074 400.896 227.269 401.612C227.652 403.061 228.002 403.915 227.945 403.94C227.811 403.764 227.704 403.569 227.627 403.362C227.388 402.818 227.179 402.26 227 401.693C226.772 400.977 226.536 400.106 226.317 399.145C226.034 398.094 225.854 397.017 225.779 395.93C225.701 394.81 225.914 393.688 226.398 392.674C226.816 391.855 227.479 391.186 228.295 390.761C228.836 390.47 229.448 390.337 230.061 390.379C230.288 390.385 230.509 390.45 230.704 390.566Z" fill="#EB996E"/>
<path d="M233.886 398.372C233.846 398.372 233.935 398.128 234.212 397.908C234.583 397.63 235.027 397.466 235.49 397.436C235.724 397.404 235.961 397.42 236.188 397.485C236.415 397.549 236.627 397.66 236.809 397.81C237.085 398.062 237.11 398.315 237.069 398.323C237.028 398.331 236.898 398.176 236.646 398.03C236.299 397.856 235.908 397.788 235.522 397.835C234.951 397.921 234.398 398.103 233.886 398.372Z" fill="#EB996E"/>
<path d="M234.651 394.758C234.691 394.758 234.871 394.896 234.968 395.238C235.094 395.677 235.125 396.138 235.058 396.589C235.007 397.05 234.839 397.49 234.569 397.867C234.333 398.152 234.105 398.225 234.081 398.185C234.057 398.144 234.195 397.989 234.333 397.713C234.507 397.34 234.617 396.941 234.659 396.532C234.715 396.122 234.728 395.708 234.7 395.295C234.675 394.978 234.602 394.79 234.651 394.758Z" fill="#EB996E"/>
<path d="M213.643 392.739C213.694 392.484 213.782 392.237 213.903 392.006C214.09 391.551 214.375 390.899 214.717 390.085C215.442 388.457 216.475 386.251 217.631 383.818C218.046 382.938 218.445 382.1 218.828 381.319C219.537 380.598 220.429 380.083 221.408 379.829C222.141 379.622 222.907 379.564 223.663 379.658C224.155 379.714 224.636 379.846 225.087 380.049C225.257 380.109 225.415 380.2 225.551 380.317C224.929 380.114 224.289 379.972 223.638 379.894C222.824 379.831 222.006 379.944 221.239 380.225C220.472 380.506 219.775 380.948 219.194 381.522V381.473C218.82 382.287 218.421 383.101 218.014 383.98C216.858 386.422 215.783 388.62 214.994 390.199C214.603 391.013 214.269 391.632 214.041 392.063C213.936 392.304 213.802 392.531 213.643 392.739Z" fill="#EB996E"/>
<path d="M364.412 357.24C364.412 357.24 362.564 301.335 360.212 293.61C357.859 285.885 354.986 281.636 349.206 277.875C342.58 273.594 319.414 268.742 318.624 268.034L279.65 268.807L277.314 269.068C270.789 269.744 264.594 272.274 259.462 276.359C254.33 280.444 250.474 285.914 248.352 292.12C248.189 292.609 248.034 293.105 247.888 293.61C243.166 309.76 261.685 333 261.685 331.974C261.726 336.801 262.043 341.424 262.865 344.721C265.56 355.474 289.068 373.52 290.419 378.771C291.77 384.021 292.438 406.487 292.438 406.487C292.438 406.487 329.166 406.764 345.592 406.683L387.529 406.487L364.412 357.24Z" fill="#349F6E"/>
<path d="M260.308 290.948C260.308 290.948 260.389 291.168 260.52 291.583C260.717 292.198 260.883 292.823 261.016 293.455C261.513 295.771 261.786 298.129 261.83 300.496C261.909 304.006 261.784 307.518 261.456 311.013C261.147 314.953 260.642 319.275 260.446 323.834C260.165 328.105 260.307 332.394 260.87 336.638C261.356 340.095 262.32 343.467 263.735 346.658C264.718 348.801 265.907 350.843 267.284 352.755C267.781 353.423 268.196 353.927 268.456 354.277C268.604 354.446 268.735 354.629 268.847 354.823C268.686 354.668 268.537 354.502 268.399 354.326C268.114 353.993 267.675 353.512 267.162 352.845C265.724 350.959 264.491 348.926 263.483 346.78C262.016 343.575 261.016 340.176 260.512 336.687C259.922 332.421 259.767 328.107 260.048 323.809C260.276 319.243 260.764 314.921 261.09 310.981C261.433 307.5 261.585 304.002 261.545 300.505C261.516 298.146 261.277 295.795 260.829 293.48C260.691 292.666 260.503 292.039 260.414 291.608C260.358 291.392 260.323 291.171 260.308 290.948Z" fill="#263238"/>
<g opacity="0.3">
<path d="M354.22 316.541C346.083 342.111 339.764 368.224 335.311 394.685L330.988 402.337C336.426 401.58 340.976 397.558 343.744 392.813C346.511 388.067 347.814 382.622 349.027 377.274C353.642 357.298 358.282 336.606 354.22 316.541Z" fill="black"/>
</g>
<path d="M256.41 383.379L310.761 377.046C310.761 377.046 322.157 308.303 322.434 307.082C322.71 305.861 326.553 284.461 337.322 282.622C348.091 280.782 357.908 285.064 358.543 295.467C359.047 303.778 346.984 363.493 339.381 391.144C337.192 399.097 328.474 406.138 319.959 406.301C297.745 406.716 256.662 406.301 256.662 406.301L256.41 383.379Z" fill="#349F6E"/>
<path d="M322.393 307.082C322.181 308.401 317.859 334.669 310.883 377.086V377.2H310.769C294.758 379.943 276.492 380.31 256.606 383.712L256.768 383.517C256.842 389.882 256.768 399.414 256.833 406.309L256.638 406.113L277.2 406.252C288.702 406.309 299.935 406.317 310.777 406.252L318.836 406.154C321.456 406.2 324.058 405.707 326.479 404.705C331.195 402.749 335.123 399.274 337.639 394.831L338.079 394.017L338.445 393.203C338.69 392.645 338.899 392.071 339.072 391.486C339.43 390.322 339.715 389.125 340.032 387.953C340.675 385.617 341.245 383.289 341.823 381.002C342.963 376.427 344.029 371.974 345.022 367.644C347.016 359.015 348.758 350.941 350.313 343.566C353.374 328.816 355.645 316.826 356.98 308.507C357.314 306.423 357.607 304.575 357.794 302.972C357.908 302.158 358.006 301.425 358.103 300.741C358.201 300.057 358.233 299.447 358.29 298.893C358.395 298.059 358.453 297.219 358.461 296.378C358.461 295.816 358.502 295.523 358.502 295.523C358.502 295.523 358.502 295.808 358.502 296.378C358.511 297.221 358.468 298.064 358.372 298.902C358.323 299.455 358.258 300.074 358.201 300.757C358.144 301.441 358.014 302.182 357.916 302.98C357.721 304.608 357.436 306.447 357.102 308.531C355.816 316.858 353.585 328.881 350.59 343.623C349.06 351.006 347.334 359.089 345.348 367.717C344.36 372.058 343.302 376.514 342.173 381.083C341.595 383.378 341.025 385.707 340.391 388.051C340.065 389.223 339.788 390.403 339.43 391.592C339.254 392.191 339.04 392.779 338.787 393.35L338.413 394.213L337.973 395.027C335.408 399.544 331.409 403.076 326.61 405.063C324.144 406.085 321.496 406.589 318.828 406.545L310.769 406.651C299.918 406.74 288.685 406.732 277.183 406.651L256.614 406.504H256.41V406.309C256.337 399.439 256.41 389.899 256.361 383.517V383.354H256.516C276.41 379.968 294.676 379.626 310.688 376.899L310.557 377.029C314.106 355.8 317.069 338.315 319.072 326.13C320.106 320.049 320.92 315.287 321.514 312.04C321.799 310.412 322.019 309.199 322.165 308.352C322.312 307.506 322.393 307.082 322.393 307.082Z" fill="#263238"/>
<g opacity="0.3">
<path d="M259.738 328.303C259.599 319.756 262.041 310.794 262.001 301.515C259.199 308.851 257.32 316.507 256.408 324.307C255.79 329.655 255.635 335.157 257.165 340.318C258.696 345.479 262.106 350.281 267.031 352.447C261.927 345.585 259.876 336.842 259.738 328.303Z" fill="black"/>
</g>
<path d="M258.038 225.332C255.856 223.739 254.171 221.559 253.178 219.046C252.185 216.533 251.926 213.79 252.43 211.136C252.633 210.562 252.633 209.935 252.43 209.361C252.13 208.936 251.711 208.61 251.225 208.425C249.957 207.772 248.833 206.87 247.923 205.772C247.012 204.673 246.333 203.403 245.926 202.035C245.546 200.658 245.534 199.205 245.889 197.822C246.245 196.438 246.956 195.171 247.953 194.148C243.801 192.723 241.994 187.147 243.883 183.175C245.771 179.203 250.533 177.111 254.896 177.583C253.366 175.377 253.985 172.17 255.759 170.151C257.534 168.132 260.179 167.131 262.808 166.618C266.341 165.934 270.59 166.293 272.65 169.256C272.821 167.05 275.01 165.536 277.143 164.982C282.841 163.492 289.434 167.18 291.168 172.862C292.975 171.494 295.067 170.33 297.33 170.289C299.593 170.249 302.002 171.608 302.532 173.814C303.468 171.779 305.893 170.916 308.107 170.688C309.71 170.44 311.351 170.684 312.812 171.388C313.535 171.755 314.127 172.335 314.509 173.05C314.891 173.765 315.043 174.58 314.945 175.385C316.413 174.823 318.038 174.829 319.502 175.402C320.966 175.975 322.163 177.075 322.859 178.484C323.554 179.894 323.699 181.513 323.263 183.023C322.828 184.534 321.844 185.828 320.505 186.651C321.709 187.308 322.726 188.262 323.457 189.423C324.188 190.585 324.61 191.914 324.682 193.284C324.754 194.654 324.473 196.02 323.868 197.252C323.262 198.483 322.351 199.539 321.221 200.318C322.572 200.415 323.272 202.231 322.678 203.452C322.329 204.036 321.846 204.528 321.268 204.888C320.69 205.247 320.035 205.464 319.357 205.519C319.943 210.175 320.532 214.829 321.123 219.479C321.506 222.483 321.88 225.552 321.311 228.523C320.741 231.494 319.048 234.416 316.313 235.678" fill="#263238"/>
<path d="M256.41 211.876C255.596 200.545 266.104 187.66 277.419 187.31L314.521 189.247L315.221 195.311L319.999 272.006L286.096 302.173L281.806 267.676C281.806 267.676 267.154 267.261 261.668 248.954C258.925 239.821 257.305 224.477 256.41 211.876Z" fill="#FFBE9D"/>
<path d="M263.059 225.845C263.143 226.469 263.464 227.036 263.955 227.429C264.446 227.821 265.07 228.009 265.697 227.953C266.005 227.934 266.305 227.853 266.582 227.716C266.858 227.579 267.104 227.388 267.306 227.155C267.507 226.921 267.66 226.65 267.756 226.356C267.851 226.063 267.887 225.754 267.862 225.446C267.779 224.824 267.459 224.258 266.969 223.866C266.48 223.473 265.858 223.284 265.233 223.338C264.924 223.355 264.621 223.435 264.344 223.571C264.066 223.707 263.818 223.898 263.616 224.132C263.413 224.366 263.259 224.638 263.164 224.932C263.068 225.226 263.033 225.537 263.059 225.845Z" fill="#263238"/>
<path d="M260.773 219.373C261.106 219.642 262.735 218.047 265.315 217.745C267.895 217.444 269.947 218.429 270.199 218.071C270.321 217.916 269.938 217.387 269.035 216.899C267.815 216.28 266.433 216.053 265.079 216.248C263.739 216.428 262.492 217.033 261.522 217.973C260.797 218.657 260.602 219.251 260.773 219.373Z" fill="#263238"/>
<path d="M287.268 223.541C287.351 224.165 287.672 224.732 288.163 225.125C288.655 225.517 289.279 225.705 289.905 225.649C290.213 225.631 290.515 225.551 290.792 225.414C291.068 225.277 291.315 225.087 291.517 224.853C291.719 224.619 291.872 224.347 291.967 224.054C292.062 223.76 292.097 223.45 292.07 223.142C291.987 222.519 291.666 221.952 291.175 221.559C290.683 221.166 290.059 220.978 289.433 221.034C289.125 221.054 288.824 221.134 288.548 221.271C288.272 221.409 288.026 221.6 287.824 221.833C287.622 222.066 287.469 222.338 287.374 222.631C287.278 222.924 287.242 223.234 287.268 223.541Z" fill="#263238"/>
<path d="M286.145 216.94C286.486 217.217 288.114 215.613 290.687 215.312C293.259 215.011 295.326 215.996 295.571 215.638C295.685 215.483 295.31 214.954 294.399 214.474C293.183 213.848 291.803 213.618 290.451 213.814C289.108 213.993 287.858 214.598 286.885 215.54C286.169 216.215 285.982 216.818 286.145 216.94Z" fill="#263238"/>
<path d="M279.413 236.834C279.413 236.687 277.785 236.63 275.131 236.655C274.464 236.655 273.821 236.655 273.65 236.191C273.502 235.519 273.562 234.818 273.821 234.18C274.22 232.495 274.635 230.729 275.082 228.881C276.8 221.352 277.948 215.198 277.646 215.133C277.345 215.067 275.701 221.116 273.983 228.645C273.576 230.493 273.169 232.267 272.811 233.952C272.506 234.805 272.506 235.737 272.811 236.59C272.939 236.808 273.114 236.995 273.324 237.136C273.534 237.277 273.774 237.368 274.024 237.404C274.402 237.453 274.785 237.453 275.164 237.404C277.801 237.192 279.421 236.98 279.413 236.834Z" fill="#263238"/>
<path d="M281.807 267.676C290.615 266.601 298.949 263.095 305.877 257.55C305.877 257.55 301.416 272.487 282.507 273.301L281.807 267.676Z" fill="#EB996E"/>
<path d="M281.35 242.914C281.755 242.229 282.327 241.659 283.014 241.256C283.7 240.853 284.477 240.631 285.273 240.611C285.848 240.585 286.422 240.676 286.961 240.879C287.5 241.082 287.992 241.392 288.407 241.791C288.811 242.175 289.087 242.673 289.199 243.219C289.311 243.765 289.254 244.332 289.034 244.844C288.684 245.363 288.187 245.765 287.607 246C287.027 246.235 286.39 246.292 285.778 246.162C284.502 245.899 283.292 245.381 282.22 244.64C281.908 244.476 281.632 244.252 281.406 243.981C281.292 243.851 281.219 243.691 281.195 243.52C281.172 243.349 281.2 243.175 281.276 243.02" fill="#EB996E"/>
<path d="M287.228 237.583C286.813 237.583 287.187 240.424 285.071 242.744C282.954 245.064 279.934 245.186 279.967 245.56C279.967 245.739 280.7 246.016 281.961 245.878C283.603 245.673 285.12 244.895 286.243 243.68C287.324 242.513 287.908 240.972 287.871 239.382C287.83 238.193 287.423 237.542 287.228 237.583Z" fill="#263238"/>
<path d="M284.085 207.807C284.435 208.474 286.959 207.807 290.028 207.742C293.096 207.677 295.652 208.181 295.962 207.498C296.1 207.172 295.587 206.57 294.513 206.024C293.087 205.368 291.529 205.048 289.959 205.088C288.39 205.129 286.851 205.53 285.461 206.26C284.435 206.863 283.955 207.49 284.085 207.807Z" fill="#263238"/>
<path d="M260.691 211.763C261.228 212.284 262.921 211.429 265.046 211.111C267.17 210.794 269.034 210.965 269.368 210.297C269.507 209.98 269.148 209.426 268.277 208.979C267.127 208.459 265.848 208.295 264.604 208.507C263.36 208.718 262.207 209.297 261.293 210.167C260.618 210.859 260.479 211.502 260.691 211.763Z" fill="#263238"/>
<path d="M261.131 189.231C260.75 191.027 260.918 192.895 261.613 194.594C262.308 196.293 263.499 197.742 265.03 198.755C266.56 199.768 268.36 200.296 270.196 200.271C272.031 200.247 273.816 199.67 275.319 198.617C274.245 199.976 274.749 202.141 276.06 203.273C277.455 204.329 279.21 204.791 280.944 204.559C282.764 204.412 284.53 203.874 286.122 202.98C287.714 202.086 289.094 200.859 290.167 199.382C290.542 200.796 291.247 202.101 292.225 203.19C293.202 204.278 294.424 205.119 295.79 205.644C297.156 206.168 298.627 206.361 300.082 206.206C301.537 206.052 302.934 205.554 304.159 204.754C303.087 206.156 302.461 207.849 302.364 209.611C302.267 211.374 302.702 213.125 303.614 214.636C304.556 216.132 305.943 217.296 307.579 217.964C309.216 218.633 311.02 218.773 312.74 218.364C314.46 217.956 316.01 217.02 317.171 215.688C318.333 214.355 319.049 212.692 319.218 210.933C320.478 210.18 321.547 209.147 322.342 207.914C323.137 206.681 323.637 205.282 323.803 203.824C323.969 202.366 323.797 200.89 323.3 199.51C322.802 198.129 321.993 196.882 320.936 195.866C321.823 195.39 322.569 194.687 323.097 193.829C323.624 192.971 323.915 191.988 323.939 190.982C323.974 188.976 323.495 186.995 322.547 185.227C320.415 180.839 316.76 177.03 312.12 175.564C307.48 174.099 301.872 175.402 298.95 179.309C298.675 179.788 298.26 180.171 297.761 180.408C297.388 180.453 297.01 180.408 296.657 180.278C296.305 180.148 295.989 179.935 295.734 179.659C293.138 177.567 290.419 175.304 287.114 174.864C285.108 174.652 283.089 175.123 281.384 176.201C279.679 177.28 278.388 178.903 277.721 180.807C274.985 177.274 269.882 175.491 265.804 177.29C261.725 179.089 259.666 184.852 262.173 188.54" fill="#263238"/>
<path d="M310.475 215.816C311.194 219.6 312.449 223.262 314.203 226.691C314.943 228.14 316.01 229.72 317.63 229.858C319.103 229.988 320.438 228.775 320.926 227.416C321.316 225.975 321.352 224.462 321.032 223.004C320.125 217.804 318.874 212.67 317.288 207.636" fill="#263238"/>
<path d="M314.953 218.226C315.173 218.079 323.907 213.635 325.38 223.167C326.854 232.699 317.004 232.21 316.947 231.942C316.89 231.673 314.953 218.226 314.953 218.226Z" fill="#FFBE9D"/>
<path d="M319.291 227.88C319.332 227.839 319.478 227.969 319.771 228.059C319.98 228.114 320.197 228.128 320.411 228.099C320.625 228.069 320.831 227.998 321.016 227.888C321.961 227.367 322.563 225.633 322.343 223.908C322.25 223.088 321.972 222.3 321.529 221.604C321.397 221.32 321.197 221.074 320.947 220.885C320.698 220.696 320.406 220.571 320.097 220.521C319.897 220.491 319.693 220.535 319.525 220.647C319.356 220.758 319.235 220.928 319.185 221.124C319.104 221.409 319.185 221.596 319.144 221.62C319.104 221.645 318.916 221.49 318.933 221.083C318.946 220.838 319.044 220.605 319.209 220.424C319.442 220.187 319.757 220.05 320.089 220.041C320.491 220.059 320.882 220.18 321.224 220.392C321.566 220.605 321.847 220.901 322.042 221.254C322.576 222.018 322.914 222.901 323.027 223.826C323.255 225.755 322.555 227.709 321.244 228.319C321.002 228.437 320.736 228.499 320.467 228.499C320.198 228.499 319.932 228.437 319.69 228.319C319.348 228.108 319.258 227.904 319.291 227.88Z" fill="#EB996E"/>
<path d="M290.369 197.428C290.279 197.478 290.184 197.517 290.084 197.542C289.889 197.607 289.604 197.697 289.221 197.795C288.122 198.089 286.99 198.242 285.852 198.251C285.028 198.253 284.207 198.149 283.41 197.941C282.39 197.696 281.441 197.217 280.638 196.544C279.834 195.87 279.198 195.019 278.778 194.058C278.257 192.903 278.182 191.595 278.566 190.387L278.908 190.615C276.906 192.491 274.35 193.668 271.623 193.969C270.136 194.142 268.63 194.043 267.178 193.676C266.417 193.489 265.687 193.19 265.013 192.789C264.319 192.356 263.756 191.743 263.385 191.014C262.981 190.157 262.775 189.219 262.783 188.271C262.773 187.37 262.83 186.469 262.954 185.577C263.049 184.697 263.271 183.836 263.613 183.021C263.776 182.602 264.03 182.225 264.357 181.917C264.684 181.609 265.074 181.377 265.502 181.238L265.664 181.669C264.122 182.373 262.388 182.539 260.74 182.141C259.24 181.808 257.866 181.057 256.775 179.976C255.801 179.01 255.137 177.774 254.871 176.427C254.604 175.045 254.704 173.618 255.161 172.286C255.618 170.955 256.416 169.767 257.475 168.841C257.909 168.45 258.407 168.138 258.949 167.921C258.47 168.238 258.011 168.583 257.573 168.955C256.406 170.048 255.592 171.465 255.237 173.025C254.999 174.116 254.999 175.246 255.237 176.338C255.506 177.61 256.149 178.772 257.085 179.675C258.132 180.691 259.443 181.393 260.87 181.702C262.423 182.064 264.053 181.898 265.502 181.23L265.664 181.669C265.303 181.791 264.973 181.992 264.699 182.256C264.425 182.521 264.212 182.843 264.077 183.2C263.752 183.979 263.547 184.802 263.467 185.642C263.271 187.335 263.076 189.207 263.857 190.786C264.225 191.424 264.728 191.974 265.331 192.396C265.935 192.818 266.624 193.102 267.349 193.228C268.744 193.587 270.192 193.687 271.623 193.521C274.255 193.246 276.728 192.127 278.672 190.33L279.299 189.744L279.014 190.558C278.654 191.666 278.712 192.868 279.177 193.936C279.597 194.906 280.245 195.76 281.065 196.427C281.784 197.009 282.616 197.435 283.507 197.681C284.273 197.899 285.064 198.014 285.86 198.023C286.984 198.043 288.106 197.934 289.205 197.697C289.587 197.584 289.976 197.494 290.369 197.428Z" fill="white"/>
<path d="M260.391 197.281C260.391 197.281 260.211 197.468 259.796 197.664C259.201 197.945 258.557 198.105 257.9 198.136C256.908 198.208 255.919 197.972 255.067 197.46C254.527 197.14 254.135 196.619 253.976 196.011C253.887 195.671 253.899 195.312 254.01 194.978C254.122 194.644 254.327 194.35 254.603 194.131L254.847 194.546L254.684 194.619C253.667 195.06 252.565 195.271 251.456 195.239C250.348 195.207 249.26 194.931 248.27 194.432C247.672 194.138 247.123 193.753 246.642 193.292C246.308 192.959 246.162 192.747 246.186 192.723C246.88 193.26 247.624 193.729 248.408 194.123C249.363 194.549 250.395 194.773 251.44 194.781C252.484 194.79 253.52 194.582 254.481 194.172L254.627 194.106L256.809 193.17L254.872 194.53C254.675 194.693 254.529 194.91 254.451 195.153C254.373 195.397 254.367 195.658 254.432 195.905C254.564 196.396 254.874 196.82 255.303 197.094C256.077 197.572 256.974 197.815 257.883 197.794C258.741 197.754 259.586 197.581 260.391 197.281Z" fill="white"/>
<path d="M325.77 229.793C326.391 229.963 326.967 230.268 327.455 230.688C328.881 231.734 330.004 233.138 330.711 234.758C331.238 235.985 331.483 237.314 331.429 238.648C331.376 239.982 331.025 241.286 330.402 242.467C329.612 243.922 328.421 245.121 326.972 245.921C325.522 246.722 323.874 247.091 322.221 246.985C320.498 246.87 318.858 246.199 317.549 245.072C316.348 244.048 315.398 242.761 314.773 241.311C314.217 240.097 313.937 238.774 313.954 237.438C313.971 236.102 314.284 234.786 314.871 233.586C315.693 231.997 317.03 230.734 318.664 230.005C319.235 229.696 319.879 229.547 320.528 229.573C320.528 229.663 319.877 229.769 318.827 230.338C317.366 231.146 316.193 232.39 315.473 233.896C314.981 235.01 314.736 236.218 314.754 237.436C314.772 238.654 315.054 239.854 315.579 240.953C316.678 243.395 319.112 245.837 322.286 246.024C323.758 246.117 325.226 245.793 326.522 245.089C327.818 244.385 328.889 243.329 329.612 242.044C330.196 240.976 330.54 239.793 330.62 238.578C330.7 237.364 330.515 236.146 330.076 235.011C329.445 233.458 328.452 232.079 327.178 230.99C326.324 230.192 325.73 229.866 325.77 229.793Z" fill="#455A64"/>
<path d="M271.875 230.574C271.801 229.664 271.66 228.761 271.452 227.872C270.815 225.453 269.381 223.319 267.382 221.815C265.917 220.706 264.196 219.983 262.378 219.712C260.56 219.442 258.704 219.633 256.979 220.269C255.98 220.618 255.044 221.124 254.203 221.767C253.313 222.414 252.533 223.2 251.892 224.095C250.509 225.972 249.762 228.242 249.762 230.574C249.762 232.906 250.509 235.176 251.892 237.053C253.174 238.807 254.947 240.141 256.987 240.887C258.834 241.556 260.825 241.724 262.759 241.376C264.441 241.067 266.028 240.368 267.39 239.333C269.387 237.83 270.821 235.7 271.46 233.285C271.668 232.393 271.81 231.487 271.883 230.574C271.909 230.812 271.909 231.052 271.883 231.29C271.887 231.579 271.865 231.868 271.818 232.153C271.78 232.549 271.709 232.941 271.607 233.325C271.01 235.815 269.572 238.023 267.537 239.577C266.033 240.732 264.264 241.491 262.391 241.784C260.517 242.077 258.601 241.895 256.816 241.254C254.698 240.488 252.854 239.111 251.517 237.298C250.079 235.351 249.303 232.994 249.303 230.574C249.303 228.154 250.079 225.797 251.517 223.85C252.192 222.908 253.017 222.083 253.959 221.408C254.832 220.747 255.805 220.227 256.841 219.87C258.624 219.224 260.542 219.038 262.416 219.332C264.29 219.625 266.06 220.387 267.561 221.547C269.6 223.097 271.039 225.306 271.631 227.798C271.733 228.18 271.804 228.569 271.843 228.962C271.889 229.248 271.911 229.536 271.908 229.825C271.925 230.075 271.914 230.326 271.875 230.574Z" fill="#263238"/>
<path d="M300.651 228.67C300.571 227.757 300.427 226.851 300.22 225.959C299.585 223.541 298.15 221.41 296.15 219.911C294.684 218.801 292.964 218.078 291.146 217.808C289.328 217.538 287.471 217.729 285.747 218.364C284.748 218.714 283.811 219.219 282.971 219.862C282.078 220.509 281.295 221.295 280.651 222.19C279.27 224.068 278.526 226.339 278.526 228.67C278.526 231.001 279.27 233.271 280.651 235.149C281.295 236.044 282.078 236.83 282.971 237.477C283.799 238.129 284.725 238.645 285.714 239.007C287.557 239.682 289.546 239.853 291.477 239.504C293.163 239.197 294.753 238.497 296.117 237.461C298.116 235.957 299.55 233.824 300.187 231.405C300.39 230.515 300.531 229.612 300.61 228.702C300.63 228.941 300.63 229.18 300.61 229.419C300.613 229.707 300.591 229.996 300.545 230.281C300.502 230.674 300.432 231.063 300.334 231.445C299.825 233.531 298.729 235.428 297.178 236.913C295.626 238.397 293.682 239.406 291.575 239.821C289.58 240.203 287.519 240.04 285.608 239.349C284.573 238.99 283.601 238.471 282.727 237.811C281.786 237.134 280.962 236.309 280.285 235.369C278.846 233.422 278.07 231.066 278.07 228.645C278.07 226.225 278.846 223.868 280.285 221.922C280.962 220.981 281.786 220.156 282.727 219.48C283.601 218.819 284.573 218.3 285.608 217.941C287.392 217.309 289.305 217.136 291.173 217.437C293.041 217.739 294.803 218.505 296.296 219.667C298.333 221.219 299.771 223.427 300.366 225.918C300.464 226.304 300.535 226.695 300.578 227.09C300.624 227.376 300.646 227.664 300.643 227.953C300.665 228.191 300.668 228.431 300.651 228.67Z" fill="#263238"/>
<path d="M278.728 226.317C278.68 226.374 278.33 226.073 277.678 225.772C276.824 225.385 275.887 225.217 274.952 225.284C274.016 225.351 273.113 225.65 272.322 226.155C271.72 226.545 271.411 226.887 271.354 226.846C271.297 226.806 271.549 226.391 272.168 225.91C272.965 225.292 273.929 224.927 274.935 224.86C275.943 224.787 276.951 225.011 277.833 225.503C278.476 225.902 278.761 226.293 278.728 226.317Z" fill="#263238"/>
<path d="M315.969 218.787C315.969 218.893 312.428 220.041 307.984 221.335C305.322 222.185 302.619 222.899 299.885 223.476C302.501 222.491 305.167 221.641 307.87 220.928C310.532 220.077 313.235 219.363 315.969 218.787Z" fill="#263238"/>
<path d="M259.87 238.738C259.687 238.777 259.498 238.777 259.316 238.738C258.813 238.673 258.319 238.553 257.843 238.38C256.242 237.808 254.868 236.738 253.92 235.327C252.972 233.916 252.501 232.239 252.576 230.541C252.596 230.035 252.673 229.533 252.804 229.043C252.838 228.858 252.907 228.682 253.008 228.522C253.081 228.522 252.861 229.336 252.877 230.549C252.883 232.168 253.368 233.749 254.27 235.094C255.172 236.438 256.452 237.485 257.949 238.103C259.096 238.584 259.886 238.665 259.87 238.738Z" fill="white"/>
<path d="M281.896 235.938C281.896 235.938 281.7 235.8 281.432 235.466C281.059 235.001 280.735 234.499 280.463 233.969C279.539 232.2 279.135 230.205 279.296 228.216C279.458 226.227 280.178 224.324 281.375 222.727C281.727 222.245 282.128 221.8 282.571 221.4C282.889 221.116 283.084 220.985 283.1 221.01C283.117 221.034 282.449 221.677 281.619 222.898C280.527 224.488 279.87 226.336 279.714 228.258C279.559 230.18 279.909 232.11 280.732 233.855C281.35 235.181 281.953 235.898 281.896 235.938Z" fill="white"/>
<path d="M285.657 238.014C285.6 238.12 285.209 238.014 284.769 237.811C284.33 237.607 284.029 237.33 284.077 237.225C284.126 237.119 284.525 237.225 284.965 237.428C285.404 237.632 285.714 237.908 285.657 238.014Z" fill="white"/>
<path d="M213.21 406.48H100.528L83.5565 328.889C83.364 328.006 83.3722 327.092 83.5804 326.212C83.7886 325.333 84.1915 324.511 84.7594 323.808C85.3273 323.105 86.0457 322.538 86.8617 322.15C87.6777 321.761 88.5705 321.561 89.4743 321.563L189.36 321.783C190.731 321.783 192.06 322.25 193.13 323.107C194.2 323.964 194.946 325.159 195.245 326.496L213.21 406.48Z" fill="#E0E0E0"/>
<path d="M213.211 406.48H266.544C266.544 404.662 265.822 402.919 264.537 401.633C263.251 400.348 261.508 399.626 259.69 399.626H207.146L213.211 406.48Z" fill="#E0E0E0"/>
<path d="M207.145 406.48C207.111 406.412 207.084 406.341 207.064 406.268C207.064 406.097 206.958 405.886 206.885 405.633C206.73 405.039 206.51 404.217 206.234 403.191C205.68 401.067 204.899 397.974 203.954 394.148C202.074 386.496 199.591 375.906 196.922 364.184C194.252 352.463 191.81 341.865 190.003 334.197L187.854 325.121L187.284 322.679C187.227 322.41 187.178 322.198 187.137 322.027C187.097 321.856 187.137 321.808 187.137 321.808C187.171 321.875 187.199 321.946 187.219 322.019C187.219 322.19 187.324 322.394 187.398 322.654C187.552 323.248 187.772 324.071 188.049 325.096C188.602 327.229 189.384 330.322 190.328 334.148C192.208 341.791 194.691 352.39 197.361 364.111C200.031 375.833 202.473 386.431 204.28 394.091L206.429 403.167C206.673 404.217 206.86 405.047 206.999 405.609C207.056 405.869 207.105 406.081 207.145 406.252C207.186 406.423 207.145 406.472 207.145 406.48Z" fill="#263238"/>
<path d="M141.831 355.409C140.04 355.027 138.33 356.671 137.932 358.462C137.716 359.466 137.799 360.512 138.169 361.471C138.539 362.429 139.181 363.259 140.015 363.858C140.871 364.42 141.881 364.698 142.904 364.654C143.926 364.611 144.909 364.247 145.713 363.614C146.487 362.94 147.01 362.022 147.194 361.012C147.379 360.002 147.216 358.96 146.731 358.055C145.697 356.288 141.912 354.734 140.081 355.613" fill="white"/>
</svg>
