<svg width="345" height="346" viewBox="0 0 345 346" fill="none" xmlns="http://www.w3.org/2000/svg">
<path d="M89.0109 133.738C90.0011 133.14 91.066 132.676 92.178 132.358L92.8266 129.225L98.1189 129.136L98.8779 132.241C100 132.519 101.081 132.944 102.093 133.503L104.764 131.751L108.572 135.429L106.916 138.189C107.514 139.179 107.978 140.244 108.296 141.356L111.429 142.004L111.519 147.297L108.414 148.056C108.142 149.18 107.717 150.262 107.151 151.271L108.904 153.941L105.226 157.75L102.466 156.094C101.478 156.692 100.415 157.156 99.3057 157.474L98.6502 160.607L93.3579 160.696L92.5989 157.591C91.4767 157.319 90.3971 156.894 89.3904 156.329L86.7132 158.081L82.9044 154.404L84.5673 151.644C83.967 150.657 83.5029 149.594 83.1873 148.483L80.0409 147.821L79.9512 142.529L83.0562 141.77C83.3345 140.649 83.7591 139.571 84.3189 138.561L82.5663 135.884L86.244 132.075L89.004 133.738H89.0109ZM91.833 140.783C91.0518 141.59 90.5278 142.611 90.3271 143.717C90.1264 144.822 90.258 145.962 90.7054 146.993C91.1528 148.023 91.8958 148.898 92.8404 149.506C93.785 150.114 94.8888 150.428 96.012 150.409C97.1353 150.39 98.2276 150.038 99.1508 149.398C100.074 148.757 100.786 147.858 101.198 146.812C101.61 145.767 101.702 144.623 101.464 143.525C101.225 142.427 100.666 141.425 99.8577 140.645C98.7736 139.6 97.3191 139.027 95.8133 139.053C94.3076 139.079 92.8736 139.701 91.8261 140.783H91.833Z" fill="#E0E0E0"/>
<path d="M42.5317 185.185H31.9609V218.208H42.5317V185.185Z" fill="#F5F5F5"/>
<path d="M58.3188 192.726H47.748V218.208H58.3188V192.726Z" fill="#F5F5F5"/>
<path d="M72.9341 203.076H62.3633V218.208H72.9341V203.076Z" fill="#F5F5F5"/>
<path d="M301.723 278.417C301.722 275.157 300.846 271.957 299.185 269.151C297.525 266.345 295.142 264.036 292.285 262.465C289.428 260.895 286.201 260.121 282.942 260.223C279.684 260.325 276.512 261.301 273.759 263.047C271.006 264.794 268.772 267.248 267.291 270.152C265.811 273.057 265.137 276.306 265.34 279.56C265.544 282.814 266.617 285.954 268.449 288.651C270.28 291.348 272.802 293.505 275.751 294.895V299.49H291.711C291.711 299.49 291.808 296.909 291.849 294.605C294.823 293.074 297.317 290.753 299.059 287.898C300.801 285.042 301.723 281.762 301.723 278.417Z" fill="#F5F5F5"/>
<path d="M290.49 302.45H276.78C276.645 302.45 276.511 302.423 276.387 302.371C276.262 302.32 276.149 302.244 276.053 302.149C275.958 302.053 275.882 301.94 275.83 301.815C275.779 301.69 275.752 301.557 275.752 301.422C275.752 301.287 275.779 301.153 275.83 301.028C275.882 300.903 275.958 300.79 276.053 300.695C276.149 300.599 276.262 300.523 276.387 300.472C276.511 300.42 276.645 300.394 276.78 300.394H290.49C290.763 300.394 291.025 300.502 291.217 300.695C291.41 300.887 291.518 301.149 291.518 301.422C291.518 301.694 291.41 301.956 291.217 302.149C291.025 302.341 290.763 302.45 290.49 302.45Z" fill="#E0E0E0"/>
<path d="M290.489 303.34H276.779C276.505 303.34 276.241 303.449 276.047 303.643C275.853 303.837 275.744 304.1 275.744 304.375C275.744 304.649 275.853 304.913 276.047 305.107C276.241 305.301 276.505 305.41 276.779 305.41H278.283L280.284 309.212C280.397 309.422 280.566 309.597 280.771 309.719C280.977 309.841 281.212 309.904 281.45 309.902H286.349C286.589 309.904 286.825 309.841 287.032 309.72C287.239 309.598 287.408 309.423 287.522 309.212L289.461 305.424H290.489C290.764 305.424 291.027 305.315 291.221 305.12C291.415 304.926 291.524 304.663 291.524 304.389C291.524 304.114 291.415 303.851 291.221 303.657C291.027 303.463 290.764 303.354 290.489 303.354V303.34Z" fill="#E0E0E0"/>
<path d="M287.268 309.509C287.268 309.509 286.909 309.385 286.33 309.219C284.811 308.779 283.192 308.825 281.7 309.35C281.398 309.481 281.089 309.596 280.775 309.695C281.033 309.48 281.328 309.314 281.645 309.205C282.392 308.895 283.189 308.725 283.998 308.702C284.807 308.676 285.614 308.8 286.378 309.067C286.7 309.158 287.001 309.308 287.268 309.509Z" fill="#FAFAFA"/>
<path d="M289.489 305.444C289.489 305.506 287.012 305.555 283.969 305.555C280.926 305.555 278.449 305.506 278.449 305.444C278.449 305.382 280.926 305.334 283.969 305.334C287.012 305.334 289.489 305.382 289.489 305.444Z" fill="#FAFAFA"/>
<path d="M288.634 307.066C288.191 307.157 287.74 307.203 287.288 307.204C286.453 307.259 285.294 307.308 284.018 307.328C282.741 307.349 281.582 307.328 280.747 307.328C280.285 307.34 279.823 307.305 279.367 307.225C279.825 307.17 280.286 307.152 280.747 307.17L284.018 307.128L287.281 307.073C287.732 307.041 288.183 307.038 288.634 307.066Z" fill="#FAFAFA"/>
<path d="M298.93 272.938C299.095 273.227 299.219 273.539 299.295 273.863C299.56 274.725 299.745 275.61 299.847 276.506C300.205 279.494 299.734 282.523 298.487 285.263C297.24 288.002 295.264 290.345 292.775 292.038C292.031 292.55 291.241 292.991 290.415 293.356C290.118 293.508 289.802 293.621 289.477 293.694C289.477 293.611 290.774 293.114 292.595 291.789C294.98 290.072 296.875 287.762 298.093 285.087C299.31 282.413 299.808 279.466 299.537 276.54C299.396 275.33 299.193 274.128 298.93 272.938Z" fill="white"/>
<path d="M287.088 264.079C286.723 262.83 285.281 262.009 283.521 261.975C280.606 262.219 277.779 263.1 275.241 264.555C273.523 265.566 272.031 266.919 270.856 268.529C269.681 270.14 268.849 271.974 268.41 273.919C268.216 274.637 268.19 275.39 268.334 276.12C268.414 276.499 268.588 276.852 268.842 277.145C269.095 277.439 269.419 277.663 269.783 277.796C270.145 277.882 270.521 277.879 270.881 277.789C271.241 277.699 271.575 277.524 271.853 277.279C272.406 276.782 272.86 276.185 273.192 275.519C273.934 273.995 274.761 272.514 275.669 271.083C276.577 269.622 278.008 268.563 279.671 268.123C280.761 267.881 281.741 267.86 282.845 267.626C284.225 267.329 285.081 267.357 286.033 266.763C286.423 266.443 286.726 266.029 286.911 265.559C287.095 265.089 287.157 264.579 287.088 264.079Z" fill="white"/>
<path d="M272.046 281.86C272.046 282.269 271.925 282.67 271.697 283.01C271.47 283.35 271.147 283.616 270.768 283.772C270.39 283.929 269.974 283.97 269.572 283.89C269.171 283.81 268.802 283.613 268.513 283.324C268.223 283.034 268.026 282.665 267.946 282.264C267.866 281.862 267.907 281.446 268.064 281.068C268.22 280.69 268.486 280.366 268.826 280.139C269.167 279.911 269.567 279.79 269.976 279.79C270.525 279.79 271.052 280.008 271.44 280.396C271.828 280.785 272.046 281.311 272.046 281.86Z" fill="white"/>
<path d="M289.158 299.545C289.158 299.545 289.11 299.304 289.047 298.855C288.985 298.407 288.889 297.648 288.785 296.785C288.558 294.936 288.247 292.355 287.868 289.195C287.702 287.581 287.433 285.856 287.295 283.931C287.274 283.409 287.46 282.901 287.812 282.516C288.003 282.306 288.264 282.172 288.546 282.141C288.828 282.109 289.112 282.181 289.344 282.344C289.771 282.687 290.05 283.181 290.124 283.724C290.183 284.271 290.112 284.824 289.917 285.338C289.497 286.402 288.677 287.26 287.633 287.726C287.088 287.974 286.493 288.093 285.895 288.074C285.297 288.055 284.711 287.898 284.183 287.615C283.094 287.037 282.267 286.065 281.871 284.897C281.659 284.302 281.584 283.668 281.651 283.04C281.693 282.712 281.811 282.398 281.996 282.123C282.097 281.978 282.23 281.859 282.384 281.773C282.538 281.687 282.71 281.636 282.886 281.626C283.061 281.626 283.234 281.662 283.394 281.732C283.554 281.802 283.698 281.905 283.817 282.033C284.049 282.262 284.235 282.534 284.362 282.833C284.595 283.415 284.71 284.036 284.7 284.662C284.731 285.275 284.635 285.887 284.417 286.46C284.2 287.034 283.866 287.556 283.438 287.995C283.016 288.423 282.483 288.725 281.899 288.866C281.315 289.008 280.703 288.983 280.133 288.795C279.103 288.35 278.254 287.569 277.725 286.58C277.457 286.114 277.244 285.619 277.09 285.104C276.91 284.597 276.853 284.056 276.924 283.523C276.97 283.245 277.1 282.987 277.297 282.785C277.41 282.685 277.553 282.622 277.703 282.606C277.854 282.59 278.006 282.621 278.139 282.695C278.525 283.036 278.771 283.508 278.829 284.02C279.322 285.721 279.648 287.466 279.801 289.23C280.025 291.779 279.892 294.348 279.408 296.861C279.24 297.78 279.01 298.686 278.718 299.573C278.718 299.573 278.76 299.324 278.877 298.883C278.994 298.441 279.146 297.737 279.305 296.847C279.745 294.342 279.842 291.789 279.594 289.257C279.431 287.513 279.098 285.79 278.601 284.11C278.47 283.661 278.346 283.158 277.994 282.944C277.909 282.896 277.812 282.876 277.716 282.886C277.619 282.896 277.528 282.935 277.455 282.999C277.301 283.162 277.202 283.37 277.173 283.592C277.109 284.079 277.166 284.575 277.338 285.035C277.486 285.531 277.693 286.008 277.952 286.456C278.448 287.401 279.251 288.148 280.229 288.574C280.749 288.742 281.306 288.761 281.836 288.629C282.367 288.498 282.85 288.221 283.231 287.829C283.629 287.42 283.938 286.933 284.138 286.398C284.339 285.864 284.427 285.294 284.397 284.724C284.404 284.138 284.296 283.557 284.079 283.013C283.859 282.502 283.424 281.978 282.9 281.992C282.375 282.005 282.023 282.585 281.954 283.144C281.899 283.723 281.969 284.306 282.161 284.855C282.534 285.948 283.309 286.858 284.328 287.401C284.811 287.661 285.347 287.807 285.895 287.826C286.443 287.845 286.988 287.737 287.488 287.512C288.64 287.753 289.317 286.456 289.627 285.297C289.809 284.825 289.878 284.317 289.827 283.813C289.766 283.332 289.518 282.893 289.137 282.592C288.957 282.465 288.736 282.409 288.517 282.435C288.299 282.46 288.097 282.565 287.95 282.73C287.647 283.068 287.486 283.511 287.502 283.965C287.633 285.821 287.881 287.601 288.04 289.195C288.378 292.362 288.654 294.943 288.854 296.785C288.937 297.641 289.006 298.331 289.061 298.855C289.151 299.297 289.158 299.545 289.158 299.545Z" fill="#E0E0E0"/>
<path d="M291.871 47.1087L299.923 47.8953C299.923 47.8953 300.579 41.1333 307.617 41.6853C308.976 41.7676 310.275 42.2718 311.334 43.1277C312.393 43.9836 313.158 45.1485 313.523 46.4601C313.845 47.5567 313.904 48.7139 313.694 49.8374C313.484 50.9608 313.012 52.0189 312.316 52.9254C310.729 55.0437 307.486 57.024 302.18 55.5405L300.434 73.4805L308.431 74.2533L309.466 63.6204C309.466 63.6204 320.851 61.8195 322.079 49.5168C323.225 37.7385 312.516 33.9366 307.023 33.4053C303.601 33.0672 293.099 32.8947 291.871 47.1087Z" fill="#F5F5F5"/>
<path d="M300.053 77.2099L299.318 84.7573L307.395 85.5435L308.129 77.9961L300.053 77.2099Z" fill="#F5F5F5"/>
<path d="M288.662 46.7982L296.701 47.5848C296.701 47.5848 297.391 40.8228 304.401 41.3748C305.758 41.4595 307.056 41.9647 308.113 42.8204C309.17 43.676 309.935 44.8396 310.301 46.1496C310.629 47.245 310.693 48.4025 310.488 49.5275C310.283 50.6525 309.815 51.7129 309.121 52.6218C307.534 54.7401 304.346 56.4927 299.012 55.0092L297.246 73.1631L305.208 73.9359L306.243 63.303C306.243 63.303 317.67 61.5021 318.863 49.2201C320.009 37.4487 309.721 33.6882 305.201 33.2466C301.745 32.8878 289.89 32.5773 288.662 46.7982Z" fill="#EBEBEB"/>
<path d="M296.832 76.895L296.098 84.4424L304.174 85.2286L304.909 77.6812L296.832 76.895Z" fill="#EBEBEB"/>
<path d="M171.162 27.7263C172.176 27.1732 173.26 26.7578 174.384 26.4912L175.178 23.3931L180.47 23.5449L181.091 26.6775C182.196 26.9975 183.254 27.4614 184.237 28.0575L186.99 26.4498L190.627 30.2931L188.847 32.9496C189.397 33.9643 189.81 35.0479 190.075 36.1719L193.2 36.9723L193.056 42.2646L189.916 42.8856C189.598 43.9909 189.134 45.049 188.536 46.032L190.164 48.792L186.3 52.4214L183.644 50.6412C182.63 51.1932 181.546 51.6063 180.422 51.8694L179.628 54.9744L174.343 54.8226L173.722 51.6831C172.612 51.3706 171.551 50.9062 170.568 50.3031L167.808 51.9384L164.172 48.0951L165.952 45.4386C165.398 44.4222 164.983 43.3362 164.717 42.2094L161.619 41.4228L161.764 36.1305L164.904 35.5095C165.222 34.4041 165.686 33.346 166.284 32.3631L164.655 29.6031L168.498 25.9668L171.155 27.747L171.162 27.7263ZM173.66 34.8954C172.843 35.6672 172.275 36.6638 172.025 37.759C171.775 38.8542 171.856 39.9989 172.257 41.0483C172.658 42.0976 173.361 43.0044 174.277 43.6541C175.194 44.3037 176.282 44.6669 177.405 44.6978C178.528 44.7287 179.635 44.4259 180.586 43.8276C181.537 43.2294 182.289 42.3626 182.747 41.3369C183.205 40.3112 183.348 39.1727 183.159 38.0654C182.97 36.9581 182.457 35.9317 181.684 35.1162C180.649 34.0233 179.222 33.3861 177.718 33.3447C176.213 33.3033 174.753 33.8611 173.66 34.8954Z" fill="#E0E0E0"/>
<path d="M139.939 23.8073C140.642 23.3825 141.398 23.053 142.188 22.8275L142.65 20.5988L146.425 20.5298L146.963 22.7447C147.762 22.9421 148.533 23.2437 149.254 23.6417L151.158 22.3928L153.87 25.0148L152.69 26.9606C153.113 27.6647 153.442 28.4209 153.67 29.21L155.898 29.6723L155.96 33.4397L153.752 33.9848C153.556 34.7834 153.252 35.5517 152.849 36.2687L154.097 38.18L151.482 40.8917L149.537 39.7118C148.832 40.1382 148.073 40.4678 147.28 40.6916L146.818 42.9203L143.051 42.9893L142.505 40.7744C141.705 40.58 140.934 40.2783 140.215 39.8774L138.31 41.1263L135.599 38.5043L136.785 36.5585C136.358 35.8569 136.028 35.1 135.806 34.3091L133.57 33.8399L133.508 30.0725L135.716 29.5274C135.916 28.7297 136.22 27.9619 136.62 27.2435L135.371 25.3391L138 22.6274L139.952 23.8073H139.939ZM141.947 28.8305C141.391 29.4059 141.018 30.1332 140.876 30.9204C140.734 31.7076 140.828 32.5193 141.147 33.2529C141.467 33.9864 141.996 34.6087 142.669 35.0411C143.342 35.4736 144.128 35.6967 144.928 35.6822C145.728 35.6677 146.506 35.4163 147.162 34.9597C147.819 34.5032 148.326 33.8621 148.618 33.1175C148.911 32.3729 148.976 31.5583 148.805 30.7768C148.635 29.9952 148.236 29.2819 147.66 28.727C147.278 28.3582 146.827 28.0682 146.334 27.8738C145.84 27.6794 145.312 27.5842 144.782 27.5938C144.251 27.6034 143.727 27.7176 143.241 27.9298C142.754 28.142 142.315 28.4481 141.947 28.8305Z" fill="#F5F5F5"/>
<path d="M202.86 132.931C203.565 132.509 204.321 132.179 205.11 131.951L205.579 129.722L209.346 129.66L209.892 131.868C210.69 132.065 211.458 132.369 212.175 132.772L214.08 131.523L216.792 134.138L215.612 136.084C216.035 136.79 216.365 137.549 216.591 138.34L218.82 138.803L218.889 142.577L216.674 143.115C216.477 143.915 216.175 144.685 215.777 145.406L217.026 147.31L214.404 150.022L212.458 148.842C211.753 149.266 210.994 149.593 210.202 149.815L209.74 152.051L205.972 152.113L205.427 149.905C204.63 149.705 203.862 149.401 203.143 149.001L201.239 150.25L198.527 147.635L199.707 145.689C199.281 144.984 198.951 144.225 198.727 143.433L196.499 142.97L196.43 139.196L198.645 138.658C198.839 137.857 199.141 137.087 199.542 136.367L198.293 134.463L200.915 131.751L202.86 132.931ZM204.868 137.954C204.314 138.53 203.942 139.257 203.801 140.044C203.659 140.831 203.754 141.642 204.074 142.375C204.393 143.108 204.923 143.73 205.595 144.162C206.268 144.594 207.054 144.817 207.853 144.802C208.653 144.788 209.43 144.537 210.087 144.081C210.743 143.624 211.25 142.984 211.543 142.24C211.836 141.496 211.901 140.682 211.731 139.9C211.561 139.119 211.164 138.406 210.589 137.85C210.206 137.476 209.752 137.182 209.254 136.984C208.757 136.787 208.225 136.69 207.69 136.699C207.154 136.709 206.626 136.825 206.136 137.04C205.646 137.256 205.203 137.566 204.834 137.954H204.868Z" fill="#F5F5F5"/>
<path d="M318.655 324.295C318.655 324.398 253.216 324.474 172.506 324.474C91.7971 324.474 26.3438 324.398 26.3438 324.295C26.3438 324.191 91.7695 324.115 172.5 324.115C253.23 324.115 318.655 324.198 318.655 324.295Z" fill="#263238"/>
<path d="M31.707 297.529L36.9786 324.191L64.3854 324.17L70.1745 297.971L31.707 297.529Z" fill="#349F6E"/>
<path d="M28.5605 293.479V297.198C28.5615 297.497 28.6212 297.793 28.7365 298.069C28.8518 298.345 29.0203 298.596 29.2323 298.806C29.4444 299.017 29.6959 299.184 29.9726 299.298C30.2492 299.411 30.5454 299.469 30.8444 299.468H70.5194C70.8181 299.469 71.1141 299.411 71.3903 299.298C71.6665 299.184 71.9176 299.017 72.1291 298.806C72.3406 298.595 72.5085 298.344 72.623 298.069C72.7375 297.793 72.7964 297.497 72.7964 297.198V293.479C72.7964 292.93 72.5784 292.404 72.1902 292.015C71.802 291.627 71.2754 291.409 70.7264 291.409H30.6236C30.0758 291.411 29.5511 291.63 29.1644 292.018C28.7777 292.406 28.5605 292.931 28.5605 293.479Z" fill="#349F6E"/>
<g opacity="0.4">
<path d="M32.0039 299.461L32.3282 301.303L68.9396 303.898L69.8642 299.461H32.0039Z" fill="black"/>
</g>
<path d="M66.5173 312.172C66.5173 312.268 59.4241 312.351 50.6473 312.351C41.8705 312.351 34.7773 312.268 34.7773 312.172C34.7773 312.075 41.8636 311.992 50.6473 311.992C59.431 311.992 66.5173 312.068 66.5173 312.172Z" fill="white"/>
<path d="M66.724 314.387C66.724 314.483 59.6377 314.566 50.854 314.566C42.0703 314.566 35.0254 314.483 35.0254 314.387C35.0254 314.29 42.1462 314.18 50.8885 314.18C59.6308 314.18 66.724 314.283 66.724 314.387Z" fill="white"/>
<path d="M34.5352 291.444C34.5352 291.444 19.1068 273.738 20.8249 273.097C22.543 272.455 36.2464 282.274 36.2464 282.274C36.2464 282.274 24.4681 256.054 26.821 254.108C29.1739 252.162 41.6008 277.361 41.6008 277.361C41.6008 277.361 39.6757 240.667 41.6008 240.246C43.5259 239.825 50.5708 276.94 50.5708 276.94C50.5708 276.94 61.0726 243.013 64.0672 243.013C67.0618 243.013 60.8587 275.657 60.8587 275.657C60.8587 275.657 73.2787 254.75 75.2107 257.523C77.1427 260.297 66.427 282.908 66.427 282.908C66.427 282.908 82.1107 269.895 82.7317 271.606C83.3527 273.317 65.8129 291.444 65.8129 291.444H34.5352Z" fill="#455A64"/>
<path d="M32.3823 264.776C32.4858 264.727 35.2251 270.572 38.4888 277.824C41.7525 285.075 44.3262 290.996 44.2158 291.044C44.1054 291.092 41.373 285.248 38.1093 277.996C34.8456 270.744 32.2719 264.824 32.3823 264.776Z" fill="#263238"/>
<path d="M44.8502 268.039C44.9675 268.039 45.4229 273.18 45.8645 279.541C46.3061 285.903 46.5545 291.057 46.4579 291.064C46.3613 291.071 45.8852 285.931 45.4436 279.569C45.002 273.207 44.726 268.046 44.8502 268.039Z" fill="#263238"/>
<path d="M62.0308 251.604C62.0176 251.747 61.9875 251.888 61.9411 252.024C61.8445 252.335 61.7341 252.714 61.5961 253.191C61.2787 254.26 60.8371 255.702 60.3127 257.462C59.2225 261.07 57.7597 266.073 56.2693 271.627C54.7789 277.182 53.5507 282.24 52.6882 285.91L51.667 290.257C51.5497 290.733 51.4531 291.12 51.3772 291.437C51.3521 291.578 51.308 291.715 51.2461 291.844C51.2463 291.7 51.2625 291.557 51.2944 291.417C51.3496 291.099 51.4186 290.727 51.5083 290.223C51.6946 289.188 51.9982 287.691 52.3984 285.848C53.185 282.157 54.3718 277.078 55.8484 271.517C57.325 265.956 58.8499 260.967 59.9884 257.379C60.568 255.578 61.0579 254.136 61.4098 253.135L61.8238 251.997C61.8744 251.857 61.9441 251.724 62.0308 251.604Z" fill="#263238"/>
<path d="M69.4624 270.522C69.559 270.584 66.5437 275.056 62.7349 280.507C58.9261 285.958 55.759 290.318 55.6624 290.249C55.5658 290.18 58.5811 285.709 62.3899 280.265C66.1987 274.821 69.3658 270.453 69.4624 270.522Z" fill="#263238"/>
<path d="M39.7372 291.071C39.2348 290.817 38.7703 290.494 38.3572 290.112C37.3288 289.265 36.3475 288.362 35.4178 287.407C34.4847 286.461 33.6047 285.463 32.782 284.419C32.406 284.009 32.0942 283.543 31.8574 283.039C31.954 282.963 33.5548 284.895 35.7214 287.103C37.888 289.311 39.82 290.974 39.7372 291.071Z" fill="#263238"/>
<path d="M49.1084 284.033C49.2257 284.033 49.4672 285.662 49.6535 287.683C49.8398 289.705 49.895 291.368 49.7777 291.375C49.6604 291.382 49.4189 289.753 49.2326 287.725C49.0463 285.696 48.9911 284.047 49.1084 284.033Z" fill="#263238"/>
<path d="M31.4371 50.1931C32.1979 46.3123 33.7566 42.6319 36.0143 39.3851C38.2721 36.1383 41.1798 33.3959 44.553 31.3317C47.9262 29.2676 51.6915 27.9267 55.6101 27.394C59.5287 26.8613 63.5152 27.1485 67.3171 28.2373C82.7455 32.6809 91.6051 49.5652 86.4784 64.8073C84.8325 69.7221 81.8709 74.0918 77.9155 77.4412C77.7789 77.5592 77.6361 77.6697 77.4877 77.7724H77.4463C70.7973 82.416 62.6757 84.4587 54.6211 83.5132C52.0108 83.2043 49.4642 82.4921 47.0725 81.4018C41.3853 78.6572 36.7669 74.1068 33.9383 68.461C31.1098 62.8151 30.2303 56.3915 31.4371 50.1931Z" fill="white"/>
<path d="M31.4365 50.1931C31.4365 50.1931 31.4365 50.3449 31.3813 50.6485C31.3261 50.9521 31.2778 51.4075 31.195 51.9871C30.9864 53.7083 30.924 55.4441 31.0087 57.1759C31.196 59.9129 31.7603 62.6109 32.6854 65.1937C33.9215 68.6148 35.7945 71.7709 38.2054 74.4949C38.8865 75.2681 39.6147 75.9986 40.3858 76.6822C41.1764 77.4212 42.0105 78.1125 42.8836 78.7522C43.3183 79.0834 43.8013 79.3594 44.2636 79.6699L44.9536 80.1253C45.1951 80.2702 45.4504 80.3944 45.6988 80.5324L47.2306 81.3328C47.755 81.5743 48.3001 81.802 48.8521 82.0228C53.6381 83.6695 58.7636 84.0755 63.7492 83.2027C66.4385 82.7481 69.0617 81.9649 71.56 80.8705C72.852 80.3123 74.108 79.6739 75.3205 78.9592C75.9346 78.6004 76.5349 78.214 77.1352 77.8207C77.7241 77.4097 78.2759 76.948 78.7843 76.4407C83.1971 72.3507 86.1693 66.9436 87.2575 61.0261C87.8369 58.0463 87.9046 54.9896 87.4576 51.9871C87.2502 50.5201 86.9389 49.0698 86.5261 47.647C86.2777 46.957 86.0362 46.267 85.7947 45.577C85.6775 45.2319 85.5369 44.8954 85.3738 44.5696L84.9184 43.5829C83.7105 41.0098 82.1166 38.6364 80.1919 36.5449L79.5019 35.7652L78.7429 35.0752C78.2254 34.6198 77.7493 34.123 77.218 33.6952C76.1722 32.8476 75.0678 32.0751 73.9129 31.3837C69.5825 28.7587 64.6178 27.3655 59.554 27.3541C58.4011 27.3405 57.2486 27.4028 56.104 27.5404C55.542 27.589 54.984 27.6766 54.4342 27.8026L52.7989 28.1131C51.7501 28.4305 50.7289 28.6996 49.7146 29.0584L48.2656 29.6518C47.79 29.825 47.3286 30.0349 46.8856 30.2797C43.6281 31.8887 40.7023 34.096 38.2606 36.7864C37.2812 37.9052 36.3863 39.0952 35.5834 40.3468L35.0314 41.1955C34.8349 41.4416 34.6573 41.7022 34.5001 41.9752L33.6928 43.5691C33.5686 43.8244 33.4375 44.0659 33.3271 44.3074L33.0511 44.9974L32.5543 46.3084C32.2864 46.9811 32.0695 47.673 31.9057 48.3784C31.747 48.9442 31.6297 49.3789 31.5469 49.6825C31.4641 49.9861 31.4158 50.131 31.4158 50.131C31.4158 50.131 31.4158 49.9723 31.5124 49.6756L31.8298 48.3577C31.9852 47.6397 32.1928 46.9341 32.4508 46.2463L32.9338 44.9215C33.0235 44.6869 33.1132 44.4454 33.2029 44.1901C33.2926 43.9348 33.4444 43.7071 33.5686 43.4518L34.3621 41.8372C34.4982 41.5466 34.6574 41.2674 34.8382 41.0023L35.3833 40.1467C36.1805 38.8799 37.0732 37.6758 38.0536 36.5449C40.5015 33.8185 43.4417 31.5782 46.72 29.9416C47.1642 29.6953 47.6254 29.4809 48.1 29.2999L49.5559 28.6996C50.5564 28.3339 51.6259 28.0579 52.6678 27.7336L54.3169 27.4162C54.8742 27.2895 55.4387 27.1974 56.0074 27.1402C62.2814 26.4082 68.622 27.7612 74.0509 30.9904C75.2195 31.6886 76.3377 32.4679 77.3974 33.3226C77.9356 33.7435 78.4186 34.2472 78.943 34.7026L79.7089 35.3926L80.3989 36.1792C82.3479 38.2955 83.9626 40.6967 85.1875 43.3L85.6498 44.3005C85.8164 44.6303 85.9594 44.9715 86.0776 45.3217C86.3191 46.0117 86.5675 46.7017 86.8159 47.3917C87.2366 48.832 87.5525 50.301 87.7612 51.787C88.255 54.8601 88.2106 57.9957 87.6301 61.0537C86.5293 67.0486 83.5181 72.5264 79.0465 76.6684C78.5212 77.1761 77.9533 77.6378 77.3491 78.0484C76.7419 78.4486 76.1416 78.8419 75.5137 79.1938C71.9102 81.319 67.9491 82.7687 63.8251 83.4718C58.7833 84.3398 53.6037 83.9172 48.7693 82.2436C48.2104 82.0366 47.6584 81.8089 47.1271 81.5536L45.5401 80.7532C45.2917 80.6152 45.0295 80.491 44.788 80.3461L44.098 79.8769C43.6288 79.5664 43.1389 79.2835 42.718 78.9523C41.8425 78.3101 41.0039 77.619 40.2064 76.8823C39.4326 76.187 38.7021 75.445 38.0191 74.6605C35.597 71.9082 33.7234 68.7184 32.4991 65.2627C31.5859 62.6578 31.0401 59.9383 30.8776 57.1828C30.8046 55.4448 30.8854 53.7039 31.1191 51.9802C31.2157 51.4006 31.2916 50.959 31.3468 50.6416C31.402 50.3242 31.4365 50.1931 31.4365 50.1931Z" fill="#263238"/>
<path d="M81.1577 83.4785C81.1991 83.4785 81.1577 83.0438 81.3785 82.3055C81.6714 81.2653 82.2996 80.3508 83.1656 79.7042C83.7992 79.2349 84.5396 78.9305 85.3201 78.8184C86.1006 78.7064 86.8967 78.7903 87.6368 79.0625C88.51 79.3788 89.2674 79.9512 89.8103 80.7047C90.3946 81.5063 90.7095 82.4727 90.7095 83.4647C90.7095 84.4567 90.3946 85.4231 89.8103 86.2247C89.4417 86.7304 88.9764 87.1579 88.4414 87.4824C87.9064 87.8068 87.3123 88.0218 86.6935 88.1149C86.0748 88.208 85.4437 88.1773 84.8369 88.0245C84.2301 87.8718 83.6596 87.6001 83.1586 87.2252C82.2932 86.5811 81.6649 85.669 81.3716 84.6308C81.1715 83.8925 81.1922 83.4509 81.1508 83.4578C81.1342 83.5607 81.1342 83.6655 81.1508 83.7683C81.1502 84.0703 81.1849 84.3714 81.2543 84.6653C81.5034 85.7631 82.1282 86.7393 83.0207 87.4253C83.9836 88.1674 85.1825 88.5362 86.3961 88.4636C87.6097 88.391 88.7561 87.8819 89.6237 87.0302C90.4913 86.1786 91.0216 85.0419 91.1168 83.8298C91.212 82.6178 90.8655 81.4122 90.1415 80.4356C89.5522 79.6243 88.7287 79.0127 87.7817 78.683C86.9883 78.3989 86.1361 78.3194 85.3038 78.4521C84.4716 78.5848 83.6863 78.9253 83.0207 79.442C82.1282 80.1281 81.5034 81.1043 81.2543 82.202C81.1849 82.496 81.1502 82.797 81.1508 83.099C81.13 83.2249 81.1323 83.3535 81.1577 83.4785Z" fill="#263238"/>
<path d="M53.4818 55.4299C53.4804 55.9427 53.3271 56.4437 53.0412 56.8694C52.7553 57.2951 52.3496 57.6266 51.8754 57.8219C51.4012 58.0172 50.8798 58.0676 50.377 57.9667C49.8742 57.8658 49.4126 57.6182 49.0504 57.2551C48.6883 56.892 48.4419 56.4297 48.3423 55.9266C48.2428 55.4235 48.2946 54.9023 48.4911 54.4286C48.6877 53.9549 49.0202 53.5501 49.4467 53.2654C49.8732 52.9806 50.3745 52.8286 50.8874 52.8286C51.2286 52.8286 51.5666 52.8959 51.8818 53.0268C52.197 53.1576 52.4833 53.3493 52.7243 53.5909C52.9653 53.8326 53.1563 54.1194 53.2863 54.435C53.4162 54.7505 53.4827 55.0886 53.4818 55.4299Z" fill="#263238"/>
<path d="M62.0249 55.4299C62.0249 55.9444 61.8723 56.4473 61.5865 56.8751C61.3006 57.3029 60.8944 57.6363 60.419 57.8332C59.9437 58.0301 59.4207 58.0816 58.9161 57.9812C58.4115 57.8809 57.948 57.6331 57.5842 57.2693C57.2204 56.9055 56.9726 56.442 56.8723 55.9374C56.7719 55.4328 56.8234 54.9098 57.0203 54.4344C57.2172 53.9591 57.5506 53.5529 57.9784 53.267C58.4061 52.9812 58.9091 52.8286 59.4236 52.8286C59.7654 52.8277 60.1041 52.8944 60.4201 53.0248C60.7361 53.1552 61.0233 53.3468 61.265 53.5885C61.5067 53.8302 61.6983 54.1174 61.8287 54.4334C61.9591 54.7494 62.0258 55.0881 62.0249 55.4299Z" fill="#263238"/>
<path d="M70.56 55.4299C70.56 55.9444 70.4075 56.4473 70.1216 56.8751C69.8358 57.3029 69.4295 57.6363 68.9542 57.8332C68.4789 58.0301 67.9558 58.0816 67.4512 57.9812C66.9466 57.8809 66.4831 57.6331 66.1193 57.2693C65.7555 56.9055 65.5078 56.442 65.4074 55.9374C65.307 55.4328 65.3585 54.9098 65.5554 54.4344C65.7523 53.9591 66.0857 53.5529 66.5135 53.267C66.9413 52.9812 67.4442 52.8286 67.9587 52.8286C68.3006 52.8277 68.6393 52.8944 68.9553 53.0248C69.2713 53.1552 69.5584 53.3468 69.8002 53.5885C70.0419 53.8302 70.2335 54.1174 70.3639 54.4334C70.4943 54.7494 70.5609 55.0881 70.56 55.4299Z" fill="#263238"/>
<path d="M317.902 210.997H252.842C249.065 210.997 246.004 214.059 246.004 217.835V236.548C246.004 240.324 249.065 243.386 252.842 243.386H317.902C321.678 243.386 324.74 240.324 324.74 236.548V217.835C324.74 214.059 321.678 210.997 317.902 210.997Z" fill="white"/>
<path d="M317.903 243.386C318.606 243.35 319.301 243.228 319.973 243.02C320.94 242.7 321.821 242.167 322.554 241.46C323.286 240.753 323.85 239.89 324.203 238.935C324.454 238.285 324.594 237.597 324.617 236.9C324.651 236.175 324.617 235.389 324.617 234.581C324.617 232.962 324.617 231.205 324.617 229.31C324.617 227.415 324.617 225.395 324.617 223.252C324.617 222.175 324.617 221.078 324.617 219.94C324.661 218.788 324.613 217.634 324.472 216.49C324.219 215.288 323.644 214.179 322.807 213.28C321.971 212.382 320.905 211.728 319.725 211.391C318.438 211.132 317.122 211.049 315.812 211.142H311.672H293.795H252.829C251.953 211.141 251.085 211.314 250.275 211.649C249.466 211.985 248.73 212.477 248.112 213.098C247.493 213.718 247.003 214.455 246.67 215.266C246.337 216.076 246.167 216.945 246.171 217.821C246.171 221.359 246.171 224.843 246.171 228.275V235.865C246.128 236.677 246.21 237.492 246.412 238.28C246.849 239.83 247.829 241.172 249.172 242.061C249.823 242.497 250.548 242.811 251.311 242.986C252.073 243.145 252.852 243.207 253.63 243.172L287.088 243.213L309.644 243.269L315.778 243.303H309.644L287.088 243.365L253.63 243.4C252.827 243.438 252.022 243.373 251.235 243.206C250.433 243.024 249.671 242.696 248.986 242.24C247.58 241.304 246.557 239.893 246.102 238.266C245.89 237.449 245.804 236.604 245.846 235.761C245.846 234.926 245.846 234.092 245.846 233.25V217.856C245.844 216.933 246.023 216.018 246.375 215.164C246.726 214.31 247.243 213.534 247.894 212.881C248.546 212.227 249.321 211.708 250.174 211.354C251.026 211 251.94 210.818 252.864 210.818H293.829H311.707H317.841C318.511 210.819 319.177 210.912 319.821 211.094C321.048 211.446 322.156 212.127 323.023 213.064C323.89 214 324.484 215.156 324.741 216.407C324.848 216.994 324.894 217.59 324.879 218.187V219.905C324.879 221.044 324.879 222.141 324.879 223.217C324.879 225.361 324.879 227.38 324.879 229.275C324.879 231.171 324.879 232.928 324.879 234.547C324.879 235.361 324.879 236.127 324.879 236.872C324.845 237.582 324.695 238.281 324.437 238.942C324.007 240.062 323.294 241.051 322.367 241.813C321.692 242.367 320.917 242.786 320.084 243.048C319.574 243.204 319.049 243.301 318.517 243.338C318.089 243.393 317.903 243.386 317.903 243.386Z" fill="#263238"/>
<path d="M311.113 229.31H275.061C274.418 229.31 273.802 229.054 273.348 228.6C272.894 228.146 272.639 227.53 272.639 226.888C272.64 226.247 272.896 225.632 273.35 225.18C273.804 224.727 274.419 224.473 275.061 224.473H311.113C311.754 224.473 312.369 224.727 312.823 225.18C313.277 225.632 313.533 226.247 313.535 226.888C313.535 227.53 313.28 228.146 312.826 228.6C312.371 229.054 311.755 229.31 311.113 229.31Z" fill="#E0E0E0"/>
<path d="M264.683 221.582H260.564C258.605 221.582 257.018 223.17 257.018 225.129V229.248C257.018 231.207 258.605 232.795 260.564 232.795H264.683C266.642 232.795 268.23 231.207 268.23 229.248V225.129C268.23 223.17 266.642 221.582 264.683 221.582Z" fill="#349F6E"/>
<path d="M258.75 227.351L259.882 226.226L262.062 228.158L265.698 224.508L266.747 225.639L261.896 230.338L258.75 227.351Z" fill="white"/>
<path d="M309.14 129.129H230.756C227.757 129.129 225.326 131.56 225.326 134.559V182.549C225.326 185.548 227.757 187.979 230.756 187.979H309.14C312.14 187.979 314.571 185.548 314.571 182.549V134.559C314.571 131.56 312.14 129.129 309.14 129.129Z" fill="white"/>
<path d="M309.119 187.986C309.181 187.981 309.243 187.981 309.305 187.986C309.488 187.979 309.67 187.96 309.85 187.931C310.569 187.841 311.261 187.598 311.879 187.22C312.886 186.61 313.668 185.69 314.107 184.598C314.68 183.308 314.439 181.645 314.48 179.844C314.48 172.578 314.48 162.076 314.425 149.104C314.425 145.861 314.425 142.46 314.425 138.92V136.236C314.465 135.335 314.428 134.432 314.314 133.538C314.128 132.641 313.712 131.808 313.107 131.12C312.502 130.432 311.73 129.912 310.864 129.612C309.957 129.339 309.007 129.238 308.063 129.315H286.583H230.755C229.553 129.325 228.39 129.738 227.45 130.488C226.522 131.244 225.877 132.292 225.622 133.462C225.516 134.051 225.477 134.651 225.505 135.249V154.949C225.505 164.284 225.505 173.289 225.505 181.859C225.418 182.902 225.609 183.949 226.056 184.895C226.518 185.814 227.237 186.579 228.126 187.096C229.005 187.605 230.01 187.856 231.025 187.82H245.922H267.153L297.885 187.882L306.241 187.917H308.415H309.16C309.16 187.917 308.905 187.917 308.415 187.917H306.241H297.885L267.153 187.972H245.922H234.095H231.025C229.952 188.011 228.891 187.748 227.961 187.213C227.016 186.665 226.253 185.852 225.767 184.874C225.3 183.882 225.097 182.786 225.18 181.693C225.18 173.109 225.18 164.105 225.18 154.783V135.242C225.15 134.618 225.192 133.993 225.304 133.379C225.577 132.126 226.269 131.004 227.267 130.198C228.264 129.392 229.508 128.952 230.79 128.949H286.618H308.097C309.075 128.875 310.057 128.983 310.995 129.267C311.908 129.584 312.722 130.132 313.359 130.858C313.997 131.583 314.435 132.461 314.632 133.407C314.747 134.322 314.784 135.245 314.742 136.167V138.92C314.742 142.46 314.742 145.861 314.742 149.104C314.742 162.076 314.701 172.564 314.687 179.844C314.687 180.748 314.687 181.61 314.687 182.411C314.704 183.173 314.565 183.932 314.28 184.639C313.829 185.749 313.024 186.678 311.989 187.282C311.358 187.661 310.651 187.897 309.919 187.972C309.653 187.998 309.385 188.003 309.119 187.986Z" fill="#263238"/>
<path d="M279.89 163.304H279.883C278.538 163.304 277.447 164.395 277.447 165.74V174.496C277.447 175.841 278.538 176.932 279.883 176.932H279.89C281.235 176.932 282.326 175.841 282.326 174.496V165.74C282.326 164.395 281.235 163.304 279.89 163.304Z" fill="#349F6E"/>
<path d="M239.159 161.331H239.152C237.807 161.331 236.717 162.422 236.717 163.767V174.496C236.717 175.841 237.807 176.932 239.152 176.932H239.159C240.505 176.932 241.595 175.841 241.595 174.496V163.767C241.595 162.422 240.505 161.331 239.159 161.331Z" fill="#349F6E"/>
<path d="M249.345 158.081H249.338C247.993 158.081 246.902 159.172 246.902 160.517V174.503C246.902 175.848 247.993 176.939 249.338 176.939H249.345C250.69 176.939 251.781 175.848 251.781 174.503V160.517C251.781 159.172 250.69 158.081 249.345 158.081Z" fill="#349F6E"/>
<path d="M259.523 159.109H259.516C258.171 159.109 257.08 160.2 257.08 161.545V174.496C257.08 175.842 258.171 176.932 259.516 176.932H259.523C260.868 176.932 261.958 175.842 261.958 174.496V161.545C261.958 160.2 260.868 159.109 259.523 159.109Z" fill="#349F6E"/>
<path d="M269.706 153.085H269.699C268.354 153.085 267.264 154.176 267.264 155.521V174.496C267.264 175.841 268.354 176.932 269.699 176.932H269.706C271.051 176.932 272.142 175.841 272.142 174.496V155.521C272.142 154.176 271.051 153.085 269.706 153.085Z" fill="#349F6E"/>
<path d="M290.075 153.203H290.069C288.723 153.203 287.633 154.293 287.633 155.638V174.503C287.633 175.848 288.723 176.939 290.069 176.939H290.075C291.421 176.939 292.511 175.848 292.511 174.503V155.638C292.511 154.293 291.421 153.203 290.075 153.203Z" fill="#349F6E"/>
<path d="M300.252 161C299.932 161 299.614 161.063 299.318 161.186C299.022 161.309 298.754 161.489 298.527 161.716C298.301 161.943 298.122 162.212 298 162.508C297.878 162.805 297.816 163.122 297.816 163.443V174.483C297.816 175.129 298.073 175.748 298.53 176.205C298.987 176.662 299.606 176.918 300.252 176.918C300.898 176.918 301.518 176.662 301.974 176.205C302.431 175.748 302.688 175.129 302.688 174.483V163.443C302.689 163.122 302.626 162.805 302.504 162.508C302.382 162.212 302.203 161.943 301.977 161.716C301.751 161.489 301.482 161.309 301.186 161.186C300.89 161.063 300.573 161 300.252 161Z" fill="#349F6E"/>
<path d="M256.313 138.658H237.489C236.377 138.658 235.475 139.56 235.475 140.673V141.107C235.475 142.22 236.377 143.122 237.489 143.122H256.313C257.425 143.122 258.327 142.22 258.327 141.107V140.673C258.327 139.56 257.425 138.658 256.313 138.658Z" fill="#E0E0E0"/>
<path d="M30.0217 116.04H83.2483C84.2328 116.04 85.1771 116.431 85.8732 117.127C86.5694 117.823 86.9605 118.767 86.9605 119.752V167.051C86.9605 167.884 86.6297 168.682 86.041 169.271C85.4522 169.86 84.6537 170.191 83.821 170.191H29.4559C28.6233 170.191 27.8247 169.86 27.2359 169.271C26.6472 168.682 26.3164 167.884 26.3164 167.051V119.752C26.3164 118.768 26.7066 117.825 27.4012 117.129C28.0959 116.433 29.0384 116.041 30.0217 116.04Z" fill="white"/>
<path d="M30.0217 116.04H83.2483C84.2328 116.04 85.1771 116.431 85.8732 117.127C86.5694 117.823 86.9605 118.767 86.9605 119.752V128.384H26.3164V119.752C26.3164 118.768 26.7066 117.825 27.4012 117.129C28.0959 116.433 29.0384 116.041 30.0217 116.04Z" fill="#E0E0E0"/>
<path d="M36.2455 122.864C36.236 123.298 36.0985 123.72 35.8502 124.077C35.6019 124.434 35.2538 124.709 34.8496 124.869C34.4454 125.029 34.003 125.066 33.5779 124.975C33.1529 124.884 32.764 124.67 32.46 124.36C32.156 124.049 31.9505 123.656 31.8691 123.229C31.7878 122.802 31.8342 122.36 32.0027 121.96C32.1711 121.559 32.454 121.217 32.816 120.976C33.178 120.736 33.6029 120.608 34.0376 120.607C34.3308 120.61 34.6207 120.671 34.8905 120.786C35.1603 120.901 35.4048 121.068 35.6099 121.277C35.815 121.487 35.9768 121.735 36.0858 122.007C36.1949 122.279 36.2492 122.57 36.2455 122.864Z" fill="white"/>
<path d="M43.0268 122.864C43.0173 123.298 42.8798 123.72 42.6314 124.077C42.3831 124.434 42.035 124.709 41.6308 124.869C41.2266 125.029 40.7843 125.066 40.3592 124.975C39.9341 124.884 39.5452 124.67 39.2412 124.36C38.9373 124.049 38.7317 123.656 38.6504 123.229C38.569 122.802 38.6155 122.36 38.7839 121.96C38.9523 121.559 39.2353 121.217 39.5973 120.976C39.9593 120.736 40.3842 120.608 40.8188 120.607C41.1121 120.61 41.4019 120.671 41.6717 120.786C41.9416 120.901 42.186 121.068 42.3912 121.277C42.5963 121.487 42.758 121.735 42.8671 122.007C42.9762 122.279 43.0304 122.57 43.0268 122.864Z" fill="white"/>
<path d="M49.81 122.864C49.8005 123.298 49.663 123.72 49.4146 124.077C49.1663 124.434 48.8182 124.709 48.414 124.869C48.0098 125.029 47.5675 125.066 47.1424 124.975C46.7173 124.884 46.3284 124.67 46.0244 124.36C45.7205 124.049 45.5149 123.656 45.4336 123.229C45.3522 122.802 45.3987 122.36 45.5671 121.96C45.7355 121.559 46.0185 121.217 46.3805 120.976C46.7425 120.736 47.1674 120.608 47.602 120.607C47.8953 120.61 48.1851 120.671 48.4549 120.786C48.7248 120.901 48.9692 121.068 49.1744 121.277C49.3795 121.487 49.5412 121.735 49.6503 122.007C49.7594 122.279 49.8136 122.57 49.81 122.864Z" fill="white"/>
<path d="M71.9652 134.379H41.3016C39.2172 134.379 37.5273 136.069 37.5273 138.154V160.116C37.5273 162.201 39.2172 163.891 41.3016 163.891H71.9652C74.0497 163.891 75.7395 162.201 75.7395 160.116V138.154C75.7395 136.069 74.0497 134.379 71.9652 134.379Z" fill="#349F6E"/>
<path d="M52.3496 148.842V144.309C52.354 144.058 52.4232 143.812 52.5506 143.596C52.678 143.379 52.8591 143.2 53.0765 143.074C53.2938 142.948 53.54 142.881 53.791 142.878C54.0421 142.876 54.2895 142.939 54.5093 143.06L58.4354 145.323L62.3546 147.593C62.577 147.72 62.7618 147.903 62.8904 148.124C63.019 148.345 63.0867 148.597 63.0867 148.853C63.0867 149.108 63.019 149.36 62.8904 149.581C62.7618 149.802 62.577 149.985 62.3546 150.112L58.4354 152.375L54.5093 154.638C54.2908 154.757 54.0456 154.818 53.7969 154.815C53.5483 154.813 53.3043 154.747 53.0882 154.624C52.872 154.501 52.6907 154.325 52.5615 154.113C52.4323 153.9 52.3594 153.658 52.3496 153.41V148.842Z" fill="white"/>
<path d="M83.8204 170.191C83.8204 170.191 84.0136 170.191 84.3862 170.122C84.9384 170.01 85.4506 169.753 85.8697 169.376C86.2084 169.073 86.4766 168.699 86.6554 168.28C86.8342 167.862 86.9193 167.409 86.9047 166.955C86.9047 165.864 86.9047 164.609 86.9047 163.194C86.9047 157.522 86.8702 149.339 86.8495 139.223C86.8495 134.159 86.8495 128.618 86.8495 122.663V120.414C86.8739 120.04 86.8739 119.664 86.8495 119.289C86.8067 118.925 86.7042 118.571 86.5459 118.241C86.3082 117.733 85.9536 117.288 85.511 116.944C85.0684 116.6 84.5505 116.366 83.9998 116.26C83.6186 116.202 83.2329 116.179 82.8475 116.191H72.9943H51.9976H30.9043C30.4437 116.177 29.9827 116.194 29.5243 116.24C29.0698 116.306 28.6331 116.462 28.2397 116.699C27.8463 116.936 27.5042 117.249 27.2335 117.62C26.9579 117.983 26.7584 118.398 26.647 118.841C26.5409 119.293 26.5014 119.758 26.5297 120.221V125.9C26.5297 129.662 26.5297 133.365 26.5297 137.009C26.5297 144.288 26.5297 151.312 26.5297 158.005C26.5297 159.675 26.5297 161.331 26.5297 162.959V166.589C26.5062 166.973 26.5364 167.358 26.6194 167.734C26.7953 168.47 27.2474 169.11 27.8821 169.521C28.1918 169.728 28.5385 169.874 28.9033 169.949C29.2731 170.005 29.6473 170.026 30.0211 170.011H34.4992H51.0592L75.0298 170.066L81.5434 170.101H75.0298L51.0592 170.322H34.4992H29.9659C29.5689 170.343 29.1709 170.319 28.7791 170.253C28.3785 170.17 27.997 170.014 27.6544 169.79C26.965 169.327 26.473 168.624 26.2744 167.817C26.1877 167.416 26.1552 167.005 26.1778 166.596V158.033C26.1778 151.34 26.1778 144.316 26.1778 137.036V120.248C26.151 119.755 26.1928 119.261 26.302 118.779C26.4927 118.043 26.8949 117.378 27.459 116.868C28.0231 116.358 28.7243 116.024 29.476 115.908C29.9644 115.862 30.4552 115.846 30.9457 115.86H82.7992C83.2032 115.848 83.6074 115.873 84.0067 115.936C84.4068 116.017 84.7928 116.156 85.1521 116.35C85.8636 116.746 86.4312 117.357 86.7736 118.096C86.9443 118.457 87.0561 118.844 87.1048 119.241C87.1286 119.627 87.1286 120.014 87.1048 120.4V122.65C87.1048 128.597 87.1048 134.138 87.1048 139.21C87.1048 149.325 87.0634 157.508 87.0496 163.18C87.0496 164.56 87.0496 165.851 87.0496 166.941C87.0584 167.409 86.9648 167.873 86.7753 168.301C86.5858 168.729 86.3049 169.11 85.9525 169.418C85.5206 169.795 84.9929 170.046 84.4276 170.142C84.2853 170.156 84.142 170.156 83.9998 170.142C83.9422 170.166 83.8819 170.182 83.8204 170.191Z" fill="#263238"/>
<path d="M205.012 53.2148H273.322C274.306 53.2148 275.251 53.606 275.947 54.3021C276.643 54.9983 277.034 55.9425 277.034 56.927V103.847C277.034 104.259 276.953 104.668 276.795 105.048C276.637 105.429 276.406 105.775 276.115 106.067C275.823 106.359 275.477 106.59 275.096 106.748C274.715 106.905 274.307 106.987 273.895 106.987H204.446C204.034 106.987 203.626 106.905 203.245 106.748C202.864 106.59 202.518 106.359 202.226 106.067C201.935 105.775 201.703 105.429 201.546 105.048C201.388 104.668 201.307 104.259 201.307 103.847V56.927C201.307 55.9437 201.697 55.0005 202.391 54.3046C203.086 53.6086 204.029 53.2167 205.012 53.2148Z" fill="white"/>
<path d="M205.011 53.2148H273.321C274.306 53.2148 275.25 53.606 275.946 54.3021C276.642 54.9983 277.033 55.9425 277.033 56.927V65.4968H201.299V56.9201C201.301 55.9368 201.693 54.9944 202.389 54.2997C203.085 53.605 204.028 53.2148 205.011 53.2148Z" fill="#E0E0E0"/>
<path d="M211.381 59.9974C211.381 60.4409 211.25 60.8745 211.004 61.2432C210.757 61.612 210.407 61.8995 209.997 62.0692C209.587 62.2389 209.136 62.2833 208.701 62.1968C208.266 62.1103 207.867 61.8967 207.553 61.5831C207.24 61.2694 207.026 60.8699 206.94 60.4349C206.853 59.9999 206.897 59.549 207.067 59.1392C207.237 58.7295 207.524 58.3792 207.893 58.1328C208.262 57.8864 208.695 57.7549 209.139 57.7549C209.734 57.7549 210.304 57.9911 210.725 58.4117C211.145 58.8322 211.381 59.4026 211.381 59.9974Z" fill="white"/>
<path d="M218.26 59.9974C218.26 60.4409 218.129 60.8745 217.882 61.2433C217.636 61.612 217.286 61.8995 216.876 62.0692C216.466 62.2389 216.015 62.2833 215.58 62.1968C215.145 62.1103 214.746 61.8967 214.432 61.5831C214.119 61.2695 213.905 60.8699 213.818 60.4349C213.732 59.9999 213.776 59.549 213.946 59.1392C214.116 58.7295 214.403 58.3792 214.772 58.1328C215.141 57.8864 215.574 57.7549 216.018 57.7549C216.313 57.754 216.605 57.8114 216.877 57.9237C217.15 58.0361 217.397 58.2013 217.606 58.4097C217.814 58.6181 217.979 58.8657 218.092 59.1381C218.204 59.4106 218.261 59.7026 218.26 59.9974Z" fill="white"/>
<path d="M225.139 59.9974C225.139 60.4412 225.008 60.875 224.761 61.244C224.514 61.6129 224.164 61.9003 223.753 62.0698C223.343 62.2394 222.892 62.2834 222.457 62.1963C222.022 62.1092 221.622 61.8949 221.309 61.5806C220.995 61.2663 220.782 60.8661 220.697 60.4306C220.611 59.9952 220.656 59.5441 220.827 59.1344C220.998 58.7248 221.286 58.375 221.656 58.1295C222.026 57.8839 222.46 57.7535 222.904 57.7549C223.198 57.7549 223.489 57.8129 223.761 57.9257C224.033 58.0385 224.279 58.2038 224.487 58.4121C224.695 58.6204 224.859 58.8677 224.971 59.1397C225.083 59.4118 225.14 59.7032 225.139 59.9974Z" fill="white"/>
<path d="M232.687 72.4106H210.835C209.315 72.4106 208.082 73.6432 208.082 75.1637V97.016C208.082 98.5365 209.315 99.7691 210.835 99.7691H232.687C234.208 99.7691 235.441 98.5365 235.441 97.016V75.1637C235.441 73.6432 234.208 72.4106 232.687 72.4106Z" fill="#349F6E"/>
<path d="M269.098 78.0548H243.748C243.563 78.0548 243.381 78.018 243.211 77.9465C243.042 77.875 242.888 77.7703 242.759 77.6384C242.631 77.5066 242.53 77.3504 242.463 77.179C242.395 77.0075 242.363 76.8244 242.368 76.6403C242.368 76.2743 242.513 75.9232 242.772 75.6644C243.031 75.4056 243.382 75.2603 243.748 75.2603H269.098C269.467 75.2601 269.822 75.4044 270.086 75.6623C270.351 75.9201 270.504 76.2711 270.513 76.6403C270.513 77.0154 270.364 77.3752 270.098 77.6405C269.833 77.9057 269.473 78.0548 269.098 78.0548Z" fill="#E0E0E0"/>
<path d="M269.1 84.5203H243.749C243.383 84.5203 243.032 84.3749 242.773 84.1161C242.515 83.8573 242.369 83.5063 242.369 83.1403C242.369 82.7743 242.515 82.4232 242.773 82.1644C243.032 81.9056 243.383 81.7603 243.749 81.7603H269.1C269.469 81.7601 269.824 81.9044 270.088 82.1623C270.352 82.4201 270.505 82.7711 270.514 83.1403C270.505 83.5094 270.352 83.8604 270.088 84.1182C269.824 84.3761 269.469 84.5204 269.1 84.5203Z" fill="#E0E0E0"/>
<path d="M269.098 90.9854H243.748C243.563 90.9855 243.381 90.9487 243.211 90.8772C243.042 90.8057 242.888 90.7009 242.759 90.5691C242.631 90.4373 242.53 90.281 242.463 90.1096C242.395 89.9382 242.363 89.755 242.368 89.5709C242.368 89.2049 242.513 88.8539 242.772 88.5951C243.031 88.3363 243.382 88.1909 243.748 88.1909H269.098C269.467 88.1908 269.822 88.3351 270.086 88.5929C270.351 88.8508 270.504 89.2018 270.513 89.5709C270.513 89.9461 270.364 90.3058 270.098 90.5711C269.833 90.8364 269.473 90.9854 269.098 90.9854Z" fill="#E0E0E0"/>
<path d="M256.678 97.4507H243.748C243.563 97.4508 243.381 97.414 243.211 97.3425C243.042 97.271 242.888 97.1663 242.759 97.0344C242.631 96.9026 242.53 96.7464 242.463 96.575C242.395 96.4035 242.363 96.2204 242.368 96.0362C242.368 95.6703 242.513 95.3192 242.772 95.0604C243.031 94.8016 243.382 94.6562 243.748 94.6562H256.678C257.044 94.6562 257.395 94.8016 257.654 95.0604C257.913 95.3192 258.058 95.6703 258.058 96.0362C258.063 96.2204 258.031 96.4035 257.963 96.575C257.896 96.7464 257.795 96.9026 257.666 97.0344C257.538 97.1663 257.384 97.271 257.214 97.3425C257.045 97.414 256.862 97.4508 256.678 97.4507Z" fill="#E0E0E0"/>
<path d="M273.93 106.959C274.145 106.94 274.36 106.91 274.572 106.869C275.194 106.73 275.76 106.405 276.193 105.938C276.509 105.593 276.744 105.183 276.883 104.737C277.017 104.189 277.063 103.623 277.021 103.06C277.021 101.828 277.021 100.409 277.021 98.8032C277.021 92.3931 276.987 83.1264 276.966 71.6862C276.966 68.8227 276.966 65.8212 276.966 62.7162C276.966 61.1476 276.966 59.5537 276.966 57.9345C277.043 57.1349 276.949 56.3281 276.69 55.5678C276.46 55.0073 276.088 54.5159 275.612 54.1412C275.136 53.7664 274.571 53.5211 273.972 53.4288C273.557 53.3777 273.14 53.3616 272.723 53.3805H206.089C205.553 53.3627 205.016 53.3765 204.482 53.4219C203.702 53.5365 202.983 53.9085 202.439 54.4786C201.896 55.0487 201.558 55.7842 201.48 56.5683C201.48 57.072 201.48 57.6378 201.48 58.1691V77.1648C201.48 85.4034 201.48 93.3522 201.48 100.921C201.597 102.757 201.018 104.896 202.522 106.076C202.853 106.364 203.245 106.573 203.667 106.69C204.1 106.787 204.543 106.824 204.985 106.8H218.095H236.829L263.946 106.862H271.315H273.233H273.889C273.889 106.862 273.668 106.862 273.233 106.862H271.315L263.946 106.897L236.829 106.952H218.095H207.663H204.958C204.495 106.976 204.03 106.936 203.578 106.835C203.108 106.702 202.675 106.466 202.308 106.145C201.937 105.826 201.641 105.43 201.44 104.984C201.24 104.538 201.141 104.053 201.149 103.564C201.149 102.626 201.149 101.687 201.149 100.742C201.149 93.1521 201.149 85.224 201.149 76.9854V64.5999C201.149 62.4678 201.149 60.3288 201.149 58.1691C201.149 57.624 201.149 57.1065 201.149 56.5338C201.238 55.6766 201.609 54.873 202.203 54.2488C202.797 53.6246 203.582 53.2149 204.433 53.0838C204.986 53.0303 205.541 53.0141 206.096 53.0355H229.956H253.706H272.661C273.094 53.0164 273.528 53.0349 273.958 53.0907C274.608 53.1939 275.22 53.4636 275.735 53.8735C276.25 54.2833 276.651 54.8195 276.897 55.4298C277.059 55.8253 277.155 56.245 277.18 56.6718C277.18 57.0996 277.18 57.4929 277.18 57.9069C277.18 59.5261 277.18 61.12 277.18 62.6886C277.18 65.8074 277.18 68.8089 277.18 71.6586C277.18 83.0988 277.132 92.3586 277.118 98.7756C277.118 100.376 277.118 101.795 277.118 103.033C277.158 103.605 277.107 104.181 276.966 104.737C276.816 105.192 276.569 105.609 276.242 105.958C275.793 106.43 275.21 106.753 274.572 106.883C274.362 106.937 274.146 106.962 273.93 106.959Z" fill="#263238"/>
<g opacity="0.3">
<path d="M208.082 92V97.106C208.082 97.8087 208.361 98.4827 208.858 98.9795C209.355 99.4764 210.029 99.7556 210.732 99.7556H232.743C233.458 99.7556 234.144 99.4714 234.65 98.9654C235.156 98.4594 235.441 97.7732 235.441 97.0577V88.8536L229.079 82.9265C228.906 82.7668 228.703 82.6432 228.482 82.5632C228.261 82.4831 228.027 82.4482 227.792 82.4604C227.557 82.4726 227.327 82.5318 227.116 82.6343C226.904 82.7369 226.715 82.8808 226.56 83.0576L221.572 88.7777L216.659 86.48C216.221 86.2735 215.731 86.2001 215.252 86.2688C214.772 86.3375 214.323 86.5452 213.961 86.8664L208.082 92Z" fill="black"/>
</g>
<g opacity="0.3">
<path d="M220.46 82.1328C221.825 82.1328 222.931 81.0268 222.931 79.6626C222.931 78.2983 221.825 77.1924 220.46 77.1924C219.096 77.1924 217.99 78.2983 217.99 79.6626C217.99 81.0268 219.096 82.1328 220.46 82.1328Z" fill="black"/>
</g>
<path d="M115.699 141.99C117.541 140.403 120.156 139.962 122.033 138.416C123.91 136.871 124.793 134.38 124.931 131.951C124.941 129.517 124.585 127.096 123.875 124.768L143.947 149.96C142.354 152.72 140.635 155.535 138.138 157.55C135.64 159.565 132.176 160.634 129.168 159.544C126.159 158.454 124.117 154.714 125.504 151.851C122.806 154.355 118.121 154.404 115.492 151.851C112.863 149.298 112.904 144.392 115.699 141.99Z" fill="#263238"/>
<path d="M173.701 68.3882C178.566 71.9486 179.373 75.4883 179.566 77.3582C179.621 77.9171 179.525 78.6209 178.994 78.7934C178.728 78.8532 178.451 78.8291 178.2 78.7244L161.916 73.7771" fill="#263238"/>
<path d="M128.705 131.91C125.048 125.341 121.398 118.71 118.921 111.61C116.444 104.51 115.167 96.8507 116.375 89.4263C116.554 88.2947 118.493 80.6081 119.632 80.4977C120.439 80.4218 119.687 87.3977 120.225 87.998C125.365 93.8354 127.967 101.563 128.85 109.291C129.647 116.813 129.598 124.399 128.705 131.91Z" fill="#263238"/>
<path d="M136.442 171.833L122.435 103.896C118.191 85.5143 125.353 67.7192 143.825 63.9863L145.557 63.7448C153.947 62.5512 162.48 64.5617 169.455 69.3759C176.43 74.19 181.336 81.4547 183.196 89.7233C186.784 105.676 190.552 123.347 191.669 132.02C193.988 149.96 176.489 155.301 176.489 155.301C176.489 155.301 179.767 173.42 180.74 178.644L153.657 182.094L147.137 182.68L136.442 171.833Z" fill="#FFBF9D"/>
<path d="M176.482 155.301C176.482 155.301 165.276 157.571 152.166 151.713C152.166 151.713 159.687 164.395 177.344 160.241L176.482 155.301Z" fill="#FF9A6C"/>
<path d="M179.918 107.18C180.021 107.842 179.863 108.518 179.477 109.065C179.091 109.613 178.507 109.988 177.848 110.113C177.526 110.185 177.193 110.193 176.868 110.134C176.544 110.076 176.234 109.953 175.957 109.773C175.681 109.593 175.443 109.359 175.258 109.086C175.073 108.812 174.945 108.505 174.881 108.181C174.78 107.518 174.939 106.842 175.325 106.294C175.711 105.746 176.294 105.369 176.951 105.241C177.274 105.169 177.608 105.162 177.933 105.221C178.258 105.279 178.568 105.403 178.845 105.584C179.122 105.764 179.359 105.999 179.544 106.273C179.728 106.547 179.855 106.856 179.918 107.18Z" fill="#263238"/>
<path d="M180.525 98.2101C180.255 98.5896 178.116 97.4304 175.363 97.8306C172.61 98.2308 170.789 99.9006 170.437 99.597C170.271 99.4659 170.506 98.8173 171.299 98.0514C172.375 97.0574 173.732 96.421 175.184 96.2298C176.602 96.0173 178.051 96.2588 179.324 96.9198C180.29 97.4442 180.663 98.0031 180.525 98.2101Z" fill="#263238"/>
<path d="M156.182 110.547C156.283 111.209 156.124 111.884 155.738 112.431C155.352 112.978 154.769 113.354 154.112 113.48C153.79 113.551 153.456 113.558 153.131 113.499C152.807 113.439 152.497 113.316 152.22 113.135C151.944 112.954 151.706 112.72 151.522 112.447C151.337 112.173 151.209 111.865 151.145 111.541C151.047 110.875 151.211 110.196 151.604 109.649C151.997 109.101 152.587 108.728 153.25 108.608C153.57 108.542 153.899 108.539 154.22 108.601C154.541 108.663 154.847 108.787 155.119 108.967C155.392 109.148 155.626 109.38 155.809 109.651C155.991 109.922 156.118 110.227 156.182 110.547Z" fill="#263238"/>
<path d="M153.622 102.647C153.353 103.026 151.207 101.867 148.454 102.26C145.701 102.654 143.879 104.33 143.534 104.027C143.361 103.903 143.596 103.254 144.39 102.488C145.465 101.493 146.822 100.854 148.274 100.66C149.692 100.445 151.142 100.687 152.414 101.35C153.38 101.908 153.753 102.474 153.622 102.647Z" fill="#263238"/>
<path d="M166.504 122.408C166.469 122.25 168.139 121.718 170.858 120.966C171.548 120.794 172.196 120.559 172.238 120.062C172.279 119.566 171.927 118.814 171.472 118.048L168.629 112.983C164.662 105.766 161.681 99.7972 161.971 99.6385C162.26 99.4798 165.717 105.2 169.692 112.417L172.452 117.523C172.831 118.282 173.418 119.124 173.211 120.228C173.143 120.491 173.016 120.735 172.841 120.941C172.665 121.148 172.445 121.312 172.196 121.422C171.824 121.584 171.432 121.697 171.03 121.76C168.263 122.305 166.532 122.56 166.504 122.408Z" fill="#263238"/>
<path d="M153.291 93.9047C153.015 94.6637 150.241 94.298 146.978 94.6913C143.714 95.0846 141.071 95.9747 140.637 95.2916C140.443 94.9673 140.906 94.2566 141.968 93.5252C143.391 92.624 145.002 92.0603 146.676 91.8774C148.35 91.6944 150.044 91.8969 151.628 92.4695C152.808 92.9525 153.409 93.5459 153.291 93.9047Z" fill="#263238"/>
<path d="M180.249 93.6629C179.78 94.3529 177.441 94.0838 174.729 94.4771C172.017 94.8704 169.823 95.6777 169.209 95.105C168.926 94.8221 169.209 94.139 170.092 93.3938C171.355 92.4659 172.833 91.8729 174.387 91.6702C175.941 91.4675 177.521 91.6617 178.979 92.2346C180.042 92.7245 180.456 93.3179 180.249 93.6629Z" fill="#263238"/>
<path d="M125.781 116.958C125.457 116.868 112.954 115.06 115.079 127.259C117.204 139.458 129.031 134.78 128.976 134.449C128.92 134.118 125.781 116.958 125.781 116.958Z" fill="#FFBF9D"/>
<path d="M124.441 130.481C124.386 130.447 124.255 130.667 123.924 130.895C123.457 131.199 122.89 131.308 122.344 131.199C120.964 130.957 119.528 129.094 119.087 126.907C118.878 125.866 118.899 124.792 119.149 123.761C119.199 123.361 119.345 122.978 119.575 122.647C119.804 122.315 120.11 122.044 120.467 121.856C120.702 121.74 120.97 121.713 121.224 121.779C121.477 121.845 121.698 121.999 121.847 122.215C122.075 122.532 122.033 122.788 122.102 122.795C122.171 122.801 122.33 122.546 122.144 122.056C122.024 121.763 121.807 121.519 121.529 121.366C121.15 121.171 120.708 121.134 120.301 121.263C119.37 121.49 118.68 122.505 118.411 123.54C118.079 124.686 118.031 125.897 118.273 127.066C118.776 129.508 120.439 131.592 122.288 131.792C122.634 131.827 122.983 131.783 123.31 131.664C123.636 131.544 123.931 131.352 124.172 131.102C124.476 130.778 124.49 130.495 124.441 130.481Z" fill="#FF9A6C"/>
<path d="M171.63 70.9967C173.403 69.5477 166.317 64.2485 161.066 62.9444C153.138 60.9503 141.587 60.9503 135.184 64.1243C127.484 67.9262 121.474 73.2047 118.755 81.3743C116.037 89.5439 116.085 98.4173 117.872 106.815C118.417 109.381 119.176 112.017 120.949 113.942C123.144 116.323 125.821 117.206 127.263 121.16C127.732 122.457 128.098 123.823 129.209 124.644C131.872 126.604 134.191 123.878 135.032 121.415C136.833 116.15 136.088 110.375 135.315 104.896C134.77 100.977 134.197 96.9821 132.417 93.4562C131.451 91.538 130.14 89.7923 129.285 87.8189C128.429 85.8455 128.056 83.4995 129.029 81.6089C129.259 81.1918 129.527 80.7969 129.83 80.429C131.256 78.634 133.135 77.2513 135.273 76.423C137.411 75.5947 139.731 75.3508 141.994 75.7163C149.295 76.8824 161.673 78.3521 164.302 75.4679C168.09 71.3279 168.739 68.9336 168.739 68.9336L171.63 70.9967Z" fill="#263238"/>
<path d="M158.23 125.679C158.644 125.576 159.176 128.37 161.942 129.902C164.709 131.434 167.621 130.592 167.718 130.951C167.787 131.116 167.159 131.641 165.903 131.889C164.275 132.231 162.579 131.987 161.114 131.199C159.711 130.436 158.659 129.157 158.182 127.632C157.851 126.452 158.009 125.7 158.23 125.679Z" fill="#263238"/>
<path d="M117.231 117.999C116.962 117.834 116.61 117.854 116.355 117.682C99.4569 106.642 108.468 91.3584 107.909 87.2667C107.13 81.5949 101.699 89.9439 99.5052 82.692C96.552 73.0872 106.253 66.9738 118.356 60.3912C123.427 57.6312 136.565 54.6642 148.619 54.9678C159.376 55.2438 167.629 61.3296 172.583 66.27C172.583 66.27 175.212 67.0014 175.992 67.9674C178.427 71.0103 177.855 72.549 177.855 72.549C177.855 72.549 152.794 64.8555 136.455 83.9961C120.115 103.137 126.105 115.971 121.047 117.068L117.231 117.999Z" fill="#455A64"/>
<path d="M124.117 67.9673C123.821 68.1914 123.51 68.3943 123.186 68.5745C122.875 68.7608 122.496 68.9885 122.089 69.2645C121.682 69.5405 121.178 69.8579 120.709 70.2512C119.498 71.1321 118.345 72.0909 117.259 73.1216C115.945 74.3935 114.725 75.7586 113.609 77.2064C112.511 78.6663 111.522 80.2045 110.648 81.8087C109.943 83.1245 109.323 84.4843 108.792 85.8797C108.544 86.4731 108.385 87.0251 108.22 87.5012C108.054 87.9773 107.93 88.3982 107.833 88.7432C107.75 89.1069 107.635 89.4626 107.488 89.8058C107.531 89.4357 107.601 89.0691 107.695 88.7087C107.771 88.3568 107.875 87.929 108.026 87.446C108.178 86.963 108.323 86.3903 108.558 85.79C109.057 84.3682 109.659 82.9846 110.359 81.65C112.071 78.3706 114.327 75.4052 117.031 72.8801C118.134 71.8513 119.307 70.9013 120.543 70.0373C121.061 69.6578 121.564 69.3473 121.992 69.092C122.42 68.8367 122.806 68.6021 123.131 68.402C123.446 68.2284 123.776 68.0829 124.117 67.9673Z" fill="#263238"/>
<path d="M173.26 66.4703C173.182 66.4656 173.106 66.4517 173.032 66.4289L172.342 66.2909C171.762 66.1529 170.907 65.9873 169.803 65.7734C168.699 65.5595 167.339 65.3594 165.745 65.2145C163.949 65.0293 162.141 64.9625 160.336 65.0144C155.632 65.1365 150.982 66.0437 146.577 67.6985C143.992 68.6666 141.502 69.8724 139.139 71.3003C136.596 72.8486 134.217 74.6519 132.039 76.6823C129.867 78.7198 127.917 80.9818 126.222 83.4305C124.67 85.7307 123.335 88.17 122.234 90.7169C120.414 95.0566 119.104 99.5925 118.329 104.234C117.639 108.195 117.335 111.438 117.142 113.673C117.052 114.777 116.983 115.647 116.935 116.261C116.935 116.537 116.887 116.758 116.873 116.951C116.88 117.026 116.88 117.103 116.873 117.178C116.86 117.103 116.86 117.026 116.873 116.951C116.873 116.778 116.873 116.557 116.873 116.261C116.873 115.667 116.935 114.798 117.011 113.673C117.169 111.424 117.432 108.153 118.094 104.193C118.835 99.5335 120.123 94.978 121.93 90.6203C123.028 88.0491 124.368 85.5884 125.932 83.2718C127.635 80.796 129.599 78.5105 131.791 76.4546C136.036 72.4847 141.037 69.4085 146.494 67.4087C150.938 65.756 155.63 64.8672 160.37 64.7798C162.184 64.7443 163.998 64.8295 165.801 65.0351C167.395 65.2007 168.754 65.4491 169.865 65.6561C170.976 65.8631 171.817 66.0839 172.39 66.2426L173.039 66.4151C173.115 66.4232 173.189 66.4418 173.26 66.4703Z" fill="#263238"/>
<path d="M123.959 110.54C122.884 110.953 121.708 111.023 120.592 110.74C119.455 110.578 118.394 110.076 117.549 109.298C118.551 109.754 119.593 110.119 120.661 110.389C121.753 110.539 122.857 110.589 123.959 110.54Z" fill="#263238"/>
<path d="M128.389 98.5687C127.956 98.6391 127.512 98.6227 127.085 98.5204C126.042 98.3505 125.035 98.0077 124.104 97.5061C123.172 97.0085 122.328 96.3604 121.607 95.5879C121.288 95.2886 121.03 94.93 120.848 94.5322C122.834 96.69 125.492 98.1125 128.389 98.5687Z" fill="#263238"/>
<path d="M136.98 83.244C136.091 82.1934 135.129 81.2066 134.102 80.2908C133.005 79.4659 131.852 78.7167 130.652 78.0483C132.022 78.4008 133.287 79.075 134.344 80.0148C135.469 80.8636 136.374 81.9713 136.98 83.244Z" fill="#263238"/>
<path d="M147.004 75.6887C146.481 74.5456 145.894 73.4329 145.245 72.356C144.497 71.3479 143.695 70.3805 142.844 69.458C144.99 70.8997 146.478 73.1323 146.984 75.668L147.004 75.6887Z" fill="#263238"/>
<path d="M163.412 71.5692C163.363 70.3156 163.087 69.0813 162.598 67.926C162.008 66.8209 161.217 65.8356 160.266 65.0211C160.266 64.9797 160.693 65.1522 161.245 65.6007C161.95 66.1977 162.52 66.9364 162.919 67.7686C163.319 68.6008 163.538 69.5079 163.564 70.4307C163.606 70.8169 163.554 71.2075 163.412 71.5692Z" fill="#263238"/>
<path d="M173.881 72.1279C173.868 71.1516 173.797 70.1769 173.667 69.2092C173.413 68.2719 173.104 67.3504 172.742 66.4492C173.379 67.232 173.816 68.1582 174.014 69.1477C174.212 70.1372 174.167 71.1601 173.881 72.1279Z" fill="#263238"/>
<path d="M158.224 182.149C158.189 182.149 158.224 181.61 158.189 180.631C158.129 179.257 157.944 177.892 157.637 176.553C157.17 174.564 156.538 172.619 155.747 170.736C154.877 168.597 153.766 166.306 152.669 163.836C151.649 161.653 150.798 159.394 150.123 157.081V156.95L150.24 156.888C151.707 156.126 152.997 155.066 154.028 153.776L154.097 153.686L154.201 153.741C155.279 154.335 156.49 154.643 157.72 154.638H157.782V154.693C158.191 155.418 158.674 156.098 159.224 156.722C159.604 157.164 159.831 157.412 159.818 157.412C159.804 157.412 159.749 157.371 159.631 157.274C159.514 157.177 159.348 157.019 159.148 156.812C158.556 156.207 158.039 155.533 157.61 154.804L157.699 154.859C156.426 154.894 155.166 154.597 154.042 153.997H154.215C153.178 155.339 151.865 156.442 150.365 157.233L150.447 157.039C151.138 159.328 151.991 161.565 153 163.732C154.097 166.168 155.201 168.466 156.057 170.632C156.843 172.536 157.458 174.505 157.892 176.518C158.181 177.879 158.328 179.267 158.334 180.658C158.337 181.036 158.321 181.414 158.286 181.79C158.282 181.912 158.261 182.033 158.224 182.149Z" fill="#FF9A6C"/>
<path d="M103.273 183.887L131.398 167.003C131.398 167.003 153.216 181.376 167.45 176.104C177.062 172.55 177.062 159.544 177.062 159.544L204.697 159.641L229.157 234.533L235.415 324.157H113.016L108.083 218.96L103.273 183.887Z" fill="#349F6E"/>
<g opacity="0.3">
<path d="M111.883 302.181C120.432 309.426 131.603 312.98 142.747 314.132C153.89 315.284 165.123 314.194 176.274 313.111C195.525 311.234 215.169 311.731 234.42 309.881C233.875 305.051 233.392 293.059 232.847 288.25L111.883 296.93V302.181Z" fill="black"/>
</g>
<path d="M101.858 265.969C101.858 265.969 99.2084 264.693 97.8974 266.018C96.9891 267.008 96.227 268.123 95.6342 269.33C95.6342 269.33 91.3769 268.053 89.6105 271.586C89.6105 271.586 86.4296 273.594 88.3133 277.541C88.3133 277.541 84.9116 282.288 87.6233 286.393C87.9265 286.885 88.3009 287.329 88.7342 287.711C88.7342 287.711 90.0107 292.659 91.715 293.487C93.4193 294.315 99.5051 296.171 99.7121 293.383C99.9191 290.595 98.8289 290.851 98.8289 290.851C98.8289 290.851 106.026 294.749 109.213 297.62C112.401 300.49 120.778 304.74 125.946 304.727C131.114 304.713 128.906 293.604 128.906 293.604L101.858 265.969Z" fill="#FFBF9D"/>
<path d="M217.213 213.302C216.875 214.993 216.599 224.115 216.599 224.115L222.567 261.864C210.789 264.307 152.877 276.051 152.877 276.051L147.475 304.52C147.475 304.52 238.555 302.837 248.711 293.37C258.868 283.903 253.714 245.608 253.714 241.889C253.714 238.17 251.209 213.558 251.209 213.558L217.213 213.302Z" fill="#FFBF9D"/>
<path d="M90.5831 278.127C90.9017 278.221 91.2111 278.343 91.5077 278.493L93.9779 279.617L97.6211 281.322L98.6699 281.818L99.215 282.074C99.4455 282.163 99.6364 282.332 99.7532 282.55C99.784 282.619 99.7999 282.695 99.7999 282.771C99.7999 282.847 99.784 282.922 99.7532 282.991C99.6941 283.118 99.5978 283.224 99.4772 283.295C99.2668 283.418 99.0303 283.489 98.7872 283.502C98.3484 283.563 97.9045 283.579 97.4624 283.55C95.6753 283.433 94.0883 282.86 92.6324 282.626C91.9508 282.473 91.244 282.473 90.5624 282.626C90.2736 282.703 90.0029 282.837 89.7661 283.019C89.5292 283.201 89.3308 283.429 89.1824 283.688C88.7625 284.473 88.5757 285.361 88.6442 286.248C88.6681 286.579 88.6681 286.911 88.6442 287.242C88.5573 286.92 88.5064 286.589 88.4924 286.255C88.375 285.332 88.536 284.395 88.9547 283.564C89.1102 283.272 89.3219 283.014 89.5777 282.804C89.8335 282.595 90.1283 282.438 90.4451 282.343C91.1694 282.177 91.9219 282.177 92.6462 282.343C94.1573 282.571 95.7512 283.129 97.4762 283.24C97.8951 283.268 98.3158 283.254 98.732 283.198C99.1253 283.198 99.5255 282.957 99.422 282.736C99.3185 282.515 98.8493 282.357 98.5112 282.177L97.4693 281.667L93.8399 279.845L91.418 278.624C91.1244 278.485 90.8448 278.319 90.5831 278.127Z" fill="#FF9A6C"/>
<path d="M101.996 276.05C101.406 275.765 100.833 275.447 100.278 275.098C97.5218 273.561 94.5269 272.497 91.4183 271.952C90.7683 271.871 90.1233 271.753 89.4863 271.6C90.1459 271.552 90.8088 271.587 91.4597 271.703C93.0426 271.908 94.5992 272.281 96.1034 272.814C97.6065 273.348 99.0477 274.042 100.402 274.884C100.982 275.201 101.518 275.593 101.996 276.05Z" fill="#FF9A6C"/>
<path d="M101.293 271.145C100.333 270.867 99.3959 270.514 98.4914 270.089C97.8424 269.831 97.173 269.628 96.4904 269.482C96.1989 269.453 95.9118 269.39 95.6348 269.295C95.6348 269.247 95.9729 269.178 96.5318 269.226C97.2427 269.304 97.9394 269.481 98.6018 269.751C99.5656 270.073 100.473 270.543 101.293 271.145Z" fill="#FF9A6C"/>
<path d="M99.4289 291.149C99.0128 291.209 98.589 291.191 98.18 291.093C97.1884 290.926 96.2186 290.649 95.2889 290.265C94.36 289.895 93.4545 289.469 92.5772 288.989C92.1933 288.812 91.8375 288.58 91.5215 288.299C91.5767 288.188 93.2741 289.03 95.42 289.907C96.3344 290.273 97.2727 290.578 98.2283 290.817C98.6376 290.892 99.0394 291.002 99.4289 291.149Z" fill="#FF9A6C"/>
<path d="M94.6883 289.664C94.778 289.664 94.6124 290.354 93.9983 290.955C93.3842 291.555 92.6873 291.645 92.6666 291.562C92.6459 291.479 93.2117 291.21 93.7568 290.692C94.3019 290.175 94.5917 289.623 94.6883 289.664Z" fill="#FF9A6C"/>
<path d="M203.943 159.62C203.943 159.62 225.458 158.744 236.429 173.855C247.061 188.511 255.41 218.96 255.41 218.96L214.335 224.432L208.249 184.826L203.943 159.62Z" fill="#349F6E"/>
<path d="M238.547 279.156C238.478 279.156 238.195 277.81 237.347 275.761C237.119 275.201 236.864 274.653 236.581 274.119C236.298 273.532 235.932 272.939 235.56 272.311C234.708 270.971 233.739 269.71 232.662 268.543C231.565 267.394 230.369 266.344 229.087 265.404C228.48 264.99 227.914 264.583 227.342 264.272C226.829 263.952 226.299 263.66 225.755 263.396C223.761 262.416 222.422 262.051 222.45 261.975C222.769 262.026 223.083 262.107 223.388 262.216C223.756 262.317 224.117 262.439 224.471 262.582C224.885 262.747 225.361 262.913 225.851 263.168C226.409 263.419 226.953 263.7 227.48 264.01C228.066 264.321 228.646 264.7 229.26 265.135C231.912 266.988 234.15 269.373 235.829 272.138C236.194 272.78 236.56 273.387 236.829 273.988C237.106 274.532 237.352 275.092 237.568 275.664C237.788 276.182 237.926 276.672 238.064 277.099C238.202 277.527 238.292 277.893 238.361 278.197C238.459 278.508 238.521 278.83 238.547 279.156Z" fill="#FF9A6C"/>
<path d="M208.25 184.812C208.25 184.812 208.34 184.991 208.485 185.33C208.629 185.668 208.843 186.213 209.106 186.847C209.609 188.172 210.279 190.111 210.969 192.554C212.682 198.936 214.039 205.409 215.033 211.943C216.268 219.581 217.144 226.529 217.793 231.56C218.096 234.044 218.345 236.072 218.483 237.514C218.559 238.204 218.621 238.735 218.662 239.136C218.694 239.323 218.708 239.512 218.703 239.702C218.65 239.519 218.613 239.332 218.593 239.143L218.345 237.535C218.145 236.093 217.855 234.085 217.51 231.587C216.82 226.571 215.902 219.629 214.667 211.998C213.432 204.367 212.059 197.508 210.713 192.623C210.065 190.18 209.43 188.228 208.968 186.896L208.409 185.357C208.34 185.18 208.287 184.998 208.25 184.812Z" fill="#263238"/>
<path d="M135.192 191.236L131.003 235.665L124.586 224.349L91.5215 228.282C91.8596 229.972 103.631 271.317 108.702 282.792C113.774 294.267 127.96 314.691 143.844 307.356C159.728 300.021 158.7 242.254 158.7 235.665C158.7 229.075 155.519 189.773 155.519 189.773" fill="#FFBF9D"/>
<path d="M155.534 189.773C155.534 189.773 155.568 190.049 155.616 190.587C155.665 191.125 155.734 191.933 155.823 192.981C155.996 195.093 156.251 198.198 156.582 202.186C156.914 206.174 157.272 211.08 157.7 216.759C157.903 219.602 158.114 222.635 158.335 225.86C158.535 229.082 158.79 232.491 158.839 236.079C158.901 243.255 158.839 251.114 158.328 259.539C157.907 268.512 156.823 277.442 155.085 286.256C154.16 291.042 152.647 295.696 150.579 300.111C149.502 302.41 147.969 304.466 146.074 306.155C145.574 306.565 145.039 306.927 144.473 307.239C143.9 307.534 143.31 307.797 142.706 308.025C142.106 308.267 141.478 308.425 140.857 308.612C140.225 308.766 139.585 308.884 138.939 308.964C137.638 309.125 136.321 309.125 135.02 308.964C133.712 308.786 132.426 308.471 131.183 308.025C128.694 307.081 126.367 305.757 124.283 304.099C120.074 300.663 116.449 296.569 113.547 291.976C111.893 289.459 110.416 286.83 109.124 284.11C107.861 281.398 106.833 278.59 105.86 275.83C103.915 270.31 102.162 264.79 100.478 259.38C98.7948 253.971 97.2078 248.678 95.6898 243.51C94.1718 238.342 92.6883 233.277 91.3773 228.33L91.3359 228.158H91.5153L124.58 224.245H124.67L124.718 224.321L131.101 235.603L130.866 235.658C132.191 221.858 133.253 210.77 133.992 203.104C134.364 199.281 134.682 196.314 134.854 194.299C134.958 193.299 135.034 192.533 135.089 192.009C135.144 191.484 135.179 191.236 135.179 191.236C135.179 191.236 135.179 191.498 135.123 192.015C135.068 192.533 135.013 193.299 134.923 194.299C134.744 196.321 134.475 199.288 134.13 203.118C133.44 210.783 132.391 221.892 131.114 235.679V236.072L130.914 235.727L124.484 224.418L124.622 224.487L91.5636 228.441L91.7016 228.247C93.0057 233.167 94.503 238.239 96.021 243.427C97.539 248.616 99.1398 253.915 100.851 259.297C102.562 264.679 104.301 270.199 106.233 275.726C107.206 278.486 108.234 281.246 109.483 283.965C110.758 286.67 112.217 289.284 113.851 291.789C116.726 296.349 120.319 300.415 124.49 303.83C126.546 305.468 128.843 306.776 131.301 307.708C132.519 308.142 133.78 308.45 135.061 308.625C136.335 308.784 137.624 308.784 138.898 308.625C139.527 308.547 140.151 308.435 140.768 308.287C141.375 308.101 141.996 307.942 142.582 307.715C143.171 307.492 143.747 307.236 144.307 306.949C144.851 306.643 145.368 306.293 145.853 305.9C147.71 304.24 149.212 302.222 150.269 299.966C152.328 295.58 153.837 290.957 154.761 286.2C156.499 277.398 157.585 268.48 158.011 259.518C158.507 251.107 158.611 243.248 158.563 236.058C158.528 232.477 158.273 229.068 158.087 225.846C157.9 222.624 157.666 219.588 157.479 216.745C157.065 211.066 156.713 206.174 156.417 202.172C156.12 198.17 155.892 195.072 155.727 192.961C155.651 191.912 155.589 191.112 155.554 190.566C155.52 190.021 155.534 189.773 155.534 189.773Z" fill="#FF9A6C"/>
<path d="M130.907 234.513C130.913 234.69 130.901 234.868 130.873 235.044C130.824 235.382 130.804 235.9 130.679 236.541C130.378 238.377 129.916 240.182 129.299 241.937C128.378 244.536 127.257 247.06 125.946 249.486C124.497 252.246 122.744 255.164 120.93 258.249C119.203 261.132 117.646 264.113 116.265 267.177C115.143 269.676 114.283 272.284 113.699 274.96C113.313 276.775 113.114 278.625 113.105 280.48C113.105 281.136 113.14 281.64 113.14 281.985C113.153 282.162 113.153 282.339 113.14 282.516C113.096 282.344 113.073 282.168 113.071 281.992C113.071 281.647 112.96 281.136 112.967 280.48C112.926 278.628 113.088 276.777 113.45 274.96C114.002 272.256 114.844 269.618 115.962 267.094C117.328 264.012 118.884 261.016 120.619 258.124C122.434 255.033 124.193 252.115 125.656 249.382C126.965 246.959 128.093 244.443 129.03 241.854C129.665 240.119 130.161 238.335 130.514 236.521C130.659 235.879 130.707 235.375 130.769 235.03C130.8 234.854 130.846 234.681 130.907 234.513Z" fill="#FF9A6C"/>
<path d="M103.273 183.887C102.369 184.067 86.858 191.236 86.9615 215.13C87.0443 232.967 91.826 250.079 91.826 250.079L129.196 232.484L103.273 183.887Z" fill="#349F6E"/>
<path d="M155.533 189.773C155.533 189.773 159.935 185.226 159.935 179.285C159.811 175.23 159.04 171.221 157.651 167.41C157.651 167.41 156.913 161.2 156.443 158.751L158.451 154.962C158.451 154.962 163.93 157.364 164.841 153.824L161.618 149.408C160.896 148.421 159.863 147.704 158.686 147.372L153.856 145.992C153.013 145.755 152.128 145.703 151.263 145.842C150.398 145.98 149.574 146.304 148.846 146.793L143.147 150.65L146.687 143.343L152.628 142.087C152.628 142.087 161.073 145.737 162.674 140.942L155.595 136.802L142.119 137.036C142.119 137.036 139.035 140.804 138.352 141.942C137.668 143.081 135.44 147.014 135.44 147.014L132.066 138.292C132.066 138.292 132.169 132.724 132.066 128.087C131.921 122.967 128.912 121.256 125.856 122.967C125.552 123.133 124.179 136.843 124.862 140.045C125.545 143.246 131.445 167.003 131.445 167.003C131.445 167.003 133.515 172.413 134.308 174.006C135.461 176.368 136.038 178.969 135.992 181.596C136.13 184.122 135.171 191.946 135.171 191.946" fill="#FFBF9D"/>
<path d="M135.122 191.988C135.122 191.988 135.122 191.836 135.122 191.546C135.122 191.256 135.198 190.801 135.26 190.235C135.378 189.083 135.557 187.379 135.716 185.164C135.825 183.936 135.862 182.704 135.826 181.472C135.822 180.003 135.646 178.54 135.302 177.111C135.114 176.322 134.863 175.549 134.55 174.8C134.191 174.041 133.798 173.241 133.453 172.406C132.763 170.729 132.073 168.956 131.321 167.051C130.348 163.111 129.251 158.771 128.126 154.072C127.546 151.717 126.948 149.284 126.332 146.772C126.021 145.509 125.711 144.233 125.387 142.936C125.228 142.28 125.069 141.632 124.91 140.969C124.828 140.638 124.738 140.314 124.669 139.976C124.6 139.638 124.579 139.286 124.552 138.934C124.463 136.098 124.548 133.259 124.807 130.433C124.917 128.984 125.042 127.521 125.2 126.038C125.283 125.299 125.366 124.561 125.483 123.809C125.483 123.623 125.538 123.436 125.58 123.243C125.577 123.195 125.577 123.146 125.58 123.098V123.022V122.974L125.635 122.891C125.656 122.858 125.688 122.834 125.725 122.822H125.794L125.925 122.76C126.271 122.58 126.636 122.441 127.015 122.346C127.794 122.136 128.619 122.185 129.368 122.484C130.109 122.815 130.727 123.37 131.134 124.071C131.893 125.484 132.251 127.078 132.169 128.68C132.169 131.845 132.169 135.065 132.169 138.34V138.271C133.239 141.031 134.384 143.991 135.543 147H135.219L138.172 141.873C139.318 140.176 140.622 138.609 141.919 136.995L141.967 136.933H142.14L144.665 136.884L155.615 136.705H155.671H155.712L162.791 140.845L162.916 140.921L162.84 140.99C162.687 141.47 162.433 141.912 162.095 142.286C161.757 142.659 161.343 142.956 160.88 143.157C159.969 143.508 158.99 143.65 158.017 143.571C156.137 143.425 154.294 142.975 152.559 142.239H152.662L146.721 143.495L146.839 143.405L143.292 150.712L143.051 150.498L148.874 146.607C149.861 145.981 151.004 145.646 152.172 145.641C152.743 145.644 153.311 145.72 153.863 145.868L155.45 146.317L158.576 147.2C159.634 147.468 160.592 148.036 161.336 148.835C162.647 150.505 163.785 152.161 164.965 153.748L165.006 153.803V153.872C164.842 154.53 164.429 155.099 163.854 155.459C163.287 155.779 162.641 155.932 161.991 155.901C160.762 155.858 159.552 155.584 158.424 155.094L158.589 155.038C157.899 156.418 157.209 157.619 156.581 158.82V158.737C157.12 161.835 157.444 164.733 157.768 167.41C158.917 170.577 159.65 173.88 159.949 177.236C160.091 178.593 160.06 179.963 159.859 181.314C159.668 182.434 159.35 183.528 158.914 184.577C158.314 186.011 157.535 187.362 156.595 188.6C156.271 189.021 156.016 189.324 155.836 189.525C155.747 189.626 155.653 189.723 155.553 189.814L155.809 189.504C155.988 189.304 156.23 188.986 156.547 188.565C157.459 187.317 158.219 185.964 158.81 184.536C159.231 183.489 159.536 182.399 159.721 181.286C159.906 179.948 159.927 178.592 159.783 177.249C159.462 173.916 158.718 170.638 157.568 167.493C157.23 164.816 156.878 161.918 156.347 158.84V158.799V158.757L158.348 154.969L158.403 154.866L158.513 154.914C159.608 155.376 160.776 155.638 161.963 155.687C162.563 155.712 163.157 155.571 163.682 155.28C164.194 154.953 164.562 154.441 164.71 153.852V153.976C163.53 152.396 162.357 150.705 161.087 149.091C160.383 148.334 159.475 147.797 158.472 147.545L155.346 146.669C154.316 146.306 153.241 146.086 152.152 146.013C151.042 146.019 149.957 146.337 149.019 146.931L143.216 150.829L142.712 151.167L142.975 150.622L146.514 143.308V143.232H146.597L152.531 141.97H152.586H152.642C154.353 142.665 156.166 143.079 158.01 143.198C158.929 143.276 159.854 143.143 160.715 142.812C161.131 142.631 161.505 142.363 161.809 142.027C162.114 141.69 162.343 141.292 162.481 140.859L162.557 141.073L155.477 136.933H155.567L144.617 137.119L142.091 137.167L142.229 137.098C140.946 138.699 139.621 140.293 138.51 141.928C137.51 143.674 136.523 145.378 135.564 147.048L135.378 147.372L135.247 147.021L131.879 138.299V138.264C131.879 134.994 131.879 131.774 131.879 128.604C131.963 127.061 131.622 125.524 130.893 124.161C130.525 123.517 129.962 123.007 129.285 122.705C128.604 122.433 127.854 122.39 127.146 122.581C126.789 122.667 126.444 122.797 126.118 122.967L125.994 123.029H125.932C125.987 123.153 125.821 122.864 125.87 122.946C125.918 123.029 125.945 123.043 125.945 123.029V123.084C125.942 123.128 125.942 123.172 125.945 123.216C125.904 123.395 125.876 123.581 125.849 123.761C125.738 124.499 125.656 125.244 125.573 125.982C125.407 127.452 125.276 128.915 125.166 130.364C124.91 133.174 124.82 135.996 124.897 138.816C124.914 139.152 124.954 139.486 125.014 139.817C125.076 140.148 125.166 140.507 125.242 140.811C125.407 141.501 125.566 142.122 125.725 142.77C126.033 144.077 126.343 145.355 126.656 146.607C127.263 149.127 127.854 151.563 128.429 153.914C129.568 158.606 130.624 162.953 131.576 166.899C132.266 168.79 132.956 170.584 133.646 172.254C133.991 173.096 134.37 173.875 134.736 174.655C135.068 175.416 135.338 176.203 135.543 177.008C135.883 178.448 136.052 179.923 136.047 181.403C136.075 182.642 136.029 183.882 135.909 185.115C135.723 187.323 135.53 189.028 135.392 190.18C135.318 190.746 135.263 191.181 135.226 191.484C135.15 191.843 135.122 191.988 135.122 191.988Z" fill="#FF9A6C"/>
<path d="M157.19 147.566C156.669 147.687 156.165 147.874 155.692 148.124C154.608 148.847 153.58 149.65 152.615 150.526C151.428 151.505 150.345 152.375 149.551 152.989C149.142 153.353 148.693 153.67 148.213 153.934C148.56 153.512 148.953 153.13 149.386 152.796C150.138 152.106 151.201 151.229 152.387 150.243C153.367 149.353 154.435 148.567 155.575 147.897C156.057 147.597 156.629 147.48 157.19 147.566Z" fill="#FF9A6C"/>
<path d="M118.598 201.71C118.695 201.676 121.193 208.562 124.18 217.09C127.168 225.619 129.521 232.553 129.424 232.588C129.328 232.622 126.837 225.736 123.842 217.207C120.848 208.679 118.508 201.71 118.598 201.71Z" fill="#263238"/>
</svg>
