<svg width="373" height="354" viewBox="0 0 373 354" fill="none" xmlns="http://www.w3.org/2000/svg">
<path d="M352.111 79.7918C352.535 76.7202 348.199 74.1916 344.934 73.9313C343.38 73.8049 341.766 74.0429 340.293 73.5297C337.103 72.4141 335.831 68.3237 332.715 66.985C330.394 66.0033 327.709 66.8734 325.456 68.0113C323.203 69.1492 320.994 70.5771 318.45 70.7333C316.256 70.8746 313.876 70.064 311.958 71.1349C310.53 71.9307 309.778 73.5817 308.462 74.5486C307.146 75.5154 305.487 75.7013 303.888 75.7906C302.289 75.8798 300.638 75.8947 299.181 76.5343C297.723 77.1739 296.518 78.7654 296.823 80.3198L352.111 79.7918Z" fill="#E0E0E0"/>
<path d="M361.766 292.494C362.339 288.344 356.485 284.931 352.098 284.581C350 284.41 347.821 284.73 345.835 284.038C341.529 282.551 339.811 276.98 335.609 275.203C332.471 273.879 328.856 275.062 325.815 276.594C322.773 278.126 319.761 280.052 316.362 280.268C313.387 280.461 310.189 279.36 307.601 280.811C305.675 281.881 304.663 284.105 302.886 285.414C301.108 286.723 298.877 286.969 296.721 287.087C294.564 287.206 292.325 287.229 290.362 288.129C288.398 289.029 286.77 291.104 287.179 293.231L361.766 292.494Z" fill="#EBEBEB"/>
<path d="M74.0362 87.6976C74.3709 85.2805 70.9572 83.2948 68.3989 83.0866C67.1792 82.9899 65.9074 83.1758 64.7472 82.7742C62.2409 81.8966 61.2369 78.6615 58.7975 77.6277C56.968 76.884 54.8632 77.5385 53.0932 78.4383C51.3232 79.3382 49.568 80.4538 47.5823 80.5802C45.8569 80.6844 43.9901 80.0522 42.4804 80.8926C41.3574 81.5173 40.7698 82.8114 39.7286 83.5774C38.6503 84.2418 37.4028 84.5801 36.1365 84.5517C34.8703 84.5191 33.6091 84.7234 32.4179 85.1541C31.28 85.6821 30.3281 86.887 30.5661 88.129L74.0362 87.6976Z" fill="#EBEBEB"/>
<path d="M78.8927 237.72C79.3687 234.247 74.475 231.391 70.7936 231.093C69.0385 230.952 67.2089 231.22 65.5876 230.64C61.9806 229.383 60.5453 224.734 57.0275 223.247C54.4022 222.139 51.3753 223.128 48.8466 224.407C46.318 225.686 43.7819 227.308 40.9335 227.486C38.4644 227.642 35.7721 226.742 33.6079 227.94C31.994 228.84 31.1462 230.699 29.6588 231.792C28.1713 232.886 26.3046 233.094 24.4974 233.198C22.6902 233.302 20.8234 233.309 19.1798 234.068C17.5362 234.827 16.1678 236.56 16.5099 238.33L78.8927 237.72Z" fill="#E0E0E0"/>
<path d="M343.886 167.104H333.652V208.812H343.886V167.104Z" fill="#EBEBEB"/>
<path d="M338.77 169.045H327.83L333.304 163.318L338.77 157.584L344.244 163.318L349.718 169.045H338.77Z" fill="#EBEBEB"/>
<path d="M43.1421 141.268H35.1992V173.641H43.1421V141.268Z" fill="#F5F5F5"/>
<path d="M39.1706 142.777H30.6699L34.924 138.322L39.1706 133.875L43.4172 138.322L47.6638 142.777H39.1706Z" fill="#F5F5F5"/>
<path d="M351.091 353.375C351.091 353.479 277.397 353.568 186.507 353.568C95.6178 353.568 21.9082 353.479 21.9082 353.375C21.9082 353.271 95.5881 353.182 186.507 353.182C277.426 353.182 351.091 353.263 351.091 353.375Z" fill="#263238"/>
<path d="M314.293 0.0429688H59.1016V352.698H314.293V0.0429688Z" fill="#FAFAFA"/>
<path d="M199.507 21.2612H171.938V31.9856H199.507V21.2612Z" fill="#F5F5F5"/>
<path d="M199.515 31.9858C199.509 31.9189 199.509 31.8518 199.515 31.785C199.515 31.6362 199.515 31.4503 199.515 31.2197V29.0778C199.515 27.2111 199.47 24.5486 199.44 21.2614L199.574 21.3953L172.005 21.4548C171.826 21.6258 172.235 21.2168 172.191 21.2614V26.7574C172.191 28.5498 172.191 30.2975 172.191 31.9635L172.005 31.7775L191.721 31.8668L197.477 31.9188H199.031H199.433H199.582C199.413 31.9293 199.244 31.9293 199.076 31.9188H197.589L191.877 31.9709L171.938 32.194H171.752V26.7723C171.752 25.8724 171.752 24.9651 171.752 24.0429V21.2763C171.752 21.3135 172.124 20.9044 171.953 21.0829L199.522 21.1424H199.656V21.2763C199.656 24.6007 199.597 27.2855 199.582 29.1745V31.2867C199.582 31.5098 199.582 31.6808 199.582 31.8296C199.582 31.9783 199.515 31.9932 199.515 31.9858Z" fill="#263238"/>
<path d="M250.221 136.039C250.221 136.039 250.221 135.972 250.221 135.838C250.221 135.704 250.221 135.503 250.221 135.28V133.138C250.221 131.264 250.176 128.602 250.147 125.314L250.28 125.448L222.711 125.508L222.904 125.314V130.818C222.904 132.61 222.904 134.358 222.904 136.024L222.718 135.838L242.427 135.927L248.183 135.979H249.737H250.147H250.288C250.119 135.99 249.951 135.99 249.782 135.979H248.295L242.575 136.031L222.741 136.113H222.555V135.927C222.555 134.254 222.555 132.506 222.555 130.721V125.218L222.748 125.024L250.318 125.084H250.459V125.218C250.459 128.542 250.407 131.227 250.392 133.123C250.392 134.016 250.392 134.722 250.392 135.228C250.392 135.451 250.392 135.63 250.392 135.771C250.392 135.912 250.228 136.046 250.221 136.039Z" fill="#263238"/>
<path opacity="0.2" d="M222.65 136.038L225.142 139.727H251.797L250.22 125.314V136.038H222.65Z" fill="black"/>
<path d="M168.012 74.8386C168.012 74.8386 168.012 74.7642 168.012 74.6378C168.012 74.5114 168.012 74.3031 168.012 74.0726L167.975 71.9307C167.975 70.0639 167.938 67.4014 167.9 64.1068L168.034 64.2481L140.465 64.3076L140.658 64.1142V69.6103C140.658 71.4001 140.658 73.1355 140.658 74.8163L140.472 74.6303L160.181 74.7196L165.937 74.7717H167.491H167.908C167.955 74.7657 168.002 74.7657 168.049 74.7717C167.881 74.7821 167.712 74.7821 167.543 74.7717H166.056L160.337 74.8237L140.502 74.913H140.316V74.727C140.316 73.0462 140.316 71.3059 140.316 69.521V64.1291C140.271 64.1291 140.68 63.7572 140.509 63.9283L168.079 63.9878H168.22V64.1217C168.22 67.4535 168.168 70.1383 168.153 72.0273V74.1395C168.153 74.3552 168.153 74.5337 168.153 74.675C168.153 74.8163 168.019 74.846 168.012 74.8386Z" fill="#263238"/>
<path opacity="0.2" d="M140.441 74.8386L142.933 78.5275H169.588L168.011 64.1143V74.8386H140.441Z" fill="black"/>
<path d="M250.979 26.6459C250.973 26.5791 250.973 26.5119 250.979 26.4451C250.979 26.2964 250.979 26.1104 250.979 25.8799V23.738C250.979 21.8713 250.935 19.2088 250.905 15.9216L251.039 16.0554L223.469 16.1149C223.291 16.286 223.7 15.8769 223.655 15.9216V21.4176C223.655 23.21 223.655 24.9577 223.655 26.6236L223.469 26.4377L243.185 26.5269L248.941 26.579H250.496H250.897H251.046C250.878 26.5895 250.709 26.5895 250.54 26.579H249.053L243.341 26.631L223.499 26.7203H223.313V21.4325C223.313 20.5326 223.313 19.6253 223.313 18.703V15.9364C223.276 15.9736 223.685 15.5646 223.514 15.7431L251.083 15.8026H251.217V15.9364C251.217 19.2608 251.158 21.9456 251.143 23.8347C251.143 24.7346 251.143 25.4337 251.143 25.9468C251.143 26.1699 251.143 26.3484 251.143 26.4897C251.143 26.6311 250.979 26.6534 250.979 26.6459Z" fill="#263238"/>
<path opacity="0.2" d="M223.402 26.6458L225.901 30.3346H252.556L250.979 15.9214V26.6458H223.402Z" fill="black"/>
<path d="M159.865 251.113C159.86 251.047 159.86 250.979 159.865 250.913C159.865 250.756 159.865 250.578 159.865 250.347C159.865 249.827 159.865 249.113 159.865 248.206C159.865 246.331 159.821 243.676 159.791 240.382L159.925 240.516L132.355 240.575C132.177 240.746 132.586 240.337 132.541 240.382V245.885C132.541 247.685 132.541 249.42 132.541 251.091L132.355 250.905L152.071 250.987L157.828 251.039H159.382H159.784H159.932C159.764 251.05 159.595 251.05 159.427 251.039H157.939L152.227 251.091L132.385 251.18H132.199V245.774C132.199 244.881 132.199 243.966 132.199 243.052V240.27C132.199 240.315 132.571 239.906 132.4 240.077L159.97 240.136H160.103V240.27C160.103 243.594 160.044 246.287 160.029 248.176V250.288C160.029 250.504 160.029 250.682 160.029 250.823C160.029 250.965 159.865 251.113 159.865 251.113Z" fill="#263238"/>
<path opacity="0.2" d="M132.289 251.114L134.788 254.795H161.443L159.866 240.382V251.114H132.289Z" fill="black"/>
<path d="M98.5166 67.3786C98.51 67.3118 98.51 67.2446 98.5166 67.1778C98.5166 67.0291 98.5166 66.8431 98.5166 66.6126V64.4781C98.5166 62.604 98.4719 59.9415 98.4422 56.6542L98.5761 56.7881L71.0065 56.8476C70.8281 57.0187 71.2371 56.6096 71.1999 56.6542V58.045C71.1999 58.5061 71.1999 58.9746 71.1999 59.4283V62.1652C71.1999 63.9575 71.1999 65.7053 71.1999 67.3712L71.014 67.1853L90.7299 67.2745L96.4862 67.3266H98.0406H98.4422H98.5909C98.4225 67.337 98.2536 67.337 98.0852 67.3266H96.5978L90.8861 67.3786L71.0437 67.4604H70.8652V67.2745C70.8652 65.6011 70.8652 63.8534 70.8652 62.0685V59.4357C70.8652 58.9821 70.8652 58.5135 70.8652 58.0524V56.6617C70.8652 56.7063 71.2371 56.2973 71.066 56.4683L98.6356 56.5278H98.7694V56.6617C98.7694 59.9861 98.7174 62.6709 98.6951 64.5599V66.6721C98.6951 66.8952 98.6951 67.0737 98.6951 67.215C98.6951 67.3563 98.524 67.3861 98.5166 67.3786Z" fill="#263238"/>
<path d="M112.305 56.6545C112.295 56.5879 112.295 56.5203 112.305 56.4537C112.305 56.305 112.305 56.119 112.305 55.8885C112.305 55.3679 112.305 54.6539 112.305 53.7466C112.305 51.8799 112.268 49.2174 112.238 45.9301L112.372 46.064L84.7949 46.1235L84.9883 45.9301V51.4262C84.9883 53.2185 84.9883 54.9588 84.9883 56.6322L84.8024 56.4463L104.518 56.5355L110.275 56.5876H111.822H112.126H112.275C112.104 56.5978 111.933 56.5978 111.762 56.5876H110.275L104.563 56.6396L84.7205 56.7289H84.5346V56.5429C84.5346 54.8622 84.5346 53.1268 84.5346 51.3369V45.945C84.49 45.945 84.9065 45.5732 84.728 45.7442L112.305 45.8037H112.439V45.945C112.439 49.2694 112.379 51.9542 112.364 53.8433C112.364 54.7357 112.364 55.4422 112.364 55.9554C112.364 56.1711 112.364 56.3496 112.364 56.4909C112.364 56.6322 112.305 56.6619 112.305 56.6545Z" fill="#263238"/>
<path d="M113.689 67.3794H86.1191V78.1038H113.689V67.3794Z" fill="#EBEBEB"/>
<path d="M181.8 278.23H154.23V288.954H181.8V278.23Z" fill="#EBEBEB"/>
<path d="M288.441 315.2H260.871V325.924H288.441V315.2Z" fill="#EBEBEB"/>
<path d="M129.062 318.532H101.492V329.256H129.062V318.532Z" fill="#EBEBEB"/>
<path d="M291.579 31.9858H264.01V42.7102H291.579V31.9858Z" fill="#F5F5F5"/>
<path d="M231.396 84.1055H203.826V94.8298H231.396V84.1055Z" fill="#F5F5F5"/>
<path d="M109.175 245.439H81.6055V256.164H109.175V245.439Z" fill="#F5F5F5"/>
<path d="M291.579 250.801H264.01V261.526H291.579V250.801Z" fill="#EBEBEB"/>
<path d="M218.941 177.939H191.371V188.664H218.941V177.939Z" fill="#EBEBEB"/>
<path d="M113.689 177.457H86.1191V188.181H113.689V177.457Z" fill="#EBEBEB"/>
<path d="M159.48 146.584H131.91V157.309H159.48V146.584Z" fill="#EBEBEB"/>
<path d="M146.45 13.8169H118.881V24.5413H146.45V13.8169Z" fill="#F5F5F5"/>
<path d="M291.579 178.958H264.01V189.683H291.579V178.958Z" fill="#EBEBEB"/>
<path d="M191.297 42.7097C191.29 42.6429 191.29 42.5756 191.297 42.5089C191.297 42.3601 191.297 42.1742 191.297 41.9511C191.297 41.4305 191.297 40.7165 191.297 39.8092C191.297 37.935 191.252 35.28 191.222 31.9853L191.356 32.1192L163.727 32.1935C163.549 32.3646 163.958 31.9556 163.921 32.0002V42.7097L163.735 42.5237L183.443 42.613L189.2 42.6651H190.754H191.156H191.304C191.136 42.6842 190.967 42.6842 190.799 42.6651H189.311L183.599 42.7171L163.765 42.7989H163.579V42.6056C163.579 40.9322 163.579 39.1845 163.579 37.3995V34.7742C163.579 34.3131 163.579 33.852 163.579 33.3835V31.9927C163.541 32.0374 163.95 31.6283 163.779 31.7994L191.349 31.8589H191.483V31.9927C191.483 35.3171 191.431 38.0094 191.408 39.8984V42.0106C191.408 42.2263 191.408 42.4047 191.408 42.5461C191.408 42.6874 191.304 42.7171 191.297 42.7097Z" fill="#263238"/>
<path d="M282.103 52.5269H254.533V63.2512H282.103V52.5269Z" fill="#F5F5F5"/>
<path d="M282.103 63.2512C282.103 63.2512 282.103 63.1843 282.103 63.0504C282.103 62.9166 282.103 62.7158 282.103 62.4926C282.103 61.972 282.103 61.2581 282.103 60.3507C282.103 58.4766 282.066 55.8215 282.029 52.5269L282.163 52.6607L254.593 52.7202L254.786 52.5269V58.0304C254.786 59.8227 254.786 61.5704 254.786 63.2364L254.601 63.0504L274.309 63.1397L280.065 63.1917H281.62H282.029H282.17C282.002 63.2109 281.832 63.2109 281.664 63.1917H280.177L274.458 63.2438L254.534 63.4297H254.348V63.2364C254.348 61.563 254.348 59.8153 254.348 58.0304V52.5269L254.541 52.3335L282.111 52.393H282.252V52.5269C282.252 55.8513 282.2 58.5435 282.185 60.4326L282.148 62.5447C282.148 62.7604 282.148 62.9389 282.148 63.0802C282.148 63.2215 282.111 63.2587 282.103 63.2512Z" fill="#263238"/>
<path d="M294.784 73.9831C294.779 73.9163 294.779 73.8491 294.784 73.7823C294.784 73.6336 294.784 73.4477 294.784 73.2171C294.784 72.6965 294.784 71.9825 294.784 71.0752C294.784 69.2085 294.74 66.546 294.71 63.2513L294.844 63.3926L267.215 63.4298C267.036 63.6009 267.445 63.1918 267.408 63.2364V66.0031C267.408 66.9253 267.408 67.8326 267.408 68.7325V73.9385L267.222 73.7526L286.931 73.8418L292.687 73.8939H294.241H294.643H294.792C294.623 73.9044 294.454 73.9044 294.286 73.8939H292.798L287.087 73.9459L267.252 74.0352H267.066V73.8493C267.066 72.1685 267.066 70.4331 267.066 68.6432V63.2736C267.021 63.2736 267.43 62.9018 267.259 63.0728L294.829 63.1323H294.963V63.2662C294.963 66.598 294.911 69.2828 294.888 71.1719C294.888 72.0643 294.888 72.7709 294.888 73.284C294.888 73.4997 294.888 73.6782 294.888 73.8195C294.888 73.9608 294.792 73.9906 294.784 73.9831Z" fill="#263238"/>
<path d="M123.818 111.392H96.248V122.116H123.818V111.392Z" fill="#EBEBEB"/>
<path d="M123.819 122.124C123.814 122.057 123.814 121.99 123.819 121.923C123.819 121.774 123.819 121.588 123.819 121.358C123.819 120.837 123.819 120.123 123.819 119.216C123.819 117.342 123.774 114.687 123.745 111.392L123.878 111.526L96.3089 111.585L96.5023 111.392V114.174C96.5023 115.088 96.5023 116.003 96.5023 116.896V122.102L96.3163 121.916L116.025 121.997L121.781 122.05H123.336H123.737H123.886C123.717 122.06 123.549 122.06 123.38 122.05H121.893L116.181 122.102L96.3461 122.191H96.1602V122.005C96.1602 120.324 96.1602 118.589 96.1602 116.799V111.295L96.3535 111.102L123.923 111.162H124.057V111.295C124.057 114.62 124.005 117.312 123.983 119.201V121.313C123.983 121.529 123.983 121.707 123.983 121.849C123.947 121.95 123.891 122.044 123.819 122.124Z" fill="#263238"/>
<path d="M136.5 132.848C136.49 132.782 136.49 132.714 136.5 132.648C136.5 132.499 136.5 132.313 136.5 132.082V129.94C136.5 128.074 136.463 125.411 136.433 122.124L136.567 122.258L108.99 122.317L109.184 122.124V127.62C109.184 129.412 109.184 131.16 109.184 132.826L108.998 132.64L128.713 132.729L134.47 132.781H136.017H136.426H136.575C136.404 132.792 136.232 132.792 136.061 132.781H134.574L128.862 132.833L109.02 132.923H108.834V132.737C108.834 131.063 108.834 129.316 108.834 127.531V122.035L109.027 121.841L136.604 121.901H136.671V122.035C136.671 125.359 136.612 128.044 136.597 129.933V132.045C136.597 132.268 136.597 132.439 136.597 132.588C136.575 132.678 136.542 132.765 136.5 132.848Z" fill="#263238"/>
<path d="M304.259 132.521H276.689V143.245H304.259V132.521Z" fill="#F5F5F5"/>
<path d="M304.259 143.245C304.259 143.245 304.259 143.179 304.259 143.045C304.259 142.911 304.259 142.71 304.259 142.487C304.259 141.966 304.259 141.252 304.259 140.345C304.259 138.471 304.214 135.816 304.184 132.521L304.318 132.655L276.749 132.714L276.942 132.521V135.303C276.942 136.217 276.942 137.132 276.942 138.025V143.231L276.756 143.045L296.464 143.134L302.221 143.186H303.775H304.184H304.326C304.157 143.2 303.988 143.2 303.82 143.186H302.332L296.621 143.238L276.786 143.32H276.488V143.126C276.488 141.453 276.488 139.705 276.488 137.92V132.417L276.682 132.224L304.251 132.283H304.385V132.417C304.385 135.741 304.333 138.426 304.311 140.323C304.311 141.215 304.311 141.922 304.311 142.427C304.311 142.651 304.311 142.829 304.311 142.97C304.311 143.112 304.266 143.253 304.259 143.245Z" fill="#263238"/>
<path d="M207.71 240.382C207.704 240.315 207.704 240.248 207.71 240.181C207.71 240.032 207.71 239.847 207.71 239.616C207.71 239.103 207.71 238.381 207.71 237.474C207.71 235.607 207.665 232.945 207.635 229.658L207.769 229.791L180.2 229.851C180.021 230.022 180.43 229.613 180.386 229.658V235.154C180.386 236.946 180.386 238.694 180.386 240.36L180.2 240.174L199.915 240.263L205.672 240.315H207.226H207.628H207.777C207.608 240.325 207.439 240.325 207.271 240.315H205.783L200.072 240.367L180.229 240.456H180.043V235.057C180.043 234.157 180.043 233.25 180.043 232.328V229.561C180.006 229.598 180.415 229.189 180.244 229.368L207.814 229.427H207.948V229.561C207.948 232.885 207.888 235.57 207.873 237.459C207.873 238.359 207.873 239.058 207.873 239.571C207.873 239.794 207.873 239.973 207.873 240.114C207.873 240.256 207.71 240.389 207.71 240.382Z" fill="#263238"/>
<path d="M220.383 251.114C220.383 251.114 220.383 251.039 220.383 250.913C220.383 250.786 220.383 250.578 220.383 250.348C220.383 249.827 220.383 249.113 220.383 248.206C220.383 246.332 220.338 243.676 220.309 240.382L220.443 240.516L192.873 240.575L193.066 240.382V245.885C193.066 247.685 193.066 249.42 193.066 251.091L192.88 250.905L212.589 250.987L218.345 251.039H219.9H220.309H220.45C220.282 251.05 220.113 251.05 219.944 251.039H218.457L212.738 251.091L192.903 251.181H192.717V250.995C192.717 249.314 192.717 247.574 192.717 245.789V240.285L192.91 240.092L220.48 240.151H220.621V240.285C220.621 243.61 220.569 246.302 220.554 248.191V250.303C220.554 250.519 220.554 250.697 220.554 250.838C220.531 250.947 220.47 251.045 220.383 251.114Z" fill="#263238"/>
<path d="M108.088 278.23C108.078 278.163 108.078 278.096 108.088 278.029C108.088 277.88 108.088 277.694 108.088 277.464L108.051 275.322C108.051 273.448 108.051 270.793 107.984 267.498L108.118 267.632L80.5409 267.691C80.3699 267.87 80.7789 267.461 80.7343 267.498V272.987C80.7343 274.786 80.7343 276.527 80.7343 278.193L80.5484 278.007L100.264 278.089L106.021 278.141H107.568H107.977H108.125C107.954 278.151 107.783 278.151 107.612 278.141H106.125L100.413 278.193L80.5707 278.282H80.3848V278.096C80.3848 276.415 80.3848 274.68 80.3848 272.89V267.401L80.5781 267.208L108.155 267.267H108.289V267.401C108.289 270.726 108.229 273.418 108.215 275.307C108.215 276.2 108.215 276.906 108.177 277.419C108.177 277.635 108.177 277.813 108.177 277.955C108.177 278.096 108.088 278.23 108.088 278.23Z" fill="#263238"/>
<path d="M120.763 288.954C120.763 288.954 120.763 288.879 120.763 288.753C120.763 288.626 120.763 288.418 120.763 288.188C120.763 287.674 120.763 286.953 120.763 286.046C120.763 284.179 120.719 281.517 120.689 278.229L120.823 278.363L93.2534 278.423L93.4467 278.229V283.725C93.4467 285.518 93.4467 287.265 93.4467 288.931L93.2608 288.745L112.969 288.835L118.726 288.887H120.28H120.689H120.83C120.662 288.897 120.493 288.897 120.325 288.887H118.837L113.118 288.939L93.2831 289.028H93.0972V288.842C93.0972 287.169 93.0972 285.421 93.0972 283.636V278.14C93.0526 278.177 93.4616 277.768 93.2905 277.947L120.86 278.006H120.994V278.14C120.994 281.464 120.942 284.149 120.927 286.038V288.15C120.927 288.374 120.927 288.545 120.927 288.693C120.927 288.842 120.771 288.961 120.763 288.954Z" fill="#263238"/>
<path d="M193.936 318.524C193.936 318.524 193.936 318.45 193.936 318.323C193.936 318.197 193.936 317.988 193.936 317.758L193.899 315.616C193.899 313.742 193.854 311.087 193.824 307.792L193.958 307.926L166.389 307.986L166.582 307.792V313.318C166.582 315.118 166.582 316.853 166.582 318.524L166.396 318.338L186.104 318.42L191.861 318.472H193.415H193.824H193.966C193.797 318.482 193.628 318.482 193.46 318.472H191.972L186.253 318.524L166.418 318.613H166.232V318.524C166.232 316.843 166.232 315.103 166.232 313.318V307.814L166.426 307.621L193.995 307.681H194.137V307.814C194.137 311.139 194.085 313.831 194.07 315.72V317.832C194.07 318.048 194.07 318.226 194.07 318.368C194.037 318.429 193.991 318.482 193.936 318.524Z" fill="#263238"/>
<path d="M206.618 329.256C206.612 329.189 206.612 329.122 206.618 329.055C206.618 328.907 206.618 328.721 206.618 328.49V326.348C206.618 324.482 206.573 321.819 206.543 318.532L206.677 318.666L179.108 318.725C178.929 318.896 179.338 318.487 179.301 318.532V321.298C179.301 322.221 179.301 323.128 179.301 324.028V329.234L179.115 329.048L198.824 329.137L204.58 329.189H206.134H206.536H206.685C206.516 329.2 206.347 329.2 206.179 329.189H204.692L198.98 329.241L179.145 329.331H178.959V329.145C178.959 327.471 178.959 325.724 178.959 323.939V318.524L179.152 318.331L206.722 318.391H206.856V318.524C206.856 321.849 206.804 324.534 206.781 326.423C206.781 327.315 206.781 328.022 206.781 328.535C206.781 328.751 206.781 328.929 206.781 329.078C206.781 329.226 206.625 329.264 206.618 329.256Z" fill="#263238"/>
<path d="M288.447 223.983C288.442 223.916 288.442 223.849 288.447 223.782C288.447 223.633 288.447 223.448 288.447 223.217L288.388 221.097C288.388 219.231 288.351 216.568 288.321 213.274L288.455 213.407L260.885 213.467C260.707 213.645 261.116 213.236 261.071 213.274V218.77C261.071 220.559 261.071 222.295 261.071 223.976L260.885 223.79L280.601 223.879L286.357 223.931H287.904H288.313H288.462C288.294 223.941 288.125 223.941 287.956 223.931H286.469L280.757 223.983L260.915 224.072H260.729V218.673C260.729 217.773 260.729 216.866 260.729 215.943V213.177C260.692 213.221 261.101 212.812 260.93 212.983L288.499 213.043H288.633V213.177C288.633 216.501 288.574 219.193 288.559 221.083C288.559 221.975 288.559 222.682 288.559 223.195C288.559 223.41 288.559 223.589 288.559 223.73C288.559 223.871 288.447 223.983 288.447 223.983Z" fill="#263238"/>
<path d="M246.316 283.569C246.316 283.569 246.316 283.495 246.316 283.369C246.316 283.242 246.316 283.034 246.316 282.803V280.661C246.316 278.795 246.272 276.132 246.242 272.838L246.376 272.979L218.806 273.038L219 272.845V275.612C219 276.534 219 277.441 219 278.341V283.547L218.814 283.361L238.522 283.45L244.279 283.502H245.833H246.242H246.383C246.215 283.513 246.046 283.513 245.878 283.502H244.39L238.679 283.555L218.844 283.644H218.658V283.569C218.658 281.889 218.658 280.153 218.658 278.363V272.867C218.613 272.905 219.022 272.495 218.851 272.667L246.421 272.726H246.554V272.852C246.554 276.184 246.502 278.869 246.48 280.758V282.87C246.48 283.086 246.48 283.264 246.48 283.406C246.48 283.547 246.324 283.569 246.316 283.569Z" fill="#263238"/>
<path opacity="0.2" d="M70.2188 198.154L71.9739 200.779H80.4151L82.8917 208.886L86.1194 211.57H113.689L110.469 198.154H70.2188Z" fill="black"/>
<path d="M97.7883 187.429H70.2188V198.154H97.7883V187.429Z" fill="#EBEBEB"/>
<path d="M97.7887 198.154C97.7887 198.154 97.7887 198.087 97.7887 197.953C97.7887 197.819 97.7887 197.618 97.7887 197.395V195.253C97.7887 193.379 97.744 190.717 97.7143 187.43L97.8482 187.563L70.2191 187.63L70.4125 187.437V192.941C70.4125 194.733 70.4125 196.481 70.4125 198.147L70.2266 197.961L89.935 198.05L95.6914 198.102H97.2457H97.6548H97.7961C97.6277 198.112 97.4588 198.112 97.2904 198.102H95.8029L90.0838 198.154L70.2489 198.236H70.0332V198.05C70.0332 196.376 70.0332 194.629 70.0332 192.844V187.34L70.2266 187.147L97.7961 187.206H97.93V187.34C97.93 190.665 97.8779 193.35 97.8556 195.246V197.351C97.8556 197.574 97.8556 197.752 97.8556 197.894C97.8556 198.035 97.7961 198.161 97.7887 198.154Z" fill="#263238"/>
<path d="M110.462 198.154H82.8926V208.878H110.462V198.154Z" fill="#EBEBEB"/>
<path d="M110.469 208.886C110.464 208.819 110.464 208.752 110.469 208.685C110.469 208.536 110.469 208.35 110.469 208.12C110.469 207.599 110.469 206.885 110.469 205.978C110.469 204.104 110.425 201.449 110.395 198.154L110.529 198.288L82.9594 198.347C82.7809 198.526 83.1899 198.117 83.1453 198.154V203.65C83.1453 205.445 83.1453 207.18 83.1453 208.856L82.9594 208.67L102.675 208.759L108.432 208.804H109.986H110.388H110.536C110.368 208.814 110.199 208.814 110.031 208.804H108.543L102.831 208.856L82.9891 208.945H82.8032V203.546C82.8032 202.646 82.8032 201.739 82.8032 200.816V198.05C82.766 198.094 83.175 197.685 83.004 197.857L110.574 197.916H110.64V198.05C110.64 201.374 110.581 204.067 110.566 205.956C110.566 206.848 110.566 207.555 110.566 208.068C110.566 208.283 110.566 208.462 110.566 208.603C110.566 208.744 110.469 208.886 110.469 208.886Z" fill="#263238"/>
<path opacity="0.2" d="M218.746 283.592L221.238 287.28H247.892L246.316 272.867V283.592H218.746Z" fill="black"/>
<path d="M313.98 351.754C313.876 351.754 313.787 273.515 313.787 177.018C313.787 80.5206 313.876 2.24463 313.98 2.24463C314.085 2.24463 314.174 80.4686 314.174 177.018C314.174 273.567 314.092 351.754 313.98 351.754Z" fill="#263238"/>
<path d="M58.7883 3.41943C58.8999 3.41943 58.9817 81.2567 58.9817 177.248C58.9817 273.239 58.8999 351.099 58.7883 351.099C58.6768 351.099 58.5801 273.276 58.5801 177.218C58.5801 81.16 58.6842 3.41943 58.7883 3.41943Z" fill="#263238"/>
<path d="M153.122 324.273C153.786 324.591 154.379 325.04 154.865 325.592C155.352 326.144 155.723 326.788 155.955 327.486C156.413 328.891 156.543 330.382 156.335 331.844C156.015 334.671 154.408 337.526 152.676 339.787C150.296 337.705 149.753 334.083 149.589 332.224C149.329 329.294 150.645 323.835 153.122 324.273Z" fill="#349F6E"/>
<path d="M155.444 344.451C155.275 343.642 155.324 342.802 155.585 342.019C155.847 341.235 156.311 340.534 156.932 339.988C158.152 338.895 160.65 338.501 162.264 338.612C163.008 338.672 163.082 338.836 163.514 339.46C163.697 339.766 163.793 340.116 163.793 340.472C163.793 340.828 163.697 341.177 163.514 341.483C163.159 342.102 162.645 342.615 162.026 342.971C159.959 344.265 157.728 345.135 155.392 344.458" fill="#349F6E"/>
<path d="M152.393 353.122C152.401 352.927 152.428 352.732 152.474 352.542L152.764 350.973C153.03 349.223 153.577 347.528 154.386 345.953C155.224 344.381 156.466 343.061 157.985 342.13C158.453 341.854 158.952 341.637 159.473 341.483C159.611 341.435 159.753 341.398 159.897 341.372C159.993 341.372 160.045 341.372 160.045 341.372C159.364 341.613 158.707 341.917 158.082 342.279C156.614 343.229 155.411 344.537 154.587 346.079C153.792 347.637 153.233 349.303 152.928 351.025C152.787 351.679 152.668 352.215 152.579 352.579C152.534 352.766 152.472 352.948 152.393 353.122Z" fill="#263238"/>
<path d="M152.483 328.52C152.491 328.604 152.491 328.689 152.483 328.773C152.483 328.959 152.483 329.204 152.528 329.517C152.528 330.149 152.595 331.064 152.632 332.194C152.706 334.462 152.766 337.593 152.751 341.052C152.736 344.51 152.647 347.641 152.558 349.909C152.513 351.04 152.468 351.954 152.424 352.587C152.424 352.884 152.386 353.13 152.379 353.33C152.389 353.414 152.389 353.499 152.379 353.583C152.371 353.499 152.371 353.414 152.379 353.33C152.379 353.137 152.379 352.899 152.379 352.587C152.379 351.925 152.424 351.017 152.446 349.902C152.505 347.671 152.565 344.51 152.58 341.052C152.595 337.593 152.58 334.462 152.528 332.201C152.528 331.086 152.491 330.179 152.483 329.517C152.483 329.219 152.483 328.974 152.483 328.773C152.471 328.689 152.471 328.604 152.483 328.52Z" fill="#263238"/>
<path d="M151.329 346.176C151.044 344.465 150.355 342.846 149.321 341.453C148.286 340.06 146.935 338.934 145.38 338.166C144.584 337.779 143.543 337.534 142.888 338.121C142.234 338.709 142.382 339.78 142.702 340.605C143.402 342.312 144.591 343.773 146.12 344.805C147.648 345.838 149.448 346.395 151.292 346.406" fill="#349F6E"/>
<path d="M145.745 340.836C145.92 340.894 146.09 340.968 146.25 341.059C146.445 341.148 146.634 341.25 146.816 341.364C147.072 341.501 147.32 341.653 147.559 341.818C147.82 342.004 148.11 342.197 148.392 342.442C148.675 342.688 148.972 342.956 149.277 343.246C149.917 343.901 150.481 344.627 150.958 345.41C151.422 346.197 151.794 347.036 152.066 347.909C152.273 348.638 152.415 349.385 152.49 350.14C152.52 350.426 152.532 350.714 152.527 351.003C152.544 351.218 152.544 351.434 152.527 351.65C152.527 351.832 152.507 352.014 152.468 352.192C152.423 352.192 152.505 351.412 152.364 350.155C152.33 349.815 152.275 349.477 152.2 349.143C152.121 348.759 152.022 348.379 151.903 348.005C151.629 347.149 151.26 346.325 150.802 345.551C150.334 344.784 149.785 344.068 149.166 343.417C148.868 343.127 148.593 342.844 148.303 342.613C148.048 342.385 147.779 342.172 147.5 341.974C146.436 341.208 145.722 340.888 145.745 340.836Z" fill="#263238"/>
<path d="M325.033 341.401C326.291 343.267 327.441 345.204 328.477 347.202C329.623 349.14 330.658 351.142 331.578 353.197C330.322 351.329 329.172 349.393 328.135 347.396C326.992 345.456 325.957 343.455 325.033 341.401Z" fill="#263238"/>
<path d="M333.296 335.273C333.408 335.273 333.951 339.259 334.524 344.198C335.096 349.136 335.476 353.159 335.371 353.174C335.267 353.189 334.717 349.188 334.144 344.25C333.572 339.311 333.192 335.28 333.296 335.273Z" fill="#263238"/>
<path d="M342.271 340.479C342.216 341.103 342.104 341.72 341.936 342.323C341.691 343.461 341.364 345.038 341.066 346.786C340.769 348.533 340.56 350.132 340.419 351.293C340.383 351.925 340.288 352.552 340.136 353.167C340.064 352.537 340.064 351.9 340.136 351.27C340.348 348.223 340.862 345.203 341.668 342.256C341.802 341.643 342.004 341.047 342.271 340.479Z" fill="#263238"/>
<path d="M237.17 341.996C237.841 343.809 238.39 345.665 238.814 347.552C239.366 349.407 239.791 351.298 240.085 353.211C239.415 351.398 238.865 349.542 238.442 347.656C237.889 345.8 237.464 343.909 237.17 341.996Z" fill="#263238"/>
<path d="M246.303 335.786C246.243 336.654 246.124 337.516 245.946 338.367C245.693 339.951 245.366 342.145 245.098 344.577C244.83 347.009 244.681 349.225 244.585 350.824C244.573 351.693 244.506 352.56 244.384 353.42C244.325 353.192 244.302 352.956 244.317 352.721C244.317 352.274 244.317 351.62 244.317 350.817C244.317 349.203 244.458 346.979 244.718 344.532C244.979 342.085 245.358 339.891 245.678 338.315C245.841 337.526 245.983 336.894 246.102 336.455C246.139 336.225 246.207 335.999 246.303 335.786Z" fill="#263238"/>
<path d="M50.4012 339.988C50.7137 342.207 50.9024 344.442 50.9664 346.682C51.1593 348.92 51.2189 351.167 51.1449 353.412C50.8323 351.193 50.6436 348.959 50.5796 346.719C50.3912 344.481 50.3316 342.233 50.4012 339.988Z" fill="#263238"/>
<path d="M57.5634 343.96C57.203 345.589 56.7182 347.187 56.1131 348.742C55.6269 350.339 55.0177 351.895 54.291 353.398C55.1417 350.174 56.2356 347.019 57.5634 343.96Z" fill="#263238"/>
<path d="M41.9668 342.718C42.6549 344.481 43.219 346.29 43.655 348.132C44.2206 349.941 44.6604 351.788 44.9714 353.658C44.2883 351.903 43.7242 350.104 43.2832 348.273C42.7241 346.452 42.2844 344.596 41.9668 342.718Z" fill="#263238"/>
<path d="M223.834 96.6744L229.717 96.9422C231.613 99.2017 234.1 100.888 236.901 101.813C238.879 102.459 240.967 102.7 243.04 102.523C245.113 102.346 247.13 101.755 248.97 100.784C250.811 99.8126 252.437 98.4817 253.753 96.87C255.069 95.2584 256.048 93.3987 256.632 91.4015C257.894 87.3315 257.518 82.9298 255.585 79.1326C253.651 75.3354 250.313 72.4422 246.279 71.0683C244.301 70.423 242.213 70.1816 240.14 70.3585C238.067 70.5354 236.05 71.1269 234.21 72.0981C232.37 73.0692 230.743 74.4001 229.427 76.0117C228.111 77.6234 227.132 79.4831 226.549 81.4803C225.515 84.8903 225.614 88.5435 226.831 91.8923L223.834 96.6744Z" fill="white"/>
<path d="M223.833 96.6742L224.041 96.3544C224.183 96.1387 224.383 95.8412 224.636 95.447L226.867 91.959H226.748C226.762 91.9726 226.781 91.9803 226.8 91.9803C226.82 91.9803 226.839 91.9726 226.852 91.959C226.861 91.9457 226.866 91.9302 226.866 91.9144C226.866 91.8986 226.861 91.8831 226.852 91.8698C225.954 89.35 225.681 86.6499 226.057 84.0013C226.286 82.3053 226.788 80.6577 227.544 79.1225C229.327 75.4398 232.496 72.6132 236.357 71.2614C238.517 70.5134 240.817 70.2592 243.088 70.5177C245.497 70.8138 247.805 71.6613 249.833 72.9943C250.883 73.6797 251.849 74.4859 252.711 75.3965C253.567 76.342 254.316 77.3796 254.943 78.4903C255.563 79.5959 256.062 80.7654 256.43 81.9784C256.765 83.175 256.969 84.4043 257.04 85.6449C257.176 88.0462 256.782 90.4481 255.887 92.6804C255.076 94.7123 253.845 96.5501 252.275 98.0739C250.706 99.5977 248.832 100.773 246.777 101.523C243.338 102.765 239.568 102.736 236.149 101.441C233.641 100.49 231.415 98.9194 229.679 96.875C229.662 96.8693 229.643 96.8693 229.627 96.875L225.268 96.7188H224.13H223.736H224.101L225.209 96.7857L229.619 97.0386H229.56C231.295 99.132 233.538 100.745 236.075 101.724C239.54 103.056 243.368 103.104 246.866 101.858C248.967 101.104 250.884 99.9124 252.49 98.3624C254.097 96.8124 255.356 94.9391 256.185 92.8664C257.102 90.5901 257.505 88.1396 257.367 85.6895C257.293 84.4311 257.084 83.1844 256.742 81.9709C256.38 80.7343 255.881 79.542 255.255 78.416C254.615 77.2783 253.844 76.2199 252.957 75.2626C250.359 72.5132 246.886 70.754 243.132 70.2872C240.898 70.0457 238.637 70.2895 236.505 71.0018C234.373 71.7142 232.42 72.8783 230.779 74.4148C229.383 75.742 228.238 77.3119 227.403 79.0481C226.643 80.6107 226.141 82.2858 225.915 84.0087C225.556 86.6907 225.858 89.4199 226.793 91.959L226.927 91.8921C226.912 91.88 226.894 91.8734 226.875 91.8734C226.856 91.8734 226.837 91.88 226.823 91.8921C225.866 93.444 225.122 94.6389 224.592 95.4768C224.354 95.8635 224.168 96.161 224.041 96.3767C223.915 96.5924 223.833 96.6742 223.833 96.6742Z" fill="#263238"/>
<path d="M246.583 83.8604L241.89 77.9106L237.205 83.786L246.583 83.8604Z" fill="#349F6E"/>
<path d="M239.586 94.733L243.855 94.7627L243.989 82.893L239.72 82.8633L239.586 94.733Z" fill="#349F6E"/>
<path opacity="0.2" d="M252.624 158.395C252.599 157.705 252.306 157.052 251.807 156.575C251.309 156.097 250.644 155.832 249.954 155.837L240.836 156.045C240.486 154.684 239.311 150.155 238.605 148.028L240.055 140.858L240.709 138.166C240.709 138.166 241.817 135.191 242.048 134.737C242.218 133.438 242.16 132.119 241.877 130.84C241.673 130.41 241.318 130.069 240.88 129.881C240.88 129.881 239.534 125.545 238.768 124.987C238.002 124.43 237.073 125.545 237.073 125.545V124.749C236.76 123.47 236.381 123.262 235.682 123.827C235.254 124.225 234.958 124.744 234.834 125.315C234.834 125.315 234.648 124.154 234.499 123.359C234.351 122.563 233.421 123.039 233.109 123.359C232.796 123.678 234.016 130.989 234.016 130.989L233.562 132.105C233.436 131.419 233.359 130.726 233.332 130.03C233.25 128.669 231.353 124.511 231.353 124.511L232.015 133.339L233.101 135.979L234.752 138.173C234.492 138.82 233.391 141.505 232.759 143.097C230.825 137.504 226.571 125.129 226.318 123.849C226.037 122.697 225.515 121.617 224.786 120.681L213.497 114.903L210.715 110.396V106.06C211.396 105.245 211.878 104.282 212.121 103.248C212.27 102.601 212.478 101.761 212.701 100.883C213.616 100.883 214.776 100.527 215.066 98.6523C215.356 96.7782 214.583 96.1683 213.824 95.9303C213.824 95.7444 213.891 95.5436 213.913 95.38L214.025 94.4504C214.354 94.2726 214.665 94.0634 214.954 93.8256C215.66 93.1502 216.093 92.2403 216.174 91.2672C216.261 90.2976 216.229 89.321 216.077 88.3593C216.214 88.4155 216.36 88.4437 216.508 88.4422C216.655 88.4408 216.801 88.4096 216.937 88.3506C217.072 88.2916 217.194 88.2061 217.295 88.099C217.397 87.9918 217.476 87.8654 217.528 87.7272C216.951 87.5435 216.457 87.1648 216.13 86.6562C216.359 86.7716 216.622 86.8056 216.873 86.7529C217.104 86.6785 217.275 86.3587 217.119 86.1654C217.017 86.0682 216.886 86.0057 216.747 85.9869C216.13 85.7529 215.623 85.2965 215.326 84.7077C215.276 84.5084 215.201 84.3161 215.103 84.135C215.011 83.965 214.904 83.8033 214.783 83.6516C214.569 83.1362 214.261 82.6648 213.876 82.2609C213.563 81.9724 213.192 81.7532 212.789 81.6173C212.385 81.4815 211.957 81.4322 211.533 81.4725C210.988 81.5189 210.456 81.6651 209.964 81.9039C209.905 81.8369 209.838 81.7849 209.778 81.7254C209.424 81.0302 208.916 80.4253 208.292 79.9573C207.668 79.4893 206.945 79.1706 206.179 79.0257C205.351 78.8957 204.507 78.9313 203.693 79.1305C202.88 79.3297 202.115 79.6884 201.441 80.1859C200.489 80.8552 199.693 81.7551 198.734 82.417C198.286 82.7877 197.757 83.048 197.19 83.1772C196.623 83.3064 196.034 83.3007 195.469 83.1608C195.276 83.5772 196.027 83.9045 195.923 84.3804C195.887 84.4824 195.821 84.5708 195.733 84.6335C195.645 84.6961 195.54 84.7298 195.432 84.73C195.124 84.7135 194.818 84.6712 194.517 84.6036C194.364 84.5741 194.206 84.5934 194.064 84.6587C193.923 84.7241 193.805 84.8323 193.729 84.968C193.688 85.1215 193.688 85.283 193.729 85.4365C193.854 86.8419 194.326 88.194 195.105 89.3708C195.553 90.0003 196.147 90.5109 196.838 90.8582C196.838 91.8548 196.838 92.8588 196.8 93.8331L196.741 94.0859C196.741 94.1603 196.741 94.2272 196.741 94.309C195.819 94.1752 194.547 94.3983 194.361 96.4881C194.138 98.9052 195.848 99.344 196.748 99.3663C196.748 99.644 196.771 99.9266 196.815 100.214C196.944 101.431 197.255 102.622 197.737 103.747L198.013 109.116L197.38 109.057L194.264 111.771L187.779 109.808L179.948 105.703L173.812 99.753L169.149 93.8033L168.993 93.9L160.418 76.7946L162.344 74.2436L163.527 71.358L163.013 66.1966C163.013 66.1966 162.173 66.2859 162.091 67.7733C162.055 68.5217 161.971 69.2669 161.838 70.0044L161.34 68.7847C160.919 68.0951 160.546 67.3769 160.224 66.6354C159.042 61.7715 159.072 67.0593 159.206 66.1817C159.206 65.9512 156.231 62.2847 156.231 62.2847C156.231 62.2847 156.751 63.8688 155.993 63.2069C155.234 62.545 157.049 63.9506 156.736 65.3711V66.2487C156.736 66.2487 155.725 65.0215 154.885 65.6314C154.33 66.1331 153.971 66.8159 153.873 67.5576C153.391 67.7614 152.999 68.1343 152.772 68.6062C152.52 69.3053 152.341 72.3248 152.594 72.8677C152.847 73.4106 154.081 76.6309 154.081 76.6309L154.423 78.6315C154.423 78.6315 157.48 91.6763 160.098 99.2622L159.689 99.5076C159.951 101.858 160.912 104.076 162.448 105.874L178.988 125.389L180.439 137.452L180.044 156.439H179.747L179.628 161.816H179.702L179.011 165.631L179.412 168.762L179.107 171.403C179.107 171.403 174.199 173.589 168.368 176.125L168.205 175.768L163.393 177.717C163.393 177.717 163.445 177.895 163.534 178.222L162.441 178.691C157.688 180.729 153.189 182.61 150.943 183.421C145.253 185.474 140.055 190.114 139.616 192.561C139.177 195.008 140.68 208.179 141.334 212.768C142.041 217.647 144.235 235.689 144.235 235.689L156.008 239.906L155.933 202.936V202.49C155.933 202.49 165.245 201.099 171.187 199.85C171.478 200.047 171.781 200.226 172.094 200.385L178.535 198.727L178.17 197.916C183.666 196.295 192.747 193.9 192.747 193.9L196.733 195.848L198.221 196.696L200.965 200.936C200.742 201.389 203.07 207.748 203.256 207.629L203.442 207.584C206.647 216.159 211.89 230.208 212.493 231.829C213.363 234.18 222.161 258.7 224.02 262.411C224.764 263.846 227.784 271.715 228.215 272.868H239.281C239.281 272.868 235.563 245.454 233.19 241.297C230.818 237.14 226.564 222.704 226.564 222.704L223.767 202.81L224.02 202.75C223.775 200.508 223.238 198.308 222.421 196.205L222.183 196.258V196.205L219.729 184.953L251.359 183.904C251.715 183.887 252.063 183.798 252.384 183.643C252.704 183.489 252.991 183.272 253.227 183.005C253.462 182.738 253.642 182.427 253.756 182.09C253.869 181.753 253.914 181.396 253.888 181.041L252.624 158.395ZM218.376 156.558C218.003 156.569 217.638 156.662 217.306 156.829C216.973 156.996 216.681 157.233 216.449 157.525L218.77 147.262C219.196 145.824 219.598 144.381 219.975 142.933L220.019 143.082L219.826 144.086C219.952 143.922 220.071 143.751 220.19 143.588L224.072 155.286C224.349 155.676 224.647 156.051 224.965 156.409L218.376 156.558ZM236.968 156.134C237.212 155.286 237.376 154.417 237.459 153.539L237.697 152.386C237.958 153.992 238.077 155.465 238.121 156.104L236.968 156.134Z" fill="black"/>
<path opacity="0.3" d="M226.705 269.439C226.705 269.439 226.378 268.175 225.701 266.345L226.705 269.439Z" fill="black"/>
<path d="M211.229 175.731C211.229 170.414 211.422 158.7 211.504 153.546C211.515 152.87 211.788 152.224 212.265 151.744C212.742 151.265 213.386 150.988 214.062 150.973L245.633 150.281C246.311 150.263 246.969 150.51 247.468 150.97C247.967 151.429 248.266 152.066 248.303 152.743L249.53 174.534C249.55 174.882 249.5 175.23 249.384 175.558C249.267 175.886 249.086 176.188 248.851 176.445C248.616 176.702 248.332 176.909 248.015 177.055C247.699 177.201 247.357 177.282 247.009 177.293L213.928 178.349C213.577 178.361 213.228 178.302 212.9 178.176C212.572 178.05 212.274 177.859 212.022 177.614C211.77 177.37 211.57 177.077 211.433 176.753C211.297 176.43 211.227 176.082 211.229 175.731Z" fill="#455A64"/>
<path d="M227.657 158.729L217.104 158.581L217 153.077L227.546 152.876L227.657 158.729Z" fill="white"/>
<path d="M226.437 154.736C225.129 154.856 223.816 154.895 222.503 154.855C221.193 154.891 219.881 154.849 218.576 154.729C219.882 154.614 221.193 154.577 222.503 154.617C223.816 154.577 225.129 154.617 226.437 154.736Z" fill="#263238"/>
<path d="M226.519 156.164C225.214 156.283 223.902 156.32 222.592 156.276C221.28 156.316 219.966 156.276 218.658 156.157C219.966 156.038 221.28 156 222.592 156.045C223.903 156.005 225.214 156.045 226.519 156.164Z" fill="#263238"/>
<path d="M226.601 157.592C225.295 157.702 223.984 157.739 222.674 157.703C221.362 157.744 220.048 157.704 218.74 157.584C220.048 157.465 221.362 157.425 222.674 157.465C223.985 157.43 225.296 157.472 226.601 157.592Z" fill="#263238"/>
<path d="M236.648 158.641L223.484 158.774L223.357 151.91L236.514 151.665L236.648 158.641Z" fill="#EBEBEB"/>
<path d="M235.122 153.977C233.492 154.096 231.856 154.134 230.221 154.089C227.514 154.089 225.32 154.037 225.32 153.97C226.951 153.851 228.587 153.813 230.221 153.858C232.929 153.858 235.122 153.91 235.122 153.977Z" fill="#263238"/>
<path d="M235.228 155.755C235.228 155.822 233.034 155.874 230.327 155.874C227.62 155.874 225.426 155.814 225.426 155.747C225.426 155.68 227.657 155.636 230.327 155.636C232.997 155.636 235.228 155.688 235.228 155.755Z" fill="#263238"/>
<path d="M235.333 157.54C235.333 157.599 233.102 157.651 230.432 157.651C227.762 157.651 225.531 157.592 225.531 157.532C225.531 157.473 227.725 157.413 230.432 157.413C232.067 157.373 233.703 157.415 235.333 157.54Z" fill="#263238"/>
<path d="M246.266 158.298C246.266 158.298 246.266 158.373 246.266 158.529C246.266 158.685 246.266 158.931 246.266 159.235C246.266 159.868 246.311 160.782 246.333 161.957C246.393 164.345 246.467 167.781 246.556 172.027C246.556 172.295 246.556 172.563 246.556 172.838C246.585 173.127 246.531 173.419 246.4 173.678C246.255 173.945 246.031 174.16 245.76 174.296C245.486 174.414 245.188 174.465 244.89 174.444L241.276 174.541L233.311 174.749L224.512 174.98L219.857 175.099L217.477 175.158H216.874C216.667 175.18 216.457 175.18 216.25 175.158C216.037 175.116 215.836 175.027 215.662 174.898C215.487 174.77 215.342 174.605 215.238 174.415C215.149 174.247 215.099 174.061 215.09 173.872C215.09 173.678 215.09 173.522 215.09 173.344C215.09 172.994 215.09 172.652 215.09 172.31C215.09 171.618 215.09 170.934 215.09 170.257C215.09 168.896 215.09 167.558 215.09 166.234C215.09 163.594 215.09 161.028 215.045 158.603V158.492H215.156C224.245 158.797 232.031 158.73 237.535 158.596C240.287 158.536 242.473 158.455 243.975 158.402L245.701 158.343H246.281H246.125H245.679L243.975 158.44C242.488 158.514 240.294 158.611 237.542 158.7C232.031 158.864 224.245 158.96 215.149 158.7L215.268 158.588C215.268 161.028 215.268 163.579 215.32 166.219C215.32 167.543 215.32 168.881 215.32 170.242C215.32 170.919 215.32 171.603 215.32 172.288C215.32 172.637 215.32 172.979 215.32 173.329C215.309 173.644 215.373 173.958 215.506 174.244C215.59 174.409 215.709 174.554 215.856 174.667C216.002 174.78 216.173 174.859 216.354 174.898C216.544 174.917 216.736 174.917 216.927 174.898H217.529L219.909 174.839L224.564 174.727L233.37 174.511L241.335 174.325L244.942 174.244C245.217 174.266 245.493 174.22 245.745 174.11C245.983 173.995 246.179 173.807 246.303 173.574C246.42 173.345 246.469 173.087 246.445 172.831C246.445 172.555 246.445 172.288 246.445 172.027C246.385 167.796 246.348 164.374 246.311 161.995C246.311 160.812 246.311 159.89 246.311 159.25C246.311 158.945 246.311 158.707 246.311 158.507C246.311 158.306 246.266 158.298 246.266 158.298Z" fill="#263238"/>
<path d="M237.584 172.555C237.584 172.555 237.778 172.555 238.135 172.466C238.65 172.334 239.117 172.058 239.481 171.67C239.758 171.359 239.965 170.991 240.086 170.591C240.206 170.192 240.239 169.771 240.18 169.358C240.18 168.361 240.135 167.238 240.098 165.988C240.098 165.364 240.098 164.717 240.061 164.033C240.1 163.341 239.88 162.66 239.444 162.121C239.21 161.839 238.92 161.609 238.592 161.446C238.264 161.284 237.906 161.192 237.54 161.177C236.796 161.177 235.956 161.177 235.138 161.221L224.413 161.43C223.959 161.435 223.514 161.559 223.122 161.79C222.731 162.021 222.407 162.351 222.182 162.746C221.957 163.127 221.837 163.56 221.833 164.003C221.833 164.464 221.833 164.91 221.833 165.356C221.833 166.256 221.832 167.141 221.885 168.004V169.283C221.879 169.695 221.896 170.107 221.937 170.518C222 170.9 222.148 171.263 222.369 171.58C222.591 171.898 222.88 172.163 223.216 172.355C223.538 172.538 223.895 172.652 224.264 172.689C224.621 172.689 225.008 172.689 225.373 172.689L229.448 172.63L235.353 172.555H237.525C237.525 172.555 237.473 172.555 237.384 172.555H236.96L235.361 172.608L229.456 172.756L225.373 172.846C225.001 172.846 224.629 172.883 224.242 172.846C223.623 172.787 223.04 172.526 222.584 172.102C222.128 171.679 221.825 171.116 221.721 170.503C221.675 170.083 221.655 169.661 221.661 169.239C221.661 168.822 221.661 168.391 221.661 167.959C221.661 167.097 221.624 166.219 221.609 165.319V163.958C221.613 163.475 221.741 163.001 221.981 162.582C222.226 162.155 222.577 161.798 223.001 161.547C223.424 161.295 223.906 161.157 224.398 161.147L235.123 160.954C235.956 160.954 236.744 160.916 237.54 160.954C237.933 160.973 238.318 161.075 238.67 161.252C239.022 161.428 239.334 161.676 239.585 161.98C240.046 162.555 240.276 163.282 240.232 164.018C240.232 164.694 240.232 165.349 240.232 165.974C240.232 167.216 240.232 168.346 240.277 169.335C240.277 169.588 240.277 169.826 240.277 170.079C240.255 170.303 240.205 170.522 240.128 170.733C239.977 171.18 239.712 171.58 239.358 171.892C239.004 172.204 238.575 172.417 238.112 172.511C237.939 172.548 237.762 172.563 237.584 172.555Z" fill="#263238"/>
<path d="M227.844 158.67C227.992 158.67 236.322 150.928 236.322 150.928L244.005 158.365L227.844 158.67Z" fill="white"/>
<path d="M240.663 158.491C239.639 157.826 238.66 157.093 237.733 156.297C236.758 155.565 235.831 154.77 234.959 153.917C236.956 155.319 238.861 156.847 240.663 158.491Z" fill="#263238"/>
<path d="M237.959 158.625C236.447 157.613 235.024 156.473 233.705 155.219C235.217 156.232 236.64 157.371 237.959 158.625Z" fill="#263238"/>
<path d="M235.095 158.626C234.587 158.365 234.117 158.037 233.697 157.651C233.227 157.329 232.806 156.941 232.447 156.499C232.954 156.761 233.424 157.089 233.845 157.473C234.313 157.797 234.734 158.185 235.095 158.626Z" fill="#263238"/>
<path d="M232.366 158.73C232.321 158.782 232.024 158.611 231.704 158.358C231.384 158.105 231.146 157.845 231.191 157.793C231.236 157.741 231.526 157.912 231.853 158.172C232.18 158.433 232.403 158.678 232.366 158.73Z" fill="#263238"/>
<g opacity="0.3">
<path d="M216.145 175.047C225.647 177.627 235.696 177.368 245.053 174.303L216.145 175.047Z" fill="black"/>
</g>
<path d="M233.762 164.575L230.044 164.65C229.905 164.652 229.767 164.626 229.639 164.575C229.51 164.524 229.392 164.448 229.293 164.351C229.193 164.254 229.114 164.139 229.059 164.011C229.004 163.884 228.975 163.747 228.973 163.608C228.97 163.47 228.994 163.333 229.045 163.204C229.095 163.075 229.171 162.957 229.267 162.858C229.363 162.758 229.478 162.679 229.605 162.624C229.732 162.569 229.868 162.539 230.007 162.537L233.725 162.463C233.865 162.46 234.003 162.485 234.133 162.536C234.263 162.586 234.381 162.662 234.481 162.759C234.581 162.856 234.662 162.972 234.717 163.1C234.772 163.227 234.802 163.365 234.804 163.504C234.806 163.643 234.78 163.781 234.729 163.91C234.678 164.038 234.602 164.156 234.505 164.255C234.408 164.355 234.293 164.434 234.165 164.489C234.038 164.544 233.901 164.573 233.762 164.575Z" fill="#E0E0E0"/>
<path d="M232.744 255.175L237.214 271.403L228.505 273.991L223.998 257.741L232.744 255.175Z" fill="#455A64"/>
<path d="M232.744 272.064C232.669 272.064 231.68 268.539 230.512 264.144C229.345 259.749 228.489 256.164 228.556 256.149C228.623 256.134 229.627 259.674 230.788 264.077C231.948 268.48 232.818 272.05 232.744 272.064Z" fill="#263238"/>
<path d="M236.9 270.28L228.191 272.838L228.504 273.991L237.213 271.403L236.9 270.28Z" fill="#263238"/>
<path d="M227.07 268.792C227.07 268.792 227.07 268.636 227.197 268.383C227.575 267.466 228.16 266.649 228.907 265.996C229.687 265.314 230.666 264.901 231.698 264.818C232.731 264.735 233.763 264.986 234.641 265.535C234.974 265.74 235.277 265.99 235.541 266.278C235.72 266.494 235.802 266.628 235.787 266.643C235.403 266.297 234.987 265.988 234.545 265.721C233.436 265.092 232.123 264.926 230.893 265.26C229.674 265.639 228.624 266.427 227.918 267.491C227.338 268.242 227.115 268.815 227.07 268.792Z" fill="#263238"/>
<g opacity="0.3">
<path d="M234.617 261.712L235.123 263.965L226.28 265.959L225.715 263.936L234.617 261.712Z" fill="black"/>
</g>
<path d="M141.364 222.518L144.555 233.874C144.555 233.874 132.335 238.203 132.209 240.486L155.919 240.672V237.005L153.286 221.737L141.364 222.518Z" fill="#455A64"/>
<path d="M151.746 232.871C151.976 232.938 152.173 233.089 152.298 233.294C152.423 233.499 152.467 233.743 152.423 233.979C152.363 234.213 152.215 234.414 152.01 234.542C151.805 234.669 151.558 234.713 151.322 234.663C151.073 234.593 150.86 234.434 150.722 234.215C150.585 233.997 150.534 233.735 150.578 233.481C150.667 233.243 150.845 233.05 151.074 232.942C151.303 232.833 151.566 232.819 151.805 232.9" fill="white"/>
<path d="M155.911 240.672V239.147L132.856 239.438C132.646 239.568 132.466 239.74 132.326 239.944C132.187 240.147 132.091 240.378 132.045 240.62L155.911 240.672Z" fill="#263238"/>
<path d="M144.338 233.957C144.338 234.068 144.926 234.12 145.506 234.5C146.086 234.879 146.391 235.362 146.495 235.318C146.599 235.273 146.428 234.574 145.751 234.15C145.075 233.726 144.316 233.845 144.338 233.957Z" fill="#263238"/>
<path d="M141.832 234.997C141.832 235.116 142.308 235.31 142.71 235.808C143.111 236.306 143.223 236.82 143.342 236.812C143.461 236.805 143.528 236.15 143.022 235.548C142.516 234.945 141.832 234.886 141.832 234.997Z" fill="#263238"/>
<path d="M140.39 238.01C140.502 238.01 140.658 237.452 140.39 236.812C140.123 236.173 139.535 235.92 139.49 236.017C139.446 236.113 139.78 236.455 140.018 236.983C140.256 237.511 140.301 238.002 140.39 238.01Z" fill="#263238"/>
<path d="M144.54 231.13C144.592 231.241 145.127 231.078 145.789 231.13C146.451 231.182 146.964 231.383 147.024 231.279C147.083 231.175 146.585 230.766 145.811 230.728C145.038 230.691 144.48 231.041 144.54 231.13Z" fill="#263238"/>
<path d="M144.109 228.535C144.501 228.644 144.915 228.644 145.307 228.535C145.738 228.459 146.157 228.329 146.556 228.148C146.794 228.042 147.025 227.92 147.248 227.784C147.379 227.707 147.5 227.612 147.605 227.501C147.684 227.419 147.732 227.312 147.741 227.198C147.751 227.084 147.721 226.971 147.657 226.877C147.599 226.794 147.522 226.727 147.433 226.681C147.344 226.634 147.244 226.609 147.144 226.609C146.993 226.61 146.842 226.632 146.698 226.676C146.443 226.741 146.195 226.826 145.954 226.929C145.548 227.118 145.175 227.369 144.846 227.672C144.295 228.186 144.102 228.624 144.147 228.647C144.191 228.669 144.466 228.319 145.032 227.903C145.361 227.657 145.721 227.454 146.103 227.301C146.323 227.208 146.552 227.135 146.787 227.085C147.04 227.018 147.255 227.018 147.322 227.129C147.389 227.241 147.322 227.189 147.322 227.263C147.24 227.341 147.15 227.411 147.054 227.472C146.839 227.605 146.631 227.724 146.422 227.836C146.05 228.021 145.662 228.17 145.262 228.282C144.872 228.335 144.486 228.42 144.109 228.535Z" fill="#263238"/>
<g opacity="0.3">
<path d="M154.558 228.743L154.922 231.204L144.057 232.112L143.357 229.613L154.558 228.743Z" fill="black"/>
</g>
<path d="M157.241 76.512L156.095 74.1246L158.022 71.6629L159.204 68.8814L158.698 63.9134C158.698 63.9134 157.851 63.9952 157.769 65.4009C157.738 66.1349 157.654 66.8658 157.516 67.5874L157.018 66.4123C157.018 66.4123 157.018 62.954 156.676 62.6119C156.333 62.2698 155.322 61.7715 155.188 62.6119C155.054 63.4523 154.861 64.8431 154.861 64.8431C154.861 64.8431 154.682 62.8276 153.924 62.188C153.165 61.5484 152.741 61.8087 152.436 63.1548V64.0027C152.436 64.0027 151.425 62.8202 150.577 63.4077C150.028 63.8864 149.669 64.5461 149.566 65.267C149.09 65.4602 148.702 65.8197 148.472 66.2784C148.219 66.9552 148.034 69.878 148.286 70.3837C148.539 70.8895 149.774 74.0056 149.774 74.0056L150.123 75.9393L157.241 76.512Z" fill="#FFBF9D"/>
<path d="M150.059 75.9318C150.059 75.9318 154.521 94.2347 157.258 99.5299L166.77 94.666L156.098 74.1172L150.059 75.9318Z" fill="#FFBF9D"/>
<path d="M227.992 139.133C228.074 138.798 230.499 133.109 230.499 133.109L235.987 134.686L233.168 148.072L227.992 139.133Z" fill="#FFBF9D"/>
<path d="M229.494 135.57L230.542 133.391L228.78 131.16L227.701 128.617L228.162 124.073C228.162 124.073 228.906 124.147 229.01 125.456C229.042 126.127 229.119 126.795 229.241 127.456L229.694 126.378C229.694 126.378 229.694 123.225 230.014 122.912C230.334 122.6 231.249 122.169 231.397 122.912C231.546 123.656 231.695 124.92 231.695 124.92C231.695 124.92 231.859 123.076 232.558 122.496C233.257 121.916 233.636 122.146 233.941 123.381V124.125C233.941 124.125 234.863 123.046 235.637 123.589C236.137 124.023 236.465 124.622 236.559 125.277C236.995 125.456 237.351 125.786 237.563 126.207C237.84 127.427 237.896 128.686 237.726 129.926C237.496 130.387 236.388 133.235 236.388 133.235L235.733 135.831L229.494 135.57Z" fill="#FFBF9D"/>
<path d="M205.837 79.2486L205.584 79.1519C205.254 78.3805 204.736 77.704 204.078 77.1843C203.419 76.6646 202.641 76.3183 201.814 76.177C200.152 75.9202 198.455 76.3203 197.084 77.2926C196.124 77.9397 195.328 78.7801 194.376 79.4494C193.92 79.8061 193.387 80.0539 192.82 80.1737C192.253 80.2936 191.666 80.2824 191.104 80.141C190.918 80.5427 191.669 80.8848 191.565 81.3161C191.527 81.4153 191.46 81.5005 191.372 81.5603C191.284 81.6202 191.181 81.6517 191.074 81.6508C190.764 81.6343 190.456 81.592 190.152 81.5244C190 81.4942 189.842 81.5124 189.701 81.5764C189.559 81.6404 189.442 81.747 189.364 81.8813C189.327 82.0303 189.327 82.1861 189.364 82.335C189.492 83.6959 189.965 85.0015 190.74 86.128C191.133 86.6845 191.654 87.1376 192.26 87.4484C192.867 87.7592 193.539 87.9186 194.22 87.9129C195.297 87.7567 196.319 87.3378 197.195 86.6932L202.468 83.4655C203.3 83.0023 204.068 82.4323 204.751 81.7698C205.425 81.1013 205.814 80.1977 205.837 79.2486Z" fill="#263238"/>
<path d="M204.789 79.3904C205.501 78.9284 206.316 78.6475 207.162 78.5724C207.582 78.5306 208.007 78.575 208.409 78.7029C208.812 78.8307 209.185 79.0394 209.504 79.3161C210.023 79.9049 210.44 80.576 210.739 81.3018C210.889 81.6662 211.111 81.9965 211.392 82.2726C211.674 82.5487 212.008 82.7649 212.375 82.9082C212.512 82.9245 212.639 82.9845 212.739 83.0793C212.896 83.2652 212.739 83.5701 212.494 83.6445C212.242 83.7003 211.979 83.6661 211.75 83.5478C212.079 84.0469 212.575 84.4131 213.148 84.5816C213.038 84.8537 212.824 85.0708 212.553 85.1851C212.283 85.2995 211.978 85.3017 211.706 85.1914C211.849 86.1213 211.882 87.0651 211.802 88.0027C211.711 88.9465 211.274 89.8232 210.575 90.4644C209.787 91.1337 208.597 91.4089 208.173 92.3534" fill="#263238"/>
<path d="M193.937 111.407L206.424 112.813L206.365 102.022C206.365 102.022 207.242 101.947 207.852 97.3362C208.462 92.7252 209.682 84.9087 209.682 84.9087C207.201 83.4542 204.377 82.6875 201.501 82.6875C198.625 82.6875 195.801 83.4542 193.32 84.9087L192.576 85.3475L193.937 111.407Z" fill="#FFBF9D"/>
<path d="M193.321 91.2078C193.246 91.1632 190.264 89.8765 189.966 93.0448C189.669 96.213 192.941 95.856 192.941 95.7668C192.941 95.6775 193.321 91.2078 193.321 91.2078Z" fill="#FFBF9D"/>
<path d="M208.222 92.435C208.312 92.435 211.197 92.0037 210.721 95.1496C210.245 98.2955 207.166 97.1502 207.174 97.0535C207.181 96.9568 208.222 92.435 208.222 92.435Z" fill="#FFBF9D"/>
<path d="M192.337 90.7319C192.478 93.4316 192.211 94.8149 192.419 96.637C192.514 97.9958 192.905 99.3176 193.562 100.511C194.22 101.704 195.129 102.739 196.227 103.546C198.569 105.264 201.975 105.666 204.407 104.037C206.077 103.049 207.294 101.447 207.799 99.5747C208.275 97.6187 209.331 93.9596 209.591 91.959C210.067 88.3594 210.335 85.1168 210.335 85.1168L200.272 81.9561L193.973 84.7078L192.337 90.7319Z" fill="#263238"/>
<path d="M201.234 105.821C200.632 105.965 200.002 105.942 199.412 105.754C198.803 105.659 198.231 105.402 197.754 105.011C197.791 104.936 198.498 105.264 199.479 105.494C200.461 105.725 201.234 105.71 201.234 105.821Z" fill="#263238"/>
<path d="M192.271 95.291C192.309 92.5392 192.502 89.4156 192.435 86.5077C192.311 85.2713 192.311 84.0255 192.435 82.7891C192.666 81.7182 192.919 82.0454 193.521 81.1678C194.265 80.0151 196.667 79.4796 198.035 79.3829C199.404 79.2862 199.724 78.1409 200.638 79.1747C201.078 78.6476 201.669 78.2678 202.331 78.0864C202.993 77.9049 203.695 77.9305 204.342 78.1597C204.989 78.3889 205.55 78.8107 205.95 79.3684C206.351 79.9261 206.571 80.593 206.581 81.2794C206.995 80.9751 207.498 80.8155 208.012 80.8251C208.525 80.8348 209.022 81.0132 209.424 81.3328C209.827 81.6524 210.113 82.0956 210.239 82.594C210.365 83.0923 210.323 83.6182 210.121 84.0906C210.485 84.1984 210.817 84.3955 211.086 84.6638C211.355 84.9322 211.552 85.2635 211.661 85.6276C211.769 85.9917 211.785 86.3772 211.707 86.7491C211.629 87.1209 211.46 87.4674 211.214 87.7572C210.649 88.4265 209.726 88.724 209.124 89.3636C208.775 89.735 208.541 90.199 208.448 90.7001C208.356 91.2012 208.41 91.7183 208.603 92.1897" fill="#263238"/>
<path d="M205.607 96.3916C205.592 97.345 205.352 98.2815 204.906 99.1243C204.46 99.9671 203.821 100.692 203.041 101.241C203.635 100.54 204.172 99.7944 204.647 99.0095C205.036 98.1635 205.357 97.2882 205.607 96.3916Z" fill="#455A64"/>
<path d="M207.278 94.2646C207.46 95.103 207.417 95.9741 207.156 96.7911C206.895 97.6081 206.425 98.3423 205.791 98.9203C206.214 98.2092 206.575 97.4627 206.869 96.6892C207.076 95.8944 207.213 95.0832 207.278 94.2646Z" fill="#455A64"/>
<path d="M195.686 81.7179C196.591 80.545 197.838 79.6823 199.255 79.2487C199.966 79.045 200.718 79.034 201.434 79.217C202.151 79.4 202.805 79.7703 203.331 80.2899" fill="#263238"/>
<path d="M195.068 88.7165C195.125 88.4043 195.125 88.0843 195.068 87.772C194.994 87.0301 194.994 86.2828 195.068 85.5409C195.157 84.816 195.411 84.1213 195.811 83.5105C196.116 83.042 196.399 82.8189 196.362 82.7668C196.325 82.7147 195.99 82.8858 195.618 83.3543C195.132 83.9707 194.826 84.7094 194.733 85.4888C194.641 86.2539 194.664 87.0284 194.8 87.7869C194.919 88.3967 195.016 88.7165 195.068 88.7165Z" fill="#455A64"/>
<path d="M197.06 90.0549C197.06 89.5508 196.985 89.0495 196.837 88.5675C196.799 88.0586 196.689 87.5577 196.51 87.0801C196.341 87.587 196.341 88.135 196.51 88.6419C196.544 89.1582 196.736 89.6516 197.06 90.0549Z" fill="#455A64"/>
<path d="M207.056 90.4865C207.42 90.2145 207.711 89.8568 207.904 89.4453C208.449 88.4838 208.698 87.3826 208.618 86.2801C208.539 85.1777 208.135 84.1235 207.458 83.2501C207.208 82.8678 206.865 82.5556 206.461 82.3428C206.461 82.3874 206.803 82.7295 207.242 83.3988C207.815 84.2689 208.16 85.2687 208.246 86.3068C208.314 87.3455 208.117 88.3844 207.673 89.3263C207.324 90.0551 207.004 90.4418 207.056 90.4865Z" fill="#455A64"/>
<path d="M197.276 77.3225C197.644 77.269 198.004 77.1691 198.347 77.0251C199.168 76.7403 200.041 76.6387 200.906 76.7276C201.327 76.7689 201.735 76.8998 202.102 77.1114C202.469 77.3231 202.786 77.6106 203.033 77.9547C203.213 78.2675 203.369 78.5931 203.501 78.929C203.538 78.7373 203.536 78.5401 203.493 78.3495C203.451 78.1589 203.37 77.979 203.256 77.8208C203.044 77.4529 202.751 77.1377 202.401 76.8986C201.967 76.6124 201.473 76.4292 200.958 76.3632C200.037 76.2617 199.106 76.4054 198.258 76.7796C197.611 77.0474 197.254 77.2779 197.276 77.3225Z" fill="#455A64"/>
<path d="M210.991 82.0232C210.997 81.7097 210.903 81.4026 210.723 81.1456C210.354 80.4829 209.776 79.9602 209.08 79.6582C208.374 79.3614 207.591 79.3014 206.849 79.4871C206.291 79.6433 206.008 79.8664 206.031 79.9036C206.324 79.873 206.615 79.8208 206.901 79.7474C207.585 79.6416 208.286 79.7292 208.924 80.0003C209.555 80.2837 210.099 80.7304 210.5 81.2943C210.813 81.7108 210.932 82.0232 210.991 82.0232Z" fill="#455A64"/>
<path d="M206.135 93.1784C206.135 93.1412 205.651 92.933 204.863 92.4347C203.799 91.7869 202.855 90.959 202.074 89.9879L201.553 89.3408L201.784 90.144C201.927 90.6534 202.012 91.1774 202.037 91.7058C202.037 91.9661 202.037 92.3008 201.955 92.3306C201.873 92.3603 201.606 92.2264 201.397 92.0331C200.664 91.418 200.027 90.6959 199.508 89.8912L199.047 89.1475L199.196 89.9879C199.345 90.8357 199.478 91.624 199.605 92.338L199.858 92.2264C199.187 91.3623 198.618 90.424 198.162 89.4301C198.196 89.73 198.282 90.0219 198.415 90.2928C198.719 91.051 199.13 91.7622 199.635 92.4049L199.977 92.8363L199.888 92.2934C199.783 91.5497 199.664 90.8059 199.538 89.9358L199.218 90.0548C199.745 90.8951 200.4 91.6479 201.159 92.2859C201.277 92.3913 201.404 92.4858 201.539 92.5685C201.624 92.6296 201.724 92.6667 201.829 92.6758C201.934 92.685 202.039 92.6659 202.134 92.6206C202.219 92.5631 202.288 92.4856 202.336 92.3948C202.384 92.304 202.409 92.2027 202.409 92.1C202.416 91.9514 202.416 91.8024 202.409 91.6538C202.374 91.0986 202.274 90.5494 202.111 90.0176L201.821 90.1738C202.646 91.1638 203.656 91.9824 204.796 92.5834C205.205 92.8571 205.658 93.0584 206.135 93.1784Z" fill="#455A64"/>
<path d="M201.642 80.2679C201.771 80.0931 201.933 79.9458 202.12 79.8347C202.306 79.7236 202.513 79.6509 202.728 79.6208C203.161 79.5648 203.602 79.6107 204.014 79.7547C205.039 80.0756 205.92 80.7435 206.506 81.6437C206.64 81.8445 206.744 82.1495 206.551 82.3056C206.443 82.3751 206.313 82.4017 206.186 82.38C204.618 82.3151 203.063 82.0655 201.553 81.6363" fill="#263238"/>
<path d="M174.727 165.371C174.727 165.371 152.571 174.861 146.555 176.958C140.865 178.937 135.667 183.414 135.235 185.764C134.804 188.114 136.291 200.832 136.953 205.249C137.652 209.95 140.449 232.075 140.449 232.075L156.007 229.197C156.007 229.197 153.211 207.934 152.735 204.26C152.207 200.222 151.575 196.198 151.575 196.198L151.642 195.284C151.642 195.284 166.903 193.052 170.822 191.788C174.742 190.524 188.456 186.999 188.456 186.999L192.442 188.873L193.929 189.698L196.674 193.781C196.674 193.781 207.331 221.299 208.201 223.53C209.071 225.761 217.907 249.441 219.736 253.011C221.566 256.581 223.938 264.583 223.938 264.583L237.005 261.608C237.005 261.608 231.256 236.671 228.899 232.663C226.541 228.654 222.198 214.724 222.198 214.724L219.327 195.023C219.327 195.023 214.396 176.066 214.121 174.861C213.846 173.656 211.786 162.01 211.786 162.01L175.262 160.857L174.727 165.371Z" fill="#263238"/>
<path d="M217.832 189.177C217.688 188.868 217.579 188.544 217.505 188.21L216.761 185.555C216.457 184.403 216.092 183.064 215.698 181.591C215.304 180.119 214.82 178.475 214.515 176.72C213.809 173.225 213.192 170.027 212.768 167.795C212.567 166.702 212.411 165.787 212.277 165.073C212.205 164.741 212.163 164.402 212.15 164.062C212.278 164.378 212.37 164.707 212.426 165.044C212.589 165.75 212.79 166.658 213.035 167.736C213.526 170.019 214.188 173.173 214.887 176.661C215.2 178.416 215.683 180.044 216.047 181.539C216.412 183.034 216.747 184.358 217.029 185.518C217.312 186.678 217.498 187.496 217.661 188.203C217.746 188.522 217.803 188.848 217.832 189.177Z" fill="#455A64"/>
<path opacity="0.2" d="M158.037 172.399C158.037 172.399 160.015 184.536 162.261 188.129C163.617 190.288 165.515 192.054 167.765 193.253L159.777 171.685L158.037 172.399Z" fill="black"/>
<path opacity="0.2" d="M200.213 203.048L198.904 199.329L219.349 195.023L219.877 198.689L200.213 203.048Z" fill="black"/>
<path d="M200.266 178.289C200.2 178.504 200.102 178.707 199.976 178.892C199.674 179.424 199.333 179.934 198.957 180.416C196.468 183.641 192.956 185.923 188.998 186.887C188.406 187.029 187.805 187.134 187.199 187.199C186.977 187.228 186.751 187.228 186.529 187.199C186.529 187.125 187.466 187.013 188.932 186.597C192.775 185.513 196.196 183.285 198.741 180.208C199.715 179.07 200.206 178.252 200.266 178.289Z" fill="#455A64"/>
<g opacity="0.2">
<path d="M188.426 186.976C191.063 187.45 193.782 186.973 196.101 185.63C197.24 184.944 198.181 183.974 198.833 182.815C199.485 181.656 199.825 180.348 199.82 179.018C196.964 182.469 193.736 185.578 188.426 186.976Z" fill="black"/>
</g>
<path d="M140.449 232.075C140.54 232.038 140.635 232.01 140.732 231.993L141.572 231.815L144.733 231.175L155.933 229.026L155.792 229.219C155.316 225.59 154.766 221.47 154.186 217.104C153.033 208.298 152.029 200.452 151.419 195.454V195.514C150.474 194.336 149.277 193.385 147.916 192.732C146.964 192.286 146.429 192.152 146.429 192.123C146.568 192.137 146.705 192.166 146.838 192.212C147.228 192.32 147.611 192.454 147.983 192.613C149.394 193.233 150.64 194.175 151.62 195.365V195.402C152.319 200.385 153.375 208.231 154.535 217.03C155.1 221.395 155.636 225.523 156.104 229.152V229.316H155.941L144.711 231.331L141.528 231.867L140.687 232.001C140.611 232.035 140.531 232.06 140.449 232.075Z" fill="#455A64"/>
<path opacity="0.2" d="M174.727 165.371L184.343 165.728V163.229L175.046 162.961L174.727 165.371Z" fill="black"/>
<path opacity="0.2" d="M187.539 163.363V166.04L200.919 166.672V163.712L187.539 163.363Z" fill="black"/>
<path opacity="0.2" d="M205.211 163.832V166.673L212.663 166.94L212.135 164.032L205.211 163.832Z" fill="black"/>
<path d="M174.6 121.009L158.053 102.193C156.526 100.479 155.565 98.3368 155.301 96.0572L164.828 90.5537L169.483 96.2654L175.627 101.985L183.458 105.949L189.936 107.83L192.985 105.16L206.372 106.484L209.153 110.827L220.443 116.398L210.96 156.819L212.485 159.05C212.81 159.531 213.017 160.082 213.091 160.658C213.164 161.234 213.102 161.819 212.909 162.367L212.314 164.048L175.024 162.969L174.608 159.816L175.552 154.766L176.036 132.648L174.6 121.009Z" fill="#349F6E"/>
<path opacity="0.3" d="M175.24 156.112C175.24 156.112 178.126 156.513 183.354 157.503C194.294 159.555 211.437 157.503 211.437 157.503L175.24 156.112Z" fill="black"/>
<path d="M232.915 143.833C232.112 141.602 229.383 140.628 229.383 140.628C229.383 140.628 222.325 121.053 222.005 119.447C221.715 118.332 221.19 117.293 220.466 116.397L217.669 115.148L213.207 130.677L219.789 149.775C219.789 149.775 223.507 155.071 228.453 154.743C233.399 154.416 233.711 146.079 232.915 143.833Z" fill="#349F6E"/>
<path d="M168.465 95.4766C168.019 95.8793 167.536 96.2379 167.022 96.5475C166.107 97.1722 164.843 98.0349 163.467 99.0092C162.091 99.9835 160.856 100.898 159.964 101.553C159.503 101.94 159.005 102.282 158.477 102.572C158.868 102.117 159.313 101.71 159.8 101.359C160.648 100.616 161.86 99.7009 163.244 98.7192C164.627 97.7375 165.921 96.9045 166.873 96.3318C167.369 95.9859 167.903 95.6989 168.465 95.4766Z" fill="#263238"/>
<path d="M208.409 110.463C208.163 110.495 207.913 110.495 207.666 110.463C207.197 110.463 206.52 110.463 205.687 110.396C204.014 110.306 201.701 110.106 199.172 109.734C196.644 109.362 194.368 108.908 192.739 108.522C191.921 108.328 191.252 108.157 190.821 108.023C190.579 107.976 190.346 107.893 190.129 107.778C191.027 107.886 191.919 108.045 192.799 108.254C194.435 108.574 196.703 108.998 199.225 109.355C201.746 109.711 204.044 109.964 205.71 110.098C206.616 110.164 207.518 110.286 208.409 110.463Z" fill="#263238"/>
<path d="M219.014 121.543C219.034 121.824 219.019 122.107 218.969 122.384C218.917 122.919 218.813 123.693 218.679 124.615C218.397 126.526 217.935 129.152 217.296 132.052C216.656 134.953 215.95 137.496 215.392 139.341C215.109 140.263 214.871 141.006 214.693 141.512C214.619 141.773 214.512 142.023 214.373 142.256C214.399 141.975 214.456 141.698 214.544 141.43C214.708 140.835 214.901 140.099 215.124 139.199C215.622 137.34 216.277 134.737 216.917 131.903C217.556 129.07 218.062 126.43 218.404 124.533C218.568 123.656 218.709 122.904 218.82 122.302C218.853 122.042 218.918 121.787 219.014 121.543Z" fill="#263238"/>
<path d="M225.805 154.044C225.805 154.044 226.028 154.044 226.415 154.044C226.961 154.017 227.489 153.845 227.947 153.546C228.617 153.101 229.136 152.463 229.434 151.716C229.806 150.788 230.029 149.807 230.096 148.809C230.271 146.977 230.173 145.13 229.806 143.327C229.523 141.944 229.226 141.096 229.285 141.096C229.408 141.265 229.501 141.454 229.561 141.654C229.765 142.181 229.936 142.72 230.074 143.268C230.53 145.09 230.669 146.977 230.483 148.846C230.404 149.886 230.153 150.907 229.739 151.865C229.396 152.667 228.808 153.339 228.058 153.784C227.554 154.085 226.971 154.228 226.385 154.193C226.006 154.163 225.797 154.067 225.805 154.044Z" fill="#263238"/>
<path d="M182.277 107.681C181.981 108.293 181.635 108.88 181.243 109.436C180.574 110.5 179.667 111.965 178.707 113.616C177.748 115.267 176.93 116.799 176.35 117.907C176.068 118.523 175.732 119.113 175.346 119.67C175.528 119.016 175.777 118.383 176.089 117.781C176.61 116.643 177.398 115.089 178.321 113.423C179.243 111.757 180.232 110.306 180.961 109.28C181.341 108.702 181.782 108.165 182.277 107.681Z" fill="#263238"/>
<path d="M194.294 151.337C193.999 149.696 193.83 148.035 193.789 146.369C193.623 144.708 193.583 143.038 193.67 141.371C193.97 143.011 194.139 144.672 194.175 146.339C194.341 148 194.381 149.67 194.294 151.337Z" fill="#263238"/>
<path d="M199.194 139.884C199.011 141.902 198.703 143.906 198.272 145.886C197.966 147.895 197.529 149.883 196.963 151.835C197.146 149.818 197.454 147.813 197.885 145.834C198.194 143.824 198.631 141.837 199.194 139.884Z" fill="#263238"/>
<g opacity="0.3">
<path d="M197.506 145.276C197.23 144.532 195.973 144.577 195.312 145.06C195 145.328 194.748 145.657 194.57 146.027C194.392 146.397 194.293 146.799 194.278 147.209C194.211 148.028 194.278 150.883 194.278 151.672L196.948 151.776C197.074 151.188 198.078 146.867 197.506 145.276Z" fill="black"/>
</g>
<path d="M180.009 163.177C179.718 162.9 179.486 162.568 179.325 162.2C179.165 161.832 179.078 161.437 179.071 161.035C178.987 160.644 178.982 160.239 179.057 159.845C179.132 159.452 179.287 159.077 179.51 158.745C179.438 159.486 179.42 160.232 179.458 160.976C179.591 161.721 179.775 162.457 180.009 163.177Z" fill="#263238"/>
<path d="M182.148 163.363C182.037 163.363 181.925 162.909 181.895 162.337C181.866 161.764 181.895 161.303 182.029 161.295C182.163 161.288 182.245 161.749 182.282 162.314C182.319 162.88 182.252 163.356 182.148 163.363Z" fill="#263238"/>
<g opacity="0.3">
<path d="M215.504 138.977C217.319 136.703 218.57 134.031 219.154 131.181C219.738 128.33 219.639 125.382 218.865 122.578L215.504 138.977Z" fill="black"/>
</g>
<g opacity="0.3">
<path d="M208.067 110.53C204.951 111.013 202.98 111.526 199.834 111.273C196.688 111.02 192.665 109.905 190.277 107.845L208.067 110.53Z" fill="black"/>
</g>
<path opacity="0.3" d="M159.451 101.791C161.173 101.594 162.832 101.028 164.315 100.133C165.655 99.0922 166.705 97.7245 167.364 96.1611L159.451 101.791Z" fill="black"/>
<path d="M175.346 150.928L212.323 152.415C212.625 153.235 212.754 154.108 212.7 154.98C212.646 155.852 212.412 156.704 212.011 157.48L175.227 156.089L175.346 150.928Z" fill="#455A64"/>
<path d="M175.343 150.928C175.351 151.047 175.351 151.166 175.343 151.285V152.289C175.343 153.181 175.343 154.468 175.343 156.119L175.254 156.022C182.178 156.223 196.078 156.706 212.038 157.309L211.859 157.413L211.904 157.309C212.261 156.554 212.473 155.739 212.529 154.907C212.604 154.103 212.479 153.293 212.164 152.549L212.328 152.653L186.097 151.5L178.251 151.129L176.124 151.017H175.566H175.365C175.422 151.008 175.48 151.008 175.536 151.017H176.087L178.176 151.076L185.978 151.344L212.365 152.333H212.477L212.529 152.445C212.871 153.249 213.009 154.125 212.93 154.996C212.878 155.888 212.654 156.762 212.268 157.569L212.216 157.673L212.164 157.785H212.038C196.063 157.182 182.178 156.617 175.261 156.297H175.172V156.208C175.231 154.535 175.276 153.233 175.313 152.326C175.313 151.909 175.313 151.582 175.358 151.344C175.335 151.207 175.33 151.067 175.343 150.928Z" fill="#263238"/>
<path d="M212.665 155.234C212.665 155.338 204.291 155.048 193.975 154.58C183.66 154.111 175.293 153.65 175.301 153.546C175.308 153.442 183.675 153.724 193.99 154.193C204.306 154.662 212.665 155.123 212.665 155.234Z" fill="#263238"/>
<path d="M158.982 171.455C158.982 171.455 164.776 191.833 167.743 193.253L174.191 191.654L163.779 169.581L158.982 171.455Z" fill="#455A64"/>
<path d="M171.26 192.45C171.163 192.495 168.932 187.631 166.292 181.592C163.651 175.553 161.576 170.615 161.673 170.577C161.77 170.54 163.994 175.397 166.641 181.436C169.289 187.475 171.356 192.405 171.26 192.45Z" fill="#263238"/>
<path d="M196.62 193.781C196.397 194.22 198.733 200.348 198.911 200.207L219.683 195.491C219.432 193.324 218.891 191.201 218.077 189.177L196.62 193.781Z" fill="#455A64"/>
<path d="M218.711 192.569C218.711 192.673 214.085 193.833 208.298 195.15C202.512 196.466 197.886 197.455 197.834 197.381C197.782 197.306 202.46 196.124 208.246 194.8C214.033 193.476 218.688 192.465 218.711 192.569Z" fill="#263238"/>
<path d="M169.84 182.365C169.84 182.365 178.935 181.525 182.409 176.787C185.882 172.05 186.499 156.551 186.499 156.551L188.403 156.625C188.403 156.625 188.7 172.89 182.595 178.892C176.489 184.894 170.985 184.775 170.985 184.775L169.84 182.365Z" fill="#455A64"/>
<path d="M200.949 157.079C200.949 157.436 205.605 191.788 205.605 191.788L208.409 191.163L203.203 157.168L200.949 157.079Z" fill="#455A64"/>
<path d="M233.102 145.492C233.486 147.273 233.735 149.08 233.846 150.898H236.627C236.627 150.898 235.058 144.949 234.232 142.613C233.407 140.278 229.77 138.211 228.35 138.345L229.383 140.628L229.51 140.695C230.409 141.201 231.192 141.889 231.81 142.715C232.429 143.541 232.869 144.487 233.102 145.492Z" fill="#455A64"/>
</svg>
