<svg width="24" height="24" viewBox="0 0 24 24" fill="none" xmlns="http://www.w3.org/2000/svg">
<path d="M11.625 1C12.825 1 13.8583 1.425 14.725 2.275C15.5917 3.125 16.025 4.15 16.025 5.35C16.025 6.05 15.8667 6.72083 15.55 7.3625C15.2333 8.00417 14.7583 8.525 14.125 8.925V5.7C14.125 5 13.8833 4.41667 13.4 3.95C12.9167 3.48333 12.325 3.25 11.625 3.25C10.925 3.25 10.3333 3.48333 9.85 3.95C9.36667 4.41667 9.125 5 9.125 5.7V8.925C8.54167 8.525 8.07917 8.00833 7.7375 7.375C7.39583 6.74167 7.225 6.06667 7.225 5.35C7.225 4.15 7.65833 3.125 8.525 2.275C9.39167 1.425 10.425 1 11.625 1ZM11.125 22C10.8417 22 10.575 21.9458 10.325 21.8375C10.075 21.7292 9.85833 21.5833 9.675 21.4L4.75 16.5L5.35 15.875C5.55 15.675 5.75417 15.5458 5.9625 15.4875C6.17083 15.4292 6.41667 15.425 6.7 15.475L9.875 16.025V5.75C9.875 5.25 10.0417 4.83333 10.375 4.5C10.7083 4.16667 11.125 4 11.625 4C12.125 4 12.5417 4.16667 12.875 4.5C13.2083 4.83333 13.375 5.25 13.375 5.75V11.25H13.625C13.8417 11.25 14.075 11.275 14.325 11.325C14.575 11.375 14.8167 11.4583 15.05 11.575L18.725 13.2C19.1917 13.4 19.5292 13.725 19.7375 14.175C19.9458 14.625 20.0083 15.1083 19.925 15.625L19.075 20.35C18.9917 20.8333 18.7583 21.2292 18.375 21.5375C17.9917 21.8458 17.5583 22 17.075 22H11.125Z" fill="#7A7A7A"/>
</svg>
