<svg width="14" height="14" viewBox="0 0 14 14" fill="none" xmlns="http://www.w3.org/2000/svg">
<path d="M12.5687 6.86914C12.5062 5.35664 11.9469 4.07227 10.8906 3.01602C9.83438 1.95977 8.55 1.40039 7.0375 1.33789V0.212891C7.95 0.237891 8.80312 0.428516 9.59687 0.784766C10.3906 1.14102 11.0875 1.61914 11.6875 2.21914C12.2875 2.81914 12.7656 3.51602 13.1219 4.30977C13.4781 5.10352 13.6687 5.95664 13.6937 6.86914H12.5687ZM9.38125 6.86914C9.31875 6.24414 9.06875 5.71602 8.63125 5.28477C8.19375 4.85352 7.6625 4.60664 7.0375 4.54414V3.41914C7.975 3.48164 8.77188 3.83789 9.42813 4.48789C10.0844 5.13789 10.4437 5.93164 10.5062 6.86914H9.38125ZM12.9062 13.7504C11.3813 13.7504 9.86563 13.3754 8.35938 12.6254C6.85313 11.8754 5.5 10.9004 4.3 9.70039C3.1 8.50039 2.125 7.14727 1.375 5.64102C0.625 4.13477 0.25 2.61914 0.25 1.09414C0.25 0.856641 0.33125 0.656641 0.49375 0.494141C0.65625 0.331641 0.85625 0.250391 1.09375 0.250391H3.71875C3.89375 0.250391 4.04688 0.309766 4.17813 0.428516C4.30938 0.547266 4.39375 0.706641 4.43125 0.906641L4.9375 3.26914C4.9625 3.44414 4.95938 3.60352 4.92813 3.74727C4.89687 3.89102 4.83125 4.01289 4.73125 4.11289L2.85625 6.00664C3.55625 7.16914 4.34063 8.18164 5.20938 9.04414C6.07812 9.90664 7.0625 10.6379 8.1625 11.2379L9.94375 9.40039C10.0688 9.26289 10.2125 9.16602 10.375 9.10977C10.5375 9.05352 10.7 9.04414 10.8625 9.08164L13.0938 9.56914C13.2812 9.60664 13.4375 9.70039 13.5625 9.85039C13.6875 10.0004 13.75 10.1754 13.75 10.3754V12.9066C13.75 13.1441 13.6687 13.3441 13.5062 13.5066C13.3437 13.6691 13.1438 13.7504 12.9062 13.7504Z" fill="white"/>
</svg>
