<svg width="500" height="489" viewBox="0 0 500 489" fill="none" xmlns="http://www.w3.org/2000/svg">
<g clip-path="url(#clip0_3682_21275)">
<path d="M249.109 229V229.01L249.129 229.02L249.109 229Z" fill="#F5F5F5"/>
<path d="M249.23 229.17L249.18 229.22H249.3L249.23 229.17Z" fill="#F5F5F5"/>
<path d="M249.391 229.211V229.221H249.421L249.391 229.211Z" fill="#F5F5F5"/>
<path d="M249.309 229.221H249.379L249.329 229.191L249.309 229.221Z" fill="#F5F5F5"/>
<path d="M249.08 229.18L249.07 229.12L248.75 229.02L249.04 229.21L249.08 229.18Z" fill="#F5F5F5"/>
<path d="M249.09 229.131V229.181L249.13 229.161L249.09 229.131Z" fill="#F5F5F5"/>
<path d="M249.369 229.15L249.359 229.17L249.379 229.18L249.369 229.15Z" fill="#F5F5F5"/>
<path d="M249.321 229.191H249.301L249.311 229.211L249.321 229.191Z" fill="#F5F5F5"/>
<path d="M249.131 229.151L249.151 229.141L249.121 229.131L249.131 229.151Z" fill="#F5F5F5"/>
<path d="M249.349 229.121L249.309 229.141L249.329 229.151L249.349 229.121Z" fill="#F5F5F5"/>
<path d="M235.999 135.5L249.219 228.18L262.329 135.5H262.539L280.059 10.6205C259.369 7.77368 238.379 7.87806 217.719 10.9305L235.629 135.5H235.999Z" fill="#F5F5F5"/>
<path d="M288.469 143.14L249.469 228.93L393.289 61.9301C377.404 48.1719 359.622 36.7717 340.489 28.0801L288.299 143.08L288.469 143.14Z" fill="#F5F5F5"/>
<path d="M158.671 202.65L248.521 228.96H248.171L249.041 229.21H249.101V229.16L249.171 229.21H249.051L249.121 229.26L249.481 229.42L249.181 229.23L339.561 255.69C339.549 255.757 339.533 255.824 339.511 255.89L459.351 291.11C465.54 270.965 468.79 250.032 469.001 228.96H343.631V229.12L249.461 229.22V229.14L249.871 229.01L249.531 229.23L250.371 228.99H249.961L460.401 166.61C454.529 146.338 445.751 127.024 434.341 109.27L249.861 228.96H249.541L249.671 228.8L249.431 228.96L249.521 228.45L249.351 228.83V228.96L249.241 229.04V228.96H249.171V228.83L249.001 228.5L249.061 228.92L248.871 228.8L248.971 228.91H248.661L64.8313 110.59C53.6162 128.3 45.0111 147.535 39.2812 167.7L158.671 202.7V202.65ZM249.181 229.19V229.25L248.891 229.06L249.181 229.19Z" fill="#F5F5F5"/>
<path d="M187.348 157.731L248.998 228.881L209.878 143.181L157.638 28.9414C138.658 37.793 121.042 49.3166 105.328 63.1614L187.328 157.741L187.348 157.731Z" fill="#F5F5F5"/>
<path d="M433.069 347.77L328.659 280.36C328.639 280.388 328.622 280.418 328.609 280.45L249.609 229.59L311.199 300.59L311.049 300.72L391.999 394.3C407.816 380.805 421.644 365.14 433.069 347.77Z" fill="#F5F5F5"/>
<path d="M249.362 229.43V229.42L249.352 229.41L249.362 229.43Z" fill="#F5F5F5"/>
<path d="M249.14 229.241L249.13 229.271L249.09 229.251L249.1 229.321L249.11 229.311L249.17 229.301L249.14 229.281L249.16 229.251H249.18L249.17 229.241L249.18 229.221H249.09L249.14 229.241Z" fill="#F5F5F5"/>
<path d="M248.691 229.441L249.061 229.331L249.081 229.241L249.051 229.221L248.691 229.441Z" fill="#F5F5F5"/>
<path d="M248.839 229.621L170.049 280.741L169.869 280.451L66.6094 347.271C77.9298 364.581 91.6348 380.208 107.319 393.691L199.389 287.051L248.839 229.621Z" fill="#F5F5F5"/>
<path d="M158.72 255.971L249 229.221L31 229.501C31.1553 250.328 34.2835 271.027 40.29 290.971L158.7 256.031L158.72 255.971Z" fill="#F5F5F5"/>
<path d="M159.328 426.961C178.181 435.54 198.163 441.382 218.668 444.311L248.998 229.941L159.328 426.961Z" fill="#F5F5F5"/>
<path d="M249.379 229.31V229.27L249.359 229.28L249.379 229.31Z" fill="#F5F5F5"/>
<path d="M280.09 444.5C300.646 441.682 320.692 435.937 339.62 427.44L249.48 229.92L280.09 444.5Z" fill="#F5F5F5"/>
<path d="M249.141 229.581L249.241 230.291L249.341 229.601L249.231 229.381L249.141 229.581Z" fill="#F5F5F5"/>
<path d="M249.348 229.291L249.328 229.301L249.348 229.311V229.291Z" fill="#F5F5F5"/>
<path d="M469 479.85C469 480 370.94 480.11 250 480.11C129.06 480.11 31 480 31 479.85C31 479.7 129 479.59 250 479.59C371 479.59 469 479.71 469 479.85Z" fill="#263238"/>
<path d="M307.32 118.031C307.32 118.031 339.06 186.031 315.17 249.371C291.28 312.711 203.53 403.501 193.8 408.341C193.8 408.341 216.31 372.971 175.21 373.261C134.11 373.551 113.47 363.541 109.05 349.131C104.63 334.721 129.05 288.181 106.59 277.001C84.13 265.821 56.83 269.171 38.5 253.661C38.5 253.661 81.25 250.101 112.81 246.881C145.94 243.501 245.5 174.161 253.54 123.151" fill="#349F6E"/>
<g opacity="0.4">
<path d="M307.32 118.031C307.32 118.031 339.06 186.031 315.17 249.371C291.28 312.711 203.53 403.501 193.8 408.341C193.8 408.341 216.31 372.971 175.21 373.261C134.11 373.551 113.47 363.541 109.05 349.131C104.63 334.721 129.05 288.181 106.59 277.001C84.13 265.821 56.83 269.171 38.5 253.661C38.5 253.661 81.25 250.101 112.81 246.881C145.94 243.501 245.5 174.161 253.54 123.151" fill="black"/>
</g>
<path d="M191.828 235.121C191.653 235.276 191.466 235.416 191.268 235.541L189.598 236.671C188.158 237.671 186.028 239.011 183.368 240.671C178.048 243.931 170.518 248.181 161.928 252.301C154.591 255.818 147.082 258.962 139.428 261.721C136.488 262.771 134.098 263.581 132.428 264.091L130.508 264.681C130.288 264.762 130.06 264.82 129.828 264.851C130.032 264.741 130.247 264.651 130.468 264.581L132.358 263.901C134.008 263.331 136.358 262.471 139.298 261.371C145.138 259.191 153.118 255.941 161.708 251.831C170.298 247.721 177.808 243.531 183.178 240.351C185.858 238.771 188.018 237.451 189.488 236.531L191.208 235.481C191.401 235.339 191.609 235.219 191.828 235.121Z" fill="#263238"/>
<path d="M218.839 272.82C218.623 273.014 218.396 273.195 218.159 273.36L216.159 274.82C214.409 276.07 211.909 277.91 208.849 280.22C202.709 284.82 194.379 291.38 185.559 299.08C176.739 306.78 169.119 314.16 163.729 319.62C161.039 322.35 158.879 324.62 157.399 326.14L155.689 327.92C155.491 328.133 155.281 328.334 155.059 328.52C155.228 328.286 155.412 328.062 155.609 327.85L157.249 326C158.689 324.4 160.809 322.13 163.469 319.37C168.789 313.83 176.389 306.37 185.209 298.69C194.029 291.01 202.429 284.45 208.629 279.92C211.719 277.65 214.259 275.86 216.039 274.65L218.039 273.27C218.287 273.09 218.556 272.939 218.839 272.82Z" fill="#263238"/>
<path d="M215.191 283.96C215.107 284.098 215.006 284.226 214.891 284.34L213.961 285.34C213.141 286.21 211.961 287.44 210.421 288.93C207.421 291.93 203.121 295.93 198.191 300.18C193.261 304.43 188.631 308.02 185.191 310.56C183.481 311.82 182.081 312.83 181.101 313.5L179.971 314.27C179.842 314.367 179.701 314.448 179.551 314.51C179.551 314.51 179.671 314.38 179.911 314.18L180.981 313.34L184.981 310.26C188.331 307.66 192.921 304 197.831 299.78C202.741 295.56 207.071 291.59 210.151 288.67L213.791 285.2L214.791 284.26C215.051 284.05 215.171 283.95 215.191 283.96Z" fill="#263238"/>
<path d="M209.84 444.5L204.72 467.66L195.39 484.8C195.229 485.092 195.13 485.414 195.1 485.746C195.07 486.078 195.108 486.413 195.213 486.73C195.319 487.046 195.488 487.337 195.711 487.585C195.934 487.833 196.206 488.032 196.51 488.17C196.861 488.332 197.245 488.407 197.632 488.39C198.018 488.372 198.394 488.263 198.73 488.07C203.07 485.56 219 476.25 219.28 474.54C219.6 472.54 226.28 450.47 226.28 450.47L209.84 444.5Z" fill="#263238"/>
<path d="M219.999 472.26C219.735 472.525 219.439 472.757 219.119 472.95L216.609 474.65L208.299 480.22L199.999 485.8C198.999 486.45 198.159 487.01 197.469 487.47C197.16 487.694 196.824 487.879 196.469 488.02C196.726 487.75 197.011 487.509 197.319 487.3C197.889 486.86 198.719 486.25 199.759 485.49C201.829 483.99 204.759 481.96 207.979 479.78C211.199 477.6 214.199 475.69 216.379 474.35C217.469 473.67 218.379 473.13 218.979 472.78C219.297 472.567 219.639 472.392 219.999 472.26Z" fill="#455A64"/>
<path d="M312.521 450.04L311.131 468.5C311.131 468.5 329.471 476.12 329.551 479.56H293.551L294.551 449.25L312.521 450.04Z" fill="#263238"/>
<path d="M328.42 478.37C327.961 478.421 327.498 478.421 327.04 478.37L323.28 478.25C320.11 478.15 315.73 478.01 310.88 477.95C306.03 477.89 301.66 477.89 298.48 477.95H294.72C294.259 477.98 293.796 477.96 293.34 477.89C293.794 477.798 294.256 477.751 294.72 477.75C295.6 477.69 296.89 477.63 298.48 477.57C301.65 477.46 306.04 477.39 310.89 477.46C315.74 477.53 320.13 477.71 323.3 477.91C324.88 478.01 326.16 478.11 327.05 478.19C327.51 478.214 327.969 478.274 328.42 478.37Z" fill="#455A64"/>
<path d="M231.911 263.811L200.121 460.121L229.321 461.881L274.381 263.811H231.911Z" fill="#349F6E"/>
<path d="M274.91 255.25L289.58 461.88H317.05V243.1L274.91 255.25Z" fill="#349F6E"/>
<path d="M307.111 448.961C306.961 448.961 304.751 408.051 302.161 357.571C299.571 307.091 297.581 266.151 297.731 266.141C297.881 266.131 300.091 307.051 302.681 357.541C305.271 408.031 307.251 448.961 307.111 448.961Z" fill="#263238"/>
<path d="M317.052 448.961L316.842 449.031C316.662 449.031 316.382 449.131 316.032 449.181C315.322 449.301 314.282 449.441 313.032 449.601C310.482 449.911 306.942 450.281 303.032 450.601C295.222 451.311 288.842 451.601 288.852 451.241C288.852 451.241 288.952 451.241 289.132 451.241H289.962L292.962 451.001L302.962 450.131L312.962 449.251C315.502 449.061 317.162 448.941 317.052 448.961Z" fill="#263238"/>
<path d="M249.219 268.43C249.219 268.43 249.219 268.59 249.169 268.9C249.119 269.21 249.059 269.67 248.979 270.25C248.799 271.46 248.529 273.2 248.189 275.43C247.499 279.93 246.459 286.43 245.129 294.43C242.479 310.49 238.619 332.65 233.939 357.05C229.259 381.45 224.619 403.46 221.139 419.37C219.399 427.32 217.949 433.75 216.929 438.18C216.419 440.38 216.019 442.1 215.739 443.29L215.419 444.61C215.339 444.91 215.289 445.06 215.289 445.06C215.289 445.06 215.289 444.9 215.369 444.6C215.449 444.3 215.519 443.83 215.639 443.26C215.889 442.07 216.259 440.35 216.729 438.14C217.729 433.66 219.069 427.23 220.779 419.29C224.169 403.37 228.779 381.35 233.429 356.95C238.079 332.55 241.999 310.5 244.769 294.4C246.129 286.4 247.229 279.91 247.989 275.4C248.369 273.17 248.669 271.4 248.879 270.23C248.979 269.66 249.059 269.23 249.119 268.89C249.179 268.55 249.219 268.43 249.219 268.43Z" fill="#263238"/>
<path d="M232.261 448.961C231.868 449.023 231.468 449.04 231.071 449.011L227.841 448.931L217.181 448.501L206.531 448.001L203.301 447.851C202.907 447.85 202.513 447.826 202.121 447.781C203.585 447.577 205.067 447.527 206.541 447.631C209.271 447.631 213.041 447.801 217.201 447.981C221.361 448.161 225.131 448.381 227.851 448.561C229.221 448.651 230.321 448.731 231.081 448.801C231.479 448.814 231.874 448.868 232.261 448.961Z" fill="#263238"/>
<g opacity="0.3">
<path d="M230.371 273.361L231.001 269.461L273.621 267.051L272.011 274.161L230.371 273.361Z" fill="black"/>
</g>
<g opacity="0.3">
<path d="M276.12 274.159L274.91 267.019L317.05 264.939L317.04 275.039L276.12 274.159Z" fill="black"/>
</g>
<path d="M234.648 118.681L264.398 112.061L289.398 113.091L311.198 120.021L298.798 182.201L251.338 186.411L234.648 118.681Z" fill="#263238"/>
<path d="M259.878 113.09L228.578 120.02L244.228 203.85C244.228 203.85 230.228 237.85 228.578 269.46L274.908 267.02C274.908 267.02 278.098 225.36 277.008 209.32C275.918 193.28 275.188 165.22 275.188 165.22L259.878 113.09Z" fill="#349F6E"/>
<path d="M170.379 161.19C170.379 161.19 180.999 150.42 192.079 144.63C200.249 140.36 216.249 135 222.609 128.12C224.935 125.677 226.95 122.956 228.609 120.02L235.999 159.5L204.589 164.5C204.589 164.5 209.259 167.05 206.349 168.87L226.029 191.87L212.539 217.31C212.539 217.31 168.559 179.42 170.379 161.19Z" fill="#349F6E"/>
<path d="M289.4 113.09C293.204 113.565 296.963 114.347 300.64 115.43C307.3 117.63 318.56 120.02 318.56 120.02L302.56 204.95C302.56 204.95 324.31 231.83 318.56 264.72C318.56 264.72 288.51 267.09 274.91 267.02L274.73 163.68C274.73 163.68 286.12 149.18 287.58 134.96C289.04 120.74 289.4 113.09 289.4 113.09Z" fill="#349F6E"/>
<path d="M318.559 120.02C318.559 120.02 336.489 138.59 346.359 145.6C356.229 152.61 368.649 163.1 368.649 168.68C368.45 172.171 367.739 175.615 366.539 178.9C365.849 180.963 364.836 182.903 363.539 184.65C359.009 190.65 347.009 206.31 339.079 213.74L319.079 192.67L338.079 171.67C338.079 171.67 312.579 161.15 311.319 158.29C310.059 155.43 318.559 120.02 318.559 120.02Z" fill="#349F6E"/>
<path d="M274.54 174.88C274.374 174.759 274.22 174.622 274.08 174.47L272.83 173.22L268.24 168.5L252.68 152.25L252.59 152.15V152.01L254.65 143.37C254.96 142.08 255.26 140.81 255.56 139.55L255.81 139.87H245.59L245.69 139.55C248.11 132.22 250.18 125.94 251.69 121.44C252.43 119.25 253.02 117.5 253.45 116.24C253.65 115.67 253.81 115.24 253.94 114.87C253.986 114.707 254.05 114.55 254.13 114.4C254.104 114.567 254.064 114.731 254.01 114.89C253.91 115.25 253.77 115.71 253.6 116.29L252 121.5C250.55 126.02 248.54 132.32 246.2 139.67L245.97 139.35H255.88H256.21L256.14 139.67C255.84 140.93 255.53 142.2 255.23 143.49C254.51 146.49 253.82 149.37 253.16 152.13L253.09 151.9L268.52 168.28L273 173.11L274.19 174.43C274.32 174.569 274.437 174.72 274.54 174.88Z" fill="#263238"/>
<path d="M274.909 267.021C274.769 267.021 274.579 243.711 274.489 214.961C274.399 186.211 274.439 162.891 274.579 162.881C274.719 162.871 274.909 186.191 275.009 214.961C275.109 243.731 275.059 267.021 274.909 267.021Z" fill="#263238"/>
<path d="M294.2 113.85C294.266 114.031 294.313 114.218 294.34 114.41C294.41 114.83 294.51 115.41 294.64 116.05C294.89 117.54 295.24 119.61 295.64 122.18L299.02 143.11L299.07 143.45H298.73L293.21 142.71L293.48 142.34L294.61 144.64C295.37 146.19 296.12 147.72 296.84 149.17L296.91 149.32L296.81 149.44L282.27 167.6L277.91 172.97L276.71 174.41C276.584 174.585 276.436 174.743 276.27 174.88C276.38 174.694 276.503 174.517 276.64 174.35L277.76 172.86L282 167.39L296.43 149.07V149.35C295.72 147.9 294.97 146.35 294.2 144.82L293 142.5L292.78 142.06L293.27 142.12L298.79 142.88L298.51 143.17C297.23 134.8 296.11 127.49 295.31 122.17C294.94 119.59 294.64 117.51 294.42 116.02C294.333 115.353 294.263 114.803 294.21 114.37C294.192 114.197 294.189 114.023 294.2 113.85Z" fill="#263238"/>
<path d="M270.561 233.24C269.501 231.95 267.431 231.24 266.431 232.54C265.925 232.955 265.559 233.514 265.38 234.143C265.201 234.772 265.219 235.441 265.431 236.06C265.602 236.437 265.846 236.776 266.15 237.058C266.454 237.34 266.811 237.558 267.201 237.699C267.59 237.841 268.004 237.903 268.418 237.883C268.832 237.862 269.237 237.759 269.611 237.58C269.973 237.371 270.289 237.089 270.536 236.752C270.783 236.414 270.957 236.029 271.047 235.62C271.136 235.211 271.139 234.788 271.055 234.378C270.972 233.968 270.803 233.581 270.561 233.24Z" fill="#263238"/>
<path d="M271.12 206.251C270.06 204.951 267.99 204.201 266.99 205.551C266.487 205.967 266.122 206.527 265.943 207.155C265.765 207.784 265.781 208.451 265.99 209.071C266.16 209.449 266.404 209.789 266.708 210.072C267.011 210.354 267.369 210.572 267.758 210.714C268.148 210.856 268.562 210.918 268.977 210.897C269.391 210.876 269.797 210.771 270.17 210.591C270.533 210.382 270.848 210.1 271.095 209.763C271.342 209.425 271.516 209.04 271.606 208.631C271.695 208.222 271.698 207.799 271.615 207.389C271.531 206.979 271.362 206.591 271.12 206.251Z" fill="#263238"/>
<path d="M342.539 204.021C341.479 202.731 339.409 202.021 338.409 203.321C337.905 203.737 337.539 204.296 337.361 204.925C337.182 205.554 337.199 206.222 337.409 206.841C337.579 207.219 337.823 207.56 338.127 207.842C338.431 208.124 338.788 208.343 339.178 208.485C339.568 208.626 339.982 208.688 340.396 208.667C340.811 208.646 341.216 208.542 341.589 208.361C341.952 208.152 342.267 207.87 342.515 207.533C342.762 207.195 342.936 206.81 343.025 206.401C343.115 205.992 343.118 205.57 343.034 205.16C342.95 204.75 342.782 204.362 342.539 204.021Z" fill="#263238"/>
<path d="M212.309 206.501C211.249 205.201 209.179 204.451 208.179 205.801C207.675 206.216 207.309 206.776 207.13 207.405C206.952 208.033 206.969 208.702 207.179 209.321C207.349 209.699 207.593 210.039 207.897 210.322C208.201 210.604 208.558 210.822 208.948 210.964C209.337 211.106 209.752 211.168 210.166 211.147C210.58 211.126 210.986 211.021 211.359 210.841C211.722 210.632 212.037 210.35 212.284 210.013C212.532 209.675 212.705 209.29 212.795 208.881C212.884 208.472 212.887 208.049 212.804 207.639C212.72 207.229 212.551 206.841 212.309 206.501Z" fill="#263238"/>
<path d="M206.6 169.239C204.098 168.078 201.428 167.322 198.69 166.999C195.939 166.851 193.182 167.134 190.52 167.839C191.229 167.422 192.003 167.125 192.81 166.959C196.704 165.963 200.821 166.315 204.49 167.959C205.26 168.265 205.973 168.697 206.6 169.239Z" fill="#263238"/>
<path d="M190.52 164.501C191.129 164.097 191.807 163.806 192.52 163.641C194.229 163.129 196.005 162.876 197.79 162.891C199.577 162.907 201.353 163.187 203.06 163.721C203.769 163.911 204.444 164.212 205.06 164.611C202.685 163.927 200.238 163.524 197.77 163.411C195.318 163.479 192.883 163.845 190.52 164.501Z" fill="#263238"/>
<path d="M236.899 164.601C236.717 164.055 236.574 163.497 236.469 162.931L235.469 158.351C234.529 154.421 233.269 149.131 231.879 143.281C230.489 137.431 229.369 132.021 228.749 128.091C228.429 126.091 228.209 124.541 228.099 123.441C228.007 122.872 227.963 122.297 227.969 121.721C228.12 122.275 228.23 122.84 228.299 123.411C228.469 124.501 228.749 126.081 229.109 128.031C229.819 131.931 230.989 137.281 232.389 143.161C233.789 149.041 235.039 154.391 235.829 158.281C236.229 160.221 236.529 161.801 236.699 162.891C236.812 163.454 236.879 164.026 236.899 164.601Z" fill="#263238"/>
<path d="M317.45 121.939C317.428 122.531 317.355 123.12 317.23 123.699C317.04 124.909 316.78 126.509 316.46 128.459C315.79 132.549 314.89 138.069 313.9 144.159C312.91 150.249 311.9 155.829 311.18 159.829C310.8 161.829 310.48 163.449 310.24 164.569C310.15 165.154 310.009 165.729 309.82 166.289C309.841 165.689 309.901 165.091 310 164.499C310.2 163.289 310.46 161.689 310.77 159.739C311.44 155.639 312.35 150.129 313.34 144.039C314.33 137.949 315.34 132.369 316.06 128.359C316.44 126.359 316.76 124.749 316.99 123.629C317.105 123.056 317.259 122.492 317.45 121.939Z" fill="#263238"/>
<path d="M351.559 161.361C351.559 161.451 350.449 161.361 348.689 161.451C346.402 161.471 344.188 162.256 342.399 163.681C340.766 165.283 339.556 167.266 338.879 169.451C338.599 170.37 338.265 171.271 337.879 172.151C337.989 171.189 338.211 170.242 338.539 169.331C339.142 167.03 340.363 164.938 342.069 163.281C343.069 162.418 344.258 161.802 345.539 161.481C346.568 161.216 347.626 161.082 348.689 161.081C349.397 161.074 350.106 161.114 350.809 161.201C351.067 161.205 351.322 161.26 351.559 161.361Z" fill="#263238"/>
<path d="M356.331 166.03C356.331 166.12 355.231 166.03 353.471 166.15C348.874 166.417 344.43 167.897 340.591 170.44C339.111 171.44 338.281 172.12 338.221 172.05C338.161 171.98 338.381 171.82 338.741 171.48C339.258 170.995 339.806 170.544 340.381 170.13C344.191 167.372 348.758 165.853 353.461 165.78C354.165 165.768 354.87 165.801 355.571 165.88C355.831 165.882 356.089 165.933 356.331 166.03Z" fill="#263238"/>
<path d="M251.72 206.25C250.559 205.96 249.428 205.565 248.34 205.07C247.195 204.733 246.083 204.291 245.02 203.75C246.229 203.794 247.419 204.076 248.52 204.58C249.683 204.927 250.769 205.494 251.72 206.25Z" fill="#263238"/>
<path d="M253 196.201C253.08 196.321 250.74 197.921 248.11 200.201C245.48 202.481 243.54 204.541 243.43 204.431C244.644 202.685 246.106 201.126 247.77 199.801C249.326 198.35 251.088 197.136 253 196.201Z" fill="#263238"/>
<path d="M318.559 264.721C318.559 264.871 298.429 266.041 273.559 267.351C248.689 268.661 228.559 269.611 228.559 269.461C228.559 269.311 248.689 268.141 273.559 266.831C298.429 265.521 318.549 264.581 318.559 264.721Z" fill="#263238"/>
<g opacity="0.3">
<path d="M337.119 171.13C336.49 169.198 336.492 167.116 337.124 165.185C337.757 163.254 338.988 161.575 340.639 160.39C341.318 159.837 342.188 159.575 343.059 159.66C343.271 159.691 343.473 159.766 343.653 159.881C343.834 159.996 343.987 160.148 344.104 160.326C344.222 160.505 344.3 160.706 344.333 160.917C344.367 161.128 344.355 161.344 344.299 161.55C344.006 162.018 343.582 162.39 343.079 162.62C341.56 163.659 340.411 165.155 339.799 166.89C339.193 168.614 338.773 170.397 338.549 172.21" fill="black"/>
</g>
<g opacity="0.3">
<path d="M245.93 139.59C246.11 140.13 249.69 140.54 250.37 142.02C250.895 143.57 250.895 145.25 250.37 146.8C249.851 148.346 249.604 149.97 249.64 151.6C249.94 154.5 252.32 156.69 254.54 158.6C260.74 163.89 268.29 169.6 274.54 174.9C269 168.3 261.78 161.5 255.68 155.5C254.714 154.679 253.942 153.655 253.42 152.5C253.059 150.932 253.156 149.294 253.7 147.78C254.22 145.733 254.746 143.683 255.28 141.63C255.41 141.1 255.72 140.21 255.79 139.92C255.05 139.791 254.301 139.727 253.55 139.73C251.014 139.537 248.468 139.517 245.93 139.67" fill="black"/>
</g>
<path d="M211.488 208.911C211.56 208.626 211.667 208.35 211.808 208.091C212.048 207.581 212.418 206.851 212.898 205.961C214.175 203.653 215.612 201.438 217.198 199.331C218.777 197.211 220.505 195.206 222.368 193.331C223.088 192.621 223.688 192.061 224.118 191.691C224.548 191.321 224.788 191.131 224.818 191.161C224.137 192.011 223.409 192.822 222.638 193.591C221.278 195.071 219.458 197.161 217.638 199.591C215.818 202.021 214.288 204.381 213.248 206.091C212.719 207.066 212.131 208.007 211.488 208.911Z" fill="#263238"/>
<path d="M218.899 184.141C218.959 184.211 217.809 185.321 216.089 187.241C211.595 192.248 207.957 197.961 205.319 204.151C204.319 206.521 203.779 208.031 203.699 208.011C203.752 207.636 203.842 207.267 203.969 206.911C204.169 206.211 204.509 205.221 204.969 204.011C207.443 197.693 211.125 191.919 215.809 187.011C216.709 186.071 217.459 185.351 218.009 184.871C218.281 184.599 218.579 184.354 218.899 184.141Z" fill="#263238"/>
<path d="M347.79 204.359C347.493 204.118 347.224 203.843 346.99 203.539L344.92 201.239C343.16 199.309 340.67 196.679 337.85 193.859C335.03 191.039 332.39 188.559 330.45 186.809L328.14 184.739C327.837 184.506 327.562 184.237 327.32 183.939C327.663 184.111 327.983 184.326 328.27 184.579C328.86 185.019 329.69 185.679 330.69 186.529C332.69 188.219 335.38 190.669 338.21 193.529C341.04 196.389 343.5 199.029 345.21 201.039C346.06 202.039 346.72 202.869 347.21 203.449C347.438 203.73 347.632 204.035 347.79 204.359Z" fill="#263238"/>
<path d="M223.18 197.18L229.73 200.71L244.26 204.83C244.26 204.83 241.26 224.71 239.37 226.41C237.48 228.11 216.25 210.25 216.25 210.25L223.18 197.18Z" fill="#FFBE9D"/>
<path d="M322.231 195.99L317.501 199.67L303.871 206.16C303.871 206.16 310.171 225.25 312.291 226.61C314.411 227.97 332.391 206.83 332.391 206.83L322.231 195.99Z" fill="#FFBE9D"/>
<path d="M255.131 52.5C254.941 57.62 248.131 60.72 248.211 65.84C248.211 68.03 249.611 70.01 249.881 72.19C250.241 75.12 248.601 77.88 247.991 80.77C246.751 86.77 250.211 93.01 255.351 96.27C260.491 99.53 266.931 100.15 272.961 99.33" fill="#263238"/>
<path d="M296.308 51.2812C296.108 54.0312 297.918 56.4813 299.748 58.5413C301.578 60.6013 303.608 62.7513 303.998 65.5013C304.698 70.3313 299.998 74.8112 300.948 79.6012C301.468 82.1612 303.568 84.2212 303.948 86.8112C304.328 89.4012 302.948 91.8112 301.308 93.6712C299.668 95.5312 297.718 95.2912 296.248 97.3512C294.538 99.6632 292.365 101.594 289.868 103.021C284.568 105.931 278.208 101.731 275.648 101.021" fill="#263238"/>
<path d="M254.1 55.5004C254.03 53.0104 256.33 51.0804 258.65 50.1704C260.97 49.2604 263.55 48.9204 265.65 47.5204C267.48 46.2904 268.71 44.3704 270.26 42.8004C272.171 40.8651 274.561 39.4721 277.187 38.764C279.812 38.0558 282.579 38.0579 285.203 38.77C287.828 39.482 290.216 40.8786 292.124 42.8167C294.031 44.7548 295.39 47.1649 296.06 49.8004C296.95 53.3404 296.34 57.5404 293.54 59.8904C290.3 62.6304 285.49 62.0204 281.33 61.1704C277.17 60.3204 272.43 59.5004 269 61.9404C266.91 63.4204 265.71 65.8104 264.43 68.0304C263.15 70.2504 261.54 72.5104 259.12 73.3404C256.7 74.1704 253.42 72.7404 253.32 70.1804" fill="#263238"/>
<path d="M263.92 55.9912C262.882 56.1036 261.923 56.6017 261.235 57.3868C260.546 58.1719 260.177 59.187 260.2 60.2312L262.69 116.501C262.79 123.141 272.51 126.881 279.63 126.711C286.81 126.551 287.05 123.021 287.13 116.711C287.28 106.141 287.27 102.181 287.28 102.241C287.29 102.301 296.35 100.711 298.21 88.8612C299.13 82.9612 298.81 73.3012 298.3 65.4012C297.84 58.3012 293.11 49.5912 286.03 50.3512L263.92 55.9912Z" fill="#FFBE9D"/>
<path d="M294.542 72.1796C294.547 72.575 294.397 72.9567 294.124 73.2428C293.851 73.5289 293.477 73.6965 293.082 73.7096C292.889 73.7259 292.695 73.7035 292.511 73.6436C292.327 73.5837 292.156 73.4875 292.01 73.3607C291.864 73.234 291.744 73.0792 291.659 72.9055C291.573 72.7319 291.523 72.5428 291.512 72.3496C291.506 71.9481 291.66 71.5609 291.939 71.2723C292.218 70.9838 292.6 70.8175 293.002 70.8096C293.193 70.7974 293.385 70.8233 293.566 70.8857C293.747 70.9481 293.914 71.0459 294.058 71.1733C294.201 71.3007 294.317 71.4552 294.4 71.6279C294.484 71.8007 294.532 71.9882 294.542 72.1796Z" fill="#263238"/>
<path d="M296.219 70.4399C296.029 70.6299 294.869 69.7799 293.219 69.7899C291.569 69.7999 290.389 70.6199 290.219 70.4199C290.049 70.2199 290.319 69.9699 290.849 69.5899C291.552 69.0971 292.39 68.835 293.249 68.8399C294.099 68.8389 294.928 69.1047 295.619 69.5999C296.139 69.9899 296.309 70.3499 296.219 70.4399Z" fill="#263238"/>
<path d="M278.671 72.1798C278.676 72.5752 278.526 72.957 278.253 73.2431C277.98 73.5292 277.606 73.6968 277.211 73.7098C277.018 73.7262 276.824 73.7037 276.64 73.6438C276.455 73.5839 276.285 73.4877 276.139 73.361C275.993 73.2342 275.873 73.0795 275.788 72.9058C275.702 72.7321 275.652 72.5431 275.641 72.3498C275.635 71.9534 275.785 71.5706 276.058 71.2829C276.33 70.9952 276.705 70.8254 277.101 70.8098C277.294 70.7935 277.489 70.8162 277.674 70.8768C277.859 70.9373 278.03 71.0344 278.176 71.1622C278.323 71.29 278.442 71.4459 278.527 71.6207C278.612 71.7956 278.661 71.9857 278.671 72.1798Z" fill="#263238"/>
<path d="M280.141 70.7798C279.951 70.9698 278.801 70.1298 277.141 70.1298C275.481 70.1298 274.301 70.9598 274.141 70.7598C273.981 70.5598 274.241 70.3198 274.761 69.9298C275.467 69.4379 276.31 69.1792 277.171 69.1898C278.02 69.1817 278.85 69.4444 279.541 69.9398C280.061 70.3298 280.231 70.6898 280.141 70.7798Z" fill="#263238"/>
<path d="M286.101 82.8905C286.965 82.6216 287.858 82.4571 288.761 82.4005C289.181 82.4005 289.571 82.2805 289.641 81.9905C289.675 81.5584 289.578 81.1262 289.361 80.7505C288.961 79.7505 288.551 78.6905 288.121 77.5805C286.391 73.0505 285.121 69.3405 285.331 69.2705C285.541 69.2005 287.061 72.8105 288.781 77.3305C289.191 78.4505 289.591 79.5105 289.971 80.5305C290.235 81.0344 290.313 81.615 290.191 82.1705C290.134 82.3201 290.041 82.4535 289.921 82.5597C289.801 82.6659 289.657 82.7416 289.501 82.7805C289.273 82.844 289.038 82.8776 288.801 82.8805C287.905 82.9938 286.998 82.9972 286.101 82.8905Z" fill="#263238"/>
<path d="M287.278 102.241C281.698 102.337 276.201 100.883 271.398 98.041C271.528 98.041 275.768 106.281 287.118 105.041L287.278 102.241Z" fill="#EB996E"/>
<path d="M285.419 86.831C285.104 86.4442 284.698 86.142 284.237 85.9517C283.776 85.7614 283.275 85.6889 282.779 85.741C282.418 85.7764 282.068 85.883 281.749 86.0546C281.429 86.2263 281.147 86.4596 280.919 86.741C280.688 87.018 280.552 87.3615 280.53 87.7213C280.509 88.0811 280.603 88.4384 280.799 88.741C281.063 89.031 281.407 89.2369 281.787 89.3329C282.168 89.4289 282.568 89.4109 282.939 89.281C283.704 88.9877 284.404 88.5459 284.999 87.981C285.182 87.8482 285.338 87.6819 285.459 87.491C285.519 87.4027 285.552 87.2981 285.552 87.191C285.552 87.0839 285.519 86.9793 285.459 86.891" fill="#349F6E"/>
<path d="M281.288 84.0295C281.558 84.0295 281.568 85.7895 283.088 87.0295C284.608 88.2695 286.498 88.0295 286.508 88.3295C286.518 88.6295 286.088 88.6794 285.298 88.6994C284.256 88.7161 283.242 88.3616 282.438 87.6994C281.662 87.0697 281.164 86.1618 281.048 85.1694C280.998 84.4994 281.168 84.0195 281.288 84.0295Z" fill="#263238"/>
<path d="M280.872 67.9102C280.712 68.3602 279.082 68.1502 277.162 68.3802C275.242 68.6102 273.692 69.1502 273.442 68.7502C273.322 68.5602 273.592 68.1402 274.222 67.7502C275.053 67.2159 275.996 66.8802 276.977 66.7692C277.959 66.6582 278.953 66.7749 279.882 67.1102C280.592 67.3502 280.942 67.7002 280.872 67.9102Z" fill="#263238"/>
<path d="M295.601 65.6995C295.321 66.0795 294.191 65.6995 292.841 65.6995C291.491 65.6995 290.331 65.9495 290.071 65.5695C289.951 65.3795 290.131 64.9995 290.631 64.6495C291.303 64.2257 292.086 64.0117 292.881 64.0349C293.675 64.0581 294.445 64.3173 295.091 64.7795C295.571 65.1395 295.731 65.4995 295.601 65.6995Z" fill="#263238"/>
<path d="M258.912 95.6305C262.172 96.2905 262.462 94.6305 264.912 92.3705C266.119 91.2275 267.044 89.8193 267.613 88.2573C268.182 86.6953 268.38 85.0223 268.192 83.3705C267.822 80.4605 266.252 77.5005 267.262 74.7405C268.592 71.1005 273.702 69.9805 275.052 66.3505C275.842 64.2305 275.132 61.7605 276.052 59.6905C276.972 57.6205 278.942 56.6305 280.932 55.9105C282.922 55.1905 285.062 54.6905 286.742 53.3905C288.422 52.0905 289.452 49.6305 288.372 47.8105C279.522 48.8709 270.831 50.9825 262.482 54.1005C260.552 54.8205 258.482 55.6905 257.382 57.4105C256.282 59.1305 256.222 61.5805 256.332 63.7605C256.825 74.4272 257.318 85.0672 257.812 95.6805" fill="#263238"/>
<path d="M251.449 71.5009C251.263 69.5295 250.438 67.6728 249.1 66.2132C247.762 64.7535 245.983 63.7707 244.036 63.4142C242.088 63.0577 240.077 63.3469 238.308 64.238C236.54 65.1291 235.111 66.5732 234.239 68.3509C232.599 71.7009 233.169 75.7709 234.709 79.1709C236.529 83.1709 240.269 86.8909 244.709 86.6909C248.879 86.5009 252.229 82.8509 253.429 78.8509C254.629 74.8509 254.149 70.5809 253.649 66.4409" fill="#263238"/>
<path d="M249.132 87.6907C248.881 87.5046 248.67 87.2699 248.512 87.0007C248.046 86.2856 247.746 85.4761 247.632 84.6307C247.457 83.3834 247.494 82.1156 247.742 80.8807C247.982 79.4907 248.452 78.0307 248.742 76.4807C249.12 75.0494 249.209 73.5567 249.002 72.0907C248.762 70.7707 248.132 69.6507 247.862 68.6107C247.595 67.7916 247.571 66.9132 247.792 66.0807C247.982 65.4907 248.232 65.2507 248.252 65.2707C248.272 65.2907 248.102 65.5707 247.992 66.1307C247.861 66.9265 247.936 67.7425 248.212 68.5007C248.7 69.6415 249.121 70.8102 249.472 72.0007C249.72 73.5292 249.645 75.0929 249.252 76.5907C248.902 78.1707 248.422 79.5907 248.162 80.9707C247.903 82.1556 247.829 83.3732 247.942 84.5807C248.11 85.6908 248.516 86.7516 249.132 87.6907Z" fill="#455A64"/>
<path d="M249.002 73.5012C248.533 74.2212 247.912 74.829 247.182 75.2812C245.474 76.4842 243.445 77.1464 241.357 77.1821C239.269 77.2178 237.219 76.6252 235.472 75.4813C234.731 75.0547 234.092 74.471 233.602 73.7712C233.662 73.7012 234.342 74.4012 235.672 75.1712C237.393 76.1813 239.359 76.697 241.355 76.6618C243.35 76.6265 245.297 76.0415 246.982 74.9713C248.242 74.1213 248.902 73.3912 249.002 73.5012Z" fill="#455A64"/>
<path d="M248.372 75.3102C248.165 75.9904 247.825 76.6227 247.372 77.1702C246.357 78.5609 245.074 79.7346 243.599 80.6224C242.124 81.5103 240.486 82.0943 238.782 82.3402C238.086 82.4822 237.368 82.4822 236.672 82.3402C237.348 82.1761 238.032 82.0493 238.722 81.9602C240.348 81.6212 241.906 81.0128 243.332 80.1602C244.751 79.3006 246.018 78.2126 247.082 76.9402C247.892 75.9702 248.302 75.2702 248.372 75.3102Z" fill="#455A64"/>
<path d="M251.358 91.6501C251.358 91.6501 251.308 91.6501 251.228 91.5101C251.106 91.3588 250.996 91.1983 250.898 91.0301C250.517 90.3923 250.252 89.6912 250.118 88.9601C249.895 87.7954 249.96 86.5937 250.308 85.4601C250.757 83.9343 251.736 82.6188 253.068 81.7501C254.468 80.7501 256.298 80.0701 257.468 78.4901C257.761 78.0959 257.969 77.6454 258.079 77.167C258.189 76.6886 258.199 76.1926 258.108 75.7101C257.882 74.6549 257.547 73.6261 257.108 72.6401C256.643 71.5135 256.417 70.3029 256.443 69.0844C256.468 67.8659 256.746 66.666 257.258 65.5601C257.795 64.3725 258.624 63.3403 259.668 62.5601C260.756 61.8019 261.994 61.2869 263.298 61.0501C264.578 60.7601 265.858 60.5901 267.048 60.2301C268.211 59.9169 269.279 59.3228 270.158 58.5001C270.952 57.647 271.434 56.5513 271.528 55.3901C271.635 54.2325 271.819 53.0833 272.078 51.9501C272.604 49.8195 273.712 47.8771 275.278 46.3401C276.653 45.0195 278.397 44.1477 280.278 43.8401C281.644 43.6082 283.047 43.7668 284.326 44.2976C285.605 44.8283 286.708 45.7097 287.508 46.8401C287.933 47.4457 288.245 48.1233 288.428 48.8401C288.502 49.0869 288.542 49.3425 288.548 49.6001C288.322 48.6462 287.911 47.7459 287.338 46.9501C286.653 46.0345 285.758 45.2971 284.728 44.8001C283.359 44.1482 281.821 43.9418 280.328 44.2101C278.522 44.5207 276.852 45.3714 275.538 46.6501C274.064 48.1502 273.027 50.0241 272.538 52.0701C272.284 53.2005 272.104 54.3463 271.998 55.5001C271.891 56.7668 271.367 57.9622 270.508 58.9001C269.558 59.7838 268.403 60.4192 267.148 60.7501C265.908 61.1301 264.618 61.3001 263.368 61.5901C262.133 61.8142 260.957 62.2945 259.918 63.0001C258.947 63.7271 258.173 64.6864 257.668 65.7901C257.184 66.8346 256.92 67.9675 256.892 69.1184C256.865 70.2694 257.075 71.4137 257.508 72.4801C257.955 73.4977 258.29 74.5605 258.508 75.6501C258.605 76.1915 258.59 76.7471 258.463 77.2822C258.335 77.8173 258.099 78.3204 257.768 78.7601C256.468 80.4601 254.588 81.1201 253.228 82.0701C251.946 82.8777 250.993 84.1146 250.538 85.5601C250.178 86.6453 250.086 87.8014 250.268 88.9301C250.456 89.8977 250.826 90.8208 251.358 91.6501Z" fill="#455A64"/>
<path d="M252.149 58.5706C252.061 58.4001 252.009 58.2125 251.999 58.0206C251.958 57.4677 252.099 56.9166 252.399 56.4506C252.866 55.6976 253.569 55.1207 254.399 54.8106C255.5 54.4598 256.677 54.4217 257.799 54.7006C259.039 54.9406 260.329 55.4306 261.739 55.7006C262.461 55.902 263.217 55.9465 263.957 55.8309C264.697 55.7153 265.403 55.4424 266.029 55.0306C267.289 54.0306 267.919 52.4106 268.559 50.7706C269.209 49.0097 270.134 47.3626 271.299 45.8906C273.566 43.0049 276.735 40.9626 280.299 40.0906C281.86 39.7222 283.489 39.7635 285.029 40.2106C286.363 40.6357 287.548 41.4297 288.449 42.5006C289.209 43.3811 289.668 44.4812 289.759 45.6406C289.841 46.5065 289.707 47.3792 289.369 48.1806C289.167 48.6865 288.865 49.1459 288.479 49.5306C288.356 49.6764 288.206 49.7984 288.039 49.8906C288.527 49.374 288.914 48.7702 289.179 48.1106C289.467 47.3316 289.566 46.4954 289.469 45.6706C289.358 44.5807 288.903 43.5545 288.169 42.7406C287.28 41.7557 286.134 41.0388 284.859 40.6706C283.385 40.2709 281.835 40.2468 280.349 40.6006C276.919 41.4839 273.875 43.4732 271.689 46.2606C270.551 47.6723 269.643 49.2552 268.999 50.9506C268.339 52.5906 267.689 54.3406 266.279 55.4106C265.599 55.9206 264.787 56.2258 263.939 56.2906C263.162 56.3499 262.381 56.296 261.619 56.1306C260.159 55.8206 258.889 55.3106 257.689 55.0606C256.632 54.7679 255.516 54.7679 254.459 55.0606C253.681 55.333 253.012 55.8483 252.549 56.5306C252.249 56.9581 252.088 57.4681 252.089 57.9906C252.109 58.3806 252.179 58.5606 252.149 58.5706Z" fill="#455A64"/>
<path d="M416.887 454.43C416.933 454.289 416.99 454.152 417.057 454.02C417.187 453.73 417.377 453.35 417.607 452.85C418.272 451.341 418.81 449.779 419.217 448.18C420.499 442.223 420.451 436.057 419.077 430.12C418.226 426.011 417.107 421.963 415.727 418C414.307 413.69 412.667 409.12 411.317 404.19C409.796 399.037 409.064 393.683 409.147 388.31C409.347 382.7 411.007 377.09 412.837 371.51C414.667 365.93 416.547 360.46 417.117 354.97C417.756 349.688 416.706 344.339 414.117 339.69C411.697 335.23 408.657 331.41 406.377 327.46C404.248 323.798 402.681 319.837 401.727 315.71C400.351 309.732 400.249 303.531 401.427 297.51C401.847 295.309 402.483 293.156 403.327 291.08C403.303 291.226 403.266 291.37 403.217 291.51C403.117 291.81 402.997 292.22 402.827 292.74C402.497 293.83 402.067 295.44 401.647 297.55C400.566 303.543 400.729 309.693 402.127 315.62C403.099 319.697 404.673 323.607 406.797 327.22C409.067 331.12 412.127 334.92 414.587 339.43C417.255 344.164 418.351 349.623 417.717 355.02C417.147 360.61 415.247 366.11 413.427 371.69C411.607 377.27 409.957 382.81 409.747 388.33C409.67 393.647 410.388 398.945 411.877 404.05C413.197 408.96 414.877 413.53 416.227 417.84C417.59 421.83 418.689 425.906 419.517 430.04C421.047 437.65 420.617 444.04 419.517 448.24C419.083 449.843 418.504 451.402 417.787 452.9C417.537 453.39 417.337 453.77 417.187 454.05C417.102 454.188 417.001 454.315 416.887 454.43Z" fill="#263238"/>
<path d="M409.44 331.361C409.44 331.361 404.81 316.561 413.11 307.901C413.174 307.83 413.257 307.779 413.35 307.753C413.442 307.727 413.539 307.728 413.631 307.755C413.723 307.782 413.805 307.835 413.869 307.907C413.932 307.978 413.974 308.066 413.99 308.161C414.43 310.601 415 318.041 409.44 331.361Z" fill="#349F6E"/>
<path d="M412.208 312.83C412.194 313.748 412.091 314.662 411.898 315.56C411.588 317.44 411.228 319.65 410.838 322.09L409.838 328.61C409.764 329.524 409.6 330.428 409.348 331.31C409.274 330.393 409.304 329.47 409.438 328.56C409.588 326.87 409.888 324.56 410.308 321.99C410.728 319.42 411.168 317.14 411.528 315.49C411.653 314.58 411.882 313.688 412.208 312.83Z" fill="#263238"/>
<path d="M414.867 366.261C414.867 366.261 417.697 351.011 429.087 347.261C429.176 347.228 429.273 347.222 429.365 347.242C429.458 347.261 429.543 347.306 429.612 347.372C429.68 347.437 429.729 347.52 429.753 347.612C429.777 347.703 429.775 347.8 429.747 347.891C428.997 350.241 425.997 357.081 414.867 366.261Z" fill="#349F6E"/>
<path d="M426 351.18C425.552 351.98 425.03 352.737 424.44 353.44L420.44 358.72L416.44 364C415.943 364.769 415.377 365.492 414.75 366.16C415.097 365.309 415.551 364.506 416.1 363.77C417.03 362.34 418.38 360.43 419.95 358.37C421.52 356.31 422.95 354.48 424.07 353.19C424.628 352.443 425.276 351.767 426 351.18Z" fill="#263238"/>
<path d="M411.788 404.499C411.788 404.499 410.068 389.099 419.868 382.179C419.944 382.121 420.035 382.086 420.13 382.077C420.225 382.067 420.321 382.085 420.406 382.128C420.492 382.171 420.563 382.237 420.613 382.318C420.663 382.4 420.689 382.494 420.688 382.589C420.658 385.069 419.778 392.499 411.788 404.499Z" fill="#349F6E"/>
<path d="M418.05 386.83C417.858 387.728 417.58 388.605 417.22 389.45C416.57 391.24 415.79 393.34 414.94 395.66C414.09 397.98 413.33 400.08 412.68 401.87C412.433 402.751 412.098 403.606 411.68 404.42C411.779 403.506 411.983 402.607 412.29 401.74C412.76 400.11 413.5 397.88 414.4 395.46C415.3 393.04 416.17 390.86 416.84 389.3C417.153 388.436 417.559 387.607 418.05 386.83Z" fill="#263238"/>
<path d="M420.37 442.961C420.37 442.961 419.2 427.501 429.25 420.961C429.329 420.91 429.421 420.882 429.515 420.879C429.61 420.876 429.703 420.899 429.785 420.946C429.867 420.992 429.935 421.06 429.982 421.142C430.029 421.223 430.052 421.317 430.05 421.411C429.93 423.861 428.79 431.231 420.37 442.961Z" fill="#349F6E"/>
<path d="M427.258 425.5C427.032 426.39 426.724 427.257 426.338 428.09C425.608 429.85 424.768 431.92 423.828 434.21C422.888 436.5 422.068 438.57 421.348 440.33C421.072 441.205 420.707 442.05 420.258 442.85C420.391 441.939 420.629 441.046 420.968 440.19C421.498 438.58 422.308 436.38 423.298 433.99C424.288 431.6 425.228 429.46 425.958 427.93C426.296 427.073 426.733 426.257 427.258 425.5Z" fill="#263238"/>
<path d="M402.789 318.361C402.789 318.361 389.039 311.181 388.789 299.191C388.788 299.096 388.812 299.002 388.86 298.92C388.908 298.838 388.977 298.771 389.061 298.725C389.144 298.68 389.239 298.658 389.334 298.663C389.428 298.667 389.52 298.698 389.599 298.751C391.619 300.161 397.279 305.021 402.789 318.361Z" fill="#349F6E"/>
<path d="M391.629 303.311C392.268 303.969 392.841 304.69 393.339 305.461C394.459 307.001 395.769 308.811 397.209 310.821C398.649 312.831 399.979 314.621 401.099 316.161C401.688 316.863 402.213 317.616 402.669 318.411C401.959 317.824 401.324 317.152 400.779 316.411C399.689 315.111 398.249 313.261 396.779 311.151C395.309 309.041 393.959 307.151 393.039 305.691C392.481 304.952 392.008 304.154 391.629 303.311Z" fill="#263238"/>
<path d="M417.539 350.14C417.539 350.14 403.389 343.81 402.389 331.85C402.38 331.756 402.396 331.661 402.438 331.575C402.479 331.49 402.543 331.418 402.623 331.367C402.703 331.316 402.795 331.288 402.89 331.287C402.985 331.286 403.078 331.311 403.159 331.36C405.289 332.65 411.229 337.16 417.539 350.14Z" fill="#349F6E"/>
<path d="M405.488 335.791C406.167 336.394 406.784 337.064 407.328 337.791L411.518 342.901L415.728 348.001C416.358 348.669 416.927 349.392 417.428 350.161C416.686 349.616 416.015 348.981 415.428 348.271C414.258 347.041 412.718 345.271 411.078 343.271C409.438 341.271 407.998 339.501 406.998 338.081C406.409 337.378 405.902 336.61 405.488 335.791Z" fill="#263238"/>
<path d="M409.397 385.58C409.397 385.58 399.677 373.5 404.237 362.4C404.271 362.312 404.33 362.235 404.406 362.178C404.482 362.121 404.572 362.086 404.667 362.078C404.762 362.07 404.857 362.088 404.941 362.131C405.026 362.174 405.097 362.239 405.147 362.32C406.457 364.43 409.687 371.15 409.397 385.58Z" fill="#349F6E"/>
<path d="M405.199 367.32C405.527 368.18 405.765 369.071 405.909 369.98C406.319 371.84 406.789 373.98 407.319 376.44L408.739 382.89C408.994 383.77 409.172 384.67 409.269 385.58C408.858 384.757 408.546 383.887 408.339 382.99C407.859 381.36 407.339 379.09 406.749 376.56C406.159 374.03 405.749 371.73 405.509 370.05C405.305 369.155 405.201 368.239 405.199 367.32Z" fill="#263238"/>
<path d="M418.998 427.289C418.998 427.289 404.998 420.719 404.158 408.749C404.151 408.655 404.17 408.561 404.213 408.477C404.256 408.393 404.322 408.323 404.403 408.274C404.484 408.226 404.577 408.2 404.671 408.201C404.765 408.202 404.858 408.229 404.938 408.279C407.068 409.599 412.928 414.209 418.998 427.289Z" fill="#349F6E"/>
<path d="M407.207 412.74C407.878 413.371 408.485 414.068 409.017 414.82L413.127 420L417.237 425.16C417.86 425.837 418.419 426.57 418.907 427.35C418.166 426.793 417.494 426.148 416.907 425.43C415.767 424.18 414.247 422.43 412.647 420.36C411.047 418.29 409.647 416.45 408.647 415.06C408.083 414.342 407.6 413.564 407.207 412.74Z" fill="#263238"/>
<path d="M446.997 366.34C447.008 366.453 447.008 366.567 446.997 366.68C446.997 366.95 446.997 367.28 446.997 367.68C446.997 368.61 446.897 369.87 446.827 371.44L446.097 384.86C445.097 390.47 442.237 396.68 438.407 402.72C435.587 407.17 432.637 411.21 430.097 414.97C427.778 418.251 425.697 421.693 423.867 425.27C422.661 427.694 421.684 430.225 420.947 432.83C420.697 433.75 420.517 434.48 420.407 434.97C420.365 435.226 420.298 435.477 420.207 435.72C420.21 435.461 420.24 435.203 420.297 434.95C420.367 434.44 420.517 433.71 420.727 432.77C421.382 430.121 422.31 427.547 423.497 425.09C425.289 421.471 427.344 417.988 429.647 414.67C432.177 410.88 435.117 406.84 437.917 402.41C441.727 396.41 444.567 390.28 445.607 384.76C445.997 379.26 446.317 374.65 446.547 371.35C446.677 369.79 446.777 368.53 446.857 367.6C446.857 367.21 446.927 366.88 446.957 366.6C446.987 366.32 446.997 366.34 446.997 366.34Z" fill="#263238"/>
<path d="M438.627 401.6C438.627 401.6 444.577 387.28 437.097 377.9C437.04 377.823 436.962 377.765 436.873 377.73C436.784 377.695 436.687 377.686 436.594 377.704C436.5 377.722 436.413 377.766 436.343 377.83C436.273 377.895 436.222 377.978 436.197 378.07C435.537 380.5 434.307 387.83 438.627 401.6Z" fill="#349F6E"/>
<path d="M437.549 382.891C437.806 383.774 437.963 384.683 438.019 385.601C438.229 387.281 438.469 389.601 438.649 392.191C438.829 394.781 438.929 397.121 438.929 398.811C438.977 399.731 438.92 400.653 438.759 401.561C438.593 400.66 438.513 399.746 438.519 398.831C438.389 396.931 438.239 394.701 438.069 392.231C437.899 389.761 437.749 387.541 437.609 385.641C437.498 384.728 437.478 383.807 437.549 382.891Z" fill="#263238"/>
<g opacity="0.3">
<path d="M438.627 401.6C438.627 401.6 444.577 387.28 437.097 377.9C437.04 377.823 436.962 377.765 436.873 377.73C436.784 377.695 436.687 377.686 436.594 377.704C436.5 377.722 436.413 377.766 436.343 377.83C436.273 377.895 436.222 377.978 436.197 378.07C435.537 380.5 434.307 387.83 438.627 401.6Z" fill="black"/>
</g>
<path d="M420.208 436.1C420.208 436.1 424.978 421.34 416.758 412.6C416.695 412.529 416.612 412.478 416.521 412.451C416.429 412.425 416.332 412.425 416.241 412.451C416.149 412.477 416.067 412.528 416.003 412.599C415.939 412.669 415.896 412.756 415.878 412.85C415.408 415.29 414.788 422.72 420.208 436.1Z" fill="#349F6E"/>
<path d="M417.618 417.5C417.939 418.361 418.17 419.252 418.308 420.16C418.648 421.82 419.078 424.16 419.468 426.68C419.858 429.2 420.138 431.57 420.278 433.26C420.408 434.171 420.425 435.095 420.328 436.01C420.097 435.122 419.943 434.215 419.868 433.3C419.588 431.42 419.258 429.21 418.868 426.77C418.478 424.33 418.158 422.12 417.868 420.23C417.691 419.331 417.607 418.416 417.618 417.5Z" fill="#263238"/>
<g opacity="0.3">
<path d="M420.208 436.1C420.208 436.1 424.978 421.34 416.758 412.6C416.695 412.529 416.612 412.478 416.521 412.451C416.429 412.425 416.332 412.425 416.241 412.451C416.149 412.477 416.067 412.528 416.003 412.599C415.939 412.669 415.896 412.756 415.878 412.85C415.408 415.29 414.788 422.72 420.208 436.1Z" fill="black"/>
</g>
<path d="M446.207 384.1C446.207 384.1 458.907 375.21 457.627 363.28C457.618 363.186 457.583 363.096 457.526 363.021C457.469 362.945 457.392 362.887 457.304 362.853C457.216 362.819 457.12 362.81 457.027 362.827C456.934 362.844 456.847 362.887 456.777 362.95C454.927 364.61 449.997 370.16 446.207 384.1Z" fill="#349F6E"/>
<g opacity="0.3">
<path d="M446.207 384.1C446.207 384.1 458.907 375.21 457.627 363.28C457.618 363.186 457.583 363.096 457.526 363.021C457.469 362.945 457.392 362.887 457.304 362.853C457.216 362.819 457.12 362.81 457.027 362.827C456.934 362.844 456.847 362.887 456.777 362.95C454.927 364.61 449.997 370.16 446.207 384.1Z" fill="black"/>
</g>
<path d="M455.328 367.74C455.069 368.62 454.713 369.468 454.268 370.27C453.548 371.81 452.498 373.9 451.268 376.18C450.038 378.46 448.858 380.48 447.948 381.91C447.5 382.716 446.956 383.465 446.328 384.14C446.671 383.29 447.093 382.473 447.588 381.7C448.508 380.03 449.588 378.07 450.758 375.9L453.908 370.09C454.299 369.26 454.775 368.472 455.328 367.74Z" fill="#263238"/>
<path d="M425.328 421.499C425.328 421.499 440.648 419.109 444.748 407.839C444.783 407.751 444.793 407.655 444.776 407.561C444.76 407.468 444.717 407.381 444.654 407.31C444.591 407.239 444.509 407.188 444.418 407.161C444.326 407.134 444.23 407.134 444.138 407.159C441.748 407.809 434.828 410.609 425.328 421.499Z" fill="#349F6E"/>
<g opacity="0.3">
<path d="M425.328 421.499C425.328 421.499 440.648 419.109 444.748 407.839C444.783 407.751 444.793 407.655 444.776 407.561C444.76 407.468 444.717 407.381 444.654 407.31C444.591 407.239 444.509 407.188 444.418 407.161C444.326 407.134 444.23 407.134 444.138 407.159C441.748 407.809 434.828 410.609 425.328 421.499Z" fill="black"/>
</g>
<path d="M440.73 410.801C440.107 411.477 439.413 412.084 438.66 412.611C437.34 413.671 435.47 415.081 433.37 416.611C431.27 418.141 429.31 419.401 427.86 420.291C427.103 420.814 426.287 421.247 425.43 421.581C426.113 420.972 426.849 420.427 427.63 419.951L433.03 416.131L438.42 412.301C439.134 411.72 439.909 411.218 440.73 410.801Z" fill="#263238"/>
<path d="M410.72 449.66L406.25 479.73H434.1L430.49 449.66H410.72Z" fill="#455A64"/>
<path d="M431.597 458.98C427.861 459.27 424.113 459.367 420.367 459.27C416.621 459.367 412.873 459.27 409.137 458.98C412.873 458.691 416.621 458.594 420.367 458.69C424.113 458.594 427.861 458.691 431.597 458.98Z" fill="#263238"/>
<path d="M432.15 461.37C432.15 461.53 426.96 461.66 420.56 461.66C414.16 461.66 409 461.5 409 461.37C409 461.24 414.19 461.08 420.6 461.08C427.01 461.08 432.15 461.21 432.15 461.37Z" fill="#263238"/>
<path d="M79.0766 424.84C80.4844 425.078 81.8298 425.598 83.0325 426.367C84.2352 427.137 85.2705 428.141 86.0766 429.32C87.6695 431.699 88.6958 434.412 89.0766 437.25C89.9866 442.69 88.5166 448.87 86.4966 454.01C80.9466 451.4 77.9865 444.94 76.6965 441.56C74.6965 436.23 74.1966 425.34 79.0366 424.84" fill="#349F6E"/>
<path d="M94.7176 461.67C93.8818 460.307 93.4221 458.747 93.3852 457.148C93.3483 455.55 93.7356 453.97 94.5076 452.57C95.3003 451.182 96.3623 449.966 97.6314 448.994C98.9004 448.022 100.351 447.314 101.898 446.91C102.587 446.647 103.325 446.537 104.061 446.589C104.797 446.64 105.512 446.853 106.158 447.21C106.699 447.64 107.115 448.207 107.363 448.853C107.611 449.498 107.682 450.198 107.568 450.88C107.318 452.242 106.714 453.515 105.818 454.57C102.928 458.31 99.4376 461.39 94.7176 461.67Z" fill="#349F6E"/>
<path d="M93.3177 478.91C93.2018 478.541 93.1411 478.156 93.1377 477.77C93.0577 477.03 92.9677 475.95 92.8877 474.62C92.6349 471.14 92.8501 467.642 93.5277 464.22C94.2383 460.761 95.8689 457.559 98.2477 454.95C98.9841 454.186 99.8101 453.515 100.708 452.95C101.011 452.724 101.349 452.549 101.708 452.43C100.573 453.282 99.5126 454.229 98.5377 455.26C96.3143 457.875 94.784 461.008 94.0877 464.37C93.4303 467.745 93.1619 471.184 93.2877 474.62C93.3838 476.048 93.3938 477.48 93.3177 478.91Z" fill="#263238"/>
<path d="M80.3672 433.1C80.6532 433.671 80.8875 434.267 81.0672 434.88C81.4772 436.04 82.0672 437.72 82.7372 439.81C84.0972 443.99 85.8872 449.81 87.7372 456.26C89.5872 462.71 91.0672 468.61 92.0772 472.89C92.5872 475.03 92.9772 476.76 93.2372 477.97C93.3981 478.586 93.5085 479.215 93.5672 479.85C93.3286 479.259 93.1379 478.651 92.9972 478.03C92.6572 476.73 92.1972 475.03 91.6572 473.03C90.5272 468.78 88.9572 462.91 87.1472 456.46C85.3372 450.01 83.6072 444.18 82.3472 439.97L80.8672 434.97C80.6489 434.361 80.4816 433.736 80.3672 433.1Z" fill="#263238"/>
<path d="M87.3284 466.85C85.944 463.776 83.8464 461.077 81.2099 458.976C78.5733 456.875 75.4737 455.433 72.1684 454.77C70.4884 454.45 68.4184 454.49 67.4784 455.93C66.5384 457.37 67.3484 459.29 68.3584 460.67C70.5134 463.532 73.4689 465.691 76.851 466.873C80.2331 468.055 83.8897 468.207 87.3584 467.31" fill="#349F6E"/>
<path d="M74 459.611C74.3703 459.582 74.7426 459.62 75.1 459.721C75.5325 459.78 75.9602 459.871 76.38 459.991C76.9405 460.121 77.4917 460.288 78.03 460.491C79.4556 460.98 80.8264 461.617 82.12 462.391C85.3081 464.282 88.0073 466.895 90 470.021C90.795 471.286 91.4649 472.626 92 474.021C92.2117 474.557 92.3953 475.105 92.55 475.661C92.6845 476.076 92.7881 476.5 92.86 476.931C92.9643 477.288 93.0149 477.659 93.01 478.031C92.89 478.031 92.59 476.501 91.59 474.191C91.0059 472.841 90.3032 471.546 89.49 470.321C88.4771 468.832 87.3217 467.445 86.04 466.181C84.7355 464.941 83.3119 463.832 81.79 462.871C80.5427 462.081 79.2235 461.412 77.85 460.871C75.56 459.981 74 459.721 74 459.611Z" fill="#263238"/>
<path d="M362.801 95.9304C362.801 96.2304 364.971 96.4704 367.641 96.4704C370.311 96.4704 372.481 96.2304 372.481 95.9304C372.481 95.6304 370.321 95.4004 367.641 95.4004C364.961 95.4004 362.801 95.6404 362.801 95.9304Z" fill="#349F6E"/>
<path d="M357.661 82.7617C357.361 82.7617 357.121 84.9617 357.121 87.6717C357.121 90.3817 357.361 92.5917 357.661 92.5917C357.961 92.5917 358.191 90.3917 358.191 87.6717C358.191 84.9517 358.001 82.7617 357.661 82.7617Z" fill="#349F6E"/>
<path d="M352.18 95.6201C352.18 95.3201 350.01 95.0801 347.34 95.0801C344.67 95.0801 342.5 95.3201 342.5 95.6201C342.5 95.9201 344.66 96.1501 347.34 96.1501C350.02 96.1501 352.18 95.9101 352.18 95.6201Z" fill="#349F6E"/>
<path d="M357.319 108.791C357.619 108.791 357.859 106.591 357.859 103.881C357.859 101.171 357.619 98.9609 357.319 98.9609C357.019 98.9609 356.789 101.161 356.789 103.881C356.789 106.601 356.999 108.791 357.319 108.791Z" fill="#349F6E"/>
<path d="M349.503 103.141C349.723 103.331 350.683 102.561 351.633 101.421C352.583 100.281 353.173 99.211 352.943 99.021C352.713 98.831 351.763 99.601 350.813 100.731C349.863 101.861 349.273 102.951 349.503 103.141Z" fill="#349F6E"/>
<path d="M350.001 88.2016C349.791 88.4116 350.421 89.3916 351.411 90.3816C352.401 91.3716 353.361 92.0216 353.571 91.8116C353.781 91.6016 353.151 90.6216 352.171 89.6316C351.191 88.6416 350.161 87.9916 350.001 88.2016Z" fill="#349F6E"/>
<path d="M361.053 92.0113C361.243 92.2313 362.153 91.7813 363.053 91.0113C363.953 90.2413 364.603 89.4113 364.413 89.1913C364.223 88.9713 363.313 89.4113 362.413 90.1913C361.513 90.9713 360.863 91.7813 361.053 92.0113Z" fill="#349F6E"/>
<path d="M361.483 98.5913C361.273 98.7913 361.813 99.7513 362.713 100.731C363.613 101.711 364.513 102.351 364.713 102.151C364.913 101.951 364.383 100.991 363.483 100.011C362.583 99.0313 361.703 98.3913 361.483 98.5913Z" fill="#349F6E"/>
<path d="M123.492 211.421C124.375 211.724 125.314 211.83 126.242 211.731C127.17 211.83 128.109 211.724 128.992 211.421C128.108 211.124 127.17 211.022 126.242 211.121C125.315 211.022 124.377 211.124 123.492 211.421Z" fill="#349F6E"/>
<path d="M120.57 203.941C120.17 205.78 120.17 207.683 120.57 209.521C120.983 207.684 120.983 205.778 120.57 203.941Z" fill="#349F6E"/>
<path d="M117.461 211.241C116.577 210.944 115.639 210.842 114.711 210.941C113.783 210.842 112.845 210.944 111.961 211.241C112.844 211.544 113.783 211.65 114.711 211.551C115.639 211.65 116.578 211.544 117.461 211.241Z" fill="#349F6E"/>
<path d="M120.382 218.721C120.795 216.884 120.795 214.978 120.382 213.141C119.982 214.979 119.982 216.882 120.382 218.721Z" fill="#349F6E"/>
<path d="M115.942 215.5C116.072 215.61 116.612 215.17 117.152 214.5C117.692 213.83 118.022 213.24 117.892 213.13C117.762 213.02 117.222 213.46 116.682 214.13C116.142 214.8 115.812 215.41 115.942 215.5Z" fill="#349F6E"/>
<path d="M116.192 207.031C116.082 207.151 116.432 207.701 116.992 208.271C117.552 208.841 118.102 209.201 118.222 209.081C118.342 208.961 117.992 208.411 117.432 207.841C116.872 207.271 116.312 206.911 116.192 207.031Z" fill="#349F6E"/>
<path d="M122.501 209.191C122.601 209.321 123.121 209.071 123.661 208.621C124.201 208.171 124.541 207.711 124.431 207.621C124.321 207.531 123.801 207.751 123.271 208.191C122.741 208.631 122.391 209.061 122.501 209.191Z" fill="#349F6E"/>
<path d="M122.741 212.931C122.621 213.041 122.931 213.591 123.441 214.151C123.951 214.711 124.441 215.071 124.591 214.951C124.741 214.831 124.401 214.292 123.891 213.742C123.381 213.192 122.871 212.821 122.741 212.931Z" fill="#349F6E"/>
<path d="M367.789 270.701C369.601 271.101 371.478 271.101 373.289 270.701C371.479 270.287 369.599 270.287 367.789 270.701Z" fill="#349F6E"/>
<path d="M364.87 263.221C364.47 265.059 364.47 266.962 364.87 268.801C365.284 266.964 365.284 265.058 364.87 263.221Z" fill="#349F6E"/>
<path d="M361.762 270.501C359.952 270.088 358.072 270.088 356.262 270.501C358.073 270.902 359.95 270.902 361.762 270.501Z" fill="#349F6E"/>
<path d="M364.683 278C365.096 276.163 365.096 274.257 364.683 272.42C364.283 274.258 364.283 276.161 364.683 278Z" fill="#349F6E"/>
<path d="M360.239 274.791C360.369 274.901 360.909 274.461 361.449 273.791C361.989 273.121 362.319 272.541 362.189 272.431C362.059 272.321 361.519 272.761 360.979 273.431C360.439 274.101 360.109 274.681 360.239 274.791Z" fill="#349F6E"/>
<path d="M360.5 266.312C360.38 266.432 360.73 266.982 361.29 267.552C361.85 268.122 362.41 268.472 362.52 268.362C362.63 268.252 362.29 267.682 361.73 267.122C361.17 266.562 360.61 266.192 360.5 266.312Z" fill="#349F6E"/>
<path d="M366.801 268.5C366.901 268.63 367.421 268.37 367.961 267.93C368.501 267.49 368.842 267.02 368.732 266.93C368.622 266.84 368.102 267.06 367.572 267.5C367.042 267.94 366.691 268.34 366.801 268.5Z" fill="#349F6E"/>
<path d="M367.002 272.211C366.882 272.321 367.192 272.861 367.702 273.421C368.212 273.981 368.702 274.341 368.852 274.231C369.002 274.121 368.662 273.571 368.152 273.011C367.642 272.451 367.172 272.091 367.002 272.211Z" fill="#349F6E"/>
<path d="M165.551 425.55C167.359 425.95 169.233 425.95 171.041 425.55C169.233 425.15 167.359 425.15 165.551 425.55Z" fill="#349F6E"/>
<path d="M162.63 418.07C162.217 419.907 162.217 421.813 162.63 423.65C163.03 421.812 163.03 419.909 162.63 418.07Z" fill="#349F6E"/>
<path d="M159.52 425.37C157.708 424.97 155.831 424.97 154.02 425.37C155.83 425.784 157.71 425.784 159.52 425.37Z" fill="#349F6E"/>
<path d="M162.443 432.852C162.843 431.013 162.843 429.11 162.443 427.271C162.029 429.109 162.029 431.014 162.443 432.852Z" fill="#349F6E"/>
<path d="M158 429.641C158.13 429.751 158.67 429.311 159.21 428.641C159.75 427.971 160.09 427.381 159.96 427.271C159.83 427.161 159.29 427.601 158.75 428.271C158.21 428.941 157.86 429.501 158 429.641Z" fill="#349F6E"/>
<path d="M158.25 421.162C158.13 421.282 158.49 421.832 159.05 422.402C159.61 422.972 160.16 423.332 160.28 423.212C160.4 423.092 160.04 422.542 159.48 421.972C158.92 421.402 158.37 421.042 158.25 421.162Z" fill="#349F6E"/>
<path d="M164.552 423.32C164.662 423.45 165.182 423.2 165.712 422.75C166.242 422.3 166.592 421.84 166.482 421.75C166.372 421.66 165.862 421.88 165.322 422.32C164.782 422.76 164.442 423.19 164.552 423.32Z" fill="#349F6E"/>
<path d="M164.802 427.06C164.672 427.17 164.992 427.72 165.492 428.28C165.992 428.84 166.492 429.19 166.642 429.08C166.792 428.97 166.452 428.42 165.942 427.87C165.432 427.32 164.922 426.95 164.802 427.06Z" fill="#349F6E"/>
<path d="M161.553 170.891L161.233 171.651C160.96 172.304 160.56 172.898 160.057 173.397C159.555 173.897 158.958 174.292 158.303 174.561L157.473 174.891L158.263 175.211C158.941 175.48 159.556 175.885 160.072 176.401C160.588 176.917 160.993 177.533 161.263 178.211L161.493 178.761L161.823 178.071C162.43 176.808 163.507 175.832 164.823 175.351L165.533 175.091L164.603 174.631C163.422 174.061 162.491 173.079 161.983 171.871L161.553 170.891Z" fill="#349F6E"/>
<path d="M126.27 157.66L126.11 158.04C125.976 158.368 125.777 158.666 125.527 158.916C125.276 159.167 124.978 159.365 124.65 159.5L124.23 159.66L124.63 159.82C124.964 159.957 125.267 160.159 125.521 160.415C125.775 160.671 125.976 160.976 126.11 161.31L126.22 161.58L126.39 161.24C126.693 160.607 127.231 160.119 127.89 159.88L128.25 159.75L127.78 159.52C127.191 159.234 126.726 158.743 126.47 158.14L126.27 157.66Z" fill="#349F6E"/>
<path d="M399.872 103.33L399.712 103.71C399.575 104.037 399.375 104.333 399.122 104.582C398.87 104.831 398.571 105.028 398.242 105.16L397.832 105.33L398.222 105.49C398.556 105.624 398.859 105.824 399.114 106.078C399.368 106.333 399.568 106.636 399.702 106.97L399.822 107.25L399.982 106.9C400.288 106.27 400.825 105.783 401.482 105.54L401.842 105.41L401.372 105.19C400.782 104.9 400.317 104.406 400.062 103.8L399.872 103.33Z" fill="#349F6E"/>
<path d="M384.819 306.92L384.669 307.3C384.39 307.958 383.861 308.479 383.199 308.75L382.789 308.92L383.179 309.08C383.513 309.214 383.816 309.414 384.071 309.668C384.325 309.923 384.525 310.226 384.659 310.56L384.769 310.84L384.939 310.49C385.241 309.857 385.78 309.369 386.439 309.13L386.799 309L386.329 308.77C385.736 308.489 385.269 307.997 385.019 307.39L384.819 306.92Z" fill="#349F6E"/>
<path d="M174.001 396.102L173.841 396.482C173.704 396.81 173.504 397.108 173.252 397.358C172.999 397.609 172.7 397.807 172.371 397.942L171.961 398.112L172.351 398.272C172.686 398.404 172.99 398.603 173.245 398.858C173.499 399.113 173.699 399.417 173.831 399.752L173.941 400.032L174.111 399.682C174.413 399.049 174.952 398.56 175.611 398.322L175.971 398.192L175.501 397.962C174.91 397.678 174.443 397.187 174.191 396.582L174.001 396.102Z" fill="#349F6E"/>
<path d="M332.442 63.8809L332.282 64.2609C332.148 64.5895 331.949 64.8875 331.696 65.1368C331.444 65.386 331.143 65.5813 330.812 65.7109L330.402 65.8809L330.802 66.0409C331.133 66.1743 331.434 66.3721 331.689 66.6227C331.943 66.8733 332.144 67.1718 332.282 67.5009L332.392 67.7709L332.562 67.4309C332.86 66.7988 333.396 66.31 334.052 66.0709L334.412 65.9309L333.942 65.7109C333.353 65.4229 332.89 64.9281 332.642 64.3209L332.442 63.8809Z" fill="#349F6E"/>
<path d="M356.33 329.951L356.01 330.711C355.737 331.365 355.338 331.959 354.835 332.458C354.332 332.957 353.736 333.353 353.08 333.621L352.25 333.951L353.04 334.271C353.718 334.541 354.334 334.946 354.849 335.462C355.365 335.978 355.77 336.593 356.04 337.271L356.27 337.821L356.6 337.131C357.205 335.866 358.282 334.89 359.6 334.411L360.32 334.151L359.38 333.691C358.199 333.117 357.267 332.132 356.76 330.921L356.33 329.951Z" fill="#349F6E"/>
</g>
<defs>
<clipPath id="clip0_3682_21275">
<rect width="500" height="488" fill="white" transform="translate(0 0.5)"/>
</clipPath>
</defs>
</svg>
