<svg width="233" height="309" viewBox="0 0 233 309" fill="none" xmlns="http://www.w3.org/2000/svg">
<path d="M76.4754 227.878C76.4754 227.878 72.2512 244.223 73.7844 264.136C74.3765 271.842 100.395 485.012 100.395 485.012H135.524L125.65 284.662L128.526 285.285C128.526 285.285 147.702 370.735 149.266 384.57C150.673 397.004 167.895 494.75 167.895 494.75L201.037 494.383L188.706 368.219L176.768 253.558L172.278 220.181L76.4754 227.878Z" fill="#17282F"/>
<path d="M80.5469 263.333C112.925 274.494 155.467 280.086 177.294 258.598L170.222 95.7029H87.7669L80.5469 263.333Z" fill="#DADBD8"/>
<path d="M142.843 180.461C142.965 180.595 137.264 185.935 130.113 192.386C122.96 198.84 117.065 203.961 116.943 203.828C116.822 203.693 122.521 198.353 129.674 191.9C136.824 185.449 142.722 180.327 142.843 180.461Z" fill="#17282F"/>
<path d="M111.845 271.334L106.867 270.536L106.871 270.444C108.524 270.765 110.184 271.062 111.845 271.334Z" fill="#0F191D"/>
<path d="M112.17 271.387L111.845 271.335C110.184 271.063 108.524 270.766 106.871 270.445L112.17 140.078V133.275C113.869 159.793 112.17 271.387 112.17 271.387Z" fill="#8F9192"/>
<path d="M77.9889 130.25L73.8101 199.234L70.7853 268.529C79.7451 275.369 91.9325 278.929 106.485 280.086L112.175 140.077V86.3716L111.162 85.6854L104.208 91.6911L102.616 91.8598C101.501 89.5733 99.7497 90.4207 99.7497 90.4207C99.1916 89.489 98.3954 89.3203 98.3954 89.3203C96.7236 89.066 95.688 90.4207 95.688 90.4207L94.4144 89.0659C92.3445 88.4729 91.1653 91.0276 91.1653 91.0276C72.9862 93.0421 70.5232 103.718 67.6836 110.496L77.9889 130.25Z" fill="#349F6E"/>
<path d="M83.3139 131.603C83.1198 132.183 81.5741 171.023 81.5741 171.023C81.5741 171.023 85.8272 175.467 84.2801 181.264C82.7343 187.061 79.9073 200.433 72.2338 201.016C61.4699 201.835 51.4115 195.563 51.6043 176.24C51.7983 156.918 67.512 110.497 67.512 110.497L86.0212 123.613L83.3139 131.603Z" fill="#349F6E"/>
<path d="M145.493 83.7978C145.493 83.7978 151.912 87.9628 153.784 91.0034L158.431 90.9631C159.249 90.8801 160.113 89.9458 161.165 89.9811C161.787 90.0012 162.533 90.9543 163.215 91.0122C163.502 91.0374 163.763 90.7982 164.027 90.5602C164.297 90.316 164.57 90.0705 164.882 90.1095C166.177 90.2681 167.14 91.1369 168.512 91.4756C173.714 92.7573 179.493 94.5175 182.219 96.469C189.266 101.515 191.631 110.471 191.631 110.471C191.631 110.471 172.604 130.984 173.929 131.953C175.255 132.921 174.533 184.325 174.533 184.325C174.533 184.325 181.572 262.687 179.701 265.258C177.829 267.83 158.929 279.279 141.149 278.271C141.149 278.271 140.575 268.327 142.051 244.935C144.271 209.766 144.023 197.121 144.645 184.457C145.65 164.038 144.472 125.507 144.663 119.115C144.801 114.493 145.053 83.9023 145.493 83.7978Z" fill="#349F6E"/>
<path d="M176.158 203.152C175.679 197.427 175.256 192.521 174.961 189.153L176.158 196.667V203.152Z" fill="#A7A9A8"/>
<path d="M176.156 204.65C171.813 200.448 168.946 194.75 168.158 188.761C167.371 182.77 168.669 176.527 171.778 171.346L172.415 173.189L174.959 189.153C175.254 192.521 175.677 197.427 176.156 203.152V204.65Z" fill="#187B4E"/>
<path d="M191.63 110.47C191.63 110.47 198.282 160.615 201.752 165.243C205.221 169.871 204.073 176.405 203.177 182.764C202.196 189.723 198.71 206.256 185.48 205.12C178.537 204.523 174.414 199.502 172.045 192.013C167.934 179.016 173.262 163.677 173.261 160.149C173.258 156.62 169.073 130.315 169.563 128.937C170.053 127.557 191.63 110.47 191.63 110.47Z" fill="#349F6E"/>
<path d="M111.949 119.273C111.911 119.294 111.664 118.905 111.208 118.204C110.745 117.512 110.091 116.479 109.051 115.406C108.532 114.873 107.899 114.347 107.133 113.949C106.378 113.536 105.445 113.351 104.456 113.243C102.484 113.049 100.205 113.439 98.193 114.634L97.4648 115.066L97.7206 114.255C98.033 113.262 98.3467 112.216 98.6541 111.144C100.134 105.832 101.474 101.027 102.493 97.3687C102.968 95.708 103.367 94.3117 103.686 93.1999C103.981 92.2179 104.162 91.6802 104.206 91.6916C104.25 91.7029 104.151 92.2619 103.933 93.2629C103.715 94.2638 103.377 95.7067 102.943 97.4858C102.064 101.043 100.825 105.947 99.284 111.327C98.9766 112.401 98.6579 113.452 98.3354 114.455L97.863 114.078C102.187 111.556 107.454 112.518 109.361 115.113C110.399 116.268 111 117.351 111.407 118.087C111.804 118.829 111.982 119.255 111.949 119.273Z" fill="#17282F"/>
<path d="M156.985 119.273C154.759 117.969 152.16 117.131 149.624 117.131C148.027 117.131 146.454 117.463 145.016 118.221C146.246 116.439 147.116 115.261 149.144 114.339C150.256 113.833 151.477 113.605 152.706 113.605C153.718 113.605 154.736 113.76 155.703 114.042L155.729 114.148C156.331 115.805 156.753 117.526 156.985 119.273Z" fill="#187B4E"/>
<path d="M144.647 118.469C144.619 118.45 144.827 118.068 145.308 117.431C145.793 116.799 146.551 115.902 147.707 114.998C148.287 114.55 148.969 114.102 149.783 113.752C150.601 113.402 151.57 113.219 152.569 113.229C154.576 113.217 156.842 113.958 158.638 115.561L158.108 115.84C157.905 114.414 157.642 112.914 157.375 111.376C156.359 105.825 155.441 100.805 154.743 96.9897C154.44 95.2459 154.184 93.7829 153.981 92.6208C153.813 91.5871 153.74 91.0117 153.786 91.0029C153.83 90.9928 153.987 91.5518 154.232 92.5717C154.475 93.5902 154.807 95.0684 155.199 96.9003C155.978 100.563 157.018 105.631 158.021 111.262C158.288 112.806 158.547 114.307 158.742 115.756L158.859 116.622L158.211 116.036C156.55 114.533 154.445 113.811 152.564 113.786C150.647 113.686 149.098 114.503 147.954 115.328C145.666 117.028 144.74 118.554 144.647 118.469Z" fill="#17282F"/>
<path d="M73.5703 203.812L73.719 201.307L73.6094 203.807C73.5955 203.809 73.5829 203.811 73.5703 203.812Z" fill="#A7A9A8"/>
<path d="M73.6094 203.807L73.719 201.306L73.753 200.719C79.8971 198.749 82.5188 188.065 84.0079 182.306C84.7436 182.185 85.4907 182.122 86.2365 182.122C86.6775 182.122 87.1197 182.144 87.5593 182.189C88.9376 186.806 88.1981 192.009 85.5877 196.061C82.9849 200.101 78.3715 203.137 73.6094 203.807Z" fill="#187B4E"/>
<path d="M73.7498 200.721L73.9312 197.645C73.9312 197.645 72.7218 198.117 72.5126 198.234C71.8147 194.056 73.169 189.587 76.0666 186.496C78.1503 184.272 81 182.8 84.0047 182.307C82.5156 188.066 79.8939 198.75 73.7498 200.721Z" fill="#187B4E"/>
<path d="M72.2344 201.016C76.131 200.673 79.7857 198.491 82.3998 195.386C85.0139 192.281 86.629 188.309 87.3673 184.208C88.1975 179.601 87.8599 174.501 85.2609 170.72C82.6127 166.87 78.8018 165.278 74.5613 163.756" fill="#349F6E"/>
<path d="M74.5613 163.758C74.5764 163.718 75.2693 163.91 76.4964 164.342C77.7146 164.789 79.5061 165.438 81.4903 166.714C83.4569 167.977 85.5721 170.029 86.8029 172.942C88.0325 175.837 88.3475 179.364 87.8952 182.91C87.4328 186.462 86.3356 189.757 84.7872 192.458C83.2566 195.171 81.2421 197.228 79.3033 198.554C77.3644 199.9 75.5238 200.526 74.2501 200.802C73.6089 200.941 73.1024 201.001 72.7598 201.022C72.4158 201.041 72.2357 201.04 72.2344 201.017C72.2269 200.958 72.9475 200.895 74.1871 200.555C75.4192 200.209 77.1842 199.533 79.0349 198.175C80.8868 196.837 82.7992 194.817 84.2606 192.161C85.7371 189.52 86.7941 186.296 87.2439 182.827C87.6861 179.369 87.3925 175.957 86.2448 173.174C85.1022 170.384 83.1117 168.375 81.232 167.099C79.336 165.809 77.5874 165.097 76.4044 164.58C75.2101 164.076 74.5449 163.803 74.5613 163.758Z" fill="#17282F"/>
<path d="M77.4962 121.471C77.5492 121.456 77.849 122.304 78.3365 123.823C78.8455 125.475 79.512 127.633 80.3056 130.203L80.3157 130.236V130.277C80.351 133.993 80.3938 138.524 80.4392 143.429C80.4946 149.53 80.545 155.047 80.5815 159.212C80.5954 161.134 80.6055 162.74 80.6143 163.996C80.6143 165.126 80.5929 165.751 80.5475 165.754C80.5022 165.755 80.4379 165.133 80.3586 164.005C80.2792 162.877 80.196 161.243 80.1179 159.223C79.9604 155.184 79.8357 149.603 79.7828 143.434C79.7412 138.496 79.7475 133.932 79.7866 130.277L79.7979 130.35C79.0924 127.755 78.5003 125.576 78.0468 123.908C77.6462 122.363 77.4446 121.487 77.4962 121.471Z" fill="#17282F"/>
<path d="M179.21 122.98C179.251 123.009 178.846 123.653 178.083 124.79C177.234 126.022 176.129 127.625 174.801 129.55L174.848 129.409C174.866 133.373 174.711 138.637 174.424 144.387C174.099 150.636 173.806 156.285 173.584 160.544C173.491 162.516 173.414 164.16 173.353 165.441C173.298 166.597 173.246 167.236 173.201 167.236C173.156 167.236 173.122 166.595 173.099 165.436C173.077 164.278 173.081 162.6 173.12 160.528C173.195 156.384 173.455 150.666 173.769 144.355C174.056 138.608 174.271 133.357 174.352 129.405L174.355 129.322L174.399 129.263C175.799 127.388 176.963 125.828 177.857 124.628C178.69 123.542 179.17 122.951 179.21 122.98Z" fill="#17282F"/>
<path d="M188.196 205.098C188.197 205.143 187.444 205.152 186.071 205.127C184.723 204.957 182.693 204.741 180.467 203.612C178.254 202.509 175.949 200.485 174.254 197.686C172.544 194.894 171.366 191.466 170.617 187.808C169.805 184.144 169.76 180.511 170.159 177.294C170.557 174.067 171.424 171.245 172.369 168.985C173.335 166.729 174.386 165.031 175.2 163.931C175.583 163.364 175.946 162.972 176.174 162.695C176.408 162.422 176.539 162.286 176.557 162.3C176.695 162.389 174.603 164.655 172.799 169.162C171.923 171.41 171.118 174.195 170.76 177.366C170.401 180.532 170.462 184.075 171.259 187.675C171.999 191.286 173.139 194.646 174.77 197.372C176.39 200.104 178.567 202.079 180.68 203.2C182.804 204.345 184.774 204.628 186.096 204.872C187.444 204.974 188.196 205.052 188.196 205.098Z" fill="#17282F"/>
<path d="M99.0781 118.561C99.2986 116.91 99.6866 115.281 100.237 113.708C101.323 113.356 102.43 113.193 103.481 113.193C103.811 113.193 104.138 113.21 104.455 113.241C105.444 113.349 106.377 113.534 107.132 113.947C107.898 114.345 108.532 114.871 109.051 115.404C109.868 116.248 110.448 117.069 110.884 117.717C110.98 117.903 111.072 118.092 111.16 118.285C109.386 117.351 107.384 116.887 105.381 116.887C103.18 116.887 100.978 117.448 99.0781 118.561Z" fill="#187B4E"/>
<path d="M110.881 117.719C110.445 117.07 109.866 116.249 109.048 115.406C108.529 114.873 107.895 114.347 107.129 113.949C106.375 113.536 105.441 113.351 104.452 113.243C104.135 113.211 103.808 113.195 103.478 113.195C102.428 113.195 101.32 113.357 100.234 113.71C100.267 113.618 100.299 113.527 100.333 113.437L100.358 113.331C101.325 113.049 102.343 112.894 103.356 112.894C104.585 112.894 105.805 113.122 106.916 113.628C108.753 114.463 109.973 115.946 110.881 117.719Z" fill="#0F191D"/>
<path d="M124.323 11.1582L122.91 11.2161C108.68 11.8003 97.2887 23.2099 96.7306 37.431C96.2128 50.6588 95.8084 63.5717 96.1888 70.6413C96.975 85.2767 112.015 86.7171 112.015 86.7171C112.047 86.7171 111.991 91.8037 111.983 96.1046C118.8 107.628 135.136 108.802 143.208 98.1216L145.014 95.8566L147.237 39.793C147.919 24.5345 139.605 11.4175 124.323 11.1582Z" fill="#F9A78D"/>
<path d="M112.012 86.8532C112.012 86.8532 121.27 87.0131 130.856 80.4282C130.856 80.4282 126.721 91.6276 112.047 90.9125L112.012 86.8532Z" fill="#F57F62"/>
<path d="M103.477 48.6498C103.483 49.7552 104.425 50.6618 105.582 50.6756C106.736 50.6895 107.667 49.8069 107.66 48.7014C107.654 47.596 106.712 46.6882 105.558 46.6731C104.403 46.6579 103.47 47.5431 103.477 48.6498Z" fill="#17282F"/>
<path d="M100.116 43.7606C100.387 44.0225 101.922 42.7848 104.175 42.6979C106.422 42.5783 108.123 43.6687 108.356 43.3828C108.471 43.2557 108.186 42.7747 107.445 42.2799C106.716 41.7889 105.486 41.3306 104.084 41.3948C102.682 41.4615 101.523 42.0256 100.867 42.5821C100.196 43.1411 99.9823 43.6447 100.116 43.7606Z" fill="#17282F"/>
<path d="M124.231 48.3997C124.237 49.5052 125.179 50.4117 126.334 50.4256C127.488 50.4407 128.421 49.5581 128.414 48.4514C128.407 47.3459 127.464 46.4381 126.31 46.4243C125.155 46.4092 124.223 47.2943 124.231 48.3997Z" fill="#17282F"/>
<path d="M122.209 43.3719C122.48 43.6338 124.019 42.3961 126.269 42.3093C128.517 42.1896 130.218 43.28 130.451 42.9942C130.565 42.867 130.283 42.386 129.539 41.8925C128.81 41.4002 127.581 40.9432 126.179 41.0061C124.776 41.0716 123.617 41.6369 122.961 42.1921C122.292 42.7524 122.077 43.2561 122.209 43.3719Z" fill="#17282F"/>
<path d="M114.845 60.9981C114.85 60.8697 113.44 60.6859 111.16 60.4895C110.583 60.4542 110.034 60.3623 109.922 59.9733C109.768 59.5641 109.983 58.9345 110.234 58.2546C110.718 56.842 111.223 55.3613 111.754 53.8089C113.857 47.4808 115.355 42.2885 115.1 42.2054C114.844 42.1235 112.931 47.185 110.828 53.513C110.322 55.073 109.84 56.5587 109.38 57.9814C109.19 58.6437 108.847 59.3991 109.176 60.249C109.349 60.6721 109.783 60.9667 110.156 61.0498C110.529 61.148 110.853 61.1404 111.137 61.1467C113.425 61.1744 114.841 61.1266 114.845 60.9981Z" fill="#17282F"/>
<path d="M122.785 32.1859C123.031 32.7877 125.268 32.4088 127.922 32.6215C130.582 32.7802 132.743 33.4676 133.071 32.9061C133.217 32.6366 132.823 32.0751 131.937 31.5174C131.06 30.9609 129.676 30.4534 128.082 30.3401C126.49 30.2306 125.047 30.5403 124.101 30.9697C123.146 31.399 122.677 31.8988 122.785 32.1859Z" fill="#17282F"/>
<path d="M100.905 33.3757C101.394 33.868 103.205 33.2649 105.41 33.1516C107.61 32.9741 109.494 33.3341 109.904 32.7814C110.082 32.5157 109.768 32.0146 108.933 31.5626C108.11 31.1132 106.749 30.7732 105.235 30.8714C103.722 30.9721 102.428 31.4871 101.681 32.0411C100.924 32.5976 100.688 33.134 100.905 33.3757Z" fill="#17282F"/>
<path d="M146.49 50.6849C146.735 50.5678 156.435 47.2942 156.528 57.3189C156.622 67.3423 145.728 65.7156 145.707 65.4272C145.687 65.1402 146.49 50.6849 146.49 50.6849Z" fill="#F9A78D"/>
<path d="M149.541 61.2567C149.583 61.224 149.716 61.3764 150.013 61.5098C150.301 61.6382 150.798 61.7251 151.319 61.5236C152.375 61.1258 153.252 59.4361 153.283 57.6281C153.301 56.7166 153.101 55.849 152.771 55.1326C152.458 54.4024 151.978 53.895 151.444 53.8043C150.911 53.6872 150.537 54.0096 150.417 54.2929C150.286 54.5749 150.351 54.7738 150.298 54.7914C150.27 54.8179 150.081 54.6253 150.158 54.211C150.198 54.0108 150.313 53.7741 150.547 53.579C150.785 53.3813 151.139 53.278 151.511 53.3146C152.284 53.3611 152.987 54.0662 153.352 54.8519C153.756 55.6413 154.002 56.6158 153.983 57.6407C153.937 59.6603 152.921 61.5614 151.474 61.9933C150.77 62.1847 150.179 61.9769 149.873 61.7427C149.561 61.4985 149.505 61.2744 149.541 61.2567Z" fill="#F57F62"/>
<path d="M76.4866 24.2343C76.6403 23.6425 77.0648 23.1515 77.5876 22.8342C78.729 22.1443 80.0531 22.2186 81.3331 22.1833C84.5154 22.0964 87.6624 21.2466 90.4844 19.776C89.4891 19.2862 88.5581 18.6868 87.7644 17.9125C86.1241 16.3148 85.1642 13.8508 85.8823 11.6776C86.0158 11.2697 86.2489 10.8416 86.6583 10.7094C87.3071 10.5017 87.8841 11.1363 88.3439 11.6374C89.857 13.2893 91.2453 13.9893 93.4714 13.7387C94.8534 13.5839 96.1913 13.2591 97.271 12.5678L97.3957 12.4268C97.911 11.8829 98.4149 11.3642 98.9113 10.8605L98.9138 10.8555L98.9125 10.8592C102.643 7.07577 105.859 4.44688 109.185 3.06443C114.059 1.0386 122.241 0.147186 127.362 1.42765C132.483 2.70938 137.115 6.79754 137.885 12.0176C140.721 9.56496 145.021 9.53724 148.524 10.8983L148.611 10.8592C152.51 12.1989 154.764 16.2745 155.956 20.2204C156.02 20.4357 156.077 20.6548 156.138 20.8713C157.475 22.9374 159.28 24.7002 161.423 25.9139C161.801 26.1279 162.235 26.3911 162.285 26.8229C162.335 27.2498 161.978 27.6086 161.631 27.8629C160.708 28.5403 159.628 28.9898 158.502 29.2038C158.868 30.1418 159.296 31.0509 159.821 31.9171C160.268 32.6549 160.798 33.5375 160.426 34.3131C160.136 34.9137 159.379 35.168 158.719 35.0799C158.057 34.9905 157.469 34.6316 156.901 34.2829C157.347 35.3141 157.791 36.3452 158.236 37.3776C156.834 37.637 155.378 37.5413 154.008 37.1435C153.224 40.8552 152.683 47.7171 151.758 50.2365C149.096 50.3145 148.446 50.0325 147.107 50.4933C145.377 51.0889 146.075 54.1534 143.805 53.306C142.648 52.8742 140.833 48.5367 140.434 47.3696C137.79 39.6251 136.848 31.3077 137.678 23.1691C136.051 21.4732 134.093 20.0945 131.947 19.1325L132.123 19.2875C128.005 17.9101 123.35 16.5628 119.48 18.5307C116.479 20.058 114.741 23.2082 112.512 25.7326C108.289 30.5145 103.477 33.0956 97.1034 33.4431C96.5781 37.875 96.4912 45.1146 96.3211 49.2468L92.6991 41.0214L92.6966 41.0541C92.4056 40.5732 92.165 40.0872 91.9319 39.6012L91.8525 39.4538V39.435C91.4821 38.6531 91.1294 37.8699 90.6633 37.0994L90.6242 37.1347C88.4069 39.134 85.0747 36.1538 86.812 33.7264C87.1572 33.2454 87.5717 32.8148 88.0466 32.4598C87.035 33.4305 85.5131 33.9077 84.1677 33.5111C82.8209 33.1145 81.7639 31.7698 81.8647 30.3697C81.934 29.4153 82.6067 28.5541 83.4647 28.1676C81.6581 28.3263 79.8036 27.9536 78.2163 27.0735C77.1769 26.4956 76.1514 25.5374 76.4866 24.2343Z" fill="#17282F"/>
<path d="M133.286 13.7547C133.257 13.7925 133.906 14.1362 134.774 15.0843C135.634 16.0286 136.607 17.6767 137.083 19.9291C137.326 21.0497 137.486 22.3025 137.5 23.6534C137.522 25.0044 137.43 26.4523 137.344 27.9783C137.262 29.5043 137.171 31.1172 137.289 32.7905C137.346 33.6265 137.457 34.4764 137.649 35.325C137.843 36.1585 138.072 37.0637 138.712 37.7751C139.221 38.3555 140.065 38.6061 140.792 38.4474C141.524 38.3102 142.172 37.9123 142.644 37.3734C143.576 36.2617 143.795 34.8616 144.016 33.6277L143.709 33.668C144.224 34.7697 144.754 35.8575 145.529 36.7212C146.292 37.5913 147.342 38.1604 148.403 38.2435C148.932 38.285 149.462 38.1956 149.913 37.9614C150.373 37.731 150.704 37.3445 150.93 36.9378C151.145 36.5223 151.255 36.0691 151.227 35.6334C151.197 35.1991 151.022 34.7873 150.743 34.4978L150.588 34.6388C151.735 35.9142 152.938 36.5928 153.769 36.9668C154.188 37.1544 154.523 37.2652 154.751 37.3357C154.979 37.3999 155.099 37.4263 155.101 37.4175C155.105 37.4087 154.99 37.3634 154.768 37.2803C154.549 37.1934 154.223 37.0662 153.816 36.8648C153.01 36.4644 151.844 35.7669 150.746 34.5015L150.591 34.6413C151.091 35.1587 151.13 36.0766 150.713 36.8195C150.504 37.1871 150.199 37.5308 149.793 37.7272C149.392 37.9299 148.908 38.0093 148.425 37.9665C147.45 37.8809 146.471 37.3458 145.757 36.5186C145.026 35.6926 144.512 34.6337 144.003 33.5308L143.787 33.0624L143.696 33.5723C143.474 34.805 143.24 36.1497 142.39 37.1519C141.966 37.6328 141.373 37.9929 140.732 38.1113C140.089 38.2435 139.409 38.0382 138.964 37.5422C138.405 36.9265 138.169 36.0703 137.981 35.2494C137.794 34.4222 137.684 33.59 137.624 32.7678C137.504 31.1209 137.587 29.5194 137.66 27.9959C137.737 26.47 137.819 25.0158 137.785 23.6472C137.757 22.2798 137.582 21.0094 137.32 19.875C136.806 17.5936 135.779 15.9253 134.873 14.9936C133.958 14.0568 133.286 13.7547 133.286 13.7547Z" fill="#33535F"/>
<path d="M88.0352 28.5444L88.1536 28.6426C88.2544 28.7144 88.3753 28.8 88.524 28.9058C88.6852 29.0241 88.8906 29.1626 89.1501 29.2973C89.4058 29.4396 89.6969 29.6133 90.0484 29.7581C91.419 30.3902 93.6136 31.0084 96.3449 30.8158C99.051 30.6332 102.29 29.6373 105.167 27.4453C108.076 25.3049 110.615 22.1698 112.678 18.5903C113.727 16.8024 114.576 14.9717 115.516 13.2795C116.45 11.5848 117.485 10.0173 118.746 8.77461C119.992 7.52688 121.444 6.59769 122.946 6.16206C123.696 5.92913 124.451 5.86996 125.173 5.87877C125.899 5.90899 126.586 6.0475 127.22 6.2477C128.49 6.65815 129.52 7.34429 130.302 8.0544C131.088 8.77081 131.618 9.5313 131.984 10.1835C132.667 11.5244 132.713 12.3894 132.766 12.3743L132.752 12.2207C132.732 12.0998 132.708 11.9525 132.678 11.7724C132.602 11.3809 132.426 10.8131 132.102 10.1218C131.748 9.44823 131.224 8.66006 130.433 7.91343C129.644 7.17436 128.601 6.45543 127.297 6.01728C126.646 5.80449 125.937 5.65338 125.185 5.61435C124.438 5.59673 123.643 5.65337 122.868 5.88756C121.306 6.32823 119.804 7.27887 118.523 8.55053C117.225 9.81714 116.167 11.4111 115.222 13.1159C114.271 14.8206 113.42 16.6475 112.382 18.419C110.334 21.9721 107.832 25.0707 104.978 27.1922C102.154 29.3641 98.9918 30.36 96.3273 30.574C93.6401 30.7931 91.4745 30.2227 90.1025 29.6348C88.7205 29.0392 88.0616 28.5029 88.0352 28.5444Z" fill="#33535F"/>
<path d="M86.6255 22.1146C86.6141 22.1347 86.8031 22.2619 87.1559 22.4746C87.5061 22.6937 88.0428 22.9632 88.7243 23.249C89.4046 23.5386 90.2474 23.808 91.2024 24.0309C92.1598 24.2348 93.2307 24.3834 94.3633 24.4124C95.4959 24.4287 96.5717 24.3255 97.538 24.1618C98.5005 23.978 99.3534 23.7438 100.046 23.4819C100.739 23.2251 101.286 22.9783 101.644 22.7731C102.007 22.5754 102.201 22.4571 102.189 22.4357C102.16 22.3778 101.354 22.8033 99.9669 23.2515C99.2753 23.4819 98.4312 23.6871 97.4851 23.8496C96.5352 23.9944 95.4795 24.0863 94.3696 24.0699C93.2609 24.0409 92.2115 23.905 91.2679 23.7211C90.3281 23.5197 89.4928 23.2805 88.8125 23.0224C87.4456 22.5162 86.657 22.0579 86.6255 22.1146Z" fill="#33535F"/>
<path d="M113.231 66.1459C113.341 66.0728 113.515 66.7779 114.309 67.1153C114.708 67.2752 115.222 67.2488 115.86 67.1292C116.49 67.0322 117.179 66.9089 117.897 66.754C120.776 66.1471 123 65.2167 123.08 65.3929C123.16 65.5402 121.004 66.7666 118.034 67.3961C117.297 67.5547 116.585 67.663 115.935 67.7285C115.308 67.8166 114.606 67.8141 114.115 67.5359C113.616 67.2689 113.384 66.8572 113.29 66.5928C113.192 66.3196 113.193 66.1584 113.231 66.1459Z" fill="#17282F"/>
<path d="M44.2614 138.989C44.5474 139.419 46.5505 141.848 46.9789 144.278C47.4084 146.708 52.8534 178.286 54.2732 182.671C56.0483 188.152 59.7118 199.317 74.2955 195.13C84.3916 192.23 84.7368 176.867 77.8708 168.434C71.0061 160 59.5644 135.845 58.7065 132.7C57.8486 129.556 49.6963 120.065 40.2577 117.593C30.8179 115.12 26.0987 115.022 22.6657 110.497C19.2339 105.971 14.943 103.685 12.9411 107.116C10.938 110.546 22.6657 120.837 22.6657 120.837L39.1126 136.559L44.2614 138.989Z" fill="#F9A78D"/>
<path d="M12.7108 120.2C12.7108 120.2 5.44671 111.325 0.714844 115.057C0.714844 115.057 6.8577 123.27 8.93262 125.51C11.0075 127.748 16.4021 129.325 16.4021 129.325C16.4021 129.325 21.7979 135.547 24.703 136.376C27.6081 137.205 29.4336 136.376 29.4336 136.376C29.4336 136.376 29.5168 137.786 34.0823 138.449C38.6466 139.114 50.7648 137.869 50.7648 137.869L58.2469 131.604C58.2469 131.604 54.5002 125.344 48.773 125.177C43.0459 125.011 38.8129 129.408 38.8129 129.408L33.8329 129.325L30.7615 125.344C30.7615 125.344 31.3485 114.885 25.1175 116.053C25.1175 116.053 24.8958 112.703 22.2401 112.37C19.5831 112.039 18.8411 114.78 18.8411 114.78C18.8411 114.78 19.3904 110.66 17.1492 109.832C14.9092 109.002 13.8295 109.997 13.1656 111.159C12.5017 112.32 12.7108 120.2 12.7108 120.2Z" fill="#F9A78D"/>
<path d="M30.0153 136.375C29.9447 136.429 29.1284 135.519 27.9303 133.948C27.3344 133.16 26.6377 132.213 25.931 131.106C25.5807 130.588 25.2003 129.879 25.0642 129.16C24.8992 128.445 24.8085 127.706 24.7379 126.949C24.4986 123.923 24.6245 121.195 24.7367 119.226C24.8614 117.257 25.0302 116.046 25.1184 116.052C25.2104 116.058 25.2066 117.276 25.2015 119.241C25.2066 121.204 25.1574 123.926 25.3918 126.891C25.4598 127.63 25.5442 128.349 25.6916 129.015C25.8188 129.699 26.0897 130.214 26.445 130.787C27.1101 131.891 27.764 132.862 28.3082 133.679C29.403 135.31 30.0884 136.318 30.0153 136.375Z" fill="#F57F62"/>
<path d="M18.8464 131.932C18.7872 131.981 18.2001 131.12 17.9268 129.538C17.6257 127.972 17.5312 125.777 17.6433 123.378C17.8839 118.572 18.6637 114.749 18.8401 114.781C19.0203 114.807 18.5365 118.652 18.2997 123.408C18.1875 125.782 18.2102 127.934 18.3853 129.468C18.534 131.011 18.9396 131.879 18.8464 131.932Z" fill="#F57F62"/>
<path d="M16.7932 129.764C16.7302 129.824 15.9743 129.163 14.8845 127.962C14.6137 127.66 14.3214 127.324 14.0216 126.949C13.7318 126.547 13.3879 126.227 13.1536 125.599C12.8323 124.508 12.7353 123.339 12.6383 122.102C12.4733 119.633 12.4896 117.402 12.5337 115.788C12.5841 114.174 12.6799 113.177 12.7706 113.178C12.9684 113.178 12.9974 117.171 13.2922 122.057C13.3854 123.267 13.4761 124.448 13.7293 125.414C13.8402 125.805 14.2055 126.251 14.455 126.62C14.7246 126.979 14.9853 127.325 15.2398 127.664C16.2275 128.928 16.8625 129.701 16.7932 129.764Z" fill="#F57F62"/>
<path d="M38.8147 129.408C38.8147 129.448 38.3486 129.48 37.4932 129.501C36.5131 129.511 35.2936 129.523 33.8309 129.538L33.7339 129.539L33.6671 129.455C32.7361 128.305 31.3327 126.966 30.4105 125.024L30.3815 124.962V124.894C30.3853 123.405 30.4256 121.771 29.9759 120.163C29.7491 119.365 29.3964 118.576 28.8672 117.905C28.3444 117.214 27.6414 116.726 26.7772 116.625C26.2393 116.556 25.6812 116.62 25.147 116.752L24.7653 116.848L24.7401 116.454C24.6909 115.648 24.5221 114.861 24.124 114.234C23.7398 113.599 23.1262 113.165 22.4434 112.933C21.8123 112.687 21.1244 112.878 20.5575 113.235C19.9893 113.593 19.5232 114.097 19.212 114.638L18.7408 115.458L18.6917 114.521C18.6161 113.086 18.5229 111.702 17.7796 110.885C17.0313 110.076 15.9289 109.933 15.1504 110.058C14.3403 110.181 13.7835 110.56 13.466 110.857C13.1473 111.163 13.0288 111.38 12.9948 111.359C12.9772 111.352 13.0439 111.105 13.3425 110.741C13.6398 110.387 14.2143 109.925 15.0911 109.742C15.9352 109.562 17.1736 109.641 18.1109 110.576C19.0382 111.558 19.1326 113.057 19.246 114.487L18.7257 114.37C19.0747 113.735 19.5824 113.166 20.24 112.736C20.8737 112.31 21.7946 112.027 22.645 112.347C23.4299 112.597 24.1996 113.127 24.6683 113.891C25.1508 114.648 25.336 115.542 25.3927 116.417L24.9857 116.119C25.5779 115.97 26.2141 115.892 26.8629 115.975C27.8959 116.078 28.8257 116.744 29.3787 117.504C29.9721 118.263 30.3488 119.132 30.5869 119.993C31.053 121.734 30.9787 123.414 30.951 124.903L30.922 124.775C31.7698 126.652 33.075 127.961 34.0022 129.195L33.8385 129.114C35.2986 129.176 36.5181 129.229 37.497 129.271C38.3511 129.321 38.816 129.368 38.8147 129.408Z" fill="#F57F62"/>
<path d="M51.8817 125.429C51.8426 125.633 49.032 124.724 45.633 125.53C42.2189 126.275 40.081 128.311 39.9575 128.145C39.9033 128.091 40.3518 127.506 41.298 126.794C42.2378 126.081 43.7155 125.298 45.4868 124.89C47.2607 124.49 48.9312 124.558 50.0877 124.792C51.2492 125.025 51.9069 125.358 51.8817 125.429Z" fill="#F57F62"/>
<path d="M229.071 116.525C228.395 116.204 227.597 116.381 226.88 116.593C223.569 117.578 220.486 119.237 217.672 121.237L220.105 129.613C221.048 127.796 225.446 125.426 226.989 124.078C228.531 122.731 230.022 121.062 230.194 119.022C230.276 118.054 229.949 116.942 229.071 116.525Z" fill="#F57F62"/>
<path d="M175.192 188.396C175.192 188.396 173.969 178.298 175.031 169.742C175.723 164.175 180.341 147.711 180.663 142.566C180.985 137.42 181.146 135.007 184.364 132.595C187.582 130.183 187.582 131.308 192.088 128.575C196.593 125.841 197.558 123.911 204.316 123.59C211.075 123.268 216.383 137.741 216.383 137.741C216.383 137.741 216.062 140.797 214.775 141.601C213.487 142.404 211.878 142.566 207.856 142.404C203.833 142.243 199.811 143.209 199.489 145.621C199.167 148.032 199.649 156.877 201.259 162.828C202.868 168.777 201.581 175.692 200.454 181.481C199.328 187.27 197.006 199.908 187.743 200.938C176.867 202.148 175.192 188.396 175.192 188.396Z" fill="#F9A78D"/>
<path d="M191.664 135.05C191.664 135.05 196.662 134.544 197.512 133.566C198.361 132.587 201.13 122.949 202.708 120.75C204.284 118.55 205.347 118.111 207.057 118.469C207.057 118.469 206.828 114.153 210.729 113.529C210.729 113.529 213.165 113.155 213.553 119.003C213.553 119.003 213.135 113.436 217.275 111.534C218.289 111.07 219.507 111.422 220.001 112.421C220.106 112.634 220.19 112.869 220.238 113.128C220.487 114.468 220.82 120.654 220.82 120.654C220.82 120.654 221.274 129.09 221.394 128.723C221.515 128.357 226.594 117.004 227.322 115.905C227.964 114.933 228.512 113.865 230.909 114.044C231.696 114.103 232.373 114.625 232.609 115.377C232.686 115.621 232.475 116.846 232.393 117.18C231.6 120.399 229.445 129.424 228.597 130.89C227.749 132.356 219.976 140.541 216.806 140.805C213.637 141.07 211.806 140.824 211.806 140.824L191.664 135.05Z" fill="#F9A78D"/>
<path d="M202.005 139.286C201.932 139.221 202.74 138.287 203.781 136.615C204.289 135.775 204.874 134.752 205.288 133.542C205.507 132.938 205.64 132.293 205.713 131.606C205.766 130.888 205.822 130.153 205.879 129.399C206.114 126.373 206.364 123.639 206.578 121.661C206.791 119.684 206.968 118.463 207.059 118.469C207.148 118.475 207.135 119.708 207.04 121.697C206.944 123.685 206.767 126.431 206.531 129.46C206.471 130.216 206.41 130.952 206.352 131.67C206.267 132.404 206.104 133.117 205.857 133.745C205.386 135.015 204.738 136.042 204.168 136.869C203.004 138.513 202.064 139.344 202.005 139.286Z" fill="#F57F62"/>
<path d="M213.508 118.445C213.599 118.444 213.704 119.654 213.8 121.609C213.897 123.566 213.985 126.269 214.042 129.256C214.053 130.001 214.066 130.727 214.077 131.435C214.067 132.124 214.152 132.829 213.988 133.534C213.657 134.867 213.039 135.887 212.528 136.732C211.47 138.405 210.638 139.304 210.573 139.254C210.493 139.196 211.191 138.2 212.127 136.499C212.578 135.649 213.135 134.607 213.396 133.411C213.522 132.845 213.437 132.174 213.435 131.459C213.418 130.75 213.403 130.022 213.386 129.277C213.329 126.287 213.315 123.58 213.337 121.619C213.359 119.659 213.417 118.447 213.508 118.445Z" fill="#F57F62"/>
<path d="M221.258 127.921C221.337 127.882 221.674 128.47 221.7 129.516C221.708 130.041 221.658 130.648 221.418 131.329C221.17 131.975 220.821 132.62 220.43 133.28C218.848 135.906 217.257 137.801 217.118 137.701C216.961 137.592 218.311 135.527 219.866 132.946C220.247 132.301 220.603 131.677 220.856 131.105C221.086 130.555 221.191 129.967 221.236 129.501C221.327 128.545 221.171 127.951 221.258 127.921Z" fill="#F57F62"/>
<path d="M186.82 134.994C186.824 134.711 191.649 135.547 197.146 133.344L197.407 133.256L197.208 133.448C198.234 130.77 199.192 128.371 199.914 126.648C200.635 124.926 201.122 123.881 201.205 123.913C201.288 123.945 200.953 125.047 200.342 126.812C199.731 128.576 198.843 131.002 197.821 133.683L197.766 133.826L197.622 133.875L197.354 133.966C195.953 134.429 194.603 134.817 193.342 135.08C192.078 135.362 190.887 135.381 189.928 135.355C187.992 135.289 186.813 135.078 186.82 134.994Z" fill="#F57F62"/>
</svg>
