<svg width="21" height="17" viewBox="0 0 21 17" fill="none" xmlns="http://www.w3.org/2000/svg">
<path d="M18.3088 4.91892C18.3218 5.09392 18.3218 5.26792 18.3218 5.44192C18.3218 10.7669 14.2688 16.9029 6.86178 16.9029C4.57978 16.9029 2.45978 16.2419 0.675781 15.0939C0.999781 15.1309 1.31178 15.1439 1.64878 15.1439C3.46177 15.1483 5.22343 14.5421 6.64978 13.4229C5.8092 13.4077 4.99436 13.1304 4.31902 12.6297C3.64368 12.1289 3.14157 11.4298 2.88278 10.6299C3.13178 10.6669 3.38178 10.6919 3.64378 10.6919C4.00478 10.6919 4.36778 10.6419 4.70478 10.5549C3.79254 10.3707 2.97225 9.87627 2.3834 9.1556C1.79454 8.43494 1.47347 7.53257 1.47478 6.60192V6.55192C2.01178 6.85092 2.63478 7.03792 3.29478 7.06292C2.74187 6.6955 2.2885 6.19694 1.97512 5.61171C1.66174 5.02648 1.49809 4.37277 1.49878 3.70892C1.49878 2.96092 1.69778 2.27492 2.04678 1.67692C3.05892 2.92194 4.32128 3.94048 5.75212 4.66658C7.18295 5.39267 8.75034 5.81013 10.3528 5.89192C10.2908 5.59192 10.2528 5.28092 10.2528 4.96892C10.2525 4.43988 10.3565 3.91598 10.5589 3.42716C10.7612 2.93834 11.0579 2.49419 11.432 2.12011C11.8061 1.74602 12.2502 1.44933 12.739 1.247C13.2278 1.04466 13.7517 0.940656 14.2808 0.940918C15.4408 0.940918 16.4878 1.42692 17.2238 2.21292C18.1256 2.03854 18.9903 1.70934 19.7798 1.23992C19.4792 2.17073 18.8495 2.96002 18.0088 3.45992C18.8086 3.3687 19.5902 3.15837 20.3278 2.83592C19.7769 3.63902 19.0943 4.34326 18.3088 4.91892V4.91892Z" fill="white"/>
</svg>
