<svg width="17" height="17" viewBox="0 0 17 17" fill="none" xmlns="http://www.w3.org/2000/svg">
<path d="M8.61327 2.36286C10.7494 2.36286 11.0024 2.37099 11.8459 2.40948C12.6259 2.44507 13.0495 2.5754 13.3315 2.68493C13.7048 2.83005 13.9714 3.00344 14.2513 3.28337C14.5312 3.5633 14.7046 3.82983 14.8497 4.20322C14.9593 4.48515 15.0896 4.90874 15.1252 5.6887C15.1637 6.5323 15.1718 6.7853 15.1718 8.9214C15.1718 11.0575 15.1637 11.3105 15.1252 12.1541C15.0896 12.9341 14.9593 13.3577 14.8497 13.6396C14.7046 14.013 14.5312 14.2795 14.2513 14.5594C13.9714 14.8394 13.7048 15.0128 13.3315 15.1578C13.0495 15.2674 12.6259 15.3977 11.8459 15.4333C11.0025 15.4718 10.7495 15.4799 8.61327 15.4799C6.47704 15.4799 6.22404 15.4718 5.38059 15.4333C4.6006 15.3977 4.17701 15.2674 3.89511 15.1578C3.52169 15.0128 3.25516 14.8394 2.97523 14.5594C2.6953 14.2795 2.52192 14.013 2.37682 13.6396C2.26726 13.3577 2.13694 12.9341 2.10134 12.1541C2.06285 11.3105 2.05472 11.0575 2.05472 8.9214C2.05472 6.7853 2.06285 6.5323 2.10134 5.68873C2.13694 4.90874 2.26726 4.48515 2.37682 4.20322C2.52192 3.82983 2.6953 3.5633 2.97523 3.28337C3.25516 3.00344 3.52169 2.83005 3.89511 2.68493C4.17701 2.5754 4.6006 2.44507 5.38056 2.40948C6.22416 2.37099 6.47716 2.36286 8.61327 2.36286ZM8.61327 0.921387C6.44058 0.921387 6.16818 0.930596 5.31489 0.969529C4.46335 1.0084 3.88184 1.14362 3.37295 1.34139C2.84687 1.54584 2.40073 1.81938 1.95599 2.26413C1.51125 2.70887 1.2377 3.15501 1.03326 3.68108C0.835478 4.18997 0.700261 4.77149 0.661392 5.62303C0.622459 6.47628 0.613281 6.74872 0.613281 8.9214C0.613281 11.0941 0.622459 11.3665 0.661392 12.2198C0.700261 13.0713 0.835478 13.6528 1.03326 14.1617C1.2377 14.6878 1.51125 15.1339 1.95599 15.5787C2.40073 16.0234 2.84687 16.297 3.37295 16.5014C3.88184 16.6992 4.46335 16.8344 5.31489 16.8733C6.16818 16.9122 6.44058 16.9214 8.61327 16.9214C10.786 16.9214 11.0584 16.9122 11.9116 16.8733C12.7632 16.8344 13.3447 16.6992 13.8536 16.5014C14.3797 16.297 14.8258 16.0234 15.2705 15.5787C15.7153 15.1339 15.9888 14.6878 16.1933 14.1617C16.3911 13.6528 16.5263 13.0713 16.5651 12.2198C16.6041 11.3665 16.6133 11.0941 16.6133 8.9214C16.6133 6.74872 16.6041 6.47628 16.5651 5.62303C16.5263 4.77149 16.3911 4.18997 16.1933 3.68108C15.9888 3.15501 15.7153 2.70887 15.2705 2.26413C14.8258 1.81938 14.3797 1.54584 13.8536 1.34139C13.3447 1.14362 12.7632 1.0084 11.9116 0.969529C11.0584 0.930596 10.786 0.921387 8.61327 0.921387ZM8.61327 4.81328C6.34442 4.81328 4.50514 6.65256 4.50514 8.9214C4.50514 11.1902 6.34442 13.0295 8.61327 13.0295C10.8821 13.0295 12.7214 11.1902 12.7214 8.9214C12.7214 6.65256 10.8821 4.81328 8.61327 4.81328ZM8.61327 11.5881C7.14052 11.5881 5.94658 10.3942 5.94658 8.9214C5.94658 7.44865 7.14052 6.25472 8.61327 6.25472C10.086 6.25472 11.2799 7.44865 11.2799 8.9214C11.2799 10.3942 10.086 11.5881 8.61327 11.5881ZM13.8437 4.65098C13.8437 5.18117 13.4139 5.61099 12.8837 5.61099C12.3535 5.61099 11.9237 5.18117 11.9237 4.65098C11.9237 4.12078 12.3535 3.69099 12.8837 3.69099C13.4139 3.69099 13.8437 4.12078 13.8437 4.65098Z" fill="white"/>
</svg>
