<svg width="17" height="17" viewBox="0 0 17 17" fill="none" xmlns="http://www.w3.org/2000/svg">
<path d="M15.783 0.921387H1.56076C1.32502 0.921387 1.09892 1.01504 0.932224 1.18174C0.765525 1.34844 0.671875 1.57453 0.671875 1.81028V16.0325C0.671875 16.2682 0.765525 16.4943 0.932224 16.661C1.09892 16.8277 1.32502 16.9214 1.56076 16.9214H15.783C16.0187 16.9214 16.2448 16.8277 16.4115 16.661C16.5782 16.4943 16.6719 16.2682 16.6719 16.0325V1.81028C16.6719 1.57453 16.5782 1.34844 16.4115 1.18174C16.2448 1.01504 16.0187 0.921387 15.783 0.921387V0.921387ZM5.41765 14.5543H3.04254V6.91872H5.41765V14.5543ZM4.2301 5.87605C3.86516 5.87605 3.51517 5.73108 3.25712 5.47303C2.99907 5.21498 2.8541 4.86499 2.8541 4.50005C2.8541 4.13512 2.99907 3.78512 3.25712 3.52707C3.51517 3.26902 3.86516 3.12405 4.2301 3.12405C4.59503 3.12405 4.94503 3.26902 5.20308 3.52707C5.46113 3.78512 5.6061 4.13512 5.6061 4.50005C5.6061 4.86499 5.46113 5.21498 5.20308 5.47303C4.94503 5.73108 4.59503 5.87605 4.2301 5.87605V5.87605ZM14.3057 14.5543H11.9332V10.8414C11.9332 9.95605 11.9172 8.81739 10.6994 8.81739C9.46388 8.81739 9.27632 9.78272 9.27632 10.7792V14.5552H6.90565V6.91961H9.18121V7.96316H9.2141C9.52965 7.36316 10.3048 6.73028 11.4577 6.73028C13.8612 6.73028 14.3048 8.31072 14.3048 10.3676V14.5543H14.3057Z" fill="white"/>
</svg>
