<svg xmlns="http://www.w3.org/2000/svg" width="90" height="90" viewBox="0 0 90 90"><defs><style>.a{fill:#fafafa;}.b{fill:#05b384;}</style></defs><g transform="translate(-141 -697)"><path class="a" d="M45,0A45,45,0,1,1,0,45,45,45,0,0,1,45,0Z" transform="translate(141 697)"/><g transform="translate(161.002 716.998)"><path class="b" d="M154.348,150.371a1.491,1.491,0,0,0-2.108,0l-8.253,8.253-2.289-2.289a1.491,1.491,0,0,0-2.108,0l-4.217,4.217a1.491,1.491,0,0,0,0,2.108l7.561,7.561a1.491,1.491,0,0,0,2.108,0L158.565,156.7a1.491,1.491,0,0,0,0-2.108Zm-10.362,16.687-5.452-5.452,2.108-2.108,2.289,2.289a1.491,1.491,0,0,0,2.108,0l8.253-8.253,2.108,2.108Z" transform="translate(-121.526 -135.031)"/><path class="b" d="M48.227,20.911a20.054,20.054,0,0,0,.745-4.546,1.491,1.491,0,0,0-.47-1.135,20.056,20.056,0,0,0-3.744-2.689,20.055,20.055,0,0,0-1.052-4.488,1.49,1.49,0,0,0-.869-.869,20.054,20.054,0,0,0-4.488-1.052,20.055,20.055,0,0,0-2.689-3.744,1.488,1.488,0,0,0-1.135-.47,20.051,20.051,0,0,0-4.546.745A22.5,22.5,0,0,0,26.1.155a1.491,1.491,0,0,0-1.319,0,22.5,22.5,0,0,0-3.875,2.507,20.057,20.057,0,0,0-4.546-.745,1.49,1.49,0,0,0-1.135.47,20.054,20.054,0,0,0-2.689,3.744A20.054,20.054,0,0,0,8.049,7.183a1.491,1.491,0,0,0-.869.869A20.049,20.049,0,0,0,6.128,12.54a20.056,20.056,0,0,0-3.744,2.689,1.491,1.491,0,0,0-.47,1.135,20.051,20.051,0,0,0,.745,4.546A22.5,22.5,0,0,0,.152,24.786a1.491,1.491,0,0,0,0,1.319,22.483,22.483,0,0,0,2.507,3.876,20.062,20.062,0,0,0-.745,4.546,1.491,1.491,0,0,0,.47,1.136,20.061,20.061,0,0,0,3.744,2.689A20.055,20.055,0,0,0,7.18,42.84a1.491,1.491,0,0,0,.869.869,20.063,20.063,0,0,0,4.488,1.052A20.049,20.049,0,0,0,15.226,48.5a1.492,1.492,0,0,0,1.135.47,20.06,20.06,0,0,0,4.546-.745,22.507,22.507,0,0,0,3.876,2.507,1.491,1.491,0,0,0,1.319,0,22.507,22.507,0,0,0,3.876-2.507,20.061,20.061,0,0,0,4.546.745,1.5,1.5,0,0,0,1.135-.47,20.043,20.043,0,0,0,2.69-3.744,20.063,20.063,0,0,0,4.488-1.052,1.491,1.491,0,0,0,.869-.869,20.049,20.049,0,0,0,1.052-4.488A20.061,20.061,0,0,0,48.5,35.662a1.491,1.491,0,0,0,.47-1.136,20.062,20.062,0,0,0-.745-4.546A22.484,22.484,0,0,0,50.734,26.1a1.491,1.491,0,0,0,0-1.319,22.47,22.47,0,0,0-2.507-3.875ZM45.147,30.17a15.277,15.277,0,0,1,.8,3.768,15.194,15.194,0,0,1-3.227,2.1,1.491,1.491,0,0,0-.877,1.313,15.273,15.273,0,0,1-.706,3.786,15.19,15.19,0,0,1-3.785.7,1.491,1.491,0,0,0-1.313.877,15.27,15.27,0,0,1-2.1,3.227,15.28,15.28,0,0,1-3.767-.8,1.491,1.491,0,0,0-1.549.308,17.283,17.283,0,0,1-3.176,2.251,17.208,17.208,0,0,1-3.175-2.251,1.491,1.491,0,0,0-1.549-.308,15.279,15.279,0,0,1-3.767.8,15.271,15.271,0,0,1-2.1-3.227,1.491,1.491,0,0,0-1.313-.877,15.273,15.273,0,0,1-3.785-.706,15.275,15.275,0,0,1-.706-3.785,1.491,1.491,0,0,0-.877-1.313,15.277,15.277,0,0,1-3.227-2.1,15.274,15.274,0,0,1,.8-3.767,1.491,1.491,0,0,0-.308-1.549A17.284,17.284,0,0,1,3.18,25.445,17.2,17.2,0,0,1,5.431,22.27a1.491,1.491,0,0,0,.308-1.549,15.273,15.273,0,0,1-.8-3.767,15.282,15.282,0,0,1,3.227-2.1,1.491,1.491,0,0,0,.877-1.313,15.272,15.272,0,0,1,.706-3.786,15.183,15.183,0,0,1,3.785-.7,1.491,1.491,0,0,0,1.313-.877,15.276,15.276,0,0,1,2.1-3.227,15.275,15.275,0,0,1,3.767.8,1.491,1.491,0,0,0,1.549-.308,17.285,17.285,0,0,1,3.176-2.251,17.206,17.206,0,0,1,3.175,2.251,1.491,1.491,0,0,0,1.549.308,15.275,15.275,0,0,1,3.768-.8,15.182,15.182,0,0,1,2.1,3.227,1.491,1.491,0,0,0,1.313.877,15.279,15.279,0,0,1,3.786.706,15.187,15.187,0,0,1,.7,3.785,1.491,1.491,0,0,0,.877,1.313,15.283,15.283,0,0,1,3.227,2.1,15.272,15.272,0,0,1-.8,3.767,1.491,1.491,0,0,0,.308,1.549,17.291,17.291,0,0,1,2.251,3.176,17.192,17.192,0,0,1-2.251,3.174A1.491,1.491,0,0,0,45.147,30.17Z" transform="translate(0 0)"/></g></g></svg>