<svg width="500" height="500" viewBox="0 0 500 500" fill="none" xmlns="http://www.w3.org/2000/svg">
<path d="M146.471 39.5898H57.9609V186.11H146.471V39.5898Z" fill="#E0E0E0"/>
<path d="M143.53 39.5898H55.0195V186.11H143.53V39.5898Z" fill="#EBEBEB"/>
<path d="M139.769 42.5605H58.7891V183.131H139.769V42.5605Z" fill="#FAFAFA"/>
<path d="M124.001 60.8301H74.2109V164.87H124.001V60.8301Z" fill="#EBEBEB"/>
<path d="M74.2083 128.05C74.0883 118.33 82.8282 108.84 92.4482 107.49C97.0382 106.84 101.918 107.75 106.208 105.99C113.858 102.85 116.298 92.6799 123.998 89.6699L124.348 164.87H74.2083V128.05Z" fill="#E0E0E0"/>
<path d="M344.199 459.751C342.439 458.241 338.499 453.451 341.539 447.871C342.649 445.871 345.019 444.811 347.149 443.871C349.279 442.931 351.539 442.191 353.309 440.681C356.649 437.841 357.569 433.131 359.789 429.341C362.329 424.991 367.079 421.731 372.099 421.961C377.839 422.221 382.629 426.911 384.799 432.261C386.969 437.611 387.049 443.551 387.099 449.331C387.099 452.521 386.979 456.121 384.629 458.281C382.469 460.281 379.219 460.281 376.279 460.201L344.889 459.201" fill="#F5F5F5"/>
<path d="M404.251 373.43H321.691L336.561 462.1C336.868 463.949 337.694 465.673 338.942 467.071C340.19 468.47 341.809 469.485 343.611 470L343.901 470.08C344.141 470.14 344.381 470.22 344.631 470.27C345.185 470.378 345.747 470.442 346.311 470.46V470.55L346.711 470.48H383.511C384.183 470.478 384.853 470.411 385.511 470.28C387.66 469.947 389.64 468.918 391.148 467.352C392.656 465.786 393.609 463.769 393.861 461.61L401.031 400.51L401.351 398.08L404.181 373.89L404.251 373.43ZM388.671 430H380.201L381.061 404.27H390.871L388.671 430ZM391.671 404.27H399.791L396.791 430H389.501L391.671 404.27ZM367.471 458.53L367.001 436.16H379.211L378.461 458.52L367.471 458.53ZM354.301 436.16H366.151L366.671 458.52H356.001L354.301 436.16ZM355.221 458.52H345.281C344.331 452.52 343.101 444.64 341.771 436.16H353.481L355.221 458.52ZM353.821 430L351.821 404.27H365.421L366.001 430H353.821ZM366.821 430L366.231 404.27H380.231L379.381 430H366.821ZM366.091 398.09L365.541 374.26H381.221L380.431 398.09H366.091ZM365.271 398.09H351.341L349.491 374.26H364.731L365.271 398.09ZM350.511 398.09H335.771C335.251 394.8 334.771 391.69 334.311 388.88C332.771 379.25 332.191 375.62 331.871 374.26H348.671L350.511 398.09ZM350.991 404.27L353.001 430H340.801C340.391 427.39 339.981 424.75 339.561 422.11C338.611 416.03 337.651 409.96 336.751 404.27H350.991ZM340.001 430H332.001L327.681 404.27H335.911C337.181 412.21 338.571 421.06 340.001 430ZM341.001 436.17C342.221 443.91 343.411 451.54 344.511 458.53H336.851L333.001 436.16L341.001 436.17ZM379.311 458.53L380.061 436.17H388.211L386.301 458.53H379.311ZM381.311 398.09L382.101 374.26H393.491L391.491 398.09H381.311ZM331.141 374.26C331.471 375.98 332.971 385.36 334.991 398.09H326.701L322.701 374.26H331.141ZM393.491 458.53H387.111L389.001 436.16H396.091L393.491 458.53ZM400.581 398.09H392.271L394.271 374.26H403.341L400.581 398.09Z" fill="#E0E0E0"/>
<path d="M451.238 471.41C451.238 471.56 355.308 471.67 236.998 471.67C118.688 471.67 22.7383 471.56 22.7383 471.41C22.7383 471.26 118.648 471.15 236.998 471.15C355.348 471.15 451.238 471.27 451.238 471.41Z" fill="#263238"/>
<path d="M336.509 363.08L222.999 363C216.444 362.995 210.159 360.387 205.525 355.75C200.892 351.113 198.289 344.825 198.289 338.27V53.7101C198.292 50.4583 198.936 47.2389 200.184 44.2363C201.432 41.2336 203.261 38.5067 205.564 36.2115C207.868 33.9163 210.601 32.0979 213.608 30.8605C216.616 29.6231 219.837 28.9909 223.089 29.0001L336.599 29.0701C343.154 29.0754 349.439 31.6832 354.073 36.3204C358.706 40.9576 361.309 47.2448 361.309 53.8001L361.249 338.35C361.25 341.599 360.611 344.816 359.368 347.818C358.125 350.819 356.303 353.547 354.005 355.843C351.707 358.14 348.98 359.961 345.977 361.203C342.975 362.445 339.758 363.083 336.509 363.08Z" fill="#455A64"/>
<path d="M336.48 39.1392H314.48C313.763 39.1547 313.056 39.3115 312.399 39.6003C311.743 39.8892 311.15 40.3046 310.654 40.8228C310.158 41.341 309.769 41.9518 309.509 42.6204C309.249 43.2889 309.124 44.0021 309.14 44.7192V48.7192C309.156 49.4362 309.03 50.1494 308.771 50.8179C308.511 51.4865 308.122 52.0973 307.626 52.6155C307.13 53.1337 306.537 53.5491 305.88 53.838C305.224 54.1269 304.517 54.2836 303.8 54.2992H260.9C259.451 54.2651 258.074 53.6572 257.073 52.6091C256.072 51.561 255.528 50.1583 255.56 48.7092V44.7092C255.592 43.26 255.048 41.8573 254.047 40.8092C253.045 39.7611 251.669 39.1532 250.22 39.1192H223.22C220.945 39.1165 218.692 39.5623 216.589 40.4311C214.487 41.2998 212.576 42.5744 210.967 44.1821C209.357 45.7897 208.081 47.6988 207.209 49.8003C206.338 51.9017 205.89 54.1543 205.89 56.4292L205.84 334.179C205.84 338.769 207.662 343.172 210.906 346.419C214.149 349.667 218.55 351.494 223.14 351.499L336.42 351.559C338.695 351.562 340.948 351.116 343.05 350.247C345.153 349.379 347.063 348.104 348.673 346.496C350.282 344.889 351.559 342.979 352.43 340.878C353.301 338.777 353.75 336.524 353.75 334.249V56.4992C353.76 51.9073 351.947 47.4992 348.709 44.2439C345.47 40.9885 341.072 39.1524 336.48 39.1392Z" fill="#FAFAFA"/>
<path d="M316.799 48.1504H315.539V49.9104H316.799V48.1504Z" fill="#263238"/>
<path d="M318.85 47.3691H317.59V49.9191H318.85V47.3691Z" fill="#263238"/>
<path d="M320.889 46.7793H319.629V49.9193H320.889V46.7793Z" fill="#263238"/>
<path d="M322.94 45.6406H321.68V49.9206H322.94V45.6406Z" fill="#263238"/>
<path d="M341.508 50.0007H335.198C335.078 50.0007 334.962 49.9536 334.876 49.8695C334.791 49.7854 334.741 49.6709 334.738 49.5507V46.4107C334.738 46.2913 334.786 46.1768 334.87 46.0925C334.954 46.0081 335.069 45.9607 335.188 45.9607H341.508C341.534 45.9506 341.563 45.9506 341.588 45.9607C341.597 45.99 341.597 46.0213 341.588 46.0507V47.0507H342.268C342.3 47.0507 342.331 47.0633 342.353 47.0858C342.376 47.1083 342.388 47.1388 342.388 47.1707V48.6807C342.386 48.7107 342.372 48.7387 342.35 48.7591C342.328 48.7795 342.298 48.7908 342.268 48.7907H341.588V49.7907C341.616 49.8013 341.639 49.8225 341.651 49.8497C341.663 49.8769 341.664 49.9078 341.653 49.9357C341.643 49.9635 341.621 49.986 341.594 49.9982C341.567 50.0104 341.536 50.0113 341.508 50.0007ZM341.388 46.1907H335.188C335.159 46.1907 335.131 46.1963 335.104 46.2074C335.077 46.2185 335.053 46.2347 335.033 46.2551C335.012 46.2755 334.996 46.2998 334.985 46.3265C334.974 46.3532 334.968 46.3818 334.968 46.4107V49.5507C334.968 49.5804 334.974 49.6099 334.986 49.6372C334.998 49.6646 335.015 49.6893 335.036 49.7099C335.058 49.7304 335.083 49.7464 335.111 49.7569C335.139 49.7673 335.169 49.772 335.198 49.7707H341.388V48.7707C341.388 48.7388 341.401 48.7083 341.423 48.6858C341.446 48.6633 341.476 48.6507 341.508 48.6507H342.178V47.3407H341.508C341.493 47.342 341.478 47.3402 341.463 47.3353C341.449 47.3304 341.435 47.3226 341.424 47.3122C341.413 47.3018 341.404 47.2892 341.398 47.2752C341.391 47.2612 341.388 47.246 341.388 47.2307V46.1907Z" fill="#263238"/>
<path d="M335.488 49.2609V46.7109H340.878V47.8609V48.1109V49.2609H335.488Z" fill="#263238"/>
<path d="M328.998 49.7608C328.996 49.6396 328.946 49.5241 328.861 49.4383C328.775 49.3526 328.659 49.3033 328.538 49.3008C328.416 49.3008 328.299 49.3492 328.213 49.4355C328.127 49.5218 328.078 49.6388 328.078 49.7608C328.077 49.8216 328.088 49.882 328.11 49.9384C328.133 49.9948 328.167 50.0461 328.21 50.0891C328.253 50.1321 328.304 50.1659 328.361 50.1885C328.417 50.2112 328.477 50.2221 328.538 50.2208C328.66 50.2208 328.777 50.1723 328.864 50.0861C328.95 49.9998 328.998 49.8828 328.998 49.7608Z" fill="#263238"/>
<path d="M326.918 48.6502L327.508 49.2402C327.638 49.1059 327.793 48.9991 327.965 48.9262C328.137 48.8532 328.321 48.8157 328.508 48.8157C328.695 48.8157 328.879 48.8532 329.051 48.9262C329.223 48.9991 329.378 49.1059 329.508 49.2402L330.098 48.6502C329.888 48.4405 329.639 48.2749 329.364 48.1632C329.089 48.0516 328.795 47.9962 328.498 48.0002C327.906 48.0007 327.339 48.2342 326.918 48.6502Z" fill="#263238"/>
<path d="M328.5 46.6799C327.567 46.6688 326.668 47.0285 326 47.6799L326.58 48.2699C327.089 47.7649 327.778 47.4816 328.495 47.4816C329.212 47.4816 329.901 47.7649 330.41 48.2699L331 47.6799C330.331 47.0303 329.433 46.671 328.5 46.6799Z" fill="#263238"/>
<path d="M325 46.7604L325.59 47.3504C326.351 46.5896 327.384 46.1621 328.46 46.1621C329.536 46.1621 330.569 46.5896 331.33 47.3504L331.92 46.7604C331.001 45.8445 329.757 45.3301 328.46 45.3301C327.163 45.3301 325.919 45.8445 325 46.7604Z" fill="#263238"/>
<path d="M287.379 73.6992H279.759C279.234 73.6992 278.809 74.1246 278.809 74.6492V79.8192C278.809 80.3439 279.234 80.7692 279.759 80.7692H287.379C287.903 80.7692 288.329 80.3439 288.329 79.8192V74.6492C288.329 74.1246 287.903 73.6992 287.379 73.6992Z" fill="#263238"/>
<path d="M280.907 74.1597H279.907V72.9997C279.881 72.5036 279.957 72.0075 280.129 71.5414C280.301 71.0754 280.566 70.6493 280.908 70.289C281.25 69.9286 281.661 69.6417 282.118 69.4456C282.574 69.2496 283.066 69.1484 283.562 69.1484C284.059 69.1484 284.551 69.2496 285.007 69.4456C285.463 69.6417 285.875 69.9286 286.217 70.289C286.559 70.6493 286.824 71.0754 286.996 71.5414C287.168 72.0075 287.243 72.5036 287.217 72.9997V73.7597H286.217V72.9997C286.24 72.6373 286.187 72.2742 286.064 71.9328C285.941 71.5913 285.749 71.2788 285.5 71.0143C285.251 70.7499 284.951 70.5391 284.618 70.395C284.285 70.251 283.925 70.1767 283.562 70.1767C283.199 70.1767 282.84 70.251 282.507 70.395C282.174 70.5391 281.873 70.7499 281.625 71.0143C281.376 71.2788 281.184 71.5913 281.061 71.9328C280.937 72.2742 280.885 72.6373 280.907 72.9997V74.1597Z" fill="#263238"/>
<path d="M207 248.889C207.098 239.899 209.571 231.093 214.168 223.366C218.766 215.639 225.325 209.265 233.18 204.889C244.18 198.889 257 197.329 269.23 194.519C281.46 191.709 294.14 187.069 301.7 177.059C311.92 163.529 309.97 144.299 317.35 129.059C320.781 122.179 325.987 116.338 332.43 112.142C338.873 107.946 346.319 105.546 354 105.189V337.699C354 341.447 352.511 345.041 349.861 347.691C347.212 350.341 343.618 351.829 339.87 351.829H221.15C219.293 351.831 217.454 351.466 215.738 350.757C214.022 350.048 212.463 349.007 211.149 347.695C209.835 346.383 208.792 344.825 208.08 343.11C207.368 341.395 207.001 339.556 207 337.699V248.889Z" fill="#EBEBEB"/>
<path d="M232 127.789C232 119.169 236.52 114.029 242.79 114.029C249.06 114.029 253.61 119.169 253.61 127.789C253.61 136.409 249.05 141.559 242.79 141.559C236.53 141.559 232 136.409 232 127.789ZM250.75 127.789C250.75 120.559 247.5 116.579 242.75 116.579C238 116.579 234.75 120.579 234.75 127.789C234.75 134.999 238 139.009 242.75 139.009C247.5 139.009 250.77 134.999 250.77 127.789H250.75Z" fill="#263238"/>
<path d="M277.141 127.559C277.141 136.759 272.141 141.559 264.771 141.559C262.538 141.655 260.32 141.147 258.351 140.089L259.471 137.849C261.065 138.771 262.892 139.211 264.731 139.119C270.571 139.119 274.321 135.369 274.321 128.019C274.321 127.409 274.321 126.629 274.201 125.819C272.851 128.819 269.681 130.459 265.931 130.459C260.551 130.459 256.801 127.289 256.801 122.339C256.801 117.389 260.801 114.029 266.041 114.029C273.231 113.999 277.141 118.999 277.141 127.559ZM273.311 122.189C273.311 119.189 270.841 116.389 266.161 116.389C262.251 116.389 259.551 118.669 259.551 122.259C259.551 125.849 262.181 128.099 266.351 128.099C270.521 128.099 273.311 125.549 273.311 122.189Z" fill="#263238"/>
<path d="M281.197 122.921C281.185 122.646 281.229 122.372 281.327 122.116C281.425 121.859 281.575 121.626 281.767 121.43C281.96 121.234 282.19 121.079 282.445 120.976C282.7 120.873 282.973 120.824 283.247 120.831C283.522 120.829 283.794 120.883 284.047 120.987C284.301 121.092 284.531 121.246 284.725 121.441C284.918 121.635 285.071 121.866 285.175 122.12C285.278 122.374 285.33 122.646 285.327 122.921C285.333 123.479 285.117 124.016 284.727 124.415C284.337 124.814 283.805 125.043 283.247 125.051C282.972 125.047 282.701 124.989 282.449 124.879C282.197 124.77 281.969 124.611 281.778 124.413C281.587 124.215 281.438 123.981 281.338 123.725C281.239 123.469 281.191 123.196 281.197 122.921ZM281.197 139.391C281.185 139.116 281.229 138.842 281.327 138.586C281.425 138.329 281.575 138.096 281.767 137.9C281.96 137.704 282.19 137.549 282.445 137.446C282.7 137.343 282.973 137.294 283.247 137.301C283.522 137.299 283.794 137.353 284.047 137.457C284.301 137.562 284.531 137.716 284.725 137.911C284.918 138.105 285.071 138.336 285.175 138.59C285.278 138.844 285.33 139.116 285.327 139.391C285.333 139.949 285.117 140.486 284.727 140.885C284.337 141.284 283.805 141.513 283.247 141.521C282.972 141.517 282.701 141.459 282.449 141.349C282.197 141.24 281.969 141.081 281.778 140.883C281.587 140.685 281.438 140.451 281.338 140.195C281.239 139.939 281.191 139.666 281.197 139.391Z" fill="#263238"/>
<path d="M307.84 138.85V141.33H288.84V139.33L300.09 128.33C303.15 125.33 303.73 123.5 303.73 121.64C303.73 118.51 301.52 116.58 297.39 116.58C296.012 116.493 294.632 116.718 293.353 117.237C292.074 117.757 290.928 118.557 290 119.58L288 117.87C290.09 115.4 293.45 114.01 297.59 114.01C303.08 114.01 306.59 116.79 306.59 121.31C306.59 123.91 305.78 126.23 302.14 129.78L292.94 138.78L307.84 138.85Z" fill="#263238"/>
<path d="M311.16 127.789C311.16 119.169 315.68 114.029 321.95 114.029C328.22 114.029 332.77 119.169 332.77 127.789C332.77 136.409 328.21 141.559 321.95 141.559C315.69 141.559 311.16 136.409 311.16 127.789ZM329.91 127.789C329.91 120.559 326.66 116.579 321.91 116.579C317.16 116.579 313.91 120.579 313.91 127.789C313.91 134.999 317.23 138.999 322 138.999C326.77 138.999 329.91 134.999 329.91 127.789Z" fill="#263238"/>
<path d="M252.712 93.4207C254.98 82.87 248.265 72.4786 237.714 70.211C227.163 67.9433 216.772 74.6581 214.504 85.2088C212.237 95.7595 218.951 106.151 229.502 108.418C240.053 110.686 250.444 103.971 252.712 93.4207Z" fill="#E0E0E0"/>
<path d="M127.651 244.76C126.241 243.76 124.501 243.34 122.931 242.6C121.361 241.86 119.841 240.6 119.691 238.84C119.481 236.28 122.301 234.35 122.471 231.84C122.701 228.23 117.821 226.26 117.111 222.72C116.521 219.78 119.011 217.01 118.911 214.01C118.811 211.01 116.211 208.78 115.031 206.01C112.271 199.63 117.351 191.4 113.501 185.61C112.333 184.154 111.027 182.814 109.601 181.61C108.281 180.29 107.131 178.61 107.291 176.7L100.071 173.42C97.6506 169.72 92.1606 169.58 88.0706 171.16C83.9806 172.74 80.3206 175.57 76.0706 176.63C73.9906 177.14 74.2906 174.06 72.1906 174.49C69.4206 175.05 66.0306 178.28 65.1906 180.96C64.3506 183.83 63.7606 187.01 62.7406 189.83C61.6106 192.94 58.2806 195.11 57.9606 198.41C57.6006 202.25 61.5706 205.41 61.5806 209.25C61.5806 213.4 57.0006 217.12 58.4606 221.01C59.3006 223.23 61.8606 224.42 62.7606 226.62C63.9906 229.62 61.5406 233 61.7606 236.27C61.9806 239.54 64.7006 241.94 67.2706 243.9C77.0566 251.539 88.0061 257.555 99.7006 261.72C104.771 263.46 110.111 264.79 115.451 264.31C120.791 263.83 126.161 261.31 128.961 256.69C131.251 252.94 131.231 247.33 127.651 244.76Z" fill="#263238"/>
<path d="M106.998 174.891C106.341 172.265 104.998 169.862 103.104 167.928C101.211 165.994 98.8376 164.598 96.2268 163.886C93.616 163.173 90.8625 163.168 88.2492 163.872C85.636 164.576 83.2574 165.963 81.3578 167.891C79.8178 169.451 78.5978 171.361 76.7778 172.581C74.7178 173.971 74.4178 173.581 72.1178 174.471C69.8178 175.361 65.5878 181.791 65.6578 184.271L64.5078 195.131C64.5978 197.671 67.8678 199.131 70.2678 198.271C72.6678 197.411 74.2678 195.191 75.5478 192.991C76.8278 190.791 77.9978 188.411 80.0978 187.001C83.5478 184.571 88.2278 185.411 92.3578 186.251C96.4878 187.091 101.278 187.701 104.508 184.981C107.288 182.591 107.888 178.421 106.998 174.891Z" fill="#263238"/>
<path d="M109.28 190.391C108.81 183.321 104.11 174.661 97.07 175.391L75.07 181.001C74.0395 181.113 73.0888 181.608 72.4055 182.388C71.7223 183.167 71.3563 184.175 71.38 185.211L73.85 238.211H73.69C73.69 238.211 82.69 257.161 97.17 252.591C100.05 251.681 97.43 244.531 98.01 241.291H98.15C98.15 240.911 98.15 240.551 98.15 240.181C98.4346 237.764 98.4648 235.324 98.24 232.901C98.24 228.621 98.24 226.901 98.24 226.901C98.24 226.901 107.24 225.381 109.11 213.601C110.1 207.851 109.79 198.241 109.28 190.391Z" fill="#FFBE9D"/>
<path d="M107.458 199.471C107.463 199.866 107.313 200.248 107.04 200.534C106.767 200.82 106.393 200.988 105.998 201.001C105.805 201.016 105.612 200.992 105.429 200.932C105.246 200.871 105.077 200.775 104.932 200.648C104.787 200.521 104.668 200.367 104.583 200.194C104.499 200.021 104.449 199.833 104.438 199.641C104.435 199.246 104.585 198.866 104.858 198.58C105.13 198.295 105.503 198.126 105.898 198.111C106.09 198.094 106.284 198.117 106.467 198.177C106.651 198.237 106.82 198.333 106.966 198.46C107.111 198.587 107.23 198.742 107.314 198.915C107.399 199.089 107.448 199.278 107.458 199.471Z" fill="#263238"/>
<path d="M107.199 195.391C107.019 195.591 105.869 194.751 104.199 194.751C102.529 194.751 101.389 195.581 101.199 195.381C101.009 195.181 101.299 194.931 101.819 194.561C102.523 194.07 103.361 193.808 104.219 193.811C105.063 193.81 105.886 194.076 106.569 194.571C107.119 195.001 107.299 195.301 107.199 195.391Z" fill="#263238"/>
<path d="M92.0883 200C92.0937 200.393 91.9449 200.772 91.6738 201.056C91.4026 201.34 91.0308 201.507 90.6383 201.52C90.4459 201.536 90.2522 201.514 90.0687 201.454C89.8852 201.394 89.7156 201.297 89.57 201.171C89.4245 201.044 89.306 200.889 89.2215 200.715C89.137 200.542 89.0883 200.353 89.0783 200.16C89.0728 199.767 89.2216 199.388 89.4928 199.104C89.7639 198.82 90.1357 198.653 90.5283 198.64C90.7207 198.624 90.9144 198.646 91.0979 198.706C91.2814 198.766 91.451 198.862 91.5965 198.989C91.742 199.116 91.8606 199.271 91.945 199.445C92.0295 199.618 92.0782 199.807 92.0883 200Z" fill="#263238"/>
<path d="M91.2187 195.73C91.0387 195.93 89.8887 195.08 88.2187 195.09C86.5487 195.1 85.4087 195.92 85.2187 195.72C85.0287 195.52 85.3187 195.27 85.8387 194.89C86.545 194.406 87.3821 194.148 88.2387 194.15C89.0814 194.147 89.9039 194.409 90.5887 194.9C91.1387 195.29 91.3087 195.64 91.2187 195.73Z" fill="#263238"/>
<path d="M97.1482 207.781C98.0033 207.505 98.8907 207.34 99.7882 207.291C100.198 207.291 100.598 207.171 100.668 206.881C100.697 206.453 100.6 206.025 100.388 205.651C99.9882 204.651 99.5782 203.601 99.1482 202.491C97.4382 198.001 96.1482 194.301 96.3782 194.231C96.6082 194.161 98.0982 197.751 99.8082 202.231C100.218 203.341 100.618 204.401 100.988 205.411C101.251 205.912 101.329 206.489 101.208 207.041C101.148 207.188 101.056 207.319 100.938 207.424C100.82 207.53 100.68 207.608 100.528 207.651C100.299 207.709 100.064 207.743 99.8282 207.751C98.9395 207.871 98.0393 207.882 97.1482 207.781Z" fill="#263238"/>
<path d="M98.3173 227C92.7697 227.097 87.3038 225.654 82.5273 222.83C82.5273 222.83 86.3673 230.91 98.1573 229.83L98.3173 227Z" fill="#EB996E"/>
<path d="M96.4707 211.702C96.1618 211.311 95.7579 211.005 95.2976 210.814C94.8372 210.624 94.3357 210.554 93.8407 210.612C93.4823 210.645 93.1344 210.751 92.8182 210.923C92.5019 211.095 92.2238 211.329 92.0007 211.612C91.7819 211.882 91.6521 212.214 91.6288 212.561C91.6055 212.908 91.69 213.254 91.8707 213.552C92.1362 213.84 92.4806 214.044 92.8611 214.138C93.2416 214.232 93.6413 214.213 94.0107 214.082C94.7763 213.81 95.48 213.388 96.0807 212.842C96.2638 212.709 96.4199 212.543 96.5407 212.352C96.6013 212.263 96.6338 212.159 96.6338 212.052C96.6338 211.944 96.6013 211.84 96.5407 211.752" fill="#EB996E"/>
<path d="M92.37 208.91C92.63 208.91 92.64 210.66 94.15 211.91C95.66 213.16 97.54 212.96 97.56 213.21C97.58 213.46 97.14 213.55 96.35 213.57C95.3121 213.581 94.3035 213.227 93.5 212.57C92.7334 211.943 92.239 211.044 92.12 210.06C92.05 209.34 92.25 208.9 92.37 208.91Z" fill="#263238"/>
<path d="M91.9982 192.881C91.8382 193.331 90.2082 193.121 88.3082 193.351C86.4082 193.581 84.8582 194.111 84.5982 193.721C84.4882 193.531 84.7582 193.111 85.3782 192.721C86.1981 192.172 87.1379 191.829 88.1182 191.721C89.0949 191.606 90.0849 191.722 91.0082 192.061C91.6582 192.331 91.9982 192.671 91.9982 192.881Z" fill="#263238"/>
<path d="M106.59 190.691C106.31 191.061 105.19 190.691 103.84 190.691C102.49 190.691 101.36 190.951 101.09 190.561C100.98 190.371 101.16 190.001 101.65 189.651C102.32 189.231 103.099 189.02 103.889 189.043C104.68 189.066 105.445 189.323 106.09 189.781C106.56 190.131 106.72 190.511 106.59 190.691Z" fill="#263238"/>
<path d="M96.6778 172.411L95.6778 171.131C88.8727 171.913 82.2052 173.615 75.8578 176.191C73.3178 177.191 70.7578 178.451 69.0178 180.571C66.6378 183.481 66.2578 187.501 66.0178 191.251C65.0178 205.551 64.1278 220.251 68.6278 233.881C69.7078 232.141 71.8278 231.361 73.8378 230.971C75.8478 230.581 77.9578 230.451 79.8378 229.521C80.8257 228.985 81.6914 228.249 82.38 227.361C83.0686 226.473 83.565 225.451 83.8378 224.361C84.3714 222.156 84.113 219.834 83.1078 217.801C82.0178 215.531 80.1078 213.341 80.5478 210.871C80.9878 208.401 84.0078 206.811 84.7078 204.271C85.9178 199.881 79.7078 195.941 80.9978 191.561C81.281 190.772 81.7224 190.049 82.295 189.437C82.8677 188.825 83.5594 188.336 84.3278 188.001C85.8278 187.251 87.4778 186.831 88.9978 186.121C91.5226 184.891 93.6111 182.918 94.9837 180.468C96.3562 178.018 96.9474 175.206 96.6778 172.411Z" fill="#263238"/>
<path d="M156.159 262.23L142.379 283.67C142.912 284.452 143.637 285.084 144.485 285.504C145.332 285.925 146.274 286.12 147.219 286.07C150.539 285.93 155.099 277.65 155.639 275.98C156.179 274.31 155.449 272.69 155.939 271.57C156.429 270.45 156.239 267.39 156.239 267.39C156.169 267.57 159.219 263.49 156.159 262.23Z" fill="#FFBE9D"/>
<path d="M138.57 283.661L145.75 255.271C145.86 254.853 146.052 254.461 146.314 254.117C146.577 253.774 146.905 253.486 147.28 253.271L157.71 247.321C158.018 247.148 158.379 247.095 158.723 247.17C159.068 247.246 159.373 247.445 159.58 247.731C159.703 247.901 159.787 248.095 159.827 248.301C159.866 248.506 159.861 248.718 159.81 248.921L152.21 278.801L138.57 283.661Z" fill="#263238"/>
<path d="M134.949 305.66L151.619 274.87L145.339 266.74L121.879 284.54L128.029 301.46L134.949 305.66Z" fill="#FF725E"/>
<path d="M151.818 281.551C151.963 281.139 152.07 280.714 152.138 280.281C152.248 279.083 152.13 277.875 151.788 276.721V276.651V276.581C151.934 276.348 152.028 276.087 152.065 275.814C152.101 275.542 152.078 275.264 151.998 275.001C151.768 274.408 151.359 273.901 150.828 273.551L150.648 273.431L150.768 273.241L152.658 270.421C152.833 270.196 152.98 269.951 153.098 269.691C153.174 269.446 153.152 269.181 153.038 268.951C152.768 268.421 152.369 267.967 151.878 267.631L151.638 267.461L151.828 267.241C152.338 266.661 152.908 266.081 153.478 265.491C154.453 264.487 155.371 263.429 156.228 262.321C156.615 261.813 156.95 261.267 157.228 260.691C157.358 260.435 157.443 260.157 157.478 259.871C157.478 259.611 157.378 259.471 157.228 259.441H157.168C156.847 259.409 156.523 259.46 156.228 259.591C155.887 259.717 155.553 259.861 155.228 260.021C154.618 260.351 154.048 260.691 153.528 261.021C152.528 261.701 151.578 262.341 150.848 262.871L149.138 264.111C148.948 264.279 148.736 264.42 148.508 264.531C148.663 264.332 148.845 264.153 149.048 264.001C149.418 263.671 149.968 263.211 150.678 262.641C151.388 262.071 152.268 261.411 153.308 260.701C153.838 260.341 154.398 259.981 155.028 259.631C155.35 259.453 155.685 259.296 156.028 259.161C156.415 258.971 156.854 258.912 157.278 258.991H157.218C157.432 259.021 157.626 259.135 157.758 259.307C157.889 259.479 157.946 259.697 157.918 259.911C157.885 260.259 157.791 260.598 157.638 260.911C157.346 261.524 156.991 262.103 156.578 262.641C155.719 263.775 154.791 264.853 153.798 265.871C153.228 266.461 152.658 267.041 152.148 267.611V267.221C152.723 267.616 153.185 268.154 153.488 268.781C153.642 269.125 153.663 269.513 153.548 269.871C153.417 270.168 153.249 270.447 153.048 270.701C152.368 271.701 151.718 272.641 151.108 273.521V273.201C151.71 273.616 152.165 274.212 152.408 274.901C152.5 275.217 152.524 275.55 152.477 275.876C152.431 276.202 152.315 276.514 152.138 276.791V276.651C152.457 277.851 152.522 279.105 152.328 280.331C152.269 280.661 152.165 280.981 152.018 281.281C151.898 281.461 151.838 281.561 151.818 281.551Z" fill="#EB996E"/>
<path d="M159.578 247.721C159.317 247.956 159.029 248.157 158.718 248.321C158.148 248.681 157.318 249.191 156.278 249.811L152.628 252.001L150.468 253.251C149.682 253.63 148.949 254.111 148.288 254.681C147.714 255.31 147.332 256.091 147.188 256.931C146.968 257.771 146.758 258.571 146.558 259.351L145.468 263.441C145.148 264.601 144.878 265.541 144.678 266.181C144.605 266.528 144.488 266.864 144.328 267.181C144.334 266.842 144.388 266.505 144.488 266.181C144.618 265.521 144.838 264.571 145.108 263.401C145.378 262.231 145.728 260.801 146.108 259.281C146.295 258.501 146.495 257.691 146.708 256.851C146.87 255.919 147.293 255.052 147.928 254.351C148.63 253.758 149.403 253.254 150.228 252.851L152.408 251.631L156.108 249.631C157.168 249.051 158.028 248.631 158.628 248.291C158.916 248.057 159.236 247.865 159.578 247.721Z" fill="#455A64"/>
<path d="M152.67 257.421C152.41 258.041 152.38 258.621 152.6 258.711C152.82 258.801 153.21 258.381 153.47 257.761C153.73 257.141 153.76 256.571 153.54 256.471C153.32 256.371 152.93 256.811 152.67 257.421Z" fill="white"/>
<path d="M100.75 240.211C104.335 241.502 107.63 243.487 110.448 246.052C113.265 248.617 115.549 251.712 117.17 255.161L139.55 302.781L158.83 310.601L141.83 315.491L126.73 304.401L100.75 240.211Z" fill="#FF725E"/>
<path d="M141.851 315.491L133.731 321.751L93.2108 280.071L70.0508 238.231L72.7308 230.451L90.6408 237.911L97.0508 247.391L98.4808 235.391L99.6308 237.001L101.501 242.071C101.501 242.071 119.081 256.701 122.881 268.291C126.001 278.001 125.051 298.001 127.001 303.401L141.851 315.491Z" fill="#FAFAFA"/>
<path d="M65.7091 237.691C65.4391 238.501 48.3891 245.351 47.5791 251.321C46.7691 257.291 59.8291 303.451 59.8291 303.451L80.5391 321.751H133.729L116.859 290.161C113.223 283.349 108.622 277.098 103.199 271.601C98.1991 266.541 92.1991 260.281 89.0591 256.551C85.6891 252.501 71.3991 233.551 71.3991 233.551L65.7091 237.691Z" fill="#FF725E"/>
<path d="M76.3789 239.581C77.4125 239.952 78.4156 240.404 79.3789 240.931C81.2089 241.831 83.7189 243.091 86.4789 244.521L89.6189 246.161L89.2589 246.401C89.1388 244.534 89.2496 242.66 89.5889 240.821C89.6836 240.093 89.8823 239.382 90.1789 238.711C90.1217 239.435 90.0283 240.156 89.8989 240.871C89.6648 242.691 89.6145 244.531 89.7489 246.361V246.801L89.3589 246.601L86.2589 245.001C83.4989 243.571 81.0189 242.251 79.2589 241.271C78.2572 240.782 77.2944 240.217 76.3789 239.581Z" fill="#263238"/>
<path d="M117.379 281.68C117.061 281.253 116.777 280.802 116.529 280.33L114.359 276.56C112.539 273.37 109.999 268.98 107.139 264.17C104.279 259.36 101.609 255.05 99.6794 251.93L97.3894 248.23C97.0915 247.789 96.8306 247.324 96.6094 246.84C96.9829 247.233 97.3178 247.662 97.6094 248.12C98.1994 248.96 99.0294 250.19 100.039 251.73C102.039 254.8 104.759 259.09 107.639 263.91C110.519 268.73 112.989 273.15 114.729 276.38C115.609 278 116.299 279.31 116.729 280.23C116.985 280.695 117.203 281.18 117.379 281.68Z" fill="#263238"/>
<g opacity="0.3">
<path d="M109.19 313.86C112.28 314.38 115.45 314.86 118.53 314.32C121.61 313.78 124.62 311.79 125.59 308.81C125.743 307.838 126.138 306.92 126.74 306.14C127.93 305.04 129.83 305.72 131.44 305.57C132.336 305.433 133.189 305.091 133.931 304.571C134.673 304.051 135.286 303.366 135.72 302.57C136.579 300.978 137.183 299.26 137.51 297.48C137.77 296.622 137.878 295.726 137.83 294.83C137.799 294.385 137.656 293.955 137.415 293.579C137.174 293.203 136.842 292.894 136.45 292.68C135.23 292.13 133.85 292.93 132.77 293.68C124 300 116 307.34 108 314.64" fill="black"/>
</g>
<path d="M129.061 278.621C129.061 278.621 132.111 271.621 133.731 270.621C135.351 269.621 143.441 264.931 143.441 264.931L142.441 268.781L150.351 263.291C151.351 262.641 156.961 257.511 157.961 259.511C158.691 260.951 154.081 264.751 153.461 265.601C151.921 267.711 152.461 267.521 152.461 267.521C152.461 267.521 154.131 268.521 153.291 270.021C152.604 271.172 151.85 272.28 151.031 273.341C151.031 273.341 153.231 274.121 151.951 276.981C152.32 278.168 152.396 279.428 152.171 280.651C151.811 282.791 147.951 286.841 147.951 286.841L128.651 296.001L120.891 282.841L129.061 278.621Z" fill="#FFBE9D"/>
<path d="M84.2504 265.46L96.5904 291.8L124 279.92C124 279.92 135.35 286.54 133.78 293.78L109.08 314C106.772 315.897 104.102 317.305 101.233 318.138C98.3642 318.972 95.3558 319.214 92.3904 318.85C89.2088 318.461 86.15 317.384 83.4267 315.693C80.7034 314.002 78.3809 311.739 76.6204 309.06L58.7804 281.94L48.7804 265.63C47.1785 263.091 46.3636 260.134 46.4383 257.132C46.513 254.13 47.4741 251.217 49.2004 248.76C50.1432 247.435 51.3396 246.31 52.7204 245.45C57.1904 242.74 70.4304 241.56 84.2504 265.46Z" fill="#FF725E"/>
<path d="M144.928 267C143.696 268.062 142.356 268.99 140.928 269.77C139.584 270.695 138.15 271.483 136.648 272.12C137.89 271.071 139.23 270.143 140.648 269.35C141.996 268.43 143.429 267.643 144.928 267Z" fill="#EB996E"/>
<path d="M152.641 266.74C151.572 268.146 150.37 269.445 149.051 270.62C147.849 271.912 146.534 273.093 145.121 274.15C146.196 272.749 147.398 271.451 148.711 270.27C149.913 268.978 151.228 267.797 152.641 266.74Z" fill="#EB996E"/>
<path d="M151.611 272.682C151.187 273.554 150.619 274.348 149.931 275.032C148.931 276.242 147.931 277.162 147.871 277.032C148.299 276.157 148.871 275.359 149.561 274.672C150.129 273.899 150.822 273.227 151.611 272.682Z" fill="#EB996E"/>
<path d="M152.001 276.68C152.111 276.77 151.681 277.41 151.141 278.19C150.601 278.97 150.141 279.59 150.011 279.52C149.881 279.45 150.181 278.71 150.741 277.91C151.301 277.11 151.871 276.59 152.001 276.68Z" fill="#EB996E"/>
<path d="M104.881 316.642C104.881 316.642 104.881 316.592 105.001 316.522L105.391 316.192L106.941 314.942L112.861 310.262L134.001 293.722L133.911 293.892C133.922 292.52 133.66 291.161 133.141 289.892C132.548 288.562 131.785 287.315 130.871 286.182C128.872 283.821 126.509 281.795 123.871 280.182H124.101L109.931 286.342L96.6909 292.002L96.4709 292.092L96.3609 291.882C92.7309 284.732 89.3609 278.012 85.9809 272.172C84.2909 269.242 82.6209 266.532 81.0409 264.002C79.4609 261.472 78.0409 259.132 76.5509 257.112C74.3581 253.856 71.4421 251.153 68.0309 249.212C67.4409 248.862 66.8909 248.592 66.4109 248.362C65.9309 248.132 65.5409 247.942 65.2009 247.802L64.4609 247.472C64.3735 247.441 64.2896 247.401 64.2109 247.352C67.1778 248.369 69.9211 249.947 72.2909 252.002C73.9903 253.486 75.5106 255.164 76.8209 257.002C78.3209 259.002 79.8209 261.362 81.3709 263.882C82.9209 266.402 84.6609 269.102 86.3709 272.032C89.8109 277.872 93.1809 284.592 96.8309 291.732L96.5009 291.612L109.691 285.872L123.861 279.722L123.981 279.672L124.091 279.742C126.778 281.394 129.182 283.467 131.211 285.882C132.146 287.055 132.928 288.342 133.541 289.712C134.076 291.06 134.344 292.5 134.331 293.952V294.052L134.241 294.122L113.001 310.472L107.001 315.052L105.411 316.252L104.991 316.552L104.881 316.642Z" fill="#263238"/>
<path d="M94.9295 300.08C94.7795 300.02 95.5395 298.14 95.9295 295.71C96.3195 293.28 96.3295 291.25 96.4895 291.24C96.8292 292.741 96.8292 294.299 96.4895 295.8C96.2995 297.326 95.7661 298.79 94.9295 300.08Z" fill="#263238"/>
<path d="M245.457 377.451L259.787 395.401C259.787 395.401 282.847 386.871 285.787 389.931L251.997 419.001L228.527 392.001L245.457 377.451Z" fill="#FF725E"/>
<g opacity="0.6">
<path d="M248.081 402.921C247.84 403.298 247.748 403.751 247.822 404.193C247.896 404.634 248.13 405.032 248.481 405.311C248.849 405.566 249.302 405.669 249.744 405.6C250.187 405.532 250.587 405.296 250.861 404.941C251.113 404.538 251.208 404.055 251.127 403.587C251.046 403.118 250.794 402.696 250.421 402.401C250.007 402.177 249.524 402.122 249.071 402.247C248.618 402.372 248.231 402.667 247.991 403.071" fill="white"/>
</g>
<g opacity="0.6">
<path d="M251.998 419.001L249.738 416.181L282.998 389.361C282.998 389.361 285.068 388.721 285.808 389.931L251.998 419.001Z" fill="white"/>
</g>
<path d="M260.188 394.761C260.328 394.931 259.568 395.761 259.188 396.941C258.808 398.121 258.998 399.241 258.788 399.301C258.578 399.361 258.008 398.201 258.468 396.721C258.928 395.241 260.098 394.581 260.188 394.761Z" fill="#263238"/>
<path d="M265.001 393.18C265.171 393.31 264.701 394.18 264.741 395.39C264.781 396.6 265.251 397.44 265.081 397.58C264.911 397.72 264.001 396.87 263.981 395.4C263.961 393.93 264.861 393 265.001 393.18Z" fill="#263238"/>
<path d="M270.66 395.701C270.54 395.861 269.6 395.231 269.24 393.971C268.88 392.711 269.36 391.681 269.54 391.751C269.72 391.821 269.67 392.751 269.97 393.751C270.27 394.751 270.81 395.541 270.66 395.701Z" fill="#263238"/>
<path d="M256.47 391C256.53 391.21 255.58 391.64 254.7 392.5C253.82 393.36 253.35 394.28 253.14 394.22C252.93 394.16 253.14 392.96 254.14 391.96C255.14 390.96 256.44 390.83 256.47 391Z" fill="#263238"/>
<g opacity="0.3">
<path d="M248.298 381.012L250.848 384.212L234.107 398.332L231.688 395.552L248.298 381.012Z" fill="black"/>
</g>
<path d="M253.508 387.47C253.578 387.53 253.008 388.19 251.808 388.91C251.109 389.334 250.36 389.67 249.578 389.91C249.111 390.046 248.637 390.152 248.158 390.23C247.876 390.272 247.59 390.272 247.308 390.23C247.101 390.197 246.91 390.101 246.761 389.953C246.612 389.806 246.513 389.616 246.478 389.41C246.46 389.223 246.487 389.035 246.557 388.862C246.627 388.688 246.737 388.533 246.878 388.41C247.087 388.217 247.327 388.062 247.588 387.95C248.764 387.352 250.069 387.057 251.388 387.09C252.151 387.034 252.912 387.216 253.568 387.61C253.568 387.73 252.708 387.54 251.398 387.61C250.636 387.669 249.884 387.82 249.158 388.06C248.734 388.206 248.322 388.387 247.928 388.6C247.488 388.81 247.178 389.07 247.228 389.31C247.228 389.4 247.228 389.42 247.428 389.46C247.637 389.488 247.849 389.488 248.058 389.46C248.505 389.4 248.949 389.316 249.388 389.21C250.133 389.015 250.859 388.754 251.558 388.43C252.183 388.061 252.835 387.74 253.508 387.47Z" fill="#263238"/>
<path d="M253.5 387.891C253.5 387.961 252.63 387.651 251.65 386.631C250.74 385.67 250.114 384.476 249.84 383.181C249.74 382.88 249.719 382.557 249.781 382.245C249.842 381.933 249.983 381.643 250.19 381.401C250.341 381.272 250.528 381.19 250.725 381.167C250.923 381.144 251.123 381.18 251.3 381.271C251.558 381.394 251.797 381.552 252.01 381.741C252.52 382.181 252.937 382.718 253.238 383.321C253.538 383.923 253.716 384.58 253.76 385.251C253.86 386.691 253.34 387.481 253.27 387.441C253.318 386.732 253.318 386.021 253.27 385.311C253.15 384.575 252.866 383.874 252.44 383.261C252.2 382.903 251.906 382.583 251.57 382.311C251.21 382.001 250.83 381.821 250.72 381.971C250.626 382.131 250.567 382.31 250.548 382.494C250.529 382.679 250.551 382.866 250.61 383.041C250.688 383.477 250.812 383.902 250.98 384.311C251.256 385.028 251.633 385.702 252.1 386.311C252.86 387.321 253.57 387.781 253.5 387.891Z" fill="#263238"/>
<path d="M229.891 432.792L229.001 456.272C229.001 456.272 252.571 465.062 252.831 469.422L207.231 469.332L207.121 432.682L229.891 432.792Z" fill="#FF725E"/>
<g opacity="0.6">
<path d="M214.899 454.271C214.461 454.404 214.087 454.693 213.849 455.085C213.611 455.476 213.526 455.941 213.609 456.391C213.73 456.834 214.013 457.214 214.403 457.455C214.793 457.696 215.26 457.781 215.709 457.691C216.17 457.542 216.56 457.23 216.809 456.815C217.057 456.399 217.146 455.908 217.059 455.431C216.89 454.983 216.554 454.617 216.122 454.411C215.69 454.204 215.195 454.172 214.739 454.321" fill="white"/>
</g>
<g opacity="0.6">
<path d="M207.23 469.331L207.37 465.631L251 467.101C251 467.101 253 467.991 252.8 469.421L207.23 469.331Z" fill="white"/>
</g>
<path d="M229.738 456C229.738 456.22 228.618 456.32 227.518 457C226.418 457.68 225.838 458.64 225.628 458.55C225.418 458.46 225.758 457.18 227.108 456.34C228.458 455.5 229.788 455.84 229.738 456Z" fill="#263238"/>
<path d="M234.519 458.001C234.519 458.211 233.599 458.591 232.839 459.531C232.079 460.471 231.839 461.471 231.639 461.461C231.439 461.451 231.279 460.191 232.249 459.041C233.219 457.891 234.509 457.821 234.519 458.001Z" fill="#263238"/>
<path d="M237.221 463.76C237.021 463.76 236.711 462.69 237.291 461.47C237.871 460.25 238.901 459.77 239.001 459.96C239.101 460.15 238.441 460.79 238.001 461.8C237.561 462.81 237.441 463.74 237.221 463.76Z" fill="#263238"/>
<path d="M229.348 450.67C229.248 450.87 228.228 450.56 226.968 450.67C225.708 450.78 224.728 451.15 224.618 450.96C224.508 450.77 225.448 449.96 226.928 449.9C228.408 449.84 229.458 450.49 229.348 450.67Z" fill="#263238"/>
<g opacity="0.3">
<path d="M229.709 437.441L229.559 441.621L207.149 441.381L207.129 437.601L229.709 437.441Z" fill="black"/>
</g>
<path d="M229.44 445.92C228.695 446.131 227.906 446.131 227.16 445.92C225.847 445.68 224.591 445.191 223.46 444.48C223.202 444.34 222.968 444.158 222.77 443.94C222.63 443.78 222.545 443.579 222.527 443.366C222.509 443.154 222.559 442.942 222.67 442.76C222.786 442.603 222.936 442.475 223.11 442.386C223.284 442.298 223.476 442.251 223.67 442.25C223.958 442.249 224.244 442.289 224.52 442.37C225.836 442.691 227.05 443.337 228.05 444.25C229.1 445.25 229.46 446.06 229.38 446.1C229.3 446.14 228.77 445.48 227.7 444.67C227.083 444.206 226.412 443.82 225.7 443.52C225.277 443.345 224.838 443.207 224.39 443.11C223.91 442.98 223.5 442.98 223.39 443.19C223.28 443.4 223.34 443.31 223.44 443.45C223.591 443.604 223.763 443.735 223.95 443.84C224.334 444.098 224.735 444.328 225.15 444.53C225.858 444.884 226.598 445.168 227.36 445.38C228.065 445.516 228.759 445.696 229.44 445.92Z" fill="#263238"/>
<path d="M229.149 446.24C228.715 445.592 228.504 444.819 228.549 444.04C228.494 442.686 228.805 441.342 229.449 440.15C229.574 439.85 229.773 439.586 230.029 439.384C230.285 439.183 230.588 439.051 230.909 439C231.12 438.996 231.328 439.055 231.506 439.169C231.684 439.283 231.824 439.447 231.909 439.64C232.025 439.909 232.106 440.191 232.149 440.48C232.248 441.163 232.211 441.858 232.039 442.525C231.867 443.193 231.565 443.82 231.149 444.37C230.249 445.55 229.319 445.82 229.299 445.74C229.279 445.66 230.009 445.2 230.689 444.07C231.086 443.415 231.336 442.682 231.419 441.92C231.479 441.482 231.479 441.038 231.419 440.6C231.349 440.12 231.169 439.73 230.989 439.78C230.809 439.83 230.369 440.14 230.179 440.52C229.956 440.916 229.768 441.331 229.619 441.76C229.359 442.494 229.207 443.262 229.169 444.04C228.999 445.38 229.269 446.21 229.149 446.24Z" fill="#263238"/>
<path d="M206.77 321.75L251.89 381.71L230.78 399.84L209.06 371.43L206.77 321.75Z" fill="#263238"/>
<path d="M111.23 324.62C111.23 324.62 183.83 302.5 190.48 302.78C197.13 303.06 209.75 327.07 209.75 327.07L189.37 326.33C184.14 339.16 174.48 352.33 163.6 365.67L121.93 363.73L111.23 324.62Z" fill="#263238"/>
<path d="M170.568 307.141C170.568 307.281 163.148 309.621 153.908 312.371C144.668 315.121 137.138 317.231 137.098 317.091C137.058 316.951 144.508 314.611 153.758 311.871C163.008 309.131 170.528 307.001 170.568 307.141Z" fill="#263238"/>
<path d="M187.439 325.941H207.819C212.779 325.945 217.616 327.485 221.665 330.351C225.714 333.216 228.776 337.265 230.429 341.941C232.018 346.451 232.717 351.226 232.489 356.001L230.899 439.001H203.469L202.969 412.501L199.499 362.131L175.749 363.131L162.289 362.291L187.439 325.941Z" fill="#263238"/>
<path d="M188.047 325.531C187.956 326.123 187.826 326.707 187.657 327.281C187.265 328.867 186.784 330.429 186.217 331.961C185.388 334.235 184.385 336.441 183.217 338.561C181.762 341.161 180.09 343.634 178.217 345.951C174.762 350.073 171.062 353.984 167.137 357.661L163.617 361.051C163.204 361.484 162.756 361.882 162.277 362.241C162.644 361.769 163.041 361.321 163.467 360.901C164.257 360.061 165.467 358.901 166.877 357.401C170.717 353.661 174.365 349.729 177.807 345.621C181.166 341.452 183.883 336.804 185.867 331.831C186.587 329.911 187.137 328.331 187.457 327.231C187.608 326.65 187.805 326.081 188.047 325.531Z" fill="#455A64"/>
<path d="M212.998 326.501C211.759 326.504 210.521 326.444 209.288 326.321C207.008 326.191 203.848 326.101 200.368 326.171C196.888 326.241 193.728 326.451 191.438 326.601C190.21 326.742 188.974 326.805 187.738 326.791C188.061 326.678 188.397 326.608 188.738 326.581C189.368 326.481 190.288 326.361 191.428 326.231C193.708 325.991 196.868 325.721 200.428 325.651C203.432 325.58 206.437 325.683 209.428 325.961C210.568 326.061 211.488 326.191 212.128 326.291C212.425 326.329 212.717 326.399 212.998 326.501Z" fill="#455A64"/>
<path d="M203.35 423.801C203.303 423.574 203.276 423.343 203.27 423.111C203.27 422.601 203.21 421.951 203.16 421.111C203.08 419.321 202.97 416.841 202.84 413.811C202.57 407.651 202.2 399.141 201.61 389.751C201.02 380.361 200.32 371.861 199.81 365.751C199.56 362.751 199.36 360.251 199.22 358.471C199.16 357.651 199.12 356.991 199.08 356.471C199.051 356.239 199.051 356.004 199.08 355.771C199.132 355.999 199.169 356.229 199.19 356.461L199.43 358.461C199.62 360.231 199.87 362.701 200.19 365.721C200.79 371.861 201.54 380.361 202.14 389.721C202.74 399.081 203.04 407.641 203.22 413.811C203.28 416.811 203.34 419.321 203.38 421.111C203.38 421.931 203.38 422.591 203.38 423.111C203.396 423.342 203.386 423.573 203.35 423.801Z" fill="#263238"/>
<path d="M232.531 352.84C232.681 352.84 232.581 371.84 232.321 395.27C232.061 418.7 231.721 437.7 231.581 437.7C231.441 437.7 231.531 418.7 231.801 395.26C232.071 371.82 232.391 352.84 232.531 352.84Z" fill="#455A64"/>
<path d="M210.15 349.74C208.136 350.527 206.179 351.449 204.29 352.5C202.499 353.718 200.792 355.054 199.18 356.5C199.488 355.93 199.894 355.419 200.38 354.99C202.569 352.756 205.276 351.097 208.26 350.16C208.861 349.913 209.5 349.77 210.15 349.74Z" fill="#263238"/>
<g opacity="0.3">
<path d="M162.289 362.251C167.829 363.251 173.899 361.581 178.639 358.621C183.372 355.662 186.804 351.015 188.239 345.621C188.849 343.231 189.029 340.751 189.639 338.361C190.12 335.907 191.43 333.693 193.349 332.091C195.669 330.361 201.349 329.261 203.089 326.941C203.089 326.601 196.309 327.381 194.039 327.511C191.559 327.641 187.409 328.271 187.499 327.981C186.843 330.384 186.041 332.745 185.099 335.051C180.159 343.541 169.309 356.051 162.289 362.291" fill="black"/>
</g>
<path d="M49.1602 420.941L56.8802 471.411H64.5302L60.7602 421.141L49.1602 420.941Z" fill="#263238"/>
<path d="M184.949 421.141V471.411H193.029L196.039 420.941L184.949 421.141Z" fill="#263238"/>
<path d="M47.7892 265C47.7892 265 36.9792 265.43 33.6692 270C27.8392 278 31.1192 284.92 30.7892 287.28C30.4592 289.64 49.1592 420.94 49.1592 420.94H56.8592L195.999 422.23L202.719 406L199.499 362.09L162.289 362.25C162.289 362.25 147.049 318.51 133.729 315.59C124.729 313.59 103.519 314.31 90.7292 314.97C87.6045 315.132 84.4923 314.468 81.7061 313.044C78.92 311.62 76.5583 309.487 74.8592 306.86L47.7892 265Z" fill="#455A64"/>
<path d="M171.149 415.78C171.149 415.78 170.379 415.88 168.899 415.95C167.419 416.02 165.239 416.07 162.419 416.09C156.769 416.17 148.579 416.19 138.419 416.18C118.009 416.18 89.5591 416.01 57.4191 415.73H57.2091V415.53C56.6291 412.78 56.0391 409.95 55.4391 407.08C54.8391 404.21 54.2691 401.27 53.6791 398.32C46.6791 362.7 42.5991 330.06 40.3991 306.39C39.2891 294.56 38.6291 284.96 38.2091 278.32C38.0291 275.02 37.8791 272.45 37.7891 270.68C37.7891 269.82 37.7191 269.16 37.6891 268.68C37.6591 268.2 37.6891 268 37.6891 268C37.6891 268 37.6891 268.23 37.7591 268.68C37.8291 269.13 37.8391 269.81 37.8991 270.68C38.0191 272.44 38.1991 275.01 38.4191 278.31C38.8991 284.94 39.6191 294.53 40.7691 306.36C42.9991 330 47.1091 362.61 54.0891 398.21C54.6758 401.163 55.2624 404.08 55.8491 406.96C56.4358 409.84 57.0258 412.657 57.6191 415.41L57.3691 415.21L138.369 415.84L162.369 415.9H168.849C169.589 415.9 170.139 415.84 170.519 415.84L171.149 415.78Z" fill="#263238"/>
<path d="M169.68 422C169.673 421.789 169.693 421.577 169.74 421.37C169.81 420.91 169.89 420.32 170 419.6C170.11 418.88 170.28 417.89 170.4 416.79C170.52 415.69 170.72 414.45 170.81 413.06C170.9 411.67 171.08 410.17 171.14 408.53C171.2 406.89 171.25 405.16 171.28 403.32C171.261 399.337 171.027 395.358 170.58 391.4C170.098 387.447 169.411 383.522 168.52 379.64C167.68 376.06 166.78 372.88 165.91 370.23C165.52 368.9 165.07 367.73 164.71 366.68C164.35 365.63 164.02 364.74 163.71 364.02L163.09 362.34C163.004 362.149 162.944 361.947 162.91 361.74C163.022 361.917 163.116 362.105 163.19 362.3L163.9 363.94C164.21 364.66 164.58 365.54 164.9 366.58C165.22 367.62 165.76 368.79 166.18 370.12C167.09 372.75 168.04 375.94 168.91 379.53C169.829 383.425 170.533 387.368 171.02 391.34C171.465 395.325 171.686 399.331 171.68 403.34C171.68 405.19 171.62 406.94 171.49 408.58C171.36 410.22 171.25 411.74 171.1 413.12C170.95 414.5 170.76 415.76 170.6 416.85C170.44 417.94 170.28 418.85 170.12 419.65C169.96 420.45 169.85 420.95 169.76 421.41C169.753 421.609 169.726 421.807 169.68 422Z" fill="#263238"/>
<path d="M67.6875 327.871C67.8584 327.696 68.0459 327.539 68.2475 327.401C68.6775 327.071 69.2475 326.651 69.9275 326.111L71.1575 325.201C71.6175 324.891 72.1575 324.591 72.7075 324.251C73.9497 323.449 75.2424 322.727 76.5775 322.091L78.8975 321.001C79.6975 320.601 80.5875 320.311 81.4775 319.941C82.3675 319.571 83.2975 319.191 84.2775 318.881L87.2775 317.881C91.8085 316.548 96.4404 315.584 101.127 315.001C105.798 314.385 110.506 314.097 115.217 314.141C117.387 314.141 119.447 314.281 121.377 314.351C123.307 314.421 125.087 314.651 126.717 314.881C129.288 315.212 131.838 315.683 134.357 316.291L136.357 316.851C136.596 316.909 136.831 316.986 137.057 317.081C136.81 317.062 136.566 317.018 136.327 316.951L134.268 316.481C132.488 316.111 129.877 315.621 126.627 315.251C125.007 315.041 123.217 314.941 121.307 314.781C119.397 314.621 117.307 314.571 115.167 314.621C110.486 314.609 105.809 314.906 101.167 315.511C96.518 316.093 91.9208 317.036 87.4175 318.331L84.4175 319.261C83.4175 319.561 82.5275 319.961 81.6275 320.261C80.7275 320.561 79.8475 320.901 79.0475 321.261C78.2475 321.621 77.4675 322.001 76.7275 322.351C75.3948 322.968 74.0993 323.663 72.8475 324.431C72.2875 324.751 71.7575 325.041 71.2775 325.331L70.0375 326.211L68.3075 327.411C68.1151 327.583 67.9076 327.737 67.6875 327.871Z" fill="#263238"/>
<path d="M150.407 335C150.407 335 150.407 335.11 150.307 335.33C150.207 335.55 150.137 335.86 149.967 336.28C149.449 337.465 148.758 338.567 147.917 339.55C146.558 341.093 144.928 342.374 143.107 343.33C141.968 343.914 140.785 344.405 139.567 344.8C138.189 345.21 136.777 345.498 135.347 345.66C132.071 345.94 128.771 345.751 125.547 345.1C122.057 344.48 118.427 343.47 114.547 342.55C110.559 341.496 106.453 340.952 102.327 340.93C100.158 340.961 98.0032 341.298 95.9273 341.93C93.7924 342.588 91.7841 343.602 89.9873 344.93C86.4899 347.643 83.5436 351 81.3073 354.82C79.0173 358.45 77.2073 362.2 75.3073 365.67C73.549 368.988 71.4511 372.115 69.0473 375C66.9455 377.548 64.3237 379.617 61.3573 381.07C58.8945 382.257 56.2101 382.915 53.4773 383C51.4211 383.05 49.3772 382.668 47.4773 381.88C46.778 381.588 46.1083 381.23 45.4773 380.81C44.9573 380.42 44.4773 380.08 44.1973 379.81L43.5073 379.08C43.3473 378.91 43.2773 378.82 43.2773 378.82C43.2773 378.82 43.3773 378.89 43.5373 379.04L44.2673 379.73C44.5973 380.01 45.0473 380.33 45.5573 380.73C46.1925 381.123 46.8619 381.458 47.5573 381.73C49.4374 382.467 51.4495 382.808 53.4673 382.73C56.1469 382.633 58.778 381.986 61.1973 380.83C64.1025 379.384 66.6688 377.339 68.7273 374.83C71.0953 371.943 73.1595 368.82 74.8873 365.51C76.7973 362.05 78.6073 358.29 80.8873 354.62C83.1582 350.754 86.1488 347.36 89.6973 344.62C91.5393 343.263 93.594 342.223 95.7773 341.54C97.9037 340.905 100.108 340.568 102.327 340.54C106.498 340.567 110.648 341.125 114.677 342.2C118.527 343.14 122.147 344.2 125.597 344.8C128.787 345.451 132.051 345.657 135.297 345.41C136.702 345.264 138.091 344.992 139.447 344.6C140.653 344.225 141.827 343.753 142.957 343.19C144.759 342.268 146.381 341.032 147.747 339.54C148.897 338.197 149.798 336.66 150.407 335Z" fill="white"/>
<path d="M201.27 399.001L200.83 399.111L199.54 399.371C198.861 399.538 198.193 399.749 197.54 400.001C197.113 400.154 196.695 400.335 196.29 400.541C195.816 400.748 195.355 400.985 194.91 401.251C192.598 402.583 190.448 404.177 188.5 406.001C186.18 408.101 183.7 410.671 180.66 413.201C179.08 414.549 177.356 415.719 175.52 416.691C174.54 417.209 173.52 417.651 172.47 418.011L170.82 418.461C170.256 418.588 169.685 418.685 169.11 418.751C166.704 419.043 164.266 418.922 161.9 418.391C159.404 417.806 156.992 416.909 154.72 415.721C149.899 413.123 145.437 409.906 141.45 406.151C137.25 402.341 132.96 398.311 127.96 395.011C125.511 393.366 122.859 392.045 120.07 391.081C117.363 390.161 114.506 389.764 111.65 389.911C108.896 390.101 106.192 390.75 103.65 391.831C101.205 392.87 98.8477 394.104 96.6005 395.521C92.1805 398.251 88.1605 401.171 84.0705 403.401C74.7045 408.439 64.0071 410.452 53.4505 409.161C51.1764 408.901 48.9284 408.449 46.7305 407.811C46.8818 407.825 47.0321 407.848 47.1805 407.881L48.4705 408.161C49.6005 408.401 51.2905 408.711 53.4705 408.961C59.6536 409.644 65.9091 409.214 71.9405 407.691C76.0951 406.635 80.1 405.059 83.8605 403.001C87.8605 400.771 91.9205 397.851 96.3505 395.091C98.616 393.655 100.994 392.404 103.46 391.351C106.05 390.235 108.808 389.559 111.62 389.351C114.54 389.195 117.463 389.599 120.23 390.541C123.062 391.515 125.752 392.86 128.23 394.541C133.29 397.871 137.59 401.921 141.78 405.731C145.731 409.462 150.152 412.663 154.93 415.251C157.16 416.466 159.536 417.39 162 418.001C164.311 418.533 166.696 418.661 169.05 418.381C169.615 418.318 170.176 418.225 170.73 418.101L172.35 417.681C173.381 417.325 174.384 416.894 175.35 416.391C177.17 415.445 178.877 414.298 180.44 412.971C183.44 410.481 185.98 407.971 188.32 405.851C190.282 404.009 192.454 402.405 194.79 401.071C195.244 400.809 195.715 400.578 196.2 400.381C196.609 400.171 197.034 399.994 197.47 399.851C198.149 399.616 198.84 399.419 199.54 399.261L200.84 399.051L201.27 399.001Z" fill="white"/>
<path d="M62.0994 289.721C62.0662 290.151 61.9754 290.575 61.8294 290.981C61.4961 292.114 61.0471 293.21 60.4894 294.251C58.6724 297.738 55.8298 300.585 52.3449 302.407C48.86 304.229 44.9002 304.939 40.9994 304.441C39.829 304.305 38.6761 304.047 37.5594 303.671C37.1395 303.556 36.7362 303.388 36.3594 303.171C37.8959 303.585 39.4598 303.889 41.0394 304.081C44.8599 304.472 48.7113 303.733 52.1156 301.956C55.5199 300.178 58.3273 297.44 60.1894 294.081C60.9242 292.672 61.5624 291.216 62.0994 289.721Z" fill="white"/>
<path d="M375.047 158.318H185.987C182.154 158.318 179.047 161.425 179.047 165.258V216.438C179.047 220.271 182.154 223.378 185.987 223.378H375.047C378.88 223.378 381.987 220.271 381.987 216.438V165.258C381.987 161.425 378.88 158.318 375.047 158.318Z" fill="white"/>
<path d="M374.999 223.379C375.448 223.349 375.895 223.296 376.339 223.219C377.638 222.955 378.833 222.319 379.779 221.389C380.481 220.72 381.027 219.904 381.379 218.999C381.786 217.901 381.953 216.728 381.869 215.559C381.869 213.009 381.869 210.059 381.869 206.749C381.869 200.109 381.869 191.999 381.869 182.589C381.869 177.879 381.869 172.839 381.869 167.499C381.956 166.161 381.875 164.817 381.629 163.499C381.274 162.157 380.515 160.957 379.453 160.062C378.392 159.168 377.081 158.622 375.699 158.499C374.289 158.439 372.799 158.499 371.319 158.499L185.999 158.579C184.907 158.58 183.833 158.848 182.869 159.359C181.908 159.869 181.085 160.603 180.469 161.499C179.863 162.397 179.48 163.425 179.349 164.499C179.259 165.559 179.349 166.719 179.349 167.819V181.129C179.349 189.942 179.349 198.609 179.349 207.129V213.499C179.349 214.559 179.349 215.619 179.349 216.659C179.39 217.672 179.656 218.662 180.129 219.559C180.602 220.444 181.267 221.212 182.075 221.807C182.883 222.402 183.813 222.81 184.799 222.999C185.795 223.11 186.797 223.147 187.799 223.109H214.999L298.289 223.169L354.439 223.249L369.709 223.299H373.709H375.059C375.059 223.299 374.609 223.299 373.709 223.299H369.709H354.439L298.289 223.379L214.999 223.439H187.839C186.794 223.483 185.747 223.443 184.709 223.319C183.095 223.03 181.629 222.196 180.555 220.957C179.482 219.717 178.865 218.148 178.809 216.509C178.809 215.439 178.809 214.399 178.809 213.339V167.639C178.809 166.509 178.809 165.439 178.859 164.259C178.989 163.095 179.402 161.98 180.063 161.013C180.724 160.045 181.611 159.254 182.649 158.709C183.686 158.158 184.844 157.87 186.019 157.869L371.289 157.949C372.779 157.949 374.229 157.949 375.699 157.949C377.149 158.082 378.525 158.656 379.639 159.595C380.753 160.534 381.552 161.792 381.929 163.199C382.107 163.874 382.188 164.571 382.169 165.269V167.269C382.169 172.609 382.169 177.649 382.169 182.359C382.169 191.769 382.169 199.879 382.169 206.519C382.169 209.829 382.169 212.779 382.169 215.329C382.252 216.516 382.075 217.708 381.649 218.819C381.208 219.895 380.507 220.844 379.607 221.581C378.708 222.317 377.64 222.819 376.499 223.039C376.168 223.099 375.834 223.136 375.499 223.149L374.999 223.379Z" fill="#263238"/>
<path d="M367.37 171.669C367.303 171.67 367.238 171.645 367.19 171.599C367.143 171.551 367.117 171.486 367.117 171.419C367.117 171.352 367.143 171.288 367.19 171.239L372.19 166.449C372.238 166.403 372.302 166.377 372.37 166.377C372.437 166.377 372.501 166.403 372.55 166.449C372.595 166.496 372.621 166.559 372.621 166.624C372.621 166.69 372.595 166.753 372.55 166.799L367.55 171.589C367.527 171.615 367.499 171.635 367.468 171.649C367.437 171.662 367.404 171.669 367.37 171.669Z" fill="#263238"/>
<path d="M372.348 171.689C372.316 171.69 372.285 171.684 372.255 171.672C372.226 171.66 372.2 171.642 372.178 171.619L367.228 166.789C367.204 166.766 367.185 166.739 367.172 166.709C367.159 166.679 367.152 166.646 367.152 166.614C367.152 166.581 367.159 166.548 367.172 166.518C367.185 166.488 367.204 166.461 367.228 166.439C367.275 166.393 367.338 166.367 367.403 166.367C367.469 166.367 367.531 166.393 367.578 166.439L372.578 171.279C372.624 171.325 372.65 171.388 372.65 171.454C372.65 171.519 372.624 171.582 372.578 171.629C372.548 171.658 372.511 171.679 372.471 171.689C372.431 171.7 372.388 171.699 372.348 171.689Z" fill="#263238"/>
<path d="M222.779 203.488L220.779 200.598C219.549 198.858 218.889 196.779 218.889 194.648V188.148C218.889 185.615 217.981 183.166 216.33 181.245C214.678 179.324 212.393 178.059 209.889 177.678V174.578C209.889 174.199 209.738 173.835 209.47 173.567C209.202 173.299 208.838 173.148 208.459 173.148C208.271 173.148 208.086 173.185 207.913 173.257C207.74 173.329 207.583 173.435 207.451 173.568C207.319 173.701 207.215 173.859 207.144 174.032C207.073 174.205 207.037 174.391 207.039 174.578V177.578C204.46 177.884 202.084 179.125 200.359 181.066C198.634 183.006 197.68 185.512 197.679 188.108V194.838C197.677 197.152 196.899 199.399 195.469 201.218L193.719 203.448L222.779 203.488Z" fill="#349F6E"/>
<path d="M206.709 208.208C207.5 208.529 208.365 208.622 209.206 208.477C210.047 208.332 210.831 207.955 211.469 207.388C212.016 206.885 212.429 206.252 212.669 205.548L204.199 205.488C204.406 206.091 204.736 206.644 205.168 207.112C205.6 207.581 206.125 207.954 206.709 208.208Z" fill="#349F6E"/>
<path d="M336.997 180.299C336.997 180.439 314.267 180.559 286.227 180.559C258.187 180.559 235.457 180.439 235.457 180.299C235.457 180.159 258.187 180.039 286.227 180.039C314.267 180.039 336.997 180.159 336.997 180.299Z" fill="#263238"/>
<path d="M360.88 192.59C360.88 192.73 332.79 192.85 298.15 192.85C263.51 192.85 235.41 192.73 235.41 192.59C235.41 192.45 263.49 192.33 298.15 192.33C332.81 192.33 360.88 192.44 360.88 192.59Z" fill="#E0E0E0"/>
<path d="M360.88 199.998C360.88 200.138 332.79 200.258 298.15 200.258C263.51 200.258 235.41 200.138 235.41 199.998C235.41 199.858 263.49 199.738 298.15 199.738C332.81 199.738 360.88 199.798 360.88 199.998Z" fill="#E0E0E0"/>
<path d="M342.58 233.539H217.03C213.197 233.539 210.09 236.646 210.09 240.479V271.299C210.09 275.132 213.197 278.239 217.03 278.239H342.58C346.413 278.239 349.52 275.132 349.52 271.299V240.479C349.52 236.646 346.413 233.539 342.58 233.539Z" fill="#FAFAFA"/>
<path d="M342.577 278.24C342.577 278.24 342.887 278.24 343.487 278.14C344.377 278.023 345.234 277.727 346.007 277.27C347.036 276.669 347.891 275.811 348.489 274.78C349.087 273.749 349.406 272.581 349.417 271.39V268.2C349.417 263.68 349.417 258.2 349.367 251.77C349.367 248.57 349.367 245.14 349.367 241.51C349.414 240.604 349.34 239.696 349.147 238.81C348.921 237.911 348.509 237.069 347.937 236.34C347.351 235.579 346.609 234.953 345.76 234.505C344.911 234.056 343.975 233.795 343.017 233.74L217.017 233.8C215.536 233.798 214.096 234.288 212.923 235.193C211.75 236.098 210.911 237.366 210.537 238.8C210.361 239.516 210.291 240.253 210.327 240.99V243.26C210.327 244.77 210.327 246.26 210.327 247.77V269.77C210.327 270.49 210.327 271.22 210.327 271.9C210.401 272.587 210.573 273.26 210.837 273.9C211.382 275.157 212.296 276.219 213.459 276.944C214.622 277.67 215.978 278.024 217.347 277.96H233.717L290.347 278.01L328.537 278.1L338.917 278.15H341.617H342.537C342.537 278.15 342.217 278.15 341.617 278.15H338.917H328.537L290.347 278.23L233.717 278.29H217.387C215.916 278.357 214.459 277.977 213.209 277.198C211.959 276.42 210.975 275.28 210.387 273.93C210.109 273.245 209.927 272.524 209.847 271.79C209.787 271.03 209.847 270.33 209.847 269.61V241C209.81 240.219 209.887 239.438 210.077 238.68C210.475 237.127 211.38 235.753 212.648 234.773C213.916 233.793 215.475 233.264 217.077 233.27L343.077 233.36C344.58 233.456 346.013 234.027 347.17 234.99C348.328 235.953 349.149 237.259 349.517 238.72C349.718 239.632 349.792 240.567 349.737 241.5C349.737 245.13 349.737 248.56 349.737 251.76C349.737 258.16 349.737 263.67 349.737 268.19C349.737 269.31 349.737 270.38 349.737 271.38C349.725 272.328 349.517 273.265 349.127 274.13C348.513 275.484 347.488 276.611 346.197 277.35C345.41 277.801 344.539 278.087 343.637 278.19C343.286 278.236 342.931 278.252 342.577 278.24Z" fill="#263238"/>
<path d="M339.478 242.789C339.445 242.788 339.411 242.781 339.38 242.767C339.349 242.753 339.321 242.734 339.298 242.709C339.274 242.686 339.255 242.659 339.242 242.629C339.229 242.599 339.223 242.566 339.223 242.534C339.223 242.501 339.229 242.468 339.242 242.438C339.255 242.408 339.274 242.381 339.298 242.359L342.728 239.069C342.752 239.044 342.78 239.025 342.811 239.012C342.842 238.999 342.875 238.992 342.908 238.992C342.942 238.992 342.975 238.999 343.006 239.012C343.037 239.025 343.065 239.044 343.088 239.069C343.134 239.115 343.16 239.178 343.16 239.244C343.16 239.309 343.134 239.372 343.088 239.419L339.648 242.709C339.627 242.733 339.601 242.753 339.572 242.767C339.543 242.781 339.511 242.788 339.478 242.789Z" fill="#263238"/>
<path d="M342.9 242.8C342.833 242.8 342.768 242.775 342.72 242.73L339.32 239.41C339.283 239.362 339.266 239.302 339.27 239.242C339.274 239.182 339.3 239.126 339.343 239.083C339.385 239.04 339.442 239.015 339.502 239.01C339.562 239.006 339.621 239.024 339.67 239.06L343.07 242.38C343.115 242.426 343.141 242.489 343.141 242.555C343.141 242.62 343.115 242.683 343.07 242.73C343.023 242.773 342.963 242.798 342.9 242.8Z" fill="#263238"/>
<path d="M240.129 264.57L238.729 262.57C237.887 261.372 237.434 259.944 237.429 258.48V254C237.428 252.262 236.806 250.582 235.674 249.264C234.543 247.945 232.977 247.075 231.259 246.81V244.68C231.259 244.414 231.154 244.16 230.966 243.973C230.779 243.785 230.525 243.68 230.259 243.68C229.994 243.68 229.74 243.785 229.552 243.973C229.365 244.16 229.259 244.414 229.259 244.68V246.78C227.488 246.988 225.855 247.839 224.669 249.172C223.484 250.505 222.829 252.226 222.829 254.01V258.63C222.831 260.218 222.299 261.76 221.319 263.01L220.109 264.55L240.129 264.57Z" fill="#455A64"/>
<path d="M229.089 267.818C229.633 268.036 230.226 268.099 230.803 268C231.381 267.901 231.919 267.645 232.359 267.258C232.737 266.912 233.019 266.475 233.179 265.988H227.359C227.508 266.395 227.739 266.767 228.036 267.081C228.334 267.396 228.692 267.647 229.089 267.818Z" fill="#455A64"/>
<path d="M318.579 248.639C318.579 248.779 302.959 248.899 283.689 248.899C264.419 248.899 248.809 248.779 248.809 248.639C248.809 248.499 264.429 248.379 283.689 248.379C302.949 248.379 318.579 248.489 318.579 248.639Z" fill="#263238"/>
<path d="M334.999 257.078C334.999 257.228 315.699 257.338 291.899 257.338C268.099 257.338 248.789 257.228 248.789 257.078C248.789 256.928 268.079 256.818 291.899 256.818C315.719 256.818 334.999 256.938 334.999 257.078Z" fill="#E0E0E0"/>
<path d="M334.999 262.139C334.999 262.279 315.699 262.399 291.899 262.399C268.099 262.399 248.789 262.279 248.789 262.139C248.789 261.999 268.079 261.879 291.899 261.879C315.719 261.879 334.999 261.999 334.999 262.139Z" fill="#E0E0E0"/>
<path d="M342.049 285.189H217.549C213.717 285.189 210.609 288.297 210.609 292.129V322.609C210.609 326.442 213.717 329.549 217.549 329.549H342.049C345.882 329.549 348.989 326.442 348.989 322.609V292.129C348.989 288.297 345.882 285.189 342.049 285.189Z" fill="#FAFAFA"/>
<path d="M342.049 329.56C342.049 329.56 342.359 329.56 342.949 329.47C343.832 329.349 344.682 329.053 345.449 328.6C346.707 327.876 347.704 326.774 348.299 325.45C348.668 324.61 348.868 323.706 348.889 322.79V319.63C348.889 315.15 348.889 309.68 348.889 303.33C348.889 300.15 348.889 296.75 348.889 293.15C348.941 292.25 348.867 291.348 348.669 290.47C348.448 289.579 348.042 288.744 347.479 288.02C346.9 287.262 346.167 286.636 345.327 286.184C344.487 285.732 343.56 285.465 342.609 285.4L217.609 285.45C216.133 285.459 214.701 285.954 213.534 286.857C212.366 287.761 211.528 289.023 211.149 290.45C210.967 291.158 210.889 291.889 210.919 292.62V299.34C210.919 305.293 210.919 311.146 210.919 316.9V321.19C210.919 321.9 210.919 322.63 210.919 323.3C210.988 323.987 211.156 324.661 211.419 325.3C211.956 326.549 212.858 327.607 214.008 328.334C215.157 329.06 216.5 329.421 217.859 329.37H234.099L290.289 329.42L328.179 329.51L338.479 329.56H341.159H342.069C342.069 329.56 341.759 329.56 341.159 329.56H338.479L328.179 329.61L290.289 329.69L234.099 329.75H217.839C216.382 329.798 214.944 329.407 213.711 328.628C212.479 327.849 211.51 326.717 210.929 325.38C210.65 324.699 210.468 323.982 210.389 323.25C210.389 322.51 210.389 321.81 210.389 321.09C210.389 319.67 210.389 318.24 210.389 316.8V292.58C210.358 291.805 210.443 291.03 210.639 290.28C211.055 288.742 211.966 287.385 213.232 286.417C214.497 285.45 216.046 284.927 217.639 284.93L342.639 285.04C343.64 285.11 344.615 285.394 345.498 285.872C346.381 286.349 347.152 287.01 347.759 287.81C348.343 288.578 348.768 289.455 349.009 290.39C349.2 291.297 349.274 292.224 349.229 293.15C349.229 296.75 349.229 300.15 349.229 303.33C349.229 309.68 349.229 315.15 349.179 319.63C349.179 320.74 349.179 321.8 349.179 322.79C349.145 323.997 348.799 325.174 348.175 326.208C347.551 327.242 346.671 328.097 345.619 328.69C344.835 329.138 343.967 329.421 343.069 329.52C342.731 329.561 342.389 329.574 342.049 329.56Z" fill="#263238"/>
<path d="M338.998 294.38C338.964 294.379 338.931 294.372 338.9 294.358C338.869 294.345 338.841 294.325 338.818 294.3C338.794 294.277 338.775 294.25 338.762 294.22C338.749 294.19 338.742 294.158 338.742 294.125C338.742 294.092 338.749 294.06 338.762 294.029C338.775 293.999 338.794 293.972 338.818 293.95L342.228 290.68C342.276 290.633 342.341 290.607 342.408 290.607C342.475 290.607 342.54 290.633 342.588 290.68C342.634 290.727 342.659 290.789 342.659 290.855C342.659 290.92 342.634 290.983 342.588 291.03L339.178 294.3C339.156 294.326 339.128 294.346 339.097 294.36C339.066 294.374 339.032 294.381 338.998 294.38Z" fill="#263238"/>
<path d="M342.419 294.389C342.352 294.39 342.288 294.365 342.239 294.319L338.869 290.999C338.821 290.953 338.794 290.89 338.793 290.823C338.792 290.756 338.818 290.692 338.864 290.644C338.91 290.597 338.974 290.569 339.04 290.568C339.107 290.567 339.171 290.593 339.219 290.639L342.589 293.939C342.635 293.986 342.66 294.049 342.66 294.114C342.66 294.18 342.635 294.243 342.589 294.289C342.548 294.344 342.487 294.38 342.419 294.389Z" fill="#263238"/>
<path d="M240.428 316L238.998 314C238.156 312.813 237.705 311.394 237.708 309.94V305.52C237.707 303.793 237.088 302.123 235.964 300.812C234.84 299.501 233.284 298.635 231.578 298.37V296.26C231.578 295.995 231.472 295.74 231.285 295.553C231.097 295.365 230.843 295.26 230.578 295.26C230.312 295.26 230.058 295.365 229.871 295.553C229.683 295.74 229.578 295.995 229.578 296.26V298.34C227.821 298.55 226.203 299.397 225.029 300.72C223.855 302.043 223.207 303.751 223.208 305.52V310.11C223.207 311.687 222.679 313.218 221.708 314.46L220.598 316H240.428Z" fill="#E0E0E0"/>
<path d="M229.468 319.218C230.009 319.433 230.598 319.495 231.172 319.396C231.745 319.297 232.28 319.042 232.718 318.658C233.09 318.314 233.369 317.88 233.528 317.398H227.758C227.903 317.803 228.13 318.173 228.424 318.486C228.718 318.799 229.073 319.048 229.468 319.218Z" fill="#E0E0E0"/>
<path d="M318.279 300.18C318.279 300.33 302.779 300.44 283.659 300.44C264.539 300.44 249.039 300.33 249.039 300.18C249.039 300.03 264.539 299.92 283.659 299.92C302.779 299.92 318.279 300 318.279 300.18Z" fill="#263238"/>
<path d="M334.599 308.559C334.599 308.709 315.439 308.819 291.819 308.819C268.199 308.819 249.039 308.709 249.039 308.559C249.039 308.409 268.189 308.299 291.819 308.299C315.449 308.299 334.599 308.419 334.599 308.559Z" fill="#E0E0E0"/>
<path d="M334.599 313.578C334.599 313.718 315.439 313.838 291.819 313.838C268.199 313.838 249.039 313.718 249.039 313.578C249.039 313.438 268.189 313.318 291.819 313.318C315.449 313.318 334.599 313.438 334.599 313.578Z" fill="#E0E0E0"/>
<path d="M444.462 272.73C434.112 278.1 426.172 287.33 420.462 297.49C414.752 307.65 411.072 318.82 407.462 329.89L404.242 387C416.292 366.5 425.962 342.41 428.572 318.79L420.572 318.07C425.952 317.25 430.462 313.36 433.332 308.74C436.202 304.12 437.682 298.8 439.122 293.56L429.322 295C437.043 289.799 442.465 281.824 444.462 272.73Z" fill="#455A64"/>
<path d="M444.462 272.73C434.112 278.1 426.172 287.33 420.462 297.49C414.752 307.65 411.072 318.82 407.462 329.89L404.242 387C416.292 366.5 425.962 342.41 428.572 318.79L420.572 318.07C425.952 317.25 430.462 313.36 433.332 308.74C436.202 304.12 437.682 298.8 439.122 293.56L429.322 295C437.043 289.799 442.465 281.824 444.462 272.73Z" fill="#187B4E"/>
<path d="M402.46 400.39C402.46 400.39 376.31 369.1 376.61 339.22H387.18C387.18 339.22 375.7 331.68 376.61 327.45C377.52 323.22 377.82 307.23 377.82 307.23L387.48 309.65C387.48 309.65 380.24 306.03 379.33 300.29C378.42 294.55 381.44 268 381.44 268C381.44 268 393.21 280.38 396.83 293.05C400.45 305.72 409.96 320.51 407.17 359.14C404.38 397.77 402.46 400.39 402.46 400.39Z" fill="#349F6E"/>
<path d="M415.711 403.34C415.711 403.34 444.041 384.47 450.331 360.39L441.841 358.08C441.841 358.08 452.721 354.52 452.911 350.93C453.101 347.34 456.361 334.41 456.361 334.41L448.071 334.24C448.071 334.24 454.681 332.91 456.671 328.5C458.661 324.09 462.001 302.08 462.001 302.08C462.001 302.08 449.831 309.45 444.151 318.85C438.471 328.25 427.591 338.05 421.381 369.72C415.171 401.39 415.711 403.34 415.711 403.34Z" fill="#349F6E"/>
<path d="M388.582 295.289C388.63 295.39 388.664 295.498 388.682 295.609C388.742 295.859 388.822 296.179 388.912 296.609C389.112 297.489 389.392 298.739 389.752 300.319C390.112 301.899 390.542 303.909 391.002 306.209C391.462 308.509 392.002 311.129 392.542 314.029C393.662 319.829 394.852 326.769 396.062 334.489C397.272 342.209 398.422 350.719 399.472 359.679C400.522 368.639 401.292 377.199 401.902 384.989C402.512 392.779 402.902 399.809 403.142 405.709C403.282 408.659 403.352 411.329 403.422 413.709C403.492 416.089 403.542 418.079 403.552 419.709C403.562 421.339 403.552 422.609 403.552 423.509V424.509C403.561 424.622 403.561 424.736 403.552 424.849C403.534 424.736 403.534 424.622 403.552 424.509C403.552 424.259 403.552 423.939 403.552 423.509C403.552 422.599 403.472 421.329 403.412 419.699C403.352 418.069 403.292 416.029 403.192 413.699C403.092 411.369 402.992 408.699 402.822 405.699C402.542 399.799 402.072 392.779 401.472 384.999C400.872 377.219 400.022 368.669 398.992 359.709C397.962 350.749 396.792 342.259 395.632 334.539C394.472 326.819 393.302 319.879 392.232 314.069C391.722 311.169 391.232 308.539 390.772 306.239C390.312 303.939 389.952 301.949 389.622 300.329C389.292 298.709 389.062 297.489 388.882 296.599C388.812 296.199 388.752 295.879 388.712 295.599C388.659 295.5 388.615 295.396 388.582 295.289Z" fill="#263238"/>
<path d="M398.831 419.549C398.831 419.549 374.901 392.409 367.481 375.999L373.081 373.609C369.021 374.279 364.851 372.529 361.701 369.879C358.551 367.229 356.231 363.739 353.961 360.299L361.351 359.049C354.564 357.107 348.784 352.627 345.211 346.539C353.931 347.979 361.821 352.769 368.321 358.749C373.479 363.712 378.165 369.142 382.321 374.969C384.408 377.772 386.226 380.765 387.751 383.909C391.771 392.219 398.841 409.579 398.831 419.549Z" fill="#349F6E"/>
<path d="M450.711 317.879C450.686 317.977 450.649 318.071 450.601 318.159L450.241 318.949C449.891 319.669 449.401 320.679 448.791 321.949C447.511 324.559 445.691 328.349 443.501 333.059C439.101 342.469 433.311 355.599 427.591 370.379C421.871 385.159 417.331 398.779 414.251 408.699C412.711 413.699 411.501 417.699 410.691 420.479C410.291 421.839 409.971 422.909 409.741 423.679L409.471 424.509C409.448 424.606 409.415 424.7 409.371 424.789C409.377 424.691 409.393 424.594 409.421 424.499C409.471 424.279 409.541 423.999 409.631 423.649C409.831 422.869 410.121 421.789 410.481 420.419C411.231 417.609 412.381 413.559 413.871 408.589C416.871 398.589 421.351 384.979 427.061 370.179C432.771 355.379 438.651 342.259 443.141 332.889C445.381 328.199 447.251 324.429 448.591 321.889C449.251 320.629 449.761 319.629 450.141 318.889L450.551 318.119C450.651 317.999 450.701 317.869 450.711 317.879Z" fill="#263238"/>
<path d="M400.862 431.189C400.798 431.029 400.757 430.861 400.742 430.689C400.672 430.289 400.592 429.819 400.502 429.249C400.312 427.999 400.002 426.189 399.562 423.969C399.122 421.749 398.512 419.129 397.722 416.239C396.932 413.349 395.922 410.239 394.722 406.999C393.522 403.759 392.162 400.759 390.872 398.069C389.582 395.379 388.282 393.009 387.142 391.069C386.002 389.129 385.052 387.549 384.362 386.479L383.592 385.239C383.489 385.102 383.408 384.951 383.352 384.789C383.352 384.789 383.482 384.909 383.682 385.179L384.542 386.359C385.292 387.359 386.302 388.929 387.482 390.859C388.662 392.789 389.982 395.169 391.332 397.859C392.682 400.549 394.012 403.579 395.242 406.859C396.472 410.139 397.442 413.269 398.242 416.169C399.042 419.069 399.582 421.719 399.972 423.959C400.362 426.199 400.622 428.019 400.732 429.279C400.792 429.859 400.832 430.339 400.872 430.739C400.89 430.889 400.887 431.04 400.862 431.189Z" fill="#263238"/>
<path d="M432.44 424.801H380.07V435.481H432.44V424.801Z" fill="#455A64"/>
<path d="M385.062 435.48L390.723 471.41H422.362L427.643 435.48H385.062Z" fill="#455A64"/>
<path d="M429.223 435.479C429.223 435.639 419.313 435.759 407.103 435.759C394.893 435.759 384.973 435.639 384.973 435.479C384.973 435.319 394.883 435.199 407.103 435.199C419.323 435.199 429.223 435.329 429.223 435.479Z" fill="#263238"/>
<path d="M121.621 170.091L122.711 157.171C116.427 152.995 111.933 146.619 110.112 139.298C108.291 131.976 109.275 124.238 112.869 117.605C116.464 110.972 122.41 105.923 129.538 103.451C136.666 100.979 144.461 101.263 151.39 104.247C158.32 107.231 163.883 112.698 166.985 119.576C170.088 126.453 170.506 134.241 168.157 141.411C165.808 148.581 160.863 154.613 154.292 158.321C147.722 162.029 140.002 163.146 132.651 161.451L121.621 170.091Z" fill="white"/>
<path d="M121.619 170.09L132.729 161.53L132.839 161.44L132.709 161.38L132.639 161.55C135 162.098 137.416 162.366 139.839 162.35C142.724 162.315 145.589 161.871 148.349 161.03C149.879 160.569 151.365 159.974 152.789 159.25C153.509 158.86 154.269 158.49 154.999 158.08L157.159 156.66C163.411 152.114 167.7 145.361 169.159 137.77C170.027 133.552 169.972 129.196 168.999 125C167.905 120.608 165.856 116.511 162.999 113C160.043 109.305 156.248 106.367 151.929 104.43L150.239 103.72C149.679 103.47 149.079 103.33 148.509 103.14C147.939 102.95 147.359 102.74 146.769 102.63L144.999 102.25C144.414 102.115 143.819 102.025 143.219 101.98L141.439 101.77H139.659C139.07 101.735 138.479 101.735 137.889 101.77C133.279 102.032 128.785 103.324 124.739 105.55C120.905 107.643 117.58 110.556 114.999 114.08C110.381 120.425 108.366 128.297 109.369 136.08C109.856 139.364 110.84 142.554 112.289 145.54C113.569 148.121 115.216 150.502 117.179 152.61C118.812 154.365 120.649 155.92 122.649 157.24V157.16C122.009 165.42 121.649 169.46 121.649 170.09C121.709 169.46 122.079 165.43 122.829 157.18V157.13C120.853 155.801 119.037 154.248 117.419 152.5C115.485 150.392 113.861 148.018 112.599 145.45C111.178 142.486 110.214 139.324 109.739 136.07C108.764 128.364 110.771 120.576 115.349 114.3C117.91 110.824 121.2 107.95 124.989 105.88C128.99 103.685 133.433 102.414 137.989 102.16C138.572 102.125 139.156 102.125 139.739 102.16H141.499L143.259 102.37C143.849 102.416 144.434 102.507 145.009 102.64L146.759 103.01C147.349 103.12 147.899 103.35 148.479 103.51C149.059 103.67 149.639 103.84 150.189 104.09L151.849 104.79C156.116 106.702 159.866 109.602 162.789 113.25C165.6 116.733 167.607 120.793 168.669 125.14C169.656 129.263 169.748 133.549 168.939 137.71C167.475 145.233 163.207 151.917 156.999 156.41L154.869 157.82C154.139 158.24 153.389 158.6 152.679 158.99C151.266 159.709 149.794 160.305 148.279 160.77C145.547 161.617 142.709 162.068 139.849 162.11C137.441 162.141 135.038 161.889 132.689 161.36L132.629 161.53V161.37C125.619 166.93 122.139 169.68 121.619 170.09Z" fill="#263238"/>
<path d="M135.157 116.681L136.087 134.241C136.127 134.933 136.418 135.588 136.906 136.081C137.394 136.575 138.045 136.873 138.737 136.921C139.461 136.967 140.174 136.735 140.732 136.272C141.29 135.809 141.65 135.15 141.737 134.431L143.867 116.811C143.904 116.496 143.874 116.178 143.778 115.876C143.683 115.574 143.525 115.296 143.314 115.059C143.103 114.823 142.845 114.634 142.556 114.505C142.267 114.376 141.954 114.31 141.637 114.311H137.357C137.055 114.313 136.755 114.377 136.478 114.499C136.201 114.621 135.951 114.798 135.745 115.02C135.539 115.242 135.381 115.504 135.28 115.79C135.179 116.075 135.137 116.378 135.157 116.681Z" fill="#349F6E"/>
<path d="M143.33 145.75C143.063 146.554 142.564 147.26 141.896 147.78C141.227 148.299 140.42 148.609 139.576 148.67C138.731 148.731 137.888 148.54 137.152 148.121C136.416 147.702 135.821 147.075 135.442 146.318C135.062 145.561 134.916 144.709 135.022 143.869C135.127 143.029 135.479 142.239 136.033 141.599C136.588 140.959 137.319 140.498 138.136 140.274C138.952 140.05 139.817 140.073 140.62 140.34C141.697 140.699 142.587 141.47 143.095 142.484C143.603 143.499 143.688 144.673 143.33 145.75Z" fill="#349F6E"/>
</svg>
