<svg width="400" height="400" viewBox="0 0 400 400" fill="none" xmlns="http://www.w3.org/2000/svg">
<path d="M103.211 327.504L101.955 328.848L64.3867 373.624L147.683 373.672L170.595 327.744L103.211 327.504Z" fill="#EBEBEB"/>
<path d="M87.1118 329.592L85.8558 330.984L44.0078 377.28L125.176 377.336L154.496 329.84L87.1118 329.592Z" fill="#FAFAFA"/>
<path d="M87.1136 329.6H87.4176H88.3376H105.602L154.49 329.704H154.81L154.642 329.976L125.354 377.44L125.29 377.536H114.05L44.0016 377.456H43.6016L43.8656 377.16L75.2016 342.608L84.0016 333.008L86.3216 330.48C86.8496 329.904 87.1216 329.624 87.1216 329.624L86.3216 330.52C85.7882 331.101 85.0282 331.954 84.0416 333.08L75.3616 342.752L44.1616 377.4L44.0336 377.104H114.074H125.202L125.026 377.2C135.714 359.912 145.714 343.72 154.362 329.72L154.522 330L105.722 329.736L92.0016 329.664L88.3856 329.624H87.4576L87.1136 329.6Z" fill="#E0E0E0"/>
<path d="M118.056 368.8C117.865 368.818 117.672 368.818 117.48 368.8H115.88H109.848L89.9522 368.68L70.0482 368.44L64.0002 368.344L62.4002 368.296C62.2071 368.3 62.014 368.284 61.8242 368.248C62.014 368.212 62.2073 368.199 62.4002 368.208H64.0002H70.0242L89.9282 368.328L109.824 368.568L115.856 368.688L117.456 368.744C117.658 368.74 117.859 368.759 118.056 368.8Z" fill="#E0E0E0"/>
<path d="M120.467 363.793C120.281 363.824 120.094 363.837 119.907 363.833H118.307H112.427L93.0105 363.721L73.6025 363.513L67.7225 363.393L66.1225 363.337C65.9352 363.336 65.7481 363.322 65.5625 363.297C65.7469 363.261 65.9349 363.248 66.1225 363.257H67.7225L73.6025 363.201L93.0185 363.321L112.434 363.553L118.322 363.673L119.922 363.729C120.106 363.731 120.288 363.752 120.467 363.793Z" fill="#E0E0E0"/>
<path d="M124.088 358.784C123.905 358.801 123.72 358.801 123.536 358.784H121.936H116.16L97.0963 358.672L78.0403 358.44L72.2963 358.4L70.6963 358.352C70.514 358.351 70.3321 358.335 70.1523 358.304C70.3314 358.269 70.5141 358.256 70.6963 358.264H72.2963H78.0723L97.1363 358.376L116.192 358.616L121.968 358.728L123.568 358.784C123.741 358.766 123.915 358.766 124.088 358.784Z" fill="#E0E0E0"/>
<path d="M128.281 354.144C128.102 354.157 127.923 354.157 127.745 354.144H126.209H120.545L101.881 354.04L83.2008 353.88L77.5448 353.76L76.0008 353.704C75.8215 353.702 75.6424 353.689 75.4648 353.664C75.6401 353.62 75.8202 353.598 76.0008 353.6H77.5448H83.2008L101.873 353.712L120.545 353.936L126.201 354.056L127.737 354.112C127.919 354.101 128.101 354.112 128.281 354.144Z" fill="#E0E0E0"/>
<path d="M131.378 349.264C131.202 349.3 131.022 349.314 130.842 349.305H129.298H123.642L104.97 349.192L86.2983 348.968L80.6423 348.848L79.1063 348.8C78.9264 348.805 78.7466 348.789 78.5703 348.752C78.7487 348.739 78.9279 348.739 79.1063 348.752H80.6423H86.3063L104.978 348.857L123.642 349.088L129.306 349.209L130.842 349.257L131.378 349.264Z" fill="#E0E0E0"/>
<path d="M135.945 344.425C135.766 344.439 135.587 344.439 135.409 344.425H133.865H128.209L109.537 344.321L90.8727 344.089L85.2087 343.969L83.6727 343.913C83.4934 343.912 83.3143 343.898 83.1367 343.873C83.313 343.837 83.4931 343.824 83.6727 343.833H85.2087H90.8727L109.545 343.937L128.209 344.169L133.873 344.289L135.409 344.345C135.59 344.351 135.77 344.378 135.945 344.425Z" fill="#E0E0E0"/>
<path d="M139.296 339.688C139.118 339.707 138.938 339.707 138.76 339.688H137.216H131.56L112.896 339.496L94.2241 339.2L88.5681 339.056L87.0321 339C86.852 339 86.6723 338.981 86.4961 338.944C86.6745 338.93 86.8537 338.93 87.0321 338.944H88.5681H94.2241L112.896 339.136L131.568 339.456L137.224 339.592L138.76 339.656C138.939 339.646 139.119 339.657 139.296 339.688Z" fill="#E0E0E0"/>
<path d="M144.456 335.201C144.278 335.223 144.098 335.223 143.92 335.201H142.4H136.72L118.048 335.009L99.3844 334.689L93.7284 334.545L92.1844 334.489C92.0045 334.494 91.8247 334.477 91.6484 334.441C91.8254 334.411 92.0049 334.397 92.1844 334.401H93.7284H99.3844L118.056 334.593L136.72 334.913L142.384 335.057L143.92 335.113C144.101 335.127 144.281 335.156 144.456 335.201Z" fill="#E0E0E0"/>
<path d="M63.8984 185.113C63.8984 179.513 67.2984 175.889 72.1064 175.889C76.9144 175.889 80.2664 179.425 80.2664 185.113C80.2664 190.801 76.9144 194.337 72.1064 194.337C67.2984 194.337 63.8984 190.753 63.8984 185.113ZM75.5464 185.113C75.5464 181.529 74.1784 179.809 72.1064 179.809C70.0344 179.809 68.6664 181.577 68.6664 185.113C68.6664 188.649 70.0744 190.417 72.1064 190.417C74.1384 190.417 75.5464 188.697 75.5464 185.113ZM91.7704 176.265H97.3704L74.8424 209.729H69.2424L91.7704 176.265ZM86.3464 200.881C86.3464 195.281 89.7464 191.657 94.5064 191.657C99.2664 191.657 102.714 195.241 102.714 200.881C102.714 206.521 99.3144 210.113 94.5064 210.113C89.6984 210.113 86.3464 206.521 86.3464 200.881ZM97.9464 200.881C97.9464 197.345 96.5784 195.577 94.5064 195.577C92.4344 195.577 91.0664 197.297 91.0664 200.881C91.0664 204.465 92.4824 206.193 94.5064 206.193C96.5304 206.193 97.9464 204.425 97.9464 200.881Z" fill="#EBEBEB"/>
<path d="M332.506 54.8885C333.606 62.0618 332.553 69.4002 329.48 75.9746C326.408 82.5491 321.453 88.0641 315.245 91.8214C309.036 95.5788 301.852 97.4095 294.602 97.0818C287.352 96.7541 280.363 94.2828 274.518 89.9807C268.674 85.6787 264.237 79.7392 261.77 72.9143C259.303 66.0895 258.916 58.686 260.659 51.6412C262.402 44.5964 266.195 38.2271 271.56 33.3394C276.924 28.4518 283.618 25.2657 290.794 24.1845C300.397 22.727 310.185 25.1426 318.007 30.9004C325.829 36.6581 331.044 45.2865 332.506 54.8885Z" fill="#F5F5F5"/>
<path d="M323.88 56.1918C324.721 61.6595 323.92 67.2537 321.58 72.2662C319.239 77.2786 315.464 81.4838 310.732 84.3494C306 87.215 300.524 88.612 294.998 88.3636C289.471 88.1152 284.143 86.2326 279.687 82.9541C275.231 79.6756 271.849 75.1487 269.967 69.9465C268.086 64.7443 267.79 59.1008 269.118 53.7305C270.446 48.3603 273.337 43.5048 277.426 39.7788C281.515 36.0529 286.618 33.624 292.088 32.7998C299.405 31.6909 306.863 33.5315 312.824 37.9175C318.785 42.3035 322.762 48.8761 323.88 56.1918Z" fill="#EBEBEB"/>
<path d="M323.737 55.3288C323.577 55.3288 323.273 54.1608 322.505 52.1288C321.444 49.2453 319.938 46.5459 318.041 44.1288C316.73 42.479 315.241 40.9792 313.601 39.6568C311.727 38.151 309.668 36.8926 307.473 35.9128C306.291 35.3821 305.071 34.9383 303.825 34.5848C302.528 34.214 301.204 33.9465 299.865 33.7848C298.478 33.6053 297.079 33.5304 295.681 33.5608C294.243 33.6012 292.809 33.7483 291.393 34.0008C289.979 34.2705 288.586 34.6394 287.225 35.1048C285.917 35.572 284.646 36.139 283.425 36.8008C282.228 37.4267 281.084 38.1463 280.001 38.9528C278.956 39.7185 277.972 40.5637 277.057 41.4808C275.351 43.173 273.872 45.0796 272.657 47.1528C271.598 48.9669 270.744 50.8935 270.113 52.8968C269.208 55.8264 268.765 58.879 268.801 61.9448C268.801 64.1368 268.953 65.3608 268.801 65.3848C268.649 65.4088 268.257 64.2328 268.001 61.9928C267.647 58.805 267.892 55.5792 268.721 52.4808C269.288 50.327 270.11 48.2484 271.169 46.2888C272.397 44.0317 273.926 41.9515 275.713 40.1048C276.678 39.0993 277.718 38.1686 278.825 37.3208C281.177 35.5088 283.802 34.0804 286.601 33.0888C288.067 32.573 289.57 32.1691 291.097 31.8808C292.625 31.6123 294.17 31.4572 295.721 31.4168C297.23 31.3896 298.738 31.4805 300.233 31.6888C301.674 31.892 303.097 32.2076 304.489 32.6328C305.824 33.0286 307.126 33.5261 308.385 34.1208C312.727 36.1656 316.471 39.2923 319.257 43.2008C321.13 45.8048 322.503 48.7346 323.305 51.8408C323.841 54.0568 323.865 55.3048 323.737 55.3288Z" fill="#E0E0E0"/>
<path d="M301.857 76.3694L302.657 81.1694L298.369 81.8814L297.569 77.2094C293.281 77.6494 288.993 77.0014 286.329 75.5454L287.817 69.9454C290.557 71.2524 293.589 71.8284 296.617 71.6174L295.433 64.4574C290.481 64.0814 284.905 63.3774 283.889 57.2574C283.137 52.7054 285.793 48.2574 292.441 46.3694L291.641 41.5694L295.929 40.8574L296.729 45.5294C299.825 45.1932 302.956 45.5962 305.865 46.7054L304.593 52.3054C302.387 51.4856 300.041 51.1104 297.689 51.2014L298.897 58.4894C303.841 58.8174 309.297 59.5374 310.337 65.5854C311.073 70.0414 308.449 74.4414 301.857 76.3694ZM294.401 58.1294L293.385 52.0414C291.201 52.9294 290.505 54.3214 290.745 55.7374C290.985 57.1534 292.441 57.8414 294.401 58.1294ZM303.481 67.2414C303.233 65.7374 301.881 65.1294 299.905 64.7934L300.889 70.7054C302.985 69.8814 303.745 68.6094 303.513 67.2414H303.481Z" fill="#E0E0E0"/>
<path d="M373.602 268.913C371.631 274.381 368.083 279.14 363.406 282.59C358.729 286.04 353.134 288.025 347.328 288.293C341.523 288.561 335.768 287.1 330.793 284.096C325.818 281.092 321.846 276.68 319.38 271.417C316.914 266.154 316.065 260.279 316.94 254.533C317.816 248.788 320.376 243.431 324.297 239.142C328.218 234.852 333.324 231.822 338.967 230.436C344.611 229.049 350.54 229.369 356.002 231.353C359.625 232.663 362.954 234.673 365.799 237.27C368.644 239.866 370.95 242.998 372.585 246.486C374.219 249.974 375.15 253.75 375.325 257.599C375.499 261.447 374.914 265.291 373.602 268.913Z" fill="#F5F5F5"/>
<path d="M367.057 266.529C365.557 270.702 362.852 274.336 359.284 276.97C355.717 279.604 351.448 281.121 347.019 281.327C342.589 281.533 338.198 280.419 334.401 278.127C330.605 275.835 327.574 272.468 325.693 268.453C323.812 264.437 323.165 259.953 323.835 255.569C324.504 251.186 326.46 247.099 329.454 243.828C332.447 240.557 336.345 238.248 340.652 237.193C344.959 236.139 349.483 236.387 353.649 237.905C359.223 239.923 363.767 244.073 366.281 249.441C368.795 254.809 369.075 260.955 367.057 266.529Z" fill="#EBEBEB"/>
<path d="M367.289 265.865C367.161 265.825 367.409 264.865 367.657 263.137C368.006 260.705 367.977 258.233 367.569 255.809C367.279 254.164 366.813 252.554 366.177 251.009C365.435 249.233 364.467 247.561 363.297 246.033C362.014 244.343 360.488 242.853 358.769 241.609C357.863 240.953 356.908 240.367 355.913 239.857C354.881 239.332 353.812 238.885 352.713 238.521C351.614 238.172 350.491 237.905 349.353 237.721C348.247 237.541 347.129 237.448 346.009 237.441C344.938 237.432 343.868 237.507 342.809 237.665C341.782 237.803 340.768 238.022 339.777 238.321C337.927 238.858 336.155 239.632 334.505 240.625C333.062 241.495 331.72 242.523 330.505 243.689C328.74 245.4 327.252 247.376 326.097 249.545C325.297 251.089 324.897 252.001 324.769 251.945C324.641 251.889 324.825 250.929 325.489 249.249C326.466 246.878 327.874 244.708 329.641 242.849C330.867 241.552 332.242 240.403 333.737 239.425C335.466 238.313 337.336 237.436 339.297 236.817C340.357 236.479 341.444 236.225 342.545 236.057C343.695 235.87 344.859 235.777 346.025 235.777C347.221 235.755 348.417 235.83 349.601 236.001C352.062 236.387 354.444 237.168 356.657 238.313C357.729 238.873 358.756 239.515 359.729 240.233C361.558 241.586 363.176 243.203 364.529 245.033C366.845 248.138 368.317 251.79 368.801 255.633C369.123 258.184 368.968 260.772 368.345 263.265C367.849 265.009 367.385 265.897 367.289 265.865Z" fill="#E0E0E0"/>
<path d="M343.85 272.296L342.57 275.976L339.282 274.832L340.53 271.248C337.33 269.92 334.57 267.824 333.25 265.776L336.45 262.392C337.891 264.369 339.82 265.937 342.05 266.944L343.954 261.456C340.61 259.296 336.954 256.656 338.586 251.968C339.794 248.48 343.386 246.368 348.77 247.576L350.034 243.928L353.322 245.072L352.074 248.656C354.384 249.6 356.435 251.081 358.058 252.976L355.01 256.448C353.773 255.013 352.264 253.839 350.57 252.992L348.634 258.592C351.986 260.712 355.57 263.32 353.962 267.96C352.754 271.368 349.226 273.464 343.85 272.296ZM345.602 256.624L347.202 251.952C345.322 251.744 344.298 252.456 343.922 253.552C343.546 254.648 344.314 255.656 345.602 256.624ZM348.514 266.504C348.906 265.352 348.17 264.4 346.914 263.416L345.314 267.952C347.122 268.16 348.146 267.56 348.514 266.504Z" fill="#E0E0E0"/>
<path d="M233.473 42.6641H51.6172V161.168H233.473V42.6641Z" fill="#F5F5F5"/>
<path d="M224.481 36.2559H42.625V154.504H224.481V36.2559Z" fill="#EBEBEB"/>
<path d="M369.986 319.575C369.986 319.687 293.778 319.783 199.786 319.783C105.794 319.783 29.6016 319.687 29.6016 319.575C29.6016 319.463 105.794 319.359 199.818 319.359C293.842 319.359 369.986 319.455 369.986 319.575Z" fill="#263238"/>
<path d="M353.157 371.065L281.789 373.377L226.453 322.033H295.797L353.157 371.065Z" fill="#F5F5F5"/>
<path d="M327.614 378.714L256.246 381.026L200.902 329.682H270.246L327.614 378.714Z" fill="#F5F5F5"/>
<path d="M339.622 373.626L268.254 375.938L212.91 324.586H282.262L339.622 373.626Z" fill="#E0E0E0"/>
<path d="M273.422 322.033H204.078L259.414 373.377L333.062 370.993L273.422 322.033Z" fill="#F5F5F5"/>
<path d="M273.424 322.033L273.704 322.241L274.504 322.905L277.704 325.513L289.88 335.433L333.144 370.849L333.52 371.153H333.032L262.4 373.473L259.384 373.569H259.296L259.232 373.513L204 322.161L203.672 321.849H204.12L254.472 321.929L268.512 321.977H272.208C273.008 321.977 273.464 321.977 273.464 321.977H272.184H268.48L254.424 322.025L204.12 322.105L204.24 321.793L259.6 373.121L259.448 373.065L262.464 372.969L333.104 370.705L332.992 371.025L289.864 335.529C284.656 331.217 280.552 327.833 277.744 325.513L274.544 322.857L273.744 322.169L273.424 322.033Z" fill="#263238"/>
<path d="M298.287 351.642C298.287 351.762 287.231 352.202 273.583 352.626C259.935 353.05 248.871 353.306 248.863 353.194C248.855 353.082 259.919 352.634 273.567 352.21C287.215 351.786 298.287 351.53 298.287 351.642Z" fill="#263238"/>
<path d="M304.181 356.001C304.181 356.113 292.981 356.553 279.085 356.977C265.189 357.401 253.981 357.657 253.973 357.537C253.965 357.417 265.173 356.985 279.077 356.561C292.981 356.137 304.181 355.913 304.181 356.001Z" fill="#263238"/>
<path d="M310.4 360.416C310.4 360.528 299.088 360.992 285.128 361.44C271.168 361.888 259.848 362.168 259.84 362.048C259.832 361.928 271.152 361.48 285.112 361.024C299.072 360.568 310.4 360.304 310.4 360.416Z" fill="#263238"/>
<path d="M294.88 347.672C294.88 347.792 283.496 348.248 269.456 348.688C255.416 349.128 244.016 349.408 244.016 349.288C244.016 349.168 255.392 348.72 269.44 348.272C283.488 347.824 294.872 347.56 294.88 347.672Z" fill="#263238"/>
<path d="M271.36 331.256C271.36 331.368 260.8 331.664 247.768 331.92C234.736 332.176 224.176 332.28 224.168 332.16C224.16 332.04 234.728 331.752 247.76 331.504C260.792 331.256 271.36 331.144 271.36 331.256Z" fill="#263238"/>
<path d="M277.253 335.641C277.253 335.753 266.373 336.057 252.941 336.313C239.509 336.569 228.621 336.689 228.613 336.569C228.605 336.449 239.501 336.153 252.933 335.897C266.365 335.641 277.253 335.521 277.253 335.641Z" fill="#263238"/>
<path d="M283.149 340.002C283.149 340.122 271.733 340.434 257.637 340.706C243.541 340.978 232.117 341.098 232.117 340.986C232.117 340.874 243.533 340.554 257.629 340.29C271.725 340.026 283.149 339.906 283.149 340.002Z" fill="#263238"/>
<path d="M289.056 344.401C289.056 344.513 277.632 344.825 263.544 345.097C249.456 345.369 238.016 345.497 238.016 345.377C238.016 345.257 249.44 344.953 263.536 344.681C277.632 344.409 289.048 344.289 289.056 344.401Z" fill="#263238"/>
<path d="M267.95 327.289C267.787 327.325 267.62 327.341 267.454 327.337L266.038 327.401L260.822 327.537L243.614 327.849L226.398 328.001H221.182H219.766C219.601 328.021 219.434 328.021 219.27 328.001C219.432 327.965 219.599 327.949 219.766 327.953L221.182 327.889L226.398 327.753L243.606 327.441L260.806 327.249H266.022H267.446C267.615 327.244 267.784 327.257 267.95 327.289Z" fill="#263238"/>
<path d="M245.704 339.801L227.504 323.137L290.512 320.641L309.024 330.889L245.704 339.801Z" fill="#455A64"/>
<path d="M234.849 325.473L238.393 328.505L238.377 326.345L234.633 323.545L234.849 325.473Z" fill="#263238"/>
<path d="M238.337 326.48L243.441 326.304L239.337 323.328L234.633 323.544L238.337 326.48Z" fill="#349F6E"/>
<path d="M238.336 326.481L238.392 328.505L243.368 328.185L243.44 326.305L238.336 326.481Z" fill="#263238"/>
<path d="M243.441 326.304C241.998 325.541 240.623 324.658 239.329 323.664L239.089 323.488L239.217 323.528C237.692 323.663 236.158 323.663 234.633 323.528C236.14 323.253 237.669 323.108 239.201 323.096H239.273L239.329 323.136L239.577 323.304C240.944 324.197 242.236 325.201 243.441 326.304Z" fill="#263238"/>
<path d="M238.402 328.504C238.29 328.504 238.186 328.056 238.17 327.504C238.154 326.952 238.242 326.496 238.354 326.496C238.466 326.496 238.57 326.944 238.586 327.496C238.602 328.048 238.49 328.496 238.402 328.504Z" fill="#455A64"/>
<path d="M243.392 325.313L246.928 328.345L246.912 326.185L243.168 323.385L243.392 325.313Z" fill="#263238"/>
<path d="M246.88 326.32L251.976 326.144L247.872 323.168L243.168 323.384L246.88 326.32Z" fill="#E0E0E0"/>
<path d="M246.879 326.321L246.927 328.345L251.911 328.017L251.975 326.145L246.879 326.321Z" fill="#263238"/>
<path d="M251.999 326.144C250.559 325.383 249.186 324.5 247.895 323.504L247.647 323.328H247.783C246.256 323.463 244.719 323.463 243.191 323.328C244.699 323.053 246.227 322.909 247.759 322.896H247.831L247.887 322.936L248.135 323.104C249.508 324.005 250.801 325.022 251.999 326.144Z" fill="#263238"/>
<path d="M246.914 328.344C246.794 328.344 246.69 327.896 246.674 327.344C246.658 326.792 246.746 326.336 246.858 326.336C246.97 326.336 247.082 326.776 247.09 327.336C247.098 327.896 247.026 328.336 246.914 328.344Z" fill="#455A64"/>
<path d="M251.56 325.201L255.104 328.233L255.088 326.073L251.344 323.273L251.56 325.201Z" fill="#263238"/>
<path d="M255.048 326.209L260.152 326.041L256.048 323.057L251.344 323.273L255.048 326.209Z" fill="#455A64"/>
<path d="M255.047 326.209L255.103 328.233L260.087 327.913L260.151 326.041L255.047 326.209Z" fill="#263238"/>
<path d="M260.152 326.04C258.712 325.273 257.339 324.388 256.048 323.392L255.8 323.224L255.936 323.264C254.408 323.397 252.872 323.397 251.344 323.264C252.851 322.989 254.38 322.847 255.912 322.84H256L256.056 322.88L256.304 323.056C257.669 323.939 258.956 324.937 260.152 326.04Z" fill="#263238"/>
<path d="M255.09 328.233C254.97 328.233 254.866 327.793 254.85 327.241C254.834 326.689 254.922 326.233 255.034 326.225C255.146 326.217 255.258 326.673 255.266 327.225C255.274 327.777 255.202 328.233 255.09 328.233Z" fill="#455A64"/>
<path d="M260.079 324.961L263.615 327.993L263.599 325.833L259.855 323.033L260.079 324.961Z" fill="#263238"/>
<path d="M263.559 325.968L268.663 325.792L264.559 322.816L259.855 323.032L263.559 325.968Z" fill="#455A64"/>
<path d="M263.559 325.969L263.615 327.993L268.599 327.665L268.663 325.793L263.559 325.969Z" fill="#263238"/>
<path d="M268.663 325.793C267.223 325.031 265.85 324.148 264.559 323.153L264.311 322.977H264.447C262.92 323.112 261.383 323.112 259.855 322.977C261.363 322.702 262.891 322.557 264.423 322.545H264.495L264.551 322.585L264.799 322.753C266.172 323.654 267.465 324.671 268.663 325.793Z" fill="#263238"/>
<path d="M263.601 328C263.481 328 263.377 327.552 263.361 327C263.345 326.448 263.433 325.992 263.545 325.992C263.657 325.992 263.769 326.432 263.777 326.992C263.785 327.552 263.713 328 263.601 328Z" fill="#455A64"/>
<path d="M268.712 324.744L272.248 327.776L272.232 325.616L268.488 322.816L268.712 324.744Z" fill="#263238"/>
<path d="M272.2 325.754L277.304 325.586L273.192 322.602L268.488 322.818L272.2 325.754Z" fill="#455A64"/>
<path d="M272.199 325.752L272.247 327.776L277.231 327.456L277.303 325.584L272.199 325.752Z" fill="#263238"/>
<path d="M277.296 325.601C275.856 324.84 274.483 323.956 273.192 322.961L272.952 322.793H273.08C271.553 322.928 270.016 322.928 268.488 322.793C269.996 322.52 271.524 322.378 273.056 322.369H273.128H273.192L273.432 322.545C274.804 323.453 276.097 324.475 277.296 325.601Z" fill="#263238"/>
<path d="M272.233 327.776C272.121 327.776 272.009 327.336 272.001 326.776C271.993 326.216 272.065 325.776 272.177 325.768C272.289 325.76 272.401 326.216 272.417 326.768C272.433 327.32 272.345 327.776 272.233 327.776Z" fill="#455A64"/>
<path d="M276.95 324.362L280.494 327.394L280.478 325.234L276.734 322.434L276.95 324.362Z" fill="#263238"/>
<path d="M280.438 325.369L285.542 325.193L281.438 322.217L276.734 322.433L280.438 325.369Z" fill="#455A64"/>
<path d="M280.441 325.369L280.497 327.393L285.481 327.065L285.545 325.193L280.441 325.369Z" fill="#263238"/>
<path d="M285.542 325.193C284.102 324.432 282.729 323.549 281.438 322.553L281.19 322.377H281.318C279.793 322.512 278.259 322.512 276.734 322.377C278.242 322.102 279.77 321.958 281.302 321.945H281.374L281.43 321.985L281.678 322.153C283.047 323.06 284.339 324.077 285.542 325.193Z" fill="#263238"/>
<path d="M280.472 327.393C280.36 327.393 280.256 326.945 280.24 326.393C280.224 325.841 280.312 325.385 280.424 325.385C280.536 325.385 280.64 325.825 280.656 326.385C280.672 326.945 280.592 327.385 280.472 327.393Z" fill="#455A64"/>
<path d="M285.017 323.897L288.553 326.929L288.537 324.761L284.793 321.969L285.017 323.897Z" fill="#263238"/>
<path d="M288.505 324.904L293.601 324.728L289.497 321.752L284.793 321.968L288.505 324.904Z" fill="#455A64"/>
<path d="M288.504 324.905L288.552 326.929L293.536 326.601L293.6 324.729L288.504 324.905Z" fill="#263238"/>
<path d="M293.601 324.729C292.156 323.971 290.78 323.088 289.489 322.089L289.249 321.914L289.377 321.953C287.849 322.088 286.313 322.088 284.785 321.953C286.293 321.68 287.821 321.535 289.353 321.521H289.425L289.489 321.561L289.729 321.729C291.102 322.618 292.397 323.622 293.601 324.729Z" fill="#263238"/>
<path d="M288.537 326.928C288.425 326.928 288.313 326.48 288.305 325.928C288.297 325.376 288.369 324.92 288.481 324.92C288.593 324.92 288.705 325.36 288.721 325.92C288.737 326.48 288.649 326.92 288.537 326.928Z" fill="#455A64"/>
<path d="M240.544 331.168L244.088 334.2L244.072 332.04L240.328 329.24L240.544 331.168Z" fill="#263238"/>
<path d="M244.032 332.177L249.136 332.001L245.032 329.025L240.328 329.241L244.032 332.177Z" fill="#455A64"/>
<path d="M244.031 332.176L244.087 334.2L249.063 333.88L249.135 332L244.031 332.176Z" fill="#263238"/>
<path d="M249.136 332C247.693 331.237 246.318 330.354 245.024 329.36L244.784 329.184H244.912C243.387 329.319 241.853 329.319 240.328 329.184C241.836 328.909 243.364 328.764 244.896 328.752H244.968L245.024 328.792L245.272 328.96C246.641 329.866 247.933 330.883 249.136 332Z" fill="#263238"/>
<path d="M244.062 334.201C243.95 334.201 243.846 333.753 243.83 333.201C243.814 332.649 243.902 332.193 244.014 332.193C244.126 332.193 244.23 332.633 244.246 333.193C244.262 333.753 244.182 334.193 244.062 334.201Z" fill="#455A64"/>
<path d="M249.087 331.008L252.623 334.04L252.607 331.88L248.863 329.08L249.087 331.008Z" fill="#263238"/>
<path d="M252.567 332.017L257.671 331.841L253.567 328.865L248.863 329.081L252.567 332.017Z" fill="#455A64"/>
<path d="M252.566 332.016L252.622 334.04L257.606 333.712L257.67 331.84L252.566 332.016Z" fill="#263238"/>
<path d="M257.671 331.841C256.231 331.079 254.858 330.196 253.567 329.201L253.319 329.025L253.455 329.065C251.928 329.2 250.391 329.2 248.863 329.065C250.371 328.79 251.899 328.645 253.431 328.633H253.503L253.559 328.673L253.807 328.841C255.18 329.726 256.473 330.73 257.671 331.841Z" fill="#263238"/>
<path d="M252.609 334.041C252.489 334.041 252.385 333.593 252.369 333.041C252.353 332.489 252.441 332.033 252.553 332.033C252.665 332.033 252.777 332.473 252.785 333.033C252.793 333.593 252.721 334.033 252.609 334.041Z" fill="#455A64"/>
<path d="M257.255 330.897L260.799 333.929L260.783 331.769L257.039 328.969L257.255 330.897Z" fill="#263238"/>
<path d="M260.743 331.904L265.847 331.736L261.743 328.752L257.039 328.968L260.743 331.904Z" fill="#455A64"/>
<path d="M260.742 331.904L260.798 333.928L265.782 333.608L265.846 331.736L260.742 331.904Z" fill="#263238"/>
<path d="M265.847 331.737C264.41 330.967 263.037 330.082 261.743 329.089L261.495 328.921L261.631 328.961C260.103 329.094 258.567 329.094 257.039 328.961C258.546 328.686 260.075 328.545 261.607 328.537H261.679L261.735 328.577L261.983 328.753C263.354 329.636 264.647 330.634 265.847 331.737Z" fill="#263238"/>
<path d="M260.8 333.928C260.68 333.928 260.576 333.488 260.56 332.936C260.544 332.384 260.632 331.928 260.744 331.92C260.856 331.912 260.968 332.368 260.976 332.92C260.984 333.472 260.896 333.928 260.8 333.928Z" fill="#455A64"/>
<path d="M265.767 330.657L269.311 333.689L269.295 331.521L265.551 328.729L265.767 330.657Z" fill="#263238"/>
<path d="M269.255 331.664L274.359 331.488L270.255 328.512L265.551 328.728L269.255 331.664Z" fill="#455A64"/>
<path d="M269.258 331.664L269.314 333.688L274.298 333.36L274.362 331.488L269.258 331.664Z" fill="#263238"/>
<path d="M274.402 331.489C272.961 330.728 271.588 329.844 270.298 328.849L270.05 328.673L270.186 328.713C268.658 328.848 267.121 328.848 265.594 328.713C267.101 328.438 268.63 328.294 270.162 328.281H270.234L270.29 328.321L270.538 328.489C271.907 329.38 273.2 330.383 274.402 331.489Z" fill="#263238"/>
<path d="M269.297 333.688C269.177 333.688 269.073 333.24 269.057 332.688C269.041 332.136 269.129 331.68 269.241 331.68C269.353 331.68 269.465 332.12 269.473 332.68C269.481 333.24 269.409 333.68 269.297 333.688Z" fill="#455A64"/>
<path d="M274.408 330.44L277.944 333.472L277.928 331.312L274.184 328.512L274.408 330.44Z" fill="#263238"/>
<path d="M277.896 331.449L283 331.281L278.888 328.297L274.184 328.513L277.896 331.449Z" fill="#455A64"/>
<path d="M277.895 331.449L277.943 333.473L282.927 333.153L282.999 331.281L277.895 331.449Z" fill="#263238"/>
<path d="M282.992 331.273C281.551 330.512 280.178 329.628 278.888 328.633L278.648 328.465H278.776C277.248 328.6 275.711 328.6 274.184 328.465C275.691 328.191 277.219 328.047 278.752 328.033H278.824H278.888L279.128 328.209C280.5 329.119 281.793 330.144 282.992 331.273Z" fill="#263238"/>
<path d="M277.928 333.473C277.816 333.473 277.704 333.033 277.696 332.473C277.688 331.913 277.76 331.473 277.872 331.465C277.984 331.457 278.096 331.913 278.112 332.465C278.128 333.017 278.04 333.473 277.928 333.473Z" fill="#455A64"/>
<path d="M282.65 330.057L286.194 333.089L286.178 330.921L282.434 328.129L282.65 330.057Z" fill="#263238"/>
<path d="M286.138 331.064L291.242 330.888L287.138 327.912L282.434 328.128L286.138 331.064Z" fill="#455A64"/>
<path d="M286.137 331.065L286.193 333.089L291.169 332.761L291.241 330.889L286.137 331.065Z" fill="#263238"/>
<path d="M291.242 330.888C289.799 330.125 288.423 329.242 287.13 328.248L286.89 328.072L287.018 328.112C285.493 328.247 283.959 328.247 282.434 328.112C283.941 327.837 285.469 327.692 287.002 327.68H287.074L287.13 327.72L287.378 327.888C288.747 328.778 290.039 329.782 291.242 330.888Z" fill="#263238"/>
<path d="M286.167 333.088C286.055 333.088 285.951 332.64 285.935 332.088C285.919 331.536 286.007 331.08 286.119 331.08C286.231 331.08 286.335 331.52 286.351 332.08C286.367 332.64 286.287 333.08 286.167 333.088Z" fill="#455A64"/>
<path d="M290.712 329.592L294.248 332.624L294.232 330.456L290.488 327.664L290.712 329.592Z" fill="#263238"/>
<path d="M294.2 330.601L299.304 330.425L295.192 327.449L290.488 327.665L294.2 330.601Z" fill="#455A64"/>
<path d="M294.199 330.6L294.247 332.624L299.231 332.296L299.303 330.424L294.199 330.6Z" fill="#263238"/>
<path d="M299.296 330.401C297.856 329.64 296.483 328.757 295.192 327.761L294.952 327.585L295.08 327.625C293.553 327.76 292.016 327.76 290.488 327.625C291.995 327.347 293.524 327.202 295.056 327.193H295.128H295.192L295.432 327.361C296.807 328.259 298.1 329.277 299.296 330.401Z" fill="#263238"/>
<path d="M294.233 332.625C294.121 332.625 294.009 332.177 294.001 331.625C293.993 331.073 294.065 330.617 294.177 330.617C294.289 330.617 294.401 331.057 294.417 331.617C294.433 332.177 294.345 332.617 294.233 332.625Z" fill="#455A64"/>
<path d="M326.72 326.313L255.28 330.201L245.792 339.169L227.504 323.137V327.793L246.448 345.945L256.904 335.777L327.808 331.545L326.72 326.313Z" fill="#263238"/>
<path d="M246.449 345.945L311.001 342.169L327.809 331.545L255.193 334.393L246.449 345.945Z" fill="#263238"/>
<path d="M327.809 331.545C327.74 331.57 327.667 331.584 327.593 331.585L326.945 331.641L324.457 331.825L315.305 332.441L285.089 334.305L256.913 335.905L257.009 335.865L249.321 343.249C248.417 344.097 247.721 344.769 247.209 345.249L246.649 345.753C246.59 345.817 246.523 345.873 246.449 345.921C246.449 345.921 246.497 345.849 246.617 345.721L247.145 345.177L249.201 343.121L256.793 335.641L256.833 335.601H256.889L285.065 333.873L315.281 332.129L324.449 331.649L326.937 331.545H327.585H327.809Z" fill="#455A64"/>
<path d="M256.905 335.777C256.438 334.921 256.096 334.002 255.889 333.049C255.556 332.132 255.349 331.174 255.273 330.201C255.741 331.057 256.083 331.976 256.289 332.929C256.623 333.846 256.83 334.804 256.905 335.777Z" fill="#455A64"/>
<path d="M335.752 216.447L271.632 204.174C271.165 204.085 270.721 203.905 270.324 203.644C269.927 203.383 269.586 203.046 269.319 202.653C269.053 202.26 268.866 201.819 268.77 201.354C268.674 200.888 268.671 200.409 268.76 199.942L289.392 92.1425C289.65 90.8059 290.427 89.6259 291.553 88.8612C292.679 88.0964 294.062 87.8092 295.4 88.0625L356.536 99.7665C357.874 100.022 359.055 100.799 359.82 101.926C360.585 103.052 360.871 104.437 360.616 105.774L340 213.599C339.908 214.064 339.725 214.508 339.462 214.903C339.199 215.298 338.86 215.638 338.466 215.902C338.071 216.167 337.629 216.351 337.163 216.444C336.697 216.538 336.218 216.538 335.752 216.447Z" fill="#455A64"/>
<g opacity="0.4">
<path d="M335.705 216.43L271.585 204.158C271.119 204.069 270.674 203.889 270.277 203.628C269.881 203.367 269.539 203.03 269.272 202.637C269.006 202.244 268.819 201.803 268.723 201.337C268.627 200.872 268.624 200.393 268.713 199.926L289.345 92.1263C289.601 90.7886 290.378 89.6073 291.504 88.8422C292.631 88.0771 294.015 87.7908 295.353 88.0463L356.489 99.7503C357.826 100.008 359.006 100.785 359.77 101.911C360.535 103.037 360.822 104.421 360.569 105.758L339.937 213.598C339.748 214.533 339.197 215.355 338.404 215.886C337.611 216.416 336.641 216.612 335.705 216.43Z" fill="black"/>
</g>
<path d="M330.17 215.359L266.05 203.079C265.584 202.991 265.139 202.811 264.743 202.551C264.346 202.291 264.004 201.955 263.738 201.563C263.471 201.17 263.284 200.729 263.188 200.265C263.092 199.8 263.088 199.321 263.178 198.855L283.818 91.0471C283.943 90.3845 284.199 89.7532 284.569 89.1896C284.939 88.6259 285.417 88.141 285.976 87.7626C286.534 87.3842 287.161 87.1199 287.822 86.9847C288.483 86.8496 289.164 86.8463 289.826 86.9751L350.962 98.6711C351.624 98.7986 352.255 99.0554 352.818 99.4268C353.381 99.7982 353.866 100.277 354.244 100.836C354.622 101.394 354.886 102.022 355.022 102.683C355.158 103.344 355.162 104.025 355.034 104.687L334.402 212.487C334.22 213.428 333.672 214.259 332.879 214.797C332.086 215.335 331.112 215.537 330.17 215.359Z" fill="#455A64"/>
<path d="M299.356 182.358L279.14 178.487C278.09 178.286 277.075 178.974 276.874 180.024L275.57 186.837C275.369 187.887 276.057 188.901 277.107 189.102L297.324 192.973C298.374 193.175 299.388 192.486 299.589 191.436L300.894 184.624C301.095 183.574 300.407 182.559 299.356 182.358Z" fill="#455A64"/>
<g opacity="0.2">
<path d="M299.356 182.358L279.14 178.487C278.09 178.286 277.075 178.974 276.874 180.024L275.57 186.837C275.369 187.887 276.057 188.901 277.107 189.102L297.324 192.973C298.374 193.175 299.388 192.486 299.589 191.436L300.894 184.624C301.095 183.574 300.407 182.559 299.356 182.358Z" fill="black"/>
</g>
<path d="M288.171 98.6726L283.598 122.559L344.491 134.219L349.065 110.333L288.171 98.6726Z" fill="#FAFAFA"/>
<path d="M344.465 134.207C344.465 134.207 344.465 134.055 344.537 133.775C344.609 133.495 344.665 133.079 344.761 132.543C344.969 131.455 345.265 129.855 345.657 127.791C346.457 123.671 347.561 117.711 348.961 110.303L349.017 110.391L288.129 98.7668L288.249 98.6868C286.649 107.039 285.105 115.111 283.673 122.567L283.593 122.455C301.193 125.847 316.393 128.767 327.225 130.855L339.897 133.303L343.289 133.967L344.169 134.143L344.473 134.207L344.177 134.159L343.313 133.999L339.937 133.359L327.273 130.959L283.561 122.639H283.457V122.543C284.881 115.079 286.425 107.007 288.025 98.6548V98.5508H288.129L349.009 110.239H349.081V110.311C347.641 117.727 346.489 123.703 345.689 127.823C345.289 129.879 344.977 131.471 344.769 132.551L344.521 133.775C344.489 134.071 344.465 134.207 344.465 134.207Z" fill="#263238"/>
<path d="M293.854 134.419L286.775 133.063C285.872 132.89 285.001 133.482 284.828 134.384L283.472 141.464C283.299 142.366 283.891 143.238 284.793 143.411L291.873 144.767C292.775 144.939 293.647 144.348 293.82 143.445L295.176 136.366C295.349 135.463 294.757 134.591 293.854 134.419Z" fill="#455A64"/>
<g opacity="0.2">
<path d="M293.85 134.419L286.771 133.063C285.868 132.89 284.997 133.482 284.824 134.384L283.468 141.464C283.295 142.366 283.887 143.238 284.79 143.411L291.869 144.767C292.772 144.939 293.643 144.348 293.816 143.445L295.172 136.366C295.345 135.463 294.753 134.591 293.85 134.419Z" fill="black"/>
</g>
<path d="M292.249 134.106L285.169 132.75C284.267 132.578 283.395 133.169 283.222 134.072L281.867 141.151C281.694 142.054 282.285 142.926 283.188 143.098L290.267 144.454C291.17 144.627 292.042 144.035 292.215 143.133L293.57 136.053C293.743 135.151 293.151 134.279 292.249 134.106Z" fill="#263238"/>
<path d="M288.89 136.52L288.09 140.832L287.09 140.648L287.762 137.136L286.898 136.968L287.05 136.168L288.89 136.52Z" fill="white"/>
<path d="M308.284 137.17L301.205 135.815C300.302 135.642 299.43 136.234 299.257 137.136L297.902 144.216C297.729 145.118 298.321 145.99 299.223 146.163L306.303 147.518C307.205 147.691 308.077 147.1 308.25 146.197L309.605 139.118C309.778 138.215 309.187 137.343 308.284 137.17Z" fill="#455A64"/>
<g opacity="0.2">
<path d="M308.284 137.17L301.205 135.815C300.302 135.642 299.43 136.234 299.257 137.136L297.902 144.216C297.729 145.118 298.321 145.99 299.223 146.163L306.303 147.518C307.205 147.691 308.077 147.1 308.25 146.197L309.605 139.118C309.778 138.215 309.187 137.343 308.284 137.17Z" fill="black"/>
</g>
<path d="M306.682 136.868L299.603 135.512C298.7 135.339 297.829 135.931 297.656 136.834L296.3 143.913C296.127 144.816 296.719 145.687 297.622 145.86L304.701 147.216C305.604 147.389 306.475 146.797 306.648 145.894L308.004 138.815C308.177 137.912 307.585 137.041 306.682 136.868Z" fill="#263238"/>
<path d="M304.209 143.078L304.057 143.878L300.793 143.254L300.921 142.606L302.881 141.358C303.337 141.062 303.441 140.854 303.481 140.646C303.553 140.31 303.353 140.062 302.897 139.974C302.725 139.937 302.547 139.941 302.377 139.987C302.207 140.033 302.051 140.119 301.921 140.238L301.281 139.63C301.53 139.404 301.831 139.242 302.158 139.16C302.484 139.077 302.826 139.077 303.153 139.158C304.113 139.342 304.657 139.958 304.505 140.758C304.448 141.024 304.331 141.273 304.161 141.485C303.992 141.698 303.775 141.868 303.529 141.982L302.353 142.726L304.209 143.078Z" fill="white"/>
<path d="M323.245 140.038L316.166 138.682C315.263 138.509 314.391 139.101 314.218 140.003L312.863 147.083C312.69 147.985 313.281 148.857 314.184 149.03L321.263 150.386C322.166 150.559 323.038 149.967 323.211 149.064L324.566 141.985C324.739 141.082 324.148 140.211 323.245 140.038Z" fill="#455A64"/>
<g opacity="0.2">
<path d="M323.245 140.038L316.166 138.682C315.263 138.509 314.391 139.101 314.218 140.003L312.863 147.083C312.69 147.985 313.281 148.857 314.184 149.03L321.263 150.386C322.166 150.559 323.038 149.967 323.211 149.064L324.566 141.985C324.739 141.082 324.148 140.211 323.245 140.038Z" fill="black"/>
</g>
<path d="M321.651 139.735L314.572 138.379C313.669 138.207 312.797 138.798 312.625 139.701L311.269 146.78C311.096 147.683 311.688 148.555 312.59 148.727L319.67 150.083C320.572 150.256 321.444 149.664 321.617 148.762L322.973 141.682C323.145 140.78 322.554 139.908 321.651 139.735Z" fill="#263238"/>
<path d="M319.202 145.432C319.058 146.16 318.402 146.72 317.146 146.488C316.561 146.379 316.022 146.101 315.594 145.688L316.122 144.992C316.431 145.32 316.838 145.539 317.282 145.616C317.778 145.712 318.13 145.568 318.194 145.216C318.258 144.864 318.058 144.64 317.49 144.536L317.034 144.448L317.162 143.784L318.242 142.984L316.402 142.632L316.554 141.832L319.578 142.408L319.45 143.056L318.298 144C318.601 144.081 318.862 144.274 319.03 144.539C319.197 144.805 319.259 145.123 319.202 145.432Z" fill="white"/>
<path d="M338.21 142.905L331.13 141.549C330.228 141.376 329.356 141.968 329.183 142.871L327.828 149.95C327.655 150.853 328.246 151.724 329.149 151.897L336.228 153.253C337.131 153.426 338.003 152.834 338.176 151.931L339.531 144.852C339.704 143.95 339.112 143.078 338.21 142.905Z" fill="#455A64"/>
<g opacity="0.2">
<path d="M338.206 142.905L331.126 141.549C330.224 141.376 329.352 141.968 329.179 142.871L327.824 149.95C327.651 150.853 328.242 151.724 329.145 151.897L336.224 153.253C337.127 153.426 337.999 152.834 338.172 151.931L339.527 144.852C339.7 143.95 339.108 143.078 338.206 142.905Z" fill="black"/>
</g>
<path d="M336.647 142.6L329.568 141.245C328.665 141.072 327.793 141.663 327.621 142.566L326.265 149.645C326.092 150.548 326.684 151.42 327.586 151.593L334.666 152.948C335.568 153.121 336.44 152.529 336.613 151.627L337.969 144.547C338.141 143.645 337.55 142.773 336.647 142.6Z" fill="#263238"/>
<path d="M329.845 146.273L329.77 146.666L334.39 147.551L334.465 147.158L329.845 146.273Z" fill="white"/>
<path d="M333.232 145.031C333.208 145.19 333.137 145.338 333.028 145.457C332.918 145.575 332.776 145.657 332.619 145.693C332.462 145.729 332.297 145.717 332.148 145.658C331.998 145.599 331.869 145.496 331.779 145.362C331.688 145.229 331.64 145.072 331.641 144.911C331.641 144.749 331.69 144.592 331.782 144.46C331.873 144.327 332.002 144.225 332.153 144.167C332.303 144.109 332.467 144.098 332.624 144.135C332.819 144.181 332.99 144.298 333.103 144.464C333.215 144.63 333.261 144.832 333.232 145.031Z" fill="white"/>
<path d="M332.466 149.064C332.443 149.223 332.372 149.372 332.262 149.49C332.153 149.608 332.01 149.691 331.853 149.726C331.696 149.762 331.532 149.75 331.382 149.691C331.232 149.632 331.103 149.529 331.013 149.396C330.923 149.262 330.874 149.105 330.875 148.944C330.876 148.783 330.925 148.626 331.016 148.493C331.107 148.36 331.237 148.258 331.387 148.2C331.537 148.142 331.702 148.131 331.858 148.168C332.054 148.214 332.224 148.331 332.337 148.497C332.45 148.663 332.496 148.865 332.466 149.064Z" fill="white"/>
<g opacity="0.2">
<path d="M289.536 159.998L281.344 158.398C281.058 158.342 280.806 158.175 280.643 157.934C280.48 157.693 280.418 157.397 280.472 157.11L282.072 148.918C282.127 148.633 282.292 148.381 282.532 148.218C282.772 148.054 283.067 147.993 283.352 148.046L291.552 149.646C291.695 149.671 291.83 149.724 291.952 149.803C292.073 149.881 292.177 149.983 292.259 150.102C292.34 150.221 292.397 150.356 292.425 150.497C292.453 150.639 292.453 150.785 292.424 150.926L290.824 159.126C290.768 159.412 290.601 159.664 290.36 159.828C290.119 159.991 289.823 160.052 289.536 159.998Z" fill="black"/>
</g>
<path d="M289.346 149.266L282.267 147.911C281.365 147.738 280.493 148.329 280.32 149.232L278.964 156.311C278.791 157.214 279.383 158.086 280.286 158.259L287.365 159.614C288.268 159.787 289.139 159.195 289.312 158.293L290.668 151.213C290.841 150.311 290.249 149.439 289.346 149.266Z" fill="#263238"/>
<path d="M286.594 155.335L285.89 155.199L285.714 156.103L284.746 155.919L284.914 155.015L282.594 154.567L282.722 153.895L285.282 151.551L286.33 151.751L283.93 153.983L285.09 154.207L285.242 153.407L286.186 153.583L286.034 154.383L286.73 154.519L286.594 155.335Z" fill="white"/>
<path d="M305.378 152.338L298.298 150.983C297.396 150.81 296.524 151.402 296.351 152.304L294.996 159.384C294.823 160.286 295.414 161.158 296.317 161.331L303.396 162.686C304.299 162.859 305.171 162.268 305.344 161.365L306.699 154.286C306.872 153.383 306.28 152.511 305.378 152.338Z" fill="#455A64"/>
<g opacity="0.2">
<path d="M305.378 152.338L298.298 150.983C297.396 150.81 296.524 151.402 296.351 152.304L294.996 159.384C294.823 160.286 295.414 161.158 296.317 161.331L303.396 162.686C304.299 162.859 305.171 162.268 305.344 161.365L306.699 154.286C306.872 153.383 306.28 152.511 305.378 152.338Z" fill="black"/>
</g>
<path d="M303.788 152.028L296.709 150.672C295.806 150.499 294.934 151.091 294.761 151.994L293.406 159.073C293.233 159.976 293.824 160.847 294.727 161.02L301.806 162.376C302.709 162.549 303.581 161.957 303.754 161.055L305.109 153.975C305.282 153.073 304.691 152.201 303.788 152.028Z" fill="#263238"/>
<path d="M300.936 157.599C300.784 158.399 300.096 158.927 298.864 158.687C298.28 158.579 297.74 158.301 297.312 157.887L297.848 157.199C298.157 157.523 298.56 157.742 299 157.823C299.504 157.919 299.848 157.767 299.92 157.415C299.992 157.063 299.8 156.815 299.024 156.663L297.92 156.455L298.608 154.055L301.232 154.559L301.08 155.359L299.28 155.015L299.056 155.815L299.408 155.887C300.688 156.175 301.08 156.847 300.936 157.599Z" fill="white"/>
<path d="M320.343 155.198L313.263 153.842C312.361 153.669 311.489 154.261 311.316 155.164L309.96 162.243C309.788 163.146 310.379 164.017 311.282 164.19L318.361 165.546C319.264 165.719 320.136 165.127 320.308 164.224L321.664 157.145C321.837 156.242 321.245 155.371 320.343 155.198Z" fill="#455A64"/>
<g opacity="0.2">
<path d="M320.343 155.198L313.263 153.842C312.361 153.669 311.489 154.261 311.316 155.164L309.96 162.243C309.788 163.146 310.379 164.017 311.282 164.19L318.361 165.546C319.264 165.719 320.136 165.127 320.308 164.224L321.664 157.145C321.837 156.242 321.245 155.371 320.343 155.198Z" fill="black"/>
</g>
<path d="M318.741 154.895L311.662 153.54C310.759 153.367 309.887 153.958 309.714 154.861L308.359 161.94C308.186 162.843 308.778 163.715 309.68 163.888L316.76 165.243C317.662 165.416 318.534 164.824 318.707 163.922L320.062 156.842C320.235 155.94 319.644 155.068 318.741 154.895Z" fill="#263238"/>
<path d="M316.204 160.528C316.159 160.731 316.072 160.922 315.95 161.09C315.827 161.258 315.671 161.399 315.492 161.505C315.312 161.61 315.113 161.677 314.907 161.701C314.7 161.726 314.491 161.708 314.292 161.648C313.108 161.424 312.508 160.536 312.78 159.144C312.804 158.835 312.896 158.535 313.048 158.266C313.2 157.996 313.408 157.762 313.659 157.581C313.91 157.4 314.198 157.276 314.502 157.217C314.806 157.158 315.119 157.166 315.42 157.24C315.841 157.311 316.236 157.493 316.564 157.768L316.052 158.432C315.842 158.232 315.577 158.101 315.292 158.056C315.128 158.015 314.957 158.009 314.791 158.04C314.625 158.071 314.467 158.137 314.329 158.235C314.191 158.332 314.076 158.457 313.99 158.603C313.905 158.749 313.852 158.912 313.836 159.08C314.003 158.975 314.19 158.905 314.385 158.873C314.58 158.842 314.78 158.849 314.972 158.896C315.162 158.916 315.347 158.975 315.514 159.069C315.68 159.164 315.826 159.291 315.942 159.444C316.057 159.597 316.14 159.773 316.185 159.959C316.23 160.145 316.236 160.339 316.204 160.528ZM315.228 160.392C315.247 160.298 315.247 160.202 315.226 160.109C315.205 160.016 315.164 159.929 315.107 159.853C315.049 159.777 314.976 159.714 314.892 159.669C314.808 159.624 314.715 159.598 314.62 159.592C314.529 159.564 314.434 159.555 314.34 159.566C314.246 159.577 314.156 159.607 314.074 159.654C313.992 159.701 313.921 159.765 313.865 159.841C313.809 159.917 313.769 160.004 313.748 160.096C313.676 160.464 313.9 160.784 314.38 160.896C314.467 160.919 314.558 160.925 314.648 160.912C314.737 160.9 314.823 160.869 314.9 160.821C314.977 160.774 315.044 160.712 315.096 160.638C315.148 160.564 315.185 160.48 315.204 160.392H315.228Z" fill="white"/>
<path d="M335.304 158.065L328.224 156.709C327.322 156.537 326.45 157.128 326.277 158.031L324.921 165.11C324.748 166.013 325.34 166.885 326.243 167.057L333.322 168.413C334.225 168.586 335.096 167.994 335.269 167.092L336.625 160.012C336.798 159.11 336.206 158.238 335.304 158.065Z" fill="#455A64"/>
<g opacity="0.2">
<path d="M335.304 158.065L328.224 156.709C327.322 156.537 326.45 157.128 326.277 158.031L324.921 165.11C324.748 166.013 325.34 166.885 326.243 167.057L333.322 168.413C334.225 168.586 335.096 167.994 335.269 167.092L336.625 160.012C336.798 159.11 336.206 158.238 335.304 158.065Z" fill="black"/>
</g>
<path d="M333.702 157.762L326.623 156.407C325.72 156.234 324.848 156.825 324.675 157.728L323.32 164.807C323.147 165.71 323.739 166.582 324.641 166.755L331.72 168.11C332.623 168.283 333.495 167.692 333.668 166.789L335.023 159.71C335.196 158.807 334.605 157.935 333.702 157.762Z" fill="#263238"/>
<path d="M331.049 160.785L327.117 163.367L327.337 163.702L331.268 161.119L331.049 160.785Z" fill="white"/>
<path d="M328.038 160.18L327.707 160.404L330.349 164.296L330.68 164.072L328.038 160.18Z" fill="white"/>
<path d="M288.061 164.616L280.982 163.26C280.079 163.087 279.208 163.679 279.035 164.582L277.679 171.661C277.506 172.564 278.098 173.435 279 173.608L286.08 174.964C286.982 175.137 287.854 174.545 288.027 173.642L289.383 166.563C289.556 165.66 288.964 164.789 288.061 164.616Z" fill="#455A64"/>
<g opacity="0.2">
<path d="M288.057 164.616L280.978 163.26C280.075 163.087 279.204 163.679 279.031 164.582L277.675 171.661C277.502 172.564 278.094 173.435 278.997 173.608L286.076 174.964C286.979 175.137 287.85 174.545 288.023 173.642L289.379 166.563C289.552 165.66 288.96 164.789 288.057 164.616Z" fill="black"/>
</g>
<path d="M286.475 164.313L279.396 162.957C278.493 162.785 277.622 163.376 277.449 164.279L276.093 171.358C275.92 172.261 276.512 173.133 277.415 173.305L284.494 174.661C285.397 174.834 286.268 174.242 286.441 173.34L287.797 166.26C287.97 165.358 287.378 164.486 286.475 164.313Z" fill="#263238"/>
<path d="M283.795 166.855L283.675 167.503L281.371 170.863L280.283 170.655L282.499 167.455L281.067 167.183L280.939 167.887L280.051 167.719L280.339 166.199L283.795 166.855Z" fill="white"/>
<path d="M302.507 167.37L295.427 166.014C294.525 165.841 293.653 166.433 293.48 167.335L292.124 174.415C291.952 175.317 292.543 176.189 293.446 176.362L300.525 177.718C301.428 177.891 302.3 177.299 302.472 176.396L303.828 169.317C304.001 168.414 303.409 167.543 302.507 167.37Z" fill="#455A64"/>
<g opacity="0.2">
<path d="M302.507 167.37L295.427 166.014C294.525 165.841 293.653 166.433 293.48 167.335L292.124 174.415C291.952 175.317 292.543 176.189 293.446 176.362L300.525 177.718C301.428 177.891 302.3 177.299 302.472 176.396L303.828 169.317C304.001 168.414 303.409 167.543 302.507 167.37Z" fill="black"/>
</g>
<path d="M300.905 167.067L293.826 165.711C292.923 165.539 292.051 166.13 291.878 167.033L290.523 174.112C290.35 175.015 290.942 175.887 291.844 176.059L298.924 177.415C299.826 177.588 300.698 176.996 300.871 176.094L302.226 169.014C302.399 168.112 301.808 167.24 300.905 167.067Z" fill="#263238"/>
<path d="M298.403 172.799C298.251 173.599 297.427 173.983 296.331 173.775C295.235 173.567 294.611 172.911 294.771 172.103C294.806 171.887 294.904 171.687 295.052 171.526C295.2 171.366 295.391 171.252 295.603 171.199C295.464 171.08 295.36 170.925 295.303 170.752C295.245 170.579 295.235 170.393 295.275 170.215C295.419 169.463 296.187 169.119 297.163 169.303C298.139 169.487 298.763 170.103 298.603 170.855C298.572 171.037 298.492 171.207 298.372 171.348C298.253 171.488 298.097 171.594 297.923 171.655C298.108 171.775 298.253 171.949 298.339 172.153C298.424 172.357 298.447 172.582 298.403 172.799ZM297.403 172.575C297.475 172.191 297.203 171.895 296.707 171.775C296.211 171.655 295.859 171.855 295.787 172.239C295.715 172.623 295.979 172.919 296.467 173.039C296.955 173.159 297.315 172.975 297.387 172.599L297.403 172.575ZM296.275 170.463C296.211 170.783 296.427 171.039 296.835 171.119C297.243 171.199 297.555 171.047 297.635 170.719C297.715 170.391 297.467 170.119 297.059 170.047C296.651 169.975 296.323 170.143 296.259 170.487L296.275 170.463Z" fill="white"/>
<path d="M317.46 170.237L310.38 168.881C309.478 168.708 308.606 169.3 308.433 170.203L307.078 177.282C306.905 178.185 307.496 179.056 308.399 179.229L315.478 180.585C316.381 180.758 317.253 180.166 317.426 179.264L318.781 172.184C318.954 171.282 318.362 170.41 317.46 170.237Z" fill="#455A64"/>
<g opacity="0.2">
<path d="M317.46 170.237L310.38 168.881C309.478 168.708 308.606 169.3 308.433 170.203L307.078 177.282C306.905 178.185 307.496 179.056 308.399 179.229L315.478 180.585C316.381 180.758 317.253 180.166 317.426 179.264L318.781 172.184C318.954 171.282 318.362 170.41 317.46 170.237Z" fill="black"/>
</g>
<path d="M315.866 169.932L308.787 168.577C307.884 168.404 307.012 168.995 306.839 169.898L305.484 176.977C305.311 177.88 305.903 178.752 306.805 178.925L313.885 180.28C314.787 180.453 315.659 179.861 315.832 178.959L317.187 171.879C317.36 170.977 316.769 170.105 315.866 169.932Z" fill="#263238"/>
<path d="M313.378 174.654C313.352 174.963 313.259 175.263 313.107 175.533C312.954 175.803 312.744 176.036 312.493 176.217C312.241 176.398 311.953 176.522 311.649 176.581C311.344 176.64 311.031 176.632 310.73 176.558C310.31 176.478 309.919 176.284 309.602 175.998L310.114 175.334C310.321 175.537 310.587 175.668 310.874 175.71C311.037 175.751 311.208 175.757 311.374 175.726C311.54 175.695 311.698 175.629 311.836 175.532C311.974 175.434 312.09 175.309 312.175 175.163C312.26 175.017 312.313 174.854 312.33 174.686C312.16 174.79 311.972 174.859 311.775 174.889C311.579 174.919 311.378 174.91 311.186 174.862C310.998 174.843 310.816 174.785 310.651 174.693C310.486 174.601 310.341 174.477 310.226 174.327C310.111 174.177 310.027 174.006 309.98 173.823C309.933 173.64 309.924 173.449 309.954 173.262C309.999 173.059 310.085 172.868 310.208 172.7C310.33 172.532 310.486 172.391 310.665 172.285C310.845 172.18 311.044 172.113 311.251 172.089C311.457 172.064 311.666 172.082 311.866 172.142C313.05 172.374 313.642 173.262 313.378 174.654ZM312.402 173.686C312.474 173.318 312.25 172.998 311.778 172.886C311.688 172.858 311.593 172.849 311.5 172.86C311.406 172.871 311.316 172.902 311.236 172.95C311.155 172.999 311.086 173.064 311.032 173.141C310.979 173.218 310.942 173.306 310.925 173.399C310.908 173.491 310.91 173.586 310.933 173.678C310.955 173.769 310.997 173.854 311.055 173.929C311.113 174.003 311.186 174.064 311.269 174.107C311.352 174.151 311.444 174.177 311.538 174.182C311.627 174.209 311.721 174.217 311.813 174.206C311.906 174.195 311.995 174.166 312.076 174.119C312.157 174.073 312.227 174.011 312.283 173.936C312.339 173.862 312.379 173.777 312.402 173.686Z" fill="white"/>
<path d="M332.425 173.102L325.345 171.747C324.443 171.574 323.571 172.165 323.398 173.068L322.042 180.147C321.87 181.05 322.461 181.922 323.364 182.095L330.443 183.45C331.346 183.623 332.218 183.031 332.39 182.129L333.746 175.049C333.919 174.147 333.327 173.275 332.425 173.102Z" fill="#455A64"/>
<g opacity="0.2">
<path d="M332.425 173.102L325.345 171.747C324.443 171.574 323.571 172.165 323.398 173.068L322.042 180.147C321.87 181.05 322.461 181.922 323.364 182.095L330.443 183.45C331.346 183.623 332.218 183.031 332.39 182.129L333.746 175.049C333.919 174.147 333.327 173.275 332.425 173.102Z" fill="black"/>
</g>
<path d="M330.823 172.799L323.744 171.444C322.841 171.271 321.969 171.863 321.796 172.765L320.441 179.845C320.268 180.747 320.86 181.619 321.762 181.792L328.842 183.147C329.744 183.32 330.616 182.729 330.789 181.826L332.144 174.747C332.317 173.844 331.726 172.972 330.823 172.799Z" fill="#263238"/>
<path d="M324.342 177.717L324.266 178.109L328.876 179.003L328.952 178.611L324.342 177.717Z" fill="white"/>
<path d="M314.554 185.411L307.474 184.055C306.572 183.882 305.7 184.474 305.527 185.376L304.171 192.456C303.998 193.358 304.59 194.23 305.493 194.403L312.572 195.759C313.475 195.932 314.346 195.34 314.519 194.437L315.875 187.358C316.048 186.455 315.456 185.584 314.554 185.411Z" fill="#455A64"/>
<g opacity="0.2">
<path d="M314.554 185.411L307.474 184.055C306.572 183.882 305.7 184.474 305.527 185.376L304.171 192.456C303.998 193.358 304.59 194.23 305.493 194.403L312.572 195.759C313.475 195.932 314.346 195.34 314.519 194.437L315.875 187.358C316.048 186.455 315.456 185.584 314.554 185.411Z" fill="black"/>
</g>
<path d="M312.964 185.1L305.884 183.745C304.982 183.572 304.11 184.163 303.937 185.066L302.581 192.145C302.409 193.048 303 193.92 303.903 194.093L310.982 195.448C311.885 195.621 312.757 195.029 312.929 194.127L314.285 187.047C314.458 186.145 313.866 185.273 312.964 185.1Z" fill="#263238"/>
<path d="M329.518 188.278L322.439 186.922C321.536 186.749 320.665 187.341 320.492 188.244L319.136 195.323C318.963 196.226 319.555 197.097 320.458 197.27L327.537 198.626C328.44 198.799 329.311 198.207 329.484 197.305L330.84 190.225C331.013 189.323 330.421 188.451 329.518 188.278Z" fill="#349F6E"/>
<g opacity="0.4">
<path d="M329.518 188.278L322.439 186.922C321.536 186.749 320.665 187.341 320.492 188.244L319.136 195.323C318.963 196.226 319.555 197.097 320.458 197.27L327.537 198.626C328.44 198.799 329.311 198.207 329.484 197.305L330.84 190.225C331.013 189.323 330.421 188.451 329.518 188.278Z" fill="black"/>
</g>
<path d="M327.917 187.967L320.837 186.612C319.935 186.439 319.063 187.031 318.89 187.933L317.535 195.013C317.362 195.915 317.953 196.787 318.856 196.96L325.935 198.315C326.838 198.488 327.71 197.897 327.883 196.994L329.238 189.915C329.411 189.012 328.819 188.14 327.917 187.967Z" fill="#349F6E"/>
<path d="M321.251 191.24L321.176 191.633L325.796 192.517L325.871 192.124L321.251 191.24Z" fill="white"/>
<path d="M320.907 193.004L320.832 193.396L325.452 194.28L325.527 193.887L320.907 193.004Z" fill="white"/>
<path d="M297.35 181.977L276.292 177.944C275.208 177.737 274.16 178.448 273.952 179.533L272.672 186.219C272.464 187.304 273.175 188.352 274.26 188.56L295.317 192.592C296.402 192.8 297.45 192.088 297.658 191.004L298.938 184.317C299.146 183.232 298.435 182.184 297.35 181.977Z" fill="#263238"/>
<path d="M284.915 184.863C285.187 183.439 286.131 182.783 287.195 182.991C288.259 183.199 288.883 184.151 288.611 185.575C288.339 186.999 287.403 187.655 286.339 187.447C285.275 187.239 284.643 186.287 284.915 184.863ZM287.611 185.383C287.795 184.399 287.531 183.927 287.035 183.831C286.539 183.735 286.115 184.079 285.931 185.063C285.747 186.047 286.011 186.511 286.499 186.607C286.987 186.703 287.419 186.399 287.611 185.383Z" fill="white"/>
<path d="M308.727 187.233L307.773 191.84L308.165 191.921L309.118 187.314L308.727 187.233Z" fill="white"/>
<path d="M306.157 188.933L306.082 189.326L310.702 190.21L310.777 189.817L306.157 188.933Z" fill="white"/>
<path d="M310.355 115.415L309.115 121.863L308.811 121.807L309.995 115.647L308.395 115.335L308.451 115.047L310.355 115.415Z" fill="#263238"/>
<path d="M315.108 122.711L315.052 122.999L310.684 122.199V121.975L313.98 119.719C314.924 119.079 315.18 118.647 315.284 118.119C315.444 117.263 314.956 116.591 313.828 116.375C313.473 116.279 313.101 116.266 312.74 116.337C312.379 116.407 312.04 116.56 311.748 116.783L311.572 116.543C311.901 116.301 312.28 116.135 312.681 116.058C313.082 115.98 313.496 115.993 313.892 116.095C315.124 116.335 315.788 117.119 315.588 118.159C315.476 118.767 315.18 119.263 314.172 119.951L311.204 121.967L315.108 122.711Z" fill="#263238"/>
<path d="M320.346 122.159C320.138 123.231 319.242 123.839 317.826 123.567C317.406 123.509 317.003 123.362 316.646 123.134C316.288 122.906 315.984 122.604 315.754 122.247L315.962 122.055C316.172 122.384 316.451 122.664 316.78 122.875C317.109 123.087 317.479 123.224 317.866 123.279C319.106 123.519 319.866 123.031 320.042 122.103C320.218 121.175 319.714 120.447 318.346 120.183L317.986 120.119V119.895L320.498 117.663L316.946 116.983L316.994 116.695L320.994 117.455L320.946 117.679L318.402 119.911C319.946 120.207 320.554 121.087 320.346 122.159Z" fill="#263238"/>
<path d="M326.697 123.303L325.297 123.031L324.937 124.895L324.633 124.839L324.993 122.975L321.289 122.263L321.329 122.047L325.729 118.359L326.089 118.431L321.745 122.071L325.049 122.695L325.361 121.055L325.665 121.119L325.353 122.719L326.753 122.983L326.697 123.303Z" fill="#263238"/>
<path d="M327.905 125.175C327.875 125.288 327.835 125.398 327.785 125.503L327.217 126.679L326.977 126.631L327.505 125.415C327.432 125.391 327.37 125.341 327.332 125.275C327.293 125.208 327.281 125.13 327.297 125.055C327.304 125.015 327.32 124.978 327.342 124.944C327.364 124.911 327.393 124.882 327.426 124.86C327.46 124.837 327.497 124.822 327.537 124.814C327.576 124.806 327.617 124.807 327.657 124.815C327.737 124.83 327.808 124.877 327.854 124.944C327.901 125.012 327.919 125.094 327.905 125.175Z" fill="#263238"/>
<path d="M334.4 124.799L333 124.527L332.648 126.391L332.344 126.335L332.696 124.471L328.992 123.759L329.04 123.543L333.44 119.855L333.8 119.927L329.456 123.567L332.752 124.199L333.064 122.599L333.368 122.655L333.056 124.295L334.456 124.559L334.4 124.799Z" fill="#263238"/>
<path d="M339.202 125.736C339.002 126.784 338.122 127.456 336.658 127.176C336.239 127.118 335.838 126.969 335.481 126.742C335.125 126.514 334.822 126.212 334.594 125.856L334.81 125.672C335.02 126 335.298 126.279 335.625 126.49C335.952 126.701 336.321 126.84 336.706 126.896C337.97 127.136 338.714 126.592 338.89 125.68C339.066 124.768 338.602 123.976 336.762 123.624L335.506 123.384L336.434 120.416L339.754 121.048L339.706 121.336L336.634 120.744L335.882 123.144L336.882 123.336C338.866 123.728 339.434 124.592 339.202 125.736Z" fill="#263238"/>
<path d="M208.989 34.2246H30.6055V153.185H208.989V34.2246Z" fill="#FAFAFA"/>
<path d="M93.0549 76.7852H63.7109V88.5612H93.0549V76.7852Z" fill="#349F6E"/>
<path d="M181.094 76.7852H151.75V88.5612H181.094V76.7852Z" fill="#349F6E"/>
<path d="M181.094 100.168H151.75V111.944H181.094V100.168Z" fill="#349F6E"/>
<path d="M181.094 111.857H151.75V123.633H181.094V111.857Z" fill="#349F6E"/>
<path d="M122.399 100.377H93.0547V112.153H122.399V100.377Z" fill="#455A64"/>
<path d="M151.703 112.289H122.359V124.065H151.703V112.289Z" fill="#455A64"/>
<path d="M122.399 135.648H93.0547V147.896H122.399V135.648Z" fill="#EBEBEB"/>
<path d="M181.094 135.809H151.75V147.585H181.094V135.809Z" fill="#349F6E"/>
<path d="M203.565 65.2812H45.1094V76.7853H203.565V65.2812Z" fill="#E0E0E0"/>
<path d="M63.7098 65.2812H35.9258V148.145H63.7098V65.2812Z" fill="#E0E0E0"/>
<path d="M64.1113 148.545H35.5273V64.8809H64.1113V148.545ZM36.3273 147.745H63.3113V65.6809H36.3273V147.745Z" fill="#E0E0E0"/>
<path d="M208.989 34.2246H30.6055V47.7206H208.989V34.2246Z" fill="#349F6E"/>
<path d="M63.7101 52.6328H36.2461V60.3528H63.7101V52.6328Z" fill="#EBEBEB"/>
<path d="M93.4138 52.6328H66.9258V60.3528H93.4138V52.6328Z" fill="#EBEBEB"/>
<path d="M122.461 52.6328H95.9727V60.3528H122.461V52.6328Z" fill="#EBEBEB"/>
<path d="M151.511 52.6328H125.023V60.3528H151.511V52.6328Z" fill="#EBEBEB"/>
<path d="M180.558 52.6328H154.07V60.3528H180.558V52.6328Z" fill="#EBEBEB"/>
<path d="M204.885 52.6328H183.117V60.3528H204.885V52.6328Z" fill="#EBEBEB"/>
<path d="M35.926 147.896H36.726H39.126H48.39L83.118 147.84L203.55 147.744L203.358 147.944C203.358 122.392 203.358 94.4405 203.358 65.3365L203.566 65.5445L35.926 65.4325L36.078 65.2805C36.078 90.7445 36.022 111.376 35.998 125.656C35.998 132.8 35.998 138.352 35.998 142.12C35.998 144.008 35.998 145.448 35.998 146.416C35.998 147.384 35.998 147.896 35.998 147.896C35.998 147.896 35.998 147.408 35.998 146.448C35.998 145.488 35.998 144.048 35.998 142.184C35.998 138.416 35.998 132.88 35.998 125.752C35.998 111.448 35.95 90.7765 35.918 65.2805V65.1205H36.07L203.71 65.0645H203.918V65.2805C203.918 94.3845 203.918 122.336 203.918 147.888V148.08H203.718L82.998 148L48.318 147.944H39.094H36.694L35.926 147.896Z" fill="#263238"/>
<path d="M203.886 76.7998C203.886 76.9118 166.35 77.0078 120.07 77.0078C73.7901 77.0078 36.2461 76.8958 36.2461 76.7998C36.2461 76.7038 73.7661 76.5918 120.07 76.5918C166.374 76.5918 203.886 76.6638 203.886 76.7998Z" fill="#263238"/>
<path d="M203.886 88.5518C203.886 88.6718 166.35 88.7597 120.07 88.7597C73.7901 88.7597 36.2461 88.6718 36.2461 88.5518C36.2461 88.4318 73.7661 88.3438 120.07 88.3438C166.374 88.3438 203.886 88.4398 203.886 88.5518Z" fill="#263238"/>
<path d="M203.886 100.329C203.886 100.441 166.35 100.537 120.07 100.537C73.7901 100.537 36.2461 100.441 36.2461 100.329C36.2461 100.217 73.7661 100.121 120.07 100.121C166.374 100.121 203.886 100.209 203.886 100.329Z" fill="#263238"/>
<path d="M203.886 112.097C203.886 112.217 166.35 112.305 120.07 112.305C73.7901 112.305 36.2461 112.217 36.2461 112.097C36.2461 111.977 73.7661 111.889 120.07 111.889C166.374 111.889 203.886 112.001 203.886 112.097Z" fill="#263238"/>
<path d="M203.886 123.872C203.886 123.984 166.35 124.08 120.07 124.08C73.7901 124.08 36.2461 124 36.2461 123.872C36.2461 123.744 73.7661 123.664 120.07 123.664C166.374 123.664 203.886 123.76 203.886 123.872Z" fill="#263238"/>
<path d="M203.886 135.649C203.886 135.761 166.35 135.857 120.07 135.857C73.7901 135.857 36.2461 135.761 36.2461 135.649C36.2461 135.537 73.7661 135.441 120.07 135.441C166.374 135.441 203.886 135.529 203.886 135.649Z" fill="#263238"/>
<path d="M63.7119 148.144C63.5919 148.144 63.5039 129.696 63.5039 106.944C63.5039 84.1923 63.5919 65.7363 63.7119 65.7363C63.8319 65.7363 63.9199 84.1843 63.9199 106.944C63.9199 129.704 63.8239 148.144 63.7119 148.144Z" fill="#263238"/>
<path d="M93.0557 147.896C92.9437 147.896 92.8477 129.496 92.8477 106.816C92.8477 84.1363 92.9437 65.7363 93.0557 65.7363C93.1677 65.7363 93.2637 84.1363 93.2637 106.816C93.2637 129.496 93.1757 147.896 93.0557 147.896Z" fill="#263238"/>
<path d="M122.399 148.144C122.279 148.144 122.191 129.696 122.191 106.944C122.191 84.1923 122.279 65.7363 122.399 65.7363C122.519 65.7363 122.607 84.1843 122.607 106.944C122.607 129.704 122.519 148.144 122.399 148.144Z" fill="#263238"/>
<path d="M151.751 148.144C151.639 148.144 151.543 129.696 151.543 106.944C151.543 84.1923 151.639 65.7363 151.751 65.7363C151.863 65.7363 151.959 84.1843 151.959 106.944C151.959 129.704 151.871 148.144 151.751 148.144Z" fill="#263238"/>
<path d="M181.103 148.144C180.983 148.144 180.895 129.696 180.895 106.944C180.895 84.1923 180.983 65.7363 181.103 65.7363C181.223 65.7363 181.311 84.1843 181.311 106.944C181.311 129.704 181.215 148.144 181.103 148.144Z" fill="#263238"/>
<path d="M41.0318 40.9692C41.0192 41.3035 40.9085 41.6268 40.7134 41.8986C40.5184 42.1705 40.2476 42.3788 39.9349 42.4978C39.6222 42.6168 39.2813 42.6411 38.9549 42.5676C38.6285 42.4942 38.3309 42.3262 38.0993 42.0848C37.8677 41.8433 37.7123 41.539 37.6525 41.2098C37.5926 40.8807 37.6311 40.5411 37.7629 40.2336C37.8948 39.9261 38.1142 39.6642 38.3939 39.4806C38.6736 39.297 39.0012 39.1999 39.3358 39.2012C39.5634 39.2053 39.788 39.2544 39.9966 39.3456C40.2052 39.4369 40.3937 39.5684 40.5513 39.7327C40.7089 39.897 40.8325 40.0908 40.9149 40.303C40.9974 40.5152 41.0371 40.7416 41.0318 40.9692Z" fill="white"/>
<path d="M46.813 40.9692C46.8005 41.3032 46.69 41.6261 46.4953 41.8978C46.3006 42.1695 46.0303 42.3779 45.718 42.4971C45.4058 42.6163 45.0653 42.6411 44.7391 42.5683C44.4129 42.4955 44.1153 42.3283 43.8833 42.0877C43.6514 41.847 43.4953 41.5434 43.4346 41.2148C43.3739 40.8861 43.4112 40.5468 43.5418 40.2392C43.6724 39.9315 43.8907 39.6691 44.1693 39.4845C44.448 39.2999 44.7748 39.2014 45.109 39.2012C45.3373 39.2043 45.5628 39.2526 45.7723 39.3434C45.9818 39.4341 46.1713 39.5655 46.3297 39.7299C46.4882 39.8943 46.6124 40.0884 46.6954 40.3011C46.7784 40.5139 46.8184 40.7409 46.813 40.9692Z" fill="white"/>
<path d="M52.5982 40.9692C52.5857 41.3032 52.4751 41.6261 52.2804 41.8978C52.0857 42.1695 51.8154 42.3779 51.5032 42.4971C51.1909 42.6163 50.8505 42.6411 50.5243 42.5683C50.198 42.4955 49.9004 42.3283 49.6685 42.0877C49.4365 41.847 49.2805 41.5434 49.2198 41.2148C49.159 40.8861 49.1963 40.5468 49.327 40.2392C49.4576 39.9315 49.6758 39.6691 49.9545 39.4845C50.2332 39.2999 50.56 39.2014 50.8942 39.2012C51.1225 39.2043 51.3479 39.2526 51.5574 39.3434C51.767 39.4341 51.9564 39.5655 52.1149 39.7299C52.2733 39.8943 52.3976 40.0884 52.4806 40.3011C52.5635 40.5139 52.6035 40.7409 52.5982 40.9692Z" fill="white"/>
<path d="M208.99 153.177C208.99 151.817 208.926 106.689 208.822 34.2247L208.99 34.3847L30.6144 34.4007L30.8224 34.1927C30.8224 76.5927 30.8224 116.849 30.8224 153.145L30.6304 152.953L159.166 153.049L195.878 153.097H205.638H208.15H209.014H208.174H205.678H195.958L159.294 153.145L30.6304 153.241H30.3984V153.049C30.3984 116.753 30.3984 76.4567 30.3984 34.0967V33.8887H30.6144H209.014H209.174V34.0567C209.054 106.689 208.99 151.825 208.99 153.177Z" fill="#263238"/>
<path d="M194.754 174.912L185.498 186.4L146.914 197.136L152.682 259.464C154.458 283.888 156.954 289.864 158.682 306.12V319.36H268.282L283.586 192.848L245.778 184.16L237.65 174.912H194.754Z" fill="#0B7F9D"/>
<path d="M193.113 197.169L197.833 259.577L202.881 291.257L239.929 187.873L210.041 223.289L193.113 197.169Z" fill="white"/>
<path d="M202.344 295.712C202.344 295.712 202.392 295.608 202.488 295.408C202.584 295.208 202.76 294.912 202.952 294.544L204.8 291.2C206.4 288.304 208.704 284.152 211.552 279.016L233.952 238.904L246.176 217.136L246.216 217.376L240.896 212.88L240.704 212.72L240.928 212.584L248.504 208.12L248.424 208.28C247.624 200.896 246.92 194.872 246.448 190.68C246.224 188.6 246.056 186.976 245.928 185.88C245.88 185.344 245.84 184.92 245.808 184.616C245.776 184.312 245.808 184.184 245.808 184.184C245.808 184.184 245.808 184.328 245.88 184.616L246.048 185.872C246.192 186.992 246.392 188.616 246.656 190.672C247.16 194.872 247.88 200.888 248.768 208.272V208.376L248.68 208.432L241.12 212.928V212.64L246.448 217.112L246.576 217.216L246.496 217.352L234.312 239.12L211.784 279.2L204.912 291.32C204.112 292.736 203.472 293.84 203.024 294.608L202.528 295.456C202.478 295.548 202.416 295.635 202.344 295.712Z" fill="#263238"/>
<path d="M202.347 295.712C202.303 295.62 202.268 295.524 202.243 295.424C202.171 295.208 202.083 294.92 201.971 294.552C201.731 293.752 201.395 292.632 200.963 291.184C200.099 288.24 198.867 283.984 197.339 278.8C195.811 273.616 193.971 267.352 192.059 260.4C190.275 253.408 188.571 245.672 186.771 237.552C184.323 226.416 182.115 215.992 180.283 207.152V207L180.427 206.944L185.475 205.176V205.48L179.331 202.224L179.211 202.168L179.259 202.048L183.835 190.56L185.091 187.464L185.419 186.664C185.457 186.574 185.499 186.486 185.547 186.4C185.526 186.496 185.497 186.59 185.459 186.68C185.387 186.88 185.291 187.152 185.163 187.48C184.883 188.216 184.491 189.264 183.979 190.6L179.531 202.136L179.459 201.952L185.627 205.152L185.963 205.328L185.603 205.456L180.563 207.24L180.683 207.04C182.555 215.84 184.779 226.24 187.227 237.44C189.027 245.552 190.715 253.296 192.483 260.28C194.251 267.264 196.203 273.456 197.675 278.68L201.171 291.112C201.571 292.56 201.883 293.696 202.099 294.496L202.331 295.376C202.347 295.488 202.352 295.6 202.347 295.712Z" fill="#263238"/>
<path d="M146.915 197.145C146.915 197.145 138.435 201.281 132.451 220.297C128.107 234.121 110.443 281.713 110.443 281.713L90.8753 276.001C90.8753 276.001 76.4753 293.937 79.7393 300.185C83.0033 306.433 106.835 319.385 106.835 319.385H134.739C138.562 316.444 141.361 312.374 142.739 307.753L158.699 254.009L146.915 197.145Z" fill="#0B7F9D"/>
<path d="M283.568 192.857C288.687 195.926 292.918 200.274 295.848 205.473C300.72 214.137 339.624 277.473 342.848 292.457C347.648 314.857 338.048 319.345 338.048 319.345H324.608L291.328 319.201L287.128 293.161L301.92 290.001L274.504 259.601L272.688 262.697L267.328 219.305L283.568 192.857Z" fill="#0B7F9D"/>
<path d="M150.44 223.289C150.56 223.289 151.552 234.049 152.656 247.337C153.76 260.625 154.568 271.409 154.456 271.417C154.344 271.425 153.352 260.657 152.24 247.369C151.128 234.081 150.328 223.297 150.44 223.289Z" fill="#263238"/>
<path d="M281.602 211.24C281.714 211.24 280.178 224.688 278.178 241.24C276.178 257.792 274.466 271.2 274.346 271.2C274.226 271.2 275.762 257.76 277.77 241.2C279.778 224.64 281.49 211.2 281.602 211.24Z" fill="#263238"/>
<path d="M291.729 319.368C291.729 319.368 291.857 319.2 292.105 318.888C292.465 318.436 292.799 317.963 293.105 317.472C294.224 315.657 295.091 313.698 295.681 311.648C296.103 310.238 296.413 308.796 296.609 307.336C296.888 305.68 296.961 303.995 296.825 302.32C296.621 300.478 295.985 298.71 294.969 297.16C293.872 295.501 292.435 294.094 290.753 293.032L290.401 292.8L289.953 292.56L290.433 292.416C297.138 290.453 304.023 289.169 310.985 288.584C313.649 288.352 315.785 288.256 317.297 288.208C318.041 288.208 318.625 288.208 319.017 288.208C319.216 288.186 319.418 288.186 319.617 288.208C319.419 288.246 319.219 288.268 319.017 288.272L317.305 288.384C315.817 288.48 313.665 288.624 311.017 288.888C304.088 289.561 297.236 290.881 290.553 292.832L290.593 292.448L290.977 292.672C292.711 293.764 294.189 295.216 295.313 296.928C296.357 298.533 297.007 300.361 297.209 302.264C297.338 303.975 297.252 305.695 296.953 307.384C296.738 308.854 296.406 310.304 295.961 311.72C295.342 313.786 294.426 315.75 293.241 317.552C292.916 318.038 292.558 318.5 292.169 318.936C292.042 319.099 291.894 319.245 291.729 319.368Z" fill="#263238"/>
<path d="M202.442 319.369C202.33 319.369 202.234 314.009 202.234 307.369C202.234 300.729 202.33 295.369 202.442 295.369C202.554 295.369 202.65 300.729 202.65 307.369C202.65 314.009 202.562 319.369 202.442 319.369Z" fill="#263238"/>
<path d="M264.882 266.265C264.872 266.076 264.872 265.886 264.882 265.697C264.882 265.305 264.882 264.777 264.882 264.097C264.882 262.689 264.882 260.681 264.81 258.153L264.938 258.281L231.786 258.361C231.874 258.273 231.57 258.569 231.986 258.153V266.249L231.778 266.049L255.378 266.137L262.37 266.193H264.266H264.762H264.938C264.73 266.204 264.522 266.204 264.314 266.193H262.466L255.522 266.249L231.778 266.345H231.578V266.137C231.578 264.825 231.578 263.497 231.578 262.137V258.033C231.994 257.617 231.698 257.921 231.794 257.825L264.946 257.913H265.066V258.033C265.066 260.593 265.018 262.625 265.002 264.049C265.002 264.713 265.002 265.233 265.002 265.649C264.978 265.857 264.938 266.063 264.882 266.265Z" fill="#263238"/>
<path d="M150.441 219.72C150.329 219.72 149.241 215.12 148.041 209.392C146.841 203.664 145.905 198.992 146.017 198.992C146.129 198.992 147.217 203.592 148.417 209.32C149.617 215.048 150.553 219.696 150.441 219.72Z" fill="#263238"/>
<g opacity="0.3">
<path d="M204.184 292.441L251.504 219.857L244.672 213.257L248.576 208.273L241.008 212.761L246.336 217.249L204.184 292.441Z" fill="black"/>
</g>
<g opacity="0.3">
<path d="M87.2891 294.873V298.905L141.001 299.073V294.873H87.2891Z" fill="black"/>
</g>
<path d="M152.744 146.592C154.175 146.765 155.626 146.546 156.942 145.959C158.258 145.371 159.39 144.437 160.216 143.256C158.288 143.552 156.216 143.824 154.472 142.936C152.728 142.048 151.752 139.488 153.112 138.136C154.176 137.04 155.928 137.232 157.448 137.12C159.226 136.967 160.923 136.31 162.34 135.226C163.757 134.141 164.835 132.676 165.448 131C166.736 127.304 165.56 123.28 165.096 119.392C164.5 113.73 165.426 108.012 167.777 102.827C170.128 97.6419 173.82 93.1782 178.472 89.896L202.8 75.832C211.6 87.128 214.376 102.344 212.544 116.552C210.712 130.76 204.688 144.128 197.44 156.488C195.328 160.088 193.08 163.688 190.096 166.584C187.112 169.48 183.32 171.76 179.168 172.184C178.634 170.467 178.519 168.648 178.832 166.877C179.146 165.107 179.878 163.437 180.968 162.008C177.673 162.199 174.372 161.724 171.264 160.611C168.156 159.497 165.305 157.769 162.88 155.528L168.088 151.528C165.325 151.878 162.519 151.617 159.868 150.765C157.217 149.912 154.785 148.487 152.744 146.592Z" fill="#263238"/>
<path d="M246.403 106.913C245.971 96.7527 239.643 88.2407 229.859 85.4487L199.387 76.7367C186.155 74.9207 176.827 91.0007 175.571 104.297C174.187 119.073 173.171 134.697 174.563 145.777C177.403 168.097 194.339 171.449 194.339 171.449C194.339 171.449 193.779 191.569 193.603 198.057L209.115 230.489L239.203 189.001L246.499 107.201C246.515 106.809 246.451 107.425 246.403 106.913Z" fill="#FFBE9D"/>
<path d="M181.432 122.705C181.403 123.447 181.664 124.171 182.16 124.724C182.656 125.276 183.347 125.614 184.088 125.665C184.45 125.705 184.815 125.672 185.164 125.568C185.513 125.464 185.837 125.292 186.118 125.061C186.399 124.83 186.631 124.545 186.801 124.223C186.97 123.901 187.073 123.548 187.104 123.185C187.135 122.443 186.874 121.718 186.378 121.165C185.882 120.612 185.189 120.275 184.448 120.225C184.086 120.186 183.72 120.219 183.372 120.322C183.023 120.426 182.698 120.599 182.417 120.83C182.136 121.061 181.904 121.346 181.735 121.668C181.566 121.99 181.463 122.343 181.432 122.705Z" fill="#263238"/>
<path d="M178.658 113.096C179.002 113.48 181.21 111.944 184.258 112.048C187.306 112.152 189.522 113.752 189.858 113.392C190.026 113.224 189.69 112.544 188.73 111.792C187.432 110.834 185.871 110.301 184.258 110.264C182.663 110.21 181.091 110.664 179.77 111.56C178.834 112.264 178.49 112.92 178.658 113.096Z" fill="#263238"/>
<path d="M207.354 122.704C207.325 123.446 207.586 124.17 208.082 124.723C208.578 125.275 209.269 125.613 210.01 125.664C210.371 125.704 210.737 125.671 211.086 125.567C211.435 125.464 211.759 125.291 212.04 125.06C212.321 124.829 212.553 124.544 212.722 124.222C212.892 123.9 212.995 123.547 213.026 123.184C213.057 122.442 212.796 121.717 212.3 121.164C211.804 120.611 211.111 120.274 210.37 120.224C210.008 120.186 209.643 120.22 209.294 120.324C208.946 120.428 208.622 120.601 208.341 120.832C208.061 121.063 207.829 121.347 207.659 121.669C207.489 121.99 207.386 122.342 207.354 122.704Z" fill="#263238"/>
<path d="M207.768 113.929C208.112 114.313 210.32 112.777 213.368 112.881C216.416 112.985 218.632 114.585 218.968 114.225C219.136 114.057 218.8 113.377 217.84 112.625C216.543 111.665 214.98 111.131 213.368 111.096C211.772 111.04 210.2 111.494 208.88 112.393C207.944 113.097 207.6 113.753 207.768 113.929Z" fill="#263238"/>
<path d="M197.504 137.728C197.504 137.56 195.624 137.168 192.552 136.68C191.752 136.576 191.032 136.392 190.952 135.88C190.872 135.368 191.136 134.48 191.544 133.576L194.04 127.688C197.52 119.304 200.056 112.392 199.72 112.256C199.384 112.12 196.256 118.784 192.8 127.2L190.4 133.128C190.08 134.008 189.536 135.008 189.904 136.192C190.009 136.471 190.175 136.723 190.392 136.928C190.608 137.133 190.868 137.286 191.152 137.376C191.583 137.508 192.03 137.583 192.48 137.6C195.552 137.832 197.48 137.904 197.504 137.728Z" fill="#263238"/>
<path d="M224 164.385C224 164.385 216.336 179.441 194.168 176.673L194.312 171.449C204.671 171.892 214.95 169.446 224 164.385Z" fill="#7C5142"/>
<path d="M209.051 104.04C209.331 104.84 212.403 104.584 215.987 105.128C219.571 105.672 222.443 106.728 222.947 106.008C223.171 105.656 222.691 104.856 221.539 104.008C220.004 102.972 218.253 102.299 216.42 102.04C214.586 101.781 212.717 101.942 210.955 102.512C209.603 103.008 208.939 103.64 209.051 104.04Z" fill="#263238"/>
<path d="M179.93 103.744C180.442 104.456 182.578 103.8 185.122 103.848C187.666 103.896 189.794 104.456 190.314 103.744C190.538 103.4 190.226 102.688 189.306 102C188.068 101.171 186.612 100.729 185.122 100.729C183.632 100.729 182.176 101.171 180.938 102C180.002 102.688 179.698 103.4 179.93 103.744Z" fill="#263238"/>
<path d="M209.001 143.713C208.803 142.796 208.289 141.979 207.549 141.403C206.809 140.826 205.89 140.529 204.953 140.561C204.268 140.629 203.611 140.865 203.039 141.247C202.467 141.629 201.998 142.147 201.673 142.753C201.358 143.366 201.17 144.036 201.12 144.723C201.069 145.41 201.156 146.1 201.377 146.753L201.433 147.041C202.051 147.747 202.873 148.245 203.785 148.467C204.697 148.689 205.655 148.624 206.529 148.281C207.385 147.897 208.092 147.242 208.539 146.416C208.986 145.59 209.148 144.64 209.001 143.713Z" fill="#7C5142"/>
<path d="M199.203 147.041C199.203 146.577 202.307 146.809 204.715 144.337C207.123 141.865 207.035 138.537 207.467 138.545C207.667 138.545 208.011 139.345 207.939 140.721C207.826 142.536 207.075 144.253 205.819 145.569C204.609 146.83 202.957 147.573 201.211 147.641C199.915 147.657 199.203 147.249 199.203 147.041Z" fill="#263238"/>
<path d="M236.176 71.5285C232.744 66.0805 224.64 60.3925 218.288 59.2805C211.088 58.0165 206.704 59.2805 201.944 63.6005C201.944 63.6005 198.248 67.1685 194.744 67.8405C191.24 68.5125 188.344 67.9445 184.24 70.0645C178.584 72.9525 176.104 80.5125 173.488 86.2965C170.232 93.4965 165.6 100.097 163.472 107.697C161.344 115.297 162.48 124.625 168.88 129.241C167.784 123.417 166.872 117.009 169.272 111.745C168.959 113.85 169.09 115.997 169.656 118.049C170.856 114.625 172.12 111.097 174.6 108.449C176.944 105.953 180.2 104.449 182.6 102.049C186.144 98.4885 187.776 93.0725 192.08 90.4885C196.56 87.8005 202.232 89.1445 207.448 89.1685C211.854 89.1658 216.203 88.1747 220.176 86.2682C224.148 84.3617 227.642 81.5884 230.4 78.1525L229.104 78.0405C231.737 76.1899 234.115 74.0004 236.176 71.5285Z" fill="#263238"/>
<path d="M268.84 125.872C266.848 119.336 263.344 113.36 261.16 106.888C259.024 100.584 258.144 93.8481 255.312 87.8321C251.496 79.7361 244.376 69.2401 233.28 69.8241L232.48 70.4881C228.694 70.0274 224.852 70.4856 221.28 71.8241L221.104 80.4721L218.984 82.3441C219.872 84.0641 220.72 85.7201 221.536 87.3521C222.185 90.6051 223.13 93.7917 224.36 96.8721C225.582 99.8972 227.393 102.649 229.688 104.968C248.808 150.744 231.464 153.632 240.088 179.864L245.504 164.848C250.154 162.164 253.887 158.141 256.216 153.304L257.176 158.104C261.565 153.458 264.203 147.432 264.64 141.056L267.2 145.6C271.112 140 270.832 132.4 268.84 125.872Z" fill="#263238"/>
<path d="M236.227 124.201C236.523 123.457 250.339 118.913 250.107 133.457C249.883 147.585 235.707 144.393 235.707 143.985C235.707 143.577 236.227 124.201 236.227 124.201Z" fill="#FFBE9D"/>
<path d="M240.153 138.721C240.217 138.673 240.393 138.897 240.809 139.097C241.387 139.359 242.044 139.384 242.641 139.169C244.145 138.649 245.449 136.305 245.569 133.761C245.627 132.551 245.414 131.343 244.945 130.225C244.822 129.78 244.593 129.372 244.276 129.036C243.96 128.7 243.566 128.446 243.129 128.297C242.848 128.22 242.548 128.242 242.281 128.36C242.015 128.478 241.797 128.685 241.665 128.945C241.465 129.337 241.553 129.617 241.481 129.641C241.409 129.665 241.177 129.401 241.305 128.841C241.392 128.495 241.592 128.189 241.873 127.969C242.268 127.683 242.759 127.562 243.241 127.633C243.819 127.758 244.355 128.03 244.798 128.423C245.241 128.815 245.575 129.314 245.769 129.873C246.355 131.106 246.629 132.462 246.569 133.825C246.425 136.673 244.913 139.313 242.857 139.857C242.477 139.963 242.077 139.981 241.689 139.909C241.301 139.837 240.934 139.677 240.617 139.441C240.169 139.065 240.097 138.745 240.153 138.721Z" fill="#7C5142"/>
<path d="M241.681 141.265C242.38 141.154 243.096 141.314 243.682 141.712C244.267 142.111 244.679 142.718 244.833 143.409C244.987 144.1 244.872 144.825 244.511 145.434C244.15 146.043 243.57 146.492 242.889 146.689C242.209 146.886 241.479 146.816 240.848 146.493C240.218 146.17 239.734 145.62 239.495 144.953C239.256 144.286 239.281 143.553 239.563 142.903C239.846 142.254 240.366 141.736 241.017 141.457" fill="white"/>
<path d="M241.017 141.457C240.393 141.922 239.931 142.571 239.697 143.313C239.586 143.697 239.573 144.101 239.658 144.491C239.744 144.881 239.925 145.243 240.185 145.545C240.49 145.926 240.9 146.207 241.364 146.355C241.829 146.503 242.326 146.51 242.795 146.376C243.263 146.242 243.682 145.972 243.997 145.601C244.313 145.23 244.512 144.773 244.569 144.289C244.626 143.892 244.583 143.487 244.443 143.111C244.303 142.736 244.071 142.401 243.769 142.137C243.172 141.636 242.434 141.331 241.657 141.265C241.657 141.225 241.881 141.121 242.329 141.129C242.968 141.15 243.582 141.384 244.073 141.793C244.456 142.095 244.754 142.491 244.939 142.943C245.124 143.394 245.19 143.885 245.129 144.369C245.072 144.976 244.833 145.551 244.444 146.02C244.055 146.488 243.534 146.829 242.949 146.998C242.363 147.166 241.741 147.154 241.162 146.963C240.583 146.773 240.076 146.413 239.705 145.929C239.396 145.552 239.19 145.1 239.107 144.62C239.025 144.139 239.068 143.645 239.233 143.185C239.433 142.576 239.83 142.05 240.361 141.689C240.801 141.449 241.009 141.417 241.017 141.457Z" fill="#263238"/>
<path d="M220.16 85.889C220.44 86.001 221.76 81.209 225.68 76.769C229.6 72.329 234.12 70.369 233.976 70.065C233.936 69.961 232.744 70.297 230.992 71.257C226.42 73.8305 222.873 77.8979 220.944 82.777C220.232 84.633 220.056 85.865 220.16 85.889Z" fill="#455A64"/>
<path d="M93.4913 298.904L82.9473 286.512C82.9473 286.512 75.5473 286.512 71.8513 282.992C68.1553 279.472 61.3073 276.152 64.0833 269.864C64.0833 269.864 60.7553 265.976 63.4353 261.728L63.5233 260.616C63.5233 260.616 55.2033 257.096 57.6033 252.848C60.0033 248.6 64.6353 250.448 64.6353 250.448C64.6353 250.448 55.5473 244.304 53.9073 242.624C49.5233 238.128 54.2353 235.096 59.1073 237.824C67.2033 242.24 94.4033 255.064 96.2673 264.312V268.312C96.2673 268.312 103.843 277.6 103.843 278.152C103.843 278.704 103.291 293.168 93.4913 298.904Z" fill="#AF7E69"/>
<path d="M40.1855 205.496C39.8575 205.08 81.5615 272.312 81.5615 272.312L83.4575 294.872H148.546L142.506 269.192C142.506 269.192 131.258 239.032 131.386 238.68C131.634 237.992 110.322 204.48 110.322 204.48L40.1855 205.496Z" fill="white"/>
<path d="M40.1836 205.496L41.4636 205.456L45.1676 205.384L59.2956 205.128L110.32 204.328H110.4L110.448 204.408C116.048 213.208 122.16 222.808 128.512 233.208C129.312 234.512 130.112 235.824 130.856 237.208C131.048 237.552 131.24 237.888 131.408 238.248C131.458 238.343 131.501 238.442 131.536 238.544C131.547 238.591 131.547 238.641 131.536 238.688C131.536 238.792 131.536 238.752 131.536 238.76V238.824L131.712 239.368L132.512 241.584L135.776 250.56L142.656 269.128C144.488 276.92 146.416 285.088 148.368 293.4C148.48 293.872 148.592 294.344 148.696 294.808L148.76 295.064H148.496H83.4076H83.2316V294.888C82.5756 286.989 81.9489 279.469 81.3516 272.328V272.408L51.4236 223.888L43.0796 210.288C42.1356 208.728 41.4076 207.528 40.9036 206.712C40.6716 206.304 40.4876 206 40.3596 205.784C40.292 205.683 40.2331 205.576 40.1836 205.464L81.7116 272.184V272.224V272.264C82.3196 279.405 82.9569 286.925 83.6236 294.824L83.4316 294.648H148.52L148.32 294.904L147.984 293.496L142.28 269.224C139.938 262.899 137.648 256.707 135.408 250.648C134.304 247.613 133.218 244.621 132.152 241.672C131.888 240.928 131.632 240.184 131.352 239.448L131.176 238.88V238.808C131.167 238.76 131.167 238.712 131.176 238.664V238.592C131.032 238.528 131.392 238.64 131.304 238.592C131.267 238.584 131.228 238.584 131.192 238.592C131.164 238.509 131.129 238.429 131.088 238.352C130.928 238.016 130.736 237.672 130.552 237.336C129.792 235.992 129 234.68 128.216 233.336C121.872 222.936 115.76 213.28 110.2 204.48L110.344 204.56L59.1996 205.312L45.0956 205.472H41.4076C40.6076 205.512 40.1836 205.496 40.1836 205.496Z" fill="#263238"/>
<path d="M125.6 240.352H125.016H123.352L117.224 240.232C112.056 240.12 104.92 239.92 97.0325 239.792C89.1445 239.664 82.0005 239.68 76.8405 239.848C74.2565 239.912 72.1685 240.024 70.7285 240.104L69.0645 240.2C68.87 240.212 68.6749 240.212 68.4805 240.2C68.6686 240.149 68.8618 240.12 69.0565 240.112L70.7125 239.936C72.1525 239.8 74.2405 239.648 76.8325 239.544C82.0005 239.304 89.1445 239.248 97.0405 239.368C104.936 239.488 112.072 239.736 117.232 239.936L123.352 240.184L125.016 240.264C125.214 240.271 125.41 240.3 125.6 240.352Z" fill="#263238"/>
<path d="M133.603 270.288C133.603 270.4 124.379 269.4 113.043 268.04C101.707 266.68 92.5153 265.496 92.5313 265.384C92.5473 265.272 101.747 266.272 113.091 267.632C124.435 268.992 133.603 270.176 133.603 270.288Z" fill="#263238"/>
<path d="M73.6016 274.832L85.7776 274.032C87.0576 273.952 88.4656 273.816 89.3616 272.896C90.4656 271.744 89.9216 269.144 88.5216 268.376L74.5696 265.008" fill="#AF7E69"/>
<path d="M74.5532 265.033C74.9173 265.067 75.2783 265.129 75.6332 265.217L78.5772 265.865L88.5532 268.201H88.6092C89.1306 268.518 89.5391 268.991 89.7772 269.553C90.034 270.109 90.1572 270.717 90.1372 271.329C90.1417 271.996 89.8829 272.637 89.4172 273.113C88.9685 273.536 88.4169 273.834 87.8172 273.977C86.7119 274.189 85.5904 274.304 84.4652 274.321L78.8172 274.633L75.0172 274.809C74.5513 274.848 74.0831 274.848 73.6172 274.809C74.0738 274.719 74.5364 274.663 75.0012 274.641L78.8012 274.337L84.4012 273.929C85.5023 273.902 86.5993 273.784 87.6812 273.577C88.2247 273.44 88.7234 273.164 89.1292 272.777C89.5174 272.374 89.7302 271.833 89.7212 271.273C89.7546 270.741 89.6517 270.209 89.4221 269.727C89.1925 269.245 88.8439 268.83 88.4092 268.521H88.4572L78.5132 266.049L75.6012 265.249C75.2458 265.211 74.8948 265.138 74.5532 265.033Z" fill="#7C5142"/>
<path d="M79.202 260.664C82.8977 261.338 86.5217 262.358 90.026 263.712C90.5911 263.897 91.0676 264.284 91.3632 264.8C91.6588 265.316 91.7524 265.923 91.626 266.504C91.6126 266.796 91.5338 267.082 91.3953 267.339C91.2568 267.597 91.0623 267.82 90.826 267.992C90.2997 268.28 89.7135 268.442 89.114 268.464C85.61 268.8 82.25 268.32 78.762 267.832C75.274 267.344 70.442 267.832 68.418 268.904" fill="#AF7E69"/>
<path d="M68.4414 268.904C68.4414 268.904 68.5534 268.816 68.7854 268.696C69.1323 268.532 69.4906 268.393 69.8574 268.28C71.2143 267.891 72.6089 267.65 74.0174 267.56C74.989 267.488 75.9638 267.469 76.9374 267.504C78.0518 267.558 79.1627 267.67 80.2654 267.84C82.7687 268.227 85.3009 268.396 87.8334 268.344C88.4896 268.323 89.144 268.264 89.7934 268.168C90.0863 268.14 90.3687 268.044 90.6175 267.887C90.8663 267.73 91.0745 267.516 91.2254 267.264C91.6814 266.208 91.5294 264.776 90.5774 264.2C90.0928 263.926 89.5806 263.703 89.0494 263.536L87.5294 263C86.5454 262.656 85.6254 262.36 84.7774 262.112C83.0814 261.6 81.6894 261.264 80.7214 261.032C80.2165 260.936 79.7171 260.813 79.2254 260.664C79.3581 260.646 79.4927 260.646 79.6254 260.664C79.8894 260.664 80.2654 260.76 80.7614 260.848C81.7374 261.024 83.1614 261.32 84.8574 261.792C85.7134 262.032 86.6494 262.312 87.6414 262.64L89.1774 263.16C89.7332 263.333 90.2695 263.563 90.7774 263.848C91.0495 264.03 91.2814 264.266 91.4589 264.541C91.6363 264.816 91.7556 265.125 91.8094 265.448C91.9273 266.112 91.8466 266.797 91.5774 267.416C91.4222 267.753 91.1647 268.033 90.8414 268.216C90.5344 268.383 90.202 268.5 89.8574 268.56C89.1876 268.667 88.5115 268.732 87.8334 268.752C85.2758 268.803 82.7188 268.624 80.1934 268.216C79.1045 268.035 78.0071 267.91 76.9054 267.84C75.9434 267.788 74.9794 267.788 74.0174 267.84C72.6265 267.903 71.2445 268.096 69.8894 268.416C68.9454 268.68 68.4574 268.936 68.4414 268.904Z" fill="#7C5142"/>
<path d="M65.2581 250.576L74.8581 255.928C76.3061 256.728 77.8181 257.608 78.6901 259.024C79.5621 260.44 79.4901 262.576 78.0901 263.48C77.0021 264.2 75.5621 263.928 74.2981 263.608C70.7179 262.699 67.1945 261.58 63.7461 260.256" fill="#AF7E69"/>
<path d="M63.7461 260.256C64.204 260.36 64.6533 260.5 65.0901 260.672C65.9541 260.96 67.1941 261.384 68.7461 261.864C70.2981 262.344 72.1541 262.872 74.2341 263.392C75.264 263.744 76.3706 263.808 77.4341 263.576C77.9594 263.403 78.4014 263.041 78.6741 262.56C78.9503 262.057 79.078 261.485 79.0421 260.912C79.0012 260.336 78.8431 259.774 78.5776 259.261C78.3122 258.748 77.9448 258.294 77.4981 257.928C76.6488 257.213 75.7232 256.593 74.7381 256.08L69.7781 253.264L66.4501 251.328C66.0343 251.108 65.6358 250.857 65.2581 250.576C65.6998 250.743 66.1255 250.949 66.5301 251.192L69.9221 253.008L74.9221 255.744C75.9389 256.253 76.8944 256.875 77.7701 257.6C78.2347 258.008 78.6293 258.489 78.9381 259.024C79.2514 259.589 79.4294 260.219 79.4581 260.864C79.4974 261.518 79.3504 262.17 79.0341 262.744C78.7291 263.326 78.2187 263.774 77.6021 264C76.4626 264.258 75.2736 264.192 74.1701 263.808C72.0901 263.264 70.2341 262.696 68.6901 262.208C67.1461 261.72 65.9141 261.224 65.0661 260.888L64.0981 260.488C63.9686 260.431 63.8496 260.353 63.7461 260.256Z" fill="#7C5142"/>
<path d="M293.44 317.097L288.88 315.801L274.4 314.449L270.344 309.065L273.168 297.433L291.288 293.121C299.64 299.073 297.376 308.993 293.44 317.097Z" fill="#AF7E69"/>
<path d="M251.281 287.896C249.575 287.678 247.843 287.814 246.193 288.296C245.129 288.758 244.202 289.487 243.502 290.412C242.801 291.337 242.35 292.426 242.193 293.576C241.721 297.304 241.577 300.328 241.313 303.8C241.29 304.252 241.362 304.704 241.525 305.127C241.687 305.55 241.937 305.935 242.257 306.256C243.401 307.424 245.457 307.056 246.649 305.904C247.841 304.752 248.353 303.16 248.921 301.632C249.489 300.104 250.089 296.448 250.977 296.128C253.505 295.216 256.937 299.56 258.833 297.432L262.281 289.032C256.913 288.512 256.617 288.416 251.281 287.896Z" fill="#AF7E69"/>
<path d="M251.281 287.896H251.473H252.049L254.233 288.08L262.233 288.88H262.441L262.361 289.072L258.953 297.488C258.748 297.719 258.491 297.898 258.203 298.011C257.915 298.123 257.605 298.166 257.297 298.136C256.705 298.061 256.129 297.888 255.593 297.624C254.573 297.057 253.501 296.585 252.393 296.216L251.961 296.152H251.537C251.4 296.171 251.264 296.198 251.129 296.232C250.985 296.232 250.953 296.32 250.849 296.424C250.526 296.929 250.285 297.483 250.137 298.064C249.761 299.264 249.521 300.528 249.065 301.784C248.701 302.924 248.204 304.016 247.585 305.04C247.253 305.548 246.833 305.992 246.345 306.352C245.855 306.698 245.295 306.933 244.705 307.04C244.116 307.156 243.506 307.103 242.945 306.888C242.401 306.646 241.945 306.24 241.641 305.728C241.332 305.248 241.151 304.698 241.113 304.128C241.113 303.544 241.177 303.056 241.209 302.528C241.361 300.464 241.497 298.528 241.681 296.656C241.769 295.744 241.865 294.856 241.969 294.008C242.039 293.178 242.253 292.366 242.601 291.608C243.105 290.442 243.941 289.451 245.006 288.758C246.07 288.065 247.315 287.701 248.585 287.712C249.263 287.68 249.942 287.694 250.617 287.752L251.137 287.808L251.313 287.848C251.079 287.861 250.844 287.861 250.609 287.848C249.94 287.821 249.269 287.834 248.601 287.888C247.548 287.918 246.515 288.191 245.585 288.688C244.385 289.395 243.435 290.457 242.865 291.728C242.541 292.465 242.346 293.253 242.289 294.056C242.193 294.904 242.105 295.792 242.025 296.704C241.857 298.544 241.737 300.504 241.593 302.576C241.593 303.08 241.489 303.64 241.505 304.12C241.543 304.625 241.708 305.112 241.985 305.536C242.241 305.977 242.631 306.324 243.097 306.528C243.587 306.715 244.119 306.76 244.633 306.656C245.17 306.546 245.679 306.326 246.128 306.011C246.576 305.696 246.955 305.292 247.241 304.824C247.847 303.82 248.328 302.745 248.673 301.624C249.113 300.416 249.361 299.144 249.737 297.928C249.9 297.292 250.17 296.689 250.537 296.144C250.594 296.066 250.664 295.998 250.745 295.944C250.824 295.886 250.914 295.845 251.009 295.824C251.172 295.781 251.338 295.749 251.505 295.728H252.001L252.481 295.808C253.628 296.176 254.735 296.659 255.785 297.248C256.287 297.501 256.828 297.666 257.385 297.736C257.634 297.762 257.885 297.729 258.118 297.64C258.351 297.551 258.561 297.409 258.729 297.224L258.689 297.28C259.985 294.168 261.161 291.328 262.169 288.896L262.297 289.104C258.905 288.76 256.169 288.416 254.297 288.2L252.121 287.936L251.553 287.856C251.468 287.893 251.374 287.906 251.281 287.896Z" fill="#7C5142"/>
<path d="M281.849 288.96C281.849 288.96 280.049 288.4 277.625 290.176C277.625 290.176 276.713 286.176 273.521 285.376C271.201 284.808 268.249 287.184 268.249 287.184C268.249 287.184 266.249 283.184 260.913 284.848C256.505 286.232 247.241 313.608 246.449 315.44C245.537 317.544 249.281 320.176 251.345 318.056C253.409 315.936 260.785 303.656 260.785 303.656L255.945 320.712C255.818 321.271 255.837 321.852 256.001 322.4C256.521 324.136 259.937 326.168 262.345 322.904C265.353 318.832 268.409 310.456 268.409 310.456L271.361 304.056C271.361 304.056 265.849 321.096 267.857 322.648C269.865 324.2 272.425 323.6 274.257 319.6C276.089 315.6 282.761 302.92 282.761 302.92L285.961 301.256L284.793 305.256C284.793 305.256 278.729 308.456 280.089 311.256C281.449 314.056 284.321 313.256 287.129 311.928C289.937 310.6 292.385 304.016 293.881 301.312C295.225 298.912 295.353 291.768 289.601 291.496C288.991 291.474 288.383 291.58 287.815 291.806C287.248 292.031 286.733 292.373 286.305 292.808L286.017 293.096C286.017 293.096 285.041 289.528 281.849 288.96Z" fill="#AF7E69"/>
<path d="M281.851 288.96L282.235 289.04C282.394 289.074 282.549 289.122 282.699 289.184C282.913 289.256 283.12 289.35 283.315 289.464C284.646 290.276 285.621 291.563 286.043 293.064H285.939C286.689 292.186 287.738 291.616 288.883 291.464C290.293 291.329 291.7 291.757 292.795 292.656C293.967 293.822 294.646 295.395 294.691 297.048C294.754 297.945 294.697 298.846 294.523 299.728C294.428 300.194 294.286 300.65 294.099 301.088C293.899 301.536 293.659 301.928 293.451 302.368C292.603 304.104 291.779 305.984 290.731 307.864C290.203 308.835 289.587 309.757 288.891 310.616C288.528 311.068 288.102 311.467 287.627 311.8C287.12 312.117 286.585 312.385 286.027 312.6C284.924 313.123 283.711 313.372 282.491 313.328C281.84 313.261 281.229 312.979 280.755 312.528C280.518 312.308 280.311 312.058 280.139 311.784L279.899 311.36L279.739 310.88C279.624 310.208 279.764 309.518 280.131 308.944C280.476 308.378 280.902 307.866 281.395 307.424C282.385 306.526 283.481 305.752 284.659 305.12L284.571 305.224L285.739 301.224L285.987 301.424C285.019 301.944 283.923 302.52 282.787 303.096L282.867 303.024C281.267 306.075 279.632 309.229 277.963 312.488L275.451 317.472L274.259 320C273.836 320.886 273.271 321.696 272.587 322.4C272.233 322.774 271.806 323.073 271.333 323.278C270.86 323.482 270.35 323.589 269.835 323.592C269.31 323.563 268.799 323.415 268.339 323.16C268.11 323.037 267.893 322.892 267.691 322.728C267.486 322.521 267.352 322.255 267.307 321.968C267.169 320.952 267.188 319.922 267.363 318.912C267.499 317.912 267.683 316.92 267.891 315.92C268.747 311.92 269.891 307.968 271.155 303.92L271.539 304.072L268.595 310.472C267.923 312.28 267.139 314.192 266.283 316.072C265.651 317.472 264.979 318.848 264.243 320.184C263.875 320.856 263.483 321.504 263.067 322.144C262.676 322.833 262.182 323.459 261.603 324C260.991 324.513 260.225 324.809 259.427 324.84C258.632 324.846 257.854 324.612 257.195 324.168C256.518 323.747 256.016 323.097 255.779 322.336C255.683 321.955 255.651 321.56 255.683 321.168C255.732 320.792 255.817 320.423 255.939 320.064C257.539 314.416 259.096 308.931 260.611 303.608L260.971 303.768C259.126 306.84 257.272 309.819 255.411 312.704C254.475 314.136 253.539 315.552 252.539 316.904C252.073 317.626 251.463 318.244 250.747 318.72C250.351 318.904 249.92 318.999 249.483 318.999C249.046 318.999 248.615 318.904 248.219 318.72C247.423 318.398 246.767 317.802 246.371 317.04C246.185 316.644 246.115 316.202 246.171 315.768C246.291 315.32 246.451 314.968 246.579 314.616L248.179 310.248C249.235 307.376 250.283 304.648 251.379 301.976C252.475 299.304 253.491 296.808 254.579 294.432C255.587 292.148 256.739 289.93 258.027 287.792C258.608 286.779 259.351 285.868 260.227 285.096C260.467 284.913 260.738 284.775 261.027 284.688L261.827 284.48C262.353 284.369 262.889 284.313 263.427 284.312C264.431 284.289 265.423 284.538 266.299 285.03C267.174 285.523 267.901 286.242 268.403 287.112H268.243C269.28 286.297 270.468 285.696 271.739 285.344C272.314 285.19 272.916 285.171 273.499 285.288C274.034 285.408 274.541 285.628 274.995 285.936C275.749 286.475 276.368 287.181 276.803 288C277.181 288.668 277.469 289.384 277.659 290.128H277.579C278.506 289.415 279.615 288.977 280.779 288.864C281.144 288.825 281.514 288.858 281.867 288.96H281.603C281.337 288.932 281.069 288.932 280.803 288.96C279.671 289.107 278.6 289.555 277.699 290.256L277.635 290.304V290.224C277.437 289.494 277.147 288.792 276.771 288.136C276.318 287.324 275.683 286.628 274.915 286.104C274.476 285.815 273.988 285.609 273.475 285.496C272.914 285.393 272.337 285.417 271.787 285.568C270.548 285.918 269.391 286.514 268.387 287.32L268.283 287.392L268.227 287.28C267.735 286.451 267.031 285.767 266.188 285.3C265.344 284.834 264.391 284.6 263.427 284.624C262.903 284.632 262.38 284.691 261.867 284.8L261.067 285C260.82 285.084 260.589 285.211 260.387 285.376C259.539 286.131 258.82 287.02 258.259 288.008C256.986 290.14 255.848 292.35 254.851 294.624C253.784 297.008 252.718 299.523 251.651 302.168C250.584 304.813 249.534 307.557 248.499 310.4C247.971 311.832 247.443 313.296 246.899 314.776C246.771 315.136 246.595 315.536 246.515 315.864C246.471 316.225 246.529 316.591 246.683 316.92C247.045 317.598 247.634 318.128 248.347 318.416C248.694 318.578 249.072 318.662 249.455 318.662C249.838 318.662 250.216 318.578 250.563 318.416C251.226 317.968 251.79 317.388 252.219 316.712C253.203 315.368 254.139 313.96 255.075 312.528C256.931 309.648 258.776 306.669 260.611 303.592L261.411 302.312L261.003 303.752C259.499 309.056 257.939 314.552 256.347 320.2C256.228 320.534 256.148 320.88 256.107 321.232C256.073 321.578 256.101 321.927 256.187 322.264C256.398 322.93 256.841 323.497 257.435 323.864C258.023 324.256 258.712 324.467 259.419 324.472C260.129 324.434 260.808 324.167 261.355 323.712C261.9 323.224 262.369 322.658 262.747 322.032C263.155 321.4 263.547 320.752 263.907 320.096C264.635 318.776 265.299 317.408 265.931 316.016C266.779 314.128 267.531 312.216 268.235 310.416L271.187 304.016L271.571 304.168C270.315 308.168 269.171 312.168 268.315 316.096C268.107 317.08 267.923 318.072 267.787 319.056C267.622 320.015 267.601 320.994 267.723 321.96C267.752 322.165 267.841 322.357 267.979 322.512C268.157 322.66 268.35 322.789 268.555 322.896C268.959 323.125 269.411 323.256 269.875 323.28C270.336 323.276 270.792 323.178 271.214 322.992C271.636 322.807 272.016 322.537 272.331 322.2C273.691 320.88 274.291 319 275.171 317.328L277.699 312.344C279.387 309.088 281.035 305.944 282.619 302.888V302.84H282.667L285.867 301.176L286.235 300.984L286.115 301.384L284.947 305.384V305.456H284.883C283.728 306.072 282.654 306.827 281.683 307.704C281.212 308.122 280.805 308.608 280.475 309.144C280.151 309.646 280.025 310.25 280.123 310.84C280.268 311.41 280.581 311.924 281.022 312.313C281.463 312.703 282.011 312.95 282.595 313.024C283.763 313.06 284.922 312.818 285.979 312.32C286.511 312.118 287.025 311.872 287.515 311.584C287.964 311.261 288.37 310.882 288.723 310.456C289.409 309.612 290.017 308.706 290.539 307.752C291.587 305.896 292.411 304.024 293.275 302.28C293.483 301.848 293.739 301.424 293.923 301.008C294.108 300.59 294.248 300.152 294.339 299.704C294.516 298.844 294.575 297.964 294.515 297.088C294.485 295.488 293.841 293.961 292.715 292.824C291.664 291.955 290.314 291.533 288.955 291.648C287.84 291.794 286.817 292.339 286.075 293.184L286.003 293.272V293.16C285.6 291.68 284.658 290.405 283.363 289.584C282.887 289.313 282.379 289.103 281.851 288.96Z" fill="#7C5142"/>
<path d="M274.346 295.713C274.474 295.713 273.954 298.201 272.818 301.049C272.266 302.481 271.722 303.753 271.322 304.673C271.136 305.185 270.892 305.673 270.594 306.129C271.069 304.339 271.684 302.59 272.434 300.897C272.986 299.481 273.458 298.185 273.778 297.241C273.919 296.715 274.11 296.204 274.346 295.713Z" fill="#7C5142"/>
<path d="M264.88 294C264.992 294.056 263.976 296.288 262.848 299.104C262.253 300.841 261.517 302.526 260.648 304.144C260.734 303.609 260.887 303.088 261.104 302.592C261.432 301.656 261.904 300.36 262.464 298.952C263.024 297.544 263.608 296.28 264.064 295.392C264.273 294.894 264.548 294.426 264.88 294Z" fill="#7C5142"/>
</svg>
