<svg width="511" height="400" viewBox="0 0 511 400" fill="none" xmlns="http://www.w3.org/2000/svg">
<path d="M125.917 99.8613C125.917 99.8613 120.441 101.992 126.563 113.634C132.686 125.276 136.887 131.005 136.887 131.005C136.887 131.005 137.978 133.713 135.699 134.167C133.419 134.621 128.362 133.87 127.376 136.682C126.389 139.494 128.467 142.359 132.834 144.7C137.201 147.04 146.397 152.56 147.227 153.049C148.057 153.538 148.878 154.796 147.367 155.355C145.856 155.914 134.502 157.206 135.454 162.569C136.406 167.931 149.48 172.49 150.895 173.049C152.31 173.608 152.642 174.176 152.555 174.953C152.467 175.73 148.598 175.826 145.393 176.324C142.188 176.822 138.563 177.975 139.367 181.014C140.17 184.053 147.961 190.342 166.712 191.957L175.445 192.132L180.109 184.7C189.122 168.176 188.17 158.202 186.092 155.879C184.013 153.556 181.044 155.922 178.852 158.315C176.659 160.708 174.485 163.87 173.751 163.556C173.018 163.241 172.738 162.595 173.087 161.119C173.437 159.643 176.834 146.211 172.904 142.473C168.974 138.735 161.629 147.451 160.328 148.403C159.026 149.355 158.45 147.966 158.485 147.005C158.52 146.045 159.052 135.285 159.472 130.412C159.891 125.538 158.808 122.237 155.812 121.477C152.817 120.717 150.755 125.363 149.114 127.023C147.472 128.682 145.821 126.272 145.821 126.272C145.821 126.272 143.358 119.582 137.026 108.053C130.694 96.5251 125.847 99.9137 125.847 99.9137" fill="#EBEBEB"/>
<path d="M175.925 194.148C171.314 185.659 163.366 170.437 156.475 157.406C149.585 144.375 143.375 132.585 138.772 124.079L133.349 114.009L131.873 111.266L131.497 110.55C131.41 110.384 131.375 110.297 131.375 110.297L131.523 110.533L131.925 111.24L133.436 113.956C134.755 116.314 136.633 119.738 138.938 123.982C143.55 132.472 149.829 144.253 156.711 157.275C163.593 170.297 171.558 185.546 176.1 194.052" fill="#E0E0E0"/>
<path d="M134.395 138.035C134.604 138.061 134.81 138.114 135.006 138.192L136.639 138.743C138.002 139.232 139.879 139.948 141.932 140.778L147.172 142.909L148.77 143.546C148.969 143.617 149.162 143.704 149.347 143.808C149.138 143.777 148.933 143.724 148.735 143.651C148.342 143.529 147.783 143.336 147.102 143.092C145.74 142.594 143.879 141.852 141.862 141.022L136.622 138.926L135.023 138.297C134.805 138.232 134.594 138.144 134.395 138.035Z" fill="#E0E0E0"/>
<path d="M149.94 143.231C149.87 143.231 151.18 139.283 152.866 134.497C154.552 129.711 155.966 125.763 156.036 125.807C156.106 125.851 154.805 129.763 153.119 134.541C151.434 139.318 150.01 143.231 149.94 143.231Z" fill="#E0E0E0"/>
<path d="M159.621 163.729C159.723 163.54 159.84 163.359 159.97 163.188L160.992 161.756C161.866 160.55 163.027 158.882 164.259 156.987C165.49 155.092 166.556 153.345 167.307 152.079C167.665 151.476 167.962 150.97 168.18 150.568C168.281 150.379 168.401 150.2 168.538 150.035C168.473 150.239 168.385 150.436 168.276 150.62C168.084 150.996 167.805 151.494 167.403 152.175C166.687 153.467 165.656 155.24 164.416 157.136C163.176 159.031 161.97 160.69 161.08 161.869C160.625 162.463 160.25 162.935 159.988 163.249C159.885 163.423 159.761 163.584 159.621 163.729Z" fill="#E0E0E0"/>
<path d="M144.516 162.114C144.716 162.092 144.918 162.092 145.118 162.114L146.734 162.228C148.096 162.333 149.983 162.49 152.061 162.691C154.14 162.892 156.027 163.075 157.38 163.232L158.996 163.424C159.194 163.439 159.39 163.474 159.581 163.529C159.384 163.552 159.185 163.552 158.987 163.529L157.363 163.416C156 163.32 154.114 163.154 152.035 162.962C149.957 162.769 148.079 162.569 146.716 162.42L145.11 162.219C144.908 162.211 144.708 162.175 144.516 162.114Z" fill="#E0E0E0"/>
<path d="M150.766 181.283C151.021 181.262 151.278 181.262 151.534 181.283L153.604 181.414C155.351 181.537 157.77 181.72 160.442 181.947C163.115 182.174 165.525 182.392 167.272 182.567L169.333 182.785C169.59 182.799 169.844 182.837 170.093 182.899C169.838 182.924 169.58 182.924 169.325 182.899L167.255 182.768C165.508 182.646 163.089 182.454 160.416 182.227C157.744 181.999 155.333 181.781 153.595 181.615L151.525 181.397C151.269 181.381 151.015 181.343 150.766 181.283Z" fill="#E0E0E0"/>
<path d="M169.637 182.75C169.759 182.505 169.902 182.271 170.065 182.051L171.287 180.191C172.318 178.619 173.742 176.453 175.235 174.008C176.728 171.562 178.038 169.318 178.964 167.685C179.418 166.907 179.785 166.252 180.073 165.754C180.196 165.512 180.339 165.282 180.501 165.064C180.41 165.322 180.296 165.57 180.161 165.807C179.934 166.278 179.584 166.951 179.139 167.781C178.266 169.44 176.973 171.702 175.471 174.147C173.969 176.593 172.519 178.759 171.445 180.261C170.903 181.038 170.466 181.65 170.152 182.078C170.001 182.317 169.829 182.542 169.637 182.75Z" fill="#E0E0E0"/>
<path d="M73.8306 164.647C76.0995 162.93 78.5872 161.523 81.228 160.463L82.0228 152.603L94.966 151.014L97.5861 158.429C100.407 158.818 103.165 159.578 105.787 160.691L111.901 155.704L122.18 163.73L118.861 170.865C120.578 173.137 121.985 175.628 123.045 178.271L130.905 179.057L132.503 192.001L125.088 194.673C124.7 197.492 123.94 200.247 122.826 202.865L127.804 208.979L119.735 219.215L112.599 215.852C110.334 217.577 107.845 218.987 105.202 220.044L104.416 227.905L91.4726 229.503L88.8001 222.079C85.9812 221.691 83.2264 220.931 80.6079 219.817L74.4944 224.804L64.2062 216.778L67.5686 209.651C65.8457 207.385 64.4357 204.897 63.3765 202.254L55.5162 201.459L53.918 188.516L61.3415 185.852C61.7293 183.03 62.49 180.273 63.6036 177.651L58.6167 171.538L66.6429 161.258L73.7695 164.612L73.8306 164.647ZM82.5643 181.197C80.8688 183.377 79.8576 186.011 79.6582 188.766C79.4589 191.521 80.0803 194.273 81.4441 196.675C82.808 199.077 84.8529 201.02 87.3208 202.261C89.7887 203.501 92.5687 203.982 95.3098 203.643C98.051 203.304 100.63 202.161 102.722 200.357C104.813 198.553 106.323 196.17 107.061 193.508C107.799 190.847 107.732 188.026 106.868 185.403C106.004 182.779 104.381 180.471 102.206 178.769C100.758 177.636 99.1007 176.8 97.329 176.309C95.5573 175.818 93.706 175.681 91.8813 175.907C90.0566 176.132 88.2944 176.716 86.6956 177.623C85.0968 178.531 83.6929 179.746 82.5643 181.197Z" fill="#EBEBEB"/>
<path d="M64.8678 74.4713C67.0291 73.1635 69.3553 72.1502 71.7848 71.4582L73.2084 64.6285L84.798 64.4102L86.4661 71.2049C88.9076 71.8096 91.2573 72.7377 93.453 73.9647L99.3045 70.1307L107.636 78.1744L104.012 84.1569C105.323 86.3163 106.337 88.643 107.025 91.0739L113.872 92.4975L114.073 104.078L107.278 105.738C106.674 108.179 105.746 110.529 104.518 112.725L108.353 118.576L100.309 126.908L94.3351 123.284C92.1696 124.587 89.8407 125.597 87.4093 126.288L85.9857 133.135L74.4137 133.336L72.7455 126.541C70.3033 125.939 67.9533 125.011 65.7586 123.781L59.9071 127.615L51.5578 119.65L55.1822 113.677C53.8723 111.513 52.8589 109.184 52.1691 106.751L45.322 105.327L45.1211 93.7551L51.9159 92.087C52.522 89.646 53.4501 87.2964 54.6757 85.1001L50.8416 79.2486L58.8853 70.9254L64.8678 74.5499V74.4713ZM71.0338 89.8861C69.3265 91.6526 68.1815 93.8858 67.7437 96.3031C67.3058 98.7204 67.5947 101.213 68.5738 103.466C69.5529 105.72 71.1782 107.632 73.2442 108.961C75.3101 110.29 77.7239 110.977 80.1802 110.934C82.6365 110.891 85.0249 110.121 87.0434 108.721C89.0618 107.32 90.6196 105.353 91.5197 103.067C92.4197 100.781 92.6216 98.2796 92.0999 95.879C91.5781 93.4784 90.356 91.2865 88.5883 89.5805C86.2183 87.2964 83.0389 86.0457 79.7478 86.103C76.4568 86.1603 73.3229 87.5209 71.0338 89.8861Z" fill="#F5F5F5"/>
<path d="M494.79 78.7422H190.72C188.206 78.7399 185.794 79.7357 184.014 81.5109C182.234 83.2861 181.231 85.6954 181.227 88.2094V303.004C181.225 304.251 181.47 305.486 181.947 306.639C182.424 307.791 183.123 308.838 184.005 309.72C184.886 310.601 185.933 311.301 187.086 311.777C188.238 312.254 189.473 312.499 190.72 312.498H307.419C307.419 312.498 314.842 335.458 291.829 347.336H400.956C400.956 347.336 374.973 338.428 381.654 312.498H494.79C497.299 312.498 499.705 311.505 501.484 309.736C503.263 307.967 504.269 305.565 504.283 303.057V88.2094C504.276 85.6962 503.273 83.2882 501.493 81.5135C499.714 79.7388 497.303 78.7422 494.79 78.7422Z" fill="#455A64"/>
<path d="M346.808 289.957C350.939 295.87 344.468 302.341 338.555 298.21C338.357 298.07 338.185 297.896 338.048 297.695C333.926 291.791 340.389 285.319 346.302 289.45C346.498 289.59 346.669 289.761 346.808 289.957Z" fill="#263238"/>
<path d="M194.929 82.6719H490.579C491.692 82.6719 492.793 82.891 493.821 83.3167C494.849 83.7425 495.783 84.3665 496.57 85.1531C497.356 85.9398 497.98 86.8737 498.406 87.9015C498.832 88.9294 499.051 90.031 499.051 91.1435V273.205H186.457V91.1435C186.457 90.031 186.676 88.9294 187.102 87.9015C187.528 86.8737 188.152 85.9398 188.938 85.1531C189.725 84.3665 190.659 83.7425 191.687 83.3167C192.715 82.891 193.816 82.6719 194.929 82.6719Z" fill="white"/>
<path d="M194.457 82.6719H492.483C494.225 82.6719 495.896 83.3638 497.127 84.5955C498.359 85.8272 499.051 87.4977 499.051 89.2396V98.5059H186.457V90.6457C186.462 88.5278 187.307 86.4983 188.807 85.0032C190.307 83.5081 192.339 82.6696 194.457 82.6719Z" fill="#EBEBEB"/>
<path d="M196.415 93.1167C197.625 93.1167 198.607 92.1352 198.607 90.9246C198.607 89.7139 197.625 88.7324 196.415 88.7324C195.204 88.7324 194.223 89.7139 194.223 90.9246C194.223 92.1352 195.204 93.1167 196.415 93.1167Z" fill="#E0E0E0"/>
<path d="M202.962 93.1167C204.172 93.1167 205.154 92.1352 205.154 90.9246C205.154 89.7139 204.172 88.7324 202.962 88.7324C201.751 88.7324 200.77 89.7139 200.77 90.9246C200.77 92.1352 201.751 93.1167 202.962 93.1167Z" fill="#E0E0E0"/>
<path d="M209.184 93.1167C210.395 93.1167 211.376 92.1352 211.376 90.9246C211.376 89.7139 210.395 88.7324 209.184 88.7324C207.974 88.7324 206.992 89.7139 206.992 90.9246C206.992 92.1352 207.974 93.1167 209.184 93.1167Z" fill="#E0E0E0"/>
<path d="M440.432 312.533C440.432 312.629 397.157 312.716 343.795 312.716C290.432 312.716 247.148 312.629 247.148 312.533C247.148 312.437 290.415 312.35 343.795 312.35C397.175 312.35 440.432 312.428 440.432 312.533Z" fill="#263238"/>
<path d="M498.335 124.131H186.562V193.729H498.335V124.131Z" fill="#F5F5F5"/>
<path d="M239.218 105.799H194.223V117.572H239.218V105.799Z" fill="#F5F5F5"/>
<path d="M490.938 105.799H466.301V117.572H490.938V105.799Z" fill="#F5F5F5"/>
<path d="M458.893 105.799H418.578V117.572H458.893V105.799Z" fill="#F5F5F5"/>
<path d="M410.197 105.799H369.883V117.572H410.197V105.799Z" fill="#F5F5F5"/>
<path d="M476.52 213.336H201.742V225.668H476.52V213.336Z" fill="#F5F5F5"/>
<path d="M476.52 236.289H201.742V248.621H476.52V236.289Z" fill="#F5F5F5"/>
<path d="M309.941 165.983L317.513 158.411L330.719 170.446L354.003 147.197L361.033 154.769L329.636 185.058L309.941 165.983Z" fill="#349F6E"/>
<path d="M320.832 148.219C318.919 146.447 317.227 144.45 315.793 142.271C316.795 143.109 317.698 144.058 318.483 145.101C319.378 146.051 320.166 147.097 320.832 148.219Z" fill="#263238"/>
<path d="M330.988 147.119C330.628 144.311 330.421 141.486 330.368 138.656C330.167 135.834 330.115 133.003 330.21 130.176C330.565 132.984 330.769 135.809 330.822 138.639C331.027 141.461 331.083 144.291 330.988 147.119Z" fill="#263238"/>
<path d="M346.685 141.93C345.177 144.32 343.421 146.545 341.445 148.567C342.13 147.317 342.95 146.145 343.891 145.074C344.711 143.932 345.647 142.878 346.685 141.93Z" fill="#263238"/>
<path d="M459.155 165.922H427.941V174.088H459.155V165.922Z" fill="#F5F5F5"/>
<path d="M259.995 186.219H46.8772C39.8495 186.219 34.1523 191.916 34.1523 198.944V331.258C34.1523 338.286 39.8495 343.983 46.8772 343.983H259.995C267.023 343.983 272.72 338.286 272.72 331.258V198.944C272.72 191.916 267.023 186.219 259.995 186.219Z" fill="#263238"/>
<path d="M24.832 333.791H283.295V334.402C283.295 337.9 281.905 341.254 279.432 343.728C276.959 346.201 273.605 347.59 270.107 347.59H38.0198C34.5222 347.59 31.1678 346.201 28.6946 343.728C26.2215 341.254 24.832 337.9 24.832 334.402V333.791Z" fill="#263238"/>
<path d="M265.654 192.488H40.5625V325.72H265.654V192.488Z" fill="#263238"/>
<path d="M129.914 332.314L133.128 337.415H178.255L181.233 332.314H129.914Z" fill="#455A64"/>
<path d="M258.611 196.996H48.0434C46.4661 196.996 45.1875 198.275 45.1875 199.852V322.428C45.1875 324.006 46.4661 325.284 48.0434 325.284H258.611C260.188 325.284 261.467 324.006 261.467 322.428V199.852C261.467 198.275 260.188 196.996 258.611 196.996Z" fill="#EBEBEB"/>
<path d="M261.244 325.477H44.9648L45.1919 206.586H261.244V325.477Z" fill="white"/>
<path d="M62.9622 201.956C62.9622 202.301 62.8598 202.639 62.6678 202.926C62.4759 203.213 62.2031 203.437 61.8839 203.569C61.5647 203.702 61.2135 203.736 60.8747 203.669C60.5359 203.601 60.2246 203.435 59.9804 203.191C59.7361 202.947 59.5697 202.635 59.5023 202.296C59.4349 201.958 59.4695 201.606 59.6017 201.287C59.7339 200.968 59.9578 200.695 60.245 200.503C60.5323 200.311 60.87 200.209 61.2155 200.209C61.6787 200.209 62.123 200.393 62.4506 200.721C62.7782 201.048 62.9622 201.492 62.9622 201.956Z" fill="#263238"/>
<path d="M52.4817 201.956C52.4817 202.301 52.3793 202.639 52.1874 202.926C51.9954 203.213 51.7226 203.437 51.4034 203.569C51.0843 203.702 50.7331 203.736 50.3942 203.669C50.0554 203.601 49.7442 203.435 49.4999 203.191C49.2556 202.947 49.0892 202.635 49.0218 202.296C48.9544 201.958 48.989 201.606 49.1212 201.287C49.2534 200.968 49.4773 200.695 49.7646 200.503C50.0518 200.311 50.3895 200.209 50.735 200.209C51.1983 200.209 51.6426 200.393 51.9701 200.721C52.2977 201.048 52.4817 201.492 52.4817 201.956Z" fill="#263238"/>
<path d="M57.4895 201.956C57.4895 202.301 57.3871 202.639 57.1952 202.926C57.0032 203.213 56.7304 203.437 56.4113 203.569C56.0921 203.702 55.7409 203.736 55.4021 203.669C55.0632 203.601 54.752 203.435 54.5077 203.191C54.2634 202.947 54.0971 202.635 54.0297 202.296C53.9623 201.958 53.9969 201.606 54.1291 201.287C54.2613 200.968 54.4851 200.695 54.7724 200.503C55.0596 200.311 55.3974 200.209 55.7428 200.209C56.2061 200.209 56.6504 200.393 56.9779 200.721C57.3055 201.048 57.4895 201.492 57.4895 201.956Z" fill="#263238"/>
<path d="M270.665 332.315C270.665 332.403 217.721 332.473 152.42 332.473C87.1188 332.473 34.1406 332.403 34.1406 332.315C34.1406 332.228 87.0839 332.158 152.411 332.158C217.739 332.158 270.665 332.228 270.665 332.315Z" fill="#455A64"/>
<path d="M261.467 225.756H45.1875V274.035H261.467V225.756Z" fill="#F5F5F5"/>
<path d="M81.714 213.041H50.5V221.207H81.714V213.041Z" fill="#F5F5F5"/>
<path d="M256.346 213.041H239.254V221.207H256.346V213.041Z" fill="#F5F5F5"/>
<path d="M234.114 213.041H206.148V221.207H234.114V213.041Z" fill="#F5F5F5"/>
<path d="M200.332 213.041H172.367V221.207H200.332V213.041Z" fill="#F5F5F5"/>
<path d="M246.378 302.525H55.7578V311.084H246.378V302.525Z" fill="#F5F5F5"/>
<path d="M246.378 286.334H55.7578V294.893H246.378V286.334Z" fill="#F5F5F5"/>
<path d="M125.914 257.879L133.495 250.307L148.097 263.285L176.77 235.695L183.801 243.267L147.015 277.896L125.914 257.879Z" fill="#349F6E"/>
<path d="M214.476 155.756C248.1 155.756 275.358 128.499 275.358 94.8743C275.358 61.25 248.1 33.9922 214.476 33.9922C180.852 33.9922 153.594 61.25 153.594 94.8743C153.594 128.499 180.852 155.756 214.476 155.756Z" fill="#074F62"/>
<path opacity="0.3" d="M214.476 155.827C248.1 155.827 275.358 128.569 275.358 94.9446C275.358 61.3203 248.1 34.0625 214.476 34.0625C180.852 34.0625 153.594 61.3203 153.594 94.9446C153.594 128.569 180.852 155.827 214.476 155.827Z" fill="black"/>
<path d="M212.835 151.862C246.459 151.862 273.717 124.604 273.717 90.9798C273.717 57.3555 246.459 30.0977 212.835 30.0977C179.211 30.0977 151.953 57.3555 151.953 90.9798C151.953 124.604 179.211 151.862 212.835 151.862Z" fill="#04242D"/>
<path d="M231.279 134.618C255.371 124.431 266.644 96.6418 256.457 72.5494C246.27 48.457 218.481 37.1844 194.389 47.3713C170.296 57.5583 159.024 85.3472 169.211 109.44C179.398 133.532 207.187 144.805 231.279 134.618Z" fill="white"/>
<path d="M236.398 114.547C249.413 101.531 249.413 80.4296 236.398 67.4144C223.382 54.3991 202.281 54.3992 189.265 67.4144C176.25 80.4296 176.25 101.531 189.265 114.547C202.281 127.562 223.382 127.562 236.398 114.547Z" fill="#04242D"/>
<path d="M219.824 107.116C228.732 103.254 232.823 92.901 228.96 83.9927C225.098 75.0844 214.745 70.9938 205.837 74.8562C196.929 78.7185 192.838 89.0712 196.7 97.9796C200.563 106.888 210.916 110.978 219.824 107.116Z" fill="white"/>
<path d="M259.945 41.6695L258.285 28.6826L271.508 14.5254L272.46 28.5516L259.945 41.6695Z" fill="#455A64"/>
<path d="M288.321 31.3378L274.906 30.2461L261.465 43.1806L274.915 44.6129L288.321 31.3378Z" fill="#455A64"/>
<path opacity="0.3" d="M212.836 92.0021L262.818 56.1942C260.905 53.4191 258.785 50.7916 256.478 48.334L213.683 89.7314L212.836 92.0021Z" fill="black"/>
<path d="M274.441 25.8337L268.205 32.1917L253.105 47.4581L234.965 65.7987C229.725 71.1262 224.47 76.4508 219.201 81.7725C216.651 84.3926 213.961 86.8729 211.524 89.5454L211.411 89.659C209.935 91.1612 212.284 93.4756 213.734 91.9734L220.004 85.6153L235.07 70.3577L253.21 52.0171C258.45 46.6895 263.705 41.3649 268.974 36.0433C271.524 33.4232 274.214 30.9428 276.651 28.2616L276.756 28.1568C278.24 26.6546 275.882 24.3315 274.441 25.8337Z" fill="#263238"/>
<path d="M382.499 184.498C381.461 184.558 380.438 184.232 379.626 183.584C378.814 182.935 378.269 182.01 378.097 180.985C377.925 179.96 378.138 178.908 378.694 178.03C379.249 177.152 380.11 176.51 381.11 176.227C380.485 175.542 380.094 174.675 379.995 173.752C379.896 172.829 380.093 171.899 380.558 171.096C381.023 170.293 381.732 169.659 382.582 169.286C383.432 168.913 384.379 168.821 385.285 169.022C385.364 168.117 385.677 167.248 386.193 166.501C386.709 165.754 387.411 165.153 388.229 164.759C389.047 164.364 389.954 164.189 390.86 164.25C391.766 164.312 392.641 164.608 393.398 165.11C394.456 164.325 395.746 163.919 397.062 163.955C398.378 163.992 399.643 164.469 400.656 165.31C401.547 165.187 402.453 165.353 403.242 165.785C404.031 166.216 404.66 166.889 405.037 167.706C405.414 168.522 405.519 169.438 405.335 170.318C405.152 171.198 404.69 171.996 404.018 172.594" fill="#263238"/>
<path d="M381.863 185.067C382.425 180.602 384.649 176.513 388.092 173.615C391.535 170.718 395.944 169.225 400.439 169.433L401.365 169.477C411.312 170.525 415.985 179.556 414.657 189.477L411.662 222.665L410.876 230.481L388.264 227.809L388.692 219.346C388.692 219.346 379.173 217.407 379.505 207.809C379.662 203.18 380.762 193.66 381.863 185.067Z" fill="#99655C"/>
<path d="M388.617 219.328C393.07 219.539 397.49 218.466 401.35 216.236C401.35 216.236 398.075 222.996 388.547 221.686L388.617 219.328Z" fill="#744A45"/>
<path d="M383.979 193.887C383.959 194.242 384.079 194.591 384.312 194.86C384.545 195.129 384.873 195.297 385.228 195.328C385.402 195.35 385.578 195.337 385.747 195.289C385.916 195.242 386.074 195.162 386.211 195.053C386.349 194.944 386.463 194.808 386.548 194.655C386.632 194.501 386.685 194.332 386.704 194.157C386.723 193.801 386.602 193.451 386.367 193.181C386.133 192.912 385.802 192.745 385.446 192.716C385.272 192.693 385.096 192.706 384.927 192.752C384.758 192.799 384.6 192.88 384.463 192.989C384.326 193.098 384.212 193.234 384.129 193.388C384.046 193.543 383.995 193.712 383.979 193.887Z" fill="#263238"/>
<path d="M383.706 189.853C383.872 190.036 384.938 189.32 386.414 189.39C387.89 189.46 388.938 190.263 389.104 190.08C389.27 189.896 389.025 189.669 388.571 189.311C387.955 188.837 387.207 188.566 386.431 188.534C385.664 188.495 384.905 188.703 384.265 189.128C383.794 189.451 383.628 189.765 383.706 189.853Z" fill="#263238"/>
<path d="M397.392 194.577C397.375 194.933 397.496 195.282 397.731 195.551C397.965 195.819 398.295 195.987 398.65 196.018C398.824 196.04 399.001 196.027 399.169 195.98C399.338 195.932 399.496 195.852 399.634 195.743C399.771 195.634 399.885 195.499 399.97 195.345C400.054 195.191 400.107 195.022 400.126 194.848C400.143 194.492 400.022 194.143 399.787 193.874C399.553 193.605 399.223 193.438 398.868 193.407C398.694 193.385 398.517 193.398 398.349 193.445C398.18 193.492 398.022 193.573 397.884 193.682C397.747 193.791 397.633 193.926 397.548 194.08C397.464 194.234 397.411 194.403 397.392 194.577Z" fill="#263238"/>
<path d="M398.179 190.804C398.345 190.987 399.419 190.271 400.886 190.341C402.354 190.411 403.41 191.214 403.576 191.031C403.742 190.847 403.498 190.62 403.043 190.254C402.425 189.786 401.678 189.518 400.904 189.485C400.137 189.446 399.378 189.654 398.738 190.079C398.266 190.393 398.1 190.716 398.179 190.804Z" fill="#263238"/>
<path d="M392.318 201.476C391.554 201.201 390.759 201.019 389.951 200.935C389.576 200.882 389.218 200.786 389.165 200.533C389.156 200.141 389.262 199.755 389.471 199.424C389.873 198.55 390.283 197.598 390.72 196.612C392.467 192.603 393.733 189.301 393.567 189.232C393.401 189.162 391.82 192.358 390.135 196.367L388.93 199.197C388.675 199.641 388.582 200.159 388.668 200.664C388.715 200.799 388.793 200.922 388.897 201.022C389 201.122 389.125 201.197 389.261 201.24C389.467 201.311 389.682 201.352 389.899 201.363C390.697 201.506 391.51 201.544 392.318 201.476Z" fill="#263238"/>
<path d="M397.862 186.139C398.037 186.524 399.321 186.139 400.875 186.2C402.43 186.262 403.731 186.541 403.897 186.2C403.967 186.017 403.705 185.676 403.155 185.327C402.451 184.932 401.656 184.727 400.849 184.733C400.047 184.719 399.257 184.921 398.561 185.318C398.028 185.615 397.783 185.956 397.862 186.139Z" fill="#263238"/>
<path d="M383.919 183.774C384.216 184.123 385.448 183.826 386.915 183.878C388.382 183.931 389.605 184.236 389.902 183.878C390.041 183.712 389.902 183.372 389.334 183.005C388.608 182.572 387.778 182.343 386.932 182.341C386.091 182.31 385.256 182.503 384.513 182.9C383.98 183.267 383.797 183.599 383.919 183.774Z" fill="#263238"/>
<path d="M382.992 180.707C382.992 180.707 385.805 174.821 388.765 173.554C392.355 172.026 393.682 175.938 397.062 175.161C400.442 174.384 403.874 172.917 407.167 175.659C410.765 178.655 408.914 180.559 408.957 184.821C409.088 202.113 412.005 207.144 413.324 199.056C413.464 198.183 415.944 197.58 416.503 193.816C417.211 188.96 417.674 183.048 416.748 179.537C415.962 176.576 414.398 174.489 411.508 172.122C406.966 168.401 400.503 168.017 396.084 168.262C391.665 168.506 382.949 173.17 382.992 180.707Z" fill="#263238"/>
<path d="M412.687 198.77C412.718 198.419 412.818 198.079 412.983 197.768C413.148 197.457 413.373 197.183 413.646 196.961C413.919 196.739 414.234 196.575 414.572 196.478C414.91 196.38 415.264 196.352 415.613 196.394C417.36 196.647 419.334 197.756 419.045 201.442C418.53 207.992 412.059 206.123 412.059 205.931C412.059 205.739 412.443 201.503 412.687 198.77Z" fill="#99655C"/>
<path d="M413.693 203.581C413.693 203.581 413.798 203.668 413.981 203.773C414.113 203.846 414.259 203.891 414.409 203.906C414.559 203.921 414.711 203.906 414.855 203.861C415.298 203.625 415.67 203.276 415.934 202.85C416.198 202.423 416.344 201.934 416.357 201.433C416.416 200.872 416.35 200.305 416.165 199.773C416.12 199.564 416.025 199.369 415.888 199.204C415.751 199.04 415.576 198.912 415.379 198.83C415.25 198.785 415.11 198.787 414.982 198.835C414.854 198.883 414.748 198.974 414.68 199.092C414.575 199.267 414.61 199.398 414.575 199.406C414.54 199.415 414.444 199.284 414.514 199.022C414.563 198.862 414.665 198.724 414.802 198.629C414.995 198.509 415.226 198.468 415.448 198.516C415.712 198.592 415.952 198.733 416.146 198.927C416.34 199.121 416.481 199.361 416.558 199.625C416.791 200.212 416.878 200.848 416.811 201.476C416.662 202.795 415.894 203.974 414.924 204.175C414.745 204.212 414.559 204.209 414.38 204.165C414.202 204.121 414.036 204.038 413.894 203.922C413.684 203.738 413.667 203.59 413.693 203.581Z" fill="#744A45"/>
<path d="M413.182 186.026C412.347 186.642 411.371 187.038 410.343 187.179C409.83 187.232 409.315 187.098 408.893 186.801C408.471 186.504 408.17 186.064 408.046 185.563C407.985 185.1 408.125 184.576 407.845 184.21C407.566 183.843 406.841 183.878 406.282 183.913C405.32 183.942 404.378 183.639 403.613 183.055C402.848 182.472 402.307 181.643 402.081 180.707C401.773 181.02 401.359 181.206 400.92 181.227C400.481 181.248 400.051 181.103 399.714 180.821C399.061 180.238 398.491 179.568 398.02 178.83C397.782 178.46 397.457 178.154 397.073 177.939C396.69 177.724 396.259 177.607 395.819 177.598C395.349 177.731 394.866 177.812 394.378 177.843C393.505 177.729 393.147 176.699 393.059 175.834C392.972 174.969 392.92 173.974 392.186 173.476C391.452 172.978 390.64 173.223 389.837 173.301C389.033 173.38 388.029 173.144 387.863 172.367C387.837 172.157 387.855 171.944 387.915 171.741C387.975 171.538 388.076 171.35 388.212 171.188C388.783 170.422 389.594 169.87 390.516 169.621C391.438 169.373 392.417 169.441 393.295 169.817C393.67 168.741 394.355 167.8 395.264 167.114C396.173 166.427 397.265 166.025 398.403 165.959C399.54 165.893 400.671 166.165 401.654 166.741C402.637 167.317 403.427 168.172 403.924 169.197C404.651 168.592 405.514 168.174 406.439 167.977C407.364 167.78 408.323 167.81 409.233 168.065C410.144 168.32 410.979 168.793 411.666 169.441C412.354 170.09 412.874 170.896 413.182 171.79C413.991 171.629 414.83 171.706 415.596 172.014C416.361 172.321 417.021 172.845 417.494 173.522C417.966 174.198 418.231 174.998 418.257 175.823C418.282 176.647 418.066 177.462 417.636 178.166C418.231 178.497 418.732 178.973 419.093 179.55C419.453 180.128 419.661 180.787 419.697 181.467C419.697 182.83 418.273 184.087 416.981 183.703C417.216 184.249 417.235 184.865 417.035 185.425C416.834 185.985 416.428 186.448 415.9 186.72C415.371 186.993 414.759 187.055 414.186 186.894C413.614 186.732 413.124 186.36 412.815 185.852" fill="#263238"/>
<path d="M392.711 171.756C392.705 171.796 392.705 171.838 392.711 171.878C392.7 171.994 392.7 172.111 392.711 172.227C392.774 172.676 392.913 173.11 393.122 173.511C393.455 174.151 393.93 174.707 394.51 175.136C395.266 175.703 396.185 176.009 397.13 176.009L397.026 175.852C396.8 176.439 396.815 177.092 397.069 177.669C397.333 178.274 397.686 178.836 398.117 179.337C398.323 179.621 398.557 179.885 398.816 180.123C399.285 180.467 399.862 180.633 400.443 180.592C401.024 180.55 401.571 180.303 401.986 179.896L401.742 179.817C401.802 180.502 402.005 181.166 402.337 181.768C402.669 182.37 403.124 182.895 403.672 183.31C404.271 183.8 405.013 184.081 405.785 184.114C406.517 184.114 407.244 183.99 407.934 183.747L407.759 183.66C408.059 184.471 408.561 185.193 409.218 185.756C409.516 186.037 409.873 186.248 410.262 186.375C410.652 186.502 411.065 186.541 411.471 186.489C412.167 186.373 412.814 186.055 413.332 185.576C413.85 185.096 414.217 184.476 414.388 183.791L414.231 183.852C414.903 184.251 415.693 184.405 416.467 184.289C417.045 184.213 417.597 183.997 418.074 183.66C418.374 183.455 418.634 183.198 418.842 182.9C418.913 182.795 418.974 182.684 419.026 182.568C418.745 182.956 418.403 183.295 418.012 183.572C417.541 183.876 417.006 184.067 416.449 184.131C415.715 184.224 414.97 184.067 414.336 183.686L414.222 183.607V183.747C414.053 184.384 413.703 184.959 413.215 185.402C412.727 185.845 412.121 186.138 411.471 186.245C411.1 186.291 410.724 186.252 410.37 186.133C410.017 186.013 409.694 185.816 409.427 185.555C408.813 185.018 408.341 184.337 408.056 183.572V183.441L407.925 183.485C407.268 183.715 406.577 183.833 405.881 183.834C405.162 183.803 404.473 183.54 403.916 183.083C403.401 182.69 402.973 182.193 402.66 181.624C402.347 181.056 402.156 180.428 402.1 179.782V179.468L401.881 179.703C401.635 179.945 401.335 180.124 401.005 180.224C400.675 180.325 400.325 180.344 399.986 180.28C399.668 180.23 399.368 180.101 399.113 179.904C398.867 179.683 398.645 179.437 398.449 179.171C398.034 178.689 397.69 178.151 397.427 177.572C397.188 177.056 397.163 176.466 397.357 175.931L397.419 175.773H397.253C396.339 175.78 395.448 175.492 394.711 174.952C394.146 174.551 393.678 174.029 393.34 173.424C393.038 172.907 392.825 172.343 392.711 171.756Z" fill="#455A64"/>
<path d="M390.641 206.305C390.641 206.366 390.981 206.594 391.645 206.742C392.52 206.909 393.423 206.864 394.277 206.61C395.131 206.356 395.911 205.901 396.553 205.284C397.034 204.803 397.208 204.41 397.156 204.41C397.103 204.41 395.986 205.589 394.117 206.157C392.248 206.725 390.684 206.113 390.641 206.305Z" fill="#263238"/>
<path d="M369.034 313.624L427.104 314.419C427.104 314.419 443.348 307.624 447.811 307.432C452.274 307.24 461.13 307.816 465.226 314.419C469.462 321.24 470.056 333.257 456.999 341.999C444.292 350.506 386.178 358.375 378.213 357.65L363.523 337.938C363.523 337.938 363.375 321.781 363.523 321.013C363.671 320.244 366.143 313.318 366.143 313.318L369.034 313.624Z" fill="#263238"/>
<path d="M401.269 339.738L435.95 352.62L420.168 395.843C416.133 394.096 416.02 368.69 416.02 368.69L393.461 361.354L401.269 339.738Z" fill="#0B7F9D"/>
<g opacity="0.6">
<path d="M419.007 354.647C419.285 354.276 419.69 354.021 420.145 353.93C420.6 353.84 421.072 353.921 421.47 354.158C421.848 354.425 422.109 354.825 422.202 355.278C422.294 355.731 422.211 356.202 421.968 356.595C421.67 356.987 421.238 357.255 420.754 357.347C420.27 357.439 419.769 357.348 419.348 357.093C418.971 356.775 418.735 356.322 418.691 355.831C418.647 355.34 418.798 354.852 419.112 354.473" fill="white"/>
</g>
<path d="M435.953 352.629L432.46 351.328L418.582 393.337C418.582 393.337 418.722 395.573 420.154 395.843L435.953 352.629Z" fill="#263238"/>
<path d="M415.516 369.311C415.734 369.381 416.215 368.368 417.263 367.564C418.311 366.761 419.411 366.542 419.402 366.324C419.394 366.106 418.049 365.966 416.782 366.944C415.516 367.922 415.306 369.285 415.516 369.311Z" fill="#263238"/>
<path d="M415.736 374.534C415.928 374.656 416.609 373.87 417.771 373.486C418.932 373.101 419.945 373.232 420.015 373.014C420.085 372.796 418.941 372.228 417.509 372.743C416.076 373.259 415.535 374.455 415.736 374.534Z" fill="#263238"/>
<path d="M420.223 379.092C420.337 378.917 419.35 378.218 418.031 378.358C416.712 378.498 415.856 379.293 416.005 379.45C416.153 379.607 416.992 379.214 418.101 379.135C419.21 379.057 420.171 379.293 420.223 379.092Z" fill="#263238"/>
<path d="M410.564 367.065C410.791 367.065 410.853 365.974 411.368 364.812C411.883 363.651 412.599 362.856 412.46 362.681C412.32 362.507 411.246 363.127 410.652 364.507C410.058 365.886 410.364 367.109 410.564 367.065Z" fill="#263238"/>
<path d="M405.809 364.193C406.262 363.556 406.531 362.806 406.586 362.027C406.736 361.194 406.783 360.347 406.726 359.503C406.688 359.004 406.618 358.508 406.516 358.018C406.476 357.714 406.385 357.418 406.246 357.145C406.148 356.951 405.988 356.796 405.792 356.705C405.595 356.613 405.374 356.589 405.163 356.638C404.976 356.688 404.803 356.783 404.66 356.913C404.517 357.044 404.408 357.207 404.342 357.389C404.236 357.67 404.172 357.964 404.15 358.263C404.106 358.768 404.106 359.277 404.15 359.782C404.212 360.631 404.406 361.465 404.726 362.254C405.294 363.599 405.957 364.228 406.019 364.167C406.08 364.105 405.643 363.372 405.25 362.07C405.026 361.312 404.897 360.529 404.866 359.739C404.854 359.277 404.88 358.816 404.944 358.359C404.944 357.861 405.128 357.485 405.372 357.424C405.468 357.424 405.503 357.424 405.599 357.564C405.694 357.757 405.759 357.963 405.792 358.175C405.902 358.629 405.981 359.09 406.027 359.555C406.119 360.35 406.133 361.151 406.071 361.948C405.929 362.689 405.842 363.439 405.809 364.193Z" fill="#263238"/>
<path d="M406.196 364.001C406.257 363.94 405.654 363.242 404.318 362.665C403.055 362.139 401.672 361.967 400.318 362.167C399.99 362.179 399.67 362.275 399.39 362.446C399.11 362.618 398.879 362.858 398.72 363.146C398.655 363.34 398.646 363.55 398.696 363.749C398.745 363.949 398.851 364.13 398.999 364.272C399.211 364.475 399.449 364.649 399.707 364.787C400.163 365.037 400.655 365.217 401.165 365.32C402.02 365.497 402.905 365.461 403.742 365.215C405.174 364.779 405.742 363.993 405.681 363.949C405.004 364.226 404.313 364.468 403.611 364.674C402.853 364.822 402.071 364.802 401.323 364.613C400.89 364.507 400.475 364.339 400.091 364.115C399.654 363.888 399.349 363.573 399.454 363.425C399.571 363.275 399.721 363.152 399.891 363.066C400.062 362.98 400.249 362.933 400.44 362.927C400.893 362.847 401.352 362.809 401.812 362.814C402.597 362.83 403.376 362.956 404.126 363.189C405.436 363.591 406.143 364.106 406.196 364.001Z" fill="#263238"/>
<path d="M382.136 338.865L351.07 353.276L368.8 392.027C372.398 390.105 370.66 366.656 370.66 366.656L390.939 358.245L382.136 338.865Z" fill="#0B7F9D"/>
<g opacity="0.6">
<path d="M366.895 353.885C366.609 353.567 366.216 353.364 365.792 353.316C365.367 353.268 364.939 353.377 364.589 353.623C364.258 353.894 364.043 354.281 363.99 354.705C363.936 355.129 364.047 355.558 364.301 355.903C364.603 356.241 365.02 356.456 365.472 356.506C365.923 356.556 366.377 356.437 366.746 356.173C367.056 355.848 367.228 355.417 367.228 354.968C367.228 354.519 367.056 354.088 366.746 353.763" fill="white"/>
</g>
<path d="M351.07 353.258L354.206 351.809L370.066 389.582C370.066 389.582 370.066 391.651 368.8 392.009L351.07 353.258Z" fill="#263238"/>
<path d="M371.14 367.179C370.948 367.258 370.433 366.349 369.393 365.703C368.354 365.057 367.341 364.917 367.332 364.707C367.323 364.498 368.555 364.279 369.786 365.092C371.018 365.904 371.332 367.135 371.14 367.179Z" fill="#263238"/>
<path d="M371.323 372.053C371.157 372.184 370.45 371.511 369.367 371.232C368.284 370.952 367.341 371.162 367.262 370.97C367.183 370.777 368.197 370.166 369.55 370.533C370.904 370.9 371.498 371.922 371.323 372.053Z" fill="#263238"/>
<path d="M367.516 376.551C367.394 376.394 368.215 375.678 369.472 375.678C370.73 375.678 371.551 376.385 371.429 376.551C371.306 376.717 370.503 376.42 369.516 376.42C368.529 376.42 367.621 376.726 367.516 376.551Z" fill="#263238"/>
<path d="M375.55 364.751C375.341 364.751 375.21 363.756 374.677 362.725C374.144 361.695 373.402 360.979 373.516 360.839C373.629 360.699 374.677 361.153 375.315 362.385C375.952 363.616 375.743 364.769 375.55 364.751Z" fill="#263238"/>
<path d="M379.723 361.72C379.262 361.161 378.96 360.488 378.85 359.772C378.651 359.017 378.548 358.239 378.544 357.458C378.537 356.993 378.563 356.529 378.623 356.069C378.646 355.797 378.708 355.529 378.806 355.274C378.88 355.086 379.017 354.928 379.194 354.83C379.371 354.731 379.576 354.697 379.776 354.733C379.952 354.765 380.117 354.839 380.258 354.948C380.4 355.058 380.513 355.2 380.588 355.362C380.704 355.608 380.784 355.87 380.824 356.139C380.907 356.597 380.954 357.062 380.963 357.528C380.968 358.319 380.847 359.106 380.605 359.859C380.186 361.135 379.619 361.772 379.549 361.72C379.479 361.667 379.837 360.96 380.108 359.728C380.26 359.011 380.322 358.278 380.291 357.545C380.272 357.119 380.217 356.695 380.125 356.279C380.046 355.816 379.889 355.466 379.662 355.449C379.575 355.449 379.54 355.449 379.461 355.589C379.388 355.776 379.341 355.973 379.322 356.174C379.26 356.619 379.226 357.047 379.208 357.466C379.187 358.203 379.233 358.94 379.348 359.667C379.523 360.341 379.649 361.027 379.723 361.72Z" fill="#263238"/>
<path d="M379.337 361.572C379.276 361.52 379.782 360.83 380.979 360.201C381.682 359.841 382.441 359.602 383.223 359.494C383.691 359.445 384.162 359.445 384.63 359.494C384.933 359.479 385.236 359.543 385.507 359.681C385.778 359.819 386.008 360.025 386.175 360.28C386.252 360.455 386.276 360.649 386.245 360.838C386.214 361.027 386.129 361.203 386.001 361.345C385.821 361.549 385.612 361.726 385.381 361.869C384.291 362.575 382.965 362.82 381.695 362.55C380.341 362.253 379.756 361.572 379.809 361.528C379.861 361.485 380.542 361.913 381.774 362.052C382.483 362.126 383.201 362.049 383.878 361.825C384.273 361.697 384.647 361.512 384.988 361.275C385.372 361.031 385.634 360.725 385.52 360.585C385.398 360.457 385.25 360.357 385.086 360.291C384.922 360.225 384.745 360.194 384.568 360.201C384.147 360.162 383.723 360.162 383.302 360.201C382.578 360.273 381.867 360.443 381.188 360.708C379.992 361.162 379.416 361.686 379.337 361.572Z" fill="#263238"/>
<path d="M366.144 313.32C366.144 313.32 341.061 303.957 331.829 305.171C326.668 305.844 318.598 309.782 317.987 316.403C317.375 323.023 318.982 331.861 327.908 336.175C336.834 340.49 372.449 356.464 380.912 358.927C389.375 361.389 410.476 367.154 410.476 367.154L418.484 344.306C418.484 344.306 374.755 329.171 372.449 327.512C370.144 325.852 364.292 323.512 364.292 323.512L366.144 313.32Z" fill="#263238"/>
<path d="M453.357 316.428L453.183 316.384L452.685 316.227C452.239 316.096 451.584 315.904 450.729 315.703C449.694 315.448 448.644 315.265 447.584 315.153C446.181 315.022 444.769 315.022 443.366 315.153C441.664 315.294 439.98 315.613 438.344 316.105C437.444 316.38 436.568 316.728 435.724 317.144L432.999 318.471C429.244 320.218 425.052 322.105 420.589 323.869C411.654 327.45 403.078 329.109 396.964 330.533C393.89 331.214 391.41 331.773 389.698 332.175L387.733 332.646L387.218 332.76H387.043L387.209 332.699L387.715 332.559C388.17 332.437 388.825 332.253 389.681 332.044C391.427 331.607 393.855 331.013 396.921 330.297C403.034 328.856 411.584 327.135 420.501 323.563C424.956 321.816 429.148 319.974 432.894 318.192L435.628 316.873C436.494 316.454 437.394 316.109 438.318 315.843C439.969 315.352 441.667 315.039 443.384 314.908C444.798 314.775 446.222 314.775 447.637 314.908C448.701 315.027 449.755 315.226 450.79 315.502C451.663 315.72 452.292 315.93 452.729 316.078L453.226 316.262L453.357 316.428Z" fill="#455A64"/>
<path d="M452.002 313.117C452.002 313.161 451.242 313.03 450.011 312.899C448.413 312.724 446.804 312.677 445.198 312.759C443.592 312.842 441.994 313.052 440.421 313.388C439.216 313.641 438.474 313.86 438.465 313.816C438.622 313.728 438.789 313.661 438.963 313.615C439.295 313.502 439.775 313.353 440.378 313.205C441.951 312.808 443.56 312.568 445.181 312.489C446.803 312.405 448.429 312.478 450.037 312.707C450.648 312.794 451.146 312.89 451.487 312.969C451.664 312.996 451.837 313.046 452.002 313.117Z" fill="#455A64"/>
<path d="M355.591 319.957C355.591 319.957 354.866 319.45 353.661 318.708C352.096 317.742 350.434 316.946 348.701 316.332C346.962 315.723 345.165 315.299 343.338 315.066C341.941 314.891 341.059 314.874 341.059 314.83C341.264 314.804 341.473 314.804 341.679 314.83C342.241 314.828 342.804 314.854 343.364 314.909C345.213 315.092 347.034 315.494 348.788 316.105C350.542 316.726 352.214 317.559 353.766 318.586C354.239 318.891 354.694 319.223 355.128 319.581C355.297 319.688 355.452 319.814 355.591 319.957Z" fill="#455A64"/>
<path d="M368.176 354.028L368.369 354.097L368.945 354.342C369.443 354.543 370.176 354.892 371.155 355.268C373.111 356.036 375.993 357.102 379.696 358.316C387.111 360.744 397.757 363.827 410.5 367.049L410.351 367.128L418.107 345.608L418.185 345.774L408.578 341.835L355.451 320.001C353.294 317.713 351.303 315.696 349.443 314.071C347.863 312.671 346.175 311.398 344.395 310.263C343.264 309.561 342.098 308.917 340.901 308.333L339.967 307.905L339.652 307.748C339.763 307.785 339.87 307.829 339.975 307.879L340.919 308.29C342.12 308.85 343.287 309.483 344.412 310.185C346.203 311.307 347.902 312.569 349.495 313.958C351.373 315.582 353.382 317.591 355.556 319.879L408.718 341.661L418.325 345.608L418.447 345.661L418.403 345.774C415.635 353.425 413.006 360.7 410.631 367.294V367.399H410.526C397.783 364.167 387.137 361.049 379.74 358.586C376.045 357.355 373.163 356.263 371.216 355.469C370.238 355.076 369.469 354.717 369.015 354.508L368.447 354.246L368.176 354.028Z" fill="#455A64"/>
<path d="M430.162 233.396C430.162 233.396 437.385 237.554 438.852 242.445C439.725 245.405 446.477 283.37 447.586 290.855C448.695 298.34 446.398 303.886 443.219 306.375C440.04 308.864 430.345 312.165 430.345 312.165L416.677 316.576L412.773 306.645L425.734 288.025L424.476 275.484L430.162 233.396Z" fill="#0B7F9D"/>
<path d="M415.97 226.839L410.564 223.738C410.564 223.738 405.621 229.52 398.879 228.812C394.699 228.257 390.875 226.164 388.154 222.943L368.066 227.031C366.721 227.301 364.258 228.157 361.909 231.52C359.289 235.267 346.852 251.887 346.852 251.887H338.075C336.896 251.885 335.74 252.206 334.73 252.814C333.721 253.422 332.896 254.294 332.346 255.336C330.861 258.166 329.079 261.956 329.254 263.529C329.542 266.149 329.036 273.459 332.59 275.756C333.717 276.48 337.752 278.638 340.887 278.489C345.507 278.271 350.87 275.869 353.988 273.703C356.608 271.878 362.721 265.546 365.044 263.074V263.118L366.547 315.843L419.245 314.341L430.162 233.424C430.162 233.424 416.503 226.839 415.97 226.839Z" fill="#0B7F9D"/>
<path d="M364.858 240.961C364.937 240.961 365.068 247.494 365.164 255.555C365.26 263.616 365.278 270.157 365.208 270.157C365.138 270.157 364.989 263.625 364.893 255.564C364.797 247.502 364.788 240.961 364.858 240.961Z" fill="#263238"/>
<path d="M436.546 283.582C436.546 283.582 436.101 283.652 435.306 283.809C434.182 284.034 433.087 284.382 432.04 284.848C430.483 285.541 429.017 286.421 427.673 287.468C426.033 288.751 424.502 290.168 423.097 291.704C421.586 293.329 420.206 294.944 418.913 296.368C417.78 297.648 416.582 298.87 415.324 300.027C414.476 300.809 413.574 301.53 412.625 302.185C412.302 302.42 412.022 302.578 411.839 302.7C411.748 302.761 411.652 302.814 411.551 302.857L411.813 302.648C411.979 302.517 412.249 302.351 412.564 302.097C413.479 301.412 414.354 300.674 415.184 299.888C416.249 298.901 417.446 297.643 418.721 296.202C419.996 294.761 421.341 293.154 422.887 291.521C424.3 289.974 425.846 288.554 427.507 287.276C428.864 286.22 430.349 285.34 431.926 284.656C432.991 284.195 434.108 283.869 435.254 283.687C435.563 283.635 435.875 283.6 436.188 283.582H436.546Z" fill="#263238"/>
<path d="M437.742 280.009C437.742 280.062 436.939 280.175 435.681 280.525C432.4 281.439 429.421 283.212 427.052 285.66C426.179 286.603 425.673 287.258 425.629 287.223C425.71 287.051 425.813 286.89 425.935 286.743C426.236 286.319 426.562 285.914 426.913 285.529C429.242 282.966 432.283 281.156 435.646 280.332C436.15 280.208 436.66 280.114 437.175 280.053C437.362 280.017 437.552 280.003 437.742 280.009Z" fill="#263238"/>
<g opacity="0.3">
<path d="M339.664 270.743C342.45 271.503 345.777 267.485 348.336 264.979C349.655 263.669 351.026 262.271 351.507 260.481C351.852 258.977 351.699 257.401 351.07 255.992C350.601 254.719 349.979 253.508 349.218 252.385C349.454 254.551 349.987 257.869 349.218 260.586C348.505 262.772 347.28 264.757 345.646 266.376C344.031 268.193 342.153 270.097 339.629 270.743" fill="black"/>
</g>
<path d="M351.587 268.463C351.534 268.463 351.857 267.546 352.119 266.026C352.272 265.143 352.359 264.249 352.382 263.353C352.423 261.153 352.077 258.963 351.36 256.882C351.072 256.032 350.718 255.206 350.303 254.41C349.587 253.056 349.002 252.297 349.045 252.262C349.21 252.417 349.356 252.589 349.482 252.777C349.642 252.984 349.791 253.2 349.927 253.423C350.093 253.685 350.294 253.974 350.478 254.297C350.918 255.089 351.295 255.916 351.604 256.768C351.993 257.817 352.286 258.898 352.478 260C352.64 261.104 352.707 262.22 352.678 263.336C352.645 264.242 352.54 265.145 352.364 266.035C352.301 266.379 352.219 266.72 352.119 267.056C352.057 267.311 351.981 267.561 351.892 267.808C351.814 268.036 351.712 268.256 351.587 268.463Z" fill="#263238"/>
<path d="M390.329 224.979C390.329 225.048 389.744 225.406 389.097 225.992C388.451 226.577 388.023 227.136 387.953 227.092C388.181 226.594 388.51 226.149 388.919 225.786C389.328 225.422 389.808 225.147 390.329 224.979Z" fill="#263238"/>
<path d="M395.811 228.166C395.864 228.218 395.34 228.795 394.938 229.633C394.536 230.472 394.344 231.232 394.266 231.214C394.276 230.619 394.423 230.035 394.695 229.506C394.968 228.978 395.359 228.519 395.838 228.166H395.811Z" fill="#263238"/>
<path d="M405.203 231.441C404.947 230.939 404.745 230.413 404.6 229.869C404.366 229.359 404.184 228.826 404.059 228.279C404.428 228.717 404.699 229.23 404.853 229.781C405.089 230.303 405.208 230.869 405.203 231.441Z" fill="#263238"/>
<path d="M411.243 228.611C411.156 228.611 410.955 227.738 410.37 226.742C409.785 225.747 409.06 225.153 409.121 225.092C409.751 225.439 410.265 225.964 410.597 226.603C411.002 227.195 411.227 227.893 411.243 228.611Z" fill="#263238"/>
<path d="M428.59 245.686C428.669 245.686 427.769 252.9 426.599 261.773C425.429 270.646 424.415 277.834 424.337 277.817C424.258 277.799 425.158 270.611 426.328 261.738C427.498 252.865 428.52 245.677 428.59 245.686Z" fill="#263238"/>
<path d="M349.62 257.346C349.65 257.595 349.65 257.847 349.62 258.097C349.602 258.39 349.564 258.682 349.507 258.97C349.507 259.136 349.446 259.32 349.419 259.512L349.271 260.106C349.008 261.078 348.661 262.024 348.232 262.935C347.683 264.041 347.034 265.093 346.293 266.079C345.534 267.046 344.67 267.925 343.716 268.699C342.92 269.339 342.038 269.866 341.096 270.263C340.904 270.341 340.712 270.429 340.529 270.49L340.004 270.638L339.542 270.769L339.149 270.822C338.903 270.862 338.655 270.882 338.406 270.883C339.303 270.703 340.181 270.437 341.026 270.088C341.923 269.67 342.762 269.139 343.524 268.507C344.453 267.725 345.296 266.847 346.039 265.887C346.774 264.917 347.42 263.882 347.97 262.795C348.409 261.906 348.768 260.98 349.044 260.027C349.288 259.145 349.48 258.25 349.62 257.346Z" fill="#263238"/>
<g opacity="0.3">
<path d="M426.897 317.617C429.132 316.534 429.639 313.643 429.866 311.172C430.536 303.923 431.205 296.68 431.875 289.442C432.189 286.036 432.338 282.15 429.936 279.713C427.744 277.495 424.259 277.355 421.132 277.364C401.849 277.425 384.827 277.984 365.543 278.036L366.521 311.792L426.897 317.617Z" fill="black"/>
</g>
<path d="M357.225 283.267L359.278 322.385C359.32 323.117 359.642 323.804 360.177 324.304C360.712 324.805 361.419 325.081 362.151 325.075L424.466 325.189C425.199 325.192 425.906 324.913 426.44 324.409C426.973 323.904 427.292 323.214 427.33 322.481L429.714 284.053C429.793 282.455 428.658 280.333 427.033 280.298H360.151C359.76 280.287 359.371 280.356 359.008 280.502C358.645 280.648 358.316 280.867 358.042 281.146C357.767 281.424 357.553 281.757 357.413 282.122C357.272 282.487 357.208 282.877 357.225 283.267Z" fill="#E0E0E0"/>
<path d="M357.227 283.268C357.227 283.268 357.227 283.216 357.227 283.12C357.227 283.024 357.227 282.875 357.227 282.683C357.309 282.111 357.569 281.58 357.969 281.163C358.257 280.849 358.612 280.604 359.008 280.447C359.49 280.277 360.001 280.205 360.51 280.238H364.301L388.449 280.194H424.257H426.799C427.253 280.173 427.703 280.288 428.091 280.526C428.468 280.767 428.791 281.082 429.043 281.452C429.547 282.197 429.818 283.076 429.82 283.976C429.768 284.849 429.724 285.722 429.672 286.596C429.457 290.089 429.235 293.679 429.008 297.364C428.554 304.683 428.082 312.264 427.602 320.028L427.515 321.478C427.499 321.969 427.458 322.458 427.392 322.945C427.294 323.443 427.069 323.907 426.741 324.294C426.412 324.68 425.99 324.977 425.515 325.155C425.047 325.317 424.55 325.382 424.056 325.347H419.768H408.58H387.427L368.292 325.294H362.799C362.44 325.294 362.082 325.294 361.716 325.294C360.995 325.192 360.337 324.831 359.864 324.278C359.391 323.724 359.136 323.018 359.148 322.29C359.113 321.609 359.078 320.936 359.043 320.272C358.973 318.936 358.912 317.652 358.842 316.36C358.327 306.185 357.908 297.949 357.62 292.246C357.48 289.408 357.375 287.198 357.305 285.696C357.305 284.945 357.244 284.377 357.227 283.949C357.209 283.521 357.227 283.373 357.227 283.373C357.227 283.373 357.227 283.565 357.27 283.949C357.314 284.334 357.331 284.91 357.375 285.652C357.462 287.163 357.585 289.364 357.742 292.211C358.056 297.906 358.502 306.185 359.052 316.316C359.122 317.591 359.192 318.893 359.261 320.229C359.296 320.893 359.331 321.565 359.366 322.246C359.359 322.919 359.592 323.572 360.021 324.089C360.465 324.614 361.087 324.957 361.768 325.05C362.12 325.068 362.473 325.068 362.825 325.05H368.318H387.454H408.606H419.794H424.082C424.531 325.087 424.982 325.034 425.41 324.893C425.849 324.736 426.24 324.469 426.546 324.117C426.852 323.765 427.062 323.34 427.157 322.884C427.235 322.438 427.235 321.932 427.27 321.46L427.366 320.002C427.847 312.246 428.309 304.666 428.764 297.347C428.991 293.684 429.215 290.092 429.436 286.569L429.593 283.949C429.59 283.102 429.335 282.275 428.86 281.574C428.653 281.218 428.356 280.924 427.999 280.721C427.641 280.519 427.236 280.415 426.825 280.421H424.275H388.467H364.318H360.528C360.028 280.378 359.524 280.444 359.052 280.613C358.661 280.759 358.309 280.992 358.021 281.294C357.625 281.704 357.363 282.225 357.27 282.788C357.218 283.067 357.288 283.268 357.227 283.268Z" fill="#263238"/>
<path d="M397.6 302.349C397.603 303.079 397.389 303.793 396.985 304.401C396.582 305.009 396.006 305.483 395.332 305.763C394.658 306.042 393.916 306.115 393.2 305.971C392.485 305.828 391.828 305.475 391.314 304.957C390.8 304.439 390.451 303.78 390.313 303.063C390.174 302.347 390.252 301.605 390.537 300.933C390.821 300.261 391.3 299.689 391.91 299.289C392.521 298.89 393.237 298.681 393.967 298.69C394.932 298.699 395.855 299.088 396.535 299.773C397.215 300.458 397.598 301.384 397.6 302.349Z" fill="white"/>
<path d="M397.603 302.351C397.603 302.351 397.603 302.019 397.437 301.477C397.308 300.995 397.079 300.544 396.766 300.155C396.453 299.765 396.062 299.445 395.618 299.215C395.174 298.985 394.688 298.85 394.189 298.819C393.69 298.787 393.19 298.86 392.721 299.032C392.065 299.273 391.496 299.705 391.088 300.272C390.636 300.876 390.392 301.61 390.392 302.364C390.392 303.118 390.636 303.852 391.088 304.456C391.496 305.023 392.065 305.455 392.721 305.696C393.19 305.865 393.689 305.936 394.187 305.903C394.685 305.87 395.171 305.735 395.614 305.505C396.057 305.275 396.448 304.957 396.761 304.568C397.075 304.18 397.305 303.732 397.437 303.25C397.586 302.691 397.577 302.377 397.603 302.377C397.616 302.455 397.616 302.535 397.603 302.613C397.6 302.839 397.573 303.064 397.524 303.285C397.336 304.111 396.867 304.846 396.197 305.364C395.737 305.731 395.194 305.979 394.616 306.089C393.951 306.216 393.264 306.165 392.625 305.94C391.924 305.685 391.316 305.226 390.878 304.622C390.397 303.971 390.137 303.182 390.137 302.373C390.137 301.563 390.397 300.775 390.878 300.124C391.316 299.52 391.924 299.06 392.625 298.805C393.264 298.58 393.951 298.529 394.616 298.656C395.32 298.795 395.97 299.134 396.486 299.633C397.002 300.132 397.363 300.769 397.524 301.469C397.574 301.69 397.6 301.915 397.603 302.141C397.613 302.211 397.613 302.281 397.603 302.351Z" fill="#263238"/>
<path d="M359.335 287.6C359.404 287.6 359.71 294.167 360.016 302.281C360.321 310.394 360.505 316.971 360.435 316.971C360.365 316.971 360.051 310.403 359.745 302.29C359.439 294.176 359.256 287.6 359.335 287.6Z" fill="#263238"/>
<path d="M340.596 236.55C340.229 236.245 341.828 230.096 341.828 230.096C341.828 230.096 337.601 223.196 337.461 220.978C337.321 218.76 339.129 214.192 339.129 214.192L351.26 211.074C351.26 211.074 355.155 218.306 355.932 220.865C356.71 223.424 354.666 232.105 354.666 232.105L352.614 236.55C352.614 236.55 346.369 241.45 340.596 236.55Z" fill="#99655C"/>
<path d="M337.516 222.305C337.036 221.435 336.607 220.537 336.233 219.615C335.473 217.79 334.53 216.008 336.233 214.987C336.501 214.812 336.803 214.696 337.119 214.647C337.435 214.597 337.758 214.615 338.067 214.698C338.067 214.698 337.805 213.17 338.713 212.594C338.979 212.426 339.281 212.325 339.594 212.297C339.906 212.27 340.221 212.318 340.512 212.436C340.512 212.436 340.224 210.27 341.543 209.353C342.04 209.029 342.617 208.849 343.21 208.832C343.804 208.815 344.39 208.962 344.905 209.257C344.905 209.257 343.857 199.799 343.77 199.292C343.438 197.458 344.119 195.799 345.944 196.279C346.617 196.445 346.992 197.153 347.778 200.236C348.564 203.318 349.831 208.576 349.831 208.576C349.831 208.576 351.962 212.279 352.966 214.288C353.971 216.297 355.962 220.864 356.128 222.078C356.556 225.205 354.722 229.353 354.722 229.353L341.831 230.096C341.831 230.096 338.006 223.205 337.516 222.305Z" fill="#99655C"/>
<path d="M338.316 215.109C338.681 215.548 339.014 216.012 339.312 216.498L340.334 218.053C340.544 218.36 340.728 218.684 340.884 219.022C341.064 219.406 341.119 219.837 341.041 220.253C341.001 220.471 340.903 220.673 340.759 220.84C340.615 221.008 340.429 221.134 340.22 221.205C339.832 221.304 339.421 221.254 339.067 221.066C338.76 220.915 338.468 220.737 338.194 220.533L337.495 220.009C337.076 219.686 336.753 219.406 336.535 219.205C336.316 219.005 336.203 218.882 336.211 218.865C336.22 218.847 336.753 219.249 337.609 219.86C338.098 220.226 338.615 220.553 339.155 220.839C339.454 220.992 339.798 221.032 340.124 220.952C340.288 220.894 340.433 220.793 340.543 220.659C340.654 220.525 340.727 220.364 340.753 220.192C340.822 219.832 340.776 219.459 340.622 219.127C340.476 218.799 340.304 218.483 340.107 218.184L339.155 216.594C338.835 216.123 338.554 215.626 338.316 215.109Z" fill="#744A45"/>
<path d="M348.888 216.237C348.775 215.56 348.823 214.866 349.028 214.211C349.145 213.533 349.42 212.893 349.831 212.342C349.901 212.342 349.543 213.215 349.29 214.272C349.037 215.329 348.967 216.237 348.888 216.237Z" fill="#744A45"/>
<path d="M353.994 218.995C352.807 217.845 351.311 217.065 349.689 216.751C348.069 216.438 346.411 216.373 344.772 216.558C343.462 216.681 341.968 217.013 341.366 218.192C341.118 218.831 341.112 219.54 341.351 220.183C341.589 220.826 342.054 221.361 342.658 221.685C343.879 222.291 345.259 222.502 346.606 222.288C347.945 222.067 349.306 222.011 350.658 222.122" fill="#99655C"/>
<path d="M350.659 222.088C350.659 222.088 350.292 222.088 349.646 222.088C348.719 222.125 347.795 222.213 346.877 222.35C346.237 222.427 345.592 222.453 344.947 222.429C344.191 222.402 343.45 222.214 342.772 221.879C342.014 221.485 341.436 220.817 341.157 220.01C341.011 219.577 340.981 219.113 341.069 218.665C341.173 218.204 341.421 217.788 341.777 217.477C342.491 216.918 343.353 216.581 344.257 216.508C345.069 216.417 345.885 216.367 346.703 216.359C348.096 216.336 349.484 216.549 350.807 216.988C351.695 217.284 352.525 217.73 353.261 218.307C353.461 218.467 353.65 218.639 353.829 218.822C353.89 218.884 353.946 218.951 353.995 219.023C353.995 219.023 353.733 218.778 353.2 218.394C352.453 217.856 351.624 217.44 350.746 217.163C349.439 216.766 348.077 216.581 346.711 216.612C345.903 216.623 345.095 216.675 344.292 216.77C343.446 216.828 342.636 217.132 341.96 217.643C341.645 217.917 341.425 218.284 341.331 218.691C341.252 219.09 341.28 219.502 341.41 219.887C341.66 220.637 342.188 221.263 342.886 221.634C343.529 221.96 344.235 222.145 344.956 222.176C345.591 222.215 346.227 222.2 346.86 222.132C347.784 222.012 348.714 221.951 349.646 221.949C349.897 221.961 350.148 221.988 350.397 222.027C350.487 222.033 350.575 222.054 350.659 222.088Z" fill="#744A45"/>
<path d="M338.414 215.257C339.768 217.318 340.964 219.58 342.108 221.764C342.38 222.431 342.827 223.014 343.401 223.449C343.89 223.746 345.104 223.205 345.646 223.013L341.925 214.541" fill="#99655C"/>
<path d="M341.925 214.541C342.055 214.74 342.166 214.951 342.257 215.17L343.078 216.917C343.768 218.427 344.711 220.532 345.768 222.925L345.829 223.056L345.689 223.109C345.287 223.248 344.816 223.432 344.388 223.554C344.202 223.603 344.012 223.629 343.82 223.633C343.719 223.645 343.616 223.645 343.514 223.633C343.415 223.6 343.321 223.553 343.235 223.493C342.937 223.274 342.682 223.002 342.484 222.69C342.1 222.087 341.829 221.484 341.532 220.943C340.947 219.816 340.405 218.803 339.942 217.965C339.48 217.126 339.069 216.454 338.816 215.991C338.664 215.76 338.53 215.517 338.414 215.266C338.595 215.477 338.758 215.702 338.903 215.938C339.209 216.384 339.628 217.039 340.108 217.869C340.589 218.698 341.156 219.703 341.75 220.829C342.056 221.379 342.344 222 342.702 222.576C342.884 222.86 343.118 223.106 343.392 223.301C343.619 223.493 343.986 223.423 344.327 223.345C344.759 223.224 345.185 223.081 345.602 222.917L345.523 223.1C344.475 220.698 343.558 218.576 342.903 217.048C342.597 216.314 342.353 215.703 342.152 215.24C342.054 215.015 341.978 214.781 341.925 214.541Z" fill="#744A45"/>
<path d="M340.918 212.027L344.507 221.031C344.725 221.685 345.053 222.296 345.477 222.839C345.69 223.109 345.966 223.323 346.282 223.46C346.597 223.597 346.942 223.654 347.285 223.625C347.743 223.505 348.148 223.235 348.436 222.858C348.724 222.482 348.878 222.02 348.874 221.546C348.849 220.597 348.62 219.665 348.202 218.813C347.114 216.074 346.238 213.257 345.582 210.385" fill="#99655C"/>
<path d="M345.625 210.385C345.669 210.474 345.701 210.568 345.721 210.664C345.774 210.874 345.844 211.136 345.931 211.459C346.114 212.149 346.385 213.145 346.804 214.367C347.224 215.59 347.678 217.031 348.289 218.603C348.671 219.418 348.924 220.287 349.04 221.18C349.081 221.67 348.987 222.162 348.769 222.603C348.551 223.082 348.162 223.462 347.678 223.669C347.433 223.758 347.173 223.793 346.913 223.772C346.654 223.751 346.402 223.674 346.176 223.546C345.74 223.309 345.373 222.963 345.11 222.542C344.683 221.758 344.321 220.94 344.027 220.097L342.385 215.913L341.276 213.101C341.163 212.786 341.075 212.533 340.997 212.332C340.959 212.243 340.933 212.149 340.918 212.053C340.972 212.131 341.016 212.217 341.049 212.306L341.381 213.066L342.542 215.861C343.023 217.057 343.599 218.481 344.237 220.027C344.527 220.856 344.887 221.659 345.311 222.428C345.549 222.799 345.88 223.1 346.272 223.302C346.465 223.412 346.68 223.479 346.901 223.499C347.123 223.518 347.346 223.49 347.556 223.415C347.971 223.234 348.304 222.904 348.49 222.49C348.685 222.085 348.772 221.637 348.743 221.188C348.629 220.324 348.384 219.482 348.018 218.69C347.416 217.11 346.944 215.651 346.586 214.42C346.228 213.188 345.983 212.184 345.826 211.485C345.756 211.136 345.695 210.856 345.669 210.673C345.644 210.579 345.629 210.482 345.625 210.385Z" fill="#744A45"/>
<path d="M341.206 233.188C341.206 233.188 332.979 257.424 332.656 258.612C332.333 259.799 334.28 268.463 337.852 270.516C341.424 272.568 348.333 264.027 349.206 260.909C350.079 257.791 349.206 252.472 349.206 252.472L354.752 231.59" fill="#99655C"/>
<path d="M349.219 229.371C348.956 229.407 348.688 229.374 348.442 229.275C347.835 229.083 347.277 228.761 346.808 228.331C346.339 227.901 345.969 227.374 345.725 226.786C345.608 226.547 345.551 226.283 345.559 226.018C345.865 226.824 346.355 227.547 346.99 228.13C347.626 228.712 348.389 229.137 349.219 229.371Z" fill="#744A45"/>
</svg>
