<svg width="400" height="400" viewBox="0 0 400 400" fill="none" xmlns="http://www.w3.org/2000/svg">
<path d="M287.881 199.113C287.257 199.579 286.56 199.939 285.817 200.177C283.776 200.882 281.552 200.854 279.529 200.097C278.127 199.585 276.866 198.749 275.849 197.657C274.679 196.395 273.87 194.842 273.505 193.161C273.3 192.256 273.235 191.325 273.313 190.401C273.38 189.434 273.599 188.483 273.961 187.585C274.716 185.676 276.063 184.06 277.803 182.973C279.544 181.886 281.587 181.385 283.633 181.545C285.535 181.694 287.35 182.404 288.849 183.585C290.199 184.651 291.238 186.06 291.857 187.665C292.394 189.057 292.594 190.556 292.441 192.041C292.227 194.191 291.275 196.201 289.745 197.729C289.205 198.29 288.575 198.758 287.881 199.113C288.483 198.642 289.057 198.137 289.601 197.601C291.029 196.064 291.897 194.091 292.065 192.001C292.191 190.58 291.98 189.149 291.449 187.825C290.843 186.305 289.843 184.974 288.553 183.969C287.862 183.426 287.093 182.989 286.273 182.673C285.421 182.33 284.518 182.127 283.601 182.073C281.668 181.926 279.739 182.4 278.095 183.426C276.45 184.452 275.176 185.976 274.457 187.777C274.11 188.626 273.9 189.525 273.833 190.441C273.753 191.316 273.807 192.198 273.993 193.057C274.307 194.555 274.991 195.952 275.981 197.12C276.972 198.288 278.238 199.19 279.665 199.745C281.614 200.503 283.761 200.585 285.761 199.977C287.201 199.537 287.849 199.057 287.881 199.113Z" fill="#E0E0E0"/>
<path d="M289.601 211.552L289.841 211.768L290.561 212.464L293.377 215.24H293.273L300.665 210.56L300.609 210.72C300.073 209.216 299.481 207.52 298.849 205.736V205.648L298.913 205.576C300.208 204.193 301.308 202.64 302.185 200.96L302.233 200.864H307.633L307.441 201.008C308.057 198.328 308.713 195.472 309.393 192.48L309.505 192.72L304.745 190.432L304.625 190.376V190.24C304.563 188.34 304.249 186.457 303.689 184.64L303.649 184.504L303.745 184.408C304.913 183.256 306.193 182.008 307.497 180.68V180.984L302.761 173.6L303.057 173.704L298.073 175.448L297.921 175.496L297.809 175.392C296.432 174.104 294.89 173.004 293.225 172.12L293.081 172.048V171.888C293.081 170.232 293.081 168.432 293.081 166.6L293.289 166.864L284.801 164.904L285.105 164.76L282.801 169.56L282.737 169.704H282.569C280.688 169.765 278.824 170.074 277.025 170.624L276.753 170.552L276.697 170.496L276.577 170.376L276.345 170.136L275.881 169.664L274.945 168.728L273.089 166.856L273.425 166.896L266.001 171.528L266.113 171.208C266.694 172.888 267.273 174.552 267.849 176.2L267.905 176.352L267.793 176.472C266.499 177.845 265.398 179.387 264.521 181.056L264.441 181.192H264.289H259.001L259.249 180.992C258.577 183.893 257.918 186.733 257.273 189.512L257.137 189.232L261.897 191.536L262.025 191.6V191.744C262.077 193.644 262.386 195.528 262.945 197.344L262.985 197.48L262.881 197.576L259.121 201.288V201.008L263.737 208.44L263.497 208.36L268.489 206.632L268.601 206.592L268.689 206.672C270.067 207.968 271.611 209.077 273.281 209.968L273.377 210.016V210.128C273.377 212.048 273.377 213.776 273.337 215.408L273.209 215.256L281.721 217.264L281.585 217.328L283.921 212.584V212.536H283.969C285.401 212.496 286.826 212.319 288.225 212.008L289.257 211.76L289.601 211.688L289.265 211.808C289.041 211.88 288.705 211.984 288.241 212.096C286.844 212.448 285.415 212.654 283.977 212.712L284.049 212.656L281.785 217.456L281.737 217.544H281.649L273.113 215.616H272.993V215.488C272.993 213.888 272.993 212.12 272.993 210.2L273.081 210.36C271.377 209.465 269.8 208.345 268.393 207.032L268.585 207.072L263.601 208.824L263.449 208.88L263.361 208.744L258.713 201.328L258.617 201.176L258.745 201.048L262.489 197.328L262.433 197.56C261.862 195.715 261.542 193.802 261.481 191.872L261.617 192.08L256.817 189.792L256.641 189.704L256.681 189.512L258.673 180.8L258.713 180.6H258.921H264.209L263.977 180.736C264.88 179.026 266.007 177.444 267.329 176.032L267.273 176.304C266.697 174.656 266.115 172.992 265.529 171.312L265.457 171.112L265.641 171L273.057 166.368L273.241 166.248L273.393 166.4L275.249 168.272L276.177 169.216L276.649 169.688L276.881 169.928L277.001 170.04L277.057 170.104C276.513 169.968 276.905 170.064 276.785 170.032C278.63 169.467 280.543 169.149 282.473 169.088L282.241 169.24L284.545 164.44L284.633 164.248L284.841 164.296L293.361 166.264L293.569 166.312V166.528C293.569 168.352 293.569 170.16 293.569 171.816L293.433 171.584C295.14 172.488 296.719 173.615 298.129 174.936L297.873 174.88L302.865 173.152L303.049 173.08L303.161 173.256L307.785 180.68L307.881 180.84L307.745 180.976C306.441 182.272 305.153 183.536 303.985 184.688L304.049 184.456C304.609 186.303 304.924 188.215 304.985 190.144L304.857 189.952L309.617 192.264L309.769 192.336L309.729 192.496C309.033 195.488 308.361 198.336 307.737 201.016V201.168H307.585H302.297L302.449 201.072C301.545 202.77 300.418 204.339 299.097 205.736V205.576C299.721 207.376 300.297 209.064 300.817 210.576L300.857 210.68L300.761 210.736L293.313 215.328H293.257L293.209 215.28L290.481 212.464L289.785 211.728C289.719 211.674 289.658 211.615 289.601 211.552Z" fill="#E0E0E0"/>
<path fill-rule="evenodd" clip-rule="evenodd" d="M307 148.256C304.421 149.051 301.746 149.498 299.048 149.584L295.792 156.312L283.744 153.528V146.048C281.355 144.79 279.146 143.216 277.176 141.368L270.12 143.832L263.576 133.336L268.88 128.08C268.087 125.498 267.643 122.821 267.56 120.12L260.824 116.872L263.648 104.8H271.12C272.384 102.412 273.961 100.204 275.808 98.2323L273.344 91.2003L283.84 84.6563L289.096 89.9603C291.676 89.1674 294.351 88.7235 297.048 88.6403L300.304 81.9043L312.352 84.6963V92.1683C314.737 93.4303 316.943 95.0041 318.912 96.8483L325.968 94.3923L332.52 104.88L327.2 110.176C328 112.755 328.446 115.43 328.528 118.128L335.256 121.384L332.472 133.432H325C323.736 135.817 322.159 138.023 320.312 139.992L322.776 147.048L312.256 153.6L307 148.288V148.256ZM304.6 130.656C306.827 129.266 308.591 127.247 309.67 124.854C310.749 122.462 311.095 119.803 310.663 117.214C310.231 114.625 309.041 112.222 307.243 110.309C305.446 108.396 303.121 107.06 300.564 106.468C298.007 105.876 295.331 106.056 292.876 106.984C290.421 107.913 288.297 109.549 286.771 111.685C285.246 113.821 284.388 116.361 284.306 118.985C284.225 121.609 284.923 124.197 286.312 126.424C287.233 127.905 288.437 129.19 289.854 130.205C291.272 131.221 292.876 131.947 294.574 132.342C296.273 132.737 298.032 132.794 299.753 132.509C301.473 132.224 303.12 131.602 304.6 130.68V130.656Z" fill="#E0E0E0"/>
<path fill-rule="evenodd" clip-rule="evenodd" d="M335.384 188.111C334.01 188.531 332.588 188.768 331.152 188.815L329.424 192.391L323.024 190.911V186.911C321.754 186.24 320.578 185.403 319.528 184.423L315.776 185.727L312.296 180.127L315.12 177.335C314.694 175.963 314.457 174.54 314.416 173.103L310.832 171.367L312.312 164.967H316.312C316.988 163.701 317.828 162.528 318.808 161.479L317.496 157.727L323.096 154.239L325.896 157.063C327.27 156.644 328.693 156.407 330.128 156.359L331.856 152.775L338.256 154.263V158.263C339.525 158.933 340.698 159.77 341.744 160.751L345.504 159.447L348.984 165.047L346.16 167.847C346.586 169.219 346.823 170.643 346.864 172.079L350.448 173.807L348.968 180.207H344.968C344.294 181.478 343.454 182.653 342.472 183.703L343.784 187.455L338.184 190.943L335.384 188.119V188.111ZM334.112 178.759C335.298 178.021 336.238 176.947 336.814 175.673C337.389 174.4 337.574 172.984 337.345 171.606C337.116 170.228 336.484 168.948 335.527 167.929C334.571 166.91 333.334 166.198 331.973 165.882C330.611 165.567 329.187 165.662 327.88 166.156C326.573 166.65 325.442 167.52 324.629 168.657C323.817 169.794 323.36 171.146 323.316 172.543C323.273 173.94 323.644 175.318 324.384 176.503C325.375 178.092 326.957 179.222 328.781 179.645C330.605 180.068 332.523 179.75 334.112 178.759Z" fill="#EBEBEB"/>
<path d="M89.8891 117.32C89.9771 117.4 86.2251 121.248 81.5131 125.904C76.8011 130.56 72.9211 134.272 72.8411 134.192C72.7611 134.112 76.5131 130.264 81.2251 125.608C85.9371 120.952 89.8091 117.24 89.8891 117.32Z" fill="#E0E0E0"/>
<path d="M89.93 134.153C89.85 134.233 85.93 130.537 81.226 125.905C76.522 121.273 72.722 117.449 72.802 117.361C72.882 117.273 76.802 120.969 81.514 125.609C86.226 130.249 90.018 134.065 89.93 134.153Z" fill="#E0E0E0"/>
<path d="M106.856 223.792C106.856 223.904 102.056 223.488 96.1675 222.872C90.2795 222.256 85.5115 221.648 85.5195 221.536C85.5275 221.424 90.3195 221.832 96.2075 222.456C102.096 223.08 106.872 223.672 106.856 223.792Z" fill="#E0E0E0"/>
<path d="M106.008 231.825C106.008 231.937 101.208 231.529 95.3199 230.905C89.4319 230.281 84.6559 229.689 84.6719 229.577C84.6879 229.465 89.4719 229.873 95.3599 230.489C101.248 231.105 106.024 231.713 106.008 231.825Z" fill="#E0E0E0"/>
<path d="M48.3202 206.152C48.3202 206.152 41.9842 205.697 42.5682 219.913C43.1522 234.128 44.6002 241.688 44.6002 241.688C44.6002 241.688 44.4162 244.84 41.9762 244.224C39.5362 243.608 34.9442 240.536 32.6722 242.832C30.4002 245.128 31.1602 248.856 34.2722 253.152C37.3842 257.448 43.8722 267.104 44.4642 267.976C45.0562 268.848 45.2642 270.448 43.5362 270.296C41.8082 270.144 30.1282 266.184 28.5842 271.84C27.0402 277.496 37.6962 288 38.8402 289.2C39.9842 290.4 40.0482 291.12 39.5842 291.832C39.1202 292.544 35.3202 290.84 31.9522 289.848C28.5842 288.856 24.5042 288.304 23.8882 291.64C23.2722 294.976 27.9602 304.736 45.5362 315L53.9922 319.2L61.9922 314.096C78.4482 302.096 82.1442 291.944 81.1922 288.68C80.2402 285.416 76.2402 286.384 72.9922 287.712C69.7442 289.04 66.1282 291.104 65.6002 290.44C65.0722 289.776 65.0562 289.04 66.0722 287.752C67.0882 286.464 76.6402 274.952 74.5362 269.448C72.4322 263.944 61.2082 269.088 59.5042 269.448C57.8002 269.808 57.9042 268.144 58.3522 267.232C58.8002 266.32 64.3282 256.032 67.0082 251.456C69.6882 246.88 70.1442 243.16 67.5682 241.056C64.9922 238.952 60.8002 242.48 58.4642 243.336C56.1282 244.193 55.6002 241.08 55.6002 241.08C55.6002 241.08 56.2802 233.4 55.4402 219.208C54.6002 205.016 48.1922 206.152 48.1922 206.152" fill="#EBEBEB"/>
<path d="M48.8008 218.881C48.8071 218.979 48.8071 219.078 48.8008 219.177C48.8008 219.393 48.8008 219.681 48.8648 220.049C48.9208 220.849 48.9928 221.961 49.0968 223.409C49.2888 226.321 49.5368 230.545 49.8248 235.753C50.4008 246.153 51.0808 260.601 51.7768 276.553C52.4728 292.505 53.1128 306.897 53.6328 317.353C53.8968 322.553 54.1128 326.777 54.2648 329.705C54.3368 331.153 54.3928 332.281 54.4328 333.065C54.4328 333.433 54.4328 333.729 54.4328 333.937C54.4382 334.035 54.4382 334.134 54.4328 334.233C54.4328 334.233 54.4328 334.137 54.4328 333.937C54.4328 333.737 54.4328 333.441 54.3688 333.065C54.3128 332.265 54.2328 331.161 54.1368 329.713C53.9448 326.801 53.6968 322.577 53.4088 317.361C52.8248 306.961 52.1528 292.521 51.4568 276.561C50.7608 260.601 50.1208 246.225 49.5928 235.761C49.3288 230.553 49.1128 226.337 48.9688 223.409C48.8968 221.961 48.8408 220.833 48.8008 220.049C48.8008 219.673 48.8008 219.385 48.8008 219.177C48.8008 218.969 48.8008 218.881 48.8008 218.881Z" fill="#E0E0E0"/>
<path d="M38.9297 247.377C39.1199 247.502 39.2944 247.65 39.4497 247.817C39.7777 248.113 40.2497 248.553 40.7937 249.105C41.9057 250.209 43.4097 251.777 45.0337 253.537L49.1697 258.065L50.4257 259.425C50.5949 259.581 50.7428 259.758 50.8657 259.953C50.6748 259.828 50.4978 259.683 50.3377 259.521C50.0177 259.217 49.5377 258.777 49.0017 258.217C47.8977 257.105 46.4017 255.521 44.8017 253.761L40.6337 249.265L39.3697 247.905C39.1991 247.75 39.051 247.573 38.9297 247.377Z" fill="#E0E0E0"/>
<path d="M51.7041 259.672C51.6401 259.608 54.7361 256.368 58.6081 252.472C62.4801 248.576 65.6881 245.4 65.7521 245.464C65.8161 245.528 62.7201 248.768 58.8401 252.664C54.9601 256.56 51.7681 259.736 51.7041 259.672Z" fill="#E0E0E0"/>
<path d="M51.6719 284.176C51.8505 284.027 52.0466 283.901 52.2559 283.8L53.9119 282.872C55.3119 282.072 57.2319 281 59.3119 279.72C61.3919 278.44 63.2399 277.224 64.5679 276.336L66.1679 275.288C66.3522 275.143 66.5537 275.022 66.7679 274.928C66.61 275.099 66.4328 275.253 66.2399 275.384C65.8879 275.664 65.3679 276.056 64.7199 276.528C63.4159 277.464 61.5839 278.72 59.4959 279.992C57.4079 281.264 55.4959 282.336 54.0399 283.072C53.3199 283.432 52.7439 283.72 52.3359 283.912C52.1236 284.021 51.9012 284.109 51.6719 284.176Z" fill="#E0E0E0"/>
<path d="M37.6641 275.6C37.8701 275.664 38.0665 275.755 38.2481 275.872C38.6161 276.064 39.1361 276.36 39.7841 276.728C41.0641 277.456 42.8321 278.488 44.7761 279.64C46.7201 280.792 48.4641 281.856 49.7201 282.64L51.2001 283.576C51.3899 283.68 51.5648 283.809 51.7201 283.96C51.5159 283.891 51.3201 283.8 51.1361 283.688C50.7761 283.488 50.2481 283.2 49.6081 282.832C48.3201 282.104 46.5521 281.072 44.6081 279.92C42.6641 278.768 40.9201 277.704 39.6641 276.92L38.1841 276C37.995 275.888 37.8203 275.754 37.6641 275.6Z" fill="#E0E0E0"/>
<path d="M34.8867 297.225C35.1421 297.323 35.3884 297.443 35.6227 297.585L37.5987 298.673C39.2547 299.601 41.5347 300.905 43.9987 302.361C46.4627 303.817 48.7587 305.145 50.3987 306.129L52.3187 307.305C52.5591 307.438 52.7868 307.593 52.9987 307.769C52.7365 307.68 52.4865 307.56 52.2547 307.409L50.2867 306.329C48.6307 305.401 46.3587 304.097 43.8867 302.641C41.4147 301.185 39.1267 299.849 37.4867 298.873L35.5747 297.697C35.3266 297.569 35.0954 297.41 34.8867 297.225Z" fill="#E0E0E0"/>
<path d="M52.6484 307.4C52.8724 307.205 53.1196 307.039 53.3844 306.904L55.4324 305.656C57.1684 304.592 59.5604 303.128 62.1524 301.432C64.7444 299.736 67.0644 298.152 68.7364 296.992L70.7124 295.624C70.9395 295.436 71.1895 295.278 71.4564 295.152C71.2511 295.363 71.0261 295.553 70.7844 295.72C70.3364 296.08 69.6804 296.576 68.8644 297.184C67.2644 298.392 64.9364 300.016 62.3364 301.704C59.7364 303.392 57.3204 304.84 55.5524 305.848C54.6644 306.352 53.9524 306.752 53.4404 307.016C53.1869 307.165 52.9221 307.293 52.6484 307.4Z" fill="#E0E0E0"/>
<path d="M65.3529 321.992H41.9609L49.5929 379.784H57.7209L65.3529 321.992Z" fill="#E0E0E0"/>
<path d="M43.1992 329.097C43.1992 329.097 43.1992 329.177 43.3192 329.297C43.4732 329.476 43.668 329.616 43.8872 329.705C44.2955 329.844 44.73 329.889 45.1581 329.836C45.5862 329.784 45.9969 329.635 46.3592 329.401C47.3032 328.881 48.1272 327.857 49.3912 327.401C50.7958 326.951 52.3103 326.982 53.6952 327.489C55.1012 327.972 56.4442 328.622 57.6952 329.425C58.7332 330.09 59.8158 330.684 60.9352 331.201C61.6997 331.541 62.5072 331.775 63.3352 331.897C63.5605 331.928 63.7877 331.944 64.0152 331.945C64.1672 331.945 64.2472 331.945 64.2472 331.945C63.1406 331.773 62.0635 331.447 61.0472 330.977C59.9484 330.436 58.8802 329.835 57.8472 329.177C56.5798 328.339 55.2116 327.664 53.7752 327.169C52.3098 326.638 50.7075 326.621 49.2312 327.121C48.6088 327.376 48.0331 327.733 47.5272 328.177C47.1033 328.553 46.6542 328.901 46.1832 329.217C45.8561 329.444 45.4832 329.597 45.0907 329.664C44.6982 329.732 44.2956 329.713 43.9112 329.609C43.6433 329.485 43.4016 329.311 43.1992 329.097Z" fill="#F5F5F5"/>
<path d="M44 339.736C44 339.736 44.184 339.496 44.544 339.12C45.0764 338.594 45.7145 338.188 46.416 337.928C47.4583 337.551 48.565 337.385 49.672 337.44C51.0366 337.546 52.3937 337.733 53.736 338C55.1091 338.264 56.5141 338.321 57.904 338.168C59.0383 338.024 60.1442 337.708 61.184 337.232C61.897 336.918 62.5731 336.526 63.2 336.064C63.4353 335.907 63.6456 335.716 63.824 335.496C62.9584 336.054 62.0549 336.552 61.12 336.984C60.0956 337.398 59.0186 337.667 57.92 337.784C56.5629 337.917 55.1936 337.849 53.856 337.584C52.4962 337.315 51.1197 337.139 49.736 337.056C48.5845 337.019 47.4378 337.22 46.368 337.648C45.645 337.935 45.0025 338.394 44.496 338.984C44.3613 339.147 44.2409 339.321 44.136 339.504C44.048 339.664 44 339.728 44 339.736Z" fill="#F5F5F5"/>
<path d="M62.7036 345.433C62.5089 345.286 62.2894 345.175 62.0556 345.105C61.4348 344.87 60.7821 344.73 60.1196 344.689C59.1404 344.624 58.1569 344.68 57.1916 344.857C56.0956 345.033 54.9276 345.329 53.7036 345.593C52.5604 345.861 51.3896 345.992 50.2156 345.985C49.2636 345.959 48.3248 345.756 47.4476 345.385C46.6454 345.003 45.9316 344.458 45.3516 343.785C45.4433 344.012 45.5792 344.219 45.7516 344.393C46.1962 344.899 46.741 345.308 47.3516 345.593C48.2492 346.018 49.2233 346.257 50.2156 346.297C51.4184 346.327 52.6201 346.204 53.7916 345.929C55.0396 345.665 56.1916 345.353 57.2636 345.129C58.2036 344.942 59.1613 344.859 60.1196 344.881C60.9999 344.961 61.8674 345.146 62.7036 345.433Z" fill="#F5F5F5"/>
<path d="M46.0948 353.448C46.8111 353.141 47.6044 353.063 48.3668 353.224C49.1978 353.424 50.003 353.72 50.7668 354.104C51.7335 354.572 52.777 354.862 53.8468 354.96C55.8033 355.127 57.7627 354.673 59.4468 353.664C59.9337 353.355 60.3868 352.995 60.7988 352.592C61.0788 352.288 61.2308 352.112 61.2068 352.096C60.5879 352.576 59.9414 353.019 59.2708 353.424C57.6168 354.336 55.729 354.737 53.8468 354.576C51.6308 354.448 49.9268 353.128 48.3908 352.976C47.8002 352.874 47.1934 352.93 46.6308 353.136C46.2468 353.264 46.0788 353.44 46.0948 353.448Z" fill="#F5F5F5"/>
<path d="M47.3985 364.544C48.0702 364.561 48.7371 364.427 49.3505 364.152C50.5265 363.76 51.9745 362.864 53.6785 362.184C54.4708 361.866 55.313 361.69 56.1665 361.664C56.8564 361.664 57.5374 361.82 58.1585 362.12C58.7278 362.424 59.2225 362.85 59.6065 363.368C59.5751 363.187 59.498 363.016 59.3825 362.872C59.0996 362.461 58.7243 362.121 58.2865 361.88C57.6365 361.522 56.9088 361.327 56.1665 361.312C55.2665 361.315 54.3754 361.491 53.5425 361.832C51.7825 362.528 50.3425 363.432 49.2465 363.904C48.1505 364.376 47.3905 364.48 47.3985 364.544Z" fill="#F5F5F5"/>
<path d="M48.543 369.705C49.0118 369.932 49.5099 370.094 50.023 370.185C51.2415 370.479 52.4792 370.688 53.727 370.809C54.9736 370.931 56.2272 370.969 57.479 370.921C58.0023 370.931 58.5245 370.869 59.031 370.737C59.031 370.617 56.631 370.737 53.767 370.433C50.903 370.129 48.575 369.601 48.543 369.705Z" fill="#F5F5F5"/>
<path d="M377.014 378.849C377.014 378.969 297.398 379.057 199.214 379.057C101.03 379.057 21.4062 378.969 21.4062 378.849C21.4062 378.729 100.998 378.641 199.214 378.641C297.43 378.641 377.014 378.737 377.014 378.849Z" fill="#263238"/>
<path d="M121.887 128.801C121.887 128.801 124.063 115.753 124.583 114.761C125.103 113.769 131.111 107.673 131.823 107.561C132.535 107.449 142.015 104.457 141.487 105.961C140.959 107.465 134.287 109.433 134.287 109.433L133.655 110.233C133.655 110.233 139.343 108.377 140.751 108.425C142.159 108.473 142.287 109.825 141.271 110.209C140.255 110.593 135.247 112.057 135.055 112.377C134.863 112.697 140.655 111.041 141.359 111.073C142.335 111.113 143.039 112.345 142.047 112.769C141.455 113.009 135.887 114.289 135.887 114.289C137.604 114.063 139.331 113.93 141.063 113.889C141.919 114.121 141.863 115.161 140.903 115.409C140.255 115.577 136.855 115.729 135.991 115.961C135.991 115.961 135.343 116.505 135.367 118.233C135.391 119.961 133.151 124.545 133.151 124.545L121.887 128.801Z" fill="#FFBE9D"/>
<path d="M141.477 105.921C141.096 106.41 140.623 106.82 140.085 107.129C139.524 107.507 138.93 107.834 138.309 108.105C137.605 108.369 136.821 108.641 136.005 108.905L134.253 109.497L134.349 109.441C133.35 110.524 132.266 111.527 131.109 112.441C131.999 111.273 132.978 110.177 134.037 109.161V109.121H134.093L135.821 108.513L138.117 107.713C138.724 107.466 139.312 107.178 139.877 106.849C140.885 106.313 141.437 105.865 141.477 105.921Z" fill="#EB996E"/>
<path d="M267.792 272.097L138.656 258.793C136.763 258.591 135.027 257.648 133.828 256.17C132.628 254.692 132.063 252.799 132.256 250.905L154.6 33.8009C154.88 31.1089 156.217 28.638 158.316 26.9299C160.416 25.2218 163.107 24.4159 165.8 24.6889L288.936 37.3689C291.628 37.6495 294.099 38.986 295.807 41.0855C297.515 43.185 298.321 45.8761 298.048 48.5689L275.648 265.673C275.452 267.564 274.516 269.301 273.044 270.504C271.572 271.708 269.684 272.28 267.792 272.097Z" fill="#349F6E"/>
<path opacity="0.4" d="M267.792 272.097L138.656 258.793C136.763 258.591 135.027 257.648 133.828 256.17C132.628 254.692 132.063 252.799 132.256 250.905L154.6 33.8009C154.88 31.1089 156.217 28.638 158.316 26.9299C160.416 25.2218 163.107 24.4159 165.8 24.6889L288.936 37.3689C291.628 37.6495 294.099 38.986 295.807 41.0855C297.515 43.185 298.321 45.8761 298.048 48.5689L275.648 265.673C275.452 267.564 274.516 269.301 273.044 270.504C271.572 271.708 269.684 272.28 267.792 272.097Z" fill="black"/>
<path d="M254.758 270.753L125.598 257.457C123.704 257.255 121.966 256.311 120.767 254.831C119.567 253.351 119.003 251.456 119.198 249.561L141.598 32.4567C141.735 31.1229 142.133 29.8292 142.77 28.6493C143.407 27.4695 144.27 26.4268 145.31 25.5806C146.35 24.7344 147.547 24.1015 148.832 23.7178C150.116 23.3342 151.464 23.2074 152.798 23.3447L275.902 36.0007C277.236 36.1376 278.529 36.5359 279.709 37.1729C280.889 37.8099 281.932 38.6731 282.778 39.7131C283.624 40.7532 284.257 41.9498 284.641 43.2345C285.024 44.5192 285.151 45.8669 285.014 47.2007L262.614 264.313C262.422 266.207 261.487 267.947 260.015 269.154C258.543 270.361 256.653 270.936 254.758 270.753Z" fill="#349F6E"/>
<path d="M189.103 211.66L144.57 207.073C143.507 206.964 142.556 207.737 142.446 208.801L140.642 226.324C140.532 227.388 141.305 228.339 142.369 228.448L186.901 233.035C187.965 233.144 188.916 232.371 189.026 231.307L190.83 213.784C190.94 212.72 190.166 211.769 189.103 211.66Z" fill="#349F6E"/>
<g opacity="0.4">
<path d="M189.103 211.66L144.57 207.073C143.507 206.964 142.556 207.737 142.446 208.801L140.642 226.324C140.532 227.388 141.305 228.339 142.369 228.448L186.901 233.035C187.965 233.144 188.916 232.371 189.026 231.307L190.83 213.784C190.94 212.72 190.166 211.769 189.103 211.66Z" fill="black"/>
</g>
<path d="M150.564 47.6151L145.609 95.7207L268.241 108.35L273.195 60.2446L150.564 47.6151Z" fill="#FAFAFA"/>
<path d="M268.246 108.352C268.246 108.352 268.246 108.056 268.318 107.496C268.39 106.936 268.454 106.096 268.558 105.008C268.774 102.816 269.094 99.6002 269.51 95.4482C270.31 87.1522 271.55 75.1442 273.054 60.2482L273.182 60.4082L150.55 47.8242L150.782 47.6402C149.046 64.4402 147.366 80.7202 145.814 95.7442L145.638 95.5202L233.518 104.672L259.038 107.352L265.878 108.088L267.646 108.28L268.254 108.352C268.254 108.352 268.054 108.352 267.662 108.304L265.918 108.136L259.118 107.464L233.598 104.896L145.598 95.9202H145.398V95.7282C146.942 80.6962 148.598 64.4402 150.342 47.6162V47.4082H150.55L273.214 60.1042H273.358V60.2482C271.758 75.1842 270.518 87.2242 269.646 95.5362C269.206 99.6642 268.846 102.872 268.63 105.048C268.51 106.128 268.422 106.952 268.358 107.512L268.246 108.352Z" fill="#263238"/>
<path d="M169.675 117.576L152.144 115.77C151.229 115.676 150.412 116.341 150.318 117.255L148.512 134.786C148.418 135.7 149.083 136.518 149.997 136.612L167.528 138.417C168.443 138.511 169.26 137.847 169.354 136.933L171.16 119.401C171.254 118.487 170.589 117.67 169.675 117.576Z" fill="#349F6E"/>
<g opacity="0.4">
<path d="M169.675 117.576L152.144 115.77C151.229 115.676 150.412 116.341 150.318 117.255L148.512 134.786C148.418 135.7 149.083 136.518 149.997 136.612L167.528 138.417C168.443 138.511 169.26 137.847 169.354 136.933L171.16 119.401C171.254 118.487 170.589 117.67 169.675 117.576Z" fill="black"/>
</g>
<path d="M166.46 117.249L148.929 115.444C148.015 115.35 147.197 116.015 147.103 116.929L145.297 134.46C145.203 135.374 145.868 136.192 146.782 136.286L164.314 138.091C165.228 138.185 166.045 137.521 166.139 136.606L167.945 119.075C168.039 118.161 167.374 117.344 166.46 117.249Z" fill="#263238"/>
<path d="M158.541 122.489L157.653 131.201L155.637 130.993L156.365 123.921L154.629 123.737L154.797 122.137L158.541 122.489Z" fill="white"/>
<path d="M198.741 120.578L181.21 118.772C180.296 118.678 179.478 119.343 179.384 120.257L177.579 137.788C177.485 138.702 178.149 139.52 179.063 139.614L196.595 141.419C197.509 141.513 198.326 140.849 198.42 139.935L200.226 122.403C200.32 121.489 199.655 120.672 198.741 120.578Z" fill="#349F6E"/>
<g opacity="0.4">
<path d="M198.741 120.578L181.21 118.772C180.296 118.678 179.478 119.343 179.384 120.257L177.579 137.788C177.485 138.702 178.149 139.52 179.063 139.614L196.595 141.419C197.509 141.513 198.326 140.849 198.42 139.935L200.226 122.403C200.32 121.489 199.655 120.672 198.741 120.578Z" fill="black"/>
</g>
<path d="M195.522 120.242L177.991 118.436C177.077 118.342 176.26 119.007 176.165 119.921L174.36 137.452C174.266 138.366 174.931 139.184 175.845 139.278L193.376 141.083C194.29 141.178 195.108 140.513 195.202 139.599L197.007 122.067C197.101 121.153 196.437 120.336 195.522 120.242Z" fill="#263238"/>
<path d="M190.021 132.856L189.853 134.456L183.293 133.784L183.429 132.48L187.101 129.656C187.949 129.008 188.133 128.576 188.173 128.152C188.245 127.472 187.813 127.024 186.893 126.928C186.546 126.879 186.192 126.916 185.863 127.036C185.534 127.156 185.239 127.355 185.005 127.616L183.637 126.52C184.089 126.028 184.656 125.656 185.287 125.437C185.918 125.217 186.593 125.158 187.253 125.264C189.189 125.464 190.381 126.584 190.213 128.16C190.133 129.008 189.813 129.76 188.485 130.752L186.293 132.432L190.021 132.856Z" fill="white"/>
<path d="M228.874 123.681L211.343 121.876C210.429 121.781 209.611 122.446 209.517 123.36L207.712 140.892C207.617 141.806 208.282 142.623 209.196 142.717L226.728 144.523C227.642 144.617 228.459 143.952 228.553 143.038L230.359 125.507C230.453 124.593 229.788 123.775 228.874 123.681Z" fill="#349F6E"/>
<g opacity="0.4">
<path d="M228.874 123.681L211.343 121.876C210.429 121.781 209.611 122.446 209.517 123.36L207.712 140.892C207.617 141.806 208.282 142.623 209.196 142.717L226.728 144.523C227.642 144.617 228.459 143.952 228.553 143.038L230.359 125.507C230.453 124.593 229.788 123.775 228.874 123.681Z" fill="black"/>
</g>
<path d="M225.663 123.345L208.132 121.54C207.218 121.445 206.4 122.11 206.306 123.024L204.501 140.556C204.406 141.47 205.071 142.287 205.985 142.381L223.517 144.187C224.431 144.281 225.248 143.616 225.342 142.702L227.148 125.171C227.242 124.257 226.577 123.439 225.663 123.345Z" fill="#263238"/>
<path d="M220.19 134.928C220.038 136.392 218.774 137.616 216.302 137.368C215.134 137.263 214.022 136.821 213.102 136.096L214.038 134.632C214.708 135.223 215.548 135.587 216.438 135.672C217.446 135.776 218.11 135.432 218.182 134.72C218.254 134.008 217.806 133.608 216.67 133.488L215.75 133.392L215.886 132.064L217.878 130.224L214.182 129.848L214.35 128.248L220.43 128.872L220.294 130.176L218.102 132.208C218.733 132.305 219.302 132.642 219.691 133.149C220.08 133.656 220.259 134.293 220.19 134.928Z" fill="white"/>
<path d="M259.015 126.785L241.483 124.979C240.569 124.885 239.752 125.55 239.658 126.464L237.852 143.995C237.758 144.909 238.423 145.727 239.337 145.821L256.868 147.626C257.782 147.72 258.6 147.056 258.694 146.142L260.499 128.61C260.594 127.696 259.929 126.879 259.015 126.785Z" fill="#349F6E"/>
<g opacity="0.4">
<path d="M259.011 126.785L241.479 124.979C240.565 124.885 239.748 125.55 239.654 126.464L237.848 143.995C237.754 144.909 238.419 145.727 239.333 145.821L256.864 147.626C257.778 147.72 258.596 147.056 258.69 146.142L260.496 128.61C260.59 127.696 259.925 126.879 259.011 126.785Z" fill="black"/>
</g>
<path d="M255.866 126.447L238.335 124.641C237.421 124.547 236.603 125.212 236.509 126.126L234.704 143.657C234.61 144.571 235.274 145.389 236.189 145.483L253.72 147.288C254.634 147.383 255.451 146.718 255.545 145.804L257.351 128.272C257.445 127.358 256.78 126.541 255.866 126.447Z" fill="#263238"/>
<path d="M241.305 134.743L241.223 135.539L250.533 136.498L250.615 135.702L241.305 134.743Z" fill="white"/>
<path d="M247.861 131.728C247.831 132.027 247.713 132.311 247.521 132.543C247.33 132.775 247.074 132.945 246.787 133.032C246.499 133.119 246.192 133.118 245.904 133.03C245.617 132.942 245.361 132.771 245.171 132.539C244.981 132.306 244.864 132.022 244.835 131.722C244.806 131.423 244.867 131.122 245.009 130.857C245.151 130.592 245.369 130.376 245.635 130.235C245.9 130.093 246.201 130.034 246.501 130.064C246.902 130.105 247.27 130.303 247.525 130.615C247.78 130.927 247.901 131.327 247.861 131.728Z" fill="white"/>
<path d="M247.021 139.848C246.99 140.148 246.872 140.431 246.68 140.664C246.489 140.896 246.233 141.066 245.944 141.152C245.656 141.238 245.348 141.237 245.061 141.148C244.773 141.06 244.518 140.888 244.329 140.654C244.139 140.421 244.023 140.136 243.995 139.836C243.967 139.537 244.029 139.235 244.172 138.971C244.316 138.706 244.535 138.49 244.801 138.35C245.067 138.21 245.369 138.153 245.669 138.184C246.068 138.227 246.435 138.425 246.688 138.737C246.941 139.049 247.061 139.449 247.021 139.848Z" fill="white"/>
<path d="M166.53 148.117L148.999 146.311C148.085 146.217 147.267 146.882 147.173 147.796L145.368 165.327C145.274 166.241 145.938 167.059 146.853 167.153L164.384 168.958C165.298 169.053 166.115 168.388 166.21 167.474L168.015 149.942C168.109 149.028 167.444 148.211 166.53 148.117Z" fill="#349F6E"/>
<g opacity="0.4">
<path d="M166.53 148.117L148.999 146.311C148.085 146.217 147.267 146.882 147.173 147.796L145.368 165.327C145.274 166.241 145.938 167.059 146.853 167.153L164.384 168.958C165.298 169.053 166.115 168.388 166.21 167.474L168.015 149.942C168.109 149.028 167.444 148.211 166.53 148.117Z" fill="black"/>
</g>
<path d="M163.319 147.79L145.788 145.985C144.874 145.891 144.056 146.556 143.962 147.47L142.157 165.001C142.063 165.915 142.727 166.733 143.642 166.827L161.173 168.632C162.087 168.726 162.904 168.062 162.999 167.147L164.804 149.616C164.898 148.702 164.233 147.885 163.319 147.79Z" fill="#263238"/>
<path d="M157.232 160.145L155.816 160.001L155.624 161.825L153.664 161.625L153.856 159.801L149.176 159.313L149.312 157.961L153.976 152.873L156.088 153.097L151.752 157.897L154.088 158.137L154.256 156.537L156.152 156.729L155.984 158.329L157.4 158.473L157.232 160.145Z" fill="white"/>
<path d="M195.601 151.111L178.069 149.305C177.155 149.211 176.338 149.876 176.244 150.79L174.438 168.321C174.344 169.235 175.009 170.053 175.923 170.147L193.454 171.952C194.368 172.047 195.186 171.382 195.28 170.468L197.085 152.936C197.179 152.022 196.515 151.205 195.601 151.111Z" fill="#349F6E"/>
<g opacity="0.4">
<path d="M195.597 151.111L178.065 149.305C177.151 149.211 176.334 149.876 176.24 150.79L174.434 168.321C174.34 169.235 175.005 170.053 175.919 170.147L193.45 171.952C194.364 172.047 195.182 171.382 195.276 170.468L197.081 152.936C197.176 152.022 196.511 151.205 195.597 151.111Z" fill="black"/>
</g>
<path d="M192.386 150.775L174.854 148.969C173.94 148.875 173.123 149.54 173.029 150.454L171.223 167.985C171.129 168.9 171.794 169.717 172.708 169.811L190.239 171.617C191.153 171.711 191.971 171.046 192.065 170.132L193.871 152.601C193.965 151.686 193.3 150.869 192.386 150.775Z" fill="#263238"/>
<path d="M186.03 162.202C185.878 163.738 184.606 164.962 182.126 164.706C180.959 164.599 179.847 164.158 178.926 163.434L179.878 161.978C180.547 162.569 181.388 162.931 182.278 163.01C183.286 163.114 183.95 162.762 184.022 162.05C184.094 161.338 183.694 160.874 182.118 160.714L179.894 160.482L180.846 155.682L186.142 156.226L185.982 157.826L182.358 157.45L182.046 159.09L182.758 159.162C185.294 159.402 186.19 160.658 186.03 162.202Z" fill="white"/>
<path d="M225.737 154.214L208.206 152.409C207.292 152.315 206.474 152.979 206.38 153.894L204.575 171.425C204.481 172.339 205.145 173.156 206.06 173.251L223.591 175.056C224.505 175.15 225.322 174.485 225.417 173.571L227.222 156.04C227.316 155.126 226.651 154.308 225.737 154.214Z" fill="#349F6E"/>
<g opacity="0.4">
<path d="M225.737 154.214L208.206 152.409C207.292 152.315 206.474 152.979 206.38 153.894L204.575 171.425C204.481 172.339 205.145 173.156 206.06 173.251L223.591 175.056C224.505 175.15 225.322 174.485 225.417 173.571L227.222 156.04C227.316 155.126 226.651 154.308 225.737 154.214Z" fill="black"/>
</g>
<path d="M222.519 153.878L204.987 152.073C204.073 151.979 203.256 152.643 203.162 153.558L201.356 171.089C201.262 172.003 201.927 172.82 202.841 172.915L220.372 174.72C221.286 174.814 222.104 174.149 222.198 173.235L224.003 155.704C224.097 154.79 223.433 153.972 222.519 153.878Z" fill="#263238"/>
<path d="M216.797 165.353C216.613 167.129 215.045 168.097 213.213 167.905C210.813 167.657 209.485 166.001 209.773 163.201C210.085 160.193 212.069 158.705 214.685 158.977C215.534 159.042 216.349 159.335 217.045 159.825L216.149 161.225C215.689 160.867 215.131 160.655 214.549 160.617C213.093 160.473 212.077 161.233 211.845 162.889C212.161 162.654 212.52 162.484 212.902 162.39C213.284 162.295 213.68 162.277 214.069 162.337C214.451 162.341 214.828 162.424 215.177 162.581C215.525 162.738 215.837 162.965 216.093 163.248C216.349 163.531 216.544 163.865 216.665 164.227C216.787 164.589 216.832 164.973 216.797 165.353ZM214.837 165.249C214.858 165.063 214.838 164.875 214.78 164.697C214.722 164.519 214.626 164.355 214.5 164.218C214.373 164.08 214.219 163.97 214.047 163.897C213.874 163.824 213.688 163.788 213.501 163.793C213.317 163.754 213.127 163.753 212.943 163.791C212.759 163.828 212.584 163.903 212.43 164.012C212.276 164.12 212.146 164.258 212.048 164.419C211.951 164.58 211.887 164.759 211.861 164.945C211.781 165.689 212.285 166.289 213.253 166.393C213.432 166.43 213.616 166.429 213.794 166.39C213.972 166.351 214.14 166.275 214.287 166.167C214.434 166.059 214.557 165.922 214.648 165.764C214.738 165.606 214.795 165.43 214.813 165.249H214.837Z" fill="white"/>
<path d="M255.862 157.316L238.331 155.51C237.417 155.416 236.599 156.081 236.505 156.995L234.7 174.526C234.606 175.441 235.27 176.258 236.185 176.352L253.716 178.158C254.63 178.252 255.447 177.587 255.542 176.673L257.347 159.142C257.441 158.227 256.776 157.41 255.862 157.316Z" fill="#349F6E"/>
<g opacity="0.4">
<path d="M255.862 157.316L238.331 155.51C237.417 155.416 236.599 156.081 236.505 156.995L234.7 174.526C234.606 175.441 235.27 176.258 236.185 176.352L253.716 178.158C254.63 178.252 255.447 177.587 255.542 176.673L257.347 159.142C257.441 158.227 256.776 157.41 255.862 157.316Z" fill="black"/>
</g>
<path d="M252.651 156.98L235.12 155.174C234.206 155.08 233.389 155.745 233.294 156.659L231.489 174.19C231.395 175.105 232.059 175.922 232.974 176.016L250.505 177.822C251.419 177.916 252.236 177.251 252.331 176.337L254.136 158.806C254.23 157.891 253.566 157.074 252.651 156.98Z" fill="#263238"/>
<path d="M246.228 163.294L238.879 169.09L239.374 169.718L246.724 163.922L246.228 163.294Z" fill="white"/>
<path d="M240.168 162.655L239.547 163.16L245.453 170.422L246.073 169.917L240.168 162.655Z" fill="white"/>
<path d="M163.413 178.406L145.882 176.6C144.968 176.506 144.15 177.171 144.056 178.085L142.251 195.616C142.156 196.53 142.821 197.348 143.735 197.442L161.267 199.247C162.181 199.342 162.998 198.677 163.092 197.763L164.898 180.231C164.992 179.317 164.327 178.5 163.413 178.406Z" fill="#349F6E"/>
<g opacity="0.4">
<path d="M163.413 178.406L145.882 176.6C144.968 176.506 144.15 177.171 144.056 178.085L142.251 195.616C142.156 196.53 142.821 197.348 143.735 197.442L161.267 199.247C162.181 199.342 162.998 198.677 163.092 197.763L164.898 180.231C164.992 179.317 164.327 178.5 163.413 178.406Z" fill="black"/>
</g>
<path d="M160.198 178.079L142.667 176.274C141.753 176.18 140.935 176.845 140.841 177.759L139.036 195.29C138.942 196.204 139.606 197.022 140.521 197.116L158.052 198.921C158.966 199.015 159.783 198.351 159.878 197.436L161.683 179.905C161.777 178.991 161.112 178.174 160.198 178.079Z" fill="#263238"/>
<path d="M153.663 183.448L153.527 184.752L149.527 191.808L147.343 191.576L151.183 184.848L148.303 184.552L148.159 185.968L146.367 185.784L146.687 182.736L153.663 183.448Z" fill="white"/>
<path d="M192.479 181.4L174.948 179.594C174.034 179.5 173.217 180.165 173.122 181.079L171.317 198.61C171.223 199.525 171.888 200.342 172.802 200.436L190.333 202.242C191.247 202.336 192.065 201.671 192.159 200.757L193.964 183.226C194.058 182.311 193.394 181.494 192.479 181.4Z" fill="#349F6E"/>
<g opacity="0.4">
<path d="M192.479 181.4L174.948 179.594C174.034 179.5 173.217 180.165 173.122 181.079L171.317 198.61C171.223 199.525 171.888 200.342 172.802 200.436L190.333 202.242C191.247 202.336 192.065 201.671 192.159 200.757L193.964 183.226C194.058 182.311 193.394 181.494 192.479 181.4Z" fill="black"/>
</g>
<path d="M189.261 181.064L171.729 179.258C170.815 179.164 169.998 179.829 169.904 180.743L168.098 198.274C168.004 199.189 168.669 200.006 169.583 200.1L187.114 201.906C188.028 202 188.846 201.335 188.94 200.421L190.746 182.89C190.84 181.975 190.175 181.158 189.261 181.064Z" fill="#263238"/>
<path d="M183.6 192.8C183.432 194.4 181.864 195.32 179.656 195.088C177.448 194.856 176.112 193.68 176.28 192.048C176.318 191.614 176.483 191.201 176.755 190.861C177.027 190.521 177.393 190.269 177.808 190.136C177.517 189.921 177.29 189.631 177.149 189.298C177.008 188.964 176.959 188.599 177.008 188.24C177.168 186.712 178.608 185.904 180.6 186.104C182.592 186.304 183.864 187.408 183.712 188.936C183.679 189.299 183.55 189.646 183.338 189.942C183.125 190.237 182.837 190.47 182.504 190.616C182.881 190.832 183.187 191.154 183.381 191.543C183.576 191.931 183.652 192.369 183.6 192.8ZM181.568 192.528C181.648 191.728 181.064 191.224 180.064 191.12C179.064 191.016 178.4 191.424 178.32 192.192C178.24 192.96 178.808 193.512 179.808 193.616C180.808 193.72 181.496 193.264 181.6 192.496L181.568 192.528ZM178.976 188.528C178.904 189.184 179.384 189.648 180.2 189.736C181.016 189.824 181.608 189.464 181.68 188.808C181.752 188.152 181.248 187.656 180.424 187.576C179.6 187.496 179.04 187.824 178.976 188.504V188.528Z" fill="white"/>
<path d="M222.612 184.503L205.081 182.698C204.167 182.604 203.349 183.268 203.255 184.183L201.45 201.714C201.356 202.628 202.02 203.445 202.935 203.54L220.466 205.345C221.38 205.439 222.197 204.774 222.292 203.86L224.097 186.329C224.191 185.415 223.526 184.597 222.612 184.503Z" fill="#349F6E"/>
<g opacity="0.4">
<path d="M222.612 184.503L205.081 182.698C204.167 182.604 203.349 183.268 203.255 184.183L201.45 201.714C201.356 202.628 202.02 203.445 202.935 203.54L220.466 205.345C221.38 205.439 222.197 204.774 222.292 203.86L224.097 186.329C224.191 185.415 223.526 184.597 222.612 184.503Z" fill="black"/>
</g>
<path d="M218.814 182.765L201.366 181.002C200.456 180.91 199.644 181.573 199.552 182.483L197.79 199.931C197.698 200.841 198.361 201.653 199.271 201.745L216.719 203.507C217.628 203.599 218.441 202.936 218.532 202.026L220.295 184.578C220.387 183.669 219.724 182.857 218.814 182.765Z" fill="#263238"/>
<path d="M213.6 193.824C213.288 196.832 211.32 198.32 208.688 198.048C207.845 197.986 207.034 197.695 206.344 197.208L207.24 195.808C207.699 196.167 208.257 196.377 208.84 196.408C210.28 196.552 211.312 195.792 211.544 194.128C211.226 194.364 210.864 194.536 210.48 194.632C210.095 194.728 209.696 194.747 209.304 194.688C208.924 194.68 208.549 194.595 208.203 194.437C207.857 194.279 207.547 194.051 207.293 193.768C207.039 193.486 206.845 193.154 206.725 192.793C206.604 192.432 206.559 192.051 206.592 191.672C206.776 189.896 208.344 188.928 210.184 189.12C212.576 189.368 213.896 191.024 213.6 193.824ZM211.512 192.08C211.584 191.336 211.08 190.736 210.128 190.632C209.948 190.597 209.763 190.6 209.584 190.641C209.405 190.682 209.237 190.76 209.091 190.87C208.944 190.98 208.822 191.12 208.733 191.28C208.643 191.44 208.589 191.617 208.572 191.799C208.555 191.982 208.576 192.166 208.635 192.339C208.694 192.513 208.788 192.672 208.912 192.807C209.036 192.942 209.187 193.05 209.355 193.123C209.523 193.196 209.704 193.233 209.888 193.232C210.071 193.271 210.261 193.272 210.445 193.234C210.628 193.196 210.802 193.121 210.956 193.013C211.109 192.905 211.238 192.766 211.335 192.605C211.432 192.445 211.495 192.266 211.52 192.08H211.512Z" fill="white"/>
<path d="M252.745 187.605L235.214 185.799C234.3 185.705 233.482 186.37 233.388 187.284L231.583 204.815C231.488 205.73 232.153 206.547 233.067 206.641L250.599 208.447C251.513 208.541 252.33 207.876 252.424 206.962L254.23 189.431C254.324 188.516 253.659 187.699 252.745 187.605Z" fill="#349F6E"/>
<g opacity="0.4">
<path d="M252.741 187.605L235.21 185.799C234.296 185.705 233.478 186.37 233.384 187.284L231.579 204.815C231.485 205.73 232.149 206.547 233.063 206.641L250.595 208.447C251.509 208.541 252.326 207.876 252.42 206.962L254.226 189.431C254.32 188.516 253.655 187.699 252.741 187.605Z" fill="black"/>
</g>
<path d="M249.53 187.269L231.999 185.463C231.085 185.369 230.267 186.034 230.173 186.948L228.368 204.48C228.274 205.394 228.938 206.211 229.853 206.305L247.384 208.111C248.298 208.205 249.115 207.54 249.21 206.626L251.015 189.095C251.109 188.18 250.444 187.363 249.53 187.269Z" fill="#263238"/>
<path d="M235.078 195.929L234.996 196.725L244.307 197.683L244.389 196.888L235.078 195.929Z" fill="white"/>
<path d="M219.468 215.06L201.936 213.254C201.022 213.16 200.205 213.825 200.111 214.739L198.305 232.27C198.211 233.185 198.876 234.002 199.79 234.096L217.321 235.902C218.236 235.996 219.053 235.331 219.147 234.417L220.953 216.886C221.047 215.971 220.382 215.154 219.468 215.06Z" fill="#349F6E"/>
<g opacity="0.4">
<path d="M219.464 215.06L201.933 213.254C201.018 213.16 200.201 213.825 200.107 214.739L198.301 232.27C198.207 233.185 198.872 234.002 199.786 234.096L217.317 235.902C218.232 235.996 219.049 235.331 219.143 234.417L220.949 216.886C221.043 215.971 220.378 215.154 219.464 215.06Z" fill="black"/>
</g>
<path d="M216.245 214.724L198.714 212.919C197.8 212.824 196.982 213.489 196.888 214.403L195.083 231.935C194.988 232.849 195.653 233.666 196.567 233.76L214.099 235.566C215.013 235.66 215.83 234.995 215.924 234.081L217.73 216.55C217.824 215.636 217.159 214.818 216.245 214.724Z" fill="#263238"/>
<path d="M249.597 218.163L232.065 216.358C231.151 216.264 230.334 216.929 230.24 217.843L228.434 235.374C228.34 236.288 229.005 237.106 229.919 237.2L247.45 239.005C248.364 239.099 249.182 238.435 249.276 237.52L251.081 219.989C251.176 219.075 250.511 218.258 249.597 218.163Z" fill="#349F6E"/>
<g opacity="0.4">
<path d="M249.597 218.163L232.065 216.358C231.151 216.264 230.334 216.929 230.24 217.843L228.434 235.374C228.34 236.288 229.005 237.106 229.919 237.2L247.45 239.005C248.364 239.099 249.182 238.435 249.276 237.52L251.081 219.989C251.176 219.075 250.511 218.258 249.597 218.163Z" fill="black"/>
</g>
<path d="M246.386 217.828L228.854 216.022C227.94 215.928 227.123 216.593 227.029 217.507L225.223 235.038C225.129 235.952 225.794 236.77 226.708 236.864L244.239 238.669C245.153 238.763 245.971 238.099 246.065 237.185L247.871 219.653C247.965 218.739 247.3 217.922 246.386 217.828Z" fill="#455A64"/>
<path d="M232.055 225.349L231.973 226.145L241.283 227.103L241.365 226.308L232.055 225.349Z" fill="white"/>
<path d="M231.695 228.886L231.613 229.682L240.924 230.641L241.006 229.845L231.695 228.886Z" fill="white"/>
<path d="M185.125 211.247L138.786 206.474C137.688 206.361 136.705 207.16 136.592 208.259L134.8 225.655C134.687 226.754 135.486 227.736 136.585 227.849L182.924 232.622C184.023 232.735 185.005 231.936 185.118 230.837L186.91 213.441C187.023 212.342 186.224 211.36 185.125 211.247Z" fill="#263238"/>
<path d="M158.973 218.945C159.269 216.073 161.029 214.617 163.165 214.833C165.301 215.049 166.717 216.842 166.421 219.714C166.125 222.586 164.381 224.041 162.237 223.817C160.093 223.593 158.677 221.809 158.973 218.945ZM164.397 219.505C164.605 217.529 163.989 216.642 162.989 216.538C161.989 216.434 161.213 217.177 161.013 219.153C160.813 221.129 161.421 222.017 162.413 222.121C163.405 222.225 164.197 221.473 164.397 219.505Z" fill="white"/>
<path d="M206.554 219.544L205.457 228.84L206.252 228.934L207.348 219.638L206.554 219.544Z" fill="white"/>
<path d="M201.797 223.374L201.715 224.17L211.026 225.129L211.108 224.333L201.797 223.374Z" fill="white"/>
<path d="M197.439 76.9918L196.103 89.9758L195.487 89.9118L196.799 77.5038L193.535 77.1678L193.591 76.5918L197.439 76.9918Z" fill="#263238"/>
<path d="M208.11 90.6329L208.046 91.2089L199.246 90.3049L199.294 89.8569L205.438 84.8249C207.198 83.3929 207.622 82.4809 207.734 81.4249C207.91 79.6969 206.822 78.4649 204.534 78.2249C203.815 78.0956 203.076 78.1321 202.373 78.3317C201.67 78.5314 201.022 78.8888 200.478 79.3769L200.094 78.9289C200.706 78.3953 201.429 78.0038 202.211 77.7825C202.992 77.5612 203.813 77.5156 204.614 77.6489C207.094 77.9049 208.542 79.3449 208.326 81.4409C208.198 82.6729 207.702 83.7049 205.814 85.2329L200.214 89.8169L208.11 90.6329Z" fill="#263238"/>
<path d="M218.396 88.6335C218.172 90.7935 216.5 92.1535 213.644 91.8335C212.803 91.7883 211.981 91.5628 211.234 91.1722C210.487 90.7816 209.833 90.235 209.316 89.5695L209.7 89.1615C210.176 89.7789 210.78 90.2859 211.471 90.6477C212.161 91.0095 212.922 91.2176 213.7 91.2575C216.18 91.5135 217.604 90.4575 217.804 88.5535C218.004 86.6495 216.86 85.3535 214.108 85.0415L213.388 84.9615L213.436 84.5215L218.02 79.6655L210.86 78.9295L210.916 78.3535L218.916 79.1535L218.868 79.5935L214.26 84.4655C217.268 84.8015 218.62 86.4655 218.396 88.6335Z" fill="#263238"/>
<path d="M231.197 89.8003L228.373 89.5123L227.989 93.2643L227.373 93.2003L227.757 89.4483L220.301 88.6483L220.349 88.2003L228.437 80.1523L229.157 80.2243L221.157 88.1763L227.805 88.8643L228.141 85.5603L228.757 85.6243L228.413 88.9203L231.237 89.2163L231.197 89.8003Z" fill="#263238"/>
<path d="M233.893 93.3055C233.855 93.538 233.794 93.766 233.709 93.9856L232.781 96.3856L232.301 96.3375L233.141 93.8335C232.98 93.807 232.835 93.7175 232.74 93.5848C232.645 93.452 232.606 93.2868 232.633 93.1255C232.659 92.9643 232.749 92.8202 232.882 92.7249C233.014 92.6297 233.18 92.591 233.341 92.6175C233.504 92.6376 233.654 92.7208 233.757 92.8493C233.86 92.9778 233.909 93.1415 233.893 93.3055Z" fill="#263238"/>
<path d="M246.759 91.4092L243.943 91.1212L243.559 94.8652L242.943 94.8012L243.327 91.0572L235.871 90.2572L235.919 89.8092L243.999 81.7852L244.719 81.8652L236.719 89.8172L243.367 90.4972L243.703 87.1932L244.319 87.2572L243.999 90.5612L246.823 90.8492L246.759 91.4092Z" fill="#263238"/>
<path d="M256.405 92.4804C256.181 94.5924 254.549 96.0724 251.605 95.7684C250.767 95.7204 249.95 95.4934 249.207 95.1029C248.465 94.7124 247.815 94.1673 247.301 93.5044L247.701 93.0964C248.174 93.7162 248.778 94.2249 249.469 94.5869C250.16 94.949 250.922 95.1556 251.701 95.1924C254.237 95.4564 255.621 94.2484 255.813 92.4084C256.021 90.4084 254.949 89.0964 251.237 88.7124L248.717 88.4564L249.997 82.4004L256.693 83.0964L256.637 83.6724L250.453 83.0324L249.389 87.9444L251.389 88.1524C255.357 88.5604 256.637 90.1764 256.405 92.4804Z" fill="#263238"/>
<path d="M114.494 358.537L109.406 377.345L125.942 378.849L129.414 360.945L114.494 358.537Z" fill="#349F6E"/>
<path d="M126.399 377.321C125.599 377.379 124.794 377.352 123.999 377.241C122.511 377.121 120.463 376.889 118.199 376.601L112.423 375.801C111.612 375.74 110.808 375.601 110.023 375.385C110.825 375.34 111.628 375.372 112.423 375.481C113.911 375.601 115.959 375.833 118.223 376.121L123.999 376.921C124.809 376.986 125.612 377.12 126.399 377.321Z" fill="#263238"/>
<g opacity="0.6">
<path d="M109.406 377.344L125.942 378.848L126.206 377.472L109.886 375.4L109.43 377.152" fill="white"/>
</g>
<path d="M117.598 376.506C118.527 371.675 119.701 366.896 121.118 362.186C120.711 364.612 120.177 367.015 119.518 369.386C119.001 371.79 118.36 374.167 117.598 376.506Z" fill="#263238"/>
<path d="M125.511 377.201C125.771 376.05 125.771 374.856 125.511 373.705C125.221 372.469 124.595 371.337 123.703 370.433C122.591 369.348 121.139 368.678 119.591 368.537C118.046 368.378 116.491 368.732 115.167 369.545C114.093 370.227 113.207 371.168 112.591 372.281C112.043 373.326 111.688 374.462 111.543 375.633C111.532 375.551 111.532 375.468 111.543 375.385C111.54 375.147 111.553 374.909 111.583 374.673C111.698 373.792 111.969 372.939 112.383 372.153C112.991 370.971 113.895 369.968 115.007 369.241C116.393 368.365 118.033 367.982 119.663 368.153C121.298 368.302 122.829 369.018 123.991 370.177C124.912 371.138 125.544 372.338 125.815 373.641C125.994 374.512 125.994 375.41 125.815 376.281C125.764 376.516 125.694 376.746 125.607 376.969C125.586 377.051 125.554 377.129 125.511 377.201Z" fill="#263238"/>
<path d="M182.694 356.392L181.71 371.2C181.71 371.2 196.446 376.088 196.534 378.84L167.734 379.048L168.318 355.912L182.694 356.392Z" fill="#349F6E"/>
<g opacity="0.6">
<path d="M172.846 369.689C172.567 369.766 172.325 369.943 172.167 370.186C172.009 370.43 171.946 370.722 171.99 371.009C172.055 371.292 172.227 371.539 172.47 371.699C172.713 371.858 173.008 371.918 173.294 371.865C173.589 371.782 173.844 371.594 174.009 371.336C174.174 371.078 174.239 370.768 174.19 370.465C174.091 370.178 173.885 369.941 173.616 369.802C173.346 369.663 173.033 369.634 172.742 369.721" fill="white"/>
</g>
<g opacity="0.6">
<path d="M167.734 379.065L167.886 376.729L195.614 377.529C195.907 377.68 196.158 377.901 196.344 378.174C196.53 378.446 196.645 378.761 196.678 379.089L167.734 379.065Z" fill="white"/>
</g>
<path d="M182.181 371.072C182.181 371.216 181.469 371.256 180.757 371.688C180.045 372.12 179.669 372.696 179.541 372.64C179.413 372.584 179.645 371.776 180.509 371.264C181.373 370.752 182.213 370.944 182.181 371.072Z" fill="#263238"/>
<path d="M185.159 372.416C185.159 372.552 184.575 372.768 184.079 373.352C183.583 373.936 183.423 374.552 183.279 374.544C183.135 374.536 183.071 373.744 183.703 373.024C184.335 372.304 185.167 372.28 185.159 372.416Z" fill="#263238"/>
<path d="M186.767 376.081C186.639 376.081 186.463 375.393 186.847 374.641C187.231 373.889 187.903 373.593 187.959 373.713C188.015 373.833 187.591 374.233 187.287 374.857C186.983 375.481 186.911 376.073 186.767 376.081Z" fill="#263238"/>
<path d="M182.029 367.672C181.965 367.8 181.325 367.584 180.533 367.616C179.741 367.648 179.109 367.88 179.037 367.752C178.965 367.624 179.581 367.152 180.517 367.128C181.453 367.104 182.101 367.568 182.029 367.672Z" fill="#263238"/>
<g opacity="0.3">
<path d="M182.496 359.329L182.32 361.969L168.176 361.409L168.232 359.033L182.496 359.329Z" fill="black"/>
</g>
<path d="M182.175 364.68C181.699 364.793 181.202 364.776 180.735 364.632C180.217 364.523 179.715 364.351 179.239 364.12C178.96 363.986 178.693 363.831 178.439 363.656C178.278 363.564 178.134 363.445 178.015 363.304C177.924 363.201 177.871 363.071 177.864 362.935C177.857 362.799 177.896 362.664 177.975 362.552C178.049 362.458 178.144 362.381 178.252 362.329C178.36 362.276 178.478 362.249 178.599 362.248C178.781 362.252 178.962 362.284 179.135 362.344C179.441 362.427 179.738 362.539 180.023 362.68C180.503 362.912 180.944 363.22 181.327 363.592C181.975 364.232 182.191 364.76 182.127 364.784C182.063 364.808 181.751 364.384 181.087 363.848C180.701 363.54 180.276 363.285 179.823 363.088C179.565 362.972 179.297 362.878 179.023 362.808C178.719 362.72 178.463 362.704 178.375 362.808C178.287 362.912 178.375 362.88 178.375 362.968C178.467 363.069 178.572 363.158 178.687 363.232C178.937 363.403 179.185 363.555 179.431 363.688C179.871 363.922 180.331 364.115 180.807 364.264C181.271 364.374 181.728 364.513 182.175 364.68Z" fill="#263238"/>
<path d="M181.983 364.881C181.729 364.458 181.611 363.966 181.647 363.473C181.632 362.629 181.854 361.798 182.287 361.073C182.369 360.885 182.498 360.722 182.662 360.598C182.826 360.475 183.019 360.396 183.223 360.369C183.352 360.374 183.477 360.417 183.582 360.493C183.687 360.568 183.768 360.672 183.815 360.793C183.883 360.962 183.929 361.14 183.951 361.321C184.001 361.754 183.965 362.192 183.846 362.61C183.726 363.029 183.526 363.42 183.255 363.761C182.671 364.497 182.079 364.641 182.071 364.561C182.063 364.481 182.527 364.233 182.975 363.529C183.235 363.125 183.405 362.669 183.471 362.193C183.511 361.915 183.511 361.632 183.471 361.353C183.471 361.049 183.327 360.801 183.215 360.825C183.103 360.849 182.823 361.041 182.695 361.281C182.547 361.538 182.418 361.805 182.311 362.081C182.138 362.539 182.031 363.018 181.991 363.505C181.927 364.329 182.063 364.857 181.983 364.881Z" fill="#263238"/>
<path d="M120.246 125.713C120.246 125.713 117.118 142.753 114.646 153.065C112.694 161.065 107.654 176.089 116.782 180.449C125.91 184.809 138.15 167.201 138.15 167.201L143.358 127.089C139.734 127.769 135.622 131.977 131.246 138.161L132.046 122.961L120.246 125.713Z" fill="#455A64"/>
<path d="M245.861 150.889L241.061 153.177L236.637 146.241L239.221 140.889C239.469 140.393 239.733 139.841 240.021 139.201C240.341 138.451 240.533 137.653 240.589 136.841C240.7 135.839 240.676 134.827 240.517 133.833C240.277 132.937 241.221 132.233 241.861 132.729C242.501 133.225 243.221 135.689 242.749 138.641C242.277 141.593 245.701 138.465 246.973 137.345C248.245 136.225 252.333 132.961 252.981 133.089C253.917 133.273 253.893 134.345 252.597 135.425C251.301 136.505 247.645 140.049 248.245 140.705C248.994 140.789 249.699 141.105 250.261 141.608C250.823 142.111 251.214 142.777 251.381 143.513C251.701 144.961 251.965 146.969 251.149 147.633C249.458 148.83 247.692 149.918 245.861 150.889Z" fill="#FFBE9D"/>
<path d="M152.8 86.2329L152.672 127.921L170.544 128.801L171.064 118.665C171.064 118.665 177.416 119.929 179.064 114.025C180.112 110.257 179.864 81.1289 179.864 81.1289L152.8 86.2329Z" fill="#FFBE9D"/>
<path d="M183.879 85.2091C182.671 87.6971 176.935 92.2571 176.935 92.2571L174.343 99.2011C172.095 97.4411 169.071 97.5451 168.503 101.497C168.087 104.361 171.639 104.937 171.639 104.937C169.567 108.457 168.167 111.337 165.159 114.649C161.895 118.281 160.071 118.649 156.535 118.705H152.631C152.631 118.705 144.631 112.033 146.231 94.4731C147.831 76.9131 163.599 82.0411 167.367 77.6731C173.503 70.5051 187.903 76.8971 183.879 85.2091Z" fill="#263238"/>
<path d="M147.117 109.153H147.613C148.089 109.145 148.563 109.091 149.029 108.993C150.739 108.604 152.319 107.777 153.613 106.593C155.469 104.771 157.034 102.674 158.253 100.377C159.053 99.1211 159.805 97.7851 160.765 96.4971C161.732 95.1435 162.919 93.9618 164.277 93.0011C165.674 92.0963 167.217 91.4387 168.837 91.0571C170.389 90.6571 171.917 90.4091 173.357 90.1291C176.237 89.5931 178.821 88.7931 180.557 87.4251C181.978 86.3857 183.007 84.8975 183.477 83.2011C183.591 82.7402 183.65 82.2677 183.653 81.7931C183.653 81.4651 183.653 81.2891 183.653 81.2891C183.653 81.2891 183.653 81.4651 183.709 81.7931C183.72 82.2718 183.671 82.7501 183.565 83.2171C183.11 84.9403 182.084 86.4578 180.653 87.5211C178.877 88.9131 176.269 89.7371 173.389 90.2731C171.941 90.5611 170.421 90.8091 168.877 91.2171C167.276 91.5977 165.75 92.2469 164.365 93.1371C163.028 94.093 161.855 95.2603 160.893 96.5931C159.941 97.8731 159.149 99.2011 158.389 100.457C157.155 102.762 155.571 104.862 153.693 106.681C152.382 107.876 150.779 108.704 149.045 109.081C148.573 109.173 148.094 109.219 147.613 109.217C147.285 109.177 147.117 109.153 147.117 109.153Z" fill="#455A64"/>
<path d="M146.199 94.8735C146.199 94.8735 146.479 94.7615 146.999 94.5855C147.795 94.3054 148.618 94.1097 149.455 94.0015C150.787 93.7985 152.148 94.0825 153.287 94.8015C153.639 95.0356 153.941 95.3371 154.176 95.6886C154.411 96.0401 154.574 96.4347 154.655 96.8495C154.751 97.3177 154.727 97.8023 154.588 98.2592C154.448 98.7161 154.196 99.1308 153.855 99.4655C153.467 99.8072 152.972 100.005 152.455 100.026C151.918 100.033 151.389 99.8922 150.927 99.6175C149.948 99.0363 149.218 98.1129 148.879 97.0255C148.494 95.8796 148.441 94.6481 148.727 93.4735C149.022 92.2324 149.696 91.1138 150.655 90.2735C151.659 89.3734 152.922 88.8134 154.263 88.6735C155.652 88.5867 157.045 88.7659 158.367 89.2015C159.727 89.638 161.118 89.9723 162.527 90.2015C163.982 90.3935 165.456 90.3935 166.911 90.2015C168.368 90.0282 169.789 89.6343 171.127 89.0335C171.782 88.7698 172.372 88.3693 172.859 87.8588C173.346 87.3483 173.719 86.7396 173.951 86.0735C174.142 85.4213 174.156 84.7301 173.991 84.0708C173.827 83.4115 173.49 82.8077 173.015 82.3215C172.533 81.8853 171.932 81.6017 171.288 81.5063C170.645 81.4109 169.988 81.5081 169.399 81.7855C168.827 82.037 168.358 82.4776 168.071 83.0335C167.798 83.5801 167.698 84.1966 167.783 84.8015C167.865 85.3806 168.069 85.9356 168.382 86.4294C168.695 86.9233 169.11 87.3447 169.599 87.6655C170.54 88.2429 171.623 88.5476 172.727 88.5455C173.745 88.5638 174.759 88.4124 175.727 88.0975C177.405 87.5697 178.928 86.6416 180.167 85.3935C181.11 84.4657 181.886 83.3834 182.463 82.1935C182.827 81.4255 183.109 80.621 183.303 79.7935C183.407 79.2335 183.479 78.9375 183.479 78.9375L183.335 79.8015C183.158 80.6285 182.889 81.4334 182.535 82.2015C181.971 83.4133 181.196 84.5156 180.247 85.4575C179.006 86.7248 177.473 87.6696 175.783 88.2095C174.801 88.5265 173.775 88.6832 172.743 88.6735C171.615 88.6806 170.507 88.3731 169.543 87.7855C169.035 87.4556 168.604 87.0207 168.278 86.5101C167.953 85.9995 167.74 85.4251 167.655 84.8255C167.561 84.1911 167.664 83.543 167.951 82.9695C168.255 82.3836 168.748 81.9182 169.351 81.6495C169.968 81.3572 170.657 81.2543 171.332 81.354C172.007 81.4537 172.637 81.7514 173.143 82.2095C173.638 82.7151 173.989 83.3429 174.162 84.0287C174.335 84.7145 174.323 85.4339 174.127 86.1135C173.887 86.8026 173.503 87.4328 173.001 87.9624C172.499 88.492 171.89 88.9089 171.215 89.1855C169.861 89.7907 168.424 90.1898 166.951 90.3695C165.48 90.5575 163.991 90.5575 162.519 90.3695C161.105 90.1383 159.709 89.8041 158.343 89.3695C157.039 88.9412 155.666 88.7595 154.295 88.8335C153.365 88.9326 152.469 89.2389 151.673 89.73C150.877 90.221 150.201 90.8843 149.696 91.6711C149.19 92.4578 148.867 93.3479 148.751 94.2759C148.634 95.2039 148.727 96.1463 149.023 97.0335C149.352 98.0888 150.059 98.986 151.007 99.5535C151.447 99.8169 151.951 99.9552 152.463 99.9535C152.953 99.9352 153.422 99.7488 153.791 99.4255C154.115 99.102 154.354 98.7033 154.487 98.265C154.619 97.8267 154.642 97.3624 154.551 96.9135C154.391 96.1059 153.919 95.3935 153.239 94.9295C152.118 94.2178 150.777 93.9338 149.463 94.1295C148.631 94.2298 147.81 94.4148 147.015 94.6815L146.199 94.8735Z" fill="#455A64"/>
<path d="M134.406 208.361L110.598 364.745L130.374 367.249L158.27 236.089L165.302 368.137L186.734 367.761L183.182 208.729L134.406 208.361Z" fill="#263238"/>
<path d="M164.917 368.536V368.152L158.053 239.128L130.685 367.696L110.141 365.088L134.061 208L183.573 208.368L187.141 368.192L164.917 368.536ZM158.517 233.04L165.717 367.728L186.365 367.368L182.829 209.128L134.749 208.8L111.053 364.392L130.053 366.792L158.517 233.04Z" fill="#263238"/>
<path d="M180.368 367.505C180.248 367.505 180.16 336.177 180.16 297.537C180.16 258.897 180.248 227.553 180.368 227.553C180.488 227.553 180.576 258.881 180.576 297.537C180.576 336.193 180.48 367.505 180.368 367.505Z" fill="#455A64"/>
<path d="M126.023 366.937C126.029 366.824 126.045 366.711 126.071 366.601C126.071 366.353 126.175 366.025 126.255 365.609C126.423 364.721 126.671 363.441 126.983 361.809C127.655 358.489 128.583 353.729 129.791 347.849C132.191 336.065 135.591 319.809 139.495 301.889C143.399 283.969 147.071 267.761 149.791 256.057C151.159 250.217 152.271 245.489 153.047 242.193C153.439 240.593 153.751 239.313 153.959 238.433C154.063 238.017 154.151 237.697 154.207 237.457C154.235 237.345 154.269 237.236 154.311 237.129C154.311 237.129 154.311 237.241 154.247 237.465C154.183 237.689 154.135 238.033 154.047 238.449C153.847 239.337 153.567 240.609 153.207 242.233C152.463 245.529 151.399 250.233 150.079 256.121C147.431 267.849 143.807 284.057 139.903 301.977C135.999 319.897 132.551 336.145 130.079 347.905C128.839 353.777 127.839 358.529 127.143 361.841C126.799 363.441 126.527 364.737 126.343 365.625L126.119 366.609C126.099 366.721 126.066 366.831 126.023 366.937Z" fill="#455A64"/>
<path d="M165.3 235.944C165.006 236.023 164.702 236.063 164.396 236.064L161.924 236.24C159.836 236.376 156.948 236.52 153.78 236.832C150.612 237.144 147.756 237.576 145.684 237.848L143.228 238.16C142.928 238.218 142.622 238.237 142.316 238.216C142.603 238.111 142.901 238.039 143.204 238C143.772 237.88 144.604 237.728 145.604 237.552C147.668 237.208 150.524 236.752 153.708 236.416C156.892 236.08 159.788 236.008 161.876 235.944C162.924 235.944 163.772 235.904 164.356 235.904C164.672 235.883 164.988 235.897 165.3 235.944Z" fill="#455A64"/>
<path d="M183.6 225.793C183.405 225.879 183.196 225.93 182.984 225.945C182.412 226.028 181.833 226.055 181.256 226.025C179.335 225.922 177.485 225.27 175.924 224.145C174.364 223.02 173.16 221.471 172.456 219.681C172.243 219.143 172.085 218.586 171.984 218.017C171.912 217.617 171.904 217.393 171.936 217.385C171.968 217.377 172.144 218.265 172.736 219.561C173.503 221.253 174.693 222.719 176.192 223.817C177.706 224.889 179.473 225.548 181.32 225.729C182.696 225.873 183.584 225.713 183.6 225.793Z" fill="#455A64"/>
<path d="M130.336 211.433L185.12 211.257L182.12 175.105C181.792 166.833 181.84 165.841 181.632 158.209C181.632 158.209 189.408 167.609 195.528 174.209C197.331 176.148 199.705 177.463 202.306 177.962C204.907 178.461 207.599 178.119 209.992 176.985L241.992 154.657L236 139.321L206.92 157.121C205.584 156.321 194.264 140.137 186.44 132.257C181.431 127.213 174.674 124.289 167.568 124.089C161.671 123.951 155.771 124.189 149.904 124.801C145.63 125.258 141.649 127.191 138.646 130.266C135.643 133.34 133.805 137.366 133.448 141.649C132.88 148.409 133.336 156.257 133.336 169.593L130.336 211.433Z" fill="#455A64"/>
<path d="M132.91 145.305C132.91 145.305 132.91 145.457 132.91 145.729C132.91 146.001 132.91 146.457 132.91 146.937C132.91 147.993 132.91 149.513 132.91 151.393C132.91 155.153 133.078 160.337 133.246 166.073C133.414 171.809 133.438 177.009 133.294 180.761C133.23 182.641 133.142 184.161 133.054 185.209C133.054 185.697 132.982 186.097 132.958 186.417C132.934 186.737 132.91 186.833 132.91 186.833C132.91 186.833 132.91 186.689 132.91 186.417C132.91 186.145 132.95 185.689 132.974 185.209C133.046 184.161 133.11 182.641 133.158 180.761C133.27 177.001 133.222 171.809 133.062 166.073C132.902 160.337 132.766 155.153 132.774 151.393C132.774 149.513 132.774 147.993 132.83 146.937C132.83 146.449 132.83 146.057 132.87 145.729C132.91 145.401 132.91 145.305 132.91 145.305Z" fill="#263238"/>
<path d="M205.719 162.296C205.728 162.042 205.766 161.79 205.831 161.544C205.927 161.08 206.063 160.44 206.231 159.744C206.399 159.048 206.551 158.408 206.671 157.96C206.718 157.709 206.796 157.465 206.903 157.232C206.893 157.487 206.853 157.739 206.783 157.984C206.695 158.448 206.551 159.08 206.391 159.784C206.231 160.488 206.071 161.112 205.951 161.568C205.9 161.819 205.822 162.063 205.719 162.296Z" fill="#263238"/>
<path d="M208.637 162.745C208.33 161.801 208.082 160.84 207.893 159.865C207.646 158.903 207.451 157.928 207.309 156.945C207.61 157.891 207.859 158.852 208.053 159.825C208.299 160.788 208.494 161.762 208.637 162.745Z" fill="#263238"/>
<path d="M182.981 159.561L182.685 159.289L181.845 158.489C181.125 157.785 180.085 156.753 178.837 155.433C177.374 153.898 176.011 152.271 174.757 150.561C173.206 148.467 171.954 146.168 171.037 143.729C170.11 141.284 169.693 138.676 169.813 136.065C169.853 133.932 170.321 131.829 171.189 129.881C171.811 128.577 172.735 127.442 173.885 126.569C174.193 126.334 174.517 126.12 174.853 125.929L175.213 125.729C175.213 125.729 174.717 126.001 173.925 126.617C172.802 127.501 171.901 128.635 171.293 129.929C170.448 131.869 169.997 133.957 169.965 136.073C169.853 138.663 170.272 141.25 171.197 143.673C172.109 146.096 173.347 148.384 174.877 150.473C176.125 152.181 177.477 153.81 178.925 155.353C180.157 156.681 181.181 157.753 181.893 158.449L182.693 159.249C182.893 159.457 182.981 159.561 182.981 159.561Z" fill="#263238"/>
<path d="M147.373 144.689C146.65 144.105 146.016 143.418 145.493 142.649C144.869 141.965 144.346 141.194 143.941 140.361C144.664 140.944 145.297 141.628 145.821 142.393C146.449 143.078 146.972 143.852 147.373 144.689Z" fill="#FAFAFA"/>
<path d="M159.824 158.816C159.065 159.866 158.196 160.832 157.232 161.696C156.364 162.66 155.395 163.529 154.344 164.288C155.971 162.275 157.808 160.44 159.824 158.816Z" fill="#FAFAFA"/>
<path d="M171.87 179.097C171.758 179.097 171.318 177.897 170.502 176.513C169.686 175.129 168.838 174.113 168.902 174.057C169.727 174.63 170.393 175.404 170.838 176.305C171.409 177.135 171.764 178.094 171.87 179.097Z" fill="#FAFAFA"/>
<path d="M140.639 176.8C139.421 174.246 138.924 171.408 139.199 168.592C139.327 168.592 139.359 170.464 139.767 172.72C140.175 174.976 140.799 176.752 140.639 176.8Z" fill="#FAFAFA"/>
<path d="M157.221 185.729C156.224 183.582 156.009 181.154 156.613 178.865C156.733 178.865 156.557 180.425 156.733 182.313C156.909 184.201 157.341 185.689 157.221 185.729Z" fill="#FAFAFA"/>
<path d="M150.663 198.697C149.343 198.122 148.084 197.417 146.903 196.593C145.647 195.888 144.46 195.066 143.359 194.137C144.681 194.712 145.944 195.417 147.127 196.241C148.382 196.945 149.566 197.767 150.663 198.697Z" fill="#FAFAFA"/>
<path d="M176.453 194.865C176.509 194.977 174.653 195.897 172.501 197.265C170.349 198.633 168.709 199.905 168.629 199.809C169.693 198.666 170.923 197.69 172.277 196.913C173.556 196.022 174.965 195.331 176.453 194.865Z" fill="#FAFAFA"/>
<path d="M143.999 209.528C142.649 209.465 141.309 209.266 139.999 208.936C138.65 208.737 137.326 208.399 136.047 207.928C137.397 207.991 138.737 208.192 140.047 208.528C141.395 208.726 142.719 209.061 143.999 209.528Z" fill="#FAFAFA"/>
<path d="M161.312 206.712C159.786 205.232 158.75 203.32 158.344 201.232C158.456 201.232 158.952 202.496 159.776 204C160.6 205.504 161.408 206.632 161.312 206.712Z" fill="#FAFAFA"/>
<path d="M180.797 208.065C180.497 208.742 180.074 209.358 179.549 209.881C178.749 210.809 178.077 211.481 177.949 211.433C178.243 210.747 178.667 210.125 179.197 209.601C179.997 208.689 180.677 208.001 180.797 208.065Z" fill="#FAFAFA"/>
<path d="M145.174 153.072C145.238 153.168 144.526 153.76 143.574 154.384C143.034 154.827 142.411 155.159 141.742 155.36C141.678 155.264 142.398 154.672 143.342 154.04C143.882 153.598 144.505 153.269 145.174 153.072Z" fill="#FAFAFA"/>
<path d="M158.678 137.992C158.036 136.68 157.552 135.297 157.238 133.872C156.805 132.481 156.536 131.045 156.438 129.592C156.94 130.954 157.346 132.349 157.654 133.768C158.094 135.15 158.437 136.561 158.678 137.992Z" fill="#FAFAFA"/>
<path d="M171.648 151.721C171.592 151.833 170.424 151.385 168.928 151.105C167.432 150.825 166.176 150.801 166.176 150.673C168.067 150.344 170.013 150.717 171.648 151.721Z" fill="#FAFAFA"/>
<path d="M180.557 140.056C179.563 140.346 178.512 140.382 177.501 140.16C176.47 140.071 175.479 139.721 174.621 139.144C174.669 139.032 175.933 139.504 177.565 139.744C179.197 139.984 180.541 139.936 180.557 140.056Z" fill="#FAFAFA"/>
<path d="M189.669 153.064C189.519 151.592 189.594 150.106 189.893 148.656C190.064 147.185 190.463 145.749 191.077 144.4C191.189 144.4 190.685 146.336 190.277 148.72C189.869 151.104 189.797 153.072 189.669 153.064Z" fill="#FAFAFA"/>
<path d="M200.392 168.393C198.398 166.726 196.59 164.849 195 162.793C196.989 164.465 198.796 166.342 200.392 168.393Z" fill="#FAFAFA"/>
<path d="M209.302 167.201C208.475 169.01 207.398 170.693 206.102 172.201C206.457 171.266 206.942 170.385 207.542 169.585C208.013 168.712 208.606 167.909 209.302 167.201Z" fill="#FAFAFA"/>
<path d="M219.646 162.168C218.95 161.217 218.37 160.185 217.918 159.096C217.343 158.064 216.889 156.969 216.566 155.832C217.262 156.787 217.842 157.821 218.294 158.912C218.869 159.942 219.323 161.034 219.646 162.168Z" fill="#FAFAFA"/>
<path d="M233.725 156.345C231.257 156.19 228.815 155.756 226.445 155.049C227.685 155.061 228.919 155.212 230.125 155.497C231.354 155.642 232.561 155.927 233.725 156.345Z" fill="#FAFAFA"/>
<path d="M121.887 171.329C122.741 168.844 123.862 166.46 125.231 164.217C124.865 165.479 124.366 166.7 123.743 167.857C123.248 169.076 122.626 170.24 121.887 171.329Z" fill="#FAFAFA"/>
<path d="M129.352 158.162C128.458 157.462 127.652 156.656 126.952 155.762C126.145 154.959 125.433 154.065 124.832 153.098C125.729 153.794 126.535 154.601 127.232 155.498C128.043 156.297 128.755 157.192 129.352 158.162Z" fill="#FAFAFA"/>
<path d="M128.728 179.306C128.8 179.394 128.248 179.978 127.496 180.61C126.744 181.242 126.064 181.674 125.984 181.586C125.904 181.498 126.472 180.914 127.224 180.29C127.976 179.666 128.656 179.202 128.728 179.306Z" fill="#FAFAFA"/>
<path d="M131.248 144.168C131.344 144.24 131.008 144.808 130.504 145.44C130 146.072 129.512 146.52 129.424 146.448C129.336 146.376 129.672 145.808 130.176 145.176C130.68 144.544 131.2 144.096 131.248 144.168Z" fill="#FAFAFA"/>
<g opacity="0.3">
<path d="M173.062 147.801C176.447 158.433 179.055 169.593 182.439 180.225L181.639 158.209C178.348 155.119 175.466 151.622 173.062 147.801Z" fill="black"/>
</g>
<path d="M118.016 161.712C118.043 161.624 118.078 161.538 118.12 161.456L118.44 160.712C118.728 160.072 119.152 159.16 119.696 158.032C120.784 155.776 122.352 152.696 124.24 149.368C126.128 146.04 127.96 143.112 129.336 141.024C130.024 139.976 130.592 139.136 130.992 138.568L131.456 137.912C131.568 137.76 131.624 137.68 131.632 137.688L131.488 137.928L131.048 138.6L129.448 141.088C128.096 143.192 126.248 146.128 124.4 149.448C122.552 152.768 120.928 155.848 119.824 158.08L118.52 160.744C118.384 161.016 118.264 161.256 118.168 161.464C118.126 161.552 118.075 161.635 118.016 161.712Z" fill="#263238"/>
<path d="M123.413 151.529C123.128 151.671 122.834 151.794 122.533 151.897C121.838 152.201 121.173 152.57 120.549 153.001C119.928 153.437 119.352 153.933 118.829 154.481C118.421 154.905 118.197 155.185 118.181 155.169C118.165 155.153 118.181 155.089 118.309 154.953C118.442 154.761 118.586 154.576 118.741 154.401C119.244 153.819 119.819 153.303 120.453 152.865C121.086 152.426 121.772 152.066 122.493 151.793C122.71 151.709 122.932 151.637 123.157 151.577C123.24 151.55 123.326 151.533 123.413 151.529Z" fill="#263238"/>
<path d="M124.168 135.121C123.483 136.432 122.68 137.677 121.768 138.841C120.955 140.084 120.026 141.246 118.992 142.313C119.681 141.007 120.484 139.765 121.392 138.601C122.207 137.357 123.136 136.192 124.168 135.121Z" fill="#FAFAFA"/>
<path d="M129.941 122.113C130.338 122.183 130.746 122.129 131.11 121.957C131.474 121.785 131.776 121.504 131.973 121.153C132.421 120.481 132.629 119.681 133.021 118.977C134.213 116.889 136.917 115.977 138.005 113.833C138.157 113.529 138.245 113.113 138.005 112.905C137.765 112.697 137.405 112.841 137.125 112.977L130.005 116.545" fill="#FFBE9D"/>
<path d="M129.989 116.544C130.208 116.356 130.454 116.2 130.717 116.08C131.197 115.808 131.909 115.432 132.789 114.968L135.877 113.368L136.781 112.912C137.117 112.673 137.532 112.572 137.941 112.632C138.066 112.68 138.174 112.764 138.251 112.874C138.328 112.984 138.37 113.114 138.373 113.248C138.376 113.47 138.327 113.689 138.229 113.888C138.055 114.24 137.84 114.571 137.589 114.872C136.587 115.885 135.518 116.828 134.389 117.696C133.936 118.092 133.545 118.553 133.229 119.064C132.941 119.552 132.757 120.056 132.533 120.512C132.391 120.898 132.167 121.247 131.875 121.536C131.583 121.825 131.231 122.046 130.845 122.184C130.704 122.24 130.552 122.264 130.401 122.252C130.25 122.241 130.104 122.196 129.973 122.12C130.243 122.13 130.514 122.095 130.773 122.016C131.111 121.862 131.415 121.641 131.665 121.366C131.915 121.091 132.107 120.768 132.229 120.416C132.421 119.906 132.64 119.407 132.885 118.92C133.207 118.366 133.612 117.864 134.085 117.432C135.205 116.56 136.274 115.622 137.285 114.624C137.508 114.348 137.703 114.05 137.869 113.736C138.013 113.44 138.013 113.128 137.869 113.088C137.725 113.048 137.357 113.184 137.069 113.336L136.165 113.784L133.029 115.304C132.133 115.728 131.429 116.104 130.893 116.288C130.606 116.419 130.301 116.506 129.989 116.544Z" fill="#EB996E"/>
<path d="M353.288 336.311H302.648V343.271H353.288V336.311Z" fill="#263238"/>
<path d="M353.367 343.351H302.559V336.223H353.367V343.351ZM302.735 343.199H353.191V336.415H302.735V343.199Z" fill="#263238"/>
<path d="M307.344 340.951L314.632 376.903H341.6L348.64 343.263L307.344 340.951Z" fill="#263238"/>
<path d="M307.344 373.504L311.232 378.848H344.008L348.64 373.504H307.344Z" fill="#455A64"/>
<path d="M326.065 342C325.961 342 325.833 325.344 325.777 304.8C325.721 284.256 325.777 267.592 325.857 267.592C325.937 267.592 326.081 284.248 326.137 304.8C326.193 325.352 326.161 342 326.065 342Z" fill="#263238"/>
<path d="M337.343 300.311C337.309 300.445 337.264 300.576 337.207 300.703L336.751 301.775C336.655 302.015 336.543 302.271 336.423 302.575L336.087 303.527C335.967 303.863 335.831 304.223 335.695 304.607C335.559 304.991 335.455 305.407 335.319 305.847C334.717 307.881 334.244 309.952 333.903 312.047C333.505 314.615 333.238 317.203 333.103 319.799C332.918 324.522 333.051 329.253 333.503 333.959C333.671 335.767 333.831 337.231 333.951 338.239C334.007 338.711 334.047 339.095 334.079 339.399C334.089 339.534 334.089 339.671 334.079 339.807C334.027 339.682 333.994 339.549 333.983 339.415C333.935 339.111 333.871 338.727 333.791 338.255C333.623 337.255 333.423 335.791 333.231 333.983C332.723 329.259 332.579 324.504 332.799 319.759C332.926 317.149 333.193 314.548 333.599 311.967C333.958 309.86 334.46 307.781 335.103 305.743C335.239 305.311 335.359 304.895 335.503 304.511L335.919 303.431C336.055 303.095 336.175 302.783 336.287 302.487C336.399 302.191 336.543 301.951 336.647 301.687L337.167 300.639C337.213 300.523 337.272 300.413 337.343 300.311Z" fill="#263238"/>
<path d="M336.045 286.84C336.003 287.027 335.949 287.211 335.885 287.392C335.749 287.776 335.573 288.288 335.357 288.936C335.237 289.28 335.109 289.648 334.973 290.056L334.565 291.4C334.269 292.368 333.925 293.456 333.621 294.696C333.453 295.304 333.285 295.952 333.109 296.616C332.933 297.28 332.797 298 332.637 298.728C332.285 300.176 332.029 301.752 331.701 303.392C331.141 306.704 330.653 310.36 330.309 314.216C329.965 318.072 329.853 321.768 329.805 325.128C329.757 328.488 329.805 331.528 329.973 334.04C330.021 335.312 330.101 336.44 330.165 337.464C330.229 338.488 330.285 339.336 330.349 340.048C330.413 340.76 330.445 341.272 330.477 341.648C330.497 341.837 330.497 342.027 330.477 342.216C330.432 342.032 330.402 341.845 330.389 341.656L330.197 340.056C330.109 339.352 330.021 338.456 329.949 337.48C329.877 336.504 329.765 335.328 329.701 334.056C329.533 331.52 329.461 328.456 329.453 325.12C329.445 321.784 329.613 318.056 329.933 314.192C330.253 310.328 330.781 306.648 331.357 303.336C331.693 301.688 331.957 300.136 332.325 298.656C332.501 297.928 332.661 297.224 332.821 296.552C332.981 295.88 333.189 295.24 333.357 294.624C333.677 293.392 334.037 292.296 334.357 291.336L334.789 290C334.941 289.6 335.085 289.2 335.205 288.888L335.797 287.368C335.87 287.187 335.952 287.011 336.045 286.84Z" fill="#263238"/>
<path d="M322.853 344.944V344.752C322.853 344.6 322.853 344.416 322.805 344.176C322.765 343.648 322.717 342.912 322.653 341.976C322.533 340.032 322.365 337.264 322.149 333.856C321.709 327.008 321.069 317.544 319.917 307.136C319.333 301.936 318.645 296.992 317.941 292.512C317.557 290.28 317.221 288.152 316.829 286.168C316.437 284.184 316.093 282.344 315.733 280.664C315.373 278.984 315.029 277.464 314.733 276.144C314.437 274.824 314.157 273.68 313.933 272.744C313.709 271.808 313.533 271.144 313.413 270.6C313.357 270.368 313.317 270.184 313.285 270.04C313.253 269.896 313.245 269.848 313.285 269.848C313.311 269.907 313.332 269.969 313.349 270.032C313.349 270.176 313.445 270.352 313.509 270.584C313.653 271.096 313.853 271.808 314.101 272.712C314.349 273.616 314.669 274.768 314.981 276.096C315.293 277.424 315.685 278.928 316.037 280.616C316.389 282.304 316.837 284.128 317.173 286.112C317.509 288.096 317.925 290.224 318.317 292.464C319.045 296.944 319.741 301.888 320.325 307.096C321.477 317.496 322.077 326.992 322.453 333.848C322.637 337.272 322.765 340.048 322.845 341.968C322.845 342.904 322.909 343.648 322.925 344.176C322.925 344.408 322.925 344.6 322.925 344.752C322.914 344.82 322.89 344.885 322.853 344.944Z" fill="#263238"/>
<path d="M325.648 275.6C325.432 273.24 323.048 271.456 320.672 271.432C319.485 271.485 318.326 271.807 317.283 272.374C316.239 272.94 315.338 273.737 314.648 274.704C313.284 276.652 312.299 278.839 311.744 281.152C310.014 286.691 309.407 292.519 309.96 298.296C310.64 304.04 312.968 309.696 317.088 313.752C317.76 314.416 318.632 315.072 319.552 314.88C320.046 314.731 320.493 314.455 320.848 314.08C324.881 310.384 328.078 305.869 330.225 300.837C332.372 295.805 333.419 290.373 333.296 284.904C333.232 282.72 332.944 280.448 331.736 278.632C330.528 276.816 327.736 274.88 325.648 275.608" fill="#349F6E"/>
<path d="M307.95 256.695L304.614 262.743C304.534 262.879 304.43 263.039 304.27 263.055C304.11 263.071 303.966 262.903 303.87 262.759C300.926 258.241 297.993 253.724 295.07 249.207L297.102 248.055L307.95 256.695Z" fill="#349F6E"/>
<g opacity="0.2">
<path d="M307.95 256.695L304.614 262.743C304.534 262.879 304.43 263.039 304.27 263.055C304.11 263.071 303.966 262.903 303.87 262.759C300.926 258.241 297.993 253.724 295.07 249.207L297.102 248.055L307.95 256.695Z" fill="black"/>
</g>
<path d="M325.853 267.591L295.749 249.823C295.417 249.683 295.153 249.419 295.013 249.087C294.893 248.639 295.229 248.215 295.549 247.879C297.619 245.731 300.127 244.054 302.904 242.964C305.68 241.873 308.659 241.394 311.637 241.559C314.613 241.775 317.492 242.711 320.026 244.288C322.56 245.864 324.672 248.033 326.181 250.607C329.085 255.799 329.181 262.663 325.853 267.591Z" fill="#349F6E"/>
<path d="M300.086 244.159C300.213 244.122 300.345 244.103 300.478 244.103C300.742 244.103 301.126 244.047 301.614 244.055C303.016 244.036 304.416 244.146 305.798 244.383C310.383 245.159 314.651 247.228 318.102 250.345C321.552 253.463 324.042 257.5 325.278 261.983C325.652 263.331 325.904 264.71 326.03 266.103C326.045 266.396 326.045 266.69 326.03 266.983C326.01 267.218 325.93 267.443 325.798 267.639C325.891 267.137 325.907 266.625 325.846 266.119C325.672 264.744 325.388 263.385 324.998 262.055C323.485 256.987 320.406 252.529 316.202 249.319C311.998 246.11 306.885 244.315 301.598 244.191C300.63 244.167 300.086 244.191 300.086 244.159Z" fill="#263238"/>
<path d="M321.773 255.328C321.295 255.618 320.785 255.851 320.253 256.024C319.293 256.4 317.957 256.88 316.453 257.36C314.949 257.84 313.581 258.216 312.581 258.456C312.048 258.62 311.498 258.728 310.941 258.776C311.451 258.528 311.988 258.34 312.541 258.216L316.381 257.016L320.197 255.784C320.706 255.58 321.234 255.427 321.773 255.328Z" fill="#263238"/>
<path d="M317.04 242.592C317.306 243.691 317.425 244.821 317.392 245.952C317.478 247.08 317.416 248.215 317.208 249.328C317.058 248.212 316.999 247.085 317.032 245.96C316.945 244.839 316.948 243.712 317.04 242.592Z" fill="#263238"/>
<path d="M295.488 249.488C296.194 249.163 296.924 248.895 297.672 248.688C299.04 248.264 300.944 247.736 303.072 247.224C305.2 246.712 307.128 246.32 308.544 246.072C309.299 245.902 310.067 245.798 310.84 245.76C310.104 245.997 309.353 246.184 308.592 246.32C307.2 246.632 305.272 247.064 303.152 247.568C301.032 248.072 299.152 248.576 297.744 248.936C297.006 249.171 296.252 249.355 295.488 249.488Z" fill="#263238"/>
<path d="M313.151 270.479C310.567 268.511 307.823 268.127 304.583 268.255C301.333 268.464 298.15 269.278 295.199 270.655C290.119 272.879 285.351 276.151 282.319 280.791C279.287 285.431 278.223 291.575 280.495 296.623C280.673 297.152 281.04 297.596 281.527 297.871C282.089 298.036 282.692 297.991 283.223 297.743C288.999 295.863 294.815 293.959 300.119 291.007C305.423 288.055 310.263 283.959 313.111 278.599C313.842 277.332 314.307 275.931 314.479 274.479C314.555 273.756 314.477 273.025 314.247 272.335C314.018 271.645 313.644 271.012 313.151 270.479Z" fill="#349F6E"/>
<path d="M313.208 269.871C313.073 269.935 312.934 269.991 312.792 270.039L311.584 270.455L310.704 270.743L309.68 271.143C308.952 271.439 308.08 271.735 307.208 272.167L305.792 272.815C305.304 273.039 304.816 273.319 304.296 273.615C303.248 274.127 302.192 274.783 301.096 275.455C296.252 278.447 291.947 282.233 288.36 286.655C287.56 287.695 286.76 288.655 286.12 289.631C285.792 290.111 285.456 290.559 285.168 291.023C284.88 291.487 284.608 291.919 284.368 292.343C283.824 293.143 283.416 293.943 283.032 294.663C282.848 295.007 282.664 295.327 282.504 295.631L282.104 296.431C281.872 296.895 281.688 297.279 281.544 297.575C281.479 297.711 281.404 297.842 281.32 297.967C281.356 297.821 281.407 297.679 281.472 297.543C281.606 297.239 281.774 296.847 281.976 296.367C282.096 296.111 282.216 295.823 282.352 295.519C282.488 295.215 282.672 294.887 282.856 294.535C283.224 293.839 283.616 293.023 284.144 292.183L284.944 290.839C285.224 290.375 285.56 289.919 285.888 289.431C286.52 288.439 287.304 287.463 288.104 286.415C289.914 284.198 291.893 282.125 294.024 280.215C296.187 278.34 298.495 276.642 300.928 275.135C302.064 274.471 303.136 273.823 304.2 273.319C304.72 273.055 305.216 272.783 305.712 272.559L307.144 271.935C308.056 271.511 308.912 271.231 309.648 270.959C310.024 270.823 310.368 270.687 310.688 270.583L311.576 270.319L312.808 269.967C312.938 269.921 313.072 269.889 313.208 269.871Z" fill="#263238"/>
<path d="M292.973 280.799C290.913 281.587 288.811 282.263 286.677 282.823C284.577 283.505 282.441 284.068 280.277 284.511C282.337 283.719 284.439 283.041 286.573 282.479C288.675 281.804 290.811 281.243 292.973 280.799Z" fill="#263238"/>
<path d="M292.717 294.72C292.608 294.073 292.562 293.416 292.581 292.76C292.541 291.544 292.541 289.872 292.581 288.016C292.621 286.16 292.733 284.488 292.837 283.28C292.854 282.623 292.937 281.969 293.085 281.328C293.138 281.983 293.138 282.641 293.085 283.296C293.037 284.624 292.989 286.24 292.933 288.024C292.877 289.808 292.853 291.432 292.813 292.76C292.835 293.415 292.802 294.071 292.717 294.72Z" fill="#263238"/>
<path d="M304.623 288.654C304.527 288.654 304.207 285.254 303.919 281.046C303.631 276.838 303.471 273.414 303.567 273.406C303.663 273.398 303.983 276.806 304.279 281.022C304.575 285.238 304.727 288.646 304.623 288.654Z" fill="#263238"/>
<path d="M289.805 273.079C290.473 272.997 291.148 272.976 291.821 273.015C293.069 273.015 294.781 273.063 296.677 273.127C298.573 273.191 300.293 273.263 301.541 273.335C302.215 273.334 302.888 273.401 303.549 273.535C302.88 273.612 302.205 273.63 301.533 273.591C300.285 273.591 298.565 273.551 296.669 273.487C294.773 273.423 293.053 273.343 291.813 273.271C291.139 273.268 290.467 273.204 289.805 273.079Z" fill="#263238"/>
<path d="M318.397 314.544C318.367 314.413 318.353 314.278 318.357 314.144C318.357 313.84 318.357 313.456 318.301 312.984C318.253 311.976 318.245 310.52 318.301 308.72C318.357 306.92 318.453 304.776 318.669 302.408C318.885 300.04 319.245 297.44 319.733 294.728C320.221 292.016 320.829 289.464 321.445 287.16C322.061 284.856 322.717 282.816 323.325 281.112C323.933 279.408 324.445 278.048 324.845 277.112L325.301 276.04C325.346 275.91 325.408 275.786 325.485 275.672C325.458 275.806 325.418 275.938 325.365 276.064L324.973 277.16C324.613 278.096 324.133 279.472 323.565 281.16C322.997 282.848 322.381 284.92 321.765 287.216C321.149 289.512 320.581 292.064 320.085 294.76C319.589 297.456 319.285 300.048 319.005 302.408C318.725 304.768 318.621 306.904 318.557 308.696C318.493 310.488 318.397 312 318.397 312.984C318.397 313.456 318.397 313.84 318.397 314.144C318.411 314.277 318.411 314.411 318.397 314.544Z" fill="#263238"/>
<path d="M319.999 294.832C319.654 295.319 319.251 295.763 318.799 296.152C317.999 296.952 316.919 297.968 315.655 299.08C314.391 300.192 313.255 301.144 312.343 301.816C311.895 302.209 311.404 302.55 310.879 302.832C311.273 302.385 311.71 301.978 312.183 301.616L315.383 298.808L318.583 295.968C319.02 295.548 319.494 295.168 319.999 294.832Z" fill="#263238"/>
<path d="M329.504 302.511C329.028 301.957 328.6 301.362 328.224 300.735L325.248 296.399C324.096 294.759 323.048 293.287 322.208 292.095C321.758 291.521 321.352 290.914 320.992 290.279C321.511 290.794 321.988 291.351 322.416 291.943C323.216 293.007 324.368 294.495 325.544 296.191C326.72 297.887 327.728 299.447 328.432 300.599C328.843 301.205 329.201 301.845 329.504 302.511Z" fill="#263238"/>
<path d="M324.509 278.399C324.557 278.487 321.397 280.615 317.437 283.199C313.477 285.783 310.237 287.743 310.173 287.655C310.109 287.567 313.285 285.439 317.237 282.855C321.189 280.271 324.453 278.287 324.509 278.399Z" fill="#263238"/>
<path d="M333.429 287.999C330.159 285.136 327.048 282.097 324.109 278.895C325.787 280.283 327.389 281.76 328.909 283.319C330.503 284.792 332.012 286.355 333.429 287.999Z" fill="#263238"/>
<path d="M335.68 287.807L338.392 287.583C340.321 287.427 342.194 286.854 343.88 285.903C344.703 285.42 345.559 284.992 346.44 284.623C349.8 283.271 353.552 283.511 357.16 283.327C363.082 283.029 368.884 281.546 374.224 278.967C374.534 278.824 374.794 278.59 374.968 278.295C375.52 277.279 374.488 276.375 373.592 275.823C369.016 272.999 364.36 270.143 359.192 268.743C354.024 267.343 348.104 267.583 343.672 270.631C338.472 274.207 336.584 281.559 335.672 287.807" fill="#349F6E"/>
<path d="M375.023 277.959C374.864 277.902 374.712 277.83 374.567 277.743L373.279 277.071C372.159 276.487 370.551 275.615 368.479 274.671C366.114 273.511 363.651 272.564 361.119 271.839C358.022 270.944 354.778 270.672 351.575 271.039C348.369 271.397 345.34 272.697 342.871 274.775C340.943 276.578 339.403 278.756 338.343 281.175C337.605 282.794 336.948 284.449 336.375 286.135C336.167 286.703 336.007 287.159 335.887 287.503C335.841 287.667 335.776 287.825 335.695 287.975C335.724 287.807 335.764 287.641 335.815 287.479C335.927 287.127 336.063 286.679 336.239 286.087C336.76 284.378 337.385 282.703 338.111 281.071C339.157 278.61 340.704 276.395 342.655 274.567C345.162 272.426 348.252 271.086 351.527 270.719C354.775 270.33 358.068 270.602 361.207 271.519C363.755 272.26 366.227 273.241 368.591 274.447C370.615 275.455 372.207 276.351 373.303 276.983L374.559 277.711C374.721 277.779 374.877 277.862 375.023 277.959Z" fill="#263238"/>
<path d="M368.501 281.463C368.445 281.551 364.885 279.247 360.565 276.335C356.245 273.423 352.773 270.983 352.829 270.895C352.885 270.807 356.437 273.111 360.765 276.031C365.093 278.951 368.557 281.383 368.501 281.463Z" fill="#263238"/>
<path d="M364.712 270.711C363.876 270.995 363.003 271.151 362.12 271.175C361.248 271.306 360.361 271.306 359.488 271.175C360.349 271.019 361.221 270.931 362.096 270.911C362.962 270.775 363.836 270.708 364.712 270.711Z" fill="#263238"/>
<path d="M349.152 268.688C348.863 269.352 348.469 269.965 347.984 270.504C347.577 271.132 347.081 271.698 346.512 272.184C346.803 271.53 347.197 270.928 347.68 270.4C348.085 269.76 348.58 269.184 349.152 268.688Z" fill="#263238"/>
<path d="M352.335 283.56C351.735 283.309 351.161 282.998 350.623 282.632C349.599 282.008 348.223 281.096 346.727 280.024C345.231 278.952 343.943 277.928 342.999 277.184C342.472 276.807 341.98 276.384 341.527 275.92C342.093 276.22 342.629 276.574 343.127 276.976L346.919 279.728C348.391 280.8 349.751 281.744 350.743 282.416C351.304 282.754 351.837 283.136 352.335 283.56Z" fill="#263238"/>
<path d="M339.679 299.351C337.087 298.671 333.999 301.191 333.463 303.815C332.927 306.439 333.911 309.127 335.063 311.551C337.526 316.985 341.192 321.789 345.783 325.599C350.409 329.404 356.186 331.53 362.175 331.631C361.079 326.543 362.463 321.231 361.855 316.055C361.315 311.5 359.246 307.263 355.987 304.036C352.728 300.808 348.471 298.782 343.911 298.287C342.255 298.111 340.335 297.847 339.679 299.375" fill="#349F6E"/>
<path d="M362.176 331.607C362.046 331.564 361.923 331.505 361.808 331.431C361.461 331.249 361.134 331.032 360.832 330.783C359.746 329.837 358.876 328.67 358.28 327.359C357.864 326.559 357.4 325.687 356.952 324.727L355.552 321.639C355.054 320.504 354.482 319.403 353.84 318.343C353.136 317.22 352.35 316.15 351.488 315.143C349.712 313.055 347.808 311.255 346.152 309.543C344.661 308.04 343.304 306.409 342.096 304.671C341.283 303.491 340.614 302.218 340.104 300.879C339.944 300.399 339.824 300.031 339.76 299.767C339.714 299.638 339.687 299.504 339.68 299.367C339.68 299.367 339.856 299.895 340.24 300.831C340.792 302.134 341.484 303.374 342.304 304.527C343.533 306.236 344.9 307.841 346.392 309.327C348.048 311.031 349.968 312.831 351.76 314.927C352.642 315.949 353.445 317.038 354.16 318.183C354.799 319.261 355.371 320.378 355.872 321.527L357.24 324.623C357.672 325.583 358.12 326.463 358.52 327.271C359.078 328.567 359.894 329.735 360.92 330.703C361.68 331.327 362.192 331.575 362.176 331.607Z" fill="#263238"/>
<path d="M348.797 327.374C348.818 326.786 348.899 326.202 349.037 325.63C349.245 324.566 349.573 323.102 350.021 321.502C350.469 319.902 350.957 318.486 351.341 317.502C351.518 316.945 351.754 316.409 352.045 315.902C351.944 316.481 351.788 317.049 351.581 317.598C351.261 318.63 350.821 320.062 350.373 321.646C349.925 323.23 349.573 324.686 349.285 325.734C349.178 326.296 349.014 326.845 348.797 327.374Z" fill="#263238"/>
<path d="M361.678 314.887C361.059 314.798 360.449 314.656 359.854 314.463C358.742 314.175 357.198 313.775 355.478 313.391C353.758 313.007 352.198 312.703 351.062 312.487C350.443 312.408 349.832 312.271 349.238 312.079C349.863 312.072 350.487 312.123 351.102 312.231C352.254 312.383 353.838 312.647 355.558 313.031C357.278 313.415 358.822 313.831 359.926 314.215C360.534 314.371 361.122 314.596 361.678 314.887Z" fill="#263238"/>
<path d="M339.152 318.512C339.182 317.833 339.276 317.158 339.432 316.496C339.664 315.256 340.024 313.56 340.512 311.696C341 309.832 341.512 308.168 341.912 306.984C342.103 306.328 342.352 305.691 342.656 305.08C342.547 305.751 342.381 306.412 342.16 307.056C341.816 308.264 341.36 309.928 340.856 311.784C340.352 313.64 339.976 315.32 339.68 316.544C339.565 317.215 339.388 317.873 339.152 318.512Z" fill="#263238"/>
<path d="M355.736 303.999C355.736 304.095 352.488 303.839 348.536 303.415C344.584 302.991 341.336 302.567 341.336 302.471C341.336 302.375 344.584 302.631 348.536 303.055C352.488 303.479 355.744 303.903 355.736 303.999Z" fill="#263238"/>
<path d="M353.367 343.239C353.367 343.335 341.991 343.415 327.967 343.415C313.943 343.415 302.559 343.335 302.559 343.239C302.559 343.143 313.935 343.055 327.967 343.055C341.999 343.055 353.367 343.135 353.367 343.239Z" fill="#455A64"/>
<path d="M345.455 357.871C345.455 357.975 337.791 358.055 328.335 358.055C318.879 358.055 311.223 357.975 311.223 357.871C311.223 357.767 318.887 357.695 328.335 357.695C337.783 357.695 345.455 357.775 345.455 357.871Z" fill="#455A64"/>
<path d="M345.151 359.998C345.151 360.094 337.623 360.174 328.351 360.174C319.079 360.174 311.551 360.094 311.551 359.998C311.551 359.902 319.079 359.814 328.351 359.814C337.623 359.814 345.151 359.862 345.151 359.998Z" fill="#455A64"/>
<path d="M345.752 356.151C345.752 356.247 337.824 356.327 328.048 356.327C318.272 356.327 310.344 356.247 310.344 356.151C310.344 356.055 318.272 355.967 328.048 355.967C337.824 355.967 345.752 356.047 345.752 356.151Z" fill="#455A64"/>
<path d="M342.398 47.8968C342.398 48.0168 337.03 48.0808 330.398 48.0488C323.766 48.0168 318.398 47.8888 318.398 47.7768C318.398 47.6648 323.766 47.5928 330.398 47.6248C337.03 47.6568 342.398 47.7848 342.398 47.8968Z" fill="#263238"/>
<path d="M330.486 59.8242C330.374 59.8242 330.23 54.4642 330.158 47.8242C330.086 41.1842 330.158 35.8242 330.246 35.8242C330.334 35.8242 330.51 41.1842 330.574 47.8242C330.638 54.4642 330.606 59.8242 330.486 59.8242Z" fill="#263238"/>
<path d="M355.005 226.944C352.494 225.896 350.037 224.721 347.645 223.424C345.179 222.248 342.776 220.945 340.445 219.52C340.493 219.424 343.789 221 347.805 223.048C351.821 225.096 355.061 226.848 355.005 226.944Z" fill="#263238"/>
<path d="M344.141 230.559C345.149 228.029 346.289 225.554 347.557 223.143C348.694 220.68 349.957 218.277 351.341 215.943C350.329 218.472 349.189 220.947 347.925 223.359C346.786 225.822 345.523 228.225 344.141 230.559Z" fill="#263238"/>
<path d="M67.8383 170.617C67.8383 170.729 64.0463 172.353 59.2863 174.249C54.5263 176.145 50.6223 177.601 50.5823 177.497C50.5423 177.393 54.3663 175.761 59.1343 173.865C63.9023 171.969 67.7903 170.513 67.8383 170.617Z" fill="#263238"/>
<path d="M59.0061 165.416C59.0061 165.416 58.8701 165.184 58.5821 164.816C58.1742 164.307 57.6132 163.942 56.9821 163.776C56.4749 163.641 55.9401 163.65 55.4374 163.801C54.9347 163.952 54.4839 164.239 54.1352 164.632C53.7866 165.024 53.5538 165.506 53.463 166.023C53.3721 166.54 53.4268 167.072 53.6208 167.559C53.8147 168.047 54.1405 168.471 54.5616 168.785C54.9826 169.098 55.4825 169.288 56.0054 169.334C56.5283 169.38 57.0537 169.279 57.5228 169.044C57.9919 168.808 58.3863 168.447 58.6621 168C59.0107 167.445 59.168 166.79 59.1101 166.136C59.1101 165.672 58.9741 165.424 59.0061 165.408C59.1523 165.62 59.243 165.865 59.2701 166.12C59.3987 166.818 59.2738 167.539 58.9181 168.152C58.655 168.619 58.2775 169.01 57.8212 169.29C57.3649 169.57 56.8449 169.729 56.3101 169.752C55.6502 169.777 54.9989 169.596 54.4456 169.236C53.8923 168.876 53.4641 168.353 53.2196 167.739C52.9751 167.126 52.9264 166.452 53.0801 165.81C53.2338 165.168 53.5824 164.589 54.0781 164.152C54.4782 163.8 54.9614 163.556 55.4821 163.443C56.0028 163.33 56.5438 163.351 57.0541 163.504C57.7348 163.701 58.3223 164.135 58.7101 164.728C58.8618 164.931 58.9632 165.167 59.0061 165.416Z" fill="#263238"/>
<path d="M65.0051 180.464C64.9651 180.464 64.8691 180.232 64.5811 179.864C64.1756 179.352 63.6137 178.986 62.9811 178.824C62.5217 178.706 62.0404 178.704 61.5799 178.817C61.1193 178.93 60.6938 179.155 60.3411 179.472C59.9129 179.858 59.6132 180.366 59.4824 180.928C59.3515 181.49 59.3958 182.078 59.6093 182.614C59.8227 183.149 60.1951 183.607 60.6763 183.925C61.1575 184.243 61.7245 184.406 62.3011 184.392C62.7809 184.387 63.2519 184.263 63.6712 184.029C64.0904 183.796 64.4445 183.461 64.7011 183.056C65.046 182.498 65.203 181.845 65.1491 181.192C65.1491 180.728 65.0051 180.48 65.0451 180.464C65.1904 180.673 65.2811 180.915 65.3091 181.168C65.4351 181.869 65.3075 182.592 64.9491 183.208C64.6879 183.674 64.312 184.065 63.857 184.346C63.4019 184.626 62.8829 184.785 62.3491 184.808C61.6892 184.832 61.038 184.652 60.4847 184.291C59.9314 183.931 59.5031 183.408 59.2587 182.795C59.0142 182.181 58.9654 181.507 59.1191 180.865C59.2728 180.223 59.6214 179.644 60.1171 179.208C60.5195 178.86 61.0024 178.617 61.522 178.503C62.0416 178.388 62.5816 178.405 63.0931 178.552C63.7722 178.756 64.3582 179.192 64.7491 179.784C64.8879 179.987 64.9757 180.22 65.0051 180.464Z" fill="#263238"/>
<path d="M112.566 87.4565C112.566 87.4565 112.654 87.6725 112.806 88.0885C112.958 88.5045 113.182 89.1365 113.47 89.9365C114.046 91.5365 114.894 93.9365 115.974 97.0405L116.03 97.1845H115.87L105.598 95.7605H105.702C102.119 98.5756 97.8752 100.429 93.3744 101.145C92.1069 101.348 90.8261 101.457 89.5424 101.473C88.8864 101.473 88.2224 101.417 87.5504 101.401L86.5504 101.353C86.2144 101.353 85.8784 101.257 85.5424 101.209C82.7313 100.866 79.9975 100.054 77.4544 98.8085C74.7399 97.4936 72.2612 95.7393 70.1184 93.6165C67.2849 90.7874 65.1181 87.3619 63.776 83.5894C62.4339 79.8169 61.9502 75.7926 62.3603 71.8096C62.7703 67.8265 64.0637 63.9851 66.1462 60.5652C68.2287 57.1453 71.0479 54.233 74.3984 52.0405C76.7917 50.4674 79.4266 49.2972 82.1984 48.5765L83.2144 48.3125L83.7184 48.1845L84.2304 48.1045L86.2784 47.8005C86.9584 47.7365 87.6384 47.7205 88.3184 47.6805C88.9896 47.6325 89.6633 47.6325 90.3344 47.6805C90.9984 47.7365 91.6704 47.6805 92.3184 47.8245L94.2624 48.1285C94.9024 48.2325 95.5264 48.4325 96.1504 48.5845L97.0784 48.8245C97.3824 48.9205 97.6784 49.0405 97.9744 49.1445C104.551 51.4248 109.978 56.1806 113.102 62.4005C114.733 65.6417 115.691 69.1794 115.918 72.8005C116.222 77.2818 115.362 81.7655 113.422 85.8165C113.158 86.3525 112.95 86.7525 112.806 87.0085C112.662 87.2645 112.566 87.4085 112.566 87.4085C112.566 87.4085 112.622 87.2725 112.758 87.0005C112.894 86.7285 113.102 86.3205 113.342 85.7845C114.057 84.218 114.62 82.5865 115.022 80.9125C115.673 78.2663 115.894 75.5329 115.678 72.8165C115.343 67.6031 113.475 62.6051 110.308 58.4503C107.141 54.2956 102.817 51.1694 97.8784 49.4645C97.5824 49.3605 97.2944 49.2485 96.9904 49.1525L96.0784 48.9125C95.4624 48.7685 94.8464 48.5685 94.2144 48.4725L92.2944 48.1765C91.6544 48.0645 90.9984 48.0885 90.3344 48.0405C89.6741 47.9885 89.0107 47.9885 88.3504 48.0405C87.6864 48.0405 87.0144 48.0965 86.3424 48.1525L84.3264 48.4645L83.8224 48.5445L83.3184 48.6725L82.3184 48.9285C79.5905 49.6412 76.9986 50.798 74.6464 52.3525C70.7109 54.9142 67.5275 58.4764 65.4223 62.6738C63.3172 66.8713 62.366 71.553 62.6665 76.2391C62.9669 80.9253 64.508 85.4473 67.1319 89.3415C69.7558 93.2358 73.3681 96.3623 77.5984 98.4005C80.1116 99.6435 82.816 100.455 85.5984 100.801C85.9264 100.849 86.2544 100.913 86.5904 100.945L87.5824 100.993C88.2464 100.993 88.8944 101.089 89.5424 101.073C90.8098 101.063 92.0746 100.959 93.3264 100.761C97.7804 100.075 101.985 98.2632 105.542 95.4965H105.59H105.598L115.886 96.9685L115.782 97.0885C114.734 93.9925 113.926 91.5845 113.382 89.8885L112.766 88.0405C112.622 87.6725 112.566 87.4565 112.566 87.4565Z" fill="#263238"/>
<path d="M76 74.5132L79.5621 70.9247L86.4237 77.0753L99.8964 64L103.2 67.5886L85.9148 84L76 74.5132Z" fill="#349F6E"/>
</svg>
