<svg width="500" height="416" viewBox="0 0 500 416" fill="none" xmlns="http://www.w3.org/2000/svg">
<g clip-path="url(#clip0_4149_35412)">
<path d="M424.441 97.171C424.963 97.2442 425.47 97.403 425.941 97.641C427.047 98.181 427.974 99.0285 428.611 100.082C429.248 101.136 429.567 102.35 429.531 103.581C429.5 104.742 429.155 105.872 428.531 106.851C428.2 107.384 427.788 107.863 427.311 108.271C426.818 108.691 426.261 109.029 425.661 109.271C424.402 109.819 423.003 109.959 421.661 109.671C420.307 109.364 419.088 108.632 418.181 107.581C417.759 107.089 417.422 106.532 417.181 105.931C416.922 105.361 416.756 104.753 416.691 104.131C416.546 102.977 416.715 101.806 417.181 100.741C417.669 99.611 418.476 98.6474 419.502 97.9674C420.528 97.2874 421.73 96.9204 422.961 96.911C423.489 96.8928 424.016 96.9638 424.521 97.121C424.521 97.171 423.961 97.011 422.971 97.051C421.561 97.112 420.213 97.6436 419.141 98.561C418.404 99.184 417.825 99.972 417.451 100.861C417.026 101.881 416.878 102.995 417.021 104.091C417.094 104.679 417.256 105.252 417.501 105.791C417.748 106.362 418.086 106.888 418.501 107.351C419.352 108.356 420.507 109.058 421.791 109.351C423.068 109.634 424.402 109.504 425.601 108.981C426.173 108.737 426.7 108.399 427.161 107.981C427.618 107.6 428.01 107.148 428.321 106.641C428.926 105.716 429.272 104.645 429.321 103.541C429.367 102.355 429.076 101.181 428.481 100.154C427.886 99.1276 427.012 98.2908 425.961 97.741C425.001 97.311 424.431 97.221 424.441 97.171Z" fill="#E0E0E0"/>
<path d="M429.519 90.39C429.514 90.3167 429.514 90.2433 429.519 90.17C429.519 90 429.519 89.78 429.519 89.49C429.519 88.87 429.519 87.98 429.519 86.82L429.569 86.88L423.799 85.62L423.899 85.57L422.379 88.8V88.86H422.309C421.031 88.9155 419.767 89.1408 418.549 89.53H418.479H418.429L415.799 87H415.999L410.999 90.18V90L412.199 93.36V93.44L412.139 93.51C411.276 94.4503 410.54 95.4992 409.949 96.63V96.71H409.849H406.289L406.439 96.58C406.039 98.39 405.599 100.34 405.159 102.35L405.069 102.16L408.289 103.68H408.379V103.78C408.431 105.053 408.649 106.314 409.029 107.53V107.63L408.949 107.71L406.429 110.24V110.02L409.589 115.02L409.379 114.94L412.739 113.74H412.839L412.929 113.81C413.859 114.676 414.902 115.413 416.029 116C416.079 116.07 415.939 115.84 416.129 116.16V119.72L415.989 119.54L421.749 120.84L421.549 120.94C422.059 119.85 422.549 118.78 423.079 117.71L423.129 117.62H423.239C424.509 117.571 425.767 117.353 426.979 116.97H427.079L427.159 117.05L429.689 119.57H429.469L434.469 116.42L434.399 116.61L433.199 113.25V113.16L433.269 113.08C434.137 112.145 434.877 111.1 435.469 109.97V109.89H439.129L438.989 110.01C439.449 108.01 439.879 106.07 440.289 104.24L440.369 104.4L437.149 102.86H437.079V102.78C437.035 101.504 436.82 100.239 436.439 99.02V98.95V98.9C437.359 97.98 438.179 97.15 438.969 96.37V96.51L435.829 91.51H435.929L432.559 92.68C431.851 92.0242 431.085 91.4351 430.269 90.92L429.649 90.55L429.449 90.42L429.669 90.52L430.299 90.86C431.136 91.3597 431.92 91.9426 432.639 92.6H432.579L435.929 91.38H435.989V91.44L439.169 96.44L439.219 96.52L439.159 96.58L436.759 99V98.88C437.155 100.12 437.381 101.409 437.429 102.71L437.359 102.6L440.589 104.12L440.689 104.17V104.28C440.289 106.1 439.859 108.01 439.409 110.04V110.16H435.699L435.839 110.08C435.234 111.236 434.481 112.309 433.599 113.27V113.1C433.989 114.2 434.399 115.32 434.799 116.46L434.849 116.59L434.729 116.66L429.729 119.83L429.609 119.9L429.509 119.8L426.999 117.31H427.179C425.935 117.705 424.643 117.93 423.339 117.98L423.489 117.88C422.989 118.94 422.489 120.02 421.959 121.1L421.899 121.23H421.759L415.999 120H415.859V116.29C416.049 116.61 415.909 116.38 415.959 116.45C414.803 115.85 413.733 115.096 412.779 114.21H412.959L409.599 115.4L409.459 115.45L409.389 115.33L406.229 110.33L406.149 110.21L406.249 110.11L408.769 107.58V107.76C408.378 106.515 408.152 105.224 408.099 103.92L408.199 104.07L404.999 102.49L404.879 102.43V102.3L406.179 96.54V96.41H409.869L409.729 96.49C410.337 95.3394 411.093 94.2736 411.979 93.32V93.47L410.789 90.1V90L410.889 89.93L415.889 86.78H415.979L416.049 86.85L418.579 89.38H418.459C419.697 88.9926 420.982 88.7739 422.279 88.73L422.189 88.79C422.749 87.63 423.269 86.54 423.729 85.57V85.5H423.799L429.549 86.83H429.599C429.599 87.98 429.599 88.83 429.599 89.48C429.599 89.77 429.599 90 429.599 90.16C429.577 90.2381 429.55 90.3149 429.519 90.39Z" fill="#E0E0E0"/>
<path d="M464.461 378.45C464.461 378.45 464.461 378.07 464.461 377.36C464.461 376.65 464.461 375.58 464.461 374.2C464.461 371.43 464.461 367.36 464.411 362.14C464.411 351.71 464.361 336.66 464.331 318.2L464.491 318.36L360.361 318.41L360.581 318.2C360.581 339.52 360.581 359.89 360.581 378.45L360.381 378.25L435.281 378.34L456.791 378.4H462.531H464.001H464.511H462.561H456.871L435.401 378.46L360.401 378.55H360.211V378.36C360.211 359.8 360.211 339.43 360.211 318.11V318H360.431H464.561H464.731V318.17C464.731 336.68 464.671 351.75 464.651 362.17C464.651 367.38 464.651 371.43 464.651 374.17C464.651 375.53 464.651 376.58 464.651 377.29C464.651 378 464.461 378.45 464.461 378.45Z" fill="#E0E0E0"/>
<path d="M464.5 325.491C464.5 325.611 441.21 325.701 412.5 325.701C383.79 325.701 360.5 325.611 360.5 325.491C360.5 325.371 383.78 325.281 412.5 325.281C441.22 325.281 464.5 325.371 464.5 325.491Z" fill="#E0E0E0"/>
<path d="M401.51 335.43H369.34V367.6H401.51V335.43Z" fill="#F5F5F5"/>
<path d="M456.908 340.73C456.752 340.751 456.594 340.751 456.438 340.73H455.078L450.078 340.79L433.618 340.86L417.158 340.79L412.158 340.73H410.798C410.642 340.751 410.484 340.751 410.328 340.73C410.484 340.712 410.642 340.712 410.798 340.73H412.158L417.158 340.66L433.618 340.6L450.078 340.66L455.078 340.73H456.438C456.594 340.712 456.752 340.712 456.908 340.73Z" fill="#E0E0E0"/>
<path d="M457.938 347.92C457.778 347.938 457.617 347.938 457.458 347.92H456.068L450.968 347.99L434.148 348.05L417.318 347.99L412.218 347.92H410.828C410.668 347.938 410.507 347.938 410.348 347.92C410.505 347.882 410.666 347.865 410.828 347.87H412.218L417.318 347.81L434.148 347.74L450.968 347.81L456.068 347.87H457.458C457.619 347.865 457.781 347.882 457.938 347.92Z" fill="#E0E0E0"/>
<path d="M457.938 355.101C457.778 355.122 457.617 355.122 457.458 355.101H456.068L450.968 355.161L434.148 355.231L417.318 355.161L412.218 355.101H410.828C410.668 355.122 410.507 355.122 410.348 355.101C410.507 355.083 410.668 355.083 410.828 355.101H412.218L417.318 355.031L434.148 354.971L450.998 355.001L456.098 355.071H457.488C457.638 355.065 457.789 355.075 457.938 355.101Z" fill="#E0E0E0"/>
<path d="M457.938 362.289C457.778 362.307 457.617 362.307 457.458 362.289H456.068L450.968 362.359L434.148 362.419L417.318 362.359L412.218 362.289H410.828C410.668 362.307 410.507 362.307 410.348 362.289C410.505 362.251 410.666 362.234 410.828 362.239H412.218L417.318 362.179L434.148 362.109L450.968 362.179L456.068 362.239H457.458C457.619 362.234 457.781 362.251 457.938 362.289Z" fill="#E0E0E0"/>
<path d="M193.94 80.0743C210.842 63.1724 210.842 35.769 193.94 18.8671C177.038 1.96523 149.634 1.96523 132.732 18.8671C115.831 35.769 115.831 63.1724 132.732 80.0743C149.634 96.9762 177.038 96.9762 193.94 80.0743Z" fill="#F5F5F5"/>
<path d="M182.998 50.7996C182.492 50.8749 181.98 50.9084 181.468 50.8996L177.258 50.9796C173.688 50.9796 168.718 51.0696 163.108 51.0696H162.828V47.9996C162.828 41.7296 162.828 36.0596 162.908 31.9996C162.908 29.9996 162.978 28.3796 162.998 27.1296C162.983 26.5342 163.02 25.9386 163.108 25.3496C163.19 25.9393 163.227 26.5343 163.218 27.1296C163.218 28.3796 163.218 30.0196 163.308 31.9996C163.308 36.1096 163.388 41.7796 163.388 47.9996C163.388 48.9996 163.388 49.9096 163.388 50.8096L163.118 50.5296C168.728 50.5296 173.698 50.5296 177.268 50.6196L181.478 50.7096C181.986 50.6917 182.495 50.7218 182.998 50.7996Z" fill="#E0E0E0"/>
<path d="M163.231 13.3008C163.506 14.4899 163.6 15.7136 163.511 16.9308C163.599 18.1513 163.505 19.3782 163.231 20.5708C162.956 19.3782 162.862 18.1513 162.951 16.9308C162.861 15.7136 162.956 14.4899 163.231 13.3008Z" fill="#E0E0E0"/>
<path d="M183 19.1309C182.366 20.1595 181.577 21.0838 180.66 21.8709C179.876 22.7848 178.955 23.5709 177.93 24.2009C178.565 23.1764 179.354 22.2556 180.27 21.4709C181.058 20.559 181.978 19.7703 183 19.1309Z" fill="#E0E0E0"/>
<path d="M194.48 31.7305C193.564 32.5158 192.557 33.1874 191.48 33.7305C190.505 34.4287 189.451 35.0094 188.34 35.4605C189.143 34.5514 190.11 33.8017 191.19 33.2505C192.177 32.5343 193.295 32.018 194.48 31.7305Z" fill="#E0E0E0"/>
<path d="M201.238 50.42C199.588 50.7048 197.91 50.7988 196.238 50.7C194.566 50.7988 192.889 50.7048 191.238 50.42C192.889 50.1413 194.566 50.0473 196.238 50.14C197.91 50.0473 199.587 50.1413 201.238 50.42Z" fill="#E0E0E0"/>
<path d="M132.489 49.7603C130.945 50.0362 129.374 50.1302 127.809 50.0403C126.243 50.1295 124.673 50.0356 123.129 49.7603C124.673 49.485 126.243 49.391 127.809 49.4803C129.374 49.3904 130.945 49.4843 132.489 49.7603Z" fill="#E0E0E0"/>
<path d="M137.36 63.6797C136.303 64.8785 135.116 65.9552 133.82 66.8897C132.632 67.9569 131.327 68.8862 129.93 69.6597C130.98 68.4549 132.168 67.3775 133.47 66.4497C134.649 65.3723 135.956 64.4422 137.36 63.6797Z" fill="#E0E0E0"/>
<path d="M149.351 74.4395C148.652 75.8874 147.846 77.2813 146.941 78.6095C146.191 80.0328 145.339 81.3997 144.391 82.6994C144.847 81.14 145.545 79.662 146.461 78.3195C147.216 76.8838 148.192 75.5747 149.351 74.4395Z" fill="#E0E0E0"/>
<path d="M163.229 88.3203C162.95 86.6692 162.856 84.9922 162.949 83.3203C162.856 81.6484 162.95 79.9714 163.229 78.3203C163.507 79.9714 163.601 81.6484 163.509 83.3203C163.601 84.9922 163.507 86.6692 163.229 88.3203Z" fill="#E0E0E0"/>
<path d="M184.6 81.71C183.084 81.0208 181.7 80.0733 180.51 78.91C179.202 77.8859 178.076 76.6486 177.18 75.25C178.471 76.2617 179.706 77.3433 180.88 78.49C182.176 79.496 183.418 80.5709 184.6 81.71Z" fill="#E0E0E0"/>
<path d="M194.631 70.9102C193.417 70.0935 192.311 69.1257 191.341 68.0302C190.245 67.06 189.278 65.9545 188.461 64.7402C189.672 65.5614 190.774 66.5325 191.741 67.6302C192.839 68.5973 193.81 69.6994 194.631 70.9102Z" fill="#E0E0E0"/>
<path d="M136.9 36.4313C135.817 35.7436 134.84 34.9014 134 33.9313C133.03 33.0915 132.188 32.1145 131.5 31.0312C132.583 31.7189 133.56 32.5611 134.4 33.5312C135.37 34.371 136.212 35.348 136.9 36.4313Z" fill="#E0E0E0"/>
<path d="M149.28 23.3911C148.216 22.741 147.255 21.9354 146.43 21.0011C145.481 20.168 144.661 19.1972 144 18.1211C145.063 18.7882 146.02 19.6106 146.84 20.5611C147.79 21.3772 148.613 22.3311 149.28 23.3911Z" fill="#E0E0E0"/>
<g opacity="0.8">
<path fill-rule="evenodd" clip-rule="evenodd" d="M398.737 27.291C401.007 28.4742 403.112 29.9502 404.997 31.681L411.647 29.311L417.897 39.181L412.897 44.181C413.664 46.6116 414.102 49.1341 414.197 51.681L420.577 54.681L417.997 66.121H410.997C409.821 68.3835 408.348 70.4787 406.617 72.351L408.987 79.001L399.117 85.251L394.117 80.251C391.687 81.0213 389.165 81.4619 386.617 81.561L383.617 87.931L372.217 85.381V78.321C369.952 77.1451 367.857 75.6684 365.987 73.931L359.337 76.301L352.997 66.461L357.997 61.461C357.222 59.0447 356.772 56.5361 356.657 54.001L350.277 51.001L352.837 39.601H359.897C361.073 37.336 362.55 35.2404 364.287 33.371L361.917 26.721L371.787 20.471L376.787 25.471C379.221 24.7016 381.747 24.2611 384.297 24.161L387.297 17.791L398.697 20.351V27.351L398.737 27.291ZM388.687 40.711C386.271 40.1696 383.747 40.3565 381.437 41.2482C379.126 42.1399 377.132 43.6964 375.705 45.721C374.279 47.7457 373.484 50.1477 373.422 52.6236C373.36 55.0996 374.033 57.5384 375.356 59.632C376.679 61.7257 378.593 63.3802 380.856 64.3867C383.119 65.3932 385.63 65.7064 388.071 65.2868C390.512 64.8672 392.773 63.7337 394.571 62.0294C396.368 60.325 397.619 58.1263 398.167 55.711C398.534 54.1034 398.579 52.4394 398.3 50.8143C398.021 49.1893 397.424 47.6353 396.544 46.2416C395.663 44.8478 394.515 43.6418 393.167 42.6927C391.819 41.7436 390.297 41.0702 388.687 40.711Z" fill="#EBEBEB"/>
</g>
<path d="M63.6992 127.58H137.699C137.699 127.58 131.159 115.68 112.119 117.41C93.9392 119.07 93.0092 111.56 83.7592 110.63C74.5092 109.7 66.7792 116.8 63.6992 127.58Z" fill="#F5F5F5"/>
<path d="M223.801 262.071H283.671C283.671 262.071 278.381 252.441 262.971 253.841C248.251 255.181 247.501 249.101 239.971 248.351C232.441 247.601 226.291 253.341 223.801 262.071Z" fill="#F5F5F5"/>
<path d="M480.152 409.821C480.152 409.961 377.152 410.081 250.012 410.081C122.872 410.081 19.8516 410.001 19.8516 409.821C19.8516 409.641 122.852 409.561 250.012 409.561C377.172 409.561 480.152 409.681 480.152 409.821Z" fill="#263238"/>
<path d="M455.19 110.131H309.91V207.411H455.19V110.131Z" fill="white"/>
<path d="M455.188 207.4C455.188 207.4 455.188 206.79 455.188 205.63V200.5C455.188 196 455.188 189.39 455.128 180.94C455.128 164.03 455.068 139.74 455.018 110.13L455.228 110.33L309.958 110.39L310.218 110.13C310.218 144.78 310.218 177.73 310.218 207.4L309.978 207.16L414.648 207.28L444.548 207.34H452.498H454.558H452.558H444.648L414.798 207.4L309.978 207.52H309.738V207.28C309.738 177.61 309.738 144.66 309.738 110.01V109.74H310.008L455.278 109.8H455.488V110.01C455.488 139.68 455.408 164.01 455.378 180.94C455.378 189.38 455.378 195.94 455.328 200.46C455.328 202.69 455.328 204.4 455.328 205.56C455.328 206.72 455.188 207.4 455.188 207.4Z" fill="#349F6E"/>
<path d="M309.91 118.811C309.91 118.661 342.41 118.551 382.49 118.551C422.57 118.551 455.07 118.661 455.07 118.811C455.07 118.961 422.58 119.071 382.49 119.071C342.4 119.071 309.91 119.001 309.91 118.811Z" fill="#349F6E"/>
<g opacity="0.3">
<path d="M315.641 114.43C315.641 114.662 315.572 114.888 315.443 115.081C315.314 115.273 315.131 115.423 314.916 115.512C314.702 115.6 314.466 115.623 314.239 115.577C314.012 115.531 313.803 115.418 313.64 115.254C313.477 115.089 313.366 114.879 313.322 114.652C313.278 114.424 313.303 114.189 313.393 113.975C313.483 113.761 313.634 113.579 313.828 113.452C314.022 113.325 314.249 113.258 314.481 113.26C314.634 113.26 314.786 113.29 314.927 113.349C315.068 113.408 315.197 113.494 315.305 113.603C315.412 113.712 315.498 113.841 315.555 113.983C315.613 114.125 315.642 114.277 315.641 114.43Z" fill="#349F6E"/>
</g>
<g opacity="0.3">
<path d="M319.629 114.43C319.629 114.662 319.56 114.888 319.431 115.081C319.302 115.273 319.119 115.423 318.904 115.512C318.69 115.6 318.454 115.623 318.227 115.577C318 115.531 317.791 115.418 317.628 115.254C317.465 115.089 317.354 114.879 317.31 114.652C317.266 114.424 317.291 114.189 317.381 113.975C317.471 113.761 317.623 113.579 317.816 113.452C318.01 113.325 318.237 113.258 318.469 113.26C318.622 113.26 318.774 113.29 318.915 113.349C319.057 113.408 319.185 113.494 319.293 113.603C319.401 113.712 319.486 113.841 319.544 113.983C319.601 114.125 319.63 114.277 319.629 114.43Z" fill="#349F6E"/>
</g>
<g opacity="0.3">
<path d="M323.559 114.43C323.559 114.662 323.49 114.888 323.361 115.081C323.232 115.273 323.049 115.423 322.834 115.512C322.62 115.6 322.384 115.623 322.157 115.577C321.93 115.531 321.721 115.418 321.558 115.254C321.395 115.089 321.284 114.879 321.24 114.652C321.196 114.424 321.221 114.189 321.311 113.975C321.401 113.761 321.552 113.579 321.746 113.452C321.94 113.325 322.167 113.258 322.399 113.26C322.552 113.26 322.704 113.29 322.845 113.349C322.986 113.408 323.115 113.494 323.223 113.603C323.33 113.712 323.416 113.841 323.473 113.983C323.531 114.125 323.56 114.277 323.559 114.43Z" fill="#349F6E"/>
</g>
<path d="M361.148 128.951H322.398V167.701H361.148V128.951Z" fill="#349F6E"/>
<path d="M435.27 139.901C435.27 140.051 420.15 140.161 401.51 140.161C382.87 140.161 367.75 140.051 367.75 139.901C367.75 139.751 382.87 139.641 401.51 139.641C420.15 139.641 435.27 139.761 435.27 139.901Z" fill="#349F6E"/>
<path d="M435.27 147.11C435.27 147.25 420.15 147.37 401.51 147.37C382.87 147.37 367.75 147.25 367.75 147.11C367.75 146.97 382.87 146.85 401.51 146.85C420.15 146.85 435.27 147 435.27 147.11Z" fill="#349F6E"/>
<path d="M435.27 154.311C435.27 154.451 420.15 154.571 401.51 154.571C382.87 154.571 367.75 154.451 367.75 154.311C367.75 154.171 382.87 154.051 401.51 154.051C420.15 154.051 435.27 154.161 435.27 154.311Z" fill="#349F6E"/>
<path d="M407.66 161.51C407.141 161.591 406.615 161.625 406.09 161.61L401.81 161.69C398.2 161.74 393.21 161.77 387.71 161.77C382.21 161.77 377.21 161.77 373.6 161.69L369.32 161.61C368.795 161.625 368.269 161.591 367.75 161.51C368.269 161.429 368.795 161.395 369.32 161.41L373.6 161.33C377.21 161.28 382.2 161.25 387.71 161.25C393.22 161.25 398.2 161.25 401.81 161.33L406.09 161.41C406.615 161.395 407.141 161.429 407.66 161.51Z" fill="#349F6E"/>
<g opacity="0.3">
<path d="M343.03 180.77H324.82V198.98H343.03V180.77Z" fill="#349F6E"/>
</g>
<path d="M376.062 180.77H357.852V198.98H376.062V180.77Z" fill="#349F6E"/>
<path d="M409.089 180.77H390.879V198.98H409.089V180.77Z" fill="#349F6E"/>
<path d="M442.12 180.77H423.91V198.98H442.12V180.77Z" fill="#349F6E"/>
<g opacity="0.3">
<path d="M361.148 128.951H322.398V167.701H361.148V128.951Z" fill="white"/>
</g>
<g opacity="0.3">
<path d="M376.062 180.77H357.852V198.98H376.062V180.77Z" fill="white"/>
</g>
<g opacity="0.3">
<path d="M409.089 180.77H390.879V198.98H409.089V180.77Z" fill="white"/>
</g>
<g opacity="0.3">
<path d="M442.12 180.77H423.91V198.98H442.12V180.77Z" fill="white"/>
</g>
<path d="M173.631 145.17H44.2109V197.74H173.631V145.17Z" fill="white"/>
<path d="M173.63 197.74C173.63 197.74 173.63 197.42 173.63 196.8C173.63 196.18 173.63 195.27 173.63 194.07C173.63 191.67 173.63 188.15 173.63 183.61C173.63 174.54 173.63 161.41 173.55 145.17L173.69 145.31L44.28 145.37L44.49 145.17C44.49 163.58 44.49 181.35 44.49 197.74L44.29 197.54L137.08 197.63L164 197.69H171.21H173.07H171.25H164.09L137.22 197.74L44.29 197.83H44V145H44.21L173.62 145.07H173.77V145.21C173.77 161.49 173.71 174.64 173.69 183.74C173.69 188.26 173.69 191.74 173.69 194.17C173.69 195.35 173.69 196.25 173.69 196.87C173.69 197.49 173.63 197.74 173.63 197.74Z" fill="#349F6E"/>
<path d="M44.3398 152.261C44.3398 152.151 73.2699 152.051 108.94 152.051C144.61 152.051 173.56 152.151 173.56 152.261C173.56 152.371 144.63 152.461 108.94 152.461C73.2499 152.461 44.3398 152.371 44.3398 152.261Z" fill="#349F6E"/>
<g opacity="0.3">
<path d="M49.7589 149.09C49.7589 149.276 49.7038 149.458 49.6005 149.613C49.4972 149.767 49.3504 149.888 49.1786 149.959C49.0069 150.03 48.8179 150.049 48.6355 150.012C48.4532 149.976 48.2857 149.887 48.1542 149.755C48.0228 149.624 47.9332 149.456 47.897 149.274C47.8607 149.091 47.8793 148.902 47.9505 148.731C48.0216 148.559 48.1421 148.412 48.2967 148.309C48.4513 148.206 48.633 148.15 48.8189 148.15C49.0682 148.15 49.3073 148.249 49.4836 148.426C49.6599 148.602 49.7589 148.841 49.7589 149.09Z" fill="#349F6E"/>
</g>
<g opacity="0.3">
<path d="M53.0011 149.09C53.0011 149.276 52.946 149.458 52.8427 149.613C52.7394 149.767 52.5926 149.888 52.4208 149.959C52.2491 150.03 52.06 150.049 51.8777 150.012C51.6954 149.976 51.5279 149.887 51.3964 149.755C51.265 149.624 51.1754 149.456 51.1392 149.274C51.1029 149.091 51.1215 148.902 51.1926 148.731C51.2638 148.559 51.3843 148.412 51.5389 148.309C51.6934 148.206 51.8752 148.15 52.0611 148.15C52.3104 148.15 52.5495 148.249 52.7258 148.426C52.9021 148.602 53.0011 148.841 53.0011 149.09Z" fill="#349F6E"/>
</g>
<g opacity="0.3">
<path d="M56.1495 149.09C56.1495 149.276 56.0944 149.458 55.9911 149.613C55.8878 149.767 55.741 149.888 55.5693 149.959C55.3975 150.03 55.2085 150.049 55.0261 150.012C54.8438 149.976 54.6763 149.887 54.5448 149.755C54.4134 149.624 54.3239 149.456 54.2876 149.274C54.2513 149.091 54.2699 148.902 54.3411 148.731C54.4122 148.559 54.5327 148.412 54.6873 148.309C54.8419 148.206 55.0236 148.15 55.2095 148.15C55.4588 148.15 55.6979 148.249 55.8742 148.426C56.0505 148.602 56.1495 148.841 56.1495 149.09Z" fill="#349F6E"/>
</g>
<path d="M86.4709 160.801H55.2109V192.061H86.4709V160.801Z" fill="#349F6E"/>
<path d="M164.68 169.18C164.68 169.29 148.59 169.39 128.75 169.39C108.91 169.39 92.8203 169.29 92.8203 169.18C92.8203 169.07 108.91 168.98 128.75 168.98C148.59 168.98 164.68 169.07 164.68 169.18Z" fill="#349F6E"/>
<path d="M164.68 175.55C164.68 175.66 148.59 175.75 128.75 175.75C108.91 175.75 92.8203 175.66 92.8203 175.55C92.8203 175.44 108.91 175.34 128.75 175.34C148.59 175.34 164.68 175.44 164.68 175.55Z" fill="#349F6E"/>
<path d="M139.081 181.921C138.925 181.932 138.768 181.932 138.611 181.921H137.261L132.311 181.981L115.951 182.041L99.6012 181.981L94.6012 181.921H93.2513C93.0947 181.931 92.9378 181.931 92.7812 181.921C92.9371 181.898 93.0954 181.898 93.2513 181.921H94.6012L99.6012 181.851L115.951 181.791L132.311 181.851L137.261 181.921H138.611C138.767 181.897 138.925 181.897 139.081 181.921Z" fill="#349F6E"/>
<g opacity="0.3">
<path d="M86.4709 160.801H55.2109V192.061H86.4709V160.801Z" fill="#F5F5F5"/>
</g>
<path d="M268.728 79.1094C266.558 77.6594 263.578 78.5394 261.408 79.9894C259.238 81.4394 257.408 83.4194 254.958 84.3594C250.398 86.1294 244.408 84.0294 240.868 87.3594C238.618 89.4994 238.388 93.0194 236.668 95.6094C233.768 99.9694 226.808 101.609 226.218 106.809C225.868 109.809 228.268 112.749 231.218 113.599C232.708 113.949 234.256 113.975 235.757 113.675C237.258 113.374 238.677 112.755 239.918 111.859C242.918 109.859 245.228 106.859 248.608 105.719C251.988 104.579 256.338 105.529 259.068 103.119C261.798 100.709 261.388 96.2594 263.348 93.1794C264.526 91.6314 265.924 90.2637 267.498 89.1194C268.968 87.8494 270.368 86.2794 270.618 84.3494C270.868 82.4194 270.078 79.1294 268.748 79.0594" fill="#F5F5F5"/>
<path d="M212.378 291.559C212.508 291.489 212.908 291.889 213.288 292.459C213.668 293.029 213.878 293.569 213.758 293.649C213.638 293.729 213.238 293.329 212.848 292.749C212.458 292.169 212.258 291.639 212.378 291.559Z" fill="#263238"/>
<path d="M208.098 282.539C208.637 283.193 209.042 283.948 209.288 284.759C209.683 285.507 209.924 286.326 209.998 287.169C209.053 285.773 208.406 284.197 208.098 282.539Z" fill="#263238"/>
<path d="M205.777 272.82C206.418 274.38 206.727 276.055 206.687 277.74C206.288 276.994 206.046 276.174 205.977 275.33C205.742 274.516 205.674 273.662 205.777 272.82Z" fill="#263238"/>
<path d="M205.429 262.83C205.746 264.484 205.722 266.185 205.36 267.83C205.106 267.023 205.027 266.17 205.13 265.33C205.052 264.485 205.154 263.633 205.429 262.83Z" fill="#263238"/>
<path d="M207 253C207.081 253.843 206.989 254.694 206.73 255.5C206.63 256.34 206.365 257.153 205.95 257.89C205.87 257.047 205.962 256.196 206.22 255.39C206.322 254.55 206.587 253.738 207 253Z" fill="#263238"/>
<path d="M210.637 243.65C210.303 245.295 209.621 246.85 208.637 248.21C208.737 247.368 209.006 246.556 209.427 245.82C209.997 244.55 210.507 243.58 210.637 243.65Z" fill="#263238"/>
<path d="M216.147 235.309C215.87 236.111 215.435 236.849 214.867 237.479C214.417 238.194 213.845 238.823 213.177 239.339C213.037 239.249 213.617 238.279 214.447 237.169C215.277 236.059 215.997 235.219 216.147 235.309Z" fill="#263238"/>
<path d="M222.868 227.909C222.978 228.009 222.288 228.909 221.338 229.909C220.388 230.909 219.528 231.629 219.418 231.539C219.308 231.449 219.998 230.539 220.958 229.539C221.918 228.539 222.768 227.799 222.868 227.909Z" fill="#263238"/>
<path d="M229.91 220.789C230.02 220.889 229.31 221.789 228.34 222.789C227.37 223.789 226.5 224.489 226.4 224.389C226.3 224.289 227 223.389 227.97 222.389C228.94 221.389 229.81 220.689 229.91 220.789Z" fill="#263238"/>
<path d="M236.489 213.249C236.172 214.036 235.699 214.751 235.099 215.349C234.219 216.429 233.419 217.219 233.309 217.119C233.635 216.338 234.106 215.625 234.699 215.019C235.569 213.999 236.369 213.169 236.489 213.249Z" fill="#263238"/>
<path d="M241.587 204.67C241.497 205.518 241.21 206.333 240.747 207.05C240.429 207.842 239.933 208.551 239.297 209.12C239.491 208.297 239.829 207.515 240.297 206.81C240.603 206.029 241.039 205.305 241.587 204.67Z" fill="#263238"/>
<path d="M243.998 195C244.193 195.831 244.176 196.697 243.948 197.52C243.891 198.374 243.626 199.201 243.178 199.93C243.127 199.091 243.215 198.25 243.438 197.44C243.492 196.602 243.681 195.778 243.998 195Z" fill="#263238"/>
<path d="M243.28 185.07C243.723 185.8 243.978 186.628 244.02 187.48C244.225 188.311 244.225 189.179 244.02 190.01C243.705 189.229 243.523 188.401 243.48 187.56C243.279 186.747 243.211 185.906 243.28 185.07Z" fill="#263238"/>
<path d="M239.348 175.919C239.468 175.839 240.198 176.709 240.858 177.919C241.334 178.631 241.629 179.448 241.718 180.299C241.167 179.664 240.721 178.945 240.398 178.169C239.935 177.477 239.581 176.718 239.348 175.919Z" fill="#263238"/>
<path d="M232.377 168.82C233.192 169.076 233.934 169.526 234.537 170.13C235.607 171.03 236.307 171.93 236.207 172.03C236.107 172.13 235.207 171.41 234.207 170.53C233.207 169.65 232.287 168.94 232.377 168.82Z" fill="#263238"/>
<path d="M223.289 164.76C224.141 164.708 224.993 164.866 225.769 165.22C226.604 165.413 227.378 165.812 228.019 166.38C227.182 166.285 226.365 166.059 225.599 165.71C224.781 165.526 224 165.205 223.289 164.76Z" fill="#263238"/>
<path d="M213.348 164.309C214.113 163.928 214.963 163.749 215.818 163.789C216.666 163.664 217.533 163.754 218.338 164.049C217.525 164.261 216.686 164.348 215.848 164.309C215.019 164.44 214.176 164.44 213.348 164.309Z" fill="#263238"/>
<path d="M204.128 167.999C204.038 167.879 204.898 167.129 206.128 166.469C206.836 165.983 207.661 165.697 208.518 165.639C207.866 166.166 207.142 166.597 206.368 166.919C205.679 167.388 204.924 167.752 204.128 167.999Z" fill="#263238"/>
<path d="M197.258 175.18C197.475 174.351 197.898 173.591 198.488 172.97C199.338 171.86 200.218 171.13 200.318 171.23C200.418 171.33 199.728 172.23 198.898 173.29C198.068 174.35 197.378 175.25 197.258 175.18Z" fill="#263238"/>
<path d="M193.888 184.52C193.731 183.678 193.797 182.809 194.078 182C194.204 181.147 194.549 180.341 195.078 179.66C195.047 180.499 194.889 181.329 194.608 182.12C194.493 182.952 194.25 183.762 193.888 184.52Z" fill="#263238"/>
<path d="M195.079 194.37C194.549 193.689 194.204 192.883 194.079 192.03C193.791 191.222 193.722 190.353 193.879 189.51C194.225 190.273 194.464 191.081 194.588 191.91C194.87 192.702 195.035 193.53 195.079 194.37Z" fill="#263238"/>
<path d="M200.147 202.929C200.037 203.029 199.207 202.249 198.397 201.109C197.831 200.468 197.429 199.7 197.227 198.869C197.357 198.799 198.017 199.699 198.817 200.809C199.373 201.438 199.822 202.155 200.147 202.929Z" fill="#263238"/>
<path d="M207.508 209.679C206.701 209.408 205.965 208.957 205.358 208.359C204.268 207.489 203.518 206.639 203.618 206.529C204.382 206.885 205.078 207.368 205.678 207.959C206.748 208.819 207.598 209.559 207.508 209.679Z" fill="#263238"/>
<path d="M216.179 214.649C214.549 214.214 213.029 213.441 211.719 212.379C212.553 212.522 213.352 212.828 214.069 213.279C214.857 213.588 215.575 214.054 216.179 214.649Z" fill="#263238"/>
<path d="M225.698 217.68C224.849 217.777 223.99 217.674 223.188 217.38C222.343 217.254 221.541 216.929 220.848 216.43C221.69 216.442 222.525 216.594 223.318 216.88C224.152 217.003 224.958 217.274 225.698 217.68Z" fill="#263238"/>
<path d="M235.66 218.189C234.035 218.688 232.304 218.722 230.66 218.289C231.472 218.074 232.314 217.999 233.15 218.069C233.988 217.969 234.836 218.01 235.66 218.189Z" fill="#263238"/>
<path d="M245.278 215.619C243.904 216.618 242.274 217.204 240.578 217.309C241.283 216.849 242.061 216.511 242.878 216.309C243.633 215.944 244.445 215.71 245.278 215.619Z" fill="#263238"/>
<path d="M253.617 210.15C253.717 210.26 252.957 211.15 251.847 211.95C251.226 212.534 250.476 212.962 249.657 213.2C249.577 213.07 250.447 212.38 251.537 211.54C252.153 210.97 252.855 210.5 253.617 210.15Z" fill="#263238"/>
<path d="M260.129 202.589C259.898 203.409 259.477 204.163 258.899 204.789C258.069 205.909 257.239 206.679 257.129 206.589C257.019 206.499 257.669 205.589 258.489 204.479C259.309 203.369 259.999 202.509 260.129 202.589Z" fill="#263238"/>
<path d="M264.46 193.59C264.457 194.444 264.248 195.284 263.85 196.04C263.33 197.34 262.72 198.3 262.59 198.23C262.71 197.399 262.971 196.594 263.36 195.85C263.6 195.041 263.972 194.278 264.46 193.59Z" fill="#263238"/>
<path d="M266.397 183.799C266.614 185.48 266.38 187.189 265.717 188.749C265.689 187.074 265.919 185.404 266.397 183.799Z" fill="#263238"/>
<path d="M266.137 173.809C266.463 174.59 266.62 175.432 266.597 176.279C266.741 177.115 266.717 177.972 266.527 178.799C266.058 177.176 265.925 175.475 266.137 173.799V173.809Z" fill="#263238"/>
<path d="M263.998 164.049C264.462 164.76 264.772 165.561 264.908 166.399C265.209 167.19 265.345 168.034 265.308 168.879C264.85 168.165 264.54 167.366 264.398 166.529C264.097 165.738 263.961 164.894 263.998 164.049Z" fill="#263238"/>
<path d="M260.137 154.81C260.267 154.74 260.867 155.7 261.467 156.95C261.89 157.688 262.155 158.505 262.247 159.35C261.289 157.969 260.575 156.433 260.137 154.81Z" fill="#263238"/>
<path d="M255.219 146.099C255.349 146.019 256.009 146.929 256.709 148.099C257.195 148.786 257.535 149.565 257.709 150.389C257.086 149.826 256.58 149.146 256.219 148.389C255.74 147.697 255.401 146.919 255.219 146.099Z" fill="#263238"/>
<path d="M250.258 137.41C250.388 137.34 251.028 138.27 251.698 139.47C252.181 140.17 252.521 140.958 252.698 141.79C252.085 141.202 251.596 140.498 251.258 139.72C250.769 139.027 250.428 138.241 250.258 137.41Z" fill="#263238"/>
<path d="M246.348 128.209C247.253 129.633 247.849 131.23 248.098 132.899C247.568 132.234 247.187 131.463 246.978 130.639C246.605 129.88 246.39 129.053 246.348 128.209Z" fill="#263238"/>
<path d="M244.649 118.379C244.943 119.169 245.092 120.006 245.089 120.849C245.263 121.671 245.293 122.517 245.179 123.349C244.785 122.592 244.579 121.752 244.579 120.899C244.406 120.065 244.43 119.202 244.649 118.379Z" fill="#263238"/>
<path d="M245.477 108.43C245.556 109.267 245.496 110.112 245.297 110.93C245.261 111.773 245.075 112.602 244.747 113.38C244.553 112.547 244.553 111.682 244.747 110.85C244.796 109.997 245.046 109.168 245.477 108.43Z" fill="#263238"/>
<path d="M248.739 99C248.611 99.8336 248.341 100.639 247.939 101.38C247.691 102.185 247.309 102.942 246.809 103.62C247.021 101.933 247.688 100.336 248.739 99Z" fill="#263238"/>
<path d="M254.31 90.7103C254.42 90.8103 253.76 91.7104 252.92 92.8004C252.08 93.8904 251.37 94.8003 251.25 94.6703C251.487 93.8494 251.92 93.0981 252.51 92.4804C253.36 91.3804 254.21 90.6203 254.31 90.7103Z" fill="#263238"/>
<path d="M261.82 84.1289C261.9 84.2489 261.03 84.9589 259.95 85.7989C259.337 86.3771 258.631 86.8471 257.86 87.1889C257.76 87.0789 258.53 86.1889 259.63 85.3889C260.251 84.8029 261.002 84.3712 261.82 84.1289Z" fill="#263238"/>
<path d="M270.719 79.6094C270.045 80.1152 269.291 80.504 268.489 80.7594C267.756 81.1713 266.958 81.4521 266.129 81.5894C266.059 81.4594 267.009 80.8394 268.289 80.2894C269.031 79.8685 269.865 79.6351 270.719 79.6094Z" fill="#263238"/>
<path d="M278 77.7703C278 77.9103 277.49 78.1303 276.82 78.2503C276.15 78.3703 275.57 78.3703 275.54 78.2503C275.51 78.1303 276.04 77.8903 276.72 77.7603C277.4 77.6303 278 77.6303 278 77.7703Z" fill="#263238"/>
<path d="M298.379 48.3295C298.379 48.3295 310.119 39.9495 326.379 45.3295C326.379 45.3295 327.709 58.7895 314.679 69.4895" fill="#04242D"/>
<path d="M261.348 73.1892C261.848 73.9392 274.598 94.4292 274.598 94.4292L312.868 70.8492C314.447 69.8757 315.807 68.5848 316.862 67.0582C317.917 65.5316 318.643 63.8026 318.995 61.9807C319.346 60.1588 319.316 58.2838 318.905 56.4744C318.494 54.6649 317.712 52.9606 316.608 51.4692C314.557 48.701 311.517 46.83 308.122 46.2451C304.727 45.6603 301.237 46.4067 298.378 48.3292L261.348 73.1892Z" fill="#04242D"/>
<path d="M274.598 94.4302L273.738 108.85C273.738 108.85 298.538 96.8502 292.348 83.4902L274.598 94.4302Z" fill="#0B7F9D"/>
<path d="M279.078 61.2885C279.078 61.2885 262.258 53.8685 248.418 64.7485L261.348 73.1885L279.078 61.2885Z" fill="#0B7F9D"/>
<path d="M279 73.2002L255.07 88.2002C255.07 88.2002 255.89 90.7802 256.53 90.5602C257.17 90.3402 275.06 79.7602 280.89 76.3102C281.113 76.1776 281.305 75.9984 281.452 75.7849C281.599 75.5714 281.698 75.3286 281.743 75.0731C281.788 74.8177 281.777 74.5556 281.711 74.3048C281.644 74.0541 281.525 73.8205 281.36 73.6202C281.086 73.2744 280.694 73.0409 280.26 72.9636C279.825 72.8862 279.377 72.9704 279 73.2002Z" fill="#263238"/>
<path d="M308.472 63.607C309.441 59.489 306.888 55.3652 302.77 54.3963C298.652 53.4274 294.528 55.9802 293.559 60.0983C292.59 64.2163 295.143 68.3401 299.261 69.3091C303.379 70.278 307.503 67.7251 308.472 63.607Z" fill="#FAFAFA"/>
<path d="M308.668 61.8495C308.608 61.8495 308.668 61.1695 308.328 60.0095C307.881 58.3673 306.895 56.9231 305.528 55.9095C304.6 55.2127 303.521 54.7435 302.378 54.5395C301.071 54.3065 299.725 54.4239 298.478 54.8795C297.084 55.3731 295.871 56.2757 294.998 57.4695C294.062 58.7382 293.558 60.2732 293.558 61.8495C293.558 63.4259 294.062 64.9608 294.998 66.2295C295.862 67.4172 297.059 68.322 298.438 68.8295C299.685 69.2847 301.031 69.402 302.338 69.1695C303.481 68.9655 304.559 68.4963 305.488 67.7995C306.853 66.7838 307.838 65.3404 308.288 63.6995C308.598 62.5395 308.568 61.8495 308.628 61.8495C308.654 62.0152 308.654 62.1839 308.628 62.3495C308.625 62.8211 308.568 63.2909 308.458 63.7495C308.119 65.2057 307.366 66.5324 306.288 67.5689C305.211 68.6055 303.856 69.3073 302.388 69.5895C300.927 69.8755 299.415 69.7396 298.028 69.1977C296.641 68.6558 295.438 67.7304 294.558 66.5295C293.551 65.1768 293.008 63.5356 293.008 61.8495C293.008 60.1634 293.551 58.5222 294.558 57.1695C295.483 55.905 296.77 54.9498 298.248 54.4295C299.487 53.9805 300.82 53.8542 302.122 54.0624C303.423 54.2705 304.651 54.8064 305.688 55.6195C307.12 56.7002 308.126 58.251 308.528 59.9995C308.638 60.4582 308.695 60.9279 308.698 61.3995C308.71 61.5502 308.7 61.7019 308.668 61.8495Z" fill="#263238"/>
<path d="M317.998 67.0002C317.898 67.0002 317.788 65.5102 317.198 63.1802C316.849 61.8173 316.404 60.4807 315.868 59.1802C314.535 56.0055 312.653 53.0908 310.308 50.5702C309.347 49.5447 308.314 48.5889 307.218 47.7102C305.328 46.2202 304.018 45.5002 304.068 45.4102C304.401 45.5219 304.72 45.673 305.018 45.8602C305.385 46.0509 305.743 46.2612 306.088 46.4902C306.488 46.7602 306.958 47.0402 307.438 47.4202C308.587 48.266 309.661 49.2095 310.648 50.2402C313.091 52.7605 315.014 55.7371 316.308 59.0002C316.836 60.3267 317.255 61.6947 317.558 63.0901C317.708 63.6801 317.768 64.2302 317.848 64.7102C317.914 65.1174 317.958 65.528 317.978 65.9402C318.035 66.2907 318.042 66.6477 317.998 67.0002Z" fill="#263238"/>
<path d="M315.94 68.0588C315.84 68.0588 315.72 66.5488 315.12 64.1788C314.764 62.796 314.313 61.4395 313.77 60.1188C313.088 58.5084 312.275 56.9565 311.34 55.4788C310.387 54.0148 309.316 52.6303 308.14 51.3388C307.165 50.2882 306.115 49.309 305 48.4088C303.09 46.8788 301.76 46.1388 301.81 46.0488C302.161 46.1638 302.497 46.3217 302.81 46.5188C303.18 46.7135 303.537 46.9306 303.88 47.1688C304.29 47.4388 304.77 47.7388 305.25 48.1688C306.402 49.0259 307.486 49.9722 308.49 50.9988C309.71 52.2944 310.811 53.6967 311.78 55.1888C312.727 56.6949 313.54 58.2809 314.21 59.9288C314.745 61.2788 315.17 62.67 315.48 64.0888C315.63 64.6888 315.69 65.2488 315.77 65.7288C315.844 66.142 315.89 66.5596 315.91 66.9788C315.96 67.3366 315.97 67.6988 315.94 68.0588Z" fill="#263238"/>
<path d="M81.8401 386.001C80.9801 382.601 83.2302 379.201 85.7402 376.751C88.2502 374.301 91.2402 372.111 92.5602 368.861C94.6902 363.601 91.9002 356.751 95.5602 352.371C97.6801 349.791 101.48 348.951 103.36 346.191C104.236 344.669 104.82 342.997 105.08 341.261C107.124 332.504 111.482 324.457 117.7 317.961C118.088 325.771 116.36 333.541 112.7 340.451C111.23 343.211 109.43 345.901 108.94 348.991C108.12 353.991 110.94 359.181 109.64 364.101C108.19 369.721 101.85 373.461 101.51 379.251C101.23 384.161 105.51 388.481 105.13 393.381C104.867 395.463 104.109 397.452 102.92 399.181C99.0002 405.431 93.4302 409.741 85.0002 409.551L74.6602 409.851L81.8401 386.001Z" fill="#349F6E"/>
<g opacity="0.3">
<path d="M81.8401 386.001C80.9801 382.601 83.2302 379.201 85.7402 376.751C88.2502 374.301 91.2402 372.111 92.5602 368.861C94.6902 363.601 91.9002 356.751 95.5602 352.371C97.6801 349.791 101.48 348.951 103.36 346.191C104.236 344.669 104.82 342.997 105.08 341.261C107.124 332.504 111.482 324.457 117.7 317.961C118.088 325.771 116.36 333.541 112.7 340.451C111.23 343.211 109.43 345.901 108.94 348.991C108.12 353.991 110.94 359.181 109.64 364.101C108.19 369.721 101.85 373.461 101.51 379.251C101.23 384.161 105.51 388.481 105.13 393.381C104.867 395.463 104.109 397.452 102.92 399.181C99.0002 405.431 93.4302 409.741 85.0002 409.551L74.6602 409.851L81.8401 386.001Z" fill="black"/>
</g>
<path d="M72.5588 410.111C71.6116 410.254 70.6465 410.227 69.7088 410.031C68.5664 409.856 67.4442 409.568 66.3588 409.171C64.8617 408.637 63.463 407.86 62.2188 406.871C61.4726 406.265 60.8913 405.481 60.5288 404.591C60.2223 403.589 60.064 402.548 60.0588 401.501C60.0433 400.381 59.9699 399.263 59.8388 398.151C59.6438 396.97 59.2191 395.838 58.5888 394.821C57.3888 392.671 55.3688 390.641 54.7388 387.721C54.1088 384.801 54.5688 381.721 55.0688 378.671C55.5688 375.621 56.0688 372.191 54.8788 368.951C53.6888 365.711 51.5388 362.781 50.4288 359.131C49.3188 355.481 49.8688 351.491 49.6488 347.581C49.5917 345.597 49.1467 343.643 48.3388 341.831C47.5088 340.001 46.3388 338.271 45.4688 336.341C43.6588 332.431 43.3588 328.021 42.8788 323.691C42.6488 321.511 42.4088 319.301 42.1788 317.081C42.0367 314.841 41.6613 312.622 41.0588 310.461C40.3769 308.278 39.5655 306.137 38.6288 304.051C38.1416 302.969 37.7469 301.849 37.4488 300.701C37.2786 299.521 37.1718 298.332 37.1288 297.141C37.0309 294.753 37.138 292.36 37.4488 289.991C37.7388 287.611 38.1888 285.241 38.4488 282.851C38.4488 282.711 38.4488 282.571 38.4488 282.441L38.4988 281.971L38.9188 282.181C41.1077 283.306 43.0044 284.925 44.4588 286.911C45.8822 288.846 47.0236 290.974 47.8488 293.231C49.5488 297.681 50.1388 302.341 50.9888 306.781C51.8388 311.221 52.9088 315.611 55.1588 319.311C56.2888 321.161 57.6488 322.851 58.8388 324.651C60.1045 326.408 60.9683 328.422 61.3688 330.551C61.9488 334.931 59.5188 338.761 59.9988 342.631C60.2488 344.537 60.9035 346.368 61.9188 348.001C62.8488 349.661 63.9188 351.191 64.9788 352.741C66.0418 354.245 66.9625 355.845 67.7288 357.521C68.4605 359.164 68.8907 360.925 68.9988 362.721C69.2288 366.211 68.7188 369.511 68.9988 372.641C69.2653 375.614 70.1148 378.506 71.4988 381.151C72.7288 383.701 74.1088 386.011 75.2588 388.241C75.8328 389.316 76.3502 390.421 76.8088 391.551C77.222 392.606 77.5203 393.702 77.6988 394.821C77.9832 396.777 77.9832 398.764 77.6988 400.721C77.4128 403.453 76.3743 406.053 74.6988 408.231C74.4466 408.555 74.1655 408.857 73.8588 409.131C73.6544 409.346 73.4262 409.537 73.1788 409.701L72.5888 410.111C73.3255 409.518 73.996 408.847 74.5888 408.111C76.1938 405.93 77.1786 403.356 77.4388 400.661C77.6831 398.726 77.6494 396.766 77.3388 394.841C77.1529 393.745 76.8512 392.673 76.4388 391.641C76.0088 390.571 75.4388 389.491 74.8888 388.381C73.7188 386.171 72.3288 383.871 71.0688 381.301C69.6456 378.612 68.7655 375.669 68.4788 372.641C68.2188 369.451 68.7188 366.141 68.4788 362.731C68.3725 361.005 67.9594 359.312 67.2588 357.731C66.4971 356.088 65.5866 354.518 64.5388 353.041C63.5388 351.501 62.3988 349.961 61.4388 348.271C60.4044 346.562 59.7433 344.653 59.4988 342.671C59.0288 338.541 61.4388 334.671 60.8388 330.621C60.4444 328.589 59.6042 326.669 58.3788 325.001C57.2088 323.231 55.8388 321.541 54.6788 319.651C52.3588 315.841 51.2388 311.381 50.4088 306.911C49.5788 302.441 48.9588 297.831 47.2888 293.471C46.486 291.275 45.3748 289.204 43.9888 287.321C42.5957 285.422 40.7816 283.871 38.6888 282.791L39.1688 282.521L39.1188 282.941C38.8388 285.361 38.3988 287.731 38.1188 290.081C37.8082 292.417 37.7012 294.776 37.7988 297.131C37.8588 298.281 37.9288 299.491 38.0988 300.581C38.3951 301.685 38.7762 302.765 39.2388 303.811C40.1867 305.92 41.0081 308.084 41.6988 310.291C42.2999 312.483 42.6719 314.732 42.8088 317.001C43.0488 319.221 43.2788 321.431 43.5088 323.611C43.9788 327.961 44.2788 332.301 46.0188 336.071C46.8888 337.951 48.0188 339.681 48.8788 341.581C49.716 343.474 50.1779 345.512 50.2388 347.581C50.4388 351.581 49.8988 355.471 50.9588 359.011C52.0188 362.551 54.2488 365.471 55.3688 368.821C56.4888 372.171 56.0388 375.681 55.5288 378.771C55.0188 381.861 54.5288 384.911 55.1488 387.661C55.7688 390.411 57.6788 392.461 58.9088 394.661C59.5542 395.72 59.9857 396.895 60.1788 398.121C60.3074 399.246 60.3742 400.378 60.3788 401.511C60.3689 402.526 60.5104 403.537 60.7988 404.511C61.1396 405.361 61.6859 406.113 62.3888 406.701C63.5882 407.68 64.9393 408.457 66.3888 409.001C67.4562 409.414 68.5615 409.722 69.6888 409.921C70.3824 410.046 71.0843 410.12 71.7888 410.141C72.3088 410.101 72.5588 410.111 72.5588 410.111Z" fill="#263238"/>
<path d="M40.5899 288.15C40.636 288.249 40.6696 288.353 40.6898 288.46C40.7398 288.71 40.8199 289.01 40.9099 289.39C41.1099 290.21 41.3399 291.44 41.7199 292.98C42.0999 294.52 43.0499 296.25 43.8399 298.39C44.6299 300.53 45.4899 302.97 46.2499 305.73C47.0099 308.49 47.7098 311.56 48.4198 314.84C49.0239 318.362 50.1179 321.782 51.6698 325C52.5098 326.68 53.4499 328.39 54.1999 330.25C54.9318 332.162 55.4223 334.157 55.6599 336.19C56.1562 340.399 56.8739 344.578 57.8099 348.71C59.8099 357.19 61.8099 365.27 63.5199 372.63C65.2299 379.99 66.9398 386.57 68.3098 392.14C69.6798 397.71 70.7199 402.14 71.4799 405.3L72.3098 408.89C72.3898 409.27 72.4599 409.58 72.5099 409.83C72.5209 409.937 72.5209 410.044 72.5099 410.15C72.459 410.053 72.422 409.948 72.3999 409.84L72.1298 408.92C71.8998 408.06 71.5798 406.87 71.1298 405.36L67.7499 392.25C66.3499 386.69 64.6799 380.09 62.8299 372.78C60.9799 365.47 59.1099 357.34 57.0599 348.85C56.1486 344.687 55.4609 340.477 54.9999 336.24C54.7823 334.255 54.3118 332.306 53.5998 330.44C52.8798 328.63 51.9499 326.93 51.1099 325.23C49.5646 321.986 48.4775 318.544 47.8799 315C47.1899 311.71 46.5399 308.65 45.7998 305.9C45.0598 303.15 44.2799 300.68 43.4899 298.56C42.6999 296.44 41.8499 294.67 41.4899 293.08C41.1299 291.49 40.9499 290.29 40.7999 289.46C40.7299 289.08 40.6799 288.76 40.6399 288.51C40.6063 288.393 40.5894 288.272 40.5899 288.15Z" fill="#263238"/>
<path d="M70.7287 410.13C63.9987 406.08 62.1287 393.89 64.9887 386.57C67.8487 379.25 72.8187 372.57 73.6187 364.77C74.2387 358.77 72.3087 352.59 73.7387 346.77C75.6787 338.85 83.4487 332.77 83.4087 324.61C83.4087 320.04 80.8087 315.72 81.0387 311.15C81.3287 305.55 85.6487 301.15 88.3387 296.21C92.4587 288.68 92.7787 279.75 94.2187 271.29C95.6587 262.83 98.9387 253.77 106.469 249.65C107.539 256.85 109.409 261.79 108.759 271.53C108.519 275.02 104.419 281.7 103.819 289.36C103.469 293.94 103.209 298.53 102.909 303.12C102.609 307.71 102.289 312.12 100.669 316.29C99.4287 319.48 97.4387 322.37 96.5087 325.67C94.7587 331.88 96.9787 338.62 95.5087 344.91C94.3087 350.24 90.5887 354.81 89.7987 360.21C88.6987 367.81 93.5687 375.73 91.0087 382.97C89.7387 386.56 86.7687 389.43 85.9087 393.14C85.2387 396.02 85.9087 399.07 85.3287 401.96C84.3287 406.62 75.4287 410.19 70.6787 409.88" fill="#349F6E"/>
<path d="M104.568 256.73C104.582 256.867 104.582 257.004 104.568 257.14C104.568 257.44 104.478 257.83 104.408 258.32C104.248 259.32 104.068 260.88 103.708 262.85C103.348 264.82 102.278 267.06 101.448 269.74C100.618 272.42 99.6985 275.51 98.9184 278.98C98.1384 282.45 97.4684 286.27 96.7684 290.39C96.0684 294.51 95.2985 299 93.2285 303.29C92.2285 305.44 91.2285 307.6 90.3885 309.89C89.598 312.25 89.1042 314.699 88.9184 317.18C88.5133 322.454 87.8223 327.702 86.8484 332.9C84.7184 343.54 82.6985 353.68 80.8485 362.9L75.6885 387.34C74.1985 394.26 72.9885 399.87 72.1485 403.8C71.7185 405.71 71.3885 407.21 71.1485 408.27L70.8784 409.43C70.8506 409.564 70.8104 409.694 70.7585 409.82C70.7472 409.687 70.7472 409.554 70.7585 409.42C70.8185 409.12 70.8885 408.73 70.9685 408.24C71.1785 407.17 71.4685 405.67 71.8485 403.75C72.6385 399.81 73.7785 394.18 75.1785 387.24C76.5785 380.3 78.3085 371.97 80.1785 362.77L86.1785 332.77C87.143 327.59 87.834 322.363 88.2485 317.11C88.4407 314.576 88.9514 312.077 89.7684 309.67C90.5984 307.33 91.6885 305.16 92.6485 303.03C94.7085 298.81 95.4484 294.39 96.1984 290.28C96.9484 286.17 97.6184 282.28 98.4484 278.86C99.2784 275.44 100.168 272.3 101.078 269.62C101.988 266.94 103.018 264.71 103.428 262.78C103.838 260.85 104.058 259.31 104.258 258.29C104.348 257.8 104.428 257.42 104.478 257.12C104.498 256.988 104.528 256.858 104.568 256.73Z" fill="#263238"/>
<path d="M409.439 252.76H402.469V275.28H409.439V252.76Z" fill="#349F6E"/>
<path d="M422.267 243.49H415.297V275.27H422.267V243.49Z" fill="#349F6E"/>
<path d="M435.919 239.16H428.949V275.27H435.919V239.16Z" fill="#349F6E"/>
<path d="M449.579 234.6H442.609V275.28H449.579V234.6Z" fill="#349F6E"/>
<path d="M167.522 282C168.044 282.073 168.551 282.232 169.022 282.47C170.128 283.01 171.055 283.858 171.692 284.911C172.328 285.965 172.648 287.18 172.612 288.41C172.581 289.571 172.235 290.701 171.612 291.68C170.92 292.769 169.921 293.628 168.742 294.15C167.474 294.713 166.06 294.853 164.707 294.548C163.354 294.244 162.135 293.512 161.232 292.46C160.814 291.966 160.476 291.409 160.232 290.81C159.972 290.241 159.807 289.633 159.742 289.01C159.597 287.857 159.766 286.686 160.232 285.62C160.72 284.49 161.527 283.527 162.553 282.847C163.579 282.167 164.781 281.8 166.012 281.79C166.54 281.771 167.067 281.842 167.572 282C167.572 282 167.012 281.89 166.022 281.93C164.611 281.987 163.261 282.519 162.192 283.44C161.455 284.063 160.876 284.851 160.502 285.74C160.077 286.76 159.929 287.875 160.072 288.97C160.145 289.558 160.306 290.131 160.552 290.67C160.799 291.241 161.136 291.768 161.552 292.23C162.411 293.217 163.563 293.904 164.841 294.19C166.118 294.476 167.453 294.347 168.652 293.82C169.224 293.576 169.751 293.238 170.212 292.82C170.669 292.437 171.064 291.985 171.382 291.48C171.847 290.75 172.156 289.93 172.288 289.074C172.42 288.218 172.372 287.344 172.149 286.507C171.925 285.67 171.53 284.889 170.988 284.213C170.446 283.537 169.77 282.981 169.002 282.58C168.072 282.11 167.512 282 167.522 282Z" fill="#263238"/>
<path d="M172.599 275.19C172.594 275.117 172.594 275.043 172.599 274.97C172.599 274.8 172.599 274.58 172.599 274.29C172.599 273.67 172.599 272.78 172.599 271.62L172.649 271.68L166.879 270.42L166.979 270.37L165.459 273.6V273.66H165.389C164.111 273.716 162.847 273.941 161.629 274.33H161.559L161.509 274.28L158.969 271.77H158.999L153.999 274.95L154.059 274.78L155.259 278.14V278.22L155.199 278.29C154.336 279.23 153.6 280.279 153.009 281.41V281.49H152.999H149.439L149.589 281.36C149.189 283.17 148.749 285.12 148.309 287.12L148.219 286.93L151.439 288.46L151.529 288.51V288.61C151.585 289.883 151.804 291.143 152.179 292.36V292.46L152.099 292.54L149.579 295.07V294.85L152.739 299.85L152.529 299.77L155.889 298.57H155.999L156.079 298.64C157.009 299.506 158.052 300.243 159.179 300.83C159.229 300.9 159.089 300.67 159.279 300.99V304.55L159.139 304.37L164.899 305.67L164.699 305.77C165.209 304.68 165.699 303.61 166.229 302.54L166.279 302.45H166.389C167.659 302.402 168.917 302.183 170.129 301.8H170.239L170.309 301.87L172.839 304.4H172.619L177.619 301.25L177.549 301.44C177.139 300.3 176.749 299.18 176.349 298.08V297.99L176.419 297.91C177.287 296.975 178.027 295.93 178.619 294.8V294.72H182.279L182.139 294.84C182.599 292.84 183.029 290.9 183.439 289.07L183.519 289.23L180.299 287.69H180.229V287.61C180.186 286.334 179.97 285.069 179.589 283.85V283.78V283.73L182.119 281.2V281.34L178.979 276.34H179.079L175.709 277.51C175.001 276.854 174.235 276.265 173.419 275.75L172.799 275.38L172.599 275.25L172.819 275.35L173.449 275.69C174.284 276.189 175.067 276.768 175.789 277.42H175.729L179.079 276.2H179.139V276.26L182.319 281.26V281.33L182.259 281.4L179.749 283.93V283.81C180.145 285.05 180.371 286.339 180.419 287.64L180.349 287.53L183.579 289.05L183.679 289.1V289.21C183.279 291.03 182.849 292.94 182.399 294.97V295.09H178.709L178.849 295.01C178.247 296.165 177.494 297.234 176.609 298.19V298.03C176.999 299.13 177.409 300.25 177.809 301.39L177.859 301.52L177.739 301.59L172.739 304.75L172.619 304.83L172.519 304.73L169.989 302.21H170.169C168.925 302.605 167.633 302.83 166.329 302.88L166.479 302.78C165.979 303.84 165.479 304.92 164.949 306L164.889 306.13H164.749L158.989 304.84H158.849V301C159.039 301.32 158.849 301.09 158.949 301.16C157.793 300.56 156.723 299.806 155.769 298.92H155.949L152.589 300.11L152.449 300.16L152.379 300.04L149.219 295.04L149.139 294.92L149.239 294.82L151.759 292.29V292.47C151.368 291.225 151.142 289.934 151.089 288.63L151.189 288.77L147.999 287.29L147.879 287.23V287.1L149.179 281.34V281.21H152.999L152.869 281.29C153.47 280.138 154.223 279.071 155.109 278.12V278.27L153.919 274.9V274.79L154.019 274.73L159.019 271.58L159.109 271.53L159.189 271.6L161.709 274.13H161.589C162.827 273.743 164.112 273.524 165.409 273.48L165.319 273.54L166.869 270.32V270.25H166.939L172.689 271.58H172.739C172.739 272.73 172.739 273.58 172.739 274.23C172.739 274.52 172.739 274.75 172.739 274.91C172.699 275.007 172.652 275.1 172.599 275.19Z" fill="#263238"/>
<path fill-rule="evenodd" clip-rule="evenodd" d="M161.718 230.33C162.981 230.99 164.152 231.813 165.198 232.78L168.918 231.46L172.408 236.97L169.628 239.77C170.055 241.132 170.3 242.544 170.358 243.97L173.918 245.66L172.488 252H168.548C167.885 253.263 167.058 254.433 166.088 255.48L167.418 259.2L161.898 262.69L159.098 260C157.74 260.425 156.331 260.671 154.908 260.73L153.218 264.29L146.848 262.86V258.92C145.584 258.259 144.414 257.431 143.368 256.46L139.648 257.79L136.148 252.27L138.938 249.48C138.514 248.118 138.268 246.706 138.208 245.28L134.648 243.59L136.068 237.22H139.998C140.656 235.956 141.48 234.785 142.448 233.74L141.138 230L146.648 226.5L149.448 229.29C150.81 228.864 152.223 228.618 153.648 228.56L155.338 225L161.708 226.43V230.37L161.718 230.33ZM156.098 237.83C154.748 237.528 153.338 237.633 152.047 238.131C150.756 238.63 149.642 239.501 148.845 240.632C148.049 241.764 147.606 243.107 147.572 244.49C147.538 245.874 147.915 247.237 148.656 248.406C149.396 249.575 150.467 250.499 151.732 251.06C152.997 251.621 154.4 251.795 155.764 251.558C157.127 251.322 158.391 250.687 159.394 249.734C160.396 248.78 161.094 247.55 161.398 246.2C161.601 245.302 161.624 244.374 161.467 243.467C161.31 242.56 160.976 241.694 160.484 240.916C159.992 240.139 159.351 239.466 158.598 238.937C157.846 238.407 156.996 238.031 156.098 237.83Z" fill="#349F6E"/>
<g opacity="0.8">
<path fill-rule="evenodd" clip-rule="evenodd" d="M161.718 230.33C162.981 230.99 164.152 231.813 165.198 232.78L168.918 231.46L172.408 236.97L169.628 239.77C170.055 241.132 170.3 242.544 170.358 243.97L173.918 245.66L172.488 252H168.548C167.885 253.263 167.058 254.433 166.088 255.48L167.418 259.2L161.898 262.69L159.098 260C157.74 260.425 156.331 260.671 154.908 260.73L153.218 264.29L146.848 262.86V258.92C145.584 258.259 144.414 257.431 143.368 256.46L139.648 257.79L136.148 252.27L138.938 249.48C138.514 248.118 138.268 246.706 138.208 245.28L134.648 243.59L136.068 237.22H139.998C140.656 235.956 141.48 234.785 142.448 233.74L141.138 230L146.648 226.5L149.448 229.29C150.81 228.864 152.223 228.618 153.648 228.56L155.338 225L161.708 226.43V230.37L161.718 230.33ZM156.098 237.83C154.748 237.528 153.338 237.633 152.047 238.131C150.756 238.63 149.642 239.501 148.845 240.632C148.049 241.764 147.606 243.107 147.572 244.49C147.538 245.874 147.915 247.237 148.656 248.406C149.396 249.575 150.467 250.499 151.732 251.06C152.997 251.621 154.4 251.795 155.764 251.558C157.127 251.322 158.391 250.687 159.394 249.734C160.396 248.78 161.094 247.55 161.398 246.2C161.601 245.302 161.624 244.374 161.467 243.467C161.31 242.56 160.976 241.694 160.484 240.916C159.992 240.139 159.351 239.466 158.598 238.937C157.846 238.407 156.996 238.031 156.098 237.83Z" fill="white"/>
</g>
<path fill-rule="evenodd" clip-rule="evenodd" d="M138.68 267.87C139.406 268.253 140.079 268.731 140.68 269.29L142.85 268.52L144.85 271.73L143.23 273.36C143.48 274.151 143.624 274.972 143.66 275.8L145.73 276.8L145 280.5H142.7C142.315 281.226 141.838 281.898 141.28 282.5L142.05 284.66L138.83 286.66L137.21 285.04C136.415 285.286 135.591 285.427 134.76 285.46L133.76 287.54L130.05 286.7V284.41C129.322 284.026 128.649 283.545 128.05 282.98L125.88 283.75L123.88 280.54L125.5 278.91C125.254 278.119 125.112 277.299 125.08 276.47L123 275.47L123.83 271.76H126C126.389 271.036 126.87 270.363 127.43 269.76L126.66 267.6L129.87 265.6L131.5 267.23C132.29 266.976 133.111 266.831 133.94 266.8L134.94 264.73L138.65 265.56V267.86L138.68 267.87ZM135.41 272.23C134.623 272.052 133.8 272.111 133.046 272.401C132.292 272.69 131.641 273.197 131.176 273.856C130.71 274.516 130.45 275.299 130.43 276.106C130.409 276.913 130.629 277.708 131.06 278.39C131.492 279.073 132.116 279.612 132.854 279.939C133.592 280.267 134.411 280.368 135.206 280.229C136.002 280.091 136.739 279.72 137.323 279.163C137.908 278.606 138.314 277.888 138.49 277.1C138.726 276.046 138.534 274.942 137.957 274.029C137.379 273.116 136.463 272.469 135.41 272.23Z" fill="#349F6E"/>
<g opacity="0.4">
<path fill-rule="evenodd" clip-rule="evenodd" d="M138.68 267.87C139.406 268.253 140.079 268.731 140.68 269.29L142.85 268.52L144.85 271.73L143.23 273.36C143.48 274.151 143.624 274.972 143.66 275.8L145.73 276.8L145 280.5H142.7C142.315 281.226 141.838 281.898 141.28 282.5L142.05 284.66L138.83 286.66L137.21 285.04C136.415 285.286 135.591 285.427 134.76 285.46L133.76 287.54L130.05 286.7V284.41C129.322 284.026 128.649 283.545 128.05 282.98L125.88 283.75L123.88 280.54L125.5 278.91C125.254 278.119 125.112 277.299 125.08 276.47L123 275.47L123.83 271.76H126C126.389 271.036 126.87 270.363 127.43 269.76L126.66 267.6L129.87 265.6L131.5 267.23C132.29 266.976 133.111 266.831 133.94 266.8L134.94 264.73L138.65 265.56V267.86L138.68 267.87ZM135.41 272.23C134.623 272.052 133.8 272.111 133.046 272.401C132.292 272.69 131.641 273.197 131.176 273.856C130.71 274.516 130.45 275.299 130.43 276.106C130.409 276.913 130.629 277.708 131.06 278.39C131.492 279.073 132.116 279.612 132.854 279.939C133.592 280.267 134.411 280.368 135.206 280.229C136.002 280.091 136.739 279.72 137.323 279.163C137.908 278.606 138.314 277.888 138.49 277.1C138.726 276.046 138.534 274.942 137.957 274.029C137.379 273.116 136.463 272.469 135.41 272.23Z" fill="white"/>
</g>
<path d="M359.532 231.069C361.629 230.466 363.465 229.178 364.746 227.412C366.027 225.645 366.68 223.5 366.602 221.319C366.482 219.319 365.752 217.459 365.832 215.499C365.962 212.499 367.982 209.889 369.502 207.249C371.022 204.609 372.032 201.139 370.262 198.659C369.122 197.049 367.092 196.329 365.702 194.929C364.312 193.529 363.702 191.659 362.962 189.869C362.222 188.079 361.292 186.229 359.612 185.279C357.932 184.329 355.362 184.739 354.672 186.549" fill="#263238"/>
<path d="M341.371 181.739C344.371 179.829 345.091 175.419 343.461 172.269C341.831 169.119 338.391 167.199 334.891 166.629C332.345 166.242 329.743 166.462 327.297 167.272C324.852 168.082 322.633 169.458 320.821 171.289C318.891 173.289 317.321 175.879 314.701 176.789C312.401 177.599 309.851 176.869 307.431 177.189C305.818 177.481 304.29 178.13 302.959 179.088C301.628 180.047 300.529 181.291 299.741 182.729C298.192 185.622 297.262 188.807 297.011 192.079C296.661 195.079 296.421 198.329 294.361 200.499C292.301 202.669 289.151 203.069 286.651 204.579C284.349 206.097 282.731 208.455 282.144 211.149C281.557 213.844 282.048 216.661 283.511 218.999C284.511 220.439 285.931 221.769 286.041 223.519C286.151 225.269 285.121 226.519 284.631 228.079C284.379 229.065 284.341 230.094 284.52 231.096C284.699 232.098 285.091 233.05 285.669 233.888C286.247 234.725 286.998 235.43 287.871 235.952C288.745 236.475 289.72 236.805 290.731 236.919C292.811 237.039 295.031 236.229 296.901 237.159C298.771 238.089 299.441 240.319 300.621 242.019C301.84 243.659 303.583 244.831 305.561 245.34C307.539 245.85 309.632 245.666 311.491 244.819C313.021 244.069 314.491 242.819 316.161 242.949C317.831 243.079 319.161 244.509 320.861 244.829C323.051 245.249 325.121 243.639 326.421 241.829C327.721 240.019 328.631 237.889 330.291 236.409C332.471 234.469 335.531 233.999 338.291 233.049C341.341 231.995 344.129 230.298 346.467 228.074C348.805 225.85 350.639 223.149 351.844 220.156C353.048 217.162 353.597 213.945 353.451 210.721C353.306 207.497 352.471 204.342 351.001 201.469" fill="#263238"/>
<path d="M347.999 185.669C349.191 185.799 350.291 186.371 351.082 187.273C351.873 188.175 352.296 189.34 352.269 190.539L349.409 255.209C349.289 262.849 338.129 267.139 329.949 266.949C321.689 266.759 321.429 262.709 321.319 255.439C321.149 243.299 321.169 238.739 321.159 238.809C321.149 238.879 310.729 237.059 308.599 223.439C307.539 216.659 307.899 205.559 308.489 196.489C309.029 188.319 314.489 178.309 322.599 179.189L347.999 185.669Z" fill="#FFBE9D"/>
<path d="M311.441 205.3C311.438 205.755 311.612 206.193 311.925 206.523C312.238 206.853 312.667 207.049 313.121 207.07C313.343 207.088 313.566 207.061 313.778 206.991C313.989 206.921 314.184 206.81 314.352 206.664C314.52 206.517 314.656 206.339 314.754 206.139C314.852 205.939 314.909 205.722 314.921 205.5C314.93 205.045 314.759 204.605 314.447 204.274C314.135 203.944 313.706 203.748 313.251 203.73C313.029 203.712 312.805 203.739 312.594 203.809C312.382 203.878 312.186 203.989 312.017 204.136C311.849 204.282 311.711 204.46 311.612 204.66C311.513 204.86 311.455 205.077 311.441 205.3Z" fill="#263238"/>
<path d="M310.841 202.27C311.061 202.5 312.381 201.52 314.261 201.53C316.141 201.54 317.511 202.48 317.721 202.25C317.931 202.02 317.601 201.74 317.001 201.3C316.189 200.734 315.221 200.433 314.231 200.44C313.255 200.432 312.302 200.736 311.511 201.31C310.931 201.75 310.731 202.17 310.841 202.27Z" fill="#263238"/>
<path d="M330.172 205.3C330.169 205.755 330.342 206.193 330.655 206.523C330.969 206.853 331.397 207.049 331.852 207.07C332.074 207.088 332.297 207.061 332.508 206.991C332.719 206.921 332.915 206.81 333.082 206.664C333.25 206.517 333.387 206.339 333.485 206.139C333.582 205.939 333.639 205.722 333.652 205.5C333.66 205.043 333.488 204.602 333.174 204.271C332.86 203.94 332.428 203.746 331.972 203.73C331.75 203.712 331.527 203.739 331.316 203.809C331.104 203.879 330.909 203.99 330.741 204.136C330.574 204.282 330.437 204.461 330.339 204.66C330.241 204.86 330.185 205.078 330.172 205.3Z" fill="#263238"/>
<path d="M329.31 202.658C329.53 202.888 330.85 201.908 332.73 201.918C334.61 201.928 335.98 202.918 336.19 202.638C336.4 202.358 336.07 202.128 335.47 201.688C334.658 201.122 333.69 200.822 332.7 200.828C331.725 200.825 330.773 201.129 329.98 201.698C329.4 202.148 329.2 202.558 329.31 202.658Z" fill="#263238"/>
<path d="M322.462 216.579C321.489 216.269 320.481 216.081 319.462 216.019C318.982 215.969 318.522 215.869 318.462 215.549C318.423 215.053 318.538 214.557 318.792 214.129C319.242 212.969 319.722 211.749 320.212 210.479C322.212 205.279 323.632 200.999 323.422 200.929C323.212 200.859 321.422 204.999 319.422 210.189C318.952 211.479 318.492 212.699 318.062 213.869C317.754 214.444 317.662 215.111 317.802 215.749C317.871 215.918 317.978 216.07 318.115 216.191C318.252 216.312 318.415 216.401 318.592 216.449C318.859 216.523 319.135 216.563 319.412 216.569C320.424 216.698 321.449 216.701 322.462 216.579Z" fill="#263238"/>
<path d="M321.109 238.81C327.52 238.925 333.838 237.26 339.359 234C339.359 234 334.739 243.6 321.109 242.29V238.81Z" fill="#EB996E"/>
<path d="M328 217.889C327.69 217.889 327.68 219.889 325.93 221.359C324.18 222.829 322.01 222.569 322 222.859C322 222.979 322.48 223.249 323.4 223.279C324.594 223.303 325.758 222.898 326.68 222.139C327.571 221.417 328.145 220.377 328.28 219.239C328.35 218.389 328.12 217.879 328 217.889Z" fill="#263238"/>
<path d="M328.471 199.37C328.651 199.88 330.531 199.64 332.731 199.91C334.931 200.18 336.731 200.79 337.011 200.33C337.151 200.11 336.841 199.63 336.121 199.13C335.161 198.525 334.077 198.146 332.949 198.02C331.822 197.893 330.681 198.023 329.611 198.4C328.801 198.72 328.391 199.13 328.471 199.37Z" fill="#263238"/>
<path d="M311.542 196.83C311.872 197.26 313.172 196.83 314.722 196.83C316.272 196.83 317.602 197.12 317.902 196.68C318.042 196.46 317.832 196.03 317.252 195.63C316.481 195.14 315.581 194.893 314.669 194.92C313.756 194.947 312.872 195.246 312.132 195.78C311.582 196.18 311.402 196.62 311.542 196.83Z" fill="#263238"/>
<path d="M339 181.239C340.551 180.153 342.316 179.412 344.178 179.067C346.039 178.722 347.953 178.781 349.79 179.239C353.42 180.239 356.43 183.559 356.56 187.239C356.64 189.639 355.56 192.239 356.67 194.369C357.78 196.499 360.18 197.269 361.96 198.769C363.324 199.961 364.25 201.576 364.591 203.355C364.931 205.135 364.667 206.977 363.84 208.589C362.35 211.319 359.23 213.319 358.97 216.399C358.72 219.299 361.16 221.749 361.76 224.599C362.41 227.739 360.67 230.989 358.18 233.079C355.69 235.169 352.53 236.319 349.45 237.419C347.05 238.289 344.45 239.169 341.98 238.599C340.521 238.207 339.211 237.392 338.214 236.257C337.217 235.121 336.579 233.716 336.38 232.219C336.231 230.726 336.407 229.218 336.896 227.799C337.384 226.38 338.174 225.084 339.21 223.999C340.96 222.069 343.42 220.439 343.84 217.889C344.49 213.889 339.77 210.679 340.06 206.679C340.21 204.619 341.67 202.909 342.88 201.209C344.09 199.509 345.15 197.379 344.4 195.449C343.4 192.929 340.13 192.269 338.13 190.449C337.306 189.673 336.713 188.683 336.418 187.59C336.123 186.497 336.138 185.344 336.46 184.259C336.824 183.175 337.476 182.21 338.346 181.469C339.216 180.727 340.272 180.236 341.4 180.049" fill="#263238"/>
<path d="M340.47 178.169C340.477 179.539 340.181 180.893 339.604 182.135C339.027 183.377 338.184 184.477 337.133 185.355C336.082 186.234 334.851 186.87 333.526 187.218C332.202 187.566 330.817 187.618 329.47 187.369C327.39 186.989 325.11 185.939 323.31 187.049C321.51 188.159 321.31 191.049 319.66 192.519C317.26 194.609 313.45 192.649 310.4 193.519C308.05 194.219 306.58 196.459 305.01 198.359C303.44 200.259 301.11 202.049 298.75 201.359C298.821 199.237 299.136 197.129 299.69 195.079C300.253 193.017 301.511 191.212 303.25 189.969C304.279 189.434 305.28 188.846 306.25 188.209C308.25 186.639 308.66 183.889 309.86 181.689C310.654 180.273 311.773 179.066 313.126 178.169C314.479 177.272 316.027 176.71 317.64 176.529C320.32 176.259 323.08 177.059 325.64 176.399C327.57 175.919 329.26 174.669 331.21 174.289C335.02 173.569 338.56 176.289 341.32 179.019" fill="#263238"/>
<path d="M365.34 210.718C365.59 210.235 365.698 209.69 365.65 209.148C365.527 208.421 365.205 207.741 364.719 207.185C364.234 206.629 363.604 206.219 362.9 205.998C361.922 205.652 360.919 205.382 359.9 205.188C358.683 204.968 357.528 204.49 356.51 203.788C355.966 203.349 355.527 202.795 355.222 202.165C354.918 201.536 354.757 200.847 354.75 200.148C354.735 198.719 354.805 197.29 354.96 195.868C354.999 195.166 354.963 194.462 354.85 193.768C354.719 193.12 354.445 192.509 354.05 191.978C353.154 191.057 352.018 190.405 350.77 190.098C349.599 189.763 348.477 189.279 347.43 188.658C346.519 188.112 345.69 187.439 344.97 186.658C343.917 185.539 343.101 184.22 342.57 182.778C342.418 182.393 342.301 181.995 342.22 181.588C342.16 181.308 342.14 181.168 342.16 181.158C342.18 181.148 342.34 181.728 342.75 182.708C343.486 184.416 344.607 185.932 346.023 187.137C347.44 188.342 349.116 189.205 350.92 189.658C352.26 189.975 353.482 190.669 354.44 191.658C354.891 192.248 355.206 192.932 355.36 193.658C355.48 194.392 355.52 195.136 355.48 195.878C355.33 197.283 355.257 198.695 355.26 200.108C355.259 200.739 355.397 201.362 355.665 201.932C355.933 202.503 356.324 203.007 356.81 203.408C357.768 204.074 358.855 204.534 360 204.758C361.022 204.975 362.025 205.273 363 205.648C363.839 205.969 364.573 206.516 365.12 207.228C365.517 207.777 365.756 208.424 365.81 209.098C365.836 209.526 365.75 209.954 365.56 210.338C365.47 210.618 365.35 210.728 365.34 210.718Z" fill="#455A64"/>
<path d="M285.152 219.219L284.922 219.109C284.716 218.979 284.541 218.805 284.412 218.599C284.223 218.164 284.149 217.688 284.198 217.217C284.247 216.746 284.417 216.295 284.692 215.909C285.032 215.31 285.539 214.823 286.152 214.509C286.862 214.156 287.593 213.849 288.342 213.589C289.182 213.308 289.96 212.866 290.632 212.289C291.313 211.577 291.769 210.679 291.942 209.709C292.162 208.709 292.232 207.569 292.422 206.409C292.565 205.164 293.03 203.978 293.772 202.969C295.352 200.889 297.952 199.779 299.892 197.819C300.86 196.788 301.588 195.555 302.022 194.209C302.484 192.788 302.819 191.329 303.022 189.849C303.442 186.849 303.872 183.509 305.882 180.769C306.862 179.392 308.333 178.443 309.992 178.119C311.567 177.894 313.169 177.931 314.732 178.229C316.191 178.511 317.68 178.599 319.162 178.489C320.556 178.327 321.843 177.662 322.782 176.619C324.642 174.619 325.702 171.919 327.992 170.539C329.012 169.916 330.149 169.511 331.333 169.347C332.517 169.184 333.721 169.266 334.872 169.589C336.778 170.131 338.399 171.394 339.392 173.109C340.142 174.383 340.549 175.83 340.572 177.309C340.599 178.234 340.453 179.157 340.142 180.029C340.038 180.336 339.9 180.631 339.732 180.909C339.732 180.909 339.852 180.599 340.042 179.999C340.303 179.131 340.415 178.224 340.372 177.319C340.315 175.884 339.895 174.487 339.152 173.259C338.174 171.631 336.605 170.445 334.772 169.949C333.67 169.658 332.52 169.597 331.393 169.769C330.266 169.941 329.187 170.342 328.222 170.949C327.174 171.669 326.28 172.59 325.592 173.659C324.846 174.822 324.025 175.934 323.132 176.989C322.63 177.536 322.042 177.999 321.392 178.359C320.713 178.706 319.979 178.932 319.222 179.029C317.698 179.145 316.164 179.061 314.662 178.779C313.155 178.489 311.612 178.448 310.092 178.659C308.562 178.968 307.207 179.848 306.302 181.119C305.391 182.408 304.729 183.856 304.352 185.389C303.991 186.899 303.714 188.428 303.522 189.969C303.324 191.476 302.989 192.962 302.522 194.409C302.063 195.823 301.29 197.115 300.262 198.189C298.212 200.189 295.642 201.309 294.142 203.279C293.439 204.226 292.992 205.338 292.842 206.509C292.652 207.649 292.572 208.769 292.322 209.829C292.133 210.868 291.63 211.824 290.882 212.569C290.175 213.167 289.355 213.619 288.472 213.899C287.728 214.143 287 214.434 286.292 214.769C285.714 215.055 285.229 215.499 284.892 216.049C284.627 216.409 284.455 216.83 284.392 217.273C284.329 217.717 284.377 218.169 284.532 218.589C284.697 218.836 284.907 219.05 285.152 219.219Z" fill="#455A64"/>
<path d="M251.74 312.998L275.89 310.788C275.89 310.788 290.75 271.638 309.07 262.148L320.94 282.878L295.53 330.608H245.93L251.74 312.998Z" fill="#0B7F9D"/>
<path d="M261.281 323.999C262.474 321.305 263.992 318.766 265.801 316.439C264.592 319.126 263.075 321.663 261.281 323.999Z" fill="#FAFAFA"/>
<path d="M278.391 323.529C276.294 321.477 274.448 319.185 272.891 316.699C274.007 317.654 274.998 318.746 275.841 319.949C276.826 321.04 277.682 322.241 278.391 323.529Z" fill="#FAFAFA"/>
<path d="M281.362 314.559C281.015 312.46 281.015 310.318 281.362 308.219C281.708 310.318 281.708 312.46 281.362 314.559Z" fill="#FAFAFA"/>
<path d="M272.861 328.549C272.017 328.314 271.231 327.909 270.551 327.359C269.351 326.569 268.451 325.839 268.551 325.719C269.391 325.965 270.176 326.373 270.861 326.919C272.001 327.699 272.941 328.429 272.861 328.549Z" fill="#FAFAFA"/>
<path d="M286.732 292.568C286.336 294.078 285.776 295.54 285.062 296.928C284.504 298.387 283.786 299.778 282.922 301.078C283.306 299.566 283.863 298.103 284.582 296.718C285.145 295.261 285.866 293.869 286.732 292.568Z" fill="#FAFAFA"/>
<path d="M296.521 276.709C296.601 276.819 295.741 277.619 294.591 278.499C293.937 279.097 293.173 279.562 292.341 279.869C292.261 279.749 293.121 278.949 294.271 278.079C294.922 277.477 295.687 277.011 296.521 276.709Z" fill="#FAFAFA"/>
<path d="M332.641 327.468L345.101 277.158C346.143 272.937 348.753 269.272 352.402 266.907C356.05 264.542 360.462 263.656 364.741 264.428C369.136 265.224 373.047 267.704 375.64 271.341C378.232 274.978 379.302 279.484 378.621 283.898L371.001 333.068C370.091 338.101 367.635 342.725 363.975 346.296C360.316 349.868 355.634 352.211 350.581 352.998L340.681 354.538L332.641 327.468Z" fill="#074F62"/>
<path d="M371.899 261.179C370.6 260.115 369.08 259.353 367.449 258.949C365.686 258.539 363.853 258.539 362.089 258.949C359.943 259.491 357.948 260.517 356.259 261.949C352.609 265.009 350.629 268.949 349.259 271.769C348.589 273.179 348.079 274.339 347.719 275.139C347.554 275.566 347.349 275.978 347.109 276.369C347.207 275.923 347.348 275.488 347.529 275.069C347.839 274.239 348.289 273.069 348.919 271.609C349.658 269.915 350.513 268.274 351.479 266.699C352.679 264.762 354.174 263.025 355.909 261.549C357.653 260.05 359.726 258.985 361.959 258.439C363.792 258.021 365.698 258.045 367.519 258.509C368.743 258.823 369.892 259.377 370.899 260.139C371.168 260.348 371.419 260.578 371.649 260.829C371.829 261.079 371.909 261.169 371.899 261.179Z" fill="#263238"/>
<path d="M301.33 272.5C301.231 272.669 301.114 272.827 300.98 272.97L299.92 274.25C298.99 275.36 297.68 276.98 296.18 279.07C292.193 284.478 289.303 290.613 287.67 297.13C285.94 304.8 285.85 311.98 285.56 317.13C285.43 319.71 285.31 321.8 285.2 323.24C285.14 323.92 285.09 324.47 285.05 324.9C285.038 325.095 285.011 325.289 284.97 325.48C284.942 325.288 284.942 325.092 284.97 324.9C284.97 324.46 284.97 323.9 285.02 323.23C285.02 321.72 285.13 319.65 285.21 317.12C285.41 311.98 285.43 304.77 287.21 297.02C288.845 290.439 291.809 284.262 295.92 278.87C297.47 276.79 298.83 275.19 299.8 274.12C300.28 273.58 300.68 273.18 300.94 272.91C301.058 272.762 301.188 272.625 301.33 272.5Z" fill="#263238"/>
<path d="M381.151 272.389C379.781 263.389 374.821 261.239 369.671 258.439C367.991 257.519 359.881 255.439 353.451 253.869C352.831 249.979 351.731 242.999 351.451 241.529C351.111 239.459 318.691 244.629 318.281 245.409C318.011 245.919 317.281 253.999 316.791 259.409L309.031 262.119L298.941 274.999L293.671 282.479C290.566 286.793 288.347 291.681 287.141 296.859C286.009 302.593 285.522 308.436 285.691 314.279L284.121 347.279L352.001 366.459L357.201 332.999L374.701 309.179C376.191 299.549 382.831 283.449 381.151 272.389Z" fill="#074F62"/>
<path d="M323.261 260.419C323.024 259.675 322.873 258.907 322.811 258.129C322.601 256.709 322.341 254.739 322.091 252.559C321.971 251.479 321.861 250.449 321.751 249.479C321.648 248.636 321.587 247.788 321.571 246.939C321.561 246.339 321.732 245.75 322.061 245.249C322.321 244.909 322.541 244.819 322.561 244.839C322.581 244.859 322.411 245.019 322.231 245.359C322.004 245.853 321.904 246.396 321.941 246.939C321.941 247.639 322.121 248.479 322.231 249.429C322.341 250.379 322.471 251.429 322.611 252.499C322.861 254.679 323.061 256.659 323.181 258.089C323.297 258.86 323.323 259.641 323.261 260.419Z" fill="#263238"/>
<path d="M331.909 258.379C331.572 257.716 331.33 257.009 331.189 256.279C330.285 252.816 329.947 249.23 330.189 245.659C330.196 244.918 330.304 244.181 330.509 243.469C330.669 243.469 330.379 246.839 330.769 250.959C331.159 255.079 332.069 258.339 331.909 258.379Z" fill="#263238"/>
<path d="M348.003 255.999C348.207 253.513 348.144 251.012 347.813 248.539C347.302 246.095 346.517 243.717 345.473 241.449C345.975 242.006 346.378 242.645 346.663 243.339C348.257 246.591 348.888 250.231 348.483 253.829C348.436 254.573 348.274 255.305 348.003 255.999Z" fill="#263238"/>
<path d="M302 285.459C303.545 282.514 305.554 279.836 307.95 277.529C306.097 280.268 304.111 282.914 302 285.459Z" fill="#FAFAFA"/>
<path d="M317.23 272.999C315.291 271.049 313.61 268.858 312.23 266.479C313.248 267.4 314.151 268.441 314.92 269.578C315.831 270.617 316.607 271.766 317.23 272.999Z" fill="#FAFAFA"/>
<path d="M333.191 265.219C332.215 266.378 331.148 267.458 330.001 268.449C328.978 269.567 327.871 270.607 326.691 271.559C327.496 270.258 328.49 269.086 329.641 268.079C330.672 266.95 331.869 265.986 333.191 265.219Z" fill="#FAFAFA"/>
<path d="M328.71 255.7C327.779 255.211 326.937 254.569 326.22 253.8C325.384 253.154 324.658 252.378 324.07 251.5C325 252 325.844 252.645 326.57 253.41C327.404 254.051 328.127 254.825 328.71 255.7Z" fill="#FAFAFA"/>
<path d="M342.699 248.239C341.632 248.738 340.496 249.075 339.329 249.239C338.202 249.564 337.033 249.726 335.859 249.719C336.925 249.223 338.057 248.886 339.219 248.719C340.35 248.392 341.522 248.231 342.699 248.239Z" fill="#FAFAFA"/>
<path d="M345.499 270.389C345.178 269.254 345.03 268.077 345.059 266.899C344.916 265.731 344.943 264.549 345.139 263.389C345.46 264.523 345.609 265.7 345.579 266.879C345.723 268.046 345.696 269.229 345.499 270.389Z" fill="#FAFAFA"/>
<path d="M340.403 281C339.662 279.74 339.071 278.397 338.643 277C338.062 275.642 337.64 274.223 337.383 272.77C338.698 275.401 339.705 278.176 340.383 281.04L340.403 281Z" fill="#FAFAFA"/>
<path d="M326.54 288.549C325.743 287.215 325.099 285.796 324.62 284.319C323.971 282.902 323.488 281.416 323.18 279.889C323.97 281.229 324.614 282.65 325.1 284.129C325.74 285.545 326.223 287.027 326.54 288.549Z" fill="#FAFAFA"/>
<path d="M313.502 297.058C312.578 294.313 311.994 291.465 311.762 288.578C312.3 289.925 312.676 291.332 312.882 292.768C313.256 294.169 313.464 295.609 313.502 297.058Z" fill="#FAFAFA"/>
<path d="M298.001 297.4C296.46 295.011 295.211 292.446 294.281 289.76C295.822 292.148 297.071 294.713 298.001 297.4Z" fill="#FAFAFA"/>
<path d="M297.673 307.34C296.403 308.243 295.042 309.011 293.612 309.63C292.252 310.399 290.81 311.013 289.312 311.46C290.58 310.545 291.945 309.774 293.383 309.16C294.74 308.395 296.179 307.785 297.673 307.34Z" fill="#FAFAFA"/>
<path d="M297.862 323.059C297.183 321.933 296.706 320.698 296.452 319.409C296.031 318.17 295.832 316.867 295.862 315.559C296.342 316.761 296.707 318.007 296.952 319.279C297.373 320.507 297.678 321.773 297.862 323.059Z" fill="#FAFAFA"/>
<path d="M294.65 334.099C293.465 333.348 292.371 332.462 291.39 331.459C290.297 330.587 289.319 329.579 288.48 328.459C289.666 329.21 290.76 330.095 291.74 331.099C292.834 331.971 293.812 332.979 294.65 334.099Z" fill="#FAFAFA"/>
<path d="M315.07 326.559C315.07 326.709 312.81 327.369 310.13 328.559C307.45 329.749 305.41 330.969 305.32 330.839C306.686 329.664 308.241 328.73 309.92 328.079C311.536 327.278 313.279 326.764 315.07 326.559Z" fill="#FAFAFA"/>
<path d="M309.103 321.088C308.459 320.017 307.964 318.863 307.633 317.658C307.133 316.514 306.797 315.306 306.633 314.068C307.275 315.136 307.766 316.287 308.093 317.488C308.599 318.634 308.939 319.846 309.103 321.088Z" fill="#FAFAFA"/>
<path d="M321.211 307.568C320.456 309.261 319.542 310.879 318.481 312.398C317.566 314.027 316.501 315.567 315.301 316.998C316.977 313.696 318.956 310.556 321.211 307.618V307.568Z" fill="#FAFAFA"/>
<path d="M334.231 308.859C332.914 307.509 331.793 305.981 330.901 304.319C329.86 302.749 329.039 301.043 328.461 299.249C328.601 299.189 329.761 301.409 331.351 304.059C332.941 306.709 334.351 308.779 334.231 308.859Z" fill="#FAFAFA"/>
<path d="M342 295.998C340.787 296.474 339.492 296.705 338.19 296.678C336.899 296.83 335.591 296.728 334.34 296.378C335.609 296.21 336.889 296.136 338.17 296.158C339.441 296.013 340.721 295.96 342 295.998Z" fill="#FAFAFA"/>
<path d="M360.531 281.389C357.358 283.297 354.009 284.898 350.531 286.169C353.71 284.271 357.058 282.671 360.531 281.389Z" fill="#FAFAFA"/>
<path d="M361.762 272.09C362.782 269.278 364.124 266.593 365.762 264.09C365.339 265.524 364.748 266.904 364.002 268.2C363.405 269.577 362.654 270.883 361.762 272.09Z" fill="#FAFAFA"/>
<path d="M373.52 279.388C372.905 277.91 372.397 276.389 372 274.838C371.443 273.339 370.995 271.802 370.66 270.238C372.155 273.092 373.124 276.191 373.52 279.388Z" fill="#FAFAFA"/>
<path d="M375.369 289.068C373.995 289.819 372.515 290.359 370.979 290.668C369.486 291.144 367.927 291.383 366.359 291.378C367.827 290.873 369.327 290.468 370.849 290.168C372.329 289.7 373.84 289.332 375.369 289.068Z" fill="#FAFAFA"/>
<path d="M355.211 300.889C355.061 300.889 355.491 298.429 355.611 295.399C355.731 292.369 355.531 289.909 355.681 289.889C356.143 291.693 356.295 293.563 356.131 295.419C356.141 297.281 355.829 299.132 355.211 300.889Z" fill="#FAFAFA"/>
<path d="M351.191 313.059C348.502 310.928 346.288 308.257 344.691 305.219C344.821 305.139 346.141 306.989 347.941 309.149C349.093 310.394 350.178 311.699 351.191 313.059Z" fill="#FAFAFA"/>
<path d="M371.399 310.489C370.09 311.313 368.691 311.984 367.229 312.489C365.834 313.161 364.368 313.677 362.859 314.029C365.566 312.528 368.43 311.331 371.399 310.459V310.489Z" fill="#FAFAFA"/>
<path d="M364.16 333.389C363.857 329.726 363.893 326.044 364.27 322.389C364.587 326.05 364.55 329.734 364.16 333.389Z" fill="#FAFAFA"/>
<path d="M348.652 332.07C348.905 328.244 349.843 324.494 351.422 321C351.562 321.05 350.802 323.48 350.042 326.53C349.282 329.58 348.802 332.1 348.652 332.07Z" fill="#FAFAFA"/>
<path d="M349.36 338.08C349.36 338.23 346.88 338.47 343.84 338.98C340.8 339.49 338.36 340.05 338.32 339.9C340.055 339.172 341.883 338.687 343.75 338.46C345.593 338.069 347.482 337.941 349.36 338.08Z" fill="#FAFAFA"/>
<path d="M332.199 334.229C333.069 332.972 334.075 331.815 335.199 330.779C336.19 329.627 337.311 328.594 338.539 327.699C337.67 328.957 336.664 330.114 335.539 331.149C334.546 332.299 333.425 333.332 332.199 334.229Z" fill="#FAFAFA"/>
<path d="M321.09 344.999C320.56 343.725 320.109 342.419 319.74 341.089C319.197 339.818 318.73 338.516 318.34 337.189C319.926 339.506 320.874 342.2 321.09 344.999Z" fill="#FAFAFA"/>
<path d="M339.002 351.219C335.591 350.089 332.299 348.629 329.172 346.859C330.896 347.346 332.571 347.995 334.172 348.799C335.853 349.455 337.47 350.265 339.002 351.219Z" fill="#FAFAFA"/>
<path d="M307.762 349.41C307.902 348.152 308.218 346.92 308.702 345.75C309.018 344.527 309.499 343.353 310.132 342.26C309.99 343.518 309.674 344.749 309.192 345.92C308.868 347.14 308.387 348.313 307.762 349.41Z" fill="#FAFAFA"/>
<path d="M328.361 352.899C328.361 353.049 325.491 352.589 321.951 352.409C318.411 352.229 315.541 352.409 315.531 352.209C317.655 351.796 319.827 351.689 321.981 351.889C324.145 351.917 326.294 352.257 328.361 352.899Z" fill="#FAFAFA"/>
<path d="M332.639 323.408C332.62 323.275 332.62 323.141 332.639 323.008C332.637 322.625 332.694 322.244 332.809 321.878C332.965 321.261 333.351 320.728 333.889 320.388C334.627 319.962 335.494 319.819 336.329 319.988L336.129 320.108C337.219 316.268 338.969 310.668 340.719 304.388C342.359 298.508 343.469 293.098 344.239 289.168C344.619 287.278 344.919 285.708 345.159 284.518C345.25 283.946 345.38 283.382 345.549 282.828C345.537 283.409 345.473 283.988 345.359 284.558C345.199 285.668 344.939 287.268 344.599 289.238C343.733 294.389 342.605 299.492 341.219 304.528C339.469 310.818 337.659 316.398 336.459 320.208L336.409 320.358H336.259C335.504 320.186 334.712 320.292 334.029 320.658C333.533 320.954 333.16 321.419 332.979 321.968C332.649 322.848 332.709 323.418 332.639 323.408Z" fill="#263238"/>
<path d="M355.06 337.319C354.98 337.319 354.36 335.999 353.06 333.979C349.727 328.705 345.027 324.434 339.46 321.619C337.33 320.549 335.92 320.059 335.95 319.969C336.292 320.023 336.627 320.114 336.95 320.239C337.854 320.532 338.74 320.883 339.6 321.289C345.349 323.962 350.149 328.322 353.36 333.789C353.843 334.607 354.273 335.456 354.65 336.329C354.839 336.635 354.977 336.969 355.06 337.319Z" fill="#263238"/>
<g opacity="0.2">
<path d="M336.55 319.238C340.14 319.328 343.696 319.972 347.09 321.148C350.68 322.488 354 325.068 355.32 328.668C355.534 329.074 355.63 329.533 355.596 329.991C355.562 330.448 355.401 330.888 355.13 331.258C354.873 331.479 354.561 331.624 354.228 331.679C353.895 331.733 353.553 331.695 353.24 331.568C352.614 331.307 352.049 330.918 351.58 330.428C349.38 328.428 347.09 326.588 344.82 324.628C342.55 322.668 339.23 320.628 336.27 320.158" fill="black"/>
</g>
<path d="M329.341 312.859C329.034 313.101 328.698 313.302 328.341 313.459C327.356 313.941 326.328 314.329 325.271 314.619C321.752 315.623 318.029 315.667 314.488 314.747C310.947 313.828 307.716 311.978 305.131 309.389C304.35 308.617 303.641 307.777 303.011 306.879C302.761 306.574 302.552 306.238 302.391 305.879C302.471 305.819 303.391 307.279 305.391 309.159C307.988 311.612 311.163 313.37 314.621 314.268C318.079 315.167 321.708 315.177 325.171 314.299C327.781 313.599 329.291 312.759 329.341 312.859Z" fill="#263238"/>
<g opacity="0.2">
<path d="M302.883 306.619C304.573 310.279 306.543 313.969 309.743 316.429C311.512 317.957 313.722 318.882 316.053 319.069C319.393 319.129 322.263 316.849 324.813 314.689C316.553 315.989 307.253 312.239 302.883 306.619Z" fill="black"/>
</g>
<path d="M339.86 257.62C339.7 257.62 339.86 254.18 339.48 249.99C339.1 245.8 338.25 242.47 338.4 242.43C338.73 243.11 338.963 243.834 339.09 244.58C339.522 246.342 339.823 248.133 339.99 249.94C340.169 251.747 340.216 253.565 340.13 255.38C340.139 256.135 340.048 256.888 339.86 257.62Z" fill="#263238"/>
<path d="M221.241 391.439C221.241 391.439 210.371 393.789 200.671 392.329C191.571 390.969 171.201 392.379 171.211 404.329C171.211 417.699 198.381 414.399 208.971 412.279C219.561 410.159 230.121 408.279 230.121 408.279L221.241 391.439Z" fill="#074F62"/>
<path d="M196.84 408.568C196.243 407.068 195.804 405.51 195.53 403.918C195.095 402.361 194.827 400.762 194.73 399.148C195.315 400.65 195.74 402.208 196 403.798C196.449 405.354 196.731 406.953 196.84 408.568Z" fill="#263238"/>
<path d="M200.55 408.749C199.764 405.599 199.322 402.374 199.23 399.129C199.707 400.681 200.016 402.281 200.15 403.899C200.452 405.497 200.586 407.123 200.55 408.749Z" fill="#263238"/>
<path d="M204.133 407.349C203.714 405.995 203.458 404.595 203.373 403.179C203.113 401.785 203.029 400.364 203.123 398.949C203.795 401.698 204.13 404.519 204.123 407.349H204.133Z" fill="#263238"/>
<path d="M209.75 406C209.054 404.91 208.582 403.693 208.36 402.42C207.969 401.183 207.833 399.88 207.96 398.59C208.342 399.802 208.643 401.038 208.86 402.29C209.244 403.504 209.541 404.744 209.75 406Z" fill="#263238"/>
<path d="M211.002 401.059C211.467 400.951 211.946 400.917 212.422 400.959C213.724 401.004 215.01 401.257 216.232 401.709C216.654 401.859 217.052 402.071 217.412 402.339C217.623 402.493 217.799 402.693 217.925 402.922C218.051 403.152 218.125 403.407 218.142 403.669C218.119 403.957 218.035 404.237 217.894 404.489C217.753 404.742 217.558 404.961 217.325 405.131C217.091 405.301 216.823 405.418 216.539 405.475C216.256 405.532 215.963 405.526 215.682 405.459C214.533 405.144 213.532 404.436 212.852 403.459C211.723 402.002 211.077 400.23 211.003 398.389C210.93 396.548 211.433 394.73 212.442 393.189C212.646 392.941 212.928 392.768 213.242 392.699C213.405 392.678 213.572 392.693 213.729 392.743C213.886 392.793 214.03 392.877 214.152 392.989C214.537 393.384 214.777 393.899 214.832 394.449C214.955 395.353 214.908 396.272 214.692 397.159C214.393 398.445 213.758 399.628 212.852 400.589C212.613 400.851 212.348 401.089 212.062 401.299C211.966 401.379 211.858 401.444 211.742 401.489C211.742 401.489 212.122 401.149 212.742 400.489C213.552 399.511 214.111 398.351 214.372 397.109C214.552 396.263 214.576 395.392 214.442 394.539C214.391 394.096 214.198 393.682 213.892 393.359C213.814 393.294 213.723 393.247 213.625 393.22C213.527 393.194 213.425 393.189 213.325 393.206C213.225 393.223 213.131 393.262 213.047 393.319C212.964 393.377 212.894 393.452 212.842 393.539C211.929 394.999 211.483 396.703 211.563 398.424C211.643 400.144 212.247 401.8 213.292 403.169C213.889 404.064 214.78 404.722 215.812 405.029C216.025 405.084 216.248 405.094 216.466 405.057C216.684 405.021 216.891 404.938 217.074 404.815C217.258 404.692 217.413 404.532 217.53 404.345C217.646 404.157 217.722 403.947 217.752 403.729C217.736 403.532 217.677 403.34 217.581 403.168C217.484 402.995 217.351 402.846 217.192 402.729C216.875 402.475 216.521 402.273 216.142 402.129C214.96 401.66 213.718 401.363 212.452 401.249C211.462 401.079 211.002 401.099 211.002 401.059Z" fill="#263238"/>
<path d="M229.05 406.509L228.78 406.599L227.96 406.799L224.81 407.519C222.07 408.119 218.09 408.969 213.15 409.919C208.21 410.869 202.31 411.919 195.69 412.849C192.225 413.418 188.706 413.596 185.2 413.379C183.334 413.253 181.491 412.901 179.71 412.329C178.796 412.018 177.912 411.623 177.07 411.149C176.191 410.678 175.408 410.047 174.76 409.289C174.398 408.955 174.082 408.575 173.82 408.159C173.31 407.282 172.997 406.304 172.902 405.294C172.807 404.284 172.933 403.265 173.27 402.309C173.925 400.462 175.142 398.867 176.75 397.749C178.264 396.682 179.934 395.856 181.7 395.299C182.57 395.049 183.41 394.749 184.27 394.559C185.13 394.369 185.98 394.159 186.83 394.039C193.64 392.969 199.83 393.509 204.99 393.509C207.57 393.559 209.9 393.509 211.94 393.369C213.684 393.243 215.42 393.023 217.14 392.709L219.02 392.309L220.37 391.929L221.2 391.699C221.294 391.666 221.391 391.645 221.49 391.639C221.49 391.639 221.4 391.689 221.22 391.749L220.4 392.029L219.06 392.459L217.19 392.909C215.463 393.257 213.716 393.508 211.96 393.659C209.91 393.809 207.57 393.909 204.96 393.879C199.8 393.929 193.61 393.419 186.89 394.509C186.05 394.629 185.22 394.859 184.37 395.039C183.52 395.219 182.7 395.529 181.84 395.769C180.123 396.312 178.501 397.118 177.03 398.159C175.511 399.217 174.36 400.724 173.74 402.469C173.43 403.353 173.315 404.295 173.401 405.228C173.487 406.162 173.774 407.066 174.24 407.879C174.479 408.247 174.765 408.584 175.09 408.879C175.701 409.57 176.429 410.149 177.24 410.589C178.049 411.047 178.9 411.429 179.78 411.729C181.523 412.28 183.326 412.616 185.15 412.729C188.621 412.947 192.105 412.783 195.54 412.239C202.14 411.369 208.05 410.319 212.99 409.419C217.93 408.519 221.92 407.719 224.68 407.179L227.85 406.559L228.67 406.409C228.803 406.414 228.932 406.448 229.05 406.509Z" fill="#263238"/>
<path d="M189.309 413C189.146 412.082 189.055 411.152 189.039 410.22C188.919 408.51 188.719 406.14 188.369 403.55C188.019 400.96 187.599 398.62 187.259 396.93C187.026 396.028 186.869 395.108 186.789 394.18C187.161 395.037 187.439 395.932 187.619 396.85C188.165 399.034 188.589 401.248 188.889 403.48C189.183 405.709 189.357 407.952 189.409 410.2C189.472 411.134 189.439 412.072 189.309 413Z" fill="#263238"/>
<path opacity="0.4" d="M217.891 392.019L224.781 409.269L230.121 408.279L219.891 391.439L217.891 392.019Z" fill="black"/>
<path d="M307.651 344.738C306.541 345.098 235.371 325.158 206.591 317.068C202.854 316.015 198.936 315.771 195.098 316.353C191.259 316.934 187.589 318.327 184.331 320.438L183.981 320.658C179.256 323.714 175.59 328.153 173.483 333.371C171.377 338.588 170.932 344.329 172.211 349.808C173.032 353.337 174.546 356.667 176.664 359.606C178.782 362.545 181.463 365.034 184.551 366.928C203.551 378.558 243.701 403.018 244.931 402.538C246.541 401.918 296.701 400.618 296.701 400.618L236.351 357.208L265.061 375.768L307.651 344.768V344.738Z" fill="#263238"/>
<path d="M248.23 323.08L263.36 315.25L278.2 324.55L333.74 326.37L341.74 353.37L261.34 334.73C261.34 334.73 246.71 336.03 245.61 332.73C244.51 329.43 248.23 323.08 248.23 323.08Z" fill="#FFBE9D"/>
<path d="M293.742 366.418L286.262 390.998L287.192 398.488C293.778 405.125 302.559 409.132 311.888 409.76C321.217 410.388 330.455 407.593 337.872 401.898C342.469 398.368 346.189 393.824 348.742 388.621C351.296 383.417 352.613 377.694 352.592 371.898L352.482 346.238L293.742 366.418Z" fill="#263238"/>
<path d="M249.203 366.578C249.123 366.688 240.443 360.358 229.823 352.438C219.203 344.518 210.653 337.998 210.743 337.888C210.833 337.778 219.503 344.098 230.133 352.018C240.763 359.938 249.293 366.458 249.203 366.578Z" fill="#455A64"/>
<path d="M262.343 320.148C259.937 321.193 257.465 322.078 254.943 322.798C252.471 323.674 249.946 324.392 247.383 324.948C249.788 323.902 252.26 323.017 254.783 322.298C257.254 321.421 259.779 320.703 262.343 320.148Z" fill="#EB996E"/>
<path d="M263.47 324.759C262.626 324.999 261.763 325.163 260.89 325.249C259.3 325.509 257.11 325.899 254.71 326.449C252.31 326.999 250.17 327.609 248.62 328.069C247.796 328.366 246.95 328.597 246.09 328.759C246.852 328.334 247.661 327.998 248.5 327.759C250.495 327.051 252.528 326.457 254.59 325.979C256.651 325.507 258.738 325.153 260.84 324.919C261.708 324.773 262.59 324.719 263.47 324.759Z" fill="#EB996E"/>
<path d="M262.2 329C259.466 329.814 256.684 330.455 253.87 330.92C251.088 331.561 248.269 332.031 245.43 332.33C248.168 331.521 250.953 330.88 253.77 330.41C256.549 329.771 259.364 329.3 262.2 329Z" fill="#EB996E"/>
<path d="M242.582 286.8L256.532 332.72C256.611 332.975 256.765 333.201 256.973 333.369C257.182 333.536 257.436 333.638 257.702 333.66L295.702 336.51C296.039 336.533 296.355 336.683 296.585 336.93C296.815 337.177 296.943 337.502 296.942 337.84V340.21C296.942 340.387 296.907 340.562 296.838 340.726C296.77 340.889 296.669 341.037 296.542 341.161C296.416 341.285 296.265 341.382 296.101 341.447C295.936 341.512 295.759 341.544 295.582 341.54L191.582 339.54C191.316 339.535 191.058 339.45 190.84 339.297C190.623 339.144 190.456 338.929 190.362 338.68L172.082 290.79C172.006 290.593 171.977 290.381 171.999 290.171C172.021 289.961 172.093 289.759 172.208 289.582C172.323 289.405 172.479 289.258 172.662 289.153C172.846 289.049 173.051 288.989 173.262 288.98L241.172 285.81C241.486 285.783 241.8 285.867 242.058 286.048C242.315 286.229 242.501 286.495 242.582 286.8Z" fill="#455A64"/>
<path d="M213.282 306.58C212.772 306.77 212.317 307.083 211.958 307.491C211.599 307.899 211.346 308.39 211.222 308.92C211.176 309.473 211.276 310.029 211.513 310.531C211.75 311.033 212.115 311.463 212.572 311.78C213.12 312.176 213.774 312.401 214.451 312.426C215.127 312.451 215.796 312.275 216.372 311.92C216.95 311.491 217.364 310.877 217.546 310.181C217.728 309.484 217.666 308.746 217.372 308.09C216.912 306.82 214.592 305.93 213.252 306.58" fill="#E0E0E0"/>
<path d="M230.121 408.279L219.121 390.199L299.921 326.869C304.948 322.746 311.096 320.227 317.571 319.639C322.288 319.21 327.042 319.819 331.499 321.422C335.956 323.025 340.009 325.583 343.372 328.918C346.736 332.253 349.329 336.284 350.97 340.727C352.611 345.17 353.26 349.919 352.871 354.639L351.581 370.089L298.001 387.359L230.121 408.279Z" fill="#263238"/>
<path d="M333.742 365.359C333.742 365.359 333.682 365.429 333.532 365.559L332.872 366.099L330.302 368.159L328.432 369.629C327.752 370.169 326.942 370.629 326.112 371.259L323.432 373.099C322.952 373.419 322.432 373.769 321.962 374.099L320.352 375.099C318.162 376.409 315.792 377.909 313.102 379.269C311.772 379.969 310.412 380.729 308.982 381.439L304.512 383.549C297.843 386.604 291.024 389.321 284.082 391.689C269.322 396.779 255.682 400.439 245.912 403.399C243.462 404.119 241.252 404.799 239.312 405.399C237.372 405.999 235.712 406.509 234.312 406.969L231.192 407.969L230.372 408.219C230.278 408.253 230.181 408.276 230.082 408.289L230.352 408.169L231.152 407.869L234.252 406.759C235.592 406.269 237.252 405.759 239.192 405.099C241.132 404.439 243.322 403.759 245.762 403.019C255.512 399.959 269.142 396.249 283.872 391.169C291.252 388.659 298.122 385.859 304.272 383.089L308.732 380.999C310.172 380.299 311.532 379.549 312.862 378.859C315.552 377.519 317.922 376.039 320.122 374.759L321.732 373.809C322.242 373.489 322.732 373.149 323.212 372.809L326.002 370.999C326.832 370.429 327.642 369.939 328.332 369.409L330.222 367.969L332.852 365.969L333.552 365.469L333.742 365.359Z" fill="#455A64"/>
<path d="M335.703 373.809C335.455 373.991 335.182 374.136 334.893 374.239C334.353 374.479 333.563 374.809 332.573 375.169C329.99 376.121 327.343 376.889 324.652 377.469C321.959 378.043 319.229 378.431 316.483 378.629C315.433 378.699 314.573 378.729 313.983 378.729C313.675 378.751 313.366 378.734 313.062 378.679C314.184 378.477 315.316 378.337 316.453 378.259C318.533 378.029 321.453 377.629 324.543 376.959C327.633 376.289 330.453 375.469 332.453 374.829C333.517 374.43 334.602 374.09 335.703 373.809Z" fill="#455A64"/>
<path d="M296.701 329.909C296.791 330.029 279.501 343.619 258.081 360.259C236.661 376.899 219.221 390.319 219.141 390.199C219.061 390.079 236.341 376.499 257.761 359.849C279.181 343.199 296.621 329.799 296.701 329.909Z" fill="#455A64"/>
<path d="M292.002 397.108C288.132 395.048 283.782 396.268 280.072 397.518C277.602 398.348 275.072 399.668 272.532 398.958C270.722 398.448 269.372 396.958 267.982 395.708C265.178 393.13 261.885 391.138 258.299 389.852C254.713 388.566 250.906 388.01 247.102 388.219C244.929 388.323 242.878 389.249 241.362 390.808C237.552 394.938 240.422 400.298 243.832 403.808C249.907 409.984 257.93 413.87 266.542 414.808C273.632 415.548 283.382 414.568 290.542 411.488C294.972 409.588 297.242 404.359 294.922 400.139C294.267 398.863 293.252 397.81 292.002 397.108Z" fill="#0B7F9D"/>
<g opacity="0.4">
<path d="M292 400.409C288.12 398.349 283.77 399.569 280.06 400.819C277.59 401.649 275.06 402.969 272.52 402.259C270.71 401.749 269.36 400.259 267.97 399.009C265.166 396.43 261.874 394.439 258.287 393.153C254.701 391.866 250.894 391.311 247.09 391.519C244.918 391.624 242.866 392.55 241.35 394.109C240.583 394.927 240.033 395.924 239.75 397.009C240.484 399.583 241.889 401.916 243.82 403.769C249.895 409.945 257.918 413.83 266.53 414.769C273.62 415.509 283.37 414.529 290.53 411.449C291.801 410.908 292.927 410.075 293.815 409.017C294.703 407.958 295.328 406.705 295.64 405.359C295.415 404.326 294.97 403.353 294.337 402.506C293.704 401.659 292.897 400.958 291.97 400.449L292 400.409Z" fill="black"/>
</g>
<path d="M295.7 405.32C295.532 404.5 295.21 403.719 294.75 403.02C294.195 402.227 293.492 401.548 292.68 401.02C291.611 400.297 290.389 399.832 289.11 399.66C286.24 399.32 282.9 400.53 279.2 401.53C277.37 402.02 275.37 402.76 273.2 402.53C272.103 402.388 271.048 402.02 270.1 401.45C269.157 400.862 268.267 400.193 267.44 399.45C264.423 396.583 260.801 394.43 256.84 393.15C255.129 392.568 253.363 392.16 251.57 391.93C250.012 391.705 248.429 391.705 246.87 391.93C245.596 392.123 244.369 392.55 243.25 393.19C242.413 393.675 241.654 394.286 241 395C240 396.25 239.63 397.1 239.57 397.06C239.881 396.268 240.312 395.529 240.85 394.87C241.474 394.084 242.224 393.408 243.07 392.87C244.212 392.171 245.479 391.703 246.8 391.49C248.392 391.253 250.009 391.253 251.6 391.49C253.425 391.708 255.224 392.107 256.97 392.68C258.898 393.32 260.76 394.144 262.53 395.14C263.474 395.662 264.38 396.25 265.24 396.9C266.11 397.58 266.92 398.32 267.76 399.04C268.565 399.78 269.431 400.449 270.35 401.04C271.236 401.566 272.219 401.907 273.24 402.04C275.24 402.31 277.24 401.61 279.07 401.13C282.76 400.13 286.15 398.96 289.16 399.35C290.324 399.517 291.438 399.929 292.431 400.558C293.424 401.188 294.272 402.02 294.92 403C295.261 403.536 295.505 404.129 295.64 404.75C295.68 404.937 295.7 405.128 295.7 405.32Z" fill="#263238"/>
<path d="M295.7 405.32C295.532 404.5 295.21 403.719 294.75 403.02C294.195 402.227 293.492 401.548 292.68 401.02C291.611 400.297 290.389 399.832 289.11 399.66C286.24 399.32 282.9 400.53 279.2 401.53C277.37 402.02 275.37 402.76 273.2 402.53C272.103 402.388 271.048 402.02 270.1 401.45C269.157 400.862 268.267 400.193 267.44 399.45C264.423 396.583 260.801 394.43 256.84 393.15C255.129 392.568 253.363 392.16 251.57 391.93C250.012 391.705 248.429 391.705 246.87 391.93C245.596 392.123 244.369 392.55 243.25 393.19C242.413 393.675 241.654 394.286 241 395C240 396.25 239.63 397.1 239.57 397.06C239.881 396.268 240.312 395.529 240.85 394.87C241.474 394.084 242.224 393.408 243.07 392.87C244.212 392.171 245.479 391.703 246.8 391.49C248.392 391.253 250.009 391.253 251.6 391.49C253.425 391.708 255.224 392.107 256.97 392.68C258.898 393.32 260.76 394.144 262.53 395.14C263.474 395.662 264.38 396.25 265.24 396.9C266.11 397.58 266.92 398.32 267.76 399.04C268.565 399.78 269.431 400.449 270.35 401.04C271.236 401.566 272.219 401.907 273.24 402.04C275.24 402.31 277.24 401.61 279.07 401.13C282.76 400.13 286.15 398.96 289.16 399.35C290.324 399.517 291.438 399.929 292.431 400.558C293.424 401.188 294.272 402.02 294.92 403C295.261 403.536 295.505 404.129 295.64 404.75C295.68 404.937 295.7 405.128 295.7 405.32Z" fill="#263238"/>
<path d="M247.633 404.378C248.243 403.844 248.914 403.384 249.633 403.008C251.293 402.004 253.005 401.09 254.763 400.268C256.52 399.44 258.319 398.702 260.153 398.058C260.899 397.754 261.677 397.535 262.473 397.408C261.775 397.809 261.042 398.143 260.283 398.408C258.913 398.978 257.033 399.778 254.983 400.738C252.933 401.698 251.123 402.638 249.813 403.328C249.123 403.75 248.393 404.102 247.633 404.378Z" fill="#263238"/>
<path d="M249 408.258C251.441 406.789 253.969 405.47 256.57 404.308C259.098 402.993 261.703 401.831 264.37 400.828C261.929 402.297 259.401 403.616 256.8 404.778C254.274 406.098 251.669 407.26 249 408.258Z" fill="#263238"/>
<path d="M265.001 409.939C264.921 410.059 260.791 407.599 255.781 404.439C250.771 401.279 246.781 398.609 246.781 398.489C246.781 398.369 250.981 400.829 256.001 403.999C261.021 407.169 265.101 409.819 265.001 409.939Z" fill="#263238"/>
<path d="M267.34 405.919C266.634 405.531 265.964 405.079 265.34 404.569C264.13 403.689 262.45 402.478 260.57 401.178C258.69 399.878 256.98 398.728 255.73 397.898C255.018 397.493 254.348 397.018 253.73 396.479C254.492 396.77 255.219 397.142 255.9 397.589C257.2 398.339 258.97 399.449 260.9 400.749C262.83 402.049 264.44 403.319 265.6 404.279C266.246 404.751 266.831 405.302 267.34 405.919Z" fill="#263238"/>
</g>
<defs>
<clipPath id="clip0_4149_35412">
<rect width="500" height="416" fill="white"/>
</clipPath>
</defs>
</svg>
