<svg xmlns="http://www.w3.org/2000/svg" xmlns:xlink="http://www.w3.org/1999/xlink" width="90" height="90" viewBox="0 0 90 90"><defs><style>.a{fill:#05b384;}.b{fill:#fafafa;}.c{clip-path:url(#a);}</style><clipPath id="a"><rect class="a" width="33.662" height="30.322"/></clipPath></defs><g transform="translate(-141 -697)"><path class="b" d="M45,0A45,45,0,1,1,0,45,45,45,0,0,1,45,0Z" transform="translate(141 697)"/><g transform="translate(169 727)"><g class="c"><path class="a" d="M33.376,3.955a1.664,1.664,0,0,0-2.311-.444L28.142,5.49V1.664a1.664,1.664,0,0,0-3.328,0v6.08l-3.1,2.1V1.664a1.664,1.664,0,1,0-3.328,0V12.1l-3.1,2.1V1.664a1.664,1.664,0,0,0-3.328,0V16.456l-3.1,2.1V1.664a1.664,1.664,0,0,0-3.328,0V20.812L.731,24.056A1.664,1.664,0,0,0,2.6,26.812l2.923-1.98v3.826a1.664,1.664,0,0,0,3.328,0v-6.08l3.1-2.1v8.182a1.664,1.664,0,0,0,3.328,0V18.222l3.1-2.1V28.658a1.664,1.664,0,0,0,3.328,0V13.866l3.1-2.1V28.658a1.664,1.664,0,0,0,3.328,0V9.51l4.79-3.244a1.666,1.666,0,0,0,.445-2.311" transform="translate(0)"/></g></g></g></svg>