<svg xmlns="http://www.w3.org/2000/svg" width="90" height="90" viewBox="0 0 90 90"><defs><style>.a{fill:#fafafa;}.b{fill:#05b384;}</style></defs><g transform="translate(-141 -697)"><path class="a" d="M45,0A45,45,0,1,1,0,45,45,45,0,0,1,45,0Z" transform="translate(141 697)"/><g transform="translate(163 690)"><path class="b" d="M23.379,66.617a30.409,30.409,0,0,0,3.957-.261,13.753,13.753,0,0,0,10.312,5.738l.081,0a1.37,1.37,0,0,0,1.061-2.236,13.8,13.8,0,0,1-2.78-6.1c6.016-2.965,10.749-8.317,10.749-14.954C46.759,37.864,34.773,31,23.379,31,11.9,31,0,37.927,0,48.809,0,59.753,11.986,66.617,23.379,66.617Zm0-32.877c9.822,0,20.64,5.755,20.64,15.069,0,5.2-3.861,10.143-10.076,12.9a1.37,1.37,0,0,0-.8,1.418,17.034,17.034,0,0,0,1.684,5.623,11.18,11.18,0,0,1-5.67-4.6,1.37,1.37,0,0,0-1.378-.625,27.787,27.787,0,0,1-4.394.354c-9.822,0-20.64-5.755-20.64-15.069C2.74,39.637,13.338,33.74,23.379,33.74Z"/><path class="b" d="M95.11,189.219A4.11,4.11,0,1,0,91,185.11,4.114,4.114,0,0,0,95.11,189.219Zm0-5.48a1.37,1.37,0,1,1-1.37,1.37A1.371,1.371,0,0,1,95.11,183.74Z" transform="translate(-82.689 -136.301)"/><path class="b" d="M215.11,189.219a4.11,4.11,0,1,0-4.11-4.11A4.114,4.114,0,0,0,215.11,189.219Zm0-5.48a1.37,1.37,0,1,1-1.37,1.37A1.371,1.371,0,0,1,215.11,183.74Z" transform="translate(-191.73 -136.301)"/><path class="b" d="M335.11,189.219a4.11,4.11,0,1,0-4.11-4.11A4.114,4.114,0,0,0,335.11,189.219Zm0-5.48a1.37,1.37,0,1,1-1.37,1.37A1.371,1.371,0,0,1,335.11,183.74Z" transform="translate(-300.771 -136.301)"/></g></g></svg>