<svg width="600" height="400" viewBox="0 0 600 400" fill="none" xmlns="http://www.w3.org/2000/svg">
<path d="M150.591 57.2715H77.1992V163.655H150.591V57.2715Z" fill="#E0E0E0"/>
<path d="M146.912 57.2715H73.5195V163.655H146.912V57.2715Z" fill="#F5F5F5"/>
<path d="M137.801 68.792H82.6406V152.128H137.801V68.792Z" fill="white"/>
<path d="M137.798 152.136C137.798 152.136 137.798 151.992 137.798 151.728C137.798 151.464 137.798 151.056 137.798 150.544C137.798 149.496 137.798 147.96 137.798 145.976C137.798 141.976 137.798 136.16 137.742 128.808C137.742 114.112 137.694 93.2957 137.654 68.8077L137.838 68.9917H82.6864L82.8864 68.7917C82.8864 100.232 82.8864 129.216 82.8864 152.136L82.7264 151.976L122.878 152.056L133.966 152.096H136.878H137.886H136.91H134.03H122.974L82.7264 152.176H82.5664V152.016C82.5664 129.096 82.5664 100.112 82.5664 68.6717V68.4717H82.7744H137.926H138.11V68.7997C138.11 93.3597 138.038 114.208 138.022 128.936C138.022 136.272 137.982 142.072 137.966 146.056C137.966 148.032 137.966 149.552 137.966 150.592C137.966 151.096 137.966 151.488 137.966 151.752C137.966 152.016 137.798 152.136 137.798 152.136Z" fill="#E0E0E0"/>
<path d="M147.129 57.2715C146.749 57.9517 146.31 58.5969 145.817 59.1995C144.969 60.3355 143.753 61.8875 142.377 63.5675C141.001 65.2475 139.705 66.7275 138.745 67.7835C138.262 68.38 137.727 68.9316 137.145 69.4315C137.559 68.7826 138.027 68.1697 138.545 67.5995L142.081 63.3115L145.601 58.9995C146.06 58.3813 146.571 57.8032 147.129 57.2715Z" fill="#E0E0E0"/>
<path d="M138.078 151.863C140.817 156.211 144.037 160.237 147.678 163.863L138.078 151.863Z" fill="white"/>
<path d="M147.702 163.895C147.087 163.451 146.523 162.938 146.022 162.367C144.743 161.067 143.531 159.703 142.39 158.279C141.062 156.607 139.95 155.015 139.19 153.839C138.753 153.219 138.378 152.557 138.07 151.863C138.565 152.434 139.017 153.041 139.422 153.679C140.222 154.815 141.374 156.367 142.694 158.023C144.014 159.679 145.294 161.135 146.222 162.175C146.756 162.712 147.251 163.287 147.702 163.895Z" fill="#E0E0E0"/>
<path d="M73.5117 163.568L83.1117 151.712L73.5117 163.568Z" fill="white"/>
<path d="M83.1277 151.712C81.6797 153.808 80.1257 155.83 78.4717 157.768C76.924 159.789 75.2682 161.725 73.5117 163.568C74.9597 161.471 76.5137 159.45 78.1677 157.512C79.7155 155.491 81.3712 153.555 83.1277 151.712Z" fill="#E0E0E0"/>
<path d="M73.5195 57.2715C75.178 59.0514 76.7376 60.9209 78.1915 62.8715C79.7486 64.7338 81.2015 66.6808 82.5435 68.7035C80.888 66.9232 79.331 65.0538 77.8795 63.1035C76.3204 61.2409 74.8649 59.2939 73.5195 57.2715Z" fill="#E0E0E0"/>
<path d="M120.617 85.7119H102.145V138.152H120.617V85.7119Z" fill="#E0E0E0"/>
<path d="M249.543 41.7676V88.3596H182.631L180.223 42.0956L249.543 41.7676Z" fill="#E0E0E0"/>
<path d="M180.215 42.0958V88.2559H247.127V42.0958L180.215 42.0958Z" fill="white"/>
<path d="M247.446 88.5754H179.902V41.7754H247.446V88.5754ZM180.542 87.9434H246.814V42.3994H180.542V87.9434Z" fill="#E0E0E0"/>
<path d="M239.889 47.832H187.473V82.52H239.889V47.832Z" fill="white"/>
<path d="M239.887 47.8317H238.879H235.999H225.199L187.471 47.9997L187.623 47.8477C187.623 58.4477 187.623 70.1917 187.623 82.5357L187.463 82.3757H239.879L239.743 82.5037C239.743 71.9517 239.799 63.3037 239.815 57.2637C239.815 54.2557 239.815 51.9037 239.815 50.2877C239.815 49.4877 239.815 48.8797 239.815 48.4557C239.815 48.0317 239.815 47.8157 239.815 47.8157C239.815 47.8157 239.815 48.0157 239.815 48.4237C239.815 48.8317 239.815 49.4477 239.815 50.2317C239.815 51.8317 239.815 54.1837 239.855 57.1837C239.855 63.2317 239.895 71.9197 239.919 82.5037V82.6397H239.791H187.375H187.207V82.4717C187.207 70.1277 187.207 58.3837 187.207 47.7837V47.6797H187.359L225.191 47.7517L235.959 47.7997H238.807H239.775L239.887 47.8317Z" fill="#E0E0E0"/>
<path d="M180.223 41.9678C180.636 42.1666 181.023 42.4166 181.375 42.7118C182.055 43.2078 182.975 43.9118 183.999 44.7118C185.023 45.5118 185.887 46.3118 186.511 46.8478C186.868 47.1375 187.19 47.4677 187.471 47.8318C186.196 46.9404 184.968 45.9845 183.791 44.9678C182.539 44.0444 181.347 43.0424 180.223 41.9678Z" fill="#E0E0E0"/>
<path d="M247.135 42.0957C246.034 43.1783 244.858 44.1809 243.615 45.0957C242.438 46.0943 241.192 47.0085 239.887 47.8317C240.987 46.7491 242.163 45.7466 243.407 44.8317C244.582 43.831 245.828 42.9166 247.135 42.0957Z" fill="#E0E0E0"/>
<path d="M247.081 88.2638L239.617 82.2158L247.081 88.2638Z" fill="white"/>
<path d="M239.617 82.2158C240.959 83.0959 242.242 84.0633 243.457 85.1118C244.735 86.08 245.945 87.1331 247.081 88.2638C245.738 87.389 244.457 86.4213 243.249 85.3678C241.966 84.4036 240.752 83.3503 239.617 82.2158Z" fill="#E0E0E0"/>
<path d="M180.223 88.256C181.31 87.1866 182.473 86.1974 183.703 85.296C184.866 84.3061 186.099 83.3999 187.391 82.584C186.307 83.6595 185.144 84.6517 183.911 85.552C182.748 86.541 181.516 87.4447 180.223 88.256Z" fill="#E0E0E0"/>
<path d="M198.113 58.6398V70.2559H231.097V58.6398H198.113Z" fill="#E0E0E0"/>
<path d="M522.15 250.535C522.15 250.535 516.142 247.735 511.43 261.815C506.718 275.895 505.318 283.823 505.318 283.823C505.318 283.823 503.966 286.831 501.814 285.319C499.662 283.807 496.326 279.111 493.262 280.519C490.198 281.927 489.542 285.831 490.99 291.183C492.438 296.535 495.182 308.367 495.422 309.439C495.662 310.511 495.286 312.151 493.662 311.359C492.038 310.567 482.102 302.367 478.462 307.303C474.822 312.239 481.334 326.503 482.014 328.055C482.694 329.607 482.478 330.375 481.758 330.895C481.038 331.415 477.974 328.343 475.054 326.095C472.134 323.847 468.366 321.823 466.518 324.847C464.67 327.871 465.63 339.143 478.966 355.687L485.646 362.943L495.35 360.935C515.854 355.375 523.246 346.815 523.526 343.279C523.806 339.743 519.526 339.199 515.886 339.279C512.246 339.359 507.934 340.039 507.662 339.191C507.39 338.343 507.662 337.591 509.118 336.791C510.574 335.991 524.198 328.191 524.182 322.071C524.166 315.951 511.31 316.767 509.526 316.471C507.742 316.175 508.414 314.591 509.222 313.879C510.03 313.167 519.214 305.183 523.526 301.703C527.838 298.223 529.678 294.775 527.95 291.743C526.222 288.711 520.83 290.655 518.206 290.615C515.582 290.575 516.246 287.343 516.246 287.343C516.246 287.343 519.766 280.143 524.246 265.943C528.726 251.743 522.022 250.519 522.022 250.519" fill="#EBEBEB"/>
<path d="M484.383 364.952C487.695 354.552 493.887 336.192 499.127 320.392C504.367 304.592 509.095 290.296 512.463 279.928C514.135 274.744 515.487 270.552 516.463 267.64C516.935 266.2 517.263 265.072 517.551 264.296C517.673 263.928 517.769 263.64 517.839 263.432C517.903 263.232 517.943 263.136 517.943 263.136C517.943 263.136 517.943 263.24 517.863 263.44C517.783 263.64 517.719 263.936 517.607 264.312C517.367 265.112 517.023 266.224 516.575 267.672C515.679 270.592 514.359 274.8 512.695 279.992C509.383 290.392 504.695 304.696 499.455 320.488C494.215 336.28 487.983 354.648 484.615 365.016" fill="#E0E0E0"/>
<path d="M497.672 287.264C497.805 287.461 497.92 287.67 498.016 287.888C498.224 288.296 498.504 288.904 498.816 289.648C499.496 291.144 500.416 293.232 501.304 295.552C502.192 297.872 503.032 299.912 503.704 301.496C503.984 302.208 504.232 302.816 504.424 303.296C504.533 303.508 504.614 303.734 504.664 303.968C504.531 303.77 504.416 303.561 504.32 303.344C504.112 302.936 503.832 302.336 503.52 301.584C502.856 300.08 502 297.984 501.072 295.664C500.144 293.344 499.312 291.312 498.672 289.736L497.936 287.936C497.82 287.724 497.731 287.498 497.672 287.264Z" fill="#E0E0E0"/>
<path d="M505.598 304C505.558 303.92 509.782 301.92 515.03 299.52C520.278 297.12 524.55 295.248 524.63 295.328C524.71 295.408 520.438 297.408 515.19 299.8C509.942 302.192 505.598 304.088 505.598 304Z" fill="#E0E0E0"/>
<path d="M496.434 327.903C496.667 327.828 496.909 327.78 497.154 327.759L499.114 327.471C500.762 327.231 503.05 326.887 505.554 326.407C508.058 325.927 510.306 325.439 511.954 325.055L513.882 324.615C514.115 324.543 514.357 324.5 514.602 324.487C514.38 324.588 514.15 324.668 513.914 324.727C513.466 324.863 512.818 325.055 512.01 325.271C510.41 325.703 508.138 326.239 505.61 326.711C503.082 327.183 500.81 327.511 499.138 327.687C498.338 327.783 497.634 327.847 497.162 327.879C496.92 327.908 496.676 327.916 496.434 327.903Z" fill="#E0E0E0"/>
<path d="M485.953 314.327C486.126 314.471 486.282 314.635 486.417 314.815L487.593 316.223C488.577 317.415 489.913 319.079 491.377 320.927C492.841 322.775 494.161 324.455 495.097 325.687L496.193 327.151C496.337 327.325 496.463 327.513 496.569 327.711C496.394 327.57 496.238 327.406 496.105 327.223L494.929 325.823C493.945 324.623 492.609 322.967 491.137 321.119C489.665 319.271 488.361 317.583 487.425 316.359L486.329 314.895C486.182 314.721 486.056 314.531 485.953 314.327Z" fill="#E0E0E0"/>
<path d="M475.199 334.399C475.415 334.589 475.611 334.801 475.783 335.031C476.183 335.495 476.687 336.103 477.295 336.823C478.567 338.343 480.295 340.463 482.199 342.815C484.103 345.167 485.807 347.303 486.999 348.863L488.439 350.711C488.623 350.934 488.786 351.172 488.927 351.423C488.716 351.228 488.521 351.017 488.343 350.791L486.831 348.999C485.567 347.471 483.831 345.359 481.927 343.007C480.023 340.655 478.319 338.519 477.127 336.959C476.551 336.215 476.063 335.591 475.695 335.103C475.507 334.886 475.341 334.65 475.199 334.399Z" fill="#E0E0E0"/>
<path d="M488.801 350.92C489.094 350.83 489.393 350.764 489.697 350.72L492.169 350.272C494.257 349.888 497.137 349.344 500.297 348.672C503.457 348 506.305 347.296 508.361 346.776L510.801 346.168C511.096 346.079 511.399 346.015 511.705 345.976C511.424 346.103 511.132 346.205 510.833 346.28C510.265 346.456 509.441 346.704 508.433 346.984C506.385 347.56 503.545 348.288 500.377 348.968C497.209 349.648 494.321 350.168 492.225 350.496C491.177 350.664 490.321 350.784 489.737 350.856C489.428 350.907 489.114 350.928 488.801 350.92Z" fill="#E0E0E0"/>
<path d="M540.002 364.664C540.002 364.776 430.09 364.872 294.546 364.872C159.002 364.872 49.0898 364.8 49.0898 364.664C49.0898 364.528 158.978 364.456 294.578 364.456C430.178 364.456 540.002 364.552 540.002 364.664Z" fill="#263238"/>
<path d="M389.886 86.2601L382.273 92.7705L392.434 104.651L400.046 98.1404L389.886 86.2601Z" fill="#263238"/>
<path d="M396.464 85.3361L380.8 98.7921L369.816 85.9921C374.136 79.9281 379.288 75.3521 385.456 72.5361L396.464 85.3361Z" fill="#455A64"/>
<path d="M383.441 96.5367C383.353 96.6167 380.705 93.7047 377.521 90.0487C374.337 86.3927 371.825 83.3687 371.921 83.2887C372.017 83.2087 374.657 86.1207 377.841 89.7767C381.025 93.4327 383.529 96.4647 383.441 96.5367Z" fill="#263238"/>
<path d="M386.398 93.9768C385.765 93.3609 385.176 92.7006 384.638 92.0008C383.582 90.7608 382.15 89.0408 380.574 87.1208L376.574 82.1928L375.374 80.6968C375.086 80.3288 374.934 80.1608 374.934 80.1368C375.094 79.9928 377.758 83.0248 380.91 86.8568C382.51 88.7768 383.886 90.5288 384.91 91.8168C385.468 92.4915 385.966 93.2143 386.398 93.9768Z" fill="#263238"/>
<path d="M390.398 90.5607C389.756 89.9468 389.159 89.2864 388.614 88.5847C387.55 87.3287 386.11 85.5767 384.526 83.6327L380.526 78.6247L379.326 77.0967C379.171 76.9145 379.032 76.7191 378.91 76.5127C379.597 77.0806 380.215 77.7277 380.75 78.4407C381.83 79.6807 383.286 81.4247 384.862 83.3687C386.438 85.3127 387.854 87.0967 388.862 88.4007C389.434 89.0763 389.948 89.7988 390.398 90.5607Z" fill="#263238"/>
<path d="M394.008 87.3606C393.92 87.4326 391.288 84.4966 388.128 80.8006C384.968 77.1046 382.488 74.0406 382.576 73.9606C382.664 73.8806 385.288 76.8246 388.448 80.5286C391.608 84.2326 394.096 87.2886 394.008 87.3606Z" fill="#263238"/>
<path d="M523.932 94.3467L517.012 87.1055L505.71 97.9053L512.63 105.147L523.932 94.3467Z" fill="#263238"/>
<path d="M524.264 101.472L510.008 86.5521L522.192 74.9121C528.464 78.9121 533.312 83.8161 536.44 89.8321L524.264 101.472Z" fill="#455A64"/>
<path d="M512.392 89.0564C512.312 88.9684 515.072 86.1684 518.56 82.8004C522.048 79.4324 524.96 76.7684 525.016 76.8484C525.072 76.9284 522.336 79.7284 518.848 83.1044C515.36 86.4804 512.472 89.1364 512.392 89.0564Z" fill="#263238"/>
<path d="M515.109 91.8965C515.678 91.2247 516.298 90.5987 516.965 90.0245C518.141 88.9045 519.789 87.3765 521.621 85.6965L526.333 81.4325L527.765 80.1525C528.109 79.8485 528.277 79.6965 528.301 79.6885C528.453 79.8405 525.565 82.6645 521.901 86.0085C520.069 87.6805 518.389 89.2085 517.157 90.2405C516.519 90.8454 515.835 91.3992 515.109 91.8965Z" fill="#263238"/>
<path d="M518.727 95.6802C519.302 95.0021 519.931 94.3708 520.607 93.7922C521.799 92.6642 523.471 91.1282 525.335 89.4482L530.135 85.1762L531.599 83.8962C531.777 83.7372 531.964 83.5876 532.159 83.4482C531.63 84.1661 531.017 84.8187 530.335 85.3922C529.151 86.5362 527.479 88.0802 525.623 89.7602C523.767 91.4402 522.055 92.9602 520.823 94.0162C520.168 94.6239 519.467 95.1802 518.727 95.6802Z" fill="#263238"/>
<path d="M522.111 99.129C522.031 99.041 524.831 96.265 528.359 92.913C531.887 89.561 534.815 86.921 534.895 87.009C534.975 87.097 532.175 89.873 528.647 93.217C525.119 96.561 522.191 99.201 522.111 99.129Z" fill="#263238"/>
<path d="M460.063 59.7764H448.207V78.2804H460.063V59.7764Z" fill="#263238"/>
<path d="M466.4 65.3127H442V45.3687C450.552 43.2567 458.712 43.1287 466.424 45.3687L466.4 65.3127Z" fill="#349F6E"/>
<path d="M466.712 45.4486C466.426 45.6274 466.124 45.7774 465.808 45.8966C464.973 46.2645 464.115 46.5797 463.24 46.8406C461.929 47.2443 460.593 47.5596 459.24 47.7846C457.597 48.0454 455.936 48.1844 454.272 48.2006C452.609 48.203 450.949 48.08 449.304 47.8326C447.952 47.6228 446.615 47.3208 445.304 46.9286C444.428 46.6723 443.568 46.3651 442.728 46.0086C442.41 45.8984 442.107 45.7507 441.824 45.5686C441.824 45.4966 443.168 46.0486 445.384 46.6406C446.685 46.9843 448.004 47.2514 449.336 47.4406C450.964 47.6608 452.605 47.7731 454.248 47.7766C455.892 47.7579 457.533 47.6296 459.16 47.3926C460.486 47.2008 461.8 46.9337 463.096 46.5926C465.368 45.9446 466.68 45.3766 466.712 45.4486Z" fill="#263238"/>
<path d="M450.063 65.2563C449.951 65.2563 449.855 61.4243 449.855 56.7043C449.855 51.9843 449.951 48.1523 450.063 48.1523C450.175 48.1523 450.271 51.9763 450.271 56.7043C450.271 61.4323 450.183 65.2563 450.063 65.2563Z" fill="#263238"/>
<path d="M454.712 65.3684C454.6 65.3684 454.504 61.5204 454.504 56.7764C454.504 52.0324 454.6 48.1924 454.712 48.1924C454.824 48.1924 454.92 52.0324 454.92 56.7764C454.92 61.5204 454.832 65.3684 454.712 65.3684Z" fill="#263238"/>
<path d="M459.36 65.2963C459.248 65.2963 459.152 61.4483 459.152 56.7043C459.152 51.9603 459.248 48.1123 459.36 48.1123C459.472 48.1123 459.568 51.9603 459.568 56.7043C459.568 61.4483 459.48 65.2963 459.36 65.2963Z" fill="#263238"/>
<path d="M463.2 65.2967C463.08 65.2967 462.992 61.1367 462.992 56.0087C462.992 50.8807 463.08 46.7207 463.2 46.7207C463.32 46.7207 463.408 50.8807 463.408 56.0087C463.408 61.1367 463.344 65.2967 463.2 65.2967Z" fill="#263238"/>
<path d="M445.673 65.1766C445.561 65.1766 445.465 61.0166 445.465 55.8886C445.465 50.7606 445.561 46.6006 445.673 46.6006C445.785 46.6006 445.881 50.7606 445.881 55.8886C445.881 61.0166 445.793 65.1766 445.673 65.1766Z" fill="#263238"/>
<path d="M513.701 219.818C547.389 186.13 547.389 131.511 513.701 97.8224C480.012 64.1342 425.393 64.1343 391.705 97.8224C358.017 131.511 358.017 186.13 391.705 219.818C425.393 253.506 480.012 253.506 513.701 219.818Z" fill="#349F6E"/>
<path d="M452.702 230.584C492.714 230.584 525.15 198.148 525.15 158.136C525.15 118.125 492.714 85.6885 452.702 85.6885C412.69 85.6885 380.254 118.125 380.254 158.136C380.254 198.148 412.69 230.584 452.702 230.584Z" fill="#FAFAFA"/>
<path d="M525.151 158.137C525.151 158.137 525.151 157.745 525.095 156.969C525.039 156.193 525.095 155.033 524.943 153.521C524.657 149.109 523.966 144.733 522.879 140.449C522.095 137.356 521.103 134.32 519.911 131.361C518.509 127.833 516.824 124.424 514.871 121.169C510.093 113.216 503.849 106.241 496.471 100.617C487.516 93.8036 477.092 89.1791 466.031 87.1126C456.656 85.3877 447.035 85.4991 437.703 87.4407C434.426 88.1521 431.198 89.074 428.039 90.2006C414.598 95.097 402.906 103.863 394.439 115.393C392.229 118.395 390.261 121.568 388.551 124.881C387.663 126.537 386.903 128.257 386.151 129.985C385.399 131.713 384.727 133.505 384.159 135.329C382.931 138.979 382.011 142.725 381.407 146.529C380.8 150.374 380.481 154.26 380.455 158.153C380.483 162.048 380.799 165.936 381.399 169.785C382.012 173.586 382.932 177.332 384.151 180.985C384.727 182.801 385.447 184.561 386.143 186.321C386.839 188.081 387.679 189.777 388.543 191.433C390.252 194.747 392.224 197.92 394.439 200.921C402.904 212.455 414.596 221.223 428.039 226.121C431.198 227.247 434.426 228.169 437.703 228.881C440.898 229.548 444.135 230 447.391 230.233C453.622 230.704 459.889 230.359 466.031 229.209C477.092 227.142 487.516 222.518 496.471 215.705C503.851 210.082 510.096 203.108 514.871 195.153C516.822 191.896 518.508 188.488 519.911 184.961C522.752 177.887 524.451 170.407 524.943 162.801C525.079 161.289 525.055 160.129 525.095 159.353C525.135 158.577 525.151 158.177 525.151 158.177C525.151 158.177 525.151 158.577 525.151 159.353C525.151 160.129 525.151 161.289 525.039 162.801C524.601 170.429 522.934 177.936 520.103 185.033C518.71 188.577 517.029 192.002 515.079 195.273C510.312 203.266 504.068 210.279 496.679 215.937C487.692 222.791 477.227 227.449 466.119 229.537C459.949 230.703 453.653 231.058 447.391 230.593C444.119 230.361 440.866 229.909 437.655 229.241C434.358 228.531 431.111 227.607 427.935 226.473C414.414 221.558 402.652 212.747 394.135 201.153C391.912 198.136 389.932 194.947 388.215 191.617C387.319 189.953 386.551 188.209 385.767 186.473C384.983 184.737 384.343 182.937 383.767 181.105C382.54 177.437 381.614 173.675 380.999 169.857C379.73 162.111 379.73 154.21 380.999 146.465C381.617 142.663 382.543 138.917 383.767 135.265C384.351 133.433 385.071 131.665 385.775 129.897C386.479 128.129 387.319 126.425 388.215 124.761C389.938 121.432 391.92 118.243 394.143 115.225C402.656 103.632 414.416 94.8233 427.935 89.9126C431.109 88.7796 434.353 87.8549 437.647 87.1446C440.861 86.4769 444.116 86.0252 447.391 85.7926C453.65 85.3277 459.944 85.6827 466.111 86.8486C477.222 88.9275 487.689 93.5858 496.671 100.449C504.06 106.11 510.304 113.125 515.071 121.121C518.654 127.156 521.349 133.676 523.071 140.481C524.138 144.78 524.805 149.17 525.063 153.593C525.183 155.105 525.143 156.265 525.175 157.041C525.207 157.817 525.151 158.137 525.151 158.137Z" fill="#263238"/>
<path d="M514.52 155.513C512.224 155.609 510.352 155.513 510.344 155.313C510.336 155.113 512.184 154.841 514.48 154.713C516.776 154.585 518.648 154.665 518.664 154.905C518.68 155.145 516.8 155.417 514.52 155.513Z" fill="#263238"/>
<path d="M512.977 172.192C510.737 171.664 508.977 171.08 508.977 170.88C508.977 170.68 510.881 170.92 513.129 171.408C515.377 171.896 517.129 172.488 517.129 172.72C517.129 172.952 515.201 172.712 512.977 172.192Z" fill="#263238"/>
<path d="M507 187.833C504.976 186.729 503.424 185.681 503.52 185.505C503.616 185.329 505.344 186.057 507.376 187.105C509.408 188.153 510.968 189.233 510.856 189.441C510.744 189.649 509.016 188.945 507 187.833Z" fill="#263238"/>
<path d="M497.04 201.304C495.392 199.704 494.168 198.28 494.312 198.104C494.456 197.928 495.912 199.12 497.592 200.704C499.272 202.288 500.48 203.704 500.32 203.904C500.16 204.104 498.68 202.912 497.04 201.304Z" fill="#263238"/>
<path d="M483.839 211.624C482.687 209.632 481.887 207.936 482.063 207.832C482.239 207.728 483.343 209.248 484.527 211.216C485.711 213.184 486.511 214.88 486.311 215.008C486.111 215.136 484.999 213.6 483.839 211.624Z" fill="#263238"/>
<path d="M468.358 218.017C467.782 215.785 467.47 213.937 467.67 213.889C467.87 213.841 468.518 215.593 469.134 217.809C469.75 220.025 470.054 221.873 469.822 221.937C469.59 222.001 468.934 220.241 468.358 218.017Z" fill="#263238"/>
<path d="M451.728 220C451.728 217.696 451.96 215.832 452.16 215.832C452.36 215.832 452.528 217.704 452.528 220C452.528 222.296 452.328 224.168 452.096 224.168C451.864 224.168 451.688 222.312 451.728 220Z" fill="#263238"/>
<path d="M435.201 217.497C435.857 215.289 436.545 213.553 436.745 213.609C436.945 213.665 436.593 215.505 435.945 217.721C435.297 219.937 434.633 221.721 434.401 221.609C434.169 221.497 434.505 219.705 435.201 217.497Z" fill="#263238"/>
<path d="M419.894 210.609C421.118 208.665 422.246 207.169 422.422 207.273C422.598 207.377 421.766 209.065 420.574 211.033C419.382 213.001 418.246 214.489 418.046 214.369C417.846 214.249 418.67 212.561 419.894 210.609Z" fill="#263238"/>
<path d="M407.022 199.889C408.726 198.337 410.222 197.201 410.35 197.353C410.478 197.505 409.246 198.897 407.566 200.473C405.886 202.049 404.406 203.185 404.238 203.017C404.07 202.849 405.326 201.441 407.022 199.889Z" fill="#263238"/>
<path d="M397.487 186.112C399.543 185.08 401.287 184.384 401.375 184.56C401.463 184.736 399.895 185.752 397.855 186.824C395.815 187.896 394.079 188.592 393.967 188.376C393.855 188.16 395.439 187.152 397.487 186.112Z" fill="#263238"/>
<path d="M392.001 170.288C394.265 169.84 396.129 169.64 396.169 169.84C396.209 170.04 394.417 170.592 392.169 171.072C389.921 171.552 388.049 171.752 388.001 171.52C387.953 171.288 389.761 170.736 392.001 170.288Z" fill="#263238"/>
<path d="M390.985 153.6C393.281 153.768 395.129 154.072 395.121 154.272C395.113 154.472 393.233 154.528 390.937 154.392C388.641 154.256 386.785 153.96 386.801 153.72C386.817 153.48 388.689 153.392 390.985 153.6Z" fill="#263238"/>
<path d="M394.465 137.176C396.633 137.976 398.329 138.776 398.265 138.944C398.201 139.112 396.377 138.68 394.201 137.928C392.025 137.176 390.329 136.392 390.401 136.168C390.473 135.944 392.305 136.392 394.465 137.176Z" fill="#263238"/>
<path d="M402.233 122.336C404.105 123.672 405.529 124.888 405.433 125.056C405.337 125.224 403.689 124.296 401.793 122.992C399.897 121.688 398.473 120.472 398.593 120.272C398.713 120.072 400.353 121 402.233 122.336Z" fill="#263238"/>
<path d="M413.68 110.112C415.128 111.896 416.176 113.448 416.024 113.584C415.872 113.72 414.536 112.384 413.064 110.616C411.592 108.848 410.536 107.304 410.72 107.152C410.904 107 412.232 108.328 413.68 110.112Z" fill="#263238"/>
<path d="M427.998 101.392C428.91 103.504 429.511 105.28 429.319 105.392C429.127 105.504 428.215 103.84 427.271 101.744C426.327 99.6482 425.726 97.8722 425.942 97.7442C426.158 97.6162 427.062 99.2882 427.998 101.392Z" fill="#263238"/>
<path d="M444.111 96.8564C444.423 99.1364 444.519 101.008 444.311 101.04C444.103 101.072 443.663 99.2484 443.319 96.9764C442.975 94.7044 442.879 92.8244 443.111 92.7924C443.343 92.7604 443.799 94.5764 444.111 96.8564Z" fill="#263238"/>
<path d="M460.863 96.8006C460.559 99.0806 460.151 100.913 459.951 100.889C459.751 100.865 459.799 98.9846 460.071 96.7046C460.343 94.4246 460.751 92.5846 460.983 92.6166C461.215 92.6486 461.167 94.5126 460.863 96.8006Z" fill="#263238"/>
<path d="M477.014 101.225C476.11 103.345 475.222 104.993 475.03 104.913C474.838 104.833 475.406 103.049 476.278 100.913C477.15 98.7765 478.046 97.1365 478.262 97.2325C478.478 97.3285 477.926 99.1125 477.014 101.225Z" fill="#263238"/>
<path d="M491.381 109.841C489.941 111.641 488.645 112.993 488.485 112.865C488.325 112.737 489.341 111.161 490.757 109.345C492.173 107.529 493.461 106.145 493.653 106.329C493.845 106.513 492.797 108.049 491.381 109.841Z" fill="#263238"/>
<path d="M502.927 121.984C501.055 123.328 499.447 124.288 499.327 124.12C499.207 123.952 500.608 122.712 502.456 121.336C504.304 119.96 505.912 119.008 506.056 119.2C506.2 119.392 504.799 120.64 502.927 121.984Z" fill="#263238"/>
<path d="M510.791 136.801C508.631 137.601 506.791 138.073 506.743 137.889C506.695 137.705 508.343 136.873 510.511 136.049C512.679 135.225 514.463 134.737 514.551 134.961C514.639 135.185 512.951 136.001 510.791 136.801Z" fill="#263238"/>
<path d="M514.399 153.136C512.103 153.32 510.231 153.304 510.215 153.136C510.199 152.968 512.039 152.6 514.327 152.336C516.615 152.072 518.495 152.136 518.511 152.376C518.527 152.616 516.671 152.952 514.399 153.136Z" fill="#263238"/>
<path d="M424.566 79.7607L424.318 79.8727L423.582 80.1687C422.942 80.4407 421.982 80.7687 420.758 81.3047C417.31 82.7465 413.961 84.4169 410.734 86.3047C408.686 87.4887 406.518 88.9047 404.238 90.4967C401.958 92.0887 399.63 93.9447 397.302 96.0327C387.082 105.042 379.274 116.463 374.59 129.257C373.494 132.185 372.67 135.049 371.958 137.729C371.246 140.409 370.766 142.969 370.406 145.305C369.822 148.996 369.483 152.721 369.39 156.457C369.326 157.785 369.39 158.809 369.39 159.505C369.39 159.841 369.39 160.097 369.39 160.305C369.398 160.395 369.398 160.486 369.39 160.577C369.38 160.489 369.38 160.4 369.39 160.313C369.39 160.113 369.39 159.849 369.39 159.513C369.39 158.817 369.302 157.793 369.342 156.465C369.371 152.715 369.668 148.972 370.23 145.265C370.566 142.913 371.086 140.361 371.734 137.649C372.457 134.766 373.328 131.922 374.342 129.129C379.003 116.249 386.856 104.762 397.166 95.7447C399.51 93.6567 401.894 91.8567 404.15 90.2167C406.406 88.5767 408.63 87.2167 410.702 86.0487C413.951 84.1804 417.327 82.5443 420.806 81.1527C422.03 80.6407 423.014 80.3527 423.67 80.0887L424.422 79.8327C424.469 79.8052 424.517 79.7812 424.566 79.7607Z" fill="white"/>
<path d="M448.645 75.0882C447.823 75.259 446.988 75.3686 446.149 75.4162C444.597 75.5762 442.469 75.8082 440.117 76.1122C437.765 76.4162 435.645 76.7362 434.109 76.9762C433.286 77.1453 432.452 77.2523 431.613 77.2962C432.409 77.0188 433.228 76.8153 434.061 76.6882C435.589 76.3762 437.709 76.0082 440.061 75.7042C442.413 75.4002 444.565 75.2082 446.125 75.1202C446.962 75.0307 447.806 75.02 448.645 75.0882Z" fill="white"/>
<g opacity="0.4">
<path d="M394.801 201.689C394.801 201.689 432.345 260.937 490.585 230.593C551.385 198.913 517.785 126.297 517.785 126.297C517.785 126.297 546.393 184.169 487.129 221.897C472.369 231.297 456.297 231.305 444.041 230.073C412.721 226.937 394.801 201.689 394.801 201.689Z" fill="black"/>
</g>
<path d="M472.895 119.633C473.256 130.258 472.935 140.896 471.935 151.481C471.567 155.313 471.135 159.185 469.655 162.745C468.175 166.305 465.655 169.569 462.103 171.073C458.551 172.577 454.007 171.953 451.535 169.009L472.895 119.633Z" fill="#E0E0E0"/>
<path d="M451.129 152.425L477.457 108.089L461.569 158.145L453.449 160.569L451.129 152.425Z" fill="#349F6E"/>
<g opacity="0.4">
<path d="M477.454 108.089L457.926 153.393L461.566 158.145L477.454 108.089Z" fill="black"/>
</g>
<path d="M453.449 169.041C458.128 169.041 461.921 165.248 461.921 160.569C461.921 155.89 458.128 152.097 453.449 152.097C448.77 152.097 444.977 155.89 444.977 160.569C444.977 165.248 448.77 169.041 453.449 169.041Z" fill="#FAFAFA"/>
<path d="M461.917 160.569C461.841 159.88 461.726 159.196 461.573 158.521C461.083 156.696 459.996 155.088 458.485 153.953C457.376 153.118 456.075 152.574 454.701 152.372C453.327 152.169 451.925 152.314 450.621 152.793C449.871 153.058 449.167 153.439 448.533 153.921C447.859 154.41 447.267 155.004 446.781 155.681C445.741 157.098 445.181 158.811 445.181 160.569C445.181 162.327 445.741 164.039 446.781 165.457C447.753 166.775 449.087 167.781 450.621 168.353C451.716 168.754 452.883 168.922 454.046 168.847C455.21 168.771 456.345 168.453 457.378 167.913C458.412 167.373 459.321 166.623 460.047 165.711C460.774 164.799 461.302 163.745 461.597 162.617C461.752 161.941 461.867 161.258 461.941 160.569C461.991 161.27 461.929 161.975 461.757 162.657C461.32 164.564 460.234 166.261 458.685 167.457C457.623 168.281 456.382 168.843 455.061 169.097C453.542 169.387 451.973 169.266 450.517 168.745C449.726 168.472 448.984 168.075 448.317 167.569C447.61 167.057 446.989 166.436 446.477 165.729C445.376 164.246 444.781 162.448 444.781 160.601C444.781 158.754 445.376 156.956 446.477 155.473C446.991 154.767 447.612 154.146 448.317 153.633C448.987 153.134 449.729 152.74 450.517 152.465C451.973 151.94 453.543 151.819 455.061 152.113C456.675 152.423 458.164 153.192 459.352 154.327C460.54 155.462 461.375 156.915 461.757 158.513C461.917 159.186 461.971 159.879 461.917 160.569Z" fill="#263238"/>
<path d="M459.654 161.839C460.344 158.427 458.137 155.101 454.724 154.411C451.312 153.721 447.986 155.928 447.296 159.341C446.606 162.753 448.813 166.079 452.226 166.769C455.638 167.459 458.964 165.252 459.654 161.839Z" fill="#455A64"/>
<path d="M386.656 363.911H428.336L408.904 196.439L386.656 363.911Z" fill="#E0E0E0"/>
<path d="M181.566 196.439L154.43 365.887L385.99 368.903L408.902 196.439H181.566Z" fill="#FAFAFA"/>
<path d="M398.589 274.063H169.133L174.125 242.863H402.733L398.589 274.063Z" fill="#EBEBEB"/>
<path d="M398.605 274.088H169.109L174.109 242.888H402.757L398.605 274.088ZM169.157 274.048H398.573L402.709 242.848H174.149L169.157 274.048Z" fill="#263238"/>
<path d="M181.565 196.439L174.125 242.863H402.733L408.901 196.439H181.565Z" fill="#349F6E"/>
<path d="M181.598 196.44L408.934 196.248H409.15V196.464C402.454 246.952 394.854 304.208 386.822 364.68V364.864H384.038L154.622 364.8H154.398V364.6L181.598 196.44C181.374 197.832 171.038 262.8 154.822 364.68L154.654 364.48H383.982H386.582L386.382 364.656C394.422 304.184 402.038 246.936 408.782 196.448L408.966 196.656L181.598 196.44Z" fill="#263238"/>
<path d="M402.733 242.863C402.733 242.975 351.533 243.071 288.437 243.071C225.341 243.071 174.125 242.975 174.125 242.863C174.125 242.751 225.325 242.655 288.437 242.655C351.549 242.655 402.733 242.743 402.733 242.863Z" fill="#263238"/>
<path d="M398.591 274.063C398.591 274.183 347.119 274.271 283.647 274.271C220.175 274.271 168.695 274.183 168.695 274.063C168.695 273.943 220.151 273.855 283.647 273.855C347.143 273.855 398.591 273.951 398.591 274.063Z" fill="#263238"/>
<path d="M393.92 302.775C393.92 302.895 342.456 302.983 278.984 302.983C215.512 302.983 164 302.895 164 302.775C164 302.655 215.456 302.567 278.952 302.567C342.448 302.567 393.92 302.663 393.92 302.775Z" fill="#263238"/>
<path d="M389.255 331.487C389.255 331.599 337.783 331.695 274.311 331.695C210.839 331.695 159.359 331.599 159.359 331.487C159.359 331.375 210.815 331.279 274.311 331.279C337.807 331.279 389.255 331.375 389.255 331.487Z" fill="#263238"/>
<path d="M186.936 364.911C186.824 364.911 191.024 337.551 196.328 303.855C201.632 270.159 206.008 242.839 206.12 242.863C206.232 242.887 202.032 270.207 196.736 303.919C191.44 337.631 187.056 364.927 186.936 364.911Z" fill="#263238"/>
<path d="M222.319 364.911C222.199 364.911 226.407 337.551 231.703 303.855C236.999 270.159 241.383 242.839 241.503 242.863C241.623 242.887 237.415 270.207 232.111 303.919C226.807 337.631 222.399 364.927 222.319 364.911Z" fill="#263238"/>
<path d="M255.198 363.687C255.086 363.687 259.246 336.607 264.486 303.247C269.726 269.887 274.086 242.839 274.19 242.863C274.294 242.887 270.142 269.935 264.902 303.311C259.662 336.687 255.302 363.703 255.198 363.687Z" fill="#263238"/>
<path d="M287.717 364.655C287.605 364.655 291.797 337.351 297.085 303.727C302.373 270.103 306.749 242.839 306.861 242.863C306.973 242.887 302.781 270.151 297.493 303.791C292.205 337.431 287.829 364.671 287.717 364.655Z" fill="#263238"/>
<path d="M320.397 364.655C320.285 364.655 324.477 337.351 329.765 303.727C335.053 270.103 339.429 242.839 339.541 242.863C339.653 242.887 335.469 270.151 330.181 303.791C324.893 337.431 320.517 364.671 320.397 364.655Z" fill="#263238"/>
<path d="M353.053 364.8C352.941 364.8 357.141 337.464 362.437 303.784C367.733 270.104 372.109 242.808 372.229 242.832C372.349 242.856 368.141 270.16 362.845 303.848C357.549 337.536 353.165 364.848 353.053 364.8Z" fill="#263238"/>
<g opacity="0.2">
<path d="M332.495 245.04C336.431 243.296 338.895 239.2 339.911 235.016C340.927 230.832 340.767 226.464 340.919 222.152C341.071 217.84 341.583 213.4 343.783 209.696C345.087 207.512 346.919 205.696 348.367 203.592C349.815 201.488 350.887 198.928 350.351 196.392L325.727 196.52L332.495 245.04Z" fill="black"/>
</g>
<path d="M230.398 276.376C230.332 276.483 230.251 276.58 230.158 276.664L229.422 277.464C228.774 278.128 227.822 279.064 226.622 280.232C224.222 282.536 220.886 285.672 217.086 289.032C213.286 292.392 209.766 295.32 207.182 297.4C205.886 298.44 204.83 299.272 204.094 299.8L203.238 300.44C203.143 300.523 203.035 300.591 202.918 300.64C202.918 300.64 203.006 300.536 203.182 300.376L203.982 299.672L206.982 297.136C209.526 295 213.014 292.032 216.806 288.688C220.598 285.344 224.006 282.24 226.406 279.992L229.294 277.328L230.094 276.616C230.185 276.523 230.287 276.443 230.398 276.376Z" fill="#263238"/>
<path d="M228.55 300.959C228.21 300.663 227.892 300.342 227.598 299.999L225.094 297.327C222.934 295.031 220.038 291.943 216.846 288.527L208.51 279.807L205.982 277.159C205.663 276.844 205.366 276.508 205.094 276.151C205.456 276.419 205.793 276.719 206.102 277.047C206.726 277.639 207.622 278.511 208.718 279.599C210.91 281.775 213.902 284.823 217.142 288.247C220.382 291.671 223.262 294.823 225.31 297.135C226.334 298.287 227.158 299.231 227.71 299.887C228.022 300.218 228.303 300.577 228.55 300.959Z" fill="#263238"/>
<path d="M237.094 283.728C237.094 283.728 237.174 283.52 237.342 283.112C237.608 282.52 237.929 281.955 238.302 281.424C239.773 279.369 241.848 277.822 244.238 277C245.95 276.381 247.776 276.141 249.59 276.296C251.75 276.506 253.832 277.215 255.67 278.368C257.793 279.676 259.586 281.456 260.91 283.568C262.442 285.927 263.205 288.702 263.094 291.512C263.002 293.028 262.532 294.497 261.726 295.784C260.882 297.119 259.757 298.255 258.43 299.112C255.605 300.924 252.278 301.795 248.926 301.6C247.171 301.506 245.442 301.13 243.806 300.488C242.104 299.823 240.573 298.784 239.326 297.448C238.707 296.745 238.185 295.962 237.774 295.12C237.383 294.26 237.114 293.35 236.974 292.416C236.709 290.502 236.875 288.553 237.462 286.712C238.686 282.873 241.338 279.651 244.87 277.712C246.702 276.706 248.739 276.133 250.826 276.038C252.913 275.942 254.995 276.326 256.91 277.16C258.895 277.996 260.633 279.327 261.958 281.024C263.286 282.768 264.115 284.838 264.358 287.016C264.635 289.225 264.277 291.467 263.326 293.48C262.838 294.49 262.196 295.419 261.422 296.232C260.635 297.034 259.748 297.73 258.782 298.304C256.834 299.377 254.686 300.037 252.471 300.244C250.257 300.45 248.023 300.198 245.91 299.504C243.83 298.865 241.917 297.772 240.31 296.304C238.717 294.835 237.628 292.9 237.198 290.776C236.748 288.688 237.045 286.507 238.038 284.616C238.542 283.684 239.234 282.867 240.07 282.216C240.894 281.595 241.812 281.111 242.79 280.784C244.711 280.168 246.727 279.897 248.742 279.984C250.705 279.998 252.657 280.267 254.55 280.784C256.422 281.276 258.151 282.203 259.598 283.488C260.984 284.782 261.93 286.477 262.302 288.336C262.67 290.133 262.562 291.994 261.99 293.736C261.424 295.416 260.467 296.938 259.198 298.176C256.788 300.532 253.597 301.922 250.23 302.08C248.655 302.163 247.078 301.935 245.59 301.408C244.162 300.896 242.878 300.048 241.846 298.936C240.87 297.875 240.13 296.618 239.678 295.248C239.233 293.964 239.035 292.606 239.094 291.248C239.208 288.733 240.212 286.34 241.926 284.496C243.392 282.892 245.246 281.694 247.31 281.016C249.043 280.452 250.878 280.277 252.686 280.504C255.185 280.815 257.559 281.771 259.574 283.28C260.098 283.665 260.592 284.087 261.054 284.544C261.366 284.856 261.518 285.024 261.518 285.024C261.518 285.024 261.342 284.872 261.03 284.576C260.555 284.135 260.053 283.723 259.526 283.344C257.507 281.88 255.147 280.958 252.67 280.664C250.717 280.438 248.739 280.683 246.9 281.379C245.061 282.075 243.416 283.202 242.102 284.664C240.432 286.468 239.46 288.808 239.358 291.264C239.304 292.596 239.502 293.926 239.942 295.184C240.388 296.513 241.111 297.731 242.062 298.76C243.065 299.837 244.31 300.66 245.694 301.16C247.145 301.664 248.68 301.882 250.214 301.8C253.5 301.638 256.612 300.274 258.958 297.968C260.184 296.769 261.108 295.297 261.654 293.672C262.202 291.988 262.301 290.19 261.942 288.456C261.582 286.671 260.673 285.043 259.342 283.8C257.935 282.563 256.259 281.67 254.446 281.192C252.584 280.682 250.665 280.413 248.734 280.392C246.766 280.318 244.801 280.589 242.926 281.192C241.014 281.777 239.396 283.067 238.398 284.8C237.451 286.609 237.168 288.692 237.598 290.688C238.013 292.729 239.063 294.585 240.598 295.992C242.155 297.431 244.014 298.502 246.038 299.128C248.095 299.805 250.268 300.05 252.424 299.849C254.58 299.648 256.67 299.005 258.566 297.96C259.503 297.411 260.361 296.738 261.118 295.96C261.861 295.18 262.479 294.289 262.95 293.32C263.871 291.378 264.218 289.213 263.95 287.08C263.722 284.978 262.928 282.976 261.654 281.288C260.373 279.647 258.693 278.361 256.774 277.552C254.916 276.74 252.895 276.365 250.869 276.457C248.843 276.548 246.864 277.104 245.086 278.08C241.653 279.97 239.076 283.106 237.886 286.84C237.316 288.627 237.149 290.517 237.398 292.376C237.542 293.278 237.811 294.156 238.198 294.984C238.594 295.793 239.095 296.546 239.686 297.224C240.893 298.518 242.375 299.524 244.022 300.168C245.622 300.801 247.313 301.173 249.03 301.272C252.31 301.473 255.568 300.633 258.342 298.872C259.624 298.087 260.704 297.012 261.495 295.734C262.285 294.456 262.765 293.01 262.894 291.512C263.006 288.764 262.266 286.048 260.774 283.736C259.48 281.65 257.722 279.89 255.638 278.592C253.833 277.449 251.788 276.74 249.662 276.52C247.876 276.351 246.073 276.574 244.382 277.176C242.014 277.977 239.947 279.485 238.462 281.496C238.079 282.018 237.747 282.575 237.47 283.16C237.198 283.528 237.094 283.728 237.094 283.728Z" fill="#349F6E"/>
<path d="M258.765 305.816C258.837 305.904 252.493 311.328 244.589 317.936C236.685 324.544 230.189 329.816 230.141 329.728C230.093 329.64 236.413 324.216 244.317 317.616C252.221 311.016 258.693 305.728 258.765 305.816Z" fill="#263238"/>
<path d="M260.152 329.016C259.776 328.795 259.42 328.54 259.088 328.256L256.272 326.064C253.912 324.192 250.672 321.584 247.104 318.688C243.536 315.792 240.328 313.152 238.016 311.224L235.288 308.92C234.942 308.656 234.621 308.362 234.328 308.04C234.703 308.264 235.059 308.518 235.392 308.8L238.2 310.992C240.56 312.864 243.8 315.472 247.368 318.368C250.936 321.264 254.144 323.904 256.464 325.832L259.184 328.128C259.528 328.4 259.851 328.697 260.152 329.016Z" fill="#263238"/>
<path d="M325.552 306.127C325.616 306.215 319.552 310.863 311.992 316.527C304.432 322.191 298.256 326.663 298.184 326.567C298.112 326.471 304.184 321.831 311.744 316.167C319.304 310.503 325.48 306.031 325.552 306.127Z" fill="#263238"/>
<path d="M327.904 325.808C327.848 325.904 321.4 321.912 313.504 316.88C305.608 311.848 299.28 307.704 299.336 307.6C299.392 307.496 305.84 311.504 313.736 316.528C321.632 321.552 328 325.712 327.904 325.808Z" fill="#263238"/>
<path d="M259.806 364.664C259.718 364.584 266.022 357.976 273.878 349.92C281.734 341.864 288.174 335.376 288.278 335.456C288.382 335.536 282.062 342.144 274.206 350.208C266.35 358.272 259.886 364.744 259.806 364.664Z" fill="#349F6E"/>
<path d="M286.454 364.655C286.454 364.655 286.35 364.567 286.19 364.375L285.518 363.575C284.894 362.775 284.062 361.743 283.046 360.479C280.958 357.871 277.998 354.327 274.566 350.559C271.134 346.791 267.878 343.519 265.478 341.199L262.63 338.399L261.83 337.647C261.738 337.563 261.654 337.469 261.582 337.367C261.582 337.367 261.702 337.431 261.886 337.583L262.686 338.279C263.398 338.887 264.406 339.791 265.638 340.927C268.086 343.199 271.382 346.447 274.83 350.223C278.278 353.999 281.23 357.583 283.23 360.239C284.254 361.567 285.062 362.639 285.63 363.439L286.246 364.319C286.329 364.422 286.399 364.535 286.454 364.655Z" fill="#349F6E"/>
<path d="M220.967 331.008C220.967 331.008 221.223 350.664 216.263 362.432L186.031 357.28C186.031 357.28 195.135 338.656 192.655 328.304L220.967 331.008Z" fill="#EBEBEB"/>
<path d="M220.957 330.272C220.957 330.272 217.165 354.4 214.845 361.6L184.797 355.632C184.797 355.632 190.981 332.304 190.901 325.808L220.957 330.272Z" fill="#349F6E"/>
<path d="M193.949 336.624C193.949 336.736 198.413 337.776 203.973 338.944C209.533 340.112 214.053 340.968 214.077 340.864C214.101 340.76 209.613 339.712 204.053 338.544C198.493 337.376 193.973 336.512 193.949 336.624Z" fill="white"/>
<path d="M193.184 341.735C193.184 341.847 197.648 342.879 203.208 344.055C208.768 345.231 213.288 346.079 213.312 345.975C213.336 345.871 208.848 344.823 203.288 343.655C197.728 342.487 193.208 341.599 193.184 341.735Z" fill="white"/>
<path d="M197.598 347.52C198.11 347.742 198.647 347.903 199.198 348C200.23 348.248 201.662 348.576 203.238 348.912C204.814 349.248 206.262 349.52 207.31 349.712C207.869 349.852 208.445 349.922 209.022 349.92C208.49 349.695 207.934 349.532 207.366 349.432C206.342 349.176 204.91 348.848 203.326 348.52C201.742 348.192 200.302 347.904 199.262 347.72C198.717 347.586 198.158 347.519 197.598 347.52Z" fill="white"/>
<path d="M364 275.815C364 275.815 367.096 294.967 363.96 307.183L333.688 306.535C333.688 306.535 339.88 287.031 335.952 277.279L364 275.815Z" fill="#EBEBEB"/>
<path d="M363.863 275.096C363.863 275.096 363.663 299.184 362.439 306.536L332.223 305.104C332.223 305.104 334.871 281.424 333.823 275.096H363.863Z" fill="#455A64"/>
<path d="M338.109 285.815C338.109 285.927 342.653 286.023 348.261 286.031C353.869 286.039 358.421 285.959 358.421 285.847C358.421 285.735 353.877 285.639 348.261 285.631C342.645 285.623 338.109 285.703 338.109 285.815Z" fill="white"/>
<path d="M338.398 290.912C338.398 291.024 342.942 291.12 348.55 291.128C354.158 291.136 358.71 291.056 358.71 290.944C358.71 290.832 354.166 290.736 348.55 290.728C342.934 290.72 338.398 290.8 338.398 290.912Z" fill="white"/>
<path d="M343.812 295.608C344.37 295.727 344.939 295.778 345.509 295.76C346.557 295.76 348.005 295.816 349.605 295.824C351.205 295.832 352.645 295.824 353.693 295.768C354.261 295.791 354.831 295.745 355.389 295.632C354.831 295.513 354.262 295.464 353.693 295.488C352.645 295.448 351.205 295.424 349.605 295.416C348.005 295.408 346.557 295.416 345.509 295.472C344.94 295.449 344.37 295.495 343.812 295.608Z" fill="white"/>
<path d="M370.398 220.592C364.75 220.592 359.062 217.048 356.07 211.472C353.162 205.919 352.26 199.532 353.518 193.392C355.174 185.392 360.47 178.832 367.014 176.736C372.574 174.952 382.51 175.936 387.198 183.784C389.432 187.621 390.54 192.01 390.398 196.448C390.377 196.763 390.294 197.071 390.154 197.354C390.014 197.637 389.82 197.89 389.582 198.098C389.345 198.306 389.068 198.465 388.769 198.566C388.47 198.667 388.153 198.709 387.838 198.688C387.202 198.645 386.608 198.352 386.188 197.872C385.768 197.391 385.556 196.764 385.598 196.128C385.642 192.663 384.752 189.25 383.022 186.248C379.406 180.208 371.478 180.328 368.422 181.304C362.822 183.096 359.238 189.152 358.158 194.36C357.121 199.402 357.859 204.647 360.246 209.208C362.606 213.608 367.382 216.344 371.614 215.696C372.239 215.609 372.873 215.771 373.379 216.148C373.885 216.525 374.222 217.085 374.317 217.709C374.413 218.332 374.26 218.968 373.89 219.479C373.52 219.99 372.964 220.335 372.342 220.44C371.699 220.539 371.049 220.59 370.398 220.592Z" fill="#263238"/>
<path d="M215.455 220.592C209.799 220.592 204.119 217.048 201.127 211.472C198.216 205.92 197.311 199.533 198.567 193.392C199.967 186.64 204.703 178.864 212.167 176.72C215.766 175.745 219.581 175.938 223.063 177.272L221.335 181.752C218.829 180.799 216.089 180.651 213.495 181.328C207.991 182.928 204.407 189.024 203.303 194.36C202.266 199.402 203.003 204.647 205.391 209.208C207.751 213.616 212.535 216.344 216.759 215.696L217.487 220.44C216.815 220.544 216.135 220.594 215.455 220.592Z" fill="#263238"/>
<path d="M368.423 196.567L366.215 208.655H398.703L401.591 196.687L368.423 196.567Z" fill="#349F6E"/>
<path d="M223.688 218.68C223.689 219.702 223.387 220.703 222.82 221.554C222.253 222.405 221.446 223.068 220.501 223.461C219.556 223.853 218.517 223.956 217.513 223.757C216.51 223.557 215.588 223.065 214.865 222.342C214.142 221.619 213.65 220.697 213.45 219.694C213.251 218.691 213.354 217.651 213.746 216.706C214.139 215.761 214.802 214.954 215.653 214.387C216.504 213.82 217.505 213.518 218.528 213.52C219.895 213.522 221.207 214.066 222.174 215.033C223.141 216 223.685 217.312 223.688 218.68Z" fill="#263238"/>
<path d="M378.496 218.68C378.498 219.702 378.196 220.703 377.629 221.554C377.061 222.405 376.254 223.068 375.31 223.461C374.365 223.853 373.325 223.956 372.322 223.757C371.319 223.557 370.397 223.065 369.674 222.342C368.951 221.619 368.458 220.697 368.259 219.694C368.06 218.691 368.163 217.651 368.555 216.706C368.947 215.761 369.611 214.954 370.462 214.387C371.313 213.82 372.313 213.518 373.336 213.52C374.704 213.522 376.015 214.066 376.982 215.033C377.95 216 378.494 217.312 378.496 218.68Z" fill="#263238"/>
<path d="M293.238 118.656L284.742 150.88L255.414 154.032V159.232L296.622 160.68L304.366 124.528L293.238 118.656Z" fill="#FFBE9D"/>
<path d="M305.599 161.536C305.599 161.536 259.775 159.352 246.727 169.536C233.679 179.72 239.999 196.44 239.999 196.44L313.743 196.248L320.255 158.864L305.599 161.536Z" fill="#263238"/>
<path d="M313.398 186.2C313.176 186.206 312.954 186.19 312.734 186.152C312.302 186.104 311.67 186.04 310.854 185.936C309.254 185.736 306.854 185.4 303.974 184.912C296.413 183.626 288.933 181.898 281.574 179.736C277.27 178.464 273.198 177.184 269.438 176.248C266.119 175.389 262.725 174.854 259.302 174.648C256.993 174.519 254.677 174.653 252.398 175.048C251.598 175.144 250.982 175.352 250.55 175.424C250.337 175.477 250.121 175.517 249.902 175.544C250.106 175.457 250.318 175.39 250.534 175.344C251.136 175.157 251.747 175.005 252.366 174.888C254.65 174.427 256.982 174.247 259.31 174.352C262.782 174.518 266.228 175.03 269.598 175.88C273.382 176.792 277.462 178.072 281.75 179.344C289.07 181.488 296.496 183.247 303.998 184.616C306.886 185.144 309.23 185.52 310.854 185.776L312.726 186.072C312.954 186.096 313.178 186.139 313.398 186.2Z" fill="#455A64"/>
<path d="M270.805 176C269.532 174.95 268.176 174.005 266.749 173.176C265.254 172.476 263.705 171.898 262.117 171.448C262.61 171.405 263.106 171.454 263.581 171.592C264.751 171.844 265.881 172.253 266.941 172.808C268 173.366 268.979 174.063 269.853 174.88C270.237 175.191 270.56 175.571 270.805 176Z" fill="#455A64"/>
<path d="M310.454 261.144L311.07 280.4L307.198 295.776C307.135 296.039 307.128 296.312 307.175 296.579C307.223 296.845 307.325 297.099 307.475 297.324C307.625 297.55 307.82 297.742 308.048 297.888C308.276 298.034 308.531 298.132 308.798 298.176C309.108 298.232 309.426 298.213 309.727 298.122C310.027 298.03 310.301 297.867 310.526 297.648C313.438 294.8 324.126 284.272 323.99 282.872C323.846 281.272 324.686 262.504 324.686 262.504L310.454 261.144Z" fill="#349F6E"/>
<g opacity="0.6">
<path d="M308.727 298.208L323.927 281.6V282.4C323.936 283.106 323.692 283.793 323.239 284.336C322.031 285.784 318.599 289.712 310.527 297.664C310.296 297.892 310.012 298.06 309.701 298.152C309.39 298.244 309.06 298.258 308.743 298.192L308.727 298.208Z" fill="white"/>
</g>
<g opacity="0.6">
<path d="M319.894 275.416C319.65 275.595 319.482 275.859 319.425 276.155C319.367 276.452 319.423 276.759 319.582 277.016C319.75 277.256 320.004 277.422 320.291 277.482C320.577 277.541 320.876 277.489 321.126 277.336C321.377 277.15 321.549 276.877 321.608 276.571C321.667 276.264 321.609 275.946 321.446 275.68C321.247 275.446 320.964 275.298 320.658 275.268C320.352 275.238 320.047 275.329 319.806 275.52" fill="white"/>
</g>
<path d="M313.053 289.744C312.941 289.8 312.493 288.8 311.349 288.264C310.641 287.986 309.885 287.85 309.125 287.864C309.125 287.816 309.349 287.664 309.797 287.592C310.391 287.52 310.993 287.62 311.531 287.879C312.07 288.139 312.523 288.547 312.837 289.056C313.061 289.448 313.093 289.728 313.053 289.744Z" fill="#263238"/>
<path d="M311.702 292.344C311.148 292.042 310.576 291.775 309.99 291.544C309.365 291.434 308.735 291.359 308.102 291.32C308.396 291.131 308.731 291.016 309.079 290.984C309.427 290.952 309.778 291.004 310.102 291.136C311.238 291.44 311.798 292.288 311.702 292.344Z" fill="#263238"/>
<path d="M315.576 286.4C314.759 285.861 313.903 285.382 313.016 284.968C312.079 284.681 311.122 284.468 310.152 284.328C311.16 284.117 312.207 284.2 313.169 284.567C314.13 284.935 314.966 285.571 315.576 286.4Z" fill="#263238"/>
<path d="M315.88 280.544C315.832 280.664 314.76 280.224 313.376 280.192C311.992 280.16 310.896 280.496 310.848 280.376C311.624 279.948 312.501 279.738 313.387 279.767C314.272 279.797 315.134 280.065 315.88 280.544Z" fill="#263238"/>
<path d="M315.839 274.888C314.997 274.623 314.122 274.475 313.239 274.448C312.365 274.55 311.508 274.773 310.695 275.112C310.695 275.072 310.871 274.824 311.311 274.568C311.9 274.235 312.559 274.047 313.235 274.018C313.911 273.988 314.584 274.12 315.199 274.4C315.639 274.616 315.871 274.84 315.839 274.888Z" fill="#263238"/>
<path d="M313.263 273.368C313.213 273.128 313.213 272.88 313.263 272.64C313.323 271.971 313.516 271.321 313.831 270.728C314.018 270.271 314.354 269.891 314.783 269.648C314.932 269.581 315.097 269.562 315.258 269.592C315.418 269.622 315.565 269.7 315.679 269.816C315.885 270.056 315.996 270.364 315.991 270.68C315.953 271.325 315.694 271.937 315.256 272.412C314.819 272.887 314.231 273.197 313.591 273.288C312.953 273.359 312.308 273.239 311.738 272.942C311.169 272.646 310.7 272.187 310.391 271.624C310.314 271.482 310.268 271.325 310.257 271.163C310.245 271.001 310.27 270.839 310.327 270.688C310.402 270.545 310.519 270.428 310.661 270.352C310.804 270.276 310.967 270.246 311.127 270.264C311.603 270.365 312.044 270.589 312.407 270.912C312.932 271.328 313.382 271.831 313.735 272.4C313.876 272.601 313.98 272.826 314.039 273.064C313.531 272.341 312.919 271.697 312.223 271.152C311.899 270.885 311.514 270.702 311.103 270.616C311.014 270.601 310.923 270.614 310.843 270.655C310.762 270.695 310.696 270.76 310.655 270.84C310.627 270.943 310.619 271.05 310.633 271.156C310.647 271.262 310.682 271.364 310.735 271.456C311.016 271.933 311.427 272.319 311.921 272.568C312.414 272.818 312.969 272.92 313.519 272.864C314.065 272.794 314.57 272.539 314.95 272.142C315.33 271.744 315.562 271.228 315.607 270.68C315.618 270.461 315.55 270.245 315.415 270.072C315.355 270.003 315.274 269.956 315.184 269.938C315.095 269.919 315.002 269.93 314.919 269.968C314.568 270.182 314.289 270.497 314.119 270.872C313.694 271.649 313.404 272.493 313.263 273.368Z" fill="#263238"/>
<path d="M320.213 158.864C320.213 158.864 300.397 196.328 300.125 202.864C299.853 209.4 300.125 269.648 300.125 269.648H330.797C331.597 269.648 336.197 242.504 335.261 236.256C334.325 230.008 331.021 196.424 331.021 196.424H348.669C348.669 196.424 353.509 191.248 353.333 184.68C353.229 181.056 350.861 173.648 348.533 169.72C347.021 167.2 337.333 154.008 337.333 154.008L320.213 158.864Z" fill="#263238"/>
<path d="M318.888 161.4C318.867 161.475 318.838 161.548 318.8 161.616C318.728 161.776 318.632 161.976 318.512 162.224L317.36 164.56C316.84 165.576 316.224 166.808 315.504 168.24L314.352 170.536L313.144 173.152L307.2 186.024C306.072 188.424 304.888 190.992 303.656 193.624L301.792 197.624C301.19 199.007 300.734 200.45 300.432 201.928C300.129 203.411 299.971 204.919 299.96 206.432C299.912 207.928 299.88 209.408 299.856 210.856C299.856 213.768 299.8 216.568 299.808 219.24C299.808 224.584 299.872 229.4 299.928 233.44C299.984 237.48 300.032 240.72 300.072 243.04C300.072 244.144 300.072 245.016 300.072 245.64C300.072 245.92 300.072 246.144 300.072 246.32C300.072 246.496 300.072 246.552 300.072 246.552C300.059 246.475 300.059 246.397 300.072 246.32C300.072 246.144 300.072 245.92 300.072 245.648C300.072 245.016 300.008 244.152 299.96 243.04C299.88 240.784 299.776 237.512 299.688 233.44C299.6 229.368 299.504 224.592 299.48 219.24C299.48 216.568 299.48 213.76 299.48 210.856C299.48 209.4 299.528 207.92 299.584 206.416C299.592 204.879 299.75 203.347 300.056 201.84C300.366 200.334 300.833 198.865 301.448 197.456L303.32 193.456L306.888 185.872L312.952 173.032L314.184 170.424C314.608 169.624 314.984 168.824 315.368 168.144L317.28 164.496C317.8 163.512 318.216 162.744 318.504 162.192C318.64 161.952 318.752 161.76 318.832 161.6C318.912 161.44 318.88 161.392 318.888 161.4Z" fill="#455A64"/>
<path d="M312.472 174.161C311.836 172.638 311.301 171.074 310.872 169.481C310.31 167.929 309.853 166.341 309.504 164.729C310.25 166.207 310.84 167.76 311.264 169.361C311.83 170.915 312.235 172.523 312.472 174.161Z" fill="#455A64"/>
<path d="M335.328 235.08C335.277 234.944 335.245 234.801 335.232 234.656C335.195 234.33 335.139 233.922 335.064 233.432C334.92 232.304 334.736 230.768 334.504 228.904C334.064 225.032 333.472 219.776 332.816 213.968C332.16 208.16 331.624 202.84 331.296 199.008C331.144 197.136 331.016 195.6 330.92 194.472C330.92 193.968 330.856 193.56 330.832 193.232C330.822 193.088 330.822 192.944 330.832 192.8C330.882 192.936 330.912 193.079 330.92 193.224C330.96 193.552 331.016 193.96 331.08 194.456C331.208 195.584 331.384 197.112 331.592 198.984C332.016 202.856 332.592 208.12 333.192 213.928C333.792 219.736 334.36 224.992 334.792 228.872C334.968 230.744 335.12 232.28 335.224 233.408C335.264 233.904 335.296 234.32 335.32 234.648C335.335 234.791 335.338 234.936 335.328 235.08Z" fill="#455A64"/>
<path d="M327.534 58.528C327.062 55.328 329.806 52.248 332.974 51.872C336.142 51.496 339.334 53.472 340.79 56.36C341.467 57.8124 341.838 59.3889 341.88 60.991C341.921 62.5932 341.631 64.1866 341.03 65.672C340.23 67.696 338.75 69.744 336.598 69.904C334.446 70.064 332.798 68.424 331.374 66.912" fill="#263238"/>
<path d="M305.016 74.3995C298.616 60.3755 313.817 53.3275 322.08 55.6635C329.856 57.8635 333.177 61.7355 334.457 66.9355C335.859 72.1525 335.579 77.6789 333.657 82.7275C332.649 85.1755 330.84 87.6555 328.216 87.9595" fill="#263238"/>
<path d="M327.037 63.4485C327.695 63.5167 328.303 63.8304 328.741 64.327C329.178 64.8237 329.412 65.4669 329.397 66.1285L327.901 101.825C327.845 106.041 321.693 108.425 317.173 108.329C312.621 108.233 312.469 105.993 312.373 101.985C312.269 95.2885 312.269 92.7685 312.269 92.8085C312.269 92.8485 306.509 91.8485 305.317 84.3365C304.717 80.6005 304.909 74.4725 305.221 69.4645C305.509 64.9605 308.493 59.4245 312.989 59.8645L327.037 63.4485Z" fill="#FFBE9D"/>
<path d="M308.168 73.7362C308.164 73.9881 308.259 74.2317 308.432 74.4143C308.606 74.5969 308.844 74.7039 309.096 74.7122C309.219 74.722 309.342 74.7071 309.459 74.6682C309.576 74.6294 309.684 74.5675 309.777 74.4861C309.869 74.4048 309.944 74.3057 309.998 74.1948C310.051 74.0838 310.082 73.9633 310.088 73.8402C310.09 73.5889 309.995 73.3465 309.822 73.1644C309.648 72.9823 309.411 72.8746 309.16 72.8642C309.037 72.8544 308.914 72.8694 308.797 72.9083C308.68 72.9471 308.572 73.009 308.48 73.0903C308.387 73.1717 308.312 73.2707 308.258 73.3817C308.205 73.4926 308.174 73.6132 308.168 73.7362Z" fill="#263238"/>
<path d="M306.576 72.6558C306.696 72.7758 307.432 72.2398 308.464 72.2398C309.496 72.2398 310.264 72.7598 310.376 72.6318C310.488 72.5038 310.312 72.3518 309.976 72.1118C309.527 71.8017 308.994 71.6369 308.448 71.6398C307.91 71.6345 307.384 71.806 306.952 72.1278C306.632 72.3678 306.52 72.5998 306.576 72.6558Z" fill="#263238"/>
<path d="M318.301 73.7362C318.298 73.9823 318.389 74.2202 318.556 74.4015C318.722 74.5828 318.951 74.6939 319.197 74.7122C319.32 74.722 319.443 74.707 319.56 74.6682C319.677 74.6293 319.785 74.5674 319.877 74.4861C319.97 74.4048 320.045 74.3057 320.099 74.1948C320.152 74.0838 320.183 73.9632 320.189 73.8402C320.191 73.5889 320.096 73.3465 319.922 73.1644C319.749 72.9822 319.512 72.8746 319.261 72.8642C319.018 72.8533 318.781 72.9389 318.601 73.1023C318.421 73.2657 318.313 73.4935 318.301 73.7362Z" fill="#263238"/>
<path d="M316.797 72.8481C316.917 72.9681 317.645 72.4321 318.677 72.4321C319.709 72.4321 320.477 72.9521 320.589 72.8321C320.701 72.7121 320.525 72.5441 320.189 72.3041C319.741 71.9926 319.207 71.8277 318.661 71.8321C318.123 71.832 317.599 72.0029 317.165 72.3201C316.797 72.5601 316.709 72.8001 316.797 72.8481Z" fill="#263238"/>
<path d="M313.007 80.5357C312.461 80.3675 311.897 80.2654 311.327 80.2317C311.063 80.2317 310.807 80.1517 310.767 79.9757C310.742 79.6973 310.803 79.4179 310.943 79.1757C311.191 78.5357 311.447 77.8637 311.743 77.1597C312.468 75.4517 313.056 73.6888 313.503 71.8877C312.636 73.5319 311.906 75.2443 311.319 77.0077L310.567 79.0397C310.401 79.3599 310.353 79.7278 310.431 80.0797C310.47 80.1727 310.531 80.2555 310.607 80.322C310.683 80.3885 310.773 80.4369 310.871 80.4637C311.017 80.5024 311.167 80.5239 311.319 80.5277C311.879 80.6001 312.446 80.6028 313.007 80.5357Z" fill="#263238"/>
<path d="M312.293 92.8001C315.845 92.8648 319.344 91.9366 322.397 90.1201C322.397 90.1201 319.949 95.2881 312.429 94.5841L312.293 92.8001Z" fill="#EB996E"/>
<path d="M313.445 83.0321C313.643 82.7856 313.9 82.5932 314.192 82.4729C314.485 82.3526 314.803 82.3083 315.117 82.3441C315.347 82.3633 315.57 82.4293 315.774 82.538C315.978 82.6467 316.157 82.7957 316.301 82.9761C316.438 83.1487 316.52 83.3593 316.534 83.5795C316.549 83.7998 316.495 84.0192 316.381 84.2081C316.215 84.3951 315.996 84.5279 315.754 84.5893C315.511 84.6506 315.256 84.6377 315.021 84.5521C314.528 84.3787 314.076 84.1065 313.693 83.7521C313.577 83.6694 313.476 83.5664 313.397 83.4481C313.36 83.391 313.34 83.3243 313.34 83.2561C313.34 83.1879 313.36 83.1212 313.397 83.0641" fill="#EB996E"/>
<path d="M316.062 81.256C315.894 81.256 315.886 82.368 314.926 83.168C313.966 83.968 312.766 83.84 312.758 83.968C312.75 84.096 313.022 84.184 313.558 84.2C314.218 84.2076 314.861 83.984 315.374 83.568C315.861 83.1671 316.176 82.5944 316.254 81.968C316.262 81.528 316.134 81.248 316.062 81.256Z" fill="#263238"/>
<path d="M316.301 71.0319C316.405 71.3119 317.445 71.1759 318.661 71.3279C319.877 71.4799 320.861 71.7999 321.021 71.5519C321.093 71.4319 320.917 71.1679 320.525 70.8879C319.998 70.5489 319.397 70.3404 318.773 70.2799C318.152 70.2023 317.52 70.2764 316.933 70.4959C316.485 70.6719 316.261 70.8959 316.301 71.0319Z" fill="#263238"/>
<path d="M306.96 69.6482C307.144 69.8882 307.856 69.6482 308.72 69.6482C309.584 69.6482 310.32 69.8082 310.472 69.5602C310.544 69.4402 310.472 69.2002 310.112 68.9842C309.69 68.7071 309.192 68.5699 308.687 68.5922C308.184 68.6026 307.695 68.7674 307.287 69.0642C306.983 69.2962 306.88 69.5362 306.96 69.6482Z" fill="#263238"/>
<path d="M316.743 57.4003C314.193 57.5303 311.716 58.3007 309.543 59.6403C308.324 60.2719 307.242 61.1375 306.358 62.1876C305.474 63.2377 304.805 64.4517 304.391 65.7603C304.285 66.0324 304.237 66.3232 304.248 66.6149C304.259 66.9065 304.329 67.1928 304.455 67.4563C304.692 67.7576 305.028 67.9664 305.403 68.0467C305.779 68.1271 306.17 68.0738 306.511 67.8963C307.189 67.5275 307.766 66.9972 308.191 66.3523C308.36 67.0575 308.763 67.6845 309.335 68.1303C309.908 68.5761 310.614 68.8143 311.339 68.8059C312.065 68.7976 312.765 68.5431 313.327 68.0842C313.889 67.6253 314.278 66.9893 314.431 66.2803C314.488 67.001 314.821 67.6718 315.36 68.1531C315.9 68.6345 316.604 68.8892 317.327 68.8643C318.048 68.8019 318.735 68.5301 319.303 68.0824C319.872 67.6346 320.297 67.0305 320.527 66.3443C320.703 67.6451 321.153 68.8938 321.847 70.0083C322.202 70.5614 322.719 70.9917 323.327 71.2408C323.935 71.4899 324.606 71.5455 325.247 71.4003C324.978 72.5063 324.994 73.6624 325.295 74.7603C325.695 75.8163 327.287 93.8883 328.359 93.5203C329.431 93.1523 329.391 74.7203 329.631 73.6483C330.163 71.5919 330.432 69.4763 330.431 67.3523C330.502 65.1641 329.793 63.0218 328.43 61.3085C327.067 59.5952 325.139 58.4225 322.991 58.0003C320.846 57.5083 318.645 57.3065 316.447 57.4003" fill="#263238"/>
<path d="M331.799 90.3122C331.799 90.3122 331.727 90.3602 331.567 90.4162C331.343 90.4985 331.109 90.5549 330.871 90.5842C329.759 90.7255 328.629 90.5478 327.614 90.072C326.598 89.5961 325.739 88.8416 325.135 87.8962C324.317 86.4721 323.973 84.8249 324.151 83.1922C324.271 81.4722 324.671 79.9042 324.855 78.4642C325.037 77.1858 325.149 75.8987 325.191 74.6082C325.191 73.5042 325.191 72.6162 325.191 71.9922C325.157 71.6732 325.157 71.3513 325.191 71.0322C325.287 71.3469 325.343 71.6719 325.359 72.0002C325.447 72.8748 325.49 73.7533 325.487 74.6322C325.486 75.9348 325.403 77.236 325.239 78.5282C325.063 80.0002 324.687 81.5762 324.567 83.2322C324.396 84.7823 324.709 86.3472 325.463 87.7122C326.121 88.799 327.132 89.6266 328.327 90.0562C329.13 90.3625 329.99 90.4935 330.847 90.4402C331.463 90.4002 331.791 90.2722 331.799 90.3122Z" fill="#263238"/>
<path d="M314.094 56.4316C314.385 56.9794 314.52 57.5963 314.486 58.2156C314.514 59.7316 313.94 61.1969 312.891 62.2912C311.841 63.3856 310.402 64.0199 308.886 64.0556C308.27 64.1147 307.651 64.004 307.094 63.7356C307.094 63.6636 307.782 63.8556 308.87 63.7356C310.292 63.6391 311.627 63.0174 312.616 61.9913C313.605 60.9652 314.177 59.6081 314.222 58.1836C314.246 57.1196 314.022 56.4476 314.094 56.4316Z" fill="#455A64"/>
<path d="M315.199 65.28C315.239 65.28 315.143 65.792 314.567 66.352C314.185 66.6958 313.737 66.9588 313.25 67.1252C312.764 67.2915 312.248 67.3578 311.735 67.32C310.73 67.2302 309.761 66.8981 308.911 66.352C308.263 65.944 307.911 65.632 307.943 65.552C308.331 65.6739 308.702 65.8432 309.047 66.056C309.892 66.4947 310.812 66.7663 311.759 66.856C312.699 66.9114 313.627 66.6275 314.375 66.056C314.959 65.688 315.151 65.248 315.199 65.28Z" fill="#455A64"/>
<path d="M333.32 62.9844C333.374 63.6731 333.325 64.3659 333.176 65.0404C332.95 66.7113 332.318 68.3016 331.336 69.6724C330.824 70.3522 330.177 70.92 329.437 71.3409C328.697 71.7619 327.879 72.0271 327.032 72.1204C326.518 72.1667 325.999 72.1151 325.504 71.9684C325.16 71.8644 324.992 71.7604 325 71.7364C325.66 71.8544 326.333 71.884 327 71.8244C328.592 71.566 330.023 70.707 331 69.4244C331.937 68.0989 332.579 66.5874 332.88 64.9924C332.985 64.3146 333.132 63.644 333.32 62.9844Z" fill="#455A64"/>
<path d="M334.694 66.624C334.768 66.8297 334.808 67.0457 334.814 67.264C334.868 67.8464 334.882 68.4318 334.854 69.016C334.812 70.9846 334.108 72.8814 332.854 74.4C332.147 75.235 331.226 75.8625 330.19 76.216C329.341 76.4939 328.435 76.549 327.558 76.376C326.97 76.2636 326.411 76.0292 325.918 75.688C325.582 75.44 325.438 75.256 325.454 75.24C326.111 75.6576 326.841 75.9455 327.606 76.088C328.432 76.2066 329.274 76.1271 330.062 75.856C331.023 75.5014 331.877 74.9065 332.542 74.128C333.73 72.6657 334.437 70.8718 334.566 68.992C334.694 67.544 334.622 66.632 334.694 66.624Z" fill="#455A64"/>
<path d="M229.247 163.32L214.727 196.528H234.719L248.959 163.056L229.247 163.32Z" fill="#455A64"/>
<path d="M218.686 128L235.062 160.208H286.71L284.622 156L269.662 155.552L257.462 128.4C257.091 127.573 256.489 126.871 255.728 126.378C254.967 125.885 254.08 125.624 253.174 125.624H220.142C219.858 125.614 219.578 125.679 219.328 125.813C219.078 125.947 218.868 126.145 218.72 126.387C218.572 126.629 218.491 126.905 218.485 127.189C218.479 127.472 218.548 127.752 218.686 128Z" fill="#E0E0E0"/>
<path d="M244.55 142.44C244.55 142.831 244.434 143.213 244.217 143.538C244 143.863 243.691 144.116 243.33 144.265C242.969 144.415 242.571 144.454 242.188 144.378C241.805 144.302 241.453 144.113 241.176 143.837C240.9 143.561 240.712 143.209 240.636 142.825C240.559 142.442 240.599 142.045 240.748 141.684C240.898 141.323 241.151 141.014 241.476 140.797C241.801 140.58 242.183 140.464 242.574 140.464C243.097 140.466 243.598 140.675 243.969 141.045C244.339 141.415 244.548 141.916 244.55 142.44Z" fill="#263238"/>
<path d="M292.214 160.272H229.078V163.352H292.214V160.272Z" fill="#455A64"/>
<path d="M272.766 161.816L291.974 196.56H301.158L303.158 192.584L304.998 188.4L292.214 163.352L272.766 161.816Z" fill="#455A64"/>
<path d="M306.142 102.248C306.142 102.248 294.99 106.176 292.59 118.656L304.366 124.528L306.142 102.248Z" fill="#349F6E"/>
<path d="M306.141 102.248C306.141 102.248 298.341 119.736 298.637 129.288C298.741 132.608 300.917 141.288 300.917 141.288L304.973 162.776C304.973 162.776 336.021 158.576 336.709 158.576C337.397 158.576 335.669 140.936 335.669 140.936L340.733 107.04C340.733 107.04 338.413 102.424 327.933 100.824C321.653 99.8401 306.141 102.248 306.141 102.248Z" fill="#349F6E"/>
<path d="M303.199 112.4C303.271 112.44 302.455 113.744 301.471 116C300.9 117.321 300.419 118.679 300.031 120.064C299.564 121.762 299.224 123.492 299.015 125.24C298.831 126.991 298.775 128.753 298.847 130.512C298.919 131.949 299.088 133.379 299.351 134.792C299.799 137.192 300.311 138.664 300.231 138.688C300.063 138.37 299.929 138.035 299.831 137.688C299.688 137.292 299.565 136.889 299.463 136.48C299.335 136 299.167 135.464 299.055 134.88C298.755 133.456 298.557 132.013 298.463 130.56C298.367 128.778 298.412 126.991 298.599 125.216C298.812 123.444 299.167 121.692 299.663 119.976C300.074 118.582 300.59 117.221 301.207 115.904C301.431 115.393 301.683 114.894 301.959 114.408C302.15 114.032 302.361 113.666 302.591 113.312C302.762 112.989 302.966 112.683 303.199 112.4Z" fill="#263238"/>
<path d="M309.918 102.088L310.366 97.288C310.415 96.7891 310.646 96.3258 311.015 95.9864C311.384 95.6471 311.865 95.4554 312.366 95.4479L327.686 95.2159C328.151 95.2105 328.6 95.3818 328.943 95.6952C329.286 96.0086 329.497 96.4407 329.534 96.9039L329.926 102.08C328.644 104.798 326.474 106.999 323.774 108.32C319.27 110.504 312.27 110.576 312.27 110.576L309.918 102.088Z" fill="#349F6E"/>
<path d="M313.925 95.488C313.973 95.488 313.749 95.8 313.653 96.288C313.567 96.9947 313.567 97.7094 313.653 98.416C313.788 99.4463 313.788 100.49 313.653 101.52C313.378 100.516 313.238 99.4807 313.237 98.4401C313.13 97.6992 313.163 96.9449 313.333 96.216C313.597 95.664 313.901 95.448 313.925 95.488Z" fill="#263238"/>
<path d="M317.601 101.424C317.333 100.444 317.204 99.4316 317.217 98.416C317.157 97.6972 317.157 96.9747 317.217 96.256C317.297 95.68 317.529 95.384 317.577 95.456C317.625 95.528 317.505 95.792 317.513 96.32C317.521 96.848 317.601 97.6 317.601 98.4C317.735 99.4035 317.735 100.42 317.601 101.424Z" fill="#263238"/>
<path d="M322.198 101.296C321.867 100.362 321.665 99.388 321.598 98.3998C321.4 97.421 321.338 96.4196 321.414 95.4238C321.748 96.3646 321.95 97.3474 322.014 98.3438C322.209 99.315 322.271 100.308 322.198 101.296Z" fill="#263238"/>
<path d="M326.166 101.6C325.801 100.572 325.606 99.4909 325.59 98.3999C325.437 97.3123 325.464 96.2068 325.67 95.1279C325.88 96.1821 325.992 97.2532 326.006 98.3279C326.162 99.4112 326.215 100.507 326.166 101.6Z" fill="#263238"/>
<g opacity="0.3">
<path d="M329.208 119.928C328.592 125.312 329 134.592 330.904 139.672L339.848 124.896L329.208 119.928Z" fill="black"/>
</g>
<path d="M339.901 105.928L339.949 105.976C342.485 108.638 344.34 111.874 345.357 115.408L347.005 122.92L329.405 125.64C328.436 122.453 328.206 119.088 328.733 115.8C329.597 110.136 339.901 105.928 339.901 105.928Z" fill="#349F6E"/>
<path d="M347.007 122.92C346.893 122.961 346.775 122.99 346.655 123.008L345.647 123.192L341.879 123.808L329.127 125.744H328.903V125.512C328.863 124.448 328.831 123.344 328.807 122.208C328.767 119.256 328.807 116.432 328.983 113.864C329.105 111.563 329.81 109.331 331.031 107.376C331.852 106.062 332.977 104.964 334.311 104.176C334.671 103.962 335.052 103.786 335.447 103.648C335.579 103.588 335.719 103.547 335.863 103.528C335.863 103.528 335.303 103.744 334.391 104.328C333.122 105.142 332.057 106.237 331.279 107.528C330.12 109.47 329.461 111.669 329.359 113.928C329.175 116.472 329.183 119.288 329.231 122.24C329.231 123.36 329.287 124.472 329.311 125.528L329.079 125.328L341.879 123.528L345.663 123.04L346.687 122.92C346.793 122.906 346.901 122.906 347.007 122.92Z" fill="#263238"/>
<path d="M309.831 111.888C308.935 111.367 308.112 110.729 307.383 109.992C306.561 109.358 305.829 108.615 305.207 107.784C306.925 108.94 308.48 110.32 309.831 111.888Z" fill="#FAFAFA"/>
<path d="M307.454 121.144C306.827 121.788 306.1 122.328 305.302 122.744C304.57 123.274 303.761 123.69 302.902 123.976C304.26 122.809 305.79 121.859 307.438 121.16L307.454 121.144Z" fill="#FAFAFA"/>
<path d="M317.271 123.424C317.129 122.287 317.129 121.137 317.271 120C317.276 118.857 317.416 117.719 317.687 116.608C317.826 117.743 317.826 118.89 317.687 120.024C317.684 121.17 317.544 122.312 317.271 123.424Z" fill="#FAFAFA"/>
<path d="M326.815 132.68C326.018 131.933 325.275 131.131 324.591 130.28C323.804 129.53 323.069 128.729 322.391 127.88C323.351 128.437 324.2 129.167 324.895 130.032C325.686 130.794 326.336 131.691 326.815 132.68Z" fill="#FAFAFA"/>
<path d="M328.158 113.328C327.471 114.042 326.687 114.656 325.83 115.152C325.044 115.757 324.18 116.252 323.262 116.624C323.95 115.909 324.737 115.295 325.598 114.8C326.382 114.199 327.243 113.704 328.158 113.328Z" fill="#FAFAFA"/>
<path d="M319.535 106.328C318.775 107.067 317.92 107.699 316.991 108.208C316.139 108.839 315.208 109.355 314.223 109.744C314.983 109.004 315.838 108.369 316.767 107.856C317.622 107.233 318.552 106.72 319.535 106.328Z" fill="#FAFAFA"/>
<path d="M327.309 109.112C326.785 108.337 326.375 107.491 326.093 106.6C325.699 105.752 325.43 104.852 325.293 103.928C325.823 104.701 326.233 105.551 326.509 106.448C326.907 107.291 327.177 108.189 327.309 109.112Z" fill="#FAFAFA"/>
<path d="M338.007 112.624C336.727 111.736 335.617 110.628 334.727 109.352C335.404 109.739 336.008 110.243 336.511 110.84C337.113 111.339 337.62 111.943 338.007 112.624Z" fill="#FAFAFA"/>
<path d="M333.598 120.424C333.344 119.633 333.228 118.805 333.254 117.976C333.135 117.156 333.159 116.323 333.326 115.512C333.694 117.122 333.786 118.783 333.598 120.424Z" fill="#FAFAFA"/>
<path d="M342.488 118.808C341.557 118.956 340.607 118.924 339.688 118.712C338.751 118.635 337.836 118.383 336.992 117.968C337.922 117.978 338.847 118.09 339.752 118.304C340.68 118.374 341.597 118.543 342.488 118.808Z" fill="#FAFAFA"/>
<path d="M306.648 134.928C305.996 134.025 305.459 133.044 305.048 132.008C304.512 131.031 304.099 129.991 303.816 128.912C304.469 129.815 305.006 130.796 305.416 131.832C305.954 132.809 306.368 133.849 306.648 134.928Z" fill="#FAFAFA"/>
<path d="M318.399 147.552C317.648 146.869 316.994 146.086 316.455 145.224C315.813 144.439 315.275 143.573 314.855 142.648C315.609 143.332 316.266 144.115 316.807 144.976C317.453 145.758 317.989 146.625 318.399 147.552Z" fill="#FAFAFA"/>
<path d="M328.112 142.256C327.289 142.793 326.395 143.213 325.456 143.504C324.567 143.924 323.621 144.212 322.648 144.36C324.36 143.401 326.2 142.692 328.112 142.256Z" fill="#FAFAFA"/>
<path d="M304.184 152.48C304.568 150.97 305.215 149.541 306.096 148.256C305.96 149.03 305.689 149.775 305.296 150.456C305.047 151.191 304.67 151.876 304.184 152.48Z" fill="#FAFAFA"/>
<path d="M296.655 116.328C296.192 115.743 295.914 115.033 295.855 114.288C295.666 113.567 295.7 112.806 295.951 112.104C296.115 112.798 296.222 113.505 296.271 114.216C296.456 114.909 296.584 115.615 296.655 116.328Z" fill="#FAFAFA"/>
<path d="M310.021 144.384C309.167 144.159 308.356 143.794 307.621 143.304C306.824 142.942 306.09 142.456 305.445 141.864C306.298 142.093 307.109 142.458 307.845 142.944C308.639 143.312 309.373 143.797 310.021 144.384Z" fill="#FAFAFA"/>
<path d="M317.743 131.056C316.431 132.627 314.907 134.008 313.215 135.16C313.822 134.332 314.538 133.589 315.343 132.952C316.053 132.213 316.86 131.575 317.743 131.056Z" fill="#FAFAFA"/>
<g opacity="0.3">
<path d="M313.016 130.808C313.404 133.596 314.647 136.196 316.576 138.248C318.576 140.2 321.672 141.184 324.272 140.168C324.556 140.089 324.817 139.944 325.033 139.743C325.249 139.543 325.413 139.293 325.512 139.016C325.556 138.674 325.48 138.329 325.298 138.037C325.115 137.745 324.838 137.526 324.512 137.416C323.863 137.207 323.184 137.11 322.504 137.128C320.564 137 318.688 136.379 317.056 135.324C315.423 134.268 314.088 132.813 313.176 131.096" fill="black"/>
</g>
<path d="M323.413 137.256C323.413 137.256 323.229 137.32 322.877 137.352C322.383 137.402 321.884 137.402 321.389 137.352C320.655 137.265 319.932 137.093 319.237 136.84C317.522 136.223 316 135.166 314.821 133.776C314.343 133.212 313.932 132.595 313.597 131.936C313.362 131.497 313.177 131.032 313.045 130.552C312.981 130.38 312.946 130.199 312.941 130.016C313.021 130.016 313.237 130.736 313.853 131.792C314.214 132.408 314.635 132.987 315.109 133.52C315.697 134.168 316.355 134.75 317.069 135.256C317.791 135.745 318.564 136.155 319.373 136.48C320.037 136.741 320.726 136.934 321.429 137.056C322.637 137.232 323.413 137.176 323.413 137.256Z" fill="#263238"/>
<path d="M279.376 150.152L290.96 148.8L299.128 154.152L330.328 146.664L331.064 125.288L344.928 123.464V149.344C344.851 152.486 343.531 155.469 341.257 157.639C338.984 159.809 335.943 160.989 332.8 160.92L287.072 159.648L285.128 155.76L275.312 155.464L279.376 150.152Z" fill="#FFBE9D"/>
<path d="M329.959 146.624C329.766 146.701 329.568 146.762 329.367 146.808L327.671 147.248L321.407 148.8L300.703 153.816L298.775 154.28H298.695H298.631L290.471 148.912H290.583L278.991 150.256L279.071 150.208L275.999 154.104L275.199 155.128C275.11 155.251 275.008 155.363 274.895 155.464C274.969 155.333 275.052 155.208 275.143 155.088L275.943 154.032L278.919 150.08H278.967L290.543 148.632H290.607H290.655L298.831 153.976H298.687L300.615 153.512L321.343 148.6L327.639 147.152L329.351 146.776C329.549 146.71 329.752 146.659 329.959 146.624Z" fill="#EB996E"/>
<path d="M285.702 153.472C284.207 153.647 282.701 153.705 281.198 153.648H280.398L280.51 153.608C279.605 154.44 278.628 155.189 277.59 155.848C278.415 154.937 279.314 154.097 280.278 153.336L280.326 153.288H281.214C282.712 153.226 284.213 153.288 285.702 153.472Z" fill="#EB996E"/>
<path d="M335.709 150.12C335.113 149.179 334.338 148.363 333.429 147.72C332.464 147.175 331.401 146.827 330.301 146.696C330.624 146.584 330.971 146.556 331.309 146.616C332.126 146.702 332.912 146.976 333.606 147.416C334.299 147.856 334.882 148.45 335.309 149.152C335.525 149.434 335.663 149.768 335.709 150.12Z" fill="#EB996E"/>
<path d="M135.638 321.017H83.3984V328.193H135.638V321.017Z" fill="#263238"/>
<path d="M135.729 328.289H83.3125V320.929H135.729V328.289ZM83.4885 328.105H135.553V321.105H83.4885V328.105Z" fill="#263238"/>
<path d="M88.2461 325.809L95.7581 362.905H123.582L130.854 328.201L88.2461 325.809Z" fill="#263238"/>
<path d="M88.2461 359.393L92.2541 364.913H126.07L130.854 359.393H88.2461Z" fill="#455A64"/>
<path d="M107.56 326.889C107.456 326.889 107.328 309.705 107.264 288.489C107.2 267.273 107.264 250.089 107.344 250.089C107.424 250.089 107.576 267.273 107.64 288.489C107.704 309.705 107.664 326.889 107.56 326.889Z" fill="#263238"/>
<path d="M119.198 283.881C119.163 284.019 119.115 284.153 119.054 284.281C118.934 284.577 118.774 284.945 118.59 285.393C118.486 285.641 118.374 285.905 118.246 286.193C118.118 286.481 118.022 286.825 117.902 287.169L117.494 288.289C117.358 288.689 117.246 289.089 117.11 289.569C116.489 291.67 116 293.807 115.646 295.969C115.245 298.62 114.978 301.29 114.846 303.969C114.657 308.842 114.796 313.722 115.262 318.577C115.43 320.449 115.598 321.953 115.726 322.993C115.774 323.481 115.822 323.881 115.854 324.193C115.865 324.334 115.865 324.476 115.854 324.617C115.804 324.483 115.771 324.343 115.758 324.201C115.702 323.889 115.638 323.497 115.558 323.017C115.39 321.977 115.174 320.473 114.974 318.609C114.43 313.744 114.256 308.844 114.454 303.953C114.573 301.26 114.84 298.576 115.254 295.913C115.624 293.746 116.143 291.608 116.806 289.513C116.95 289.065 117.07 288.633 117.214 288.241L117.646 287.121L118.03 286.153C118.158 285.857 118.286 285.601 118.398 285.353L118.934 284.265C119.001 284.124 119.09 283.994 119.198 283.881Z" fill="#263238"/>
<path d="M117.863 269.984C117.819 270.177 117.763 270.367 117.695 270.552C117.559 270.944 117.375 271.48 117.151 272.152L116.751 273.304C116.623 273.736 116.479 274.2 116.327 274.696C116.023 275.688 115.671 276.816 115.359 278.088L114.831 280.08C114.671 280.776 114.511 281.504 114.343 282.248C113.975 283.744 113.711 285.368 113.375 287.048C112.799 290.456 112.295 294.248 111.943 298.208C111.591 302.168 111.471 306 111.423 309.464C111.375 312.928 111.423 316.048 111.599 318.664C111.639 319.976 111.727 321.152 111.791 322.192C111.855 323.232 111.919 324.128 111.983 324.856C112.047 325.584 112.079 326.12 112.111 326.544C112.122 326.739 112.122 326.934 112.111 327.128C112.06 326.94 112.027 326.747 112.015 326.552C111.967 326.128 111.903 325.576 111.815 324.872C111.727 324.168 111.639 323.272 111.559 322.208C111.479 321.144 111.375 319.992 111.311 318.68C111.135 316.056 111.063 312.936 111.055 309.464C111.047 305.992 111.215 302.176 111.551 298.184C111.887 294.192 112.423 290.408 113.015 286.984C113.359 285.28 113.639 283.656 114.015 282.184C114.191 281.432 114.367 280.704 114.527 280.008L115.079 278.024C115.407 276.752 115.783 275.624 116.111 274.632C116.271 274.136 116.423 273.68 116.559 273.248C116.695 272.816 116.855 272.448 116.991 272.104L117.599 270.504C117.667 270.322 117.756 270.147 117.863 269.984Z" fill="#263238"/>
<path d="M104.256 329.928C104.247 329.862 104.247 329.795 104.256 329.728C104.256 329.576 104.256 329.384 104.208 329.136C104.168 328.592 104.12 327.832 104.056 326.864C103.928 324.856 103.752 322.008 103.528 318.488C103.08 311.424 102.424 301.688 101.232 290.928C100.624 285.552 99.9197 280.456 99.1837 275.832C98.7997 273.528 98.4477 271.336 98.0397 269.288C97.6317 267.24 97.2397 265.344 96.9197 263.608C96.5997 261.872 96.1917 260.32 95.8797 258.952C95.5677 257.584 95.2877 256.4 95.0797 255.44C94.8717 254.48 94.6717 253.76 94.5357 253.224C94.4877 252.992 94.4397 252.8 94.4077 252.648C94.3953 252.582 94.3953 252.514 94.4077 252.448C94.4406 252.509 94.4649 252.573 94.4797 252.64L94.6397 253.208C94.7917 253.736 94.9917 254.472 95.2557 255.408C95.5197 256.344 95.8317 257.528 96.1597 258.904C96.4877 260.28 96.8877 261.824 97.2477 263.56C97.6077 265.296 98.0477 267.184 98.4157 269.232C98.7837 271.28 99.2157 273.472 99.5997 275.784C100.352 280.408 101.064 285.512 101.672 290.88C102.864 301.632 103.48 311.4 103.864 318.472C104.056 322.016 104.192 324.872 104.272 326.856C104.272 327.824 104.336 328.584 104.352 329.136C104.352 329.376 104.352 329.576 104.352 329.728C104.33 329.799 104.298 329.867 104.256 329.928Z" fill="#263238"/>
<path d="M107.133 258.4C106.901 256 104.445 254.128 101.997 254.104C100.773 254.158 99.577 254.49 98.5 255.075C97.423 255.66 96.4933 256.483 95.7815 257.48C94.3733 259.489 93.3556 261.744 92.7815 264.128C91.1335 269.864 90.2375 275.888 90.9415 281.816C91.6455 287.744 94.0455 293.576 98.3015 297.76C98.9895 298.448 99.9015 299.128 100.837 298.92C101.344 298.773 101.804 298.497 102.173 298.12C106.339 294.307 109.641 289.646 111.857 284.451C114.073 279.256 115.152 273.647 115.021 268C114.957 265.752 114.661 263.4 113.421 261.528C112.181 259.656 109.261 257.656 107.141 258.408" fill="#349F6E"/>
<path d="M88.8706 238.881L85.4306 245.121C85.3506 245.265 85.2466 245.433 85.0786 245.441C84.9106 245.449 84.7586 245.289 84.6626 245.137L75.5586 231.201L77.6546 230.009L88.8706 238.881Z" fill="#349F6E"/>
<g opacity="0.2">
<path d="M88.8706 238.881L85.4306 245.121C85.3506 245.265 85.2466 245.433 85.0786 245.441C84.9106 245.449 84.7586 245.289 84.6626 245.137L75.5586 231.201L77.6546 230.009L88.8706 238.881Z" fill="black"/>
</g>
<path d="M107.341 250.12L76.2854 231.792C76.1086 231.725 75.947 231.623 75.8097 231.492C75.6724 231.362 75.5622 231.206 75.4854 231.032C75.3654 230.576 75.7094 230.129 76.0374 229.785C78.1743 227.57 80.7629 225.842 83.6273 224.717C86.4916 223.591 89.5646 223.096 92.6374 223.264C95.7089 223.485 98.6804 224.451 101.295 226.078C103.91 227.704 106.09 229.943 107.645 232.6C110.637 237.952 110.741 245.04 107.301 250.12" fill="#349F6E"/>
<path d="M80.7969 225.944C80.9296 225.907 81.0672 225.891 81.2049 225.896C81.4689 225.896 81.8689 225.832 82.3809 225.84C83.8228 225.821 85.2634 225.933 86.6849 226.176C88.8025 226.539 90.8665 227.165 92.8289 228.04C96.2158 229.564 99.2237 231.818 101.637 234.641C104.051 237.464 105.81 240.785 106.789 244.368C107.19 245.758 107.458 247.183 107.589 248.624C107.653 249.128 107.637 249.528 107.653 249.8C107.667 249.936 107.667 250.072 107.653 250.208C107.653 250.208 107.581 249.648 107.453 248.608C107.276 247.187 106.984 245.782 106.581 244.408C105.279 239.848 102.724 235.744 99.2073 232.562C95.6905 229.381 91.3522 227.249 86.6849 226.408C85.2783 226.141 83.8522 225.988 82.4209 225.952C81.3249 225.96 80.7969 225.976 80.7969 225.944Z" fill="#263238"/>
<path d="M103.134 237.473C102.633 237.778 102.096 238.017 101.534 238.185C100.542 238.577 99.134 239.073 97.614 239.569C96.094 240.065 94.654 240.449 93.614 240.705C93.0621 240.873 92.4933 240.981 91.918 241.025C92.4297 240.777 92.966 240.584 93.518 240.449L97.47 239.209L101.414 237.937C101.971 237.725 102.547 237.57 103.134 237.473Z" fill="#263238"/>
<path d="M98.2483 224.337C98.5263 225.47 98.65 226.635 98.6163 227.801C98.7076 228.964 98.643 230.135 98.4243 231.281C98.2743 230.13 98.2155 228.969 98.2483 227.809C98.1568 226.653 98.1568 225.492 98.2483 224.337Z" fill="#263238"/>
<path d="M76 231.448C76.7266 231.115 77.4816 230.847 78.256 230.648C79.664 230.208 81.632 229.656 83.856 229.128C86.08 228.6 88.048 228.2 89.456 227.944C90.2452 227.768 91.0482 227.661 91.856 227.624C91.0965 227.868 90.3214 228.061 89.536 228.2C88.096 228.52 86.112 229 83.936 229.496C81.76 229.992 79.784 230.528 78.336 230.896C77.5704 231.132 76.79 231.316 76 231.448Z" fill="#263238"/>
<path d="M93.0228 252.624C90.3508 250.6 87.5268 250.224 84.1748 250.328C80.8223 250.542 77.5392 251.38 74.4948 252.8C69.2548 255.088 64.3348 258.472 61.2068 263.256C58.0788 268.04 56.9828 274.376 59.3268 279.592C59.5112 280.138 59.89 280.596 60.3908 280.88C60.9726 281.042 61.5929 280.994 62.1428 280.744C68.1028 278.8 74.0948 276.84 79.5748 273.8C85.0548 270.76 90.0388 266.528 92.9748 261C93.7266 259.71 94.2109 258.282 94.3988 256.8C94.4789 256.051 94.3983 255.293 94.1624 254.577C93.9265 253.861 93.5407 253.203 93.0308 252.648" fill="#349F6E"/>
<path d="M93.072 252C92.9385 252.076 92.7961 252.135 92.648 252.176L91.4 252.608L90.496 252.904C90.168 253.024 89.816 253.168 89.44 253.32C88.688 253.624 87.84 253.928 86.888 254.376L85.432 255.04C84.92 255.272 84.416 255.56 83.88 255.84C82.8 256.368 81.712 257.048 80.544 257.736C75.5552 260.829 71.1159 264.73 67.408 269.28C66.608 270.344 65.768 271.344 65.104 272.352C64.76 272.848 64.416 273.312 64.112 273.784L63.312 275.144C62.752 276 62.336 276.832 61.936 277.544C61.744 277.896 61.552 278.224 61.392 278.536C61.232 278.848 61.104 279.128 60.984 279.392L60.392 280.576C60.3362 280.719 60.2608 280.854 60.168 280.976C60.2069 280.827 60.2605 280.682 60.328 280.544L60.848 279.328C60.968 279.064 61.096 278.776 61.232 278.456C61.368 278.136 61.568 277.808 61.752 277.448C62.136 276.72 62.552 275.848 63.08 275.008C63.352 274.568 63.624 274.104 63.88 273.624C64.136 273.144 64.52 272.68 64.856 272.176C65.512 271.152 66.32 270.144 67.144 269.064C69.0085 266.772 71.0522 264.632 73.256 262.664C75.4842 260.728 77.8653 258.976 80.376 257.424C81.552 256.736 82.656 256.064 83.744 255.544C84.288 255.272 84.8 254.992 85.344 254.744L86.824 254.104C87.76 253.664 88.64 253.376 89.408 253.088C89.792 252.952 90.144 252.816 90.48 252.704L91.392 252.432L92.664 252.072C92.798 252.038 92.9344 252.014 93.072 252Z" fill="#263238"/>
<path d="M72.2056 263.297C70.0786 264.107 67.9103 264.804 65.7096 265.385C63.542 266.09 61.3357 266.669 59.1016 267.121C61.2285 266.311 63.3969 265.614 65.5976 265.033C67.7665 264.333 69.9725 263.753 72.2056 263.297Z" fill="#263238"/>
<path d="M71.9352 277.6C71.8261 276.931 71.7779 276.254 71.7912 275.576C71.7912 274.328 71.7912 272.592 71.7912 270.688C71.7912 268.784 71.9512 267.048 72.0552 265.8C72.0715 265.121 72.1573 264.446 72.3112 263.784C72.3651 264.46 72.3651 265.14 72.3112 265.816C72.2632 267.184 72.2152 268.848 72.1592 270.696C72.1032 272.544 72.0712 274.208 72.0312 275.576C72.0612 276.252 72.029 276.93 71.9352 277.6Z" fill="#263238"/>
<path d="M84.2244 271.376C84.1204 271.376 83.7924 267.864 83.4964 263.52C83.2004 259.176 83.0324 255.648 83.1364 255.648C83.2404 255.648 83.5604 259.152 83.8644 263.496C84.1684 267.84 84.3284 271.368 84.2244 271.376Z" fill="#263238"/>
<path d="M68.9336 255.304C69.6233 255.217 70.3198 255.196 71.0136 255.24C72.2936 255.24 74.0696 255.288 76.0296 255.352C77.9896 255.416 79.7576 255.496 81.0376 255.568C81.7326 255.577 82.4257 255.644 83.1096 255.768C82.4199 255.856 81.7234 255.877 81.0296 255.832C79.7496 255.832 77.9736 255.792 76.0136 255.72C74.0536 255.648 72.2856 255.576 70.9976 255.504C70.3052 255.496 69.6147 255.43 68.9336 255.304Z" fill="#263238"/>
<path d="M99.6392 299.424C99.6036 299.283 99.5874 299.138 99.5912 298.992C99.5912 298.68 99.5912 298.272 99.5352 297.776C99.4872 296.712 99.4792 295.184 99.5352 293.28C99.5912 291.376 99.6952 289.128 99.9192 286.632C100.143 284.136 100.511 281.392 101.015 278.536C101.519 275.68 102.143 273 102.775 270.536C103.407 268.072 104.095 265.952 104.719 264.136C105.343 262.32 105.871 260.936 106.319 259.928C106.511 259.464 106.663 259.128 106.791 258.8C106.84 258.666 106.902 258.538 106.975 258.416C106.958 258.558 106.917 258.695 106.855 258.824L106.399 260C106.031 260.992 105.527 262.4 104.943 264.24C104.359 266.08 103.719 268.24 103.087 270.64C102.455 273.04 101.863 275.744 101.351 278.592C100.839 281.44 100.495 284.192 100.239 286.648C99.9832 289.104 99.8392 291.384 99.7752 293.272C99.7112 295.16 99.6711 296.696 99.6711 297.76C99.6711 298.256 99.6711 298.656 99.6711 298.976C99.671 299.126 99.6603 299.276 99.6392 299.424Z" fill="#263238"/>
<path d="M101.271 278.232C100.908 278.729 100.492 279.185 100.031 279.592C99.2313 280.392 98.0873 281.464 96.7913 282.608C95.4953 283.752 94.2713 284.736 93.3673 285.432C92.9049 285.835 92.4006 286.186 91.8633 286.48C92.2704 286.02 92.7205 285.6 93.2073 285.224L96.5433 282.328L99.8553 279.4C100.289 278.967 100.763 278.576 101.271 278.232Z" fill="#263238"/>
<path d="M111.104 286.144C110.618 285.571 110.176 284.961 109.784 284.32L106.72 279.84L103.584 275.408C103.119 274.817 102.699 274.191 102.328 273.536C102.87 274.059 103.36 274.632 103.792 275.248C104.656 276.344 105.808 277.88 106.992 279.632C108.176 281.384 109.248 282.992 109.976 284.176C110.413 284.795 110.791 285.454 111.104 286.144Z" fill="#263238"/>
<path d="M105.953 261.241C106.009 261.329 102.753 263.529 98.6647 266.153C94.5767 268.777 91.2247 270.841 91.1687 270.753C91.1127 270.665 94.3687 268.465 98.4647 265.841C102.561 263.217 105.905 261.161 105.953 261.241Z" fill="#263238"/>
<path d="M115.198 271.2C113.474 269.765 111.826 268.24 110.262 266.632C108.615 265.12 107.052 263.517 105.582 261.832C107.312 263.263 108.963 264.788 110.526 266.4C112.174 267.909 113.734 269.512 115.198 271.2Z" fill="#263238"/>
<path d="M117.48 270.984L120.28 270.752C122.272 270.589 124.204 269.997 125.944 269.016C126.796 268.52 127.678 268.076 128.584 267.688C132.048 266.304 135.92 266.552 139.648 266.36C145.757 266.052 151.741 264.524 157.248 261.864C157.579 261.718 157.858 261.476 158.048 261.168C158.624 260.12 157.552 259.184 156.632 258.616C151.904 255.704 147.096 252.76 141.744 251.312C136.392 249.864 130.304 250.112 125.744 253.256C120.384 256.952 118.424 264.536 117.52 270.984" fill="#349F6E"/>
<path d="M158.071 260.8C157.91 260.734 157.752 260.659 157.599 260.576L156.271 259.88C155.119 259.272 153.463 258.376 151.359 257.376C148.922 256.173 146.381 255.193 143.767 254.448C140.57 253.529 137.222 253.257 133.919 253.648C130.611 254.016 127.487 255.358 124.943 257.504C122.956 259.351 121.366 261.583 120.271 264.064C119.287 266.168 118.671 267.96 118.239 269.176L117.735 270.592C117.685 270.76 117.621 270.924 117.543 271.08C117.566 270.906 117.606 270.735 117.663 270.568C117.775 270.208 117.919 269.728 118.095 269.136C118.629 267.389 119.265 265.674 119.999 264C121.077 261.461 122.674 259.175 124.687 257.288C127.267 255.066 130.456 253.672 133.839 253.288C137.187 252.884 140.582 253.156 143.823 254.088C146.452 254.86 149.004 255.872 151.447 257.112C153.535 258.152 155.175 259.08 156.311 259.728L157.607 260.488C157.774 260.572 157.93 260.677 158.071 260.8Z" fill="#263238"/>
<path d="M151.345 264.441C151.289 264.521 147.617 262.153 143.153 259.145C138.689 256.137 135.113 253.625 135.153 253.545C135.193 253.465 138.873 255.833 143.337 258.841C147.801 261.849 151.401 264.353 151.345 264.441Z" fill="#263238"/>
<path d="M147.823 253.184C145.955 253.771 143.983 253.954 142.039 253.72C142.99 253.522 143.956 253.41 144.927 253.384C145.885 253.234 146.854 253.167 147.823 253.184Z" fill="#263238"/>
<path d="M131.384 250.24C130.685 251.896 129.767 253.451 128.656 254.864C128.943 254.012 129.347 253.204 129.856 252.464C130.258 251.654 130.772 250.905 131.384 250.24Z" fill="#263238"/>
<path d="M134.663 266.601C134.045 266.343 133.455 266.021 132.903 265.641C131.839 265.001 130.407 264.041 128.903 262.945C127.399 261.849 126.031 260.785 125.055 260.017C124.509 259.631 124 259.194 123.535 258.713C124.13 259.022 124.692 259.39 125.215 259.809L129.127 262.649C130.647 263.753 132.047 264.721 133.071 265.425C133.635 265.77 134.168 266.163 134.663 266.601Z" fill="#263238"/>
<path d="M121.598 282.896C118.926 282.184 115.734 284.784 115.198 287.496C114.662 290.208 115.67 292.976 116.854 295.496C119.402 301.092 123.182 306.039 127.91 309.968C132.68 313.879 138.631 316.064 144.798 316.168C143.67 310.92 145.094 305.432 144.47 300.096C143.913 295.396 141.778 291.025 138.414 287.695C135.05 284.366 130.656 282.277 125.95 281.768C124.246 281.584 122.27 281.32 121.59 282.896" fill="#349F6E"/>
<path d="M144.797 316.168C144.663 316.124 144.534 316.065 144.413 315.992C144.063 315.794 143.728 315.57 143.413 315.32C142.293 314.345 141.393 313.142 140.773 311.792C140.349 310.992 139.869 310.064 139.405 309.064C138.941 308.064 138.477 307.008 137.965 305.864C137.452 304.693 136.861 303.557 136.197 302.464C135.485 301.299 134.682 300.192 133.797 299.152C131.973 297.008 130.005 295.152 128.301 293.368C126.76 291.815 125.358 290.132 124.109 288.336C123.273 287.119 122.585 285.805 122.061 284.424C121.893 283.936 121.765 283.544 121.701 283.28C121.657 283.148 121.63 283.011 121.621 282.872C121.621 282.872 121.805 283.416 122.197 284.376C122.768 285.721 123.481 287 124.325 288.192C125.598 289.949 127.01 291.599 128.549 293.128C130.261 294.888 132.237 296.744 134.085 298.912C134.991 299.966 135.812 301.089 136.541 302.272C137.203 303.383 137.793 304.535 138.309 305.72L139.717 308.92C140.165 309.912 140.629 310.824 141.045 311.648C141.629 312.986 142.478 314.192 143.541 315.192C144.309 315.88 144.837 316.136 144.797 316.168Z" fill="#263238"/>
<path d="M130.984 311.809C131 311.202 131.084 310.598 131.232 310.009C131.44 308.905 131.784 307.393 132.248 305.745C132.712 304.097 133.208 302.633 133.608 301.585C133.784 301.003 134.028 300.444 134.336 299.921C134.228 300.515 134.068 301.099 133.856 301.665C133.52 302.737 133.056 304.209 132.608 305.849C132.16 307.489 131.808 308.977 131.488 310.065C131.378 310.661 131.209 311.246 130.984 311.809Z" fill="#263238"/>
<path d="M144.313 298.92C143.672 298.826 143.041 298.679 142.425 298.48C141.273 298.184 139.681 297.768 137.913 297.368C136.145 296.968 134.529 296.664 133.361 296.44C132.72 296.358 132.088 296.219 131.473 296.024C132.119 296.008 132.766 296.062 133.401 296.184C134.585 296.336 136.217 296.608 137.993 296.984C139.769 297.36 141.361 297.84 142.497 298.208C143.125 298.382 143.734 298.621 144.313 298.92Z" fill="#263238"/>
<path d="M121.062 302.665C121.093 301.961 121.189 301.262 121.351 300.577C121.591 299.305 121.959 297.545 122.462 295.633C122.967 293.721 123.494 292.001 123.91 290.769C124.116 290.092 124.384 289.436 124.71 288.809C124.594 289.501 124.423 290.183 124.198 290.849C123.846 292.097 123.351 293.817 122.855 295.721C122.359 297.625 121.942 299.377 121.646 300.633C121.51 301.325 121.315 302.005 121.062 302.665Z" fill="#263238"/>
<path d="M138.173 287.688C138.173 287.784 134.821 287.52 130.717 287.08C126.613 286.64 123.285 286.208 123.301 286.112C125.795 286.184 128.283 286.384 130.757 286.712C133.244 286.911 135.719 287.237 138.173 287.688Z" fill="#263238"/>
<path d="M135.729 328.168C135.729 328.272 123.992 328.352 109.52 328.352C95.0485 328.352 83.3125 328.272 83.3125 328.168C83.3125 328.064 95.0485 327.984 109.52 327.984C123.992 327.984 135.729 328.064 135.729 328.168Z" fill="#455A64"/>
<path d="M127.566 343.264C127.566 343.368 119.654 343.456 109.902 343.456C100.15 343.456 92.2461 343.368 92.2461 343.264C92.2461 343.16 100.15 343.08 109.902 343.08C119.654 343.08 127.566 343.2 127.566 343.264Z" fill="#455A64"/>
<path d="M127.871 345.424C127.871 345.528 119.967 345.608 110.215 345.608C100.463 345.608 92.5586 345.528 92.5586 345.424C92.5586 345.32 100.463 345.24 110.215 345.24C119.967 345.24 127.871 345.32 127.871 345.424Z" fill="#455A64"/>
<path d="M127.872 341.489C127.872 341.593 119.696 341.673 109.608 341.673C99.5197 341.673 91.3438 341.593 91.3438 341.489C91.3438 341.385 99.5197 341.305 109.608 341.305C119.696 341.305 127.872 341.385 127.872 341.489Z" fill="#455A64"/>
</svg>
