<svg width="396" height="349" viewBox="0 0 396 349" fill="none" xmlns="http://www.w3.org/2000/svg">
<g clip-path="url(#clip0_3653_20140)">
<path d="M332.141 43.2834L316.541 81.2468C311.369 82.2928 306.114 83.0424 300.101 80.6125L271.781 68.002L292.297 24.833L332.141 43.2834Z" fill="#FAFAFA"/>
<path d="M334.969 42.1958L319.378 80.1674L302.929 79.525L274.609 66.9144L292.535 24.2891L334.969 42.1958Z" fill="#F5F5F5"/>
<path d="M315.856 75.209L319.379 80.1511C317.144 81.1158 314.735 81.612 312.301 81.609C309.073 81.5037 305.893 80.7911 302.93 79.5086C302.93 79.5086 310.313 80.5464 315.856 75.209Z" fill="#E0E0E0"/>
<path d="M333.99 51.9396L320.305 34.9306L323.868 32.0312L338.007 48.9826L333.99 51.9396Z" fill="#EBEBEB"/>
<path d="M283.469 31.2657L304.281 24.6104L305.709 28.9676L284.789 36.0677L283.469 31.2657Z" fill="#EBEBEB"/>
<path d="M291.571 39.7411C291.612 39.634 298.871 42.5993 307.78 46.3305C316.689 50.0618 323.874 53.2329 323.825 53.34C323.775 53.4471 316.524 50.4901 307.615 46.7506C298.706 43.0111 291.521 39.8482 291.571 39.7411Z" fill="#E0E0E0"/>
<path d="M289.254 45.6136C289.295 45.4983 296.555 48.4635 305.464 52.203C314.373 55.9425 321.55 59.1055 321.508 59.2125C321.467 59.3196 314.2 56.3626 305.299 52.6231C296.398 48.8836 289.205 45.7207 289.254 45.6136Z" fill="#E0E0E0"/>
<path d="M286.887 50.6888C286.936 50.5735 294.196 53.5387 303.097 57.2782C311.997 61.0177 319.191 64.1807 319.141 64.2877C319.092 64.3948 311.841 61.4378 302.932 57.6983C294.022 53.9588 286.846 50.7959 286.887 50.6888Z" fill="#E0E0E0"/>
<path d="M284.821 55.6552C284.862 55.5481 292.121 58.5133 301.03 62.2446C309.939 65.9758 317.116 69.147 317.075 69.2541C317.034 69.3612 309.766 66.4042 300.857 62.6647C291.948 58.9252 284.771 55.7622 284.821 55.6552Z" fill="#E0E0E0"/>
<path d="M315.18 205.079C302.542 194.799 300.802 177.321 302.484 161.852C302.765 159.266 302.682 156.523 304.085 154.34C305.487 152.158 308.482 150.823 310.684 152.083C312.54 153.129 313.217 155.428 314.157 157.355C315.411 159.93 317.371 162.098 319.808 163.607C321.392 164.587 323.396 165.254 325.095 164.48C327.422 163.417 327.917 160.361 328.09 157.775C328.42 152.976 328.747 148.174 329.072 143.369C329.109 140.784 329.563 138.223 330.416 135.783C331.398 133.394 333.336 131.261 335.844 130.75C338.352 130.239 341.272 131.887 341.619 134.448C341.633 135.519 341.578 136.589 341.454 137.653C341.454 138.732 341.85 139.951 342.848 140.321C343.846 140.692 344.943 140.049 345.768 139.349C348.622 136.952 350.676 133.732 352.615 130.528C354.553 127.324 356.442 124.037 359.066 121.377C361.689 118.716 365.195 116.723 368.907 116.781C372.619 116.838 376.381 119.416 377.041 123.106C377.701 126.796 375.317 130.33 372.792 133.098C369.044 137.204 364.721 140.747 359.957 143.616C359.043 144.038 358.286 144.739 357.795 145.618C357.111 147.265 358.62 149.118 360.27 149.81C362.151 150.593 364.246 150.551 366.242 150.93C368.239 151.309 370.367 152.363 370.969 154.316C371.794 157.025 369.418 159.628 367.117 161.267C362.505 164.569 357.356 167.049 351.897 168.598C349.95 169.158 347.904 169.611 346.279 170.83C344.654 172.049 343.557 174.298 344.341 176.176C345.125 178.054 347.467 178.82 349.48 178.598C351.493 178.375 353.349 177.428 355.296 176.86C358.942 175.781 363.495 176.365 365.541 179.594C366.886 181.711 366.803 184.536 365.871 186.859C364.831 189.156 363.342 191.223 361.491 192.938C355.373 199.255 347.688 203.839 339.218 206.224C330.787 208.464 323.116 208.695 315.163 205.079" fill="#F5F5F5"/>
<path d="M314.125 216.56C315.372 209.422 317.306 202.422 319.899 195.655C323.103 187.398 326.78 179.331 330.912 171.496L334.129 165.311C335.185 163.284 336.233 161.266 337.388 159.364C339.6 155.714 342.013 152.189 344.614 148.804C347.089 145.559 349.564 142.569 351.849 139.744C354.134 136.918 356.386 134.423 358.506 132.182C361.828 128.638 365.428 125.363 369.271 122.389C370.632 121.334 371.746 120.552 372.447 120.033L373.272 119.44C373.364 119.37 373.464 119.309 373.569 119.259C373.483 119.339 373.392 119.414 373.296 119.481L372.472 120.107C371.754 120.651 370.69 121.458 369.353 122.537C365.563 125.558 362.009 128.862 358.72 132.421C356.617 134.662 354.422 137.215 352.121 139.999C349.819 142.783 347.377 145.765 344.927 149.059C342.346 152.439 339.951 155.956 337.751 159.594C336.612 161.489 335.573 163.482 334.509 165.517C333.445 167.551 332.389 169.635 331.3 171.694C327.176 179.516 323.494 187.562 320.271 195.795C317.667 202.532 315.703 209.498 314.405 216.601" fill="#E0E0E0"/>
<path d="M337.537 159.356C337.44 158.993 337.385 158.62 337.372 158.244C337.29 157.52 337.199 156.473 337.117 155.18C336.944 152.586 336.82 149.003 336.704 145.049C336.589 141.095 336.424 137.521 336.209 134.934C336.11 133.649 336.011 132.603 335.937 131.878C335.878 131.505 335.858 131.127 335.879 130.75C335.999 131.108 336.079 131.478 336.119 131.854C336.251 132.57 336.399 133.616 336.548 134.901C336.845 137.488 337.067 141.071 337.183 145.033C337.298 148.994 337.381 152.446 337.455 155.164C337.455 156.375 337.529 157.404 337.554 158.228C337.593 158.603 337.587 158.982 337.537 159.356Z" fill="#E0E0E0"/>
<path d="M371.151 155.625C370.708 155.69 370.261 155.713 369.814 155.691C368.989 155.691 367.719 155.691 366.193 155.773C363.132 155.88 358.909 156.169 354.265 156.688C349.62 157.207 345.43 157.882 342.419 158.442C340.909 158.714 339.696 158.969 338.855 159.142C338.423 159.258 337.981 159.33 337.535 159.356C337.948 159.182 338.376 159.047 338.814 158.953C339.639 158.73 340.851 158.426 342.353 158.129C345.355 157.478 349.546 156.762 354.207 156.226C358.184 155.767 362.181 155.509 366.185 155.452C367.719 155.452 368.965 155.452 369.822 155.518C370.268 155.513 370.712 155.549 371.151 155.625Z" fill="#E0E0E0"/>
<path d="M320.359 195.079C320.281 194.946 320.217 194.806 320.169 194.659L319.691 193.416C319.278 192.337 318.726 190.763 318.041 188.803C316.721 184.899 315.071 179.438 313.331 173.392C311.59 167.346 310.031 161.86 308.761 157.94C308.158 156.029 307.655 154.456 307.284 153.286C307.127 152.775 306.995 152.355 306.896 152.017C306.837 151.873 306.801 151.72 306.789 151.564C306.87 151.697 306.937 151.838 306.987 151.985L307.457 153.22C307.87 154.299 308.422 155.872 309.107 157.833C310.427 161.745 312.077 167.198 313.817 173.252C315.558 179.306 317.117 184.783 318.387 188.704C318.99 190.615 319.493 192.188 319.864 193.35L320.26 194.626C320.316 194.771 320.349 194.924 320.359 195.079Z" fill="#E0E0E0"/>
<path d="M365.443 184.156C365.298 184.224 365.146 184.273 364.989 184.305L363.678 184.642L358.844 185.82C354.769 186.817 349.151 188.25 342.947 189.848C336.744 191.446 331.102 192.838 327.002 193.744C324.948 194.205 323.29 194.568 322.135 194.773L320.807 195.021C320.65 195.059 320.489 195.078 320.328 195.078C320.473 195.011 320.625 194.961 320.782 194.93L322.093 194.592L326.927 193.414C331.003 192.426 336.62 190.985 342.832 189.387C349.044 187.789 354.719 186.397 358.844 185.482C360.898 185.029 362.556 184.659 363.711 184.461L365.047 184.214C365.177 184.181 365.309 184.162 365.443 184.156Z" fill="#E0E0E0"/>
<path d="M384.209 348.943C384.209 349.066 306.156 349.157 209.904 349.157C113.652 349.157 35.582 349.066 35.582 348.943C35.582 348.819 113.611 348.729 209.904 348.729C306.197 348.729 384.209 348.827 384.209 348.943Z" fill="#263238"/>
<path d="M140.875 35.0707L160.78 95.6606C168.683 97.8598 176.734 99.606 186.353 96.4842L231.657 80.1177L204.724 10.9287L140.875 35.0707Z" fill="#E0E0E0"/>
<path d="M136.609 33.0782L156.515 93.6597L182.062 94.5164L227.367 78.1416L204.385 10.0811L136.609 33.0782Z" fill="#349F6E"/>
<path d="M162.509 86.3789L156.504 93.6602C156.504 93.6602 161.866 96.5843 167.302 96.7078C172.314 96.9248 177.321 96.1926 182.06 94.5498C182.06 94.5498 170.511 95.2005 162.509 86.3789Z" fill="#349F6E"/>
<path opacity="0.3" d="M162.509 86.3789C160.686 90.0607 158.838 94.3851 156.504 93.6602C156.504 93.6602 161.866 96.5843 167.302 96.7078C172.314 96.9248 177.321 96.1926 182.06 94.5498C182.06 94.5498 170.511 95.2005 162.509 86.3789Z" fill="black"/>
<path d="M137.038 48.2833L160.153 23.4577L154.964 18.5732L131.148 43.2589L137.038 48.2833Z" fill="#E0E0E0"/>
<path d="M217.651 21.9009L186.147 9.26562L183.441 15.8551L215.061 29.1987L217.651 21.9009Z" fill="#E0E0E0"/>
<path d="M204.15 34.1402C204.15 34.2473 192.684 38.2586 178.462 43.0936C164.24 47.9286 152.667 51.7587 152.617 51.6434C152.568 51.5281 164.075 47.525 178.305 42.69C192.535 37.855 204.109 34.0249 204.15 34.1402Z" fill="#263238"/>
<path d="M207.059 43.4804C207.059 43.5957 195.593 47.5988 181.371 52.442C167.15 57.2853 155.576 61.0989 155.543 60.9918C155.51 60.8847 167.001 56.8734 181.231 52.0302C195.461 47.187 207.059 43.3816 207.059 43.4804Z" fill="#263238"/>
<path d="M210.169 51.6197C210.169 51.7268 198.711 55.7381 184.481 60.5731C170.251 65.4081 158.694 69.2382 158.652 69.1229C158.611 69.0076 170.119 65.0045 184.349 60.1695C198.579 55.3345 210.136 51.5044 210.169 51.6197Z" fill="#263238"/>
<path d="M212.829 59.552C212.829 59.6673 201.362 63.6704 187.141 68.5136C172.919 73.3569 161.354 77.1705 161.313 77.0634C161.271 76.9563 172.771 72.945 187.001 68.1018C201.23 63.2586 212.771 59.4449 212.829 59.552Z" fill="#263238"/>
<path d="M243.351 233.084L239.359 270.149C239.359 270.149 231.58 258.412 226.317 263.642C221.301 268.634 212.442 305.032 212.442 305.032C212.442 305.032 212.326 316.901 218.645 320.04C238.913 330.121 261.5 311.177 261.5 311.177L258.274 205.087C249.871 212.149 244.525 222.18 243.351 233.084Z" fill="#349F6E"/>
<path d="M311.725 207.32L276.657 204.528C276.443 200.409 276.732 184.619 276.732 184.619C276.732 184.619 262.139 182.354 261.966 167.792C261.792 153.229 264.308 119.771 264.308 119.771C272.602 116.211 281.697 114.927 290.654 116.052C299.61 117.177 308.104 120.671 315.255 126.171L317.417 127.818L311.725 207.32Z" fill="#B78876"/>
<path d="M276.709 184.413C283.445 184.54 290.068 182.662 295.731 179.018C295.731 179.018 291.236 189.495 276.676 188.185L276.709 184.413Z" fill="#AA6550"/>
<path d="M315.628 142.916C315.875 142.809 325.651 139.959 325.329 149.917C325.007 159.875 315.067 157.503 315.059 157.215C315.05 156.926 315.628 142.916 315.628 142.916Z" fill="#B78876"/>
<path d="M318.22 153.541C318.269 153.541 318.393 153.665 318.682 153.813C319.088 154.003 319.553 154.027 319.977 153.879C321.049 153.525 321.99 151.886 322.097 150.09C322.141 149.246 322 148.403 321.684 147.619C321.602 147.304 321.445 147.014 321.225 146.775C321.005 146.535 320.729 146.352 320.422 146.243C320.224 146.183 320.011 146.194 319.821 146.275C319.631 146.357 319.475 146.503 319.383 146.688C319.243 146.96 319.292 147.158 319.243 147.174C319.193 147.191 319.036 147.001 319.127 146.589C319.195 146.347 319.34 146.133 319.54 145.98C319.821 145.786 320.166 145.706 320.505 145.757C320.917 145.857 321.297 146.061 321.607 146.35C321.918 146.638 322.149 147.001 322.278 147.405C322.669 148.281 322.845 149.239 322.79 150.197C322.658 152.199 321.569 154.044 320.117 154.414C319.847 154.485 319.563 154.494 319.289 154.44C319.015 154.385 318.756 154.27 318.533 154.101C318.236 153.78 318.187 153.558 318.22 153.541Z" fill="#AA6550"/>
<path d="M267.531 142.322C267.527 142.865 267.734 143.388 268.11 143.781C268.486 144.173 269.001 144.403 269.544 144.423C269.809 144.444 270.076 144.412 270.329 144.328C270.581 144.245 270.814 144.112 271.014 143.936C271.214 143.761 271.377 143.548 271.493 143.309C271.609 143.07 271.675 142.81 271.689 142.545C271.694 142.003 271.487 141.481 271.113 141.089C270.739 140.697 270.226 140.466 269.684 140.444C269.419 140.424 269.152 140.457 268.9 140.541C268.647 140.625 268.414 140.758 268.214 140.933C268.013 141.107 267.85 141.32 267.733 141.559C267.615 141.797 267.547 142.057 267.531 142.322Z" fill="#263238"/>
<path d="M267.071 140.263C267.326 140.535 268.91 139.365 271.146 139.373C273.381 139.381 275.031 140.502 275.27 140.197C275.386 140.073 275.122 139.579 274.446 139.06C273.476 138.392 272.324 138.038 271.146 138.047C269.979 138.043 268.841 138.409 267.896 139.093C267.178 139.653 266.947 140.139 267.071 140.263Z" fill="#263238"/>
<path d="M289.488 143.146C289.484 143.688 289.69 144.21 290.064 144.602C290.439 144.994 290.951 145.225 291.493 145.247C291.758 145.267 292.025 145.234 292.277 145.15C292.53 145.066 292.763 144.933 292.964 144.758C293.164 144.584 293.328 144.371 293.445 144.132C293.562 143.894 293.63 143.634 293.646 143.369C293.649 142.827 293.44 142.304 293.065 141.913C292.689 141.521 292.176 141.29 291.633 141.268C291.368 141.248 291.102 141.281 290.85 141.365C290.598 141.449 290.365 141.582 290.165 141.757C289.966 141.932 289.803 142.145 289.687 142.384C289.57 142.622 289.503 142.882 289.488 143.146Z" fill="#263238"/>
<path d="M289.105 140.676C289.369 140.948 290.945 139.778 293.189 139.786C295.432 139.794 297.074 140.915 297.313 140.61C297.437 140.494 297.173 140 296.488 139.481C295.519 138.813 294.367 138.456 293.189 138.46C292.022 138.459 290.885 138.825 289.938 139.506C289.221 140.074 288.982 140.56 289.105 140.676Z" fill="#263238"/>
<path d="M280.978 157.281C280.978 157.158 279.592 156.919 277.34 156.63C276.762 156.573 276.226 156.457 276.127 156.062C276.082 155.474 276.214 154.886 276.507 154.374C277.057 152.99 277.62 151.537 278.198 150.016C280.557 143.822 282.256 138.724 282.001 138.633C281.745 138.542 279.641 143.493 277.29 149.687C276.729 151.211 276.185 152.669 275.64 154.069C275.275 154.756 275.17 155.551 275.343 156.309C275.426 156.51 275.553 156.689 275.717 156.832C275.88 156.974 276.074 157.078 276.284 157.133C276.601 157.223 276.928 157.27 277.257 157.273C279.559 157.405 280.969 157.413 280.978 157.281Z" fill="#263238"/>
<path d="M288.534 131.912C288.757 132.522 291.009 132.233 293.624 132.546C296.239 132.859 298.384 133.576 298.73 133.032C298.887 132.769 298.516 132.209 297.658 131.607C296.51 130.893 295.216 130.449 293.871 130.306C292.527 130.163 291.167 130.327 289.895 130.784C288.93 131.146 288.443 131.615 288.534 131.912Z" fill="#263238"/>
<path d="M267.897 133.789C268.293 134.292 269.836 133.789 271.692 133.74C273.548 133.691 275.124 134.086 275.487 133.55C275.643 133.295 275.396 132.784 274.711 132.307C273.79 131.727 272.716 131.434 271.627 131.466C270.538 131.499 269.484 131.854 268.598 132.488C267.938 133.015 267.724 133.534 267.897 133.789Z" fill="#263238"/>
<path d="M257.21 110.578C257.107 109.674 257.235 108.758 257.583 107.917C257.931 107.076 258.487 106.336 259.199 105.768C259.934 105.234 260.835 104.978 261.741 105.046C262.648 105.114 263.501 105.501 264.148 106.139C264.011 105.53 264.003 104.9 264.126 104.289C264.248 103.678 264.498 103.099 264.859 102.59C265.22 102.081 265.684 101.654 266.221 101.336C266.758 101.018 267.356 100.816 267.976 100.743C270.36 100.595 272.389 102.391 274.682 103.017C276.976 103.643 279.335 103.099 281.496 102.234C283.657 101.369 285.67 100.167 287.856 99.3679C292.475 97.6836 297.573 97.8878 302.042 99.9361C306.511 101.984 309.989 105.711 311.721 110.306C314.914 109.31 318.535 110.932 320.507 113.601C322.478 116.27 322.981 119.845 322.585 123.156C322.278 125.39 321.725 127.583 320.935 129.696C320.935 129.885 320.935 130.066 320.935 130.256C320.779 138.262 319.871 147.668 316.448 147.726C310.484 147.817 311.911 136.59 311.911 136.59C304.586 133.773 307.316 122.818 305.485 121.154C303.653 119.49 299.826 115.636 284.499 123.452C278.543 126.492 270.632 126.401 266.309 125.421L265.93 125.338H265.839C265.797 125.324 265.756 125.308 265.715 125.289C264.326 124.948 262.998 124.392 261.781 123.642C260.347 122.816 259.214 121.555 258.547 120.042C258.226 119.285 258.133 118.451 258.279 117.642C258.426 116.833 258.805 116.084 259.372 115.487C258.187 114.097 257.435 112.39 257.21 110.578Z" fill="#263238"/>
<path d="M340.418 298.731L341.515 319.414L343.989 349.066H250.254L254.329 305.197L246.344 235.884C247.037 211.388 256.457 201.207 275.727 198.868L274.21 199.058C276.866 198.745 274.21 199.058 275.727 198.868C287.896 202.706 300.953 202.706 313.121 198.868C318.895 199.115 323.688 200.886 328.605 201.833C344.088 204.79 356.833 216.734 359.952 227.137C362.501 235.695 380.938 309.925 380.938 309.925H344.237L340.418 298.731Z" fill="#349F6E"/>
<path d="M279.071 164.167C279.383 165.073 279.822 165.93 280.374 166.713C280.653 167.103 281.013 167.43 281.428 167.671C281.843 167.913 282.305 168.063 282.783 168.113C283.294 168.111 283.796 167.982 284.243 167.737C284.691 167.493 285.071 167.141 285.348 166.713C285.893 165.842 286.144 164.82 286.066 163.797C286.066 162.874 285.604 161.779 284.689 161.672C284.303 161.657 283.92 161.739 283.575 161.91L278.766 163.863" fill="#AA6550"/>
<path d="M280.99 168.12C281.86 168.179 282.734 168.072 283.564 167.807C284.405 167.477 285.095 166.849 285.503 166.045C285.733 165.555 285.857 165.022 285.867 164.482C285.877 163.941 285.772 163.404 285.56 162.906C285.453 162.649 285.314 162.406 285.148 162.181C284.95 161.984 284.991 161.992 284.785 162.025C284.521 162.111 284.262 162.213 284.01 162.33L283.185 162.651C282.153 163.063 281.221 163.425 280.438 163.722C278.862 164.307 277.864 164.62 277.814 164.545C277.765 164.471 278.681 163.928 280.198 163.195C280.957 162.832 281.848 162.371 282.879 161.951L283.655 161.605C283.942 161.469 284.237 161.348 284.537 161.242C284.768 161.165 285.017 161.165 285.247 161.242C285.459 161.33 285.642 161.476 285.775 161.663C285.997 161.938 286.18 162.243 286.319 162.569C286.581 163.181 286.704 163.843 286.678 164.509C286.652 165.174 286.479 165.825 286.171 166.415C285.911 166.891 285.558 167.311 285.133 167.649C284.708 167.987 284.219 168.237 283.696 168.384C283.022 168.604 282.299 168.633 281.609 168.466C281.197 168.334 280.974 168.17 280.99 168.12Z" fill="#263238"/>
<path d="M246.19 294.596L224.115 226.923L222.119 215.564C222.119 215.564 216.113 190.228 215.841 187.724C215.536 184.825 214.059 184.281 213.003 184.429C211.353 184.726 210.388 186.9 210.578 189.371C210.644 190.195 212.228 203.786 212.228 203.786C211.299 202.591 210.288 201.462 209.2 200.409C206.915 198.086 202.04 197.114 197.214 197.814C192.389 198.514 191.093 199.107 191.275 200.994C191.325 201.348 191.454 201.687 191.652 201.985C191.851 202.282 192.114 202.532 192.422 202.715C193.39 203.366 194.565 203.636 195.721 203.473C203.467 202.493 206 206.413 206 206.413L206.264 207.896C206.264 207.896 201.182 205.046 197.586 206.866C197.052 207.135 196.576 207.504 196.183 207.954C195.126 208.072 194.118 208.465 193.26 209.093C192.401 209.721 191.722 210.561 191.289 211.532C190.857 212.503 190.685 213.569 190.793 214.626C190.9 215.683 191.283 216.694 191.902 217.558C192.496 218.381 193.552 219.123 194.5 218.818C195.004 218.603 195.446 218.266 195.787 217.838C195.981 217.624 196.193 217.428 196.422 217.253L197.734 221.314C197.734 221.314 201.182 230.284 202.238 234.353L212.962 302.495C213.317 304.74 214.115 306.891 215.311 308.824C216.507 310.757 218.076 312.432 219.928 313.753C221.779 315.074 223.875 316.014 226.094 316.518C228.313 317.022 230.61 317.079 232.851 316.687C235.262 316.264 237.554 315.329 239.572 313.946C241.591 312.564 243.29 310.765 244.554 308.672C245.817 306.579 246.618 304.239 246.9 301.811C247.182 299.383 246.94 296.923 246.19 294.596Z" fill="#B78876"/>
<path d="M221.777 226.231C220.399 226.774 218.823 225.885 217.916 224.715C217.009 223.545 216.538 222.087 215.722 220.852C213.247 217.145 208.182 215.803 205.922 211.989C205.6 211.454 205.377 210.704 205.831 210.284C206.285 209.864 206.928 210.095 207.481 210.284L221.042 215.976" fill="#B78876"/>
<path d="M221.021 216.01C220.587 215.697 220.116 215.439 219.618 215.244C218.695 214.799 217.342 214.189 215.667 213.44L209.777 210.87L208.061 210.137C207.415 209.733 206.636 209.6 205.892 209.766C205.665 209.867 205.474 210.035 205.344 210.247C205.215 210.459 205.153 210.705 205.166 210.952C205.188 211.358 205.303 211.752 205.504 212.106C205.874 212.728 206.311 213.308 206.807 213.835C208.828 215.944 211.27 217.13 213.102 218.637C213.988 219.31 214.766 220.112 215.411 221.018C215.997 221.841 216.401 222.789 216.863 223.596C217.172 224.284 217.626 224.897 218.196 225.392C218.766 225.888 219.437 226.253 220.163 226.462C221.252 226.668 221.813 226.248 221.763 226.232C221.256 226.298 220.742 226.27 220.245 226.149C219.596 225.902 219.006 225.522 218.511 225.034C218.017 224.546 217.63 223.961 217.375 223.316C216.954 222.492 216.55 221.578 215.972 220.631C215.311 219.649 214.502 218.777 213.572 218.044C211.691 216.455 209.266 215.219 207.41 213.259C206.957 212.786 206.558 212.264 206.222 211.702C205.916 211.175 205.892 210.606 206.222 210.516C206.552 210.425 207.179 210.623 207.756 210.87L209.472 211.578L215.436 213.992C217.144 214.659 218.53 215.194 219.486 215.548C219.974 215.773 220.49 215.928 221.021 216.01Z" fill="#AA6550"/>
<path d="M206.446 208.011C206.261 207.091 205.86 206.227 205.275 205.491C204.605 204.743 203.711 204.232 202.726 204.033C201.498 203.796 200.239 203.751 198.997 203.901C197.713 204.056 196.417 204.081 195.128 203.975C194.045 203.873 193.007 203.489 192.117 202.863C191.818 202.637 191.574 202.346 191.404 202.013C191.234 201.679 191.142 201.31 191.136 200.936C191.118 200.668 191.181 200.401 191.317 200.17C191.367 200.17 191.317 200.45 191.317 200.928C191.354 201.259 191.464 201.578 191.638 201.863C191.811 202.147 192.046 202.391 192.324 202.575C193.175 203.113 194.148 203.431 195.153 203.498C196.411 203.572 197.673 203.531 198.923 203.374C200.223 203.221 201.539 203.288 202.817 203.572C203.889 203.816 204.848 204.414 205.539 205.268C205.99 205.842 206.29 206.519 206.413 207.237C206.49 207.488 206.501 207.755 206.446 208.011Z" fill="#AA6550"/>
<path d="M210.522 188.449C210.708 189.336 210.818 190.237 210.852 191.143C211.025 192.996 211.239 195.203 211.479 197.641C211.718 200.08 211.998 202.279 212.204 204.132C212.363 205.024 212.443 205.928 212.444 206.834C212.138 205.979 211.93 205.092 211.825 204.19C211.536 202.542 211.206 200.244 210.942 197.699C210.678 195.154 210.522 192.839 210.464 191.167C210.382 190.262 210.401 189.35 210.522 188.449Z" fill="#AA6550"/>
<path d="M203.705 211.397C203.422 211.355 203.145 211.28 202.88 211.174C202.542 211.039 202.178 210.98 201.814 211.001C201.45 211.023 201.096 211.124 200.776 211.298C200.583 211.43 200.428 211.611 200.326 211.822C200.225 212.033 200.181 212.267 200.199 212.5C200.228 213.091 200.333 213.675 200.512 214.238C200.749 214.944 200.717 215.713 200.421 216.396C200.221 216.752 199.94 217.055 199.6 217.281C199.26 217.507 198.872 217.65 198.466 217.698C198.068 217.739 197.665 217.698 197.282 217.579C196.899 217.46 196.544 217.265 196.239 217.006C195.672 216.543 195.253 215.925 195.035 215.227C194.758 214.09 194.649 212.919 194.713 211.751C194.727 210.961 194.881 210.181 195.167 209.445C195.258 209.165 195.424 208.914 195.645 208.72C195.645 208.72 195.513 209 195.365 209.543C195.171 210.277 195.083 211.034 195.101 211.792C195.091 212.904 195.23 214.012 195.513 215.087C195.698 215.703 196.081 216.241 196.603 216.618C197.125 216.994 197.757 217.189 198.4 217.171C198.719 217.132 199.025 217.02 199.294 216.845C199.563 216.669 199.788 216.434 199.951 216.158C200.191 215.587 200.217 214.95 200.025 214.362C199.854 213.753 199.762 213.125 199.753 212.492C199.747 212.191 199.82 211.893 199.965 211.629C200.11 211.365 200.321 211.143 200.578 210.985C200.945 210.798 201.35 210.7 201.762 210.7C202.174 210.7 202.579 210.798 202.946 210.985C203.465 211.199 203.754 211.364 203.705 211.397Z" fill="#AA6550"/>
<path d="M196.428 216.569C196.428 216.569 196.56 216.841 196.428 217.344C196.327 217.696 196.145 218.021 195.898 218.292C195.65 218.564 195.343 218.775 195.001 218.909C194.48 219.083 193.922 219.12 193.383 219.015C192.843 218.909 192.341 218.665 191.924 218.307C190.935 217.427 190.324 216.2 190.217 214.881C190.075 213.582 190.343 212.272 190.984 211.133C191.511 210.213 192.278 209.454 193.203 208.934C193.811 208.581 194.48 208.344 195.174 208.234C195.427 208.173 195.689 208.173 195.942 208.234C195.051 208.459 194.196 208.805 193.401 209.263C192.477 209.846 191.738 210.679 191.269 211.664C190.8 212.65 190.621 213.748 190.753 214.831C190.846 216.016 191.379 217.123 192.246 217.937C192.596 218.252 193.019 218.474 193.478 218.582C193.937 218.69 194.415 218.68 194.869 218.554C195.173 218.452 195.452 218.285 195.687 218.067C195.921 217.848 196.107 217.582 196.23 217.286C196.403 216.849 196.379 216.569 196.428 216.569Z" fill="#AA6550"/>
<path d="M206.77 224.633C207.178 224.459 207.631 224.416 208.065 224.509C209.198 224.627 210.259 225.123 211.076 225.918L210.638 226.099C210.631 225.482 210.667 224.866 210.746 224.254C211.15 220.679 212.833 218.2 212.932 218.29C213.031 218.381 211.67 220.877 211.282 224.32C211.21 224.91 211.168 225.504 211.158 226.099V226.717L210.729 226.28C209.99 225.546 209.053 225.042 208.032 224.831C207.248 224.69 206.77 224.69 206.77 224.633Z" fill="#AA6550"/>
<path d="M204.013 201.57C204.145 201.619 203.724 202.649 202.586 203.283C201.447 203.917 200.358 203.769 200.383 203.629C200.408 203.489 201.34 203.382 202.322 202.805C203.303 202.229 203.873 201.487 204.013 201.57Z" fill="#AA6550"/>
<path d="M263.675 201.562C263.675 201.562 263.369 201.891 262.85 202.525C262.026 203.419 261.377 204.458 260.936 205.589C260.805 205.974 260.732 206.377 260.721 206.784C260.722 207.218 260.83 207.645 261.035 208.027C261.598 208.873 262.438 209.496 263.411 209.79C265.851 210.555 268.401 210.914 270.959 210.853C272.378 210.853 273.912 210.935 275.479 211.026L277.88 211.306C278.705 211.396 279.53 211.619 280.355 211.767C283.935 212.497 287.314 213.998 290.254 216.165C291.856 217.359 293.249 218.809 294.378 220.457C294.662 220.888 294.923 221.333 295.162 221.791C295.401 222.277 295.566 222.747 295.764 223.224C296.132 224.199 296.408 225.205 296.589 226.231C297.419 230.548 296.734 235.018 294.65 238.891C292.497 242.734 289.039 245.681 284.9 247.202C282.955 247.93 280.904 248.336 278.828 248.404C276.849 248.415 274.875 248.177 272.955 247.696C271.183 247.241 269.38 246.918 267.56 246.732C265.878 246.57 264.184 246.869 262.66 247.597C261.259 248.348 260.014 249.357 258.989 250.57C257.958 251.724 257.084 252.934 256.217 254.079C254.51 256.377 252.695 258.404 250.583 259.466C249.615 259.984 248.538 260.266 247.44 260.29C246.523 260.301 245.612 260.133 244.759 259.796C244.08 259.525 243.456 259.131 242.92 258.634C242.535 258.26 242.222 257.819 241.996 257.333C241.803 256.938 241.704 256.504 241.707 256.064C241.765 256.064 241.781 256.517 242.153 257.259C242.397 257.704 242.715 258.105 243.093 258.445C243.62 258.895 244.223 259.246 244.875 259.483C245.766 259.812 246.719 259.943 247.666 259.867C248.613 259.792 249.533 259.512 250.36 259.046C252.34 258 254.064 256.031 255.731 253.725C256.556 252.572 257.447 251.336 258.494 250.134C259.553 248.831 260.853 247.744 262.322 246.93C263.956 246.128 265.779 245.787 267.593 245.941C269.453 246.121 271.298 246.438 273.112 246.889C274.968 247.347 276.875 247.571 278.787 247.556C280.762 247.475 282.711 247.08 284.562 246.386C288.506 244.924 291.801 242.11 293.858 238.446C295.847 234.747 296.505 230.479 295.723 226.354C295.532 225.374 295.256 224.412 294.898 223.48C294.7 223.018 294.535 222.541 294.329 222.129C294.113 221.697 293.87 221.279 293.603 220.877C292.538 219.302 291.223 217.911 289.709 216.758C286.864 214.641 283.594 213.163 280.124 212.426C279.299 212.269 278.474 212.047 277.707 211.956L275.347 211.652C273.796 211.545 272.312 211.479 270.868 211.429C268.249 211.452 265.645 211.037 263.163 210.202C262.13 209.844 261.251 209.143 260.672 208.217C260.445 207.771 260.334 207.275 260.35 206.775C260.373 206.333 260.465 205.896 260.622 205.482C261.105 204.325 261.821 203.279 262.726 202.41C263.001 202.084 263.32 201.799 263.675 201.562Z" fill="#FAFAFA"/>
<path d="M326.43 256.484C326.204 255.891 326.07 255.266 326.034 254.631C325.851 252.903 325.965 251.156 326.372 249.467C326.977 246.95 328.067 244.575 329.581 242.474C331.424 239.895 333.78 237.725 336.502 236.098C339.24 234.529 342.216 233.416 345.313 232.804C347.823 232.286 350.38 232.024 352.943 232.021C354.663 232.002 356.382 232.087 358.091 232.276C358.721 232.302 359.346 232.413 359.947 232.606C359.947 232.754 357.266 232.458 352.951 232.606C350.436 232.699 347.935 233.019 345.478 233.561C342.478 234.212 339.598 235.324 336.94 236.856C334.315 238.424 332.029 240.499 330.217 242.96C328.729 244.964 327.627 247.226 326.966 249.631C326.521 251.257 326.318 252.939 326.364 254.623C326.433 255.241 326.455 255.863 326.43 256.484Z" fill="#FAFAFA"/>
<path d="M371.498 270.817C371.247 271.345 370.919 271.834 370.525 272.267C369.543 273.509 368.437 274.649 367.225 275.668C365.419 277.197 363.419 278.482 361.278 279.49C355.995 282.027 350.02 282.748 344.284 281.541C341.962 281.07 339.713 280.294 337.594 279.235C336.168 278.535 334.817 277.694 333.56 276.723C333.073 276.398 332.639 276.001 332.273 275.545C332.372 275.413 334.253 277.052 337.858 278.691C342.536 280.859 347.726 281.681 352.846 281.064C357.965 280.447 362.811 278.416 366.838 275.199C369.931 272.736 371.366 270.693 371.498 270.817Z" fill="#FAFAFA"/>
<path d="M330.067 268.164C329.829 268.296 329.577 268.401 329.316 268.477C328.609 268.764 327.967 269.19 327.427 269.729C326.6 270.607 325.955 271.64 325.53 272.768C324.955 274.274 324.507 275.825 324.194 277.406C323.854 279.351 323.408 281.276 322.857 283.172C322.51 284.25 322.031 285.282 321.43 286.244C320.766 287.254 319.954 288.159 319.021 288.929C317.01 290.528 314.69 291.697 312.208 292.364C309.667 293.122 306.978 293.533 304.272 294.061C299.181 294.898 294.354 296.905 290.174 299.925C288.385 301.264 286.801 302.857 285.472 304.653C284.34 306.238 283.438 307.973 282.791 309.809C281.838 312.479 281.538 315.337 281.917 318.145C282.213 320.13 282.667 321.168 282.576 321.201C282.431 320.969 282.314 320.72 282.23 320.459C282.102 320.154 281.995 319.84 281.908 319.521C281.775 319.088 281.668 318.648 281.587 318.203C281.07 315.335 281.286 312.383 282.213 309.62C282.841 307.708 283.741 305.897 284.886 304.241C286.236 302.368 287.853 300.703 289.687 299.299C293.945 296.163 298.887 294.08 304.107 293.22C306.837 292.685 309.502 292.281 311.968 291.573C314.349 290.949 316.577 289.847 318.518 288.336C319.396 287.63 320.163 286.797 320.795 285.865C321.372 284.964 321.837 283.996 322.181 282.982C322.753 281.105 323.226 279.2 323.6 277.274C323.949 275.662 324.443 274.086 325.076 272.563C325.56 271.397 326.282 270.345 327.196 269.474C327.78 268.927 328.483 268.524 329.25 268.296C329.513 268.207 329.789 268.162 330.067 268.164Z" fill="#FAFAFA"/>
<path d="M307.968 264.73C308.253 265.247 308.4 265.828 308.397 266.418C308.479 268.041 308.014 269.645 307.077 270.973C306.445 271.911 305.596 272.682 304.602 273.222C304.042 273.528 303.438 273.747 302.812 273.873C302.149 273.995 301.471 274.023 300.799 273.955C299.357 273.798 297.986 273.245 296.84 272.357C295.58 271.407 294.679 270.06 294.282 268.535C294.03 267.542 294.016 266.504 294.241 265.504C294.485 264.555 294.935 263.672 295.561 262.918C296.096 262.203 296.701 261.543 297.368 260.949C297.689 260.653 298.04 260.391 298.415 260.167C298.802 259.909 299.247 259.753 299.71 259.714L299.818 260.447L299.413 260.545L299.207 259.837C300.708 259.412 302.307 259.499 303.753 260.084C304.855 260.506 305.84 261.187 306.623 262.069C307.125 262.625 307.522 263.267 307.795 263.964C307.968 264.45 308.009 264.721 307.976 264.73C307.528 263.875 306.974 263.081 306.326 262.366C305.545 261.596 304.601 261.01 303.563 260.653C302.236 260.171 300.788 260.134 299.438 260.545L299.232 259.837L299.636 259.722L299.752 260.463C299.044 260.632 298.402 261.005 297.904 261.534C297.296 262.109 296.743 262.741 296.254 263.42C295.681 264.092 295.281 264.893 295.089 265.755C294.896 266.616 294.917 267.511 295.149 268.362C295.504 269.699 296.289 270.883 297.384 271.731C298.408 272.529 299.627 273.038 300.915 273.205C301.511 273.274 302.113 273.261 302.705 273.164C303.261 273.062 303.8 272.882 304.305 272.629C305.222 272.16 306.016 271.483 306.623 270.652C307.541 269.442 308.057 267.976 308.1 266.459C308.075 265.347 307.885 264.754 307.968 264.73Z" fill="#FAFAFA"/>
<path d="M254.733 237.87C254.747 237.944 254.747 238.019 254.733 238.093C254.733 238.257 254.733 238.471 254.733 238.735C254.733 239.336 254.659 240.168 254.609 241.206C254.477 243.364 254.353 246.486 254.18 250.341C253.858 258.058 253.537 268.717 253.289 280.504C253.042 292.291 252.885 302.957 252.77 310.675C252.712 314.513 252.662 317.627 252.629 319.826C252.629 320.872 252.588 321.704 252.58 322.297C252.58 322.561 252.58 322.775 252.58 322.948C252.59 323.022 252.59 323.097 252.58 323.17C252.567 323.097 252.567 323.021 252.58 322.948C252.58 322.775 252.58 322.561 252.58 322.297C252.58 321.696 252.58 320.864 252.58 319.826V310.683C252.58 302.957 252.72 292.291 252.976 280.495C253.231 268.7 253.586 258.05 253.99 250.332C254.205 246.478 254.378 243.356 254.56 241.206C254.642 240.152 254.708 239.32 254.758 238.735C254.758 238.471 254.807 238.257 254.824 238.084C254.784 238.017 254.754 237.945 254.733 237.87Z" fill="#263238"/>
<g opacity="0.2">
<path d="M238.969 314.414C243.572 316.613 249.585 312.387 251.936 307.874C251.936 307.874 253.166 297.907 253.001 292.817C252.679 283.394 253.372 274.062 253.05 264.639C252.328 270.28 249.99 275.594 246.319 279.943C245.304 281.137 244.166 282.323 243.786 283.839C243.11 286.557 245.189 291.441 246.525 293.904C250.65 301.432 241.658 314.496 239.266 314.224" fill="black"/>
</g>
<g opacity="0.2">
<path d="M325.117 252.927C326.619 271.707 328.125 290.489 329.638 309.275C329.682 311.055 330.016 312.816 330.628 314.488C330.941 315.324 331.448 316.073 332.108 316.675C332.767 317.276 333.561 317.712 334.422 317.948C337.095 318.492 339.694 316.194 340.444 313.574C341.195 310.955 340.601 308.163 339.941 305.519C338.819 301.013 337.557 296.549 336.287 292.084C332.607 279.125 328.926 266.169 325.241 253.215" fill="black"/>
</g>
<path d="M273.41 349.124C273.98 348.197 274.405 347.189 274.672 346.134C275.134 344.099 274.845 340.953 273.261 337.551C272.486 335.846 271.389 334.075 270.283 332.131C269.02 330.068 268.079 327.823 267.495 325.476C267.003 322.813 267.201 320.068 268.073 317.503C268.898 314.851 270.094 312.273 271.059 309.571C272.996 304.52 273.141 298.959 271.471 293.814C270.752 291.586 269.698 289.481 268.345 287.57C267.15 285.911 265.75 284.408 264.179 283.098C261.878 281.205 259.254 279.743 256.433 278.782C254.428 278.115 253.257 277.958 253.274 277.859C253.551 277.843 253.829 277.868 254.099 277.933C254.911 278.051 255.714 278.23 256.499 278.469C259.416 279.311 262.142 280.71 264.526 282.587C266.171 283.898 267.639 285.418 268.889 287.109C270.311 289.067 271.423 291.231 272.189 293.526C273.957 298.835 273.829 304.592 271.826 309.818C270.836 312.569 269.632 315.131 268.84 317.709C267.994 320.136 267.784 322.739 268.229 325.27C268.772 327.55 269.662 329.734 270.869 331.744C271.933 333.696 273.014 335.492 273.781 337.263C275.332 340.797 275.546 344.083 274.952 346.175C274.732 346.975 274.39 347.736 273.938 348.432C273.633 348.926 273.435 349.14 273.41 349.124Z" fill="#FAFAFA"/>
<path d="M350.85 213.621C350.69 214.22 350.409 214.781 350.025 215.268C349.087 216.663 347.867 217.847 346.445 218.744C344.324 220.08 341.908 220.878 339.408 221.067C336.368 221.273 333.316 220.884 330.425 219.922C327.478 219.066 324.785 217.506 322.58 215.375C321.633 214.418 320.859 213.303 320.295 212.081C319.817 211.011 319.516 209.87 319.404 208.704C319.216 207.015 319.537 205.308 320.328 203.803C320.448 203.57 320.586 203.347 320.74 203.136C320.845 202.972 320.967 202.821 321.103 202.683C321.309 202.46 321.433 202.345 321.458 202.37C321.483 202.394 321.087 202.913 320.633 203.951C320.006 205.428 319.795 207.049 320.023 208.638C320.163 209.729 320.474 210.79 320.946 211.784C321.508 212.913 322.256 213.941 323.157 214.824C325.292 216.828 327.873 218.296 330.689 219.107C333.479 220.039 336.42 220.438 339.359 220.285C341.747 220.144 344.068 219.441 346.131 218.234C347.523 217.414 348.753 216.348 349.761 215.087C350.098 214.58 350.462 214.091 350.85 213.621Z" fill="#FAFAFA"/>
<path d="M339.559 302.223C339.559 302.223 339.518 302.149 339.468 301.992C339.419 301.836 339.345 301.589 339.254 301.301C339.072 300.666 338.808 299.777 338.47 298.64L335.665 288.814C333.323 280.486 330.106 269.045 326.591 256.361C324.826 250.018 323.151 244.005 321.642 238.479C320.88 235.879 320.293 233.232 319.885 230.555C319.538 228.209 319.538 225.825 319.885 223.479C320.377 220.049 322.023 216.889 324.554 214.518C325.257 213.903 326.036 213.38 326.872 212.961L327.54 212.681C327.612 212.641 327.69 212.613 327.771 212.599C326.642 213.128 325.595 213.816 324.661 214.641C322.216 217.02 320.641 220.15 320.19 223.529C319.874 225.846 319.899 228.196 320.264 230.505C320.683 233.164 321.278 235.792 322.046 238.372C323.58 243.874 325.271 249.903 327.045 256.245C330.551 268.922 333.727 280.396 336.028 288.731C337.159 292.85 338.066 296.235 338.709 298.615C339.006 299.76 339.246 300.666 339.411 301.309C339.485 301.597 339.543 301.828 339.584 302.009C339.584 302.081 339.576 302.153 339.559 302.223Z" fill="#263238"/>
<path d="M305.958 119.821C306.026 119.235 306.026 118.643 305.958 118.058C305.708 116.46 304.902 115.002 303.682 113.939C301.846 112.391 299.48 111.614 297.082 111.773C294.385 111.773 291.514 112.679 288.544 113.676C287.06 114.162 285.583 114.631 284.131 114.953C282.729 115.262 281.301 115.436 279.866 115.471C277.434 115.535 275.007 115.218 272.673 114.532C271.109 114.062 269.601 113.421 268.177 112.622C267.788 112.413 267.41 112.182 267.047 111.93C266.912 111.852 266.788 111.758 266.676 111.65C266.676 111.65 267.237 111.963 268.26 112.473C269.698 113.207 271.207 113.795 272.764 114.228C275.07 114.862 277.459 115.14 279.85 115.051C281.26 115.004 282.663 114.828 284.04 114.524C285.467 114.203 286.919 113.701 288.412 113.248C291.374 112.251 294.302 111.353 297.074 111.353C299.554 111.217 301.988 112.057 303.855 113.692C305.098 114.805 305.895 116.329 306.099 117.984C306.197 118.598 306.148 119.228 305.958 119.821Z" fill="#455A64"/>
<path d="M317.309 144.44C317.309 144.44 317.227 144.341 317.111 144.135C316.996 143.929 316.847 143.616 316.658 143.204C316.15 142.042 315.763 140.83 315.503 139.588C315.107 137.738 314.979 135.841 315.123 133.954C315.399 131.67 315.835 129.408 316.427 127.184C317.001 124.991 317.001 122.688 316.427 120.496C316.153 119.556 315.677 118.688 315.033 117.95C314.458 117.329 313.738 116.859 312.937 116.583C311.77 116.141 310.476 116.173 309.332 116.674C308.934 116.894 308.561 117.157 308.219 117.456C308.479 117.061 308.837 116.741 309.258 116.525C309.84 116.236 310.475 116.067 311.124 116.028C311.773 115.988 312.423 116.079 313.036 116.295C313.896 116.571 314.673 117.058 315.297 117.711C315.986 118.479 316.501 119.387 316.806 120.372C317.406 122.634 317.406 125.012 316.806 127.274C316.218 129.481 315.774 131.723 315.478 133.987C315.322 135.837 315.416 137.698 315.759 139.522C315.991 140.755 316.331 141.965 316.773 143.138C317.128 143.97 317.342 144.423 317.309 144.44Z" fill="#455A64"/>
<path d="M307.367 118.642C307.349 118.448 307.349 118.252 307.367 118.057C307.367 117.637 307.367 117.086 307.433 116.41C307.524 114.369 307.296 112.327 306.756 110.356C306.352 109.017 305.69 107.77 304.81 106.682C303.813 105.431 302.444 104.528 300.9 104.104C299.172 103.704 297.367 103.778 295.678 104.319C293.849 104.895 292.095 105.688 290.456 106.682C288.793 107.685 287.062 108.571 285.276 109.335C283.572 109.999 281.766 110.361 279.938 110.406C278.29 110.447 276.645 110.247 275.055 109.812C273.677 109.413 272.349 108.86 271.095 108.165C269.287 107.145 267.693 105.786 266.401 104.162C266.046 103.727 265.726 103.264 265.445 102.778C265.334 102.618 265.24 102.447 265.164 102.268C265.299 102.408 265.418 102.563 265.519 102.729C265.823 103.194 266.159 103.637 266.525 104.055C267.849 105.609 269.445 106.91 271.235 107.893C272.477 108.555 273.789 109.077 275.146 109.45C276.706 109.859 278.317 110.042 279.93 109.994C281.708 109.94 283.463 109.581 285.119 108.931C286.884 108.166 288.596 107.283 290.242 106.287C291.913 105.282 293.7 104.48 295.562 103.898C297.324 103.346 299.202 103.278 300.999 103.701C302.619 104.155 304.05 105.116 305.082 106.444C305.985 107.571 306.652 108.868 307.045 110.257C307.575 112.257 307.762 114.332 307.598 116.394C307.557 117.127 307.499 117.687 307.449 118.041C307.447 118.244 307.42 118.446 307.367 118.642Z" fill="#455A64"/>
<path d="M285.577 324.602L347.29 315.418L346.3 309.933H379.461L380.427 318.367C381.134 322.033 381.026 325.809 380.11 329.428C379.194 333.048 377.492 336.422 375.126 339.312C372.759 342.202 369.786 344.538 366.415 346.154C363.045 347.769 359.36 348.626 355.621 348.662L283.672 347.838L285.577 324.602Z" fill="#B78876"/>
<path d="M290.034 325.666C289.704 325.773 285.547 323.911 281.826 322.19C277.876 320.357 273.539 319.509 269.188 319.719L252.038 320.592C252.038 320.592 253.094 323.417 254.917 324.422C256.74 325.427 267.398 325.641 267.398 325.641L266.846 326.201C264.601 328.512 261.539 329.851 258.316 329.932L256.666 329.974C255.45 329.877 254.249 329.642 253.086 329.274L248.854 327.569C247.576 326.992 246.223 327.083 245.662 328.392C245.158 329.554 245.53 331.16 249.027 332.914C250.974 333.894 258.217 336.398 258.217 336.398C258.264 337.425 258.405 338.445 258.638 339.446C258.951 340.5 261.797 341.546 261.797 341.546C262.535 343.112 263.379 344.625 264.321 346.077C264.651 346.447 267.233 347.246 269.972 348.02C274.396 349.262 279.081 349.225 283.484 347.913L290.026 345.97V326.094" fill="#B78876"/>
<path d="M266.564 338.647C263.542 338.568 260.58 337.79 257.91 336.374C257.96 336.258 259.832 336.983 262.216 337.601C264.6 338.219 266.58 338.523 266.564 338.647Z" fill="#AA6550"/>
<path d="M265.961 342.658C265.158 342.831 264.322 342.771 263.552 342.485C262.743 342.338 261.991 341.967 261.383 341.414C262.159 341.579 262.923 341.799 263.668 342.073C264.445 342.213 265.212 342.409 265.961 342.658Z" fill="#AA6550"/>
<path d="M363.561 329.784C363.479 329.784 363.074 328.59 362.085 326.786C361.504 325.731 360.842 324.723 360.105 323.771C359.202 322.608 358.2 321.525 357.11 320.534C356.004 319.56 354.818 318.681 353.563 317.907C352.537 317.277 351.464 316.726 350.354 316.259C348.449 315.477 347.187 315.197 347.211 315.114C347.517 315.139 347.819 315.2 348.11 315.295C348.457 315.364 348.799 315.454 349.133 315.567C349.529 315.691 349.958 315.814 350.47 316.012C351.614 316.443 352.718 316.972 353.769 317.594C355.058 318.362 356.273 319.247 357.399 320.238C358.504 321.244 359.517 322.347 360.426 323.532C361.156 324.513 361.799 325.554 362.349 326.646C362.604 327.099 362.769 327.544 362.943 327.922C363.087 328.244 363.211 328.574 363.314 328.911C363.432 329.191 363.515 329.484 363.561 329.784Z" fill="#AA6550"/>
<path d="M269.094 324.125C268.715 324.648 268.272 325.121 267.774 325.533C266.635 326.608 265.382 327.555 264.038 328.359C262.676 329.15 261.198 329.72 259.657 330.047C259.029 330.218 258.377 330.287 257.727 330.253C257.686 330.097 260.697 329.825 263.815 327.988C265.137 327.196 266.392 326.298 267.568 325.303C268.038 324.862 268.549 324.468 269.094 324.125Z" fill="#AA6550"/>
<path d="M91.6325 304.587C93.1008 304.587 80.3971 338.67 77.1222 347.377C76.7592 348.34 76.5117 349.189 76.5117 349.189L165.455 349.337L164.407 266.697C164.411 266.643 164.411 266.587 164.407 266.533L156.983 207.425C156.946 207.139 156.825 206.87 156.636 206.651C156.447 206.433 156.197 206.275 155.918 206.198C152.396 205.251 139.701 201.981 129.991 201.619C118.616 201.198 102.15 203.455 102.15 203.455C102.15 203.455 87.3594 204.921 79.1927 207.887C78.877 207.999 78.61 208.217 78.4371 208.504C78.2642 208.791 78.196 209.129 78.244 209.46L91.6325 304.587Z" fill="#349F6E"/>
<path d="M132.702 267.933C132.588 268.307 132.439 268.668 132.256 269.012C132.074 269.43 131.865 269.834 131.629 270.223C131.344 270.753 131.03 271.268 130.689 271.764C130.288 272.378 129.853 272.969 129.385 273.534C128.871 274.193 128.32 274.823 127.736 275.421C126.377 276.788 124.884 278.015 123.281 279.086C121.654 280.124 119.93 281.001 118.134 281.705C117.309 281.994 116.484 282.29 115.733 282.48C115.028 282.679 114.312 282.839 113.588 282.957C112.996 283.071 112.399 283.154 111.798 283.204C111.344 283.267 110.887 283.297 110.429 283.295C110.042 283.338 109.652 283.338 109.266 283.295C109.266 283.204 110.915 283.213 113.53 282.686C114.24 282.546 114.942 282.37 115.634 282.158C116.393 281.961 117.168 281.656 117.985 281.335C119.748 280.624 121.441 279.749 123.042 278.724C124.623 277.672 126.101 276.472 127.455 275.141C128.057 274.506 128.651 273.922 129.105 273.304C129.579 272.757 130.022 272.185 130.433 271.591C131.984 269.424 132.619 267.892 132.702 267.933Z" fill="#263238"/>
<g opacity="0.2">
<path d="M79.5273 340.912C83.6955 342.617 88.234 343.22 92.7038 342.662C97.1736 342.103 101.423 340.403 105.042 337.724C108.251 335.401 110.94 332.362 114.405 330.426C119.206 327.757 124.923 327.502 130.408 327.131C137.742 326.604 145.141 325.707 152.038 323.153C153.477 322.733 154.781 321.947 155.824 320.871C156.773 319.727 157.095 317.923 156.162 316.753C155.23 315.583 153.457 315.501 151.931 315.551C128.932 316.226 107.913 318.063 85.5245 323.375" fill="black"/>
</g>
<path d="M104.316 116.59C111.427 109.358 122.646 105.059 131.935 109.177C138.188 111.912 142.428 117.768 147.913 121.812C151.906 124.761 156.839 127.043 158.934 131.54C160.782 135.502 159.891 140.123 159.446 144.472C159 148.821 159.314 153.837 162.688 156.629C164.453 158.087 166.812 158.672 168.784 159.809C172.801 162.107 175.185 166.579 176.043 171.118C176.901 175.656 176.439 180.335 175.977 184.939L156.831 188.58L153.688 183.3L152.607 191.578L128.173 193.777L104.316 116.59Z" fill="#263238"/>
<path d="M101.152 124.481V129.794L99.6421 209.534C99.5101 218.776 108.37 226.642 118.285 226.708C128.292 226.774 132.375 219.295 132.664 209.929C132.961 200.136 133.489 189.823 133.489 189.823C133.489 189.823 146.184 188.077 149.261 171.702C150.787 163.548 150.746 150.114 150.358 139.118C150.276 136.771 149.72 134.466 148.722 132.34C147.724 130.214 146.306 128.311 144.553 126.747C142.799 125.183 140.747 123.989 138.52 123.237C136.292 122.485 133.935 122.191 131.591 122.372L101.152 124.481Z" fill="#FFBE9D"/>
<path d="M145.938 149.686C145.93 150.236 145.705 150.761 145.314 151.147C144.922 151.534 144.394 151.752 143.843 151.754C143.574 151.768 143.304 151.728 143.05 151.637C142.796 151.546 142.563 151.405 142.365 151.222C142.166 151.039 142.007 150.819 141.895 150.573C141.783 150.328 141.722 150.063 141.715 149.793C141.726 149.243 141.95 148.719 142.341 148.332C142.732 147.944 143.259 147.724 143.81 147.718C144.08 147.703 144.351 147.743 144.605 147.835C144.86 147.927 145.093 148.069 145.291 148.252C145.49 148.436 145.649 148.658 145.761 148.904C145.872 149.15 145.932 149.416 145.938 149.686Z" fill="#263238"/>
<path d="M147.189 145.995C146.917 146.267 145.35 145.031 143.065 144.982C140.78 144.932 139.089 146.011 138.849 145.723C138.734 145.599 139.014 145.114 139.757 144.603C140.758 143.944 141.941 143.615 143.139 143.664C144.334 143.683 145.492 144.088 146.439 144.817C147.098 145.369 147.321 145.871 147.189 145.995Z" fill="#263238"/>
<path d="M123.517 149.686C123.506 150.236 123.281 150.759 122.89 151.145C122.498 151.531 121.971 151.75 121.421 151.754C121.152 151.768 120.882 151.728 120.628 151.637C120.374 151.546 120.141 151.405 119.943 151.222C119.745 151.039 119.585 150.819 119.473 150.573C119.362 150.328 119.3 150.063 119.293 149.793C119.304 149.243 119.528 148.719 119.919 148.332C120.311 147.944 120.837 147.724 121.388 147.718C121.658 147.703 121.929 147.743 122.183 147.835C122.438 147.927 122.671 148.069 122.87 148.252C123.068 148.436 123.228 148.658 123.339 148.904C123.45 149.15 123.51 149.416 123.517 149.686Z" fill="#263238"/>
<path d="M124.799 145.806C124.526 146.069 122.959 144.842 120.674 144.784C118.389 144.727 116.698 145.822 116.459 145.534C116.343 145.41 116.624 144.916 117.366 144.414C118.368 143.755 119.55 143.424 120.748 143.467C121.943 143.488 123.1 143.893 124.048 144.62C124.708 145.18 124.931 145.682 124.799 145.806Z" fill="#263238"/>
<path d="M132.594 162.914C132.594 162.782 134.013 162.576 136.306 162.346C136.891 162.305 137.444 162.206 137.551 161.81C137.619 161.213 137.501 160.609 137.213 160.081C136.71 158.656 136.174 157.173 135.613 155.608C133.402 149.258 131.818 144.077 132.074 143.945C132.33 143.813 134.334 148.945 136.545 155.303C137.081 156.868 137.593 158.359 138.071 159.792C138.422 160.5 138.507 161.309 138.31 162.074C138.221 162.277 138.086 162.457 137.916 162.6C137.745 162.743 137.545 162.845 137.329 162.898C137.005 162.978 136.672 163.014 136.339 163.005C134.029 163.046 132.602 163.013 132.594 162.914Z" fill="#263238"/>
<path d="M133.43 189.824C125.66 189.73 118.069 187.483 111.504 183.333C111.504 183.333 116.544 194.79 133.1 193.703L133.43 189.824Z" fill="#EB996E"/>
<path d="M131.479 168.333C131.062 167.774 130.51 167.329 129.873 167.041C129.237 166.752 128.538 166.63 127.841 166.686C127.338 166.718 126.846 166.852 126.395 167.078C125.944 167.305 125.544 167.619 125.218 168.004C124.905 168.375 124.713 168.832 124.667 169.315C124.621 169.798 124.724 170.283 124.962 170.705C125.32 171.121 125.793 171.421 126.322 171.567C126.851 171.714 127.411 171.701 127.932 171.529C129.014 171.177 130.018 170.618 130.885 169.882C131.149 169.708 131.376 169.484 131.553 169.223C131.634 169.101 131.677 168.957 131.677 168.811C131.677 168.665 131.634 168.521 131.553 168.399" fill="#EB996E"/>
<path d="M125.853 164.274C126.224 164.274 126.158 166.745 128.22 168.54C130.283 170.336 132.931 170.147 132.939 170.493C132.939 170.649 132.337 170.962 131.223 170.954C129.776 170.938 128.381 170.41 127.288 169.463C126.236 168.557 125.579 167.278 125.457 165.896C125.383 164.859 125.68 164.257 125.853 164.274Z" fill="#263238"/>
<path d="M125.526 139.192C125.279 139.801 123.051 139.447 120.337 139.694C117.623 139.941 115.479 140.609 115.14 140.048C114.992 139.777 115.38 139.225 116.27 138.632C117.454 137.932 118.78 137.51 120.151 137.397C121.521 137.284 122.9 137.484 124.181 137.981C125.147 138.401 125.625 138.904 125.526 139.192Z" fill="#263238"/>
<path d="M147.271 141.408C146.768 141.91 144.879 141.317 142.578 141.227C140.276 141.136 138.337 141.457 137.9 140.905C137.711 140.642 138.032 140.131 138.898 139.67C140.089 139.089 141.413 138.833 142.734 138.929C144.051 138.972 145.332 139.364 146.446 140.065C147.238 140.617 147.494 141.161 147.271 141.408Z" fill="#263238"/>
<path d="M84.1379 206.379C84.1379 206.379 57.6085 212.589 52.461 237.679C50.0934 249.21 46.7855 315.492 62.2445 325.812C82.1993 339.106 107.615 327.015 107.615 327.015L104.315 294.957H87.817L85.598 259.836C86.2414 262.579 84.1379 206.379 84.1379 206.379Z" fill="#349F6E"/>
<path d="M178.507 316.703C183.711 316.17 188.514 313.673 191.935 309.721C195.356 305.769 197.136 300.662 196.911 295.444L186.072 249.458C186.072 249.458 179.043 210.004 156.828 206.445L164.401 266.574L163.675 279.25C163.675 279.25 164.021 287.635 164.871 303.351L178.507 316.703Z" fill="#349F6E"/>
<path d="M181.379 287.932C180.039 287.981 178.705 288.127 177.386 288.368C174.203 289.014 171.287 290.598 169.013 292.914C166.74 295.231 165.214 298.175 164.633 301.366C164.417 302.69 164.299 304.028 164.278 305.369C164.192 305.013 164.15 304.648 164.155 304.282C164.11 303.287 164.171 302.29 164.336 301.308C164.863 298.031 166.4 294.999 168.733 292.634C171.066 290.269 174.079 288.689 177.353 288.113C178.335 287.933 179.333 287.85 180.331 287.866C180.682 287.845 181.034 287.867 181.379 287.932Z" fill="#263238"/>
<path d="M112.937 114.754C115.923 118.757 117.342 121.829 119.132 128.954C120.014 132.438 117.169 134.901 114.347 137.034C114.044 137.264 113.688 137.415 113.311 137.471C112.934 137.527 112.549 137.488 112.192 137.357C111.834 137.225 111.515 137.006 111.265 136.72C111.015 136.433 110.841 136.088 110.759 135.716C110.759 135.716 111.732 146.63 107.781 151.523C105.933 153.821 105.851 156.761 106.288 159.241C106.784 161.762 108.012 164.082 109.818 165.912C114.405 170.723 115.675 178.572 112.516 184.47C111.601 185.919 110.761 187.415 110 188.951C109.615 189.867 109.438 190.857 109.48 191.85C109.529 192.433 109.354 193.012 108.991 193.471C108.628 193.929 108.104 194.233 107.525 194.321C93.9499 196.282 80.1953 196.693 66.5267 195.548C66.0568 195.511 65.6105 195.327 65.2509 195.022C64.8912 194.718 64.6364 194.308 64.5222 193.852C63.4498 189.272 65.2398 184.33 67.5249 180.211C70.0821 175.558 73.2993 171.093 74.215 165.863C75.0399 160.921 73.6953 155.633 75.6751 151.037C78.1498 145.411 84.7492 142.751 88.0489 137.586C91.1753 132.718 90.9196 126.335 93.7161 121.277C97.3127 114.77 106.148 111.772 112.961 114.745" fill="#263238"/>
<path d="M113.698 120.792C118.886 123.46 121.287 129.794 126.327 132.727C130.914 135.395 136.639 134.695 141.893 133.905C141.704 132.743 141.506 131.574 141.308 130.412C141.781 131.464 142.44 132.421 143.255 133.237C143.668 133.64 144.184 133.924 144.746 134.057C145.308 134.191 145.896 134.169 146.447 133.995C148.212 133.287 148.443 130.865 147.998 129.053C147.191 126.104 145.607 123.424 143.411 121.294C139.488 117.318 134.261 114.885 128.689 114.44C123.116 113.995 117.569 115.569 113.062 118.872" fill="#263238"/>
<path d="M162.339 238.041C162.377 238.256 162.393 238.474 162.388 238.692C162.388 239.153 162.388 239.771 162.446 240.545C162.446 242.192 162.562 244.49 162.685 247.365C162.925 253.131 163.461 261.071 164.112 269.843C164.764 278.615 165.251 286.572 165.408 292.338C165.49 295.221 165.531 297.552 165.507 299.166C165.507 299.94 165.507 300.558 165.507 301.02C165.526 301.236 165.526 301.454 165.507 301.67C165.469 301.455 165.452 301.238 165.457 301.02C165.457 300.558 165.457 299.94 165.399 299.166C165.399 297.519 165.284 295.229 165.16 292.346C164.929 286.58 164.385 278.648 163.741 269.868C163.098 261.088 162.595 253.147 162.438 247.382C162.355 244.499 162.322 242.159 162.339 240.545C162.339 239.771 162.339 239.153 162.339 238.692C162.325 238.475 162.325 238.258 162.339 238.041Z" fill="#263238"/>
<path d="M87.8425 294.966C87.8049 294.815 87.7856 294.661 87.7848 294.505C87.7848 294.151 87.7353 293.681 87.694 293.179C87.628 291.968 87.5373 290.329 87.4301 288.319C87.1908 284.201 86.8279 278.542 86.3989 272.274C85.97 266.006 85.574 260.396 85.2853 256.237C85.1533 254.235 85.0461 252.588 84.9636 251.377C84.9636 250.842 84.9141 250.405 84.8976 250.059C84.8779 249.903 84.8779 249.746 84.8976 249.59C84.9378 249.741 84.9627 249.895 84.9718 250.051C84.9718 250.397 85.0626 250.834 85.1203 251.369C85.2358 252.572 85.3925 254.211 85.5822 256.22C85.9452 260.339 86.4072 265.981 86.8196 272.249C87.2321 278.517 87.5621 284.193 87.7188 288.303C87.793 290.362 87.8508 292.026 87.859 293.171V294.497C87.8747 294.653 87.8692 294.811 87.8425 294.966Z" fill="#263238"/>
<path d="M87.8444 294.966C87.8444 295.04 87.0195 295.082 85.6832 295.518C83.9922 296.077 82.4899 297.094 81.3436 298.455C80.1974 299.816 79.4522 301.469 79.191 303.228C78.9848 304.579 79.092 305.435 79.0178 305.443C78.9436 305.452 78.9353 305.238 78.8858 304.85C78.8245 304.303 78.8245 303.75 78.8858 303.203C79.0788 301.357 79.8199 299.61 81.0141 298.187C82.2221 296.778 83.8165 295.753 85.6007 295.238C86.1394 295.088 86.6923 294.994 87.2505 294.958C87.63 294.917 87.8444 294.933 87.8444 294.966Z" fill="#263238"/>
<path d="M107.577 327.024C107.525 326.858 107.492 326.687 107.478 326.513C107.428 326.134 107.371 325.648 107.288 325.047C107.14 323.721 106.933 321.901 106.678 319.66C106.191 315.064 105.531 308.796 104.805 301.877C104.566 299.472 104.327 297.141 104.112 294.983L104.318 295.172L91.1197 295.09L87.2839 295.032H86.261C86.1431 295.046 86.0241 295.046 85.9062 295.032C86.0219 295.001 86.1413 294.988 86.261 294.991H87.2839L91.1197 294.934L104.318 294.859H104.5V295.049L105.209 301.935C105.886 308.862 106.496 315.114 106.95 319.743C107.148 321.983 107.313 323.812 107.428 325.138C107.478 325.739 107.511 326.233 107.544 326.612C107.566 326.748 107.577 326.886 107.577 327.024Z" fill="#263238"/>
<path d="M107.571 327.024C107.367 327.111 107.157 327.186 106.944 327.246L105.137 327.823C103.562 328.317 101.277 329.009 98.4223 329.767C95.0815 330.678 91.6873 331.383 88.2593 331.875C84.0343 332.446 79.7404 332.242 75.5886 331.274C73.4371 330.81 71.3158 330.216 69.2367 329.495C68.2385 329.133 67.2569 328.77 66.3082 328.375C65.838 328.177 65.3678 327.988 64.9224 327.749L64.2459 327.411L63.6107 327.007C62.0599 325.96 60.7127 324.64 59.6346 323.111C58.6863 321.796 57.858 320.399 57.1599 318.935C56.1796 316.82 55.3526 314.637 54.6851 312.404C54.4376 311.58 54.2562 311.003 54.1489 310.583C54.0817 310.37 54.0293 310.153 53.9922 309.933C54.0908 310.134 54.1709 310.343 54.2314 310.559L54.8419 312.354C55.5737 314.554 56.4444 316.705 57.4486 318.795C58.152 320.237 58.9801 321.615 59.9234 322.914C60.988 324.397 62.3128 325.675 63.8335 326.686L64.4439 327.073L65.0956 327.403C65.5246 327.633 65.9948 327.815 66.465 328.012C67.4054 328.4 68.3788 328.762 69.3769 329.108C71.4399 329.823 73.5446 330.411 75.6793 330.871C79.7847 331.828 84.0286 332.043 88.2098 331.505C91.6251 331.03 95.0101 330.359 98.3481 329.495C101.202 328.77 103.496 328.119 105.088 327.683L106.919 327.18C107.13 327.106 107.349 327.054 107.571 327.024Z" fill="#263238"/>
<path d="M93.5758 134.266C94.3682 132.322 94.5615 130.186 94.1309 128.132C93.7003 126.077 92.6654 124.198 91.1588 122.734C89.6101 121.321 87.7139 120.343 85.6633 119.9C83.6127 119.458 81.4812 119.566 79.4862 120.214C77.6689 120.76 76.0718 121.867 74.9243 123.377C72.9033 126.161 73.2745 130.263 75.3863 133.006C76.4911 134.333 77.8669 135.41 79.4217 136.164C80.9766 136.918 82.6747 137.333 84.4027 137.379C87.8653 137.448 91.2992 136.739 94.4502 135.304" fill="#263238"/>
<path d="M121.004 264.902C126.778 269.655 140.357 280.906 140.357 280.906L147.954 279.555L124.922 260.207C124.325 259.709 123.561 259.456 122.784 259.5C122.007 259.544 121.276 259.883 120.74 260.446C120.449 260.748 120.224 261.107 120.079 261.501C119.933 261.894 119.871 262.313 119.896 262.732C119.921 263.15 120.032 263.559 120.223 263.933C120.413 264.306 120.679 264.636 121.004 264.902Z" fill="#455A64"/>
<path d="M120.433 262.431L117.447 259.738C117.166 259.483 116.994 259.13 116.968 258.753C116.942 258.375 117.063 258.002 117.307 257.711C117.434 257.562 117.591 257.44 117.767 257.353C117.943 257.265 118.134 257.213 118.33 257.201C118.527 257.189 118.723 257.216 118.909 257.281C119.094 257.346 119.265 257.448 119.41 257.58L122.289 260.215L120.433 262.431Z" fill="#455A64"/>
<path d="M129.295 263.881C128.789 264.722 128.164 265.485 127.439 266.146C126.814 266.902 126.086 267.568 125.277 268.123C125.784 267.28 126.409 266.515 127.133 265.849C127.754 265.092 128.482 264.429 129.295 263.881Z" fill="#263238"/>
<path d="M129.51 273.352C128.697 272.926 127.927 272.424 127.209 271.853C125.839 270.865 123.983 269.431 122.028 267.735C121.027 266.99 120.199 266.037 119.603 264.942C119.181 263.984 119.154 262.898 119.529 261.919C119.779 261.27 120.201 260.701 120.749 260.272C121.137 259.984 121.393 259.893 121.401 259.918C121.409 259.943 121.195 260.083 120.857 260.404C120.377 260.857 120.02 261.424 119.817 262.051C119.511 262.956 119.564 263.944 119.966 264.811C120.561 265.838 121.361 266.732 122.317 267.438C124.255 269.127 126.07 270.593 127.398 271.639C128.137 272.166 128.842 272.738 129.51 273.352Z" fill="#263238"/>
<path d="M104.574 297.528C110.052 295.699 115.859 296.935 121.328 295.098C123.206 294.605 124.965 293.74 126.501 292.553C128.241 291.013 129.124 288.747 130.51 286.886C134.634 281.318 142.38 280.165 149.293 279.473C150.896 279.215 152.532 279.238 154.127 279.539C154.925 279.699 155.667 280.063 156.283 280.594C156.898 281.125 157.366 281.805 157.641 282.57C158.087 284.127 157.08 286.071 155.463 286.235C156.981 286.301 158.037 287.833 158.318 289.324C158.598 290.815 158.318 292.347 158.549 293.846C158.829 295.955 159.984 297.923 159.918 300.048C159.827 302.956 157.443 305.353 154.721 306.473C151.999 307.593 149.054 307.741 146.175 308.12C131.986 310.114 121.262 318.145 107.577 324.215" fill="#FFBE9D"/>
<path d="M158.446 291.26C158.585 291.487 158.77 291.683 158.989 291.836C159.207 291.989 159.455 292.096 159.716 292.149C159.978 292.202 160.248 292.201 160.509 292.146C160.77 292.091 161.017 291.983 161.234 291.828C161.658 291.492 161.981 291.046 162.17 290.54C162.359 290.033 162.406 289.485 162.307 288.954C162.091 287.891 161.621 286.897 160.937 286.054C159.732 284.497 158.408 283.035 156.978 281.681L152.605 285.354L158.446 291.26Z" fill="#FFBE9D"/>
<path d="M156.831 286.465C156.831 286.605 154.141 286.383 150.899 286.885C147.658 287.388 145.125 288.36 145.125 288.236C145.619 287.911 146.158 287.661 146.725 287.495C148.065 287.02 149.446 286.673 150.85 286.457C152.255 286.244 153.678 286.17 155.098 286.235C155.684 286.227 156.267 286.305 156.831 286.465Z" fill="#EB996E"/>
<path d="M158.758 295.048C158.758 295.18 156.506 294.719 153.726 294.801C150.946 294.884 148.736 295.427 148.711 295.296C151.949 294.15 155.468 294.063 158.758 295.048Z" fill="#EB996E"/>
<path d="M158.297 292.512C158.222 292.512 158.297 291.87 158.173 290.865C158.014 289.561 157.56 288.31 156.845 287.208C156.673 286.941 156.486 286.686 156.284 286.442L156.16 286.285L156.292 286.153C156.669 285.772 156.964 285.318 157.161 284.82C157.358 284.322 157.453 283.789 157.439 283.254C157.439 282.43 157.191 281.969 157.249 281.944C157.544 282.312 157.706 282.767 157.711 283.237C157.774 283.824 157.706 284.417 157.512 284.974C157.318 285.531 157.003 286.038 156.589 286.458V286.17C156.806 286.433 157.007 286.708 157.191 286.993C157.945 288.152 158.383 289.486 158.462 290.865C158.527 291.419 158.471 291.981 158.297 292.512Z" fill="#EB996E"/>
<path d="M158.455 290.79L165.649 297.528L166.564 301.531L159.916 300.032C158.959 296.655 158.258 293.434 158.455 290.79Z" fill="#455A64"/>
<path d="M148.712 299.372C148.564 299.636 109.875 318.679 109.875 318.679V322.798L149.356 302.288L198.331 300.468V297.568L148.712 299.372Z" fill="#F5F5F5"/>
<path d="M109.875 323.367C110.147 323.185 152.589 319.364 152.589 319.364L198.331 300.419L149.356 302.264L109.875 322.774V323.367Z" fill="#263238"/>
<path d="M150.508 313.227C150.17 311.003 152.298 309.109 154.468 308.508C156.637 307.906 158.955 308.154 161.15 307.684C162.542 307.302 163.904 306.817 165.225 306.234C171.989 303.648 179.413 303.508 186.673 303.409C187.094 304.391 187.16 305.489 186.859 306.514C186.558 307.539 185.909 308.428 185.023 309.027C185.623 310.799 185.543 312.73 184.8 314.446C184.052 316.147 183.029 317.714 181.773 319.084C180.824 320.338 179.603 321.36 178.201 322.074C176.734 322.611 175.175 322.851 173.614 322.782C168.747 322.881 163.534 322.889 159.516 320.163C156.39 318.038 154.229 314.397 150.607 313.326H151.432" fill="#FFBE9D"/>
<path d="M182.934 310.534C182.631 310.602 182.32 310.633 182.01 310.625L179.469 310.707C177.324 310.756 174.363 310.789 171.096 310.806H166.477C165.785 310.816 165.097 310.713 164.439 310.501C163.851 310.294 163.338 309.919 162.962 309.422C162.805 309.217 162.69 308.982 162.625 308.732C162.56 308.481 162.545 308.22 162.583 307.964C162.645 307.582 162.823 307.228 163.094 306.951C163.195 306.832 163.322 306.738 163.465 306.675C163.608 306.612 163.763 306.583 163.919 306.589C163.637 306.686 163.383 306.85 163.177 307.066C162.912 307.367 162.767 307.753 162.767 308.154C162.767 308.554 162.912 308.94 163.177 309.241C163.526 309.672 163.993 309.992 164.522 310.163C165.148 310.346 165.799 310.43 166.452 310.411H171.063C174.363 310.411 177.291 310.411 179.436 310.411L181.977 310.46C182.298 310.442 182.619 310.467 182.934 310.534Z" fill="#EB996E"/>
<path d="M180.435 314.603C180.055 314.711 179.665 314.785 179.272 314.825C178.513 314.949 177.416 315.105 176.055 315.237C174.451 315.398 172.838 315.433 171.229 315.344C169.264 315.184 167.315 314.859 165.405 314.372C161.956 313.532 158.421 313.098 154.871 313.079C153.51 313.079 152.396 313.128 151.645 313.17C151.247 313.204 150.847 313.204 150.449 313.17C150.835 313.065 151.23 312.999 151.629 312.972C152.702 312.839 153.781 312.762 154.863 312.741C158.443 312.667 162.018 313.063 165.496 313.919C167.392 314.401 169.322 314.737 171.27 314.924C172.86 315.033 174.456 315.033 176.046 314.924C177.408 314.833 178.521 314.718 179.264 314.652C179.651 314.597 180.044 314.58 180.435 314.603Z" fill="#EB996E"/>
<path d="M176.404 318.952C176.107 319.042 175.799 319.098 175.489 319.117C174.903 319.199 174.045 319.306 173.014 319.397C170.243 319.687 167.445 319.596 164.699 319.125C161.44 318.507 158.924 316.843 156.969 316.077C155.915 315.649 154.824 315.316 153.711 315.08C154.019 315.042 154.332 315.059 154.635 315.13C155.483 315.257 156.313 315.481 157.11 315.797C159.131 316.514 161.647 318.103 164.814 318.705C167.539 319.164 170.308 319.294 173.064 319.092L175.538 318.952C175.826 318.92 176.117 318.92 176.404 318.952Z" fill="#EB996E"/>
<g opacity="0.2">
<path d="M165.434 296.835C165.751 293.815 166.564 290.868 167.842 288.112C169.135 285.358 171.325 283.122 174.054 281.77C175.425 281.116 176.94 280.821 178.457 280.913C179.974 281.005 181.442 281.482 182.724 282.297C183.498 282.795 184.102 283.516 184.456 284.365C184.629 284.787 184.682 285.25 184.607 285.701C184.533 286.151 184.335 286.573 184.036 286.918C183.128 287.89 181.561 287.742 180.257 287.676C177.215 287.593 174.213 288.382 171.607 289.949C169 291.517 166.898 293.798 165.549 296.522" fill="black"/>
</g>
<g opacity="0.2">
<path d="M93.7951 294.332C97.0948 288.426 95.9069 281.022 93.3909 274.762C90.8749 268.502 87.1215 262.736 85.1995 256.262C84.8378 269.395 86.7494 282.491 90.8501 294.975" fill="black"/>
</g>
<path d="M99.6041 203.998C99.6041 203.998 103.605 213.413 118.041 212.812C132.477 212.211 132.939 201.033 132.939 201.033L142.599 211.288L133.426 230.158L121.101 239.343L104.314 232.457L90.4805 221.749L99.6041 203.998Z" fill="#349F6E"/>
<g opacity="0.5">
<path d="M65.7954 244.244C65.9439 244.425 64.0631 246.188 61.5801 248.173C59.0971 250.158 56.977 251.616 56.8285 251.426C56.68 251.237 58.5609 249.491 61.0356 247.506C63.5104 245.521 65.6469 244.055 65.7954 244.244Z" fill="#FAFAFA"/>
</g>
<path d="M72.5863 234.088C72.512 234.303 70.2352 233.66 67.7687 232.136C65.3022 230.612 63.6936 228.891 63.8504 228.726C64.0071 228.561 65.8219 229.953 68.2142 231.411C70.6064 232.869 72.6522 233.858 72.5863 234.088Z" fill="#FAFAFA"/>
<path d="M84.9636 235.192C85.1616 235.34 83.3138 237.984 81.2598 241.345C79.2057 244.705 77.6136 247.506 77.3991 247.399C77.1847 247.292 78.4138 244.294 80.5338 240.892C82.6539 237.49 84.7904 235.044 84.9636 235.192Z" fill="#FAFAFA"/>
<path d="M74.3699 263.815C74.2049 263.963 72.2994 262.019 70.633 259.145C68.9667 256.27 68.2078 253.659 68.4223 253.585C68.6367 253.511 69.7339 255.916 71.3755 258.708C73.0171 261.5 74.5597 263.65 74.3699 263.815Z" fill="#FAFAFA"/>
<path d="M63.3026 277.661C63.0716 277.661 62.5849 275.601 62.2302 272.982C61.8755 270.363 61.7765 268.213 62.0075 268.18C62.2384 268.147 62.7251 270.248 63.0799 272.867C63.4346 275.486 63.5171 277.628 63.3026 277.661Z" fill="#FAFAFA"/>
<g opacity="0.5">
<path d="M73.7293 281.433C73.5231 281.317 74.5543 279.11 76.0969 276.491C77.6395 273.871 79.0006 271.87 79.2068 271.985C79.413 272.101 78.3819 274.316 76.8393 276.927C75.2967 279.538 73.9356 281.523 73.7293 281.433Z" fill="#FAFAFA"/>
</g>
<path d="M61.6138 295.773C61.4406 295.93 59.601 294.126 57.8109 291.523C56.0208 288.92 55.0062 286.581 55.2042 286.457C55.4022 286.334 56.7633 288.483 58.5039 291.037C60.2444 293.59 61.7953 295.617 61.6138 295.773Z" fill="#FAFAFA"/>
<path d="M78.0773 293.409C78.2423 293.574 76.3449 295.757 73.8454 298.277C71.3459 300.798 69.1764 302.717 69.0032 302.552C68.8299 302.387 70.7272 300.205 73.235 297.676C75.7428 295.147 77.904 293.245 78.0773 293.409Z" fill="#FAFAFA"/>
<g opacity="0.5">
<path d="M68.7183 323.004C68.5616 323.169 66.7303 321.653 65.0639 319.265C63.3976 316.876 62.5892 314.652 62.7872 314.562C62.9851 314.471 64.1483 316.473 65.7734 318.771C67.3985 321.069 68.8916 322.831 68.7183 323.004Z" fill="#FAFAFA"/>
</g>
<path d="M89.959 317.016C90.0745 317.222 88.0452 318.598 85.4302 320.088C82.8152 321.579 80.5879 322.625 80.4806 322.419C80.3734 322.214 82.3945 320.838 85.0095 319.347C87.6244 317.856 89.8435 316.81 89.959 317.016Z" fill="#FAFAFA"/>
<path d="M98.2274 310.196C98.0789 310.369 96.1569 308.903 94.408 306.506C92.6592 304.109 91.8425 301.836 92.057 301.753C92.2715 301.671 93.4099 303.697 95.101 306.004C96.792 308.31 98.4006 310.015 98.2274 310.196Z" fill="#FAFAFA"/>
<path d="M112.816 262.76C112.965 262.95 110.779 264.828 107.941 266.945C105.103 269.061 102.695 270.627 102.546 270.437C102.398 270.248 104.592 268.378 107.43 266.261C110.267 264.144 112.676 262.579 112.816 262.76Z" fill="#FAFAFA"/>
<path d="M97.4455 261.755C97.2062 261.755 97.2475 259.474 97.528 256.715C97.8084 253.955 98.2291 251.772 98.4684 251.772C98.7076 251.772 98.6663 254.054 98.3859 256.813C98.1054 259.573 97.6764 261.797 97.4455 261.755Z" fill="#FAFAFA"/>
<g opacity="0.5">
<path d="M111.626 242.472C111.494 242.662 108.937 241.088 106.132 238.692C103.328 236.295 101.364 234.03 101.529 233.873C101.694 233.717 103.913 235.677 106.693 238.041C109.473 240.405 111.766 242.275 111.626 242.472Z" fill="#FAFAFA"/>
</g>
<path d="M100.977 218.406C101.159 218.562 99.3276 220.984 96.9519 223.817C94.5761 226.651 92.4478 228.817 92.2663 228.669C92.0848 228.52 93.9162 226.091 96.2919 223.257C98.6677 220.424 100.796 218.257 100.977 218.406Z" fill="#FAFAFA"/>
<g opacity="0.5">
<path d="M88.7724 215.827C88.6404 216.041 86.8008 215.094 84.4003 214.295C81.9998 213.496 80.0117 213.109 80.0117 212.862C80.0117 212.615 82.1895 212.631 84.6973 213.48C87.205 214.328 88.8961 215.629 88.7724 215.827Z" fill="#FAFAFA"/>
</g>
<path d="M119.782 226.922C119.559 226.856 119.947 224.854 120.656 222.449C121.365 220.044 122.124 218.15 122.306 218.216C122.487 218.281 122.149 220.283 121.481 222.688C120.813 225.093 120.013 226.996 119.782 226.922Z" fill="#FAFAFA"/>
<path d="M127.199 245.884C126.96 245.884 126.877 243.907 127.018 241.502C127.158 239.096 127.463 237.161 127.694 237.169C127.925 237.177 128.016 239.146 127.876 241.551C127.735 243.956 127.43 245.9 127.199 245.884Z" fill="#FAFAFA"/>
<path d="M139.408 260.108C139.26 260.298 137.453 259.095 135.375 257.423C133.296 255.751 131.728 254.252 131.877 254.071C132.025 253.89 133.832 255.084 135.911 256.756C137.99 258.428 139.532 259.927 139.408 260.108Z" fill="#FAFAFA"/>
<path d="M152.368 240.249C152.525 240.422 150.916 242.103 148.771 243.989C146.626 245.875 144.762 247.283 144.647 247.086C144.531 246.888 146.098 245.233 148.243 243.346C150.388 241.46 152.211 240.068 152.368 240.249Z" fill="#FAFAFA"/>
<g opacity="0.5">
<path d="M146.406 230.867C146.274 231.065 144.237 229.945 142.042 228.125C139.848 226.304 138.363 224.509 138.528 224.352C138.693 224.196 140.425 225.678 142.587 227.457C144.748 229.237 146.538 230.67 146.406 230.867Z" fill="#FAFAFA"/>
</g>
<path d="M161.399 214.147C161.589 214.278 160.574 215.983 158.825 217.631C157.076 219.278 155.303 220.184 155.179 219.987C155.055 219.789 156.54 218.603 158.231 217.013C159.922 215.423 161.201 213.982 161.399 214.147Z" fill="#FAFAFA"/>
<g opacity="0.5">
<path d="M151.093 212.582C151.093 212.812 148.429 212.623 145.319 211.824C142.209 211.025 139.767 209.954 139.85 209.732C139.932 209.51 142.432 210.218 145.533 210.992C148.635 211.766 151.126 212.335 151.093 212.582Z" fill="#FAFAFA"/>
</g>
<g opacity="0.5">
<path d="M170.246 239.203C170.023 239.154 170.535 235.908 171.715 232.103C172.894 228.298 174.255 225.316 174.47 225.398C174.684 225.481 173.694 228.553 172.539 232.35C171.385 236.147 170.485 239.252 170.246 239.203Z" fill="#FAFAFA"/>
</g>
<path d="M174.492 257.373C174.319 257.53 172.281 255.66 169.939 253.181C167.596 250.702 165.814 248.568 166.02 248.404C166.226 248.239 168.223 250.117 170.565 252.596C172.908 255.075 174.665 257.209 174.492 257.373Z" fill="#FAFAFA"/>
<g opacity="0.5">
<path d="M181.065 267.66C180.826 267.66 180.677 264.959 180.735 261.631C180.793 258.303 181.032 255.618 181.271 255.618C181.511 255.618 181.651 258.32 181.593 261.647C181.535 264.975 181.296 267.669 181.065 267.66Z" fill="#FAFAFA"/>
</g>
<path d="M174.395 284.612C174.206 284.744 172.44 282.586 170.807 279.571C169.174 276.556 168.332 273.896 168.539 273.805C168.745 273.715 169.949 276.194 171.566 279.151C173.183 282.108 174.593 284.472 174.395 284.612Z" fill="#FAFAFA"/>
<path d="M191.423 287.709C191.597 287.874 190.45 289.258 188.874 290.798C187.299 292.338 185.88 293.442 185.715 293.269C185.55 293.096 186.697 291.712 188.272 290.172C189.848 288.632 191.258 287.536 191.423 287.709Z" fill="#FAFAFA"/>
<g opacity="0.5">
<path d="M149.949 268.394C149.735 268.328 150.494 265.626 152.424 262.81C154.354 259.993 156.623 258.32 156.763 258.502C156.903 258.683 154.998 260.577 153.133 263.304C151.269 266.03 150.18 268.485 149.949 268.394Z" fill="#FAFAFA"/>
</g>
<path d="M101.846 290.987C101.615 290.929 102.019 288.516 102.745 285.518C103.471 282.52 104.263 280.189 104.494 280.246C104.725 280.304 104.313 282.758 103.587 285.724C102.861 288.689 102.069 291.045 101.846 290.987Z" fill="#FAFAFA"/>
<path d="M122.08 293.006C121.948 293.203 119.894 292.092 117.494 290.535C115.093 288.978 113.245 287.545 113.369 287.347C113.493 287.149 115.547 288.253 117.956 289.818C120.364 291.383 122.237 292.808 122.08 293.006Z" fill="#FAFAFA"/>
<path d="M121.092 278.41C120.894 278.542 119.929 277.446 118.931 275.939C117.933 274.431 117.281 273.146 117.487 273.015C117.694 272.883 118.65 273.978 119.649 275.486C120.647 276.993 121.257 278.278 121.092 278.41Z" fill="#FAFAFA"/>
<path d="M130.027 281.737C130.159 281.927 129.293 282.767 128.089 283.615C126.885 284.464 125.796 284.991 125.655 284.801C125.515 284.612 126.39 283.763 127.594 282.915C128.798 282.067 129.887 281.523 130.027 281.737Z" fill="#FAFAFA"/>
<g opacity="0.5">
<path d="M106.699 340.952C106.46 340.878 106.848 339.008 107.186 336.702C107.524 334.396 107.714 332.493 107.961 332.493C108.209 332.493 108.39 334.445 108.035 336.826C107.681 339.206 106.914 341.026 106.699 340.952Z" fill="#FAFAFA"/>
</g>
<g opacity="0.5">
<path d="M127.256 334.239C127.05 334.354 125.482 331.99 123.758 328.968C122.034 325.945 120.797 323.383 121.003 323.268C121.209 323.152 122.776 325.508 124.501 328.539C126.225 331.57 127.462 334.149 127.256 334.239Z" fill="#FAFAFA"/>
</g>
<g opacity="0.5">
<path d="M149.064 325.089C149.254 325.229 147.192 328.243 144.453 331.818C141.714 335.393 139.339 338.169 139.149 338.029C138.959 337.889 141.03 334.874 143.768 331.299C146.507 327.724 148.883 324.94 149.064 325.089Z" fill="#FAFAFA"/>
</g>
<g opacity="0.5">
<path d="M155.203 342.574C155.203 342.805 152.506 343.398 149.107 343.884C145.708 344.37 142.92 344.584 142.887 344.353C142.854 344.123 145.576 343.53 148.983 343.035C152.39 342.541 155.17 342.335 155.203 342.574Z" fill="#FAFAFA"/>
</g>
<path d="M156.151 333.761C155.912 333.703 156.151 331.949 156.209 329.79C156.267 327.632 156.209 325.862 156.498 325.829C156.786 325.796 157.174 327.575 157.067 329.823C156.96 332.072 156.374 333.818 156.151 333.761Z" fill="#FAFAFA"/>
<path d="M126.715 344.024C126.632 344.23 124.397 343.497 122.071 341.817C119.744 340.136 118.325 338.275 118.499 338.135C118.672 337.995 120.322 339.519 122.574 341.117C124.826 342.715 126.814 343.794 126.715 344.024Z" fill="#FAFAFA"/>
<path d="M91.7286 342.722C91.4976 342.665 91.7286 340.778 92.339 338.522C92.9495 336.265 93.5599 334.469 93.7909 334.527C94.0219 334.584 93.7414 336.462 93.1722 338.728C92.603 340.993 91.9596 342.78 91.7286 342.722Z" fill="#FAFAFA"/>
<path d="M87.9276 134.382C87.9771 134.316 88.9175 135.123 90.6416 136.029C91.6547 136.574 92.7115 137.034 93.801 137.405C95.1442 137.838 96.5251 138.144 97.9256 138.319C99.3261 138.468 100.738 138.481 102.141 138.36C103.291 138.255 104.428 138.046 105.54 137.734C107.437 137.207 108.526 136.639 108.567 136.713C108.335 136.888 108.083 137.034 107.816 137.149C107.518 137.309 107.209 137.45 106.892 137.569C106.477 137.745 106.053 137.899 105.622 138.031C104.502 138.385 103.35 138.627 102.182 138.755C100.751 138.904 99.3076 138.904 97.8761 138.755C96.449 138.579 95.0445 138.253 93.6855 137.783C92.5784 137.394 91.512 136.897 90.5013 136.301C90.0641 136.062 89.6764 135.79 89.3712 135.568C89.0826 135.378 88.807 135.169 88.5463 134.942C88.1338 134.612 87.9028 134.406 87.9276 134.382Z" fill="#455A64"/>
<path d="M109.23 143.862C108.942 143.986 108.64 144.077 108.331 144.134C107.745 144.282 106.896 144.48 105.856 144.661C103.069 145.206 100.203 145.222 97.4092 144.711C94.592 144.167 92.0291 142.721 90.1086 140.592C89.5461 139.937 89.0795 139.204 88.7228 138.418C88.5775 138.139 88.4773 137.839 88.4258 137.528C88.9481 138.556 89.5905 139.518 90.3396 140.395C92.2621 142.412 94.7637 143.785 97.4999 144.324C100.248 144.816 103.059 144.842 105.815 144.398C106.879 144.25 107.737 144.101 108.29 144.002C108.597 143.919 108.912 143.872 109.23 143.862Z" fill="#455A64"/>
<path d="M79.859 194.271C79.8197 194.236 79.7838 194.198 79.7518 194.156C79.694 194.074 79.5868 193.958 79.4713 193.785C79.1515 193.282 78.9304 192.723 78.8196 192.138C78.6542 191.048 78.7302 189.935 79.0423 188.878C79.3545 187.82 79.8951 186.844 80.6262 186.018C81.6316 184.887 82.7958 183.908 84.0826 183.111C85.4355 182.221 86.9533 181.406 88.4464 180.401C90.0282 179.401 91.3804 178.079 92.4143 176.521C92.931 175.694 93.2682 174.768 93.4042 173.803C93.5327 172.802 93.4796 171.787 93.2475 170.805C92.7059 168.86 92.0079 166.962 91.1604 165.13C90.3579 163.38 89.8853 161.498 89.7663 159.578C89.6682 156.307 90.6637 153.096 92.5958 150.452C93.8509 148.658 95.5167 147.19 97.4545 146.169L98.3785 145.724L99.0879 145.477C99.2802 145.401 99.479 145.343 99.6818 145.304C99.5023 145.404 99.3147 145.49 99.1209 145.559L98.4362 145.847L97.537 146.317C95.6633 147.376 94.0577 148.85 92.8432 150.625C90.9956 153.231 90.0539 156.37 90.1623 159.562C90.2883 161.432 90.758 163.264 91.5481 164.965C92.4122 166.825 93.1213 168.754 93.6682 170.731C93.9052 171.762 93.9583 172.827 93.8249 173.877C93.6836 174.901 93.3266 175.884 92.7772 176.76C91.7017 178.366 90.2956 179.725 88.6527 180.747C87.1348 181.751 85.6087 182.559 84.2641 183.432C82.9962 184.196 81.8459 185.139 80.8489 186.232C80.1336 187.024 79.5958 187.958 79.2714 188.974C78.947 189.99 78.8436 191.063 78.9681 192.122C79.1181 192.89 79.421 193.622 79.859 194.271Z" fill="#455A64"/>
<path d="M101.828 194.568C101.659 194.496 101.498 194.405 101.35 194.296C100.92 193.988 100.558 193.596 100.286 193.143C99.8607 192.419 99.6068 191.608 99.5432 190.771C99.4556 189.66 99.5787 188.542 99.9061 187.476C100.574 185.063 102.595 182.864 104.113 180.063C104.94 178.637 105.37 177.016 105.359 175.368C105.275 173.6 104.822 171.87 104.031 170.286C102.463 166.991 100.055 164.339 98.3883 161.588C97.5696 160.302 96.9156 158.918 96.4415 157.47C96.0421 156.187 95.9046 154.837 96.0373 153.5C96.165 151.543 97.0248 149.705 98.446 148.352C98.8437 148.015 99.2883 147.737 99.7659 147.528C99.9292 147.449 100.101 147.388 100.277 147.347C99.6548 147.654 99.0752 148.042 98.5533 148.5C97.2288 149.86 96.4434 151.654 96.3425 153.549C96.2326 154.845 96.3841 156.15 96.7879 157.387C97.2584 158.813 97.9099 160.172 98.7265 161.432C99.5514 162.774 100.574 164.117 101.589 165.55C102.672 167.001 103.619 168.547 104.418 170.171C105.243 171.808 105.707 173.603 105.78 175.434C105.782 177.149 105.33 178.835 104.468 180.319C102.884 183.127 100.863 185.261 100.195 187.6C99.8672 188.623 99.7275 189.698 99.7824 190.771C99.8276 191.577 100.047 192.364 100.426 193.077C100.783 193.667 101.261 194.175 101.828 194.568Z" fill="#455A64"/>
<path d="M134.387 132.734C134.387 132.734 134.271 132.734 134.073 132.602C133.787 132.448 133.512 132.274 133.248 132.083C132.305 131.353 131.502 130.457 130.881 129.439C129.979 127.935 129.214 126.353 128.596 124.711C128.216 123.805 127.771 122.858 127.309 121.927C126.792 120.966 126.184 120.056 125.494 119.209C123.031 116.224 119.698 114.079 115.958 113.073C114.402 112.699 112.814 112.472 111.215 112.397C111.643 112.326 112.077 112.301 112.51 112.323C113.697 112.353 114.877 112.505 116.032 112.776C119.878 113.719 123.313 115.881 125.824 118.937C126.537 119.806 127.164 120.741 127.697 121.73C128.2 122.685 128.596 123.649 128.967 124.563C129.566 126.192 130.294 127.77 131.145 129.283C131.736 130.286 132.485 131.187 133.364 131.952C133.999 132.487 134.412 132.701 134.387 132.734Z" fill="#455A64"/>
<path d="M145.894 132.668C145.744 132.674 145.594 132.657 145.448 132.618C145.026 132.553 144.612 132.445 144.211 132.297C142.728 131.749 141.384 130.88 140.276 129.752C138.649 128.083 137.276 126.185 136.201 124.118C134.906 121.853 133.652 119.25 131.714 116.985C129.866 114.868 127.427 113.351 124.71 112.628C122.489 112.039 120.202 111.732 117.904 111.714C115.933 111.672 114.341 111.714 113.235 111.796L111.965 111.845C111.817 111.865 111.667 111.865 111.52 111.845C111.661 111.8 111.808 111.775 111.957 111.771L113.227 111.639C114.324 111.549 115.925 111.417 117.904 111.425C120.235 111.394 122.559 111.671 124.817 112.249C127.621 112.972 130.138 114.529 132.035 116.713C134.032 119.044 135.277 121.655 136.539 123.937C137.585 125.981 138.916 127.866 140.491 129.538C141.553 130.663 142.84 131.553 144.269 132.149C145.292 132.544 145.902 132.618 145.894 132.668Z" fill="#455A64"/>
<path d="M165.362 186.125C165.321 186.125 165.577 185.541 165.849 184.478C166.245 182.963 166.411 181.397 166.344 179.832C166.265 177.512 165.668 175.238 164.595 173.177C163.956 171.969 163.163 170.847 162.236 169.841C161.279 168.779 160.182 167.774 159.085 166.72C157.977 165.706 156.953 164.604 156.024 163.425C155.171 162.32 154.433 161.13 153.822 159.875C152.794 157.744 152.136 155.455 151.875 153.104C151.693 151.524 151.71 149.927 151.924 148.352C151.971 147.924 152.046 147.501 152.147 147.083C152.169 146.933 152.21 146.786 152.271 146.646C152.312 146.646 152.18 147.264 152.089 148.376C151.94 149.937 151.967 151.509 152.172 153.063C152.481 155.369 153.157 157.61 154.176 159.702C154.786 160.927 155.515 162.088 156.354 163.169C157.277 164.318 158.286 165.395 159.373 166.39C160.479 167.444 161.576 168.457 162.549 169.545C163.495 170.58 164.299 171.734 164.942 172.979C166.024 175.096 166.608 177.432 166.649 179.808C166.689 181.399 166.474 182.987 166.014 184.511C165.894 184.926 165.742 185.33 165.56 185.722C165.515 185.866 165.448 186.002 165.362 186.125Z" fill="#455A64"/>
<path d="M75.0001 132.018C74.9981 131.739 75.0342 131.462 75.1073 131.194C75.2741 130.478 75.5377 129.788 75.891 129.143C76.4806 128.048 77.2954 127.091 78.2818 126.333C79.2682 125.575 80.404 125.034 81.6146 124.746C82.8252 124.457 84.0832 124.428 85.3061 124.659C86.529 124.89 87.6891 125.377 88.7102 126.087C89.3282 126.497 89.8838 126.993 90.3601 127.561C90.5506 127.759 90.7067 127.988 90.822 128.237C90.1245 127.532 89.3591 126.897 88.537 126.342C87.5392 125.694 86.4197 125.256 85.2466 125.053C84.0735 124.851 82.8715 124.89 81.7138 125.166C80.5561 125.443 79.4669 125.952 78.5126 126.663C77.5584 127.373 76.759 128.27 76.1632 129.299C75.6885 130.166 75.299 131.076 75.0001 132.018Z" fill="#455A64"/>
<path d="M82.9925 135.485C82.9866 134.855 83.0643 134.226 83.2235 133.615C83.4772 132.087 84.1545 130.661 85.1785 129.497C85.7396 128.936 86.4423 128.537 87.2121 128.343C87.9818 128.149 88.7899 128.166 89.5506 128.393C90.0077 128.559 90.4122 128.843 90.722 129.217C90.9282 129.481 90.986 129.662 90.9695 129.67C90.5491 129.235 90.0319 128.905 89.4599 128.706C88.7564 128.539 88.0219 128.554 87.3259 128.75C86.63 128.946 85.9958 129.317 85.4837 129.827C84.5177 130.944 83.8432 132.282 83.5204 133.723C83.3986 134.325 83.2219 134.915 82.9925 135.485Z" fill="#455A64"/>
<path d="M93.4738 123.418C92.6465 124.862 91.9216 126.362 91.3043 127.907C90.8271 129.499 90.4524 131.119 90.1824 132.758C90 129.332 91.1867 125.972 93.482 123.418H93.4738Z" fill="#349F6E"/>
<path d="M225.449 143.501C225.449 144.008 225.6 144.503 225.882 144.924C226.163 145.346 226.564 145.674 227.033 145.868C227.502 146.062 228.018 146.112 228.515 146.014C229.013 145.915 229.47 145.671 229.829 145.312C230.188 144.954 230.432 144.498 230.531 144.001C230.63 143.504 230.579 142.989 230.385 142.521C230.191 142.053 229.862 141.653 229.44 141.371C229.018 141.09 228.522 140.939 228.015 140.939C227.678 140.939 227.344 141.006 227.033 141.134C226.722 141.263 226.439 141.452 226.201 141.69C225.962 141.928 225.773 142.21 225.645 142.521C225.516 142.832 225.449 143.165 225.449 143.501Z" fill="#455A64"/>
<path d="M217.733 146.063C219.15 146.063 220.299 144.916 220.299 143.501C220.299 142.086 219.15 140.939 217.733 140.939C216.317 140.939 215.168 142.086 215.168 143.501C215.168 144.916 216.317 146.063 217.733 146.063Z" fill="#455A64"/>
<path d="M204.921 142.216C204.668 142.655 204.55 143.159 204.584 143.664C204.617 144.17 204.8 144.654 205.109 145.056C205.418 145.457 205.839 145.759 206.32 145.921C206.8 146.084 207.318 146.101 207.808 145.969C208.298 145.838 208.738 145.565 209.073 145.184C209.407 144.803 209.621 144.332 209.687 143.83C209.753 143.327 209.669 142.817 209.445 142.362C209.22 141.908 208.866 141.53 208.427 141.277C208.135 141.109 207.813 140.999 207.478 140.955C207.144 140.912 206.805 140.934 206.479 141.021C206.153 141.108 205.848 141.259 205.581 141.464C205.313 141.669 205.089 141.924 204.921 142.216Z" fill="#455A64"/>
<path d="M217.58 113.56C217.407 113.54 217.233 113.54 217.06 113.56L215.534 113.601C215.204 113.601 214.825 113.601 214.412 113.65L213.068 113.84L211.5 114.062L209.743 114.499C206.74 115.261 203.881 116.507 201.28 118.189C197.414 120.645 194.161 123.953 191.772 127.857C189.383 131.762 187.92 136.16 187.495 140.716C187.376 142.086 187.348 143.462 187.413 144.835C187.462 145.535 187.413 146.235 187.545 146.935L187.867 149.052C188.405 151.963 189.366 154.779 190.721 157.412C192.174 160.163 194.016 162.69 196.19 164.916C198.508 167.195 201.165 169.101 204.068 170.567C207.066 172.097 210.311 173.086 213.653 173.491C214.503 173.618 215.36 173.693 216.219 173.713C217.079 173.758 217.941 173.758 218.801 173.713C220.546 173.643 222.282 173.426 223.99 173.062C227.655 172.279 231.143 170.824 234.276 168.771H233.963L244.472 172.988L245.099 173.235L244.918 172.593C243.862 168.738 242.823 164.99 241.833 161.366L241.775 161.646C244.63 157.872 246.552 153.478 247.384 148.821C247.788 146.65 247.926 144.437 247.797 142.232C247.775 141.174 247.673 140.12 247.492 139.077C247.417 138.558 247.335 138.048 247.261 137.537C247.186 137.026 247.005 136.549 246.889 136.054C245.13 129.154 240.973 123.103 235.159 118.98C233.013 117.44 230.665 116.204 228.18 115.306L226.613 114.746L225.12 114.367L223.75 114.029C223.313 113.939 222.926 113.897 222.497 113.84C221.672 113.733 221.004 113.601 220.393 113.568L218.842 113.519H217.902C217.687 113.519 217.58 113.519 217.58 113.519H217.902L218.842 113.593L220.377 113.692C220.979 113.741 221.672 113.897 222.464 114.013C228.17 114.993 233.469 117.608 237.716 121.538C241.962 125.469 244.975 130.546 246.386 136.153C246.502 136.639 246.65 137.117 246.741 137.611C246.832 138.105 246.889 138.616 246.972 139.118C247.138 140.146 247.229 141.183 247.244 142.224C247.365 144.377 247.224 146.537 246.823 148.657C245.988 153.238 244.083 157.558 241.264 161.267L241.173 161.391L241.214 161.547C242.204 165.171 243.224 168.914 244.274 172.774L244.72 172.379L234.219 168.153L234.054 168.087L233.897 168.186C230.826 170.209 227.405 171.645 223.808 172.42C222.141 172.776 220.447 172.991 218.743 173.062C217.899 173.095 217.053 173.079 216.211 173.013C215.382 172.997 214.556 172.928 213.736 172.807C210.463 172.406 207.286 171.436 204.348 169.941C198.723 167.162 194.137 162.655 191.265 157.083C189.919 154.513 188.957 151.76 188.411 148.912C188.304 148.212 188.196 147.528 188.097 146.836C187.998 146.144 188.007 145.461 187.949 144.777C187.884 143.435 187.906 142.089 188.015 140.749C188.417 136.268 189.835 131.937 192.162 128.084C194.489 124.231 197.663 120.957 201.445 118.51C204.012 116.814 206.836 115.543 209.809 114.746L211.542 114.285L213.101 114.029L214.429 113.807C214.841 113.807 215.213 113.757 215.543 113.724L217.06 113.617C217.235 113.613 217.409 113.593 217.58 113.56Z" fill="#455A64"/>
</g>
<defs>
<clipPath id="clip0_3653_20140">
<rect width="396" height="349" fill="white"/>
</clipPath>
</defs>
</svg>
