<svg width="133" height="32" viewBox="0 0 133 32" fill="none" xmlns="http://www.w3.org/2000/svg">
<path d="M0 8C0 3.58172 3.58172 0 8 0H133V32H8C3.58172 32 0 28.4183 0 24V8Z" fill="#04242D"/>
<path d="M38.3969 15.2617L32.4642 13.0657L30.2489 5.80507C30.207 5.66869 30.1225 5.54934 30.0078 5.46454C29.8931 5.37974 29.7542 5.33398 29.6115 5.33398C29.4689 5.33398 29.33 5.37974 29.2153 5.46454C29.1005 5.54934 29.0161 5.66869 28.9742 5.80507L26.7595 13.0657L20.8262 15.2617C20.6984 15.309 20.5881 15.3942 20.5103 15.506C20.4324 15.6178 20.3906 15.7508 20.3906 15.8871C20.3906 16.0233 20.4324 16.1563 20.5103 16.2681C20.5881 16.3799 20.6984 16.4652 20.8262 16.5124L26.7562 18.7077L28.9722 26.1897C29.013 26.3277 29.0974 26.4487 29.2127 26.5347C29.3279 26.6208 29.4679 26.6672 29.6118 26.6671C29.7556 26.6671 29.8956 26.6205 30.0108 26.5343C30.1259 26.4481 30.2102 26.327 30.2509 26.1891L32.4669 18.7071L38.3975 16.5117C38.5257 16.4649 38.6363 16.3798 38.7145 16.2679C38.7926 16.1561 38.8345 16.0229 38.8344 15.8865C38.8343 15.7501 38.7923 15.617 38.7141 15.5052C38.6358 15.3934 38.5251 15.3085 38.3969 15.2617Z" fill="#F7C764"/>
<path d="M25.0623 22.5965L23.5196 22.0258L22.9196 19.8258C22.882 19.684 22.7986 19.5586 22.6824 19.4692C22.5661 19.3797 22.4236 19.3311 22.2769 19.3311C22.1302 19.331 21.9876 19.3794 21.8713 19.4687C21.7549 19.5581 21.6714 19.6834 21.6336 19.8251L21.0336 22.0251L19.4916 22.5958C19.3638 22.643 19.2536 22.7283 19.1757 22.8401C19.0978 22.9519 19.0561 23.0849 19.0561 23.2211C19.0561 23.3574 19.0978 23.4904 19.1757 23.6022C19.2536 23.714 19.3638 23.7992 19.4916 23.8465L21.0256 24.4151L21.6303 26.8298C21.6665 26.9739 21.7498 27.1018 21.867 27.1932C21.9842 27.2845 22.1286 27.3341 22.2772 27.3341C22.4258 27.334 22.5702 27.2842 22.6873 27.1928C22.8044 27.1013 22.8876 26.9733 22.9236 26.8291L23.5283 24.4145L25.0623 23.8458C25.1905 23.7992 25.3013 23.7142 25.3796 23.6025C25.4579 23.4907 25.4999 23.3576 25.4999 23.2211C25.4999 23.0847 25.4579 22.9515 25.3796 22.8398C25.3013 22.728 25.1905 22.6431 25.0623 22.5965ZM22.1703 8.15446L20.5943 7.57112L20.0103 5.99446C19.9634 5.86636 19.8782 5.75577 19.7664 5.67764C19.6545 5.59951 19.5214 5.55762 19.385 5.55762C19.2485 5.55762 19.1154 5.59951 19.0036 5.67764C18.8917 5.75577 18.8066 5.86636 18.7596 5.99446L18.1763 7.57112L16.5996 8.15446C16.4718 8.20169 16.3616 8.28695 16.2837 8.39875C16.2058 8.51055 16.1641 8.64354 16.1641 8.77979C16.1641 8.91604 16.2058 9.04903 16.2837 9.16083C16.3616 9.27264 16.4718 9.35789 16.5996 9.40512L18.1763 9.98846L18.7596 11.5651C18.8069 11.6929 18.8921 11.8032 19.0039 11.8811C19.1157 11.959 19.2487 12.0007 19.385 12.0007C19.5212 12.0007 19.6542 11.959 19.766 11.8811C19.8778 11.8032 19.9631 11.6929 20.0103 11.5651L20.5936 9.98846L22.1703 9.40512C22.2981 9.35789 22.4084 9.27264 22.4863 9.16083C22.5641 9.04903 22.6059 8.91604 22.6059 8.77979C22.6059 8.64354 22.5641 8.51055 22.4863 8.39875C22.4084 8.28695 22.2981 8.20169 22.1703 8.15446Z" fill="#F7C764"/>
<path d="M52.991 21H51.2039V12.4336H56.1141V13.9219H52.991V16.1309H55.8973V17.6133H52.991V21ZM63.5234 21H58.5898V12.4336H63.5234V13.9219H60.4063V15.8027H63.3066V17.291H60.4063V19.5H63.5234V21ZM71.3605 21L70.7395 18.9609H67.6164L66.9953 21H65.0383L68.0617 12.3984H70.2824L73.3176 21H71.3605ZM70.3059 17.4375L69.6848 15.4453C69.6457 15.3125 69.593 15.1426 69.5266 14.9355C69.4641 14.7246 69.3996 14.5117 69.3332 14.2969C69.2707 14.0781 69.2199 13.8887 69.1809 13.7285C69.1418 13.8887 69.0871 14.0879 69.0168 14.3262C68.9504 14.5605 68.8859 14.7832 68.8234 14.9941C68.7609 15.2051 68.716 15.3555 68.6887 15.4453L68.0734 17.4375H70.3059ZM78.5063 21H76.6898V13.9453H74.3637V12.4336H80.8324V13.9453H78.5063V21ZM89.9234 12.4336V17.9766C89.9234 18.5664 89.7926 19.0996 89.5309 19.5762C89.273 20.0488 88.8805 20.4238 88.3531 20.7012C87.8297 20.9785 87.1695 21.1172 86.3727 21.1172C85.2398 21.1172 84.3766 20.8281 83.7828 20.25C83.1891 19.6719 82.8922 18.9062 82.8922 17.9531V12.4336H84.7027V17.6777C84.7027 18.3848 84.8473 18.8809 85.1363 19.166C85.4254 19.4512 85.8531 19.5938 86.4195 19.5938C86.818 19.5938 87.1402 19.5254 87.3863 19.3887C87.6363 19.252 87.8199 19.041 87.9371 18.7559C88.0543 18.4707 88.1129 18.1074 88.1129 17.666V12.4336H89.9234ZM95.3172 12.4336C96.0945 12.4336 96.7352 12.5273 97.2391 12.7148C97.7469 12.9023 98.1238 13.1855 98.3699 13.5645C98.616 13.9434 98.7391 14.4219 98.7391 15C98.7391 15.3906 98.6648 15.7324 98.5164 16.0254C98.368 16.3184 98.1727 16.5664 97.9305 16.7695C97.6883 16.9727 97.4266 17.1387 97.1453 17.2676L99.6648 21H97.6492L95.6043 17.7129H94.6375V21H92.8211V12.4336H95.3172ZM95.1883 13.9219H94.6375V16.2363H95.2234C95.825 16.2363 96.2547 16.1367 96.5125 15.9375C96.7742 15.7344 96.9051 15.4375 96.9051 15.0469C96.9051 14.6406 96.7645 14.3516 96.4832 14.1797C96.2059 14.0078 95.7742 13.9219 95.1883 13.9219ZM106.477 21H101.543V12.4336H106.477V13.9219H103.359V15.8027H106.26V17.291H103.359V19.5H106.477V21ZM116.177 16.6348C116.177 17.5996 115.991 18.4062 115.62 19.0547C115.253 19.6992 114.72 20.1855 114.021 20.5137C113.321 20.8379 112.48 21 111.495 21H109.07V12.4336H111.759C112.657 12.4336 113.437 12.5938 114.097 12.9141C114.757 13.2305 115.269 13.7012 115.632 14.3262C115.995 14.9473 116.177 15.7168 116.177 16.6348ZM114.29 16.6816C114.29 16.0488 114.196 15.5293 114.009 15.123C113.825 14.7129 113.552 14.4102 113.189 14.2148C112.829 14.0195 112.384 13.9219 111.853 13.9219H110.886V19.5H111.665C112.552 19.5 113.21 19.2637 113.64 18.791C114.073 18.3184 114.29 17.6152 114.29 16.6816Z" fill="white"/>
</svg>
