<svg width="292" height="348" viewBox="0 0 292 348" fill="none" xmlns="http://www.w3.org/2000/svg">
<path d="M236.765 197.314C239.071 196.219 242.954 193.931 245.356 193.037C247.73 192.021 250.379 191.842 252.868 192.528C254.279 193.002 255.69 194.132 255.699 195.623L246.276 202.574L236.765 200.067V197.314Z" fill="#FF9A6C"/>
<path d="M247.07 197.219C247.07 197.219 263.997 193.546 266.819 192.1C269.642 190.653 284.351 183.29 286.814 183.29C289.277 183.29 291.381 183.956 291.828 186.411L288.611 188.909L288.199 190.189L282.694 193.055L281.721 194.861L267.696 202.347C267.696 202.347 252.987 209.815 250.533 210.236C248.078 210.657 235.824 211.682 230.582 216.144L209.544 207.501C209.544 207.501 215.619 198.876 220.3 196.745C224.472 194.852 231.476 194.852 236.376 196.859L247.07 197.219Z" fill="#FFBF9D"/>
<path d="M232.996 211.34C232.996 211.34 206.217 269.737 201.904 281.466C201.904 281.466 171.969 276.539 170.943 259.928L209.513 207.334L232.996 211.34Z" fill="#FFBF9D"/>
<path d="M257.861 198.543C257.861 198.543 257.966 198.543 258.15 198.543C258.424 198.516 258.694 198.46 258.956 198.376C259.917 198.084 260.849 197.709 261.744 197.254C262.884 196.702 264.207 195.975 265.662 195.159C266.39 194.756 267.152 194.327 267.95 193.915C268.748 193.503 269.616 193.143 270.501 192.758C272.14 192.015 273.834 191.4 275.568 190.917C277.154 190.522 278.679 190.224 279.828 190.61C280.273 190.788 280.677 191.056 281.015 191.397C281.353 191.738 281.617 192.144 281.791 192.591C281.921 192.933 282.07 193.266 282.238 193.59C282.238 193.59 282.238 193.485 282.194 193.31C282.136 193.041 282.057 192.777 281.958 192.521C281.803 192.112 281.594 191.726 281.335 191.373C280.994 190.89 280.519 190.518 279.968 190.303C279.288 190.076 278.566 190.004 277.855 190.093C277.06 190.171 276.272 190.309 275.497 190.505C273.727 190.971 271.997 191.581 270.326 192.328C269.449 192.714 268.572 193.073 267.757 193.503C266.942 193.932 266.188 194.379 265.461 194.791C264.014 195.624 262.717 196.378 261.604 196.956C260.741 197.428 259.848 197.84 258.93 198.192C258.246 198.447 257.861 198.499 257.861 198.543Z" fill="#FF9A6C"/>
<path d="M274.012 190.145C274.837 189.978 275.636 189.701 276.387 189.321C278.195 188.467 280.054 187.727 281.954 187.103C282.993 186.808 284.079 186.716 285.153 186.831C285.582 186.844 286.003 186.944 286.392 187.125C286.781 187.306 287.129 187.564 287.415 187.883C287.758 188.358 287.983 188.908 288.072 189.487C288.08 189.712 288.124 189.934 288.204 190.145C288.245 189.921 288.245 189.693 288.204 189.47C288.171 188.844 287.971 188.239 287.625 187.716C287.357 187.351 287.009 187.051 286.608 186.84C286.15 186.622 285.658 186.483 285.153 186.428C284.023 186.286 282.875 186.372 281.778 186.682C279.852 187.3 277.986 188.092 276.203 189.049C275.454 189.375 274.722 189.74 274.012 190.145Z" fill="#FF9A6C"/>
<path d="M231.759 195.562C231.759 195.562 231.995 195.702 232.442 195.86C233.084 196.092 233.736 196.29 234.397 196.456C236.573 197.022 238.804 197.354 241.05 197.446C243.297 197.543 245.547 197.408 247.765 197.043C248.642 196.894 249.29 196.745 249.755 196.614C250.003 196.576 250.244 196.496 250.465 196.377C250.465 196.307 249.413 196.509 247.712 196.719C245.509 196.991 243.286 197.082 241.068 196.991C238.848 196.876 236.64 196.583 234.467 196.114C232.846 195.798 231.82 195.5 231.759 195.562Z" fill="#FF9A6C"/>
<path d="M-17.5787 160.894L21.3763 152.829L31.0186 145.598L82.4734 155.52C83.2974 157.028 91.6336 168.669 91.6336 168.669L111.9 175.55C120.514 177.813 128.202 182.718 133.884 189.575C139.288 196.249 143.715 203.657 147.033 211.577C156.149 232.975 169.307 257.694 169.307 257.694L177.555 244.405L212.32 260.779C212.32 260.779 191.958 301.829 185.217 307.694C177.722 314.207 160.489 314.96 148.576 302.811C141.397 295.483 120.648 266.521 116.327 259.272L109.91 289.584L104.011 324.182L113.548 347.999H-25.6519L-19.8928 325.488C-19.8928 325.488 -25.5643 266.819 -27.1333 255.897C-30.8237 230.134 -17.5787 160.894 -17.5787 160.894Z" fill="#FF725E"/>
<path d="M53.9171 184.684C53.9171 184.684 53.9171 184.79 54.0311 184.974L54.4255 185.78C54.7762 186.49 55.3021 187.533 55.8719 188.857C57.1079 191.487 58.563 195.387 60.9122 199.744L61.0261 199.963L61.219 199.797C64.1117 197.333 67.2498 194.371 70.4931 191.171C76.2347 185.473 81.2662 180.17 84.9829 176.41L89.4096 171.965L90.628 170.764C90.7763 170.632 90.9113 170.485 91.0312 170.326C90.8619 170.433 90.706 170.559 90.5667 170.703L89.3044 171.843C88.2174 172.842 86.6747 174.323 84.7725 176.182C80.9945 179.89 75.9191 185.158 70.1951 190.847C66.9518 194.046 63.8312 196.983 60.9736 199.49L61.2891 199.542C58.9224 195.247 57.4147 191.364 56.1173 188.752C55.4774 187.428 54.9427 186.411 54.557 185.719C54.3817 185.412 54.2327 185.149 54.11 184.947C54.0553 184.853 53.9906 184.765 53.9171 184.684Z" fill="black"/>
<path d="M20.8328 153.82C20.8356 154.027 20.862 154.233 20.9117 154.434C20.9993 154.872 21.1045 155.451 21.236 156.187C21.5516 157.695 22.1126 159.869 22.8314 162.516C24.3478 167.775 26.8022 175.042 29.844 182.888C31.4481 187.042 33.0259 190.97 34.4986 194.45L34.6125 194.721L34.8317 194.528C38.8025 191.022 42.3614 188.261 44.772 186.21C45.9817 185.184 46.9284 184.36 47.5683 183.782L48.2783 183.115C48.4449 182.958 48.5237 182.879 48.515 182.87C48.414 182.923 48.3199 182.987 48.2345 183.063L47.4806 183.685L44.6142 186.017C42.1511 188.015 38.5659 190.724 34.5512 194.213L34.8843 194.292C33.4379 190.785 31.8688 186.876 30.2735 182.73C27.2668 174.841 24.7686 167.696 23.182 162.428C22.3931 159.799 21.8145 157.642 21.4288 156.143C21.2623 155.433 21.122 154.863 21.0169 154.39C20.9699 154.196 20.9083 154.005 20.8328 153.82Z" fill="black"/>
<path d="M111.007 285.7C111.043 285.64 111.07 285.575 111.086 285.507L111.27 284.911C111.428 284.327 111.647 283.555 111.927 282.597C112.225 281.597 112.514 280.361 112.865 278.924C113.216 277.486 113.593 275.838 113.97 274.015C115.909 264.505 117.273 254.886 118.054 245.211C119.045 233.877 119.264 223.577 119.212 216.135C119.212 212.409 119.115 209.394 119.01 207.317C118.957 206.3 118.922 205.502 118.896 204.915C118.896 204.669 118.896 204.459 118.852 204.292C118.861 204.223 118.861 204.152 118.852 204.082C118.845 204.155 118.845 204.228 118.852 204.301V204.924C118.852 205.511 118.852 206.309 118.852 207.317C118.852 209.403 118.922 212.409 118.905 216.135C118.905 223.568 118.607 233.859 117.616 245.167C116.828 254.827 115.511 264.437 113.672 273.954C113.312 275.777 112.979 277.46 112.637 278.863C112.295 280.265 112.041 281.554 111.761 282.553L111.182 284.885L111.051 285.489C111.007 285.63 110.998 285.7 111.007 285.7Z" fill="black"/>
<path d="M169.077 287.541C169.2 287.541 169.349 280.861 169.402 272.639C169.454 264.417 169.402 257.737 169.27 257.737C169.139 257.737 168.999 264.417 168.946 272.639C168.893 280.861 168.946 287.541 169.077 287.541Z" fill="black"/>
<path d="M42.5948 327.995V327.627C42.5948 327.364 42.5247 327.013 42.4721 326.557C42.3494 325.593 42.1828 324.217 41.9637 322.446C41.8497 321.569 41.727 320.561 41.5867 319.483C41.4465 318.405 41.3413 317.213 41.2098 315.977C40.9556 313.435 40.605 310.551 40.3333 307.343C40.2018 305.747 40.0703 304.064 39.9213 302.32C39.7722 300.576 39.7021 298.752 39.5882 296.868C39.3252 293.098 39.2113 289.057 39.0622 284.815C38.8694 276.321 38.8957 266.976 39.334 257.185C39.7723 247.394 40.6664 238.085 41.6569 229.643C42.2091 225.427 42.6912 221.421 43.3136 217.695C43.6029 215.828 43.8571 214.023 44.1902 212.296C44.5233 210.569 44.795 208.912 45.0667 207.326C45.6015 204.161 46.2151 201.321 46.7147 198.814C46.9689 197.561 47.1968 196.395 47.416 195.308C47.6351 194.221 47.8718 193.265 48.0734 192.389L48.95 188.348C49.0376 187.901 49.1165 187.55 49.1691 187.296C49.2217 187.042 49.2305 186.928 49.2305 186.928C49.1861 187.042 49.1509 187.159 49.1253 187.278L48.8535 188.321L47.8806 192.354L47.1881 195.264C46.9602 196.333 46.7147 197.49 46.443 198.77C45.9258 201.268 45.2859 204.109 44.7337 207.273C44.4415 208.857 44.1493 210.513 43.8571 212.243C43.5415 213.996 43.2873 215.749 42.9805 217.643C42.3494 221.377 41.8497 225.383 41.28 229.599C40.2719 238.05 39.4129 247.368 38.922 257.168C38.4311 266.968 38.4661 276.329 38.6853 284.832C38.8518 289.084 38.9746 293.125 39.2551 296.894C39.3778 298.779 39.4654 300.602 39.6145 302.355C39.7635 304.108 39.9213 305.782 40.0615 307.387C40.307 310.595 40.6839 313.523 40.9381 316.012C41.0871 317.283 41.2274 318.466 41.3501 319.518C41.4728 320.57 41.6394 321.587 41.7708 322.481C42.0251 324.234 42.2266 325.619 42.3581 326.575L42.5247 327.644C42.538 327.763 42.5615 327.88 42.5948 327.995Z" fill="black"/>
<path d="M24.0625 233.377H23.8872L23.335 233.316L21.1873 233.071L12.9738 232.194L-16.2599 229.161H-16.479V229.38C-16.6982 238.225 -16.9611 248.235 -17.2329 258.851V258.947L-17.1715 259.008L-13.6652 262.804L-0.884781 276.461L-0.770823 276.584L-0.62182 276.505L20.9156 265.811L21.012 265.767V265.688C21.9499 255.914 22.7652 247.832 23.2648 242.161C23.5278 239.373 23.7294 237.182 23.8697 235.665C23.931 234.938 23.9836 234.377 24.0187 233.965C24.0537 233.553 24.0187 233.404 24.0187 233.404C24.0187 233.404 24.0187 233.614 23.9398 234C23.8609 234.386 23.8258 234.99 23.7382 235.753C23.5804 237.287 23.3437 239.487 23.0369 242.292C22.4496 247.92 21.6168 255.958 20.6 265.679L20.7052 265.53L-0.858484 276.163L-0.604271 276.207L-13.3584 262.497L-16.8647 258.71L-16.8034 258.868C-16.5492 248.253 -16.3037 238.251 -16.0933 229.398L-16.3213 229.591L12.8248 232.378L21.0909 233.15L23.2911 233.342L23.8609 233.395L24.0625 233.377Z" fill="black"/>
<path d="M-16.531 239.548C-16.0343 239.686 -15.5271 239.783 -15.0145 239.838C-14.0327 239.995 -12.6127 240.197 -10.8508 240.425C-7.34447 240.872 -2.44443 241.389 2.9465 241.906L16.7613 243.256L20.9426 243.695C21.4497 243.776 21.9629 243.814 22.4766 243.809C21.9799 243.671 21.4727 243.574 20.9601 243.519C19.9783 243.361 18.5583 243.16 16.7964 242.932C13.2901 242.485 8.39001 241.968 2.99032 241.451L-10.8157 240.101L-14.997 239.662C-15.5041 239.581 -16.0173 239.543 -16.531 239.548Z" fill="black"/>
<path d="M174.888 240.688C175.362 239.609 176.199 238.731 177.255 238.207C178.482 237.786 179.814 238.382 180.98 238.961L212.782 254.792C214.877 255.835 217.165 257.071 217.937 259.262C218.945 262.067 217.06 265.03 215.307 267.441C212.379 271.464 208.873 275.847 203.911 276.417L176.554 257.658C173.214 257.167 171.136 253.442 171.294 250.067C171.452 246.692 173.187 243.615 174.888 240.688Z" fill="#FF725E"/>
<path d="M171.431 252.154C171.512 252.267 171.606 252.37 171.711 252.46L172.588 253.276C173.342 253.977 174.455 254.967 175.849 256.16C178.645 258.553 182.616 261.735 187.244 264.978C191.873 268.221 196.107 270.895 199.324 272.7C200.919 273.621 202.225 274.34 203.137 274.813L204.189 275.348C204.434 275.47 204.565 275.523 204.574 275.506C204.473 275.41 204.358 275.33 204.232 275.269L203.224 274.655L199.49 272.42C196.343 270.527 192.057 267.809 187.481 264.575C182.905 261.34 178.908 258.211 176.086 255.888L172.728 253.109L171.852 252.364C171.554 252.224 171.44 252.136 171.431 252.154Z" fill="black"/>
<g opacity="0.3">
<path d="M21.2446 155.827C24.9876 168.257 30.2295 182.317 34.6562 194.396C38.4255 191.197 43.7024 186.963 47.4805 183.755C44.229 190.205 40.3254 196.306 35.8308 201.961C35.3049 202.619 34.6036 203.337 33.7884 203.18C32.9732 203.022 32.605 202.18 32.3245 201.427L25.4259 183.167C22.2001 174.63 19.0882 164.672 21.2446 155.827Z" fill="black"/>
</g>
<path d="M80.4125 20.5983C69.017 17.3199 58.3579 20.5983 47.8478 26.0506C37.3376 31.5029 28.8612 40.5053 23.3738 50.9803C17.5884 62.0164 15.0288 74.8757 17.1238 87.1565C19.2188 99.4373 26.1613 111.008 36.5575 117.837C50.7667 127.198 70.3494 126.708 84.9794 118.038C99.6094 109.369 109.243 93.389 111.794 76.5675C113.547 64.9792 112.127 52.7598 106.718 42.3811C101.31 32.0025 91.7465 23.5874 80.4212 20.5895" fill="#263238"/>
<path d="M43.0073 56.2654C45.2075 52.0316 45.1111 47.0088 46.312 42.3805C48.9417 32.2035 58.2334 24.849 68.3315 21.9125C77.7196 19.1688 88.5804 21.2288 99.0116 25.9447C106.147 29.1793 112.642 34.1407 116.902 40.715C119.689 45.1216 121.381 50.1305 121.839 55.3241C122.296 60.5176 121.505 65.7453 119.532 70.5711L67.4725 56.879C62.0552 60.3853 56.5065 64.0056 50.239 65.6448C48.4157 66.209 46.4782 66.2965 44.6114 65.899C43.685 65.6799 42.8412 65.199 42.1807 64.5136C41.5201 63.8281 41.0707 62.9671 40.886 62.0333C40.6668 59.947 42.0518 58.115 43.0073 56.2654Z" fill="#263238"/>
<path d="M30.5802 148.578L44.0181 54.066C44.6141 49.5954 46.6478 45.0373 51.1446 45.2476L98.4796 40.6895C113.311 41.3732 120.271 60.8506 118.956 75.6034C117.493 92.0304 115.064 112.025 111.286 123.876C103.686 147.693 84.4983 147.938 84.4983 147.938C84.4983 147.938 83.3324 152.672 81.8685 161.525L51.1885 181.932L30.5802 148.578Z" fill="#FFBF9D"/>
<path d="M107.521 93.5807C107.404 94.3981 106.971 95.1371 106.316 95.6399C105.661 96.1427 104.835 96.3694 104.015 96.2718C103.612 96.2433 103.218 96.1343 102.858 95.9511C102.498 95.768 102.178 95.5145 101.917 95.2056C101.657 94.8967 101.46 94.5387 101.34 94.1527C101.22 93.7667 101.179 93.3606 101.219 92.9583C101.339 92.1413 101.771 91.4029 102.426 90.8991C103.08 90.3953 103.905 90.1656 104.725 90.2585C105.128 90.2893 105.521 90.4002 105.881 90.5846C106.241 90.769 106.56 91.0233 106.821 91.3327C107.081 91.642 107.277 92.0001 107.397 92.3861C107.518 92.7721 107.56 93.1782 107.521 93.5807Z" fill="#263238"/>
<path d="M113.041 85.2979C112.594 85.6486 110.49 83.5448 107.115 83.0276C103.741 82.5104 101.023 83.834 100.716 83.3607C100.567 83.1503 101.076 82.4841 102.268 81.853C103.881 81.0703 105.695 80.8011 107.466 81.0816C109.22 81.342 110.844 82.1559 112.103 83.4045C113.024 84.3512 113.26 85.1138 113.041 85.2979Z" fill="#263238"/>
<path d="M76.3729 88.5142C76.2573 89.3332 75.8256 90.0744 75.1702 90.579C74.5149 91.0836 73.688 91.3116 72.8666 91.2141C72.4635 91.1856 72.0701 91.0765 71.7098 90.8934C71.3495 90.7103 71.0295 90.4567 70.7688 90.1478C70.5081 89.839 70.312 89.4809 70.192 89.095C70.0721 88.709 70.0307 88.3029 70.0704 87.9006C70.186 87.0816 70.6178 86.3405 71.2731 85.8359C71.9285 85.3313 72.7553 85.1033 73.5767 85.2008C73.9794 85.2305 74.3722 85.3403 74.732 85.5238C75.0917 85.7073 75.4112 85.9608 75.6716 86.2694C75.9321 86.5781 76.1283 86.9356 76.2487 87.3211C76.3692 87.7066 76.4114 88.1122 76.3729 88.5142Z" fill="#263238"/>
<path d="M80.9879 80.8361C80.5409 81.1867 78.4283 79.0829 75.0623 78.5657C71.6962 78.0486 68.9701 79.3722 68.6633 78.8989C68.5143 78.6885 69.0227 78.0223 70.2148 77.3911C71.8304 76.6067 73.648 76.3374 75.4217 76.6198C77.1976 76.8814 78.8421 77.7083 80.1113 78.9777C80.9879 79.8543 81.2246 80.7309 80.9879 80.8361Z" fill="#263238"/>
<path d="M88.2434 107.72C88.2434 107.527 90.4085 107.484 93.8622 107.571C94.7388 107.571 95.6154 107.571 95.817 107.001C96.0186 106.432 95.8959 105.432 95.6329 104.372C95.142 102.169 94.6249 99.8574 94.0814 97.438C91.9776 87.5678 90.5751 79.5121 90.9871 79.4332C91.3991 79.3543 93.4152 87.3224 95.5277 97.14C96.0274 99.5681 96.5095 101.891 96.9565 104.109C97.1319 105.134 97.5263 106.326 96.8864 107.545C96.7184 107.831 96.486 108.075 96.2075 108.256C95.9291 108.437 95.6123 108.551 95.2823 108.588C94.7878 108.655 94.2866 108.655 93.7921 108.588C90.3472 108.22 88.2259 107.904 88.2434 107.72Z" fill="#263238"/>
<path d="M84.4922 147.938C72.9668 146.354 62.1084 141.598 53.1284 134.202C53.1284 134.202 60.7809 153.355 82.9319 155.284L84.4922 147.938Z" fill="#FF9A6C"/>
<path d="M85.5815 115.627C85.0643 114.723 84.3255 113.965 83.4344 113.425C82.5434 112.885 81.5296 112.581 80.4886 112.542C79.732 112.498 78.9745 112.608 78.2618 112.866C77.5492 113.124 76.8962 113.523 76.3424 114.04C75.8064 114.534 75.4349 115.181 75.2782 115.892C75.1214 116.604 75.1869 117.347 75.4659 118.02C76.1759 119.431 78.0342 120.019 79.7085 119.773C81.3857 119.454 82.9828 118.804 84.4069 117.862C84.8311 117.645 85.2092 117.347 85.5202 116.986C85.6729 116.819 85.7727 116.611 85.8071 116.388C85.8414 116.165 85.8087 115.937 85.713 115.732" fill="#FF9A6C"/>
<path d="M77.9679 108.536C78.529 108.588 77.9679 112.252 80.7116 115.32C83.4553 118.388 87.3911 118.59 87.3473 119.098C87.3473 119.344 86.3655 119.677 84.7176 119.475C82.5695 119.177 80.5953 118.131 79.1425 116.521C77.7487 114.978 77.0099 112.954 77.0826 110.876C77.179 109.324 77.7225 108.483 77.9679 108.536Z" fill="#263238"/>
<path d="M81.9521 70.7736C81.4788 71.6502 78.1829 70.6947 74.1594 70.5633C70.1359 70.4318 66.7699 71.0278 66.3754 70.125C66.2001 69.6955 66.8838 68.9241 68.3126 68.2316C70.1987 67.408 72.2474 67.0242 74.3036 67.1092C76.3599 67.1943 78.3698 67.7459 80.1814 68.7225C81.5401 69.5289 82.1625 70.3617 81.9521 70.7736Z" fill="#263238"/>
<path d="M114.294 70.4225C113.584 71.0974 111.384 69.9491 108.596 69.4845C105.809 69.0199 103.337 69.2128 102.951 68.3274C102.767 67.8979 103.258 67.1967 104.397 66.6269C105.917 65.9725 107.597 65.7831 109.224 66.0827C110.851 66.3822 112.353 67.1573 113.54 68.3099C114.425 69.2478 114.627 70.0894 114.294 70.4225Z" fill="#263238"/>
<path d="M35.3422 48.1758C41.7237 34.6415 64.8126 17.8376 79.469 20.8443L101.199 38.1654C99.8944 42.0958 97.5521 45.6008 94.42 48.3102C91.2879 51.0196 87.4821 52.8327 83.4048 53.558C79.0657 54.2768 73.9816 53.9525 71.0188 57.2133C68.056 60.4742 68.766 66.0842 65.8996 69.5467C61.9287 74.3503 53.0227 72.9127 49.8145 78.2598C48.4032 80.5915 48.5697 83.6245 47.1322 85.9386C45.2037 89.0154 36.3591 92.0747 33.107 90.5144C29.8549 88.9541 30.5912 83.1336 29.8812 79.9166C28.6628 74.438 29.8198 71.8346 30.8367 68.9945C33.2122 62.2624 32.2918 54.6274 35.3422 48.1758Z" fill="#263238"/>
<path d="M42.8108 94.7556C43.0825 92.9324 41.6361 88.3304 39.883 87.7431C35.2021 86.2704 26.4977 85.3325 24.5605 97.4993C21.9308 114.154 39.1467 113.357 39.2606 112.883C39.3746 112.41 41.8641 101.014 42.8108 94.7556Z" fill="#FFBF9D"/>
<path d="M35.1887 105.783C35.1185 105.713 34.8643 105.941 34.3121 106.081C33.5764 106.271 32.7956 106.164 32.1382 105.783C30.4902 104.863 29.4559 101.839 29.8503 98.8232C30.0363 97.392 30.5394 96.0204 31.323 94.8084C31.5607 94.3132 31.9157 93.8835 32.3572 93.5566C32.7986 93.2297 33.3132 93.0155 33.8563 92.9326C34.2031 92.8967 34.5514 92.9842 34.84 93.1798C35.1286 93.3754 35.339 93.6666 35.4341 94.002C35.5831 94.5016 35.4341 94.8172 35.513 94.8786C35.5919 94.9399 35.9075 94.6594 35.8899 93.9494C35.861 93.5247 35.6878 93.1226 35.399 92.8099C34.9982 92.3881 34.4467 92.1422 33.865 92.1261C32.5677 92.0122 31.2353 93.0027 30.4289 94.2211C29.4901 95.5501 28.8884 97.0873 28.6757 98.7004C28.2462 102.066 29.4646 105.476 31.7613 106.59C32.1858 106.791 32.6499 106.896 33.12 106.896C33.59 106.896 34.0541 106.791 34.4787 106.59C35.0923 106.151 35.2413 105.818 35.1887 105.783Z" fill="#FF9A6C"/>
<path d="M96.9228 32.5633C97.6854 39.5759 107.038 49.4374 110.948 55.2491C118.46 66.3377 119.793 69.8879 117.145 92.4684C122.124 85.1315 126.122 77.8384 126.788 68.9938C127.454 60.1491 125.227 50.9714 119.828 43.9413C114.428 36.9111 105.741 32.2828 96.879 32.5458" fill="#263238"/>
<path d="M57.2062 8.78177C53.6999 4.91608 48.6334 2.40031 43.3739 1.08545C35.8792 -0.790418 27.6482 -0.282002 20.8284 2.97885C14.0087 6.23971 8.73172 12.3582 7.3555 19.3708C6.67893 22.9731 6.99718 26.6917 8.27602 30.1267C9.55487 33.5616 11.7459 36.583 14.6135 38.8658C10.7139 42.6465 5.95992 45.4309 0.754898 46.9829C2.17495 49.1129 4.79591 50.3577 7.44316 50.8047C10.1046 51.1375 12.7982 51.1198 15.455 50.7521C13.6413 53.4621 10.9275 55.4431 7.79379 56.3447C12.1077 57.3405 16.6069 57.1925 20.846 55.9151C24.992 54.6585 28.96 52.8762 32.6534 50.6119C45.4777 43.1698 52.5516 36.648 61.2122 25.1912C62.343 20.2474 60.7388 12.6562 57.2062 8.78177Z" fill="#263238"/>
<path d="M29.5526 43.9143C38.967 30.1609 50.9498 22.8064 61.793 20.5186L29.5526 43.9143Z" fill="#263238"/>
<path d="M61.793 20.5186C61.296 20.7175 60.7828 20.8729 60.259 20.9831C59.2684 21.2636 57.8396 21.6932 56.1216 22.3506C51.6484 24.0883 47.4431 26.4491 43.6304 29.3632C39.8169 32.2702 36.3415 35.5956 33.2693 39.2772C32.1122 40.706 31.1742 41.907 30.5694 42.6959C30.2683 43.143 29.928 43.5625 29.5526 43.9494C29.8062 43.4699 30.0994 43.0125 30.4292 42.5819C30.9902 41.7053 31.8843 40.522 33.0151 39.0756C36.0102 35.2835 39.4606 31.8743 43.2885 28.9249C47.1471 25.9815 51.4335 23.6462 55.9988 22C57.3757 21.5101 58.7808 21.1032 60.2064 20.7815C60.7274 20.6516 61.2579 20.5637 61.793 20.5186Z" fill="#455A64"/>
<path d="M18.3366 55.6344L18.547 55.7045L19.1606 55.95C19.6865 56.1779 20.4754 56.4759 21.5098 56.8265C24.4332 57.8053 27.4652 58.4235 30.5385 58.6673C35.0949 59.0065 39.6764 58.7115 44.1517 57.7908C49.6331 56.6392 54.9926 54.9691 60.1579 52.8031C65.6803 50.5503 70.8872 48.2361 75.5243 45.9658C79.6429 43.973 83.6073 41.6758 87.3843 39.0934C89.9235 37.3445 92.3211 35.3984 94.5547 33.273C95.3611 32.5279 95.9397 31.9055 96.3078 31.5198L96.7724 31.0553C96.8776 30.9588 96.9302 30.9062 96.939 30.915C96.9477 30.9238 96.939 30.9764 96.8075 31.0903L96.378 31.59C96.001 32.0283 95.44 32.6682 94.6248 33.4395C92.4283 35.6269 90.0501 37.6239 87.5158 39.409C83.7519 42.0531 79.7864 44.3979 75.6558 46.4216C71.0099 48.727 65.8118 51.0587 60.2806 53.3202C55.0829 55.4923 49.6873 57.1568 44.1692 58.2904C39.6496 59.1926 35.0245 59.4464 30.4333 59.0443C27.3642 58.7638 24.3426 58.0982 21.4397 57.0632C20.4141 56.6687 19.6339 56.3444 19.1168 56.0814L18.5294 55.7922C18.3979 55.6782 18.3278 55.6432 18.3366 55.6344Z" fill="#455A64"/>
<path d="M68.0032 138.182L69.5898 135.079C69.4759 135.018 58.4661 129.373 54.2323 125.814C44.2569 117.434 35.0879 104.048 34.9915 103.899L32.0988 105.872C32.4845 106.441 41.6271 119.792 51.9795 128.487C56.5377 132.292 67.5387 137.946 68.0032 138.182Z" fill="#455A64"/>
<path d="M59.8056 128.495C59.8056 128.495 74.8477 135.21 74.8477 136.7C74.8477 138.19 72.4634 141.17 70.6752 141.021C68.8869 140.872 63.7152 137.962 62.786 136.77C61.8568 135.578 60.2089 132.51 58.4031 131.02L59.8056 128.495Z" fill="#263238"/>
<path d="M32.2214 83.3615L35.7277 83.1949C35.6006 73.0839 37.3421 63.0364 40.8644 53.5579C48.4731 33.9578 63.1031 23.4389 84.3337 22.2818C86.265 22.1971 88.1998 22.3294 90.1016 22.6762L88.5676 21.2211C87.8242 20.5195 86.96 19.9582 86.0167 19.5644C84.7239 19.024 83.3187 18.8073 81.9231 18.9333C55.1175 21.2562 43.0033 38.2968 37.5597 52.3921C33.8514 62.2884 32.0404 72.7947 32.2214 83.3615Z" fill="#455A64"/>
<path d="M33.9758 115.242C27.8421 115.242 22.8697 108.092 22.8697 99.271C22.8697 90.4503 27.8421 83.2998 33.9758 83.2998C40.1096 83.2998 45.082 90.4503 45.082 99.271C45.082 108.092 40.1096 115.242 33.9758 115.242Z" fill="#455A64"/>
<path d="M22.8654 99.2715C22.876 99.1989 22.876 99.1251 22.8654 99.0524C22.8654 98.8771 22.8654 98.6667 22.918 98.4037C22.9572 97.5757 23.0421 96.7505 23.1722 95.9318C23.6253 92.9118 24.8011 90.046 26.5996 87.5781C27.2053 86.7802 27.9059 86.059 28.6859 85.4305C29.5353 84.7615 30.4929 84.2427 31.5172 83.8965C32.6136 83.5412 33.7745 83.4305 34.9183 83.5721C36.1283 83.7538 37.2868 84.1867 38.3194 84.8432C40.5074 86.3653 42.1968 88.5 43.1756 90.9792C44.2703 93.619 44.8338 96.4488 44.8338 99.3066C44.8338 102.164 44.2703 104.994 43.1756 107.634C42.1977 110.114 40.5081 112.249 38.3194 113.77C37.2868 114.426 36.1283 114.859 34.9183 115.041C33.7745 115.179 32.6144 115.068 31.5172 114.717C30.4929 114.371 29.5353 113.852 28.6859 113.183C27.9079 112.552 27.2076 111.831 26.5996 111.035C24.8011 108.567 23.6253 105.701 23.1722 102.681C23.0426 101.863 22.9577 101.037 22.918 100.209C22.918 99.9465 22.918 99.7361 22.8654 99.5608C22.877 99.4882 22.877 99.4143 22.8654 99.3417C22.8517 99.4141 22.8517 99.4884 22.8654 99.5608V100.209C22.8747 101.045 22.9332 101.879 23.0407 102.708C23.4329 105.782 24.5836 108.71 26.3892 111.228C27.0031 112.054 27.7155 112.801 28.5106 113.455C29.3871 114.162 30.381 114.711 31.4471 115.076C32.5961 115.453 33.8135 115.576 35.0147 115.436C36.2833 115.254 37.4991 114.806 38.5824 114.121C40.8504 112.578 42.6056 110.392 43.6227 107.844C44.751 105.152 45.332 102.261 45.332 99.3417C45.332 96.4221 44.751 93.5317 43.6227 90.8389C42.6056 88.2912 40.8504 86.1056 38.5824 84.5626C37.4991 83.8778 36.2833 83.4297 35.0147 83.2478C33.8135 83.1074 32.5961 83.23 31.4471 83.6072C30.381 83.972 29.3871 84.5209 28.5106 85.2288C27.7134 85.8797 27.0007 86.6276 26.3892 87.4553C24.581 89.9723 23.43 92.901 23.0407 95.9756C22.9336 96.8013 22.875 97.6326 22.8654 98.4651V99.1225C22.8595 99.172 22.8595 99.222 22.8654 99.2715Z" fill="#263238"/>
<path d="M32.2659 108.545C28.3591 108.545 25.192 103.992 25.192 98.3763C25.192 92.7605 28.3591 88.208 32.2659 88.208C36.1727 88.208 39.3398 92.7605 39.3398 98.3763C39.3398 103.992 36.1727 108.545 32.2659 108.545Z" fill="#455A64"/>
<path d="M25.192 98.3761C25.2446 98.3761 25.192 97.6047 25.4462 96.246C25.7395 94.3411 26.4915 92.5361 27.6376 90.9866C28.4168 89.9237 29.4981 89.1203 30.7407 88.6812C31.4305 88.4591 32.1604 88.3903 32.8795 88.4796C33.6378 88.5925 34.3636 88.8643 35.0096 89.2772C36.3852 90.2354 37.449 91.5766 38.0688 93.1342C38.7622 94.8007 39.1168 96.5886 39.112 98.3936C39.1206 100.199 38.7659 101.988 38.0688 103.653C37.449 105.211 36.3852 106.552 35.0096 107.51C34.3636 107.923 33.6378 108.195 32.8795 108.308C32.1604 108.397 31.4305 108.328 30.7407 108.106C29.4981 107.667 28.4168 106.864 27.6376 105.801C26.4915 104.251 25.7395 102.446 25.4462 100.541C25.227 99.1825 25.2446 98.4111 25.192 98.4199C25.1804 98.6038 25.1804 98.7883 25.192 98.9722C25.1932 99.5056 25.2283 100.038 25.2972 100.568C25.5297 102.534 26.2565 104.41 27.4097 106.02C28.213 107.156 29.3448 108.018 30.653 108.492C31.3909 108.743 32.1754 108.827 32.9497 108.737C33.771 108.61 34.5564 108.311 35.255 107.861C36.7122 106.872 37.8414 105.471 38.4984 103.837C39.2214 102.112 39.5938 100.26 39.5938 98.3892C39.5938 96.5186 39.2214 94.6666 38.4984 92.9413C37.8414 91.3075 36.7122 89.9066 35.255 88.9178C34.5589 88.4688 33.7767 88.1702 32.9584 88.0413C32.1812 87.9523 31.394 88.0362 30.653 88.2867C29.3448 88.7601 28.213 89.6228 27.4097 90.7587C26.2565 92.3686 25.5297 94.2443 25.2972 96.2109C25.2283 96.74 25.1932 97.2728 25.192 97.8063C25.1803 97.9961 25.1803 98.1863 25.192 98.3761Z" fill="#263238"/>
<path d="M31.7791 105.687C28.9713 105.687 26.695 102.414 26.695 98.3761C26.695 94.3385 28.9713 91.0654 31.7791 91.0654C34.587 91.0654 36.8633 94.3385 36.8633 98.3761C36.8633 102.414 34.587 105.687 31.7791 105.687Z" fill="#455A64"/>
<path d="M26.6912 98.3768C26.735 98.3768 26.735 97.8245 26.8928 96.8515C27.1184 95.4838 27.6651 94.189 28.4882 93.0735C29.0425 92.3171 29.8125 91.7457 30.6972 91.4343C31.201 91.2732 31.7348 91.2281 32.2585 91.3025C32.7822 91.3768 33.2823 91.5688 33.7213 91.8638C35.6235 93.1173 36.6316 95.7471 36.6403 98.368C36.6491 100.989 35.6235 103.627 33.7213 104.881C33.2823 105.176 32.7822 105.368 32.2585 105.442C31.7348 105.517 31.201 105.472 30.6972 105.31C29.8125 104.999 29.0425 104.428 28.4882 103.671C27.6651 102.556 27.1184 101.261 26.8928 99.8933C26.735 98.9203 26.735 98.368 26.6912 98.3768C26.6702 98.5074 26.6702 98.6406 26.6912 98.7712C26.6868 99.1549 26.7073 99.5385 26.7526 99.9196C26.9102 101.344 27.4292 102.705 28.2603 103.873C28.852 104.681 29.6738 105.292 30.6183 105.626C31.1567 105.807 31.7277 105.87 32.2925 105.81C32.8908 105.727 33.4645 105.518 33.9755 105.197C35.0366 104.478 35.8579 103.458 36.3335 102.269C36.861 101.021 37.1328 99.6793 37.1328 98.3242C37.1328 96.9691 36.861 95.6278 36.3335 94.3796C35.8579 93.1899 35.0366 92.1701 33.9755 91.4518C33.4645 91.1301 32.8908 90.9209 32.2925 90.8382C31.7277 90.7786 31.1567 90.8414 30.6183 91.0223C29.6738 91.3562 28.852 91.9672 28.2603 92.7755C27.4292 93.9433 26.9102 95.3041 26.7526 96.7288C26.7073 97.1099 26.6868 97.4934 26.6912 97.8771C26.6597 98.0422 26.6597 98.2117 26.6912 98.3768Z" fill="#263238"/>
</svg>
