<svg width="50" height="50" viewBox="0 0 50 50" fill="none" xmlns="http://www.w3.org/2000/svg">
<path d="M24.9992 49.5001C19.6046 49.5017 14.3603 47.7227 10.0801 44.4392C5.79986 41.1558 2.72298 36.5514 1.32687 31.3407C-0.0692319 26.1299 0.293505 20.604 2.3588 15.6204C4.4241 10.6368 8.07647 6.47419 12.7492 3.77844C13.017 3.62617 13.3342 3.58602 13.6315 3.66674C13.9288 3.74746 14.1821 3.9425 14.3362 4.2093C14.4902 4.4761 14.5325 4.793 14.4537 5.09085C14.375 5.38869 14.1816 5.6433 13.9159 5.79911C9.68794 8.23802 6.38319 12.0042 4.51444 16.5132C2.64569 21.0223 2.31743 26.0221 3.5806 30.7367C4.84376 35.4514 7.62772 39.6173 11.5005 42.5881C15.3732 45.5589 20.1183 47.1683 24.9992 47.1668C25.3086 47.1668 25.6054 47.2897 25.8242 47.5085C26.043 47.7273 26.1659 48.024 26.1659 48.3334C26.1659 48.6429 26.043 48.9396 25.8242 49.1584C25.6054 49.3772 25.3086 49.5001 24.9992 49.5001Z" fill="#349F6E"/>
<path d="M36.6654 46.378C36.4086 46.378 36.1589 46.2932 35.9552 46.1369C35.7514 45.9806 35.605 45.7614 35.5385 45.5133C35.472 45.2652 35.4893 45.0022 35.5875 44.7649C35.6858 44.5276 35.8596 44.3294 36.082 44.201C40.31 41.7621 43.6147 37.9959 45.4835 33.4869C47.3522 28.9778 47.6805 23.978 46.4173 19.2634C45.1541 14.5487 42.3702 10.3828 38.4974 7.412C34.6247 4.44124 29.8797 2.83177 24.9987 2.83333C24.6893 2.83333 24.3925 2.71042 24.1737 2.49163C23.9549 2.27283 23.832 1.97609 23.832 1.66667C23.832 1.35725 23.9549 1.0605 24.1737 0.84171C24.3925 0.622917 24.6893 0.500001 24.9987 0.500001C30.3933 0.498458 35.6376 2.27743 39.9178 5.56087C44.198 8.84432 47.2749 13.4487 48.671 18.6595C50.0671 23.8703 49.7044 29.3961 47.6391 34.3797C45.5738 39.3633 41.9214 43.5259 37.2487 46.2217C37.0713 46.3241 36.8702 46.378 36.6654 46.378Z" fill="#349F6E"/>
<path d="M36.6654 46.378C36.4086 46.378 36.1589 46.2932 35.9552 46.1369C35.7514 45.9806 35.605 45.7614 35.5385 45.5133C35.472 45.2652 35.4893 45.0022 35.5875 44.7649C35.6858 44.5276 35.8596 44.3294 36.082 44.201C40.31 41.7621 43.6147 37.9959 45.4835 33.4869C47.3522 28.9778 47.6805 23.978 46.4173 19.2634C45.1541 14.5487 42.3702 10.3828 38.4974 7.412C34.6247 4.44124 29.8797 2.83177 24.9987 2.83333C24.6893 2.83333 24.3925 2.71042 24.1737 2.49163C23.9549 2.27283 23.832 1.97609 23.832 1.66667C23.832 1.35725 23.9549 1.0605 24.1737 0.84171C24.3925 0.622917 24.6893 0.500001 24.9987 0.500001C30.3933 0.498458 35.6376 2.27743 39.9178 5.56087C44.198 8.84432 47.2749 13.4487 48.671 18.6595C50.0671 23.8703 49.7044 29.3961 47.6391 34.3797C45.5738 39.3633 41.9214 43.5259 37.2487 46.2217C37.0713 46.3241 36.8702 46.378 36.6654 46.378Z" fill="#349F6E"/>
<path d="M24.9992 49.5001C19.6046 49.5017 14.3603 47.7227 10.0801 44.4392C5.79986 41.1558 2.72298 36.5514 1.32687 31.3407C-0.0692319 26.1299 0.293505 20.604 2.3588 15.6204C4.4241 10.6368 8.07647 6.47419 12.7492 3.77844C13.017 3.62617 13.3342 3.58602 13.6315 3.66674C13.9288 3.74746 14.1821 3.9425 14.3362 4.2093C14.4902 4.4761 14.5325 4.793 14.4537 5.09085C14.375 5.38869 14.1816 5.6433 13.9159 5.79911C9.68794 8.23802 6.38319 12.0042 4.51444 16.5132C2.64569 21.0223 2.31743 26.0221 3.5806 30.7367C4.84376 35.4514 7.62772 39.6173 11.5005 42.5881C15.3732 45.5589 20.1183 47.1683 24.9992 47.1668C25.3086 47.1668 25.6054 47.2897 25.8242 47.5085C26.043 47.7273 26.1659 48.024 26.1659 48.3334C26.1659 48.6429 26.043 48.9396 25.8242 49.1584C25.6054 49.3772 25.3086 49.5001 24.9992 49.5001Z" fill="#349F6E"/>
<path d="M13.3332 12.1668C13.0237 12.1668 12.727 12.0439 12.5082 11.8251C12.2894 11.6063 12.1665 11.3096 12.1665 11.0001V5.83531L6.20132 5.15981C5.89376 5.12485 5.61268 4.96914 5.41993 4.72694C5.22717 4.48473 5.13852 4.17588 5.17349 3.86831C5.20845 3.56075 5.36416 3.27968 5.60637 3.08692C5.84857 2.89416 6.15743 2.80552 6.46499 2.84048L13.465 3.63498C13.7496 3.66735 14.0124 3.80332 14.2032 4.01697C14.3941 4.23061 14.4997 4.50701 14.4998 4.79348V11.0001C14.4998 11.3096 14.3769 11.6063 14.1581 11.8251C13.9393 12.0439 13.6426 12.1668 13.3332 12.1668Z" fill="#349F6E"/>
<path d="M43.6667 47.1668C43.6222 47.1668 43.5779 47.1645 43.5337 47.1598L36.5337 46.3653C36.2492 46.3327 35.9867 46.1966 35.7961 45.983C35.6055 45.7694 35.5001 45.4931 35.5 45.2068V39.0002C35.5 38.6907 35.6229 38.394 35.8417 38.1752C36.0605 37.9564 36.3572 37.8335 36.6667 37.8335C36.9761 37.8335 37.2728 37.9564 37.4916 38.1752C37.7104 38.394 37.8333 38.6907 37.8333 39.0002V44.165L43.7985 44.8405C44.0954 44.8732 44.3685 45.0185 44.5615 45.2465C44.7545 45.4745 44.8527 45.7679 44.8358 46.0662C44.8189 46.3644 44.6882 46.6448 44.4707 46.8496C44.2532 47.0544 43.9654 47.1679 43.6667 47.1668Z" fill="#349F6E"/>
<path d="M24.9987 40.1668C21.999 40.1668 19.0667 39.2773 16.5726 37.6108C14.0784 35.9443 12.1345 33.5755 10.9865 30.8042C9.8386 28.0329 9.53825 24.9833 10.1235 22.0413C10.7087 19.0993 12.1532 16.3968 14.2743 14.2757C16.3953 12.1546 19.0978 10.7101 22.0398 10.1249C24.9819 9.53972 28.0314 9.84007 30.8027 10.988C33.5741 12.1359 35.9428 14.0799 37.6093 16.574C39.2759 19.0682 40.1654 22.0005 40.1654 25.0002C40.1607 29.0212 38.5613 32.8762 35.718 35.7195C32.8747 38.5628 29.0197 40.1622 24.9987 40.1668ZM24.9987 12.1668C22.4605 12.1668 19.9793 12.9195 17.8689 14.3296C15.7585 15.7398 14.1136 17.7441 13.1423 20.0891C12.1709 22.4341 11.9168 25.0144 12.412 27.5038C12.9071 29.9933 14.1294 32.2799 15.9242 34.0747C17.7189 35.8695 20.0056 37.0917 22.495 37.5869C24.9845 38.0821 27.5648 37.8279 29.9098 36.8566C32.2548 35.8853 34.2591 34.2404 35.6692 32.13C37.0794 30.0196 37.832 27.5384 37.832 25.0002C37.828 21.5978 36.4747 18.3359 34.0688 15.9301C31.663 13.5242 28.4011 12.1709 24.9987 12.1668Z" fill="#349F6E"/>
<path d="M29.6654 30.8333C29.356 30.8333 29.0593 30.7103 28.8405 30.4915L24.1739 25.8248C23.9551 25.6061 23.8321 25.3094 23.832 25V19.1667C23.832 18.8572 23.9549 18.5605 24.1737 18.3417C24.3925 18.1229 24.6893 18 24.9987 18C25.3081 18 25.6049 18.1229 25.8237 18.3417C26.0424 18.5605 26.1654 18.8572 26.1654 19.1667V24.517L30.4902 28.8418C30.6533 29.005 30.7644 29.2129 30.8094 29.4391C30.8544 29.6654 30.8313 29.8999 30.743 30.1131C30.6547 30.3262 30.5052 30.5084 30.3134 30.6366C30.1216 30.7648 29.8961 30.8333 29.6654 30.8333Z" fill="#349F6E"/>
</svg>
