<svg width="501" height="420" viewBox="0 0 501 420" fill="none" xmlns="http://www.w3.org/2000/svg">
<g clip-path="url(#clip0_3753_887)">
<path d="M109.759 243.92H61.1094V256.79H109.759V243.92Z" fill="#EBEBEB"/>
<path d="M89.1898 270.35C89.1826 270.271 89.1826 270.19 89.1898 270.11V269.45C89.1898 268.85 89.1898 268 89.1898 266.92C89.1898 264.7 89.1398 261.5 89.0998 257.48L89.2598 257.63L40.4998 257.72L40.7398 257.48V264C40.7398 266.147 40.7398 268.257 40.7398 270.33L40.4998 270.09L75.1698 270.2L85.4098 270.26H88.1798H88.8998H89.1598H88.9298H88.2398H85.5198L75.3398 270.33L40.4998 270.59H40.2598V264.02C40.2598 262.94 40.2598 261.86 40.2598 260.77V257.5C40.7598 257 40.3998 257.36 40.5198 257.25L89.1698 257.35H89.3198V257.5C89.3198 261.56 89.2498 264.79 89.2298 267.03C89.2298 268.1 89.2298 268.93 89.2298 269.53C89.2298 269.79 89.2298 270 89.2298 270.16C89.2202 270.224 89.2068 270.288 89.1898 270.35Z" fill="#E0E0E0"/>
<path d="M274.5 0.919904C274.493 0.840062 274.493 0.759744 274.5 0.679902V0.0199022C274.5 -0.580098 274.5 -1.4301 274.5 -2.5101C274.5 -4.7301 274.45 -7.9201 274.42 -11.9501L274.57 -11.8001L225.92 -11.7001C226.03 -11.8101 225.67 -11.4601 226.16 -11.9501V0.919904L225.91 0.679902L260.58 0.789903L270.82 0.859902H273.59H274.31H274.57H274.34H273.65H270.93L260.75 0.929902L225.91 1.0399H225.67V-11.9801C226.16 -12.4801 225.8 -12.1201 225.92 -12.2301L274.57 -12.1301H274.72V-11.9801C274.72 -7.9201 274.65 -4.69009 274.63 -2.4501C274.63 -1.3801 274.63 -0.550096 274.63 0.0499048C274.63 0.309905 274.63 0.519902 274.63 0.679902C274.593 0.763335 274.55 0.843608 274.5 0.919904Z" fill="#E0E0E0"/>
<path d="M305.919 276.59C305.915 276.513 305.915 276.436 305.919 276.36V275.7C305.919 275.1 305.919 274.25 305.919 273.17C305.919 270.95 305.919 267.75 305.839 263.72L305.989 263.87L257.339 263.97L257.589 263.72V267.01C257.589 268.1 257.589 269.18 257.589 270.25V276.58L257.349 276.34L292.019 276.45L302.249 276.52H305.019H305.739H305.999C305.999 276.52 305.929 276.52 305.779 276.52H305.079H302.369L292.189 276.59L257.349 276.7H257.109V276.45C257.109 274.39 257.109 272.27 257.109 270.12V263.59L257.359 263.35L306.009 263.44H306.159V263.59C306.159 267.66 306.099 270.88 306.079 273.13C306.079 274.2 306.079 275.03 306.079 275.63V276.26C305.929 276.53 305.929 276.6 305.919 276.59Z" fill="#E0E0E0"/>
<path d="M312.499 263.72C312.485 263.641 312.485 263.56 312.499 263.48C312.499 263.29 312.499 263.07 312.499 262.8C312.499 262.16 312.499 261.3 312.449 260.22C312.449 257.96 312.399 254.77 312.359 250.85L312.539 251.03L283.309 251.1C283.079 251.32 283.609 250.8 283.549 250.85V257.47C283.549 259.63 283.549 261.71 283.549 263.71L283.309 263.48L304.229 263.59L310.319 263.66H311.959H312.549C312.373 263.675 312.196 263.675 312.019 263.66H310.419L304.419 263.73L283.339 263.84H283.109V263.6C283.109 261.6 283.109 259.52 283.109 257.36V250.74L283.359 250.49L312.589 250.56H312.769V250.73C312.719 254.73 312.689 257.92 312.669 260.2C312.669 261.27 312.669 262.12 312.619 262.75C312.598 263.076 312.558 263.399 312.499 263.72Z" fill="#E0E0E0"/>
<path d="M76.57 92.3499C76.57 92.3499 76.57 92.2699 76.57 92.1199V91.4599C76.57 90.8499 76.57 89.9999 76.57 88.9199C76.57 86.6999 76.52 83.5099 76.48 79.4799L76.63 79.6299L27.98 79.7299L28.23 79.4799V85.9999C28.23 88.1499 28.23 90.2599 28.23 92.3299L27.99 92.0899L62.66 92.1999L72.9 92.2699H75.66H76.39C76.4731 92.2616 76.5569 92.2616 76.64 92.2699H76.42H75.72H73.01L62.83 92.3399L27.99 92.4499H27.75V92.2099C27.75 90.1399 27.75 88.0299 27.75 85.8799V79.3599L28 79.1099L76.65 79.2099H76.8V79.3599C76.8 83.4199 76.74 86.6499 76.72 88.8899C76.72 89.9599 76.72 90.7899 76.72 91.3899V92.0199C76.58 92.2899 76.58 92.3499 76.57 92.3499Z" fill="#E0E0E0"/>
<path d="M83.1701 79.48C83.1627 79.3968 83.1627 79.3132 83.1701 79.23C83.1701 79.05 83.1701 78.82 83.1701 78.55C83.1701 77.92 83.1701 77.06 83.1701 75.97C83.1701 73.71 83.1101 70.53 83.0701 66.61L83.2501 66.79L54.0201 66.86L54.2701 66.61V73.22C54.2701 75.37 54.2701 77.46 54.2701 79.46L54.0401 79.22L74.9501 79.33L81.0401 79.4H82.6801H83.2701C83.0937 79.4143 82.9165 79.4143 82.7401 79.4H81.1501L75.1501 79.46L54.0801 79.57H53.7001V79.33C53.7001 77.33 53.7001 75.24 53.7001 73.09V66.48C53.6401 66.48 54.1701 66.01 53.9501 66.23L83.1801 66.3H83.3601V66.48C83.3601 70.48 83.2801 73.67 83.2601 75.95C83.2601 77.02 83.2601 77.87 83.2601 78.49C83.2601 79.11 83.1801 79.49 83.1701 79.48Z" fill="#E0E0E0"/>
<path d="M474.839 119.49C474.839 119.49 474.839 119.4 474.839 119.25V118.59C474.839 117.99 474.839 117.14 474.839 116.06C474.839 113.84 474.839 110.64 474.759 106.61L474.909 106.77L426.259 106.86L426.509 106.61V113.14C426.509 115.29 426.509 117.41 426.509 119.48L426.269 119.23L460.939 119.34L471.169 119.41H473.939H474.659H474.919H474.699H473.999H471.289L461.109 119.48L426.269 119.59H426.029V119.35C426.029 117.28 426.029 115.16 426.029 113.01V106.62L426.279 106.38L474.929 106.47H475.079V106.62C475.079 110.69 475.019 113.92 474.999 116.16C474.999 117.23 474.999 118.06 474.999 118.66V119.29C474.956 119.364 474.902 119.432 474.839 119.49Z" fill="#E0E0E0"/>
<path d="M481.441 106.61C481.432 106.53 481.432 106.45 481.441 106.37C481.441 106.18 481.441 105.96 481.441 105.69C481.441 105.05 481.441 104.19 481.441 103.11C481.441 100.85 481.381 97.6597 481.341 93.7397L481.521 93.9197L452.291 93.9897C452.061 94.2097 452.591 93.6897 452.531 93.7397V100.36C452.531 102.52 452.531 104.6 452.531 106.6L452.301 106.37L473.211 106.48L479.301 106.55H480.941H481.531C481.354 106.564 481.177 106.564 481.001 106.55H479.401L473.401 106.62L452.331 106.73H452.091V106.49C452.091 104.49 452.091 102.41 452.091 100.25V93.6297C452.031 93.6897 452.561 93.1597 452.341 93.3897L481.571 93.4597H481.751V93.6297C481.751 97.6297 481.671 100.82 481.651 103.11C481.651 104.17 481.651 105.02 481.651 105.65C481.651 106.28 481.501 106.63 481.441 106.61Z" fill="#E0E0E0"/>
<path d="M144.339 418.979H252.619V335.46H144.339V418.979Z" fill="#F5F5F5"/>
<path d="M171.5 418.39C171.65 418.39 171.77 399.77 171.77 376.82C171.77 353.87 171.65 335.24 171.5 335.24C171.35 335.24 171.23 353.85 171.23 376.82C171.23 399.79 171.31 418.39 171.5 418.39Z" fill="#EBEBEB"/>
<path d="M153.52 409.36H161.82V399.98H153.52V409.36Z" fill="#FAFAFA"/>
<path d="M219.579 335.68H207.279V353.5H219.579V335.68Z" fill="#EBEBEB"/>
<path d="M219.579 400.91H207.279V418.73H219.579V400.91Z" fill="#EBEBEB"/>
<path d="M382.95 313.189H246.25V418.629H382.95V313.189Z" fill="#EBEBEB"/>
<path d="M348.71 417.919C348.56 417.919 348.43 394.419 348.43 365.429C348.43 336.439 348.56 312.939 348.71 312.939C348.86 312.939 348.98 336.439 348.98 365.429C348.98 394.419 348.86 417.919 348.71 417.919Z" fill="#E0E0E0"/>
<path d="M371.361 394.63H360.881V406.48H371.361V394.63Z" fill="#FAFAFA"/>
<path d="M303.491 313.46H287.961V335.96H303.491V313.46Z" fill="#E0E0E0"/>
<path d="M303.491 395.81H287.961V418.31H303.491V395.81Z" fill="#E0E0E0"/>
<path d="M461.5 419.84C461.5 419.98 367.04 420.1 250.5 420.1C133.96 420.1 39.5 419.98 39.5 419.84C39.5 419.7 133.94 419.58 250.5 419.58C367.06 419.58 461.5 419.69 461.5 419.84Z" fill="#263238"/>
<path d="M92.3491 390.05C92.3491 390.05 88.0091 360.22 88.3491 342.86C88.6891 325.5 88.3491 305.97 88.3491 305.97H90.3491C90.3491 305.97 88.9991 340.43 90.4691 361.21C91.9391 381.99 95.8191 390.05 95.8191 390.05H92.3491Z" fill="#263238"/>
<path d="M105.28 272.41C104.961 271.354 104.326 270.422 103.46 269.74C102.19 268.93 100.52 269.27 99.1095 269.74C93.1095 271.88 87.7095 283.14 85.2695 289.07L93.2695 316.07C107.77 302.69 110.27 285.07 105.28 272.41Z" fill="#455A64"/>
<path d="M102.99 270.83C102.966 270.952 102.926 271.069 102.87 271.18L102.48 272.18C102.13 273.03 101.63 274.27 101.04 275.8C99.8601 278.87 98.3601 283.16 97.0401 288C95.7201 292.84 94.7801 297.29 94.2101 300.53C93.9201 302.15 93.7101 303.46 93.5701 304.37C93.5001 304.79 93.4501 305.14 93.4001 305.42C93.3864 305.543 93.3596 305.663 93.3201 305.78C93.3048 305.657 93.3048 305.533 93.3201 305.41C93.3201 305.13 93.3901 304.78 93.4301 304.35C93.5301 303.44 93.7101 302.11 93.9701 300.49C95.3226 292.001 97.6306 283.691 100.85 275.72C101.46 274.19 101.99 272.96 102.38 272.13L102.83 271.13C102.875 271.026 102.929 270.926 102.99 270.83Z" fill="#263238"/>
<path d="M89.7203 322.61C86.0697 320.533 83.0151 317.552 80.8504 313.953C78.6857 310.354 77.4838 306.258 77.3603 302.06C77.0703 296.06 78.9103 290.17 81.0003 284.54C81.1283 284.031 81.4287 283.582 81.8503 283.27C82.1913 283.146 82.558 283.11 82.9165 283.166C83.2749 283.222 83.6134 283.368 83.9003 283.59C89.3603 286.7 92.6703 292.59 94.4403 298.67C95.6996 302.675 96.1183 306.896 95.6703 311.07C94.969 315.464 92.8641 319.512 89.6703 322.61" fill="#455A64"/>
<path d="M89.7187 322.61C89.7061 322.487 89.7061 322.363 89.7187 322.24C89.7187 321.97 89.7187 321.63 89.7187 321.24C89.7187 320.34 89.7187 319.03 89.6087 317.43C89.3843 313.235 88.9034 309.057 88.1687 304.92C87.3287 300.08 86.3187 295.74 85.5687 292.61C85.2087 291.08 84.8987 289.82 84.6787 288.9C84.5887 288.49 84.5087 288.16 84.4487 287.9C84.4149 287.783 84.3948 287.662 84.3887 287.54C84.4477 287.647 84.4915 287.761 84.5187 287.88C84.5887 288.14 84.6887 288.47 84.8087 288.88C85.0587 289.74 85.3987 291 85.8087 292.56C86.6187 295.68 87.6687 300.02 88.4987 304.87C89.2195 309.015 89.6572 313.205 89.8087 317.41C89.8087 319.02 89.8087 320.33 89.8087 321.23C89.8087 321.65 89.8087 321.99 89.8087 322.23C89.8087 322.47 89.7387 322.61 89.7187 322.61Z" fill="#263238"/>
<g opacity="0.3">
<path d="M89.7203 322.61C86.0697 320.533 83.0151 317.552 80.8504 313.953C78.6857 310.354 77.4838 306.258 77.3603 302.06C77.0703 296.06 78.9103 290.17 81.0003 284.54C81.1283 284.031 81.4287 283.582 81.8503 283.27C82.1913 283.146 82.558 283.11 82.9165 283.166C83.2749 283.222 83.6134 283.368 83.9003 283.59C89.3603 286.7 92.6703 292.59 94.4403 298.67C95.6996 302.675 96.1183 306.896 95.6703 311.07C94.969 315.464 92.8641 319.512 89.6703 322.61" fill="black"/>
</g>
<path d="M98.209 368.25C105.609 369.88 111.699 375.1 118.839 377.64C123.559 379.32 128.899 379.91 132.669 383.21C131.769 380.93 129.669 379.41 127.539 378.1C121.659 374.435 115.387 371.443 108.839 369.18C105.479 368.02 101.839 367.05 98.409 368" fill="#455A64"/>
<path d="M87.5 374.851C78.23 374.701 68.5 366.851 59.25 366.341C68.9 363.221 82.72 365.771 87.5 374.851Z" fill="#455A64"/>
<path d="M91.1298 352.62C95.9055 351.055 100.997 350.711 105.94 351.62C110.864 352.525 115.704 353.84 120.41 355.55C119.93 352.33 117.33 349.92 114.88 347.78C113.092 346.106 111.146 344.609 109.07 343.31C106.977 341.985 104.547 341.29 102.07 341.31C100.594 341.405 99.1518 341.796 97.8305 342.461C96.5092 343.126 95.3356 344.051 94.3798 345.18C92.508 347.227 91.3532 349.828 91.0898 352.59" fill="#455A64"/>
<path d="M72.1095 342.38C66.2695 337.38 57.4395 337.89 49.7695 338.06C62.0882 343.937 73.7078 351.179 84.4095 359.65C84.7295 354.23 79.4995 348.68 72.1095 342.38Z" fill="#455A64"/>
<g opacity="0.3">
<path d="M72.1095 342.38C66.2695 337.38 57.4395 337.89 49.7695 338.06C62.0882 343.937 73.7078 351.179 84.4095 359.65C84.7295 354.23 79.4995 348.68 72.1095 342.38Z" fill="black"/>
</g>
<path d="M93.75 335.51C96.6067 333.534 99.6162 331.788 102.75 330.29C105.82 328.9 108.69 326.68 111.65 325.07C115.5 322.99 118.83 320.07 122.36 317.51C125.89 314.95 129.77 312.6 134.09 311.92C130.535 311.286 126.88 311.495 123.42 312.53C119.992 313.576 116.649 314.883 113.42 316.44C108.87 318.49 104.24 320.59 100.52 323.92C96.8 327.25 93.44 330.53 93.83 335.51" fill="#455A64"/>
<path d="M118.67 374.85C118.568 374.82 118.47 374.776 118.38 374.72L117.57 374.3C116.87 373.93 115.87 373.38 114.57 372.75C113.94 372.42 113.25 372.07 112.5 371.75C111.75 371.43 110.95 371.02 110.09 370.65C108.25 369.814 106.339 369.145 104.38 368.65C102.442 368.114 100.402 368.063 98.4398 368.5C97.5813 368.683 96.7387 368.934 95.9198 369.25C94.1803 369.957 92.6144 371.031 91.3298 372.4C90.7998 372.98 90.5298 373.33 90.5098 373.31C90.5552 373.214 90.6123 373.123 90.6798 373.04C90.8506 372.788 91.0376 372.548 91.2398 372.32C92.4883 370.873 94.0563 369.737 95.8198 369C96.6463 368.664 97.4992 368.396 98.3698 368.2C100.379 367.735 102.472 367.78 104.46 368.33C106.433 368.82 108.358 369.49 110.21 370.33C111.07 370.71 111.88 371.08 112.62 371.46C113.36 371.84 114.05 372.18 114.62 372.53C115.87 373.19 116.86 373.77 117.54 374.18L118.32 374.65C118.445 374.7 118.563 374.767 118.67 374.85Z" fill="#263238"/>
<path d="M80.5902 370.25C80.7938 370.279 80.9924 370.336 81.1802 370.42C81.6948 370.613 82.1989 370.834 82.6902 371.08C84.3077 371.907 85.7965 372.965 87.1102 374.22C88.4227 375.482 89.5414 376.931 90.4302 378.52C90.6998 378.997 90.937 379.491 91.1402 380C91.2349 380.182 91.3023 380.378 91.3402 380.58C91.2802 380.58 90.9402 379.81 90.2302 378.64C88.3642 375.565 85.7271 373.032 82.5802 371.29C81.3702 370.62 80.5702 370.31 80.5902 370.25Z" fill="#263238"/>
<path d="M60.0898 341.92C60.2269 341.946 60.3609 341.987 60.4898 342.04L61.5998 342.43L63.3498 343.08C64.0398 343.33 64.7798 343.71 65.6198 344.08C69.9648 346.09 74.0209 348.673 77.6798 351.76C79.6775 353.479 81.5583 355.33 83.3098 357.3C84.8998 359.14 86.2498 360.86 87.3098 362.36C88.3698 363.86 89.1698 365.11 89.7198 365.97L90.3598 366.97C90.4401 367.082 90.5072 367.203 90.5598 367.33C90.4653 367.23 90.3784 367.123 90.2998 367.01C90.1398 366.79 89.8998 366.47 89.6098 366.01C89.0298 365.16 88.1998 363.94 87.1198 362.46C86.0398 360.98 84.6898 359.28 83.1198 357.46C81.3644 355.529 79.4872 353.712 77.4998 352.02C73.8439 348.945 69.8115 346.347 65.4998 344.29C64.6698 343.91 63.9398 343.52 63.2598 343.29L61.5298 342.59L60.4998 342.1L60.0898 341.92Z" fill="#263238"/>
<path d="M105.03 347.411C104.781 347.4 104.533 347.367 104.29 347.311L103.44 347.151C103.11 347.091 102.73 347.091 102.31 347.051C100.61 346.893 98.8951 347.116 97.2915 347.704C95.688 348.292 94.2357 349.23 93.0404 350.451C92.333 351.149 91.7058 351.923 91.1704 352.761C90.6891 353.539 90.2647 354.351 89.9004 355.191C89.9252 354.939 89.9893 354.692 90.0904 354.461C90.3268 353.823 90.6249 353.21 90.9804 352.631C91.4916 351.76 92.1098 350.957 92.8204 350.241C94.0294 348.968 95.5187 347.996 97.1696 347.401C98.8205 346.805 100.588 346.603 102.33 346.811C102.75 346.871 103.14 346.891 103.47 346.971L104.32 347.191C104.567 347.228 104.806 347.302 105.03 347.411Z" fill="#263238"/>
<path d="M114.35 318.51C114.24 318.594 114.123 318.668 114 318.73L113 319.29C112.1 319.77 110.81 320.49 109.24 321.42C107.67 322.35 105.83 323.51 103.87 324.91C101.725 326.395 99.7173 328.068 97.8697 329.91C96.9156 330.855 96.0886 331.921 95.4097 333.08C94.8097 334.25 94.2297 335.38 93.6897 336.46C92.7314 338.367 91.8735 340.323 91.1197 342.32C90.617 343.669 90.1995 345.048 89.8697 346.45C89.6297 347.45 89.5397 348 89.5097 347.99C89.4942 347.854 89.4942 347.716 89.5097 347.58C89.5097 347.32 89.5997 346.92 89.6997 346.42C89.9815 344.999 90.3692 343.602 90.8597 342.24C91.5848 340.219 92.4262 338.243 93.3797 336.32C93.9097 335.24 94.4797 334.1 95.0897 332.94C95.7685 331.743 96.6098 330.646 97.5897 329.68C99.4517 327.834 101.477 326.161 103.64 324.68C105.64 323.29 107.49 322.15 109.07 321.23C110.65 320.31 111.98 319.65 112.89 319.23L113.96 318.72C114.082 318.636 114.213 318.566 114.35 318.51Z" fill="#263238"/>
<path d="M88.3599 346.57C88.269 346.318 88.2085 346.056 88.1799 345.79C88.0699 345.22 87.9299 344.5 87.7699 343.65C86.9075 338.937 85.4281 334.357 83.3699 330.03L82.4699 328.03C82.3459 327.794 82.2454 327.546 82.1699 327.29C82.3362 327.503 82.4771 327.735 82.5899 327.98C82.8299 328.43 83.1799 329.09 83.5899 329.92C84.6776 332.066 85.597 334.292 86.3399 336.58C87.0732 338.868 87.6314 341.208 88.0099 343.58C88.1599 344.49 88.2599 345.23 88.3199 345.74C88.3598 346.015 88.3732 346.293 88.3599 346.57Z" fill="#263238"/>
<path d="M87.6888 325.49C87.3984 321.983 86.3765 318.577 84.6888 315.49C82.4039 311.24 79.2148 307.543 75.3463 304.66C71.4778 301.776 67.0241 299.776 62.2988 298.8L83.0288 329.69L85.6988 335.2C87.3852 332.26 88.0827 328.856 87.6888 325.49Z" fill="#455A64"/>
<path d="M117.42 386.36H69.2305V394.9H117.42V386.36Z" fill="#349F6E"/>
<path d="M72.8301 393.21L76.9301 419.71H108.92L113.82 393.21H72.8301Z" fill="#349F6E"/>
<path d="M117.39 394.92C117.39 395.01 106.52 395.09 93.1199 395.09C79.7199 395.09 68.8398 395.01 68.8398 394.92C68.8398 394.83 79.7099 394.75 93.1199 394.75C106.53 394.75 117.39 394.82 117.39 394.92Z" fill="#263238"/>
<path d="M233.509 419.64H316.189V355.87H233.509V419.64Z" fill="#349F6E"/>
<path d="M240.519 412.29H246.859V405.12H240.519V412.29Z" fill="#FAFAFA"/>
<g opacity="0.3">
<path d="M290.96 356.03H281.57V369.64H290.96V356.03Z" fill="white"/>
</g>
<g opacity="0.3">
<path d="M290.96 405.84H281.57V419.45H290.96V405.84Z" fill="white"/>
</g>
<path d="M254.149 420.08C253.899 420.08 253.689 406.08 253.689 388.75C253.689 371.42 253.899 357.43 254.149 357.43C254.399 357.43 254.599 371.43 254.599 388.75C254.599 406.07 254.399 420.08 254.149 420.08Z" fill="#263238"/>
<path d="M91.9102 23.9697H86.9902V213.78H91.9102V23.9697Z" fill="#263238"/>
<path d="M100.07 23.9697H95.9004V213.78H100.07V23.9697Z" fill="#263238"/>
<path d="M120.191 23.9697H104.891V180.87H120.191V23.9697Z" fill="#263238"/>
<path d="M127.84 23.9697H124.07V180.87H127.84V23.9697Z" fill="#263238"/>
<path d="M140.231 23.9697H136.461V180.87H140.231V23.9697Z" fill="#263238"/>
<path d="M156.391 23.9697H152.621V180.87H156.391V23.9697Z" fill="#263238"/>
<path d="M169.85 23.9697H166.08V180.87H169.85V23.9697Z" fill="#263238"/>
<path d="M213.77 23.9697H210V180.87H213.77V23.9697Z" fill="#263238"/>
<path d="M282.761 23.9697H274.621V208.09H282.761V23.9697Z" fill="#263238"/>
<path d="M322.34 23.9697H318.57V180.87H322.34V23.9697Z" fill="#263238"/>
<path d="M338.79 23.9697H335.02V180.87H338.79V23.9697Z" fill="#263238"/>
<path d="M356.781 23.7197H347.541V216.84H356.781V23.7197Z" fill="#263238"/>
<path d="M250.071 23.9697H246.301V180.87H250.071V23.9697Z" fill="#263238"/>
<path d="M197.361 23.9697H189.631V180.87H197.361V23.9697Z" fill="#263238"/>
<path d="M229.39 23.9697H221.66V180.87H229.39V23.9697Z" fill="#263238"/>
<path d="M241.589 23.9697H233.859V180.87H241.589V23.9697Z" fill="#263238"/>
<path d="M299.31 23.9697H291.58V180.87H299.31V23.9697Z" fill="#263238"/>
<path d="M310.99 23.9697H303.26V180.87H310.99V23.9697Z" fill="#263238"/>
<path d="M269.44 23.9697H254.91V180.87H269.44V23.9697Z" fill="#263238"/>
<path d="M185.48 23.9697H173.57V180.87H185.48V23.9697Z" fill="#263238"/>
<path d="M121.659 189.45V223.08H118.209V192.53H110.279V189.45H121.659Z" fill="#263238"/>
<path d="M153.821 208.62C154.972 210.063 155.577 211.865 155.531 213.71C155.568 215.543 155.01 217.34 153.941 218.83C152.782 220.363 151.206 221.529 149.401 222.19C147.182 223.014 144.827 223.411 142.461 223.36C138.461 223.36 135.291 222.496 132.951 220.77C131.84 219.966 130.944 218.902 130.34 217.671C129.737 216.44 129.445 215.08 129.491 213.71C129.436 211.863 130.023 210.053 131.151 208.59C132.418 207.092 134.098 206 135.981 205.45C134.407 204.895 133.034 203.881 132.041 202.54C131.125 201.225 130.652 199.652 130.691 198.05C130.653 196.79 130.924 195.54 131.482 194.41C132.04 193.28 132.867 192.305 133.891 191.57C136.409 189.855 139.418 189.009 142.461 189.16C144.585 189.118 146.697 189.488 148.681 190.25C150.328 190.873 151.769 191.943 152.841 193.34C153.837 194.705 154.361 196.359 154.331 198.05C154.368 199.659 153.876 201.236 152.931 202.54C151.912 203.881 150.521 204.893 148.931 205.45C150.836 206.006 152.536 207.108 153.821 208.62ZM149.451 218.62C150.252 218.071 150.902 217.331 151.342 216.466C151.782 215.601 151.999 214.64 151.971 213.67C152 212.704 151.784 211.746 151.343 210.886C150.903 210.025 150.252 209.291 149.451 208.75C147.319 207.569 144.923 206.95 142.486 206.95C140.049 206.95 137.653 207.569 135.521 208.75C134.744 209.319 134.112 210.063 133.676 210.923C133.241 211.782 133.014 212.731 133.014 213.695C133.014 214.658 133.241 215.608 133.676 216.467C134.112 217.326 134.744 218.07 135.521 218.64C137.654 219.827 140.055 220.45 142.496 220.45C144.937 220.45 147.338 219.827 149.471 218.64L149.451 218.62ZM136.361 202.62C138.222 203.687 140.33 204.249 142.476 204.249C144.622 204.249 146.73 203.687 148.591 202.62C149.297 202.134 149.87 201.48 150.26 200.717C150.649 199.954 150.842 199.106 150.821 198.25C150.848 197.373 150.653 196.504 150.255 195.722C149.856 194.941 149.267 194.273 148.541 193.78C146.736 192.611 144.609 192.04 142.461 192.15C140.316 192.032 138.189 192.603 136.391 193.78C135.7 194.291 135.139 194.957 134.752 195.725C134.366 196.493 134.164 197.34 134.164 198.2C134.164 199.059 134.366 199.907 134.752 200.674C135.139 201.442 135.7 202.108 136.391 202.62H136.361Z" fill="#263238"/>
<path d="M181.031 193.56C183.404 196.493 184.591 200.633 184.591 205.98C184.688 209.255 184.031 212.509 182.671 215.49C181.507 217.944 179.633 219.993 177.291 221.37C174.826 222.741 172.041 223.431 169.221 223.37C166.438 223.51 163.67 222.88 161.221 221.55L162.621 218.76C164.595 219.918 166.866 220.471 169.151 220.35C170.777 220.434 172.402 220.162 173.912 219.553C175.422 218.943 176.78 218.01 177.891 216.82C180.001 214.46 181.061 211.05 181.061 206.56C181.061 205.73 181.011 204.82 180.921 203.82C180.09 205.639 178.685 207.135 176.921 208.08C174.987 209.109 172.822 209.629 170.631 209.59C168.598 209.626 166.584 209.198 164.741 208.34C163.1 207.565 161.713 206.341 160.741 204.81C159.76 203.215 159.26 201.371 159.301 199.5C159.267 197.584 159.785 195.699 160.791 194.07C161.791 192.499 163.216 191.243 164.901 190.45C166.737 189.576 168.749 189.138 170.781 189.17C175.261 189.163 178.678 190.626 181.031 193.56ZM175.681 205.689C176.898 205.091 177.933 204.18 178.681 203.05C179.411 201.936 179.794 200.631 179.781 199.3C179.799 198.044 179.452 196.811 178.781 195.75C178.025 194.604 176.971 193.688 175.731 193.1C174.23 192.399 172.587 192.056 170.931 192.1C168.771 192.004 166.653 192.717 164.991 194.1C164.24 194.759 163.645 195.578 163.25 196.496C162.856 197.415 162.672 198.41 162.711 199.41C162.67 200.404 162.853 201.396 163.248 202.31C163.643 203.224 164.238 204.038 164.991 204.69C166.737 206.09 168.936 206.801 171.171 206.689C172.732 206.711 174.276 206.369 175.681 205.689Z" fill="#263238"/>
<path d="M198.81 189.45V223.08H195.35V192.53H187.42V189.45H198.81Z" fill="#263238"/>
<path d="M226.301 205.86C227.403 206.724 228.281 207.84 228.862 209.114C229.443 210.387 229.71 211.782 229.641 213.18C229.675 215.02 229.201 216.833 228.271 218.42C227.296 220.009 225.868 221.269 224.171 222.04C222.056 222.984 219.755 223.435 217.441 223.36C215.11 223.372 212.795 222.976 210.601 222.19C208.654 221.53 206.873 220.455 205.381 219.04L207.071 216.3C208.325 217.544 209.832 218.503 211.491 219.11C213.371 219.841 215.374 220.208 217.391 220.19C219.696 220.339 221.981 219.677 223.851 218.32C224.595 217.722 225.189 216.959 225.587 216.091C225.984 215.223 226.174 214.274 226.141 213.32C226.194 212.3 225.986 211.284 225.536 210.367C225.086 209.45 224.41 208.663 223.571 208.08C221.851 206.9 218.961 206.3 214.901 206.3H207.741L209.501 189.45H227.891V192.53H212.501L211.351 203.24H215.671C220.538 203.24 224.081 204.114 226.301 205.86Z" fill="#263238"/>
<path d="M240.501 221.299C238.382 219.818 236.734 217.76 235.751 215.369C233.471 209.513 233.471 203.015 235.751 197.159C236.737 194.77 238.385 192.713 240.501 191.229C242.565 189.879 244.979 189.16 247.446 189.16C249.913 189.16 252.326 189.879 254.391 191.229C256.507 192.717 258.161 194.773 259.161 197.159C261.468 203.01 261.468 209.519 259.161 215.369C258.164 217.757 256.51 219.814 254.391 221.299C252.324 222.643 249.911 223.359 247.446 223.359C244.98 223.359 242.568 222.643 240.501 221.299ZM252.611 218.559C254.199 217.339 255.406 215.691 256.091 213.809C257.757 208.917 257.757 203.611 256.091 198.719C255.406 196.837 254.199 195.189 252.611 193.969C251.097 192.909 249.294 192.34 247.446 192.34C245.598 192.34 243.794 192.909 242.281 193.969C240.693 195.189 239.485 196.837 238.801 198.719C237.134 203.611 237.134 208.917 238.801 213.809C239.485 215.691 240.693 217.339 242.281 218.559C243.794 219.62 245.598 220.189 247.446 220.189C249.294 220.189 251.097 219.62 252.611 218.559Z" fill="#263238"/>
<path d="M315.021 189.1V191.42L301.641 221.06H298.081L311.231 192.06H294.791V198.06H291.551V189.16L315.021 189.1Z" fill="#263238"/>
<path d="M341.181 218.129V221.059H318.761V218.729L332.051 205.729C333.402 204.494 334.55 203.053 335.451 201.459C336.026 200.335 336.331 199.092 336.341 197.829C336.383 196.994 336.23 196.16 335.893 195.394C335.556 194.629 335.045 193.952 334.401 193.419C332.787 192.272 330.826 191.717 328.851 191.849C325.111 191.849 322.204 193.036 320.131 195.409L317.811 193.409C319.102 191.911 320.739 190.751 322.581 190.029C324.665 189.209 326.89 188.804 329.131 188.839C331.9 188.692 334.635 189.508 336.871 191.149C337.808 191.905 338.555 192.871 339.05 193.969C339.546 195.067 339.775 196.266 339.721 197.469C339.724 199.116 339.348 200.742 338.621 202.219C337.543 204.191 336.14 205.966 334.471 207.469L323.601 218.129H341.181Z" fill="#263238"/>
<path d="M283.611 112.149L263.641 134.699L290.821 145.059L310.971 120.469L283.611 112.149Z" fill="#349F6E"/>
<path d="M310.97 120.47C310.97 120.47 368.65 180.37 368.1 180.74C367.55 181.11 351.1 200.89 351.1 200.89L290.83 145.06L310.97 120.47Z" fill="#349F6E"/>
<path d="M263.641 134.7L321.141 189.98L351.091 200.89L290.821 145.06L263.641 134.7Z" fill="#349F6E"/>
<g opacity="0.3">
<path d="M263.641 134.7L321.141 189.98L351.091 200.89L290.821 145.06L263.641 134.7Z" fill="black"/>
</g>
<g opacity="0.3">
<path d="M283.611 112.149L263.641 134.699L290.821 145.059L310.971 120.469L283.611 112.149Z" fill="white"/>
</g>
<path d="M339.431 149.92C339.431 149.92 346.001 150.17 346.751 150.92C347.501 151.67 353.321 163.46 353.321 163.46L355.321 164.7L355.881 182.24L338.401 183.77L332.501 187.28L326.691 186.76C326.21 186.736 325.753 186.543 325.401 186.216C325.048 185.888 324.821 185.447 324.761 184.97L324.291 181.2C324.291 181.2 326.691 180.64 327.291 182.36L327.511 183.17L330.731 183.41L334.171 180.86L334.401 179.51L323.171 180.26L318.501 176.98C318.501 176.98 320.501 174.49 322.501 175.53C323.03 175.735 323.542 175.982 324.031 176.27L333.411 174.06L315.321 174.24C315.267 173.745 315.321 173.244 315.478 172.771C315.636 172.299 315.893 171.866 316.233 171.501C316.572 171.137 316.986 170.85 317.447 170.66C317.907 170.47 318.403 170.381 318.901 170.4C321.671 170.32 328.701 169.57 328.701 169.57C328.701 169.57 334.091 169.12 334.311 167.33C334.531 165.54 319.121 161.42 318.381 159.47C317.641 157.52 318.521 155.58 322.121 156.7C325.721 157.82 336.031 162.24 338.951 162.02C341.871 161.8 344.491 159.17 344.641 158.02C344.791 156.87 343.141 153.31 343.141 153.31C343.141 153.31 339.151 153.05 339.431 149.92Z" fill="#FFBF9D"/>
<path d="M291.721 114.62C291.461 114.54 283.781 123.27 283.781 123.27L289.681 125.07L297.981 116.52L291.721 114.62Z" fill="white"/>
<path d="M273.9 138.61C273.79 138.51 278.4 133.23 284.2 126.81C290 120.39 294.78 115.27 294.89 115.36C295 115.45 290.38 120.74 284.59 127.16C278.8 133.58 274.01 138.71 273.9 138.61Z" fill="#263238"/>
<path d="M333.771 194.58C333.681 194.69 320.191 182.5 303.661 167.37C287.131 152.24 273.801 139.92 273.901 139.77C274.001 139.62 287.481 151.85 304.011 166.99C320.541 182.13 333.871 194.48 333.771 194.58Z" fill="#263238"/>
<path d="M361.131 119.92L363.721 122.92C363.911 137.55 378.811 157.92 378.811 157.92L386.651 124.75L383.801 112.08L375.251 111.08L371.891 106.59L361.131 119.92Z" fill="#455A64"/>
<path d="M347.93 88.2099C344.84 89.1399 340.29 93.8499 336.33 98.2099C334.44 100.33 335.48 104.02 337.48 106.02L340.05 108.59C340.909 109.449 342.033 109.992 343.24 110.13C344.654 110.281 346.07 109.868 347.18 108.98L348.96 107.55C350.039 106.687 351.41 106.275 352.785 106.4C354.161 106.525 355.435 107.177 356.34 108.22L363.77 116.77C364.255 117.327 364.85 117.778 365.518 118.094C366.186 118.41 366.912 118.584 367.65 118.606C368.388 118.628 369.123 118.496 369.808 118.22C370.493 117.943 371.114 117.528 371.63 117C372.547 116.063 373.087 114.822 373.148 113.513C373.209 112.204 372.786 110.918 371.96 109.9L355.37 89.5C354.937 88.9553 354.395 88.5059 353.78 88.1799C352.61 87.5399 350.82 87.3499 347.93 88.2099Z" fill="#349F6E"/>
<path d="M347.361 108.92C348.179 109.589 349.064 110.173 350.001 110.66C350.001 110.66 348.531 112.73 349.941 114.14C350.878 115.015 352.062 115.58 353.331 115.76C353.277 116.589 353.526 117.409 354.032 118.068C354.538 118.727 355.266 119.179 356.081 119.34C359.081 120.05 367.431 118.83 367.731 118.06C368.031 117.29 368.731 115.22 366.811 114.75C365.31 114.445 363.783 114.291 362.251 114.29C362.251 114.29 366.251 112.82 363.861 109.65C362.791 108.19 357.961 109.65 357.961 109.65L354.351 110.06C354.351 110.06 357.651 107.73 355.081 105.39C354.894 105.177 354.663 105.007 354.404 104.89C354.146 104.773 353.865 104.713 353.581 104.713C353.298 104.713 353.017 104.773 352.758 104.89C352.5 105.007 352.269 105.177 352.081 105.39L347.361 108.92Z" fill="#FFBF9D"/>
<path d="M362 102.99C362 102.99 359.08 102.61 359.75 100.82C360.741 98.7256 362.057 96.8017 363.65 95.1198C364.02 94.663 364.515 94.3247 365.075 94.147C365.635 93.9692 366.235 93.9598 366.8 94.1198C367.69 94.4898 370.8 96.8098 371.29 99.5098C371.78 102.21 372.29 105.35 371.89 106.62C371.652 107.311 371.354 107.98 371 108.62L365.86 102.29C365.86 102.29 363.23 103.34 362 102.99Z" fill="#FFBF9D"/>
<path d="M351.191 106.01C351.282 105.469 351.429 104.939 351.631 104.43V104.48C351.611 103.908 351.438 103.352 351.131 102.87C350.654 102.275 350.132 101.716 349.571 101.2L345.501 97.0596C344.969 96.5776 344.318 96.2451 343.616 96.0958C342.913 95.9465 342.184 95.9857 341.501 96.2096C340.905 96.4088 340.354 96.725 339.881 97.1396L338.501 98.1996L336.581 99.7696C336.121 100.14 335.901 100.35 335.881 100.34C335.861 100.33 336.691 99.3396 338.271 97.9196C338.661 97.5696 339.101 97.1896 339.581 96.7996C340.091 96.3575 340.682 96.018 341.321 95.7996C342.082 95.5439 342.897 95.4953 343.682 95.6587C344.468 95.8222 345.196 96.1918 345.791 96.7296C347.311 98.2596 348.671 99.7296 349.851 100.94C350.424 101.488 350.946 102.087 351.411 102.73C351.723 103.277 351.879 103.9 351.861 104.53V104.58C351.694 105.081 351.469 105.561 351.191 106.01Z" fill="#263238"/>
<path d="M357.792 99.4297C357.16 100.541 356.333 101.53 355.352 102.35C354.499 103.295 353.483 104.077 352.352 104.66C353.155 103.687 354.045 102.79 355.012 101.98C355.855 101.043 356.786 100.189 357.792 99.4297Z" fill="#263238"/>
<path d="M355.681 109.8C354.796 110.208 353.843 110.449 352.871 110.51C351.923 110.745 350.941 110.809 349.971 110.7C350.862 110.301 351.817 110.064 352.791 110C353.735 109.766 354.713 109.698 355.681 109.8Z" fill="#FF9A6C"/>
<path d="M363.14 114C361.651 114.822 360.024 115.364 358.34 115.6C356.704 115.998 355.01 116.093 353.34 115.88C353.34 115.73 355.58 115.62 358.29 115.09C361 114.56 363.08 113.85 363.14 114Z" fill="#FF9A6C"/>
<path d="M368.161 98.21C368.27 99.1513 368.035 100.1 367.501 100.882C366.966 101.665 366.168 102.228 365.251 102.47C365.181 102.33 366.251 101.79 367.071 100.59C367.493 99.8247 367.857 99.0291 368.161 98.21Z" fill="#FF9A6C"/>
<path d="M337.75 102.47C337.75 102.47 341.55 107.8 343.24 107.9C344.44 107.97 346.24 105.9 347.24 104.58C347.432 104.328 347.524 104.015 347.5 103.7C347.476 103.385 347.337 103.089 347.11 102.87L343 98.8696L342 98.6196L337.75 102.47Z" fill="#263238"/>
<g opacity="0.6">
<path d="M337.95 102.31L312.9 122.47L336.27 146.83L347.36 104.32C347.463 104.106 347.502 103.867 347.474 103.631C347.445 103.396 347.351 103.173 347.2 102.99L342.97 98.8896L341.97 98.6396L337.9 102.31H337.95Z" fill="white"/>
</g>
<path d="M431.501 34.9197L428.741 81.3897C428.261 89.2897 425.961 100.81 413.501 99.4897C402.771 97.4897 400.641 87.0997 401.091 79.7197C401.301 76.2197 401.471 73.3097 401.471 72.9497C401.471 72.9497 389.701 71.1297 389.541 59.3697C389.471 53.6797 390.271 41.9597 391.111 31.3697C391.551 25.8837 394.04 20.7645 398.084 17.0306C402.127 13.2968 407.428 11.2222 412.931 11.2197H414.071C426.341 11.9197 432.581 22.7397 431.501 34.9197Z" fill="#FFBF9D"/>
<path d="M401.5 72.9899C406.93 72.9655 412.239 71.3866 416.8 68.4399C416.8 68.4399 413.08 77.0399 401.34 75.9899L401.5 72.9899Z" fill="#FF9A6C"/>
<path d="M410.79 37.6398C411 37.8898 412.43 36.8998 414.39 36.9898C416.35 37.0798 417.75 38.1497 417.97 37.9097C418.19 37.6697 417.87 37.3597 417.27 36.9097C416.446 36.2827 415.445 35.9326 414.41 35.9097C413.386 35.8603 412.374 36.1484 411.53 36.7297C410.91 37.0897 410.68 37.5298 410.79 37.6398Z" fill="#263238"/>
<path d="M410.01 43.3296C410.011 43.7339 410.166 44.1225 410.442 44.4175C410.719 44.7124 411.096 44.8918 411.5 44.9196C411.702 44.9346 411.906 44.909 412.099 44.8444C412.291 44.7798 412.469 44.6775 412.622 44.5435C412.774 44.4094 412.899 44.2463 412.988 44.0637C413.077 43.881 413.128 43.6825 413.14 43.4796C413.143 43.0664 412.985 42.6683 412.699 42.3696C412.413 42.071 412.023 41.8952 411.61 41.8796C411.409 41.8689 411.209 41.8979 411.019 41.9651C410.83 42.0323 410.656 42.1363 410.508 42.2711C410.359 42.406 410.238 42.5689 410.153 42.7506C410.067 42.9323 410.019 43.1291 410.01 43.3296Z" fill="#263238"/>
<path d="M404.901 50.9196C403.951 50.6203 402.967 50.4422 401.971 50.3896C401.501 50.3896 401.071 50.2596 400.971 49.9396C400.93 49.4618 401.038 48.983 401.281 48.5696C401.711 47.4496 402.161 46.2796 402.641 45.0596C404.531 40.0596 405.901 35.9396 405.641 35.8596C405.381 35.7796 403.741 39.7796 401.851 44.7896C401.401 46.0196 400.961 47.1996 400.551 48.3296C400.266 48.8875 400.181 49.5266 400.311 50.1396C400.381 50.3003 400.485 50.4437 400.617 50.5595C400.748 50.6753 400.903 50.7607 401.071 50.8096C401.329 50.8812 401.594 50.9182 401.861 50.9196C402.87 51.0524 403.892 51.0524 404.901 50.9196Z" fill="#263238"/>
<path d="M410.761 31.4397C410.961 31.8697 412.531 31.4997 414.411 31.5397C416.291 31.5797 417.851 31.9597 418.061 31.5397C418.151 31.3397 417.851 30.9497 417.201 30.5397C416.346 30.0818 415.391 29.8414 414.421 29.8397C413.458 29.8125 412.502 30.0256 411.641 30.4597C410.981 30.8497 410.671 31.2297 410.761 31.4397Z" fill="#E0E0E0"/>
<path d="M392.951 32.1698C393.131 32.5298 394.691 32.2498 396.551 32.3298C398.411 32.4098 399.921 32.7498 400.141 32.3998C400.241 32.2298 399.961 31.8898 399.331 31.5598C398.489 31.1494 397.568 30.9275 396.631 30.9098C395.685 30.868 394.741 31.0283 393.861 31.3798C393.201 31.6698 392.871 31.9898 392.951 32.1698Z" fill="#E0E0E0"/>
<path d="M430.591 43.6599C430.791 43.5799 438.671 41.2699 438.421 49.3099C438.171 57.3499 430.151 55.4399 430.141 55.2099C430.131 54.9799 430.591 43.6599 430.591 43.6599Z" fill="#FFBF9D"/>
<path d="M432.691 52.2398C432.691 52.2398 432.831 52.3398 433.061 52.4598C433.398 52.5909 433.773 52.5909 434.111 52.4598C434.971 52.1698 435.731 50.8498 435.811 49.3998C435.847 48.7171 435.734 48.0347 435.481 47.3998C435.415 47.1484 435.289 46.9165 435.115 46.7234C434.941 46.5304 434.724 46.3817 434.481 46.2898C434.321 46.2452 434.15 46.2566 433.997 46.3221C433.845 46.3875 433.719 46.5031 433.641 46.6498C433.531 46.8698 433.571 47.0398 433.531 47.0498C433.491 47.0598 433.361 46.9098 433.441 46.5798C433.491 46.3833 433.608 46.2102 433.771 46.0898C433.983 45.9406 434.245 45.8796 434.501 45.9198C434.828 45.9995 435.129 46.1604 435.377 46.3877C435.626 46.6149 435.813 46.9011 435.921 47.2198C436.244 47.9237 436.388 48.6966 436.341 49.4698C436.241 51.0898 435.341 52.5798 434.191 52.8798C433.974 52.937 433.747 52.9443 433.527 52.901C433.307 52.8577 433.1 52.7649 432.921 52.6298C432.701 52.4298 432.671 52.2498 432.691 52.2398Z" fill="#FF9A6C"/>
<path d="M442.191 31.4498C440.721 28.4498 440.571 25.0998 439.891 21.8798C439.211 18.6598 437.681 15.2698 434.661 13.9398H434.591C431.901 12.6198 428.471 12.3598 426.051 14.1198C425.791 9.90978 422.371 6.34978 418.381 4.98978C414.391 3.62978 407.821 3.79978 403.811 5.08978C400.711 6.08978 397.611 8.35978 393.811 11.7598C392.202 13.1883 390.714 14.7469 389.361 16.4198L385.031 27.1198L387.651 33.0598C387.8 33.4718 387.97 33.8757 388.161 34.2698L390.021 46.5398C390.431 43.2598 391.021 31.7898 391.421 28.5398C393.902 28.642 396.378 28.2431 398.701 27.3668C401.024 26.4905 403.146 25.1549 404.941 23.4398C406.881 21.5698 408.471 19.1798 410.941 18.1598C414.151 16.8498 417.771 18.2398 420.941 19.6098L420.811 19.4698C422.461 20.384 423.921 21.606 425.111 23.0698C423.907 29.5197 424.105 36.1531 425.691 42.5198C425.931 43.5198 426.631 45.4598 427.521 45.8798C429.271 46.6998 429.891 44.8798 431.041 44.0098C432.044 43.419 433.229 43.2162 434.371 43.4398C435.468 40.7788 436.403 38.0538 437.171 35.2798C438.237 35.6934 439.383 35.8542 440.521 35.7498C440.241 34.8898 439.951 34.0398 439.671 33.1898C440.076 33.5382 440.55 33.7972 441.061 33.9498C441.319 34.0189 441.592 34.0081 441.844 33.9188C442.096 33.8295 442.314 33.666 442.471 33.4498C442.861 32.8098 442.501 32.0698 442.191 31.4498Z" fill="#E0E0E0"/>
<path d="M422.281 15.23C422.673 15.5893 423.037 15.977 423.371 16.39C424.216 17.5691 424.74 18.9475 424.891 20.39C425.021 21.3846 425.048 22.3899 424.971 23.39C424.901 24.47 424.731 25.61 424.561 26.82C424.356 28.0872 424.236 29.3667 424.201 30.65C424.19 31.3184 424.227 31.9868 424.311 32.65C424.367 33.3645 424.605 34.0529 425.001 34.65C425.186 34.8945 425.433 35.086 425.715 35.2054C425.998 35.3247 426.307 35.3677 426.611 35.33C427.191 35.2629 427.732 35.0062 428.151 34.6C428.852 33.7722 429.315 32.77 429.491 31.7H429.251C429.531 32.6352 429.953 33.5221 430.501 34.33C431.027 35.0582 431.81 35.5588 432.691 35.73C433.101 35.8016 433.523 35.7601 433.911 35.61C434.272 35.4521 434.578 35.1912 434.791 34.86C434.979 34.5584 435.089 34.2147 435.111 33.86C435.116 33.5208 435.007 33.19 434.801 32.92L434.671 33.03C435.307 33.8764 436.115 34.5785 437.041 35.09C437.286 35.2281 437.54 35.3484 437.801 35.45C437.886 35.4927 437.977 35.523 438.071 35.54C438.071 35.54 437.991 35.54 437.821 35.41C437.651 35.28 437.401 35.2 437.091 35.01C436.19 34.4776 435.407 33.7663 434.791 32.92L434.661 33.02C434.834 33.2797 434.921 33.5864 434.912 33.8979C434.903 34.2094 434.798 34.5106 434.611 34.76C434.42 35.0538 434.144 35.2836 433.821 35.42C433.468 35.5578 433.083 35.5925 432.711 35.52C431.898 35.3512 431.181 34.8747 430.711 34.19C430.191 33.4234 429.787 32.5844 429.511 31.7L429.371 31.31L429.261 31.71C429.085 32.7268 428.644 33.679 427.981 34.47C427.607 34.8371 427.122 35.0693 426.601 35.13C426.343 35.1609 426.081 35.1247 425.841 35.0249C425.601 34.925 425.391 34.7649 425.231 34.56C424.868 33.9881 424.652 33.3355 424.601 32.66C424.517 31.9967 424.477 31.3286 424.481 30.66C424.524 29.3909 424.641 28.1254 424.831 26.87C424.991 25.66 425.151 24.51 425.221 23.41C425.283 22.4085 425.243 21.4034 425.101 20.41C424.923 18.9572 424.364 17.5774 423.481 16.41C423.155 15.9479 422.749 15.5482 422.281 15.23Z" fill="white"/>
<path d="M385.281 24L385.371 24.09L385.651 24.32C385.796 24.4525 385.953 24.5697 386.121 24.67C386.344 24.8254 386.574 24.9689 386.811 25.1C388.329 25.921 390.026 26.3539 391.751 26.36C394.317 26.3752 396.832 25.6457 398.991 24.26C401.603 22.5456 403.839 20.3169 405.561 17.71C406.511 16.36 407.311 14.96 408.171 13.71C408.957 12.4515 409.924 11.316 411.041 10.34C412.041 9.45358 413.248 8.83438 414.551 8.54001C415.139 8.41459 415.744 8.38756 416.341 8.46001C416.895 8.53072 417.436 8.67534 417.951 8.89001C418.835 9.2668 419.629 9.82562 420.281 10.53C420.773 11.0672 421.178 11.6779 421.481 12.34C421.71 12.9189 421.868 13.5233 421.951 14.14C421.951 14.14 421.951 14.09 421.951 14.01C421.959 13.8901 421.959 13.7699 421.951 13.65C421.895 13.1876 421.78 12.7341 421.611 12.3C420.923 10.6949 419.651 9.41149 418.051 8.71001C417.524 8.48401 416.969 8.32931 416.401 8.25001C415.782 8.17555 415.155 8.19578 414.541 8.31001C413.196 8.6109 411.945 9.23952 410.901 10.14C409.771 11.139 408.785 12.2899 407.971 13.56C407.101 14.86 406.311 16.25 405.361 17.56C403.665 20.1411 401.465 22.3522 398.891 24.06C396.771 25.4273 394.304 26.1626 391.781 26.18C390.082 26.1855 388.407 25.788 386.891 25.02C386.337 24.708 385.8 24.3676 385.281 24Z" fill="white"/>
<path d="M392.881 37.0899C393.101 37.3499 394.521 36.3599 396.491 36.4399C398.461 36.5199 399.841 37.5999 400.071 37.3599C400.301 37.1199 399.961 36.8099 399.361 36.3599C398.54 35.7348 397.542 35.3849 396.511 35.3599C395.484 35.3105 394.469 35.5985 393.621 36.1799C393.001 36.5499 392.781 36.9799 392.881 37.0899Z" fill="#263238"/>
<path d="M394.01 42.9197C394.004 43.3336 394.162 43.7332 394.448 44.0324C394.734 44.3316 395.126 44.5066 395.54 44.5197C395.742 44.5374 395.946 44.5141 396.139 44.4512C396.332 44.3883 396.511 44.287 396.664 44.1535C396.817 44.02 396.942 43.857 397.03 43.6742C397.119 43.4914 397.17 43.2926 397.18 43.0897C397.185 42.6757 397.028 42.2761 396.742 41.9769C396.456 41.6777 396.064 41.5027 395.65 41.4897C395.448 41.4719 395.244 41.4952 395.05 41.5581C394.857 41.621 394.679 41.7223 394.526 41.8558C394.373 41.9893 394.248 42.1523 394.159 42.3351C394.071 42.5179 394.02 42.7167 394.01 42.9197Z" fill="#263238"/>
<path d="M390.431 15.1699C389.361 16.4299 387.761 17.5399 386.131 17.2599C385.543 17.0985 384.968 16.8947 384.411 16.6499C383.821 16.9599 383.841 18.9299 384.201 19.4999C384.546 19.9781 384.93 20.4264 385.351 20.8399C383.351 21.7599 381.651 21.1499 379.641 20.2799C379.739 22.041 380.298 23.7455 381.261 25.2231C382.225 26.7006 383.559 27.8995 385.131 28.6999C385.611 28.9933 386.154 29.169 386.716 29.2124C387.277 29.2559 387.841 29.1659 388.361 28.9499C389.163 28.3589 389.722 27.4945 389.931 26.5199C391.061 23.0592 391.76 19.472 392.011 15.8399L390.431 15.1699Z" fill="#E0E0E0"/>
<path d="M404.221 57.4497C404.221 57.5097 404.661 57.6997 405.431 57.6997C406.451 57.6817 407.438 57.3305 408.241 56.6997C409.043 56.0718 409.622 55.2022 409.891 54.2197C410.081 53.4697 410.001 52.9897 409.891 52.9797C409.781 52.9697 409.741 53.4297 409.471 54.0897C409.123 54.9359 408.566 55.6794 407.851 56.2497C407.12 56.7907 406.263 57.135 405.361 57.2497C404.701 57.3997 404.241 57.3597 404.221 57.4497Z" fill="#263238"/>
<path d="M395.41 374.799L402.41 399.509C402.41 399.509 380.23 415.059 381.08 419.759L428.33 407.649L419.03 368.649L395.41 374.799Z" fill="#455A64"/>
<path d="M416.5 393.67C416.996 393.699 417.463 393.912 417.81 394.267C418.158 394.622 418.361 395.094 418.38 395.59C418.378 396.092 418.18 396.575 417.83 396.935C417.479 397.295 417.002 397.504 416.5 397.52C415.98 397.489 415.489 397.268 415.12 396.9C414.752 396.531 414.531 396.04 414.5 395.52C414.59 394.52 415.68 393.52 416.63 393.73" fill="#E0E0E0"/>
<path d="M428.301 407.65L427.211 403.76L382.321 416.83C382.321 416.83 380.441 418.3 381.051 419.76L428.301 407.65Z" fill="#263238"/>
<path d="M402.191 399.64C402.251 399.87 403.431 399.64 404.751 400.15C406.071 400.66 406.921 401.46 407.111 401.31C407.301 401.16 406.621 399.88 405.021 399.31C403.421 398.74 402.091 399.43 402.191 399.64Z" fill="#263238"/>
<path d="M397.931 403.15C397.931 403.39 399.031 403.54 400.061 404.33C401.091 405.12 401.571 406.13 401.801 406.06C402.031 405.99 401.851 404.62 400.551 403.65C399.251 402.68 397.881 402.92 397.931 403.15Z" fill="#263238"/>
<path d="M396.26 410C396.48 410 396.51 408.73 395.61 407.59C394.71 406.45 393.49 406.21 393.44 406.43C393.39 406.65 394.23 407.17 394.96 408.12C395.69 409.07 396.02 410.03 396.26 410Z" fill="#263238"/>
<path d="M400.571 393.65C400.721 393.84 401.701 393.25 403.031 393C404.361 392.75 405.471 392.92 405.541 392.69C405.611 392.46 404.431 391.86 402.871 392.17C401.311 392.48 400.411 393.5 400.571 393.65Z" fill="#263238"/>
<path d="M411.101 376.43L411.841 403.43C411.841 403.43 385.381 414.82 384.961 419.76L437.411 419.34L437.301 376.14L411.101 376.43Z" fill="#455A64"/>
<path d="M428.501 401.639C429.012 401.799 429.447 402.141 429.723 402.6C430 403.058 430.098 403.603 430.001 404.129C429.879 404.648 429.561 405.099 429.113 405.388C428.666 405.677 428.123 405.781 427.601 405.679C427.059 405.506 426.6 405.141 426.309 404.653C426.018 404.165 425.916 403.588 426.021 403.029C426.205 402.504 426.588 402.072 427.087 401.825C427.586 401.578 428.161 401.537 428.691 401.709" fill="#E0E0E0"/>
<path d="M437.431 419.76L437.241 414.99L387.011 416.99C387.011 416.99 384.681 418.05 384.961 419.73L437.431 419.76Z" fill="#263238"/>
<path d="M412.341 404.08C412.341 404.34 413.641 404.45 414.901 405.28C416.161 406.11 416.901 407.22 417.091 407.11C417.281 407 416.931 405.49 415.381 404.51C413.831 403.53 412.291 403.84 412.341 404.08Z" fill="#263238"/>
<path d="M406.561 406.48C406.501 406.74 407.611 407.17 408.491 408.28C409.371 409.39 409.631 410.55 409.891 410.54C410.151 410.53 410.291 409.04 409.171 407.69C408.051 406.34 406.561 406.23 406.561 406.48Z" fill="#263238"/>
<path d="M403.331 413.37C403.561 413.43 403.911 412.11 403.241 410.68C402.571 409.25 401.371 408.68 401.241 408.91C401.111 409.14 401.881 409.91 402.421 411.07C402.961 412.23 403.081 413.35 403.331 413.37Z" fill="#263238"/>
<path d="M411.851 397.5C411.961 397.73 413.131 397.36 414.581 397.45C416.031 397.54 417.161 398 417.291 397.77C417.421 397.54 416.291 396.62 414.621 396.54C412.951 396.46 411.721 397.29 411.851 397.5Z" fill="#263238"/>
<path d="M439.26 194.58L440.98 207.05C441.525 211.098 441.525 215.202 440.98 219.25L439.84 227.92C439.84 227.92 437.51 292.39 437.4 290.03C437.4 290.03 438.65 337.3 439.6 347.33C441.31 365.57 439.77 399.07 439.77 399.07H409.94L399.2 293.13L392.53 227.13L380.93 197.08L439.26 194.58Z" fill="#263238"/>
<path d="M369.041 197.59L369.371 210.2L371.171 301.91C371.412 306.215 372.25 310.465 373.661 314.54L398.091 384.98L399.481 389.81L417.421 385.36L404.081 195.85L369.041 197.59Z" fill="#263238"/>
<path d="M392.61 227.92C392.599 228.07 392.599 228.22 392.61 228.37C392.61 228.69 392.61 229.12 392.61 229.67C392.61 230.85 392.69 232.53 392.76 234.67C392.88 239.02 393.18 245.32 393.61 253.09C394.52 268.64 396.21 290.09 398.85 313.72C401.49 337.35 404.3 358.72 406.4 374.1L408.92 392.36C409.23 394.49 409.47 396.16 409.64 397.36C409.72 397.91 409.79 398.36 409.84 398.65C409.852 398.799 409.879 398.946 409.92 399.09C409.934 398.94 409.934 398.79 409.92 398.64C409.92 398.32 409.84 397.89 409.78 397.35C409.64 396.18 409.43 394.51 409.17 392.35L406.82 374.06C404.82 358.62 402.03 337.29 399.43 313.67C396.83 290.05 395.05 268.67 394.04 253.09C393.56 245.32 393.19 239.03 393.04 234.68C392.93 232.53 392.85 230.84 392.79 229.68C392.79 229.13 392.73 228.68 392.71 228.37C392.693 228.217 392.659 228.066 392.61 227.92Z" fill="#455A64"/>
<path d="M411.841 399.12C411.909 399.496 411.939 399.878 411.931 400.26C411.931 401.1 411.931 402.15 412.011 403.43H411.671C411.667 403.463 411.672 403.497 411.686 403.527C411.7 403.557 411.723 403.583 411.751 403.6C411.821 403.6 411.851 403.6 411.841 403.6H411.781L411.641 403.66L411.361 403.79L410.761 404.09L409.481 404.74L406.571 406.23L399.721 409.78C395.321 412.11 391.201 413.99 388.621 415.95C387.576 416.685 386.646 417.571 385.861 418.58C385.582 418.954 385.357 419.364 385.191 419.8C385.207 419.311 385.383 418.84 385.691 418.46C386.436 417.388 387.347 416.443 388.391 415.66C390.981 413.58 395.091 411.66 399.481 409.31C401.931 408.04 404.271 406.86 406.361 405.81L409.291 404.37L410.601 403.75L411.211 403.47L411.501 403.34L411.651 403.28H411.731H411.841C411.841 403.28 411.841 403.28 411.941 403.28C411.971 403.296 411.995 403.322 412.009 403.352C412.023 403.383 412.028 403.417 412.021 403.45L411.661 404.45V403.39C411.661 402.11 411.721 401.06 411.741 400.22C411.739 399.851 411.773 399.483 411.841 399.12Z" fill="#263238"/>
<g opacity="0.3">
<path d="M369.5 215.24C369.5 215.24 379.26 220.51 397.5 222.59C423.63 225.59 441.36 211.87 441.36 211.87L439.99 200.01L369.5 204.66V215.24Z" fill="black"/>
</g>
<path d="M442.501 88.7596C451.381 101.15 447.631 131.57 447.631 131.57L443.501 195.07V202.59C443.501 202.59 443.821 208.77 421.401 216.24C398.981 223.71 365.871 210.64 365.871 210.64C365.871 210.64 371.951 164.3 376.411 138.58C376.991 135.246 377.578 132.11 378.171 129.17C381.67 111.755 389.985 95.6723 402.171 82.7496L402.371 82.5296L429.581 76.1196C434.514 79.6418 438.872 83.9055 442.501 88.7596Z" fill="#349F6E"/>
<path d="M366.81 203.46C366.81 203.46 389.15 214.46 409.12 211.82C421.462 210.046 433.227 205.446 443.5 198.38V205.38C443.5 205.38 427.69 218.59 405.91 218.58C392.207 218.395 378.652 215.715 365.91 210.67L366.81 203.46Z" fill="#E0E0E0"/>
<path d="M374.351 151.09L446.051 156.03L444.971 173.05L372.191 165.29L374.351 151.09Z" fill="#E0E0E0"/>
<g opacity="0.3">
<path d="M368.68 189.81C368.68 189.81 375.05 194.6 389.28 192.01C403.51 189.42 426.14 186.19 431.1 181.88C436.139 177.331 439.183 170.979 439.57 164.2C440.15 157.08 438.57 123.4 438.57 123.4L415.57 164.4L369.98 180.57L368.68 189.81Z" fill="black"/>
</g>
<path d="M425.572 82.5298C432.462 82.5298 439.822 93.6698 440.572 100.21C441.322 106.75 438.672 159.5 437.572 165.5C435.422 177.58 425.502 179.72 425.502 179.72C425.502 179.72 401.682 186.59 385.652 187.85C376.202 188.645 366.716 186.814 358.242 182.56L354.352 182.81L355.352 162.75L359.352 163.42L403.352 152.66C403.352 152.66 400.542 107.57 400.792 106.82C400.772 106.82 403.032 82.5398 425.572 82.5298Z" fill="#455A64"/>
<path d="M361.66 162.86C361.852 162.772 362.053 162.704 362.26 162.66L364 162.19L370.45 160.54L391.77 155.28L403.27 152.42H403.4L403.49 152.51C404.49 153.51 405.49 154.39 406.49 155.24C407.421 156.036 408.399 156.774 409.42 157.45C411.115 158.593 412.666 159.936 414.04 161.45C414.912 162.455 415.673 163.552 416.31 164.72C416.52 165.13 416.67 165.45 416.77 165.67C416.87 165.89 416.91 166.01 416.89 166.01C416.87 166.01 416.64 165.58 416.17 164.8C415.493 163.675 414.706 162.62 413.82 161.65C412.427 160.196 410.874 158.904 409.19 157.8C408.146 157.129 407.144 156.394 406.19 155.6C405.19 154.75 404.19 153.84 403.19 152.88L403.42 152.94L391.92 155.83L370.5 160.92L364.01 162.41L362.24 162.79C362.05 162.833 361.855 162.856 361.66 162.86Z" fill="#263238"/>
<path d="M423.44 80.9198C421.79 80.7098 395.89 90.5898 392.76 118.84C391.76 127.62 392.76 146.99 403.76 150.09C414.76 153.19 436.76 143.67 436.76 143.67C436.76 143.67 447 106.56 444.69 99.8798C442.38 93.1998 432.92 82.0898 423.44 80.9198Z" fill="#455A64"/>
<path d="M404.321 105.229C404.349 105.392 404.349 105.557 404.321 105.719C404.321 106.089 404.321 106.549 404.321 107.099C404.261 108.379 404.181 110.099 404.091 112.179C403.901 116.459 403.661 122.389 403.531 128.929C403.401 135.469 403.401 141.409 403.411 145.699V150.789C403.411 151.339 403.411 151.789 403.411 152.169C403.427 152.332 403.427 152.497 403.411 152.66C403.364 152.5 403.341 152.335 403.341 152.169C403.341 151.799 403.341 151.339 403.271 150.789C403.211 149.589 403.151 147.859 403.101 145.709C403.001 141.419 402.951 135.479 403.101 128.919C403.251 122.359 403.521 116.44 403.811 112.16C403.961 110.01 404.091 108.279 404.211 107.079C404.211 106.539 404.311 106.079 404.351 105.709C404.326 105.551 404.316 105.39 404.321 105.229Z" fill="#263238"/>
<g opacity="0.3">
<path d="M397.5 131.429C397.16 141.999 403.14 152.699 403.14 152.699L404.14 108.199C399.77 111.819 397.8 122.679 397.5 131.429Z" fill="black"/>
</g>
<path d="M423.12 78.5698C410.41 81.1198 397.81 91.8298 389.6 105.23C381.39 118.63 378.9 154.32 378.9 154.32L387.13 154.59C387.13 154.59 383.64 134.43 392.47 109.59C401.3 84.7498 423.19 80.3198 423.19 80.3198L423.12 78.5698Z" fill="#E0E0E0"/>
<path d="M440.571 100.21C440.609 100.391 440.626 100.575 440.621 100.76C440.621 101.18 440.621 101.7 440.621 102.34C440.621 103.71 440.621 105.69 440.621 108.14C440.541 113.03 440.241 119.79 439.811 127.24C439.381 134.69 439.031 141.44 438.861 146.33C438.781 148.72 438.721 150.68 438.671 152.12C438.671 152.75 438.671 153.27 438.611 153.69C438.616 153.875 438.599 154.059 438.561 154.24C438.517 154.06 438.5 153.875 438.511 153.69C438.511 153.27 438.511 152.75 438.511 152.12C438.511 150.75 438.511 148.77 438.511 146.32C438.581 141.42 438.881 134.67 439.311 127.21C439.741 119.75 440.101 113.01 440.311 108.13C440.391 105.74 440.451 103.78 440.491 102.34C440.491 101.7 440.541 101.18 440.551 100.76C440.532 100.577 440.539 100.391 440.571 100.21Z" fill="#263238"/>
<path d="M429.582 86.8297C428.311 86.3375 427.012 85.9234 425.692 85.5897C422.497 84.8585 419.159 85.0607 416.076 86.1723C412.993 87.2839 410.295 89.258 408.302 91.8597C407.502 92.9595 406.768 94.1048 406.102 95.2897C406.182 94.9405 406.31 94.604 406.482 94.2897C406.896 93.3692 407.405 92.4944 408.002 91.6797C409.973 88.9424 412.726 86.8654 415.899 85.7214C419.072 84.5774 422.517 84.42 425.782 85.2697C426.76 85.5044 427.712 85.8395 428.622 86.2697C428.966 86.41 429.29 86.5985 429.582 86.8297Z" fill="#263238"/>
<path d="M399.031 80.27L430.361 72.1899L430.861 77.0499L418.721 78.9299L396.551 89.2799L399.031 80.27Z" fill="#455A64"/>
<path d="M423.321 80.2696C423.321 80.2696 443.581 84.0895 446.961 100.21C446.961 100.21 445.741 91.5296 441.211 87.0496C432.091 78.0496 423.121 78.5695 423.121 78.5695L423.321 80.2696Z" fill="#E0E0E0"/>
<path d="M423.062 78.1396C423.202 78.1396 423.372 78.6996 423.452 79.4596C423.532 80.2196 423.452 80.8297 423.322 80.8297C423.192 80.8297 423.002 80.2396 422.932 79.5096C422.862 78.7796 422.912 78.1596 423.062 78.1396Z" fill="#263238"/>
</g>
<defs>
<clipPath id="clip0_3753_887">
<rect width="500" height="419" fill="white" transform="translate(0.5 0.919922)"/>
</clipPath>
</defs>
</svg>
