<svg width="409" height="418" viewBox="0 0 409 418" fill="none" xmlns="http://www.w3.org/2000/svg">
<path d="M291.835 208.072C291.183 208.56 290.454 208.936 289.678 209.184C287.545 209.921 285.221 209.892 283.107 209.101C281.642 208.566 280.325 207.692 279.262 206.551C278.039 205.233 277.193 203.61 276.812 201.853C276.598 200.907 276.53 199.934 276.612 198.968C276.681 197.958 276.91 196.965 277.289 196.026C278.078 194.031 279.485 192.342 281.304 191.207C283.123 190.071 285.258 189.547 287.396 189.714C289.384 189.87 291.28 190.612 292.847 191.846C294.258 192.96 295.343 194.432 295.99 196.109C296.551 197.564 296.76 199.131 296.6 200.682C296.377 202.93 295.381 205.03 293.783 206.626C293.218 207.213 292.56 207.701 291.835 208.072C292.464 207.581 293.064 207.053 293.633 206.492C295.124 204.887 296.031 202.825 296.207 200.64C296.339 199.155 296.118 197.66 295.564 196.276C294.93 194.689 293.886 193.298 292.537 192.247C291.815 191.68 291.012 191.224 290.155 190.893C289.264 190.534 288.321 190.322 287.363 190.266C285.343 190.112 283.327 190.608 281.608 191.68C279.889 192.752 278.558 194.345 277.807 196.226C277.445 197.114 277.225 198.054 277.155 199.01C277.071 199.925 277.127 200.847 277.322 201.744C277.65 203.31 278.364 204.77 279.399 205.99C280.435 207.21 281.758 208.153 283.249 208.733C285.286 209.525 287.529 209.611 289.62 208.975C291.125 208.516 291.802 208.014 291.835 208.072Z" fill="#E0E0E0"/>
<path d="M293.635 221.071L293.885 221.297L294.638 222.024L297.581 224.925H297.472L305.196 220.035L305.138 220.202C304.578 218.63 303.959 216.858 303.299 214.994V214.902L303.366 214.826C304.719 213.381 305.869 211.758 306.785 210.003L306.835 209.902H312.478L312.277 210.053C312.921 207.252 313.607 204.268 314.317 201.141L314.434 201.392L309.46 199.001L309.335 198.942V198.8C309.271 196.815 308.942 194.847 308.357 192.948L308.315 192.806L308.415 192.706C309.636 191.502 310.973 190.198 312.336 188.81V189.128L307.387 181.412L307.696 181.52L302.488 183.343L302.329 183.393L302.212 183.284C300.773 181.938 299.162 180.788 297.422 179.865L297.271 179.79V179.622C297.271 177.892 297.271 176.011 297.271 174.097L297.489 174.372L288.619 172.324L288.936 172.174L286.529 177.19L286.462 177.34H286.286C284.321 177.404 282.373 177.727 280.493 178.302L280.208 178.226L280.15 178.168L280.025 178.042L279.782 177.792L279.297 177.298L278.319 176.32L276.38 174.364L276.731 174.406L268.973 179.246L269.09 178.912C269.697 180.667 270.302 182.406 270.904 184.129L270.962 184.287L270.845 184.413C269.494 185.847 268.343 187.459 267.426 189.203L267.342 189.345H267.184H261.658L261.917 189.136C261.215 192.168 260.526 195.136 259.852 198.04L259.71 197.747L264.684 200.155L264.818 200.222V200.372C264.872 202.357 265.195 204.326 265.779 206.224L265.821 206.366L265.712 206.466L261.783 210.345V210.053L266.607 217.819L266.356 217.736L271.573 215.93L271.69 215.888L271.782 215.972C273.222 217.326 274.836 218.485 276.58 219.416L276.681 219.466V219.583C276.681 221.59 276.681 223.395 276.639 225.101L276.505 224.942L285.4 227.04L285.258 227.107L287.699 222.15V222.1H287.749C289.246 222.058 290.735 221.873 292.197 221.548L293.275 221.289L293.635 221.213L293.283 221.339C293.049 221.414 292.698 221.523 292.213 221.64C290.754 222.007 289.261 222.223 287.758 222.284L287.833 222.225L285.467 227.241L285.417 227.333H285.325L276.405 225.318H276.279V225.184C276.279 223.512 276.279 221.665 276.279 219.659L276.371 219.826C274.591 218.89 272.943 217.72 271.472 216.348L271.673 216.39L266.465 218.221L266.306 218.279L266.214 218.137L261.357 210.387L261.256 210.228L261.39 210.095L265.303 206.207L265.244 206.45C264.648 204.522 264.313 202.523 264.249 200.506L264.391 200.723L259.375 198.332L259.191 198.24L259.233 198.04L261.315 188.936L261.357 188.727H261.574H267.1L266.858 188.869C267.802 187.082 268.98 185.429 270.36 183.953L270.302 184.237C269.7 182.515 269.092 180.776 268.479 179.021L268.404 178.812L268.596 178.695L276.346 173.854L276.538 173.729L276.697 173.888L278.637 175.844L279.607 176.83L280.1 177.323L280.342 177.574L280.468 177.691L280.526 177.758C279.958 177.616 280.367 177.716 280.242 177.683C282.171 177.092 284.17 176.761 286.186 176.696L285.943 176.855L288.351 171.839L288.443 171.639L288.66 171.689L297.564 173.745L297.781 173.796V174.021C297.781 175.927 297.781 177.817 297.781 179.547L297.639 179.305C299.423 180.249 301.074 181.427 302.546 182.808L302.279 182.749L307.495 180.943L307.688 180.868L307.805 181.052L312.637 188.81L312.737 188.977L312.595 189.119C311.232 190.474 309.886 191.795 308.666 192.998L308.733 192.756C309.319 194.686 309.648 196.684 309.711 198.7L309.577 198.499L314.551 200.915L314.71 200.991L314.668 201.158C313.941 204.284 313.239 207.261 312.587 210.061V210.22H312.428H306.902L307.061 210.12C306.117 211.894 304.939 213.533 303.558 214.994V214.826C304.21 216.707 304.812 218.471 305.355 220.051L305.397 220.16L305.297 220.219L297.514 225.017H297.455L297.405 224.967L294.554 222.024L293.827 221.255C293.758 221.199 293.694 221.137 293.635 221.071Z" fill="#E0E0E0"/>
<path fill-rule="evenodd" clip-rule="evenodd" d="M311.816 154.928C309.121 155.758 306.326 156.225 303.507 156.315L300.104 163.346L287.514 160.437V152.62C285.017 151.305 282.708 149.66 280.65 147.73L273.277 150.305L266.438 139.336L271.981 133.844C271.152 131.145 270.688 128.347 270.602 125.526L263.562 122.131L266.514 109.516H274.322C275.643 107.021 277.29 104.713 279.221 102.653L276.646 95.3042L287.614 88.4657L293.107 94.0084C295.803 93.1798 298.597 92.7159 301.417 92.629L304.819 85.5898L317.409 88.5075V96.3157C319.901 97.6345 322.207 99.2791 324.264 101.206L331.638 98.6398L338.485 109.6L332.925 115.134C333.761 117.829 334.228 120.624 334.313 123.444L341.344 126.846L338.435 139.437H330.626C329.305 141.929 327.658 144.234 325.727 146.292L328.302 153.665L317.309 160.512L311.816 154.961V154.928ZM309.308 136.536C311.635 135.083 313.479 132.973 314.607 130.473C315.734 127.972 316.095 125.194 315.644 122.488C315.192 119.783 313.949 117.272 312.07 115.273C310.192 113.274 307.763 111.877 305.091 111.259C302.418 110.64 299.623 110.828 297.057 111.799C294.491 112.769 292.271 114.478 290.677 116.711C289.083 118.943 288.187 121.598 288.101 124.339C288.016 127.081 288.745 129.786 290.197 132.113C291.16 133.661 292.418 135.003 293.899 136.064C295.381 137.125 297.057 137.884 298.831 138.297C300.606 138.71 302.445 138.769 304.243 138.472C306.04 138.174 307.762 137.524 309.308 136.561V136.536Z" fill="#E0E0E0"/>
<path fill-rule="evenodd" clip-rule="evenodd" d="M341.477 196.577C340.042 197.015 338.555 197.263 337.055 197.312L335.249 201.049L328.561 199.503V195.323C327.234 194.621 326.005 193.747 324.908 192.723L320.987 194.085L317.35 188.233L320.301 185.316C319.856 183.882 319.608 182.394 319.566 180.893L315.82 179.079L317.367 172.391H321.547C322.254 171.068 323.131 169.842 324.155 168.746L322.784 164.825L328.636 161.18L331.562 164.131C332.998 163.693 334.485 163.445 335.985 163.396L337.79 159.65L344.478 161.205V165.385C345.804 166.085 347.03 166.96 348.123 167.985L352.053 166.623L355.689 172.475L352.738 175.401C353.184 176.834 353.431 178.322 353.474 179.823L357.219 181.629L355.672 188.317H351.492C350.788 189.644 349.911 190.873 348.884 191.97L350.255 195.891L344.403 199.536L341.477 196.585V196.577ZM340.148 186.804C341.387 186.032 342.37 184.909 342.971 183.579C343.573 182.248 343.766 180.769 343.527 179.328C343.287 177.888 342.626 176.551 341.627 175.486C340.628 174.421 339.335 173.677 337.912 173.347C336.49 173.017 335.001 173.117 333.635 173.633C332.27 174.149 331.087 175.059 330.238 176.247C329.389 177.435 328.912 178.848 328.866 180.308C328.821 181.767 329.209 183.207 329.982 184.446C331.018 186.106 332.671 187.287 334.577 187.729C336.483 188.171 338.487 187.838 340.148 186.804Z" fill="#EBEBEB"/>
<path d="M84.9337 122.599C85.0256 122.683 81.1048 126.704 76.1807 131.569C71.2567 136.435 67.2021 140.314 67.1185 140.23C67.0349 140.147 70.9557 136.125 75.8798 131.26C80.8038 126.394 84.8501 122.515 84.9337 122.599Z" fill="#E0E0E0"/>
<path d="M84.9782 140.19C84.8946 140.273 80.7982 136.411 75.8825 131.571C70.9668 126.73 66.9958 122.734 67.0794 122.642C67.163 122.55 71.2594 126.413 76.1835 131.261C81.1075 136.11 85.0701 140.098 84.9782 140.19Z" fill="#E0E0E0"/>
<path d="M102.667 233.863C102.667 233.98 97.6512 233.545 91.4983 232.902C85.3453 232.258 80.3627 231.623 80.3711 231.506C80.3795 231.389 85.3871 231.815 91.5401 232.467C97.693 233.119 102.684 233.738 102.667 233.863Z" fill="#E0E0E0"/>
<path d="M101.781 242.257C101.781 242.374 96.7645 241.948 90.6116 241.296C84.4586 240.644 79.4677 240.025 79.4844 239.908C79.5011 239.791 84.5004 240.217 90.6534 240.861C96.8063 241.505 101.797 242.14 101.781 242.257Z" fill="#E0E0E0"/>
<path d="M41.4962 215.429C41.4962 215.429 34.8751 214.952 35.4854 229.808C36.0956 244.664 37.6088 252.564 37.6088 252.564C37.6088 252.564 37.4165 255.858 34.8667 255.214C32.3169 254.57 27.5183 251.36 25.144 253.759C22.7698 256.159 23.564 260.055 26.816 264.544C30.0681 269.033 36.848 279.124 37.4667 280.035C38.0853 280.946 38.3027 282.618 36.4969 282.459C34.6912 282.3 22.4856 278.162 20.8721 284.073C19.2586 289.983 30.3941 300.96 31.5896 302.214C32.7851 303.468 32.852 304.22 32.3671 304.964C31.8822 305.708 27.9112 303.928 24.3916 302.891C20.8721 301.855 16.6085 301.278 15.9648 304.764C15.321 308.25 20.22 318.449 38.5869 329.175L47.4234 333.564L55.7834 328.23C72.98 315.69 76.8423 305.081 75.8474 301.671C74.8526 298.26 70.6726 299.271 67.2784 300.659C63.8843 302.047 60.1056 304.204 59.5538 303.51C59.002 302.816 58.9853 302.047 60.047 300.701C61.1088 299.355 71.0906 287.325 68.8919 281.573C66.6932 275.821 54.9642 281.197 53.1835 281.573C51.4028 281.949 51.5115 280.21 51.9796 279.257C52.4478 278.304 58.2246 267.553 61.0252 262.772C63.8258 257.99 64.3023 254.102 61.6104 251.904C58.9184 249.705 54.5378 253.392 52.0967 254.286C49.6556 255.181 49.1038 251.929 49.1038 251.929C49.1038 251.929 49.8144 243.903 48.9366 229.072C48.0588 214.242 41.3624 215.429 41.3624 215.429" fill="#EBEBEB"/>
<path d="M41.9961 228.73C42.0027 228.833 42.0027 228.937 41.9961 229.04C41.9961 229.266 41.9961 229.566 42.063 229.951C42.1215 230.787 42.1967 231.949 42.3054 233.462C42.5061 236.505 42.7652 240.919 43.0662 246.362C43.6681 257.23 44.3787 272.328 45.106 288.998C45.8333 305.668 46.5021 320.707 47.0455 331.634C47.3214 337.068 47.5471 341.482 47.706 344.542C47.7812 346.055 47.8397 347.233 47.8815 348.053C47.8815 348.437 47.8815 348.747 47.8815 348.964C47.8872 349.067 47.8872 349.17 47.8815 349.273C47.8815 349.273 47.8815 349.173 47.8815 348.964C47.8815 348.755 47.8815 348.446 47.8147 348.053C47.7561 347.217 47.6725 346.063 47.5722 344.55C47.3716 341.507 47.1124 337.093 46.8115 331.642C46.2012 320.774 45.4989 305.684 44.7716 289.006C44.0443 272.328 43.3755 257.305 42.8237 246.37C42.5479 240.928 42.3221 236.522 42.1717 233.462C42.0964 231.949 42.0379 230.77 41.9961 229.951C41.9961 229.558 41.9961 229.257 41.9961 229.04C41.9961 228.822 41.9961 228.73 41.9961 228.73Z" fill="#E0E0E0"/>
<path d="M31.6797 258.508C31.8784 258.639 32.0608 258.793 32.2231 258.968C32.5658 259.277 33.0591 259.737 33.6276 260.314C34.7896 261.467 36.3613 263.106 38.0584 264.945L42.3805 269.677L43.693 271.098C43.8698 271.261 44.0244 271.446 44.1528 271.65C43.9533 271.519 43.7684 271.368 43.601 271.198C43.2666 270.881 42.765 270.421 42.2049 269.836C41.0512 268.674 39.4879 267.018 37.8159 265.179L33.4604 260.481L32.1395 259.06C31.9612 258.898 31.8064 258.712 31.6797 258.508Z" fill="#E0E0E0"/>
<path d="M45.0323 271.358C44.9654 271.291 48.2007 267.905 52.247 263.834C56.2932 259.763 59.6456 256.444 59.7124 256.511C59.7793 256.578 56.544 259.963 52.4894 264.035C48.4348 268.106 45.0991 271.425 45.0323 271.358Z" fill="#E0E0E0"/>
<path d="M45 296.965C45.1866 296.81 45.3916 296.678 45.6103 296.572L47.3408 295.602C48.8038 294.766 50.8102 293.646 52.9838 292.308C55.1574 290.971 57.0886 289.7 58.4763 288.772L60.1483 287.677C60.3409 287.526 60.5515 287.4 60.7753 287.301C60.6103 287.48 60.4252 287.64 60.2236 287.777C59.8557 288.07 59.3123 288.48 58.6352 288.973C57.2725 289.951 55.358 291.263 53.1761 292.593C50.9941 293.922 48.9961 295.042 47.4746 295.811C46.7222 296.187 46.1202 296.488 45.6939 296.689C45.4721 296.803 45.2397 296.896 45 296.965Z" fill="#E0E0E0"/>
<path d="M30.3594 288.002C30.5747 288.069 30.7799 288.164 30.9697 288.286C31.3542 288.487 31.8976 288.796 32.5748 289.181C33.9124 289.941 35.7599 291.02 37.7914 292.224C39.8229 293.428 41.6454 294.539 42.9579 295.359L44.5045 296.337C44.7029 296.446 44.8857 296.581 45.0479 296.738C44.8346 296.666 44.6299 296.571 44.4376 296.454C44.0614 296.245 43.5097 295.944 42.8409 295.559C41.4949 294.799 39.6473 293.72 37.6159 292.516C35.5844 291.313 33.7619 290.201 32.4494 289.381L30.9028 288.42C30.7052 288.303 30.5227 288.163 30.3594 288.002Z" fill="#E0E0E0"/>
<path d="M27.4609 310.6C27.7278 310.702 27.9852 310.828 28.2301 310.976L30.295 312.113C32.0255 313.083 34.4081 314.445 36.983 315.967C39.5579 317.488 41.9572 318.876 43.671 319.904L45.6774 321.133C45.9286 321.273 46.1665 321.435 46.388 321.618C46.114 321.526 45.8528 321.4 45.6105 321.242L43.5539 320.113C41.8234 319.144 39.4492 317.781 36.8659 316.259C34.2827 314.738 31.8917 313.342 30.1779 312.322L28.1799 311.093C27.9206 310.959 27.6791 310.793 27.4609 310.6Z" fill="#E0E0E0"/>
<path d="M46.0195 321.233C46.2536 321.029 46.5119 320.855 46.7887 320.714L48.9288 319.41C50.7429 318.298 53.2426 316.769 55.9512 314.996C58.6599 313.224 61.0843 311.569 62.8315 310.356L64.8964 308.927C65.1337 308.73 65.3949 308.564 65.6739 308.434C65.4593 308.653 65.2242 308.852 64.9717 309.027C64.5035 309.403 63.818 309.922 62.9653 310.557C61.2933 311.819 58.8605 313.516 56.1435 315.28C53.4265 317.044 50.9018 318.558 49.0542 319.611C48.1263 320.138 47.3822 320.556 46.8472 320.831C46.5823 320.987 46.3055 321.121 46.0195 321.233Z" fill="#E0E0E0"/>
<path d="M59.2962 336.482H34.8516L42.827 396.875H51.3208L59.2962 336.482Z" fill="#E0E0E0"/>
<path d="M36.1445 343.905C36.1445 343.905 36.1445 343.989 36.2699 344.114C36.4309 344.302 36.6344 344.448 36.8635 344.54C37.2901 344.686 37.7442 344.733 38.1916 344.678C38.639 344.623 39.0681 344.467 39.4467 344.223C40.4332 343.679 41.2943 342.609 42.6152 342.133C44.0829 341.662 45.6656 341.695 47.1129 342.225C48.5822 342.729 49.9855 343.409 51.2929 344.248C52.3776 344.943 53.5089 345.563 54.6786 346.104C55.4776 346.459 56.3214 346.704 57.1866 346.831C57.4221 346.864 57.6595 346.881 57.8972 346.881C58.0561 346.881 58.1397 346.881 58.1397 346.881C56.9833 346.702 55.8577 346.361 54.7957 345.87C53.6475 345.304 52.5311 344.676 51.4517 343.989C50.1272 343.113 48.6975 342.408 47.1965 341.89C45.6651 341.336 43.9907 341.318 42.448 341.84C41.7976 342.107 41.1959 342.48 40.6673 342.944C40.2243 343.337 39.755 343.7 39.2628 344.03C38.921 344.268 38.5313 344.428 38.1211 344.498C37.7109 344.569 37.2902 344.549 36.8886 344.44C36.6086 344.311 36.356 344.129 36.1445 343.905Z" fill="#F5F5F5"/>
<path d="M36.9805 355.025C36.9805 355.025 37.1727 354.774 37.5489 354.381C38.1053 353.832 38.7721 353.407 39.5052 353.135C40.5943 352.741 41.7509 352.568 42.9077 352.625C44.3337 352.736 45.7519 352.931 47.1546 353.21C48.5895 353.486 50.0577 353.546 51.5101 353.386C52.6955 353.235 53.8512 352.905 54.9378 352.408C55.6828 352.08 56.3893 351.671 57.0445 351.187C57.2903 351.023 57.5101 350.823 57.6965 350.594C56.792 351.177 55.8478 351.697 54.8709 352.149C53.8004 352.581 52.6749 352.863 51.5269 352.985C50.1086 353.123 48.6777 353.053 47.28 352.776C45.859 352.494 44.4206 352.31 42.9746 352.224C41.7713 352.185 40.5729 352.396 39.455 352.843C38.6994 353.143 38.0281 353.622 37.4988 354.239C37.358 354.409 37.2322 354.591 37.1226 354.782C37.0306 354.949 36.9805 355.016 36.9805 355.025Z" fill="#F5F5F5"/>
<path d="M56.5274 360.976C56.324 360.822 56.0946 360.706 55.8502 360.633C55.2015 360.387 54.5195 360.241 53.8271 360.199C52.8038 360.13 51.7761 360.189 50.7673 360.374C49.622 360.558 48.4015 360.867 47.1224 361.143C45.9278 361.423 44.7043 361.561 43.4774 361.553C42.4826 361.526 41.5016 361.313 40.5849 360.926C39.7466 360.527 39.0007 359.957 38.3945 359.254C38.4904 359.491 38.6325 359.707 38.8125 359.889C39.2771 360.418 39.8465 360.845 40.4845 361.143C41.4225 361.587 42.4405 361.837 43.4774 361.879C44.7343 361.91 45.9902 361.781 47.2143 361.494C48.5185 361.219 49.7223 360.892 50.8426 360.658C51.8249 360.463 52.8258 360.376 53.8271 360.399C54.747 360.483 55.6536 360.676 56.5274 360.976Z" fill="#F5F5F5"/>
<path d="M39.173 369.354C39.9215 369.034 40.7505 368.952 41.5472 369.12C42.4156 369.33 43.257 369.639 44.0552 370.04C45.0655 370.529 46.1558 370.832 47.2738 370.934C49.3183 371.109 51.3659 370.635 53.1258 369.58C53.6346 369.257 54.1082 368.882 54.5386 368.46C54.8312 368.142 54.9901 367.958 54.965 367.941C54.3182 368.443 53.6427 368.906 52.9419 369.329C51.2135 370.283 49.2407 370.702 47.2738 370.533C44.9581 370.399 43.1774 369.02 41.5723 368.861C40.9551 368.755 40.321 368.813 39.7331 369.028C39.3318 369.162 39.1562 369.346 39.173 369.354Z" fill="#F5F5F5"/>
<path d="M40.5352 380.948C41.2372 380.965 41.9341 380.825 42.5751 380.538C43.804 380.128 45.3171 379.192 47.0978 378.482C47.9258 378.149 48.8059 377.965 49.6978 377.938C50.4187 377.938 51.1303 378.101 51.7794 378.415C52.3744 378.732 52.8913 379.177 53.2926 379.719C53.2597 379.529 53.1792 379.351 53.0585 379.2C52.7629 378.77 52.3706 378.415 51.9132 378.164C51.2339 377.789 50.4735 377.585 49.6978 377.57C48.7572 377.573 47.8261 377.757 46.9557 378.114C45.1165 378.841 43.6117 379.786 42.4664 380.279C41.3211 380.772 40.5269 380.881 40.5352 380.948Z" fill="#F5F5F5"/>
<path d="M41.7305 386.34C42.2204 386.578 42.7409 386.747 43.2771 386.842C44.5504 387.15 45.8438 387.368 47.1478 387.494C48.4505 387.622 49.7605 387.661 51.0686 387.611C51.6154 387.621 52.1611 387.556 52.6904 387.419C52.6904 387.293 50.1824 387.419 47.1895 387.101C44.1967 386.783 41.7639 386.231 41.7305 386.34Z" fill="#F5F5F5"/>
<path d="M384.981 395.897C384.981 396.022 301.783 396.114 199.18 396.114C96.5782 396.114 13.3711 396.022 13.3711 395.897C13.3711 395.772 96.5447 395.68 199.18 395.68C301.816 395.68 384.981 395.78 384.981 395.897Z" fill="#263238"/>
<path d="M118.375 134.596C118.375 134.596 120.649 120.961 121.192 119.924C121.736 118.887 128.014 112.517 128.758 112.4C129.502 112.283 139.409 109.156 138.857 110.728C138.305 112.3 131.333 114.356 131.333 114.356L130.673 115.192C130.673 115.192 136.617 113.253 138.088 113.303C139.559 113.353 139.693 114.766 138.631 115.167C137.57 115.568 132.336 117.098 132.136 117.433C131.935 117.767 137.988 116.037 138.723 116.07C139.743 116.112 140.479 117.399 139.442 117.842C138.824 118.093 133.005 119.431 133.005 119.431C134.799 119.195 136.605 119.055 138.414 119.013C139.308 119.255 139.25 120.342 138.247 120.601C137.57 120.777 134.017 120.936 133.114 121.178C133.114 121.178 132.437 121.746 132.462 123.552C132.487 125.358 130.146 130.148 130.146 130.148L118.375 134.596Z" fill="#FFBE9D"/>
<path d="M138.846 110.687C138.448 111.197 137.954 111.626 137.392 111.949C136.805 112.344 136.184 112.686 135.536 112.969C134.8 113.245 133.981 113.529 133.128 113.805L131.297 114.424L131.398 114.365C130.353 115.497 129.221 116.545 128.012 117.5C128.941 116.28 129.964 115.134 131.071 114.072V114.031H131.13L132.936 113.395L135.335 112.559C135.969 112.302 136.583 112 137.174 111.656C138.228 111.096 138.804 110.628 138.846 110.687Z" fill="#EB996E"/>
<path d="M270.842 284.34L135.895 270.437C133.917 270.227 132.103 269.241 130.849 267.696C129.596 266.152 129.005 264.173 129.207 262.194L152.556 35.3207C152.849 32.5076 154.246 29.9255 156.44 28.1405C158.634 26.3556 161.446 25.5134 164.26 25.7986L292.937 39.0492C295.75 39.3424 298.332 40.7391 300.117 42.9331C301.902 45.1271 302.744 47.9393 302.459 50.7532L279.051 277.627C278.846 279.603 277.868 281.418 276.33 282.676C274.792 283.933 272.819 284.532 270.842 284.34Z" fill="#04242D"/>
<path opacity="0.4" d="M270.842 284.34L135.895 270.437C133.917 270.227 132.103 269.241 130.849 267.696C129.596 266.152 129.005 264.173 129.207 262.194L152.556 35.3207C152.849 32.5076 154.246 29.9255 156.44 28.1405C158.634 26.3556 161.446 25.5134 164.26 25.7986L292.937 39.0492C295.75 39.3424 298.332 40.7391 300.117 42.9331C301.902 45.1271 302.744 47.9393 302.459 50.7532L279.051 277.627C278.846 279.603 277.868 281.418 276.33 282.676C274.792 283.933 272.819 284.532 270.842 284.34Z" fill="black"/>
<path d="M257.223 282.935L122.251 269.041C120.271 268.83 118.456 267.844 117.202 266.297C115.949 264.75 115.359 262.77 115.563 260.79L138.971 33.916C139.114 32.5222 139.53 31.1702 140.196 29.9373C140.862 28.7044 141.764 27.6147 142.85 26.7305C143.937 25.8463 145.188 25.1848 146.53 24.7839C147.873 24.383 149.281 24.2505 150.675 24.394L279.319 37.6195C280.712 37.7626 282.064 38.1788 283.297 38.8445C284.53 39.5101 285.62 40.4121 286.504 41.499C287.388 42.5859 288.05 43.8363 288.451 45.1788C288.852 46.5214 288.984 47.9297 288.841 49.3235L265.433 276.206C265.232 278.185 264.255 280.004 262.717 281.265C261.179 282.526 259.203 283.127 257.223 282.935Z" fill="#074F62"/>
<path d="M188.615 221.182L142.079 216.389C140.967 216.274 139.974 217.083 139.859 218.194L137.973 236.506C137.859 237.617 138.667 238.611 139.778 238.726L186.315 243.518C187.426 243.633 188.42 242.825 188.535 241.713L190.421 223.401C190.535 222.29 189.727 221.296 188.615 221.182Z" fill="#04242D"/>
<g opacity="0.4">
<path d="M188.615 221.182L142.079 216.389C140.967 216.274 139.974 217.083 139.859 218.194L137.973 236.506C137.859 237.617 138.667 238.611 139.778 238.726L186.315 243.518C187.426 243.633 188.42 242.825 188.535 241.713L190.421 223.401C190.535 222.29 189.727 221.296 188.615 221.182Z" fill="black"/>
</g>
<path d="M148.341 49.757L143.164 100.027L271.314 113.225L276.491 62.9548L148.341 49.757Z" fill="#FAFAFA"/>
<path d="M271.321 113.228C271.321 113.228 271.321 112.918 271.397 112.333C271.472 111.748 271.539 110.87 271.648 109.733C271.873 107.442 272.208 104.082 272.642 99.7428C273.478 91.0735 274.774 78.5251 276.346 62.9588L276.48 63.126L148.329 49.9757L148.572 49.7835C146.757 67.3395 145.002 84.3521 143.38 100.052L143.196 99.8181L235.031 109.382L261.699 112.182L268.847 112.952L270.694 113.152L271.33 113.228C271.33 113.228 271.121 113.228 270.711 113.177L268.889 113.002L261.783 112.3L235.114 109.616L143.154 100.236H142.945V100.035C144.559 84.327 146.289 67.3395 148.112 49.7584V49.541H148.329L276.513 62.8083H276.664V62.9588C274.992 78.5669 273.696 91.1487 272.784 99.8348C272.325 104.149 271.948 107.501 271.723 109.775C271.597 110.903 271.505 111.764 271.439 112.35L271.321 113.228Z" fill="#263238"/>
<path d="M168.312 122.866L149.991 120.979C149.036 120.881 148.182 121.575 148.084 122.531L146.197 140.851C146.098 141.806 146.793 142.66 147.748 142.759L166.069 144.645C167.024 144.744 167.878 144.049 167.976 143.094L169.863 124.774C169.962 123.818 169.267 122.964 168.312 122.866Z" fill="#04242D"/>
<g opacity="0.4">
<path d="M168.312 122.866L149.991 120.979C149.036 120.881 148.182 121.575 148.084 122.531L146.197 140.851C146.098 141.806 146.793 142.66 147.748 142.759L166.069 144.645C167.024 144.744 167.878 144.049 167.976 143.094L169.863 124.774C169.962 123.818 169.267 122.964 168.312 122.866Z" fill="black"/>
</g>
<path d="M164.956 122.524L146.636 120.637C145.681 120.539 144.826 121.233 144.728 122.189L142.841 140.509C142.743 141.464 143.438 142.318 144.393 142.417L162.713 144.304C163.668 144.402 164.523 143.707 164.621 142.752L166.508 124.432C166.606 123.476 165.911 122.622 164.956 122.524Z" fill="#263238"/>
<path d="M156.678 127.999L155.75 137.103L153.643 136.885L154.404 129.495L152.59 129.303L152.765 127.631L156.678 127.999Z" fill="white"/>
<path d="M198.691 126.002L180.37 124.116C179.415 124.017 178.561 124.712 178.462 125.667L176.576 143.987C176.477 144.943 177.172 145.797 178.127 145.895L196.448 147.782C197.403 147.88 198.257 147.186 198.355 146.23L200.242 127.91C200.341 126.955 199.646 126.101 198.691 126.002Z" fill="#04242D"/>
<g opacity="0.4">
<path d="M198.687 126.002L180.366 124.116C179.411 124.017 178.557 124.712 178.459 125.667L176.572 143.987C176.473 144.943 177.168 145.797 178.123 145.895L196.444 147.782C197.399 147.88 198.253 147.186 198.351 146.23L200.238 127.91C200.337 126.955 199.642 126.101 198.687 126.002Z" fill="black"/>
</g>
<path d="M195.323 125.653L177.003 123.766C176.048 123.668 175.194 124.362 175.095 125.318L173.209 143.638C173.11 144.593 173.805 145.447 174.76 145.546L193.08 147.432C194.036 147.531 194.89 146.836 194.988 145.881L196.875 127.561C196.973 126.605 196.279 125.751 195.323 125.653Z" fill="#263238"/>
<path d="M189.578 138.835L189.402 140.507L182.547 139.804L182.689 138.442L186.526 135.491C187.412 134.814 187.605 134.362 187.646 133.919C187.722 133.208 187.27 132.74 186.309 132.64C185.946 132.589 185.577 132.628 185.233 132.753C184.889 132.878 184.581 133.086 184.336 133.359L182.906 132.214C183.379 131.699 183.971 131.31 184.63 131.081C185.29 130.852 185.996 130.79 186.685 130.901C188.708 131.11 189.954 132.28 189.778 133.927C189.695 134.814 189.36 135.599 187.973 136.636L185.682 138.392L189.578 138.835Z" fill="white"/>
<path d="M230.175 129.245L211.855 127.358C210.899 127.259 210.045 127.954 209.947 128.909L208.06 147.23C207.962 148.185 208.656 149.039 209.612 149.137L227.932 151.024C228.887 151.123 229.741 150.428 229.84 149.473L231.727 131.152C231.825 130.197 231.13 129.343 230.175 129.245Z" fill="#04242D"/>
<g opacity="0.4">
<path d="M230.175 129.245L211.855 127.358C210.899 127.259 210.045 127.954 209.947 128.909L208.06 147.23C207.962 148.185 208.656 149.039 209.612 149.137L227.932 151.024C228.887 151.123 229.741 150.428 229.84 149.473L231.727 131.152C231.825 130.197 231.13 129.343 230.175 129.245Z" fill="black"/>
</g>
<path d="M226.819 128.895L208.499 127.008C207.544 126.91 206.69 127.605 206.591 128.56L204.705 146.88C204.606 147.835 205.301 148.689 206.256 148.788L224.576 150.675C225.532 150.773 226.386 150.078 226.484 149.123L228.371 130.803C228.469 129.848 227.775 128.993 226.819 128.895Z" fill="#263238"/>
<path d="M221.102 141C220.943 142.53 219.623 143.809 217.039 143.55C215.819 143.44 214.658 142.978 213.695 142.221L214.673 140.691C215.374 141.308 216.252 141.689 217.181 141.778C218.235 141.886 218.929 141.527 219.004 140.783C219.079 140.039 218.611 139.621 217.424 139.495L216.462 139.395L216.605 138.007L218.686 136.084L214.824 135.692L214.999 134.02L221.353 134.672L221.211 136.034L218.92 138.158C219.58 138.259 220.175 138.612 220.582 139.141C220.988 139.671 221.175 140.337 221.102 141Z" fill="white"/>
<path d="M261.671 132.489L243.351 130.602C242.396 130.504 241.541 131.198 241.443 132.154L239.556 150.474C239.458 151.429 240.153 152.283 241.108 152.382L259.428 154.268C260.383 154.367 261.237 153.672 261.336 152.717L263.223 134.397C263.321 133.441 262.626 132.587 261.671 132.489Z" fill="#04242D"/>
<g opacity="0.4">
<path d="M261.671 132.489L243.351 130.602C242.396 130.504 241.541 131.198 241.443 132.154L239.556 150.474C239.458 151.429 240.153 152.283 241.108 152.382L259.428 154.268C260.383 154.367 261.237 153.672 261.336 152.717L263.223 134.397C263.321 133.441 262.626 132.587 261.671 132.489Z" fill="black"/>
</g>
<path d="M258.382 132.135L240.062 130.248C239.106 130.15 238.252 130.845 238.154 131.8L236.267 150.12C236.169 151.076 236.863 151.93 237.819 152.028L256.139 153.915C257.094 154.013 257.948 153.319 258.047 152.363L259.934 134.043C260.032 133.088 259.337 132.234 258.382 132.135Z" fill="#263238"/>
<path d="M243.168 140.807L243.082 141.639L252.812 142.641L252.897 141.809L243.168 140.807Z" fill="white"/>
<path d="M250.02 137.655C249.989 137.968 249.866 138.264 249.666 138.507C249.466 138.749 249.199 138.927 248.898 139.017C248.597 139.108 248.276 139.107 247.976 139.016C247.675 138.924 247.409 138.745 247.21 138.502C247.011 138.259 246.889 137.962 246.859 137.649C246.829 137.336 246.892 137.022 247.041 136.745C247.189 136.468 247.417 136.242 247.694 136.094C247.972 135.947 248.287 135.885 248.599 135.916C249.018 135.958 249.403 136.165 249.67 136.491C249.936 136.817 250.062 137.236 250.02 137.655Z" fill="white"/>
<path d="M249.141 146.14C249.11 146.453 248.986 146.75 248.786 146.992C248.586 147.235 248.318 147.412 248.017 147.503C247.715 147.593 247.394 147.592 247.094 147.499C246.793 147.406 246.527 147.227 246.328 146.983C246.13 146.739 246.009 146.441 245.979 146.128C245.95 145.815 246.015 145.5 246.165 145.224C246.315 144.947 246.544 144.721 246.822 144.575C247.1 144.429 247.416 144.368 247.729 144.401C248.146 144.446 248.529 144.654 248.794 144.979C249.059 145.305 249.184 145.723 249.141 146.14Z" fill="white"/>
<path d="M165.026 154.782L146.706 152.895C145.751 152.797 144.897 153.491 144.798 154.447L142.912 172.767C142.813 173.722 143.508 174.576 144.463 174.675L162.783 176.561C163.739 176.66 164.593 175.965 164.691 175.01L166.578 156.69C166.676 155.734 165.982 154.88 165.026 154.782Z" fill="#04242D"/>
<g opacity="0.4">
<path d="M165.026 154.782L146.706 152.895C145.751 152.797 144.897 153.491 144.798 154.447L142.912 172.767C142.813 173.722 143.508 174.576 144.463 174.675L162.783 176.561C163.739 176.66 164.593 175.965 164.691 175.01L166.578 156.69C166.676 155.734 165.982 154.88 165.026 154.782Z" fill="black"/>
</g>
<path d="M161.671 154.44L143.351 152.553C142.396 152.455 141.541 153.149 141.443 154.105L139.556 172.425C139.458 173.38 140.152 174.234 141.108 174.333L159.428 176.22C160.383 176.318 161.237 175.623 161.336 174.668L163.223 156.348C163.321 155.392 162.626 154.538 161.671 154.44Z" fill="#263238"/>
<path d="M155.309 167.349L153.829 167.199L153.629 169.105L151.581 168.896L151.781 166.99L146.891 166.48L147.033 165.067L151.907 159.75L154.114 159.984L149.583 165L152.024 165.251L152.199 163.579L154.181 163.78L154.005 165.452L155.485 165.602L155.309 167.349Z" fill="white"/>
<path d="M195.405 157.911L177.085 156.024C176.13 155.925 175.276 156.62 175.177 157.575L173.291 175.896C173.192 176.851 173.887 177.705 174.842 177.803L193.162 179.69C194.118 179.789 194.972 179.094 195.07 178.139L196.957 159.818C197.055 158.863 196.361 158.009 195.405 157.911Z" fill="#04242D"/>
<g opacity="0.4">
<path d="M195.401 157.911L177.081 156.024C176.126 155.925 175.272 156.62 175.173 157.575L173.287 175.896C173.188 176.851 173.883 177.705 174.838 177.803L193.158 179.69C194.114 179.789 194.968 179.094 195.066 178.139L196.953 159.818C197.051 158.863 196.357 158.009 195.401 157.911Z" fill="black"/>
</g>
<path d="M192.046 157.559L173.726 155.672C172.771 155.574 171.916 156.269 171.818 157.224L169.931 175.544C169.833 176.499 170.527 177.354 171.483 177.452L189.803 179.339C190.758 179.437 191.612 178.742 191.711 177.787L193.598 159.467C193.696 158.512 193.001 157.657 192.046 157.559Z" fill="#263238"/>
<path d="M185.404 169.499C185.245 171.104 183.916 172.383 181.324 172.116C180.105 172.005 178.944 171.543 177.98 170.786L178.975 169.265C179.675 169.883 180.554 170.261 181.483 170.343C182.537 170.452 183.231 170.084 183.306 169.34C183.381 168.596 182.963 168.111 181.316 167.944L178.992 167.702L179.987 162.686L185.521 163.254L185.354 164.926L181.567 164.533L181.241 166.247L181.985 166.322C184.635 166.573 185.571 167.885 185.404 169.499Z" fill="white"/>
<path d="M226.901 161.153L208.581 159.266C207.626 159.168 206.772 159.862 206.673 160.818L204.787 179.138C204.688 180.093 205.383 180.947 206.338 181.046L224.658 182.932C225.614 183.031 226.468 182.336 226.566 181.381L228.453 163.061C228.551 162.105 227.857 161.251 226.901 161.153Z" fill="#04242D"/>
<g opacity="0.4">
<path d="M226.898 161.153L208.577 159.266C207.622 159.168 206.768 159.862 206.67 160.818L204.783 179.138C204.684 180.093 205.379 180.947 206.334 181.046L224.655 182.932C225.61 183.031 226.464 182.336 226.562 181.381L228.449 163.061C228.548 162.105 227.853 161.251 226.898 161.153Z" fill="black"/>
</g>
<path d="M223.534 160.801L205.214 158.914C204.259 158.816 203.405 159.511 203.306 160.466L201.419 178.786C201.321 179.742 202.016 180.596 202.971 180.694L221.291 182.581C222.247 182.679 223.101 181.985 223.199 181.029L225.086 162.709C225.184 161.754 224.49 160.9 223.534 160.801Z" fill="#263238"/>
<path d="M217.556 172.792C217.364 174.648 215.726 175.659 213.811 175.459C211.303 175.199 209.915 173.469 210.216 170.543C210.542 167.399 212.616 165.845 215.349 166.129C216.236 166.196 217.089 166.503 217.816 167.015L216.879 168.478C216.398 168.103 215.816 167.882 215.207 167.843C213.686 167.692 212.624 168.486 212.382 170.217C212.711 169.971 213.087 169.794 213.486 169.695C213.885 169.596 214.299 169.577 214.706 169.64C215.105 169.644 215.499 169.731 215.863 169.895C216.227 170.059 216.553 170.296 216.821 170.592C217.089 170.888 217.292 171.236 217.419 171.615C217.545 171.993 217.592 172.394 217.556 172.792ZM215.508 172.683C215.53 172.489 215.51 172.292 215.449 172.106C215.388 171.92 215.288 171.749 215.156 171.605C215.024 171.461 214.862 171.347 214.682 171.27C214.502 171.194 214.308 171.157 214.112 171.161C213.92 171.121 213.721 171.12 213.529 171.159C213.336 171.198 213.154 171.277 212.993 171.39C212.832 171.503 212.696 171.648 212.594 171.816C212.492 171.983 212.425 172.171 212.398 172.365C212.315 173.143 212.841 173.77 213.853 173.878C214.04 173.917 214.232 173.916 214.418 173.875C214.604 173.834 214.78 173.755 214.934 173.643C215.087 173.53 215.215 173.386 215.31 173.221C215.405 173.056 215.464 172.872 215.483 172.683H215.508Z" fill="white"/>
<path d="M258.378 164.395L240.058 162.508C239.103 162.41 238.248 163.104 238.15 164.06L236.263 182.38C236.165 183.335 236.86 184.189 237.815 184.288L256.135 186.175C257.09 186.273 257.945 185.578 258.043 184.623L259.93 166.303C260.028 165.348 259.333 164.493 258.378 164.395Z" fill="#04242D"/>
<g opacity="0.4">
<path d="M258.378 164.395L240.058 162.508C239.103 162.41 238.248 163.104 238.15 164.06L236.263 182.38C236.165 183.335 236.86 184.189 237.815 184.288L256.135 186.175C257.09 186.273 257.945 185.578 258.043 184.623L259.93 166.303C260.028 165.348 259.333 164.493 258.378 164.395Z" fill="black"/>
</g>
<path d="M255.023 164.043L236.702 162.157C235.747 162.058 234.893 162.753 234.795 163.708L232.908 182.028C232.809 182.984 233.504 183.838 234.459 183.936L252.78 185.823C253.735 185.921 254.589 185.227 254.687 184.271L256.574 165.951C256.673 164.996 255.978 164.142 255.023 164.043Z" fill="#263238"/>
<path d="M248.313 170.64L240.633 176.697L241.15 177.354L248.831 171.297L248.313 170.64Z" fill="white"/>
<path d="M241.981 169.973L241.332 170.5L247.503 178.089L248.152 177.561L241.981 169.973Z" fill="white"/>
<path d="M161.769 186.434L143.448 184.547C142.493 184.449 141.639 185.144 141.541 186.099L139.654 204.419C139.555 205.374 140.25 206.229 141.205 206.327L159.526 208.214C160.481 208.312 161.335 207.617 161.434 206.662L163.32 188.342C163.419 187.387 162.724 186.532 161.769 186.434Z" fill="#04242D"/>
<g opacity="0.4">
<path d="M161.769 186.434L143.448 184.547C142.493 184.449 141.639 185.144 141.541 186.099L139.654 204.419C139.555 205.374 140.25 206.229 141.205 206.327L159.526 208.214C160.481 208.312 161.335 207.617 161.434 206.662L163.32 188.342C163.419 187.387 162.724 186.532 161.769 186.434Z" fill="black"/>
</g>
<path d="M158.409 186.09L140.089 184.204C139.134 184.105 138.28 184.8 138.181 185.755L136.294 204.075C136.196 205.031 136.891 205.885 137.846 205.983L156.166 207.87C157.122 207.968 157.976 207.274 158.074 206.318L159.961 187.998C160.059 187.043 159.365 186.189 158.409 186.09Z" fill="#263238"/>
<path d="M151.581 191.703L151.439 193.066L147.259 200.439L144.977 200.197L148.99 193.166L145.98 192.857L145.83 194.336L143.957 194.144L144.291 190.959L151.581 191.703Z" fill="white"/>
<path d="M192.144 189.563L173.823 187.676C172.868 187.578 172.014 188.272 171.916 189.228L170.029 207.548C169.93 208.503 170.625 209.357 171.58 209.456L189.901 211.343C190.856 211.441 191.71 210.746 191.809 209.791L193.695 191.471C193.794 190.515 193.099 189.661 192.144 189.563Z" fill="#04242D"/>
<g opacity="0.4">
<path d="M192.144 189.563L173.823 187.676C172.868 187.578 172.014 188.272 171.916 189.228L170.029 207.548C169.93 208.503 170.625 209.357 171.58 209.456L189.901 211.343C190.856 211.441 191.71 210.746 191.809 209.791L193.695 191.471C193.794 190.515 193.099 189.661 192.144 189.563Z" fill="black"/>
</g>
<path d="M188.78 189.211L170.46 187.325C169.505 187.226 168.651 187.921 168.552 188.876L166.666 207.196C166.567 208.152 167.262 209.006 168.217 209.104L186.537 210.991C187.493 211.089 188.347 210.395 188.445 209.439L190.332 191.119C190.43 190.164 189.736 189.31 188.78 189.211Z" fill="#263238"/>
<path d="M182.863 201.476C182.688 203.148 181.049 204.109 178.742 203.867C176.435 203.625 175.038 202.396 175.214 200.69C175.253 200.237 175.426 199.805 175.71 199.45C175.994 199.094 176.377 198.831 176.811 198.692C176.507 198.467 176.269 198.164 176.122 197.816C175.975 197.467 175.924 197.086 175.975 196.711C176.142 195.114 177.647 194.27 179.728 194.479C181.81 194.688 183.139 195.841 182.98 197.438C182.947 197.817 182.812 198.18 182.589 198.489C182.367 198.797 182.066 199.041 181.718 199.194C182.112 199.419 182.432 199.756 182.635 200.162C182.839 200.568 182.918 201.025 182.863 201.476ZM180.74 201.192C180.824 200.356 180.213 199.829 179.168 199.72C178.123 199.612 177.429 200.038 177.346 200.841C177.262 201.643 177.856 202.22 178.901 202.329C179.946 202.437 180.665 201.961 180.773 201.158L180.74 201.192ZM178.031 197.012C177.956 197.697 178.458 198.182 179.31 198.274C180.163 198.366 180.782 197.99 180.857 197.304C180.932 196.619 180.406 196.101 179.545 196.017C178.683 195.933 178.098 196.276 178.031 196.987V197.012Z" fill="white"/>
<path d="M223.632 192.805L205.312 190.918C204.356 190.82 203.502 191.515 203.404 192.47L201.517 210.79C201.419 211.745 202.113 212.6 203.069 212.698L221.389 214.585C222.344 214.683 223.198 213.988 223.297 213.033L225.184 194.713C225.282 193.758 224.587 192.904 223.632 192.805Z" fill="#04242D"/>
<g opacity="0.4">
<path d="M223.632 192.805L205.312 190.918C204.356 190.82 203.502 191.515 203.404 192.47L201.517 210.79C201.419 211.745 202.113 212.6 203.069 212.698L221.389 214.585C222.344 214.683 223.198 213.988 223.297 213.033L225.184 194.713C225.282 193.758 224.587 192.904 223.632 192.805Z" fill="black"/>
</g>
<path d="M219.661 190.988L201.429 189.147C200.478 189.051 199.629 189.743 199.533 190.694L197.691 208.927C197.595 209.878 198.288 210.726 199.239 210.822L217.472 212.664C218.423 212.76 219.271 212.067 219.367 211.117L221.209 192.884C221.305 191.933 220.612 191.084 219.661 190.988Z" fill="#263238"/>
<path d="M214.211 202.546C213.885 205.69 211.829 207.245 209.078 206.96C208.197 206.896 207.351 206.592 206.629 206.083L207.565 204.62C208.045 204.995 208.629 205.214 209.237 205.247C210.742 205.397 211.82 204.603 212.063 202.864C211.731 203.111 211.353 203.29 210.951 203.391C210.549 203.491 210.132 203.511 209.722 203.449C209.325 203.441 208.933 203.352 208.572 203.187C208.21 203.022 207.887 202.784 207.621 202.488C207.355 202.193 207.153 201.846 207.027 201.469C206.901 201.092 206.854 200.693 206.888 200.297C207.08 198.442 208.719 197.43 210.642 197.631C213.141 197.89 214.521 199.62 214.211 202.546ZM212.029 200.724C212.105 199.946 211.578 199.319 210.583 199.211C210.395 199.174 210.202 199.178 210.015 199.22C209.828 199.263 209.653 199.345 209.5 199.46C209.346 199.575 209.219 199.721 209.126 199.888C209.032 200.055 208.975 200.24 208.957 200.431C208.94 200.621 208.962 200.814 209.023 200.995C209.085 201.177 209.183 201.343 209.313 201.484C209.442 201.625 209.6 201.738 209.776 201.814C209.951 201.89 210.141 201.929 210.332 201.928C210.524 201.969 210.722 201.969 210.914 201.93C211.106 201.891 211.288 201.812 211.448 201.699C211.609 201.586 211.744 201.441 211.845 201.273C211.947 201.105 212.012 200.918 212.038 200.724H212.029Z" fill="white"/>
<path d="M255.12 196.047L236.8 194.161C235.845 194.062 234.991 194.757 234.892 195.712L233.005 214.032C232.907 214.988 233.602 215.842 234.557 215.94L252.877 217.827C253.833 217.925 254.687 217.231 254.785 216.275L256.672 197.955C256.77 197 256.076 196.146 255.12 196.047Z" fill="#04242D"/>
<g opacity="0.4">
<path d="M255.12 196.047L236.8 194.161C235.845 194.062 234.991 194.757 234.892 195.712L233.005 214.032C232.907 214.988 233.602 215.842 234.557 215.94L252.877 217.827C253.833 217.925 254.687 217.231 254.785 216.275L256.672 197.955C256.77 197 256.076 196.146 255.12 196.047Z" fill="black"/>
</g>
<path d="M251.761 195.696L233.441 193.809C232.485 193.711 231.631 194.405 231.533 195.361L229.646 213.681C229.548 214.636 230.242 215.49 231.198 215.589L249.518 217.475C250.473 217.574 251.327 216.879 251.426 215.924L253.312 197.604C253.411 196.648 252.716 195.794 251.761 195.696Z" fill="#263238"/>
<path d="M236.66 204.745L236.574 205.576L246.304 206.578L246.39 205.747L236.66 204.745Z" fill="white"/>
<path d="M220.347 224.737L202.027 222.85C201.071 222.752 200.217 223.446 200.119 224.402L198.232 242.722C198.134 243.677 198.828 244.531 199.784 244.63L218.104 246.516C219.059 246.615 219.913 245.92 220.012 244.965L221.898 226.645C221.997 225.689 221.302 224.835 220.347 224.737Z" fill="#04242D"/>
<g opacity="0.4">
<path d="M220.343 224.737L202.023 222.85C201.067 222.752 200.213 223.446 200.115 224.402L198.228 242.722C198.13 243.677 198.824 244.531 199.78 244.63L218.1 246.516C219.055 246.615 219.909 245.92 220.008 244.965L221.894 226.645C221.993 225.689 221.298 224.835 220.343 224.737Z" fill="black"/>
</g>
<path d="M216.98 224.385L198.659 222.498C197.704 222.4 196.85 223.095 196.752 224.05L194.865 242.37C194.766 243.326 195.461 244.18 196.416 244.278L214.737 246.165C215.692 246.263 216.546 245.569 216.644 244.613L218.531 226.293C218.63 225.338 217.935 224.484 216.98 224.385Z" fill="#263238"/>
<path d="M251.831 227.979L233.511 226.092C232.556 225.994 231.701 226.688 231.603 227.644L229.716 245.964C229.618 246.919 230.313 247.773 231.268 247.872L249.588 249.759C250.543 249.857 251.398 249.162 251.496 248.207L253.383 229.887C253.481 228.932 252.786 228.077 251.831 227.979Z" fill="#04242D"/>
<g opacity="0.4">
<path d="M251.831 227.979L233.511 226.092C232.556 225.994 231.701 226.688 231.603 227.644L229.716 245.964C229.618 246.919 230.313 247.773 231.268 247.872L249.588 249.759C250.543 249.857 251.398 249.162 251.496 248.207L253.383 229.887C253.481 228.932 252.786 228.077 251.831 227.979Z" fill="black"/>
</g>
<path d="M248.476 227.627L230.156 225.741C229.2 225.642 228.346 226.337 228.248 227.292L226.361 245.612C226.263 246.568 226.957 247.422 227.913 247.52L246.233 249.407C247.188 249.505 248.042 248.811 248.141 247.855L250.027 229.535C250.126 228.58 249.431 227.726 248.476 227.627Z" fill="#455A64"/>
<path d="M233.5 235.489L233.414 236.32L243.144 237.322L243.229 236.491L233.5 235.489Z" fill="white"/>
<path d="M233.125 239.186L233.039 240.018L242.769 241.02L242.854 240.188L233.125 239.186Z" fill="white"/>
<path d="M184.46 220.752L136.036 215.765C134.888 215.647 133.861 216.482 133.743 217.63L131.871 235.809C131.752 236.957 132.587 237.983 133.736 238.102L182.16 243.089C183.308 243.207 184.335 242.372 184.453 241.224L186.325 223.045C186.443 221.897 185.608 220.87 184.46 220.752Z" fill="#263238"/>
<path d="M157.131 228.796C157.44 225.794 159.279 224.273 161.511 224.499C163.743 224.724 165.223 226.597 164.914 229.598C164.604 232.599 162.782 234.121 160.542 233.887C158.301 233.653 156.821 231.788 157.131 228.796ZM162.799 229.381C163.016 227.316 162.372 226.388 161.327 226.279C160.282 226.171 159.471 226.948 159.262 229.013C159.053 231.078 159.689 232.006 160.725 232.114C161.762 232.223 162.59 231.437 162.799 229.381Z" fill="white"/>
<path d="M206.849 229.423L205.703 239.137L206.533 239.235L207.68 229.521L206.849 229.423Z" fill="white"/>
<path d="M201.883 233.424L201.797 234.256L211.527 235.258L211.612 234.426L201.883 233.424Z" fill="white"/>
<path d="M197.326 80.4571L195.93 94.0253L195.286 93.9585L196.657 80.9921L193.246 80.641L193.305 80.0391L197.326 80.4571Z" fill="#263238"/>
<path d="M208.478 94.7108L208.411 95.3127L199.215 94.368L199.265 93.8999L205.685 88.6414C207.525 87.145 207.968 86.192 208.085 85.0884C208.269 83.2827 207.132 81.9952 204.741 81.7444C203.989 81.6092 203.217 81.6474 202.482 81.856C201.748 82.0647 201.071 82.4382 200.502 82.9483L200.101 82.4801C200.741 81.9225 201.496 81.5133 202.313 81.2821C203.129 81.0508 203.987 81.0032 204.824 81.1425C207.416 81.41 208.929 82.9148 208.703 85.1052C208.57 86.3926 208.051 87.471 206.078 89.0678L200.226 93.8581L208.478 94.7108Z" fill="#263238"/>
<path d="M219.227 92.6196C218.993 94.8768 217.246 96.298 214.261 95.9636C213.382 95.9163 212.523 95.6806 211.742 95.2724C210.962 94.8643 210.279 94.2931 209.738 93.5977L210.14 93.1713C210.637 93.8165 211.268 94.3463 211.99 94.7244C212.711 95.1025 213.506 95.3199 214.32 95.3616C216.911 95.6292 218.399 94.5256 218.608 92.536C218.817 90.5463 217.622 89.192 214.746 88.8659L213.994 88.7823L214.044 88.3225L218.834 83.248L211.352 82.4789L211.41 81.877L219.77 82.713L219.72 83.1727L214.905 88.264C218.048 88.6151 219.461 90.354 219.227 92.6196Z" fill="#263238"/>
<path d="M232.605 93.84L229.654 93.539L229.253 97.4599L228.609 97.393L229.01 93.4721L221.219 92.6361L221.269 92.168L229.721 83.7578L230.473 83.833L222.113 92.1429L229.06 92.8619L229.412 89.4092L230.055 89.476L229.696 92.9204L232.647 93.2297L232.605 93.84Z" fill="#263238"/>
<path d="M235.421 97.5029C235.382 97.7459 235.318 97.984 235.229 98.2135L234.259 100.721L233.758 100.671L234.636 98.0547C234.467 98.0269 234.316 97.9334 234.217 97.7947C234.117 97.6559 234.077 97.4833 234.105 97.3148C234.132 97.1463 234.226 96.9957 234.365 96.8961C234.503 96.7966 234.676 96.7562 234.845 96.7839C235.015 96.8049 235.171 96.8918 235.279 97.0261C235.387 97.1604 235.438 97.3315 235.421 97.5029Z" fill="#263238"/>
<path d="M248.866 95.52L245.924 95.219L245.522 99.1315L244.879 99.0646L245.28 95.1521L237.488 94.3161L237.538 93.848L245.982 85.4629L246.734 85.5465L238.374 93.8563L245.322 94.5669L245.673 91.1142L246.316 91.1811L245.982 94.6338L248.933 94.9348L248.866 95.52Z" fill="#263238"/>
<path d="M258.947 96.641C258.713 98.8481 257.008 100.395 253.931 100.077C253.056 100.027 252.202 99.7896 251.426 99.3815C250.65 98.9734 249.971 98.4038 249.434 97.7111L249.852 97.2847C250.347 97.9324 250.977 98.464 251.699 98.8424C252.421 99.2207 253.217 99.4366 254.032 99.4751C256.682 99.7509 258.128 98.4886 258.329 96.5658C258.546 94.4758 257.426 93.1047 253.547 92.7035L250.913 92.4359L252.251 86.1074L259.248 86.8347L259.19 87.4367L252.727 86.7679L251.616 91.9009L253.706 92.1183C257.852 92.5446 259.19 94.2333 258.947 96.641Z" fill="#263238"/>
<path d="M110.649 374.67L105.332 394.324L122.612 395.896L126.24 377.186L110.649 374.67Z" fill="#04242D"/>
<path d="M123.089 394.298C122.253 394.358 121.412 394.33 120.581 394.215C119.027 394.089 116.886 393.847 114.52 393.546L108.485 392.71C107.637 392.646 106.797 392.5 105.977 392.275C106.814 392.227 107.654 392.261 108.485 392.375C110.04 392.501 112.18 392.743 114.546 393.044L120.581 393.88C121.428 393.948 122.267 394.088 123.089 394.298Z" fill="#263238"/>
<g opacity="0.6">
<path d="M105.332 394.324L122.612 395.896L122.888 394.458L105.834 392.293L105.357 394.124" fill="white"/>
</g>
<path d="M113.895 393.447C114.865 388.399 116.093 383.405 117.573 378.482C117.148 381.018 116.59 383.529 115.901 386.006C115.361 388.52 114.692 391.003 113.895 393.447Z" fill="#263238"/>
<path d="M122.16 394.173C122.431 392.97 122.431 391.722 122.16 390.519C121.856 389.228 121.203 388.044 120.27 387.1C119.108 385.966 117.591 385.266 115.973 385.119C114.358 384.952 112.733 385.322 111.35 386.172C110.227 386.885 109.302 387.868 108.658 389.031C108.086 390.124 107.715 391.31 107.563 392.534C107.552 392.448 107.552 392.361 107.563 392.275C107.56 392.026 107.574 391.778 107.605 391.531C107.725 390.61 108.008 389.719 108.441 388.897C109.076 387.663 110.021 386.614 111.183 385.854C112.631 384.939 114.345 384.539 116.048 384.717C117.757 384.873 119.357 385.621 120.571 386.833C121.533 387.837 122.194 389.091 122.477 390.452C122.664 391.363 122.664 392.301 122.477 393.211C122.424 393.456 122.351 393.697 122.26 393.93C122.238 394.015 122.204 394.097 122.16 394.173Z" fill="#263238"/>
<path d="M181.918 372.429L180.89 387.904C180.89 387.904 196.289 393.012 196.381 395.887L166.285 396.105L166.895 371.928L181.918 372.429Z" fill="#04242D"/>
<g opacity="0.6">
<path d="M171.627 386.322C171.335 386.403 171.083 386.588 170.918 386.842C170.753 387.096 170.687 387.402 170.733 387.702C170.801 387.998 170.981 388.256 171.235 388.423C171.489 388.589 171.797 388.652 172.096 388.596C172.404 388.51 172.67 388.313 172.843 388.043C173.015 387.774 173.083 387.45 173.032 387.133C172.929 386.834 172.714 386.585 172.432 386.441C172.15 386.296 171.823 386.265 171.519 386.356" fill="white"/>
</g>
<g opacity="0.6">
<path d="M166.285 396.121L166.444 393.68L195.42 394.516C195.726 394.674 195.988 394.905 196.182 395.19C196.376 395.475 196.496 395.803 196.532 396.146L166.285 396.121Z" fill="white"/>
</g>
<path d="M181.383 387.77C181.383 387.92 180.639 387.962 179.895 388.413C179.151 388.865 178.758 389.467 178.624 389.408C178.49 389.35 178.733 388.505 179.636 387.97C180.539 387.435 181.416 387.636 181.383 387.77Z" fill="#263238"/>
<path d="M184.494 389.173C184.494 389.315 183.884 389.541 183.366 390.151C182.847 390.762 182.68 391.405 182.53 391.397C182.379 391.389 182.312 390.561 182.973 389.809C183.633 389.056 184.503 389.031 184.494 389.173Z" fill="#263238"/>
<path d="M186.172 393.004C186.039 393.004 185.855 392.285 186.256 391.499C186.657 390.713 187.359 390.404 187.418 390.529C187.476 390.654 187.033 391.072 186.716 391.724C186.398 392.377 186.323 392.995 186.172 393.004Z" fill="#263238"/>
<path d="M181.222 384.216C181.156 384.35 180.487 384.124 179.659 384.157C178.831 384.191 178.171 384.433 178.096 384.3C178.021 384.166 178.664 383.673 179.642 383.647C180.621 383.622 181.298 384.107 181.222 384.216Z" fill="#263238"/>
<g opacity="0.3">
<path d="M181.71 375.497L181.527 378.256L166.746 377.67L166.805 375.188L181.71 375.497Z" fill="black"/>
</g>
<path d="M181.376 381.09C180.879 381.208 180.36 381.191 179.872 381.04C179.331 380.926 178.806 380.746 178.308 380.505C178.018 380.365 177.738 380.203 177.472 380.02C177.304 379.924 177.155 379.8 177.029 379.652C176.935 379.545 176.88 379.409 176.872 379.267C176.864 379.124 176.905 378.983 176.987 378.867C177.065 378.768 177.164 378.688 177.277 378.633C177.39 378.578 177.514 378.549 177.639 378.549C177.83 378.553 178.019 378.586 178.2 378.649C178.52 378.736 178.83 378.853 179.128 379C179.63 379.243 180.09 379.565 180.49 379.953C181.167 380.622 181.393 381.174 181.326 381.199C181.259 381.224 180.933 380.781 180.239 380.221C179.836 379.899 179.392 379.632 178.919 379.427C178.649 379.305 178.369 379.207 178.083 379.134C177.765 379.042 177.497 379.025 177.405 379.134C177.313 379.243 177.405 379.209 177.405 379.301C177.502 379.407 177.611 379.499 177.731 379.577C177.993 379.755 178.253 379.914 178.509 380.054C178.969 380.298 179.45 380.5 179.947 380.656C180.432 380.77 180.909 380.916 181.376 381.09Z" fill="#263238"/>
<path d="M181.174 381.299C180.908 380.856 180.786 380.343 180.823 379.828C180.807 378.946 181.039 378.077 181.492 377.32C181.578 377.123 181.713 376.952 181.884 376.823C182.056 376.695 182.257 376.612 182.47 376.584C182.605 376.59 182.735 376.634 182.845 376.713C182.955 376.792 183.04 376.901 183.088 377.027C183.16 377.204 183.208 377.389 183.231 377.579C183.283 378.031 183.246 378.489 183.121 378.926C182.996 379.364 182.786 379.772 182.503 380.129C181.893 380.898 181.274 381.048 181.266 380.965C181.258 380.881 181.743 380.622 182.211 379.886C182.483 379.464 182.66 378.988 182.729 378.49C182.771 378.199 182.771 377.903 182.729 377.612C182.729 377.295 182.579 377.035 182.461 377.061C182.344 377.086 182.052 377.286 181.918 377.537C181.763 377.805 181.629 378.085 181.517 378.373C181.337 378.851 181.224 379.352 181.182 379.861C181.116 380.722 181.258 381.274 181.174 381.299Z" fill="#263238"/>
<path d="M116.66 131.368C116.66 131.368 113.391 149.175 110.808 159.951C108.768 168.311 103.501 184.011 113.04 188.567C122.579 193.123 135.369 174.723 135.369 174.723L140.812 132.806C137.025 133.517 132.728 137.914 128.155 144.376L128.991 128.492L116.66 131.368Z" fill="#349F6E"/>
<path d="M247.928 157.678L242.912 160.069L238.289 152.821L240.989 147.228C241.249 146.71 241.524 146.133 241.825 145.464C242.16 144.681 242.36 143.847 242.419 142.998C242.535 141.951 242.51 140.894 242.344 139.854C242.093 138.918 243.079 138.182 243.748 138.701C244.417 139.219 245.169 141.794 244.676 144.879C244.183 147.964 247.761 144.695 249.09 143.524C250.419 142.354 254.691 138.943 255.369 139.077C256.347 139.269 256.322 140.389 254.967 141.518C253.613 142.647 249.792 146.35 250.419 147.036C251.203 147.124 251.939 147.454 252.526 147.98C253.114 148.506 253.523 149.201 253.697 149.97C254.031 151.483 254.307 153.582 253.454 154.275C251.687 155.527 249.841 156.664 247.928 157.678Z" fill="#FFBE9D"/>
<path d="M150.677 90.111L150.543 133.675L169.219 134.595L169.763 124.002C169.763 124.002 176.4 125.323 178.123 119.154C179.218 115.216 178.959 84.7773 178.959 84.7773L150.677 90.111Z" fill="#FFBE9D"/>
<path d="M183.157 89.0415C181.895 91.6414 175.901 96.4066 175.901 96.4066L173.192 103.663C170.843 101.824 167.683 101.933 167.089 106.062C166.654 109.055 170.366 109.657 170.366 109.657C168.201 113.336 166.738 116.345 163.595 119.806C160.184 123.602 158.278 123.986 154.583 124.045H150.503C150.503 124.045 142.143 117.073 143.815 98.7223C145.487 80.3721 161.964 85.7309 165.902 81.1663C172.314 73.6758 187.362 80.3554 183.157 89.0415Z" fill="#263238"/>
<path d="M144.742 114.063H145.261C145.758 114.054 146.253 113.998 146.74 113.896C148.527 113.489 150.178 112.625 151.531 111.388C153.47 109.484 155.105 107.293 156.379 104.892C157.215 103.58 158.001 102.184 159.004 100.838C160.015 99.4232 161.255 98.1883 162.674 97.1844C164.135 96.2389 165.746 95.5517 167.44 95.1529C169.061 94.7349 170.658 94.4757 172.163 94.1831C175.173 93.623 177.873 92.787 179.687 91.3574C181.172 90.2713 182.247 88.7161 182.738 86.9434C182.857 86.4618 182.919 85.9679 182.922 85.472C182.922 85.1292 182.922 84.9453 182.922 84.9453C182.922 84.9453 182.922 85.1292 182.981 85.472C182.992 85.9723 182.941 86.4721 182.83 86.9601C182.355 88.7608 181.282 90.3467 179.787 91.4578C177.931 92.9124 175.206 93.7735 172.196 94.3336C170.683 94.6345 169.095 94.8937 167.481 95.3201C165.808 95.7178 164.213 96.3962 162.766 97.3265C161.369 98.3254 160.144 99.5452 159.138 100.938C158.143 102.276 157.316 103.663 156.521 104.976C155.232 107.384 153.576 109.579 151.614 111.48C150.244 112.729 148.569 113.594 146.757 113.988C146.264 114.084 145.763 114.132 145.261 114.13C144.918 114.088 144.742 114.063 144.742 114.063Z" fill="#455A64"/>
<path d="M143.781 99.1414C143.781 99.1414 144.074 99.0244 144.617 98.8404C145.449 98.5478 146.309 98.3432 147.184 98.2302C148.576 98.018 149.997 98.3148 151.188 99.0662C151.556 99.3108 151.872 99.6259 152.117 99.9932C152.362 100.361 152.533 100.773 152.618 101.206C152.718 101.696 152.693 102.202 152.547 102.679C152.401 103.157 152.138 103.59 151.782 103.94C151.376 104.297 150.859 104.504 150.319 104.525C149.757 104.534 149.205 104.386 148.722 104.099C147.698 103.492 146.936 102.527 146.582 101.39C146.179 100.193 146.124 98.9059 146.423 97.6784C146.731 96.3814 147.435 95.2126 148.438 94.3344C149.487 93.3938 150.807 92.8086 152.208 92.6624C153.66 92.5717 155.115 92.759 156.497 93.2142C157.918 93.6703 159.371 94.0196 160.844 94.2592C162.365 94.4598 163.905 94.4598 165.425 94.2592C166.947 94.078 168.433 93.6665 169.831 93.0386C170.515 92.763 171.132 92.3445 171.641 91.811C172.15 91.2775 172.539 90.6415 172.782 89.9454C172.981 89.2638 172.996 88.5415 172.824 87.8526C172.652 87.1636 172.3 86.5327 171.804 86.0246C171.3 85.5687 170.672 85.2723 169.999 85.1727C169.327 85.073 168.64 85.1745 168.025 85.4644C167.427 85.7272 166.937 86.1877 166.637 86.7686C166.352 87.3398 166.247 87.984 166.337 88.6162C166.422 89.2213 166.635 89.8012 166.962 90.3173C167.29 90.8334 167.723 91.2738 168.234 91.609C169.218 92.2124 170.349 92.5308 171.503 92.5286C172.567 92.5477 173.626 92.3895 174.638 92.0605C176.391 91.5089 177.983 90.5391 179.278 89.2348C180.263 88.2653 181.074 87.1343 181.677 85.8908C182.058 85.0882 182.352 84.2475 182.555 83.3828C182.664 82.7976 182.739 82.4883 182.739 82.4883L182.588 83.3912C182.403 84.2554 182.123 85.0965 181.752 85.8992C181.162 87.1654 180.353 88.3174 179.361 89.3017C178.064 90.626 176.463 91.6133 174.697 92.1775C173.671 92.5088 172.598 92.6725 171.52 92.6624C170.34 92.6698 169.183 92.3485 168.176 91.7344C167.645 91.3897 167.194 90.9352 166.854 90.4016C166.514 89.8681 166.292 89.2678 166.203 88.6412C166.104 87.9783 166.212 87.3011 166.512 86.7017C166.829 86.0894 167.345 85.6031 167.975 85.3223C168.619 85.0168 169.34 84.9094 170.045 85.0135C170.751 85.1177 171.409 85.4288 171.938 85.9075C172.454 86.4359 172.822 87.0919 173.003 87.8086C173.183 88.5252 173.171 89.277 172.966 89.9872C172.715 90.7073 172.314 91.3658 171.789 91.9193C171.265 92.4727 170.629 92.9084 169.923 93.1974C168.508 93.8299 167.006 94.2469 165.467 94.4347C163.93 94.6312 162.373 94.6312 160.836 94.4347C159.358 94.1931 157.899 93.8438 156.472 93.3897C155.109 92.9422 153.674 92.7522 152.242 92.8296C151.27 92.9331 150.333 93.2533 149.502 93.7664C148.67 94.2796 147.964 94.9727 147.435 95.7949C146.906 96.617 146.569 97.5472 146.447 98.5169C146.326 99.4867 146.423 100.471 146.732 101.399C147.076 102.501 147.814 103.439 148.806 104.032C149.265 104.307 149.791 104.452 150.327 104.45C150.839 104.431 151.329 104.236 151.715 103.898C152.054 103.56 152.303 103.144 152.442 102.686C152.58 102.227 152.603 101.742 152.509 101.273C152.341 100.429 151.849 99.6848 151.138 99.1999C149.966 98.4562 148.565 98.1594 147.192 98.3639C146.322 98.4687 145.465 98.662 144.634 98.9408L143.781 99.1414Z" fill="#455A64"/>
<path d="M131.457 217.736L106.578 381.158L127.244 383.774L156.395 246.712L163.744 384.702L186.14 384.309L182.428 218.121L131.457 217.736Z" fill="#263238"/>
<path d="M163.342 385.12V384.718L156.17 249.888L127.57 384.242L106.102 381.516L131.098 217.359L182.838 217.744L186.567 384.76L163.342 385.12ZM156.654 243.526L164.178 384.275L185.756 383.899L182.061 218.538L131.817 218.195L107.055 380.789L126.91 383.297L156.654 243.526Z" fill="#263238"/>
<path d="M179.487 384.041C179.361 384.041 179.27 351.303 179.27 310.924C179.27 270.546 179.361 237.791 179.487 237.791C179.612 237.791 179.704 270.529 179.704 310.924C179.704 351.32 179.604 384.041 179.487 384.041Z" fill="#455A64"/>
<path d="M122.695 383.448C122.701 383.33 122.718 383.212 122.745 383.097C122.745 382.838 122.854 382.495 122.938 382.06C123.113 381.132 123.372 379.795 123.699 378.089C124.401 374.62 125.371 369.646 126.633 363.501C129.141 351.187 132.694 334.199 136.774 315.473C140.853 296.747 144.69 279.809 147.533 267.579C148.962 261.476 150.124 256.535 150.935 253.091C151.345 251.419 151.671 250.081 151.888 249.162C151.997 248.727 152.089 248.392 152.148 248.142C152.176 248.025 152.212 247.91 152.256 247.799C152.256 247.799 152.256 247.916 152.189 248.15C152.123 248.384 152.072 248.744 151.98 249.178C151.771 250.106 151.479 251.435 151.103 253.133C150.325 256.577 149.213 261.493 147.834 267.645C145.067 279.901 141.28 296.839 137.2 315.565C133.12 334.291 129.517 351.271 126.934 363.56C125.638 369.696 124.593 374.662 123.866 378.123C123.506 379.795 123.222 381.149 123.03 382.077L122.796 383.105C122.774 383.223 122.74 383.338 122.695 383.448Z" fill="#455A64"/>
<path d="M163.745 246.562C163.437 246.644 163.119 246.686 162.8 246.687L160.217 246.871C158.035 247.013 155.017 247.164 151.706 247.49C148.396 247.816 145.411 248.267 143.246 248.551L140.68 248.877C140.366 248.938 140.045 248.957 139.727 248.936C140.026 248.826 140.338 248.75 140.655 248.71C141.248 248.585 142.118 248.426 143.163 248.242C145.319 247.883 148.304 247.406 151.631 247.055C154.958 246.704 157.985 246.629 160.167 246.562C161.262 246.562 162.148 246.52 162.758 246.52C163.088 246.498 163.419 246.512 163.745 246.562Z" fill="#455A64"/>
<path d="M182.864 235.952C182.66 236.042 182.442 236.096 182.22 236.111C181.622 236.198 181.018 236.226 180.414 236.195C178.407 236.088 176.473 235.406 174.843 234.23C173.213 233.055 171.954 231.436 171.218 229.565C170.996 229.004 170.831 228.421 170.725 227.826C170.65 227.408 170.642 227.174 170.675 227.166C170.708 227.158 170.892 228.086 171.511 229.44C172.312 231.208 173.556 232.74 175.122 233.887C176.705 235.008 178.552 235.696 180.481 235.886C181.919 236.036 182.847 235.869 182.864 235.952Z" fill="#455A64"/>
<path d="M127.203 220.945L184.452 220.761L181.317 182.982C180.975 174.338 181.025 173.301 180.807 165.326C180.807 165.326 188.933 175.149 195.329 182.046C197.213 184.073 199.694 185.446 202.412 185.968C205.13 186.489 207.943 186.132 210.444 184.947L243.884 161.614L237.622 145.588L207.233 164.189C205.837 163.353 194.008 146.441 185.832 138.206C180.597 132.936 173.536 129.879 166.111 129.671C159.948 129.526 153.783 129.775 147.652 130.415C143.186 130.893 139.026 132.912 135.887 136.125C132.749 139.338 130.828 143.545 130.455 148.021C129.862 155.085 130.338 163.286 130.338 177.222L127.203 220.945Z" fill="#349F6E"/>
<path d="M129.892 151.842C129.892 151.842 129.892 152.001 129.892 152.285C129.892 152.569 129.892 153.046 129.892 153.547C129.892 154.651 129.892 156.239 129.892 158.204C129.892 162.133 130.068 167.55 130.244 173.544C130.419 179.538 130.444 184.972 130.294 188.893C130.227 190.858 130.135 192.446 130.043 193.541C130.043 194.051 129.968 194.469 129.943 194.804C129.918 195.138 129.892 195.239 129.892 195.239C129.892 195.239 129.892 195.088 129.892 194.804C129.892 194.52 129.934 194.043 129.959 193.541C130.035 192.446 130.101 190.858 130.152 188.893C130.269 184.964 130.219 179.538 130.051 173.544C129.884 167.55 129.742 162.133 129.75 158.204C129.75 156.239 129.75 154.651 129.809 153.547C129.809 153.037 129.809 152.628 129.851 152.285C129.892 151.942 129.892 151.842 129.892 151.842Z" fill="#263238"/>
<path d="M205.977 169.599C205.986 169.333 206.026 169.069 206.094 168.813C206.194 168.328 206.336 167.659 206.512 166.932C206.687 166.204 206.846 165.536 206.971 165.067C207.021 164.805 207.102 164.549 207.214 164.307C207.203 164.573 207.161 164.836 207.088 165.092C206.996 165.577 206.846 166.238 206.679 166.973C206.512 167.709 206.344 168.361 206.219 168.838C206.166 169.099 206.085 169.355 205.977 169.599Z" fill="#263238"/>
<path d="M209.028 170.067C208.708 169.08 208.449 168.075 208.251 167.057C207.993 166.052 207.79 165.033 207.641 164.006C207.956 164.994 208.215 165.999 208.418 167.015C208.676 168.021 208.879 169.04 209.028 170.067Z" fill="#263238"/>
<path d="M182.219 166.739L181.91 166.455L181.032 165.619C180.279 164.883 179.193 163.805 177.889 162.425C176.359 160.822 174.935 159.121 173.625 157.334C172.004 155.147 170.695 152.744 169.738 150.195C168.769 147.64 168.334 144.915 168.458 142.186C168.5 139.957 168.989 137.76 169.896 135.724C170.546 134.362 171.512 133.175 172.714 132.263C173.036 132.018 173.374 131.794 173.725 131.594L174.101 131.385C174.101 131.385 173.583 131.669 172.755 132.313C171.582 133.237 170.641 134.422 170.005 135.774C169.122 137.801 168.651 139.983 168.617 142.194C168.5 144.902 168.939 147.604 169.905 150.136C170.857 152.669 172.151 155.06 173.75 157.242C175.054 159.027 176.467 160.73 177.98 162.342C179.268 163.73 180.338 164.85 181.082 165.577L181.918 166.413C182.127 166.631 182.219 166.739 182.219 166.739Z" fill="#263238"/>
<path d="M145.008 151.199C144.252 150.588 143.59 149.87 143.044 149.067C142.391 148.352 141.845 147.546 141.422 146.676C142.177 147.284 142.838 148 143.386 148.799C144.042 149.515 144.589 150.323 145.008 151.199Z" fill="#FAFAFA"/>
<path d="M158.016 165.963C157.223 167.06 156.315 168.069 155.307 168.972C154.4 169.98 153.388 170.888 152.289 171.681C153.989 169.577 155.909 167.66 158.016 165.963Z" fill="#FAFAFA"/>
<path d="M170.605 187.155C170.488 187.155 170.028 185.901 169.176 184.455C168.323 183.009 167.437 181.947 167.504 181.889C168.366 182.488 169.062 183.296 169.527 184.238C170.124 185.105 170.495 186.108 170.605 187.155Z" fill="#FAFAFA"/>
<path d="M137.969 184.755C136.696 182.086 136.176 179.12 136.464 176.178C136.598 176.178 136.631 178.134 137.057 180.491C137.484 182.849 138.136 184.705 137.969 184.755Z" fill="#FAFAFA"/>
<path d="M155.299 194.085C154.257 191.841 154.032 189.304 154.663 186.912C154.789 186.912 154.605 188.542 154.789 190.515C154.973 192.488 155.424 194.043 155.299 194.085Z" fill="#FAFAFA"/>
<path d="M148.445 207.636C147.066 207.035 145.75 206.299 144.516 205.438C143.203 204.701 141.963 203.842 140.812 202.871C142.194 203.473 143.513 204.209 144.75 205.07C146.061 205.806 147.298 206.665 148.445 207.636Z" fill="#FAFAFA"/>
<path d="M175.399 203.633C175.457 203.75 173.518 204.711 171.269 206.141C169.02 207.57 167.306 208.9 167.223 208.799C168.334 207.605 169.619 206.585 171.035 205.773C172.372 204.841 173.844 204.12 175.399 203.633Z" fill="#FAFAFA"/>
<path d="M141.482 218.957C140.071 218.891 138.671 218.684 137.302 218.339C135.892 218.131 134.508 217.778 133.172 217.285C134.583 217.352 135.983 217.562 137.352 217.912C138.76 218.119 140.144 218.47 141.482 218.957Z" fill="#FAFAFA"/>
<path d="M159.57 216.014C157.975 214.467 156.893 212.468 156.469 210.287C156.586 210.287 157.104 211.608 157.965 213.18C158.826 214.751 159.671 215.93 159.57 216.014Z" fill="#FAFAFA"/>
<path d="M179.937 217.426C179.623 218.134 179.181 218.777 178.633 219.324C177.797 220.294 177.095 220.996 176.961 220.946C177.268 220.23 177.711 219.579 178.265 219.031C179.101 218.078 179.812 217.359 179.937 217.426Z" fill="#FAFAFA"/>
<path d="M142.708 159.959C142.775 160.059 142.031 160.678 141.036 161.33C140.471 161.793 139.82 162.139 139.121 162.35C139.054 162.25 139.807 161.631 140.793 160.971C141.357 160.509 142.008 160.165 142.708 159.959Z" fill="#FAFAFA"/>
<path d="M156.821 144.202C156.151 142.831 155.645 141.386 155.316 139.896C154.864 138.443 154.584 136.942 154.48 135.424C155.006 136.847 155.43 138.305 155.751 139.788C156.212 141.232 156.57 142.707 156.821 144.202Z" fill="#FAFAFA"/>
<path d="M170.374 158.547C170.316 158.664 169.095 158.196 167.532 157.904C165.969 157.611 164.656 157.586 164.656 157.452C166.632 157.108 168.666 157.497 170.374 158.547Z" fill="#FAFAFA"/>
<path d="M179.687 146.357C178.649 146.661 177.551 146.698 176.494 146.466C175.417 146.373 174.381 146.008 173.484 145.404C173.535 145.287 174.855 145.781 176.561 146.031C178.266 146.282 179.671 146.232 179.687 146.357Z" fill="#FAFAFA"/>
<path d="M189.207 159.952C189.05 158.414 189.129 156.861 189.441 155.346C189.62 153.808 190.038 152.308 190.679 150.898C190.796 150.898 190.269 152.922 189.843 155.413C189.416 157.904 189.341 159.961 189.207 159.952Z" fill="#FAFAFA"/>
<path d="M200.412 175.969C198.328 174.228 196.439 172.266 194.777 170.117C196.856 171.864 198.745 173.826 200.412 175.969Z" fill="#FAFAFA"/>
<path d="M209.723 174.723C208.859 176.613 207.733 178.372 206.379 179.948C206.75 178.97 207.257 178.05 207.884 177.214C208.377 176.301 208.996 175.463 209.723 174.723Z" fill="#FAFAFA"/>
<path d="M220.531 169.465C219.803 168.471 219.197 167.393 218.725 166.255C218.124 165.176 217.65 164.032 217.312 162.844C218.039 163.842 218.645 164.922 219.118 166.062C219.719 167.138 220.193 168.28 220.531 169.465Z" fill="#FAFAFA"/>
<path d="M235.248 163.38C232.669 163.218 230.117 162.764 227.641 162.025C228.936 162.038 230.226 162.195 231.486 162.494C232.77 162.646 234.032 162.943 235.248 163.38Z" fill="#FAFAFA"/>
<path d="M118.375 179.038C119.268 176.441 120.44 173.949 121.869 171.605C121.488 172.925 120.966 174.2 120.315 175.409C119.798 176.684 119.148 177.9 118.375 179.038Z" fill="#FAFAFA"/>
<path d="M126.173 165.276C125.238 164.545 124.396 163.703 123.665 162.768C122.821 161.929 122.078 160.995 121.449 159.984C122.387 160.712 123.229 161.555 123.957 162.492C124.805 163.328 125.549 164.262 126.173 165.276Z" fill="#FAFAFA"/>
<path d="M125.52 187.373C125.595 187.465 125.018 188.075 124.232 188.735C123.447 189.396 122.736 189.847 122.652 189.755C122.569 189.663 123.162 189.053 123.948 188.401C124.734 187.749 125.445 187.264 125.52 187.373Z" fill="#FAFAFA"/>
<path d="M128.155 150.654C128.255 150.73 127.904 151.323 127.378 151.984C126.851 152.644 126.341 153.112 126.249 153.037C126.157 152.962 126.508 152.368 127.035 151.708C127.562 151.047 128.105 150.579 128.155 150.654Z" fill="#FAFAFA"/>
<g opacity="0.3">
<path d="M171.852 154.451C175.388 165.562 178.113 177.224 181.649 188.334L180.813 165.328C177.375 162.099 174.363 158.444 171.852 154.451Z" fill="black"/>
</g>
<path d="M114.328 168.988C114.357 168.897 114.394 168.807 114.437 168.721L114.771 167.943C115.072 167.275 115.515 166.322 116.084 165.143C117.221 162.785 118.859 159.567 120.832 156.089C122.805 152.611 124.72 149.551 126.158 147.37C126.876 146.274 127.47 145.397 127.888 144.803L128.373 144.117C128.49 143.959 128.548 143.875 128.557 143.883L128.406 144.134L127.947 144.836L126.275 147.436C124.862 149.635 122.931 152.703 120.999 156.173C119.068 159.642 117.371 162.861 116.217 165.193L114.855 167.977C114.713 168.261 114.587 168.512 114.487 168.729C114.443 168.821 114.39 168.908 114.328 168.988Z" fill="#263238"/>
<path d="M119.969 158.346C119.671 158.494 119.364 158.622 119.049 158.73C118.323 159.047 117.628 159.434 116.976 159.884C116.328 160.339 115.726 160.857 115.179 161.431C114.752 161.874 114.518 162.166 114.501 162.15C114.485 162.133 114.501 162.066 114.635 161.924C114.774 161.723 114.925 161.53 115.087 161.347C115.613 160.738 116.214 160.199 116.876 159.742C117.538 159.282 118.254 158.906 119.007 158.622C119.234 158.533 119.466 158.458 119.701 158.396C119.788 158.367 119.878 158.35 119.969 158.346Z" fill="#263238"/>
<path d="M120.757 141.199C120.041 142.569 119.201 143.87 118.249 145.087C117.399 146.385 116.428 147.6 115.348 148.715C116.067 147.35 116.906 146.052 117.856 144.836C118.707 143.536 119.678 142.318 120.757 141.199Z" fill="#FAFAFA"/>
<path d="M126.793 127.607C127.207 127.68 127.634 127.623 128.014 127.443C128.395 127.263 128.71 126.97 128.916 126.603C129.385 125.901 129.602 125.065 130.012 124.33C131.257 122.148 134.083 121.195 135.22 118.954C135.379 118.636 135.471 118.202 135.22 117.984C134.969 117.767 134.593 117.917 134.3 118.06L126.86 121.788" fill="#FFBE9D"/>
<path d="M126.841 121.787C127.071 121.591 127.327 121.428 127.602 121.302C128.103 121.018 128.847 120.625 129.767 120.14L132.994 118.468L133.939 117.992C134.29 117.742 134.724 117.637 135.151 117.699C135.282 117.749 135.395 117.837 135.475 117.952C135.555 118.067 135.6 118.203 135.602 118.343C135.606 118.575 135.554 118.804 135.452 119.012C135.27 119.38 135.046 119.725 134.783 120.04C133.736 121.098 132.619 122.084 131.439 122.991C130.966 123.405 130.558 123.887 130.227 124.421C129.926 124.931 129.733 125.457 129.499 125.934C129.351 126.337 129.117 126.702 128.812 127.004C128.507 127.306 128.14 127.537 127.735 127.681C127.588 127.74 127.43 127.764 127.272 127.753C127.114 127.741 126.961 127.694 126.824 127.614C127.107 127.624 127.389 127.588 127.66 127.506C128.014 127.345 128.331 127.113 128.593 126.826C128.854 126.538 129.055 126.201 129.182 125.834C129.383 125.301 129.612 124.779 129.867 124.27C130.204 123.691 130.627 123.167 131.121 122.715C132.292 121.804 133.409 120.824 134.465 119.781C134.698 119.492 134.903 119.181 135.076 118.853C135.226 118.544 135.226 118.218 135.076 118.176C134.925 118.134 134.54 118.276 134.24 118.435L133.295 118.903L130.018 120.492C129.081 120.935 128.346 121.328 127.786 121.52C127.486 121.657 127.168 121.747 126.841 121.787Z" fill="#EB996E"/>
<path d="M360.188 351.445H307.27V358.718H360.188V351.445Z" fill="#263238"/>
<path d="M360.27 358.802H307.176V351.354H360.27V358.802ZM307.36 358.643H360.086V351.554H307.36V358.643Z" fill="#263238"/>
<path d="M312.176 356.295L319.792 393.865H347.973L355.33 358.711L312.176 356.295Z" fill="#263238"/>
<path d="M312.176 390.311L316.239 395.895H350.49L355.33 390.311H312.176Z" fill="#455A64"/>
<path d="M331.739 357.389C331.63 357.389 331.496 339.984 331.438 318.515C331.379 297.047 331.438 279.633 331.521 279.633C331.605 279.633 331.755 297.038 331.814 318.515C331.872 339.992 331.839 357.389 331.739 357.389Z" fill="#263238"/>
<path d="M343.524 313.826C343.49 313.967 343.442 314.104 343.382 314.236L342.906 315.356C342.805 315.607 342.688 315.874 342.563 316.192L342.212 317.187C342.086 317.538 341.944 317.914 341.802 318.315C341.66 318.717 341.551 319.151 341.409 319.611C340.781 321.738 340.286 323.902 339.93 326.09C339.514 328.775 339.235 331.478 339.094 334.191C338.9 339.127 339.04 344.071 339.512 348.988C339.687 350.878 339.854 352.408 339.98 353.461C340.038 353.954 340.08 354.355 340.114 354.673C340.125 354.815 340.125 354.958 340.114 355.099C340.059 354.969 340.025 354.831 340.013 354.69C339.963 354.372 339.896 353.971 339.813 353.478C339.637 352.433 339.428 350.903 339.227 349.013C338.697 344.078 338.546 339.108 338.776 334.149C338.909 331.422 339.188 328.704 339.612 326.007C339.987 323.805 340.512 321.632 341.184 319.503C341.326 319.051 341.451 318.616 341.602 318.215L342.036 317.087C342.178 316.735 342.304 316.409 342.421 316.1C342.538 315.791 342.688 315.54 342.797 315.264L343.34 314.169C343.389 314.048 343.451 313.933 343.524 313.826Z" fill="#263238"/>
<path d="M342.17 299.748C342.126 299.943 342.07 300.136 342.003 300.325C341.861 300.726 341.677 301.261 341.451 301.938C341.326 302.298 341.192 302.682 341.05 303.109L340.624 304.513C340.314 305.525 339.955 306.662 339.637 307.958C339.462 308.593 339.286 309.27 339.102 309.964C338.918 310.658 338.776 311.41 338.609 312.171C338.241 313.684 337.973 315.331 337.631 317.045C337.045 320.506 336.536 324.326 336.176 328.356C335.817 332.385 335.7 336.248 335.649 339.759C335.599 343.27 335.649 346.447 335.825 349.072C335.875 350.401 335.959 351.58 336.026 352.65C336.092 353.72 336.151 354.606 336.218 355.35C336.285 356.094 336.318 356.629 336.352 357.022C336.372 357.22 336.372 357.419 336.352 357.616C336.304 357.424 336.273 357.228 336.26 357.031L336.059 355.359C335.967 354.623 335.875 353.687 335.8 352.667C335.725 351.647 335.608 350.418 335.541 349.089C335.365 346.439 335.29 343.237 335.282 339.751C335.273 336.265 335.449 332.369 335.783 328.331C336.118 324.293 336.669 320.447 337.271 316.986C337.622 315.264 337.898 313.642 338.283 312.096C338.467 311.335 338.634 310.599 338.801 309.897C338.968 309.195 339.186 308.526 339.361 307.882C339.696 306.595 340.072 305.45 340.406 304.446L340.858 303.05C341.016 302.632 341.167 302.214 341.292 301.888L341.911 300.3C341.986 300.111 342.073 299.927 342.17 299.748Z" fill="#263238"/>
<path d="M328.386 360.466V360.265C328.386 360.106 328.386 359.914 328.336 359.663C328.294 359.111 328.244 358.342 328.177 357.364C328.052 355.333 327.876 352.44 327.651 348.879C327.191 341.722 326.522 331.833 325.318 320.956C324.708 315.522 323.989 310.356 323.253 305.674C322.852 303.342 322.501 301.118 322.091 299.045C321.682 296.971 321.322 295.049 320.946 293.293C320.57 291.537 320.21 289.949 319.901 288.57C319.592 287.19 319.299 285.995 319.065 285.017C318.831 284.038 318.647 283.345 318.521 282.776C318.463 282.534 318.421 282.341 318.388 282.191C318.354 282.04 318.346 281.99 318.388 281.99C318.415 282.053 318.437 282.117 318.455 282.183C318.455 282.333 318.555 282.517 318.622 282.759C318.772 283.294 318.981 284.038 319.24 284.983C319.5 285.928 319.834 287.132 320.16 288.519C320.486 289.907 320.896 291.479 321.264 293.243C321.631 295.007 322.1 296.913 322.451 298.986C322.802 301.059 323.236 303.283 323.646 305.624C324.407 310.306 325.134 315.472 325.744 320.914C326.948 331.782 327.575 341.706 327.968 348.87C328.161 352.448 328.294 355.349 328.378 357.356C328.378 358.334 328.445 359.111 328.461 359.663C328.461 359.905 328.461 360.106 328.461 360.265C328.45 360.336 328.425 360.404 328.386 360.466Z" fill="#263238"/>
<path d="M331.304 288.002C331.078 285.536 328.587 283.672 326.104 283.646C324.864 283.702 323.653 284.038 322.563 284.631C321.472 285.223 320.53 286.056 319.809 287.066C318.384 289.102 317.355 291.388 316.774 293.804C314.966 299.592 314.333 305.683 314.91 311.719C315.621 317.722 318.053 323.632 322.359 327.871C323.061 328.565 323.972 329.25 324.934 329.05C325.45 328.894 325.917 328.606 326.288 328.214C330.503 324.351 333.844 319.633 336.087 314.375C338.331 309.117 339.425 303.44 339.296 297.725C339.229 295.442 338.928 293.068 337.666 291.17C336.404 289.273 333.486 287.25 331.304 288.01" fill="#AFAFAF"/>
<path d="M312.811 268.248L309.325 274.568C309.241 274.71 309.133 274.877 308.966 274.894C308.798 274.91 308.648 274.735 308.548 274.584C305.471 269.864 302.406 265.143 299.352 260.423L301.475 259.219L312.811 268.248Z" fill="#04242D"/>
<g opacity="0.2">
<path d="M312.811 268.248L309.325 274.568C309.241 274.71 309.133 274.877 308.966 274.894C308.798 274.91 308.648 274.735 308.548 274.584C305.471 269.864 302.406 265.143 299.352 260.423L301.475 259.219L312.811 268.248Z" fill="#AFAFAF"/>
</g>
<path d="M331.519 279.633L300.061 261.066C299.714 260.919 299.438 260.643 299.292 260.296C299.166 259.828 299.517 259.385 299.852 259.034C302.014 256.789 304.636 255.037 307.537 253.897C310.438 252.758 313.551 252.257 316.664 252.43C319.774 252.655 322.783 253.634 325.43 255.281C328.078 256.928 330.285 259.195 331.862 261.885C334.897 267.311 334.997 274.483 331.519 279.633Z" fill="#AFAFAF"/>
<path d="M304.594 255.146C304.727 255.108 304.865 255.088 305.003 255.087C305.279 255.087 305.681 255.029 306.191 255.037C307.655 255.018 309.119 255.132 310.563 255.38C315.354 256.191 319.814 258.353 323.42 261.611C327.026 264.869 329.628 269.087 330.919 273.772C331.31 275.181 331.573 276.622 331.705 278.077C331.721 278.384 331.721 278.691 331.705 278.997C331.684 279.242 331.601 279.478 331.463 279.683C331.56 279.159 331.577 278.623 331.513 278.094C331.331 276.657 331.035 275.237 330.627 273.847C329.046 268.551 325.828 263.892 321.435 260.539C317.042 257.185 311.699 255.309 306.174 255.179C305.162 255.154 304.594 255.179 304.594 255.146Z" fill="#263238"/>
<path d="M327.257 266.816C326.757 267.119 326.224 267.363 325.669 267.544C324.665 267.937 323.269 268.438 321.698 268.94C320.126 269.441 318.696 269.834 317.651 270.085C317.093 270.257 316.519 270.369 315.938 270.42C316.47 270.16 317.031 269.964 317.61 269.834L321.622 268.58L325.61 267.293C326.142 267.079 326.693 266.92 327.257 266.816Z" fill="#263238"/>
<path d="M322.308 253.508C322.587 254.657 322.711 255.837 322.676 257.019C322.767 258.198 322.702 259.384 322.484 260.547C322.327 259.381 322.266 258.204 322.3 257.027C322.21 255.856 322.213 254.679 322.308 253.508Z" fill="#263238"/>
<path d="M299.785 260.714C300.522 260.375 301.286 260.095 302.067 259.878C303.497 259.435 305.487 258.883 307.71 258.348C309.934 257.813 311.949 257.404 313.429 257.144C314.218 256.967 315.02 256.858 315.828 256.818C315.059 257.066 314.274 257.262 313.479 257.404C312.024 257.73 310.009 258.181 307.794 258.708C305.579 259.234 303.614 259.761 302.143 260.137C301.371 260.383 300.583 260.576 299.785 260.714Z" fill="#263238"/>
<path d="M318.245 282.652C315.545 280.595 312.678 280.194 309.292 280.328C305.895 280.547 302.57 281.397 299.486 282.836C294.177 285.16 289.194 288.579 286.026 293.428C282.857 298.277 281.746 304.697 284.12 309.972C284.306 310.525 284.69 310.99 285.198 311.277C285.786 311.45 286.416 311.402 286.971 311.143C293.007 309.178 299.084 307.189 304.627 304.104C310.17 301.019 315.227 296.739 318.204 291.137C318.967 289.814 319.454 288.349 319.633 286.832C319.713 286.077 319.631 285.313 319.392 284.592C319.152 283.871 318.761 283.209 318.245 282.652Z" fill="#AFAFAF"/>
<path d="M318.303 282.016C318.162 282.082 318.017 282.141 317.869 282.191L316.606 282.626L315.687 282.927L314.617 283.345C313.856 283.654 312.945 283.964 312.033 284.415L310.554 285.092C310.044 285.326 309.534 285.619 308.99 285.928C307.895 286.463 306.792 287.149 305.646 287.851C300.584 290.977 296.085 294.934 292.337 299.555C291.501 300.642 290.665 301.645 289.996 302.665C289.654 303.166 289.303 303.635 289.002 304.119C288.701 304.604 288.416 305.056 288.166 305.499C287.597 306.335 287.171 307.171 286.77 307.923C286.577 308.283 286.385 308.617 286.218 308.935L285.8 309.771C285.557 310.256 285.365 310.657 285.215 310.966C285.146 311.108 285.068 311.245 284.98 311.376C285.018 311.223 285.071 311.075 285.139 310.933C285.279 310.615 285.454 310.206 285.666 309.704C285.791 309.436 285.917 309.135 286.059 308.818C286.201 308.5 286.393 308.157 286.586 307.79C286.97 307.062 287.38 306.209 287.932 305.332L288.768 303.927C289.06 303.442 289.411 302.966 289.754 302.456C290.414 301.419 291.234 300.399 292.07 299.304C293.96 296.987 296.029 294.821 298.256 292.825C300.516 290.866 302.928 289.091 305.471 287.517C306.658 286.823 307.778 286.145 308.89 285.619C309.433 285.343 309.952 285.059 310.47 284.825L311.967 284.173C312.92 283.729 313.814 283.437 314.583 283.153C314.976 283.01 315.336 282.868 315.67 282.76L316.598 282.484L317.885 282.116C318.021 282.068 318.161 282.034 318.303 282.016Z" fill="#263238"/>
<path d="M297.162 293.436C295.009 294.259 292.812 294.965 290.583 295.551C288.388 296.263 286.155 296.852 283.895 297.315C286.047 296.487 288.244 295.778 290.474 295.191C292.67 294.486 294.902 293.9 297.162 293.436Z" fill="#263238"/>
<path d="M296.892 307.983C296.779 307.306 296.731 306.62 296.75 305.935C296.708 304.664 296.708 302.917 296.75 300.977C296.792 299.038 296.909 297.29 297.018 296.028C297.035 295.341 297.122 294.658 297.277 293.988C297.333 294.673 297.333 295.36 297.277 296.045C297.227 297.433 297.176 299.121 297.118 300.986C297.059 302.85 297.034 304.547 296.993 305.935C297.015 306.619 296.982 307.304 296.892 307.983Z" fill="#263238"/>
<path d="M309.332 301.645C309.232 301.645 308.897 298.092 308.596 293.695C308.295 289.297 308.128 285.719 308.228 285.711C308.329 285.703 308.663 289.264 308.972 293.67C309.282 298.075 309.441 301.637 309.332 301.645Z" fill="#263238"/>
<path d="M293.852 285.368C294.55 285.283 295.255 285.26 295.958 285.301C297.262 285.301 299.051 285.351 301.033 285.418C303.014 285.485 304.812 285.56 306.116 285.636C306.82 285.635 307.523 285.705 308.214 285.845C307.515 285.924 306.81 285.944 306.107 285.903C304.803 285.903 303.006 285.861 301.024 285.794C299.043 285.728 297.246 285.644 295.95 285.569C295.246 285.566 294.543 285.498 293.852 285.368Z" fill="#263238"/>
<path d="M323.731 328.697C323.7 328.56 323.685 328.42 323.689 328.279C323.689 327.962 323.689 327.56 323.631 327.067C323.58 326.014 323.572 324.492 323.631 322.611C323.689 320.73 323.789 318.49 324.015 316.015C324.241 313.541 324.617 310.824 325.127 307.99C325.637 305.156 326.272 302.489 326.916 300.081C327.56 297.673 328.245 295.542 328.881 293.761C329.516 291.98 330.051 290.559 330.469 289.581L330.946 288.461C330.993 288.325 331.058 288.196 331.138 288.076C331.11 288.217 331.068 288.354 331.013 288.486L330.603 289.631C330.227 290.609 329.725 292.047 329.132 293.811C328.538 295.575 327.894 297.74 327.251 300.14C326.607 302.539 326.013 305.206 325.495 308.023C324.977 310.84 324.659 313.549 324.366 316.015C324.074 318.482 323.965 320.714 323.898 322.586C323.831 324.459 323.731 326.039 323.731 327.067C323.731 327.56 323.731 327.962 323.731 328.279C323.745 328.418 323.745 328.558 323.731 328.697Z" fill="#263238"/>
<path d="M325.401 308.1C325.041 308.609 324.62 309.072 324.147 309.479C323.311 310.315 322.183 311.377 320.862 312.539C319.541 313.701 318.354 314.696 317.401 315.398C316.933 315.808 316.42 316.165 315.871 316.46C316.283 315.992 316.739 315.567 317.234 315.189L320.578 312.255L323.922 309.287C324.379 308.848 324.874 308.451 325.401 308.1Z" fill="#263238"/>
<path d="M335.333 316.124C334.835 315.545 334.388 314.924 333.995 314.268L330.885 309.737C329.681 308.023 328.586 306.485 327.708 305.24C327.238 304.639 326.813 304.005 326.438 303.342C326.98 303.88 327.478 304.461 327.926 305.081C328.762 306.193 329.965 307.748 331.194 309.52C332.423 311.292 333.477 312.922 334.212 314.126C334.641 314.759 335.016 315.428 335.333 316.124Z" fill="#263238"/>
<path d="M330.115 290.927C330.165 291.019 326.863 293.242 322.725 295.943C318.586 298.643 315.201 300.691 315.134 300.599C315.067 300.507 318.386 298.283 322.516 295.583C326.646 292.883 330.056 290.81 330.115 290.927Z" fill="#263238"/>
<path d="M339.439 300.959C336.021 297.968 332.77 294.792 329.699 291.445C331.452 292.896 333.127 294.439 334.715 296.068C336.38 297.609 337.957 299.241 339.439 300.959Z" fill="#263238"/>
<path d="M341.786 300.759L344.62 300.525C346.636 300.361 348.593 299.762 350.355 298.769C351.215 298.264 352.109 297.817 353.03 297.432C356.541 296.019 360.462 296.27 364.232 296.077C370.421 295.765 376.484 294.216 382.064 291.521C382.389 291.372 382.66 291.127 382.842 290.819C383.419 289.757 382.34 288.812 381.404 288.236C376.622 285.285 371.756 282.3 366.356 280.837C360.955 279.374 354.769 279.625 350.137 282.81C344.703 286.547 342.73 294.23 341.777 300.759" fill="#AFAFAF"/>
<path d="M382.902 290.468C382.736 290.409 382.577 290.333 382.426 290.242L381.08 289.54C379.91 288.93 378.229 288.018 376.064 287.032C373.593 285.821 371.019 284.83 368.373 284.073C365.136 283.138 361.746 282.854 358.399 283.237C355.048 283.611 351.883 284.97 349.304 287.141C347.289 289.026 345.679 291.301 344.572 293.829C343.8 295.521 343.114 297.251 342.515 299.012C342.298 299.605 342.131 300.082 342.005 300.441C341.957 300.613 341.889 300.778 341.805 300.935C341.834 300.759 341.876 300.586 341.93 300.416C342.047 300.049 342.189 299.58 342.373 298.962C342.917 297.176 343.571 295.425 344.329 293.72C345.422 291.149 347.039 288.834 349.078 286.923C351.697 284.686 354.926 283.286 358.349 282.902C361.743 282.496 365.184 282.781 368.465 283.738C371.127 284.513 373.711 285.538 376.181 286.798C378.296 287.851 379.96 288.788 381.105 289.448L382.418 290.209C382.587 290.28 382.749 290.367 382.902 290.468Z" fill="#263238"/>
<path d="M376.089 294.13C376.03 294.222 372.31 291.814 367.796 288.771C363.281 285.728 359.653 283.178 359.712 283.087C359.77 282.995 363.482 285.402 368.005 288.454C372.528 291.505 376.147 294.046 376.089 294.13Z" fill="#263238"/>
<path d="M372.127 282.893C371.254 283.189 370.341 283.353 369.418 283.378C368.507 283.515 367.58 283.515 366.668 283.378C367.568 283.215 368.479 283.123 369.393 283.102C370.298 282.959 371.212 282.889 372.127 282.893Z" fill="#263238"/>
<path d="M355.864 280.779C355.562 281.474 355.15 282.114 354.644 282.677C354.219 283.334 353.701 283.925 353.105 284.433C353.41 283.75 353.822 283.12 354.326 282.568C354.749 281.9 355.267 281.298 355.864 280.779Z" fill="#263238"/>
<path d="M359.193 296.32C358.565 296.058 357.966 295.733 357.404 295.35C356.334 294.698 354.896 293.745 353.332 292.625C351.769 291.504 350.423 290.434 349.437 289.657C348.886 289.263 348.371 288.821 347.898 288.336C348.49 288.65 349.05 289.019 349.57 289.439L353.533 292.315C355.071 293.436 356.493 294.422 357.529 295.124C358.115 295.477 358.672 295.877 359.193 296.32Z" fill="#263238"/>
<path d="M345.965 312.823C343.257 312.112 340.03 314.746 339.469 317.488C338.909 320.23 339.938 323.039 341.141 325.572C343.716 331.251 347.546 336.27 352.344 340.252C357.178 344.228 363.216 346.45 369.474 346.556C368.328 341.239 369.774 335.688 369.139 330.279C368.575 325.519 366.414 321.091 363.008 317.719C359.602 314.346 355.153 312.228 350.388 311.711C348.657 311.527 346.651 311.251 345.965 312.848" fill="#AFAFAF"/>
<path d="M369.477 346.531C369.342 346.486 369.213 346.424 369.093 346.347C368.73 346.156 368.389 345.93 368.073 345.67C366.938 344.681 366.029 343.461 365.406 342.091C364.971 341.256 364.486 340.344 364.018 339.341L362.555 336.114C362.035 334.928 361.437 333.777 360.766 332.67C360.03 331.496 359.209 330.378 358.308 329.326C356.452 327.144 354.463 325.263 352.732 323.474C351.175 321.902 349.756 320.199 348.493 318.383C347.644 317.149 346.945 315.819 346.412 314.42C346.245 313.918 346.119 313.534 346.052 313.258C346.005 313.123 345.977 312.982 345.969 312.84C345.969 312.84 346.153 313.392 346.554 314.37C347.131 315.731 347.854 317.027 348.711 318.232C349.996 320.018 351.424 321.695 352.983 323.248C354.713 325.029 356.72 326.91 358.592 329.1C359.515 330.168 360.353 331.305 361.1 332.503C361.769 333.629 362.366 334.796 362.889 335.997L364.319 339.232C364.77 340.236 365.239 341.155 365.657 342C366.239 343.353 367.093 344.574 368.165 345.586C368.959 346.238 369.494 346.497 369.477 346.531Z" fill="#263238"/>
<path d="M355.496 342.107C355.519 341.493 355.603 340.882 355.747 340.285C355.964 339.173 356.307 337.643 356.775 335.971C357.243 334.299 357.753 332.819 358.155 331.791C358.339 331.209 358.586 330.648 358.89 330.119C358.784 330.724 358.622 331.317 358.405 331.891C358.071 332.97 357.611 334.466 357.143 336.122C356.675 337.777 356.307 339.298 356.006 340.394C355.894 340.981 355.723 341.555 355.496 342.107Z" fill="#263238"/>
<path d="M368.957 329.058C368.31 328.966 367.672 328.817 367.051 328.615C365.889 328.314 364.275 327.896 362.478 327.495C360.68 327.093 359.05 326.776 357.863 326.55C357.216 326.468 356.578 326.325 355.957 326.124C356.61 326.116 357.262 326.17 357.905 326.283C359.109 326.441 360.764 326.717 362.561 327.119C364.359 327.52 365.972 327.955 367.126 328.356C367.761 328.519 368.375 328.755 368.957 329.058Z" fill="#263238"/>
<path d="M345.414 332.845C345.446 332.135 345.544 331.43 345.707 330.738C345.949 329.443 346.325 327.67 346.835 325.722C347.345 323.774 347.88 322.036 348.298 320.798C348.497 320.113 348.757 319.447 349.076 318.809C348.961 319.51 348.788 320.201 348.557 320.874C348.198 322.136 347.721 323.875 347.195 325.814C346.668 327.754 346.275 329.509 345.966 330.788C345.845 331.489 345.66 332.178 345.414 332.845Z" fill="#263238"/>
<path d="M362.747 317.68C362.747 317.781 359.353 317.513 355.223 317.07C351.093 316.627 347.699 316.184 347.699 316.084C347.699 315.983 351.093 316.251 355.223 316.694C359.353 317.137 362.756 317.58 362.747 317.68Z" fill="#263238"/>
<path d="M360.27 358.684C360.27 358.785 348.382 358.868 333.727 358.868C319.072 358.868 307.176 358.785 307.176 358.684C307.176 358.584 319.064 358.492 333.727 358.492C348.391 358.492 360.27 358.576 360.27 358.684Z" fill="#455A64"/>
<path d="M352.003 373.975C352.003 374.084 343.994 374.167 334.113 374.167C324.231 374.167 316.23 374.084 316.23 373.975C316.23 373.866 324.239 373.791 334.113 373.791C343.986 373.791 352.003 373.875 352.003 373.975Z" fill="#455A64"/>
<path d="M351.686 376.2C351.686 376.3 343.819 376.384 334.13 376.384C324.441 376.384 316.574 376.3 316.574 376.2C316.574 376.1 324.441 376.008 334.13 376.008C343.819 376.008 351.686 376.058 351.686 376.2Z" fill="#455A64"/>
<path d="M352.314 372.179C352.314 372.279 344.029 372.363 333.813 372.363C323.597 372.363 315.312 372.279 315.312 372.179C315.312 372.078 323.597 371.986 333.813 371.986C344.029 371.986 352.314 372.07 352.314 372.179Z" fill="#455A64"/>
<path d="M348.807 50.05C348.807 50.1754 343.197 50.2423 336.267 50.2089C329.336 50.1754 323.727 50.0417 323.727 49.9246C323.727 49.8076 329.336 49.7324 336.267 49.7658C343.197 49.7992 348.807 49.933 348.807 50.05Z" fill="#263238"/>
<path d="M336.358 62.5155C336.241 62.5155 336.09 56.9143 336.015 49.9755C335.94 43.0367 336.015 37.4355 336.107 37.4355C336.199 37.4355 336.383 43.0367 336.45 49.9755C336.517 56.9143 336.483 62.5155 336.358 62.5155Z" fill="#263238"/>
<path d="M361.981 237.155C359.356 236.06 356.789 234.832 354.29 233.477C351.713 232.248 349.201 230.886 346.766 229.397C346.816 229.297 350.26 230.944 354.457 233.084C358.654 235.224 362.039 237.055 361.981 237.155Z" fill="#263238"/>
<path d="M350.629 240.934C351.682 238.29 352.874 235.703 354.199 233.184C355.387 230.61 356.707 228.099 358.153 225.66C357.096 228.302 355.904 230.889 354.583 233.41C353.393 235.983 352.073 238.494 350.629 240.934Z" fill="#263238"/>
<path d="M61.8922 178.293C61.8922 178.41 57.9296 180.107 52.9554 182.088C47.9812 184.069 43.9015 185.591 43.8597 185.482C43.8179 185.373 47.814 183.668 52.7965 181.687C57.7791 179.705 61.8421 178.184 61.8922 178.293Z" fill="#263238"/>
<path d="M52.6634 172.86C52.6634 172.86 52.5213 172.618 52.2203 172.233C51.7941 171.701 51.2079 171.32 50.5483 171.146C50.0183 171.005 49.4595 171.014 48.9342 171.171C48.4088 171.329 47.9377 171.63 47.5734 172.04C47.209 172.45 46.9658 172.953 46.8709 173.494C46.776 174.034 46.833 174.59 47.0358 175.099C47.2385 175.609 47.5789 176.052 48.0189 176.38C48.4589 176.707 48.9813 176.906 49.5278 176.954C50.0742 177.002 50.6232 176.897 51.1134 176.651C51.6036 176.405 52.0158 176.027 52.3039 175.56C52.6682 174.979 52.8326 174.295 52.7721 173.612C52.7721 173.128 52.63 172.868 52.6634 172.852C52.8162 173.073 52.911 173.329 52.9393 173.596C53.0737 174.325 52.9432 175.078 52.5714 175.719C52.2965 176.206 51.9021 176.615 51.4252 176.908C50.9484 177.201 50.4049 177.367 49.8461 177.391C49.1565 177.417 48.476 177.228 47.8978 176.851C47.3196 176.475 46.872 175.929 46.6166 175.288C46.3611 174.647 46.3101 173.942 46.4707 173.271C46.6314 172.6 46.9956 171.995 47.5136 171.539C47.9318 171.171 48.4367 170.916 48.9809 170.798C49.525 170.679 50.0904 170.701 50.6236 170.862C51.3349 171.068 51.9489 171.521 52.3541 172.141C52.5126 172.353 52.6186 172.599 52.6634 172.86Z" fill="#263238"/>
<path d="M58.9341 188.585C58.8923 188.585 58.792 188.342 58.491 187.958C58.0672 187.423 57.48 187.041 56.819 186.871C56.339 186.748 55.836 186.745 55.3547 186.863C54.8734 186.982 54.4288 187.217 54.0602 187.548C53.6127 187.952 53.2996 188.483 53.1628 189.07C53.0261 189.657 53.0724 190.271 53.2954 190.831C53.5185 191.391 53.9076 191.869 54.4105 192.202C54.9134 192.534 55.5059 192.704 56.1084 192.689C56.6098 192.685 57.102 192.555 57.5401 192.311C57.9782 192.067 58.3483 191.717 58.6164 191.293C58.9768 190.711 59.1409 190.028 59.0846 189.345C59.0846 188.861 58.9341 188.601 58.9759 188.585C59.1277 188.803 59.2225 189.056 59.2518 189.32C59.3835 190.053 59.2501 190.809 58.8756 191.452C58.6026 191.939 58.2098 192.348 57.7343 192.641C57.2588 192.934 56.7164 193.1 56.1586 193.124C55.469 193.15 54.7885 192.961 54.2103 192.584C53.6321 192.208 53.1845 191.662 52.9291 191.021C52.6736 190.38 52.6226 189.675 52.7832 189.004C52.9439 188.333 53.3081 187.728 53.8261 187.272C54.2466 186.908 54.7512 186.655 55.2943 186.535C55.8373 186.416 56.4016 186.433 56.9361 186.587C57.6457 186.8 58.2581 187.256 58.6666 187.874C58.8116 188.086 58.9034 188.33 58.9341 188.585Z" fill="#263238"/>
<path d="M108.633 91.3906C108.633 91.3906 108.725 91.6164 108.884 92.0511C109.042 92.4858 109.277 93.1462 109.578 93.9822C110.179 95.6542 111.066 98.1622 112.194 101.406L112.253 101.556H112.086L101.351 100.068H101.46C97.7148 103.01 93.2805 104.947 88.5772 105.695C87.2526 105.907 85.9142 106.022 84.5728 106.037C83.8872 106.037 83.1934 105.979 82.4911 105.962L81.4461 105.912C81.095 105.912 80.7439 105.812 80.3928 105.761C77.4552 105.403 74.5983 104.556 71.9408 103.253C69.1041 101.879 66.5139 100.046 64.2747 97.8278C61.3136 94.8714 59.0494 91.2917 57.6469 87.3495C56.2444 83.4073 55.7389 79.2018 56.1674 75.0396C56.5959 70.8773 57.9475 66.863 60.1237 63.2892C62.3 59.7154 65.246 56.6721 68.7473 54.3809C71.2482 52.737 74.0017 51.5142 76.8983 50.761L77.96 50.4852L78.4867 50.3514L79.0217 50.2678L81.1619 49.9501C81.8725 49.8832 82.5831 49.8665 83.2937 49.8247C83.995 49.7746 84.699 49.7746 85.4004 49.8247C86.0943 49.8832 86.7965 49.8247 87.4737 49.9752L89.5052 50.2929C90.174 50.4016 90.826 50.6106 91.4781 50.7694L92.4479 51.0202C92.7656 51.1205 93.0749 51.2459 93.3842 51.3546C100.256 53.7375 105.928 58.7073 109.193 65.2071C110.897 68.5941 111.898 72.291 112.136 76.0751C112.453 80.7581 111.555 85.4435 109.527 89.6768C109.251 90.2369 109.034 90.655 108.884 90.9225C108.733 91.19 108.633 91.3405 108.633 91.3405C108.633 91.3405 108.691 91.1984 108.833 90.9141C108.976 90.6299 109.193 90.2035 109.444 89.6434C110.191 88.0064 110.778 86.3015 111.199 84.5522C111.879 81.7868 112.11 78.9305 111.885 76.0918C111.535 70.6439 109.582 65.4209 106.272 61.0792C102.963 56.7374 98.4442 53.4706 93.2839 51.689C92.9746 51.5803 92.6736 51.4633 92.3559 51.363L91.4029 51.1122C90.7592 50.9617 90.1154 50.7527 89.455 50.6524L87.4486 50.343C86.7798 50.226 86.0943 50.2511 85.4004 50.2009C84.7104 50.1466 84.0171 50.1466 83.3271 50.2009C82.6332 50.2009 81.931 50.2594 81.2288 50.318L79.122 50.644L78.5954 50.7276L78.0687 50.8614L77.0237 51.1289C74.1731 51.8737 71.4644 53.0825 69.0064 54.707C64.8939 57.3839 61.5672 61.1064 59.3673 65.4927C57.1674 69.879 56.1735 74.7715 56.4874 79.6685C56.8013 84.5655 58.4118 89.291 61.1538 93.3605C63.8958 97.43 67.6706 100.697 72.0913 102.827C74.7176 104.126 77.5437 104.974 80.4513 105.335C80.794 105.385 81.1368 105.452 81.4879 105.486L82.5246 105.536C83.2184 105.536 83.8956 105.636 84.5728 105.619C85.8971 105.609 87.2189 105.5 88.527 105.293C93.1814 104.577 97.5756 102.684 101.293 99.7924H101.343H101.351L112.102 101.331L111.994 101.456C110.898 98.2208 110.054 95.7044 109.486 93.9321L108.842 92.0009C108.691 91.6164 108.633 91.3906 108.633 91.3906Z" fill="#263238"/>
<path d="M69.8242 81.7657L73.7398 77.5604L80.2649 82.7812L95.2014 68.2792L98.7796 72.4968L79.9753 91.0469L69.8242 81.7657Z" fill="#349F6E"/>
<path d="M84.0628 69.0695C84.0579 68.8874 84.1072 68.7079 84.2044 68.5538C84.3017 68.3997 84.4425 68.278 84.6091 68.204C84.7756 68.1301 84.9604 68.1074 85.1399 68.1386C85.3194 68.1699 85.4856 68.2538 85.6173 68.3797C85.7491 68.5055 85.8405 68.6677 85.8799 68.8456C85.9193 69.0235 85.905 69.2091 85.8388 69.3789C85.7726 69.5486 85.6574 69.6949 85.5079 69.799C85.3584 69.9032 85.1813 69.9607 84.9992 69.964C84.7573 69.9664 84.5241 69.8742 84.3492 69.7071C84.1743 69.54 84.0715 69.3112 84.0628 69.0695Z" fill="#04242D"/>
</svg>
