<svg width="334" height="329" viewBox="0 0 334 329" fill="none" xmlns="http://www.w3.org/2000/svg">
<g clip-path="url(#clip0_2197_16300)">
<path d="M214.45 164.994C181.567 164.681 151.81 164.399 130.241 164.194C119.481 164.142 110.77 164.1 104.722 164.071C101.725 164.078 99.3929 164.084 97.783 164.088C97.0061 164.098 96.4071 164.106 95.9786 164.112C95.5721 164.122 95.3633 164.133 95.3633 164.145C95.3633 164.157 95.5714 164.171 95.978 164.185C96.4065 164.195 97.0054 164.209 97.7823 164.227C99.3922 164.247 101.724 164.276 104.72 164.314C110.769 164.346 119.479 164.392 130.24 164.45C151.809 164.464 181.568 164.482 214.452 164.503C247.319 164.499 277.082 164.543 298.629 164.7C309.402 164.776 318.121 164.878 324.147 164.992C327.159 165.05 329.499 165.11 331.085 165.171C332.671 165.232 333.504 165.293 333.503 165.352C333.503 165.41 332.669 165.464 331.083 165.508C329.496 165.553 327.157 165.59 324.143 165.616C318.117 165.67 309.397 165.683 298.624 165.65C277.078 165.589 247.315 165.331 214.45 164.994Z" fill="#E7E8E5"/>
<path d="M213.795 172.324C181.362 166.964 152.011 162.114 130.736 158.598C120.115 156.896 111.516 155.518 105.546 154.562C102.584 154.11 100.28 153.758 98.6882 153.514C97.9189 153.406 97.3268 153.323 96.9017 153.263C96.4985 153.211 96.2911 153.19 96.2891 153.202C96.287 153.215 96.4903 153.261 96.8894 153.337C97.3117 153.414 97.9004 153.52 98.665 153.658C100.252 153.925 102.551 154.313 105.505 154.81C111.475 155.772 120.072 157.156 130.692 158.865C151.999 162.188 181.393 166.773 213.874 171.84C246.343 176.878 275.74 181.487 296.999 184.95C307.63 186.68 316.226 188.119 322.16 189.159C325.127 189.678 327.429 190.098 328.986 190.403C330.543 190.707 331.356 190.896 331.346 190.955C331.336 191.014 330.505 190.939 328.93 190.741C327.355 190.542 325.038 190.22 322.057 189.784C316.096 188.913 307.48 187.588 296.843 185.902C275.567 182.534 246.207 177.706 213.795 172.324Z" fill="#E7E8E5"/>
<path d="M211.983 179.464C180.81 169.123 152.599 159.766 132.151 152.982C121.933 149.65 113.662 146.951 107.917 145.078C105.065 144.171 102.845 143.465 101.313 142.977C100.57 142.751 99.9985 142.576 99.5884 142.451C99.1983 142.337 98.9964 142.285 98.9923 142.297C98.9881 142.31 99.1819 142.386 99.5638 142.524C99.969 142.665 100.533 142.862 101.266 143.117C102.791 143.628 104.999 144.369 107.837 145.321C113.579 147.199 121.848 149.903 132.063 153.244C152.575 159.84 180.871 168.939 212.141 178.995C243.402 189.02 271.697 198.144 292.139 204.872C302.361 208.234 310.621 210.994 316.315 212.945C319.162 213.92 321.368 214.693 322.856 215.236C324.345 215.78 325.118 216.094 325.099 216.151C325.08 216.208 324.27 216.005 322.746 215.565C321.223 215.124 318.986 214.446 316.111 213.552C310.363 211.765 302.066 209.117 291.83 205.797C271.356 199.161 243.133 189.823 211.983 179.464Z" fill="#E7E8E5"/>
<path d="M209.06 186.223C179.921 171.168 153.55 157.543 134.437 147.667C124.877 142.787 117.138 138.836 111.765 136.093C109.092 134.753 107.012 133.711 105.578 132.992C104.88 132.652 104.343 132.39 103.959 132.203C103.592 132.03 103.401 131.946 103.395 131.957C103.389 131.969 103.568 132.074 103.924 132.27C104.3 132.471 104.827 132.753 105.51 133.119C106.934 133.861 108.997 134.935 111.648 136.316C117.02 139.063 124.756 143.019 134.312 147.906C153.515 157.61 180.01 170.997 209.287 185.791C238.561 200.554 265.049 213.965 284.166 223.786C293.725 228.696 301.443 232.704 306.755 235.514C309.412 236.919 311.467 238.025 312.852 238.792C314.236 239.559 314.949 239.989 314.922 240.041C314.895 240.094 314.127 239.767 312.694 239.094C311.26 238.422 309.159 237.403 306.463 236.073C301.071 233.414 293.3 229.507 283.72 224.637C264.559 214.9 238.174 201.294 209.06 186.223Z" fill="#E7E8E5"/>
<path d="M205.101 192.45C178.701 173.079 154.811 155.55 137.494 142.844C128.825 136.547 121.806 131.45 116.933 127.91C114.506 126.174 112.616 124.824 111.312 123.89C110.677 123.447 110.189 123.106 109.838 122.862C109.503 122.633 109.328 122.522 109.321 122.532C109.313 122.542 109.473 122.674 109.794 122.922C110.134 123.18 110.609 123.539 111.226 124.006C112.516 124.959 114.383 126.338 116.784 128.111C121.654 131.654 128.669 136.756 137.334 143.058C154.768 155.609 178.818 172.922 205.395 192.055C231.973 211.158 256.014 228.495 273.341 241.148C282.006 247.473 288.995 252.624 293.798 256.221C296.199 258.019 298.054 259.428 299.3 260.4C300.546 261.371 301.182 261.905 301.147 261.954C301.112 262.001 300.406 261.56 299.095 260.674C297.786 259.789 295.872 258.458 293.42 256.729C288.515 253.269 281.457 248.211 272.765 241.921C255.38 229.346 231.471 211.832 205.101 192.45Z" fill="#E7E8E5"/>
<path d="M200.206 197.99C177.177 174.798 156.336 153.812 141.231 138.599C133.658 131.047 127.527 124.933 123.271 120.687C121.146 118.599 119.493 116.975 118.352 115.853C117.794 115.317 117.365 114.905 117.057 114.61C116.763 114.333 116.607 114.196 116.598 114.205C116.589 114.213 116.727 114.368 117.004 114.662C117.3 114.97 117.713 115.397 118.249 115.953C119.373 117.093 121.001 118.742 123.093 120.862C127.346 125.11 133.472 131.228 141.04 138.785C156.285 153.862 177.317 174.661 200.558 197.645C223.806 220.6 244.825 241.42 259.948 256.581C267.513 264.161 273.605 270.323 277.784 274.614C279.873 276.759 281.484 278.436 282.561 279.587C283.639 280.739 284.184 281.364 284.141 281.406C284.099 281.447 283.471 280.904 282.317 279.827C281.162 278.751 279.481 277.142 277.331 275.057C273.031 270.885 266.854 264.804 259.259 257.256C244.065 242.162 223.205 221.187 200.206 197.99Z" fill="#E7E8E5"/>
<path d="M194.501 202.71C175.404 176.261 158.122 152.327 145.595 134.978C139.304 126.354 134.21 119.373 130.673 114.525C128.903 112.136 127.525 110.277 126.575 108.994C126.109 108.379 125.75 107.906 125.492 107.567C125.245 107.248 125.113 107.089 125.102 107.096C125.091 107.103 125.203 107.278 125.431 107.611C125.675 107.959 126.015 108.446 126.457 109.077C127.388 110.375 128.736 112.254 130.469 114.67C134.002 119.521 139.091 126.506 145.376 135.134C158.062 152.369 175.564 176.147 194.904 202.423C214.255 228.67 231.74 252.466 244.293 269.768C250.572 278.417 255.62 285.442 259.072 290.322C260.799 292.762 262.126 294.666 263.009 295.969C263.892 297.272 264.331 297.974 264.283 298.008C264.234 298.043 263.7 297.409 262.729 296.169C261.758 294.928 260.35 293.081 258.554 290.691C254.963 285.909 249.819 278.953 243.505 270.329C230.873 253.084 213.568 229.159 194.501 202.71Z" fill="#E7E8E5"/>
<path d="M188.123 206.493C173.446 177.42 160.166 151.11 150.539 132.04C145.689 122.55 141.763 114.867 139.037 109.533C137.666 106.9 136.599 104.851 135.864 103.437C135.5 102.758 135.22 102.235 135.02 101.861C134.825 101.508 134.72 101.33 134.708 101.335C134.696 101.342 134.779 101.531 134.951 101.895C135.137 102.277 135.396 102.81 135.732 103.502C136.446 104.928 137.48 106.993 138.809 109.647C141.531 114.983 145.451 122.668 150.294 132.161C160.097 151.145 173.621 177.333 188.566 206.272C203.526 235.185 217.031 261.39 226.692 280.418C231.524 289.93 235.399 297.648 238.035 303.002C239.354 305.678 240.363 307.765 241.029 309.188C241.695 310.612 242.018 311.373 241.964 311.4C241.91 311.426 241.482 310.717 240.72 309.342C239.957 307.967 238.858 305.926 237.463 303.287C234.672 298.01 230.692 290.345 225.821 280.852C216.073 261.867 202.768 235.563 188.123 206.493Z" fill="#E7E8E5"/>
<path d="M181.219 209.239C171.357 178.247 162.432 150.2 155.962 129.871C152.684 119.745 150.03 111.548 148.187 105.857C147.252 103.044 146.525 100.855 146.024 99.3433C145.772 98.6164 145.579 98.0569 145.44 97.6557C145.305 97.2765 145.23 97.0845 145.217 97.0886C145.204 97.0927 145.255 97.2923 145.367 97.679C145.49 98.085 145.661 98.6514 145.883 99.3879C146.36 100.907 147.052 103.107 147.942 105.934C149.78 111.627 152.428 119.826 155.698 129.954C162.356 150.224 171.542 178.188 181.693 209.09C191.862 239.968 201.027 267.945 207.538 288.238C210.795 298.384 213.392 306.607 215.143 312.304C216.019 315.153 216.683 317.37 217.114 318.878C217.545 320.388 217.742 321.19 217.685 321.209C217.627 321.226 217.317 320.46 216.783 318.983C216.248 317.507 215.488 315.32 214.53 312.498C212.614 306.852 209.905 298.664 206.605 288.532C200.002 268.268 191.052 240.224 181.219 209.239Z" fill="#E7E8E5"/>
<path d="M173.962 210.88C169.158 178.741 164.81 149.655 161.658 128.574C160.033 118.065 158.718 109.558 157.805 103.65C157.33 100.727 156.961 98.4522 156.706 96.8819C156.575 96.1248 156.473 95.5419 156.4 95.1243C156.326 94.7293 156.282 94.5277 156.269 94.5298C156.257 94.5318 156.275 94.7369 156.325 95.136C156.381 95.5563 156.46 96.142 156.562 96.9031C156.792 98.4776 157.125 100.758 157.553 103.688C158.462 109.596 159.771 118.104 161.388 128.615C164.734 149.667 169.352 178.711 174.454 210.806C179.578 242.881 184.173 271.934 187.37 292.986C188.971 303.511 190.226 312.037 191.049 317.935C191.46 320.884 191.763 323.176 191.949 324.734C192.133 326.292 192.201 327.114 192.141 327.123C192.082 327.132 191.898 326.327 191.606 324.786C191.313 323.244 190.911 320.966 190.415 318.031C189.421 312.158 188.05 303.65 186.406 293.131C183.112 272.094 178.739 243.007 173.962 210.88Z" fill="#E7E8E5"/>
<path d="M166.534 211.378C166.83 178.891 167.098 149.492 167.293 128.182C167.338 117.552 167.375 108.946 167.4 102.97C167.391 100.01 167.384 97.7057 167.38 96.1154C167.369 95.3474 167.36 94.7563 167.354 94.3325C167.344 93.9306 167.333 93.7249 167.32 93.7249C167.308 93.7249 167.295 93.9306 167.28 94.3318C167.271 94.7556 167.256 95.3467 167.239 96.1147C167.219 97.705 167.191 100.008 167.156 102.969C167.126 108.945 167.085 117.551 167.033 128.182C167.033 149.492 167.032 178.892 167.031 211.38C167.055 243.852 167.03 273.258 166.884 294.545C166.813 305.189 166.716 313.803 166.603 319.755C166.547 322.732 166.488 325.043 166.427 326.61C166.367 328.178 166.305 329.001 166.245 329C166.187 329 166.133 328.176 166.086 326.609C166.039 325.041 166.001 322.729 165.972 319.753C165.914 313.799 165.896 305.185 165.922 294.54C165.97 273.253 166.214 243.849 166.534 211.378Z" fill="#E7E8E5"/>
<path d="M159.112 210.736C164.517 178.69 169.408 149.69 172.953 128.668C174.669 118.173 176.058 109.678 177.023 103.778C177.479 100.852 177.833 98.5755 178.078 97.0031C178.188 96.2426 178.271 95.657 178.332 95.238C178.385 94.8396 178.406 94.6339 178.393 94.6325C178.38 94.6304 178.334 94.8314 178.256 95.2257C178.18 95.6426 178.073 96.2241 177.933 96.9798C177.664 98.5481 177.273 100.819 176.771 103.738C175.802 109.637 174.407 118.132 172.682 128.625C169.333 149.677 164.711 178.721 159.603 210.815C154.523 242.896 149.877 271.942 146.385 292.947C144.641 303.451 143.19 311.945 142.141 317.808C141.617 320.741 141.194 323.015 140.886 324.553C140.579 326.091 140.388 326.894 140.328 326.885C140.269 326.875 140.344 326.053 140.544 324.498C140.744 322.942 141.069 320.653 141.508 317.707C142.385 311.817 143.721 303.304 145.421 292.794C148.818 271.771 153.685 242.762 159.112 210.736Z" fill="#E7E8E5"/>
<path d="M151.888 208.953C162.335 178.148 171.789 150.271 178.641 130.064C182.009 119.967 184.734 111.794 186.628 106.117C187.543 103.299 188.256 101.105 188.749 99.591C188.977 98.8572 189.154 98.2921 189.28 97.8869C189.396 97.5015 189.448 97.3019 189.436 97.2978C189.424 97.2937 189.346 97.485 189.207 97.8629C189.064 98.2626 188.865 98.8202 188.607 99.5443C188.091 101.052 187.343 103.233 186.381 106.037C184.484 111.712 181.752 119.884 178.377 129.978C171.713 150.246 162.521 178.208 152.363 209.107C142.235 239.999 133.018 267.959 126.221 288.16C122.824 298.261 120.036 306.423 118.065 312.051C117.08 314.864 116.299 317.043 115.75 318.514C115.201 319.986 114.884 320.749 114.826 320.73C114.768 320.712 114.973 319.911 115.418 318.406C115.862 316.901 116.548 314.69 117.45 311.85C119.255 306.169 121.931 297.97 125.285 287.855C131.989 267.624 141.422 239.735 151.888 208.953Z" fill="#E7E8E5"/>
<path d="M145.041 206.069C160.261 177.27 174.035 151.209 184.019 132.319C188.953 122.871 192.947 115.223 195.72 109.912C197.075 107.271 198.128 105.216 198.856 103.797C199.2 103.108 199.464 102.577 199.653 102.197C199.829 101.835 199.913 101.647 199.901 101.641C199.889 101.635 199.783 101.812 199.586 102.163C199.381 102.535 199.097 103.055 198.727 103.731C197.977 105.139 196.891 107.177 195.495 109.798C192.718 115.106 188.719 122.751 183.778 132.195C173.968 151.174 160.434 177.358 145.479 206.292C130.554 235.224 116.997 261.401 107.067 280.294C102.105 289.741 98.0524 297.369 95.211 302.62C93.7907 305.245 92.6729 307.276 91.8974 308.644C91.1219 310.012 90.6872 310.717 90.6345 310.691C90.5811 310.663 90.911 309.906 91.5914 308.489C92.2711 307.071 93.3006 304.995 94.645 302.331C97.3337 297.003 101.283 289.322 106.206 279.855C116.05 260.918 129.805 234.841 145.041 206.069Z" fill="#E7E8E5"/>
<path d="M138.738 202.16C158.329 176.066 176.057 152.453 188.907 135.337C195.275 126.768 200.43 119.83 204.01 115.013C205.766 112.614 207.131 110.747 208.074 109.457C208.523 108.83 208.868 108.347 209.115 108.001C209.345 107.67 209.459 107.497 209.448 107.489C209.438 107.482 209.304 107.64 209.054 107.956C208.793 108.293 208.43 108.763 207.958 109.373C206.994 110.647 205.599 112.493 203.807 114.866C200.223 119.68 195.063 126.614 188.689 135.179C175.998 152.41 158.487 176.182 139.138 202.451C119.82 228.721 102.287 252.484 89.4904 269.61C83.0938 278.175 77.8848 285.083 74.2474 289.83C72.4287 292.204 71.0035 294.038 70.0206 295.269C69.0377 296.5 68.497 297.13 68.4489 297.094C68.4005 297.059 68.8465 296.362 69.7427 295.067C70.638 293.773 71.9831 291.88 73.7319 289.457C77.2311 284.608 82.3463 277.632 88.7073 269.042C101.425 251.858 119.137 228.226 138.738 202.16Z" fill="#E7E8E5"/>
<path d="M133.128 197.328C156.588 174.562 177.817 153.96 193.205 139.026C200.845 131.54 207.029 125.48 211.324 121.272C213.436 119.171 215.08 117.536 216.215 116.408C216.756 115.857 217.172 115.433 217.471 115.129C217.751 114.838 217.891 114.684 217.881 114.675C217.872 114.666 217.716 114.802 217.419 115.076C217.108 115.369 216.675 115.777 216.113 116.307C214.961 117.418 213.292 119.027 211.147 121.095C206.85 125.301 200.662 131.357 193.017 138.838C177.767 153.909 156.727 174.701 133.478 197.677C110.258 220.659 89.1977 241.438 73.8602 256.39C66.1931 263.867 59.9596 269.89 55.6192 274.021C53.4492 276.087 51.7529 277.679 50.5879 278.745C49.4235 279.81 48.7906 280.349 48.7484 280.306C48.7061 280.264 49.2569 279.644 50.3454 278.503C51.4342 277.362 53.0609 275.699 55.1708 273.574C59.3899 269.323 65.5415 263.218 73.1771 255.709C88.4461 240.689 109.663 220.066 133.128 197.328Z" fill="#E7E8E5"/>
<path d="M128.348 191.694C155.106 172.81 179.321 155.721 196.873 143.335C205.598 137.113 212.662 132.077 217.566 128.579C219.983 126.829 221.863 125.467 223.162 124.527C223.784 124.065 224.262 123.711 224.605 123.456C224.928 123.211 225.089 123.081 225.082 123.07C225.074 123.06 224.898 123.17 224.561 123.395C224.208 123.636 223.716 123.973 223.078 124.41C221.764 125.331 219.862 126.664 217.419 128.377C212.511 131.871 205.444 136.903 196.715 143.118C179.278 155.662 155.221 172.968 128.638 192.092C102.083 211.226 78.0077 228.516 60.5034 240.929C51.7522 247.138 44.6464 252.13 39.7084 255.543C37.2394 257.251 35.3129 258.562 33.9944 259.436C32.6763 260.31 31.9664 260.744 31.9311 260.696C31.896 260.648 32.5374 260.12 33.7925 259.16C35.0476 258.199 36.9164 256.808 39.3348 255.031C44.172 251.48 51.2097 246.394 59.9349 240.151C77.3821 227.659 101.588 210.548 128.348 191.694Z" fill="#E7E8E5"/>
<path d="M124.514 185.395C153.932 170.877 180.554 157.739 199.851 148.216C209.453 143.419 217.226 139.535 222.625 136.838C225.288 135.483 227.362 134.428 228.793 133.7C229.479 133.34 230.009 133.063 230.387 132.864C230.745 132.673 230.924 132.569 230.919 132.557C230.913 132.546 230.721 132.627 230.353 132.797C229.966 132.981 229.427 133.238 228.727 133.57C227.284 134.276 225.195 135.299 222.509 136.613C217.109 139.306 209.333 143.184 199.728 147.975C180.52 157.671 154.021 171.05 124.738 185.833C95.482 200.631 68.9674 213.99 49.7139 223.547C40.0879 228.327 32.2793 232.16 26.8616 234.768C24.1528 236.073 22.0421 237.071 20.6017 237.73C19.1613 238.388 18.3913 238.708 18.364 238.654C18.337 238.602 19.0541 238.178 20.4456 237.423C21.8367 236.669 23.9025 235.583 26.5726 234.203C31.912 231.442 39.6676 227.506 49.2735 222.686C68.4832 213.043 95.0994 199.882 124.514 185.395Z" fill="#E7E8E5"/>
<path d="M121.728 178.577C153.092 168.813 181.474 159.977 202.047 153.573C212.294 150.328 220.589 147.701 226.349 145.876C229.196 144.951 231.411 144.232 232.94 143.734C233.676 143.486 234.242 143.295 234.648 143.158C235.031 143.023 235.225 142.949 235.221 142.936C235.217 142.924 235.015 142.975 234.624 143.085C234.213 143.206 233.64 143.376 232.895 143.595C231.358 144.068 229.131 144.754 226.27 145.634C220.509 147.454 212.212 150.075 201.963 153.312C181.45 159.903 153.151 168.996 121.879 179.044C90.6313 189.111 62.3198 198.183 41.7839 204.628C31.5168 207.852 23.1948 210.424 17.4293 212.157C14.5466 213.024 12.3033 213.682 10.7758 214.109C9.24824 214.535 8.4367 214.73 8.41829 214.674C8.39981 214.617 9.17521 214.311 10.6696 213.781C12.1637 213.252 14.3765 212.5 17.233 211.552C22.9456 209.655 31.232 206.973 41.4855 203.707C61.9915 197.17 90.3719 188.311 121.728 178.577Z" fill="#E7E8E5"/>
<path d="M120.065 171.409C152.594 166.642 182.03 162.328 203.366 159.201C214.002 157.59 222.612 156.285 228.591 155.379C231.549 154.908 233.851 154.541 235.441 154.289C236.207 154.158 236.797 154.057 237.22 153.985C237.619 153.912 237.823 153.869 237.821 153.856C237.819 153.843 237.612 153.862 237.208 153.911C236.783 153.966 236.19 154.044 235.419 154.146C233.825 154.374 231.518 154.705 228.553 155.13C222.573 156.032 213.962 157.33 203.325 158.934C182.018 162.253 152.623 166.833 120.14 171.894C87.6781 176.977 58.2742 181.534 36.9679 184.707C26.3149 186.295 17.6871 187.541 11.7175 188.357C8.73278 188.765 6.41245 189.066 4.83596 189.25C3.25976 189.434 2.4274 189.501 2.41804 189.442C2.40922 189.383 3.22366 189.201 4.78356 188.911C6.34346 188.621 8.64852 188.223 11.6205 187.731C17.5641 186.745 26.1743 185.386 36.8204 183.754C58.1118 180.487 87.5494 176.149 120.065 171.409Z" fill="#E7E8E5"/>
<path d="M119.554 164.071C152.437 164.344 182.194 164.59 203.764 164.769C214.524 164.807 223.235 164.838 229.284 164.859C232.28 164.849 234.612 164.841 236.222 164.835C236.999 164.824 237.597 164.815 238.026 164.809C238.433 164.798 238.641 164.787 238.641 164.774C238.641 164.762 238.433 164.749 238.027 164.736C237.597 164.726 236.999 164.713 236.222 164.695C234.612 164.678 232.28 164.652 229.284 164.617C223.235 164.593 214.525 164.557 203.764 164.512C182.194 164.525 152.437 164.543 119.553 164.562C86.6855 164.606 56.9214 164.599 35.3748 164.469C24.6014 164.405 15.8827 164.315 9.85698 164.207C6.84415 164.154 4.50483 164.096 2.91873 164.037C1.33236 163.978 0.499733 163.918 0.5 163.86C0.500267 163.801 1.33343 163.747 2.9198 163.7C4.50671 163.653 6.84628 163.614 9.85938 163.584C15.8859 163.523 24.6052 163.499 35.3788 163.519C56.9259 163.553 86.6882 163.775 119.554 164.071Z" fill="#E7E8E5"/>
<path d="M120.201 156.739C152.64 162.058 181.998 166.872 203.277 170.361C213.9 172.049 222.5 173.417 228.472 174.366C231.435 174.814 233.739 175.163 235.331 175.404C236.1 175.512 236.693 175.595 237.117 175.654C237.521 175.706 237.729 175.726 237.731 175.713C237.733 175.7 237.529 175.655 237.13 175.58C236.708 175.503 236.119 175.398 235.354 175.261C233.767 174.996 231.468 174.611 228.513 174.117C222.542 173.164 213.942 171.79 203.32 170.094C182.009 166.797 152.61 162.249 120.121 157.224C87.6456 152.226 58.2441 147.654 36.9798 144.217C26.3473 142.501 17.7484 141.072 11.8131 140.04C8.84542 139.524 6.54381 139.107 4.98632 138.805C3.42855 138.503 2.61572 138.314 2.62508 138.255C2.6347 138.196 3.46679 138.27 5.0414 138.467C6.61627 138.663 8.9342 138.983 11.9155 139.414C17.8784 140.278 26.4955 141.592 37.1354 143.265C58.4149 146.607 87.7811 151.398 120.201 156.739Z" fill="#E7E8E5"/>
<path d="M122.003 149.598C153.19 159.9 181.413 169.222 201.869 175.979C212.092 179.299 220.367 181.987 226.113 183.854C228.967 184.757 231.187 185.46 232.72 185.945C233.464 186.171 234.035 186.345 234.446 186.47C234.835 186.583 235.037 186.636 235.041 186.623C235.046 186.61 234.853 186.534 234.47 186.396C234.065 186.256 233.5 186.06 232.767 185.806C231.242 185.296 229.033 184.558 226.194 183.611C220.449 181.739 212.176 179.046 201.957 175.717C181.437 169.148 153.129 160.084 121.846 150.068C90.5719 140.081 62.2656 130.993 41.8144 124.29C31.5884 120.941 23.3248 118.192 17.6282 116.249C14.7801 115.277 12.5734 114.507 11.0838 113.966C9.59422 113.424 8.82122 113.111 8.84018 113.054C8.85921 112.996 9.66938 113.198 11.1934 113.637C12.7172 114.075 14.9555 114.751 17.8309 115.641C23.582 117.421 31.8825 120.059 42.123 123.366C62.6043 129.977 90.8395 139.278 122.003 149.598Z" fill="#E7E8E5"/>
<path d="M124.916 142.834C154.075 157.853 180.462 171.445 199.589 181.296C209.154 186.165 216.898 190.106 222.276 192.842C224.95 194.179 227.031 195.218 228.467 195.936C229.165 196.275 229.702 196.536 230.086 196.723C230.453 196.896 230.644 196.979 230.65 196.968C230.657 196.956 230.477 196.851 230.121 196.656C229.744 196.455 229.218 196.174 228.534 195.808C227.109 195.068 225.044 193.997 222.391 192.62C217.017 189.879 209.276 185.933 199.713 181.058C180.497 171.378 153.986 158.024 124.689 143.267C95.3969 128.54 68.8915 115.162 49.7623 105.365C40.1968 100.468 32.4737 96.4691 27.1571 93.6651C24.4988 92.2634 22.4418 91.1607 21.0568 90.3947C19.6715 89.6295 18.9576 89.2009 18.9851 89.1481C19.0124 89.0959 19.7795 89.4217 21.2145 90.0923C22.649 90.7637 24.7512 91.7793 27.4491 93.1062C32.8443 95.7587 40.6208 99.655 50.2067 104.514C69.3799 114.226 95.783 127.799 124.916 142.834Z" fill="#E7E8E5"/>
<path d="M128.867 136.602C155.291 155.94 179.203 173.441 196.536 186.125C205.214 192.411 212.239 197.499 217.117 201.033C219.546 202.766 221.437 204.115 222.742 205.046C223.378 205.488 223.867 205.828 224.217 206.073C224.553 206.3 224.728 206.412 224.736 206.402C224.743 206.391 224.583 206.26 224.263 206.012C223.922 205.755 223.446 205.396 222.828 204.93C221.538 203.979 219.668 202.602 217.266 200.832C212.39 197.296 205.369 192.202 196.696 185.91C179.247 173.382 155.174 156.097 128.573 136.998C101.971 117.928 77.908 100.622 60.5644 87.9899C51.8914 81.6756 44.8958 76.5332 40.0883 72.9426C37.6846 71.1474 35.8276 69.7402 34.5806 68.7706C33.3335 67.8002 32.6964 67.266 32.7319 67.2187C32.7675 67.1707 33.4739 67.6109 34.7849 68.4949C36.0961 69.3795 38.0116 70.7071 40.4662 72.4338C45.3755 75.8872 52.44 80.937 61.1392 87.2157C78.5405 99.7697 102.471 117.254 128.867 136.602Z" fill="#E7E8E5"/>
<path d="M133.755 131.056C156.813 154.219 177.68 175.181 192.805 190.375C200.387 197.917 206.525 204.024 210.788 208.264C212.915 210.349 214.57 211.972 215.713 213.092C216.271 213.627 216.7 214.038 217.008 214.333C217.304 214.61 217.459 214.747 217.468 214.738C217.477 214.729 217.34 214.575 217.062 214.281C216.766 213.975 216.353 213.547 215.815 212.991C214.69 211.854 213.06 210.206 210.966 208.089C206.706 203.846 200.572 197.736 192.995 190.188C177.731 175.131 156.673 154.357 133.403 131.402C110.126 108.476 89.081 87.6823 73.9372 72.539C66.3639 64.9691 60.2633 58.8138 56.0793 54.5286C53.9873 52.3863 52.3745 50.7111 51.2951 49.5611C50.2162 48.4111 49.6705 47.7857 49.7133 47.7445C49.7558 47.7027 50.3841 48.2465 51.5397 49.3217C52.6953 50.3963 54.3791 52.0023 56.5315 54.0849C60.8376 58.2508 67.0211 64.3245 74.6258 71.8642C89.8387 86.9397 110.726 107.888 133.755 131.056Z" fill="#E7E8E5"/>
<path d="M139.453 126.33C158.584 152.755 175.896 176.668 188.445 194.001C194.748 202.617 199.85 209.592 203.393 214.435C205.167 216.822 206.546 218.679 207.499 219.962C207.966 220.576 208.326 221.048 208.584 221.387C208.832 221.706 208.964 221.865 208.974 221.857C208.984 221.85 208.873 221.675 208.645 221.343C208.4 220.995 208.059 220.509 207.617 219.878C206.684 218.581 205.334 216.703 203.598 214.29C200.058 209.444 194.961 202.465 188.664 193.844C175.957 176.625 158.425 152.869 139.051 126.617C119.666 100.394 102.151 76.6198 89.5761 59.3335C83.2863 50.6917 78.2285 43.6745 74.7705 38.7981C73.0414 36.3603 71.7121 34.4574 70.8271 33.1559C69.942 31.8536 69.5019 31.1521 69.5505 31.1178C69.5991 31.0828 70.1344 31.7165 71.107 32.9556C72.0797 34.1954 73.4898 36.0408 75.2879 38.4286C78.8863 43.2055 84.0378 50.1555 90.3639 58.7719C103.018 76.0012 120.353 99.9042 139.453 126.33Z" fill="#E7E8E5"/>
<path d="M145.83 122.538C160.543 151.593 173.858 177.886 183.509 196.944C188.371 206.428 192.306 214.105 195.04 219.436C196.413 222.067 197.483 224.115 198.22 225.528C198.585 226.207 198.866 226.729 199.066 227.103C199.262 227.457 199.367 227.634 199.379 227.629C199.39 227.623 199.307 227.433 199.135 227.069C198.949 226.688 198.689 226.155 198.352 225.463C197.636 224.038 196.6 221.975 195.268 219.323C192.538 213.989 188.608 206.309 183.753 196.822C173.926 177.852 160.369 151.68 145.387 122.759C130.39 93.8646 116.851 67.6774 107.165 48.6616C102.321 39.1545 98.4361 31.4419 95.7926 26.0917C94.4708 23.4166 93.4592 21.3313 92.7911 19.909C92.1237 18.4861 91.7999 17.7256 91.8533 17.6989C91.9074 17.6714 92.3359 18.3798 93.1005 19.754C93.8658 21.1283 94.9664 23.1684 96.3655 25.8051C99.1631 31.0785 103.152 38.7389 108.037 48.2262C117.809 67.1987 131.147 93.4861 145.83 122.538Z" fill="#E7E8E5"/>
<path d="M152.729 119.782C162.631 150.762 171.593 178.797 178.088 199.119C181.38 209.24 184.044 217.433 185.894 223.123C186.832 225.934 187.562 228.123 188.066 229.633C188.318 230.36 188.512 230.919 188.651 231.32C188.787 231.699 188.863 231.891 188.875 231.887C188.888 231.883 188.836 231.683 188.724 231.297C188.601 230.891 188.429 230.325 188.207 229.589C187.727 228.07 187.032 225.871 186.139 223.045C184.293 217.354 181.635 209.159 178.351 199.035C171.667 178.774 162.446 150.821 152.256 119.932C142.046 89.0658 132.845 61.1004 126.308 40.8161C123.038 30.6746 120.43 22.4546 118.672 16.7595C117.792 13.9123 117.125 11.696 116.693 10.1873C116.26 8.67798 116.062 7.87704 116.119 7.85852C116.177 7.84001 116.487 8.60596 117.024 10.0824C117.561 11.5581 118.322 13.7436 119.285 16.5647C121.208 22.2077 123.928 30.3928 127.241 40.5206C133.87 60.7761 142.855 88.8094 152.729 119.782Z" fill="#E7E8E5"/>
<path d="M159.982 118.132C164.827 150.267 169.212 179.346 172.391 200.423C174.029 210.93 175.356 219.436 176.276 225.343C176.755 228.265 177.126 230.539 177.384 232.109C177.516 232.866 177.618 233.449 177.692 233.866C177.766 234.261 177.811 234.463 177.823 234.461C177.836 234.459 177.817 234.254 177.768 233.855C177.711 233.435 177.631 232.849 177.528 232.088C177.296 230.514 176.96 228.234 176.528 225.304C175.612 219.397 174.292 210.89 172.661 200.383C169.287 179.335 164.634 150.296 159.49 118.207C154.324 86.139 149.694 57.0916 146.469 36.044C144.854 25.5199 143.588 16.9967 142.758 11.0993C142.343 8.15062 142.037 5.85886 141.85 4.30153C141.663 2.7442 141.594 1.92201 141.654 1.91241C141.713 1.90349 141.898 2.70784 142.192 4.2494C142.487 5.79027 142.892 8.06764 143.392 11.0033C144.392 16.8747 145.775 25.38 147.433 35.8972C150.753 56.9304 155.164 86.0115 159.982 118.132Z" fill="#E7E8E5"/>
<path d="M167.408 117.625C167.153 150.112 166.923 179.512 166.756 200.822C166.723 211.452 166.697 220.058 166.68 226.034C166.693 228.995 166.702 231.299 166.709 232.889C166.721 233.657 166.73 234.248 166.737 234.672C166.747 235.074 166.759 235.279 166.771 235.279C166.784 235.279 166.797 235.074 166.81 234.672C166.82 234.249 166.833 233.658 166.85 232.889C166.867 231.299 166.892 228.995 166.924 226.035C166.946 220.059 166.977 211.453 167.015 200.823C166.988 179.512 166.951 150.112 166.911 117.624C166.846 85.1518 166.834 55.7464 166.953 34.4581C167.01 23.8146 167.097 15.201 167.201 9.24738C167.253 6.27124 167.31 3.95961 167.369 2.39267C167.427 0.825745 167.488 0.00285339 167.548 0.00285339C167.606 0.00285339 167.661 0.826416 167.71 2.39334C167.758 3.96095 167.8 6.2733 167.832 9.25012C167.898 15.2038 167.928 23.8181 167.915 34.4622C167.893 55.7498 167.687 85.1546 167.408 117.625Z" fill="#E7E8E5"/>
<path d="M174.828 118.258C169.465 150.312 164.612 179.319 161.094 200.344C159.392 210.841 158.014 219.338 157.057 225.239C156.604 228.166 156.253 230.443 156.01 232.015C155.902 232.776 155.819 233.362 155.759 233.781C155.706 234.18 155.687 234.385 155.699 234.387C155.712 234.389 155.758 234.188 155.834 233.794C155.91 233.376 156.016 232.794 156.155 232.039C156.423 230.47 156.81 228.199 157.309 225.279C158.27 219.379 159.655 210.882 161.364 200.387C164.688 179.33 169.272 150.281 174.338 118.181C179.376 86.0929 183.984 57.0413 187.449 36.0308C189.18 25.5258 190.62 17.0288 191.661 11.1643C192.181 8.23271 192.601 5.9581 192.907 4.41928C193.211 2.87979 193.402 2.07678 193.461 2.08638C193.521 2.09529 193.447 2.91751 193.249 4.47346C193.051 6.02942 192.729 8.31912 192.294 11.2651C191.424 17.157 190.099 25.6712 188.413 36.1837C185.045 57.21 180.214 86.2253 174.828 118.258Z" fill="#E7E8E5"/>
<path d="M182.06 120.033C171.653 150.851 162.236 178.741 155.41 198.956C152.056 209.057 149.341 217.234 147.455 222.913C146.543 225.733 145.833 227.927 145.342 229.442C145.114 230.176 144.939 230.741 144.813 231.147C144.698 231.533 144.645 231.732 144.658 231.736C144.671 231.74 144.748 231.548 144.887 231.171C145.029 230.771 145.226 230.213 145.484 229.488C145.998 227.98 146.744 225.798 147.701 222.992C149.591 217.316 152.313 209.14 155.674 199.042C162.311 178.765 171.467 150.792 181.585 119.879C191.673 88.9744 200.853 61.0029 207.624 40.7933C211.007 30.6882 213.784 22.5216 215.748 16.893C216.729 14.078 217.508 11.8973 218.055 10.4257C218.602 8.95345 218.918 8.18951 218.977 8.20871C219.034 8.22723 218.831 9.02753 218.388 10.5334C217.944 12.0393 217.263 14.2508 216.364 17.0926C214.566 22.776 211.901 30.9782 208.56 41.0971C201.883 61.3368 192.486 89.2384 182.06 120.033Z" fill="#E7E8E5"/>
<path d="M188.905 122.909C173.722 151.727 159.982 177.805 150.023 196.708C145.101 206.162 141.117 213.815 138.351 219.129C137 221.773 135.949 223.829 135.223 225.249C134.881 225.938 134.617 226.469 134.429 226.849C134.253 227.212 134.169 227.401 134.181 227.406C134.192 227.412 134.298 227.235 134.496 226.884C134.7 226.511 134.984 225.99 135.353 225.315C136.101 223.906 137.184 221.866 138.576 219.244C141.347 213.932 145.336 206.282 150.265 196.831C160.05 177.84 173.549 151.639 188.467 122.686C203.354 93.7358 216.877 67.5411 226.783 48.6358C231.733 39.1821 235.776 31.5491 238.61 26.2949C240.027 23.6678 241.142 21.6352 241.916 20.2658C242.69 18.8963 243.123 18.1914 243.176 18.2182C243.23 18.2456 242.9 19.0033 242.222 20.4214C241.544 21.8396 240.517 23.9167 239.176 26.5829C236.495 31.9152 232.556 39.6004 227.644 49.0739C217.825 68.0231 204.104 94.1171 188.905 122.909Z" fill="#E7E8E5"/>
<path d="M195.218 126.81C175.661 152.929 157.963 176.565 145.135 193.697C138.778 202.275 133.633 209.218 130.059 214.039C128.306 216.441 126.942 218.31 126.001 219.6C125.554 220.228 125.209 220.712 124.963 221.058C124.732 221.39 124.619 221.563 124.63 221.57C124.64 221.578 124.773 221.419 125.024 221.102C125.284 220.766 125.647 220.295 126.118 219.685C127.08 218.409 128.472 216.561 130.262 214.187C133.839 209.368 138.99 202.427 145.353 193.854C158.023 176.608 175.502 152.814 194.818 126.52C214.103 100.225 231.604 76.4417 244.379 59.2987C250.764 50.7256 255.965 43.8112 259.596 39.059C261.412 36.6829 262.835 34.8478 263.815 33.6148C264.797 32.3826 265.336 31.7523 265.385 31.788C265.433 31.823 264.988 32.5211 264.094 33.8172C263.2 35.1125 261.857 37.0059 260.111 39.432C256.619 44.285 251.512 51.2673 245.163 59.8659C232.467 77.0657 214.785 100.72 195.218 126.81Z" fill="#E7E8E5"/>
<path d="M200.835 131.634C177.404 154.43 156.201 175.059 140.833 190.012C133.202 197.508 127.026 203.576 122.737 207.79C120.627 209.892 118.986 211.529 117.853 212.659C117.312 213.211 116.896 213.635 116.597 213.939C116.317 214.231 116.178 214.385 116.188 214.394C116.197 214.403 116.354 214.267 116.65 213.992C116.96 213.699 117.393 213.291 117.955 212.76C119.105 211.648 120.772 210.036 122.914 207.965C127.206 203.755 133.387 197.69 141.021 190.2C156.252 175.109 177.265 154.291 200.485 131.287C223.676 108.276 244.709 87.4702 260.026 72.499C267.685 65.0121 273.91 58.9809 278.245 54.8445C280.413 52.7763 282.107 51.182 283.27 50.1149C284.433 49.0479 285.066 48.5089 285.108 48.5508C285.15 48.5926 284.6 49.2139 283.513 50.3563C282.426 51.4988 280.801 53.1631 278.695 55.291C274.48 59.5481 268.337 65.6608 260.711 73.1793C245.461 88.2184 224.271 108.868 200.835 131.634Z" fill="#E7E8E5"/>
<path d="M205.623 137.261C178.889 156.179 154.696 173.298 137.16 185.707C128.443 191.94 121.386 196.985 116.486 200.488C114.071 202.242 112.192 203.606 110.895 204.548C110.274 205.01 109.795 205.366 109.453 205.62C109.131 205.866 108.969 205.997 108.977 206.007C108.984 206.017 109.161 205.907 109.497 205.681C109.85 205.439 110.341 205.103 110.98 204.664C112.292 203.742 114.192 202.407 116.634 200.691C121.536 197.191 128.596 192.15 137.318 185.924C154.739 173.357 178.773 156.021 205.332 136.864C231.862 117.696 255.915 100.376 273.403 87.941C282.147 81.722 289.246 76.7202 294.18 73.301C296.646 71.5908 298.571 70.2762 299.889 69.4012C301.206 68.5262 301.915 68.0901 301.95 68.1387C301.985 68.1868 301.345 68.7155 300.091 69.6776C298.837 70.639 296.97 72.0338 294.554 73.8119C289.721 77.3696 282.69 82.464 273.973 88.7193C256.542 101.232 232.358 118.374 205.623 137.261Z" fill="#E7E8E5"/>
<path d="M209.461 143.556C180.062 158.111 153.457 171.282 134.172 180.829C124.577 185.639 116.808 189.533 111.414 192.236C108.751 193.595 106.68 194.653 105.249 195.383C104.563 195.744 104.034 196.021 103.656 196.22C103.299 196.412 103.119 196.517 103.125 196.528C103.131 196.54 103.322 196.458 103.691 196.288C104.077 196.103 104.616 195.846 105.316 195.513C106.757 194.804 108.845 193.779 111.529 192.461C116.925 189.761 124.697 185.874 134.296 181.071C153.492 171.35 179.973 157.939 209.236 143.119C238.473 128.284 264.971 114.891 284.212 105.31C293.831 100.517 301.635 96.6741 307.049 94.0594C309.756 92.7516 311.865 91.7504 313.306 91.0894C314.745 90.429 315.514 90.1088 315.542 90.1616C315.569 90.2151 314.852 90.6389 313.462 91.3952C312.071 92.1516 310.007 93.2406 307.339 94.6244C302.004 97.3921 294.253 101.339 284.653 106.17C265.456 115.837 238.856 129.031 209.461 143.556Z" fill="#E7E8E5"/>
<path d="M212.256 150.371C180.904 160.176 152.533 169.047 131.968 175.477C121.726 178.736 113.435 181.373 107.677 183.205C104.832 184.133 102.618 184.856 101.089 185.355C100.354 185.604 99.7875 185.796 99.3816 185.934C98.9989 186.069 98.8046 186.144 98.8087 186.156C98.8121 186.169 99.0147 186.118 99.4055 186.007C99.8162 185.885 100.39 185.715 101.134 185.494C102.671 185.019 104.896 184.331 107.756 183.447C113.515 181.62 121.809 178.988 132.054 175.738C152.558 169.121 180.845 159.992 212.104 149.904C243.338 139.797 271.638 130.689 292.166 124.219C302.429 120.981 310.747 118.399 316.51 116.658C319.392 115.787 321.634 115.127 323.162 114.698C324.689 114.27 325.499 114.074 325.518 114.131C325.537 114.187 324.761 114.495 323.268 115.026C321.774 115.557 319.562 116.312 316.707 117.264C310.997 119.168 302.714 121.86 292.465 125.139C271.967 131.702 243.599 140.598 212.256 150.371Z" fill="#E7E8E5"/>
<path d="M213.928 157.536C181.407 162.345 151.976 166.696 130.644 169.85C120.01 171.475 111.401 172.791 105.424 173.704C102.466 174.178 100.164 174.548 98.5746 174.802C97.8094 174.934 97.2193 175.036 96.797 175.109C96.3973 175.182 96.1933 175.226 96.1953 175.238C96.1974 175.251 96.4048 175.232 96.8086 175.183C97.2337 175.126 97.8272 175.048 98.5972 174.945C100.19 174.715 102.497 174.382 105.463 173.953C111.441 173.044 120.051 171.734 130.686 170.116C151.988 166.77 181.377 162.153 213.853 157.052C246.309 151.927 275.706 147.332 297.009 144.133C307.659 142.532 316.286 141.275 322.255 140.452C325.238 140.04 327.558 139.736 329.134 139.55C330.711 139.363 331.543 139.296 331.552 139.355C331.562 139.414 330.747 139.596 329.187 139.888C327.628 140.18 325.323 140.581 322.352 141.078C316.41 142.07 307.802 143.441 297.158 145.086C275.87 148.38 246.438 152.756 213.928 157.536Z" fill="#E7E8E5"/>
<path d="M256.451 247.752C252.578 243.185 247.221 240.437 243.498 239.387C240.012 238.404 234.727 237.508 229.347 238.823C226.005 239.639 223.078 241.217 220.648 243.512C217.77 246.23 215.572 249.978 214.116 254.652C213.897 255.354 213.97 256.096 214.32 256.743C214.672 257.393 215.258 257.862 215.969 258.063L225.109 260.64C226.399 261.004 227.779 260.353 228.318 259.125C229.531 256.367 232.59 252.012 239.464 253.823C244.702 255.206 245.789 259.588 246.014 261.41C246.38 264.376 245.214 267.44 242.897 269.608C239.335 272.94 234.688 272.294 232.234 271.612C229.414 270.827 226.476 272.473 225.688 275.28L222.919 285.134C222.515 286.573 223.354 288.073 224.791 288.478L233.697 290.99C235.133 291.395 236.631 290.554 237.035 289.114L237.617 287.044L237.727 286.957C239.943 286.817 244.336 286.206 248.844 283.691C254.599 280.48 258.503 275.342 260.448 268.42C263.231 258.514 259.811 251.713 256.451 247.752Z" fill="#DADBD8"/>
<path d="M228.988 292.338L228.209 292.119C224.484 291.068 220.601 293.249 219.552 296.981C218.504 300.712 220.681 304.603 224.406 305.653L225.185 305.873C228.909 306.923 232.793 304.742 233.841 301.01C234.89 297.279 232.713 293.388 228.988 292.338Z" fill="#DADBD8"/>
<path d="M276.077 193.173C273.388 191.698 270.32 191.365 268.345 191.546C266.496 191.715 263.801 192.256 261.465 193.873C260.014 194.878 258.901 196.171 258.157 197.716C257.276 199.546 256.909 201.744 257.067 204.249C257.09 204.626 257.261 204.968 257.547 205.214C257.834 205.46 258.201 205.577 258.578 205.543L263.427 205.099C264.11 205.037 264.652 204.472 264.686 203.785C264.762 202.242 265.431 199.594 269.054 199.199C271.815 198.9 273.137 200.799 273.578 201.631C274.296 202.983 274.298 204.664 273.585 206.128C272.489 208.378 270.145 208.921 268.845 209.045C267.351 209.187 266.245 210.514 266.381 212.003L266.857 217.231C266.927 217.994 267.603 218.558 268.365 218.488L273.09 218.056C273.852 217.986 274.415 217.309 274.346 216.546L274.246 215.447L274.282 215.385C275.318 214.911 277.31 213.812 279.008 211.78C281.177 209.186 282.107 206.009 281.772 202.338C281.293 197.083 278.411 194.454 276.077 193.173Z" fill="#F3F2F1"/>
<path d="M271.082 219.567L270.67 219.605C268.694 219.785 267.233 221.543 267.414 223.522C267.594 225.501 269.348 226.965 271.324 226.784L271.737 226.746C273.713 226.566 275.174 224.808 274.993 222.828C274.813 220.849 273.059 219.386 271.082 219.567Z" fill="#F3F2F1"/>
<path d="M81.9004 81.5755C80.0783 79.7768 77.6914 78.8092 76.0664 78.5027C74.5441 78.2161 72.2586 78.035 70.0155 78.7989C68.6228 79.2735 67.4356 80.0559 66.4867 81.1264C65.3631 82.3929 64.5682 84.0737 64.1243 86.1199C64.0577 86.4265 64.1169 86.7406 64.2904 87.0025C64.4649 87.2665 64.7321 87.4441 65.0425 87.5024L69.0339 88.254C69.5973 88.3603 70.1606 88.0304 70.3441 87.4873C70.7561 86.2667 71.8958 84.2952 74.8925 84.8061C77.176 85.1963 77.8044 87.0231 77.9693 87.7904C78.237 89.0399 77.8564 90.3894 76.9508 91.4009C75.5592 92.9555 73.555 92.856 72.4838 92.6585C71.2524 92.4309 70.0634 93.2435 69.8334 94.4689L69.0257 98.7726C68.9078 99.4008 69.3221 100.008 69.9491 100.126L73.8384 100.859C74.4654 100.977 75.0719 100.562 75.1896 99.9336L75.3594 99.0291L75.4032 98.988C76.3423 98.8446 78.1904 98.4174 80.016 97.1755C82.3467 95.5894 83.8156 93.2524 84.3831 90.2296C85.1949 85.904 83.4809 83.1363 81.9004 81.5755Z" fill="#F3F2F1"/>
<path d="M71.8849 101.612L71.5447 101.548C69.9184 101.241 68.3462 102.318 68.0403 103.947C67.7344 105.577 68.8091 107.152 70.4358 107.458L70.776 107.522C72.4024 107.829 73.974 106.752 74.28 105.123C74.5859 103.493 73.5113 101.918 71.8849 101.612Z" fill="#F3F2F1"/>
<path d="M268.856 82.9489C266.172 81.4629 263.105 81.1179 261.13 81.2907C259.28 81.4526 256.583 81.9827 254.24 83.5907C252.785 84.5892 251.667 85.8777 250.917 87.4199C250.029 89.2468 249.653 91.4432 249.801 93.9496C249.823 94.3254 249.993 94.6683 250.277 94.9151C250.564 95.1634 250.93 95.2813 251.307 95.2484L256.157 94.8239C256.842 94.7643 257.385 94.2013 257.422 93.5148C257.504 91.9719 258.183 89.327 261.808 88.9471C264.57 88.6584 265.884 90.5634 266.323 91.3959C267.034 92.7516 267.03 94.433 266.311 95.8944C265.206 98.1388 262.86 98.673 261.56 98.7916C260.065 98.9281 258.955 100.251 259.084 101.74L259.54 106.969C259.607 107.733 260.281 108.299 261.043 108.233L265.769 107.819C266.531 107.753 267.097 107.077 267.031 106.314L266.935 105.215L266.972 105.153C268.01 104.684 270.005 103.593 271.712 101.568C273.891 98.9823 274.834 95.8086 274.514 92.1358C274.055 86.8789 271.184 84.2388 268.856 82.9489Z" fill="#E7E8E5"/>
<path d="M263.758 109.323L263.344 109.359C261.367 109.532 259.9 111.284 260.072 113.264C260.245 115.244 261.994 116.714 263.97 116.541L264.383 116.505C266.36 116.332 267.828 114.58 267.655 112.6C267.483 110.62 265.734 109.15 263.758 109.323Z" fill="#E7E8E5"/>
<path d="M123.023 240.969C119.664 239.384 115.932 239.209 113.559 239.572C111.337 239.914 108.12 240.766 105.416 242.893C103.736 244.214 102.486 245.859 101.701 247.781C100.771 250.058 100.489 252.741 100.864 255.758C100.92 256.21 101.151 256.611 101.515 256.887C101.881 257.164 102.331 257.278 102.785 257.208L108.612 256.315C109.434 256.189 110.047 255.466 110.038 254.633C110.016 252.763 110.629 249.514 114.978 248.77C118.293 248.204 120.03 250.402 120.625 251.373C121.591 252.955 121.718 254.987 120.963 256.809C119.805 259.608 117.012 260.437 115.451 260.683C113.655 260.966 112.417 262.65 112.69 264.44L113.65 270.722C113.791 271.639 114.65 272.271 115.566 272.131L121.243 271.26C122.159 271.119 122.79 270.259 122.649 269.341L122.447 268.021L122.487 267.944C123.704 267.294 126.03 265.82 127.934 263.239C130.364 259.944 131.253 256.036 130.579 251.623C129.613 245.308 125.938 242.343 123.023 240.969Z" fill="#E7E8E5"/>
<path d="M118.928 273.234L118.432 273.31C116.057 273.674 114.421 275.905 114.785 278.284C115.148 280.663 117.376 282.302 119.75 281.938L120.247 281.861C122.622 281.497 124.258 279.265 123.894 276.886C123.53 274.508 121.303 272.869 118.928 273.234Z" fill="#E7E8E5"/>
<path d="M71.9263 122.098C67.2032 119.879 61.9588 119.642 58.626 120.16C55.5045 120.644 50.9871 121.85 47.1931 124.846C44.8366 126.705 43.0844 129.019 41.9858 131.722C40.6845 134.923 40.2957 138.694 40.8297 142.931C40.9099 143.566 41.2358 144.129 41.7478 144.515C42.262 144.904 42.8959 145.063 43.5323 144.965L51.7168 143.694C52.8716 143.514 53.7307 142.497 53.7153 141.327C53.6805 138.7 54.534 134.134 60.6426 133.077C65.2984 132.274 67.7447 135.357 68.5819 136.721C69.944 138.941 70.1267 141.796 69.0719 144.357C67.4501 148.293 63.5289 149.465 61.3359 149.814C58.8137 150.215 57.0781 152.586 57.4668 155.099L58.8319 163.923C59.0311 165.211 60.2396 166.097 61.5257 165.898L69.5004 164.659C70.7866 164.46 71.6703 163.249 71.4711 161.96L71.1843 160.107L71.2397 159.998C72.9482 159.082 76.2119 157.004 78.88 153.373C82.2861 148.738 83.5264 143.245 82.5681 137.047C81.1957 128.178 76.0236 124.022 71.9263 122.098Z" fill="#E7E8E5"/>
<path d="M66.2523 167.439L65.5548 167.547C62.2197 168.065 59.9272 171.204 60.4438 174.545C60.9609 177.886 64.0943 180.183 67.4294 179.665L68.127 179.557C71.4624 179.039 73.7547 175.9 73.238 172.559C72.7212 169.217 69.5875 166.921 66.2523 167.439Z" fill="#E7E8E5"/>
<path d="M187.199 66.2122L193.369 67.2421C196.402 70.8738 200.553 73.6532 205.533 74.9815C217.277 78.1126 229.702 71.6522 233.932 60.2379C238.818 47.049 231.356 32.4845 217.682 28.8486C206.073 25.7614 193.791 32.0264 189.435 43.2397C187.275 48.8045 187.338 54.632 189.148 59.7991L189.14 59.7874L187.199 66.2122Z" fill="white"/>
<path d="M187.203 66.2126C187.203 66.2126 187.235 66.0789 187.313 65.8039C187.395 65.5159 187.513 65.1065 187.666 64.5758C187.99 63.469 188.463 61.8547 189.074 59.7673L189.116 59.6226L189.203 59.7467L189.211 59.7577L189.083 59.8229C188.097 57.0326 187.258 53.0504 187.959 48.3545C188.298 46.0174 189.046 43.5439 190.253 41.0903C191.479 38.6491 193.226 36.2654 195.485 34.1986C197.751 32.1434 200.538 30.4263 203.691 29.3072C206.836 28.1949 210.358 27.6381 213.933 28.0214C217.504 28.3739 221.104 29.5644 224.331 31.5571C227.574 33.5314 230.343 36.4238 232.325 39.8416C233.374 41.5498 234.075 43.4212 234.672 45.2871C234.808 45.7575 234.897 46.241 235.011 46.7155C235.104 47.1942 235.259 47.6605 235.3 48.1453C235.358 48.6274 235.416 49.1081 235.474 49.5874L235.557 50.3054L235.569 51.0261C235.709 54.8663 234.89 58.6166 233.402 61.9226C231.927 65.2485 229.638 68.036 227.069 70.2098C224.485 72.3837 221.565 73.9245 218.626 74.8386C215.679 75.7438 212.722 76.0352 209.987 75.8487C209.307 75.7692 208.637 75.691 207.978 75.6142C207.322 75.5216 206.692 75.3481 206.066 75.2226C204.816 74.9511 203.65 74.5396 202.556 74.0973C198.165 72.2904 195.186 69.5385 193.318 67.2879L193.36 67.3119C191.373 66.9621 189.829 66.6906 188.767 66.5041C188.259 66.4122 187.869 66.3409 187.591 66.2908C187.329 66.2421 187.203 66.2126 187.203 66.2126C187.203 66.2126 187.35 66.2291 187.622 66.2702C187.905 66.3128 188.302 66.3738 188.82 66.4533C189.875 66.62 191.409 66.8614 193.383 67.1734L193.409 67.1775L193.426 67.1974C195.307 69.4144 198.282 72.121 202.643 73.8854C203.728 74.3175 204.886 74.7193 206.123 74.9819C206.744 75.1026 207.368 75.272 208.017 75.3605C208.669 75.4339 209.331 75.5079 210.005 75.584C212.71 75.7575 215.63 75.4579 218.538 74.5554C221.44 73.6434 224.317 72.1142 226.861 69.963C229.392 67.8125 231.643 65.0606 233.092 61.7807C234.554 58.5193 235.357 54.8217 235.217 51.0392L235.205 50.3294L235.123 49.6217C235.065 49.1499 235.008 48.6761 234.95 48.2015C234.911 47.7236 234.756 47.2641 234.665 46.7923C234.552 46.3253 234.465 45.8494 234.331 45.3852C233.741 43.5481 233.051 41.7034 232.017 40.0213C230.063 36.6543 227.338 33.8036 224.144 31.8568C220.967 29.8914 217.417 28.7134 213.9 28.3616C210.377 27.9782 206.904 28.5207 203.798 29.6117C200.686 30.7089 197.929 32.3965 195.685 34.4194C193.447 36.454 191.713 38.802 190.491 41.2111C189.289 43.6317 188.535 46.0764 188.186 48.3887C187.467 53.0354 188.269 56.99 189.22 59.7749L189.393 60.283L189.092 59.84L189.084 59.829L189.213 59.8091C188.571 61.8678 188.076 63.4594 187.736 64.5504C187.567 65.0853 187.438 65.4947 187.345 65.7854C187.257 66.0652 187.203 66.2126 187.203 66.2126Z" fill="#17282F"/>
<path d="M216.663 40.9132C214.837 39.7015 212.674 39.2797 211.258 39.2893C209.931 39.2982 207.981 39.5211 206.222 40.5312C205.129 41.1593 204.259 42.0117 203.637 43.0664C202.9 44.3165 202.507 45.8588 202.469 47.6513C202.463 47.9201 202.564 48.1738 202.753 48.3659C202.943 48.5585 203.197 48.6641 203.467 48.6621L206.944 48.6388C207.435 48.6354 207.854 48.2657 207.919 47.7788C208.066 46.6851 208.701 44.8418 211.302 44.7787C213.285 44.7321 214.112 46.1632 214.376 46.7811C214.806 47.7871 214.707 48.9837 214.112 49.9828C213.196 51.5175 211.496 51.763 210.564 51.7726C209.491 51.7843 208.625 52.662 208.632 53.7298L208.657 57.4787C208.662 58.0259 209.109 58.4683 209.655 58.4648L213.044 58.4415C213.59 58.4374 214.031 57.9896 214.028 57.4417L214.023 56.6544L214.052 56.6126C214.818 56.3376 216.301 55.6752 217.632 54.3318C219.331 52.6161 220.183 50.4114 220.165 47.7782C220.14 44.0093 218.247 41.9651 216.663 40.9132Z" fill="#349F6E"/>
<path d="M211.525 59.3942L211.228 59.3963C209.811 59.4059 208.666 60.5682 208.676 61.9884C208.685 63.4079 209.846 64.5545 211.263 64.5449L211.56 64.5428C212.977 64.5332 214.121 63.3709 214.111 61.9514C214.102 60.5319 212.942 59.3846 211.525 59.3942Z" fill="#349F6E"/>
<path d="M220.969 97.1263C204.807 86.236 185.591 82.3553 172.997 82.3553C161.203 82.3553 143.845 84.2192 128.135 93.0968C118.378 98.6109 110.593 106.144 104.996 115.487C98.3668 126.554 94.7787 140.247 94.3317 156.187C94.2646 158.577 95.1462 160.841 96.815 162.56C98.4914 164.287 100.739 165.239 103.143 165.239H134.069C138.434 165.239 142.185 161.977 142.795 157.652C144.166 147.936 149.922 131.577 173.066 131.177C190.696 130.873 197.971 143.66 200.281 149.173C204.04 158.144 203.086 168.781 197.73 177.629C189.5 191.221 174.361 193.302 166.07 193.333C156.535 193.368 148.777 201.122 148.777 210.619V243.959C148.777 248.828 152.731 252.789 157.591 252.789H187.723C192.583 252.789 196.537 248.828 196.537 243.959V236.954C196.537 236.786 196.642 236.64 196.803 236.584C203.629 234.185 216.86 228.388 228.777 216.517C243.99 201.364 251.704 181.806 251.704 158.387C251.704 124.872 234.99 106.574 220.969 97.1263Z" fill="#349F6E"/>
<path d="M171.898 268.341H174.33C186.296 268.341 196.032 278.094 196.032 290.083C196.032 302.072 186.296 311.824 174.33 311.824H171.898C159.931 311.824 150.195 302.072 150.195 290.083C150.195 278.094 159.931 268.341 171.898 268.341Z" fill="#17282F"/>
<path d="M157.474 259.236H187.593C192.451 259.236 196.403 255.401 196.403 250.686V237.056C196.403 236.893 196.508 236.753 196.67 236.698C200.23 235.486 205.211 233.262 210.847 229.792C191.603 229.657 156.526 229.46 148.664 229.747V250.686C148.664 255.401 152.616 259.236 157.474 259.236Z" fill="#17282F"/>
<path d="M182.282 108.203L162.954 51.9709C158.872 37.8912 147.291 28.5356 133.355 33.0135L132.092 33.5017C119.375 38.4247 112.556 52.3028 116.431 65.3978C120.037 77.5815 124.176 90.9967 126.699 97.3055C131.922 110.366 145.594 106.7 145.594 106.7C145.624 106.69 148.637 115.405 149.955 119.317L157.034 126.324L159.958 123.124L182.282 108.203Z" fill="#F9A78D"/>
<path d="M145.594 106.7C145.594 106.7 154.038 103.99 160.701 95.0477C160.701 95.0477 160.403 106.501 146.876 110.379L145.594 106.7Z" fill="#F57F62"/>
<path d="M125.89 74.2774C126.236 75.2806 127.37 75.8135 128.423 75.4699C129.473 75.127 130.046 74.0374 129.699 73.0342C129.353 72.0309 128.219 71.4967 127.168 71.8396C126.116 72.1831 125.543 73.2742 125.89 74.2774Z" fill="#17282F"/>
<path d="M121.236 69.4798C121.562 69.6341 122.574 68.0349 124.589 67.2614C126.591 66.4591 128.468 66.9247 128.591 66.5935C128.656 66.4426 128.25 66.0929 127.426 65.8728C126.612 65.6506 125.357 65.6143 124.105 66.1053C122.855 66.5976 121.978 67.4678 121.554 68.1755C121.119 68.8915 121.08 69.4147 121.236 69.4798Z" fill="#17282F"/>
<path d="M142.72 67.5911C143.047 67.7454 144.06 66.1463 146.074 65.3728C148.075 64.5711 149.953 65.0367 150.076 64.7048C150.141 64.554 149.737 64.2042 148.91 63.9848C148.097 63.7619 146.842 63.7263 145.59 64.2166C144.339 64.709 143.463 65.5799 143.039 66.2869C142.605 67.0021 142.564 67.526 142.72 67.5911Z" fill="#17282F"/>
<path d="M139.904 80.599C139.869 80.4803 138.534 80.7478 136.407 81.273C135.872 81.4191 135.346 81.5055 135.124 81.1873C134.86 80.8623 134.86 80.2239 134.879 79.5278C134.882 78.0946 134.884 76.5928 134.886 75.0184C134.845 68.6183 134.602 63.4368 134.345 63.4402C134.088 63.4444 133.913 68.6348 133.956 75.0348C133.978 76.6086 133.998 78.1083 134.021 79.5429C134.052 80.204 133.973 80.9967 134.533 81.6673C134.82 81.9986 135.305 82.1316 135.668 82.0932C136.037 82.0665 136.329 81.9602 136.589 81.8772C138.671 81.1969 139.94 80.7162 139.904 80.599Z" fill="#17282F"/>
<path d="M138.064 56.2525C138.535 56.6619 140.28 55.3644 142.638 54.3927C144.977 53.3737 147.121 53.0226 147.157 52.3993C147.165 52.1051 146.585 51.7965 145.587 51.7039C144.596 51.6086 143.193 51.7759 141.785 52.3712C140.377 52.9698 139.281 53.8613 138.658 54.6403C138.03 55.422 137.847 56.0543 138.064 56.2525Z" fill="#17282F"/>
<path d="M118.857 63.5862C119.448 63.8907 120.919 62.8024 122.894 62.0467C124.844 61.2334 126.667 61.0023 126.876 60.3776C126.959 60.0814 126.525 59.7173 125.631 59.5527C124.748 59.3854 123.409 59.4779 122.06 60.0169C120.711 60.5566 119.685 61.411 119.169 62.1379C118.643 62.8703 118.589 63.4299 118.857 63.5862Z" fill="#17282F"/>
<path d="M165.418 61.4661C165.603 61.283 173.39 55.3163 176.564 64.3983C179.737 73.4803 169.981 74.799 169.874 74.5439C169.767 74.2895 165.418 61.4661 165.418 61.4661Z" fill="#F9A78D"/>
<path d="M171.439 70.1303C171.468 70.0878 171.635 70.1858 171.945 70.2146C172.247 70.2427 172.724 70.168 173.134 69.8251C173.969 69.1373 174.243 67.3311 173.715 65.6784C173.449 64.8439 173.002 64.1177 172.481 63.5684C171.972 63.0013 171.381 62.6872 170.869 62.7708C170.35 62.8278 170.11 63.2365 170.088 63.5313C170.056 63.8276 170.177 63.9887 170.134 64.0216C170.117 64.0525 169.886 63.9373 169.828 63.5368C169.803 63.3428 169.834 63.0918 169.986 62.8429C170.142 62.5891 170.43 62.3861 170.778 62.3052C171.494 62.1084 172.349 62.5322 172.921 63.1343C173.531 63.7268 174.054 64.5367 174.353 65.4734C174.934 67.3242 174.598 69.365 173.42 70.2036C172.84 70.5945 172.24 70.5883 171.891 70.4704C171.532 70.3442 171.413 70.1584 171.439 70.1303Z" fill="#F57F62"/>
<path d="M146.743 79.6837C146.424 79.7707 147.12 81.8671 145.826 83.9545C144.537 86.046 142.229 86.5582 142.311 86.8565C142.326 86.9978 142.943 87.0972 143.893 86.8072C144.827 86.5294 146.075 85.7806 146.867 84.5038C147.655 83.2248 147.718 81.8506 147.502 80.9674C147.289 80.0642 146.882 79.6233 146.743 79.6837Z" fill="#17282F"/>
<path d="M93.7982 59.0205C93.7544 58.4349 93.9878 57.8582 94.3643 57.409C95.1864 56.4284 96.4109 56.0883 97.5595 55.6618C100.418 54.6009 103.01 52.8577 105.115 50.6503C104.062 50.5118 103.033 50.2546 102.075 49.7966C100.096 48.8496 98.4665 46.9062 98.4473 44.709C98.4432 44.2969 98.5219 43.8361 98.8525 43.5906C99.3775 43.2018 100.096 43.5988 100.668 43.9136C102.548 44.9477 104.023 45.1561 105.964 44.242C107.169 43.6742 108.281 42.9659 109.049 42.0058L109.118 41.8392C109.418 41.1857 109.713 40.5582 110.008 39.9479L110.01 39.9431V39.9458C112.227 35.3562 114.332 31.9754 116.922 29.6933C120.717 26.3482 127.86 23.0141 132.898 22.5985C137.937 22.1823 143.396 24.4686 145.702 28.976C147.518 25.8723 151.407 24.5207 155.004 24.677L155.07 24.6147C159.019 24.6291 162.318 27.6388 164.613 30.857C164.739 31.0332 164.858 31.2143 164.98 31.3925C166.829 32.858 169.009 33.9024 171.326 34.3454C171.735 34.4235 172.208 34.5284 172.387 34.9049C172.564 35.2773 172.351 35.7141 172.114 36.0529C171.485 36.9526 170.645 37.6952 169.691 38.237C170.311 38.9755 170.978 39.6702 171.723 40.2956C172.355 40.8277 173.108 41.4661 173.008 42.2877C172.931 42.922 172.324 43.3869 171.697 43.5096C171.07 43.6324 170.426 43.4891 169.804 43.3458C170.525 44.146 171.246 44.947 171.968 45.7473C170.777 46.4165 169.427 46.7786 168.062 46.839C168.496 50.4535 170.119 56.8584 170.056 59.434C167.666 60.3248 166.99 60.2693 165.919 61.1004C164.533 62.1756 166.11 64.7465 163.791 64.6772C162.61 64.6409 159.627 61.2581 158.905 60.3207C154.123 54.0976 150.705 46.8293 148.951 39.1751C146.952 38.1362 144.752 37.4868 142.51 37.2749L142.718 37.3613C138.56 37.3798 133.924 37.591 131.022 40.5733C128.771 42.8877 128.165 46.2869 126.922 49.2679C124.567 54.9177 120.999 58.749 115.328 61.0298C116.217 65.2197 118.368 71.8268 119.488 75.6348L113.668 69.2759L113.677 69.3074C113.265 68.9597 112.897 68.5922 112.536 68.2219L112.419 68.1128L112.412 68.0957C111.836 67.4998 111.275 66.897 110.615 66.3395L110.59 66.3841C109.197 68.885 105.256 67.2042 106.085 64.4626C106.249 63.9188 106.492 63.4004 106.813 62.9293C106.194 64.1252 104.963 65.0284 103.619 65.0825C102.276 65.1374 100.905 64.2411 100.564 62.9375C100.332 62.0481 100.677 61.0586 101.336 60.4421C99.7465 61.145 97.9511 61.3781 96.2412 61.0668C95.12 60.8631 93.8954 60.3084 93.7982 59.0205Z" fill="#17282F"/>
<path d="M142.063 31.9723C142.048 32.0162 142.742 32.128 143.821 32.7218C144.892 33.3143 146.281 34.5123 147.407 36.4132C147.973 37.3561 148.504 38.4464 148.934 39.6698C149.369 40.8911 149.732 42.2352 150.123 43.6492C150.52 45.0604 150.934 46.554 151.556 48.04C151.867 48.7813 152.229 49.5198 152.664 50.2323C153.096 50.9297 153.583 51.6813 154.383 52.1305C155.024 52.5008 155.866 52.4679 156.475 52.1003C157.097 51.7492 157.562 51.1876 157.824 50.5532C158.326 49.2544 158.094 47.9145 157.914 46.7247L157.647 46.8571C158.454 47.6985 159.27 48.5234 160.239 49.07C161.199 49.6254 162.326 49.8188 163.314 49.5665C163.806 49.4417 164.26 49.1955 164.596 48.8444C164.942 48.4933 165.123 48.0393 165.203 47.5997C165.27 47.1567 165.229 46.711 165.07 46.3229C164.908 45.9368 164.624 45.6173 164.281 45.4403L164.184 45.6159C165.617 46.4216 166.917 46.6671 167.785 46.7508C168.223 46.7919 168.562 46.7892 168.789 46.783C169.016 46.7713 169.133 46.759 169.133 46.7501C169.132 46.7398 169.015 46.7343 168.789 46.7275C168.563 46.7165 168.228 46.7014 167.798 46.6438C166.943 46.5286 165.672 46.2543 164.284 45.4424L164.188 45.6179C164.801 45.9341 165.119 46.7563 164.97 47.56C164.893 47.9584 164.723 48.3657 164.416 48.6681C164.114 48.976 163.699 49.1975 163.248 49.3073C162.338 49.5301 161.286 49.347 160.383 48.8156C159.465 48.2903 158.675 47.4859 157.872 46.6404L157.532 46.2824L157.606 46.7727C157.786 47.9611 157.986 49.2558 157.524 50.4291C157.29 50.9976 156.862 51.5078 156.317 51.813C155.776 52.1311 155.096 52.1551 154.539 51.8411C153.843 51.4536 153.366 50.748 152.941 50.0602C152.517 49.3662 152.16 48.6434 151.853 47.9152C151.237 46.4552 150.819 44.974 150.416 43.5662C150.015 42.1563 149.642 40.8095 149.19 39.5758C148.743 38.3415 148.193 37.2409 147.605 36.2911C146.436 34.3758 144.991 33.1758 143.883 32.6093C142.764 32.0402 142.063 31.9723 142.063 31.9723Z" fill="#33535F"/>
<path d="M105.594 59.3761C105.592 59.3809 105.639 59.3994 105.732 59.4289C105.845 59.4632 105.981 59.5043 106.148 59.5544C106.332 59.612 106.56 59.6737 106.837 59.7169C107.112 59.7676 107.43 59.8355 107.793 59.8575C109.231 60.009 111.411 59.8945 113.828 58.8769C116.225 57.8764 118.855 55.9721 120.789 53.0919C122.766 50.2488 124.103 46.6171 124.871 42.7276C125.27 40.7787 125.476 38.8524 125.807 37.0242C126.132 35.1967 126.587 33.4522 127.347 31.9346C128.092 30.415 129.123 29.1231 130.351 28.2632C130.958 27.8209 131.626 27.5342 132.284 27.3189C132.95 27.1228 133.616 27.037 134.253 27.0233C135.531 27.0041 136.675 27.3107 137.604 27.7146C138.536 28.1233 139.251 28.6506 139.784 29.1306C140.817 30.1387 141.125 30.9108 141.168 30.8806C141.174 30.8779 141.154 30.8326 141.109 30.7449C141.053 30.6406 140.986 30.5151 140.903 30.3608C140.713 30.0276 140.379 29.5661 139.873 29.038C139.344 28.5347 138.626 27.9806 137.679 27.5465C136.736 27.1173 135.568 26.7854 134.251 26.7902C133.594 26.797 132.905 26.8786 132.212 27.0754C131.529 27.2901 130.826 27.587 130.195 28.0389C128.915 28.9201 127.845 30.2484 127.077 31.7988C126.29 33.35 125.821 35.1261 125.49 36.9666C125.153 38.8099 124.944 40.732 124.549 42.6631C123.786 46.5232 122.473 50.1117 120.539 52.9198C118.648 55.7656 116.088 57.6466 113.737 58.6629C111.37 59.6908 109.228 59.8403 107.805 59.7293C106.367 59.6134 105.605 59.3295 105.594 59.3761Z" fill="#33535F"/>
<path d="M102.336 53.9638C102.332 53.9864 102.542 54.044 102.928 54.1277C103.313 54.2196 103.882 54.2991 104.588 54.3471C105.295 54.402 106.142 54.3869 107.075 54.2936C108.007 54.1846 109.024 53.9891 110.059 53.6662C111.091 53.3322 112.036 52.9064 112.861 52.4586C113.677 51.995 114.378 51.5198 114.925 51.0679C115.474 50.6201 115.894 50.2271 116.156 49.9302C116.424 49.6388 116.563 49.4708 116.546 49.455C116.502 49.4118 115.902 50.0475 114.783 50.8827C114.227 51.3051 113.525 51.7522 112.716 52.1911C111.9 52.6163 110.971 53.025 109.96 53.3528C108.945 53.6682 107.952 53.8691 107.041 53.9926C106.127 54.0996 105.295 54.1386 104.598 54.1153C103.203 54.0776 102.347 53.9034 102.336 53.9638Z" fill="#33535F"/>
<path d="M127.159 149.021C127.04 149.055 128.592 156.839 130.111 164.914H130.591C129.072 156.839 127.277 148.987 127.159 149.021Z" fill="#17282F"/>
<path d="M133.717 165.307C138.111 165.307 142.155 162.136 142.769 157.817C144.149 148.115 149.675 131.693 172.971 131.294C190.717 130.991 198.187 143.576 200.28 149.173C203.602 158.059 203.19 168.844 197.798 177.678C189.514 191.251 174.275 193.329 165.929 193.359C156.331 193.394 148.522 201.138 148.522 210.621V246.871L196.597 245.965V236.918C196.597 236.75 196.702 236.604 196.865 236.548C202.721 234.506 212.006 230.635 222.452 222.195L219.322 180.447C219.322 180.447 228.471 162.831 228.018 158.867C223.876 122.657 211.583 102.169 206.587 100.258C200.978 98.1124 179.321 99.1575 179.321 99.1575C179.321 99.1575 169.967 116.52 156.844 118.443C149.543 119.513 146.877 110.379 146.877 110.379L129.916 120.341C117.845 126.441 115.503 150.172 115.281 165.307H133.717Z" fill="#33535F"/>
<path d="M182.471 190.354C182.466 190.345 182.461 190.336 182.457 190.327C182.457 190.327 183.555 189.874 184.808 189.285C184.814 189.295 184.821 189.304 184.828 189.314C184.046 189.694 183.259 190.039 182.471 190.354ZM185.19 189.136C185.183 189.128 185.178 189.121 185.172 189.112C185.609 188.903 186.053 188.681 186.467 188.459C186.495 188.444 186.523 188.429 186.55 188.414C186.099 188.667 185.645 188.907 185.19 189.136Z" fill="#A7A9A8"/>
<path d="M184.828 189.312C184.822 189.303 184.815 189.293 184.809 189.284C184.863 189.258 184.919 189.232 184.976 189.206C184.982 189.214 184.988 189.222 184.994 189.232C184.939 189.258 184.884 189.286 184.828 189.312Z" fill="#979999"/>
<path d="M184.995 189.232C184.989 189.223 184.983 189.215 184.977 189.206C185.042 189.175 185.107 189.143 185.174 189.112C185.179 189.12 185.185 189.127 185.191 189.135C185.126 189.167 185.06 189.2 184.995 189.232Z" fill="#979999"/>
<path d="M220.669 198.424L220.476 195.85C220.954 196.57 220.892 197.542 220.669 198.424ZM182.476 190.367C182.474 190.362 182.471 190.357 182.469 190.352C183.257 190.038 184.044 189.692 184.826 189.312C184.882 189.286 184.937 189.258 184.992 189.231C185.057 189.199 185.123 189.166 185.188 189.134C185.643 188.906 186.097 188.666 186.548 188.413C188.127 187.56 189.429 186.634 189.429 186.634C189.43 186.634 189.431 186.634 189.431 186.634C187.199 188.21 184.843 189.428 182.476 190.367Z" fill="#CC4341"/>
<path d="M206.606 210.982C203.74 210.982 200.992 209.626 198.554 208.067C191.83 203.768 186.091 197.491 182.477 190.367C184.844 189.428 187.199 188.21 189.432 186.634C199.121 189.106 208.674 192.232 218.364 194.704C219.083 194.887 219.849 195.098 220.333 195.661C220.386 195.721 220.433 195.784 220.476 195.849L220.669 198.424C220.638 198.548 220.604 198.671 220.567 198.791C219.547 202.127 217.35 205.012 214.732 207.316C212.624 209.171 210.098 210.736 207.3 210.956C207.068 210.974 206.836 210.982 206.606 210.982Z" fill="#20353D"/>
<path d="M200.082 149.425C203.956 158.382 202.974 169.004 197.452 177.839C194.388 182.742 190.486 186.242 186.23 188.59C190.815 193.585 195.466 197.986 200.066 201.256C205.016 204.775 216.423 203.774 220.748 196.071C226.085 186.566 226.531 162.285 226.531 162.285C227.545 147.647 227.545 147.647 227.545 147.647L197.702 143.068L197.463 143.888C198.744 145.811 199.498 148.075 200.082 149.425Z" fill="#F9A78D"/>
<path d="M148.119 143.271L146.419 145.955C145.128 146.848 143.898 146.357 143.101 144.698L124.73 116.686L129.206 113.834L149.495 140.698C149.495 140.698 149.781 142.122 148.119 143.271Z" fill="#33535F"/>
<path d="M125.144 81.7552C119.968 78.8284 113.507 78.3525 107.716 81.044C103.093 83.1932 99.5813 87.0176 97.8289 91.8123C96.0766 96.607 96.2929 101.799 98.4381 106.43C100.583 111.063 104.401 114.58 109.187 116.335C113.973 118.091 119.155 117.873 123.778 115.724C128.401 113.576 131.913 109.751 133.665 104.957C135.417 100.162 135.201 94.9702 133.055 90.3386C131.314 86.5787 128.499 83.6519 125.144 81.7552ZM105.675 116.207C102.079 114.174 99.0624 111.038 97.1958 107.008C94.8966 102.044 94.6645 96.4795 96.5428 91.3412C98.421 86.2015 102.184 82.1035 107.139 79.8001C117.368 75.0445 129.551 79.5135 134.298 89.7612C136.597 94.7254 136.829 100.289 134.95 105.428C133.073 110.567 129.31 114.665 124.354 116.969C118.149 119.854 111.222 119.344 105.675 116.207Z" fill="#17282F"/>
<path d="M126.015 80.8963C120.839 77.9695 114.377 77.4936 108.586 80.1852C103.963 82.3343 100.452 86.1587 98.6995 90.9534C96.9472 95.7482 97.1642 100.939 99.3094 105.571C101.455 110.203 105.271 113.721 110.058 115.476C114.843 117.231 120.026 117.015 124.649 114.865C129.272 112.716 132.783 108.892 134.536 104.097C136.288 99.3024 136.072 94.1113 133.926 89.4798C132.185 85.7198 129.37 82.7931 126.015 80.8963ZM106.546 115.348C102.95 113.315 99.9337 110.179 98.0664 106.148C95.7678 101.185 95.5358 95.6206 97.4134 90.4816C99.2916 85.3427 103.055 81.244 108.01 78.9406C118.238 74.1856 130.422 78.6546 135.169 88.9024C137.467 93.8665 137.699 99.4306 135.822 104.569C133.943 109.708 130.181 113.807 125.226 116.11C119.019 118.994 112.093 118.484 106.546 115.348Z" fill="#33535F"/>
<path d="M133.627 97.8105C133.619 97.8105 133.612 97.6947 133.606 97.4738C133.59 97.2544 133.616 96.9287 133.567 96.5131C133.521 95.6806 133.334 94.4778 132.89 93.0556C132.671 92.3431 132.361 91.586 131.994 90.7913C131.597 90.0116 131.161 89.1804 130.595 88.3726C130.044 87.558 129.411 86.7371 128.674 85.9595C127.943 85.1784 127.134 84.4145 126.22 83.7418C125.311 83.0636 124.355 82.4985 123.389 82.0391C122.418 81.5899 121.439 81.256 120.491 81.0002C118.584 80.5195 116.798 80.3865 115.313 80.4742C113.826 80.5565 112.636 80.791 111.834 81.0146C111.426 81.1065 111.125 81.2279 110.911 81.2834C110.7 81.3465 110.588 81.3767 110.586 81.3691C110.583 81.3623 110.69 81.3184 110.897 81.2416C111.106 81.1723 111.405 81.0372 111.811 80.9323C112.61 80.682 113.805 80.4221 115.304 80.3193C116.801 80.2109 118.608 80.3282 120.541 80.8041C121.502 81.0578 122.494 81.3918 123.479 81.8443C124.459 82.3065 125.43 82.8784 126.351 83.5656C127.277 84.2479 128.095 85.0214 128.832 85.8127C129.574 86.6014 130.21 87.4332 130.763 88.2602C131.329 89.0789 131.764 89.9217 132.159 90.7131C132.522 91.5195 132.827 92.2869 133.037 93.0096C133.467 94.4518 133.632 95.6683 133.652 96.5083C133.688 96.9273 133.648 97.2544 133.65 97.4752C133.643 97.696 133.634 97.8112 133.627 97.8105Z" fill="white"/>
<path d="M112.289 114.489C112.304 114.438 113.238 114.787 114.813 115.002C115.011 115.026 115.217 115.051 115.431 115.077C115.647 115.101 115.872 115.101 116.105 115.116C116.571 115.153 117.07 115.129 117.593 115.118C118.64 115.056 119.786 114.898 120.956 114.59C122.124 114.266 123.195 113.826 124.131 113.354C124.589 113.099 125.032 112.869 125.416 112.602C125.61 112.472 125.805 112.358 125.979 112.229C126.152 112.099 126.317 111.974 126.477 111.854C127.73 110.874 128.362 110.104 128.401 110.139C128.412 110.149 128.253 110.339 127.955 110.673C127.809 110.844 127.623 111.046 127.384 111.258C127.15 111.473 126.896 111.735 126.572 111.975C126.414 112.1 126.249 112.231 126.078 112.367C125.905 112.501 125.71 112.62 125.516 112.754C125.132 113.031 124.686 113.27 124.224 113.533C123.281 114.022 122.197 114.474 121.014 114.802C119.826 115.114 118.663 115.269 117.602 115.321C117.071 115.325 116.567 115.343 116.096 115.297C115.86 115.279 115.632 115.274 115.415 115.245C115.198 115.214 114.99 115.184 114.79 115.155C114.391 115.111 114.04 115.012 113.729 114.945C113.417 114.881 113.155 114.8 112.943 114.726C112.517 114.587 112.284 114.503 112.289 114.489Z" fill="white"/>
<path d="M126.36 101.367C126.316 101.409 123.651 98.7355 120.406 95.3966C117.161 92.0563 114.566 89.3154 114.61 89.2729C114.653 89.231 117.318 91.9034 120.564 95.2437C123.807 98.5826 126.403 101.324 126.36 101.367Z" fill="white"/>
<path d="M123.213 106.734C123.207 106.739 123.141 106.674 123.019 106.544C122.883 106.397 122.709 106.207 122.495 105.972C122.026 105.45 121.379 104.729 120.588 103.847C118.981 102.051 116.754 99.5763 114.264 96.8704C111.773 94.1644 109.492 91.7396 107.835 89.9889C107.022 89.1269 106.358 88.4234 105.876 87.9132C105.659 87.6793 105.485 87.4901 105.349 87.3433C105.23 87.211 105.171 87.139 105.176 87.1335C105.182 87.1287 105.251 87.1897 105.381 87.3118C105.525 87.4517 105.709 87.6313 105.937 87.8535C106.417 88.3267 107.104 89.0193 107.947 89.8813C109.632 91.6045 111.933 94.0142 114.425 96.7216C116.916 99.4289 119.126 101.922 120.705 103.744C121.494 104.656 122.127 105.398 122.559 105.916C122.761 106.162 122.924 106.36 123.052 106.515C123.163 106.654 123.219 106.729 123.213 106.734Z" fill="white"/>
<path d="M116.839 101.15L102.113 85.0889C102.113 85.0889 102.114 85.0882 102.116 85.0854C102.14 85.0573 102.164 85.0299 102.188 85.0018C102.329 84.8399 102.665 84.4689 103.153 84.0109C104.054 83.2209 105.033 82.5139 106.082 81.8995C110.139 87.4238 114.438 93.265 118.933 99.364C118.527 99.6946 118.127 100.03 117.731 100.369C116.716 99.233 115.601 98.0008 114.423 96.7205C111.931 94.0131 109.63 91.6034 107.945 89.8802C107.103 89.0182 106.415 88.3256 105.935 87.8524C105.707 87.6302 105.523 87.4506 105.379 87.3107C105.255 87.1934 105.185 87.1324 105.175 87.1324C105.174 87.1324 105.174 87.1324 105.174 87.1324C105.169 87.1379 105.228 87.2099 105.348 87.3422C105.483 87.489 105.658 87.6782 105.874 87.9121C106.356 88.4223 107.02 89.1258 107.834 89.9878C109.49 91.7385 111.772 94.1633 114.262 96.8693C115.438 98.1482 116.556 99.3743 117.577 100.502C117.33 100.716 117.083 100.933 116.839 101.15ZM119.567 98.8538C115.943 93.8547 112.44 89.0292 109.086 84.4148L121.2 97.5989C120.647 98.0097 120.103 98.4273 119.567 98.8538Z" fill="white"/>
<path d="M118.933 99.3652C114.438 93.2662 110.139 87.425 106.082 81.9007C106.231 81.8129 106.382 81.7272 106.534 81.6442C106.534 81.6435 106.536 81.6428 106.537 81.6422L109.086 84.416C112.44 89.0304 115.943 93.856 119.567 98.855C119.354 99.0237 119.143 99.1938 118.933 99.3652Z" fill="#EEEEEC"/>
<path d="M127.753 113.055L126.685 111.89C126.955 111.674 127.177 111.449 127.384 111.259C127.622 111.048 127.808 110.845 127.955 110.674C128.252 110.34 128.411 110.151 128.4 110.14C128.4 110.14 128.398 110.14 128.397 110.14C128.335 110.14 127.736 110.855 126.579 111.774L116.84 101.152C117.084 100.934 117.331 100.717 117.578 100.503C118.719 101.763 119.739 102.899 120.587 103.847C121.379 104.729 122.025 105.45 122.494 105.972C122.709 106.207 122.883 106.397 123.018 106.544C123.136 106.669 123.202 106.735 123.211 106.735C123.212 106.735 123.212 106.734 123.212 106.734C123.218 106.729 123.163 106.654 123.052 106.515C122.924 106.36 122.76 106.162 122.558 105.916C122.126 105.398 121.493 104.656 120.704 103.744C119.871 102.784 118.865 101.637 117.732 100.37C118.128 100.031 118.528 99.6957 118.934 99.3652C119.144 99.1937 119.355 99.0237 119.568 98.855C120.104 98.4284 120.648 98.0108 121.201 97.6001L131.647 108.968C131.647 108.968 130.014 111.256 128.335 112.623C128.156 112.761 127.975 112.897 127.79 113.03C127.777 113.038 127.765 113.046 127.753 113.055Z" fill="#F57E87"/>
<path d="M103.152 84.0117C103.942 83.2718 105.129 82.3076 106.533 81.6438C106.381 81.7268 106.231 81.8125 106.081 81.9003C105.033 82.5148 104.053 83.2217 103.152 84.0117Z" fill="#57666B"/>
<path d="M127.79 113.029C127.975 112.896 128.156 112.76 128.335 112.622C128.153 112.77 127.971 112.907 127.79 113.029ZM102.117 85.0859C102.125 85.077 102.149 85.0482 102.189 85.0022C102.165 85.0303 102.141 85.0578 102.117 85.0859Z" fill="#6A858C"/>
<path d="M126.684 111.889L126.578 111.773C127.736 110.854 128.335 110.139 128.396 110.139C128.398 110.139 128.399 110.139 128.4 110.139C128.411 110.15 128.252 110.339 127.954 110.674C127.807 110.844 127.621 111.047 127.383 111.258C127.176 111.448 126.955 111.673 126.684 111.889Z" fill="white"/>
<path d="M123.212 106.734C123.202 106.734 123.137 106.669 123.019 106.544C122.883 106.396 122.709 106.206 122.495 105.971C122.026 105.449 121.379 104.729 120.588 103.847C119.74 102.899 118.72 101.763 117.579 100.503C116.558 99.3749 115.44 98.1488 114.264 96.8699C111.773 94.164 109.492 91.7392 107.835 89.9885C107.022 89.1265 106.358 88.4229 105.876 87.9127C105.659 87.6789 105.485 87.4896 105.349 87.3429C105.23 87.2105 105.171 87.1385 105.176 87.133C105.176 87.133 105.176 87.133 105.177 87.133C105.187 87.133 105.257 87.1941 105.381 87.3113C105.525 87.4512 105.709 87.6309 105.937 87.8531C106.417 88.3262 107.104 89.0188 107.947 89.8808C109.632 91.6041 111.933 94.0138 114.425 96.7211C115.603 98.0014 116.718 99.2337 117.733 100.37C118.865 101.637 119.872 102.783 120.705 103.744C121.494 104.655 122.127 105.397 122.559 105.916C122.761 106.161 122.924 106.36 123.052 106.515C123.163 106.653 123.219 106.729 123.213 106.734C123.213 106.734 123.213 106.734 123.212 106.734Z" fill="white"/>
<path d="M123.177 115.42L122.238 114.407C122.74 114.224 123.218 114.021 123.668 113.808L124.648 114.864C124.32 115.017 123.988 115.161 123.653 115.294C123.514 115.333 123.356 115.375 123.177 115.42Z" fill="#F57E87"/>
<path d="M113.215 104.662L99.2578 89.5929C99.2578 89.5929 99.2578 89.5922 99.2578 89.5915C99.4536 89.1602 99.6637 88.7377 99.8889 88.3249C99.9101 88.2975 99.932 88.2694 99.9553 88.2413L114.225 103.625C113.884 103.967 113.547 104.312 113.215 104.662Z" fill="white"/>
<path d="M122.08 114.234L113.215 104.662C113.547 104.312 113.884 103.967 114.225 103.625L123.522 113.647C123.067 113.857 122.585 114.055 122.08 114.234Z" fill="#F57E87"/>
<path d="M123.655 115.293C123.99 115.16 124.322 115.017 124.651 114.864C124.651 114.864 124.834 114.964 123.655 115.293ZM99.2578 89.5905C99.2633 89.5617 99.3858 88.9782 99.8889 88.324C99.6637 88.7368 99.4536 89.1592 99.2578 89.5905Z" fill="#6A858C"/>
<path d="M122.238 114.406L122.078 114.233C122.583 114.054 123.064 113.856 123.52 113.646L123.668 113.807C123.218 114.02 122.74 114.223 122.238 114.406Z" fill="white"/>
<path d="M164.962 132.166C159.688 127.923 146.76 117.544 146.17 117.267C145.426 116.919 134.049 112.869 131.871 114.17C129.691 115.472 123.848 122.819 123.848 122.819C123.848 122.819 124.403 127.389 129.5 124.118C133.388 121.623 133.991 121.237 134.059 121.193L134.051 121.198L139.469 122.466C139.469 122.466 132.861 125.231 131.463 126.684C130.066 128.138 127.855 133.704 129.234 134.986C130.613 136.268 132.214 136.377 132.214 136.377C132.214 136.377 129.485 140.259 134.325 142.602C134.325 142.602 135.031 145.865 137.418 147.143C139.805 148.422 144.252 147.969 144.252 147.969C144.252 147.969 146.314 146.747 144.782 144.721C143.25 142.696 140.425 142.416 140.425 142.416L143.927 140.369C143.927 140.369 145.749 140.928 148.449 143.017C148.449 143.017 151.647 138.915 154.84 136.597C158.424 133.995 164.962 132.166 164.962 132.166Z" fill="#F9A78D"/>
<path d="M142.538 133.892C142.536 133.876 142.351 133.879 142.018 133.922C141.685 133.964 141.207 134.06 140.634 134.244C139.493 134.602 137.962 135.394 136.708 136.761C135.452 138.129 134.792 139.723 134.531 140.893C134.397 141.48 134.342 141.965 134.327 142.3C134.312 142.636 134.324 142.822 134.34 142.822C134.389 142.826 134.4 142.081 134.709 140.937C135.01 139.801 135.679 138.265 136.898 136.937C138.117 135.61 139.589 134.813 140.694 134.417C141.805 134.012 142.546 133.94 142.538 133.892Z" fill="#F57F62"/>
<path d="M142.772 127.984C142.77 127.966 142.573 127.981 142.216 128.023C142.037 128.042 141.82 128.071 141.571 128.129C141.322 128.184 141.035 128.232 140.728 128.33C140.106 128.494 139.386 128.763 138.616 129.127C137.853 129.505 137.045 129.985 136.262 130.581C135.486 131.187 134.816 131.848 134.257 132.49C133.709 133.144 133.266 133.773 132.948 134.333C132.775 134.604 132.656 134.871 132.539 135.098C132.42 135.324 132.336 135.527 132.272 135.696C132.14 136.03 132.076 136.217 132.092 136.224C132.14 136.245 132.43 135.504 133.105 134.428C133.437 133.888 133.889 133.28 134.437 132.647C134.996 132.025 135.659 131.382 136.42 130.787C137.188 130.201 138.073 129.542 138.816 129.159C139.567 128.791 140.174 128.69 140.78 128.505C141.991 128.126 142.779 128.035 142.772 127.984Z" fill="#F57F62"/>
<path d="M143.763 121.201C143.77 121.173 143.496 121.068 143.027 121.036C142.56 121.002 141.897 121.076 141.231 121.357C140.331 121.742 140.014 122.119 139.754 122.429C139.451 122.789 139.337 123.06 139.363 123.074C139.423 123.128 140.051 122.126 141.333 121.596C142.603 121.039 143.76 121.282 143.763 121.201Z" fill="#F57F62"/>
<path d="M204.483 99.7107C204.483 99.7107 221.178 101.315 226.478 115.846C230.684 127.38 232.97 161.932 231.916 162.637L202.44 161.692C202.053 153.266 199.788 146.77 196.613 142.566L204.483 99.7107Z" fill="#33535F"/>
<path d="M202.892 161.692C202.906 161.671 203.111 161.787 203.47 162.014C203.831 162.24 204.339 162.589 204.95 163.041C206.175 163.942 207.797 165.29 209.435 166.94C211.075 168.588 212.419 170.211 213.34 171.421C213.8 172.027 214.16 172.526 214.396 172.88C214.633 173.233 214.755 173.435 214.735 173.45C214.691 173.482 214.11 172.745 213.143 171.578C212.175 170.414 210.811 168.828 209.183 167.192C207.557 165.555 205.975 164.188 204.796 163.241C203.618 162.292 202.86 161.738 202.892 161.692Z" fill="#F57F62"/>
<path d="M199.38 126.15C199.477 126.167 198.937 129.855 198.172 134.387C197.408 138.922 196.709 142.583 196.613 142.566C196.516 142.55 197.056 138.863 197.821 134.328C198.585 129.796 199.284 126.134 199.38 126.15Z" fill="#17282F"/>
<path d="M162.285 229.769C162.284 229.757 162.453 229.731 162.775 229.695C163.133 229.658 163.601 229.611 164.184 229.552C165.449 229.432 167.209 229.266 169.368 229.061C173.745 228.64 179.786 228.008 186.44 227.166C193.096 226.321 199.104 225.426 203.447 224.742C205.589 224.402 207.336 224.124 208.59 223.925C209.17 223.837 209.635 223.765 209.99 223.712C210.311 223.666 210.48 223.649 210.482 223.661C210.485 223.673 210.32 223.714 210.003 223.782C209.651 223.853 209.189 223.946 208.614 224.061C207.407 224.299 205.656 224.618 203.488 224.991C199.153 225.739 193.146 226.675 186.485 227.52C179.825 228.362 173.775 228.956 169.391 229.312C167.198 229.491 165.423 229.619 164.195 229.691C163.609 229.722 163.139 229.747 162.781 229.766C162.457 229.78 162.287 229.781 162.285 229.769Z" fill="#17282F"/>
<path d="M159.68 225.355C159.679 225.33 160.112 225.292 160.895 225.244C161.736 225.2 162.855 225.14 164.211 225.067C167.065 224.921 170.905 224.724 175.15 224.506C179.394 224.26 183.233 224.037 186.087 223.871C187.442 223.795 188.561 223.732 189.403 223.684C190.186 223.646 190.62 223.636 190.622 223.661C190.624 223.686 190.193 223.742 189.413 223.823C188.632 223.904 187.502 224.007 186.105 224.122C183.309 224.354 179.444 224.629 175.169 224.862C170.897 225.096 167.024 225.245 164.221 225.32C162.819 225.357 161.684 225.379 160.899 225.384C160.115 225.388 159.681 225.379 159.68 225.355Z" fill="#17282F"/>
<path d="M112.734 162.831C112.843 162.411 113.019 162.016 113.268 161.659C113.761 160.95 114.507 160.41 115.352 160.217C116.757 159.896 118.331 160.555 119.09 161.782C119.039 160.847 119.777 159.975 120.679 159.728C121.58 159.481 122.28 159.83 122.999 160.428C123.719 161.026 123.903 161.501 124.195 162.392C124.914 160.775 128.605 160.973 129.054 162.186C129.054 162.186 132.231 158.702 133.856 160.415C134.531 161.127 134.241 162.219 133.794 163.312C133.197 164.772 132.805 165.381 132.024 166.989L129.017 167.153C128.763 168.096 128.23 171.93 128.118 172.9C128.005 173.87 127.811 174.857 127.296 175.686C126.782 176.515 125.887 177.164 124.912 177.151C123.938 177.137 122.978 176.3 123.035 175.325C122.831 176.13 122.489 176.925 121.896 177.507C121.302 178.089 120.425 178.424 119.622 178.214C118.819 178.005 118.182 177.163 118.345 176.348C117.273 177.092 115.689 176.431 115.008 175.317C114.327 174.202 114.311 172.817 114.353 171.511C114.39 170.353 114.494 169.054 114.039 167.958C113.967 167.786 113.843 167.636 113.802 167.452C113.741 167.179 113.782 166.871 113.763 166.592C113.72 165.986 113.609 165.381 113.4 164.808C113.355 164.683 113.305 164.559 113.249 164.436C113.103 164.112 112.888 163.838 112.724 163.528C112.687 163.459 112.656 163.392 112.648 163.315C112.63 163.158 112.695 162.981 112.734 162.831Z" fill="#F9A78D"/>
<path d="M109.349 161.157C108.545 161.128 107.67 161.295 107.133 161.895C106.497 162.607 106.351 164.31 106.423 165.262C107.538 165.474 108.132 165.225 109.246 165.435C109.481 165.48 109.677 165.421 109.872 165.559C110.386 165.925 110.303 167.156 110.51 167.753C110.868 168.788 112.191 169.293 113.217 168.913C114.242 168.533 114.902 167.44 114.954 166.346C115.006 165.251 114.525 164.182 113.822 163.343C112.723 162.033 111.056 161.218 109.349 161.157Z" fill="#F9A78D"/>
<path d="M128.33 171.301C128.217 171.277 128.676 169.234 128.965 166.692C129.105 165.42 129.137 164.263 129.087 163.43C129.044 162.596 128.946 162.083 129.001 162.07C129.041 162.058 129.228 162.558 129.338 163.407C129.455 164.254 129.461 165.44 129.32 166.729C129.181 168.02 128.94 169.168 128.741 169.991C128.54 170.813 128.377 171.312 128.33 171.301Z" fill="#F57F62"/>
<path d="M122.901 175.689C122.851 175.678 122.98 174.936 123.199 173.742C123.416 172.547 123.721 170.899 123.953 169.066C124.185 167.233 124.267 165.563 124.242 164.355C124.224 163.146 124.137 162.399 124.194 162.391C124.234 162.383 124.411 163.122 124.494 164.344C124.584 165.564 124.541 167.262 124.307 169.11C124.073 170.959 123.727 172.609 123.446 173.793C123.163 174.978 122.947 175.7 122.901 175.689Z" fill="#F57F62"/>
<path d="M118.31 176.473C118.256 176.458 118.446 175.638 118.686 174.304C118.927 172.971 119.192 171.118 119.306 169.056C119.417 166.992 119.354 165.121 119.259 163.769C119.165 162.417 119.066 161.582 119.121 161.573C119.146 161.569 119.198 161.774 119.272 162.149C119.348 162.522 119.431 163.068 119.51 163.746C119.67 165.101 119.774 166.991 119.662 169.075C119.547 171.157 119.239 173.025 118.933 174.354C118.781 175.019 118.638 175.553 118.522 175.916C118.408 176.281 118.334 176.479 118.31 176.473Z" fill="#F57F62"/>
<path d="M112.255 163.045C112.271 163.008 112.667 163.124 113.193 163.519C113.715 163.909 114.346 164.611 114.715 165.555C115.084 166.498 115.112 167.453 114.917 168.097C114.718 168.76 114.303 168.99 114.289 168.948C114.249 168.909 114.559 168.638 114.673 168.036C114.789 167.444 114.726 166.56 114.384 165.686C114.04 164.809 113.488 164.132 113.031 163.713C112.575 163.29 112.228 163.097 112.255 163.045Z" fill="#F57F62"/>
</g>
<defs>
<clipPath id="clip0_2197_16300">
<rect width="333" height="329" fill="white" transform="translate(0.5)"/>
</clipPath>
</defs>
</svg>
