<svg width="537" height="312" viewBox="0 0 537 312" fill="none" xmlns="http://www.w3.org/2000/svg">
<g clip-path="url(#clip0_3054_33482)">
<path d="M116.272 207.253H9.37891V289.696H116.272V207.253Z" fill="#EBEBEB"/>
<path d="M89.4932 289.11C89.3711 289.11 89.2734 270.74 89.2734 248.072C89.2734 225.404 89.3711 207.025 89.4932 207.025C89.6153 207.025 89.7048 225.404 89.7048 248.072C89.7048 270.74 89.6072 289.11 89.4932 289.11Z" fill="#E0E0E0"/>
<path d="M107.212 270.927H99.0156V280.189H107.212V270.927Z" fill="#FAFAFA"/>
<path d="M54.136 207.465H41.9922V225.054H54.136V207.465Z" fill="#E0E0E0"/>
<path d="M54.136 271.854H41.9922V289.443H54.136V271.854Z" fill="#E0E0E0"/>
<path d="M132.989 124.998H26.0957V207.441H132.989V124.998Z" fill="#EBEBEB"/>
<path d="M106.202 206.855C106.088 206.855 105.99 188.484 105.99 165.817C105.99 143.149 106.088 124.778 106.202 124.778C106.316 124.778 106.413 143.149 106.413 165.817C106.413 188.484 106.324 206.855 106.202 206.855Z" fill="#E0E0E0"/>
<path d="M123.923 188.671H115.727V197.933H123.923V188.671Z" fill="#FAFAFA"/>
<path d="M70.845 125.209H58.7012V142.798H70.845V125.209Z" fill="#E0E0E0"/>
<path d="M70.845 189.607H58.7012V207.196H70.845V189.607Z" fill="#E0E0E0"/>
<path d="M125.64 58.9229H39.6895V125.209H125.64V58.9229Z" fill="#F5F5F5"/>
<path d="M104.103 124.745C104.013 124.745 103.932 109.965 103.932 91.7407C103.932 73.5169 104.013 58.7441 104.103 58.7441C104.192 58.7441 104.273 73.5169 104.273 91.7407C104.273 109.965 104.2 124.745 104.103 124.745Z" fill="#E0E0E0"/>
<path d="M118.355 110.119H111.762V117.567H118.355V110.119Z" fill="#FAFAFA"/>
<path d="M75.6711 59.0938H65.9121V73.2398H75.6711V59.0938Z" fill="#E0E0E0"/>
<path d="M75.6711 110.867H65.9121V125.013H75.6711V110.867Z" fill="#E0E0E0"/>
<path d="M509.308 104.942H428.574V167.208H509.308V104.942Z" fill="#F5F5F5"/>
<path d="M489.083 166.776C488.993 166.776 488.92 152.89 488.92 135.774C488.92 118.657 488.993 104.779 489.083 104.779C489.172 104.779 489.237 118.657 489.237 135.774C489.237 152.89 489.172 166.776 489.083 166.776Z" fill="#E0E0E0"/>
<path d="M502.453 153.037H496.268V160.037H502.453V153.037Z" fill="#FAFAFA"/>
<path d="M462.376 105.105H453.203V118.389H462.376V105.105Z" fill="#E0E0E0"/>
<path d="M462.376 153.745H453.203V167.028H462.376V153.745Z" fill="#E0E0E0"/>
<path d="M536.364 238.801H443.316V310.573H536.364V238.801Z" fill="#EBEBEB"/>
<path d="M513.085 310.06C512.988 310.06 512.906 294.066 512.906 274.337C512.906 254.607 512.988 238.605 513.085 238.605C513.183 238.605 513.272 254.599 513.272 274.337C513.272 294.075 513.159 310.06 513.085 310.06Z" fill="#E0E0E0"/>
<path d="M528.476 294.229H521.346V302.296H528.476V294.229Z" fill="#FAFAFA"/>
<path d="M482.278 238.98H471.705V254.29H482.278V238.98Z" fill="#E0E0E0"/>
<path d="M482.278 295.043H471.705V310.353H482.278V295.043Z" fill="#E0E0E0"/>
<path d="M523.511 167.216H430.463V238.988H523.511V167.216Z" fill="#EBEBEB"/>
<path d="M500.201 238.475C500.095 238.475 500.014 222.481 500.014 202.752C500.014 183.022 500.095 167.021 500.201 167.021C500.307 167.021 500.388 183.014 500.388 202.752C500.388 222.49 500.307 238.475 500.201 238.475Z" fill="#E0E0E0"/>
<path d="M515.624 222.645H508.494V230.711H515.624V222.645Z" fill="#FAFAFA"/>
<path d="M469.426 167.395H458.854V182.704H469.426V167.395Z" fill="#E0E0E0"/>
<path d="M469.426 223.458H458.854V238.768H469.426V223.458Z" fill="#E0E0E0"/>
<path d="M351.903 105.943H271.17V168.209H351.903V105.943Z" fill="#F5F5F5"/>
<path d="M331.676 167.777C331.587 167.777 331.521 153.891 331.521 136.775C331.521 119.658 331.587 105.78 331.676 105.78C331.766 105.78 331.839 119.617 331.839 136.775C331.839 153.932 331.766 167.777 331.676 167.777Z" fill="#E0E0E0"/>
<path d="M345.059 154.038H338.873V161.038H345.059V154.038Z" fill="#FAFAFA"/>
<path d="M304.972 106.106H295.799V119.39H304.972V106.106Z" fill="#E0E0E0"/>
<path d="M304.972 154.746H295.799V168.029H304.972V154.746Z" fill="#E0E0E0"/>
<path d="M359.065 43.8408H278.332V106.106H359.065V43.8408Z" fill="#EBEBEB"/>
<path d="M338.839 105.667C338.749 105.667 338.676 91.83 338.676 74.6724C338.676 57.5148 338.749 43.6699 338.839 43.6699C338.928 43.6699 339.001 57.5067 339.001 74.6724C339.001 91.8381 338.904 105.667 338.839 105.667Z" fill="#E0E0E0"/>
<path d="M352.219 91.9355H346.033V98.9353H352.219V91.9355Z" fill="#FAFAFA"/>
<path d="M312.134 43.9961H302.961V57.2794H312.134V43.9961Z" fill="#E0E0E0"/>
<path d="M312.134 92.6357H302.961V105.919H312.134V92.6357Z" fill="#E0E0E0"/>
<path d="M356.038 0.621094H298.273V45.1754H356.038V0.621094Z" fill="#EBEBEB"/>
<path d="M341.575 44.8665C341.51 44.8665 341.461 34.9366 341.461 22.687C341.461 10.4374 341.51 0.540039 341.575 0.540039C341.64 0.540039 341.689 10.4699 341.689 22.7195C341.689 34.9691 341.632 44.8665 341.575 44.8665Z" fill="#E0E0E0"/>
<path d="M351.145 35.043H346.717V40.0486H351.145V35.043Z" fill="#FAFAFA"/>
<path d="M322.463 0.743164H315.902V10.2498H322.463V0.743164Z" fill="#E0E0E0"/>
<path d="M322.463 35.5391H315.902V45.0457H322.463V35.5391Z" fill="#E0E0E0"/>
<path d="M378.966 239.802H285.918V311.574H378.966V239.802Z" fill="#EBEBEB"/>
<path d="M355.654 311.061C355.548 311.061 355.467 295.067 355.467 275.338C355.467 255.608 355.548 239.606 355.654 239.606C355.76 239.606 355.833 255.6 355.833 275.338C355.833 295.076 355.752 311.061 355.654 311.061Z" fill="#E0E0E0"/>
<path d="M371.069 295.23H363.939V303.296H371.069V295.23Z" fill="#FAFAFA"/>
<path d="M324.872 239.981H314.299V255.291H324.872V239.981Z" fill="#E0E0E0"/>
<path d="M324.872 296.044H314.299V311.354H324.872V296.044Z" fill="#E0E0E0"/>
<path d="M366.105 168.217H273.057V239.989H366.105V168.217Z" fill="#EBEBEB"/>
<path d="M342.802 239.476C342.697 239.476 342.615 223.482 342.615 203.753C342.615 184.023 342.697 168.021 342.802 168.021C342.908 168.021 342.982 184.015 342.982 203.753C342.982 223.491 342.9 239.476 342.802 239.476Z" fill="#E0E0E0"/>
<path d="M358.22 223.646H351.09V231.712H358.22V223.646Z" fill="#FAFAFA"/>
<path d="M312.02 168.396H301.447V183.706H312.02V168.396Z" fill="#E0E0E0"/>
<path d="M312.02 224.459H301.447V239.769H312.02V224.459Z" fill="#E0E0E0"/>
<path d="M163.747 297.354V289.695H7.0664C6.51162 289.695 5.97957 289.916 5.58728 290.308C5.19499 290.7 4.97461 291.232 4.97461 291.787V295.263C4.97461 295.817 5.19499 296.349 5.58728 296.742C5.97957 297.134 6.51162 297.354 7.0664 297.354H11.429V300.879C11.429 301.149 11.3758 301.417 11.2723 301.667C11.1688 301.917 11.0171 302.144 10.8259 302.335C10.6347 302.526 10.4077 302.678 10.1578 302.781C9.90801 302.885 9.64024 302.938 9.36981 302.938H7.03384C6.49606 302.938 5.97955 303.148 5.59474 303.524C5.20993 303.899 4.98736 304.411 4.97461 304.948V308.489C4.97461 309.035 5.19156 309.559 5.57775 309.945C5.96393 310.331 6.4877 310.548 7.03384 310.548H163.747V302.889H127.226V297.338L163.747 297.354ZM48.9836 297.354H58.3763V302.905H48.9836V297.354ZM42.7245 302.905H33.34V297.354H42.7245V302.905ZM64.611 297.354H73.9956V302.905H64.611V297.354ZM80.2547 297.354H89.6474V302.905H80.2791L80.2547 297.354ZM95.9065 297.354H105.307V302.905H95.9309L95.9065 297.354ZM17.6637 297.354H27.0809V302.905H17.6881L17.6637 297.354ZM120.943 302.905H111.575V297.354H120.967L120.943 302.905Z" fill="#E0E0E0"/>
<path d="M158.465 137.687H73.6699V203.094H158.465V137.687Z" fill="#349F6E"/>
<path opacity="0.3" d="M158.465 137.687H73.6699V203.094H158.465V137.687Z" fill="black"/>
<path d="M137.222 202.63C137.149 202.63 137.084 188.052 137.084 170.073C137.084 152.093 137.149 137.516 137.222 137.516C137.296 137.516 137.361 152.093 137.361 170.073C137.361 188.052 137.296 202.63 137.222 202.63Z" fill="#263238"/>
<path d="M151.279 188.207H144.775V195.557H151.279V188.207Z" fill="#F5F5F5"/>
<path d="M109.166 137.857H99.5371V151.816H109.166V137.857Z" fill="#263238"/>
<path d="M109.166 188.939H99.5371V202.898H109.166V188.939Z" fill="#263238"/>
<path d="M157.732 137.687H157.512H156.877H154.435L145.425 137.727H115.709H85.984L76.982 137.678L85.984 137.638H115.709H145.425L154.435 137.678H156.877H157.512L157.732 137.687Z" fill="#263238"/>
<path d="M229.057 137.605H144.262V203.013H229.057V137.605Z" fill="#349F6E"/>
<path d="M207.814 202.549C207.741 202.549 207.676 187.971 207.676 169.992C207.676 152.012 207.741 137.435 207.814 137.435C207.887 137.435 207.953 152.004 207.953 169.992C207.953 187.979 207.863 202.549 207.814 202.549Z" fill="#263238"/>
<path d="M221.87 188.126H215.367V195.476H221.87V188.126Z" fill="#F5F5F5"/>
<path opacity="0.5" d="M179.758 137.776H170.129V151.735H179.758V137.776Z" fill="white"/>
<path opacity="0.5" d="M179.758 188.858H170.129V202.817H179.758V188.858Z" fill="white"/>
<path d="M228.106 137.605H227.463H225.021L216.019 137.646H186.303H156.578L147.568 137.605L156.578 137.556L186.303 137.516L216.019 137.556L225.021 137.605H227.463H228.106Z" fill="#263238"/>
<path d="M233.818 72.1982H149.023V137.605H233.818V72.1982Z" fill="#349F6E"/>
<path d="M212.576 137.141C212.494 137.141 212.438 122.564 212.438 104.584C212.438 86.6048 212.494 72.0273 212.576 72.0273C212.657 72.0273 212.714 86.5966 212.714 104.584C212.714 122.572 212.649 137.141 212.576 137.141Z" fill="#263238"/>
<path d="M226.632 122.719H220.129V130.069H226.632V122.719Z" fill="#F5F5F5"/>
<path d="M184.519 72.3691H174.891V86.328H184.519V72.3691Z" fill="#263238"/>
<path d="M184.519 123.451H174.891V137.41H184.519V123.451Z" fill="#263238"/>
<path d="M233.093 72.166C233.023 72.1782 232.951 72.1782 232.881 72.166H232.238H229.797H220.795L191.078 72.2067L161.353 72.166H152.343H149.901H149.258C149.188 72.1782 149.117 72.1782 149.047 72.166H149.258H149.901H152.343L161.353 72.1172H191.078H220.795L229.797 72.166H232.238H232.881H233.093Z" fill="#263238"/>
<path d="M224.751 275.916V268.257H68.0784C67.5229 268.257 66.99 268.477 66.5964 268.869C66.2029 269.261 65.9807 269.793 65.9785 270.349V273.824C65.9807 274.38 66.2029 274.912 66.5964 275.304C66.99 275.696 67.5229 275.916 68.0784 275.916H72.4411V279.399C72.4411 279.948 72.2233 280.474 71.8356 280.861C71.4479 281.249 70.922 281.467 70.3737 281.467H68.0459C67.499 281.467 66.9744 281.684 66.5869 282.069C66.1994 282.455 65.9807 282.979 65.9785 283.526V287.042C65.9807 287.589 66.1994 288.113 66.5869 288.499C66.9744 288.885 67.499 289.101 68.0459 289.101H224.751V281.442H188.23V275.891L224.751 275.916ZM109.988 275.916H119.372V281.467H109.996L109.988 275.916ZM103.728 281.467H94.3439V275.916H103.737L103.728 281.467ZM125.656 275.916H135.048V281.467H125.656V275.916ZM141.307 275.916H150.692V281.467H141.291L141.307 275.916ZM156.951 275.916H166.352V281.467H156.935L156.951 275.916ZM78.7165 275.916H88.101V281.467H78.7002L78.7165 275.916ZM181.987 281.467H172.578V275.916H181.971L181.987 281.467Z" fill="#455A64"/>
<path d="M351.041 143.962C351.297 143.699 351.499 143.389 351.634 143.048C351.769 142.706 351.835 142.342 351.827 141.975C351.82 141.608 351.739 141.246 351.59 140.911C351.441 140.576 351.226 140.274 350.959 140.022L324.531 115.043C324.003 114.547 323.306 114.271 322.582 114.271C321.857 114.271 321.16 114.547 320.632 115.043C320.355 115.301 320.131 115.612 319.975 115.958C319.819 116.303 319.734 116.676 319.724 117.055C319.714 117.434 319.78 117.812 319.918 118.165C320.056 118.518 320.263 118.84 320.526 119.113L331.067 130.198L325.581 135.481L322.724 133.21L302.791 156.04L292.137 145.793L279.293 183.567L281.841 234.845H311.386L309.319 173.906L329.138 145.679L329.292 138.964L334.99 133.128L347.272 144.1C347.805 144.574 348.5 144.825 349.213 144.799C349.925 144.773 350.601 144.473 351.098 143.962H351.041Z" fill="#263238"/>
<path d="M271.348 244.344C271.234 244.344 271.137 197.56 271.137 139.86C271.137 82.1611 271.234 35.3604 271.348 35.3604C271.462 35.3604 271.56 82.1367 271.56 139.86C271.56 197.584 271.438 244.344 271.348 244.344Z" fill="#263238"/>
<path d="M337.48 231.166L355.452 181.232L348.696 178.497V168.852L397.833 168.095C398.991 168.073 400.102 167.63 400.959 166.85C401.815 166.07 402.359 165.005 402.489 163.854L409.716 99.7007C409.878 98.266 410.563 96.9412 411.639 95.9789C412.716 95.0166 414.109 94.4843 415.552 94.4834C416.344 94.4827 417.128 94.6422 417.856 94.9523C418.584 95.2623 419.242 95.7166 419.791 96.2876C420.339 96.8587 420.766 97.5348 421.046 98.2752C421.326 99.0156 421.454 99.805 421.421 100.596L418.67 166.703L444.325 166.841L445.196 178.896L369.321 181.867L349.535 230.45L337.48 231.166Z" fill="#455A64"/>
<path d="M348.785 229.946L284.908 230.451V234.707L311.369 234.366L353.514 234.04L455.694 219.617L444.112 175.535H374.928C373.732 175.517 372.55 175.791 371.484 176.333C370.417 176.875 369.499 177.668 368.808 178.644L348.785 229.946Z" fill="#263238"/>
<path d="M318.175 45.5993L271.781 193.677L272.107 234.87H286.814V193.937L324.857 45.9981L427.933 45.4202L447.646 199.521H459.277L435.291 46.5027C434.914 44.5012 433.849 42.6942 432.281 41.3939C430.714 40.0936 428.741 39.3816 426.704 39.3809H326.542C324.664 39.3801 322.836 39.9846 321.329 41.1047C319.822 42.2248 318.716 43.801 318.175 45.5993Z" fill="#455A64"/>
<path d="M263.404 282.444V242.887L272.064 234.87L353.457 233.82L368.108 221.904C370.837 219.688 374.195 218.39 377.704 218.193L393.38 217.305C393.38 217.305 400.413 212.462 407.217 207.66C415.835 201.554 426.135 198.272 436.697 198.268H481.813C483.452 198.268 485.023 198.918 486.182 200.077C487.34 201.236 487.991 202.807 487.991 204.445V282.444H263.404Z" fill="#349F6E"/>
<path d="M487.976 269.697H262.607V282.704H487.976V269.697Z" fill="#263238"/>
<path d="M274.271 282.297C274.189 287.809 275.744 293.221 278.739 297.849C281.733 302.477 286.033 306.113 291.094 308.298C296.155 310.482 301.751 311.116 307.172 310.12C312.594 309.124 317.598 306.542 321.553 302.702C325.507 298.861 328.234 293.934 329.388 288.544C330.542 283.154 330.071 277.542 328.036 272.42C326.001 267.297 322.492 262.892 317.953 259.764C313.415 256.635 308.05 254.923 302.538 254.844C295.15 254.737 288.021 257.569 282.72 262.718C277.419 267.866 274.38 274.909 274.271 282.297Z" fill="#263238"/>
<path d="M274.278 282.232C274.278 282.232 274.278 282.273 274.278 282.298C274.236 289.646 277.098 296.713 282.241 301.962C287.384 307.211 294.392 310.216 301.739 310.323C309.087 310.43 316.18 307.631 321.474 302.535C326.768 297.439 329.835 290.458 330.007 283.111C330.007 283.111 330.007 283.063 330.007 283.038L274.278 282.232Z" fill="#263238"/>
<path d="M282.574 282.419C282.524 286.28 283.62 290.068 285.723 293.307C287.825 296.545 290.84 299.087 294.387 300.613C297.933 302.139 301.853 302.58 305.65 301.879C309.446 301.179 312.951 299.369 315.72 296.679C318.489 293.988 320.398 290.537 321.207 286.762C322.016 282.987 321.688 279.057 320.265 275.468C318.841 271.879 316.387 268.792 313.21 266.597C310.033 264.403 306.278 263.199 302.417 263.137C299.847 263.096 297.294 263.563 294.905 264.511C292.516 265.458 290.337 266.868 288.493 268.659C286.65 270.451 285.178 272.588 284.162 274.949C283.147 277.311 282.607 279.849 282.574 282.419Z" fill="#FAFAFA"/>
<path d="M302.416 263.137C299.846 263.096 297.293 263.563 294.903 264.511C292.514 265.458 290.335 266.868 288.492 268.659C286.648 270.451 285.177 272.588 284.161 274.949C283.145 277.311 282.605 279.849 282.572 282.419L321.698 282.981C321.739 280.411 321.272 277.858 320.324 275.468C319.377 273.079 317.967 270.9 316.176 269.057C314.384 267.213 312.247 265.741 309.886 264.726C307.524 263.71 304.986 263.17 302.416 263.137Z" fill="#E0E0E0"/>
<path d="M290.216 282.534C290.187 284.89 290.858 287.202 292.143 289.178C293.428 291.153 295.27 292.703 297.436 293.632C299.602 294.56 301.995 294.825 304.312 294.394C306.629 293.963 308.766 292.854 310.452 291.208C312.139 289.562 313.3 287.453 313.788 285.148C314.276 282.842 314.07 280.444 313.195 278.256C312.32 276.067 310.816 274.188 308.873 272.854C306.93 271.521 304.635 270.794 302.278 270.764C299.118 270.728 296.073 271.946 293.812 274.153C291.55 276.36 290.256 279.374 290.216 282.534Z" fill="#263238"/>
<path d="M410.636 282.297C410.554 287.809 412.109 293.221 415.104 297.849C418.098 302.477 422.398 306.113 427.459 308.298C432.521 310.482 438.116 311.116 443.538 310.12C448.959 309.124 453.964 306.542 457.918 302.702C461.872 298.861 464.599 293.934 465.753 288.544C466.907 283.154 466.437 277.542 464.401 272.42C462.366 267.297 458.857 262.892 454.318 259.764C449.78 256.635 444.415 254.923 438.904 254.844C431.515 254.737 424.386 257.569 419.085 262.718C413.784 267.866 410.745 274.909 410.636 282.297Z" fill="#263238"/>
<path d="M410.645 282.232C410.645 282.232 410.645 282.273 410.645 282.298C410.603 289.646 413.465 296.713 418.608 301.962C423.751 307.211 430.759 310.216 438.106 310.323C445.454 310.43 452.547 307.631 457.841 302.535C463.135 297.439 466.202 290.458 466.375 283.111C466.375 283.111 466.375 283.063 466.375 283.038L410.645 282.232Z" fill="#263238"/>
<path d="M418.937 282.419C418.888 286.28 419.983 290.068 422.086 293.307C424.189 296.545 427.203 299.087 430.75 300.613C434.297 302.139 438.216 302.58 442.013 301.879C445.81 301.179 449.314 299.369 452.083 296.679C454.852 293.988 456.761 290.537 457.57 286.762C458.379 282.987 458.051 279.057 456.628 275.468C455.205 271.879 452.75 268.792 449.573 266.597C446.397 264.403 442.641 263.199 438.781 263.137C436.211 263.096 433.658 263.563 431.268 264.511C428.879 265.458 426.7 266.868 424.857 268.659C423.013 270.451 421.541 272.588 420.526 274.949C419.51 277.311 418.97 279.849 418.937 282.419Z" fill="#FAFAFA"/>
<path d="M438.781 263.137C436.211 263.096 433.658 263.563 431.269 264.511C428.879 265.458 426.7 266.868 424.857 268.659C423.014 270.451 421.542 272.588 420.526 274.949C419.51 277.311 418.97 279.849 418.938 282.419L458.063 282.981C458.104 280.411 457.637 277.858 456.69 275.468C455.742 273.079 454.332 270.9 452.541 269.057C450.75 267.213 448.612 265.741 446.251 264.726C443.89 263.71 441.351 263.17 438.781 263.137Z" fill="#E0E0E0"/>
<path d="M426.589 282.533C426.56 284.889 427.23 287.2 428.514 289.175C429.798 291.149 431.639 292.699 433.804 293.628C435.968 294.558 438.36 294.824 440.676 294.395C442.992 293.965 445.129 292.859 446.817 291.216C448.504 289.572 449.667 287.466 450.158 285.162C450.649 282.858 450.446 280.46 449.575 278.272C448.704 276.083 447.203 274.202 445.263 272.865C443.323 271.529 441.031 270.798 438.676 270.764C437.109 270.741 435.553 271.028 434.097 271.608C432.641 272.187 431.314 273.048 430.191 274.141C429.068 275.235 428.172 276.539 427.554 277.979C426.936 279.419 426.608 280.966 426.589 282.533Z" fill="#263238"/>
<path d="M474.766 262.869C474.715 262.807 474.669 262.742 474.628 262.674L474.27 262.088L473.7 261.127C473.451 260.687 473.179 260.261 472.886 259.849C471.098 257.16 468.988 254.7 466.603 252.524C465.886 251.8 465.015 251.173 464.161 250.449C463.306 249.724 462.329 249.106 461.353 248.414C460.376 247.722 459.302 247.087 458.146 246.525C457.584 246.232 457.015 245.915 456.429 245.63L454.597 244.816C451.999 243.721 449.293 242.902 446.523 242.374C443.55 241.803 440.522 241.573 437.497 241.691C431.633 242.018 425.917 243.647 420.762 246.46L419.02 247.437C418.459 247.779 417.93 248.153 417.393 248.495C416.294 249.163 415.35 249.976 414.381 250.685C413.412 251.393 412.574 252.199 411.777 252.972C410.979 253.745 410.197 254.486 409.546 255.275C407.378 257.67 405.511 260.321 403.987 263.17C403.732 263.606 403.504 264.057 403.304 264.521C403.116 264.912 402.954 265.246 402.823 265.531L402.522 266.149C402.49 266.22 402.452 266.288 402.408 266.353C402.422 266.276 402.447 266.202 402.481 266.133L402.742 265.498L403.181 264.473C403.374 264.001 403.594 263.542 403.841 263.097C405.318 260.2 407.161 257.506 409.327 255.08C409.97 254.266 410.775 253.55 411.549 252.736C412.322 251.922 413.25 251.206 414.161 250.408C415.073 249.61 416.082 248.87 417.181 248.186C417.718 247.836 418.255 247.461 418.809 247.111L420.559 246.11C423.061 244.753 425.699 243.662 428.429 242.855C431.369 241.991 434.397 241.466 437.456 241.292C443.384 241.061 449.288 242.159 454.736 244.507L456.575 245.321C457.169 245.606 457.739 245.931 458.309 246.232C459.473 246.802 460.49 247.535 461.564 248.153C462.639 248.772 463.51 249.521 464.381 250.229C465.251 250.937 466.106 251.604 466.822 252.337C469.205 254.549 471.295 257.057 473.041 259.801C473.336 260.219 473.607 260.654 473.855 261.103L474.384 262.088C474.522 262.34 474.628 262.535 474.709 262.698C474.791 262.861 474.774 262.861 474.766 262.869Z" fill="#263238"/>
<path d="M338.522 267.997C338.474 267.929 338.436 267.855 338.408 267.777C338.342 267.606 338.253 267.387 338.139 267.11L337.699 266.027C337.504 265.604 337.284 265.116 337.04 264.57C335.622 261.494 333.855 258.591 331.774 255.918C328.739 251.912 324.867 248.615 320.428 246.257C317.77 244.959 314.95 244.02 312.045 243.465C308.931 242.824 305.756 242.535 302.579 242.603C299.401 242.647 296.239 243.054 293.153 243.815C290.283 244.534 287.515 245.615 284.916 247.03C280.477 249.391 276.508 252.544 273.204 256.333C271.007 258.902 269.097 261.702 267.506 264.684C266.937 265.742 266.505 266.573 266.237 267.126C266.106 267.395 265.993 267.606 265.911 267.769C265.88 267.845 265.839 267.916 265.789 267.981C265.804 267.901 265.831 267.824 265.87 267.753L266.163 267.094C266.408 266.508 266.815 265.669 267.36 264.595C268.901 261.562 270.785 258.716 272.976 256.114C276.275 252.264 280.261 249.06 284.729 246.664C287.353 245.232 290.148 244.138 293.047 243.408C296.165 242.638 299.36 242.226 302.57 242.179C305.782 242.123 308.99 242.429 312.134 243.091C315.073 243.659 317.922 244.617 320.607 245.94C325.082 248.339 328.973 251.696 332.002 255.772C334.074 258.477 335.814 261.42 337.187 264.538L337.805 266.011C337.96 266.442 338.098 266.825 338.204 267.11C338.31 267.395 338.383 267.615 338.44 267.794C338.475 267.858 338.503 267.926 338.522 267.997Z" fill="#263238"/>
<path d="M263.348 268.257H139.811V282.704H263.348V268.257Z" fill="#263238"/>
<path d="M260.002 274.386C260.002 275.097 259.791 275.793 259.395 276.384C259 276.976 258.438 277.437 257.781 277.709C257.124 277.982 256.4 278.053 255.702 277.914C255.004 277.775 254.363 277.433 253.86 276.929C253.357 276.426 253.015 275.785 252.876 275.087C252.737 274.39 252.808 273.666 253.08 273.009C253.353 272.352 253.814 271.79 254.406 271.394C254.997 270.999 255.693 270.788 256.404 270.788C257.358 270.788 258.273 271.167 258.948 271.842C259.623 272.516 260.002 273.432 260.002 274.386Z" fill="#455A64"/>
<path d="M261.728 38.2412H251.416V243.09H261.728V38.2412Z" fill="#455A64"/>
<path d="M408.381 254.762C408.381 254.876 390.996 254.974 369.557 254.974C348.118 254.974 330.732 254.876 330.732 254.762C330.732 254.648 348.11 254.551 369.557 254.551C391.004 254.551 408.381 254.648 408.381 254.762Z" fill="#263238"/>
<path d="M392.557 251.694C392.435 251.694 392.346 244.132 392.346 234.805C392.346 225.477 392.435 217.924 392.557 217.924C392.679 217.924 392.769 225.477 392.769 234.805C392.769 244.132 392.671 251.694 392.557 251.694Z" fill="#263238"/>
<path d="M271.357 33.5449H250.309V42.9376H271.357V33.5449Z" fill="#263238"/>
<path d="M263.349 241.397H249.797V268.436H263.349V241.397Z" fill="#263238"/>
<path d="M231.881 203.037H147.086V268.444H231.881V203.037Z" fill="#349F6E"/>
<path opacity="0.3" d="M231.881 203.037H147.086V268.444H231.881V203.037Z" fill="black"/>
<path d="M210.638 267.98C210.565 267.98 210.5 253.403 210.5 235.423C210.5 217.444 210.565 202.866 210.638 202.866C210.712 202.866 210.777 217.444 210.777 235.423C210.777 253.403 210.712 267.98 210.638 267.98Z" fill="#263238"/>
<path d="M224.695 253.558H218.191V260.907H224.695V253.558Z" fill="#F5F5F5"/>
<path d="M182.582 203.208H172.953V217.167H182.582V203.208Z" fill="#263238"/>
<path d="M182.582 254.29H172.953V268.249H182.582V254.29Z" fill="#263238"/>
<path d="M231.141 203.037H230.929H230.286H227.844L218.834 203.078L189.142 203.208H159.418L150.416 203.167H147.974H147.331H147.119C147.19 203.16 147.26 203.16 147.331 203.167H147.974H150.416L159.418 203.127L189.142 203.086L218.859 203.127L227.869 203.167H230.311H230.954C231.011 203.117 231.074 203.074 231.141 203.037Z" fill="#263238"/>
<path d="M142.936 203.037H58.1406V268.444H142.936V203.037Z" fill="#349F6E"/>
<path d="M121.701 267.98C121.619 267.98 121.562 253.403 121.562 235.423C121.562 217.444 121.619 202.866 121.701 202.866C121.782 202.866 121.831 217.444 121.831 235.423C121.831 253.403 121.774 267.98 121.701 267.98Z" fill="#263238"/>
<path d="M135.755 253.558H129.252V260.907H135.755V253.558Z" fill="#F5F5F5"/>
<path opacity="0.5" d="M93.6424 203.208H84.0137V217.167H93.6424V203.208Z" fill="white"/>
<path opacity="0.5" d="M93.6424 254.29H84.0137V268.249H93.6424V254.29Z" fill="white"/>
<path d="M142.202 203.037H141.983H141.348H138.906L129.904 203.078H100.187H70.4628L61.4527 203.037H59.0109H58.376H58.1562C58.2294 203.031 58.3029 203.031 58.376 203.037H59.0109H61.4527L70.4628 202.997L100.187 202.956L129.904 202.997L138.906 203.037H141.348H141.983C142.056 203.03 142.129 203.03 142.202 203.037Z" fill="#263238"/>
<path d="M491.533 220.813C495.904 221.872 499.575 226.307 499.502 230.808C499.409 233.063 498.579 235.225 497.14 236.963C495.701 238.7 493.731 239.918 491.533 240.429" fill="#349F6E"/>
<g opacity="0.6">
<path d="M491.533 220.813C495.904 221.872 499.575 226.307 499.502 230.808C499.409 233.063 498.579 235.225 497.14 236.963C495.701 238.7 493.731 239.918 491.533 240.429" fill="white"/>
</g>
<path d="M491.711 218.29H487.975V243.042H491.711V218.29Z" fill="#349F6E"/>
<path opacity="0.3" d="M491.711 218.29H487.975V243.042H491.711V218.29Z" fill="black"/>
<path d="M313.958 119.105C313.508 118.756 313.2 118.258 313.087 117.7C312.975 117.143 313.068 116.564 313.347 116.069C313.974 114.978 314.706 113.692 315.04 113.155C315.448 112.519 315.82 111.862 316.155 111.185C316.258 110.781 316.473 110.413 316.776 110.125C317.078 109.838 317.455 109.641 317.864 109.557C318.859 109.429 319.867 109.459 320.852 109.647L331.034 111.844L335.779 114.188L331.164 118.258L328.6 117.444C327.827 118.112 324.807 118.462 323.782 118.339C322.471 118.177 319.85 117.322 318.361 117.607L316.92 117.81L317.604 118.38C318.856 118.29 320.109 118.546 321.226 119.121C321.404 119.241 321.541 119.414 321.616 119.616C321.692 119.817 321.702 120.037 321.647 120.245C321.591 120.453 321.472 120.638 321.306 120.775C321.14 120.912 320.936 120.994 320.721 121.009L317.376 121.229C316.471 120.804 315.6 120.309 314.772 119.748C314.512 119.518 314.24 119.304 313.958 119.105Z" fill="#FFBE9D"/>
<path d="M316.929 117.843C316.765 117.956 316.579 118.033 316.384 118.071C315.852 118.226 315.288 118.226 314.756 118.071C314.374 117.946 314.037 117.711 313.788 117.396C313.645 117.204 313.544 116.985 313.491 116.753C313.437 116.52 313.433 116.279 313.478 116.045C313.539 115.776 313.688 115.535 313.902 115.361C314.114 115.206 314.35 115.088 314.602 115.011C315.089 114.849 315.586 114.721 316.091 114.628C317.051 114.443 318.021 114.318 318.997 114.254C319.444 114.254 319.868 114.205 320.275 114.205H320.584H320.828C320.998 114.181 321.166 114.149 321.333 114.108C322.025 113.885 322.729 113.697 323.441 113.546C322.808 113.92 322.122 114.195 321.406 114.36C321.233 114.418 321.056 114.461 320.877 114.49C320.769 114.503 320.659 114.503 320.551 114.49H320.275C319.892 114.49 319.461 114.539 319.029 114.58C318.071 114.664 317.117 114.797 316.172 114.978C315.688 115.068 315.209 115.188 314.74 115.337C314.268 115.475 313.926 115.687 313.861 116.069C313.825 116.251 313.825 116.438 313.861 116.619C313.898 116.801 313.969 116.973 314.072 117.127C314.283 117.399 314.565 117.607 314.886 117.729C315.372 117.899 315.892 117.947 316.4 117.868C316.71 117.86 316.929 117.803 316.929 117.843Z" fill="#EB996E"/>
<path d="M318.189 112.536C318.303 112.536 318.498 113.041 318.295 113.684C318.091 114.327 317.635 114.669 317.562 114.579C317.489 114.49 317.733 114.099 317.896 113.562C318.059 113.024 318.067 112.552 318.189 112.536Z" fill="#EB996E"/>
<path d="M319.785 113.179C319.899 113.179 319.932 113.586 319.647 113.993C319.362 114.4 318.979 114.433 318.939 114.319C318.898 114.205 319.11 114.01 319.313 113.733C319.517 113.456 319.663 113.163 319.785 113.179Z" fill="#EB996E"/>
<path d="M359.872 110.908C361.272 110.322 351.831 120.032 351.831 120.032L334.38 113.521L328.219 117.306L346.98 130.516C348.908 131.876 351.259 132.5 353.607 132.276C355.956 132.052 358.147 130.995 359.783 129.295L370.86 116.492L359.872 110.908Z" fill="#FFBE9D"/>
<path d="M370.103 72.0031C367.661 71.531 366.147 70.7822 366.082 69.8462C365.952 67.909 372.097 65.923 379.813 65.394C387.529 64.8649 393.878 66.0207 394.016 67.9497C394.073 68.8858 392.681 69.8299 390.353 70.6194" fill="#349F6E"/>
<g opacity="0.4">
<path d="M371.461 71.8403C369.305 71.4333 367.896 70.7659 367.896 69.9357C367.896 67.616 373.228 66.4521 380.065 65.9882C386.902 65.5242 392.542 66.5416 392.656 68.259C392.713 69.0729 391.476 69.8869 389.4 70.6194" fill="black"/>
</g>
<path d="M367.938 68.8046C367.938 68.8046 369.378 60.4619 369.525 60.0468C369.671 59.6317 371.763 55.8876 377.289 54.4795L381.913 54.1621C381.913 54.1621 388.619 55.8307 389.922 57.3527C391.224 58.8747 392.266 66.5908 392.266 66.5908L379.113 64.6536L370.444 67.3966L367.938 68.8046Z" fill="#349F6E"/>
<path d="M378.738 53.4453L376.752 53.5756C376.289 54.1898 376.058 54.9481 376.101 55.7162C376.101 57.1568 376.451 67.0379 376.451 67.0379L382.23 66.3868L381.228 54.2104L383.223 54.5197L383.117 53.8279L382.555 53.25L378.738 53.4453Z" fill="#349F6E"/>
<path d="M390.817 98.9195L376.655 99.2288C376.476 97.7393 376.606 88.4198 376.606 88.4198C376.606 88.4198 371.218 87.9477 370.787 82.6165C370.355 77.2853 370.453 66.574 370.453 66.574L370.51 66.102C376.508 63.0335 383.647 62.3091 389.23 66.0531L390.044 66.6066L390.817 98.9195Z" fill="#FFBE9D"/>
<path d="M376.606 88.4444C379.072 88.2691 381.436 87.3907 383.419 85.9131C383.419 85.9131 381.945 89.9827 376.59 89.8281L376.606 88.4444Z" fill="#EB996E"/>
<path d="M389.799 72.1654C389.888 72.1654 393.388 70.8387 393.518 74.4932C393.649 78.1478 389.953 77.5211 389.945 77.4234C389.937 77.3257 389.799 72.1654 389.799 72.1654Z" fill="#FFBE9D"/>
<path d="M390.996 75.9995C390.996 75.9995 391.061 76.0483 391.167 76.089C391.243 76.1215 391.325 76.1382 391.407 76.1382C391.49 76.1382 391.571 76.1215 391.647 76.089C391.878 75.9308 392.062 75.7138 392.181 75.4606C392.3 75.2073 392.349 74.9269 392.323 74.6484C392.322 74.335 392.25 74.026 392.111 73.7449C392.073 73.6321 392.007 73.5302 391.921 73.448C391.834 73.3658 391.729 73.3057 391.615 73.2728C391.541 73.2571 391.465 73.2672 391.398 73.3013C391.332 73.3354 391.279 73.3915 391.248 73.46C391.2 73.5659 391.248 73.6391 391.208 73.6473C391.167 73.6554 391.126 73.5903 391.151 73.4356C391.171 73.3444 391.219 73.2619 391.289 73.1996C391.388 73.1203 391.513 73.0824 391.639 73.0938C391.79 73.1179 391.933 73.1808 392.053 73.2763C392.173 73.3719 392.266 73.4969 392.323 73.6391C392.496 73.9345 392.599 74.266 392.624 74.6077C392.66 74.9362 392.595 75.2678 392.438 75.5586C392.281 75.8494 392.039 76.0855 391.745 76.2355C391.648 76.2691 391.545 76.28 391.443 76.2673C391.342 76.2546 391.244 76.2186 391.159 76.1623C390.996 76.089 390.996 76.0076 390.996 75.9995Z" fill="#EB996E"/>
<path d="M372.219 73.1587C372.241 73.3587 372.336 73.5434 372.487 73.6771C372.637 73.8109 372.831 73.8843 373.033 73.8831C373.229 73.8831 373.418 73.805 373.556 73.6661C373.695 73.5272 373.773 73.3388 373.773 73.1424C373.751 72.9424 373.656 72.7577 373.505 72.6239C373.355 72.4901 373.161 72.4168 372.959 72.418C372.763 72.418 372.575 72.496 372.436 72.6349C372.297 72.7738 372.219 72.9622 372.219 73.1587Z" fill="#263238"/>
<path d="M371.973 72.4102C372.071 72.4997 372.624 72.0358 373.447 71.9788C374.269 71.9218 374.895 72.2962 374.977 72.1904C375.058 72.0846 374.903 71.9707 374.635 71.7998C374.261 71.58 373.83 71.4779 373.398 71.5067C372.97 71.5346 372.563 71.697 372.234 71.9707C371.998 72.166 371.924 72.3695 371.973 72.4102Z" fill="#263238"/>
<path d="M380.301 72.8575C380.306 72.9588 380.331 73.058 380.375 73.1494C380.419 73.2408 380.481 73.3226 380.556 73.39C380.632 73.4574 380.72 73.5091 380.816 73.542C380.912 73.575 381.014 73.5885 381.115 73.5819C381.212 73.5819 381.308 73.5627 381.397 73.5254C381.486 73.4881 381.567 73.4334 381.636 73.3645C381.704 73.2956 381.758 73.2139 381.794 73.1241C381.83 73.0343 381.848 72.9381 381.847 72.8413C381.842 72.74 381.817 72.6408 381.773 72.5494C381.729 72.458 381.668 72.3762 381.592 72.3088C381.516 72.2414 381.428 72.1897 381.332 72.1568C381.236 72.1238 381.135 72.1103 381.033 72.1169C380.936 72.1169 380.841 72.1361 380.751 72.1734C380.662 72.2107 380.581 72.2654 380.513 72.3343C380.444 72.4032 380.391 72.4849 380.354 72.5747C380.318 72.6645 380.3 72.7607 380.301 72.8575Z" fill="#263238"/>
<path d="M380.048 72.0107C380.145 72.1084 380.691 71.6444 381.513 71.5875C382.335 71.5305 382.961 71.9049 383.043 71.7991C383.124 71.6933 382.978 71.5793 382.701 71.4003C382.331 71.1796 381.901 71.08 381.472 71.1154C381.044 71.1392 380.635 71.3021 380.308 71.5793C380.072 71.791 379.999 71.97 380.048 72.0107Z" fill="#263238"/>
<path d="M377.483 78.2943C377.04 78.1946 376.586 78.1455 376.132 78.1478C375.92 78.1478 375.717 78.1478 375.676 77.9688C375.643 77.7548 375.677 77.5357 375.774 77.3421L376.287 75.7142C376.763 74.3227 377.133 72.8969 377.394 71.4492C376.798 72.7967 376.314 74.1904 375.945 75.6165C375.774 76.1863 375.611 76.7316 375.456 77.2444C375.349 77.5025 375.332 77.7892 375.408 78.0583C375.444 78.1294 375.495 78.1912 375.559 78.2392C375.622 78.2872 375.696 78.32 375.774 78.335C375.893 78.3505 376.013 78.3505 376.132 78.335C376.582 78.3816 377.037 78.368 377.483 78.2943Z" fill="#263238"/>
<path d="M379.934 78.6777C379.796 78.6777 379.861 79.5649 379.12 80.2486C378.379 80.9323 377.492 80.8997 377.492 81.0625C377.492 81.2253 377.712 81.2172 378.119 81.2009C378.638 81.1705 379.13 80.9604 379.511 80.6067C379.876 80.2616 380.094 79.7896 380.121 79.2882C380.105 78.9056 379.991 78.6777 379.934 78.6777Z" fill="#263238"/>
<path d="M379.6 68.8125C379.697 69.0323 380.503 68.8695 381.472 68.9264C382.44 68.9834 383.238 69.1869 383.352 68.9753C383.466 68.7637 383.254 68.6741 382.929 68.4788C382.494 68.2376 382.009 68.1036 381.512 68.0881C381.015 68.0628 380.519 68.1548 380.064 68.3567C379.738 68.5276 379.6 68.7148 379.6 68.8125Z" fill="#263238"/>
<path d="M372.112 70.0165C372.275 70.1874 372.82 69.9595 373.504 69.9026C374.187 69.8456 374.765 69.9433 374.887 69.7398C375.009 69.5363 374.83 69.463 374.57 69.3003C374.218 69.1125 373.818 69.0331 373.422 69.0722C373.025 69.1113 372.648 69.2672 372.34 69.52C372.112 69.7235 372.047 69.927 372.112 70.0165Z" fill="#263238"/>
<path d="M390.181 68.7062C390.14 70.1956 390.287 71.6851 390.246 73.1746C390.198 73.7372 390.054 74.2876 389.823 74.8025C389.745 75.1007 389.577 75.3673 389.34 75.5647C389.104 75.762 388.811 75.8802 388.504 75.9027C388.196 75.9252 387.89 75.8507 387.627 75.6899C387.364 75.529 387.159 75.2898 387.039 75.006C386.749 74.4181 386.593 73.7731 386.583 73.1176C386.578 72.4614 386.468 71.8103 386.258 71.1886C385.911 70.5441 385.496 69.9384 385.02 69.3817C384.787 69.0988 384.622 68.7657 384.539 68.4085C384.455 68.0512 384.456 67.6795 384.54 67.3225C386.51 67.2621 388.46 67.7376 390.181 68.698" fill="#263238"/>
<path d="M370.453 69.3662L370.363 66.3791L378.91 63.1885L390.02 65.6303L390.231 68.8371C383.811 66.4904 376.738 66.6796 370.453 69.3662Z" fill="#455A64"/>
<path d="M370.867 65.7109L370.509 66.1016L367.506 68.2911C371.439 66.9732 375.521 66.1529 379.658 65.8493C384.201 65.7457 388.741 66.1718 393.185 67.119L388.888 64.9133C388.19 64.2618 387.369 63.7569 386.473 63.4284C385.577 63.0998 384.624 62.9544 383.67 63.0005L375.824 63.3749C374.885 63.4195 373.964 63.6487 373.113 64.0496C372.263 64.4504 371.5 65.0149 370.867 65.7109Z" fill="#349F6E"/>
<path d="M376.345 63.1067C376.489 61.7199 376.527 60.324 376.459 58.9313C376.493 57.5362 376.422 56.1404 376.247 54.7559C376.093 56.1421 376.055 57.5387 376.133 58.9313C376.094 60.3265 376.165 61.7226 376.345 63.1067Z" fill="#263238"/>
<path d="M383.215 54.5199C382.733 54.3426 382.229 54.233 381.717 54.1943C381.558 54.2065 381.41 54.2777 381.302 54.3937C381.193 54.5097 381.132 54.6622 381.131 54.8211L381.18 55.7001C381.237 56.3268 381.286 56.9943 381.342 57.6861C381.456 59.1023 381.587 60.3802 381.692 61.2999C381.716 61.8042 381.798 62.304 381.937 62.7894C381.996 62.2892 381.996 61.7838 381.937 61.2836C381.888 60.3558 381.798 59.0779 381.676 57.6698C381.611 56.9698 381.554 56.3024 381.497 55.6757C381.497 55.3827 381.432 55.0978 381.408 54.8211C381.407 54.7245 381.441 54.6308 381.504 54.5574C381.566 54.4841 381.654 54.436 381.749 54.4222C382.234 54.4942 382.724 54.5269 383.215 54.5199Z" fill="#263238"/>
<path d="M367.303 68.2668C367.303 68.2668 367.661 68.0877 368.32 67.8028C368.646 67.6563 369.045 67.4935 369.5 67.2412C370.029 66.9678 370.48 66.5645 370.811 66.0692C371.193 65.4994 371.218 64.7425 371.625 64.1727C372.032 63.603 372.878 63.5134 373.708 63.432C375.385 63.2448 377.233 63.1065 379.178 63.0251C381.123 62.9437 382.987 62.9274 384.672 62.9437C385.445 62.8789 386.218 63.0799 386.861 63.5134C387.122 63.7626 387.359 64.0351 387.569 64.3274L387.903 64.7262L388.074 64.9134C388.144 64.9771 388.224 65.0293 388.31 65.068C389.515 65.5483 390.5 65.882 391.175 66.1017C391.517 66.2431 391.868 66.3627 392.225 66.4599C392.146 66.4024 392.062 66.3533 391.973 66.3133C391.802 66.232 391.55 66.118 391.216 65.9796C390.565 65.6948 389.588 65.3529 388.416 64.8564C388.355 64.8283 388.297 64.7928 388.245 64.7506L388.09 64.5634L387.773 64.1646C387.551 63.874 387.306 63.6018 387.04 63.3507C386.356 62.8585 385.521 62.6223 384.68 62.6832C382.987 62.6832 381.123 62.6832 379.17 62.7402C377.216 62.7972 375.352 62.9681 373.668 63.1716C373.251 63.2042 372.837 63.2695 372.43 63.3669C372.04 63.4664 371.697 63.6997 371.462 64.0262C370.99 64.6936 370.99 65.4506 370.648 65.9552C370.349 66.4285 369.934 66.8179 369.443 67.0866C369.012 67.347 368.629 67.5342 368.296 67.697C367.962 67.8598 367.734 67.9982 367.571 68.0958C367.474 68.1396 367.384 68.1972 367.303 68.2668Z" fill="#263238"/>
<path d="M368.507 68.6494C368.585 68.6159 368.659 68.5722 368.726 68.5192C368.865 68.4215 369.076 68.2913 369.353 68.1366C370.158 67.7365 371 67.4175 371.868 67.1843C374.746 66.4284 377.717 66.0831 380.691 66.1588C382.441 66.1588 384.101 66.1588 385.575 66.2239C387.048 66.289 388.432 66.525 389.555 66.7122C390.059 66.7978 390.559 66.9092 391.052 67.0459C391.425 67.1137 391.779 67.2639 392.086 67.4855C392.208 67.5827 392.306 67.7067 392.372 67.8479C392.438 67.989 392.472 68.1435 392.469 68.2994C392.514 68.2207 392.531 68.1288 392.517 68.0389C392.489 67.7799 392.367 67.5401 392.176 67.3634C391.866 67.1061 391.501 66.9249 391.109 66.8343C390.612 66.6799 390.107 66.5522 389.595 66.4518C388.274 66.1935 386.94 66.0061 385.599 65.8902C384.077 65.7762 382.4 65.8088 380.659 65.8006C377.655 65.7199 374.658 66.1015 371.77 66.932C370.891 67.1811 370.046 67.5393 369.255 67.9982C369.042 68.1234 368.84 68.2678 368.653 68.4296C368.555 68.5761 368.498 68.6412 368.507 68.6494Z" fill="#263238"/>
<path d="M377.607 53.7706C377.878 53.7913 378.15 53.7913 378.421 53.7706L380.391 53.6973C381.156 53.6973 381.864 53.5752 382.353 53.6241C382.485 53.6291 382.615 53.6631 382.733 53.7235C382.851 53.784 382.955 53.8695 383.036 53.9741C383.036 53.9741 383.036 53.8927 382.922 53.7869C382.767 53.6444 382.57 53.5559 382.361 53.5345C381.702 53.4833 381.041 53.4833 380.383 53.5345L378.413 53.6485C378.141 53.6587 377.871 53.6997 377.607 53.7706Z" fill="#FAFAFA"/>
<path d="M377.266 63.432C377.404 63.446 377.543 63.446 377.681 63.432H378.804C379.756 63.432 381.067 63.432 382.515 63.432L384.558 63.4808C385.104 63.4778 385.648 63.5214 386.186 63.6111C386.551 63.6867 386.878 63.8849 387.114 64.1727C387.193 64.281 387.259 64.3986 387.309 64.5226C387.294 64.3834 387.24 64.251 387.155 64.1401C386.924 63.8279 386.589 63.6085 386.211 63.5215C385.674 63.4177 385.129 63.3632 384.583 63.3587C383.956 63.3587 383.264 63.3099 382.54 63.3018C381.083 63.3018 379.772 63.3018 378.82 63.3425L377.697 63.3994C377.553 63.3975 377.408 63.4084 377.266 63.432Z" fill="#FAFAFA"/>
<path d="M381.556 61.9829C381.567 61.8856 381.567 61.7873 381.556 61.6899C381.556 61.4213 381.482 61.1609 381.442 60.876C381.352 60.2004 381.238 59.2481 381.132 58.2307C381.027 57.2133 380.97 56.261 380.929 55.5855C380.929 55.3087 380.913 55.0374 380.88 54.7715C380.894 54.6744 380.894 54.5757 380.88 54.4785C380.868 54.5758 380.868 54.6742 380.88 54.7715C380.88 54.9587 380.88 55.2355 380.88 55.5855C380.88 56.2692 380.945 57.2133 381.043 58.247C381.141 59.2807 381.279 60.2167 381.393 60.8841C381.45 61.226 381.507 61.4946 381.547 61.698C381.536 61.7929 381.539 61.8889 381.556 61.9829Z" fill="#FAFAFA"/>
<path d="M388.326 65.2227C388.409 65.2701 388.496 65.3084 388.587 65.3366L389.303 65.6052L391.68 66.4191C392.118 66.5588 392.547 66.7246 392.966 66.9156C393.3 67.0698 393.568 67.3382 393.723 67.6726C393.823 67.9003 393.848 68.1538 393.796 68.397C393.739 68.5598 393.674 68.6411 393.69 68.6493C393.759 68.5832 393.811 68.5025 393.845 68.4132C393.937 68.1638 393.937 67.8895 393.845 67.64C393.681 67.2786 393.392 66.9892 393.031 66.8261C392.611 66.6204 392.176 66.4489 391.728 66.3133L389.335 65.4994L388.611 65.2715C388.518 65.2436 388.423 65.2272 388.326 65.2227Z" fill="#FAFAFA"/>
<path d="M328.168 210.679L328.908 223.898C328.908 223.898 315.723 229.082 315.625 231.532L341.296 231.028L340.987 210.395L328.168 210.679Z" fill="#349F6E"/>
<g opacity="0.4">
<path d="M328.168 210.679L328.908 223.898C328.908 223.898 315.723 229.082 315.625 231.532L341.296 231.028L340.987 210.395L328.168 210.679Z" fill="black"/>
</g>
<path d="M336.819 222.628C337.068 222.697 337.283 222.856 337.421 223.074C337.559 223.292 337.612 223.554 337.568 223.809C337.508 224.059 337.353 224.277 337.137 224.417C336.92 224.556 336.657 224.606 336.404 224.557C336.136 224.49 335.902 224.323 335.751 224.09C335.601 223.858 335.543 223.577 335.59 223.304C335.681 223.05 335.866 222.841 336.107 222.719C336.348 222.598 336.627 222.574 336.885 222.653" fill="#E0E0E0"/>
<path d="M341.298 231.028L341.184 228.952L316.611 230.214C316.611 230.214 315.48 230.735 315.626 231.532L341.298 231.028Z" fill="#E0E0E0"/>
<path d="M328.493 223.775C328.493 223.898 329.12 223.938 329.747 224.329C330.373 224.72 330.715 225.241 330.829 225.192C330.943 225.143 330.74 224.419 329.975 223.963C329.209 223.507 328.461 223.662 328.493 223.775Z" fill="#263238"/>
<path d="M325.816 224.939C325.816 225.062 326.337 225.265 326.777 225.753C327.216 226.242 327.347 226.836 327.469 226.828C327.591 226.82 327.664 226.103 327.111 225.469C326.557 224.834 325.816 224.817 325.816 224.939Z" fill="#263238"/>
<path d="M324.353 228.195C324.467 228.195 324.629 227.585 324.296 226.909C323.962 226.234 323.368 225.965 323.319 226.095C323.27 226.226 323.636 226.559 323.905 227.121C324.173 227.682 324.255 228.179 324.353 228.195Z" fill="#263238"/>
<path d="M328.657 220.74C328.714 220.854 329.284 220.675 329.992 220.74C330.7 220.805 331.262 220.985 331.319 220.879C331.376 220.773 330.847 220.333 330.008 220.301C329.17 220.268 328.592 220.643 328.657 220.74Z" fill="#263238"/>
<g opacity="0.3">
<path d="M328.322 213.3L328.444 215.653L341.06 215.286L341.036 213.162L328.322 213.3Z" fill="black"/>
</g>
<path d="M328.561 218.079C328.982 218.19 329.425 218.19 329.847 218.079C330.306 217.982 330.754 217.835 331.181 217.639C331.433 217.518 331.678 217.382 331.914 217.232C332.054 217.145 332.182 217.041 332.296 216.923C332.374 216.831 332.42 216.716 332.427 216.596C332.434 216.476 332.403 216.356 332.337 216.256C332.273 216.169 332.19 216.099 332.094 216.051C331.997 216.003 331.891 215.978 331.784 215.979C331.621 215.975 331.458 216 331.303 216.052C331.023 216.121 330.75 216.219 330.49 216.345C330.059 216.554 329.664 216.828 329.317 217.159C328.74 217.721 328.544 218.193 328.585 218.217C328.626 218.242 328.927 217.859 329.521 217.403C329.871 217.133 330.253 216.908 330.66 216.736C330.898 216.635 331.143 216.553 331.393 216.492C331.662 216.41 331.89 216.41 331.963 216.492C332.036 216.573 331.963 216.557 331.963 216.638C331.88 216.725 331.787 216.802 331.686 216.866C331.469 217.012 331.243 217.145 331.01 217.265C330.617 217.471 330.206 217.64 329.781 217.769C329.367 217.839 328.958 217.942 328.561 218.079Z" fill="#263238"/>
<path d="M328.722 218.249C328.771 218.249 329.007 217.818 329.039 217.004C329.048 216.527 328.98 216.051 328.836 215.596C328.75 215.313 328.636 215.041 328.494 214.782C328.423 214.617 328.311 214.472 328.169 214.362C328.026 214.253 327.858 214.181 327.68 214.155C327.566 214.16 327.456 214.197 327.362 214.262C327.269 214.327 327.195 214.417 327.151 214.522C327.09 214.673 327.049 214.832 327.029 214.994C326.988 215.28 326.988 215.57 327.029 215.856C327.111 216.336 327.309 216.789 327.607 217.175C328.119 217.834 328.648 217.989 328.657 217.932C328.665 217.875 328.258 217.631 327.843 217.004C327.613 216.639 327.466 216.228 327.411 215.799C327.375 215.554 327.375 215.304 327.411 215.059C327.411 214.782 327.542 214.562 327.647 214.587C327.753 214.611 327.997 214.782 328.103 215.002C328.239 215.22 328.351 215.452 328.437 215.694C328.59 216.104 328.684 216.534 328.714 216.971C328.779 217.761 328.657 218.233 328.722 218.249Z" fill="#263238"/>
<path d="M397.506 154.543C397.506 154.543 394.698 168.933 390.042 169.137C384.345 169.381 342.957 169.95 342.957 169.95L345.415 216.027L327.362 215.595L320.183 170.186C319.381 166.113 320.063 161.886 322.104 158.271L322.25 158.018C323.793 155.481 325.962 153.383 328.549 151.925C331.136 150.466 334.054 149.698 337.023 149.692L371.395 149.171L397.506 154.543Z" fill="#263238"/>
<path d="M335.193 210.679L335.926 223.898C335.926 223.898 322.74 229.082 322.643 231.532L348.314 231.028L348.005 210.395L335.193 210.679Z" fill="#349F6E"/>
<path d="M343.837 222.628C344.086 222.697 344.3 222.856 344.439 223.074C344.577 223.292 344.63 223.554 344.586 223.809C344.527 224.06 344.373 224.279 344.156 224.419C343.939 224.559 343.675 224.609 343.422 224.557C343.153 224.49 342.92 224.323 342.769 224.09C342.618 223.858 342.561 223.577 342.608 223.304C342.699 223.05 342.884 222.841 343.125 222.719C343.366 222.598 343.644 222.574 343.902 222.653" fill="#E0E0E0"/>
<path d="M348.313 231.028L348.199 228.952L323.627 230.214C323.627 230.214 322.495 230.735 322.642 231.532L348.313 231.028Z" fill="#E0E0E0"/>
<path d="M335.511 223.775C335.511 223.898 336.146 223.938 336.764 224.329C337.383 224.72 337.733 225.241 337.847 225.192C337.961 225.143 337.757 224.419 336.992 223.963C336.227 223.507 335.478 223.662 335.511 223.775Z" fill="#263238"/>
<path d="M332.84 224.939C332.84 225.062 333.361 225.265 333.792 225.753C334.224 226.242 334.362 226.836 334.484 226.828C334.606 226.82 334.679 226.103 334.126 225.469C333.572 224.834 332.84 224.817 332.84 224.939Z" fill="#263238"/>
<path d="M331.366 228.195C331.488 228.195 331.643 227.585 331.309 226.909C330.976 226.234 330.381 225.965 330.333 226.095C330.284 226.226 330.65 226.559 330.919 227.121C331.187 227.682 331.244 228.179 331.366 228.195Z" fill="#263238"/>
<path d="M335.648 220.74C335.705 220.854 336.275 220.675 336.983 220.74C337.691 220.805 338.253 220.985 338.31 220.879C338.367 220.773 337.838 220.333 337 220.301C336.161 220.268 335.648 220.643 335.648 220.74Z" fill="#263238"/>
<g opacity="0.3">
<path d="M335.34 213.3L335.47 215.653L348.078 215.286L348.053 213.162L335.34 213.3Z" fill="black"/>
</g>
<path d="M335.574 218.079C335.996 218.19 336.439 218.19 336.86 218.079C337.32 217.982 337.768 217.835 338.195 217.639C338.448 217.519 338.692 217.383 338.928 217.232C339.067 217.145 339.196 217.041 339.31 216.923C339.388 216.831 339.433 216.716 339.441 216.596C339.448 216.476 339.416 216.356 339.351 216.256C339.287 216.169 339.203 216.099 339.107 216.051C339.011 216.003 338.905 215.978 338.797 215.979C338.634 215.975 338.472 216 338.317 216.052C338.036 216.121 337.763 216.219 337.503 216.345C337.074 216.552 336.681 216.827 336.339 217.159C335.753 217.721 335.525 218.193 335.599 218.217C335.672 218.242 335.94 217.859 336.535 217.403C336.884 217.133 337.267 216.908 337.674 216.736C337.911 216.635 338.156 216.553 338.407 216.492C338.675 216.41 338.903 216.41 338.976 216.492C339.05 216.573 338.976 216.557 338.976 216.638C338.894 216.725 338.801 216.802 338.7 216.866C338.483 217.012 338.257 217.145 338.024 217.265C337.631 217.471 337.22 217.64 336.795 217.769C336.38 217.839 335.972 217.942 335.574 218.079Z" fill="#263238"/>
<path d="M335.737 218.249C335.786 218.249 336.022 217.818 336.055 217.004C336.068 216.526 335.999 216.05 335.851 215.596C335.766 215.313 335.651 215.041 335.509 214.782C335.439 214.617 335.327 214.472 335.184 214.362C335.042 214.253 334.874 214.181 334.696 214.155C334.582 214.16 334.472 214.197 334.378 214.262C334.284 214.327 334.211 214.417 334.166 214.522C334.106 214.673 334.065 214.832 334.044 214.994C334.003 215.28 334.003 215.57 334.044 215.856C334.127 216.336 334.325 216.789 334.622 217.175C335.135 217.834 335.664 217.989 335.672 217.932C335.68 217.875 335.273 217.631 334.858 217.004C334.629 216.639 334.482 216.228 334.427 215.799C334.39 215.554 334.39 215.304 334.427 215.059C334.468 214.782 334.565 214.562 334.663 214.587C334.761 214.611 335.013 214.782 335.119 215.002C335.254 215.22 335.366 215.452 335.452 215.694C335.606 216.104 335.699 216.534 335.729 216.971C335.794 217.761 335.648 218.233 335.737 218.249Z" fill="#263238"/>
<path d="M402.033 154.543C402.033 154.543 399.233 168.933 394.569 169.137C388.872 169.381 347.483 169.95 347.483 169.95L349.998 216.027L331.946 215.595L324.726 170.186C323.924 166.113 324.606 161.886 326.647 158.271L326.793 158.018C328.337 155.48 330.507 153.381 333.095 151.923C335.684 150.464 338.603 149.696 341.574 149.692L375.938 149.171L402.033 154.543Z" fill="#263238"/>
<path d="M366.822 96.7704L372.276 132.974L368.588 149.252L402.073 159.109C405.101 154.779 405.215 141.032 405.109 131.305C404.922 114.164 405.679 113.334 404.938 107.319C404.198 101.304 402.936 97.446 399.762 95.5495L390.63 90.8857C390.63 90.8857 385.486 94.1414 382.352 93.9868C382.352 93.9868 378.632 94.1415 376.573 92.1636C376.573 92.1392 369.02 94.4182 366.822 96.7704Z" fill="#349F6E"/>
<path d="M366.821 96.7705L355.662 112.154L370.858 121.074L369.694 115.483L366.821 96.7705Z" fill="#349F6E"/>
<path d="M340.231 149.912C340.167 149.926 340.1 149.926 340.036 149.912L339.474 149.953C339.166 149.973 338.859 150.011 338.554 150.067C338.14 150.117 337.73 150.193 337.325 150.295C334.733 150.931 332.339 152.201 330.358 153.99C328.996 155.217 327.825 156.641 326.883 158.214C325.804 160.017 325.135 162.034 324.921 164.123C324.727 166.445 324.814 168.782 325.182 171.082C325.515 173.524 325.996 175.966 326.248 178.562C326.826 183.69 327.599 188.557 328.323 192.977C329.048 197.397 329.748 201.36 330.309 204.714C330.871 208.067 331.31 210.761 331.579 212.641C331.701 213.553 331.799 214.269 331.872 214.806C331.872 215.034 331.921 215.213 331.937 215.368C331.944 215.433 331.944 215.498 331.937 215.563C331.912 215.504 331.895 215.441 331.888 215.376C331.888 215.222 331.823 215.042 331.774 214.815L331.408 212.666C331.066 210.761 330.594 208.075 330.008 204.763C329.422 201.45 328.714 197.437 327.933 193.042C327.151 188.647 326.394 183.755 325.816 178.603C325.556 176.039 325.092 173.565 324.766 171.139C324.394 168.806 324.315 166.435 324.53 164.083C324.755 161.94 325.453 159.875 326.573 158.035C327.542 156.436 328.75 154.995 330.155 153.762C332.184 151.966 334.638 150.717 337.285 150.132C338.252 149.925 339.244 149.852 340.231 149.912Z" fill="#455A64"/>
<path d="M353.059 138.737C353.059 138.737 365.976 142.904 376.02 146.542C377.725 147.161 379.557 147.349 381.352 147.087C383.147 146.826 384.85 146.124 386.308 145.045C388.174 143.669 389.556 141.737 390.255 139.526L397.133 117.86L385.648 113.839L377.973 133.316L349.404 129.564" fill="#FFBE9D"/>
<path d="M335.975 134.269L335.869 133.243C335.94 132.486 336.254 131.772 336.764 131.208C337.041 130.901 337.372 130.647 337.741 130.46L341.119 128.693C341.621 128.438 342.19 128.347 342.747 128.433L349.673 129.613L357.625 130.655L355.998 139.722L352.319 138.501C352.319 138.501 349.657 139.974 348.013 139.624C348.013 139.624 346.491 140.642 345.864 139.893C345.864 139.893 344.505 141.065 343.992 140.992C343.479 140.918 342.47 140.324 342.511 139.974L342.551 139.502C342.291 139.645 341.996 139.714 341.699 139.701C341.402 139.688 341.114 139.594 340.867 139.429C340.515 139.156 340.247 138.789 340.093 138.371C339.459 138.305 338.86 138.046 338.376 137.63C338.056 137.161 337.842 136.628 337.749 136.067C337.749 136.067 336.227 135.327 335.975 134.269Z" fill="#FFBE9D"/>
<path d="M341.087 130.988C341.136 130.988 341.217 131.363 341.046 131.932C340.794 132.654 340.376 133.306 339.825 133.837C339.215 134.464 338.645 134.977 338.295 135.4C337.945 135.823 337.758 136.116 337.701 136.092C337.644 136.067 337.701 135.709 338.059 135.221C338.49 134.617 338.978 134.055 339.516 133.544C340.024 133.044 340.448 132.464 340.769 131.827C340.989 131.338 341.013 130.988 341.087 130.988Z" fill="#EB996E"/>
<path d="M342.405 134.61C342.017 136.066 341.176 137.36 340.004 138.305C340.303 137.631 340.686 136.996 341.143 136.417C341.803 135.408 342.291 134.553 342.405 134.61Z" fill="#EB996E"/>
<path d="M344.17 137.003C344.268 137.068 343.983 137.654 343.527 138.321C343.072 138.989 342.632 139.477 342.534 139.404C342.437 139.331 342.73 138.745 343.177 138.085C343.625 137.426 344.073 136.938 344.17 137.003Z" fill="#EB996E"/>
<path d="M343.844 136.05C343.844 136.099 343.665 136.107 343.454 135.977C343.316 135.885 343.199 135.765 343.111 135.625C343.022 135.485 342.964 135.327 342.941 135.163C342.912 135.003 342.92 134.838 342.962 134.68C343.004 134.523 343.08 134.377 343.185 134.252C343.34 134.064 343.494 134.016 343.535 134.056C343.576 134.097 343.266 134.553 343.356 135.098C343.446 135.643 343.893 135.945 343.844 136.05Z" fill="#EB996E"/>
<path d="M345.773 138.485C345.773 138.534 345.627 138.542 345.448 138.485C345.333 138.417 345.234 138.326 345.156 138.218C345.077 138.11 345.022 137.988 344.992 137.858C344.942 137.716 344.936 137.562 344.975 137.417C345.014 137.271 345.097 137.141 345.212 137.044C345.423 136.898 345.586 136.995 345.57 137.044C345.48 137.129 345.417 137.238 345.388 137.358C345.359 137.478 345.366 137.603 345.407 137.72C345.497 138.135 345.822 138.379 345.773 138.485Z" fill="#EB996E"/>
<path d="M342.723 133.462C342.723 133.511 342.544 133.552 342.3 133.462C342.137 133.383 341.998 133.263 341.895 133.115C341.792 132.966 341.73 132.793 341.713 132.613C341.697 132.433 341.727 132.251 341.802 132.086C341.876 131.922 341.992 131.779 342.137 131.672C342.357 131.517 342.536 131.533 342.544 131.582C342.552 131.631 342.089 131.997 342.137 132.575C342.186 133.153 342.756 133.364 342.723 133.462Z" fill="#EB996E"/>
<path d="M397.189 98.488C394.568 97.3485 391.337 98.488 389.44 100.474C387.544 102.46 386.673 105.056 385.859 107.58C385.045 110.103 383.108 114.962 382.318 117.396L397.205 123.769C398.475 120.334 399.658 116.869 400.754 113.375C401.682 110.445 402.544 107.287 401.47 104.373" fill="#349F6E"/>
<path d="M401.471 104.373C401.538 104.485 401.59 104.605 401.626 104.731C401.755 105.082 401.851 105.444 401.911 105.813C402.144 107.196 402.108 108.611 401.805 109.981C401.349 112.066 400.748 114.117 400.006 116.118C399.192 118.446 398.378 121.042 397.41 123.834L397.336 124.037L397.125 123.948L386.641 119.471L382.23 117.583L382.051 117.501L382.108 117.339C383.312 113.79 384.655 110.542 385.665 107.572C386.107 106.132 386.651 104.726 387.292 103.364C387.867 102.148 388.656 101.045 389.62 100.108C391.095 98.7177 393.047 97.9482 395.074 97.9591C395.628 97.9764 396.176 98.0751 396.701 98.2521C396.878 98.3139 397.05 98.3901 397.214 98.48C396.528 98.2526 395.812 98.1264 395.09 98.1056C393.127 98.1483 391.252 98.9302 389.84 100.295C388.921 101.211 388.171 102.283 387.626 103.461C387.009 104.818 386.486 106.216 386.063 107.645C385.079 110.664 383.736 113.928 382.555 117.453L382.433 117.208L386.853 119.097L397.32 123.59L397.035 123.704C397.996 120.912 398.891 118.332 399.697 116.012C400.455 114.028 401.083 111.997 401.577 109.932C401.892 108.599 401.969 107.222 401.805 105.862C401.634 104.877 401.439 104.381 401.471 104.373Z" fill="#263238"/>
<path d="M382.391 140.747C382.343 140.747 382.229 139.933 381.724 138.444C381.414 137.566 381.001 136.727 380.495 135.945C379.849 134.918 378.96 134.065 377.907 133.463H377.947L361.823 131.363L352.056 130.052L347.816 129.466L344.129 128.872L342.501 128.62C342.045 128.539 341.574 128.622 341.174 128.856L339.082 129.865L337.756 130.492C337.605 130.575 337.443 130.638 337.275 130.679C337.415 130.578 337.562 130.488 337.715 130.41L339.009 129.719L341.068 128.644C341.511 128.379 342.031 128.276 342.541 128.351L344.169 128.579L347.856 129.116L352.105 129.67L361.872 130.948L377.972 133.153H378.021C379.123 133.791 380.044 134.698 380.698 135.791C381.199 136.597 381.595 137.464 381.879 138.371C382.058 138.939 382.199 139.518 382.302 140.104C382.355 140.315 382.385 140.53 382.391 140.747Z" fill="#EB996E"/>
<path d="M372.275 132.397C372.163 132.014 372.089 131.622 372.055 131.225C371.917 130.411 371.746 129.32 371.543 128.026C371.079 125.251 370.468 121.555 369.793 117.445C369.117 113.335 368.499 109.664 368.043 106.864C367.839 105.57 367.676 104.487 367.546 103.657C367.462 103.267 367.418 102.868 367.416 102.469C367.55 102.844 367.648 103.231 367.709 103.625L368.336 106.815C368.849 109.509 369.524 113.229 370.216 117.396C370.908 121.563 371.478 125.267 371.844 127.977C372.031 129.336 372.153 130.419 372.226 131.233C372.281 131.618 372.297 132.008 372.275 132.397Z" fill="#263238"/>
<path d="M526.514 310.565C526.514 310.687 408.706 310.777 263.421 310.777C118.135 310.777 0.310547 310.687 0.310547 310.565C0.310547 310.443 118.094 310.354 263.437 310.354C408.78 310.354 526.514 310.451 526.514 310.565Z" fill="#263238"/>
<path d="M16.0856 283.428C14.7752 285.194 12.3415 284.527 11.2427 283.428C10.1439 282.329 9.69627 280.693 9.29744 279.163C8.39398 275.671 7.49052 272.009 8.32887 268.501C8.53206 267.434 9.02806 266.445 9.76138 265.644C10.131 265.25 10.5978 264.959 11.1149 264.802C11.632 264.645 12.1813 264.627 12.7078 264.748C13.9368 265.107 14.6694 266.336 15.1984 267.5C16.7307 270.933 17.484 274.663 17.4042 278.422C17.4686 280.186 17.0067 281.928 16.0775 283.428" fill="#349F6E"/>
<g opacity="0.2">
<path d="M16.0856 283.428C14.7752 285.194 12.3415 284.527 11.2427 283.428C10.1439 282.329 9.69627 280.693 9.29744 279.163C8.39398 275.671 7.49052 272.009 8.32887 268.501C8.53206 267.434 9.02806 266.445 9.76138 265.644C10.131 265.25 10.5978 264.959 11.1149 264.802C11.632 264.645 12.1813 264.627 12.7078 264.748C13.9368 265.107 14.6694 266.336 15.1984 267.5C16.7307 270.933 17.484 274.663 17.4042 278.422C17.4686 280.186 17.0067 281.928 16.0775 283.428" fill="black"/>
</g>
<path d="M11.12 292.406C9.03771 291.362 6.67636 291.012 4.38064 291.405C3.12864 291.486 1.93843 291.978 0.994706 292.805C0.131943 293.708 -0.0634003 295.328 0.872615 296.15C1.48222 296.579 2.22061 296.786 2.96441 296.736C4.75505 296.736 6.74917 296.5 8.14912 297.615C8.96305 298.258 9.46768 299.292 10.4363 299.617C10.9205 299.745 11.4332 299.711 11.8961 299.52C12.359 299.328 12.7467 298.991 13.0001 298.559C13.4903 297.674 13.6214 296.633 13.3664 295.654C13.2664 294.976 13.0117 294.331 12.6221 293.768C12.2326 293.205 11.7186 292.739 11.12 292.406Z" fill="#349F6E"/>
<path d="M19.471 286.097C18.8449 285.236 18.4396 284.234 18.2906 283.18C18.1416 282.126 18.2535 281.051 18.6163 280.05C19.3496 278.051 20.6198 276.294 22.2872 274.971C24.2041 273.361 26.4156 272.139 28.7986 271.373C29.7208 271.03 30.7067 270.891 31.688 270.966C32.1771 271.007 32.6488 271.167 33.0617 271.433C33.4746 271.698 33.8162 272.06 34.0565 272.488C34.6995 273.783 34.0077 275.321 33.2426 276.558C31.9529 278.761 30.4915 280.86 28.8718 282.833C27.5695 284.421 26.0882 285.983 24.151 286.667C22.2139 287.351 20.2279 287.204 19.2675 285.853" fill="#349F6E"/>
<path d="M15.4421 310.564C15.3813 310.297 15.3513 310.024 15.3526 309.75C15.3038 309.148 15.2549 308.399 15.1898 307.512C15.1091 306.42 14.9705 305.333 14.7747 304.256C14.5186 302.932 14.1566 301.631 13.6922 300.366C13.2391 299.096 12.6059 297.898 11.812 296.809C11.1661 295.926 10.3321 295.197 9.37024 294.676C8.7183 294.328 8.01487 294.086 7.28658 293.96C7.01073 293.947 6.73749 293.9 6.47266 293.822C6.74325 293.794 7.01599 293.794 7.28658 293.822C8.04282 293.898 8.77905 294.11 9.45977 294.448C10.474 294.963 11.3567 295.704 12.0399 296.613C12.8651 297.717 13.5208 298.938 13.9852 300.235C14.465 301.5 14.8327 302.805 15.084 304.134C15.2661 305.233 15.383 306.342 15.434 307.455C15.434 308.407 15.4828 309.172 15.4828 309.701C15.4982 309.99 15.4845 310.279 15.4421 310.564Z" fill="#263238"/>
<path d="M15.3351 308.839C15.3174 308.712 15.3174 308.583 15.3351 308.456C15.3351 308.172 15.3351 307.813 15.3351 307.374C15.3351 306.438 15.4002 305.071 15.3921 303.394C15.3921 300.024 15.2375 295.377 14.8142 290.257C14.391 285.137 13.7642 280.49 13.1864 277.234C13.048 276.42 12.9096 275.655 12.7713 275.004C12.6329 274.353 12.5352 273.783 12.4294 273.319C12.3236 272.855 12.2585 272.505 12.2015 272.261C12.1697 272.139 12.1506 272.013 12.1445 271.887C12.1445 271.887 12.2015 272.009 12.2666 272.245C12.3317 272.481 12.4375 272.863 12.5515 273.295C12.6654 273.726 12.812 274.312 12.9585 274.963C13.105 275.615 13.2677 276.363 13.4224 277.194C14.2353 281.5 14.8167 285.847 15.1642 290.216C15.5874 295.344 15.7177 299.983 15.6526 303.386C15.6526 305.07 15.5549 306.438 15.4816 307.374C15.4816 307.813 15.4165 308.188 15.3921 308.456C15.3816 308.585 15.3626 308.713 15.3351 308.839Z" fill="#263238"/>
<path d="M15.5567 299.862C15.5228 299.482 15.5228 299.101 15.5567 298.722C15.6219 297.998 15.7439 296.948 15.9881 295.67C16.6338 292.327 17.6834 289.074 19.1136 285.984C20.4908 282.861 22.421 280.013 24.8111 277.576C25.2289 277.161 25.672 276.773 26.1378 276.412C26.3413 276.25 26.5203 276.087 26.6994 275.957L27.2122 275.623C27.5198 275.406 27.8436 275.213 28.1807 275.045C27.0598 275.879 25.9915 276.781 24.982 277.747C22.6598 280.202 20.7718 283.035 19.3985 286.122C18.6227 287.809 17.9566 289.543 17.4043 291.315C16.9353 292.759 16.5414 294.226 16.2242 295.711C15.9556 296.98 15.7928 298.022 15.687 298.738C15.6689 299.115 15.6254 299.49 15.5567 299.862Z" fill="#263238"/>
</g>
<defs>
<clipPath id="clip0_3054_33482">
<rect width="536.378" height="310.92" fill="white" transform="translate(0.310547 0.540039)"/>
</clipPath>
</defs>
</svg>
