<svg width="523" height="458" viewBox="0 0 523 458" fill="none" xmlns="http://www.w3.org/2000/svg">
<path d="M515.029 308.1C515.029 308.1 509.066 305.517 504.825 319.458C500.584 333.4 499.43 341.168 499.43 341.168C499.43 341.168 498.193 344.154 496.041 342.734C493.888 341.314 490.49 336.798 487.522 338.246C484.554 339.693 484.023 343.558 485.589 348.761C487.155 353.964 490.169 365.497 490.425 366.541C490.682 367.585 490.371 369.206 488.749 368.474C487.128 367.741 477.171 359.964 473.773 364.91C470.374 369.857 477.107 383.642 477.821 385.163C478.536 386.684 478.334 387.416 477.647 387.911C476.96 388.406 473.855 385.52 470.942 383.423C468.029 381.325 464.265 379.411 462.533 382.433C460.802 385.456 462.048 396.476 475.577 412.332L482.328 419.266L491.79 417.031C511.75 411.022 518.757 402.42 518.941 398.958C519.124 395.496 514.928 395.065 511.338 395.239C507.747 395.413 503.561 396.155 503.268 395.386C502.975 394.616 503.213 393.847 504.633 392.949C506.052 392.051 519.188 384.11 518.996 378.11C518.803 372.11 506.236 373.255 504.477 372.999C502.718 372.742 503.332 371.167 504.111 370.47C504.889 369.774 513.674 361.668 517.851 358.141C522.027 354.614 523.695 351.179 521.918 348.248C520.141 345.317 514.901 347.378 512.327 347.406C509.753 347.433 510.321 344.264 510.321 344.264C510.321 344.264 513.573 337.073 517.557 323.058C521.542 309.043 514.874 308.054 514.874 308.054" fill="#EBEBEB"/>
<path d="M511.204 320.576C511.204 320.576 511.204 320.677 511.13 320.869L510.901 321.785C510.691 322.555 510.388 323.672 509.985 325.101C509.188 327.987 507.998 332.154 506.523 337.293C503.555 347.571 499.342 361.732 494.615 377.359C489.888 392.986 485.666 407.147 482.643 417.416C481.141 422.536 479.895 426.686 479.08 429.571L478.099 432.869L477.843 433.73C477.779 433.922 477.742 434.014 477.742 434.014C477.742 434.014 477.742 433.913 477.806 433.721C477.87 433.528 477.944 433.226 478.035 432.85C478.255 432.081 478.557 430.963 478.951 429.534C479.748 426.649 480.93 422.481 482.414 417.342C485.382 407.065 489.595 392.904 494.322 377.267C499.048 361.631 503.271 347.488 506.294 337.229L509.857 325.065C510.279 323.645 510.608 322.536 510.828 321.767C510.947 321.401 511.03 321.117 511.094 320.906C511.158 320.695 511.204 320.576 511.204 320.576Z" fill="#E0E0E0"/>
<path d="M492.023 344.777C492.164 344.965 492.284 345.168 492.381 345.382C492.591 345.776 492.884 346.362 493.242 347.086C493.947 348.524 494.872 350.548 495.843 352.802C496.814 355.055 497.675 357.024 498.316 358.572C498.609 359.259 498.866 359.836 499.067 360.313C499.183 360.519 499.267 360.741 499.315 360.972C499.171 360.786 499.051 360.583 498.958 360.368C498.738 359.974 498.445 359.397 498.097 358.664C497.41 357.217 496.512 355.183 495.541 352.93C494.57 350.676 493.709 348.725 493.031 347.177L492.262 345.437C492.149 345.23 492.069 345.008 492.023 344.777Z" fill="#E0E0E0"/>
<path d="M500.219 360.98C500.219 360.898 504.267 358.809 509.379 356.327C514.49 353.845 518.603 351.875 518.639 351.958C518.676 352.04 514.6 354.128 509.479 356.62C504.359 359.112 500.274 361.063 500.219 360.98Z" fill="#E0E0E0"/>
<path d="M491.914 384.66C492.139 384.579 492.373 384.524 492.61 384.495L494.525 384.156C496.137 383.872 498.363 383.469 500.808 382.938C503.254 382.406 505.443 381.857 507.037 381.445L508.869 380.959C509.099 380.888 509.335 380.838 509.575 380.812C509.364 380.929 509.139 381.019 508.906 381.078C508.475 381.234 507.834 381.435 507.074 381.664C505.507 382.141 503.309 382.727 500.863 383.258C498.418 383.79 496.164 384.174 494.543 384.394C493.728 384.504 493.068 384.586 492.61 384.623C492.381 384.666 492.147 384.678 491.914 384.66Z" fill="#E0E0E0"/>
<path d="M481.273 371.643C481.273 371.643 481.457 371.789 481.741 372.101C482.025 372.412 482.437 372.87 482.941 373.438C483.939 374.583 485.295 376.186 486.788 377.945C488.281 379.703 489.6 381.334 490.553 382.525C491.029 383.12 491.414 383.596 491.67 383.935C491.815 384.104 491.941 384.288 492.046 384.485C491.868 384.349 491.708 384.192 491.569 384.018C491.285 383.706 490.873 383.248 490.378 382.68C489.38 381.535 488.015 379.932 486.531 378.174C485.047 376.415 483.71 374.784 482.757 373.594C482.281 373.007 481.905 372.522 481.649 372.183C481.504 372.017 481.378 371.836 481.273 371.643Z" fill="#E0E0E0"/>
<path d="M471.281 391.611C471.503 391.785 471.703 391.985 471.877 392.207L473.416 393.92C474.698 395.376 476.457 397.41 478.389 399.663C480.322 401.916 482.053 403.968 483.29 405.461C483.867 406.176 484.353 406.771 484.746 407.238C484.933 407.451 485.098 407.681 485.241 407.925C485.022 407.748 484.823 407.549 484.646 407.33L483.107 405.608C481.824 404.151 480.066 402.127 478.133 399.874C476.2 397.62 474.469 395.568 473.232 394.075L471.822 392.289C471.62 392.081 471.439 391.854 471.281 391.611Z" fill="#E0E0E0"/>
<path d="M485.016 407.44C485.313 407.335 485.62 407.259 485.932 407.211L488.341 406.698C490.374 406.258 493.186 405.654 496.264 404.866C499.342 404.078 502.117 403.355 504.123 402.796L506.496 402.136C506.794 402.039 507.101 401.969 507.412 401.926C507.138 402.059 506.853 402.169 506.56 402.256C506.01 402.448 505.213 402.714 504.215 403.016C502.227 403.639 499.461 404.426 496.374 405.187C493.287 405.947 490.466 406.524 488.414 406.9C487.397 407.083 486.582 407.229 485.987 407.312C485.67 407.396 485.343 407.439 485.016 407.44Z" fill="#E0E0E0"/>
<path d="M236.875 344.63H117.703V399.59H236.875V344.63Z" fill="#F5F5F5"/>
<path d="M234.045 397.044H120.461V347.58H234.045V397.044ZM121.175 396.302H233.303V348.304H121.175V396.302Z" fill="#E0E0E0"/>
<path d="M265.985 344.63H236.875V399.59H265.985V344.63Z" fill="#E0E0E0"/>
<path d="M120.798 362.832H233.658C233.692 362.823 233.722 362.804 233.743 362.776C233.765 362.749 233.777 362.715 233.777 362.68C233.777 362.646 233.765 362.612 233.743 362.584C233.722 362.557 233.692 362.538 233.658 362.529H120.798C120.764 362.538 120.734 362.557 120.713 362.584C120.691 362.612 120.68 362.646 120.68 362.68C120.68 362.715 120.691 362.749 120.713 362.776C120.734 362.804 120.764 362.823 120.798 362.832Z" fill="#E0E0E0"/>
<path d="M177.599 362.684C177.912 357.713 177.928 352.727 177.645 347.753C177.645 347.712 177.629 347.672 177.6 347.643C177.57 347.614 177.531 347.598 177.489 347.598C177.448 347.598 177.409 347.614 177.379 347.643C177.35 347.672 177.334 347.712 177.334 347.753C177.051 352.727 177.067 357.713 177.38 362.684C177.38 362.713 177.391 362.741 177.412 362.762C177.432 362.783 177.46 362.794 177.489 362.794C177.519 362.794 177.547 362.783 177.567 362.762C177.588 362.741 177.599 362.713 177.599 362.684Z" fill="#E0E0E0"/>
<path d="M208.015 355.219C208.015 355.523 207.925 355.82 207.756 356.074C207.587 356.327 207.346 356.524 207.065 356.64C206.784 356.757 206.475 356.787 206.176 356.728C205.878 356.669 205.603 356.522 205.388 356.307C205.173 356.092 205.026 355.817 204.967 355.519C204.908 355.22 204.938 354.911 205.055 354.63C205.171 354.348 205.368 354.108 205.621 353.939C205.874 353.77 206.172 353.68 206.476 353.68C206.678 353.68 206.879 353.719 207.065 353.797C207.252 353.874 207.422 353.988 207.565 354.13C207.707 354.273 207.821 354.443 207.898 354.63C207.975 354.816 208.015 355.016 208.015 355.219Z" fill="#E0E0E0"/>
<path d="M148.75 355.219C148.75 355.523 148.659 355.821 148.49 356.074C148.32 356.328 148.079 356.525 147.798 356.641C147.516 356.757 147.206 356.787 146.907 356.727C146.608 356.667 146.334 356.52 146.119 356.303C145.905 356.087 145.759 355.812 145.7 355.513C145.642 355.214 145.674 354.904 145.792 354.623C145.91 354.342 146.108 354.103 146.362 353.935C146.617 353.767 146.915 353.678 147.22 353.68C147.626 353.682 148.016 353.845 148.302 354.134C148.589 354.422 148.75 354.812 148.75 355.219Z" fill="#E0E0E0"/>
<path d="M178.773 372.257C178.773 372.561 178.683 372.859 178.514 373.112C178.345 373.365 178.104 373.562 177.823 373.678C177.542 373.795 177.232 373.825 176.934 373.766C176.635 373.707 176.361 373.56 176.146 373.345C175.931 373.13 175.784 372.855 175.725 372.557C175.666 372.258 175.696 371.949 175.812 371.668C175.929 371.387 176.126 371.146 176.379 370.977C176.632 370.808 176.93 370.718 177.234 370.718C177.436 370.718 177.636 370.758 177.823 370.835C178.01 370.912 178.179 371.026 178.322 371.169C178.465 371.311 178.579 371.481 178.656 371.668C178.733 371.854 178.773 372.055 178.773 372.257Z" fill="#E0E0E0"/>
<path d="M131.95 399.59L125.812 434.096H129.266L140.578 399.59H131.95Z" fill="#E0E0E0"/>
<path d="M228.449 399.59L233.579 434.151H230.125L219.82 399.59H228.449Z" fill="#E0E0E0"/>
<path d="M251.488 399.59L257.305 434.151H253.851L242.859 399.59H251.488Z" fill="#E0E0E0"/>
<path d="M178.703 387.81C178.703 388.115 178.613 388.412 178.443 388.665C178.274 388.918 178.034 389.116 177.753 389.232C177.472 389.349 177.162 389.379 176.864 389.32C176.565 389.26 176.291 389.114 176.076 388.899C175.861 388.683 175.714 388.409 175.655 388.111C175.595 387.812 175.626 387.503 175.742 387.221C175.859 386.94 176.056 386.7 176.309 386.531C176.562 386.362 176.86 386.271 177.164 386.271C177.366 386.271 177.566 386.311 177.753 386.389C177.94 386.466 178.109 386.579 178.252 386.722C178.395 386.865 178.508 387.035 178.586 387.221C178.663 387.408 178.703 387.608 178.703 387.81Z" fill="#E0E0E0"/>
<path d="M120.798 379.85H233.658C233.692 379.842 233.722 379.822 233.743 379.795C233.765 379.768 233.777 379.734 233.777 379.699C233.777 379.664 233.765 379.63 233.743 379.603C233.722 379.576 233.692 379.556 233.658 379.548H120.798C120.764 379.556 120.734 379.576 120.713 379.603C120.691 379.63 120.68 379.664 120.68 379.699C120.68 379.734 120.691 379.768 120.713 379.795C120.734 379.822 120.764 379.842 120.798 379.85Z" fill="#E0E0E0"/>
<path d="M487.991 77.1855H412.641V178.239H487.991V77.1855Z" fill="#EBEBEB"/>
<path d="M484.055 81.1611H416.555V174.273H484.055V81.1611Z" fill="#FAFAFA"/>
<path d="M464.197 113.367H438.43V142.817H464.197V113.367Z" fill="#EBEBEB"/>
<path d="M196.011 313.395L192.75 343.632H234.501L237.964 313.395H196.011Z" fill="#EBEBEB"/>
<path d="M197.724 315.565L194.555 342.029H232.23L235.28 315.565H197.724Z" fill="#FAFAFA"/>
<path d="M204.06 320.018L202.109 337.577H225.889L227.107 320.018H204.06Z" fill="#E0E0E0"/>
<path d="M236.469 326.42L245.089 343.751L234.5 343.632L236.598 325.284" fill="#F5F5F5"/>
<path d="M506 433.922C506 434.05 405.253 434.16 281.014 434.16C156.776 434.16 56 434.05 56 433.922C56 433.794 156.725 433.684 281 433.684C405.275 433.684 506 433.794 506 433.922Z" fill="#263238"/>
<path d="M348.101 70.4072H3.4375V297.273H348.101V70.4072Z" fill="#EBEBEB"/>
<path d="M348.103 297.282C348.103 295.725 348.03 208.796 347.911 70.407L348.103 70.5994H3.46715L3.70532 70.3612C3.70532 151.07 3.70532 227.913 3.70532 297.236L3.48547 297.016L348.149 297.236L3.48547 297.447H3.26562V297.236C3.26562 227.867 3.26562 151.07 3.26562 70.3612V70.123H3.53127L348.167 70.178H348.35V70.3612C348.158 208.796 348.103 295.734 348.103 297.282Z" fill="#263238"/>
<path d="M348.101 90.5956C348.101 90.7238 270.937 90.8337 175.774 90.8337C80.6105 90.8337 3.4375 90.7238 3.4375 90.5956C3.4375 90.4673 80.583 90.3574 175.774 90.3574C270.964 90.3574 348.101 90.4673 348.101 90.5956Z" fill="#263238"/>
<path d="M324.498 124.158H35.5547V163.702H324.498V124.158Z" fill="#E0E0E0"/>
<path d="M94.7569 232.859H30.6094V297.007H94.7569V232.859Z" fill="#E0E0E0"/>
<path d="M170.585 232.859H106.438V297.007H170.585V232.859Z" fill="#E0E0E0"/>
<path d="M244.147 232.859H180V297.007H244.147V232.859Z" fill="#E0E0E0"/>
<path d="M145.311 205.673H75.7778C72.9686 205.673 70.2743 204.557 68.287 202.572C66.2998 200.586 65.1821 197.893 65.1797 195.084C65.1918 192.281 66.3137 189.597 68.2999 187.619C70.2862 185.642 72.9749 184.531 75.7778 184.531H145.311C148.122 184.531 150.818 185.648 152.805 187.635C154.793 189.623 155.909 192.319 155.909 195.129C155.895 197.931 154.772 200.612 152.786 202.588C150.8 204.564 148.113 205.673 145.311 205.673Z" fill="#349F6E"/>
<path d="M226.598 205.673L227.514 205.609C227.834 205.609 228.21 205.499 228.668 205.426C230.689 205.001 232.54 203.994 233.996 202.529C235.451 201.064 236.445 199.205 236.857 197.182C237.359 194.648 236.923 192.017 235.63 189.781C234.859 188.464 233.811 187.331 232.558 186.461C231.305 185.591 229.878 185.004 228.375 184.743C226.679 184.578 224.975 184.526 223.273 184.587H217.777H205.869L75.696 184.66C72.9972 184.64 70.3974 185.675 68.4506 187.545C66.5039 189.414 65.3643 191.97 65.2747 194.667C65.1851 197.364 66.1527 199.99 67.971 201.985C69.7894 203.979 72.3148 205.184 75.009 205.343C76.4838 205.417 78.0135 205.343 79.5066 205.343H114.067L172.59 205.398L212.043 205.472L222.769 205.517L212.043 205.563L172.59 205.637H114.067H79.5066C78.0043 205.637 76.5204 205.637 74.9815 205.637C73.427 205.54 71.9116 205.108 70.5389 204.372C68.4205 203.224 66.7453 201.402 65.7782 199.195C64.8111 196.988 64.6072 194.522 65.1988 192.186C65.7904 189.85 67.1438 187.778 69.0449 186.297C70.9459 184.816 73.2863 184.011 75.696 184.01L205.869 184.074H217.777H223.273C224.991 184.01 226.711 184.071 228.421 184.257C229.833 184.507 231.181 185.037 232.384 185.817C233.587 186.598 234.621 187.611 235.425 188.799C236.229 189.987 236.786 191.323 237.064 192.73C237.341 194.137 237.333 195.586 237.04 196.989C236.593 199.035 235.565 200.908 234.082 202.385C232.989 203.452 231.68 204.274 230.244 204.794C229.735 204.976 229.215 205.123 228.686 205.233C228.219 205.298 227.834 205.371 227.523 205.389L226.598 205.673Z" fill="#263238"/>
<path d="M133.81 213.083H134.607L133.636 217.929H136.641L136.503 218.616H132.711L133.81 213.083Z" fill="#263238"/>
<path d="M137.251 216.857C137.24 216.53 137.296 216.204 137.416 215.899C137.535 215.595 137.716 215.318 137.947 215.086C138.178 214.854 138.454 214.672 138.758 214.551C139.063 214.431 139.388 214.373 139.716 214.384C139.969 214.356 140.225 214.383 140.467 214.463C140.709 214.544 140.93 214.675 141.117 214.849C141.303 215.023 141.449 215.236 141.546 215.471C141.642 215.707 141.687 215.961 141.676 216.216C141.688 216.543 141.634 216.869 141.515 217.174C141.397 217.479 141.217 217.757 140.987 217.989C140.757 218.222 140.481 218.405 140.177 218.527C139.874 218.649 139.548 218.707 139.221 218.698C138.968 218.717 138.714 218.683 138.475 218.599C138.236 218.515 138.017 218.383 137.832 218.21C137.647 218.036 137.5 217.827 137.4 217.594C137.3 217.361 137.249 217.11 137.251 216.857ZM140.915 216.234C140.929 216.07 140.906 215.904 140.848 215.75C140.789 215.596 140.696 215.457 140.577 215.344C140.457 215.23 140.313 215.145 140.156 215.095C139.999 215.044 139.833 215.03 139.67 215.052C139.444 215.053 139.22 215.1 139.013 215.191C138.806 215.282 138.619 215.414 138.466 215.58C138.312 215.746 138.194 215.941 138.119 216.155C138.044 216.368 138.014 216.595 138.03 216.82C138.018 216.984 138.042 217.149 138.102 217.302C138.161 217.455 138.253 217.594 138.373 217.707C138.492 217.82 138.635 217.905 138.791 217.956C138.947 218.007 139.113 218.023 139.276 218.002C139.502 218.001 139.725 217.954 139.932 217.863C140.138 217.772 140.324 217.64 140.477 217.474C140.63 217.308 140.747 217.112 140.821 216.899C140.895 216.685 140.924 216.459 140.906 216.234H140.915Z" fill="#263238"/>
<path d="M147.048 214.429L146.224 218.615H145.491L145.592 218.102C145.395 218.289 145.164 218.436 144.911 218.533C144.658 218.631 144.388 218.677 144.117 218.67C143.872 218.685 143.628 218.647 143.399 218.561C143.17 218.474 142.962 218.339 142.789 218.166C142.616 217.993 142.481 217.785 142.394 217.556C142.307 217.327 142.27 217.082 142.285 216.838C142.267 216.517 142.316 216.196 142.427 215.895C142.539 215.593 142.711 215.318 142.934 215.086C143.156 214.854 143.424 214.671 143.721 214.547C144.017 214.422 144.336 214.361 144.657 214.365C144.954 214.336 145.253 214.391 145.52 214.524C145.788 214.657 146.012 214.862 146.169 215.116L146.306 214.411L147.048 214.429ZM145.921 216.261C145.934 216.096 145.909 215.931 145.849 215.777C145.79 215.623 145.696 215.484 145.576 215.371C145.456 215.257 145.311 215.172 145.154 215.122C144.997 215.072 144.83 215.057 144.666 215.079C144.441 215.081 144.218 215.129 144.012 215.221C143.806 215.312 143.621 215.445 143.468 215.61C143.316 215.776 143.198 215.971 143.124 216.184C143.05 216.397 143.02 216.622 143.036 216.847C143.024 217.011 143.048 217.176 143.107 217.329C143.167 217.482 143.259 217.62 143.378 217.734C143.498 217.847 143.641 217.932 143.797 217.983C143.953 218.034 144.119 218.05 144.282 218.029C144.511 218.03 144.737 217.983 144.947 217.891C145.157 217.799 145.345 217.664 145.5 217.495C145.654 217.326 145.772 217.126 145.844 216.909C145.917 216.692 145.943 216.462 145.921 216.234V216.261Z" fill="#263238"/>
<path d="M152.786 212.753L151.614 218.615H150.89L150.991 218.102C150.59 218.479 150.057 218.683 149.507 218.67C149.263 218.685 149.018 218.647 148.789 218.561C148.56 218.474 148.352 218.339 148.179 218.166C148.006 217.993 147.871 217.785 147.784 217.556C147.698 217.327 147.66 217.082 147.675 216.838C147.659 216.517 147.708 216.197 147.82 215.896C147.933 215.596 148.105 215.321 148.327 215.089C148.549 214.858 148.817 214.674 149.112 214.549C149.408 214.425 149.726 214.362 150.047 214.365C150.347 214.336 150.648 214.392 150.917 214.527C151.186 214.661 151.411 214.869 151.568 215.125L152.044 212.734L152.786 212.753ZM151.312 216.234C151.325 216.069 151.302 215.904 151.244 215.75C151.185 215.596 151.092 215.457 150.973 215.343C150.853 215.23 150.709 215.145 150.552 215.094C150.395 215.044 150.229 215.029 150.066 215.052C149.84 215.053 149.616 215.1 149.409 215.19C149.202 215.281 149.015 215.414 148.862 215.579C148.708 215.745 148.59 215.941 148.515 216.154C148.44 216.368 148.41 216.594 148.426 216.82C148.414 216.985 148.438 217.15 148.498 217.304C148.558 217.458 148.651 217.597 148.772 217.71C148.892 217.823 149.036 217.908 149.193 217.959C149.351 218.009 149.517 218.024 149.681 218.001C149.907 218.001 150.13 217.954 150.337 217.863C150.543 217.772 150.729 217.639 150.882 217.473C151.035 217.307 151.152 217.112 151.226 216.898C151.3 216.685 151.329 216.459 151.312 216.234Z" fill="#263238"/>
<path d="M153.88 214.43H154.641L153.816 218.616H153.047L153.88 214.43ZM154.009 213.166C154.007 213.094 154.021 213.023 154.048 212.957C154.076 212.89 154.116 212.83 154.168 212.781C154.219 212.731 154.281 212.692 154.348 212.667C154.415 212.642 154.487 212.631 154.558 212.635C154.618 212.632 154.678 212.641 154.735 212.662C154.792 212.683 154.843 212.715 154.888 212.756C154.932 212.796 154.968 212.846 154.993 212.9C155.018 212.955 155.032 213.014 155.035 213.074C155.037 213.147 155.025 213.22 154.998 213.288C154.971 213.355 154.931 213.417 154.879 213.469C154.828 213.52 154.766 213.56 154.698 213.587C154.63 213.614 154.558 213.626 154.485 213.624C154.424 213.625 154.363 213.614 154.306 213.592C154.248 213.569 154.196 213.536 154.152 213.493C154.108 213.451 154.072 213.4 154.048 213.344C154.023 213.288 154.01 213.227 154.009 213.166Z" fill="#263238"/>
<path d="M159.753 215.776C159.751 215.942 159.735 216.107 159.707 216.271L159.24 218.616H158.48L158.947 216.271C158.954 216.155 158.954 216.039 158.947 215.923C158.947 215.373 158.635 215.071 157.976 215.071C157.595 215.05 157.221 215.178 156.932 215.427C156.644 215.677 156.463 216.028 156.428 216.408L155.979 218.616H155.219L156.052 214.43H156.785L156.675 214.961C156.877 214.768 157.116 214.617 157.377 214.518C157.638 214.419 157.917 214.373 158.196 214.384C158.394 214.35 158.596 214.362 158.789 214.418C158.982 214.474 159.159 214.572 159.309 214.706C159.459 214.839 159.576 215.005 159.653 215.19C159.73 215.376 159.764 215.576 159.753 215.776Z" fill="#263238"/>
<path d="M165.506 214.43L164.791 218.094C164.773 218.402 164.693 218.703 164.556 218.98C164.419 219.256 164.227 219.502 163.993 219.703C163.759 219.904 163.487 220.056 163.193 220.149C162.899 220.242 162.589 220.276 162.282 220.247C161.593 220.281 160.915 220.07 160.367 219.651L160.789 219.074C161.228 219.421 161.777 219.6 162.337 219.578C162.536 219.602 162.739 219.586 162.932 219.53C163.125 219.473 163.305 219.379 163.461 219.251C163.617 219.124 163.745 218.966 163.838 218.788C163.932 218.609 163.988 218.414 164.004 218.213L164.068 217.911C163.658 218.297 163.111 218.505 162.547 218.488C162.312 218.51 162.075 218.482 161.851 218.406C161.628 218.33 161.423 218.208 161.25 218.047C161.077 217.886 160.94 217.69 160.848 217.473C160.755 217.255 160.71 217.021 160.715 216.784C160.709 216.47 160.767 216.158 160.885 215.867C161.003 215.576 161.18 215.313 161.404 215.092C161.627 214.872 161.894 214.7 162.187 214.586C162.479 214.472 162.792 214.419 163.106 214.43C163.418 214.403 163.731 214.465 164.008 214.609C164.286 214.753 164.516 214.974 164.672 215.246L164.828 214.476L165.506 214.43ZM164.343 216.134C164.343 215.465 163.885 215.053 163.097 215.053C162.879 215.044 162.661 215.08 162.458 215.159C162.254 215.239 162.069 215.359 161.914 215.513C161.76 215.667 161.638 215.851 161.558 216.054C161.478 216.257 161.44 216.475 161.448 216.693C161.448 217.371 161.915 217.783 162.703 217.783C162.921 217.791 163.139 217.753 163.342 217.673C163.545 217.593 163.729 217.471 163.883 217.317C164.037 217.162 164.157 216.977 164.236 216.773C164.315 216.57 164.352 216.352 164.343 216.134Z" fill="#263238"/>
<path d="M167.993 218.157C167.989 218.082 168.001 218.007 168.027 217.936C168.054 217.866 168.095 217.801 168.147 217.747C168.199 217.693 168.262 217.65 168.332 217.622C168.402 217.593 168.476 217.579 168.552 217.58C168.618 217.58 168.684 217.593 168.745 217.619C168.807 217.645 168.862 217.684 168.908 217.731C168.954 217.779 168.99 217.836 169.014 217.898C169.038 217.96 169.049 218.027 169.046 218.093C169.05 218.168 169.039 218.242 169.013 218.312C168.987 218.382 168.947 218.446 168.895 218.5C168.844 218.554 168.782 218.597 168.714 218.626C168.645 218.655 168.571 218.67 168.497 218.67C168.43 218.67 168.363 218.657 168.302 218.631C168.24 218.605 168.184 218.567 168.137 218.519C168.09 218.472 168.053 218.415 168.029 218.353C168.004 218.291 167.992 218.224 167.993 218.157Z" fill="#263238"/>
<path d="M169.782 218.157C169.778 218.082 169.79 218.007 169.816 217.936C169.843 217.866 169.884 217.801 169.936 217.747C169.988 217.693 170.051 217.65 170.121 217.622C170.191 217.593 170.265 217.579 170.341 217.58C170.407 217.58 170.473 217.593 170.534 217.619C170.596 217.645 170.651 217.684 170.697 217.731C170.743 217.779 170.779 217.836 170.803 217.898C170.827 217.96 170.838 218.027 170.835 218.093C170.839 218.168 170.828 218.242 170.802 218.312C170.776 218.382 170.736 218.446 170.684 218.5C170.633 218.554 170.571 218.597 170.503 218.626C170.434 218.655 170.36 218.67 170.286 218.67C170.219 218.67 170.153 218.657 170.091 218.631C170.029 218.605 169.973 218.567 169.926 218.519C169.879 218.472 169.842 218.415 169.818 218.353C169.793 218.291 169.781 218.224 169.782 218.157Z" fill="#263238"/>
<path d="M171.571 218.157C171.568 218.082 171.581 218.006 171.609 217.936C171.636 217.865 171.678 217.801 171.731 217.747C171.784 217.693 171.847 217.65 171.918 217.622C171.988 217.593 172.063 217.579 172.139 217.58C172.205 217.58 172.271 217.593 172.332 217.619C172.393 217.645 172.449 217.684 172.495 217.731C172.541 217.779 172.577 217.836 172.601 217.898C172.625 217.96 172.636 218.027 172.633 218.093C172.637 218.168 172.625 218.242 172.599 218.312C172.574 218.382 172.534 218.446 172.482 218.5C172.431 218.554 172.369 218.597 172.3 218.626C172.232 218.655 172.158 218.67 172.084 218.67C171.948 218.67 171.817 218.616 171.721 218.52C171.625 218.424 171.571 218.293 171.571 218.157Z" fill="#263238"/>
<path d="M16.5641 81.4813C16.5641 81.9813 16.4159 82.4701 16.1381 82.8859C15.8603 83.3016 15.4654 83.6256 15.0035 83.817C14.5415 84.0083 14.0332 84.0584 13.5428 83.9609C13.0523 83.8633 12.6019 83.6225 12.2483 83.269C11.8947 82.9154 11.6539 82.4649 11.5564 81.9745C11.4588 81.4841 11.5089 80.9758 11.7003 80.5138C11.8916 80.0518 12.2156 79.657 12.6314 79.3792C13.0471 79.1014 13.536 78.9531 14.036 78.9531C14.7065 78.9531 15.3495 79.2195 15.8237 79.6936C16.2978 80.1677 16.5641 80.8108 16.5641 81.4813Z" fill="#263238"/>
<path d="M27.3376 81.4813C27.3376 81.9813 27.1893 82.4701 26.9115 82.8859C26.6337 83.3016 26.2389 83.6256 25.7769 83.817C25.3149 84.0083 24.8066 84.0584 24.3162 83.9609C23.8258 83.8633 23.3753 83.6225 23.0217 83.269C22.6682 82.9154 22.4274 82.4649 22.3298 81.9745C22.2323 81.4841 22.2823 80.9758 22.4737 80.5138C22.665 80.0518 22.9891 79.657 23.4048 79.3792C23.8206 79.1014 24.3094 78.9531 24.8094 78.9531C25.4799 78.9531 26.123 79.2195 26.5971 79.6936C27.0712 80.1677 27.3376 80.8108 27.3376 81.4813Z" fill="#263238"/>
<path d="M38.0719 81.4813C38.0719 81.9817 37.9234 82.4709 37.6452 82.8868C37.367 83.3028 36.9716 83.6268 36.5091 83.8179C36.0466 84.009 35.5378 84.0585 35.0472 83.9602C34.5565 83.8619 34.1061 83.6202 33.7529 83.2657C33.3997 82.9112 33.1596 82.4599 33.0631 81.9689C32.9666 81.4779 33.0179 80.9693 33.2107 80.5075C33.4035 80.0457 33.7289 79.6514 34.1459 79.3748C34.5628 79.0981 35.0525 78.9513 35.5529 78.9531C36.2219 78.9556 36.8626 79.223 37.3347 79.6969C37.8068 80.1707 38.0719 80.8124 38.0719 81.4813Z" fill="#263238"/>
<path d="M312.18 287.197C378.614 287.197 432.469 233.342 432.469 166.908C432.469 100.474 378.614 46.6191 312.18 46.6191C245.746 46.6191 191.891 100.474 191.891 166.908C191.891 233.342 245.746 287.197 312.18 287.197Z" fill="#F5F5F5"/>
<path d="M432.434 166.908C432.434 166.908 432.434 166.248 432.361 164.957C432.361 164.307 432.315 163.51 432.288 162.557C432.26 161.604 432.288 160.487 432.123 159.241C431.958 157.995 431.912 156.575 431.784 155.037C431.655 153.498 431.381 151.803 431.152 149.98C430.55 145.789 429.737 141.631 428.715 137.523C427.403 132.386 425.757 127.34 423.787 122.418C421.464 116.556 418.664 110.894 415.415 105.49C407.498 92.2726 397.141 80.6809 384.894 71.3325C370.015 60.0077 352.693 52.3221 334.312 48.8905C318.738 46.0111 302.752 46.1946 287.248 49.4309C276.217 51.7578 265.575 55.6505 255.646 60.9909C250.503 63.7669 245.56 66.898 240.853 70.3615C231.144 77.5336 222.576 86.1346 215.443 95.8721C211.773 100.86 208.499 106.128 205.651 111.627C204.964 113.029 204.176 114.375 203.562 115.832L201.602 120.119C200.439 123.041 199.248 125.972 198.286 128.995C196.257 135.049 194.726 141.259 193.706 147.562C192.702 153.957 192.176 160.417 192.131 166.89C192.172 173.362 192.696 179.823 193.697 186.217C194.721 192.526 196.252 198.741 198.277 204.803L199.046 207.047L199.422 208.174L199.853 209.273C200.463 210.751 201.043 212.219 201.593 213.679L203.535 217.966C204.149 219.404 204.936 220.769 205.623 222.17C208.471 227.672 211.745 232.943 215.415 237.935C219.031 242.82 222.986 247.445 227.25 251.775C231.495 255.972 236.021 259.874 240.798 263.454C245.527 266.913 250.488 270.044 255.646 272.825C260.673 275.498 265.876 277.827 271.218 279.796C276.465 281.672 281.829 283.202 287.276 284.376C302.779 287.613 318.766 287.797 334.34 284.916C352.717 281.479 370.036 273.79 384.912 262.465C397.164 253.119 407.525 241.527 415.442 228.307C418.685 222.902 421.482 217.24 423.805 211.38C425.794 206.464 427.453 201.421 428.77 196.284C429.906 191.64 430.703 187.472 431.216 183.826C431.436 181.994 431.683 180.327 431.848 178.779C432.013 177.231 432.077 175.83 432.178 174.575C432.278 173.32 432.324 172.212 432.343 171.259C432.361 170.306 432.397 169.5 432.416 168.859C432.416 167.567 432.489 166.908 432.489 166.908C432.489 166.908 432.489 167.567 432.489 168.859C432.489 169.5 432.489 170.306 432.434 171.259C432.379 172.212 432.434 173.329 432.288 174.584C432.141 175.839 432.095 177.24 431.976 178.788C431.857 180.337 431.591 182.022 431.372 183.845C430.782 188.045 429.978 192.212 428.962 196.33C427.674 201.481 426.04 206.54 424.071 211.471C421.75 217.368 418.946 223.064 415.69 228.5C407.774 241.763 397.407 253.398 385.141 262.786C370.227 274.15 352.855 281.858 334.422 285.292C318.795 288.189 302.754 288.017 287.193 284.788C276.092 282.469 265.381 278.566 255.39 273.201C250.226 270.414 245.262 267.274 240.532 263.802C235.734 260.21 231.187 256.296 226.92 252.087C222.631 247.739 218.652 243.096 215.012 238.191C211.325 233.18 208.036 227.887 205.175 222.363C204.488 220.961 203.7 219.615 203.077 218.149L201.126 213.844C200.549 212.369 199.972 210.903 199.385 209.429L198.946 208.32L198.57 207.194L197.801 204.931C195.767 198.847 194.235 192.607 193.221 186.272C191.114 173.424 191.114 160.319 193.221 147.47C194.235 141.139 195.767 134.902 197.801 128.821C198.763 125.789 199.962 122.858 201.126 119.917L203.077 115.612C203.7 114.165 204.488 112.8 205.175 111.398C208.034 105.875 211.323 100.586 215.012 95.579C218.647 90.6705 222.626 86.0268 226.92 81.6833C231.191 77.4952 235.742 73.6024 240.541 70.0318C245.268 66.5443 250.232 63.3917 255.399 60.597C265.39 55.2313 276.101 51.329 287.202 49.0096C302.759 45.7676 318.799 45.5933 334.422 48.4966C352.854 51.9617 370.22 59.6911 385.132 71.0669C397.4 80.4514 407.768 92.0875 415.68 105.353C418.923 110.776 421.717 116.456 424.034 122.335C426.002 127.267 427.636 132.326 428.926 137.477C430.052 142.13 430.831 146.316 431.335 149.962C431.555 151.794 431.793 153.47 431.939 155.018C432.086 156.566 432.159 157.977 432.251 159.232C432.342 160.487 432.434 161.632 432.434 162.548C432.434 163.464 432.434 164.307 432.489 164.957C432.434 166.212 432.434 166.908 432.434 166.908Z" fill="#263238"/>
<mask id="mask0_3554_23356" style="mask-type:luminance" maskUnits="userSpaceOnUse" x="203" y="55" width="219" height="188">
<path d="M263.983 208.898C255.276 199.661 249.484 188.064 247.331 175.554C245.177 163.045 246.758 150.178 251.876 138.562C256.994 126.946 265.422 117.096 276.106 110.243C286.791 103.389 299.258 99.8368 311.95 100.029C324.642 100.221 336.996 104.149 347.468 111.323C357.94 118.496 366.066 128.597 370.83 140.362C375.594 152.128 376.785 165.036 374.254 177.475C371.723 189.914 365.583 201.331 356.6 210.299L389.1 242.029C404.404 226.838 414.866 207.454 419.166 186.324C423.466 165.193 421.412 143.262 413.261 123.298C405.111 103.334 391.231 86.2311 373.371 74.147C355.511 62.0629 334.473 55.5392 312.909 55.3988C291.346 55.2584 270.224 61.5078 252.209 73.3584C234.193 85.2089 220.091 102.13 211.682 121.986C203.273 141.842 200.933 163.745 204.957 184.93C208.982 206.114 219.191 225.633 234.296 241.022L263.983 208.898Z" fill="white"/>
</mask>
<g mask="url(#mask0_3554_23356)">
<path d="M263.983 208.898C255.276 199.661 249.484 188.064 247.331 175.554C245.177 163.045 246.758 150.178 251.876 138.562C256.994 126.946 265.422 117.096 276.106 110.243C286.791 103.389 299.258 99.8368 311.95 100.029C324.642 100.221 336.996 104.149 347.468 111.323C357.94 118.496 366.066 128.597 370.83 140.362C375.594 152.128 376.785 165.036 374.254 177.475C371.723 189.914 365.583 201.331 356.6 210.299L389.1 242.029C404.404 226.838 414.866 207.454 419.166 186.324C423.466 165.193 421.412 143.262 413.261 123.298C405.111 103.334 391.231 86.2311 373.371 74.147C355.511 62.0629 334.473 55.5392 312.909 55.3988C291.346 55.2584 270.224 61.5078 252.209 73.3584C234.193 85.2089 220.091 102.13 211.682 121.986C203.273 141.842 200.933 163.745 204.957 184.93C208.982 206.114 219.191 225.633 234.296 241.022L263.983 208.898Z" fill="#349F6E"/>
<g opacity="0.8">
<path d="M369.3 164.031H428.007C428.007 164.031 422.071 211.819 420.88 212.707C419.69 213.596 384.964 253.671 384.964 253.671L345.484 206.772L369.3 164.031Z" fill="black"/>
</g>
<g opacity="0.7">
<path d="M353.469 124.507L395.009 83.7266L424.257 127.365L428.159 164.032H370.012L359.423 140.72L353.469 124.507Z" fill="black"/>
</g>
<g opacity="0.5">
<path d="M314.735 109.713C314.03 108.522 314.735 50.9424 314.735 50.9424L350.533 55.4399L394.611 83.8909L352.264 125.441L325.599 121.584L314.735 109.713Z" fill="black"/>
</g>
<g opacity="0.3">
<path d="M229.469 85.9697C230.385 86.2628 268.948 127.519 268.948 127.519L303.381 113.871L314.428 100.131L314.739 50.9785L273.702 55.4761L229.469 85.9697Z" fill="black"/>
</g>
<g opacity="0.1">
<path d="M199.156 164.032C200.072 164.627 264.458 164.032 264.458 164.032L263.322 121.639L232.233 88.6631L211.028 113.871L199.156 164.032Z" fill="black"/>
</g>
</g>
<path d="M313.398 191.969C327.239 191.969 338.459 180.749 338.459 166.907C338.459 153.066 327.239 141.846 313.398 141.846C299.556 141.846 288.336 153.066 288.336 166.907C288.336 180.749 299.556 191.969 313.398 191.969Z" fill="#E0E0E0"/>
<path d="M306.027 168.584C306.553 170.385 307.77 171.905 309.412 172.813C311.054 173.72 312.988 173.942 314.793 173.429L401.96 148.697L312 159.524C310.975 159.649 309.99 159.995 309.112 160.539C308.234 161.082 307.485 161.81 306.917 162.672C306.349 163.534 305.975 164.509 305.822 165.53C305.668 166.551 305.738 167.593 306.027 168.584Z" fill="#455A64"/>
<path d="M300.02 221.117L295.229 245.437H288.872L291.373 232.613L283.275 243.037H280.252L275.801 232.622L273.236 245.446H266.906L271.77 221.126H277.367L283.129 235.187L294.121 221.117H300.02Z" fill="#263238"/>
<path d="M323.428 226.603L319.672 245.436H313.416L313.801 243.669C312.327 245.049 310.37 245.796 308.351 245.748C304.284 245.748 300.391 242.661 300.391 237.165C300.391 230.918 304.971 226.292 310.604 226.292C313.141 226.292 315.184 227.061 316.375 228.866L316.824 226.603H323.428ZM315.12 235.186C315.163 234.705 315.1 234.22 314.936 233.765C314.772 233.31 314.511 232.897 314.171 232.553C313.831 232.209 313.42 231.944 312.967 231.776C312.514 231.607 312.029 231.539 311.547 231.577C308.937 231.577 307.059 233.693 307.059 236.853C307.017 237.334 307.081 237.819 307.246 238.272C307.411 238.726 307.674 239.138 308.015 239.479C308.356 239.82 308.768 240.083 309.222 240.248C309.676 240.413 310.16 240.477 310.641 240.435C313.288 240.408 315.129 238.319 315.129 235.186H315.12Z" fill="#263238"/>
<path d="M338.09 236.094L343.192 245.437H336.175L333.601 240.509L329.021 245.437H321.602L331.018 235.828L326.044 226.668H332.96L335.461 231.468L339.949 226.668H347.25L338.09 236.094Z" fill="#263238"/>
<path d="M344.947 242.139C344.931 241.579 345.031 241.023 345.239 240.503C345.447 239.984 345.76 239.512 346.157 239.118C346.555 238.724 347.029 238.416 347.55 238.212C348.071 238.009 348.629 237.914 349.188 237.934C349.672 237.907 350.156 237.981 350.609 238.152C351.062 238.323 351.474 238.587 351.819 238.927C352.165 239.267 352.435 239.675 352.612 240.126C352.79 240.576 352.872 241.059 352.852 241.543C352.866 242.099 352.766 242.652 352.56 243.168C352.354 243.685 352.044 244.154 351.651 244.547C351.258 244.94 350.789 245.249 350.273 245.456C349.756 245.662 349.203 245.762 348.648 245.748C348.164 245.768 347.681 245.689 347.229 245.516C346.777 245.343 346.366 245.079 346.019 244.741C345.673 244.403 345.399 243.998 345.214 243.551C345.03 243.103 344.939 242.623 344.947 242.139Z" fill="#263238"/>
<path d="M301.284 263.628H308.878L308.511 265.515H297.602L297.904 264.041L305.296 258.123C307.339 256.474 307.943 255.476 307.943 254.239C307.943 253.003 307.027 252.05 304.975 252.05C304.24 252.05 303.513 252.2 302.837 252.489C302.162 252.779 301.552 253.203 301.046 253.736L299.617 252.481C300.35 251.719 301.233 251.119 302.211 250.719C303.189 250.318 304.24 250.126 305.296 250.154C308.374 250.154 310.132 251.72 310.132 253.955C310.132 255.714 309.372 257.235 306.771 259.287L301.284 263.628Z" fill="#263238"/>
<path d="M316.105 252.215L314.85 256.383H316.325C320.209 256.383 321.967 257.986 321.967 260.441C321.967 263.583 319.384 265.689 315.5 265.689C314.532 265.75 313.561 265.613 312.647 265.285C311.734 264.958 310.897 264.447 310.188 263.784L311.332 262.108C311.898 262.669 312.575 263.106 313.32 263.39C314.064 263.674 314.86 263.799 315.656 263.757C318.276 263.757 319.796 262.612 319.796 260.679C319.796 259.186 318.715 258.27 315.94 258.27H312.276L314.639 250.328H323.213L322.837 252.215H316.105Z" fill="#263238"/>
<path d="M324.047 260.111C324.047 254.844 327.024 250.154 331.732 250.154C334.92 250.154 336.853 252.215 336.853 255.733C336.853 261.009 333.857 265.69 329.195 265.69C325.98 265.69 324.047 263.629 324.047 260.111ZM334.682 255.779C334.682 253.369 333.509 252.115 331.558 252.115C328.132 252.115 326.218 256.566 326.218 260.102C326.218 262.511 327.39 263.766 329.369 263.766C332.767 263.757 334.682 259.314 334.682 255.779Z" fill="#263238"/>
<path d="M443.375 414.924L447.268 421.208L457.179 409.758L451.958 404.216L443.375 414.924Z" fill="#349F6E"/>
<path d="M456.296 408.586C455.927 409.227 455.481 409.821 454.968 410.354C454.052 411.398 452.834 412.8 451.414 414.32L447.75 418.186C447.275 418.751 446.741 419.264 446.156 419.715C446.537 419.082 446.985 418.492 447.494 417.957C448.41 416.912 449.637 415.511 451.048 413.99L454.712 410.125C455.187 409.56 455.718 409.044 456.296 408.586Z" fill="#263238"/>
<path d="M447.172 409.181C448.087 409.74 448.909 410.438 449.608 411.251C450.423 411.945 451.13 412.757 451.706 413.66C450.795 413.096 449.974 412.398 449.269 411.59C448.458 410.892 447.751 410.081 447.172 409.181Z" fill="#263238"/>
<g opacity="0.6">
<path d="M447.261 421.208L457.172 409.758L456.192 408.705L446.07 419.825L447.133 421.099" fill="white"/>
</g>
<path d="M365.179 429.937V428.389L380.833 428.508V433.601L379.917 433.656C375.612 433.857 358.025 434.379 355.185 433.555C351.906 432.63 365.179 429.937 365.179 429.937Z" fill="#349F6E"/>
<g opacity="0.6">
<path d="M375.188 433.455C375.441 432.209 376.162 431.108 377.203 430.377C378.265 429.614 379.563 429.251 380.867 429.351V433.4L375.188 433.455Z" fill="white"/>
</g>
<g opacity="0.6">
<path d="M358.696 431.467C358.696 431.467 354.043 432.685 354.611 433.4C355.178 434.114 372.976 434.206 380.826 433.601V433.28L360.07 433.335C360.07 433.335 359.603 431.503 358.696 431.467Z" fill="white"/>
</g>
<path d="M381.054 433.271H380.78H380.01L377.18 433.372C374.789 433.436 371.482 433.491 367.827 433.472C364.172 433.454 360.866 433.381 358.475 433.289L355.644 433.161L354.875 433.115H354.609H355.644L358.475 433.179C360.875 433.243 364.172 433.298 367.827 433.317C371.482 433.335 374.78 433.317 377.18 433.317L380.01 433.271H381.054Z" fill="#263238"/>
<path d="M360.07 433.565C359.952 433.124 359.779 432.699 359.557 432.301C359.291 431.93 358.984 431.592 358.641 431.293C359.114 431.449 359.512 431.775 359.758 432.209C360.036 432.602 360.148 433.089 360.07 433.565Z" fill="#263238"/>
<path d="M364.651 431.421C364.651 431.421 364.394 431.192 364.165 430.862C363.936 430.533 363.799 430.23 363.845 430.212C363.891 430.194 364.101 430.432 364.33 430.771C364.559 431.11 364.715 431.394 364.651 431.421Z" fill="#263238"/>
<path d="M365.943 430.808C365.943 430.808 365.659 430.689 365.393 430.46C365.128 430.231 364.945 430.02 364.981 429.983C365.187 430.055 365.372 430.174 365.522 430.331C365.787 430.56 365.98 430.771 365.943 430.808Z" fill="#263238"/>
<path d="M366.746 429.443C366.484 429.531 366.206 429.562 365.931 429.534C365.66 429.562 365.385 429.534 365.125 429.452C365.383 429.359 365.659 429.328 365.931 429.36C366.206 429.328 366.484 429.357 366.746 429.443Z" fill="#263238"/>
<path d="M367.035 428.481C366.757 428.642 366.44 428.725 366.119 428.719C365.809 428.766 365.491 428.725 365.203 428.6C365.506 428.554 365.813 428.535 366.119 428.545C366.421 428.49 366.728 428.469 367.035 428.481Z" fill="#263238"/>
<path d="M364.155 430.148C363.825 430.209 363.487 430.209 363.157 430.148C362.796 430.107 362.441 430.034 362.094 429.928C361.881 429.871 361.676 429.792 361.48 429.69C361.422 429.66 361.369 429.619 361.327 429.568C361.285 429.518 361.253 429.46 361.233 429.397C361.22 429.327 361.227 429.255 361.255 429.19C361.283 429.125 361.329 429.069 361.389 429.031C361.771 428.856 362.199 428.811 362.609 428.902C363.019 428.993 363.388 429.215 363.66 429.534C363.808 429.718 363.917 429.93 363.981 430.157C363.981 430.322 363.981 430.414 363.981 430.414C363.885 430.121 363.733 429.85 363.532 429.617C363.305 429.369 363.013 429.188 362.689 429.095C362.294 428.967 361.866 428.993 361.489 429.168C361.334 429.269 361.389 429.443 361.563 429.544C361.744 429.639 361.934 429.715 362.131 429.773C362.467 429.88 362.809 429.965 363.157 430.029C363.734 430.121 364.155 430.121 364.155 430.148Z" fill="#263238"/>
<path d="M363.899 430.194C363.838 430.1 363.796 429.995 363.777 429.885C363.758 429.774 363.762 429.661 363.789 429.553C363.823 429.307 363.918 429.074 364.064 428.875C364.154 428.732 364.279 428.614 364.426 428.531C364.573 428.448 364.738 428.402 364.907 428.398C364.955 428.406 365.001 428.424 365.043 428.45C365.085 428.475 365.121 428.51 365.149 428.55C365.177 428.59 365.197 428.635 365.207 428.683C365.218 428.731 365.218 428.781 365.209 428.829C365.183 428.981 365.124 429.125 365.035 429.25C364.9 429.456 364.74 429.643 364.559 429.809C364.398 429.977 364.2 430.106 363.981 430.185C363.981 430.185 364.183 430.02 364.458 429.727C364.619 429.555 364.763 429.368 364.888 429.168C365.026 428.966 365.117 428.618 364.888 428.572C364.659 428.527 364.384 428.783 364.229 428.966C364.082 429.14 363.981 429.348 363.936 429.571C363.896 429.776 363.884 429.985 363.899 430.194Z" fill="#263238"/>
<path d="M380.77 429.305C380.77 429.305 380.322 429.305 379.616 429.305C378.712 429.389 377.844 429.705 377.097 430.221C376.381 430.741 375.831 431.457 375.513 432.282C375.265 432.896 375.238 433.317 375.201 433.308C375.183 433.211 375.183 433.112 375.201 433.015C375.234 432.75 375.296 432.489 375.384 432.237C375.689 431.376 376.244 430.627 376.978 430.084C377.752 429.54 378.663 429.223 379.607 429.168C379.893 429.142 380.182 429.142 380.468 429.168C380.575 429.199 380.677 429.245 380.77 429.305Z" fill="#263238"/>
<path d="M373.236 432.035C371.721 432.295 370.172 432.295 368.656 432.035C368.656 431.98 369.673 432.035 370.928 432.035C372.183 432.035 373.227 431.989 373.236 432.035Z" fill="#263238"/>
<path d="M376.283 432.044C376.283 432.044 376.201 432.245 376.091 432.465C375.981 432.685 375.935 432.868 375.88 432.868C375.825 432.868 375.798 432.639 375.88 432.392C375.963 432.144 376.256 432.016 376.283 432.044Z" fill="#263238"/>
<path d="M377.477 430.725C377.477 430.725 377.412 430.909 377.248 431.055C377.083 431.202 376.927 431.302 376.89 431.266C376.854 431.229 376.954 431.083 377.119 430.936C377.284 430.789 377.412 430.689 377.477 430.725Z" fill="#263238"/>
<path d="M379.108 430.12C379.108 430.166 378.888 430.166 378.659 430.239C378.43 430.313 378.265 430.432 378.22 430.395C378.174 430.358 378.311 430.166 378.595 430.074C378.879 429.983 379.126 430.074 379.108 430.12Z" fill="#263238"/>
<path d="M380.274 429.837C380.274 429.882 380.201 429.956 380.073 430.002C379.944 430.047 379.825 430.057 379.807 430.002C379.789 429.947 379.88 429.882 380.009 429.837C380.137 429.791 380.219 429.8 380.274 429.837Z" fill="#263238"/>
<path d="M358.739 226.485L334.565 201.991L337.634 170.086L338.184 169.454C338.486 169.106 338.825 168.722 339.228 168.3C339.694 167.824 340.235 167.427 340.831 167.128C341.557 166.723 342.333 166.415 343.139 166.212C343.899 166.111 344.147 165.149 343.542 164.829C342.938 164.508 340.849 164.755 338.761 166.074C336.672 167.393 337.945 163.775 338.376 162.41C338.807 161.045 339.979 156.914 339.668 156.465C339.228 155.815 338.422 156.181 338.01 157.51C337.597 158.838 336.104 162.777 335.408 162.529C334.712 162.282 337.048 155.549 337.048 155.549C337.048 155.549 337.781 154.194 336.984 153.882C335.555 153.314 333.622 160.642 333.448 161.339C333.338 161.824 332.532 161.586 332.724 161.073C332.917 160.56 335.198 154.404 333.741 153.818C332.633 153.369 332.092 159.827 330.901 160.853C329.711 161.879 331.817 155.989 330.737 155.604C330.334 155.458 330.004 155.403 329.289 158.948C328.701 161.389 328.243 163.86 327.915 166.349L320.312 204.464L344.128 235.965L358.739 226.485Z" fill="#FFBE9D"/>
<path d="M371.065 156.356C370.067 156.924 373.19 162.347 371.835 161.559C370.479 160.771 368.793 154.496 367.786 155.147C366.458 155.99 369.838 161.605 370.085 162.099C370.332 162.594 369.618 162.96 369.416 162.493C369.123 161.834 365.908 154.982 364.607 155.788C363.884 156.237 364.845 157.446 364.845 157.446C364.845 157.446 368.326 163.656 367.703 164.014C367.08 164.371 364.891 160.808 364.241 159.544C363.59 158.28 362.748 158.087 362.409 158.811C362.189 159.305 364.076 163.198 364.745 164.426C365.413 165.653 367.3 169.006 365.01 168.09C362.72 167.174 360.623 167.302 360.091 167.723C359.56 168.145 359.972 169.043 360.733 169.006C361.563 169.063 362.382 169.229 363.169 169.501C363.828 169.697 364.448 170.007 365.001 170.417C365.468 170.755 365.871 171.076 366.229 171.333L366.888 171.855L379.95 204.061L368.088 231.679L386.481 238.53L394.725 202L375.773 166.459C375.005 164.071 374.109 161.726 373.089 159.434C371.752 156.035 371.441 156.136 371.065 156.356Z" fill="#FFBE9D"/>
<path d="M412.102 352.041L400.194 290.577L383.321 292.034V291.887L352.507 294.681C352.507 294.681 351.06 365.268 350.547 365.268L358.992 429.617L383.321 428.508L373.923 364.453L377.386 313.056L378.082 312.14L392.133 364.672L440.068 418.918L455.64 403.822L412.102 352.041Z" fill="#455A64"/>
<path d="M374.532 354.752C374.51 354.576 374.51 354.397 374.532 354.221C374.532 353.827 374.532 353.305 374.587 352.719C374.651 351.354 374.752 349.485 374.871 347.223C375.164 342.505 375.567 336.102 376.007 329.022C376.456 322.61 376.868 316.729 377.179 312.241V312.186L381.402 307.166L382.575 305.819C382.849 305.508 382.996 305.352 383.014 305.371C382.91 305.551 382.791 305.723 382.657 305.884L381.558 307.294L377.473 312.351V312.25C377.189 316.738 376.822 322.61 376.419 329.031C375.924 336.112 375.503 342.505 375.146 347.223C374.963 349.503 374.816 351.363 374.706 352.719C374.642 353.323 374.596 353.818 374.56 354.212C374.574 354.392 374.565 354.574 374.532 354.752Z" fill="#263238"/>
<path d="M383.285 291.887C383.526 293.837 383.606 295.804 383.523 297.767C383.606 299.731 383.526 301.698 383.285 303.648C382.967 299.734 382.967 295.801 383.285 291.887Z" fill="#263238"/>
<path d="M362.505 297.2C362.753 297.129 363.008 297.086 363.265 297.072L365.509 296.807C367.46 296.578 370.273 296.266 373.643 295.891H373.872V296.12C373.872 299.014 373.872 302.339 373.872 305.884V306.031L373.744 306.095L373.57 306.177L367.717 309.108L367.598 309.163L367.497 309.099L362.404 306.086L362.312 306.022V305.921C362.312 303.31 362.386 301.139 362.404 299.509L362.459 297.787C362.436 297.595 362.436 297.401 362.459 297.21C362.486 297.425 362.502 297.643 362.505 297.86C362.505 298.327 362.505 298.913 362.505 299.628C362.505 301.203 362.56 303.338 362.606 305.902L362.505 305.728L367.634 308.687H367.424L373.295 305.774L373.469 305.683L373.332 305.902C373.332 302.358 373.332 299.032 373.332 296.138L373.57 296.349C370.273 296.642 367.506 296.862 365.537 297.008L363.238 297.173C362.994 297.193 362.749 297.202 362.505 297.2Z" fill="#263238"/>
<path d="M386.229 294.892C386.478 294.827 386.733 294.788 386.989 294.773L389.234 294.498C391.185 294.269 393.997 293.958 397.368 293.582H397.597V293.82C397.597 296.706 397.597 300.04 397.597 303.576V303.722L397.459 303.786L397.285 303.878L391.404 306.772L391.295 306.818L391.185 306.763L386.092 303.74L386 303.686V303.612C386 301.002 386.073 298.831 386.101 297.2V295.469C386.079 295.277 386.079 295.084 386.101 294.892C386.128 295.108 386.143 295.325 386.147 295.542C386.147 296.019 386.147 296.596 386.147 297.31C386.147 298.886 386.202 301.02 386.247 303.585L386.147 303.42L391.276 306.379H391.212L397.084 303.466L397.258 303.383L397.12 303.594C397.12 300.058 397.12 296.724 397.12 293.839L397.349 294.049C394.052 294.342 391.285 294.562 389.316 294.709L387.017 294.874C386.755 294.895 386.492 294.902 386.229 294.892Z" fill="#263238"/>
<path d="M373.885 298.574C370.114 299.068 366.308 299.246 362.508 299.105C364.383 298.776 366.283 298.607 368.187 298.601C370.082 298.436 371.988 298.426 373.885 298.574Z" fill="#263238"/>
<path d="M397.4 296.412C393.709 297.006 389.974 297.291 386.234 297.263C388.065 296.88 389.925 296.657 391.795 296.595C393.655 296.379 395.53 296.318 397.4 296.412Z" fill="#263238"/>
<path d="M371.979 363.912C368.337 364.68 364.635 365.134 360.914 365.268C364.557 364.499 368.259 364.046 371.979 363.912Z" fill="#263238"/>
<path d="M410.557 353.369C410.557 353.507 407.919 354.441 404.887 356.117C401.855 357.793 399.648 359.589 399.547 359.479C399.935 358.988 400.395 358.559 400.912 358.206C402.09 357.269 403.343 356.429 404.658 355.696C405.972 354.977 407.341 354.364 408.753 353.864C409.324 353.603 409.933 353.436 410.557 353.369Z" fill="#263238"/>
<path d="M358.745 140.564C358.68 140.455 358.622 140.342 358.571 140.225L358.076 139.218C357.865 138.778 357.618 138.21 357.288 137.578L356.098 135.389C355.64 134.583 355.062 133.713 354.467 132.742C353.872 131.771 353.111 130.79 352.324 129.728C350.482 127.351 348.458 125.121 346.269 123.059C340.523 117.715 333.662 113.714 326.181 111.344C321.773 109.958 317.189 109.215 312.569 109.136C302.599 108.919 292.772 111.533 284.228 116.675C280.262 119.05 276.653 121.977 273.511 125.368C268.198 131.145 264.232 138.027 261.896 145.52C261.024 148.394 260.375 151.331 259.954 154.304C259.798 155.614 259.679 156.851 259.597 157.968C259.514 159.086 259.487 160.139 259.496 161.073C259.505 162.008 259.496 162.832 259.551 163.556C259.606 164.279 259.652 164.884 259.679 165.388C259.707 165.892 259.743 166.231 259.762 166.505C259.77 166.633 259.77 166.762 259.762 166.89C259.731 166.767 259.71 166.641 259.698 166.514C259.698 166.24 259.624 165.864 259.579 165.397C259.533 164.93 259.441 164.298 259.395 163.565C259.35 162.832 259.34 162.008 259.304 161.073C259.267 160.139 259.304 159.095 259.359 157.95C259.414 156.805 259.533 155.577 259.679 154.286C260.054 151.286 260.667 148.321 261.511 145.419C263.823 137.859 267.791 130.908 273.126 125.075C276.287 121.644 279.924 118.686 283.926 116.29C292.538 111.086 302.455 108.445 312.514 108.678C317.179 108.765 321.806 109.524 326.254 110.932C333.79 113.347 340.69 117.416 346.452 122.84C348.638 124.928 350.656 127.185 352.488 129.591C353.276 130.671 353.982 131.688 354.614 132.65C355.246 133.612 355.768 134.482 356.217 135.325L357.371 137.541C357.691 138.183 357.92 138.751 358.122 139.209C358.323 139.667 358.461 139.987 358.571 140.234C358.637 140.34 358.695 140.45 358.745 140.564Z" fill="#263238"/>
<path d="M348.384 138.036C348.22 137.873 348.075 137.691 347.953 137.495C347.678 137.129 347.321 136.579 346.781 135.883C345.31 133.925 343.687 132.088 341.926 130.387C339.324 127.88 336.433 125.691 333.315 123.865C325.652 119.328 316.788 117.235 307.905 117.865C304.301 118.104 300.737 118.768 297.289 119.844C294.958 120.58 292.688 121.499 290.501 122.592C289.723 122.949 289.146 123.297 288.734 123.508C288.531 123.625 288.32 123.726 288.102 123.81C288.283 123.662 288.479 123.533 288.688 123.425C289.082 123.196 289.604 122.821 290.419 122.436C292.583 121.28 294.845 120.318 297.179 119.56C304.929 117.02 313.23 116.668 321.167 118.543C329.104 120.418 336.369 124.447 342.164 130.186C343.912 131.905 345.506 133.775 346.927 135.773C347.449 136.469 347.779 137.056 348.035 137.44C348.162 137.632 348.279 137.831 348.384 138.036Z" fill="#263238"/>
<path d="M394.733 245.482L390.474 267.622C399.35 279.97 400.156 290.522 400.156 290.522L352.469 294.626C353.385 287.142 357.965 270.956 357.965 270.956L351.04 247.323L337.172 229.287L350.912 216.885C350.646 217.581 363.818 225.202 363.818 225.202L382.743 225.367C383.673 225.463 384.593 225.644 385.491 225.907L394.733 201.936C394.733 201.936 401.878 212.451 399.487 225.358C397.774 234.518 398.104 236.689 394.733 245.51" fill="#349F6E"/>
<path d="M360.142 228.664C360.412 228.905 360.646 229.182 360.838 229.488C361.407 230.301 361.886 231.174 362.267 232.09C362.822 233.46 363.132 234.918 363.183 236.395C363.259 238.224 362.871 240.042 362.057 241.68C361.251 243.336 359.977 244.719 358.393 245.656C357.093 246.401 355.622 246.795 354.124 246.801C353.126 246.811 352.135 246.621 351.211 246.242C350.959 246.139 350.717 246.013 350.488 245.867C350.332 245.775 350.249 245.711 350.259 245.702C351.48 246.222 352.797 246.481 354.124 246.462C355.55 246.407 356.941 246.001 358.173 245.28C359.661 244.363 360.859 243.041 361.626 241.47C362.406 239.901 362.79 238.165 362.744 236.413C362.702 234.979 362.424 233.562 361.919 232.218C361.415 230.991 360.821 229.803 360.142 228.664Z" fill="#263238"/>
<path d="M393.094 244.786C393.011 244.786 393.423 243.87 393.826 242.414C394.879 238.557 394.555 234.453 392.91 230.808C392.278 229.416 391.738 228.628 391.802 228.582C391.866 228.537 391.985 228.747 392.251 229.095C392.6 229.59 392.907 230.114 393.167 230.662C394.09 232.481 394.65 234.463 394.816 236.497C394.977 238.53 394.737 240.574 394.11 242.515C393.929 243.102 393.696 243.672 393.414 244.219C393.249 244.603 393.121 244.805 393.094 244.786Z" fill="#263238"/>
<g opacity="0.3">
<path d="M386.698 266.293C386.431 266.089 386.115 265.96 385.782 265.918C385.449 265.876 385.11 265.923 384.801 266.055C383.761 266.396 382.686 266.617 381.595 266.715C379.553 266.76 377.712 265.606 375.825 264.819C373.938 264.031 371.547 263.683 370.054 265.075C369.52 265.599 369.182 266.29 369.093 267.032C369.005 267.775 369.173 268.526 369.568 269.16C370.042 269.834 370.757 270.3 371.565 270.461C376.328 271.808 380.423 270.818 385.085 268.95C385.67 268.768 386.198 268.436 386.615 267.988C386.824 267.759 386.947 267.465 386.962 267.155C386.977 266.846 386.884 266.541 386.698 266.293Z" fill="black"/>
</g>
<g opacity="0.3">
<path d="M351.709 216.701C349.643 219.197 348.593 222.379 348.769 225.614C349.08 228.802 351.242 231.898 354.338 232.722C356.463 233.281 358.781 232.777 360.86 233.483C364.698 234.774 366.732 239.803 370.771 240.16C374.435 240.49 377.083 236.799 380.49 235.443C382.305 234.883 384.176 234.52 386.069 234.362C389.943 233.73 393.754 231.861 396.016 228.655C398.279 225.449 398.645 220.778 396.291 217.663C393.772 214.311 389.1 213.486 384.914 213.486C378.553 213.488 372.257 214.759 366.393 217.224C365.109 217.699 363.918 218.397 362.875 219.285C362.353 219.731 361.933 220.284 361.644 220.906C361.355 221.529 361.203 222.207 361.199 222.894" fill="black"/>
</g>
<path d="M406.238 214.164C406.125 213.327 405.791 212.534 405.269 211.869C404.747 211.204 404.057 210.69 403.27 210.381C401.438 209.676 399.277 210.18 397.481 209.383C395.237 208.384 394.294 205.719 393.726 203.365C393.158 201.011 392.617 198.336 390.684 196.824C389.347 195.78 387.579 195.469 386.104 194.571C383.97 193.261 382.807 190.861 381.35 188.819C380.791 188.034 380.136 187.324 379.399 186.703L379.317 186.584C376.212 182.846 367.94 182.361 364.368 185.668L364.505 185.539C357.837 186.043 353.605 196.815 353.513 203.64C353.513 207.89 354.841 212.332 353.238 216.262C352.322 218.552 350.435 220.393 349.721 222.756C349.232 224.38 349.33 226.125 349.998 227.683C350.667 229.242 351.863 230.516 353.376 231.281C354.89 232.046 356.625 232.254 358.276 231.867C359.928 231.481 361.39 230.525 362.408 229.168C362.307 230.9 363.736 232.429 365.366 233.016C367.04 233.486 368.796 233.593 370.514 233.327C374.178 233.025 378.483 232.411 380.379 229.196C381.653 231.11 384.153 231.889 386.443 231.724C388.68 231.675 390.89 231.222 392.965 230.387C392.877 230.267 392.798 230.142 392.727 230.011C393.071 229.882 393.402 229.723 393.716 229.535C395.475 228.463 396.565 226.136 395.741 224.24L397.738 226.558C399.434 225.581 400.711 224.014 401.326 222.156C401.941 220.297 401.851 218.278 401.072 216.482C402.247 216.968 403.314 217.681 404.214 218.579C404.916 218.092 405.474 217.425 405.83 216.649C406.186 215.872 406.327 215.014 406.238 214.164Z" fill="#263238"/>
<path d="M405.392 217.005C405.501 216.256 405.349 215.493 404.962 214.843C404.501 214.093 403.828 213.497 403.029 213.13C401.947 212.684 400.799 212.418 399.63 212.342C398.174 212.263 396.74 211.954 395.38 211.426C394.618 211.083 393.951 210.557 393.438 209.897C392.912 209.196 392.512 208.408 392.257 207.57C391.689 205.884 391.56 204.025 391.002 202.257C390.736 201.357 390.315 200.51 389.756 199.756C389.185 199.01 388.372 198.485 387.457 198.272C386.541 198.043 385.515 198.062 384.516 197.86C383.513 197.681 382.595 197.183 381.897 196.44C380.504 195.002 379.955 193.152 379.341 191.549C378.839 190.005 377.997 188.593 376.877 187.418C375.664 186.167 374.138 185.264 372.458 184.802C370.778 184.339 369.005 184.335 367.323 184.789C366.594 185 365.879 185.254 365.18 185.549C365.339 185.428 365.511 185.324 365.693 185.238C366.2 184.978 366.73 184.766 367.277 184.606C369.313 183.996 371.491 184.061 373.488 184.789C374.865 185.295 376.116 186.095 377.152 187.134C378.334 188.335 379.224 189.793 379.753 191.393C380.376 193.015 380.935 194.792 382.236 196.111C382.867 196.785 383.699 197.237 384.608 197.402C385.524 197.586 386.541 197.558 387.567 197.814C388.59 198.065 389.496 198.66 390.132 199.5C390.728 200.297 391.172 201.198 391.441 202.156C392.018 203.988 392.128 205.82 392.678 207.469C392.862 208.251 393.214 208.983 393.709 209.616C394.204 210.249 394.831 210.766 395.545 211.133C396.863 211.652 398.254 211.961 399.667 212.049C400.871 212.155 402.048 212.465 403.148 212.965C403.977 213.36 404.664 213.999 405.117 214.797C405.407 215.303 405.547 215.882 405.52 216.464C405.504 216.65 405.461 216.832 405.392 217.005Z" fill="#455A64"/>
<path d="M393.689 230.203C393.689 230.203 393.881 230.121 394.192 229.901C394.638 229.569 394.96 229.099 395.108 228.563C395.373 227.724 395.317 226.817 394.953 226.017C394.391 224.991 393.549 224.146 392.525 223.58C391.426 222.884 390.07 222.362 388.733 221.51C388.032 221.078 387.412 220.526 386.901 219.88C386.356 219.173 385.955 218.367 385.719 217.507C385.354 215.694 385.118 213.858 385.014 212.011C384.785 210.179 384.217 208.173 382.587 207.047C380.956 205.92 378.923 205.599 377.466 204.115C376.239 202.685 375.464 200.922 375.24 199.05C374.956 197.31 374.837 195.652 374.443 194.168C374.079 192.793 373.457 191.5 372.611 190.357C371.361 188.698 369.705 187.389 367.802 186.556C366.447 185.997 365.632 185.887 365.641 185.832C365.838 185.834 366.035 185.859 366.227 185.905C366.789 186.019 367.341 186.182 367.876 186.391C369.851 187.174 371.578 188.474 372.877 190.156C373.775 191.321 374.437 192.649 374.828 194.067C375.25 195.587 375.378 197.264 375.68 198.967C375.892 200.752 376.632 202.433 377.805 203.795C379.078 205.141 381.139 205.471 382.871 206.662C383.718 207.273 384.375 208.112 384.767 209.08C385.134 209.999 385.375 210.963 385.481 211.947C385.572 213.765 385.793 215.574 386.141 217.361C386.343 218.162 386.701 218.915 387.194 219.577C387.675 220.194 388.261 220.721 388.925 221.135C390.208 221.968 391.563 222.518 392.69 223.251C393.754 223.86 394.617 224.768 395.173 225.861C395.559 226.731 395.591 227.716 395.264 228.609C395.08 229.166 394.711 229.644 394.22 229.965C394.06 230.078 393.879 230.158 393.689 230.203Z" fill="#455A64"/>
<path d="M371.567 232.21C371.954 231.677 372.165 231.036 372.171 230.378C372.171 229.625 372.009 228.882 371.695 228.198C371.347 227.382 370.779 226.531 370.303 225.45C369.751 224.31 369.615 223.015 369.918 221.786C370.339 220.423 370.904 219.108 371.603 217.865C372.361 216.535 372.774 215.036 372.803 213.505C372.77 211.866 372.207 210.282 371.2 208.989C370.193 207.633 368.947 206.488 367.967 205.151C367.472 204.499 367.071 203.78 366.776 203.017C366.515 202.276 366.358 201.502 366.309 200.718C366.255 199.29 366.366 197.861 366.639 196.458C366.876 195.247 367.051 194.024 367.161 192.794C367.375 191.04 367.035 189.263 366.19 187.71C365.843 187.164 365.428 186.666 364.953 186.227C365.108 186.301 365.251 186.4 365.374 186.52C365.754 186.829 366.082 187.197 366.345 187.61C367.284 189.173 367.689 190.999 367.5 192.813C367.405 194.041 367.249 195.264 367.032 196.477C366.778 197.847 366.682 199.243 366.748 200.635C366.798 201.38 366.952 202.114 367.206 202.815C367.49 203.537 367.872 204.215 368.342 204.831C369.258 206.113 370.541 207.249 371.585 208.659C372.647 210.034 373.237 211.714 373.27 213.45C373.236 215.059 372.798 216.634 371.997 218.03C371.303 219.245 370.735 220.528 370.303 221.859C369.992 223.017 370.102 224.247 370.614 225.331C371.063 226.347 371.603 227.227 371.942 228.079C372.248 228.805 372.389 229.59 372.354 230.378C372.332 230.875 372.181 231.358 371.915 231.779C371.827 231.943 371.709 232.09 371.567 232.21Z" fill="#455A64"/>
<path d="M355.492 231.459C355.369 231.336 355.278 231.185 355.227 231.019C355.06 230.539 355.06 230.016 355.227 229.535C355.492 228.781 355.976 228.124 356.619 227.648C357.448 227.064 358.232 226.418 358.964 225.716C359.765 224.804 360.286 223.682 360.466 222.482C360.636 221.095 360.411 219.688 359.816 218.424C359.116 216.968 358.8 215.356 358.9 213.743C359.223 212.059 359.811 210.436 360.64 208.934C361.434 207.478 361.855 205.848 361.868 204.19C361.714 202.63 361.382 201.094 360.878 199.61C360.025 197.026 359.949 194.249 360.659 191.622C361.173 189.859 362.215 188.296 363.645 187.143C364.031 186.837 364.449 186.573 364.89 186.355C365.042 186.27 365.206 186.209 365.376 186.172C364.803 186.501 364.255 186.871 363.736 187.28C362.405 188.456 361.449 189.998 360.988 191.714C360.349 194.28 360.46 196.976 361.309 199.481C361.836 200.983 362.184 202.542 362.344 204.125C362.347 205.863 361.912 207.574 361.08 209.099C360.281 210.559 359.706 212.131 359.376 213.762C359.294 215.306 359.61 216.845 360.292 218.232C360.572 218.924 360.784 219.642 360.924 220.375C361.042 221.079 361.042 221.797 360.924 222.5C360.718 223.77 360.145 224.951 359.275 225.899C358.525 226.608 357.712 227.248 356.848 227.813C356.229 228.249 355.749 228.853 355.465 229.554C355.283 229.995 355.248 230.483 355.364 230.946C355.428 231.303 355.538 231.45 355.492 231.459Z" fill="#455A64"/>
<path d="M483.733 394.022C482.76 394.302 481.853 394.774 481.066 395.411C480.279 396.049 479.629 396.838 479.153 397.731C478.205 399.531 477.685 401.524 477.632 403.557C477.403 407.478 478.924 411.728 480.747 415.199C484.466 412.928 486.05 408.137 486.71 405.646C487.736 401.725 487.214 394.003 483.76 394.022" fill="#349F6E"/>
<path d="M475.909 420.861C476.325 419.798 476.45 418.644 476.272 417.516C476.093 416.389 475.616 415.33 474.892 414.449C474.159 413.582 473.26 412.87 472.249 412.354C471.238 411.838 470.134 411.529 469.002 411.444C468.486 411.348 467.955 411.367 467.447 411.498C466.939 411.629 466.466 411.871 466.062 412.204C465.738 412.575 465.52 413.025 465.429 413.508C465.339 413.992 465.38 414.49 465.549 414.952C465.897 415.872 466.482 416.684 467.243 417.307C469.744 419.551 472.574 421.255 475.909 420.851" fill="#349F6E"/>
<path d="M478.04 433.382C478.06 433.114 478.06 432.845 478.04 432.576C478.04 431.999 478.04 431.257 478.04 430.369C478.084 427.932 477.734 425.504 477.005 423.178C476.23 420.851 474.852 418.771 473.011 417.151C472.452 416.669 471.837 416.257 471.179 415.923C470.95 415.804 470.758 415.731 470.63 415.676L470.438 415.621C471.311 416.094 472.134 416.656 472.892 417.297C474.667 418.931 475.997 420.99 476.758 423.279C477.475 425.577 477.846 427.97 477.857 430.378C477.903 431.294 477.94 432.054 477.976 432.576C477.971 432.846 477.993 433.116 478.04 433.382Z" fill="#263238"/>
<path d="M483.641 399.939C483.6 400.05 483.57 400.163 483.549 400.278L483.32 401.258C483.128 402.11 482.862 403.347 482.551 404.877C481.919 407.936 481.113 412.205 480.334 416.876C479.555 421.548 478.933 425.853 478.502 428.949C478.301 430.497 478.154 431.752 478.053 432.613C478.053 433.025 477.98 433.355 477.952 433.612C477.933 433.73 477.933 433.851 477.952 433.969C477.984 433.854 478.009 433.738 478.026 433.621C478.026 433.364 478.117 433.035 478.172 432.631C478.31 431.715 478.493 430.488 478.713 428.967C479.162 425.881 479.812 421.639 480.591 416.913C481.369 412.186 482.148 407.973 482.725 404.904C483.009 403.393 483.238 402.156 483.412 401.24C483.485 400.837 483.54 400.507 483.586 400.251C483.632 399.994 483.659 399.939 483.641 399.939Z" fill="#263238"/>
<path d="M481.102 424.195C481.89 421.936 483.204 419.897 484.935 418.245C486.667 416.594 488.765 415.377 491.058 414.696C492.231 414.366 493.697 414.274 494.448 415.227C495.199 416.18 494.759 417.59 494.127 418.635C492.788 420.793 490.837 422.506 488.523 423.554C486.209 424.603 483.635 424.941 481.129 424.524" fill="#349F6E"/>
<path d="M489.933 418.25C489.68 418.286 489.431 418.348 489.191 418.433C488.904 418.509 488.622 418.603 488.348 418.717C487.977 418.847 487.613 418.996 487.258 419.166C486.82 419.359 486.395 419.579 485.985 419.826C485.502 420.102 485.037 420.408 484.592 420.742C483.585 421.486 482.663 422.34 481.844 423.288C481.028 424.25 480.327 425.304 479.756 426.43C479.511 426.924 479.294 427.432 479.106 427.95C478.93 428.395 478.783 428.851 478.666 429.315C478.538 429.737 478.492 430.131 478.419 430.469C478.354 430.771 478.311 431.077 478.29 431.385C478.268 431.638 478.268 431.893 478.29 432.146C478.354 432.146 478.428 431.074 478.904 429.398C479.035 428.944 479.191 428.497 479.371 428.06C479.562 427.553 479.782 427.058 480.031 426.576C481.171 424.361 482.815 422.444 484.831 420.98C485.265 420.65 485.718 420.344 486.186 420.064C486.585 419.814 486.998 419.588 487.423 419.386C488.898 418.589 489.951 418.314 489.933 418.25Z" fill="#263238"/>
</svg>
